<?xml version="1.0" encoding="UTF-8" standalone="no"?>
<!DOCTYPE svg PUBLIC "-//W3C//DTD SVG 1.1//EN"
 "http://www.w3.org/Graphics/SVG/1.1/DTD/svg11.dtd">
<!-- Generated by graphviz version 2.43.0 (0)
 -->
<!-- Title: src/cplscheme/BiCouplingScheme.hpp Pages: 1 -->
<!--zoomable 247 -->

<svg id="main" version="1.1" xmlns="http://www.w3.org/2000/svg" xmlns:xlink="http://www.w3.org/1999/xlink" xml:space="preserve" onload="init(evt)">
<style type="text/css"><![CDATA[
.node, .edge {opacity: 0.7;}
.node.selected, .edge.selected {opacity: 1;}
.edge:hover path { stroke: red; }
.edge:hover polygon { stroke: red; fill: red; }
]]></style>

<defs>
  <circle id="rim" cx="0" cy="0" r="7"/>
  <circle id="rim2" cx="0" cy="0" r="3.5"/>
  <g id="zoomPlus">
    <use xlink:href="#rim" fill="#404040"><set attributeName="fill" to="#808080" begin="zoomplus.mouseover" end="zoomplus.mouseout"/></use>
    <path d="M-4,0h8M0,-4v8" fill="none" stroke="white" stroke-width="1.5" pointer-events="none"/>
  </g>
  <g id="zoomMin">
    <use xlink:href="#rim" fill="#404040"><set attributeName="fill" to="#808080" begin="zoomminus.mouseover" end="zoomminus.mouseout"/></use>
    <path d="M-4,0h8" fill="none" stroke="white" stroke-width="1.5" pointer-events="none"/>
  </g>
  <g id="arrowUp" transform="translate(30 24)">
    <use xlink:href="#rim"/>
    <path pointer-events="none" fill="none" stroke="white" stroke-width="1.5" d="M0,-3.0v7 M-2.5,-0.5L0,-3.0L2.5,-0.5"/>
  </g>
  <g id="arrowRight" transform="rotate(90) translate(36 -43)">
    <use xlink:href="#rim"/>
    <path pointer-events="none" fill="none" stroke="white" stroke-width="1.5" d="M0,-3.0v7 M-2.5,-0.5L0,-3.0L2.5,-0.5"/>
  </g>
  <g id="arrowDown" transform="rotate(180) translate(-30 -48)">
    <use xlink:href="#rim"/>
    <path pointer-events="none" fill="none" stroke="white" stroke-width="1.5" d="M0,-3.0v7 M-2.5,-0.5L0,-3.0L2.5,-0.5"/>
  </g>
  <g id="arrowLeft" transform="rotate(270) translate(-36 17)">
    <use xlink:href="#rim"/>
    <path pointer-events="none" fill="none" stroke="white" stroke-width="1.5" d="M0,-3.0v7 M-2.5,-0.5L0,-3.0L2.5,-0.5"/>
  </g>
  <g id="resetDef">
    <use xlink:href="#rim2" fill="#404040"><set attributeName="fill" to="#808080" begin="reset.mouseover" end="reset.mouseout"/></use>
  </g>
</defs>
<script type="application/ecmascript">
var viewWidth = 1155;
var viewHeight = 247;
var sectionId = 'dynsection-1';
</script>
<script type="application/ecmascript" xlink:href="svg.min.js"/>
<svg id="graph" class="graph">
<g id="viewport">
<title>src/cplscheme/BiCouplingScheme.hpp</title>
<!-- Node1 -->
<g id="Node000001" class="node">
<title>Node1</title>
<g id="a_Node000001"><a xlink:title=" ">
<polygon fill="#999999" stroke="#666666" points="493,-239 351,-239 351,-209 493,-209 493,-239"/>
<text text-anchor="start" x="359" y="-227" font-family="Helvetica,sans-Serif" font-size="10.00">src/cplscheme/BiCoupling</text>
<text text-anchor="middle" x="422" y="-216" font-family="Helvetica,sans-Serif" font-size="10.00">Scheme.hpp</text>
</a>
</g>
</g>
<!-- Node2 -->
<g id="Node000002" class="node">
<title>Node2</title>
<g id="a_Node000002"><a xlink:href="BiCouplingScheme_8cpp.html" target="_top" xlink:title=" ">
<polygon fill="white" stroke="#666666" points="224,-173 82,-173 82,-143 224,-143 224,-173"/>
<text text-anchor="start" x="90" y="-161" font-family="Helvetica,sans-Serif" font-size="10.00">src/cplscheme/BiCoupling</text>
<text text-anchor="middle" x="153" y="-150" font-family="Helvetica,sans-Serif" font-size="10.00">Scheme.cpp</text>
</a>
</g>
</g>
<!-- Node1&#45;&gt;Node2 -->
<g id="edge1_Node000001_Node000002" class="edge">
<title>Node1&#45;&gt;Node2</title>
<g id="a_edge1_Node000001_Node000002"><a xlink:title=" ">
<path fill="none" stroke="#63b8ff" d="M353,-206.58C309.33,-196.19 253.47,-182.9 211.9,-173.01"/>
<polygon fill="#63b8ff" stroke="#63b8ff" points="352.43,-210.05 362.97,-208.95 354.05,-203.24 352.43,-210.05"/>
</a>
</g>
</g>
<!-- Node3 -->
<g id="Node000003" class="node">
<title>Node3</title>
<g id="a_Node000003"><a xlink:href="ParallelCouplingScheme_8cpp.html" target="_top" xlink:title=" ">
<polygon fill="white" stroke="#666666" points="168,-107 0,-107 0,-77 168,-77 168,-107"/>
<text text-anchor="start" x="8" y="-95" font-family="Helvetica,sans-Serif" font-size="10.00">src/cplscheme/ParallelCoupling</text>
<text text-anchor="middle" x="84" y="-84" font-family="Helvetica,sans-Serif" font-size="10.00">Scheme.cpp</text>
</a>
</g>
</g>
<!-- Node1&#45;&gt;Node3 -->
<g id="edge2_Node000001_Node000003" class="edge">
<title>Node1&#45;&gt;Node3</title>
<g id="a_edge2_Node000001_Node000003"><a xlink:title=" ">
<path fill="none" stroke="#63b8ff" d="M354.43,-206.11C327.59,-198.02 296.98,-186.99 271,-173 252.06,-162.8 251.92,-153.24 233,-143 204.08,-127.35 169.38,-115.36 140.74,-107.04"/>
<polygon fill="#63b8ff" stroke="#63b8ff" points="353.55,-209.5 364.13,-208.96 355.53,-202.79 353.55,-209.5"/>
</a>
</g>
</g>
<!-- Node4 -->
<g id="Node000004" class="node">
<title>Node4</title>
<g id="a_Node000004"><a xlink:href="ParallelCouplingScheme_8hpp.html" target="_top" xlink:title=" ">
<polygon fill="white" stroke="#666666" points="448,-173 280,-173 280,-143 448,-143 448,-173"/>
<text text-anchor="start" x="288" y="-161" font-family="Helvetica,sans-Serif" font-size="10.00">src/cplscheme/ParallelCoupling</text>
<text text-anchor="middle" x="364" y="-150" font-family="Helvetica,sans-Serif" font-size="10.00">Scheme.hpp</text>
</a>
</g>
</g>
<!-- Node1&#45;&gt;Node4 -->
<g id="edge3_Node000001_Node000004" class="edge">
<title>Node1&#45;&gt;Node4</title>
<g id="a_edge3_Node000001_Node000004"><a xlink:title=" ">
<path fill="none" stroke="#63b8ff" d="M402.4,-201.37C393.96,-192.06 384.34,-181.44 376.84,-173.16"/>
<polygon fill="#63b8ff" stroke="#63b8ff" points="399.82,-203.74 409.13,-208.8 405.01,-199.04 399.82,-203.74"/>
</a>
</g>
</g>
<!-- Node5 -->
<g id="Node000005" class="node">
<title>Node5</title>
<g id="a_Node000005"><a xlink:href="CouplingSchemeConfiguration_8cpp.html" target="_top" xlink:title=" ">
<polygon fill="white" stroke="#666666" points="576.5,-107 389.5,-107 389.5,-77 576.5,-77 576.5,-107"/>
<text text-anchor="start" x="397.5" y="-95" font-family="Helvetica,sans-Serif" font-size="10.00">src/cplscheme/config</text>
<text text-anchor="middle" x="483" y="-84" font-family="Helvetica,sans-Serif" font-size="10.00">/CouplingSchemeConfiguration.cpp</text>
</a>
</g>
</g>
<!-- Node1&#45;&gt;Node5 -->
<g id="edge19_Node000001_Node000005" class="edge">
<title>Node1&#45;&gt;Node5</title>
<g id="a_edge19_Node000001_Node000005"><a xlink:title=" ">
<path fill="none" stroke="#63b8ff" d="M439.71,-200.72C445.78,-192.37 452.23,-182.57 457,-173 467.95,-151.04 475.72,-123.45 479.78,-107.08"/>
<polygon fill="#63b8ff" stroke="#63b8ff" points="436.83,-198.74 433.62,-208.84 442.43,-202.94 436.83,-198.74"/>
</a>
</g>
</g>
<!-- Node9 -->
<g id="Node000009" class="node">
<title>Node9</title>
<g id="a_Node000009"><a xlink:href="SerialCouplingScheme_8cpp.html" target="_top" xlink:title=" ">
<polygon fill="white" stroke="#666666" points="1147,-107 987,-107 987,-77 1147,-77 1147,-107"/>
<text text-anchor="start" x="995" y="-95" font-family="Helvetica,sans-Serif" font-size="10.00">src/cplscheme/SerialCoupling</text>
<text text-anchor="middle" x="1067" y="-84" font-family="Helvetica,sans-Serif" font-size="10.00">Scheme.cpp</text>
</a>
</g>
</g>
<!-- Node1&#45;&gt;Node9 -->
<g id="edge10_Node000001_Node000009" class="edge">
<title>Node1&#45;&gt;Node9</title>
<g id="a_edge10_Node000001_Node000009"><a xlink:title=" ">
<path fill="none" stroke="#63b8ff" d="M503.26,-217.93C586.21,-211.62 718.28,-198.42 830,-173 903.89,-156.19 987.17,-125.12 1032.7,-107.05"/>
<polygon fill="#63b8ff" stroke="#63b8ff" points="502.86,-214.45 493.15,-218.69 503.38,-221.43 502.86,-214.45"/>
</a>
</g>
</g>
<!-- Node10 -->
<g id="Node000010" class="node">
<title>Node10</title>
<g id="a_Node000010"><a xlink:href="SerialCouplingScheme_8hpp.html" target="_top" xlink:title=" ">
<polygon fill="white" stroke="#666666" points="821,-173 661,-173 661,-143 821,-143 821,-173"/>
<text text-anchor="start" x="669" y="-161" font-family="Helvetica,sans-Serif" font-size="10.00">src/cplscheme/SerialCoupling</text>
<text text-anchor="middle" x="741" y="-150" font-family="Helvetica,sans-Serif" font-size="10.00">Scheme.hpp</text>
</a>
</g>
</g>
<!-- Node1&#45;&gt;Node10 -->
<g id="edge11_Node000001_Node000010" class="edge">
<title>Node1&#45;&gt;Node10</title>
<g id="a_edge11_Node000001_Node000010"><a xlink:title=" ">
<path fill="none" stroke="#63b8ff" d="M501.87,-206.98C553.94,-196.53 621.23,-183.03 671.16,-173.01"/>
<polygon fill="#63b8ff" stroke="#63b8ff" points="501.12,-203.56 492.01,-208.95 502.5,-210.42 501.12,-203.56"/>
</a>
</g>
</g>
<!-- Node4&#45;&gt;Node3 -->
<g id="edge4_Node000004_Node000003" class="edge">
<title>Node4&#45;&gt;Node3</title>
<g id="a_edge4_Node000004_Node000003"><a xlink:title=" ">
<path fill="none" stroke="#63b8ff" d="M292.75,-140.71C247.21,-130.31 188.76,-116.95 145.3,-107.01"/>
<polygon fill="#63b8ff" stroke="#63b8ff" points="292.02,-144.14 302.55,-142.95 293.58,-137.31 292.02,-144.14"/>
</a>
</g>
</g>
<!-- Node4&#45;&gt;Node5 -->
<g id="edge5_Node000004_Node000005" class="edge">
<title>Node4&#45;&gt;Node5</title>
<g id="a_edge5_Node000004_Node000005"><a xlink:title=" ">
<path fill="none" stroke="#63b8ff" d="M399.13,-138.11C417.65,-128.14 439.99,-116.13 456.95,-107.01"/>
<polygon fill="#63b8ff" stroke="#63b8ff" points="397.26,-135.14 390.12,-142.95 400.58,-141.3 397.26,-135.14"/>
</a>
</g>
</g>
<!-- Node6 -->
<g id="Node000006" class="node">
<title>Node6</title>
<g id="a_Node000006"><a xlink:href="ParallelImplicitCouplingSchemeTest_8cpp.html" target="_top" xlink:title=" ">
<polygon fill="white" stroke="#666666" points="449,-41 275,-41 275,0 449,0 449,-41"/>
<text text-anchor="start" x="283" y="-29" font-family="Helvetica,sans-Serif" font-size="10.00">src/cplscheme/tests</text>
<text text-anchor="start" x="283" y="-18" font-family="Helvetica,sans-Serif" font-size="10.00">/ParallelImplicitCouplingScheme</text>
<text text-anchor="middle" x="362" y="-7" font-family="Helvetica,sans-Serif" font-size="10.00">Test.cpp</text>
</a>
</g>
</g>
<!-- Node4&#45;&gt;Node6 -->
<g id="edge6_Node000004_Node000006" class="edge">
<title>Node4&#45;&gt;Node6</title>
<g id="a_edge6_Node000004_Node000006"><a xlink:title=" ">
<path fill="none" stroke="#63b8ff" d="M363.64,-132.54C363.25,-106.38 362.65,-65.39 362.29,-41.21"/>
<polygon fill="#63b8ff" stroke="#63b8ff" points="360.14,-132.81 363.79,-142.76 367.14,-132.7 360.14,-132.81"/>
</a>
</g>
</g>
<!-- Node7 -->
<g id="Node000007" class="node">
<title>Node7</title>
<g id="a_Node000007"><a xlink:href="ParallelCouplingSchemeFixture_8hpp.html" target="_top" xlink:title=" ">
<polygon fill="white" stroke="#666666" points="334.5,-107 185.5,-107 185.5,-77 334.5,-77 334.5,-107"/>
<text text-anchor="start" x="193.5" y="-95" font-family="Helvetica,sans-Serif" font-size="10.00">src/testing/ParallelCoupling</text>
<text text-anchor="middle" x="260" y="-84" font-family="Helvetica,sans-Serif" font-size="10.00">SchemeFixture.hpp</text>
</a>
</g>
</g>
<!-- Node4&#45;&gt;Node7 -->
<g id="edge7_Node000004_Node000007" class="edge">
<title>Node4&#45;&gt;Node7</title>
<g id="a_edge7_Node000004_Node000007"><a xlink:title=" ">
<path fill="none" stroke="#63b8ff" d="M332.63,-137.69C316.57,-127.82 297.39,-116.01 282.77,-107.01"/>
<polygon fill="#63b8ff" stroke="#63b8ff" points="330.83,-140.69 341.18,-142.95 334.49,-134.73 330.83,-140.69"/>
</a>
</g>
</g>
<!-- Node7&#45;&gt;Node6 -->
<g id="edge8_Node000007_Node000006" class="edge">
<title>Node7&#45;&gt;Node6</title>
<g id="a_edge8_Node000007_Node000006"><a xlink:title=" ">
<path fill="none" stroke="#63b8ff" d="M289.29,-71.04C303.1,-61.63 319.53,-50.44 333.27,-41.07"/>
<polygon fill="#63b8ff" stroke="#63b8ff" points="286.93,-68.41 280.64,-76.94 290.88,-74.2 286.93,-68.41"/>
</a>
</g>
</g>
<!-- Node8 -->
<g id="Node000008" class="node">
<title>Node8</title>
<g id="a_Node000008"><a xlink:href="ParallelCouplingSchemeFixture_8cpp.html" target="_top" xlink:title=" ">
<polygon fill="white" stroke="#666666" points="256.5,-35.5 107.5,-35.5 107.5,-5.5 256.5,-5.5 256.5,-35.5"/>
<text text-anchor="start" x="115.5" y="-23.5" font-family="Helvetica,sans-Serif" font-size="10.00">src/testing/ParallelCoupling</text>
<text text-anchor="middle" x="182" y="-12.5" font-family="Helvetica,sans-Serif" font-size="10.00">SchemeFixture.cpp</text>
</a>
</g>
</g>
<!-- Node7&#45;&gt;Node8 -->
<g id="edge9_Node000007_Node000008" class="edge">
<title>Node7&#45;&gt;Node8</title>
<g id="a_edge9_Node000007_Node000008"><a xlink:title=" ">
<path fill="none" stroke="#63b8ff" d="M236.42,-69.99C223.9,-58.84 208.86,-45.43 197.76,-35.54"/>
<polygon fill="#63b8ff" stroke="#63b8ff" points="234.42,-72.9 244.22,-76.94 239.08,-67.67 234.42,-72.9"/>
</a>
</g>
</g>
<!-- Node10&#45;&gt;Node5 -->
<g id="edge13_Node000010_Node000005" class="edge">
<title>Node10&#45;&gt;Node5</title>
<g id="a_edge13_Node000010_Node000005"><a xlink:title=" ">
<path fill="none" stroke="#63b8ff" d="M674.55,-140.52C632.71,-130.14 579.28,-116.88 539.49,-107.01"/>
<polygon fill="#63b8ff" stroke="#63b8ff" points="673.83,-143.94 684.38,-142.95 675.52,-137.15 673.83,-143.94"/>
</a>
</g>
</g>
<!-- Node10&#45;&gt;Node9 -->
<g id="edge12_Node000010_Node000009" class="edge">
<title>Node10&#45;&gt;Node9</title>
<g id="a_edge12_Node000010_Node000009"><a xlink:title=" ">
<path fill="none" stroke="#63b8ff" d="M822.63,-140.98C875.83,-130.53 944.6,-117.03 995.62,-107.01"/>
<polygon fill="#63b8ff" stroke="#63b8ff" points="821.68,-137.59 812.54,-142.95 823.03,-144.46 821.68,-137.59"/>
</a>
</g>
</g>
<!-- Node11 -->
<g id="Node000011" class="node">
<title>Node11</title>
<g id="a_Node000011"><a xlink:href="ExplicitCouplingSchemeTest_8cpp.html" target="_top" xlink:title=" ">
<polygon fill="white" stroke="#666666" points="771.5,-107 594.5,-107 594.5,-77 771.5,-77 771.5,-107"/>
<text text-anchor="start" x="602.5" y="-95" font-family="Helvetica,sans-Serif" font-size="10.00">src/cplscheme/tests</text>
<text text-anchor="middle" x="683" y="-84" font-family="Helvetica,sans-Serif" font-size="10.00">/ExplicitCouplingSchemeTest.cpp</text>
</a>
</g>
</g>
<!-- Node10&#45;&gt;Node11 -->
<g id="edge14_Node000010_Node000011" class="edge">
<title>Node10&#45;&gt;Node11</title>
<g id="a_edge14_Node000010_Node000011"><a xlink:title=" ">
<path fill="none" stroke="#63b8ff" d="M721.4,-135.37C712.96,-126.06 703.34,-115.44 695.84,-107.16"/>
<polygon fill="#63b8ff" stroke="#63b8ff" points="718.82,-137.74 728.13,-142.8 724.01,-133.04 718.82,-137.74"/>
</a>
</g>
</g>
<!-- Node12 -->
<g id="Node000012" class="node">
<title>Node12</title>
<g id="a_Node000012"><a xlink:href="SerialImplicitCouplingSchemeTest_8cpp.html" target="_top" xlink:title=" ">
<polygon fill="white" stroke="#666666" points="882,-41 716,-41 716,0 882,0 882,-41"/>
<text text-anchor="start" x="724" y="-29" font-family="Helvetica,sans-Serif" font-size="10.00">src/cplscheme/tests</text>
<text text-anchor="start" x="724" y="-18" font-family="Helvetica,sans-Serif" font-size="10.00">/SerialImplicitCouplingScheme</text>
<text text-anchor="middle" x="799" y="-7" font-family="Helvetica,sans-Serif" font-size="10.00">Test.cpp</text>
</a>
</g>
</g>
<!-- Node10&#45;&gt;Node12 -->
<g id="edge15_Node000010_Node000012" class="edge">
<title>Node10&#45;&gt;Node12</title>
<g id="a_edge15_Node000010_Node000012"><a xlink:title=" ">
<path fill="none" stroke="#63b8ff" d="M762.07,-135.25C769.04,-126.98 776.23,-117.1 781,-107 790.97,-85.88 795.46,-59.23 797.45,-41.34"/>
<polygon fill="#63b8ff" stroke="#63b8ff" points="759.27,-133.13 755.26,-142.93 764.51,-137.77 759.27,-133.13"/>
</a>
</g>
</g>
<!-- Node13 -->
<g id="Node000013" class="node">
<title>Node13</title>
<g id="a_Node000013"><a xlink:href="SerialCouplingSchemeFixture_8hpp.html" target="_top" xlink:title=" ">
<polygon fill="white" stroke="#666666" points="968.5,-107 827.5,-107 827.5,-77 968.5,-77 968.5,-107"/>
<text text-anchor="start" x="835.5" y="-95" font-family="Helvetica,sans-Serif" font-size="10.00">src/testing/SerialCoupling</text>
<text text-anchor="middle" x="898" y="-84" font-family="Helvetica,sans-Serif" font-size="10.00">SchemeFixture.hpp</text>
</a>
</g>
</g>
<!-- Node10&#45;&gt;Node13 -->
<g id="edge16_Node000010_Node000013" class="edge">
<title>Node10&#45;&gt;Node13</title>
<g id="a_edge16_Node000010_Node000013"><a xlink:title=" ">
<path fill="none" stroke="#63b8ff" d="M785.02,-139.05C809.9,-128.91 840.53,-116.43 863.63,-107.01"/>
<polygon fill="#63b8ff" stroke="#63b8ff" points="783.39,-135.94 775.45,-142.95 786.04,-142.42 783.39,-135.94"/>
</a>
</g>
</g>
<!-- Node13&#45;&gt;Node12 -->
<g id="edge17_Node000013_Node000012" class="edge">
<title>Node13&#45;&gt;Node12</title>
<g id="a_edge17_Node000013_Node000012"><a xlink:title=" ">
<path fill="none" stroke="#63b8ff" d="M869.57,-71.04C856.17,-61.63 840.22,-50.44 826.88,-41.07"/>
<polygon fill="#63b8ff" stroke="#63b8ff" points="867.77,-74.05 877.97,-76.94 871.79,-68.33 867.77,-74.05"/>
</a>
</g>
</g>
<!-- Node14 -->
<g id="Node000014" class="node">
<title>Node14</title>
<g id="a_Node000014"><a xlink:href="SerialCouplingSchemeFixture_8cpp.html" target="_top" xlink:title=" ">
<polygon fill="white" stroke="#666666" points="1041.5,-35.5 900.5,-35.5 900.5,-5.5 1041.5,-5.5 1041.5,-35.5"/>
<text text-anchor="start" x="908.5" y="-23.5" font-family="Helvetica,sans-Serif" font-size="10.00">src/testing/SerialCoupling</text>
<text text-anchor="middle" x="971" y="-12.5" font-family="Helvetica,sans-Serif" font-size="10.00">SchemeFixture.cpp</text>
</a>
</g>
</g>
<!-- Node13&#45;&gt;Node14 -->
<g id="edge18_Node000013_Node000014" class="edge">
<title>Node13&#45;&gt;Node14</title>
<g id="a_edge18_Node000013_Node000014"><a xlink:title=" ">
<path fill="none" stroke="#63b8ff" d="M920.07,-69.99C931.78,-58.84 945.87,-45.43 956.25,-35.54"/>
<polygon fill="#63b8ff" stroke="#63b8ff" points="917.6,-67.51 912.77,-76.94 922.43,-72.58 917.6,-67.51"/>
</a>
</g>
</g>
</g>
</svg>

<g id="navigator" transform="translate(0 0)" fill="#404254">
  <rect fill="#f2f5e9" fill-opacity="0.5" stroke="#606060" stroke-width=".5" x="0" y="0" width="60" height="60"/>
  <use id="zoomplus" xlink:href="#zoomPlus" x="17" y="9" onmousedown="handleZoom(evt,'in')"/>
  <use id="zoomminus" xlink:href="#zoomMin" x="42" y="9" onmousedown="handleZoom(evt,'out')"/>
  <use id="reset" xlink:href="#resetDef" x="30" y="36" onmousedown="handleReset()"/>
   <use id="arrowup" xlink:href="#arrowUp" x="0" y="0" onmousedown="handlePan(0,-1)"/>
  <use id="arrowright" xlink:href="#arrowRight" x="0" y="0" onmousedown="handlePan(1,0)"/>
  <use id="arrowdown" xlink:href="#arrowDown" x="0" y="0" onmousedown="handlePan(0,1)"/>
  <use id="arrowleft" xlink:href="#arrowLeft" x="0" y="0" onmousedown="handlePan(-1,0)"/>
</g>
<svg viewBox="0 0 15 15" width="100%" height="30px" preserveAspectRatio="xMaxYMin meet">
 <g id="arrow_out" transform="scale(0.3 0.3)">
  <a xlink:href="BiCouplingScheme_8hpp__dep__incl_org.svg" target="_base">
   <rect id="button" ry="5" rx="5" y="6" x="6" height="38" width="38"
        fill="#f2f5e9" fill-opacity="0.5" stroke="#606060" stroke-width="1.0"/>
   <path id="arrow"
     d="M 11.500037,31.436501 C 11.940474,20.09759 22.043105,11.32322 32.158766,21.979434 L 37.068811,17.246167 C 37.068811,17.246167 37.088388,32 37.088388,32 L 22.160133,31.978069 C 22.160133,31.978069 26.997745,27.140456 26.997745,27.140456 C 18.528582,18.264221 13.291696,25.230495 11.500037,31.436501 z"
     style="fill:#404040;"/>
  </a>
 </g>
</svg>

<style type='text/css'>
<![CDATA[
[data-mouse-over-selected='false'] { opacity: 0.7; }
[data-mouse-over-selected='true']  { opacity: 1.0; }
]]>
</style>
<script type="application/ecmascript"><![CDATA[
document.addEventListener('DOMContentLoaded', (event) => {
  highlightEdges();
  highlightAdjacentNodes();
});
]]></script>
</svg>
