<?xml version="1.0" encoding="UTF-8" standalone="no"?>
<!DOCTYPE svg PUBLIC "-//W3C//DTD SVG 1.1//EN"
 "http://www.w3.org/Graphics/SVG/1.1/DTD/svg11.dtd">
<!-- Generated by graphviz version 2.43.0 (0)
 -->
<!-- Title: precice::action::ActionConfiguration Pages: 1 -->
<svg width="1259pt" height="355pt"
 viewBox="0.00 0.00 1259.00 354.50" xmlns="http://www.w3.org/2000/svg" xmlns:xlink="http://www.w3.org/1999/xlink">
<g id="graph0" class="graph" transform="scale(1 1) rotate(0) translate(4 350.5)">
<title>precice::action::ActionConfiguration</title>
<!-- Node1 -->
<g id="Node000001" class="node">
<title>Node1</title>
<g id="a_Node000001"><a xlink:title="Configures an Action subclass object.">
<polygon fill="#999999" stroke="#666666" points="1251,-174 1061,-174 1061,-155 1251,-155 1251,-174"/>
<text text-anchor="middle" x="1156" y="-162" font-family="Helvetica,sans-Serif" font-size="10.00">precice::action::ActionConfiguration</text>
</a>
</g>
</g>
<!-- Node2 -->
<g id="Node000002" class="node">
<title>Node2</title>
<g id="a_Node000002"><a xlink:href="structprecice_1_1xml_1_1XMLTag_1_1Listener.html" target="_top" xlink:title="Callback interface for configuration classes using XMLTag.">
<polygon fill="white" stroke="#666666" points="892,-271.5 773,-271.5 773,-241.5 892,-241.5 892,-271.5"/>
<text text-anchor="start" x="781" y="-259.5" font-family="Helvetica,sans-Serif" font-size="10.00">precice::xml::XMLTag</text>
<text text-anchor="middle" x="832.5" y="-248.5" font-family="Helvetica,sans-Serif" font-size="10.00">::Listener</text>
</a>
</g>
</g>
<!-- Node2&#45;&gt;Node1 -->
<g id="edge1_Node000001_Node000002" class="edge">
<title>Node2&#45;&gt;Node1</title>
<g id="a_edge1_Node000001_Node000002"><a xlink:title=" ">
<path fill="none" stroke="#63b8ff" d="M902.25,-247.73C943.66,-241.39 997.09,-231.29 1043,-216.5 1077.89,-205.26 1116.14,-185.83 1137.7,-174.17"/>
<polygon fill="#63b8ff" stroke="#63b8ff" points="901.63,-244.29 892.26,-249.23 902.67,-251.21 901.63,-244.29"/>
</a>
</g>
</g>
<!-- Node3 -->
<g id="Node000003" class="node">
<title>Node3</title>
<g id="a_Node000003"><a xlink:href="classprecice_1_1logging_1_1Logger.html" target="_top" xlink:title="This class provides a lightweight logger.">
<polygon fill="white" stroke="#666666" points="899,-223 766,-223 766,-204 899,-204 899,-223"/>
<text text-anchor="middle" x="832.5" y="-211" font-family="Helvetica,sans-Serif" font-size="10.00">precice::logging::Logger</text>
</a>
</g>
</g>
<!-- Node3&#45;&gt;Node1 -->
<g id="edge2_Node000001_Node000003" class="edge">
<title>Node3&#45;&gt;Node1</title>
<g id="a_edge2_Node000001_Node000003"><a xlink:title=" ">
<path fill="none" stroke="#9a32cd" stroke-dasharray="5,2" d="M909.52,-206.74C949.4,-202.7 999,-196.91 1043,-189.5 1067.85,-185.31 1095.49,-179.16 1117.09,-174.01"/>
<polygon fill="#9a32cd" stroke="#9a32cd" points="908.93,-203.28 899.33,-207.76 909.63,-210.25 908.93,-203.28"/>
</a>
</g>
<text text-anchor="middle" x="997.5" y="-204.5" font-family="Helvetica,sans-Serif" font-size="10.00" fill="grey"> _log</text>
</g>
<!-- Node4 -->
<g id="Node000004" class="node">
<title>Node4</title>
<g id="a_Node000004"><a xlink:title=" ">
<polygon fill="white" stroke="#666666" points="547,-334.5 377,-334.5 377,-304.5 547,-304.5 547,-334.5"/>
<text text-anchor="start" x="385" y="-322.5" font-family="Helvetica,sans-Serif" font-size="10.00">std::unique_ptr&lt; precice</text>
<text text-anchor="middle" x="462" y="-311.5" font-family="Helvetica,sans-Serif" font-size="10.00">::logging::Logger::LoggerImpl &gt;</text>
</a>
</g>
</g>
<!-- Node4&#45;&gt;Node3 -->
<g id="edge3_Node000003_Node000004" class="edge">
<title>Node4&#45;&gt;Node3</title>
<g id="a_edge3_Node000003_Node000004"><a xlink:title=" ">
<path fill="none" stroke="#9a32cd" stroke-dasharray="5,2" d="M556.46,-335.3C608.13,-338.64 670.3,-333.04 713,-297.5 736.04,-278.32 708.94,-252.8 731,-232.5 740.61,-223.66 752.98,-218.33 765.74,-215.23"/>
<polygon fill="#9a32cd" stroke="#9a32cd" points="556.51,-331.79 546.28,-334.52 555.98,-338.77 556.51,-331.79"/>
</a>
</g>
<text text-anchor="middle" x="639" y="-338.5" font-family="Helvetica,sans-Serif" font-size="10.00" fill="grey"> _impl</text>
</g>
<!-- Node5 -->
<g id="Node000005" class="node">
<title>Node5</title>
<g id="a_Node000005"><a xlink:href="classprecice_1_1logging_1_1Logger_1_1LoggerImpl.html" target="_top" xlink:title=" ">
<polygon fill="white" stroke="#666666" points="292,-334.5 159,-334.5 159,-304.5 292,-304.5 292,-334.5"/>
<text text-anchor="start" x="167" y="-322.5" font-family="Helvetica,sans-Serif" font-size="10.00">precice::logging::Logger</text>
<text text-anchor="middle" x="225.5" y="-311.5" font-family="Helvetica,sans-Serif" font-size="10.00">::LoggerImpl</text>
</a>
</g>
</g>
<!-- Node5&#45;&gt;Node4 -->
<g id="edge4_Node000004_Node000005" class="edge">
<title>Node5&#45;&gt;Node4</title>
<g id="a_edge4_Node000004_Node000005"><a xlink:title=" ">
<path fill="none" stroke="#9a32cd" stroke-dasharray="5,2" d="M302.18,-319.5C326.03,-319.5 352.51,-319.5 376.91,-319.5"/>
<polygon fill="#9a32cd" stroke="#9a32cd" points="302.13,-316 292.13,-319.5 302.13,-323 302.13,-316"/>
</a>
</g>
<text text-anchor="middle" x="334.5" y="-322.5" font-family="Helvetica,sans-Serif" font-size="10.00" fill="grey"> ptr</text>
</g>
<!-- Node6 -->
<g id="Node000006" class="node">
<title>Node6</title>
<g id="a_Node000006"><a xlink:title=" ">
<polygon fill="white" stroke="#666666" points="122,-334.5 0,-334.5 0,-304.5 122,-304.5 122,-334.5"/>
<text text-anchor="start" x="8" y="-322.5" font-family="Helvetica,sans-Serif" font-size="10.00">BoostLogger&lt; Logger</text>
<text text-anchor="middle" x="61" y="-311.5" font-family="Helvetica,sans-Serif" font-size="10.00">::LoggerImpl &gt;</text>
</a>
</g>
</g>
<!-- Node6&#45;&gt;Node5 -->
<g id="edge5_Node000005_Node000006" class="edge">
<title>Node6&#45;&gt;Node5</title>
<g id="a_edge5_Node000005_Node000006"><a xlink:title=" ">
<path fill="none" stroke="#63b8ff" d="M132.33,-319.5C141.17,-319.5 150.19,-319.5 158.96,-319.5"/>
<polygon fill="#63b8ff" stroke="#63b8ff" points="132.05,-316 122.05,-319.5 132.05,-323 132.05,-316"/>
</a>
</g>
</g>
<!-- Node7 -->
<g id="Node000007" class="node">
<title>Node7</title>
<g id="a_Node000007"><a xlink:title=" ">
<polygon fill="white" stroke="#666666" points="258,-102 193,-102 193,-83 258,-83 258,-102"/>
<text text-anchor="middle" x="225.5" y="-90" font-family="Helvetica,sans-Serif" font-size="10.00">std::string</text>
</a>
</g>
</g>
<!-- Node7&#45;&gt;Node1 -->
<g id="edge6_Node000001_Node000007" class="edge">
<title>Node7&#45;&gt;Node1</title>
<g id="a_edge6_Node000001_Node000007"><a xlink:title=" ">
<path fill="none" stroke="#9a32cd" stroke-dasharray="5,2" d="M250.44,-107.4C279.22,-124.35 329.59,-151.05 377,-161.5 442.01,-175.82 868.2,-169.87 1060.79,-166.37"/>
<polygon fill="#9a32cd" stroke="#9a32cd" points="251.92,-104.2 241.54,-102.06 248.32,-110.2 251.92,-104.2"/>
</a>
</g>
<text text-anchor="middle" x="639" y="-283.5" font-family="Helvetica,sans-Serif" font-size="10.00" fill="grey"> ATTR_MESH</text>
<text text-anchor="middle" x="639" y="-272.5" font-family="Helvetica,sans-Serif" font-size="10.00" fill="grey">ATTR_NAME</text>
<text text-anchor="middle" x="639" y="-261.5" font-family="Helvetica,sans-Serif" font-size="10.00" fill="grey">ATTR_TIMING</text>
<text text-anchor="middle" x="639" y="-250.5" font-family="Helvetica,sans-Serif" font-size="10.00" fill="grey">ATTR_TYPE</text>
<text text-anchor="middle" x="639" y="-239.5" font-family="Helvetica,sans-Serif" font-size="10.00" fill="grey">ATTR_VALUE</text>
<text text-anchor="middle" x="639" y="-228.5" font-family="Helvetica,sans-Serif" font-size="10.00" fill="grey">NAME_COMPUTE_CURVATURE</text>
<text text-anchor="middle" x="639" y="-217.5" font-family="Helvetica,sans-Serif" font-size="10.00" fill="grey">NAME_DIVIDE_BY_AREA</text>
<text text-anchor="middle" x="639" y="-206.5" font-family="Helvetica,sans-Serif" font-size="10.00" fill="grey">NAME_MULTIPLY_BY_AREA</text>
<text text-anchor="middle" x="639" y="-195.5" font-family="Helvetica,sans-Serif" font-size="10.00" fill="grey">NAME_PYTHON</text>
<text text-anchor="middle" x="639" y="-184.5" font-family="Helvetica,sans-Serif" font-size="10.00" fill="grey">NAME_RECORDER</text>
<text text-anchor="middle" x="639" y="-173.5" font-family="Helvetica,sans-Serif" font-size="10.00" fill="grey">...</text>
</g>
<!-- Node10 -->
<g id="Node000010" class="node">
<title>Node10</title>
<g id="a_Node000010"><a xlink:href="structprecice_1_1action_1_1ActionConfiguration_1_1ConfiguredAction.html" target="_top" xlink:title="Stores configuration information temporarily to create the Action.">
<polygon fill="white" stroke="#666666" points="927.5,-127.5 737.5,-127.5 737.5,-97.5 927.5,-97.5 927.5,-127.5"/>
<text text-anchor="start" x="745.5" y="-115.5" font-family="Helvetica,sans-Serif" font-size="10.00">precice::action::ActionConfiguration</text>
<text text-anchor="middle" x="832.5" y="-104.5" font-family="Helvetica,sans-Serif" font-size="10.00">::ConfiguredAction</text>
</a>
</g>
</g>
<!-- Node7&#45;&gt;Node10 -->
<g id="edge10_Node000010_Node000007" class="edge">
<title>Node7&#45;&gt;Node10</title>
<g id="a_edge10_Node000010_Node000007"><a xlink:title=" ">
<path fill="none" stroke="#9a32cd" stroke-dasharray="5,2" d="M268.39,-93.88C364.69,-97.07 603.78,-104.97 737.38,-109.39"/>
<polygon fill="#9a32cd" stroke="#9a32cd" points="268.29,-90.38 258.18,-93.55 268.05,-97.38 268.29,-90.38"/>
</a>
</g>
<text text-anchor="middle" x="462" y="-149.5" font-family="Helvetica,sans-Serif" font-size="10.00" fill="grey"> mesh</text>
<text text-anchor="middle" x="462" y="-138.5" font-family="Helvetica,sans-Serif" font-size="10.00" fill="grey">path</text>
<text text-anchor="middle" x="462" y="-127.5" font-family="Helvetica,sans-Serif" font-size="10.00" fill="grey">targetData</text>
<text text-anchor="middle" x="462" y="-116.5" font-family="Helvetica,sans-Serif" font-size="10.00" fill="grey">timing</text>
<text text-anchor="middle" x="462" y="-105.5" font-family="Helvetica,sans-Serif" font-size="10.00" fill="grey">type</text>
</g>
<!-- Node11 -->
<g id="Node000011" class="node">
<title>Node11</title>
<g id="a_Node000011"><a xlink:title=" ">
<polygon fill="white" stroke="#666666" points="532,-56 392,-56 392,-37 532,-37 532,-56"/>
<text text-anchor="middle" x="462" y="-44" font-family="Helvetica,sans-Serif" font-size="10.00">std::vector&lt; std::string &gt;</text>
</a>
</g>
</g>
<!-- Node7&#45;&gt;Node11 -->
<g id="edge12_Node000011_Node000007" class="edge">
<title>Node7&#45;&gt;Node11</title>
<g id="a_edge12_Node000011_Node000007"><a xlink:title=" ">
<path fill="none" stroke="#9a32cd" stroke-dasharray="5,2" d="M264.34,-79.84C278.54,-75.44 294.89,-70.79 310,-67.5 336.51,-61.72 366,-57.21 391.83,-53.87"/>
<polygon fill="#9a32cd" stroke="#9a32cd" points="262.91,-76.62 254.44,-82.97 265.03,-83.29 262.91,-76.62"/>
</a>
</g>
<text text-anchor="middle" x="334.5" y="-70.5" font-family="Helvetica,sans-Serif" font-size="10.00" fill="grey"> elements</text>
</g>
<!-- Node8 -->
<g id="Node000008" class="node">
<title>Node8</title>
<g id="a_Node000008"><a xlink:title=" ">
<polygon fill="white" stroke="#666666" points="113,-107.5 9,-107.5 9,-77.5 113,-77.5 113,-107.5"/>
<text text-anchor="start" x="17" y="-95.5" font-family="Helvetica,sans-Serif" font-size="10.00">std::basic_string&lt;</text>
<text text-anchor="middle" x="61" y="-84.5" font-family="Helvetica,sans-Serif" font-size="10.00"> Char &gt;</text>
</a>
</g>
</g>
<!-- Node8&#45;&gt;Node7 -->
<g id="edge7_Node000007_Node000008" class="edge">
<title>Node8&#45;&gt;Node7</title>
<g id="a_edge7_Node000007_Node000008"><a xlink:title=" ">
<path fill="none" stroke="#63b8ff" d="M123.69,-92.5C147.25,-92.5 173.14,-92.5 192.78,-92.5"/>
<polygon fill="#63b8ff" stroke="#63b8ff" points="123.42,-89 113.42,-92.5 123.42,-96 123.42,-89"/>
</a>
</g>
</g>
<!-- Node9 -->
<g id="Node000009" class="node">
<title>Node9</title>
<g id="a_Node000009"><a xlink:title=" ">
<polygon fill="white" stroke="#666666" points="934,-79 731,-79 731,-60 934,-60 934,-79"/>
<text text-anchor="middle" x="832.5" y="-67" font-family="Helvetica,sans-Serif" font-size="10.00">std::shared_ptr&lt; MeshConfiguration &gt;</text>
</a>
</g>
</g>
<!-- Node9&#45;&gt;Node1 -->
<g id="edge8_Node000001_Node000009" class="edge">
<title>Node9&#45;&gt;Node1</title>
<g id="a_edge8_Node000001_Node000009"><a xlink:title=" ">
<path fill="none" stroke="#9a32cd" stroke-dasharray="5,2" d="M897.44,-80.95C909.61,-83.31 922.22,-85.88 934,-88.5 982.82,-99.37 995.65,-100.38 1043,-116.5 1076.04,-127.75 1113.02,-144.44 1135.13,-154.88"/>
<polygon fill="#9a32cd" stroke="#9a32cd" points="897.83,-77.46 887.35,-79.02 896.52,-84.33 897.83,-77.46"/>
</a>
</g>
<text text-anchor="middle" x="997.5" y="-119.5" font-family="Helvetica,sans-Serif" font-size="10.00" fill="grey"> _meshConfig</text>
</g>
<!-- Node10&#45;&gt;Node1 -->
<g id="edge9_Node000001_Node000010" class="edge">
<title>Node10&#45;&gt;Node1</title>
<g id="a_edge9_Node000001_Node000010"><a xlink:title=" ">
<path fill="none" stroke="#9a32cd" stroke-dasharray="5,2" d="M936.56,-129.17C989.3,-137.7 1051.59,-147.77 1096.13,-154.98"/>
<polygon fill="#9a32cd" stroke="#9a32cd" points="936.92,-125.68 926.49,-127.54 935.8,-132.59 936.92,-125.68"/>
</a>
</g>
<text text-anchor="middle" x="997.5" y="-148.5" font-family="Helvetica,sans-Serif" font-size="10.00" fill="grey"> _configuredAction</text>
</g>
<!-- Node11&#45;&gt;Node10 -->
<g id="edge11_Node000010_Node000011" class="edge">
<title>Node11&#45;&gt;Node10</title>
<g id="a_edge11_Node000010_Node000011"><a xlink:title=" ">
<path fill="none" stroke="#9a32cd" stroke-dasharray="5,2" d="M542.14,-38.21C593.53,-36.31 660.47,-40.62 713,-67.5 723.94,-73.1 720.51,-82.09 731,-88.5 736.66,-91.96 742.79,-94.92 749.13,-97.45"/>
<polygon fill="#9a32cd" stroke="#9a32cd" points="541.91,-34.71 532.08,-38.66 542.23,-41.71 541.91,-34.71"/>
</a>
</g>
<text text-anchor="middle" x="639" y="-70.5" font-family="Helvetica,sans-Serif" font-size="10.00" fill="grey"> sourceDataVector</text>
</g>
<!-- Node12 -->
<g id="Node000012" class="node">
<title>Node12</title>
<g id="a_Node000012"><a xlink:title=" ">
<polygon fill="white" stroke="#666666" points="892,-42 773,-42 773,-23 892,-23 892,-42"/>
<text text-anchor="middle" x="832.5" y="-30" font-family="Helvetica,sans-Serif" font-size="10.00">std::list&lt; PtrAction &gt;</text>
</a>
</g>
</g>
<!-- Node12&#45;&gt;Node1 -->
<g id="edge13_Node000001_Node000012" class="edge">
<title>Node12&#45;&gt;Node1</title>
<g id="a_edge13_Node000001_Node000012"><a xlink:title=" ">
<path fill="none" stroke="#9a32cd" stroke-dasharray="5,2" d="M902.52,-39.04C944.7,-45.02 998.84,-56.32 1043,-77.5 1085.62,-97.95 1127.31,-136.66 1145.49,-154.74"/>
<polygon fill="#9a32cd" stroke="#9a32cd" points="902.72,-35.54 892.34,-37.67 901.78,-42.48 902.72,-35.54"/>
</a>
</g>
<text text-anchor="middle" x="997.5" y="-80.5" font-family="Helvetica,sans-Serif" font-size="10.00" fill="grey"> _actions</text>
</g>
<!-- Node13 -->
<g id="Node000013" class="node">
<title>Node13</title>
<g id="a_Node000013"><a xlink:title=" ">
<polygon fill="white" stroke="#666666" points="521,-19 403,-19 403,0 521,0 521,-19"/>
<text text-anchor="middle" x="462" y="-7" font-family="Helvetica,sans-Serif" font-size="10.00">std::unique_ptr&lt; T &gt;</text>
</a>
</g>
</g>
<!-- Node13&#45;&gt;Node12 -->
<g id="edge14_Node000012_Node000013" class="edge">
<title>Node13&#45;&gt;Node12</title>
<g id="a_edge14_Node000012_Node000013"><a xlink:title=" ">
<path fill="none" stroke="#9a32cd" stroke-dasharray="5,2" d="M531.21,-12.95C581.48,-15.59 651.52,-19.44 713,-23.5 732.46,-24.78 753.69,-26.35 772.75,-27.81"/>
<polygon fill="#9a32cd" stroke="#9a32cd" points="531.28,-9.45 521.11,-12.43 530.92,-16.44 531.28,-9.45"/>
</a>
</g>
<text text-anchor="middle" x="639" y="-26.5" font-family="Helvetica,sans-Serif" font-size="10.00" fill="grey"> elements</text>
</g>
<!-- Node14 -->
<g id="Node000014" class="node">
<title>Node14</title>
<g id="a_Node000014"><a xlink:title=" ">
<polygon fill="white" stroke="#666666" points="240,-19 211,-19 211,0 240,0 240,-19"/>
<text text-anchor="middle" x="225.5" y="-7" font-family="Helvetica,sans-Serif" font-size="10.00">T</text>
</a>
</g>
</g>
<!-- Node14&#45;&gt;Node13 -->
<g id="edge15_Node000013_Node000014" class="edge">
<title>Node14&#45;&gt;Node13</title>
<g id="a_edge15_Node000013_Node000014"><a xlink:title=" ">
<path fill="none" stroke="#9a32cd" stroke-dasharray="5,2" d="M250.46,-9.5C285.98,-9.5 353.71,-9.5 402.77,-9.5"/>
<polygon fill="#9a32cd" stroke="#9a32cd" points="250.12,-6 240.12,-9.5 250.12,-13 250.12,-6"/>
</a>
</g>
<text text-anchor="middle" x="334.5" y="-12.5" font-family="Helvetica,sans-Serif" font-size="10.00" fill="grey"> ptr</text>
</g>
</g>
</svg>
