<?xml version="1.0" encoding="UTF-8" standalone="no"?>
<!DOCTYPE svg PUBLIC "-//W3C//DTD SVG 1.1//EN"
 "http://www.w3.org/Graphics/SVG/1.1/DTD/svg11.dtd">
<!-- Generated by graphviz version 2.43.0 (0)
 -->
<!-- Title: precice::acceleration::impl::ParallelMatrixOperations::multiply Pages: 1 -->
<!--zoomable 386 -->
<svg id="main" version="1.1" xmlns="http://www.w3.org/2000/svg" xmlns:xlink="http://www.w3.org/1999/xlink" xml:space="preserve" onload="init(evt)">
<style type="text/css"><![CDATA[
.edge:hover path { stroke: red; }
.edge:hover polygon { stroke: red; fill: red; }
]]></style>
<script type="text/javascript"><![CDATA[
var edges = document.getElementsByTagName('g');
if (edges && edges.length) {
  for (var i=0;i<edges.length;i++) {
    if (edges[i].id.substr(0,4)=='edge') {
      edges[i].setAttribute('class','edge');
    }
  }
}
]]></script>
        <defs>
                <circle id="rim" cx="0" cy="0" r="7"/>
                <circle id="rim2" cx="0" cy="0" r="3.5"/>
                <g id="zoomPlus">
                        <use xlink:href="#rim" fill="#404040">
                                <set attributeName="fill" to="#808080" begin="zoomplus.mouseover" end="zoomplus.mouseout"/>
                        </use>
                        <path d="M-4,0h8M0,-4v8" fill="none" stroke="white" stroke-width="1.5" pointer-events="none"/>
                </g>
                <g id="zoomMin">
                        <use xlink:href="#rim" fill="#404040">
                                <set attributeName="fill" to="#808080" begin="zoomminus.mouseover" end="zoomminus.mouseout"/>
                        </use>
                        <path d="M-4,0h8" fill="none" stroke="white" stroke-width="1.5" pointer-events="none"/>
                </g>
                <g id="dirArrow">
                        <path fill="none" stroke="white" stroke-width="1.5" d="M0,-3.0v7 M-2.5,-0.5L0,-3.0L2.5,-0.5"/>
                </g>
               <g id="resetDef">
                       <use xlink:href="#rim2" fill="#404040">
                               <set attributeName="fill" to="#808080" begin="reset.mouseover" end="reset.mouseout"/>
                       </use>
               </g>
        </defs>

<script type="text/javascript">
var viewWidth = 759;
var viewHeight = 386;
var sectionId = 'dynsection-9';
</script>
<script xlink:href="svgpan.js"/>
<svg id="graph" class="graph">
<g id="viewport">
<title>precice::acceleration::impl::ParallelMatrixOperations::multiply</title>
<polygon fill="white" stroke="transparent" points="-4,4 -4,-382 755,-382 755,4 -4,4"/>
<!-- Node1 -->
<g id="node1" class="node">
<title>Node1</title>
<g id="a_node1"><a xlink:title=" ">
<polygon fill="#bfbfbf" stroke="black" points="0,-110 0,-151 171,-151 171,-110 0,-110"/>
<text text-anchor="start" x="8" y="-139" font-family="Helvetica,sans-Serif" font-size="10.00">precice::acceleration</text>
<text text-anchor="start" x="8" y="-128" font-family="Helvetica,sans-Serif" font-size="10.00">::impl::ParallelMatrixOperations</text>
<text text-anchor="middle" x="85.5" y="-117" font-family="Helvetica,sans-Serif" font-size="10.00">::multiply</text>
</a>
</g>
</g>
<!-- Node2 -->
<g id="node2" class="node">
<title>Node2</title>
<g id="a_node2"><a xlink:href="classprecice_1_1acceleration_1_1impl_1_1ParallelMatrixOperations.html#a7ebbbddd1e1cc4640edea200c34c9f97" target="_top" xlink:title="Multiplies matrices based on a SAXPY&#45;like block&#45;wise computation with a rectangular result matrix of ...">
<polygon fill="white" stroke="black" points="207,-219 207,-260 378,-260 378,-219 207,-219"/>
<text text-anchor="start" x="215" y="-248" font-family="Helvetica,sans-Serif" font-size="10.00">precice::acceleration</text>
<text text-anchor="start" x="215" y="-237" font-family="Helvetica,sans-Serif" font-size="10.00">::impl::ParallelMatrixOperations</text>
<text text-anchor="middle" x="292.5" y="-226" font-family="Helvetica,sans-Serif" font-size="10.00">::_multiplyNM_block</text>
</a>
</g>
</g>
<!-- Node1&#45;&gt;Node2 -->
<g id="edge1" class="edge">
<title>Node1&#45;&gt;Node2</title>
<path fill="none" stroke="midnightblue" d="M125.06,-151C158.74,-168.91 207.76,-194.97 243.88,-214.18"/>
<polygon fill="midnightblue" stroke="midnightblue" points="242.29,-217.3 252.77,-218.9 245.58,-211.12 242.29,-217.3"/>
</g>
<!-- Node4 -->
<g id="node4" class="node">
<title>Node4</title>
<g id="a_node4"><a xlink:href="classprecice_1_1utils_1_1IntraComm.html#a7daafddc884c6dc168e2add48733cde4" target="_top" xlink:title="Intra&#45;participant communication.">
<polygon fill="white" stroke="black" points="424.5,-347.5 424.5,-377.5 564.5,-377.5 564.5,-347.5 424.5,-347.5"/>
<text text-anchor="start" x="432.5" y="-365.5" font-family="Helvetica,sans-Serif" font-size="10.00">precice::utils::IntraComm</text>
<text text-anchor="middle" x="494.5" y="-354.5" font-family="Helvetica,sans-Serif" font-size="10.00">::getCommunication</text>
</a>
</g>
</g>
<!-- Node1&#45;&gt;Node4 -->
<g id="edge14" class="edge">
<title>Node1&#45;&gt;Node4</title>
<path fill="none" stroke="midnightblue" d="M99.09,-151.03C118.6,-181.19 158.94,-237.38 207,-269.5 270.12,-311.68 353.78,-335.93 414.39,-349.02"/>
<polygon fill="midnightblue" stroke="midnightblue" points="413.78,-352.47 424.29,-351.1 415.22,-345.62 413.78,-352.47"/>
</g>
<!-- Node8 -->
<g id="node8" class="node">
<title>Node8</title>
<g id="a_node8"><a xlink:href="classprecice_1_1acceleration_1_1impl_1_1ParallelMatrixOperations.html#a0bdbf69f0e0c233893ca79d2f8a64035" target="_top" xlink:title=" ">
<polygon fill="white" stroke="black" points="207,-110 207,-151 378,-151 378,-110 207,-110"/>
<text text-anchor="start" x="215" y="-139" font-family="Helvetica,sans-Serif" font-size="10.00">precice::acceleration</text>
<text text-anchor="start" x="215" y="-128" font-family="Helvetica,sans-Serif" font-size="10.00">::impl::ParallelMatrixOperations</text>
<text text-anchor="middle" x="292.5" y="-117" font-family="Helvetica,sans-Serif" font-size="10.00">::_multiplyNM_dotProduct</text>
</a>
</g>
</g>
<!-- Node1&#45;&gt;Node8 -->
<g id="edge7" class="edge">
<title>Node1&#45;&gt;Node8</title>
<path fill="none" stroke="midnightblue" d="M171.06,-130.5C179.55,-130.5 188.2,-130.5 196.78,-130.5"/>
<polygon fill="midnightblue" stroke="midnightblue" points="196.8,-134 206.8,-130.5 196.8,-127 196.8,-134"/>
</g>
<!-- Node12 -->
<g id="node12" class="node">
<title>Node12</title>
<g id="a_node12"><a xlink:href="classprecice_1_1acceleration_1_1impl_1_1ParallelMatrixOperations.html#add3527c2edb4746fc1f612a05d15e4b6" target="_top" xlink:title=" ">
<polygon fill="white" stroke="black" points="207,-50 207,-91 378,-91 378,-50 207,-50"/>
<text text-anchor="start" x="215" y="-79" font-family="Helvetica,sans-Serif" font-size="10.00">precice::acceleration</text>
<text text-anchor="start" x="215" y="-68" font-family="Helvetica,sans-Serif" font-size="10.00">::impl::ParallelMatrixOperations</text>
<text text-anchor="middle" x="292.5" y="-57" font-family="Helvetica,sans-Serif" font-size="10.00">::_multiplyNN</text>
</a>
</g>
</g>
<!-- Node1&#45;&gt;Node12 -->
<g id="edge11" class="edge">
<title>Node1&#45;&gt;Node12</title>
<path fill="none" stroke="midnightblue" d="M156.76,-109.94C174.45,-104.76 193.56,-99.17 211.67,-93.86"/>
<polygon fill="midnightblue" stroke="midnightblue" points="212.72,-97.21 221.33,-91.04 210.75,-90.49 212.72,-97.21"/>
</g>
<!-- Node14 -->
<g id="node14" class="node">
<title>Node14</title>
<g id="a_node14"><a xlink:href="classprecice_1_1utils_1_1IntraComm.html#a946589c66048ff3058ffa078d54b6073" target="_top" xlink:title="True if this process is running in parallel.">
<polygon fill="white" stroke="black" points="222.5,-0.5 222.5,-30.5 362.5,-30.5 362.5,-0.5 222.5,-0.5"/>
<text text-anchor="start" x="230.5" y="-18.5" font-family="Helvetica,sans-Serif" font-size="10.00">precice::utils::IntraComm</text>
<text text-anchor="middle" x="292.5" y="-7.5" font-family="Helvetica,sans-Serif" font-size="10.00">::isParallel</text>
</a>
</g>
</g>
<!-- Node1&#45;&gt;Node14 -->
<g id="edge15" class="edge">
<title>Node1&#45;&gt;Node14</title>
<path fill="none" stroke="midnightblue" d="M108.87,-109.92C131.92,-89.7 169.65,-59.22 207,-40.5 211.58,-38.2 216.42,-36.08 221.35,-34.12"/>
<polygon fill="midnightblue" stroke="midnightblue" points="222.78,-37.32 230.94,-30.56 220.34,-30.76 222.78,-37.32"/>
</g>
<!-- Node3 -->
<g id="node3" class="node">
<title>Node3</title>
<g id="a_node3"><a xlink:href="classprecice_1_1utils_1_1IntraComm.html#a557db722e7bfe5d237d0e7ed51851a44" target="_top" xlink:title="Returns an iterable range over salve ranks [1, _size)">
<polygon fill="white" stroke="black" points="424.5,-298.5 424.5,-328.5 564.5,-328.5 564.5,-298.5 424.5,-298.5"/>
<text text-anchor="start" x="432.5" y="-316.5" font-family="Helvetica,sans-Serif" font-size="10.00">precice::utils::IntraComm</text>
<text text-anchor="middle" x="494.5" y="-305.5" font-family="Helvetica,sans-Serif" font-size="10.00">::allSecondaryRanks</text>
</a>
</g>
</g>
<!-- Node2&#45;&gt;Node3 -->
<g id="edge2" class="edge">
<title>Node2&#45;&gt;Node3</title>
<path fill="none" stroke="midnightblue" d="M340,-260.07C362.2,-269.56 389.26,-280.66 414,-289.5 419.57,-291.49 425.39,-293.46 431.24,-295.36"/>
<polygon fill="midnightblue" stroke="midnightblue" points="430.49,-298.79 441.08,-298.49 432.62,-292.12 430.49,-298.79"/>
</g>
<!-- Node2&#45;&gt;Node4 -->
<g id="edge3" class="edge">
<title>Node2&#45;&gt;Node4</title>
<path fill="none" stroke="midnightblue" d="M313.42,-260.16C335.93,-282.41 374.59,-317.46 414,-338.5 417.48,-340.36 421.12,-342.09 424.85,-343.71"/>
<polygon fill="midnightblue" stroke="midnightblue" points="423.68,-347.01 434.27,-347.49 426.29,-340.51 423.68,-347.01"/>
</g>
<!-- Node5 -->
<g id="node5" class="node">
<title>Node5</title>
<g id="a_node5"><a xlink:href="classprecice_1_1utils_1_1IntraComm.html#a3e69605ac1a3f9f8c82471ba52624f5d" target="_top" xlink:title="True if this process is running the primary rank.">
<polygon fill="white" stroke="black" points="424.5,-249.5 424.5,-279.5 564.5,-279.5 564.5,-249.5 424.5,-249.5"/>
<text text-anchor="start" x="432.5" y="-267.5" font-family="Helvetica,sans-Serif" font-size="10.00">precice::utils::IntraComm</text>
<text text-anchor="middle" x="494.5" y="-256.5" font-family="Helvetica,sans-Serif" font-size="10.00">::isPrimary</text>
</a>
</g>
</g>
<!-- Node2&#45;&gt;Node5 -->
<g id="edge4" class="edge">
<title>Node2&#45;&gt;Node5</title>
<path fill="none" stroke="midnightblue" d="M378.03,-250.07C390.11,-251.58 402.49,-253.12 414.46,-254.62"/>
<polygon fill="midnightblue" stroke="midnightblue" points="414.04,-258.09 424.39,-255.86 414.91,-251.15 414.04,-258.09"/>
</g>
<!-- Node6 -->
<g id="node6" class="node">
<title>Node6</title>
<g id="a_node6"><a xlink:href="classprecice_1_1utils_1_1IntraComm.html#abde303b11e46851ae65dca65ef06daad" target="_top" xlink:title="True if this process is running a secondary rank.">
<polygon fill="white" stroke="black" points="424.5,-200.5 424.5,-230.5 564.5,-230.5 564.5,-200.5 424.5,-200.5"/>
<text text-anchor="start" x="432.5" y="-218.5" font-family="Helvetica,sans-Serif" font-size="10.00">precice::utils::IntraComm</text>
<text text-anchor="middle" x="494.5" y="-207.5" font-family="Helvetica,sans-Serif" font-size="10.00">::isSecondary</text>
</a>
</g>
</g>
<!-- Node2&#45;&gt;Node6 -->
<g id="edge5" class="edge">
<title>Node2&#45;&gt;Node6</title>
<path fill="none" stroke="midnightblue" d="M378.03,-229.36C390.11,-227.91 402.49,-226.42 414.46,-224.99"/>
<polygon fill="midnightblue" stroke="midnightblue" points="414.88,-228.46 424.39,-223.79 414.05,-221.51 414.88,-228.46"/>
</g>
<!-- Node7 -->
<g id="node7" class="node">
<title>Node7</title>
<g id="a_node7"><a xlink:href="classprecice_1_1utils_1_1IntraComm.html#ae428ead3ae2209f974fdc35d5d7d41c4" target="_top" xlink:title=" ">
<polygon fill="white" stroke="black" points="424.5,-151.5 424.5,-181.5 564.5,-181.5 564.5,-151.5 424.5,-151.5"/>
<text text-anchor="start" x="432.5" y="-169.5" font-family="Helvetica,sans-Serif" font-size="10.00">precice::utils::IntraComm</text>
<text text-anchor="middle" x="494.5" y="-158.5" font-family="Helvetica,sans-Serif" font-size="10.00">::reduceSum</text>
</a>
</g>
</g>
<!-- Node2&#45;&gt;Node7 -->
<g id="edge6" class="edge">
<title>Node2&#45;&gt;Node7</title>
<path fill="none" stroke="midnightblue" d="M342.73,-218.93C364.44,-210.11 390.34,-199.92 414,-191.5 420.41,-189.22 427.15,-186.93 433.88,-184.72"/>
<polygon fill="midnightblue" stroke="midnightblue" points="435.26,-187.95 443.69,-181.54 433.1,-181.29 435.26,-187.95"/>
</g>
<!-- Node9 -->
<g id="node9" class="node">
<title>Node9</title>
<g id="a_node9"><a xlink:href="classprecice_1_1utils_1_1IntraComm.html#a38ad54bcb1c09b6eba4097465b80fb08" target="_top" xlink:title=" ">
<polygon fill="white" stroke="black" points="414,-113 414,-132 575,-132 575,-113 414,-113"/>
<text text-anchor="middle" x="494.5" y="-120" font-family="Helvetica,sans-Serif" font-size="10.00">precice::utils::IntraComm::dot</text>
</a>
</g>
</g>
<!-- Node8&#45;&gt;Node9 -->
<g id="edge8" class="edge">
<title>Node8&#45;&gt;Node9</title>
<path fill="none" stroke="midnightblue" d="M378.03,-127.12C386.44,-126.78 395,-126.44 403.47,-126.1"/>
<polygon fill="midnightblue" stroke="midnightblue" points="403.88,-129.59 413.73,-125.69 403.6,-122.59 403.88,-129.59"/>
</g>
<!-- Node11 -->
<g id="node11" class="node">
<title>Node11</title>
<g id="a_node11"><a xlink:href="classprecice_1_1utils_1_1IntraComm.html#a2c2aa5e2fd6cc26797b7fdee0b0b25ac" target="_top" xlink:title="Current rank.">
<polygon fill="white" stroke="black" points="424.5,-63.5 424.5,-93.5 564.5,-93.5 564.5,-63.5 424.5,-63.5"/>
<text text-anchor="start" x="432.5" y="-81.5" font-family="Helvetica,sans-Serif" font-size="10.00">precice::utils::IntraComm</text>
<text text-anchor="middle" x="494.5" y="-70.5" font-family="Helvetica,sans-Serif" font-size="10.00">::getRank</text>
</a>
</g>
</g>
<!-- Node8&#45;&gt;Node11 -->
<g id="edge10" class="edge">
<title>Node8&#45;&gt;Node11</title>
<path fill="none" stroke="midnightblue" d="M372.55,-109.95C390.16,-105.37 408.68,-100.55 425.8,-96.1"/>
<polygon fill="midnightblue" stroke="midnightblue" points="426.89,-99.43 435.69,-93.53 425.13,-92.66 426.89,-99.43"/>
</g>
<!-- Node10 -->
<g id="node10" class="node">
<title>Node10</title>
<g id="a_node10"><a xlink:href="classprecice_1_1utils_1_1IntraComm.html#a1181baf395fd7e41bb0f922e3c3334cf" target="_top" xlink:title=" ">
<polygon fill="white" stroke="black" points="611,-107.5 611,-137.5 751,-137.5 751,-107.5 611,-107.5"/>
<text text-anchor="start" x="619" y="-125.5" font-family="Helvetica,sans-Serif" font-size="10.00">precice::utils::IntraComm</text>
<text text-anchor="middle" x="681" y="-114.5" font-family="Helvetica,sans-Serif" font-size="10.00">::allreduceSum</text>
</a>
</g>
</g>
<!-- Node9&#45;&gt;Node10 -->
<g id="edge9" class="edge">
<title>Node9&#45;&gt;Node10</title>
<path fill="none" stroke="midnightblue" d="M575.08,-122.5C583.54,-122.5 592.15,-122.5 600.6,-122.5"/>
<polygon fill="midnightblue" stroke="midnightblue" points="600.83,-126 610.83,-122.5 600.83,-119 600.83,-126"/>
</g>
<!-- Node12&#45;&gt;Node11 -->
<g id="edge12" class="edge">
<title>Node12&#45;&gt;Node11</title>
<path fill="none" stroke="midnightblue" d="M378.03,-73.88C389.98,-74.36 402.24,-74.85 414.1,-75.32"/>
<polygon fill="midnightblue" stroke="midnightblue" points="414.26,-78.83 424.39,-75.74 414.54,-71.84 414.26,-78.83"/>
</g>
<!-- Node13 -->
<g id="node13" class="node">
<title>Node13</title>
<g id="a_node13"><a xlink:href="classprecice_1_1utils_1_1IntraComm.html#a288038e87868e4078aed49436aa20264" target="_top" xlink:title="Number of ranks. This includes ranks from both participants, e.g. minimal size is 2.">
<polygon fill="white" stroke="black" points="424.5,-14.5 424.5,-44.5 564.5,-44.5 564.5,-14.5 424.5,-14.5"/>
<text text-anchor="start" x="432.5" y="-32.5" font-family="Helvetica,sans-Serif" font-size="10.00">precice::utils::IntraComm</text>
<text text-anchor="middle" x="494.5" y="-21.5" font-family="Helvetica,sans-Serif" font-size="10.00">::getSize</text>
</a>
</g>
</g>
<!-- Node12&#45;&gt;Node13 -->
<g id="edge13" class="edge">
<title>Node12&#45;&gt;Node13</title>
<path fill="none" stroke="midnightblue" d="M378.03,-53.17C390.11,-50.7 402.49,-48.16 414.46,-45.7"/>
<polygon fill="midnightblue" stroke="midnightblue" points="415.3,-49.1 424.39,-43.67 413.89,-42.25 415.3,-49.1"/>
</g>
</g>
</svg>
        <g id="navigator" transform="translate(0 0)" fill="#404254">
                <rect fill="#f2f5e9" fill-opacity="0.5" stroke="#606060" stroke-width=".5" x="0" y="0" width="60" height="60"/>
                <use id="zoomplus" xlink:href="#zoomPlus" x="17" y="9" onmousedown="handleZoom(evt,'in')"/>
                <use id="zoomminus" xlink:href="#zoomMin" x="42" y="9" onmousedown="handleZoom(evt,'out')"/>
                <use id="reset" xlink:href="#resetDef" x="30" y="36" onmousedown="handleReset()"/>
                <g id="arrowUp" xlink:href="#dirArrow" transform="translate(30 24)" onmousedown="handlePan(0,-1)">
                  <use xlink:href="#rim" fill="#404040">
                        <set attributeName="fill" to="#808080" begin="arrowUp.mouseover" end="arrowUp.mouseout"/>
                  </use>
                  <path fill="none" stroke="white" stroke-width="1.5" d="M0,-3.0v7 M-2.5,-0.5L0,-3.0L2.5,-0.5"/>
                </g>
                <g id="arrowRight" xlink:href="#dirArrow" transform="rotate(90) translate(36 -43)" onmousedown="handlePan(1,0)">
                  <use xlink:href="#rim" fill="#404040">
                        <set attributeName="fill" to="#808080" begin="arrowRight.mouseover" end="arrowRight.mouseout"/>
                  </use>
                  <path fill="none" stroke="white" stroke-width="1.5" d="M0,-3.0v7 M-2.5,-0.5L0,-3.0L2.5,-0.5"/>
                </g>
                <g id="arrowDown" xlink:href="#dirArrow" transform="rotate(180) translate(-30 -48)" onmousedown="handlePan(0,1)">
                  <use xlink:href="#rim" fill="#404040">
                        <set attributeName="fill" to="#808080" begin="arrowDown.mouseover" end="arrowDown.mouseout"/>
                  </use>
                  <path fill="none" stroke="white" stroke-width="1.5" d="M0,-3.0v7 M-2.5,-0.5L0,-3.0L2.5,-0.5"/>
                </g>
                <g id="arrowLeft" xlink:href="#dirArrow" transform="rotate(270) translate(-36 17)" onmousedown="handlePan(-1,0)">
                  <use xlink:href="#rim" fill="#404040">
                        <set attributeName="fill" to="#808080" begin="arrowLeft.mouseover" end="arrowLeft.mouseout"/>
                  </use>
                  <path fill="none" stroke="white" stroke-width="1.5" d="M0,-3.0v7 M-2.5,-0.5L0,-3.0L2.5,-0.5"/>
                </g>
        </g>
        <svg viewBox="0 0 15 15" width="100%" height="30px" preserveAspectRatio="xMaxYMin meet">
         <g id="arrow_out" transform="scale(0.3 0.3)">
          <a xlink:href="classprecice_1_1acceleration_1_1impl_1_1ParallelMatrixOperations_aa98f426fd7594a244826e82bc9675939_cgraph_org.svg" target="_base">
           <rect id="button" ry="5" rx="5" y="6" x="6" height="38" width="38"
                fill="#f2f5e9" fill-opacity="0.5" stroke="#606060" stroke-width="1.0"/>
           <path id="arrow"
             d="M 11.500037,31.436501 C 11.940474,20.09759 22.043105,11.32322 32.158766,21.979434 L 37.068811,17.246167 C 37.068811,17.246167 37.088388,32 37.088388,32 L 22.160133,31.978069 C 22.160133,31.978069 26.997745,27.140456 26.997745,27.140456 C 18.528582,18.264221 13.291696,25.230495 11.500037,31.436501 z"
             style="fill:#404040;"/>
          </a>
         </g>
        </svg>
</svg>
