<?xml version="1.0" encoding="UTF-8" standalone="no"?>
<!DOCTYPE svg PUBLIC "-//W3C//DTD SVG 1.1//EN"
 "http://www.w3.org/Graphics/SVG/1.1/DTD/svg11.dtd">
<!-- Generated by graphviz version 2.43.0 (0)
 -->
<!-- Title: precice::cplscheme::CouplingSchemeConfiguration::createParallelExplicitCouplingScheme Pages: 1 -->
<svg width="770pt" height="203pt"
 viewBox="0.00 0.00 770.00 203.00" xmlns="http://www.w3.org/2000/svg" xmlns:xlink="http://www.w3.org/1999/xlink">
<g id="graph0" class="graph" transform="scale(1 1) rotate(0) translate(4 199)">
<title>precice::cplscheme::CouplingSchemeConfiguration::createParallelExplicitCouplingScheme</title>
<polygon fill="white" stroke="transparent" points="-4,4 -4,-199 766,-199 766,4 -4,4"/>
<!-- Node1 -->
<g id="node1" class="node">
<title>Node1</title>
<g id="a_node1"><a xlink:title=" ">
<polygon fill="#bfbfbf" stroke="black" points="0,-90.5 0,-131.5 207,-131.5 207,-90.5 0,-90.5"/>
<text text-anchor="start" x="8" y="-119.5" font-family="Helvetica,sans-Serif" font-size="10.00">precice::cplscheme</text>
<text text-anchor="start" x="8" y="-108.5" font-family="Helvetica,sans-Serif" font-size="10.00">::CouplingSchemeConfiguration</text>
<text text-anchor="middle" x="103.5" y="-97.5" font-family="Helvetica,sans-Serif" font-size="10.00">::createParallelExplicitCouplingScheme</text>
</a>
</g>
</g>
<!-- Node2 -->
<g id="node2" class="node">
<title>Node2</title>
<g id="a_node2"><a xlink:href="classprecice_1_1cplscheme_1_1CouplingSchemeConfiguration.html#a347f261ca80d960103fccc38ec90ef07" target="_top" xlink:title="Adds configured exchange data to be sent or received to scheme.">
<polygon fill="white" stroke="black" points="243,-90.5 243,-131.5 413,-131.5 413,-90.5 243,-90.5"/>
<text text-anchor="start" x="251" y="-119.5" font-family="Helvetica,sans-Serif" font-size="10.00">precice::cplscheme</text>
<text text-anchor="start" x="251" y="-108.5" font-family="Helvetica,sans-Serif" font-size="10.00">::CouplingSchemeConfiguration</text>
<text text-anchor="middle" x="328" y="-97.5" font-family="Helvetica,sans-Serif" font-size="10.00">::addDataToBeExchanged</text>
</a>
</g>
</g>
<!-- Node1&#45;&gt;Node2 -->
<g id="edge1" class="edge">
<title>Node1&#45;&gt;Node2</title>
<path fill="none" stroke="midnightblue" d="M207.28,-111C215.78,-111 224.35,-111 232.78,-111"/>
<polygon fill="midnightblue" stroke="midnightblue" points="232.99,-114.5 242.99,-111 232.99,-107.5 232.99,-114.5"/>
</g>
<!-- Node3 -->
<g id="node3" class="node">
<title>Node3</title>
<g id="a_node3"><a xlink:href="classprecice_1_1cplscheme_1_1BiCouplingScheme.html#ae0dc8b729d5d2cb5a9323b6e33f6f17f" target="_top" xlink:title="Adds data to be received on data exchange.">
<polygon fill="white" stroke="black" points="453,-120.5 453,-161.5 573,-161.5 573,-120.5 453,-120.5"/>
<text text-anchor="start" x="461" y="-149.5" font-family="Helvetica,sans-Serif" font-size="10.00">precice::cplscheme</text>
<text text-anchor="start" x="461" y="-138.5" font-family="Helvetica,sans-Serif" font-size="10.00">::BiCouplingScheme::</text>
<text text-anchor="middle" x="513" y="-127.5" font-family="Helvetica,sans-Serif" font-size="10.00">addDataToReceive</text>
</a>
</g>
</g>
<!-- Node2&#45;&gt;Node3 -->
<g id="edge2" class="edge">
<title>Node2&#45;&gt;Node3</title>
<path fill="none" stroke="midnightblue" d="M413,-124.77C422.97,-126.41 433.07,-128.06 442.8,-129.66"/>
<polygon fill="midnightblue" stroke="midnightblue" points="442.36,-133.13 452.79,-131.29 443.49,-126.22 442.36,-133.13"/>
</g>
<!-- Node4 -->
<g id="node4" class="node">
<title>Node4</title>
<g id="a_node4"><a xlink:href="namespaceprecice_1_1utils.html#a434eabaa71f97a31726281a4df77bbcf" target="_top" xlink:title="Returns true, if given element is in vector, otherwise false.">
<polygon fill="white" stroke="black" points="621,-175.5 621,-194.5 754,-194.5 754,-175.5 621,-175.5"/>
<text text-anchor="middle" x="687.5" y="-182.5" font-family="Helvetica,sans-Serif" font-size="10.00">precice::utils::contained</text>
</a>
</g>
</g>
<!-- Node2&#45;&gt;Node4 -->
<g id="edge12" class="edge">
<title>Node2&#45;&gt;Node4</title>
<path fill="none" stroke="midnightblue" d="M361.18,-131.61C384.56,-145.42 417.5,-162.58 449,-171 501.79,-185.11 563.44,-188.38 610.7,-188.24"/>
<polygon fill="midnightblue" stroke="midnightblue" points="610.89,-191.74 620.86,-188.16 610.84,-184.74 610.89,-191.74"/>
</g>
<!-- Node8 -->
<g id="node8" class="node">
<title>Node8</title>
<g id="a_node8"><a xlink:href="classprecice_1_1cplscheme_1_1BiCouplingScheme.html#a4bd5c5e0892860bced9eec94c6595c3f" target="_top" xlink:title="Adds data to be sent on data exchange and possibly be modified during coupling iterations.">
<polygon fill="white" stroke="black" points="453,-60.5 453,-101.5 573,-101.5 573,-60.5 453,-60.5"/>
<text text-anchor="start" x="461" y="-89.5" font-family="Helvetica,sans-Serif" font-size="10.00">precice::cplscheme</text>
<text text-anchor="start" x="461" y="-78.5" font-family="Helvetica,sans-Serif" font-size="10.00">::BiCouplingScheme::</text>
<text text-anchor="middle" x="513" y="-67.5" font-family="Helvetica,sans-Serif" font-size="10.00">addDataToSend</text>
</a>
</g>
</g>
<!-- Node2&#45;&gt;Node8 -->
<g id="edge7" class="edge">
<title>Node2&#45;&gt;Node8</title>
<path fill="none" stroke="midnightblue" d="M413,-97.23C422.97,-95.59 433.07,-93.94 442.8,-92.34"/>
<polygon fill="midnightblue" stroke="midnightblue" points="443.49,-95.78 452.79,-90.71 442.36,-88.87 443.49,-95.78"/>
</g>
<!-- Node9 -->
<g id="node9" class="node">
<title>Node9</title>
<g id="a_node9"><a xlink:href="classprecice_1_1cplscheme_1_1BaseCouplingScheme.html#af880c679675d59efcf00b0b9fd984f6e" target="_top" xlink:title="Getter for _doesFirstStep.">
<polygon fill="white" stroke="black" points="449,-0.5 449,-41.5 577,-41.5 577,-0.5 449,-0.5"/>
<text text-anchor="start" x="457" y="-29.5" font-family="Helvetica,sans-Serif" font-size="10.00">precice::cplscheme</text>
<text text-anchor="start" x="457" y="-18.5" font-family="Helvetica,sans-Serif" font-size="10.00">::BaseCouplingScheme</text>
<text text-anchor="middle" x="513" y="-7.5" font-family="Helvetica,sans-Serif" font-size="10.00">::doesFirstStep</text>
</a>
</g>
</g>
<!-- Node2&#45;&gt;Node9 -->
<g id="edge13" class="edge">
<title>Node2&#45;&gt;Node9</title>
<path fill="none" stroke="midnightblue" d="M369.73,-90.39C392.91,-78.73 422.52,-63.92 449,-51 452.35,-49.36 455.81,-47.69 459.31,-46"/>
<polygon fill="midnightblue" stroke="midnightblue" points="461.07,-49.03 468.57,-41.55 458.04,-42.73 461.07,-49.03"/>
</g>
<!-- Node3&#45;&gt;Node4 -->
<g id="edge3" class="edge">
<title>Node3&#45;&gt;Node4</title>
<path fill="none" stroke="midnightblue" d="M573.36,-156.14C594.87,-161.63 618.86,-167.75 639.2,-172.93"/>
<polygon fill="midnightblue" stroke="midnightblue" points="638.6,-176.4 649.16,-175.48 640.34,-169.61 638.6,-176.4"/>
</g>
<!-- Node5 -->
<g id="node5" class="node">
<title>Node5</title>
<g id="a_node5"><a xlink:href="namespaceTCB__SPAN__NAMESPACE__NAME_1_1detail.html#ada90c89c458a0d53c483e767de7b7701" target="_top" xlink:title=" ">
<polygon fill="white" stroke="black" points="622,-126 622,-156 753,-156 753,-126 622,-126"/>
<text text-anchor="start" x="630" y="-144" font-family="Helvetica,sans-Serif" font-size="10.00">TCB_SPAN_NAMESPACE</text>
<text text-anchor="middle" x="687.5" y="-133" font-family="Helvetica,sans-Serif" font-size="10.00">_NAME::detail::data</text>
</a>
</g>
</g>
<!-- Node3&#45;&gt;Node5 -->
<g id="edge4" class="edge">
<title>Node3&#45;&gt;Node5</title>
<path fill="none" stroke="midnightblue" d="M573.36,-141C585.67,-141 598.78,-141 611.56,-141"/>
<polygon fill="midnightblue" stroke="midnightblue" points="611.72,-144.5 621.72,-141 611.72,-137.5 611.72,-144.5"/>
</g>
<!-- Node6 -->
<g id="node6" class="node">
<title>Node6</title>
<g id="a_node6"><a xlink:href="classprecice_1_1cplscheme_1_1BaseCouplingScheme.html#a8e87bc91766aa8007ccc4d0bdf946c12" target="_top" xlink:title="getter for _extrapolationOrder">
<polygon fill="white" stroke="black" points="622,-65.5 622,-106.5 753,-106.5 753,-65.5 622,-65.5"/>
<text text-anchor="start" x="630" y="-94.5" font-family="Helvetica,sans-Serif" font-size="10.00">precice::cplscheme</text>
<text text-anchor="start" x="630" y="-83.5" font-family="Helvetica,sans-Serif" font-size="10.00">::BaseCouplingScheme</text>
<text text-anchor="middle" x="687.5" y="-72.5" font-family="Helvetica,sans-Serif" font-size="10.00">::getExtrapolationOrder</text>
</a>
</g>
</g>
<!-- Node3&#45;&gt;Node6 -->
<g id="edge5" class="edge">
<title>Node3&#45;&gt;Node6</title>
<path fill="none" stroke="midnightblue" d="M573.36,-122.07C585.87,-118.09 599.21,-113.83 612.18,-109.7"/>
<polygon fill="midnightblue" stroke="midnightblue" points="613.55,-112.93 622.01,-106.56 611.42,-106.26 613.55,-112.93"/>
</g>
<!-- Node7 -->
<g id="node7" class="node">
<title>Node7</title>
<g id="a_node7"><a xlink:href="classprecice_1_1cplscheme_1_1BaseCouplingScheme.html#a9cc20927200845a763928b6af773a48d" target="_top" xlink:title="Function to determine whether coupling scheme is an explicit coupling scheme.">
<polygon fill="white" stroke="black" points="613,-5.5 613,-46.5 762,-46.5 762,-5.5 613,-5.5"/>
<text text-anchor="start" x="621" y="-34.5" font-family="Helvetica,sans-Serif" font-size="10.00">precice::cplscheme</text>
<text text-anchor="start" x="621" y="-23.5" font-family="Helvetica,sans-Serif" font-size="10.00">::BaseCouplingScheme</text>
<text text-anchor="middle" x="687.5" y="-12.5" font-family="Helvetica,sans-Serif" font-size="10.00">::isExplicitCouplingScheme</text>
</a>
</g>
</g>
<!-- Node3&#45;&gt;Node7 -->
<g id="edge6" class="edge">
<title>Node3&#45;&gt;Node7</title>
<path fill="none" stroke="midnightblue" d="M564.12,-120.37C568.69,-117.55 573.08,-114.43 577,-111 599.01,-91.78 590.46,-74.58 613,-56 614.73,-54.58 616.53,-53.21 618.4,-51.9"/>
<polygon fill="midnightblue" stroke="midnightblue" points="620.31,-54.83 626.91,-46.54 616.58,-48.91 620.31,-54.83"/>
</g>
<!-- Node8&#45;&gt;Node4 -->
<g id="edge8" class="edge">
<title>Node8&#45;&gt;Node4</title>
<path fill="none" stroke="midnightblue" d="M564.12,-101.63C568.69,-104.45 573.08,-107.57 577,-111 599.01,-130.22 589.26,-148.98 613,-166 615.73,-167.96 618.65,-169.72 621.69,-171.29"/>
<polygon fill="midnightblue" stroke="midnightblue" points="620.54,-174.61 631.1,-175.5 623.4,-168.22 620.54,-174.61"/>
</g>
<!-- Node8&#45;&gt;Node5 -->
<g id="edge9" class="edge">
<title>Node8&#45;&gt;Node5</title>
<path fill="none" stroke="midnightblue" d="M571.81,-101.57C585.31,-106.34 599.65,-111.37 613,-116 619.25,-118.17 625.8,-120.42 632.31,-122.65"/>
<polygon fill="midnightblue" stroke="midnightblue" points="631.18,-125.96 641.77,-125.88 633.44,-119.34 631.18,-125.96"/>
</g>
<!-- Node8&#45;&gt;Node6 -->
<g id="edge10" class="edge">
<title>Node8&#45;&gt;Node6</title>
<path fill="none" stroke="midnightblue" d="M573.36,-82.72C585.67,-83.08 598.78,-83.46 611.56,-83.83"/>
<polygon fill="midnightblue" stroke="midnightblue" points="611.62,-87.33 621.72,-84.12 611.82,-80.33 611.62,-87.33"/>
</g>
<!-- Node8&#45;&gt;Node7 -->
<g id="edge11" class="edge">
<title>Node8&#45;&gt;Node7</title>
<path fill="none" stroke="midnightblue" d="M573.36,-62.07C585.87,-58.09 599.21,-53.83 612.18,-49.7"/>
<polygon fill="midnightblue" stroke="midnightblue" points="613.55,-52.93 622.01,-46.56 611.42,-46.26 613.55,-52.93"/>
</g>
</g>
</svg>
