<?xml version="1.0" encoding="UTF-8" standalone="no"?>
<!DOCTYPE svg PUBLIC "-//W3C//DTD SVG 1.1//EN"
 "http://www.w3.org/Graphics/SVG/1.1/DTD/svg11.dtd">
<!-- Generated by graphviz version 2.43.0 (0)
 -->
<!-- Title: precice::mapping::SphericalVertexCluster::computeWeight Pages: 1 -->
<svg width="358pt" height="88pt"
 viewBox="0.00 0.00 358.00 88.00" xmlns="http://www.w3.org/2000/svg" xmlns:xlink="http://www.w3.org/1999/xlink">
<g id="graph0" class="graph" transform="scale(1 1) rotate(0) translate(4 84)">
<title>precice::mapping::SphericalVertexCluster::computeWeight</title>
<polygon fill="white" stroke="transparent" points="-4,4 -4,-84 354,-84 354,4 -4,4"/>
<!-- Node1 -->
<g id="node1" class="node">
<title>Node1</title>
<g id="a_node1"><a xlink:title="Compute the weight for a given vertex.">
<polygon fill="#bfbfbf" stroke="black" points="0,-24.5 0,-54.5 165,-54.5 165,-24.5 0,-24.5"/>
<text text-anchor="start" x="8" y="-42.5" font-family="Helvetica,sans-Serif" font-size="10.00">precice::mapping::Spherical</text>
<text text-anchor="middle" x="82.5" y="-31.5" font-family="Helvetica,sans-Serif" font-size="10.00">VertexCluster::computeWeight</text>
</a>
</g>
</g>
<!-- Node2 -->
<g id="node2" class="node">
<title>Node2</title>
<g id="a_node2"><a xlink:href="namespaceprecice_1_1mapping.html#a8e50570bef6a89ba9016bf31fadd83f1" target="_top" xlink:title="Deletes all dead directions from fullVector and returns a vector of reduced dimensionality.">
<polygon fill="white" stroke="black" points="201,-49.5 201,-79.5 350,-79.5 350,-49.5 201,-49.5"/>
<text text-anchor="start" x="209" y="-67.5" font-family="Helvetica,sans-Serif" font-size="10.00">precice::mapping::compute</text>
<text text-anchor="middle" x="275.5" y="-56.5" font-family="Helvetica,sans-Serif" font-size="10.00">SquaredDifference</text>
</a>
</g>
</g>
<!-- Node1&#45;&gt;Node2 -->
<g id="edge1" class="edge">
<title>Node1&#45;&gt;Node2</title>
<path fill="none" stroke="midnightblue" d="M165.06,-50.17C173.58,-51.29 182.26,-52.43 190.81,-53.55"/>
<polygon fill="midnightblue" stroke="midnightblue" points="190.4,-57.02 200.77,-54.85 191.31,-50.08 190.4,-57.02"/>
</g>
<!-- Node3 -->
<g id="node3" class="node">
<title>Node3</title>
<g id="a_node3"><a xlink:href="classprecice_1_1mesh_1_1Vertex.html#a466a76f85b9dfd00a70c8b1f23add780" target="_top" xlink:title="Direct access to the coordinates.">
<polygon fill="white" stroke="black" points="214.5,-0.5 214.5,-30.5 336.5,-30.5 336.5,-0.5 214.5,-0.5"/>
<text text-anchor="start" x="222.5" y="-18.5" font-family="Helvetica,sans-Serif" font-size="10.00">precice::mesh::Vertex</text>
<text text-anchor="middle" x="275.5" y="-7.5" font-family="Helvetica,sans-Serif" font-size="10.00">::rawCoords</text>
</a>
</g>
</g>
<!-- Node1&#45;&gt;Node3 -->
<g id="edge2" class="edge">
<title>Node1&#45;&gt;Node3</title>
<path fill="none" stroke="midnightblue" d="M165.06,-29.25C178.1,-27.61 191.49,-25.93 204.24,-24.33"/>
<polygon fill="midnightblue" stroke="midnightblue" points="204.82,-27.78 214.31,-23.06 203.95,-20.84 204.82,-27.78"/>
</g>
</g>
</svg>
