<?xml version="1.0" encoding="UTF-8" standalone="no"?>
<!DOCTYPE svg PUBLIC "-//W3C//DTD SVG 1.1//EN"
 "http://www.w3.org/Graphics/SVG/1.1/DTD/svg11.dtd">
<!-- Generated by graphviz version 2.43.0 (0)
 -->
<!-- Title: precice::cplscheme::CompositionalCouplingScheme::hasDataBeenReceived Pages: 1 -->
<!--zoomable 327 -->

<svg id="main" version="1.1" xmlns="http://www.w3.org/2000/svg" xmlns:xlink="http://www.w3.org/1999/xlink" xml:space="preserve" onload="init(evt)">
<style type="text/css"><![CDATA[
.node, .edge {opacity: 0.7;}
.node.selected, .edge.selected {opacity: 1;}
.edge:hover path { stroke: red; }
.edge:hover polygon { stroke: red; fill: red; }
]]></style>

<defs>
  <circle id="rim" cx="0" cy="0" r="7"/>
  <circle id="rim2" cx="0" cy="0" r="3.5"/>
  <g id="zoomPlus">
    <use xlink:href="#rim" fill="#404040"><set attributeName="fill" to="#808080" begin="zoomplus.mouseover" end="zoomplus.mouseout"/></use>
    <path d="M-4,0h8M0,-4v8" fill="none" stroke="white" stroke-width="1.5" pointer-events="none"/>
  </g>
  <g id="zoomMin">
    <use xlink:href="#rim" fill="#404040"><set attributeName="fill" to="#808080" begin="zoomminus.mouseover" end="zoomminus.mouseout"/></use>
    <path d="M-4,0h8" fill="none" stroke="white" stroke-width="1.5" pointer-events="none"/>
  </g>
  <g id="arrowUp" transform="translate(30 24)">
    <use xlink:href="#rim"/>
    <path pointer-events="none" fill="none" stroke="white" stroke-width="1.5" d="M0,-3.0v7 M-2.5,-0.5L0,-3.0L2.5,-0.5"/>
  </g>
  <g id="arrowRight" transform="rotate(90) translate(36 -43)">
    <use xlink:href="#rim"/>
    <path pointer-events="none" fill="none" stroke="white" stroke-width="1.5" d="M0,-3.0v7 M-2.5,-0.5L0,-3.0L2.5,-0.5"/>
  </g>
  <g id="arrowDown" transform="rotate(180) translate(-30 -48)">
    <use xlink:href="#rim"/>
    <path pointer-events="none" fill="none" stroke="white" stroke-width="1.5" d="M0,-3.0v7 M-2.5,-0.5L0,-3.0L2.5,-0.5"/>
  </g>
  <g id="arrowLeft" transform="rotate(270) translate(-36 17)">
    <use xlink:href="#rim"/>
    <path pointer-events="none" fill="none" stroke="white" stroke-width="1.5" d="M0,-3.0v7 M-2.5,-0.5L0,-3.0L2.5,-0.5"/>
  </g>
  <g id="resetDef">
    <use xlink:href="#rim2" fill="#404040"><set attributeName="fill" to="#808080" begin="reset.mouseover" end="reset.mouseout"/></use>
  </g>
</defs>
<script type="application/ecmascript">
var viewWidth = 574;
var viewHeight = 327;
var sectionId = 'dynsection-12';
</script>
<script type="application/ecmascript" xlink:href="svg.min.js"/>
<svg id="graph" class="graph">
<g id="viewport">
<title>precice::cplscheme::CompositionalCouplingScheme::hasDataBeenReceived</title>
<!-- Node1 -->
<g id="Node000001" class="node">
<title>Node1</title>
<g id="a_Node000001"><a xlink:title="checks all coupling schemes this coupling scheme is composed of.">
<polygon fill="#999999" stroke="#666666" points="175,-108 0,-108 0,-67 175,-67 175,-108"/>
<text text-anchor="start" x="8" y="-96" font-family="Helvetica,sans-Serif" font-size="10.00">precice::cplscheme</text>
<text text-anchor="start" x="8" y="-85" font-family="Helvetica,sans-Serif" font-size="10.00">::CompositionalCouplingScheme</text>
<text text-anchor="middle" x="87.5" y="-74" font-family="Helvetica,sans-Serif" font-size="10.00">::hasDataBeenReceived</text>
</a>
</g>
</g>
<!-- Node2 -->
<g id="Node000002" class="node">
<title>Node2</title>
<g id="a_Node000002"><a xlink:href="classprecice_1_1cplscheme_1_1CompositionalCouplingScheme.html#a29b650838cc28c815e5b704ecb317aa6" target="_top" xlink:title="Returns all schemes in execution order, explicit as well as implicit.">
<polygon fill="white" stroke="#666666" points="386.5,-207 211.5,-207 211.5,-166 386.5,-166 386.5,-207"/>
<text text-anchor="start" x="219.5" y="-195" font-family="Helvetica,sans-Serif" font-size="10.00">precice::cplscheme</text>
<text text-anchor="start" x="219.5" y="-184" font-family="Helvetica,sans-Serif" font-size="10.00">::CompositionalCouplingScheme</text>
<text text-anchor="middle" x="299" y="-173" font-family="Helvetica,sans-Serif" font-size="10.00">::allSchemes</text>
</a>
</g>
</g>
<!-- Node1&#45;&gt;Node2 -->
<g id="edge1_Node000001_Node000002" class="edge">
<title>Node1&#45;&gt;Node2</title>
<g id="a_edge1_Node000001_Node000002"><a xlink:title=" ">
<path fill="none" stroke="#63b8ff" d="M131.91,-108.01C164.8,-123.56 210.16,-144.99 245.17,-161.53"/>
<polygon fill="#63b8ff" stroke="#63b8ff" points="243.75,-164.74 254.29,-165.84 246.74,-158.41 243.75,-164.74"/>
</a>
</g>
</g>
<!-- Node6 -->
<g id="Node000006" class="node">
<title>Node6</title>
<g id="a_Node000006"><a target="_parent" xlink:href="http://en.cppreference.com/w/cpp/utility/functional/mem_fn.html#" xlink:title=" ">
<polygon fill="white" stroke="#666666" points="533.5,-85 455.5,-85 455.5,-66 533.5,-66 533.5,-85"/>
<text text-anchor="middle" x="494.5" y="-73" font-family="Helvetica,sans-Serif" font-size="10.00">std::mem_fn</text>
</a>
</g>
</g>
<!-- Node1&#45;&gt;Node6 -->
<g id="edge12_Node000001_Node000006" class="edge">
<title>Node1&#45;&gt;Node6</title>
<g id="a_edge12_Node000001_Node000006"><a xlink:title=" ">
<path fill="none" stroke="#63b8ff" d="M175.1,-89.48C234.72,-90.29 315.71,-90.29 387,-86.5 406.02,-85.49 426.87,-83.52 445.05,-81.53"/>
<polygon fill="#63b8ff" stroke="#63b8ff" points="445.58,-85 455.12,-80.4 444.79,-78.04 445.58,-85"/>
</a>
</g>
</g>
<!-- Node10 -->
<g id="Node000010" class="node">
<title>Node10</title>
<g id="a_Node000010"><a target="_parent" xlink:href="http://en.cppreference.com/w/cpp/algorithm/all_any_none_of.html#" xlink:title=" ">
<polygon fill="white" stroke="#666666" points="334.5,-78 263.5,-78 263.5,-59 334.5,-59 334.5,-78"/>
<text text-anchor="middle" x="299" y="-66" font-family="Helvetica,sans-Serif" font-size="10.00">std::any_of</text>
</a>
</g>
</g>
<!-- Node1&#45;&gt;Node10 -->
<g id="edge10_Node000001_Node000010" class="edge">
<title>Node1&#45;&gt;Node10</title>
<g id="a_edge10_Node000001_Node000010"><a xlink:title=" ">
<path fill="none" stroke="#63b8ff" d="M175.22,-79.63C202.07,-77.2 230.54,-74.62 253.3,-72.55"/>
<polygon fill="#63b8ff" stroke="#63b8ff" points="253.69,-76.03 263.33,-71.64 253.06,-69.06 253.69,-76.03"/>
</a>
</g>
</g>
<!-- Node11 -->
<g id="Node000011" class="node">
<title>Node11</title>
<g id="a_Node000011"><a xlink:href="classprecice_1_1cplscheme_1_1CouplingScheme.html#ae91c824606fdbe167f8d62bd0371b465" target="_top" xlink:title="Returns true, if data has been exchanged in last call of advance().">
<polygon fill="white" stroke="#666666" points="387,-41 211,-41 211,0 387,0 387,-41"/>
<text text-anchor="start" x="219" y="-29" font-family="Helvetica,sans-Serif" font-size="10.00">precice::cplscheme</text>
<text text-anchor="start" x="219" y="-18" font-family="Helvetica,sans-Serif" font-size="10.00">::CouplingScheme::hasDataBeen</text>
<text text-anchor="middle" x="299" y="-7" font-family="Helvetica,sans-Serif" font-size="10.00">Received</text>
</a>
</g>
</g>
<!-- Node1&#45;&gt;Node11 -->
<g id="edge11_Node000001_Node000011" class="edge">
<title>Node1&#45;&gt;Node11</title>
<g id="a_edge11_Node000001_Node000011"><a xlink:title=" ">
<path fill="none" stroke="#63b8ff" d="M152.78,-66.94C175.3,-59.74 200.78,-51.59 224.03,-44.16"/>
<polygon fill="#63b8ff" stroke="#63b8ff" points="225.38,-47.4 233.84,-41.02 223.25,-40.73 225.38,-47.4"/>
</a>
</g>
</g>
<!-- Node3 -->
<g id="Node000003" class="node">
<title>Node3</title>
<g id="a_Node000003"><a target="_parent" xlink:href="http://en.cppreference.com/w/cpp/container/vector/begin.html#" xlink:title=" ">
<polygon fill="white" stroke="#666666" points="545,-319 444,-319 444,-300 545,-300 545,-319"/>
<text text-anchor="middle" x="494.5" y="-307" font-family="Helvetica,sans-Serif" font-size="10.00">std::vector::begin</text>
</a>
</g>
</g>
<!-- Node2&#45;&gt;Node3 -->
<g id="edge2_Node000002_Node000003" class="edge">
<title>Node2&#45;&gt;Node3</title>
<g id="a_edge2_Node000002_Node000003"><a xlink:title=" ">
<path fill="none" stroke="#63b8ff" d="M318.37,-207.07C340.76,-230.9 380.88,-269.66 423,-291.5 426.56,-293.34 430.32,-295.01 434.17,-296.51"/>
<polygon fill="#63b8ff" stroke="#63b8ff" points="433.29,-299.91 443.89,-299.91 435.6,-293.3 433.29,-299.91"/>
</a>
</g>
</g>
<!-- Node4 -->
<g id="Node000004" class="node">
<title>Node4</title>
<g id="a_Node000004"><a target="_parent" xlink:href="http://en.cppreference.com/w/cpp/container/vector/end.html#" xlink:title=" ">
<polygon fill="white" stroke="#666666" points="540.5,-282 448.5,-282 448.5,-263 540.5,-263 540.5,-282"/>
<text text-anchor="middle" x="494.5" y="-270" font-family="Helvetica,sans-Serif" font-size="10.00">std::vector::end</text>
</a>
</g>
</g>
<!-- Node2&#45;&gt;Node4 -->
<g id="edge3_Node000002_Node000004" class="edge">
<title>Node2&#45;&gt;Node4</title>
<g id="a_edge3_Node000002_Node000004"><a xlink:title=" ">
<path fill="none" stroke="#63b8ff" d="M332.64,-207.04C356.85,-221.58 391.06,-240.7 423,-253.5 428.95,-255.88 435.29,-258.06 441.65,-260.03"/>
<polygon fill="#63b8ff" stroke="#63b8ff" points="441.01,-263.49 451.59,-262.95 442.98,-256.77 441.01,-263.49"/>
</a>
</g>
</g>
<!-- Node5 -->
<g id="Node000005" class="node">
<title>Node5</title>
<g id="a_Node000005"><a target="_parent" xlink:href="http://en.cppreference.com/w/cpp/memory/shared_ptr/get.html#" xlink:title=" ">
<polygon fill="white" stroke="#666666" points="566,-244.5 423,-244.5 423,-214.5 566,-214.5 566,-244.5"/>
<text text-anchor="start" x="431" y="-232.5" font-family="Helvetica,sans-Serif" font-size="10.00">std::shared_ptr&lt; Coupling</text>
<text text-anchor="middle" x="494.5" y="-221.5" font-family="Helvetica,sans-Serif" font-size="10.00">Scheme &gt;::get</text>
</a>
</g>
</g>
<!-- Node2&#45;&gt;Node5 -->
<g id="edge4_Node000002_Node000005" class="edge">
<title>Node2&#45;&gt;Node5</title>
<g id="a_edge4_Node000002_Node000005"><a xlink:title=" ">
<path fill="none" stroke="#63b8ff" d="M386.56,-199.02C405.4,-203.08 424.77,-207.61 441.75,-211.95"/>
<polygon fill="#63b8ff" stroke="#63b8ff" points="440.89,-215.34 451.45,-214.48 442.66,-208.57 440.89,-215.34"/>
</a>
</g>
</g>
<!-- Node2&#45;&gt;Node5 -->
<g id="edge5_Node000002_Node000005" class="edge">
<title>Node2&#45;&gt;Node5</title>
<g id="a_edge5_Node000002_Node000005"><a xlink:title=" ">
<path fill="none" stroke="#63b8ff" d="M363.63,-207.02C379.32,-210.87 396.33,-214.74 412.71,-218.21"/>
<polygon fill="#63b8ff" stroke="#63b8ff" points="412.31,-221.71 422.81,-220.32 413.74,-214.85 412.31,-221.71"/>
</a>
</g>
</g>
<!-- Node2&#45;&gt;Node6 -->
<g id="edge6_Node000002_Node000006" class="edge">
<title>Node2&#45;&gt;Node6</title>
<g id="a_edge6_Node000002_Node000006"><a xlink:title=" ">
<path fill="none" stroke="#63b8ff" d="M327.23,-165.81C363.05,-138.6 421.66,-94.14 423,-93.5 430.04,-90.11 437.8,-87.31 445.51,-85"/>
<polygon fill="#63b8ff" stroke="#63b8ff" points="446.48,-88.37 455.21,-82.35 444.64,-81.62 446.48,-88.37"/>
</a>
</g>
</g>
<!-- Node7 -->
<g id="Node000007" class="node">
<title>Node7</title>
<g id="a_Node000007"><a target="_parent" xlink:href="http://en.cppreference.com/w/cpp/container/vector/push_back.html#" xlink:title=" ">
<polygon fill="white" stroke="#666666" points="557.5,-196 431.5,-196 431.5,-177 557.5,-177 557.5,-196"/>
<text text-anchor="middle" x="494.5" y="-184" font-family="Helvetica,sans-Serif" font-size="10.00">std::vector::push_back</text>
</a>
</g>
</g>
<!-- Node2&#45;&gt;Node7 -->
<g id="edge7_Node000002_Node000007" class="edge">
<title>Node2&#45;&gt;Node7</title>
<g id="a_edge7_Node000002_Node000007"><a xlink:title=" ">
<path fill="none" stroke="#63b8ff" d="M386.56,-186.5C398.12,-186.5 409.87,-186.5 421.15,-186.5"/>
<polygon fill="#63b8ff" stroke="#63b8ff" points="421.36,-190 431.36,-186.5 421.36,-183 421.36,-190"/>
</a>
</g>
</g>
<!-- Node8 -->
<g id="Node000008" class="node">
<title>Node8</title>
<g id="a_Node000008"><a target="_parent" xlink:href="http://en.cppreference.com/w/cpp/container/vector/size.html#" xlink:title=" ">
<polygon fill="white" stroke="#666666" points="541.5,-159 447.5,-159 447.5,-140 541.5,-140 541.5,-159"/>
<text text-anchor="middle" x="494.5" y="-147" font-family="Helvetica,sans-Serif" font-size="10.00">std::vector::size</text>
</a>
</g>
</g>
<!-- Node2&#45;&gt;Node8 -->
<g id="edge8_Node000002_Node000008" class="edge">
<title>Node2&#45;&gt;Node8</title>
<g id="a_edge8_Node000002_Node000008"><a xlink:title=" ">
<path fill="none" stroke="#63b8ff" d="M386.56,-169.95C403.73,-166.66 421.33,-163.3 437.17,-160.27"/>
<polygon fill="#63b8ff" stroke="#63b8ff" points="438.14,-163.65 447.31,-158.33 436.83,-156.77 438.14,-163.65"/>
</a>
</g>
</g>
<!-- Node9 -->
<g id="Node000009" class="node">
<title>Node9</title>
<g id="a_Node000009"><a target="_parent" xlink:href="http://en.cppreference.com/w/cpp/algorithm/transform.html#" xlink:title=" ">
<polygon fill="white" stroke="#666666" points="537.5,-122 451.5,-122 451.5,-103 537.5,-103 537.5,-122"/>
<text text-anchor="middle" x="494.5" y="-110" font-family="Helvetica,sans-Serif" font-size="10.00">std::transform</text>
</a>
</g>
</g>
<!-- Node2&#45;&gt;Node9 -->
<g id="edge9_Node000002_Node000009" class="edge">
<title>Node2&#45;&gt;Node9</title>
<g id="a_edge9_Node000002_Node000009"><a xlink:title=" ">
<path fill="none" stroke="#63b8ff" d="M341.46,-166C365,-154.86 395.23,-141.38 423,-131.5 429.58,-129.16 436.59,-126.95 443.55,-124.91"/>
<polygon fill="#63b8ff" stroke="#63b8ff" points="444.96,-128.15 453.64,-122.07 443.06,-121.41 444.96,-128.15"/>
</a>
</g>
</g>
</g>
</svg>

<g id="navigator" transform="translate(0 0)" fill="#404254">
  <rect fill="#f2f5e9" fill-opacity="0.5" stroke="#606060" stroke-width=".5" x="0" y="0" width="60" height="60"/>
  <use id="zoomplus" xlink:href="#zoomPlus" x="17" y="9" onmousedown="handleZoom(evt,'in')"/>
  <use id="zoomminus" xlink:href="#zoomMin" x="42" y="9" onmousedown="handleZoom(evt,'out')"/>
  <use id="reset" xlink:href="#resetDef" x="30" y="36" onmousedown="handleReset()"/>
   <use id="arrowup" xlink:href="#arrowUp" x="0" y="0" onmousedown="handlePan(0,-1)"/>
  <use id="arrowright" xlink:href="#arrowRight" x="0" y="0" onmousedown="handlePan(1,0)"/>
  <use id="arrowdown" xlink:href="#arrowDown" x="0" y="0" onmousedown="handlePan(0,1)"/>
  <use id="arrowleft" xlink:href="#arrowLeft" x="0" y="0" onmousedown="handlePan(-1,0)"/>
</g>
<svg viewBox="0 0 15 15" width="100%" height="30px" preserveAspectRatio="xMaxYMin meet">
 <g id="arrow_out" transform="scale(0.3 0.3)">
  <a xlink:href="classprecice_1_1cplscheme_1_1CompositionalCouplingScheme_a905120ba905f022251cd1346dd6c0ba1_cgraph_org.svg" target="_base">
   <rect id="button" ry="5" rx="5" y="6" x="6" height="38" width="38"
        fill="#f2f5e9" fill-opacity="0.5" stroke="#606060" stroke-width="1.0"/>
   <path id="arrow"
     d="M 11.500037,31.436501 C 11.940474,20.09759 22.043105,11.32322 32.158766,21.979434 L 37.068811,17.246167 C 37.068811,17.246167 37.088388,32 37.088388,32 L 22.160133,31.978069 C 22.160133,31.978069 26.997745,27.140456 26.997745,27.140456 C 18.528582,18.264221 13.291696,25.230495 11.500037,31.436501 z"
     style="fill:#404040;"/>
  </a>
 </g>
</svg>

<style type='text/css'>
<![CDATA[
[data-mouse-over-selected='false'] { opacity: 0.7; }
[data-mouse-over-selected='true']  { opacity: 1.0; }
]]>
</style>
<script type="application/ecmascript"><![CDATA[
document.addEventListener('DOMContentLoaded', (event) => {
  highlightEdges();
  highlightAdjacentNodes();
});
]]></script>
</svg>
