<?xml version="1.0" encoding="UTF-8" standalone="no"?>
<!DOCTYPE svg PUBLIC "-//W3C//DTD SVG 1.1//EN"
 "http://www.w3.org/Graphics/SVG/1.1/DTD/svg11.dtd">
<!-- Generated by graphviz version 2.43.0 (0)
 -->
<!-- Title: precice::utils::statistics::DistanceAccumulator::max Pages: 1 -->
<svg width="559pt" height="76pt"
 viewBox="0.00 0.00 559.00 75.50" xmlns="http://www.w3.org/2000/svg" xmlns:xlink="http://www.w3.org/1999/xlink">
<g id="graph0" class="graph" transform="scale(1 1) rotate(0) translate(4 71.5)">
<title>precice::utils::statistics::DistanceAccumulator::max</title>
<!-- Node1 -->
<g id="Node000001" class="node">
<title>Node1</title>
<g id="a_Node000001"><a xlink:title="Returns the maximum of all accumulated values.">
<polygon fill="#999999" stroke="#666666" points="155,-45.5 0,-45.5 0,-15.5 155,-15.5 155,-45.5"/>
<text text-anchor="start" x="8" y="-33.5" font-family="Helvetica,sans-Serif" font-size="10.00">precice::utils::statistics</text>
<text text-anchor="middle" x="77.5" y="-22.5" font-family="Helvetica,sans-Serif" font-size="10.00">::DistanceAccumulator::max</text>
</a>
</g>
</g>
<!-- Node2 -->
<g id="Node000002" class="node">
<title>Node2</title>
<g id="a_Node000002"><a xlink:href="classprecice_1_1utils_1_1statistics_1_1DistanceAccumulator.html#ab62a4d99f3b8c512aeb45a3a9ae0547b" target="_top" xlink:title="Returns count == 0.">
<polygon fill="white" stroke="#666666" points="355,-67.5 191,-67.5 191,-37.5 355,-37.5 355,-67.5"/>
<text text-anchor="start" x="199" y="-55.5" font-family="Helvetica,sans-Serif" font-size="10.00">precice::utils::statistics</text>
<text text-anchor="middle" x="273" y="-44.5" font-family="Helvetica,sans-Serif" font-size="10.00">::DistanceAccumulator::empty</text>
</a>
</g>
</g>
<!-- Node1&#45;&gt;Node2 -->
<g id="edge1_Node000001_Node000002" class="edge">
<title>Node1&#45;&gt;Node2</title>
<g id="a_edge1_Node000001_Node000002"><a xlink:title=" ">
<path fill="none" stroke="#63b8ff" d="M155.25,-39.23C163.67,-40.18 172.3,-41.16 180.87,-42.14"/>
<polygon fill="#63b8ff" stroke="#63b8ff" points="180.56,-45.63 190.89,-43.28 181.35,-38.67 180.56,-45.63"/>
</a>
</g>
</g>
<!-- Node4 -->
<g id="Node000004" class="node">
<title>Node4</title>
<g id="a_Node000004"><a target="_parent" xlink:href="http://en.cppreference.com/w/cpp/numeric/math/nan.html#" xlink:title=" ">
<polygon fill="white" stroke="#666666" points="301,-19 245,-19 245,0 301,0 301,-19"/>
<text text-anchor="middle" x="273" y="-7" font-family="Helvetica,sans-Serif" font-size="10.00">std::nan</text>
</a>
</g>
</g>
<!-- Node1&#45;&gt;Node4 -->
<g id="edge3_Node000001_Node000004" class="edge">
<title>Node1&#45;&gt;Node4</title>
<g id="a_edge3_Node000001_Node000004"><a xlink:title=" ">
<path fill="none" stroke="#63b8ff" d="M155.25,-22.17C182.58,-19.2 212.13,-16 234.67,-13.55"/>
<polygon fill="#63b8ff" stroke="#63b8ff" points="235.25,-17.01 244.81,-12.45 234.49,-10.05 235.25,-17.01"/>
</a>
</g>
</g>
<!-- Node3 -->
<g id="Node000003" class="node">
<title>Node3</title>
<g id="a_Node000003"><a xlink:href="classprecice_1_1utils_1_1statistics_1_1DistanceAccumulator.html#ac9b87639f46a763b1f35cce56f78edd7" target="_top" xlink:title="Returns how many values have been accumulated.">
<polygon fill="white" stroke="#666666" points="551,-67.5 391,-67.5 391,-37.5 551,-37.5 551,-67.5"/>
<text text-anchor="start" x="399" y="-55.5" font-family="Helvetica,sans-Serif" font-size="10.00">precice::utils::statistics</text>
<text text-anchor="middle" x="471" y="-44.5" font-family="Helvetica,sans-Serif" font-size="10.00">::DistanceAccumulator::count</text>
</a>
</g>
</g>
<!-- Node2&#45;&gt;Node3 -->
<g id="edge2_Node000002_Node000003" class="edge">
<title>Node2&#45;&gt;Node3</title>
<g id="a_edge2_Node000002_Node000003"><a xlink:title=" ">
<path fill="none" stroke="#63b8ff" d="M355.14,-52.5C363.52,-52.5 372.08,-52.5 380.55,-52.5"/>
<polygon fill="#63b8ff" stroke="#63b8ff" points="380.82,-56 390.82,-52.5 380.82,-49 380.82,-56"/>
</a>
</g>
</g>
</g>
</svg>
