<?xml version="1.0" encoding="UTF-8" standalone="no"?>
<!DOCTYPE svg PUBLIC "-//W3C//DTD SVG 1.1//EN"
 "http://www.w3.org/Graphics/SVG/1.1/DTD/svg11.dtd">
<!-- Generated by graphviz version 2.43.0 (0)
 -->
<!-- Title: precice::cplscheme::CompositionalCouplingScheme::allSchemes Pages: 1 -->
<svg width="362pt" height="187pt"
 viewBox="0.00 0.00 362.00 187.00" xmlns="http://www.w3.org/2000/svg" xmlns:xlink="http://www.w3.org/1999/xlink">

<svg id="main" version="1.1" xmlns="http://www.w3.org/2000/svg" xmlns:xlink="http://www.w3.org/1999/xlink" xml:space="preserve">

<style type="text/css"><![CDATA[
.node, .edge {opacity: 0.7;}
.node.selected, .edge.selected {opacity: 1;}
.edge:hover path { stroke: red; }
.edge:hover polygon { stroke: red; fill: red; }
]]></style>
<script type="application/ecmascript" xlink:href="svg.min.js"/>
<svg id="graph" class="graph">
<g id="graph0" class="graph" transform="scale(1 1) rotate(0) translate(4 183)">
<title>precice::cplscheme::CompositionalCouplingScheme::allSchemes</title>
<!-- Node1 -->
<g id="Node000001" class="node">
<title>Node1</title>
<g id="a_Node000001"><a xlink:title="Returns all schemes in execution order, explicit as well as implicit.">
<polygon fill="#999999" stroke="#666666" points="175,-104 0,-104 0,-63 175,-63 175,-104"/>
<text text-anchor="start" x="8" y="-92" font-family="Helvetica,sans-Serif" font-size="10.00">precice::cplscheme</text>
<text text-anchor="start" x="8" y="-81" font-family="Helvetica,sans-Serif" font-size="10.00">::CompositionalCouplingScheme</text>
<text text-anchor="middle" x="87.5" y="-70" font-family="Helvetica,sans-Serif" font-size="10.00">::allSchemes</text>
</a>
</g>
</g>
<!-- Node2 -->
<g id="Node000002" class="node">
<title>Node2</title>
<g id="a_Node000002"><a target="_parent" xlink:href="http://en.cppreference.com/w/cpp/container/vector/begin.html#" xlink:title=" ">
<polygon fill="white" stroke="#666666" points="333,-179 232,-179 232,-160 333,-160 333,-179"/>
<text text-anchor="middle" x="282.5" y="-167" font-family="Helvetica,sans-Serif" font-size="10.00">std::vector::begin</text>
</a>
</g>
</g>
<!-- Node1&#45;&gt;Node2 -->
<g id="edge1_Node000001_Node000002" class="edge">
<title>Node1&#45;&gt;Node2</title>
<g id="a_edge1_Node000001_Node000002"><a xlink:title=" ">
<path fill="none" stroke="#63b8ff" d="M120.99,-104.05C145.1,-118.6 179.17,-137.72 211,-150.5 216.94,-152.89 223.29,-155.07 229.64,-157.04"/>
<polygon fill="#63b8ff" stroke="#63b8ff" points="229,-160.5 239.58,-159.96 230.97,-153.78 229,-160.5"/>
</a>
</g>
</g>
<!-- Node3 -->
<g id="Node000003" class="node">
<title>Node3</title>
<g id="a_Node000003"><a target="_parent" xlink:href="http://en.cppreference.com/w/cpp/memory/shared_ptr/get.html#" xlink:title=" ">
<polygon fill="white" stroke="#666666" points="354,-141.5 211,-141.5 211,-111.5 354,-111.5 354,-141.5"/>
<text text-anchor="start" x="219" y="-129.5" font-family="Helvetica,sans-Serif" font-size="10.00">std::shared_ptr&lt; Coupling</text>
<text text-anchor="middle" x="282.5" y="-118.5" font-family="Helvetica,sans-Serif" font-size="10.00">Scheme &gt;::get</text>
</a>
</g>
</g>
<!-- Node1&#45;&gt;Node3 -->
<g id="edge2_Node000001_Node000003" class="edge">
<title>Node1&#45;&gt;Node3</title>
<g id="a_edge2_Node000001_Node000003"><a xlink:title=" ">
<path fill="none" stroke="#63b8ff" d="M175.12,-102.8C184.79,-104.95 194.59,-107.14 204.13,-109.26"/>
<polygon fill="#63b8ff" stroke="#63b8ff" points="203.45,-112.7 213.97,-111.45 204.97,-105.86 203.45,-112.7"/>
</a>
</g>
</g>
<!-- Node4 -->
<g id="Node000004" class="node">
<title>Node4</title>
<g id="a_Node000004"><a target="_parent" xlink:href="http://en.cppreference.com/w/cpp/utility/functional/mem_fn.html#" xlink:title=" ">
<polygon fill="white" stroke="#666666" points="321.5,-93 243.5,-93 243.5,-74 321.5,-74 321.5,-93"/>
<text text-anchor="middle" x="282.5" y="-81" font-family="Helvetica,sans-Serif" font-size="10.00">std::mem_fn</text>
</a>
</g>
</g>
<!-- Node1&#45;&gt;Node4 -->
<g id="edge3_Node000001_Node000004" class="edge">
<title>Node1&#45;&gt;Node4</title>
<g id="a_edge3_Node000001_Node000004"><a xlink:title=" ">
<path fill="none" stroke="#63b8ff" d="M175.12,-83.5C195.06,-83.5 215.56,-83.5 233.18,-83.5"/>
<polygon fill="#63b8ff" stroke="#63b8ff" points="233.2,-87 243.2,-83.5 233.2,-80 233.2,-87"/>
</a>
</g>
</g>
<!-- Node5 -->
<g id="Node000005" class="node">
<title>Node5</title>
<g id="a_Node000005"><a target="_parent" xlink:href="http://en.cppreference.com/w/cpp/container/vector/push_back.html#" xlink:title=" ">
<polygon fill="white" stroke="#666666" points="345.5,-56 219.5,-56 219.5,-37 345.5,-37 345.5,-56"/>
<text text-anchor="middle" x="282.5" y="-44" font-family="Helvetica,sans-Serif" font-size="10.00">std::vector::push_back</text>
</a>
</g>
</g>
<!-- Node1&#45;&gt;Node5 -->
<g id="edge4_Node000001_Node000005" class="edge">
<title>Node1&#45;&gt;Node5</title>
<g id="a_edge4_Node000001_Node000005"><a xlink:title=" ">
<path fill="none" stroke="#63b8ff" d="M175.12,-66.89C190.92,-63.87 207.07,-60.77 221.86,-57.93"/>
<polygon fill="#63b8ff" stroke="#63b8ff" points="222.7,-61.34 231.86,-56.02 221.38,-54.46 222.7,-61.34"/>
</a>
</g>
</g>
<!-- Node6 -->
<g id="Node000006" class="node">
<title>Node6</title>
<g id="a_Node000006"><a target="_parent" xlink:href="http://en.cppreference.com/w/cpp/algorithm/transform.html#" xlink:title=" ">
<polygon fill="white" stroke="#666666" points="325.5,-19 239.5,-19 239.5,0 325.5,0 325.5,-19"/>
<text text-anchor="middle" x="282.5" y="-7" font-family="Helvetica,sans-Serif" font-size="10.00">std::transform</text>
</a>
</g>
</g>
<!-- Node1&#45;&gt;Node6 -->
<g id="edge5_Node000001_Node000006" class="edge">
<title>Node1&#45;&gt;Node6</title>
<g id="a_edge5_Node000001_Node000006"><a xlink:title=" ">
<path fill="none" stroke="#63b8ff" d="M129.78,-62.99C153.23,-51.85 183.33,-38.37 211,-28.5 217.58,-26.15 224.59,-23.94 231.54,-21.9"/>
<polygon fill="#63b8ff" stroke="#63b8ff" points="232.96,-25.14 241.63,-19.06 231.06,-18.4 232.96,-25.14"/>
</a>
</g>
</g>
</g>
</svg>
</svg>

<style type='text/css'>
<![CDATA[
[data-mouse-over-selected='false'] { opacity: 0.7; }
[data-mouse-over-selected='true']  { opacity: 1.0; }
]]>
</style>
<script type="application/ecmascript"><![CDATA[
document.addEventListener('DOMContentLoaded', (event) => {
  highlightEdges();
  highlightAdjacentNodes();
});
]]></script>
</svg>
