<?xml version="1.0" encoding="UTF-8" standalone="no"?>
<!DOCTYPE svg PUBLIC "-//W3C//DTD SVG 1.1//EN"
 "http://www.w3.org/Graphics/SVG/1.1/DTD/svg11.dtd">
<!-- Generated by graphviz version 2.43.0 (0)
 -->
<!-- Title: precice::mapping::RadialBasisFctSolver::RadialBasisFctSolver Pages: 1 -->
<!--zoomable 258 -->

<svg id="main" version="1.1" xmlns="http://www.w3.org/2000/svg" xmlns:xlink="http://www.w3.org/1999/xlink" xml:space="preserve" onload="init(evt)">
<style type="text/css"><![CDATA[
.node, .edge {opacity: 0.7;}
.node.selected, .edge.selected {opacity: 1;}
.edge:hover path { stroke: red; }
.edge:hover polygon { stroke: red; fill: red; }
]]></style>

<defs>
  <circle id="rim" cx="0" cy="0" r="7"/>
  <circle id="rim2" cx="0" cy="0" r="3.5"/>
  <g id="zoomPlus">
    <use xlink:href="#rim" fill="#404040"><set attributeName="fill" to="#808080" begin="zoomplus.mouseover" end="zoomplus.mouseout"/></use>
    <path d="M-4,0h8M0,-4v8" fill="none" stroke="white" stroke-width="1.5" pointer-events="none"/>
  </g>
  <g id="zoomMin">
    <use xlink:href="#rim" fill="#404040"><set attributeName="fill" to="#808080" begin="zoomminus.mouseover" end="zoomminus.mouseout"/></use>
    <path d="M-4,0h8" fill="none" stroke="white" stroke-width="1.5" pointer-events="none"/>
  </g>
  <g id="arrowUp" transform="translate(30 24)">
    <use xlink:href="#rim"/>
    <path pointer-events="none" fill="none" stroke="white" stroke-width="1.5" d="M0,-3.0v7 M-2.5,-0.5L0,-3.0L2.5,-0.5"/>
  </g>
  <g id="arrowRight" transform="rotate(90) translate(36 -43)">
    <use xlink:href="#rim"/>
    <path pointer-events="none" fill="none" stroke="white" stroke-width="1.5" d="M0,-3.0v7 M-2.5,-0.5L0,-3.0L2.5,-0.5"/>
  </g>
  <g id="arrowDown" transform="rotate(180) translate(-30 -48)">
    <use xlink:href="#rim"/>
    <path pointer-events="none" fill="none" stroke="white" stroke-width="1.5" d="M0,-3.0v7 M-2.5,-0.5L0,-3.0L2.5,-0.5"/>
  </g>
  <g id="arrowLeft" transform="rotate(270) translate(-36 17)">
    <use xlink:href="#rim"/>
    <path pointer-events="none" fill="none" stroke="white" stroke-width="1.5" d="M0,-3.0v7 M-2.5,-0.5L0,-3.0L2.5,-0.5"/>
  </g>
  <g id="resetDef">
    <use xlink:href="#rim2" fill="#404040"><set attributeName="fill" to="#808080" begin="reset.mouseover" end="reset.mouseout"/></use>
  </g>
</defs>
<script type="application/ecmascript">
var viewWidth = 755;
var viewHeight = 258;
var sectionId = 'dynsection-1';
</script>
<script type="application/ecmascript" xlink:href="svg.min.js"/>
<svg id="graph" class="graph">
<g id="viewport">
<title>precice::mapping::RadialBasisFctSolver::RadialBasisFctSolver</title>
<!-- Node1 -->
<g id="Node000001" class="node">
<title>Node1</title>
<g id="a_Node000001"><a xlink:title=" ">
<polygon fill="#999999" stroke="#666666" points="167,-116.5 0,-116.5 0,-75.5 167,-75.5 167,-116.5"/>
<text text-anchor="start" x="8" y="-104.5" font-family="Helvetica,sans-Serif" font-size="10.00">precice::mapping::Radial</text>
<text text-anchor="start" x="8" y="-93.5" font-family="Helvetica,sans-Serif" font-size="10.00">BasisFctSolver::RadialBasisFct</text>
<text text-anchor="middle" x="83.5" y="-82.5" font-family="Helvetica,sans-Serif" font-size="10.00">Solver</text>
</a>
</g>
</g>
<!-- Node2 -->
<g id="Node000002" class="node">
<title>Node2</title>
<g id="a_Node000002"><a xlink:href="namespaceprecice_1_1mapping.html#af2e0c6affb9843e516b73b82d707cc71" target="_top" xlink:title=" ">
<polygon fill="white" stroke="#666666" points="378.5,-105.5 209.5,-105.5 209.5,-86.5 378.5,-86.5 378.5,-105.5"/>
<text text-anchor="middle" x="294" y="-93.5" font-family="Helvetica,sans-Serif" font-size="10.00">precice::mapping::buildMatrixA</text>
</a>
</g>
</g>
<!-- Node1&#45;&gt;Node2 -->
<g id="edge1_Node000001_Node000002" class="edge">
<title>Node1&#45;&gt;Node2</title>
<g id="a_edge1_Node000001_Node000002"><a xlink:title=" ">
<path fill="none" stroke="#63b8ff" d="M167.2,-96C177.72,-96 188.53,-96 199.2,-96"/>
<polygon fill="#63b8ff" stroke="#63b8ff" points="199.37,-99.5 209.37,-96 199.37,-92.5 199.37,-99.5"/>
</a>
</g>
</g>
<!-- Node4 -->
<g id="Node000004" class="node">
<title>Node4</title>
<g id="a_Node000004"><a xlink:href="namespaceprecice_1_1mapping.html#acb5af976a940daac3500bf78be6adb74" target="_top" xlink:title=" ">
<polygon fill="white" stroke="#666666" points="594,-68 421,-68 421,-38 594,-38 594,-68"/>
<text text-anchor="start" x="429" y="-56" font-family="Helvetica,sans-Serif" font-size="10.00">precice::mapping::fillPolynomial</text>
<text text-anchor="middle" x="507.5" y="-45" font-family="Helvetica,sans-Serif" font-size="10.00">Entries</text>
</a>
</g>
</g>
<!-- Node1&#45;&gt;Node4 -->
<g id="edge12_Node000001_Node000004" class="edge">
<title>Node1&#45;&gt;Node4</title>
<g id="a_edge12_Node000001_Node000004"><a xlink:title=" ">
<path fill="none" stroke="#63b8ff" d="M167.26,-81.87C179.23,-80.07 191.41,-78.38 203,-77 272.33,-68.71 350.93,-62.59 410.77,-58.6"/>
<polygon fill="#63b8ff" stroke="#63b8ff" points="411.21,-62.08 420.96,-57.93 410.75,-55.09 411.21,-62.08"/>
</a>
</g>
</g>
<!-- Node7 -->
<g id="Node000007" class="node">
<title>Node7</title>
<g id="a_Node000007"><a xlink:href="namespaceprecice_1_1mapping.html#ad55dfaf7c7a37d38b6fa123c9743223c" target="_top" xlink:title=" ">
<polygon fill="white" stroke="#666666" points="385,-142.5 203,-142.5 203,-123.5 385,-123.5 385,-142.5"/>
<text text-anchor="middle" x="294" y="-130.5" font-family="Helvetica,sans-Serif" font-size="10.00">precice::mapping::buildMatrixCLU</text>
</a>
</g>
</g>
<!-- Node1&#45;&gt;Node7 -->
<g id="edge7_Node000001_Node000007" class="edge">
<title>Node1&#45;&gt;Node7</title>
<g id="a_edge7_Node000001_Node000007"><a xlink:title=" ">
<path fill="none" stroke="#63b8ff" d="M167.2,-110.68C187.83,-114.34 209.63,-118.2 229.18,-121.67"/>
<polygon fill="#63b8ff" stroke="#63b8ff" points="228.72,-125.15 239.18,-123.45 229.95,-118.26 228.72,-125.15"/>
</a>
</g>
</g>
<!-- Node8 -->
<g id="Node000008" class="node">
<title>Node8</title>
<g id="a_Node000008"><a xlink:href="classprecice_1_1mesh_1_1Mesh.html#a3185fe962ba3e8fe0b3cf451681e6a48" target="_top" xlink:title="Returns the name of the mesh, as set in the config file.">
<polygon fill="white" stroke="#666666" points="352.5,-30 235.5,-30 235.5,0 352.5,0 352.5,-30"/>
<text text-anchor="start" x="243.5" y="-18" font-family="Helvetica,sans-Serif" font-size="10.00">precice::mesh::Mesh</text>
<text text-anchor="middle" x="294" y="-7" font-family="Helvetica,sans-Serif" font-size="10.00">::getName</text>
</a>
</g>
</g>
<!-- Node1&#45;&gt;Node8 -->
<g id="edge13_Node000001_Node000008" class="edge">
<title>Node1&#45;&gt;Node8</title>
<g id="a_edge13_Node000001_Node000008"><a xlink:title=" ">
<path fill="none" stroke="#63b8ff" d="M128.51,-75.41C150.64,-65.39 178,-53.48 203,-44 212.77,-40.29 223.25,-36.64 233.47,-33.23"/>
<polygon fill="#63b8ff" stroke="#63b8ff" points="234.76,-36.5 243.17,-30.06 232.58,-29.85 234.76,-36.5"/>
</a>
</g>
</g>
<!-- Node9 -->
<g id="Node000009" class="node">
<title>Node9</title>
<g id="a_Node000009"><a xlink:href="namespaceprecice_1_1mapping.html#ad25fb75cdb8174c18b24d6e0dfb0112e" target="_top" xlink:title="given the active axis, computes sets the axis with the lowest spatial expansion to dead">
<polygon fill="white" stroke="#666666" points="577.5,-250 437.5,-250 437.5,-220 577.5,-220 577.5,-250"/>
<text text-anchor="start" x="445.5" y="-238" font-family="Helvetica,sans-Serif" font-size="10.00">precice::mapping::reduce</text>
<text text-anchor="middle" x="507.5" y="-227" font-family="Helvetica,sans-Serif" font-size="10.00">ActiveAxis</text>
</a>
</g>
</g>
<!-- Node1&#45;&gt;Node9 -->
<g id="edge14_Node000001_Node000009" class="edge">
<title>Node1&#45;&gt;Node9</title>
<g id="a_edge14_Node000001_Node000009"><a xlink:title=" ">
<path fill="none" stroke="#63b8ff" d="M124.39,-116.52C147.05,-127.66 176.18,-141.14 203,-151 278.71,-178.83 367.96,-202.48 429.99,-217.53"/>
<polygon fill="#63b8ff" stroke="#63b8ff" points="429.55,-221.02 440.09,-219.96 431.19,-214.22 429.55,-221.02"/>
</a>
</g>
</g>
<!-- Node3 -->
<g id="Node000003" class="node">
<title>Node3</title>
<g id="a_Node000003"><a xlink:href="namespaceprecice_1_1mapping.html#a8e50570bef6a89ba9016bf31fadd83f1" target="_top" xlink:title="Deletes all dead directions from fullVector and returns a vector of reduced dimensionality.">
<polygon fill="white" stroke="#666666" points="582,-164 433,-164 433,-134 582,-134 582,-164"/>
<text text-anchor="start" x="441" y="-152" font-family="Helvetica,sans-Serif" font-size="10.00">precice::mapping::compute</text>
<text text-anchor="middle" x="507.5" y="-141" font-family="Helvetica,sans-Serif" font-size="10.00">SquaredDifference</text>
</a>
</g>
</g>
<!-- Node2&#45;&gt;Node3 -->
<g id="edge2_Node000002_Node000003" class="edge">
<title>Node2&#45;&gt;Node3</title>
<g id="a_edge2_Node000002_Node000003"><a xlink:title=" ">
<path fill="none" stroke="#63b8ff" d="M347.07,-105.5C359.55,-108.03 372.79,-110.92 385,-114 401.22,-118.09 404.95,-120.29 421,-125 427.92,-127.03 435.16,-129.11 442.38,-131.17"/>
<polygon fill="#63b8ff" stroke="#63b8ff" points="441.59,-134.59 452.17,-133.95 443.51,-127.85 441.59,-134.59"/>
</a>
</g>
</g>
<!-- Node2&#45;&gt;Node4 -->
<g id="edge3_Node000002_Node000004" class="edge">
<title>Node2&#45;&gt;Node4</title>
<g id="a_edge3_Node000002_Node000004"><a xlink:title=" ">
<path fill="none" stroke="#63b8ff" d="M341.94,-86.46C365.68,-81.63 395.21,-75.63 422.68,-70.04"/>
<polygon fill="#63b8ff" stroke="#63b8ff" points="423.59,-73.43 432.69,-68.01 422.19,-66.57 423.59,-73.43"/>
</a>
</g>
</g>
<!-- Node5 -->
<g id="Node000005" class="node">
<title>Node5</title>
<g id="a_Node000005"><a xlink:href="classprecice_1_1mesh_1_1Mesh.html#a13faa9b03e5d20918ed6528db1415fa3" target="_top" xlink:title="Returns modifieable container holding all vertices.">
<polygon fill="white" stroke="#666666" points="747,-137 630,-137 630,-107 747,-107 747,-137"/>
<text text-anchor="start" x="638" y="-125" font-family="Helvetica,sans-Serif" font-size="10.00">precice::mesh::Mesh</text>
<text text-anchor="middle" x="688.5" y="-114" font-family="Helvetica,sans-Serif" font-size="10.00">::vertices</text>
</a>
</g>
</g>
<!-- Node2&#45;&gt;Node5 -->
<g id="edge6_Node000002_Node000005" class="edge">
<title>Node2&#45;&gt;Node5</title>
<g id="a_edge6_Node000002_Node000005"><a xlink:title=" ">
<path fill="none" stroke="#63b8ff" d="M307.73,-86.46C329.54,-70.79 376.05,-40.21 421,-29 495.6,-10.4 522.92,0.33 594,-29 627.82,-42.95 655.85,-75.72 672.14,-98.38"/>
<polygon fill="#63b8ff" stroke="#63b8ff" points="669.41,-100.59 677.99,-106.8 675.16,-96.59 669.41,-100.59"/>
</a>
</g>
</g>
<!-- Node6 -->
<g id="Node000006" class="node">
<title>Node6</title>
<g id="a_Node000006"><a xlink:href="classprecice_1_1mesh_1_1Mesh.html#a136f6b4ce235025e418fab0ca5f350ff" target="_top" xlink:title=" ">
<polygon fill="white" stroke="#666666" points="566,-116 449,-116 449,-86 566,-86 566,-116"/>
<text text-anchor="start" x="457" y="-104" font-family="Helvetica,sans-Serif" font-size="10.00">precice::mesh::Mesh</text>
<text text-anchor="middle" x="507.5" y="-93" font-family="Helvetica,sans-Serif" font-size="10.00">::getDimensions</text>
</a>
</g>
</g>
<!-- Node2&#45;&gt;Node6 -->
<g id="edge5_Node000002_Node000006" class="edge">
<title>Node2&#45;&gt;Node6</title>
<g id="a_edge5_Node000002_Node000006"><a xlink:title=" ">
<path fill="none" stroke="#63b8ff" d="M378.59,-97.98C398.56,-98.45 419.63,-98.95 438.78,-99.4"/>
<polygon fill="#63b8ff" stroke="#63b8ff" points="438.82,-102.9 448.9,-99.64 438.98,-95.9 438.82,-102.9"/>
</a>
</g>
</g>
<!-- Node4&#45;&gt;Node5 -->
<g id="edge4_Node000004_Node000005" class="edge">
<title>Node4&#45;&gt;Node5</title>
<g id="a_edge4_Node000004_Node000005"><a xlink:title=" ">
<path fill="none" stroke="#63b8ff" d="M567.35,-68.05C576.36,-70.78 585.49,-73.79 594,-77 613.05,-84.2 633.52,-93.81 650.42,-102.31"/>
<polygon fill="#63b8ff" stroke="#63b8ff" points="648.92,-105.47 659.42,-106.89 652.1,-99.23 648.92,-105.47"/>
</a>
</g>
</g>
<!-- Node7&#45;&gt;Node3 -->
<g id="edge8_Node000007_Node000003" class="edge">
<title>Node7&#45;&gt;Node3</title>
<g id="a_edge8_Node000007_Node000003"><a xlink:title=" ">
<path fill="none" stroke="#63b8ff" d="M385,-139.81C397.47,-140.75 410.25,-141.72 422.6,-142.65"/>
<polygon fill="#63b8ff" stroke="#63b8ff" points="422.63,-146.17 432.87,-143.43 423.16,-139.19 422.63,-146.17"/>
</a>
</g>
</g>
<!-- Node7&#45;&gt;Node4 -->
<g id="edge9_Node000007_Node000004" class="edge">
<title>Node7&#45;&gt;Node4</title>
<g id="a_edge9_Node000007_Node000004"><a xlink:title=" ">
<path fill="none" stroke="#63b8ff" d="M362.46,-123.38C370.31,-120.93 378.01,-117.85 385,-114 405.1,-102.93 401.28,-88.72 421,-77 423.85,-75.31 426.82,-73.73 429.88,-72.26"/>
<polygon fill="#63b8ff" stroke="#63b8ff" points="431.5,-75.37 439.26,-68.16 428.7,-68.95 431.5,-75.37"/>
</a>
</g>
</g>
<!-- Node7&#45;&gt;Node5 -->
<g id="edge11_Node000007_Node000005" class="edge">
<title>Node7&#45;&gt;Node5</title>
<g id="a_edge11_Node000007_Node000005"><a xlink:title=" ">
<path fill="none" stroke="#63b8ff" d="M317.71,-142.55C342.56,-152.44 383.8,-167.24 421,-173 496.98,-184.77 519.5,-192 594,-173 617.04,-167.13 640.52,-154.29 658.19,-142.96"/>
<polygon fill="#63b8ff" stroke="#63b8ff" points="660.46,-145.66 666.87,-137.22 656.6,-139.82 660.46,-145.66"/>
</a>
</g>
</g>
<!-- Node7&#45;&gt;Node6 -->
<g id="edge10_Node000007_Node000006" class="edge">
<title>Node7&#45;&gt;Node6</title>
<g id="a_edge10_Node000007_Node000006"><a xlink:title=" ">
<path fill="none" stroke="#63b8ff" d="M357.88,-123.49C383.36,-119.63 412.83,-115.17 438.78,-111.25"/>
<polygon fill="#63b8ff" stroke="#63b8ff" points="439.55,-114.67 448.91,-109.71 438.5,-107.75 439.55,-114.67"/>
</a>
</g>
</g>
<!-- Node9&#45;&gt;Node5 -->
<g id="edge15_Node000009_Node000005" class="edge">
<title>Node9&#45;&gt;Node5</title>
<g id="a_edge15_Node000009_Node000005"><a xlink:title=" ">
<path fill="none" stroke="#63b8ff" d="M563.77,-219.93C574.15,-216.09 584.67,-211.46 594,-206 622.34,-189.41 649.68,-163.3 667.39,-144.59"/>
<polygon fill="#63b8ff" stroke="#63b8ff" points="670.13,-146.78 674.37,-137.07 665,-142.02 670.13,-146.78"/>
</a>
</g>
</g>
</g>
</svg>

<g id="navigator" transform="translate(0 0)" fill="#404254">
  <rect fill="#f2f5e9" fill-opacity="0.5" stroke="#606060" stroke-width=".5" x="0" y="0" width="60" height="60"/>
  <use id="zoomplus" xlink:href="#zoomPlus" x="17" y="9" onmousedown="handleZoom(evt,'in')"/>
  <use id="zoomminus" xlink:href="#zoomMin" x="42" y="9" onmousedown="handleZoom(evt,'out')"/>
  <use id="reset" xlink:href="#resetDef" x="30" y="36" onmousedown="handleReset()"/>
   <use id="arrowup" xlink:href="#arrowUp" x="0" y="0" onmousedown="handlePan(0,-1)"/>
  <use id="arrowright" xlink:href="#arrowRight" x="0" y="0" onmousedown="handlePan(1,0)"/>
  <use id="arrowdown" xlink:href="#arrowDown" x="0" y="0" onmousedown="handlePan(0,1)"/>
  <use id="arrowleft" xlink:href="#arrowLeft" x="0" y="0" onmousedown="handlePan(-1,0)"/>
</g>
<svg viewBox="0 0 15 15" width="100%" height="30px" preserveAspectRatio="xMaxYMin meet">
 <g id="arrow_out" transform="scale(0.3 0.3)">
  <a xlink:href="classprecice_1_1mapping_1_1RadialBasisFctSolver_a754ddd7e2ecea4345951c1e244434818_cgraph_org.svg" target="_base">
   <rect id="button" ry="5" rx="5" y="6" x="6" height="38" width="38"
        fill="#f2f5e9" fill-opacity="0.5" stroke="#606060" stroke-width="1.0"/>
   <path id="arrow"
     d="M 11.500037,31.436501 C 11.940474,20.09759 22.043105,11.32322 32.158766,21.979434 L 37.068811,17.246167 C 37.068811,17.246167 37.088388,32 37.088388,32 L 22.160133,31.978069 C 22.160133,31.978069 26.997745,27.140456 26.997745,27.140456 C 18.528582,18.264221 13.291696,25.230495 11.500037,31.436501 z"
     style="fill:#404040;"/>
  </a>
 </g>
</svg>

<style type='text/css'>
<![CDATA[
[data-mouse-over-selected='false'] { opacity: 0.7; }
[data-mouse-over-selected='true']  { opacity: 1.0; }
]]>
</style>
<script type="application/ecmascript"><![CDATA[
document.addEventListener('DOMContentLoaded', (event) => {
  highlightEdges();
  highlightAdjacentNodes();
});
]]></script>
</svg>
