<?xml version="1.0" encoding="UTF-8" standalone="no"?>
<!DOCTYPE svg PUBLIC "-//W3C//DTD SVG 1.1//EN"
 "http://www.w3.org/Graphics/SVG/1.1/DTD/svg11.dtd">
<!-- Generated by graphviz version 2.43.0 (0)
 -->
<!-- Title: precice::cplscheme::SerialCouplingScheme::exchangeSecondData Pages: 1 -->
<svg width="1048pt" height="862pt"
 viewBox="0.00 0.00 1048.00 862.00" xmlns="http://www.w3.org/2000/svg" xmlns:xlink="http://www.w3.org/1999/xlink">
<g id="graph0" class="graph" transform="scale(1 1) rotate(0) translate(4 858)">
<title>precice::cplscheme::SerialCouplingScheme::exchangeSecondData</title>
<polygon fill="white" stroke="transparent" points="-4,4 -4,-858 1044,-858 1044,4 -4,4"/>
<!-- Node1 -->
<g id="node1" class="node">
<title>Node1</title>
<g id="a_node1"><a xlink:title="Exchanges the second set of data.">
<polygon fill="#bfbfbf" stroke="black" points="0,-362.5 0,-403.5 132,-403.5 132,-362.5 0,-362.5"/>
<text text-anchor="start" x="8" y="-391.5" font-family="Helvetica,sans-Serif" font-size="10.00">precice::cplscheme</text>
<text text-anchor="start" x="8" y="-380.5" font-family="Helvetica,sans-Serif" font-size="10.00">::SerialCouplingScheme</text>
<text text-anchor="middle" x="66" y="-369.5" font-family="Helvetica,sans-Serif" font-size="10.00">::exchangeSecondData</text>
</a>
</g>
</g>
<!-- Node2 -->
<g id="node2" class="node">
<title>Node2</title>
<g id="a_node2"><a xlink:href="classprecice_1_1cplscheme_1_1BaseCouplingScheme.html#af880c679675d59efcf00b0b9fd984f6e" target="_top" xlink:title="Getter for _doesFirstStep.">
<polygon fill="white" stroke="black" points="391.5,-496.5 391.5,-537.5 519.5,-537.5 519.5,-496.5 391.5,-496.5"/>
<text text-anchor="start" x="399.5" y="-525.5" font-family="Helvetica,sans-Serif" font-size="10.00">precice::cplscheme</text>
<text text-anchor="start" x="399.5" y="-514.5" font-family="Helvetica,sans-Serif" font-size="10.00">::BaseCouplingScheme</text>
<text text-anchor="middle" x="455.5" y="-503.5" font-family="Helvetica,sans-Serif" font-size="10.00">::doesFirstStep</text>
</a>
</g>
</g>
<!-- Node1&#45;&gt;Node2 -->
<g id="edge1" class="edge">
<title>Node1&#45;&gt;Node2</title>
<path fill="none" stroke="midnightblue" d="M73.44,-403.65C85.54,-438.42 115.31,-507.65 168,-536 236.3,-572.75 327.41,-557.81 388.37,-540.44"/>
<polygon fill="midnightblue" stroke="midnightblue" points="389.66,-543.71 398.26,-537.52 387.68,-536.99 389.66,-543.71"/>
</g>
<!-- Node3 -->
<g id="node3" class="node">
<title>Node3</title>
<g id="a_node3"><a xlink:href="classprecice_1_1cplscheme_1_1BiCouplingScheme.html#ae90273efd5e7a1ba0b91b5e09fd971ac" target="_top" xlink:title=" ">
<polygon fill="white" stroke="black" points="395.5,-812.5 395.5,-853.5 515.5,-853.5 515.5,-812.5 395.5,-812.5"/>
<text text-anchor="start" x="403.5" y="-841.5" font-family="Helvetica,sans-Serif" font-size="10.00">precice::cplscheme</text>
<text text-anchor="start" x="403.5" y="-830.5" font-family="Helvetica,sans-Serif" font-size="10.00">::BiCouplingScheme::</text>
<text text-anchor="middle" x="455.5" y="-819.5" font-family="Helvetica,sans-Serif" font-size="10.00">getM2N</text>
</a>
</g>
</g>
<!-- Node1&#45;&gt;Node3 -->
<g id="edge2" class="edge">
<title>Node1&#45;&gt;Node3</title>
<path fill="none" stroke="midnightblue" d="M67.73,-403.71C70.79,-459.75 86.58,-616.34 168,-708 224.9,-772.06 320.6,-804.65 385.59,-820.22"/>
<polygon fill="midnightblue" stroke="midnightblue" points="384.82,-823.64 395.35,-822.49 386.4,-816.82 384.82,-823.64"/>
</g>
<!-- Node4 -->
<g id="node4" class="node">
<title>Node4</title>
<g id="a_node4"><a xlink:href="classprecice_1_1cplscheme_1_1BiCouplingScheme.html#ad456365f895091d95de91088195e164b" target="_top" xlink:title="Returns all data to be received.">
<polygon fill="white" stroke="black" points="196.5,-120.5 196.5,-161.5 316.5,-161.5 316.5,-120.5 196.5,-120.5"/>
<text text-anchor="start" x="204.5" y="-149.5" font-family="Helvetica,sans-Serif" font-size="10.00">precice::cplscheme</text>
<text text-anchor="start" x="204.5" y="-138.5" font-family="Helvetica,sans-Serif" font-size="10.00">::BiCouplingScheme::</text>
<text text-anchor="middle" x="256.5" y="-127.5" font-family="Helvetica,sans-Serif" font-size="10.00">getReceiveData</text>
</a>
</g>
</g>
<!-- Node1&#45;&gt;Node4 -->
<g id="edge3" class="edge">
<title>Node1&#45;&gt;Node4</title>
<path fill="none" stroke="midnightblue" d="M71.74,-362.38C82.18,-321.4 110.88,-229.08 168,-176 173.73,-170.68 180.37,-166.12 187.39,-162.23"/>
<polygon fill="midnightblue" stroke="midnightblue" points="189.09,-165.29 196.43,-157.65 185.93,-159.05 189.09,-165.29"/>
</g>
<!-- Node5 -->
<g id="node5" class="node">
<title>Node5</title>
<g id="a_node5"><a xlink:href="classprecice_1_1cplscheme_1_1BaseCouplingScheme.html#a71a31cd898a45b62b761f9545fce767b" target="_top" xlink:title="Checks if the implicit cplscheme has converged.">
<polygon fill="white" stroke="black" points="391.5,-752.5 391.5,-793.5 519.5,-793.5 519.5,-752.5 391.5,-752.5"/>
<text text-anchor="start" x="399.5" y="-781.5" font-family="Helvetica,sans-Serif" font-size="10.00">precice::cplscheme</text>
<text text-anchor="start" x="399.5" y="-770.5" font-family="Helvetica,sans-Serif" font-size="10.00">::BaseCouplingScheme</text>
<text text-anchor="middle" x="455.5" y="-759.5" font-family="Helvetica,sans-Serif" font-size="10.00">::hasConverged</text>
</a>
</g>
</g>
<!-- Node1&#45;&gt;Node5 -->
<g id="edge4" class="edge">
<title>Node1&#45;&gt;Node5</title>
<path fill="none" stroke="midnightblue" d="M69.54,-403.52C76.52,-451.74 100.21,-573.57 168,-645 225.58,-705.67 317.15,-739.61 381.22,-757.06"/>
<polygon fill="midnightblue" stroke="midnightblue" points="380.7,-760.54 391.26,-759.72 382.49,-753.77 380.7,-760.54"/>
</g>
<!-- Node6 -->
<g id="node6" class="node">
<title>Node6</title>
<g id="a_node6"><a xlink:href="classprecice_1_1cplscheme_1_1BaseCouplingScheme.html#a69facd34bc23797fe69daab51df26b8c" target="_top" xlink:title="Returns true, when the coupled simulation is still ongoing.">
<polygon fill="white" stroke="black" points="391.5,-338.5 391.5,-379.5 519.5,-379.5 519.5,-338.5 391.5,-338.5"/>
<text text-anchor="start" x="399.5" y="-367.5" font-family="Helvetica,sans-Serif" font-size="10.00">precice::cplscheme</text>
<text text-anchor="start" x="399.5" y="-356.5" font-family="Helvetica,sans-Serif" font-size="10.00">::BaseCouplingScheme</text>
<text text-anchor="middle" x="455.5" y="-345.5" font-family="Helvetica,sans-Serif" font-size="10.00">::isCouplingOngoing</text>
</a>
</g>
</g>
<!-- Node1&#45;&gt;Node6 -->
<g id="edge5" class="edge">
<title>Node1&#45;&gt;Node6</title>
<path fill="none" stroke="midnightblue" d="M132.3,-378.96C201.06,-374.7 309.12,-368 380.88,-363.56"/>
<polygon fill="midnightblue" stroke="midnightblue" points="381.43,-367.03 391.19,-362.92 380.99,-360.05 381.43,-367.03"/>
</g>
<!-- Node10 -->
<g id="node10" class="node">
<title>Node10</title>
<g id="a_node10"><a xlink:href="classprecice_1_1cplscheme_1_1BaseCouplingScheme.html#a38eb9e294c701da2259e803d184710ee" target="_top" xlink:title="Function to determine whether coupling scheme is an explicit coupling scheme.">
<polygon fill="white" stroke="black" points="182,-60.5 182,-101.5 331,-101.5 331,-60.5 182,-60.5"/>
<text text-anchor="start" x="190" y="-89.5" font-family="Helvetica,sans-Serif" font-size="10.00">precice::cplscheme</text>
<text text-anchor="start" x="190" y="-78.5" font-family="Helvetica,sans-Serif" font-size="10.00">::BaseCouplingScheme</text>
<text text-anchor="middle" x="256.5" y="-67.5" font-family="Helvetica,sans-Serif" font-size="10.00">::isExplicitCouplingScheme</text>
</a>
</g>
</g>
<!-- Node1&#45;&gt;Node10 -->
<g id="edge9" class="edge">
<title>Node1&#45;&gt;Node10</title>
<path fill="none" stroke="midnightblue" d="M68.74,-362.4C74.08,-312.23 94.61,-182.56 168,-111 169.68,-109.36 171.46,-107.81 173.31,-106.34"/>
<polygon fill="midnightblue" stroke="midnightblue" points="175.62,-109 181.88,-100.44 171.65,-103.23 175.62,-109"/>
</g>
<!-- Node11 -->
<g id="node11" class="node">
<title>Node11</title>
<g id="a_node11"><a xlink:href="classprecice_1_1cplscheme_1_1BaseCouplingScheme.html#a4dcb97e3ef79b1cca6af577f9cbbec19" target="_top" xlink:title="Function to determine whether coupling scheme is an implicit coupling scheme.">
<polygon fill="white" stroke="black" points="381,-436.5 381,-477.5 530,-477.5 530,-436.5 381,-436.5"/>
<text text-anchor="start" x="389" y="-465.5" font-family="Helvetica,sans-Serif" font-size="10.00">precice::cplscheme</text>
<text text-anchor="start" x="389" y="-454.5" font-family="Helvetica,sans-Serif" font-size="10.00">::BaseCouplingScheme</text>
<text text-anchor="middle" x="455.5" y="-443.5" font-family="Helvetica,sans-Serif" font-size="10.00">::isImplicitCouplingScheme</text>
</a>
</g>
</g>
<!-- Node1&#45;&gt;Node11 -->
<g id="edge10" class="edge">
<title>Node1&#45;&gt;Node11</title>
<path fill="none" stroke="midnightblue" d="M96.88,-403.76C116.23,-416.04 142.5,-430.6 168,-438 234.28,-457.23 312.65,-461.22 370.66,-460.83"/>
<polygon fill="midnightblue" stroke="midnightblue" points="370.93,-464.32 380.89,-460.71 370.85,-457.33 370.93,-464.32"/>
</g>
<!-- Node12 -->
<g id="node12" class="node">
<title>Node12</title>
<g id="a_node12"><a xlink:href="classprecice_1_1cplscheme_1_1BaseCouplingScheme.html#a88e63605dd9bd11de8a3e5ecb00135e0" target="_top" xlink:title="finalizes this window&#39;s data and initializes data for next window.">
<polygon fill="white" stroke="black" points="763,-115.5 763,-156.5 891,-156.5 891,-115.5 763,-115.5"/>
<text text-anchor="start" x="771" y="-144.5" font-family="Helvetica,sans-Serif" font-size="10.00">precice::cplscheme</text>
<text text-anchor="start" x="771" y="-133.5" font-family="Helvetica,sans-Serif" font-size="10.00">::BaseCouplingScheme</text>
<text text-anchor="middle" x="827" y="-122.5" font-family="Helvetica,sans-Serif" font-size="10.00">::moveToNextWindow</text>
</a>
</g>
</g>
<!-- Node1&#45;&gt;Node12 -->
<g id="edge11" class="edge">
<title>Node1&#45;&gt;Node12</title>
<path fill="none" stroke="midnightblue" d="M77.48,-362.06C93.27,-332.48 125.87,-278.56 168,-247 205.73,-218.74 519.59,-108.3 566,-100 636.44,-87.41 656.53,-87.58 727,-100 741.34,-102.53 756.34,-106.96 770.2,-111.88"/>
<polygon fill="midnightblue" stroke="midnightblue" points="768.99,-115.17 779.59,-115.34 771.42,-108.6 768.99,-115.17"/>
</g>
<!-- Node14 -->
<g id="node14" class="node">
<title>Node14</title>
<g id="a_node14"><a xlink:href="classprecice_1_1cplscheme_1_1BaseCouplingScheme.html#a3153d22622f9abe534cef5fb0fb299dc" target="_top" xlink:title="Used to set flag after data has been received using receiveData().">
<polygon fill="white" stroke="black" points="175.5,-0.5 175.5,-41.5 337.5,-41.5 337.5,-0.5 175.5,-0.5"/>
<text text-anchor="start" x="183.5" y="-29.5" font-family="Helvetica,sans-Serif" font-size="10.00">precice::cplscheme</text>
<text text-anchor="start" x="183.5" y="-18.5" font-family="Helvetica,sans-Serif" font-size="10.00">::BaseCouplingScheme</text>
<text text-anchor="middle" x="256.5" y="-7.5" font-family="Helvetica,sans-Serif" font-size="10.00">::notifyDataHasBeenReceived</text>
</a>
</g>
</g>
<!-- Node1&#45;&gt;Node14 -->
<g id="edge13" class="edge">
<title>Node1&#45;&gt;Node14</title>
<path fill="none" stroke="midnightblue" d="M67.13,-362.28C68.62,-304.76 80.74,-141.36 168,-51 168.94,-50.03 169.92,-49.08 170.92,-48.17"/>
<polygon fill="midnightblue" stroke="midnightblue" points="173.41,-50.67 179.15,-41.76 169.11,-45.14 173.41,-50.67"/>
</g>
<!-- Node15 -->
<g id="node15" class="node">
<title>Node15</title>
<g id="a_node15"><a xlink:href="classprecice_1_1cplscheme_1_1SerialCouplingScheme.html#a2e5a29de7a6610336338700f49f10189" target="_top" xlink:title="Receives and sets the time window size, if this participant is the one to receive.">
<polygon fill="white" stroke="black" points="168,-594.5 168,-635.5 345,-635.5 345,-594.5 168,-594.5"/>
<text text-anchor="start" x="176" y="-623.5" font-family="Helvetica,sans-Serif" font-size="10.00">precice::cplscheme</text>
<text text-anchor="start" x="176" y="-612.5" font-family="Helvetica,sans-Serif" font-size="10.00">::SerialCouplingScheme</text>
<text text-anchor="middle" x="256.5" y="-601.5" font-family="Helvetica,sans-Serif" font-size="10.00">::receiveAndSetTimeWindowSize</text>
</a>
</g>
</g>
<!-- Node1&#45;&gt;Node15 -->
<g id="edge14" class="edge">
<title>Node1&#45;&gt;Node15</title>
<path fill="none" stroke="midnightblue" d="M73.67,-403.64C86.57,-440.85 118.17,-519.84 168,-569 175.86,-576.75 185.29,-583.51 195.01,-589.29"/>
<polygon fill="midnightblue" stroke="midnightblue" points="193.54,-592.48 203.98,-594.32 196.97,-586.38 193.54,-592.48"/>
</g>
<!-- Node19 -->
<g id="node19" class="node">
<title>Node19</title>
<g id="a_node19"><a xlink:href="classprecice_1_1cplscheme_1_1BaseCouplingScheme.html#ae25a2c72a7e120f70b382b716347600d" target="_top" xlink:title="receives convergence from other participant via m2n">
<polygon fill="white" stroke="black" points="192.5,-485.5 192.5,-526.5 320.5,-526.5 320.5,-485.5 192.5,-485.5"/>
<text text-anchor="start" x="200.5" y="-514.5" font-family="Helvetica,sans-Serif" font-size="10.00">precice::cplscheme</text>
<text text-anchor="start" x="200.5" y="-503.5" font-family="Helvetica,sans-Serif" font-size="10.00">::BaseCouplingScheme</text>
<text text-anchor="middle" x="256.5" y="-492.5" font-family="Helvetica,sans-Serif" font-size="10.00">::receiveConvergence</text>
</a>
</g>
</g>
<!-- Node1&#45;&gt;Node19 -->
<g id="edge25" class="edge">
<title>Node1&#45;&gt;Node19</title>
<path fill="none" stroke="midnightblue" d="M86.65,-403.76C105.92,-423.17 136.85,-451.96 168,-471 174.05,-474.7 180.55,-478.14 187.19,-481.32"/>
<polygon fill="midnightblue" stroke="midnightblue" points="185.74,-484.5 196.29,-485.48 188.65,-478.14 185.74,-484.5"/>
</g>
<!-- Node20 -->
<g id="node20" class="node">
<title>Node20</title>
<g id="a_node20"><a xlink:href="classprecice_1_1cplscheme_1_1BaseCouplingScheme.html#af690c8d4e0f11e52fc7b9ca1fe098229" target="_top" xlink:title="Receives data receiveDataIDs given in mapCouplingData with communication.">
<polygon fill="white" stroke="black" points="391.5,-240.5 391.5,-281.5 519.5,-281.5 519.5,-240.5 391.5,-240.5"/>
<text text-anchor="start" x="399.5" y="-269.5" font-family="Helvetica,sans-Serif" font-size="10.00">precice::cplscheme</text>
<text text-anchor="start" x="399.5" y="-258.5" font-family="Helvetica,sans-Serif" font-size="10.00">::BaseCouplingScheme</text>
<text text-anchor="middle" x="455.5" y="-247.5" font-family="Helvetica,sans-Serif" font-size="10.00">::receiveData</text>
</a>
</g>
</g>
<!-- Node1&#45;&gt;Node20 -->
<g id="edge28" class="edge">
<title>Node1&#45;&gt;Node20</title>
<path fill="none" stroke="midnightblue" d="M80.14,-362.39C97.09,-337.83 129.09,-297.88 168,-280 235.33,-249.06 321.07,-247.65 381.13,-251.9"/>
<polygon fill="midnightblue" stroke="midnightblue" points="381.05,-255.4 391.29,-252.69 381.59,-248.43 381.05,-255.4"/>
</g>
<!-- Node25 -->
<g id="node25" class="node">
<title>Node25</title>
<g id="a_node25"><a xlink:href="classprecice_1_1cplscheme_1_1BaseCouplingScheme.html#a2ecb01c18534e30572a4a3d85f9a9513" target="_top" xlink:title="Like receiveData, but temporarily sets window time to end of window.">
<polygon fill="white" stroke="black" points="179.5,-289.5 179.5,-330.5 333.5,-330.5 333.5,-289.5 179.5,-289.5"/>
<text text-anchor="start" x="187.5" y="-318.5" font-family="Helvetica,sans-Serif" font-size="10.00">precice::cplscheme</text>
<text text-anchor="start" x="187.5" y="-307.5" font-family="Helvetica,sans-Serif" font-size="10.00">::BaseCouplingScheme</text>
<text text-anchor="middle" x="256.5" y="-296.5" font-family="Helvetica,sans-Serif" font-size="10.00">::receiveDataForWindowEnd</text>
</a>
</g>
</g>
<!-- Node1&#45;&gt;Node25 -->
<g id="edge37" class="edge">
<title>Node1&#45;&gt;Node25</title>
<path fill="none" stroke="midnightblue" d="M120.01,-362.47C142.69,-353.69 169.34,-343.37 192.98,-334.21"/>
<polygon fill="midnightblue" stroke="midnightblue" points="194.5,-337.38 202.56,-330.5 191.97,-330.85 194.5,-337.38"/>
</g>
<!-- Node26 -->
<g id="node26" class="node">
<title>Node26</title>
<g id="a_node26"><a xlink:href="classprecice_1_1cplscheme_1_1BaseCouplingScheme.html#a41a071da3c8348a41bf4ae78c9edc06a" target="_top" xlink:title="used for storing all Data at end of doImplicitStep for later reference.">
<polygon fill="white" stroke="black" points="192.5,-387.5 192.5,-428.5 320.5,-428.5 320.5,-387.5 192.5,-387.5"/>
<text text-anchor="start" x="200.5" y="-416.5" font-family="Helvetica,sans-Serif" font-size="10.00">precice::cplscheme</text>
<text text-anchor="start" x="200.5" y="-405.5" font-family="Helvetica,sans-Serif" font-size="10.00">::BaseCouplingScheme</text>
<text text-anchor="middle" x="256.5" y="-394.5" font-family="Helvetica,sans-Serif" font-size="10.00">::storeIteration</text>
</a>
</g>
</g>
<!-- Node1&#45;&gt;Node26 -->
<g id="edge40" class="edge">
<title>Node1&#45;&gt;Node26</title>
<path fill="none" stroke="midnightblue" d="M132.13,-391.64C148.26,-393.78 165.65,-396.08 182.14,-398.27"/>
<polygon fill="midnightblue" stroke="midnightblue" points="181.9,-401.77 192.27,-399.61 182.82,-394.83 181.9,-401.77"/>
</g>
<!-- Node7 -->
<g id="node7" class="node">
<title>Node7</title>
<g id="a_node7"><a xlink:href="namespaceprecice_1_1math.html#a0e86802cfe992deba131d789d035b5b7" target="_top" xlink:title="Compares two Eigen::MatrixBase for equality up to tolerance.">
<polygon fill="white" stroke="black" points="766,-581.5 766,-600.5 888,-600.5 888,-581.5 766,-581.5"/>
<text text-anchor="middle" x="827" y="-588.5" font-family="Helvetica,sans-Serif" font-size="10.00">precice::math::equals</text>
</a>
</g>
</g>
<!-- Node6&#45;&gt;Node7 -->
<g id="edge6" class="edge">
<title>Node6&#45;&gt;Node7</title>
<path fill="none" stroke="midnightblue" d="M489.29,-379.59C562.52,-425.57 737.95,-535.71 802.03,-575.95"/>
<polygon fill="midnightblue" stroke="midnightblue" points="800.33,-579.01 810.66,-581.37 804.05,-573.08 800.33,-579.01"/>
</g>
<!-- Node8 -->
<g id="node8" class="node">
<title>Node8</title>
<g id="a_node8"><a xlink:href="classprecice_1_1cplscheme_1_1BaseCouplingScheme.html#a6c37c619f364581226635cdca7d39e4b" target="_top" xlink:title="getter for _time">
<polygon fill="white" stroke="black" points="582.5,-317.5 582.5,-358.5 710.5,-358.5 710.5,-317.5 582.5,-317.5"/>
<text text-anchor="start" x="590.5" y="-346.5" font-family="Helvetica,sans-Serif" font-size="10.00">precice::cplscheme</text>
<text text-anchor="start" x="590.5" y="-335.5" font-family="Helvetica,sans-Serif" font-size="10.00">::BaseCouplingScheme</text>
<text text-anchor="middle" x="646.5" y="-324.5" font-family="Helvetica,sans-Serif" font-size="10.00">::getTime</text>
</a>
</g>
</g>
<!-- Node6&#45;&gt;Node8 -->
<g id="edge7" class="edge">
<title>Node6&#45;&gt;Node8</title>
<path fill="none" stroke="midnightblue" d="M519.7,-351.98C536.56,-350.1 554.93,-348.06 572.28,-346.14"/>
<polygon fill="midnightblue" stroke="midnightblue" points="572.81,-349.6 582.36,-345.02 572.04,-342.64 572.81,-349.6"/>
</g>
<!-- Node9 -->
<g id="node9" class="node">
<title>Node9</title>
<g id="a_node9"><a xlink:href="namespaceprecice_1_1math.html#abdb7ef543f323c2e8a0d48d1774739e6" target="_top" xlink:title=" ">
<polygon fill="white" stroke="black" points="584,-377.5 584,-396.5 709,-396.5 709,-377.5 584,-377.5"/>
<text text-anchor="middle" x="646.5" y="-384.5" font-family="Helvetica,sans-Serif" font-size="10.00">precice::math::greater</text>
</a>
</g>
</g>
<!-- Node6&#45;&gt;Node9 -->
<g id="edge8" class="edge">
<title>Node6&#45;&gt;Node9</title>
<path fill="none" stroke="midnightblue" d="M519.7,-368.36C537.01,-370.93 555.9,-373.73 573.66,-376.36"/>
<polygon fill="midnightblue" stroke="midnightblue" points="573.56,-379.88 583.97,-377.88 574.59,-372.96 573.56,-379.88"/>
</g>
<!-- Node13 -->
<g id="node13" class="node">
<title>Node13</title>
<g id="a_node13"><a xlink:href="namespaceprecice_1_1detail.html#adede399b4b92eea01face616a0cc7051" target="_top" xlink:title=" ">
<polygon fill="white" stroke="black" points="927,-267.5 927,-286.5 1040,-286.5 1040,-267.5 927,-267.5"/>
<text text-anchor="middle" x="983.5" y="-274.5" font-family="Helvetica,sans-Serif" font-size="10.00">precice::detail::data</text>
</a>
</g>
</g>
<!-- Node12&#45;&gt;Node13 -->
<g id="edge12" class="edge">
<title>Node12&#45;&gt;Node13</title>
<path fill="none" stroke="midnightblue" d="M850.47,-156.5C881.24,-184.59 935.91,-234.48 964.28,-260.37"/>
<polygon fill="midnightblue" stroke="midnightblue" points="962.12,-263.14 971.87,-267.3 966.84,-257.97 962.12,-263.14"/>
</g>
<!-- Node15&#45;&gt;Node2 -->
<g id="edge15" class="edge">
<title>Node15&#45;&gt;Node2</title>
<path fill="none" stroke="midnightblue" d="M297.13,-594.44C321.28,-581.99 352.83,-565.89 381,-552 387.62,-548.73 394.6,-545.34 401.52,-542.02"/>
<polygon fill="midnightblue" stroke="midnightblue" points="403.37,-545.01 410.88,-537.53 400.35,-538.7 403.37,-545.01"/>
</g>
<!-- Node15&#45;&gt;Node3 -->
<g id="edge17" class="edge">
<title>Node15&#45;&gt;Node3</title>
<path fill="none" stroke="midnightblue" d="M266.07,-635.74C282.79,-673.86 323.25,-755.48 381,-803 382.77,-804.46 384.63,-805.85 386.54,-807.19"/>
<polygon fill="midnightblue" stroke="midnightblue" points="384.95,-810.32 395.28,-812.66 388.66,-804.39 384.95,-810.32"/>
</g>
<!-- Node15&#45;&gt;Node5 -->
<g id="edge21" class="edge">
<title>Node15&#45;&gt;Node5</title>
<path fill="none" stroke="midnightblue" d="M277.78,-635.56C311.31,-669.49 375.19,-733.9 381,-738 385.81,-741.39 391,-744.6 396.32,-747.61"/>
<polygon fill="midnightblue" stroke="midnightblue" points="394.88,-750.81 405.35,-752.46 398.2,-744.64 394.88,-750.81"/>
</g>
<!-- Node15&#45;&gt;Node7 -->
<g id="edge16" class="edge">
<title>Node15&#45;&gt;Node7</title>
<path fill="none" stroke="midnightblue" d="M337.17,-635.51C339.9,-637.2 342.52,-639.02 345,-641 370.51,-661.36 352.83,-688.52 381,-705 438.16,-738.43 464.89,-717.1 530,-705 633.76,-685.71 748.06,-631.41 798.96,-605.33"/>
<polygon fill="midnightblue" stroke="midnightblue" points="800.72,-608.36 807.99,-600.66 797.5,-602.15 800.72,-608.36"/>
</g>
<!-- Node15&#45;&gt;Node11 -->
<g id="edge23" class="edge">
<title>Node15&#45;&gt;Node11</title>
<path fill="none" stroke="midnightblue" d="M282.89,-594.46C301.07,-579.2 325.65,-557.41 345,-536 363.12,-515.95 359.69,-503.62 381,-487 382.81,-485.59 384.7,-484.23 386.64,-482.93"/>
<polygon fill="midnightblue" stroke="midnightblue" points="388.74,-485.76 395.48,-477.58 385.11,-479.77 388.74,-485.76"/>
</g>
<!-- Node16 -->
<g id="node16" class="node">
<title>Node16</title>
<g id="a_node16"><a xlink:href="classprecice_1_1cplscheme_1_1BaseCouplingScheme.html#a7635edb3017de9279bc550173f44003f" target="_top" xlink:title="Returns the time window size, if one is given by the coupling scheme.">
<polygon fill="white" stroke="black" points="391.5,-594.5 391.5,-635.5 519.5,-635.5 519.5,-594.5 391.5,-594.5"/>
<text text-anchor="start" x="399.5" y="-623.5" font-family="Helvetica,sans-Serif" font-size="10.00">precice::cplscheme</text>
<text text-anchor="start" x="399.5" y="-612.5" font-family="Helvetica,sans-Serif" font-size="10.00">::BaseCouplingScheme</text>
<text text-anchor="middle" x="455.5" y="-601.5" font-family="Helvetica,sans-Serif" font-size="10.00">::getTimeWindowSize</text>
</a>
</g>
</g>
<!-- Node15&#45;&gt;Node16 -->
<g id="edge18" class="edge">
<title>Node15&#45;&gt;Node16</title>
<path fill="none" stroke="midnightblue" d="M345.05,-615C357.14,-615 369.44,-615 381.23,-615"/>
<polygon fill="midnightblue" stroke="midnightblue" points="381.43,-618.5 391.43,-615 381.43,-611.5 381.43,-618.5"/>
</g>
<!-- Node17 -->
<g id="node17" class="node">
<title>Node17</title>
<g id="a_node17"><a xlink:href="classprecice_1_1cplscheme_1_1BaseCouplingScheme.html#aa1c82548c80a9c8bb129e115e0f710fe" target="_top" xlink:title="Function to check whether time window size is defined by coupling scheme.">
<polygon fill="white" stroke="black" points="582.5,-570.5 582.5,-611.5 710.5,-611.5 710.5,-570.5 582.5,-570.5"/>
<text text-anchor="start" x="590.5" y="-599.5" font-family="Helvetica,sans-Serif" font-size="10.00">precice::cplscheme</text>
<text text-anchor="start" x="590.5" y="-588.5" font-family="Helvetica,sans-Serif" font-size="10.00">::BaseCouplingScheme</text>
<text text-anchor="middle" x="646.5" y="-577.5" font-family="Helvetica,sans-Serif" font-size="10.00">::hasTimeWindowSize</text>
</a>
</g>
</g>
<!-- Node15&#45;&gt;Node17 -->
<g id="edge22" class="edge">
<title>Node15&#45;&gt;Node17</title>
<path fill="none" stroke="midnightblue" d="M329.46,-594.47C346.24,-590.54 364.13,-587.02 381,-585 445.37,-577.29 519.17,-579.91 572.43,-583.81"/>
<polygon fill="midnightblue" stroke="midnightblue" points="572.23,-587.3 582.46,-584.57 572.76,-580.32 572.23,-587.3"/>
</g>
<!-- Node18 -->
<g id="node18" class="node">
<title>Node18</title>
<g id="a_node18"><a xlink:href="classprecice_1_1cplscheme_1_1BaseCouplingScheme.html#ae5884457e1339371a60deb846268fc25" target="_top" xlink:title="Setter for _nextTimeWindowSize.">
<polygon fill="white" stroke="black" points="383,-654.5 383,-695.5 528,-695.5 528,-654.5 383,-654.5"/>
<text text-anchor="start" x="391" y="-683.5" font-family="Helvetica,sans-Serif" font-size="10.00">precice::cplscheme</text>
<text text-anchor="start" x="391" y="-672.5" font-family="Helvetica,sans-Serif" font-size="10.00">::BaseCouplingScheme</text>
<text text-anchor="middle" x="455.5" y="-661.5" font-family="Helvetica,sans-Serif" font-size="10.00">::setNextTimeWindowSize</text>
</a>
</g>
</g>
<!-- Node15&#45;&gt;Node18 -->
<g id="edge24" class="edge">
<title>Node15&#45;&gt;Node18</title>
<path fill="none" stroke="midnightblue" d="M325.02,-635.56C341.78,-640.67 359.87,-646.18 377.07,-651.42"/>
<polygon fill="midnightblue" stroke="midnightblue" points="376.48,-654.9 387.07,-654.46 378.52,-648.2 376.48,-654.9"/>
</g>
<!-- Node16&#45;&gt;Node17 -->
<g id="edge19" class="edge">
<title>Node16&#45;&gt;Node17</title>
<path fill="none" stroke="midnightblue" d="M519.7,-606.97C536.56,-604.83 554.93,-602.5 572.28,-600.3"/>
<polygon fill="midnightblue" stroke="midnightblue" points="572.88,-603.75 582.36,-599.02 572,-596.81 572.88,-603.75"/>
</g>
<!-- Node17&#45;&gt;Node7 -->
<g id="edge20" class="edge">
<title>Node17&#45;&gt;Node7</title>
<path fill="none" stroke="midnightblue" d="M710.68,-591C725.27,-591 740.87,-591 755.74,-591"/>
<polygon fill="midnightblue" stroke="midnightblue" points="755.89,-594.5 765.89,-591 755.89,-587.5 755.89,-594.5"/>
</g>
<!-- Node19&#45;&gt;Node2 -->
<g id="edge26" class="edge">
<title>Node19&#45;&gt;Node2</title>
<path fill="none" stroke="midnightblue" d="M320.64,-509.53C339.91,-510.6 361.25,-511.79 381.13,-512.9"/>
<polygon fill="midnightblue" stroke="midnightblue" points="381.2,-516.41 391.37,-513.48 381.59,-509.42 381.2,-516.41"/>
</g>
<!-- Node19&#45;&gt;Node11 -->
<g id="edge27" class="edge">
<title>Node19&#45;&gt;Node11</title>
<path fill="none" stroke="midnightblue" d="M320.64,-490.29C336.64,-486.32 354.07,-481.98 370.9,-477.79"/>
<polygon fill="midnightblue" stroke="midnightblue" points="371.87,-481.16 380.73,-475.35 370.18,-474.37 371.87,-481.16"/>
</g>
<!-- Node20&#45;&gt;Node8 -->
<g id="edge34" class="edge">
<title>Node20&#45;&gt;Node8</title>
<path fill="none" stroke="midnightblue" d="M504.63,-281.54C523.7,-289.59 545.84,-298.84 566,-307 571.37,-309.17 576.95,-311.4 582.55,-313.63"/>
<polygon fill="midnightblue" stroke="midnightblue" points="581.38,-316.93 591.97,-317.35 583.95,-310.42 581.38,-316.93"/>
</g>
<!-- Node20&#45;&gt;Node13 -->
<g id="edge29" class="edge">
<title>Node20&#45;&gt;Node13</title>
<path fill="none" stroke="midnightblue" d="M519.61,-258.98C534.8,-258.57 550.98,-258.21 566,-258 637.55,-257.02 655.49,-255.34 727,-258 791.59,-260.4 865.18,-266.2 916.73,-270.76"/>
<polygon fill="midnightblue" stroke="midnightblue" points="916.47,-274.25 926.74,-271.66 917.1,-267.28 916.47,-274.25"/>
</g>
<!-- Node21 -->
<g id="node21" class="node">
<title>Node21</title>
<g id="a_node21"><a xlink:href="classprecice_1_1com_1_1serialize_1_1SerializedStamples.html#a914cc916961f26874b078f45ce01e6f5" target="_top" xlink:title="Create SerializedStamples with allocated buffers according to size of CouplingData.">
<polygon fill="white" stroke="black" points="569.5,-268 569.5,-298 723.5,-298 723.5,-268 569.5,-268"/>
<text text-anchor="start" x="577.5" y="-286" font-family="Helvetica,sans-Serif" font-size="10.00">precice::com::serialize</text>
<text text-anchor="middle" x="646.5" y="-275" font-family="Helvetica,sans-Serif" font-size="10.00">::SerializedStamples::empty</text>
</a>
</g>
</g>
<!-- Node20&#45;&gt;Node21 -->
<g id="edge30" class="edge">
<title>Node20&#45;&gt;Node21</title>
<path fill="none" stroke="midnightblue" d="M519.7,-268.36C532.35,-269.83 545.85,-271.4 559.14,-272.95"/>
<polygon fill="midnightblue" stroke="midnightblue" points="558.9,-276.44 569.24,-274.12 559.71,-269.49 558.9,-276.44"/>
</g>
<!-- Node23 -->
<g id="node23" class="node">
<title>Node23</title>
<g id="a_node23"><a xlink:href="classprecice_1_1cplscheme_1_1BaseCouplingScheme.html#a83379ed90469cb7710fff88ff52269ac" target="_top" xlink:title=" ">
<polygon fill="white" stroke="black" points="566,-169.5 566,-210.5 727,-210.5 727,-169.5 566,-169.5"/>
<text text-anchor="start" x="574" y="-198.5" font-family="Helvetica,sans-Serif" font-size="10.00">precice::cplscheme</text>
<text text-anchor="start" x="574" y="-187.5" font-family="Helvetica,sans-Serif" font-size="10.00">::BaseCouplingScheme</text>
<text text-anchor="middle" x="646.5" y="-176.5" font-family="Helvetica,sans-Serif" font-size="10.00">::receiveNumberOfTimeSteps</text>
</a>
</g>
</g>
<!-- Node20&#45;&gt;Node23 -->
<g id="edge35" class="edge">
<title>Node20&#45;&gt;Node23</title>
<path fill="none" stroke="midnightblue" d="M511.17,-240.46C533.01,-232.26 558.33,-222.75 581.06,-214.21"/>
<polygon fill="midnightblue" stroke="midnightblue" points="582.5,-217.41 590.63,-210.61 580.04,-210.85 582.5,-217.41"/>
</g>
<!-- Node24 -->
<g id="node24" class="node">
<title>Node24</title>
<g id="a_node24"><a xlink:href="classprecice_1_1cplscheme_1_1BaseCouplingScheme.html#a700bef351e463eb84836538fd91f16b3" target="_top" xlink:title=" ">
<polygon fill="white" stroke="black" points="582.5,-109.5 582.5,-150.5 710.5,-150.5 710.5,-109.5 582.5,-109.5"/>
<text text-anchor="start" x="590.5" y="-138.5" font-family="Helvetica,sans-Serif" font-size="10.00">precice::cplscheme</text>
<text text-anchor="start" x="590.5" y="-127.5" font-family="Helvetica,sans-Serif" font-size="10.00">::BaseCouplingScheme</text>
<text text-anchor="middle" x="646.5" y="-116.5" font-family="Helvetica,sans-Serif" font-size="10.00">::receiveTimes</text>
</a>
</g>
</g>
<!-- Node20&#45;&gt;Node24 -->
<g id="edge36" class="edge">
<title>Node20&#45;&gt;Node24</title>
<path fill="none" stroke="midnightblue" d="M474.41,-240.28C494.69,-217.89 529.69,-182.41 566,-160 568.76,-158.3 571.64,-156.66 574.58,-155.1"/>
<polygon fill="midnightblue" stroke="midnightblue" points="576.2,-158.21 583.6,-150.63 573.09,-151.94 576.2,-158.21"/>
</g>
<!-- Node21&#45;&gt;Node13 -->
<g id="edge33" class="edge">
<title>Node21&#45;&gt;Node13</title>
<path fill="none" stroke="midnightblue" d="M723.52,-281.64C781.76,-280.6 861.3,-279.17 916.8,-278.18"/>
<polygon fill="midnightblue" stroke="midnightblue" points="916.94,-281.67 926.88,-278 916.82,-274.68 916.94,-281.67"/>
</g>
<!-- Node22 -->
<g id="node22" class="node">
<title>Node22</title>
<g id="a_node22"><a xlink:href="classprecice_1_1com_1_1serialize_1_1SerializedStamples.html#a766834ff07b9fc24a575a98c2fc8c382" target="_top" xlink:title=" ">
<polygon fill="white" stroke="black" points="764,-305.5 764,-346.5 890,-346.5 890,-305.5 764,-305.5"/>
<text text-anchor="start" x="772" y="-334.5" font-family="Helvetica,sans-Serif" font-size="10.00">precice::com::serialize</text>
<text text-anchor="start" x="772" y="-323.5" font-family="Helvetica,sans-Serif" font-size="10.00">::SerializedStamples::</text>
<text text-anchor="middle" x="827" y="-312.5" font-family="Helvetica,sans-Serif" font-size="10.00">allocate</text>
</a>
</g>
</g>
<!-- Node21&#45;&gt;Node22 -->
<g id="edge31" class="edge">
<title>Node21&#45;&gt;Node22</title>
<path fill="none" stroke="midnightblue" d="M709.93,-298.04C724.14,-301.46 739.36,-305.13 753.94,-308.64"/>
<polygon fill="midnightblue" stroke="midnightblue" points="753.36,-312.1 763.91,-311.04 755,-305.3 753.36,-312.1"/>
</g>
<!-- Node22&#45;&gt;Node13 -->
<g id="edge32" class="edge">
<title>Node22&#45;&gt;Node13</title>
<path fill="none" stroke="midnightblue" d="M890.4,-306.21C908.15,-300.58 926.99,-294.6 942.98,-289.53"/>
<polygon fill="midnightblue" stroke="midnightblue" points="944.05,-292.87 952.53,-286.51 941.94,-286.19 944.05,-292.87"/>
</g>
<!-- Node25&#45;&gt;Node8 -->
<g id="edge38" class="edge">
<title>Node25&#45;&gt;Node8</title>
<path fill="none" stroke="midnightblue" d="M333.57,-315.14C388.23,-318.87 463.67,-324.1 530,-329 543.64,-330.01 558.18,-331.11 572.18,-332.2"/>
<polygon fill="midnightblue" stroke="midnightblue" points="572.02,-335.69 582.26,-332.98 572.57,-328.72 572.02,-335.69"/>
</g>
<!-- Node25&#45;&gt;Node20 -->
<g id="edge39" class="edge">
<title>Node25&#45;&gt;Node20</title>
<path fill="none" stroke="midnightblue" d="M333.67,-291.06C349.3,-287.17 365.72,-283.08 381.25,-279.22"/>
<polygon fill="midnightblue" stroke="midnightblue" points="382.44,-282.53 391.3,-276.72 380.76,-275.74 382.44,-282.53"/>
</g>
<!-- Node26&#45;&gt;Node11 -->
<g id="edge42" class="edge">
<title>Node26&#45;&gt;Node11</title>
<path fill="none" stroke="midnightblue" d="M320.64,-423.71C336.64,-427.68 354.07,-432.02 370.9,-436.21"/>
<polygon fill="midnightblue" stroke="midnightblue" points="370.18,-439.63 380.73,-438.65 371.87,-432.84 370.18,-439.63"/>
</g>
<!-- Node26&#45;&gt;Node13 -->
<g id="edge41" class="edge">
<title>Node26&#45;&gt;Node13</title>
<path fill="none" stroke="midnightblue" d="M320.6,-413.52C411.15,-420.12 582.94,-427.79 727,-406 802.34,-394.61 824.28,-392.8 891,-356 920.96,-339.47 949.87,-311.96 966.92,-294.15"/>
<polygon fill="midnightblue" stroke="midnightblue" points="969.59,-296.42 973.87,-286.73 964.48,-291.63 969.59,-296.42"/>
</g>
</g>
</svg>
