<?xml version="1.0" encoding="UTF-8" standalone="no"?>
<!DOCTYPE svg PUBLIC "-//W3C//DTD SVG 1.1//EN"
 "http://www.w3.org/Graphics/SVG/1.1/DTD/svg11.dtd">
<!-- Generated by graphviz version 2.43.0 (0)
 -->
<!-- Title: precice::acceleration::impl::ValuePreconditioner::_update_ Pages: 1 -->
<svg width="803pt" height="64pt"
 viewBox="0.00 0.00 803.00 64.00" xmlns="http://www.w3.org/2000/svg" xmlns:xlink="http://www.w3.org/1999/xlink">
<g id="graph0" class="graph" transform="scale(1 1) rotate(0) translate(4 60)">
<title>precice::acceleration::impl::ValuePreconditioner::_update_</title>
<!-- Node1 -->
<g id="Node000001" class="node">
<title>Node1</title>
<g id="a_Node000001"><a xlink:title="Update the scaling after every FSI iteration.">
<polygon fill="#999999" stroke="#666666" points="148,-48 0,-48 0,-7 148,-7 148,-48"/>
<text text-anchor="start" x="8" y="-36" font-family="Helvetica,sans-Serif" font-size="10.00">precice::acceleration</text>
<text text-anchor="start" x="8" y="-25" font-family="Helvetica,sans-Serif" font-size="10.00">::impl::ValuePreconditioner</text>
<text text-anchor="middle" x="74" y="-14" font-family="Helvetica,sans-Serif" font-size="10.00">::_update_</text>
</a>
</g>
</g>
<!-- Node2 -->
<g id="Node000002" class="node">
<title>Node2</title>
<g id="a_Node000002"><a xlink:href="classprecice_1_1utils_1_1IntraComm.html#a2b6ac8a54b0f96edb2e3fe47d3a52d62" target="_top" xlink:title="The l2 norm of a vector is calculated on distributed data.">
<polygon fill="white" stroke="#666666" points="324,-42.5 184,-42.5 184,-12.5 324,-12.5 324,-42.5"/>
<text text-anchor="start" x="192" y="-30.5" font-family="Helvetica,sans-Serif" font-size="10.00">precice::utils::IntraComm</text>
<text text-anchor="middle" x="254" y="-19.5" font-family="Helvetica,sans-Serif" font-size="10.00">::l2norm</text>
</a>
</g>
</g>
<!-- Node1&#45;&gt;Node2 -->
<g id="edge1_Node000001_Node000002" class="edge">
<title>Node1&#45;&gt;Node2</title>
<g id="a_edge1_Node000001_Node000002"><a xlink:title=" ">
<path fill="none" stroke="#63b8ff" d="M148.17,-27.5C156.55,-27.5 165.13,-27.5 173.6,-27.5"/>
<polygon fill="#63b8ff" stroke="#63b8ff" points="173.84,-31 183.84,-27.5 173.84,-24 173.84,-31"/>
</a>
</g>
</g>
<!-- Node3 -->
<g id="Node000003" class="node">
<title>Node3</title>
<g id="a_Node000003"><a xlink:href="classprecice_1_1utils_1_1IntraComm.html#a1181baf395fd7e41bb0f922e3c3334cf" target="_top" xlink:title=" ">
<polygon fill="white" stroke="#666666" points="500,-42.5 360,-42.5 360,-12.5 500,-12.5 500,-42.5"/>
<text text-anchor="start" x="368" y="-30.5" font-family="Helvetica,sans-Serif" font-size="10.00">precice::utils::IntraComm</text>
<text text-anchor="middle" x="430" y="-19.5" font-family="Helvetica,sans-Serif" font-size="10.00">::allreduceSum</text>
</a>
</g>
</g>
<!-- Node2&#45;&gt;Node3 -->
<g id="edge2_Node000002_Node000003" class="edge">
<title>Node2&#45;&gt;Node3</title>
<g id="a_edge2_Node000002_Node000003"><a xlink:title=" ">
<path fill="none" stroke="#63b8ff" d="M324.02,-27.5C332.48,-27.5 341.17,-27.5 349.76,-27.5"/>
<polygon fill="#63b8ff" stroke="#63b8ff" points="349.78,-31 359.78,-27.5 349.78,-24 349.78,-31"/>
</a>
</g>
</g>
<!-- Node4 -->
<g id="Node000004" class="node">
<title>Node4</title>
<g id="a_Node000004"><a xlink:href="classprecice_1_1span.html#ab25ca07a93bfa334622507c2c22b1034" target="_top" xlink:title=" ">
<polygon fill="white" stroke="#666666" points="650,-56 536,-56 536,-37 650,-37 650,-56"/>
<text text-anchor="middle" x="593" y="-44" font-family="Helvetica,sans-Serif" font-size="10.00">precice::span::begin</text>
</a>
</g>
</g>
<!-- Node3&#45;&gt;Node4 -->
<g id="edge3_Node000003_Node000004" class="edge">
<title>Node3&#45;&gt;Node4</title>
<g id="a_edge3_Node000003_Node000004"><a xlink:title=" ">
<path fill="none" stroke="#63b8ff" d="M500.21,-35.67C508.7,-36.67 517.35,-37.69 525.79,-38.69"/>
<polygon fill="#63b8ff" stroke="#63b8ff" points="525.6,-42.19 535.94,-39.88 526.42,-35.24 525.6,-42.19"/>
</a>
</g>
</g>
<!-- Node6 -->
<g id="Node000006" class="node">
<title>Node6</title>
<g id="a_Node000006"><a xlink:href="classprecice_1_1span.html#ab86c14ec7bc7475d3ddb21d400e93121" target="_top" xlink:title=" ">
<polygon fill="white" stroke="#666666" points="645.5,-19 540.5,-19 540.5,0 645.5,0 645.5,-19"/>
<text text-anchor="middle" x="593" y="-7" font-family="Helvetica,sans-Serif" font-size="10.00">precice::span::end</text>
</a>
</g>
</g>
<!-- Node3&#45;&gt;Node6 -->
<g id="edge5_Node000003_Node000006" class="edge">
<title>Node3&#45;&gt;Node6</title>
<g id="a_edge5_Node000003_Node000006"><a xlink:title=" ">
<path fill="none" stroke="#63b8ff" d="M500.21,-19.76C510.21,-18.64 520.44,-17.5 530.27,-16.4"/>
<polygon fill="#63b8ff" stroke="#63b8ff" points="530.8,-19.86 540.35,-15.27 530.03,-12.91 530.8,-19.86"/>
</a>
</g>
</g>
<!-- Node5 -->
<g id="Node000005" class="node">
<title>Node5</title>
<g id="a_Node000005"><a xlink:href="classprecice_1_1span.html#a38fb4273ab189e44dfb475c17e063a9a" target="_top" xlink:title=" ">
<polygon fill="white" stroke="#666666" points="795,-56 686,-56 686,-37 795,-37 795,-56"/>
<text text-anchor="middle" x="740.5" y="-44" font-family="Helvetica,sans-Serif" font-size="10.00">precice::span::data</text>
</a>
</g>
</g>
<!-- Node4&#45;&gt;Node5 -->
<g id="edge4_Node000004_Node000005" class="edge">
<title>Node4&#45;&gt;Node5</title>
<g id="a_edge4_Node000004_Node000005"><a xlink:title=" ">
<path fill="none" stroke="#63b8ff" d="M650.25,-46.5C658.55,-46.5 667.16,-46.5 675.6,-46.5"/>
<polygon fill="#63b8ff" stroke="#63b8ff" points="675.78,-50 685.78,-46.5 675.78,-43 675.78,-50"/>
</a>
</g>
</g>
<!-- Node6&#45;&gt;Node5 -->
<g id="edge6_Node000006_Node000005" class="edge">
<title>Node6&#45;&gt;Node5</title>
<g id="a_edge6_Node000006_Node000005"><a xlink:title=" ">
<path fill="none" stroke="#63b8ff" d="M631.47,-19.03C649.98,-23.74 672.52,-29.47 692.2,-34.47"/>
<polygon fill="#63b8ff" stroke="#63b8ff" points="691.35,-37.87 701.9,-36.94 693.08,-31.08 691.35,-37.87"/>
</a>
</g>
</g>
<!-- Node7 -->
<g id="Node000007" class="node">
<title>Node7</title>
<g id="a_Node000007"><a xlink:href="classprecice_1_1span.html#ae91f5ed50b6cbf0d15382b8e3c2a9a04" target="_top" xlink:title=" ">
<polygon fill="white" stroke="#666666" points="794,-19 687,-19 687,0 794,0 794,-19"/>
<text text-anchor="middle" x="740.5" y="-7" font-family="Helvetica,sans-Serif" font-size="10.00">precice::span::size</text>
</a>
</g>
</g>
<!-- Node6&#45;&gt;Node7 -->
<g id="edge7_Node000006_Node000007" class="edge">
<title>Node6&#45;&gt;Node7</title>
<g id="a_edge7_Node000006_Node000007"><a xlink:title=" ">
<path fill="none" stroke="#63b8ff" d="M645.71,-9.5C655.75,-9.5 666.39,-9.5 676.74,-9.5"/>
<polygon fill="#63b8ff" stroke="#63b8ff" points="676.98,-13 686.98,-9.5 676.98,-6 676.98,-13"/>
</a>
</g>
</g>
</g>
</svg>
