<?xml version="1.0" encoding="UTF-8" standalone="no"?>
<!DOCTYPE svg PUBLIC "-//W3C//DTD SVG 1.1//EN"
 "http://www.w3.org/Graphics/SVG/1.1/DTD/svg11.dtd">
<!-- Generated by graphviz version 2.43.0 (0)
 -->
<!-- Title: precice::partition::ReceivedPartition::compareBoundingBoxes Pages: 1 -->
<!--zoomable 712 -->
<svg id="main" version="1.1" xmlns="http://www.w3.org/2000/svg" xmlns:xlink="http://www.w3.org/1999/xlink" xml:space="preserve" onload="init(evt)">
<style type="text/css"><![CDATA[
.edge:hover path { stroke: red; }
.edge:hover polygon { stroke: red; fill: red; }
]]></style>
<script type="text/javascript"><![CDATA[
var edges = document.getElementsByTagName('g');
if (edges && edges.length) {
  for (var i=0;i<edges.length;i++) {
    if (edges[i].id.substr(0,4)=='edge') {
      edges[i].setAttribute('class','edge');
    }
  }
}
]]></script>
        <defs>
                <circle id="rim" cx="0" cy="0" r="7"/>
                <circle id="rim2" cx="0" cy="0" r="3.5"/>
                <g id="zoomPlus">
                        <use xlink:href="#rim" fill="#404040">
                                <set attributeName="fill" to="#808080" begin="zoomplus.mouseover" end="zoomplus.mouseout"/>
                        </use>
                        <path d="M-4,0h8M0,-4v8" fill="none" stroke="white" stroke-width="1.5" pointer-events="none"/>
                </g>
                <g id="zoomMin">
                        <use xlink:href="#rim" fill="#404040">
                                <set attributeName="fill" to="#808080" begin="zoomminus.mouseover" end="zoomminus.mouseout"/>
                        </use>
                        <path d="M-4,0h8" fill="none" stroke="white" stroke-width="1.5" pointer-events="none"/>
                </g>
                <g id="dirArrow">
                        <path fill="none" stroke="white" stroke-width="1.5" d="M0,-3.0v7 M-2.5,-0.5L0,-3.0L2.5,-0.5"/>
                </g>
               <g id="resetDef">
                       <use xlink:href="#rim2" fill="#404040">
                               <set attributeName="fill" to="#808080" begin="reset.mouseover" end="reset.mouseout"/>
                       </use>
               </g>
        </defs>

<script type="text/javascript">
var viewWidth = 1181;
var viewHeight = 712;
var sectionId = 'dynsection-3';
</script>
<script xlink:href="svgpan.js"/>
<svg id="graph" class="graph">
<g id="viewport">
<title>precice::partition::ReceivedPartition::compareBoundingBoxes</title>
<polygon fill="white" stroke="transparent" points="-4,4 -4,-708 1177,-708 1177,4 -4,4"/>
<!-- Node1 -->
<g id="node1" class="node">
<title>Node1</title>
<g id="a_node1"><a xlink:title="Intersections between bounding boxes around each rank are computed.">
<polygon fill="#bfbfbf" stroke="black" points="0,-288 0,-329 140,-329 140,-288 0,-288"/>
<text text-anchor="start" x="8" y="-317" font-family="Helvetica,sans-Serif" font-size="10.00">precice::partition</text>
<text text-anchor="start" x="8" y="-306" font-family="Helvetica,sans-Serif" font-size="10.00">::ReceivedPartition</text>
<text text-anchor="middle" x="70" y="-295" font-family="Helvetica,sans-Serif" font-size="10.00">::compareBoundingBoxes</text>
</a>
</g>
</g>
<!-- Node2 -->
<g id="node2" class="node">
<title>Node2</title>
<g id="a_node2"><a xlink:href="classprecice_1_1utils_1_1IntraComm.html#a557db722e7bfe5d237d0e7ed51851a44" target="_top" xlink:title="Returns an iterable range over salve ranks [1, _size)">
<polygon fill="white" stroke="black" points="198,-561.5 198,-591.5 338,-591.5 338,-561.5 198,-561.5"/>
<text text-anchor="start" x="206" y="-579.5" font-family="Helvetica,sans-Serif" font-size="10.00">precice::utils::IntraComm</text>
<text text-anchor="middle" x="268" y="-568.5" font-family="Helvetica,sans-Serif" font-size="10.00">::allSecondaryRanks</text>
</a>
</g>
</g>
<!-- Node1&#45;&gt;Node2 -->
<g id="edge1" class="edge">
<title>Node1&#45;&gt;Node2</title>
<path fill="none" stroke="midnightblue" d="M73.73,-329.07C81.09,-376.08 105.77,-492 176,-552.5 179.75,-555.73 183.88,-558.53 188.26,-560.96"/>
<polygon fill="midnightblue" stroke="midnightblue" points="187.01,-564.24 197.54,-565.44 190.06,-557.94 187.01,-564.24"/>
</g>
<!-- Node3 -->
<g id="node3" class="node">
<title>Node3</title>
<g id="a_node3"><a xlink:href="namespaceprecice_1_1com.html#a16226a0a659a4be34d9d7ea4d723fe1b" target="_top" xlink:title=" ">
<polygon fill="white" stroke="black" points="182,-452.5 182,-482.5 354,-482.5 354,-452.5 182,-452.5"/>
<text text-anchor="start" x="190" y="-470.5" font-family="Helvetica,sans-Serif" font-size="10.00">precice::com::broadcastReceive</text>
<text text-anchor="middle" x="268" y="-459.5" font-family="Helvetica,sans-Serif" font-size="10.00">BoundingBoxMap</text>
</a>
</g>
</g>
<!-- Node1&#45;&gt;Node3 -->
<g id="edge2" class="edge">
<title>Node1&#45;&gt;Node3</title>
<path fill="none" stroke="midnightblue" d="M81.48,-329.34C97.61,-359.27 131.41,-414.04 176,-443.5 178.43,-445.1 180.96,-446.6 183.57,-448"/>
<polygon fill="midnightblue" stroke="midnightblue" points="182.16,-451.21 192.69,-452.37 185.19,-444.89 182.16,-451.21"/>
</g>
<!-- Node14 -->
<g id="node14" class="node">
<title>Node14</title>
<g id="a_node14"><a xlink:href="namespaceprecice_1_1com.html#a81b9d18289e73b2f9f2600f63bbc2c9f" target="_top" xlink:title=" ">
<polygon fill="white" stroke="black" points="189.5,-512.5 189.5,-542.5 346.5,-542.5 346.5,-512.5 189.5,-512.5"/>
<text text-anchor="start" x="197.5" y="-530.5" font-family="Helvetica,sans-Serif" font-size="10.00">precice::com::broadcastSend</text>
<text text-anchor="middle" x="268" y="-519.5" font-family="Helvetica,sans-Serif" font-size="10.00">BoundingBoxMap</text>
</a>
</g>
</g>
<!-- Node1&#45;&gt;Node14 -->
<g id="edge14" class="edge">
<title>Node1&#45;&gt;Node14</title>
<path fill="none" stroke="midnightblue" d="M77.56,-329.21C90.49,-366.83 122.71,-446.72 176,-492.5 183.24,-498.72 191.71,-503.9 200.51,-508.19"/>
<polygon fill="midnightblue" stroke="midnightblue" points="199.22,-511.45 209.77,-512.36 202.09,-505.06 199.22,-511.45"/>
</g>
<!-- Node17 -->
<g id="node17" class="node">
<title>Node17</title>
<g id="a_node17"><a xlink:href="classprecice_1_1utils_1_1IntraComm.html#a7daafddc884c6dc168e2add48733cde4" target="_top" xlink:title="Intra&#45;participant communication.">
<polygon fill="white" stroke="black" points="198,-315.5 198,-345.5 338,-345.5 338,-315.5 198,-315.5"/>
<text text-anchor="start" x="206" y="-333.5" font-family="Helvetica,sans-Serif" font-size="10.00">precice::utils::IntraComm</text>
<text text-anchor="middle" x="268" y="-322.5" font-family="Helvetica,sans-Serif" font-size="10.00">::getCommunication</text>
</a>
</g>
</g>
<!-- Node1&#45;&gt;Node17 -->
<g id="edge20" class="edge">
<title>Node1&#45;&gt;Node17</title>
<path fill="none" stroke="midnightblue" d="M140.1,-316.26C155.47,-317.98 171.88,-319.82 187.63,-321.59"/>
<polygon fill="midnightblue" stroke="midnightblue" points="187.53,-325.1 197.86,-322.74 188.31,-318.15 187.53,-325.1"/>
</g>
<!-- Node18 -->
<g id="node18" class="node">
<title>Node18</title>
<g id="a_node18"><a xlink:href="classprecice_1_1m2n_1_1M2N.html#a882b2d2e18f055562809030586aa9a2c" target="_top" xlink:title="Get the basic communication between the 2 primary ranks.">
<polygon fill="white" stroke="black" points="181.5,-227.5 181.5,-257.5 354.5,-257.5 354.5,-227.5 181.5,-227.5"/>
<text text-anchor="start" x="189.5" y="-245.5" font-family="Helvetica,sans-Serif" font-size="10.00">precice::m2n::M2N::</text>
<text text-anchor="middle" x="268" y="-234.5" font-family="Helvetica,sans-Serif" font-size="10.00">getPrimaryRankCommunication</text>
</a>
</g>
</g>
<!-- Node1&#45;&gt;Node18 -->
<g id="edge21" class="edge">
<title>Node1&#45;&gt;Node18</title>
<path fill="none" stroke="midnightblue" d="M130.65,-287.91C145.46,-282.84 161.3,-277.44 176,-272.5 187.46,-268.65 199.74,-264.57 211.46,-260.69"/>
<polygon fill="midnightblue" stroke="midnightblue" points="212.74,-263.96 221.14,-257.5 210.54,-257.31 212.74,-263.96"/>
</g>
<!-- Node19 -->
<g id="node19" class="node">
<title>Node19</title>
<g id="a_node19"><a xlink:href="classprecice_1_1utils_1_1IntraComm.html#abde303b11e46851ae65dca65ef06daad" target="_top" xlink:title="True if this process is running a secondary rank.">
<polygon fill="white" stroke="black" points="414,-234.5 414,-264.5 554,-264.5 554,-234.5 414,-234.5"/>
<text text-anchor="start" x="422" y="-252.5" font-family="Helvetica,sans-Serif" font-size="10.00">precice::utils::IntraComm</text>
<text text-anchor="middle" x="484" y="-241.5" font-family="Helvetica,sans-Serif" font-size="10.00">::isSecondary</text>
</a>
</g>
</g>
<!-- Node1&#45;&gt;Node19 -->
<g id="edge24" class="edge">
<title>Node1&#45;&gt;Node19</title>
<path fill="none" stroke="midnightblue" d="M140.21,-298.77C198.76,-290.51 284.89,-278.32 360,-267.5 374.14,-265.46 389.2,-263.27 403.75,-261.15"/>
<polygon fill="midnightblue" stroke="midnightblue" points="404.34,-264.6 413.73,-259.69 403.33,-257.67 404.34,-264.6"/>
</g>
<!-- Node20 -->
<g id="node20" class="node">
<title>Node20</title>
<g id="a_node20"><a xlink:href="classprecice_1_1utils_1_1IntraComm.html#a3e69605ac1a3f9f8c82471ba52624f5d" target="_top" xlink:title="True if this process is running the primary rank.">
<polygon fill="white" stroke="black" points="414,-183.5 414,-213.5 554,-213.5 554,-183.5 414,-183.5"/>
<text text-anchor="start" x="422" y="-201.5" font-family="Helvetica,sans-Serif" font-size="10.00">precice::utils::IntraComm</text>
<text text-anchor="middle" x="484" y="-190.5" font-family="Helvetica,sans-Serif" font-size="10.00">::isPrimary</text>
</a>
</g>
</g>
<!-- Node1&#45;&gt;Node20 -->
<g id="edge23" class="edge">
<title>Node1&#45;&gt;Node20</title>
<path fill="none" stroke="midnightblue" d="M87.81,-287.74C106.7,-266.11 139.53,-233.35 176,-218.5 249.01,-188.76 339.89,-186.66 403.76,-190.22"/>
<polygon fill="midnightblue" stroke="midnightblue" points="403.57,-193.72 413.77,-190.84 404,-186.73 403.57,-193.72"/>
</g>
<!-- Node21 -->
<g id="node21" class="node">
<title>Node21</title>
<g id="a_node21"><a xlink:href="classprecice_1_1partition_1_1ReceivedPartition.html#a69b23d89ee3c0128d6a4b3979a9e9134" target="_top" xlink:title="return the one m2n, a ReceivedPartition can only have one m2n">
<polygon fill="white" stroke="black" points="200,-79.5 200,-109.5 336,-109.5 336,-79.5 200,-79.5"/>
<text text-anchor="start" x="208" y="-97.5" font-family="Helvetica,sans-Serif" font-size="10.00">precice::partition</text>
<text text-anchor="middle" x="268" y="-86.5" font-family="Helvetica,sans-Serif" font-size="10.00">::ReceivedPartition::m2n</text>
</a>
</g>
</g>
<!-- Node1&#45;&gt;Node21 -->
<g id="edge25" class="edge">
<title>Node1&#45;&gt;Node21</title>
<path fill="none" stroke="midnightblue" d="M76.6,-287.93C88.28,-248.95 119.03,-164.25 176,-119.5 180.43,-116.02 185.31,-113.03 190.44,-110.45"/>
<polygon fill="midnightblue" stroke="midnightblue" points="192.19,-113.5 199.9,-106.24 189.34,-107.1 192.19,-113.5"/>
</g>
<!-- Node22 -->
<g id="node22" class="node">
<title>Node22</title>
<g id="a_node22"><a xlink:href="classprecice_1_1mesh_1_1BoundingBox.html#aa5c5aa0d10a04eceb8aed382ad598bb9" target="_top" xlink:title="Checks whether two bounding boxes are overlapping.">
<polygon fill="white" stroke="black" points="190.5,-30.5 190.5,-60.5 345.5,-60.5 345.5,-30.5 190.5,-30.5"/>
<text text-anchor="start" x="198.5" y="-48.5" font-family="Helvetica,sans-Serif" font-size="10.00">precice::mesh::BoundingBox</text>
<text text-anchor="middle" x="268" y="-37.5" font-family="Helvetica,sans-Serif" font-size="10.00">::overlapping</text>
</a>
</g>
</g>
<!-- Node1&#45;&gt;Node22 -->
<g id="edge26" class="edge">
<title>Node1&#45;&gt;Node22</title>
<path fill="none" stroke="midnightblue" d="M73.93,-288C81.65,-241.71 106.93,-128.55 176,-69.5 177.77,-67.99 179.62,-66.57 181.54,-65.25"/>
<polygon fill="midnightblue" stroke="midnightblue" points="183.57,-68.11 190.36,-59.97 179.98,-62.1 183.57,-68.11"/>
</g>
<!-- Node23 -->
<g id="node23" class="node">
<title>Node23</title>
<g id="a_node23"><a xlink:href="classprecice_1_1partition_1_1ReceivedPartition.html#a11e0569cee2a123b5af63d4b15e19fb0" target="_top" xlink:title="Sets _bb to the union with the mesh from fromMapping resp. toMapping, also enlage by _safetyFactor.">
<polygon fill="white" stroke="black" points="205.5,-129 205.5,-170 330.5,-170 330.5,-129 205.5,-129"/>
<text text-anchor="start" x="213.5" y="-158" font-family="Helvetica,sans-Serif" font-size="10.00">precice::partition</text>
<text text-anchor="start" x="213.5" y="-147" font-family="Helvetica,sans-Serif" font-size="10.00">::ReceivedPartition</text>
<text text-anchor="middle" x="268" y="-136" font-family="Helvetica,sans-Serif" font-size="10.00">::prepareBoundingBox</text>
</a>
</g>
</g>
<!-- Node1&#45;&gt;Node23 -->
<g id="edge27" class="edge">
<title>Node1&#45;&gt;Node23</title>
<path fill="none" stroke="midnightblue" d="M83.8,-287.7C101.47,-260.54 135.76,-213.09 176,-184.5 182.07,-180.19 188.74,-176.32 195.63,-172.88"/>
<polygon fill="midnightblue" stroke="midnightblue" points="197.54,-175.85 205.12,-168.44 194.58,-169.51 197.54,-175.85"/>
</g>
<!-- Node30 -->
<g id="node30" class="node">
<title>Node30</title>
<g id="a_node30"><a xlink:href="namespaceprecice_1_1com.html#a116f04308b40fb021c95f3b55c5a0b43" target="_top" xlink:title=" ">
<polygon fill="white" stroke="black" points="184.5,-403.5 184.5,-433.5 351.5,-433.5 351.5,-403.5 184.5,-403.5"/>
<text text-anchor="start" x="192.5" y="-421.5" font-family="Helvetica,sans-Serif" font-size="10.00">precice::com::receiveBounding</text>
<text text-anchor="middle" x="268" y="-410.5" font-family="Helvetica,sans-Serif" font-size="10.00">BoxMap</text>
</a>
</g>
</g>
<!-- Node1&#45;&gt;Node30 -->
<g id="edge35" class="edge">
<title>Node1&#45;&gt;Node30</title>
<path fill="none" stroke="midnightblue" d="M91.27,-329.26C111.17,-348.52 143.24,-376.68 176,-393.5 180.53,-395.83 185.3,-397.95 190.19,-399.9"/>
<polygon fill="midnightblue" stroke="midnightblue" points="189.1,-403.23 199.7,-403.42 191.53,-396.67 189.1,-403.23"/>
</g>
<!-- Node34 -->
<g id="node34" class="node">
<title>Node34</title>
<g id="a_node34"><a xlink:href="namespaceprecice_1_1com.html#a53c390d9dc1f8b740172f5a05bddf35c" target="_top" xlink:title=" ">
<polygon fill="white" stroke="black" points="176,-365 176,-384 360,-384 360,-365 176,-365"/>
<text text-anchor="middle" x="268" y="-372" font-family="Helvetica,sans-Serif" font-size="10.00">precice::com::sendConnectionMap</text>
</a>
</g>
</g>
<!-- Node1&#45;&gt;Node34 -->
<g id="edge42" class="edge">
<title>Node1&#45;&gt;Node34</title>
<path fill="none" stroke="midnightblue" d="M111.34,-329.01C130.54,-338.13 154.06,-348.39 176,-355.5 184.25,-358.17 193.06,-360.56 201.81,-362.67"/>
<polygon fill="midnightblue" stroke="midnightblue" points="201.11,-366.1 211.64,-364.93 202.68,-359.28 201.11,-366.1"/>
</g>
<!-- Node4 -->
<g id="node4" class="node">
<title>Node4</title>
<g id="a_node4"><a xlink:href="classprecice_1_1com_1_1serialize_1_1SerializedBoundingBoxMap.html#a1e26d42865e33b9cfd5c31509b953d2b" target="_top" xlink:title="receives a SerializedBoundingBoxMap and calls assertValid before returning">
<polygon fill="white" stroke="black" points="406,-577 406,-618 562,-618 562,-577 406,-577"/>
<text text-anchor="start" x="414" y="-606" font-family="Helvetica,sans-Serif" font-size="10.00">precice::com::serialize</text>
<text text-anchor="start" x="414" y="-595" font-family="Helvetica,sans-Serif" font-size="10.00">::SerializedBoundingBoxMap</text>
<text text-anchor="middle" x="484" y="-584" font-family="Helvetica,sans-Serif" font-size="10.00">::broadcastReceive</text>
</a>
</g>
</g>
<!-- Node3&#45;&gt;Node4 -->
<g id="edge3" class="edge">
<title>Node3&#45;&gt;Node4</title>
<path fill="none" stroke="midnightblue" d="M324.85,-482.67C337.35,-487.87 349.89,-494.67 360,-503.5 384.59,-524.96 370.94,-546.59 396,-567.5 397.56,-568.8 399.19,-570.05 400.86,-571.25"/>
<polygon fill="midnightblue" stroke="midnightblue" points="399.29,-574.4 409.61,-576.8 403.04,-568.48 399.29,-574.4"/>
</g>
<!-- Node12 -->
<g id="node12" class="node">
<title>Node12</title>
<g id="a_node12"><a xlink:href="classprecice_1_1com_1_1serialize_1_1SerializedBoundingBoxMap.html#a9d0479f1682e2c5961fcdcd65b26175c" target="_top" xlink:title="Builds and returns the BoundingBoxMap represented by the serialized state.">
<polygon fill="white" stroke="black" points="406,-397 406,-438 562,-438 562,-397 406,-397"/>
<text text-anchor="start" x="414" y="-426" font-family="Helvetica,sans-Serif" font-size="10.00">precice::com::serialize</text>
<text text-anchor="start" x="414" y="-415" font-family="Helvetica,sans-Serif" font-size="10.00">::SerializedBoundingBoxMap</text>
<text text-anchor="middle" x="484" y="-404" font-family="Helvetica,sans-Serif" font-size="10.00">::toBoundingBoxMap</text>
</a>
</g>
</g>
<!-- Node3&#45;&gt;Node12 -->
<g id="edge12" class="edge">
<title>Node3&#45;&gt;Node12</title>
<path fill="none" stroke="midnightblue" d="M333.21,-452.5C352.87,-447.9 374.84,-442.77 395.77,-437.88"/>
<polygon fill="midnightblue" stroke="midnightblue" points="396.67,-441.26 405.62,-435.58 395.08,-434.45 396.67,-441.26"/>
</g>
<!-- Node5 -->
<g id="node5" class="node">
<title>Node5</title>
<g id="a_node5"><a xlink:href="classprecice_1_1com_1_1serialize_1_1SerializedBoundingBoxMap.html#ac5da435f4595d1f171d688a7b260c0ea" target="_top" xlink:title="asserts the content for correctness">
<polygon fill="white" stroke="black" points="611,-490 611,-531 767,-531 767,-490 611,-490"/>
<text text-anchor="start" x="619" y="-519" font-family="Helvetica,sans-Serif" font-size="10.00">precice::com::serialize</text>
<text text-anchor="start" x="619" y="-508" font-family="Helvetica,sans-Serif" font-size="10.00">::SerializedBoundingBoxMap</text>
<text text-anchor="middle" x="689" y="-497" font-family="Helvetica,sans-Serif" font-size="10.00">::assertValid</text>
</a>
</g>
</g>
<!-- Node4&#45;&gt;Node5 -->
<g id="edge4" class="edge">
<title>Node4&#45;&gt;Node5</title>
<path fill="none" stroke="midnightblue" d="M547.61,-576.96C555.87,-573.95 564.18,-570.75 572,-567.5 594.73,-558.04 619.27,-546.22 639.91,-535.8"/>
<polygon fill="midnightblue" stroke="midnightblue" points="641.77,-538.78 649.1,-531.13 638.6,-532.54 641.77,-538.78"/>
</g>
<!-- Node6 -->
<g id="node6" class="node">
<title>Node6</title>
<g id="a_node6"><a xlink:href="classprecice_1_1com_1_1Communication.html#af30b8fdbac93d60e7a54f0e67e5aeb53" target="_top" xlink:title=" ">
<polygon fill="white" stroke="black" points="608,-588.5 608,-618.5 770,-618.5 770,-588.5 608,-588.5"/>
<text text-anchor="start" x="616" y="-606.5" font-family="Helvetica,sans-Serif" font-size="10.00">precice::com::Communication</text>
<text text-anchor="middle" x="689" y="-595.5" font-family="Helvetica,sans-Serif" font-size="10.00">::broadcast</text>
</a>
</g>
</g>
<!-- Node4&#45;&gt;Node6 -->
<g id="edge5" class="edge">
<title>Node4&#45;&gt;Node6</title>
<path fill="none" stroke="midnightblue" d="M562.04,-599.78C573.78,-600.12 585.98,-600.48 597.97,-600.84"/>
<polygon fill="midnightblue" stroke="midnightblue" points="597.88,-604.34 607.98,-601.13 598.09,-597.34 597.88,-604.34"/>
</g>
<!-- Node7 -->
<g id="node7" class="node">
<title>Node7</title>
<g id="a_node7"><a xlink:href="classprecice_1_1com_1_1Communication.html#a1c988cdf4b433bc63b4b876dba5324fb" target="_top" xlink:title=" ">
<polygon fill="white" stroke="black" points="806,-673.5 806,-703.5 968,-703.5 968,-673.5 806,-673.5"/>
<text text-anchor="start" x="814" y="-691.5" font-family="Helvetica,sans-Serif" font-size="10.00">precice::com::Communication</text>
<text text-anchor="middle" x="887" y="-680.5" font-family="Helvetica,sans-Serif" font-size="10.00">::aSend</text>
</a>
</g>
</g>
<!-- Node6&#45;&gt;Node7 -->
<g id="edge6" class="edge">
<title>Node6&#45;&gt;Node7</title>
<path fill="none" stroke="midnightblue" d="M720.21,-618.68C743.44,-630.14 776.45,-645.98 806,-658.5 815.12,-662.36 824.92,-666.25 834.43,-669.89"/>
<polygon fill="midnightblue" stroke="midnightblue" points="833.21,-673.17 843.8,-673.43 835.69,-666.62 833.21,-673.17"/>
</g>
<!-- Node8 -->
<g id="node8" class="node">
<title>Node8</title>
<g id="a_node8"><a xlink:href="classprecice_1_1com_1_1Communication.html#a5319067292ba3f7979d92a72f9298f80" target="_top" xlink:title="Returns the number of processes in the remote communicator.">
<polygon fill="white" stroke="black" points="1004,-607.5 1004,-637.5 1173,-637.5 1173,-607.5 1004,-607.5"/>
<text text-anchor="start" x="1012" y="-625.5" font-family="Helvetica,sans-Serif" font-size="10.00">precice::com::Communication</text>
<text text-anchor="middle" x="1088.5" y="-614.5" font-family="Helvetica,sans-Serif" font-size="10.00">::getRemoteCommunicatorSize</text>
</a>
</g>
</g>
<!-- Node6&#45;&gt;Node8 -->
<g id="edge7" class="edge">
<title>Node6&#45;&gt;Node8</title>
<path fill="none" stroke="midnightblue" d="M757.47,-618.5C773.31,-621.41 790.18,-624.01 806,-625.5 868.41,-631.37 938.95,-630.6 993.81,-628.38"/>
<polygon fill="midnightblue" stroke="midnightblue" points="994.02,-631.87 1003.86,-627.95 993.72,-624.88 994.02,-631.87"/>
</g>
<!-- Node9 -->
<g id="node9" class="node">
<title>Node9</title>
<g id="a_node9"><a xlink:href="classprecice_1_1com_1_1Communication.html#a31587a46cf1d04c93c3082979598276a" target="_top" xlink:title="Returns a range over all valid remote ranks.">
<polygon fill="white" stroke="black" points="806,-585.5 806,-615.5 968,-615.5 968,-585.5 806,-585.5"/>
<text text-anchor="start" x="814" y="-603.5" font-family="Helvetica,sans-Serif" font-size="10.00">precice::com::Communication</text>
<text text-anchor="middle" x="887" y="-592.5" font-family="Helvetica,sans-Serif" font-size="10.00">::remoteCommunicatorRanks</text>
</a>
</g>
</g>
<!-- Node6&#45;&gt;Node9 -->
<g id="edge8" class="edge">
<title>Node6&#45;&gt;Node9</title>
<path fill="none" stroke="midnightblue" d="M770,-602.28C778.52,-602.15 787.23,-602.01 795.86,-601.88"/>
<polygon fill="midnightblue" stroke="midnightblue" points="795.99,-605.38 805.93,-601.73 795.88,-598.38 795.99,-605.38"/>
</g>
<!-- Node10 -->
<g id="node10" class="node">
<title>Node10</title>
<g id="a_node10"><a xlink:href="classprecice_1_1span.html#a47dd9f5471352ea4105ab001836273ee" target="_top" xlink:title=" ">
<polygon fill="white" stroke="black" points="833.5,-495 833.5,-514 940.5,-514 940.5,-495 833.5,-495"/>
<text text-anchor="middle" x="887" y="-502" font-family="Helvetica,sans-Serif" font-size="10.00">precice::span::size</text>
</a>
</g>
</g>
<!-- Node6&#45;&gt;Node10 -->
<g id="edge10" class="edge">
<title>Node6&#45;&gt;Node10</title>
<path fill="none" stroke="midnightblue" d="M742.91,-588.38C752.41,-584.38 761.87,-579.46 770,-573.5 790.93,-558.15 784.48,-542.02 806,-527.5 811.8,-523.59 818.26,-520.34 824.93,-517.63"/>
<polygon fill="midnightblue" stroke="midnightblue" points="826.59,-520.75 834.79,-514.05 824.2,-514.17 826.59,-520.75"/>
</g>
<!-- Node11 -->
<g id="node11" class="node">
<title>Node11</title>
<g id="a_node11"><a xlink:href="classprecice_1_1com_1_1Request.html#ad07792939dd8a5e4e23791e21aeacff0" target="_top" xlink:title=" ">
<polygon fill="white" stroke="black" points="824.5,-536.5 824.5,-566.5 949.5,-566.5 949.5,-536.5 824.5,-536.5"/>
<text text-anchor="start" x="832.5" y="-554.5" font-family="Helvetica,sans-Serif" font-size="10.00">precice::com::Request</text>
<text text-anchor="middle" x="887" y="-543.5" font-family="Helvetica,sans-Serif" font-size="10.00">::wait</text>
</a>
</g>
</g>
<!-- Node6&#45;&gt;Node11 -->
<g id="edge11" class="edge">
<title>Node6&#45;&gt;Node11</title>
<path fill="none" stroke="midnightblue" d="M746.69,-588.46C769.44,-582.42 795.83,-575.42 819.49,-569.15"/>
<polygon fill="midnightblue" stroke="midnightblue" points="820.67,-572.45 829.44,-566.51 818.87,-565.69 820.67,-572.45"/>
</g>
<!-- Node9&#45;&gt;Node8 -->
<g id="edge9" class="edge">
<title>Node9&#45;&gt;Node8</title>
<path fill="none" stroke="midnightblue" d="M968.28,-609.35C976.69,-610.28 985.28,-611.23 993.82,-612.17"/>
<polygon fill="midnightblue" stroke="midnightblue" points="993.48,-615.65 1003.8,-613.27 994.24,-608.69 993.48,-615.65"/>
</g>
<!-- Node13 -->
<g id="node13" class="node">
<title>Node13</title>
<g id="a_node13"><a xlink:href="namespaceprecice_1_1detail.html#a99f20f73c4a3c34d08429ac0fea564ef" target="_top" xlink:title=" ">
<polygon fill="white" stroke="black" points="831.5,-402 831.5,-421 942.5,-421 942.5,-402 831.5,-402"/>
<text text-anchor="middle" x="887" y="-409" font-family="Helvetica,sans-Serif" font-size="10.00">precice::detail::size</text>
</a>
</g>
</g>
<!-- Node12&#45;&gt;Node13 -->
<g id="edge13" class="edge">
<title>Node12&#45;&gt;Node13</title>
<path fill="none" stroke="midnightblue" d="M562.32,-416.34C637.59,-415.22 750.68,-413.52 821.32,-412.47"/>
<polygon fill="midnightblue" stroke="midnightblue" points="821.48,-415.97 831.42,-412.32 821.37,-408.97 821.48,-415.97"/>
</g>
<!-- Node15 -->
<g id="node15" class="node">
<title>Node15</title>
<g id="a_node15"><a xlink:href="classprecice_1_1com_1_1serialize_1_1SerializedBoundingBoxMap.html#a8d0d1b8d70d34858da6fea6bd89b9c5d" target="_top" xlink:title=" ">
<polygon fill="white" stroke="black" points="406,-637 406,-678 562,-678 562,-637 406,-637"/>
<text text-anchor="start" x="414" y="-666" font-family="Helvetica,sans-Serif" font-size="10.00">precice::com::serialize</text>
<text text-anchor="start" x="414" y="-655" font-family="Helvetica,sans-Serif" font-size="10.00">::SerializedBoundingBoxMap</text>
<text text-anchor="middle" x="484" y="-644" font-family="Helvetica,sans-Serif" font-size="10.00">::broadcastSend</text>
</a>
</g>
</g>
<!-- Node14&#45;&gt;Node15 -->
<g id="edge15" class="edge">
<title>Node14&#45;&gt;Node15</title>
<path fill="none" stroke="midnightblue" d="M344.63,-542.55C350.14,-545.33 355.35,-548.61 360,-552.5 388.38,-576.2 368.39,-602.91 396,-627.5 397.48,-628.82 399.01,-630.07 400.6,-631.28"/>
<polygon fill="midnightblue" stroke="midnightblue" points="398.67,-634.2 408.93,-636.85 402.56,-628.38 398.67,-634.2"/>
</g>
<!-- Node16 -->
<g id="node16" class="node">
<title>Node16</title>
<g id="a_node16"><a xlink:href="classprecice_1_1com_1_1serialize_1_1SerializedBoundingBoxMap.html#ab7f027453bd961dcd9a1e9d163a720d4" target="_top" xlink:title=" ">
<polygon fill="white" stroke="black" points="406,-517 406,-558 562,-558 562,-517 406,-517"/>
<text text-anchor="start" x="414" y="-546" font-family="Helvetica,sans-Serif" font-size="10.00">precice::com::serialize</text>
<text text-anchor="start" x="414" y="-535" font-family="Helvetica,sans-Serif" font-size="10.00">::SerializedBoundingBoxMap</text>
<text text-anchor="middle" x="484" y="-524" font-family="Helvetica,sans-Serif" font-size="10.00">::serialize</text>
</a>
</g>
</g>
<!-- Node14&#45;&gt;Node16 -->
<g id="edge17" class="edge">
<title>Node14&#45;&gt;Node16</title>
<path fill="none" stroke="midnightblue" d="M346.56,-531.12C362.51,-531.87 379.4,-532.66 395.67,-533.42"/>
<polygon fill="midnightblue" stroke="midnightblue" points="395.55,-536.92 405.7,-533.89 395.88,-529.92 395.55,-536.92"/>
</g>
<!-- Node15&#45;&gt;Node6 -->
<g id="edge16" class="edge">
<title>Node15&#45;&gt;Node6</title>
<path fill="none" stroke="midnightblue" d="M562.04,-637.01C581.71,-631.77 602.69,-626.19 621.77,-621.12"/>
<polygon fill="midnightblue" stroke="midnightblue" points="622.8,-624.47 631.56,-618.51 621,-617.7 622.8,-624.47"/>
</g>
<!-- Node16&#45;&gt;Node5 -->
<g id="edge18" class="edge">
<title>Node16&#45;&gt;Node5</title>
<path fill="none" stroke="midnightblue" d="M562.04,-527.25C574.6,-525.58 587.7,-523.84 600.5,-522.14"/>
<polygon fill="midnightblue" stroke="midnightblue" points="601.23,-525.57 610.68,-520.78 600.31,-518.63 601.23,-525.57"/>
</g>
<!-- Node16&#45;&gt;Node13 -->
<g id="edge19" class="edge">
<title>Node16&#45;&gt;Node13</title>
<path fill="none" stroke="midnightblue" d="M548.11,-558.02C610.55,-574.11 705.84,-586.88 770,-540.5 811.35,-510.61 768.61,-466.22 806,-431.5 810.68,-427.15 816.16,-423.71 822.02,-421"/>
<polygon fill="midnightblue" stroke="midnightblue" points="823.44,-424.2 831.48,-417.3 820.89,-417.68 823.44,-424.2"/>
</g>
<!-- Node18&#45;&gt;Node19 -->
<g id="edge22" class="edge">
<title>Node18&#45;&gt;Node19</title>
<path fill="none" stroke="midnightblue" d="M354.5,-245.3C370.64,-245.82 387.46,-246.37 403.41,-246.9"/>
<polygon fill="midnightblue" stroke="midnightblue" points="403.64,-250.41 413.75,-247.23 403.87,-243.41 403.64,-250.41"/>
</g>
<!-- Node23&#45;&gt;Node20 -->
<g id="edge31" class="edge">
<title>Node23&#45;&gt;Node20</title>
<path fill="none" stroke="midnightblue" d="M330.61,-163.61C354.59,-169.1 382.31,-175.44 407.47,-181.21"/>
<polygon fill="midnightblue" stroke="midnightblue" points="406.82,-184.65 417.35,-183.47 408.38,-177.82 406.82,-184.65"/>
</g>
<!-- Node24 -->
<g id="node24" class="node">
<title>Node24</title>
<g id="a_node24"><a xlink:href="classprecice_1_1mesh_1_1BoundingBox.html#a7aeb328ca8291253c4fd22d0d4cb0a18" target="_top" xlink:title="Expand bounding box using another bounding box.">
<polygon fill="white" stroke="black" points="406.5,-134.5 406.5,-164.5 561.5,-164.5 561.5,-134.5 406.5,-134.5"/>
<text text-anchor="start" x="414.5" y="-152.5" font-family="Helvetica,sans-Serif" font-size="10.00">precice::mesh::BoundingBox</text>
<text text-anchor="middle" x="484" y="-141.5" font-family="Helvetica,sans-Serif" font-size="10.00">::expandBy</text>
</a>
</g>
</g>
<!-- Node23&#45;&gt;Node24 -->
<g id="edge28" class="edge">
<title>Node23&#45;&gt;Node24</title>
<path fill="none" stroke="midnightblue" d="M330.61,-149.5C351.06,-149.5 374.23,-149.5 396.22,-149.5"/>
<polygon fill="midnightblue" stroke="midnightblue" points="396.22,-153 406.22,-149.5 396.22,-146 396.22,-153"/>
</g>
<!-- Node26 -->
<g id="node26" class="node">
<title>Node26</title>
<g id="a_node26"><a xlink:href="classprecice_1_1partition_1_1ReceivedPartition.html#a5853d21d71e146e0d7e01f42718535a7" target="_top" xlink:title="Returns whether any mapping is defined.">
<polygon fill="white" stroke="black" points="430,-74 430,-115 538,-115 538,-74 430,-74"/>
<text text-anchor="start" x="438" y="-103" font-family="Helvetica,sans-Serif" font-size="10.00">precice::partition</text>
<text text-anchor="start" x="438" y="-92" font-family="Helvetica,sans-Serif" font-size="10.00">::ReceivedPartition</text>
<text text-anchor="middle" x="484" y="-81" font-family="Helvetica,sans-Serif" font-size="10.00">::hasAnyMapping</text>
</a>
</g>
</g>
<!-- Node23&#45;&gt;Node26 -->
<g id="edge30" class="edge">
<title>Node23&#45;&gt;Node26</title>
<path fill="none" stroke="midnightblue" d="M330.61,-133.67C358.67,-126.46 391.83,-117.93 420.05,-110.68"/>
<polygon fill="midnightblue" stroke="midnightblue" points="420.99,-114.05 429.8,-108.17 419.25,-107.27 420.99,-114.05"/>
</g>
<!-- Node27 -->
<g id="node27" class="node">
<title>Node27</title>
<g id="a_node27"><a xlink:href="classprecice_1_1mesh_1_1BoundingBox.html#adea1f81626a574ad0cb5d794cee8b1f6" target="_top" xlink:title="Increase the size of bounding box by safety margin.">
<polygon fill="white" stroke="black" points="406.5,-24.5 406.5,-54.5 561.5,-54.5 561.5,-24.5 406.5,-24.5"/>
<text text-anchor="start" x="414.5" y="-42.5" font-family="Helvetica,sans-Serif" font-size="10.00">precice::mesh::BoundingBox</text>
<text text-anchor="middle" x="484" y="-31.5" font-family="Helvetica,sans-Serif" font-size="10.00">::scaleBy</text>
</a>
</g>
</g>
<!-- Node23&#45;&gt;Node27 -->
<g id="edge32" class="edge">
<title>Node23&#45;&gt;Node27</title>
<path fill="none" stroke="midnightblue" d="M330.54,-134.72C340.99,-130.53 351.27,-125.22 360,-118.5 382.87,-100.92 372.72,-81.52 396,-64.5 398.66,-62.55 401.48,-60.76 404.4,-59.1"/>
<polygon fill="midnightblue" stroke="midnightblue" points="406.08,-62.17 413.43,-54.54 402.92,-55.92 406.08,-62.17"/>
</g>
<!-- Node25 -->
<g id="node25" class="node">
<title>Node25</title>
<g id="a_node25"><a xlink:href="classprecice_1_1mesh_1_1BoundingBox.html#ad500309dcbe440703ef71dfcc7a2a394" target="_top" xlink:title="Getter dimension of the bounding box.">
<polygon fill="white" stroke="black" points="611.5,-134.5 611.5,-164.5 766.5,-164.5 766.5,-134.5 611.5,-134.5"/>
<text text-anchor="start" x="619.5" y="-152.5" font-family="Helvetica,sans-Serif" font-size="10.00">precice::mesh::BoundingBox</text>
<text text-anchor="middle" x="689" y="-141.5" font-family="Helvetica,sans-Serif" font-size="10.00">::getDimension</text>
</a>
</g>
</g>
<!-- Node24&#45;&gt;Node25 -->
<g id="edge29" class="edge">
<title>Node24&#45;&gt;Node25</title>
<path fill="none" stroke="midnightblue" d="M561.75,-149.5C574.72,-149.5 588.27,-149.5 601.47,-149.5"/>
<polygon fill="midnightblue" stroke="midnightblue" points="601.48,-153 611.48,-149.5 601.48,-146 601.48,-153"/>
</g>
<!-- Node28 -->
<g id="node28" class="node">
<title>Node28</title>
<g id="a_node28"><a xlink:href="classprecice_1_1mesh_1_1BoundingBox.html#a93ebcb8b5754683c5042d63ce9042e9d" target="_top" xlink:title=" ">
<polygon fill="white" stroke="black" points="611.5,-49.5 611.5,-79.5 766.5,-79.5 766.5,-49.5 611.5,-49.5"/>
<text text-anchor="start" x="619.5" y="-67.5" font-family="Helvetica,sans-Serif" font-size="10.00">precice::mesh::BoundingBox</text>
<text text-anchor="middle" x="689" y="-56.5" font-family="Helvetica,sans-Serif" font-size="10.00">::isDefault</text>
</a>
</g>
</g>
<!-- Node27&#45;&gt;Node28 -->
<g id="edge33" class="edge">
<title>Node27&#45;&gt;Node28</title>
<path fill="none" stroke="midnightblue" d="M561.75,-48.95C574.72,-50.55 588.27,-52.22 601.47,-53.84"/>
<polygon fill="midnightblue" stroke="midnightblue" points="601.13,-57.33 611.48,-55.08 601.99,-50.38 601.13,-57.33"/>
</g>
<!-- Node29 -->
<g id="node29" class="node">
<title>Node29</title>
<g id="a_node29"><a xlink:href="classprecice_1_1mesh_1_1BoundingBox.html#a600045b8e5d29f1e07af653e25881a7d" target="_top" xlink:title="returns the maximum length of the bounding box in any dimension">
<polygon fill="white" stroke="black" points="611.5,-0.5 611.5,-30.5 766.5,-30.5 766.5,-0.5 611.5,-0.5"/>
<text text-anchor="start" x="619.5" y="-18.5" font-family="Helvetica,sans-Serif" font-size="10.00">precice::mesh::BoundingBox</text>
<text text-anchor="middle" x="689" y="-7.5" font-family="Helvetica,sans-Serif" font-size="10.00">::longestEdgeLength</text>
</a>
</g>
</g>
<!-- Node27&#45;&gt;Node29 -->
<g id="edge34" class="edge">
<title>Node27&#45;&gt;Node29</title>
<path fill="none" stroke="midnightblue" d="M561.75,-30.43C574.72,-28.89 588.27,-27.29 601.47,-25.73"/>
<polygon fill="midnightblue" stroke="midnightblue" points="601.96,-29.2 611.48,-24.55 601.14,-22.24 601.96,-29.2"/>
</g>
<!-- Node30&#45;&gt;Node12 -->
<g id="edge41" class="edge">
<title>Node30&#45;&gt;Node12</title>
<path fill="none" stroke="midnightblue" d="M351.74,-418.11C366.03,-418.05 380.93,-417.98 395.35,-417.91"/>
<polygon fill="midnightblue" stroke="midnightblue" points="395.76,-421.41 405.74,-417.86 395.73,-414.41 395.76,-421.41"/>
</g>
<!-- Node31 -->
<g id="node31" class="node">
<title>Node31</title>
<g id="a_node31"><a xlink:href="classprecice_1_1com_1_1serialize_1_1SerializedBoundingBoxMap.html#a82f26b51c4a7b3ef4fb467c31602ecf4" target="_top" xlink:title="receives a SerializedBoundingBoxMap and calls assertValid before returning">
<polygon fill="white" stroke="black" points="406,-457 406,-498 562,-498 562,-457 406,-457"/>
<text text-anchor="start" x="414" y="-486" font-family="Helvetica,sans-Serif" font-size="10.00">precice::com::serialize</text>
<text text-anchor="start" x="414" y="-475" font-family="Helvetica,sans-Serif" font-size="10.00">::SerializedBoundingBoxMap</text>
<text text-anchor="middle" x="484" y="-464" font-family="Helvetica,sans-Serif" font-size="10.00">::receive</text>
</a>
</g>
</g>
<!-- Node30&#45;&gt;Node31 -->
<g id="edge36" class="edge">
<title>Node30&#45;&gt;Node31</title>
<path fill="none" stroke="midnightblue" d="M323.86,-433.56C335.78,-436.83 348.31,-440.28 360,-443.5 372.6,-446.97 385.91,-450.65 398.95,-454.25"/>
<polygon fill="midnightblue" stroke="midnightblue" points="398.29,-457.7 408.86,-456.98 400.15,-450.95 398.29,-457.7"/>
</g>
<!-- Node31&#45;&gt;Node5 -->
<g id="edge37" class="edge">
<title>Node31&#45;&gt;Node5</title>
<path fill="none" stroke="midnightblue" d="M562.04,-490.02C574.6,-492.07 587.7,-494.2 600.5,-496.28"/>
<polygon fill="midnightblue" stroke="midnightblue" points="600.25,-499.78 610.68,-497.93 601.37,-492.87 600.25,-499.78"/>
</g>
<!-- Node32 -->
<g id="node32" class="node">
<title>Node32</title>
<g id="a_node32"><a xlink:href="classprecice_1_1com_1_1Communication.html#a2f98f94294a6100d0cd9e21c49fc3967" target="_top" xlink:title="Receives a range of ints as a vector&lt;int&gt;">
<polygon fill="white" stroke="black" points="608,-440.5 608,-470.5 770,-470.5 770,-440.5 608,-440.5"/>
<text text-anchor="start" x="616" y="-458.5" font-family="Helvetica,sans-Serif" font-size="10.00">precice::com::Communication</text>
<text text-anchor="middle" x="689" y="-447.5" font-family="Helvetica,sans-Serif" font-size="10.00">::receiveRange</text>
</a>
</g>
</g>
<!-- Node31&#45;&gt;Node32 -->
<g id="edge38" class="edge">
<title>Node31&#45;&gt;Node32</title>
<path fill="none" stroke="midnightblue" d="M562.04,-469.15C573.78,-467.88 585.98,-466.56 597.97,-465.26"/>
<polygon fill="midnightblue" stroke="midnightblue" points="598.41,-468.73 607.98,-464.17 597.66,-461.77 598.41,-468.73"/>
</g>
<!-- Node32&#45;&gt;Node13 -->
<g id="edge40" class="edge">
<title>Node32&#45;&gt;Node13</title>
<path fill="none" stroke="midnightblue" d="M756.9,-440.48C782.04,-434.84 810.21,-428.51 833.81,-423.22"/>
<polygon fill="midnightblue" stroke="midnightblue" points="834.64,-426.62 843.63,-421.01 833.1,-419.79 834.64,-426.62"/>
</g>
<!-- Node33 -->
<g id="node33" class="node">
<title>Node33</title>
<g id="a_node33"><a xlink:href="classprecice_1_1com_1_1Communication.html#a1dba8319f7bd90aecb30efba944f3bc9" target="_top" xlink:title="Receives a std::string from process with given rank.">
<polygon fill="white" stroke="black" points="806,-440.5 806,-470.5 968,-470.5 968,-440.5 806,-440.5"/>
<text text-anchor="start" x="814" y="-458.5" font-family="Helvetica,sans-Serif" font-size="10.00">precice::com::Communication</text>
<text text-anchor="middle" x="887" y="-447.5" font-family="Helvetica,sans-Serif" font-size="10.00">::receive</text>
</a>
</g>
</g>
<!-- Node32&#45;&gt;Node33 -->
<g id="edge39" class="edge">
<title>Node32&#45;&gt;Node33</title>
<path fill="none" stroke="midnightblue" d="M770,-455.5C778.52,-455.5 787.23,-455.5 795.86,-455.5"/>
<polygon fill="midnightblue" stroke="midnightblue" points="795.93,-459 805.93,-455.5 795.93,-452 795.93,-459"/>
</g>
<!-- Node35 -->
<g id="node35" class="node">
<title>Node35</title>
<g id="a_node35"><a xlink:href="classprecice_1_1com_1_1serialize_1_1SerializedConnectionMap.html#acbaa9b26b4b694ef02377dc22558447f" target="_top" xlink:title=" ">
<polygon fill="white" stroke="black" points="396,-347.5 396,-377.5 572,-377.5 572,-347.5 396,-347.5"/>
<text text-anchor="start" x="404" y="-365.5" font-family="Helvetica,sans-Serif" font-size="10.00">precice::com::serialize</text>
<text text-anchor="middle" x="484" y="-354.5" font-family="Helvetica,sans-Serif" font-size="10.00">::SerializedConnectionMap::send</text>
</a>
</g>
</g>
<!-- Node34&#45;&gt;Node35 -->
<g id="edge43" class="edge">
<title>Node34&#45;&gt;Node35</title>
<path fill="none" stroke="midnightblue" d="M360.07,-369.39C368.57,-368.92 377.21,-368.43 385.77,-367.95"/>
<polygon fill="midnightblue" stroke="midnightblue" points="385.97,-371.45 395.76,-367.39 385.58,-364.46 385.97,-371.45"/>
</g>
<!-- Node38 -->
<g id="node38" class="node">
<title>Node38</title>
<g id="a_node38"><a xlink:href="classprecice_1_1com_1_1serialize_1_1SerializedConnectionMap.html#a7c49087c94fe2fe2fdb4b830eaf6cb0c" target="_top" xlink:title=" ">
<polygon fill="white" stroke="black" points="411,-287 411,-328 557,-328 557,-287 411,-287"/>
<text text-anchor="start" x="419" y="-316" font-family="Helvetica,sans-Serif" font-size="10.00">precice::com::serialize</text>
<text text-anchor="start" x="419" y="-305" font-family="Helvetica,sans-Serif" font-size="10.00">::SerializedConnectionMap</text>
<text text-anchor="middle" x="484" y="-294" font-family="Helvetica,sans-Serif" font-size="10.00">::serialize</text>
</a>
</g>
</g>
<!-- Node34&#45;&gt;Node38 -->
<g id="edge48" class="edge">
<title>Node34&#45;&gt;Node38</title>
<path fill="none" stroke="midnightblue" d="M324.9,-365C336.63,-362.4 348.83,-359.25 360,-355.5 376.78,-349.88 379.65,-345.26 396,-338.5 401.51,-336.23 407.25,-333.96 413.04,-331.74"/>
<polygon fill="midnightblue" stroke="midnightblue" points="414.67,-334.87 422.8,-328.08 412.21,-328.32 414.67,-334.87"/>
</g>
<!-- Node36 -->
<g id="node36" class="node">
<title>Node36</title>
<g id="a_node36"><a xlink:href="classprecice_1_1com_1_1Communication.html#a8caa1032e130719ef235553313b59a3b" target="_top" xlink:title="Sends a range of doubles (size + content)">
<polygon fill="white" stroke="black" points="608,-352.5 608,-382.5 770,-382.5 770,-352.5 608,-352.5"/>
<text text-anchor="start" x="616" y="-370.5" font-family="Helvetica,sans-Serif" font-size="10.00">precice::com::Communication</text>
<text text-anchor="middle" x="689" y="-359.5" font-family="Helvetica,sans-Serif" font-size="10.00">::sendRange</text>
</a>
</g>
</g>
<!-- Node35&#45;&gt;Node36 -->
<g id="edge44" class="edge">
<title>Node35&#45;&gt;Node36</title>
<path fill="none" stroke="midnightblue" d="M572.27,-364.65C580.67,-364.86 589.21,-365.07 597.64,-365.27"/>
<polygon fill="midnightblue" stroke="midnightblue" points="597.78,-368.78 607.86,-365.53 597.95,-361.78 597.78,-368.78"/>
</g>
<!-- Node36&#45;&gt;Node10 -->
<g id="edge47" class="edge">
<title>Node36&#45;&gt;Node10</title>
<path fill="none" stroke="midnightblue" d="M712.01,-382.67C728.85,-394.83 752.14,-412.89 770,-431.5 788.71,-451 783.92,-464.92 806,-480.5 812.11,-484.81 819,-488.36 826.12,-491.27"/>
<polygon fill="midnightblue" stroke="midnightblue" points="825.31,-494.71 835.9,-494.87 827.73,-488.14 825.31,-494.71"/>
</g>
<!-- Node36&#45;&gt;Node13 -->
<g id="edge46" class="edge">
<title>Node36&#45;&gt;Node13</title>
<path fill="none" stroke="midnightblue" d="M756.9,-382.52C782.04,-388.16 810.21,-394.49 833.81,-399.78"/>
<polygon fill="midnightblue" stroke="midnightblue" points="833.1,-403.21 843.63,-401.99 834.64,-396.38 833.1,-403.21"/>
</g>
<!-- Node37 -->
<g id="node37" class="node">
<title>Node37</title>
<g id="a_node37"><a xlink:href="classprecice_1_1com_1_1Communication.html#ac95d9a27ce66edc756c96176d2e9d916" target="_top" xlink:title="Sends a std::string to process with given rank.">
<polygon fill="white" stroke="black" points="806,-352.5 806,-382.5 968,-382.5 968,-352.5 806,-352.5"/>
<text text-anchor="start" x="814" y="-370.5" font-family="Helvetica,sans-Serif" font-size="10.00">precice::com::Communication</text>
<text text-anchor="middle" x="887" y="-359.5" font-family="Helvetica,sans-Serif" font-size="10.00">::send</text>
</a>
</g>
</g>
<!-- Node36&#45;&gt;Node37 -->
<g id="edge45" class="edge">
<title>Node36&#45;&gt;Node37</title>
<path fill="none" stroke="midnightblue" d="M770,-367.5C778.52,-367.5 787.23,-367.5 795.86,-367.5"/>
<polygon fill="midnightblue" stroke="midnightblue" points="795.93,-371 805.93,-367.5 795.93,-364 795.93,-371"/>
</g>
<!-- Node39 -->
<g id="node39" class="node">
<title>Node39</title>
<g id="a_node39"><a xlink:href="classprecice_1_1com_1_1serialize_1_1SerializedConnectionMap.html#ac371682a00038cb21f3da4012831be73" target="_top" xlink:title="asserts the content for correctness">
<polygon fill="white" stroke="black" points="616,-289 616,-330 762,-330 762,-289 616,-289"/>
<text text-anchor="start" x="624" y="-318" font-family="Helvetica,sans-Serif" font-size="10.00">precice::com::serialize</text>
<text text-anchor="start" x="624" y="-307" font-family="Helvetica,sans-Serif" font-size="10.00">::SerializedConnectionMap</text>
<text text-anchor="middle" x="689" y="-296" font-family="Helvetica,sans-Serif" font-size="10.00">::assertValid</text>
</a>
</g>
</g>
<!-- Node38&#45;&gt;Node39 -->
<g id="edge49" class="edge">
<title>Node38&#45;&gt;Node39</title>
<path fill="none" stroke="midnightblue" d="M557.14,-308.21C572.75,-308.36 589.38,-308.53 605.36,-308.69"/>
<polygon fill="midnightblue" stroke="midnightblue" points="605.71,-312.19 615.75,-308.79 605.78,-305.19 605.71,-312.19"/>
</g>
<!-- Node39&#45;&gt;Node13 -->
<g id="edge50" class="edge">
<title>Node39&#45;&gt;Node13</title>
<path fill="none" stroke="midnightblue" d="M748.89,-330.15C756.36,-334.01 763.61,-338.44 770,-343.5 791.19,-360.27 783.47,-377.57 806,-392.5 810.88,-395.73 816.25,-398.42 821.82,-400.65"/>
<polygon fill="midnightblue" stroke="midnightblue" points="820.76,-403.98 831.35,-403.98 823.07,-397.38 820.76,-403.98"/>
</g>
</g>
</svg>
        <g id="navigator" transform="translate(0 0)" fill="#404254">
                <rect fill="#f2f5e9" fill-opacity="0.5" stroke="#606060" stroke-width=".5" x="0" y="0" width="60" height="60"/>
                <use id="zoomplus" xlink:href="#zoomPlus" x="17" y="9" onmousedown="handleZoom(evt,'in')"/>
                <use id="zoomminus" xlink:href="#zoomMin" x="42" y="9" onmousedown="handleZoom(evt,'out')"/>
                <use id="reset" xlink:href="#resetDef" x="30" y="36" onmousedown="handleReset()"/>
                <g id="arrowUp" xlink:href="#dirArrow" transform="translate(30 24)" onmousedown="handlePan(0,-1)">
                  <use xlink:href="#rim" fill="#404040">
                        <set attributeName="fill" to="#808080" begin="arrowUp.mouseover" end="arrowUp.mouseout"/>
                  </use>
                  <path fill="none" stroke="white" stroke-width="1.5" d="M0,-3.0v7 M-2.5,-0.5L0,-3.0L2.5,-0.5"/>
                </g>
                <g id="arrowRight" xlink:href="#dirArrow" transform="rotate(90) translate(36 -43)" onmousedown="handlePan(1,0)">
                  <use xlink:href="#rim" fill="#404040">
                        <set attributeName="fill" to="#808080" begin="arrowRight.mouseover" end="arrowRight.mouseout"/>
                  </use>
                  <path fill="none" stroke="white" stroke-width="1.5" d="M0,-3.0v7 M-2.5,-0.5L0,-3.0L2.5,-0.5"/>
                </g>
                <g id="arrowDown" xlink:href="#dirArrow" transform="rotate(180) translate(-30 -48)" onmousedown="handlePan(0,1)">
                  <use xlink:href="#rim" fill="#404040">
                        <set attributeName="fill" to="#808080" begin="arrowDown.mouseover" end="arrowDown.mouseout"/>
                  </use>
                  <path fill="none" stroke="white" stroke-width="1.5" d="M0,-3.0v7 M-2.5,-0.5L0,-3.0L2.5,-0.5"/>
                </g>
                <g id="arrowLeft" xlink:href="#dirArrow" transform="rotate(270) translate(-36 17)" onmousedown="handlePan(-1,0)">
                  <use xlink:href="#rim" fill="#404040">
                        <set attributeName="fill" to="#808080" begin="arrowLeft.mouseover" end="arrowLeft.mouseout"/>
                  </use>
                  <path fill="none" stroke="white" stroke-width="1.5" d="M0,-3.0v7 M-2.5,-0.5L0,-3.0L2.5,-0.5"/>
                </g>
        </g>
        <svg viewBox="0 0 15 15" width="100%" height="30px" preserveAspectRatio="xMaxYMin meet">
         <g id="arrow_out" transform="scale(0.3 0.3)">
          <a xlink:href="classprecice_1_1partition_1_1ReceivedPartition_ab92a4650f9ddd521b34e5fdf9cebc928_cgraph_org.svg" target="_base">
           <rect id="button" ry="5" rx="5" y="6" x="6" height="38" width="38"
                fill="#f2f5e9" fill-opacity="0.5" stroke="#606060" stroke-width="1.0"/>
           <path id="arrow"
             d="M 11.500037,31.436501 C 11.940474,20.09759 22.043105,11.32322 32.158766,21.979434 L 37.068811,17.246167 C 37.068811,17.246167 37.088388,32 37.088388,32 L 22.160133,31.978069 C 22.160133,31.978069 26.997745,27.140456 26.997745,27.140456 C 18.528582,18.264221 13.291696,25.230495 11.500037,31.436501 z"
             style="fill:#404040;"/>
          </a>
         </g>
        </svg>
</svg>
