<?xml version="1.0" encoding="UTF-8" standalone="no"?>
<!DOCTYPE svg PUBLIC "-//W3C//DTD SVG 1.1//EN"
 "http://www.w3.org/Graphics/SVG/1.1/DTD/svg11.dtd">
<!-- Generated by graphviz version 2.43.0 (0)
 -->
<!-- Title: precice::cplscheme::SerialCouplingScheme::exchangeSecondData Pages: 1 -->
<!--zoomable 778 -->

<svg id="main" version="1.1" xmlns="http://www.w3.org/2000/svg" xmlns:xlink="http://www.w3.org/1999/xlink" xml:space="preserve" onload="init(evt)">
<style type="text/css"><![CDATA[
.node, .edge {opacity: 0.7;}
.node.selected, .edge.selected {opacity: 1;}
.edge:hover path { stroke: red; }
.edge:hover polygon { stroke: red; fill: red; }
]]></style>

<defs>
  <circle id="rim" cx="0" cy="0" r="7"/>
  <circle id="rim2" cx="0" cy="0" r="3.5"/>
  <g id="zoomPlus">
    <use xlink:href="#rim" fill="#404040"><set attributeName="fill" to="#808080" begin="zoomplus.mouseover" end="zoomplus.mouseout"/></use>
    <path d="M-4,0h8M0,-4v8" fill="none" stroke="white" stroke-width="1.5" pointer-events="none"/>
  </g>
  <g id="zoomMin">
    <use xlink:href="#rim" fill="#404040"><set attributeName="fill" to="#808080" begin="zoomminus.mouseover" end="zoomminus.mouseout"/></use>
    <path d="M-4,0h8" fill="none" stroke="white" stroke-width="1.5" pointer-events="none"/>
  </g>
  <g id="arrowUp" transform="translate(30 24)">
    <use xlink:href="#rim"/>
    <path pointer-events="none" fill="none" stroke="white" stroke-width="1.5" d="M0,-3.0v7 M-2.5,-0.5L0,-3.0L2.5,-0.5"/>
  </g>
  <g id="arrowRight" transform="rotate(90) translate(36 -43)">
    <use xlink:href="#rim"/>
    <path pointer-events="none" fill="none" stroke="white" stroke-width="1.5" d="M0,-3.0v7 M-2.5,-0.5L0,-3.0L2.5,-0.5"/>
  </g>
  <g id="arrowDown" transform="rotate(180) translate(-30 -48)">
    <use xlink:href="#rim"/>
    <path pointer-events="none" fill="none" stroke="white" stroke-width="1.5" d="M0,-3.0v7 M-2.5,-0.5L0,-3.0L2.5,-0.5"/>
  </g>
  <g id="arrowLeft" transform="rotate(270) translate(-36 17)">
    <use xlink:href="#rim"/>
    <path pointer-events="none" fill="none" stroke="white" stroke-width="1.5" d="M0,-3.0v7 M-2.5,-0.5L0,-3.0L2.5,-0.5"/>
  </g>
  <g id="resetDef">
    <use xlink:href="#rim2" fill="#404040"><set attributeName="fill" to="#808080" begin="reset.mouseover" end="reset.mouseout"/></use>
  </g>
</defs>
<script type="application/ecmascript">
var viewWidth = 897;
var viewHeight = 778;
var sectionId = 'dynsection-5';
</script>
<script type="application/ecmascript" xlink:href="svg.min.js"/>
<svg id="graph" class="graph">
<g id="viewport">
<title>precice::cplscheme::SerialCouplingScheme::exchangeSecondData</title>
<!-- Node1 -->
<g id="Node000001" class="node">
<title>Node1</title>
<g id="a_Node000001"><a xlink:title="Exchanges the second set of data.">
<polygon fill="#999999" stroke="#666666" points="132,-441 0,-441 0,-400 132,-400 132,-441"/>
<text text-anchor="start" x="8" y="-429" font-family="Helvetica,sans-Serif" font-size="10.00">precice::cplscheme</text>
<text text-anchor="start" x="8" y="-418" font-family="Helvetica,sans-Serif" font-size="10.00">::SerialCouplingScheme</text>
<text text-anchor="middle" x="66" y="-407" font-family="Helvetica,sans-Serif" font-size="10.00">::exchangeSecondData</text>
</a>
</g>
</g>
<!-- Node2 -->
<g id="Node000002" class="node">
<title>Node2</title>
<g id="a_Node000002"><a xlink:href="classprecice_1_1cplscheme_1_1BaseCouplingScheme.html#af880c679675d59efcf00b0b9fd984f6e" target="_top" xlink:title="Getter for _doesFirstStep.">
<polygon fill="white" stroke="#666666" points="519.5,-456 391.5,-456 391.5,-415 519.5,-415 519.5,-456"/>
<text text-anchor="start" x="399.5" y="-444" font-family="Helvetica,sans-Serif" font-size="10.00">precice::cplscheme</text>
<text text-anchor="start" x="399.5" y="-433" font-family="Helvetica,sans-Serif" font-size="10.00">::BaseCouplingScheme</text>
<text text-anchor="middle" x="455.5" y="-422" font-family="Helvetica,sans-Serif" font-size="10.00">::doesFirstStep</text>
</a>
</g>
</g>
<!-- Node1&#45;&gt;Node2 -->
<g id="edge1_Node000001_Node000002" class="edge">
<title>Node1&#45;&gt;Node2</title>
<g id="a_edge1_Node000001_Node000002"><a xlink:title=" ">
<path fill="none" stroke="#63b8ff" d="M79.61,-441.3C96.24,-466.49 128.13,-507.64 168,-524.5 240.46,-555.14 275.64,-561.62 345,-524.5 370.43,-510.89 359.19,-489.38 381,-470.5 384.84,-467.17 389.05,-464.09 393.46,-461.25"/>
<polygon fill="#63b8ff" stroke="#63b8ff" points="395.32,-464.21 402.11,-456.08 391.73,-458.2 395.32,-464.21"/>
</a>
</g>
</g>
<!-- Node3 -->
<g id="Node000003" class="node">
<title>Node3</title>
<g id="a_Node000003"><a xlink:href="classprecice_1_1cplscheme_1_1BiCouplingScheme.html#ae90273efd5e7a1ba0b91b5e09fd971ac" target="_top" xlink:title=" ">
<polygon fill="white" stroke="#666666" points="515.5,-770 395.5,-770 395.5,-729 515.5,-729 515.5,-770"/>
<text text-anchor="start" x="403.5" y="-758" font-family="Helvetica,sans-Serif" font-size="10.00">precice::cplscheme</text>
<text text-anchor="start" x="403.5" y="-747" font-family="Helvetica,sans-Serif" font-size="10.00">::BiCouplingScheme::</text>
<text text-anchor="middle" x="455.5" y="-736" font-family="Helvetica,sans-Serif" font-size="10.00">getM2N</text>
</a>
</g>
</g>
<!-- Node1&#45;&gt;Node3 -->
<g id="edge2_Node000001_Node000003" class="edge">
<title>Node1&#45;&gt;Node3</title>
<g id="a_edge2_Node000001_Node000003"><a xlink:title=" ">
<path fill="none" stroke="#63b8ff" d="M67.23,-441.19C69.06,-495.47 82.09,-642.58 168,-712.5 228.61,-761.83 321.59,-764.81 385.07,-759.6"/>
<polygon fill="#63b8ff" stroke="#63b8ff" points="385.75,-763.05 395.39,-758.66 385.11,-756.08 385.75,-763.05"/>
</a>
</g>
</g>
<!-- Node4 -->
<g id="Node000004" class="node">
<title>Node4</title>
<g id="a_Node000004"><a xlink:href="classprecice_1_1cplscheme_1_1BiCouplingScheme.html#ab66e411f621d13312e3728404cc42eb8" target="_top" xlink:title="Returns all data to be received.">
<polygon fill="white" stroke="#666666" points="316.5,-672 196.5,-672 196.5,-631 316.5,-631 316.5,-672"/>
<text text-anchor="start" x="204.5" y="-660" font-family="Helvetica,sans-Serif" font-size="10.00">precice::cplscheme</text>
<text text-anchor="start" x="204.5" y="-649" font-family="Helvetica,sans-Serif" font-size="10.00">::BiCouplingScheme::</text>
<text text-anchor="middle" x="256.5" y="-638" font-family="Helvetica,sans-Serif" font-size="10.00">getReceiveData</text>
</a>
</g>
</g>
<!-- Node1&#45;&gt;Node4 -->
<g id="edge3_Node000001_Node000004" class="edge">
<title>Node1&#45;&gt;Node4</title>
<g id="a_edge3_Node000001_Node000004"><a xlink:title=" ">
<path fill="none" stroke="#63b8ff" d="M71.7,-441.23C82,-481.91 110.35,-572.58 168,-622.5 173.57,-627.33 179.97,-631.35 186.72,-634.71"/>
<polygon fill="#63b8ff" stroke="#63b8ff" points="185.54,-638.02 196.1,-638.9 188.39,-631.63 185.54,-638.02"/>
</a>
</g>
</g>
<!-- Node5 -->
<g id="Node000005" class="node">
<title>Node5</title>
<g id="a_Node000005"><a xlink:href="classprecice_1_1cplscheme_1_1BaseCouplingScheme.html#a71a31cd898a45b62b761f9545fce767b" target="_top" xlink:title="Checks if the implicit cplscheme has converged.">
<polygon fill="white" stroke="#666666" points="519.5,-711 391.5,-711 391.5,-670 519.5,-670 519.5,-711"/>
<text text-anchor="start" x="399.5" y="-699" font-family="Helvetica,sans-Serif" font-size="10.00">precice::cplscheme</text>
<text text-anchor="start" x="399.5" y="-688" font-family="Helvetica,sans-Serif" font-size="10.00">::BaseCouplingScheme</text>
<text text-anchor="middle" x="455.5" y="-677" font-family="Helvetica,sans-Serif" font-size="10.00">::hasConverged</text>
</a>
</g>
</g>
<!-- Node1&#45;&gt;Node5 -->
<g id="edge4_Node000001_Node000005" class="edge">
<title>Node1&#45;&gt;Node5</title>
<g id="a_edge4_Node000001_Node000005"><a xlink:title=" ">
<path fill="none" stroke="#63b8ff" d="M67.8,-441.34C71.01,-492.48 87.13,-624.19 168,-681.5 229.54,-725.11 318.63,-720.24 381.08,-709"/>
<polygon fill="#63b8ff" stroke="#63b8ff" points="382.08,-712.37 391.26,-707.07 380.78,-705.5 382.08,-712.37"/>
</a>
</g>
</g>
<!-- Node6 -->
<g id="Node000006" class="node">
<title>Node6</title>
<g id="a_Node000006"><a xlink:href="classprecice_1_1cplscheme_1_1BaseCouplingScheme.html#a69facd34bc23797fe69daab51df26b8c" target="_top" xlink:title="Returns true, when the coupled simulation is still ongoing.">
<polygon fill="white" stroke="#666666" points="519.5,-397 391.5,-397 391.5,-356 519.5,-356 519.5,-397"/>
<text text-anchor="start" x="399.5" y="-385" font-family="Helvetica,sans-Serif" font-size="10.00">precice::cplscheme</text>
<text text-anchor="start" x="399.5" y="-374" font-family="Helvetica,sans-Serif" font-size="10.00">::BaseCouplingScheme</text>
<text text-anchor="middle" x="455.5" y="-363" font-family="Helvetica,sans-Serif" font-size="10.00">::isCouplingOngoing</text>
</a>
</g>
</g>
<!-- Node1&#45;&gt;Node6 -->
<g id="edge5_Node000001_Node000006" class="edge">
<title>Node1&#45;&gt;Node6</title>
<g id="a_edge5_Node000001_Node000006"><a xlink:title=" ">
<path fill="none" stroke="#63b8ff" d="M132.2,-431.78C189.28,-439.34 273.97,-444.91 345,-426.5 362.72,-421.91 364.5,-414.42 381,-406.5 384.77,-404.69 388.69,-402.89 392.65,-401.11"/>
<polygon fill="#63b8ff" stroke="#63b8ff" points="394.2,-404.26 401.97,-397.05 391.4,-397.84 394.2,-404.26"/>
</a>
</g>
</g>
<!-- Node10 -->
<g id="Node000010" class="node">
<title>Node10</title>
<g id="a_Node000010"><a xlink:href="classprecice_1_1cplscheme_1_1BaseCouplingScheme.html#a38eb9e294c701da2259e803d184710ee" target="_top" xlink:title="Function to determine whether coupling scheme is an explicit coupling scheme.">
<polygon fill="white" stroke="#666666" points="331,-515 182,-515 182,-474 331,-474 331,-515"/>
<text text-anchor="start" x="190" y="-503" font-family="Helvetica,sans-Serif" font-size="10.00">precice::cplscheme</text>
<text text-anchor="start" x="190" y="-492" font-family="Helvetica,sans-Serif" font-size="10.00">::BaseCouplingScheme</text>
<text text-anchor="middle" x="256.5" y="-481" font-family="Helvetica,sans-Serif" font-size="10.00">::isExplicitCouplingScheme</text>
</a>
</g>
</g>
<!-- Node1&#45;&gt;Node10 -->
<g id="edge9_Node000001_Node000010" class="edge">
<title>Node1&#45;&gt;Node10</title>
<g id="a_edge9_Node000001_Node000010"><a xlink:title=" ">
<path fill="none" stroke="#63b8ff" d="M119.26,-441.01C142.34,-450.08 169.65,-460.8 193.74,-470.25"/>
<polygon fill="#63b8ff" stroke="#63b8ff" points="192.55,-473.55 203.14,-473.95 195.11,-467.03 192.55,-473.55"/>
</a>
</g>
</g>
<!-- Node11 -->
<g id="Node000011" class="node">
<title>Node11</title>
<g id="a_Node000011"><a xlink:href="classprecice_1_1cplscheme_1_1BaseCouplingScheme.html#a4dcb97e3ef79b1cca6af577f9cbbec19" target="_top" xlink:title="Function to determine whether coupling scheme is an implicit coupling scheme.">
<polygon fill="white" stroke="#666666" points="530,-263 381,-263 381,-222 530,-222 530,-263"/>
<text text-anchor="start" x="389" y="-251" font-family="Helvetica,sans-Serif" font-size="10.00">precice::cplscheme</text>
<text text-anchor="start" x="389" y="-240" font-family="Helvetica,sans-Serif" font-size="10.00">::BaseCouplingScheme</text>
<text text-anchor="middle" x="455.5" y="-229" font-family="Helvetica,sans-Serif" font-size="10.00">::isImplicitCouplingScheme</text>
</a>
</g>
</g>
<!-- Node1&#45;&gt;Node11 -->
<g id="edge10_Node000001_Node000011" class="edge">
<title>Node1&#45;&gt;Node11</title>
<g id="a_edge10_Node000001_Node000011"><a xlink:title=" ">
<path fill="none" stroke="#63b8ff" d="M68.79,-399.76C74.1,-352.6 94.38,-237.66 168,-189.5 243.34,-140.21 352.4,-185.08 411.88,-217"/>
<polygon fill="#63b8ff" stroke="#63b8ff" points="410.54,-220.25 420.99,-221.99 413.9,-214.12 410.54,-220.25"/>
</a>
</g>
</g>
<!-- Node12 -->
<g id="Node000012" class="node">
<title>Node12</title>
<g id="a_Node000012"><a xlink:href="classprecice_1_1cplscheme_1_1BaseCouplingScheme.html#a88e63605dd9bd11de8a3e5ecb00135e0" target="_top" xlink:title="finalizes this window&#39;s data and initializes data for next window.">
<polygon fill="white" stroke="#666666" points="320.5,-417 192.5,-417 192.5,-376 320.5,-376 320.5,-417"/>
<text text-anchor="start" x="200.5" y="-405" font-family="Helvetica,sans-Serif" font-size="10.00">precice::cplscheme</text>
<text text-anchor="start" x="200.5" y="-394" font-family="Helvetica,sans-Serif" font-size="10.00">::BaseCouplingScheme</text>
<text text-anchor="middle" x="256.5" y="-383" font-family="Helvetica,sans-Serif" font-size="10.00">::moveToNextWindow</text>
</a>
</g>
</g>
<!-- Node1&#45;&gt;Node12 -->
<g id="edge11_Node000001_Node000012" class="edge">
<title>Node1&#45;&gt;Node12</title>
<g id="a_edge11_Node000001_Node000012"><a xlink:title=" ">
<path fill="none" stroke="#63b8ff" d="M132.13,-412.21C148.26,-410.15 165.65,-407.94 182.14,-405.84"/>
<polygon fill="#63b8ff" stroke="#63b8ff" points="182.79,-409.29 192.27,-404.55 181.91,-402.34 182.79,-409.29"/>
</a>
</g>
</g>
<!-- Node13 -->
<g id="Node000013" class="node">
<title>Node13</title>
<g id="a_Node000013"><a xlink:href="classprecice_1_1cplscheme_1_1BaseCouplingScheme.html#a3153d22622f9abe534cef5fb0fb299dc" target="_top" xlink:title="Used to set flag after data has been received using receiveData().">
<polygon fill="white" stroke="#666666" points="337.5,-358 175.5,-358 175.5,-317 337.5,-317 337.5,-358"/>
<text text-anchor="start" x="183.5" y="-346" font-family="Helvetica,sans-Serif" font-size="10.00">precice::cplscheme</text>
<text text-anchor="start" x="183.5" y="-335" font-family="Helvetica,sans-Serif" font-size="10.00">::BaseCouplingScheme</text>
<text text-anchor="middle" x="256.5" y="-324" font-family="Helvetica,sans-Serif" font-size="10.00">::notifyDataHasBeenReceived</text>
</a>
</g>
</g>
<!-- Node1&#45;&gt;Node13 -->
<g id="edge12_Node000001_Node000013" class="edge">
<title>Node1&#45;&gt;Node13</title>
<g id="a_edge12_Node000001_Node000013"><a xlink:title=" ">
<path fill="none" stroke="#63b8ff" d="M102.81,-399.99C121.83,-389.54 145.81,-377.06 168,-367.5 172.47,-365.58 177.1,-363.69 181.8,-361.85"/>
<polygon fill="#63b8ff" stroke="#63b8ff" points="183.4,-364.99 191.5,-358.17 180.91,-358.45 183.4,-364.99"/>
</a>
</g>
</g>
<!-- Node14 -->
<g id="Node000014" class="node">
<title>Node14</title>
<g id="a_Node000014"><a xlink:href="classprecice_1_1cplscheme_1_1SerialCouplingScheme.html#a2e5a29de7a6610336338700f49f10189" target="_top" xlink:title="Receives and sets the time window size, if this participant is the one to receive.">
<polygon fill="white" stroke="#666666" points="345,-613 168,-613 168,-572 345,-572 345,-613"/>
<text text-anchor="start" x="176" y="-601" font-family="Helvetica,sans-Serif" font-size="10.00">precice::cplscheme</text>
<text text-anchor="start" x="176" y="-590" font-family="Helvetica,sans-Serif" font-size="10.00">::SerialCouplingScheme</text>
<text text-anchor="middle" x="256.5" y="-579" font-family="Helvetica,sans-Serif" font-size="10.00">::receiveAndSetTimeWindowSize</text>
</a>
</g>
</g>
<!-- Node1&#45;&gt;Node14 -->
<g id="edge13_Node000001_Node000014" class="edge">
<title>Node1&#45;&gt;Node14</title>
<g id="a_edge13_Node000001_Node000014"><a xlink:title=" ">
<path fill="none" stroke="#63b8ff" d="M77.56,-441.45C93.44,-471.06 126.15,-525.15 168,-557.5 172.56,-561.03 177.52,-564.24 182.69,-567.17"/>
<polygon fill="#63b8ff" stroke="#63b8ff" points="181.07,-570.27 191.55,-571.83 184.33,-564.08 181.07,-570.27"/>
</a>
</g>
</g>
<!-- Node18 -->
<g id="Node000018" class="node">
<title>Node18</title>
<g id="a_Node000018"><a xlink:href="classprecice_1_1cplscheme_1_1BaseCouplingScheme.html#ae25a2c72a7e120f70b382b716347600d" target="_top" xlink:title="receives convergence from other participant via m2n">
<polygon fill="white" stroke="#666666" points="320.5,-299 192.5,-299 192.5,-258 320.5,-258 320.5,-299"/>
<text text-anchor="start" x="200.5" y="-287" font-family="Helvetica,sans-Serif" font-size="10.00">precice::cplscheme</text>
<text text-anchor="start" x="200.5" y="-276" font-family="Helvetica,sans-Serif" font-size="10.00">::BaseCouplingScheme</text>
<text text-anchor="middle" x="256.5" y="-265" font-family="Helvetica,sans-Serif" font-size="10.00">::receiveConvergence</text>
</a>
</g>
</g>
<!-- Node1&#45;&gt;Node18 -->
<g id="edge24_Node000001_Node000018" class="edge">
<title>Node1&#45;&gt;Node18</title>
<g id="a_edge24_Node000001_Node000018"><a xlink:title=" ">
<path fill="none" stroke="#63b8ff" d="M80.65,-399.82C98.13,-374.86 130.64,-333.17 168,-308.5 172.81,-305.33 177.99,-302.45 183.34,-299.86"/>
<polygon fill="#63b8ff" stroke="#63b8ff" points="184.79,-303.04 192.47,-295.75 181.91,-296.66 184.79,-303.04"/>
</a>
</g>
</g>
<!-- Node19 -->
<g id="Node000019" class="node">
<title>Node19</title>
<g id="a_Node000019"><a xlink:href="classprecice_1_1cplscheme_1_1BaseCouplingScheme.html#af690c8d4e0f11e52fc7b9ca1fe098229" target="_top" xlink:title="Receives data receiveDataIDs given in mapCouplingData with communication.">
<polygon fill="white" stroke="#666666" points="519.5,-120 391.5,-120 391.5,-79 519.5,-79 519.5,-120"/>
<text text-anchor="start" x="399.5" y="-108" font-family="Helvetica,sans-Serif" font-size="10.00">precice::cplscheme</text>
<text text-anchor="start" x="399.5" y="-97" font-family="Helvetica,sans-Serif" font-size="10.00">::BaseCouplingScheme</text>
<text text-anchor="middle" x="455.5" y="-86" font-family="Helvetica,sans-Serif" font-size="10.00">::receiveData</text>
</a>
</g>
</g>
<!-- Node1&#45;&gt;Node19 -->
<g id="edge27_Node000001_Node000019" class="edge">
<title>Node1&#45;&gt;Node19</title>
<g id="a_edge27_Node000001_Node000019"><a xlink:title=" ">
<path fill="none" stroke="#63b8ff" d="M70.11,-399.91C80.55,-333.87 116.59,-129.5 168,-91.5 230.96,-44.97 324.74,-58.65 387.69,-76.11"/>
<polygon fill="#63b8ff" stroke="#63b8ff" points="386.94,-79.54 397.51,-78.94 388.87,-72.81 386.94,-79.54"/>
</a>
</g>
</g>
<!-- Node24 -->
<g id="Node000024" class="node">
<title>Node24</title>
<g id="a_Node000024"><a xlink:href="classprecice_1_1cplscheme_1_1BaseCouplingScheme.html#a2ecb01c18534e30572a4a3d85f9a9513" target="_top" xlink:title="Like receiveData, but temporarily sets window time to end of window.">
<polygon fill="white" stroke="#666666" points="333.5,-142 179.5,-142 179.5,-101 333.5,-101 333.5,-142"/>
<text text-anchor="start" x="187.5" y="-130" font-family="Helvetica,sans-Serif" font-size="10.00">precice::cplscheme</text>
<text text-anchor="start" x="187.5" y="-119" font-family="Helvetica,sans-Serif" font-size="10.00">::BaseCouplingScheme</text>
<text text-anchor="middle" x="256.5" y="-108" font-family="Helvetica,sans-Serif" font-size="10.00">::receiveDataForWindowEnd</text>
</a>
</g>
</g>
<!-- Node1&#45;&gt;Node24 -->
<g id="edge34_Node000001_Node000024" class="edge">
<title>Node1&#45;&gt;Node24</title>
<g id="a_edge34_Node000001_Node000024"><a xlink:title=" ">
<path fill="none" stroke="#63b8ff" d="M69.3,-399.64C75.77,-350.66 98.44,-227.12 168,-156.5 171.19,-153.27 174.71,-150.32 178.46,-147.64"/>
<polygon fill="#63b8ff" stroke="#63b8ff" points="180.45,-150.52 186.99,-142.19 176.68,-144.63 180.45,-150.52"/>
</a>
</g>
</g>
<!-- Node25 -->
<g id="Node000025" class="node">
<title>Node25</title>
<g id="a_Node000025"><a xlink:href="classprecice_1_1cplscheme_1_1BaseCouplingScheme.html#a41a071da3c8348a41bf4ae78c9edc06a" target="_top" xlink:title="used for storing all Data at end of doImplicitStep for later reference.">
<polygon fill="white" stroke="#666666" points="320.5,-240 192.5,-240 192.5,-199 320.5,-199 320.5,-240"/>
<text text-anchor="start" x="200.5" y="-228" font-family="Helvetica,sans-Serif" font-size="10.00">precice::cplscheme</text>
<text text-anchor="start" x="200.5" y="-217" font-family="Helvetica,sans-Serif" font-size="10.00">::BaseCouplingScheme</text>
<text text-anchor="middle" x="256.5" y="-206" font-family="Helvetica,sans-Serif" font-size="10.00">::storeIteration</text>
</a>
</g>
</g>
<!-- Node1&#45;&gt;Node25 -->
<g id="edge37_Node000001_Node000025" class="edge">
<title>Node1&#45;&gt;Node25</title>
<g id="a_edge37_Node000001_Node000025"><a xlink:title=" ">
<path fill="none" stroke="#63b8ff" d="M73.75,-399.95C86.51,-364.25 117.48,-290.67 168,-249.5 172.63,-245.73 177.75,-242.42 183.14,-239.52"/>
<polygon fill="#63b8ff" stroke="#63b8ff" points="184.94,-242.54 192.4,-235.02 181.87,-236.25 184.94,-242.54"/>
</a>
</g>
</g>
<!-- Node7 -->
<g id="Node000007" class="node">
<title>Node7</title>
<g id="a_Node000007"><a xlink:href="namespaceprecice_1_1math.html#a0e86802cfe992deba131d789d035b5b7" target="_top" xlink:title="Compares two Eigen::MatrixBase for equality up to tolerance.">
<polygon fill="white" stroke="#666666" points="887,-494 765,-494 765,-475 887,-475 887,-494"/>
<text text-anchor="middle" x="826" y="-482" font-family="Helvetica,sans-Serif" font-size="10.00">precice::math::equals</text>
</a>
</g>
</g>
<!-- Node6&#45;&gt;Node7 -->
<g id="edge6_Node000006_Node000007" class="edge">
<title>Node6&#45;&gt;Node7</title>
<g id="a_edge6_Node000006_Node000007"><a xlink:title=" ">
<path fill="none" stroke="#63b8ff" d="M519.85,-395.07C594.85,-417.05 717.72,-453.06 782.29,-471.98"/>
<polygon fill="#63b8ff" stroke="#63b8ff" points="781.56,-475.41 792.14,-474.87 783.52,-468.7 781.56,-475.41"/>
</a>
</g>
</g>
<!-- Node8 -->
<g id="Node000008" class="node">
<title>Node8</title>
<g id="a_Node000008"><a xlink:href="classprecice_1_1cplscheme_1_1BaseCouplingScheme.html#a6c37c619f364581226635cdca7d39e4b" target="_top" xlink:title="getter for _time">
<polygon fill="white" stroke="#666666" points="710.5,-213 582.5,-213 582.5,-172 710.5,-172 710.5,-213"/>
<text text-anchor="start" x="590.5" y="-201" font-family="Helvetica,sans-Serif" font-size="10.00">precice::cplscheme</text>
<text text-anchor="start" x="590.5" y="-190" font-family="Helvetica,sans-Serif" font-size="10.00">::BaseCouplingScheme</text>
<text text-anchor="middle" x="646.5" y="-179" font-family="Helvetica,sans-Serif" font-size="10.00">::getTime</text>
</a>
</g>
</g>
<!-- Node6&#45;&gt;Node8 -->
<g id="edge7_Node000006_Node000008" class="edge">
<title>Node6&#45;&gt;Node8</title>
<g id="a_edge7_Node000006_Node000008"><a xlink:title=" ">
<path fill="none" stroke="#63b8ff" d="M477.81,-355.75C511.93,-322.53 578.85,-257.38 617.03,-220.22"/>
<polygon fill="#63b8ff" stroke="#63b8ff" points="619.54,-222.66 624.26,-213.17 614.66,-217.64 619.54,-222.66"/>
</a>
</g>
</g>
<!-- Node9 -->
<g id="Node000009" class="node">
<title>Node9</title>
<g id="a_Node000009"><a xlink:href="namespaceprecice_1_1math.html#ab5fc218ddab783ccd97f7c14fc4ccab3" target="_top" xlink:title=" ">
<polygon fill="white" stroke="#666666" points="709,-386 584,-386 584,-367 709,-367 709,-386"/>
<text text-anchor="middle" x="646.5" y="-374" font-family="Helvetica,sans-Serif" font-size="10.00">precice::math::greater</text>
</a>
</g>
</g>
<!-- Node6&#45;&gt;Node9 -->
<g id="edge8_Node000006_Node000009" class="edge">
<title>Node6&#45;&gt;Node9</title>
<g id="a_edge8_Node000006_Node000009"><a xlink:title=" ">
<path fill="none" stroke="#63b8ff" d="M519.7,-376.5C537.01,-376.5 555.9,-376.5 573.66,-376.5"/>
<polygon fill="#63b8ff" stroke="#63b8ff" points="573.97,-380 583.97,-376.5 573.97,-373 573.97,-380"/>
</a>
</g>
</g>
<!-- Node14&#45;&gt;Node2 -->
<g id="edge14_Node000014_Node000002" class="edge">
<title>Node14&#45;&gt;Node2</title>
<g id="a_edge14_Node000014_Node000002"><a xlink:title=" ">
<path fill="none" stroke="#63b8ff" d="M325.43,-571.91C332.57,-567.9 339.3,-563.14 345,-557.5 374.76,-528.09 352.19,-500.85 381,-470.5 383.96,-467.39 387.24,-464.52 390.75,-461.88"/>
<polygon fill="#63b8ff" stroke="#63b8ff" points="392.92,-464.64 399.25,-456.15 389,-458.84 392.92,-464.64"/>
</a>
</g>
</g>
<!-- Node14&#45;&gt;Node3 -->
<g id="edge16_Node000014_Node000003" class="edge">
<title>Node14&#45;&gt;Node3</title>
<g id="a_edge16_Node000014_Node000003"><a xlink:title=" ">
<path fill="none" stroke="#63b8ff" d="M333.22,-613.22C337.46,-615.94 341.44,-619.02 345,-622.5 378.17,-654.95 348.58,-687.3 381,-720.5 382.84,-722.39 384.83,-724.16 386.92,-725.81"/>
<polygon fill="#63b8ff" stroke="#63b8ff" points="385.22,-728.89 395.44,-731.66 389.17,-723.12 385.22,-728.89"/>
</a>
</g>
</g>
<!-- Node14&#45;&gt;Node5 -->
<g id="edge20_Node000014_Node000005" class="edge">
<title>Node14&#45;&gt;Node5</title>
<g id="a_edge20_Node000014_Node000005"><a xlink:title=" ">
<path fill="none" stroke="#63b8ff" d="M326.55,-613.12C332.95,-615.93 339.2,-619.05 345,-622.5 363.66,-633.59 363,-643.37 381,-655.5 385.95,-658.84 391.28,-662.03 396.71,-665.03"/>
<polygon fill="#63b8ff" stroke="#63b8ff" points="395.44,-668.32 405.92,-669.9 398.71,-662.13 395.44,-668.32"/>
</a>
</g>
</g>
<!-- Node14&#45;&gt;Node7 -->
<g id="edge15_Node000014_Node000007" class="edge">
<title>Node14&#45;&gt;Node7</title>
<g id="a_edge15_Node000014_Node000007"><a xlink:title=" ">
<path fill="none" stroke="#63b8ff" d="M310.27,-571.99C322.32,-566.03 334.63,-558.84 345,-550.5 365.23,-534.23 357.92,-516.39 381,-504.5 444.12,-471.97 646,-475.88 754.48,-480.64"/>
<polygon fill="#63b8ff" stroke="#63b8ff" points="754.53,-484.15 764.68,-481.11 754.84,-477.16 754.53,-484.15"/>
</a>
</g>
</g>
<!-- Node14&#45;&gt;Node11 -->
<g id="edge22_Node000014_Node000011" class="edge">
<title>Node14&#45;&gt;Node11</title>
<g id="a_edge22_Node000014_Node000011"><a xlink:title=" ">
<path fill="none" stroke="#63b8ff" d="M295.04,-571.93C312.84,-560.28 332.83,-544.12 345,-524.5 387.33,-456.29 349.32,-421.26 381,-347.5 393.12,-319.29 413.53,-290.98 429.77,-270.88"/>
<polygon fill="#63b8ff" stroke="#63b8ff" points="432.55,-273.01 436.21,-263.06 427.15,-268.55 432.55,-273.01"/>
</a>
</g>
</g>
<!-- Node15 -->
<g id="Node000015" class="node">
<title>Node15</title>
<g id="a_Node000015"><a xlink:href="classprecice_1_1cplscheme_1_1BaseCouplingScheme.html#a7635edb3017de9279bc550173f44003f" target="_top" xlink:title="Returns the time window size, if one is given by the coupling scheme.">
<polygon fill="white" stroke="#666666" points="519.5,-613 391.5,-613 391.5,-572 519.5,-572 519.5,-613"/>
<text text-anchor="start" x="399.5" y="-601" font-family="Helvetica,sans-Serif" font-size="10.00">precice::cplscheme</text>
<text text-anchor="start" x="399.5" y="-590" font-family="Helvetica,sans-Serif" font-size="10.00">::BaseCouplingScheme</text>
<text text-anchor="middle" x="455.5" y="-579" font-family="Helvetica,sans-Serif" font-size="10.00">::getTimeWindowSize</text>
</a>
</g>
</g>
<!-- Node14&#45;&gt;Node15 -->
<g id="edge17_Node000014_Node000015" class="edge">
<title>Node14&#45;&gt;Node15</title>
<g id="a_edge17_Node000014_Node000015"><a xlink:title=" ">
<path fill="none" stroke="#63b8ff" d="M345.05,-592.5C357.14,-592.5 369.44,-592.5 381.23,-592.5"/>
<polygon fill="#63b8ff" stroke="#63b8ff" points="381.43,-596 391.43,-592.5 381.43,-589 381.43,-596"/>
</a>
</g>
</g>
<!-- Node16 -->
<g id="Node000016" class="node">
<title>Node16</title>
<g id="a_Node000016"><a xlink:href="classprecice_1_1cplscheme_1_1BaseCouplingScheme.html#aa1c82548c80a9c8bb129e115e0f710fe" target="_top" xlink:title="Function to check whether time window size is defined by coupling scheme.">
<polygon fill="white" stroke="#666666" points="710.5,-613 582.5,-613 582.5,-572 710.5,-572 710.5,-613"/>
<text text-anchor="start" x="590.5" y="-601" font-family="Helvetica,sans-Serif" font-size="10.00">precice::cplscheme</text>
<text text-anchor="start" x="590.5" y="-590" font-family="Helvetica,sans-Serif" font-size="10.00">::BaseCouplingScheme</text>
<text text-anchor="middle" x="646.5" y="-579" font-family="Helvetica,sans-Serif" font-size="10.00">::hasTimeWindowSize</text>
</a>
</g>
</g>
<!-- Node14&#45;&gt;Node16 -->
<g id="edge21_Node000014_Node000016" class="edge">
<title>Node14&#45;&gt;Node16</title>
<g id="a_edge21_Node000014_Node000016"><a xlink:title=" ">
<path fill="none" stroke="#63b8ff" d="M329.46,-613.03C346.24,-616.96 364.13,-620.48 381,-622.5 446.75,-630.37 464.31,-630.89 530,-622.5 543.81,-620.74 558.32,-617.83 572.23,-614.51"/>
<polygon fill="#63b8ff" stroke="#63b8ff" points="573.36,-617.83 582.22,-612.02 571.67,-611.04 573.36,-617.83"/>
</a>
</g>
</g>
<!-- Node17 -->
<g id="Node000017" class="node">
<title>Node17</title>
<g id="a_Node000017"><a xlink:href="classprecice_1_1cplscheme_1_1BaseCouplingScheme.html#ae5884457e1339371a60deb846268fc25" target="_top" xlink:title="Setter for _nextTimeWindowSize.">
<polygon fill="white" stroke="#666666" points="528,-554 383,-554 383,-513 528,-513 528,-554"/>
<text text-anchor="start" x="391" y="-542" font-family="Helvetica,sans-Serif" font-size="10.00">precice::cplscheme</text>
<text text-anchor="start" x="391" y="-531" font-family="Helvetica,sans-Serif" font-size="10.00">::BaseCouplingScheme</text>
<text text-anchor="middle" x="455.5" y="-520" font-family="Helvetica,sans-Serif" font-size="10.00">::setNextTimeWindowSize</text>
</a>
</g>
</g>
<!-- Node14&#45;&gt;Node17 -->
<g id="edge23_Node000014_Node000017" class="edge">
<title>Node14&#45;&gt;Node17</title>
<g id="a_edge23_Node000014_Node000017"><a xlink:title=" ">
<path fill="none" stroke="#63b8ff" d="M326.12,-571.95C342.28,-567.11 359.61,-561.92 376.15,-556.96"/>
<polygon fill="#63b8ff" stroke="#63b8ff" points="377.21,-560.3 385.79,-554.08 375.2,-553.59 377.21,-560.3"/>
</a>
</g>
</g>
<!-- Node15&#45;&gt;Node16 -->
<g id="edge18_Node000015_Node000016" class="edge">
<title>Node15&#45;&gt;Node16</title>
<g id="a_edge18_Node000015_Node000016"><a xlink:title=" ">
<path fill="none" stroke="#63b8ff" d="M519.7,-592.5C536.56,-592.5 554.93,-592.5 572.28,-592.5"/>
<polygon fill="#63b8ff" stroke="#63b8ff" points="572.36,-596 582.36,-592.5 572.36,-589 572.36,-596"/>
</a>
</g>
</g>
<!-- Node16&#45;&gt;Node7 -->
<g id="edge19_Node000016_Node000007" class="edge">
<title>Node16&#45;&gt;Node7</title>
<g id="a_edge19_Node000016_Node000007"><a xlink:title=" ">
<path fill="none" stroke="#63b8ff" d="M681.3,-571.93C716.13,-550.74 769.55,-518.24 800.51,-499.4"/>
<polygon fill="#63b8ff" stroke="#63b8ff" points="802.62,-502.21 809.34,-494.03 798.98,-496.23 802.62,-502.21"/>
</a>
</g>
</g>
<!-- Node18&#45;&gt;Node2 -->
<g id="edge25_Node000018_Node000002" class="edge">
<title>Node18&#45;&gt;Node2</title>
<g id="a_edge25_Node000018_Node000002"><a xlink:title=" ">
<path fill="none" stroke="#63b8ff" d="M320.72,-292.48C329.65,-296.53 338.11,-301.76 345,-308.5 378.17,-340.95 348.58,-373.3 381,-406.5 381.67,-407.19 382.36,-407.86 383.07,-408.51"/>
<polygon fill="#63b8ff" stroke="#63b8ff" points="381.19,-411.49 391.2,-414.96 385.54,-406.01 381.19,-411.49"/>
</a>
</g>
</g>
<!-- Node18&#45;&gt;Node11 -->
<g id="edge26_Node000018_Node000011" class="edge">
<title>Node18&#45;&gt;Node11</title>
<g id="a_edge26_Node000018_Node000011"><a xlink:title=" ">
<path fill="none" stroke="#63b8ff" d="M320.64,-266.96C336.49,-264.07 353.74,-260.91 370.43,-257.86"/>
<polygon fill="#63b8ff" stroke="#63b8ff" points="371.52,-261.22 380.73,-255.98 370.26,-254.34 371.52,-261.22"/>
</a>
</g>
</g>
<!-- Node19&#45;&gt;Node8 -->
<g id="edge30_Node000019_Node000008" class="edge">
<title>Node19&#45;&gt;Node8</title>
<g id="a_edge30_Node000019_Node000008"><a xlink:title=" ">
<path fill="none" stroke="#63b8ff" d="M489.3,-120.23C510.67,-133.27 539.43,-149.94 566,-162.5 570.01,-164.39 574.17,-166.26 578.4,-168.07"/>
<polygon fill="#63b8ff" stroke="#63b8ff" points="577.14,-171.34 587.72,-171.95 579.84,-164.88 577.14,-171.34"/>
</a>
</g>
</g>
<!-- Node19&#45;&gt;Node19 -->
<g id="edge31_Node000019_Node000019" class="edge">
<title>Node19&#45;&gt;Node19</title>
<g id="a_edge31_Node000019_Node000019"><a xlink:title=" ">
<path fill="none" stroke="#63b8ff" d="M420.58,-120.1C416.77,-129.65 428.41,-138 455.5,-138 472.43,-138 483.33,-134.74 488.19,-129.96"/>
<polygon fill="#63b8ff" stroke="#63b8ff" points="491.63,-130.62 490.42,-120.1 484.8,-129.08 491.63,-130.62"/>
</a>
</g>
</g>
<!-- Node20 -->
<g id="Node000020" class="node">
<title>Node20</title>
<g id="a_Node000020"><a xlink:href="classprecice_1_1com_1_1serialize_1_1SerializedStamples.html#a914cc916961f26874b078f45ce01e6f5" target="_top" xlink:title="Create SerializedStamples with allocated buffers according to size of CouplingData.">
<polygon fill="white" stroke="#666666" points="723.5,-35.5 569.5,-35.5 569.5,-5.5 723.5,-5.5 723.5,-35.5"/>
<text text-anchor="start" x="577.5" y="-23.5" font-family="Helvetica,sans-Serif" font-size="10.00">precice::com::serialize</text>
<text text-anchor="middle" x="646.5" y="-12.5" font-family="Helvetica,sans-Serif" font-size="10.00">::SerializedStamples::empty</text>
</a>
</g>
</g>
<!-- Node19&#45;&gt;Node20 -->
<g id="edge28_Node000019_Node000020" class="edge">
<title>Node19&#45;&gt;Node20</title>
<g id="a_edge28_Node000019_Node000020"><a xlink:title=" ">
<path fill="none" stroke="#63b8ff" d="M493.77,-78.77C514.61,-67.69 541.3,-54.35 566,-44.5 571.02,-42.5 576.28,-40.57 581.59,-38.73"/>
<polygon fill="#63b8ff" stroke="#63b8ff" points="582.81,-42.02 591.18,-35.53 580.59,-35.38 582.81,-42.02"/>
</a>
</g>
</g>
<!-- Node22 -->
<g id="Node000022" class="node">
<title>Node22</title>
<g id="a_Node000022"><a xlink:href="classprecice_1_1cplscheme_1_1BaseCouplingScheme.html#a83379ed90469cb7710fff88ff52269ac" target="_top" xlink:title=" ">
<polygon fill="white" stroke="#666666" points="727,-154 566,-154 566,-113 727,-113 727,-154"/>
<text text-anchor="start" x="574" y="-142" font-family="Helvetica,sans-Serif" font-size="10.00">precice::cplscheme</text>
<text text-anchor="start" x="574" y="-131" font-family="Helvetica,sans-Serif" font-size="10.00">::BaseCouplingScheme</text>
<text text-anchor="middle" x="646.5" y="-120" font-family="Helvetica,sans-Serif" font-size="10.00">::receiveNumberOfTimeSteps</text>
</a>
</g>
</g>
<!-- Node19&#45;&gt;Node22 -->
<g id="edge32_Node000019_Node000022" class="edge">
<title>Node19&#45;&gt;Node22</title>
<g id="a_edge32_Node000019_Node000022"><a xlink:title=" ">
<path fill="none" stroke="#63b8ff" d="M519.7,-110.87C531.27,-112.95 543.54,-115.16 555.71,-117.35"/>
<polygon fill="#63b8ff" stroke="#63b8ff" points="555.43,-120.85 565.89,-119.18 556.67,-113.96 555.43,-120.85"/>
</a>
</g>
</g>
<!-- Node23 -->
<g id="Node000023" class="node">
<title>Node23</title>
<g id="a_Node000023"><a xlink:href="classprecice_1_1cplscheme_1_1BaseCouplingScheme.html#a700bef351e463eb84836538fd91f16b3" target="_top" xlink:title=" ">
<polygon fill="white" stroke="#666666" points="710.5,-95 582.5,-95 582.5,-54 710.5,-54 710.5,-95"/>
<text text-anchor="start" x="590.5" y="-83" font-family="Helvetica,sans-Serif" font-size="10.00">precice::cplscheme</text>
<text text-anchor="start" x="590.5" y="-72" font-family="Helvetica,sans-Serif" font-size="10.00">::BaseCouplingScheme</text>
<text text-anchor="middle" x="646.5" y="-61" font-family="Helvetica,sans-Serif" font-size="10.00">::receiveTimes</text>
</a>
</g>
</g>
<!-- Node19&#45;&gt;Node23 -->
<g id="edge33_Node000019_Node000023" class="edge">
<title>Node19&#45;&gt;Node23</title>
<g id="a_edge33_Node000019_Node000023"><a xlink:title=" ">
<path fill="none" stroke="#63b8ff" d="M519.7,-91.14C536.56,-88.91 554.93,-86.48 572.28,-84.19"/>
<polygon fill="#63b8ff" stroke="#63b8ff" points="572.91,-87.63 582.36,-82.85 571.99,-80.69 572.91,-87.63"/>
</a>
</g>
</g>
<!-- Node21 -->
<g id="Node000021" class="node">
<title>Node21</title>
<g id="a_Node000021"><a xlink:href="classprecice_1_1com_1_1serialize_1_1SerializedStamples.html#a766834ff07b9fc24a575a98c2fc8c382" target="_top" xlink:title=" ">
<polygon fill="white" stroke="#666666" points="889,-41 763,-41 763,0 889,0 889,-41"/>
<text text-anchor="start" x="771" y="-29" font-family="Helvetica,sans-Serif" font-size="10.00">precice::com::serialize</text>
<text text-anchor="start" x="771" y="-18" font-family="Helvetica,sans-Serif" font-size="10.00">::SerializedStamples::</text>
<text text-anchor="middle" x="826" y="-7" font-family="Helvetica,sans-Serif" font-size="10.00">allocate</text>
</a>
</g>
</g>
<!-- Node20&#45;&gt;Node21 -->
<g id="edge29_Node000020_Node000021" class="edge">
<title>Node20&#45;&gt;Node21</title>
<g id="a_edge29_Node000020_Node000021"><a xlink:title=" ">
<path fill="none" stroke="#63b8ff" d="M723.55,-20.5C733.15,-20.5 742.96,-20.5 752.51,-20.5"/>
<polygon fill="#63b8ff" stroke="#63b8ff" points="752.75,-24 762.75,-20.5 752.75,-17 752.75,-24"/>
</a>
</g>
</g>
<!-- Node24&#45;&gt;Node8 -->
<g id="edge35_Node000024_Node000008" class="edge">
<title>Node24&#45;&gt;Node8</title>
<g id="a_edge35_Node000024_Node000008"><a xlink:title=" ">
<path fill="none" stroke="#63b8ff" d="M333.53,-137.23C349.21,-140.38 365.63,-143.61 381,-146.5 445.55,-158.64 519.18,-171.36 572.34,-180.33"/>
<polygon fill="#63b8ff" stroke="#63b8ff" points="571.91,-183.81 582.35,-182.02 573.07,-176.91 571.91,-183.81"/>
</a>
</g>
</g>
<!-- Node24&#45;&gt;Node19 -->
<g id="edge36_Node000024_Node000019" class="edge">
<title>Node24&#45;&gt;Node19</title>
<g id="a_edge36_Node000024_Node000019"><a xlink:title=" ">
<path fill="none" stroke="#63b8ff" d="M333.67,-112.99C349.3,-111.25 365.72,-109.41 381.25,-107.68"/>
<polygon fill="#63b8ff" stroke="#63b8ff" points="381.75,-111.15 391.3,-106.56 380.98,-104.19 381.75,-111.15"/>
</a>
</g>
</g>
<!-- Node25&#45;&gt;Node11 -->
<g id="edge38_Node000025_Node000011" class="edge">
<title>Node25&#45;&gt;Node11</title>
<g id="a_edge38_Node000025_Node000011"><a xlink:title=" ">
<path fill="none" stroke="#63b8ff" d="M320.64,-226.87C336.49,-228.72 353.74,-230.74 370.43,-232.68"/>
<polygon fill="#63b8ff" stroke="#63b8ff" points="370.39,-236.2 380.73,-233.89 371.2,-229.25 370.39,-236.2"/>
</a>
</g>
</g>
</g>
</svg>

<g id="navigator" transform="translate(0 0)" fill="#404254">
  <rect fill="#f2f5e9" fill-opacity="0.5" stroke="#606060" stroke-width=".5" x="0" y="0" width="60" height="60"/>
  <use id="zoomplus" xlink:href="#zoomPlus" x="17" y="9" onmousedown="handleZoom(evt,'in')"/>
  <use id="zoomminus" xlink:href="#zoomMin" x="42" y="9" onmousedown="handleZoom(evt,'out')"/>
  <use id="reset" xlink:href="#resetDef" x="30" y="36" onmousedown="handleReset()"/>
   <use id="arrowup" xlink:href="#arrowUp" x="0" y="0" onmousedown="handlePan(0,-1)"/>
  <use id="arrowright" xlink:href="#arrowRight" x="0" y="0" onmousedown="handlePan(1,0)"/>
  <use id="arrowdown" xlink:href="#arrowDown" x="0" y="0" onmousedown="handlePan(0,1)"/>
  <use id="arrowleft" xlink:href="#arrowLeft" x="0" y="0" onmousedown="handlePan(-1,0)"/>
</g>
<svg viewBox="0 0 15 15" width="100%" height="30px" preserveAspectRatio="xMaxYMin meet">
 <g id="arrow_out" transform="scale(0.3 0.3)">
  <a xlink:href="classprecice_1_1cplscheme_1_1SerialCouplingScheme_a01fb81334e3eb8f2330b3e83d284db8a_cgraph_org.svg" target="_base">
   <rect id="button" ry="5" rx="5" y="6" x="6" height="38" width="38"
        fill="#f2f5e9" fill-opacity="0.5" stroke="#606060" stroke-width="1.0"/>
   <path id="arrow"
     d="M 11.500037,31.436501 C 11.940474,20.09759 22.043105,11.32322 32.158766,21.979434 L 37.068811,17.246167 C 37.068811,17.246167 37.088388,32 37.088388,32 L 22.160133,31.978069 C 22.160133,31.978069 26.997745,27.140456 26.997745,27.140456 C 18.528582,18.264221 13.291696,25.230495 11.500037,31.436501 z"
     style="fill:#404040;"/>
  </a>
 </g>
</svg>

<style type='text/css'>
<![CDATA[
[data-mouse-over-selected='false'] { opacity: 0.7; }
[data-mouse-over-selected='true']  { opacity: 1.0; }
]]>
</style>
<script type="application/ecmascript"><![CDATA[
document.addEventListener('DOMContentLoaded', (event) => {
  highlightEdges();
  highlightAdjacentNodes();
});
]]></script>
</svg>
