<?xml version="1.0" encoding="UTF-8" standalone="no"?>
<!DOCTYPE svg PUBLIC "-//W3C//DTD SVG 1.1//EN"
 "http://www.w3.org/Graphics/SVG/1.1/DTD/svg11.dtd">
<!-- Generated by graphviz version 2.43.0 (0)
 -->
<!-- Title: precice::mapping::RadialBasisFctSolver&lt; RADIAL_BASIS_FUNCTION_T &gt; Pages: 1 -->
<svg width="178pt" height="341pt"
 viewBox="0.00 0.00 178.00 341.00" xmlns="http://www.w3.org/2000/svg" xmlns:xlink="http://www.w3.org/1999/xlink">
<g id="graph0" class="graph" transform="scale(1 1) rotate(0) translate(4 337)">
<title>precice::mapping::RadialBasisFctSolver&lt; RADIAL_BASIS_FUNCTION_T &gt;</title>
<polygon fill="white" stroke="transparent" points="-4,4 -4,-337 174,-337 174,4 -4,4"/>
<!-- Node1 -->
<g id="node1" class="node">
<title>Node1</title>
<g id="a_node1"><a xlink:title=" ">
<polygon fill="#bfbfbf" stroke="black" points="16.5,-0.5 16.5,-41.5 153.5,-41.5 153.5,-0.5 16.5,-0.5"/>
<text text-anchor="start" x="24.5" y="-29.5" font-family="Helvetica,sans-Serif" font-size="10.00">precice::mapping::Radial</text>
<text text-anchor="start" x="24.5" y="-18.5" font-family="Helvetica,sans-Serif" font-size="10.00">BasisFctSolver&lt; RADIAL</text>
<text text-anchor="middle" x="85" y="-7.5" font-family="Helvetica,sans-Serif" font-size="10.00">_BASIS_FUNCTION_T &gt;</text>
</a>
</g>
</g>
<!-- Node2 -->
<g id="node2" class="node">
<title>Node2</title>
<g id="a_node2"><a xlink:href="classprecice_1_1logging_1_1Logger.html" target="_top" xlink:title="This class provides a lightweight logger.">
<polygon fill="white" stroke="black" points="18.5,-89.5 18.5,-108.5 151.5,-108.5 151.5,-89.5 18.5,-89.5"/>
<text text-anchor="middle" x="85" y="-96.5" font-family="Helvetica,sans-Serif" font-size="10.00">precice::logging::Logger</text>
</a>
</g>
</g>
<!-- Node2&#45;&gt;Node1 -->
<g id="edge1" class="edge">
<title>Node2&#45;&gt;Node1</title>
<path fill="none" stroke="#9a32cd" stroke-dasharray="5,2" d="M85,-79.14C85,-67.73 85,-53.21 85,-41.66"/>
<polygon fill="#9a32cd" stroke="#9a32cd" points="81.5,-79.28 85,-89.28 88.5,-79.28 81.5,-79.28"/>
<text text-anchor="middle" x="97" y="-63" font-family="Helvetica,sans-Serif" font-size="10.00"> _log</text>
</g>
<!-- Node3 -->
<g id="node3" class="node">
<title>Node3</title>
<g id="a_node3"><a xlink:title=" ">
<polygon fill="white" stroke="#bfbfbf" points="0,-156.5 0,-186.5 170,-186.5 170,-156.5 0,-156.5"/>
<text text-anchor="start" x="8" y="-174.5" font-family="Helvetica,sans-Serif" font-size="10.00">std::unique_ptr&lt; precice</text>
<text text-anchor="middle" x="85" y="-163.5" font-family="Helvetica,sans-Serif" font-size="10.00">::logging::Logger::LoggerImpl &gt;</text>
</a>
</g>
</g>
<!-- Node3&#45;&gt;Node2 -->
<g id="edge2" class="edge">
<title>Node3&#45;&gt;Node2</title>
<path fill="none" stroke="#9a32cd" stroke-dasharray="5,2" d="M85,-146.09C85,-133.21 85,-118.2 85,-108.89"/>
<polygon fill="#9a32cd" stroke="#9a32cd" points="81.5,-146.23 85,-156.23 88.5,-146.23 81.5,-146.23"/>
<text text-anchor="middle" x="100.5" y="-130" font-family="Helvetica,sans-Serif" font-size="10.00"> _impl</text>
</g>
<!-- Node4 -->
<g id="node4" class="node">
<title>Node4</title>
<g id="a_node4"><a xlink:href="classprecice_1_1logging_1_1Logger_1_1LoggerImpl.html" target="_top" xlink:title=" ">
<polygon fill="white" stroke="black" points="18.5,-234.5 18.5,-264.5 151.5,-264.5 151.5,-234.5 18.5,-234.5"/>
<text text-anchor="start" x="26.5" y="-252.5" font-family="Helvetica,sans-Serif" font-size="10.00">precice::logging::Logger</text>
<text text-anchor="middle" x="85" y="-241.5" font-family="Helvetica,sans-Serif" font-size="10.00">::LoggerImpl</text>
</a>
</g>
</g>
<!-- Node4&#45;&gt;Node3 -->
<g id="edge3" class="edge">
<title>Node4&#45;&gt;Node3</title>
<path fill="none" stroke="#9a32cd" stroke-dasharray="5,2" d="M85,-224.09C85,-211.76 85,-197.22 85,-186.73"/>
<polygon fill="#9a32cd" stroke="#9a32cd" points="81.5,-224.2 85,-234.2 88.5,-224.21 81.5,-224.2"/>
<text text-anchor="middle" x="93.5" y="-208" font-family="Helvetica,sans-Serif" font-size="10.00"> ptr</text>
</g>
<!-- Node5 -->
<g id="node5" class="node">
<title>Node5</title>
<g id="a_node5"><a xlink:title=" ">
<polygon fill="white" stroke="#bfbfbf" points="24,-302.5 24,-332.5 146,-332.5 146,-302.5 24,-302.5"/>
<text text-anchor="start" x="32" y="-320.5" font-family="Helvetica,sans-Serif" font-size="10.00">BoostLogger&lt; Logger</text>
<text text-anchor="middle" x="85" y="-309.5" font-family="Helvetica,sans-Serif" font-size="10.00">::LoggerImpl &gt;</text>
</a>
</g>
</g>
<!-- Node5&#45;&gt;Node4 -->
<g id="edge4" class="edge">
<title>Node5&#45;&gt;Node4</title>
<path fill="none" stroke="midnightblue" d="M85,-292.03C85,-282.86 85,-272.74 85,-264.79"/>
<polygon fill="midnightblue" stroke="midnightblue" points="81.5,-292.18 85,-302.18 88.5,-292.18 81.5,-292.18"/>
</g>
</g>
</svg>
