<?xml version="1.0" encoding="UTF-8" standalone="no"?>
<!DOCTYPE svg PUBLIC "-//W3C//DTD SVG 1.1//EN"
 "http://www.w3.org/Graphics/SVG/1.1/DTD/svg11.dtd">
<!-- Generated by graphviz version 2.43.0 (0)
 -->
<!-- Title: precice::com::Communication::reduceSum Pages: 1 -->
<svg width="368pt" height="78pt"
 viewBox="0.00 0.00 368.00 77.50" xmlns="http://www.w3.org/2000/svg" xmlns:xlink="http://www.w3.org/1999/xlink">
<g id="graph0" class="graph" transform="scale(1 1) rotate(0) translate(4 73.5)">
<title>precice::com::Communication::reduceSum</title>
<polygon fill="white" stroke="transparent" points="-4,4 -4,-73.5 364,-73.5 364,4 -4,4"/>
<!-- Node1 -->
<g id="node1" class="node">
<title>Node1</title>
<g id="a_node1"><a xlink:title="Performs a reduce summation on the rank given by primaryRank.">
<polygon fill="#bfbfbf" stroke="black" points="0,-17 0,-47 162,-47 162,-17 0,-17"/>
<text text-anchor="start" x="8" y="-35" font-family="Helvetica,sans-Serif" font-size="10.00">precice::com::Communication</text>
<text text-anchor="middle" x="81" y="-24" font-family="Helvetica,sans-Serif" font-size="10.00">::reduceSum</text>
</a>
</g>
</g>
<!-- Node2 -->
<g id="node2" class="node">
<title>Node2</title>
<g id="a_node2"><a xlink:href="classprecice_1_1com_1_1Communication.html#a1c988cdf4b433bc63b4b876dba5324fb" target="_top" xlink:title=" ">
<polygon fill="white" stroke="black" points="198,-39 198,-69 360,-69 360,-39 198,-39"/>
<text text-anchor="start" x="206" y="-57" font-family="Helvetica,sans-Serif" font-size="10.00">precice::com::Communication</text>
<text text-anchor="middle" x="279" y="-46" font-family="Helvetica,sans-Serif" font-size="10.00">::aSend</text>
</a>
</g>
</g>
<!-- Node1&#45;&gt;Node2 -->
<g id="edge1" class="edge">
<title>Node1&#45;&gt;Node2</title>
<path fill="none" stroke="midnightblue" d="M162,-40.98C170.52,-41.94 179.23,-42.91 187.86,-43.88"/>
<polygon fill="midnightblue" stroke="midnightblue" points="187.61,-47.38 197.93,-45.01 188.39,-40.42 187.61,-47.38"/>
</g>
<!-- Node3 -->
<g id="node3" class="node">
<title>Node3</title>
<g id="a_node3"><a xlink:href="classprecice_1_1span.html#a47dd9f5471352ea4105ab001836273ee" target="_top" xlink:title=" ">
<polygon fill="white" stroke="black" points="225.5,-0.5 225.5,-19.5 332.5,-19.5 332.5,-0.5 225.5,-0.5"/>
<text text-anchor="middle" x="279" y="-7.5" font-family="Helvetica,sans-Serif" font-size="10.00">precice::span::size</text>
</a>
</g>
</g>
<!-- Node1&#45;&gt;Node3 -->
<g id="edge2" class="edge">
<title>Node1&#45;&gt;Node3</title>
<path fill="none" stroke="midnightblue" d="M162,-23.02C179.71,-21.03 198.23,-18.95 215.14,-17.06"/>
<polygon fill="midnightblue" stroke="midnightblue" points="215.89,-20.49 225.44,-15.9 215.11,-13.54 215.89,-20.49"/>
</g>
</g>
</svg>
