<?xml version="1.0" encoding="UTF-8" standalone="no"?>
<!DOCTYPE svg PUBLIC "-//W3C//DTD SVG 1.1//EN"
 "http://www.w3.org/Graphics/SVG/1.1/DTD/svg11.dtd">
<!-- Generated by graphviz version 2.43.0 (0)
 -->
<!-- Title: precice::partition::ReceivedPartition::compareBoundingBoxes Pages: 1 -->
<!--zoomable 592 -->
<svg id="main" version="1.1" xmlns="http://www.w3.org/2000/svg" xmlns:xlink="http://www.w3.org/1999/xlink" xml:space="preserve" onload="init(evt)">
<style type="text/css"><![CDATA[
.edge:hover path { stroke: red; }
.edge:hover polygon { stroke: red; fill: red; }
]]></style>
<script type="text/javascript"><![CDATA[
var edges = document.getElementsByTagName('g');
if (edges && edges.length) {
  for (var i=0;i<edges.length;i++) {
    if (edges[i].id.substr(0,4)=='edge') {
      edges[i].setAttribute('class','edge');
    }
  }
}
]]></script>
        <defs>
                <circle id="rim" cx="0" cy="0" r="7"/>
                <circle id="rim2" cx="0" cy="0" r="3.5"/>
                <g id="zoomPlus">
                        <use xlink:href="#rim" fill="#404040">
                                <set attributeName="fill" to="#808080" begin="zoomplus.mouseover" end="zoomplus.mouseout"/>
                        </use>
                        <path d="M-4,0h8M0,-4v8" fill="none" stroke="white" stroke-width="1.5" pointer-events="none"/>
                </g>
                <g id="zoomMin">
                        <use xlink:href="#rim" fill="#404040">
                                <set attributeName="fill" to="#808080" begin="zoomminus.mouseover" end="zoomminus.mouseout"/>
                        </use>
                        <path d="M-4,0h8" fill="none" stroke="white" stroke-width="1.5" pointer-events="none"/>
                </g>
                <g id="dirArrow">
                        <path fill="none" stroke="white" stroke-width="1.5" d="M0,-3.0v7 M-2.5,-0.5L0,-3.0L2.5,-0.5"/>
                </g>
               <g id="resetDef">
                       <use xlink:href="#rim2" fill="#404040">
                               <set attributeName="fill" to="#808080" begin="reset.mouseover" end="reset.mouseout"/>
                       </use>
               </g>
        </defs>

<script type="text/javascript">
var viewWidth = 819;
var viewHeight = 592;
var sectionId = 'dynsection-3';
</script>
<script xlink:href="svgpan.js"/>
<svg id="graph" class="graph">
<g id="viewport">
<title>precice::partition::ReceivedPartition::compareBoundingBoxes</title>
<polygon fill="white" stroke="transparent" points="-4,4 -4,-588 815,-588 815,4 -4,4"/>
<!-- Node1 -->
<g id="node1" class="node">
<title>Node1</title>
<g id="a_node1"><a xlink:title="Intersections between bounding boxes around each rank are computed.">
<polygon fill="#bfbfbf" stroke="black" points="0,-266 0,-307 140,-307 140,-266 0,-266"/>
<text text-anchor="start" x="8" y="-295" font-family="Helvetica,sans-Serif" font-size="10.00">precice::partition</text>
<text text-anchor="start" x="8" y="-284" font-family="Helvetica,sans-Serif" font-size="10.00">::ReceivedPartition</text>
<text text-anchor="middle" x="70" y="-273" font-family="Helvetica,sans-Serif" font-size="10.00">::compareBoundingBoxes</text>
</a>
</g>
</g>
<!-- Node2 -->
<g id="node2" class="node">
<title>Node2</title>
<g id="a_node2"><a xlink:href="classprecice_1_1utils_1_1IntraComm.html#a557db722e7bfe5d237d0e7ed51851a44" target="_top" xlink:title="Returns an iterable range over salve ranks [1, _size)">
<polygon fill="white" stroke="black" points="216,-553.5 216,-583.5 356,-583.5 356,-553.5 216,-553.5"/>
<text text-anchor="start" x="224" y="-571.5" font-family="Helvetica,sans-Serif" font-size="10.00">precice::utils::IntraComm</text>
<text text-anchor="middle" x="286" y="-560.5" font-family="Helvetica,sans-Serif" font-size="10.00">::allSecondaryRanks</text>
</a>
</g>
</g>
<!-- Node1&#45;&gt;Node2 -->
<g id="edge1" class="edge">
<title>Node1&#45;&gt;Node2</title>
<path fill="none" stroke="midnightblue" d="M73.09,-307.2C79.21,-356.28 101.61,-480.31 176,-543.5 184.7,-550.89 195.15,-556.2 206.09,-560"/>
<polygon fill="midnightblue" stroke="midnightblue" points="205.21,-563.4 215.79,-562.97 207.25,-556.7 205.21,-563.4"/>
</g>
<!-- Node3 -->
<g id="node3" class="node">
<title>Node3</title>
<g id="a_node3"><a xlink:href="classprecice_1_1com_1_1CommunicateBoundingBox.html#ab2628ac97698c3b6820dc6200c063b52" target="_top" xlink:title="Secondary ranks call this method to receive the set of bounding boxes sent by the primary rank.">
<polygon fill="white" stroke="black" points="176,-493 176,-534 396,-534 396,-493 176,-493"/>
<text text-anchor="start" x="184" y="-522" font-family="Helvetica,sans-Serif" font-size="10.00">precice::com::Communicate</text>
<text text-anchor="start" x="184" y="-511" font-family="Helvetica,sans-Serif" font-size="10.00">BoundingBox::broadcastReceiveBounding</text>
<text text-anchor="middle" x="286" y="-500" font-family="Helvetica,sans-Serif" font-size="10.00">BoxMap</text>
</a>
</g>
</g>
<!-- Node1&#45;&gt;Node3 -->
<g id="edge2" class="edge">
<title>Node1&#45;&gt;Node3</title>
<path fill="none" stroke="midnightblue" d="M76.16,-307.3C87.26,-347.61 117.29,-436.53 176,-483.5 177.81,-484.94 179.68,-486.32 181.6,-487.63"/>
<polygon fill="midnightblue" stroke="midnightblue" points="180,-490.75 190.36,-492.96 183.64,-484.77 180,-490.75"/>
</g>
<!-- Node4 -->
<g id="node4" class="node">
<title>Node4</title>
<g id="a_node4"><a xlink:href="classprecice_1_1com_1_1CommunicateBoundingBox.html#a6bc36313cbfc142005cce076e00fd5ca" target="_top" xlink:title="This method broadcasts the set of bounding boxes (gathered in the primary rank) to the secondary rank...">
<polygon fill="white" stroke="black" points="183.5,-433 183.5,-474 388.5,-474 388.5,-433 183.5,-433"/>
<text text-anchor="start" x="191.5" y="-462" font-family="Helvetica,sans-Serif" font-size="10.00">precice::com::Communicate</text>
<text text-anchor="start" x="191.5" y="-451" font-family="Helvetica,sans-Serif" font-size="10.00">BoundingBox::broadcastSendBounding</text>
<text text-anchor="middle" x="286" y="-440" font-family="Helvetica,sans-Serif" font-size="10.00">BoxMap</text>
</a>
</g>
</g>
<!-- Node1&#45;&gt;Node4 -->
<g id="edge3" class="edge">
<title>Node1&#45;&gt;Node4</title>
<path fill="none" stroke="midnightblue" d="M81.17,-307.08C97.15,-337.26 131.01,-393.2 176,-423.5 178.56,-425.23 181.22,-426.85 183.96,-428.39"/>
<polygon fill="midnightblue" stroke="midnightblue" points="182.43,-431.53 192.92,-432.98 185.62,-425.3 182.43,-431.53"/>
</g>
<!-- Node5 -->
<g id="node5" class="node">
<title>Node5</title>
<g id="a_node5"><a xlink:href="classprecice_1_1utils_1_1IntraComm.html#a7daafddc884c6dc168e2add48733cde4" target="_top" xlink:title="Intra&#45;participant communication.">
<polygon fill="white" stroke="black" points="216,-383.5 216,-413.5 356,-413.5 356,-383.5 216,-383.5"/>
<text text-anchor="start" x="224" y="-401.5" font-family="Helvetica,sans-Serif" font-size="10.00">precice::utils::IntraComm</text>
<text text-anchor="middle" x="286" y="-390.5" font-family="Helvetica,sans-Serif" font-size="10.00">::getCommunication</text>
</a>
</g>
</g>
<!-- Node1&#45;&gt;Node5 -->
<g id="edge4" class="edge">
<title>Node1&#45;&gt;Node5</title>
<path fill="none" stroke="midnightblue" d="M89.82,-307.26C109.37,-327.53 141.85,-357.7 176,-374.5 185.36,-379.1 195.59,-382.83 205.93,-385.85"/>
<polygon fill="midnightblue" stroke="midnightblue" points="205.28,-389.3 215.84,-388.53 207.1,-382.54 205.28,-389.3"/>
</g>
<!-- Node6 -->
<g id="node6" class="node">
<title>Node6</title>
<g id="a_node6"><a xlink:href="classprecice_1_1m2n_1_1M2N.html#a882b2d2e18f055562809030586aa9a2c" target="_top" xlink:title="Get the basic communication between the 2 primary ranks.">
<polygon fill="white" stroke="black" points="199.5,-334.5 199.5,-364.5 372.5,-364.5 372.5,-334.5 199.5,-334.5"/>
<text text-anchor="start" x="207.5" y="-352.5" font-family="Helvetica,sans-Serif" font-size="10.00">precice::m2n::M2N::</text>
<text text-anchor="middle" x="286" y="-341.5" font-family="Helvetica,sans-Serif" font-size="10.00">getPrimaryRankCommunication</text>
</a>
</g>
</g>
<!-- Node1&#45;&gt;Node6 -->
<g id="edge5" class="edge">
<title>Node1&#45;&gt;Node6</title>
<path fill="none" stroke="midnightblue" d="M135.02,-307.02C148.53,-311.24 162.71,-315.58 176,-319.5 189.92,-323.6 204.89,-327.84 219.15,-331.79"/>
<polygon fill="midnightblue" stroke="midnightblue" points="218.31,-335.18 228.88,-334.47 220.17,-328.44 218.31,-335.18"/>
</g>
<!-- Node7 -->
<g id="node7" class="node">
<title>Node7</title>
<g id="a_node7"><a xlink:href="classprecice_1_1utils_1_1IntraComm.html#abde303b11e46851ae65dca65ef06daad" target="_top" xlink:title="True if this process is running a secondary rank.">
<polygon fill="white" stroke="black" points="456,-306.5 456,-336.5 596,-336.5 596,-306.5 456,-306.5"/>
<text text-anchor="start" x="464" y="-324.5" font-family="Helvetica,sans-Serif" font-size="10.00">precice::utils::IntraComm</text>
<text text-anchor="middle" x="526" y="-313.5" font-family="Helvetica,sans-Serif" font-size="10.00">::isSecondary</text>
</a>
</g>
</g>
<!-- Node1&#45;&gt;Node7 -->
<g id="edge8" class="edge">
<title>Node1&#45;&gt;Node7</title>
<path fill="none" stroke="midnightblue" d="M140.45,-291.85C222.76,-298.2 359.61,-308.75 445.92,-315.4"/>
<polygon fill="midnightblue" stroke="midnightblue" points="445.69,-318.9 455.93,-316.18 446.23,-311.92 445.69,-318.9"/>
</g>
<!-- Node8 -->
<g id="node8" class="node">
<title>Node8</title>
<g id="a_node8"><a xlink:href="classprecice_1_1utils_1_1IntraComm.html#a3e69605ac1a3f9f8c82471ba52624f5d" target="_top" xlink:title="True if this process is running the primary rank.">
<polygon fill="white" stroke="black" points="456,-241.5 456,-271.5 596,-271.5 596,-241.5 456,-241.5"/>
<text text-anchor="start" x="464" y="-259.5" font-family="Helvetica,sans-Serif" font-size="10.00">precice::utils::IntraComm</text>
<text text-anchor="middle" x="526" y="-248.5" font-family="Helvetica,sans-Serif" font-size="10.00">::isPrimary</text>
</a>
</g>
</g>
<!-- Node1&#45;&gt;Node8 -->
<g id="edge7" class="edge">
<title>Node1&#45;&gt;Node8</title>
<path fill="none" stroke="midnightblue" d="M140.45,-281.91C222.76,-276.47 359.61,-267.43 445.92,-261.73"/>
<polygon fill="midnightblue" stroke="midnightblue" points="446.19,-265.22 455.93,-261.06 445.72,-258.23 446.19,-265.22"/>
</g>
<!-- Node9 -->
<g id="node9" class="node">
<title>Node9</title>
<g id="a_node9"><a xlink:href="classprecice_1_1partition_1_1ReceivedPartition.html#a69b23d89ee3c0128d6a4b3979a9e9134" target="_top" xlink:title="return the one m2n, a ReceivedPartition can only have one m2n">
<polygon fill="white" stroke="black" points="218,-208.5 218,-238.5 354,-238.5 354,-208.5 218,-208.5"/>
<text text-anchor="start" x="226" y="-226.5" font-family="Helvetica,sans-Serif" font-size="10.00">precice::partition</text>
<text text-anchor="middle" x="286" y="-215.5" font-family="Helvetica,sans-Serif" font-size="10.00">::ReceivedPartition::m2n</text>
</a>
</g>
</g>
<!-- Node1&#45;&gt;Node9 -->
<g id="edge9" class="edge">
<title>Node1&#45;&gt;Node9</title>
<path fill="none" stroke="midnightblue" d="M135.02,-265.98C148.53,-261.76 162.71,-257.42 176,-253.5 189.92,-249.4 204.89,-245.16 219.15,-241.21"/>
<polygon fill="midnightblue" stroke="midnightblue" points="220.17,-244.56 228.88,-238.53 218.31,-237.82 220.17,-244.56"/>
</g>
<!-- Node10 -->
<g id="node10" class="node">
<title>Node10</title>
<g id="a_node10"><a xlink:href="classprecice_1_1mesh_1_1BoundingBox.html#a43662ca1ce0345a554759e233426b5a8" target="_top" xlink:title="Checks whether two bounding boxes are overlapping.">
<polygon fill="white" stroke="black" points="208.5,-159.5 208.5,-189.5 363.5,-189.5 363.5,-159.5 208.5,-159.5"/>
<text text-anchor="start" x="216.5" y="-177.5" font-family="Helvetica,sans-Serif" font-size="10.00">precice::mesh::BoundingBox</text>
<text text-anchor="middle" x="286" y="-166.5" font-family="Helvetica,sans-Serif" font-size="10.00">::overlapping</text>
</a>
</g>
</g>
<!-- Node1&#45;&gt;Node10 -->
<g id="edge10" class="edge">
<title>Node1&#45;&gt;Node10</title>
<path fill="none" stroke="midnightblue" d="M90.26,-265.67C109.92,-245.69 142.25,-216.17 176,-199.5 183.18,-195.96 190.87,-192.9 198.73,-190.28"/>
<polygon fill="midnightblue" stroke="midnightblue" points="199.86,-193.59 208.37,-187.28 197.78,-186.91 199.86,-193.59"/>
</g>
<!-- Node11 -->
<g id="node11" class="node">
<title>Node11</title>
<g id="a_node11"><a xlink:href="classprecice_1_1partition_1_1ReceivedPartition.html#a11e0569cee2a123b5af63d4b15e19fb0" target="_top" xlink:title="Sets _bb to the union with the mesh from fromMapping resp. toMapping, also enlage by _safetyFactor.">
<polygon fill="white" stroke="black" points="223.5,-99 223.5,-140 348.5,-140 348.5,-99 223.5,-99"/>
<text text-anchor="start" x="231.5" y="-128" font-family="Helvetica,sans-Serif" font-size="10.00">precice::partition</text>
<text text-anchor="start" x="231.5" y="-117" font-family="Helvetica,sans-Serif" font-size="10.00">::ReceivedPartition</text>
<text text-anchor="middle" x="286" y="-106" font-family="Helvetica,sans-Serif" font-size="10.00">::prepareBoundingBox</text>
</a>
</g>
</g>
<!-- Node1&#45;&gt;Node11 -->
<g id="edge11" class="edge">
<title>Node1&#45;&gt;Node11</title>
<path fill="none" stroke="midnightblue" d="M81.51,-265.62C97.69,-235.61 131.54,-180.6 176,-150.5 187.34,-142.82 200.57,-137.03 213.83,-132.66"/>
<polygon fill="midnightblue" stroke="midnightblue" points="214.91,-135.99 223.46,-129.73 212.87,-129.29 214.91,-135.99"/>
</g>
<!-- Node16 -->
<g id="node16" class="node">
<title>Node16</title>
<g id="a_node16"><a xlink:href="classprecice_1_1com_1_1CommunicateBoundingBox.html#ae4cbec2a499745e814217763aa0e3c67" target="_top" xlink:title=" ">
<polygon fill="white" stroke="black" points="181.5,-49.5 181.5,-79.5 390.5,-79.5 390.5,-49.5 181.5,-49.5"/>
<text text-anchor="start" x="189.5" y="-67.5" font-family="Helvetica,sans-Serif" font-size="10.00">precice::com::Communicate</text>
<text text-anchor="middle" x="286" y="-56.5" font-family="Helvetica,sans-Serif" font-size="10.00">BoundingBox::receiveBoundingBoxMap</text>
</a>
</g>
</g>
<!-- Node1&#45;&gt;Node16 -->
<g id="edge17" class="edge">
<title>Node1&#45;&gt;Node16</title>
<path fill="none" stroke="midnightblue" d="M75.9,-265.79C86.63,-225.23 116.14,-135.32 176,-89.5 178.35,-87.7 180.8,-86.03 183.34,-84.47"/>
<polygon fill="midnightblue" stroke="midnightblue" points="185.16,-87.47 192.28,-79.62 181.82,-81.32 185.16,-87.47"/>
</g>
<!-- Node18 -->
<g id="node18" class="node">
<title>Node18</title>
<g id="a_node18"><a xlink:href="classprecice_1_1com_1_1CommunicateBoundingBox.html#a6caaaf4a0634b9f59e2844c8e87b7b39" target="_top" xlink:title=" ">
<polygon fill="white" stroke="black" points="193,-0.5 193,-30.5 379,-30.5 379,-0.5 193,-0.5"/>
<text text-anchor="start" x="201" y="-18.5" font-family="Helvetica,sans-Serif" font-size="10.00">precice::com::Communicate</text>
<text text-anchor="middle" x="286" y="-7.5" font-family="Helvetica,sans-Serif" font-size="10.00">BoundingBox::sendConnectionMap</text>
</a>
</g>
</g>
<!-- Node1&#45;&gt;Node18 -->
<g id="edge19" class="edge">
<title>Node1&#45;&gt;Node18</title>
<path fill="none" stroke="midnightblue" d="M73.43,-265.84C80.19,-218.06 103.75,-99.47 176,-39.5 178.57,-37.37 181.29,-35.41 184.13,-33.62"/>
<polygon fill="midnightblue" stroke="midnightblue" points="185.91,-36.63 192.96,-28.72 182.52,-30.51 185.91,-36.63"/>
</g>
<!-- Node6&#45;&gt;Node7 -->
<g id="edge6" class="edge">
<title>Node6&#45;&gt;Node7</title>
<path fill="none" stroke="midnightblue" d="M372.59,-339.43C396.39,-336.63 422.12,-333.6 445.55,-330.85"/>
<polygon fill="midnightblue" stroke="midnightblue" points="446.27,-334.29 455.79,-329.64 445.45,-327.33 446.27,-334.29"/>
</g>
<!-- Node11&#45;&gt;Node8 -->
<g id="edge14" class="edge">
<title>Node11&#45;&gt;Node8</title>
<path fill="none" stroke="midnightblue" d="M348.74,-128.5C365.28,-133.1 382.33,-140.03 396,-150.5 420.69,-169.41 409.14,-189.42 432,-210.5 443.73,-221.32 458.48,-230.16 472.76,-237.09"/>
<polygon fill="midnightblue" stroke="midnightblue" points="471.48,-240.36 482.03,-241.38 474.42,-234.01 471.48,-240.36"/>
</g>
<!-- Node12 -->
<g id="node12" class="node">
<title>Node12</title>
<g id="a_node12"><a xlink:href="classprecice_1_1mesh_1_1BoundingBox.html#a7aeb328ca8291253c4fd22d0d4cb0a18" target="_top" xlink:title="Expand bounding box using another bounding box.">
<polygon fill="white" stroke="black" points="448.5,-170.5 448.5,-200.5 603.5,-200.5 603.5,-170.5 448.5,-170.5"/>
<text text-anchor="start" x="456.5" y="-188.5" font-family="Helvetica,sans-Serif" font-size="10.00">precice::mesh::BoundingBox</text>
<text text-anchor="middle" x="526" y="-177.5" font-family="Helvetica,sans-Serif" font-size="10.00">::expandBy</text>
</a>
</g>
</g>
<!-- Node11&#45;&gt;Node12 -->
<g id="edge12" class="edge">
<title>Node11&#45;&gt;Node12</title>
<path fill="none" stroke="midnightblue" d="M348.69,-137.13C374.42,-144.44 404.64,-152.95 432,-160.5 440.64,-162.88 449.74,-165.36 458.73,-167.8"/>
<polygon fill="midnightblue" stroke="midnightblue" points="457.84,-171.18 468.41,-170.41 459.67,-164.43 457.84,-171.18"/>
</g>
<!-- Node13 -->
<g id="node13" class="node">
<title>Node13</title>
<g id="a_node13"><a xlink:href="classprecice_1_1partition_1_1ReceivedPartition.html#a5853d21d71e146e0d7e01f42718535a7" target="_top" xlink:title="Returns whether any mapping is defined.">
<polygon fill="white" stroke="black" points="472,-110 472,-151 580,-151 580,-110 472,-110"/>
<text text-anchor="start" x="480" y="-139" font-family="Helvetica,sans-Serif" font-size="10.00">precice::partition</text>
<text text-anchor="start" x="480" y="-128" font-family="Helvetica,sans-Serif" font-size="10.00">::ReceivedPartition</text>
<text text-anchor="middle" x="526" y="-117" font-family="Helvetica,sans-Serif" font-size="10.00">::hasAnyMapping</text>
</a>
</g>
</g>
<!-- Node11&#45;&gt;Node13 -->
<g id="edge13" class="edge">
<title>Node11&#45;&gt;Node13</title>
<path fill="none" stroke="midnightblue" d="M348.6,-122.35C383.32,-123.95 426.62,-125.95 461.63,-127.57"/>
<polygon fill="midnightblue" stroke="midnightblue" points="461.59,-131.07 471.74,-128.04 461.91,-124.08 461.59,-131.07"/>
</g>
<!-- Node14 -->
<g id="node14" class="node">
<title>Node14</title>
<g id="a_node14"><a xlink:href="classprecice_1_1mesh_1_1BoundingBox.html#adea1f81626a574ad0cb5d794cee8b1f6" target="_top" xlink:title="Increase the size of bounding box by safety margin.">
<polygon fill="white" stroke="black" points="448.5,-60.5 448.5,-90.5 603.5,-90.5 603.5,-60.5 448.5,-60.5"/>
<text text-anchor="start" x="456.5" y="-78.5" font-family="Helvetica,sans-Serif" font-size="10.00">precice::mesh::BoundingBox</text>
<text text-anchor="middle" x="526" y="-67.5" font-family="Helvetica,sans-Serif" font-size="10.00">::scaleBy</text>
</a>
</g>
</g>
<!-- Node11&#45;&gt;Node14 -->
<g id="edge15" class="edge">
<title>Node11&#45;&gt;Node14</title>
<path fill="none" stroke="midnightblue" d="M348.6,-108.11C375.95,-103.06 408.61,-97.02 438.36,-91.52"/>
<polygon fill="midnightblue" stroke="midnightblue" points="439.13,-94.94 448.32,-89.68 437.85,-88.05 439.13,-94.94"/>
</g>
<!-- Node15 -->
<g id="node15" class="node">
<title>Node15</title>
<g id="a_node15"><a xlink:href="classprecice_1_1mesh_1_1BoundingBox.html#a47cc0759796a01675620119783a11d8d" target="_top" xlink:title="Check whether the bounding box is at default state or not.">
<polygon fill="white" stroke="black" points="656,-60.5 656,-90.5 811,-90.5 811,-60.5 656,-60.5"/>
<text text-anchor="start" x="664" y="-78.5" font-family="Helvetica,sans-Serif" font-size="10.00">precice::mesh::BoundingBox</text>
<text text-anchor="middle" x="733.5" y="-67.5" font-family="Helvetica,sans-Serif" font-size="10.00">::empty</text>
</a>
</g>
</g>
<!-- Node14&#45;&gt;Node15 -->
<g id="edge16" class="edge">
<title>Node14&#45;&gt;Node15</title>
<path fill="none" stroke="midnightblue" d="M603.52,-75.5C617.29,-75.5 631.74,-75.5 645.78,-75.5"/>
<polygon fill="midnightblue" stroke="midnightblue" points="645.92,-79 655.92,-75.5 645.92,-72 645.92,-79"/>
</g>
<!-- Node17 -->
<g id="node17" class="node">
<title>Node17</title>
<g id="a_node17"><a xlink:href="classprecice_1_1com_1_1CommunicateBoundingBox.html#a98b475f8c420f0e4cd72beb6a6922957" target="_top" xlink:title=" ">
<polygon fill="white" stroke="black" points="432,-11.5 432,-41.5 620,-41.5 620,-11.5 432,-11.5"/>
<text text-anchor="start" x="440" y="-29.5" font-family="Helvetica,sans-Serif" font-size="10.00">precice::com::Communicate</text>
<text text-anchor="middle" x="526" y="-18.5" font-family="Helvetica,sans-Serif" font-size="10.00">BoundingBox::receiveBoundingBox</text>
</a>
</g>
</g>
<!-- Node16&#45;&gt;Node17 -->
<g id="edge18" class="edge">
<title>Node16&#45;&gt;Node17</title>
<path fill="none" stroke="midnightblue" d="M381.06,-49.48C394.32,-47.37 408,-45.18 421.42,-43.04"/>
<polygon fill="midnightblue" stroke="midnightblue" points="422.3,-46.44 431.62,-41.41 421.19,-39.53 422.3,-46.44"/>
</g>
</g>
</svg>
        <g id="navigator" transform="translate(0 0)" fill="#404254">
                <rect fill="#f2f5e9" fill-opacity="0.5" stroke="#606060" stroke-width=".5" x="0" y="0" width="60" height="60"/>
                <use id="zoomplus" xlink:href="#zoomPlus" x="17" y="9" onmousedown="handleZoom(evt,'in')"/>
                <use id="zoomminus" xlink:href="#zoomMin" x="42" y="9" onmousedown="handleZoom(evt,'out')"/>
                <use id="reset" xlink:href="#resetDef" x="30" y="36" onmousedown="handleReset()"/>
                <g id="arrowUp" xlink:href="#dirArrow" transform="translate(30 24)" onmousedown="handlePan(0,-1)">
                  <use xlink:href="#rim" fill="#404040">
                        <set attributeName="fill" to="#808080" begin="arrowUp.mouseover" end="arrowUp.mouseout"/>
                  </use>
                  <path fill="none" stroke="white" stroke-width="1.5" d="M0,-3.0v7 M-2.5,-0.5L0,-3.0L2.5,-0.5"/>
                </g>
                <g id="arrowRight" xlink:href="#dirArrow" transform="rotate(90) translate(36 -43)" onmousedown="handlePan(1,0)">
                  <use xlink:href="#rim" fill="#404040">
                        <set attributeName="fill" to="#808080" begin="arrowRight.mouseover" end="arrowRight.mouseout"/>
                  </use>
                  <path fill="none" stroke="white" stroke-width="1.5" d="M0,-3.0v7 M-2.5,-0.5L0,-3.0L2.5,-0.5"/>
                </g>
                <g id="arrowDown" xlink:href="#dirArrow" transform="rotate(180) translate(-30 -48)" onmousedown="handlePan(0,1)">
                  <use xlink:href="#rim" fill="#404040">
                        <set attributeName="fill" to="#808080" begin="arrowDown.mouseover" end="arrowDown.mouseout"/>
                  </use>
                  <path fill="none" stroke="white" stroke-width="1.5" d="M0,-3.0v7 M-2.5,-0.5L0,-3.0L2.5,-0.5"/>
                </g>
                <g id="arrowLeft" xlink:href="#dirArrow" transform="rotate(270) translate(-36 17)" onmousedown="handlePan(-1,0)">
                  <use xlink:href="#rim" fill="#404040">
                        <set attributeName="fill" to="#808080" begin="arrowLeft.mouseover" end="arrowLeft.mouseout"/>
                  </use>
                  <path fill="none" stroke="white" stroke-width="1.5" d="M0,-3.0v7 M-2.5,-0.5L0,-3.0L2.5,-0.5"/>
                </g>
        </g>
        <svg viewBox="0 0 15 15" width="100%" height="30px" preserveAspectRatio="xMaxYMin meet">
         <g id="arrow_out" transform="scale(0.3 0.3)">
          <a xlink:href="classprecice_1_1partition_1_1ReceivedPartition_ab92a4650f9ddd521b34e5fdf9cebc928_cgraph_org.svg" target="_base">
           <rect id="button" ry="5" rx="5" y="6" x="6" height="38" width="38"
                fill="#f2f5e9" fill-opacity="0.5" stroke="#606060" stroke-width="1.0"/>
           <path id="arrow"
             d="M 11.500037,31.436501 C 11.940474,20.09759 22.043105,11.32322 32.158766,21.979434 L 37.068811,17.246167 C 37.068811,17.246167 37.088388,32 37.088388,32 L 22.160133,31.978069 C 22.160133,31.978069 26.997745,27.140456 26.997745,27.140456 C 18.528582,18.264221 13.291696,25.230495 11.500037,31.436501 z"
             style="fill:#404040;"/>
          </a>
         </g>
        </svg>
</svg>
