<?xml version="1.0" encoding="UTF-8" standalone="no"?>
<!DOCTYPE svg PUBLIC "-//W3C//DTD SVG 1.1//EN"
 "http://www.w3.org/Graphics/SVG/1.1/DTD/svg11.dtd">
<!-- Generated by graphviz version 2.43.0 (0)
 -->
<!-- Title: precice::cplscheme::ParallelCouplingScheme::exchangeFirstData Pages: 1 -->
<!--zoomable 627 -->

<svg id="main" version="1.1" xmlns="http://www.w3.org/2000/svg" xmlns:xlink="http://www.w3.org/1999/xlink" xml:space="preserve" onload="init(evt)">
<style type="text/css"><![CDATA[
.node, .edge {opacity: 0.7;}
.node.selected, .edge.selected {opacity: 1;}
.edge:hover path { stroke: red; }
.edge:hover polygon { stroke: red; fill: red; }
]]></style>

<defs>
  <circle id="rim" cx="0" cy="0" r="7"/>
  <circle id="rim2" cx="0" cy="0" r="3.5"/>
  <g id="zoomPlus">
    <use xlink:href="#rim" fill="#404040"><set attributeName="fill" to="#808080" begin="zoomplus.mouseover" end="zoomplus.mouseout"/></use>
    <path d="M-4,0h8M0,-4v8" fill="none" stroke="white" stroke-width="1.5" pointer-events="none"/>
  </g>
  <g id="zoomMin">
    <use xlink:href="#rim" fill="#404040"><set attributeName="fill" to="#808080" begin="zoomminus.mouseover" end="zoomminus.mouseout"/></use>
    <path d="M-4,0h8" fill="none" stroke="white" stroke-width="1.5" pointer-events="none"/>
  </g>
  <g id="arrowUp" transform="translate(30 24)">
    <use xlink:href="#rim"/>
    <path pointer-events="none" fill="none" stroke="white" stroke-width="1.5" d="M0,-3.0v7 M-2.5,-0.5L0,-3.0L2.5,-0.5"/>
  </g>
  <g id="arrowRight" transform="rotate(90) translate(36 -43)">
    <use xlink:href="#rim"/>
    <path pointer-events="none" fill="none" stroke="white" stroke-width="1.5" d="M0,-3.0v7 M-2.5,-0.5L0,-3.0L2.5,-0.5"/>
  </g>
  <g id="arrowDown" transform="rotate(180) translate(-30 -48)">
    <use xlink:href="#rim"/>
    <path pointer-events="none" fill="none" stroke="white" stroke-width="1.5" d="M0,-3.0v7 M-2.5,-0.5L0,-3.0L2.5,-0.5"/>
  </g>
  <g id="arrowLeft" transform="rotate(270) translate(-36 17)">
    <use xlink:href="#rim"/>
    <path pointer-events="none" fill="none" stroke="white" stroke-width="1.5" d="M0,-3.0v7 M-2.5,-0.5L0,-3.0L2.5,-0.5"/>
  </g>
  <g id="resetDef">
    <use xlink:href="#rim2" fill="#404040"><set attributeName="fill" to="#808080" begin="reset.mouseover" end="reset.mouseout"/></use>
  </g>
</defs>
<script type="application/ecmascript">
var viewWidth = 705;
var viewHeight = 627;
var sectionId = 'dynsection-2';
</script>
<script type="application/ecmascript" xlink:href="svg.min.js"/>
<svg id="graph" class="graph">
<g id="viewport">
<title>precice::cplscheme::ParallelCouplingScheme::exchangeFirstData</title>
<!-- Node1 -->
<g id="Node000001" class="node">
<title>Node1</title>
<g id="a_Node000001"><a xlink:title="Functions needed for advance()">
<polygon fill="#999999" stroke="#666666" points="140,-442 0,-442 0,-401 140,-401 140,-442"/>
<text text-anchor="start" x="8" y="-430" font-family="Helvetica,sans-Serif" font-size="10.00">precice::cplscheme</text>
<text text-anchor="start" x="8" y="-419" font-family="Helvetica,sans-Serif" font-size="10.00">::ParallelCouplingScheme</text>
<text text-anchor="middle" x="70" y="-408" font-family="Helvetica,sans-Serif" font-size="10.00">::exchangeFirstData</text>
</a>
</g>
</g>
<!-- Node2 -->
<g id="Node000002" class="node">
<title>Node2</title>
<g id="a_Node000002"><a xlink:href="classprecice_1_1cplscheme_1_1BaseCouplingScheme.html#af880c679675d59efcf00b0b9fd984f6e" target="_top" xlink:title="Getter for _doesFirstStep.">
<polygon fill="white" stroke="#666666" points="321,-619 193,-619 193,-578 321,-578 321,-619"/>
<text text-anchor="start" x="201" y="-607" font-family="Helvetica,sans-Serif" font-size="10.00">precice::cplscheme</text>
<text text-anchor="start" x="201" y="-596" font-family="Helvetica,sans-Serif" font-size="10.00">::BaseCouplingScheme</text>
<text text-anchor="middle" x="257" y="-585" font-family="Helvetica,sans-Serif" font-size="10.00">::doesFirstStep</text>
</a>
</g>
</g>
<!-- Node1&#45;&gt;Node2 -->
<g id="edge1_Node000001_Node000002" class="edge">
<title>Node1&#45;&gt;Node2</title>
<g id="a_edge1_Node000001_Node000002"><a xlink:title=" ">
<path fill="none" stroke="#63b8ff" d="M80.56,-442.22C96.18,-473.95 130.13,-534.57 176,-569.5 178.59,-571.47 181.32,-573.31 184.15,-575.04"/>
<polygon fill="#63b8ff" stroke="#63b8ff" points="182.47,-578.11 192.92,-579.88 185.85,-571.98 182.47,-578.11"/>
</a>
</g>
</g>
<!-- Node3 -->
<g id="Node000003" class="node">
<title>Node3</title>
<g id="a_Node000003"><a xlink:href="classprecice_1_1cplscheme_1_1BiCouplingScheme.html#ae90273efd5e7a1ba0b91b5e09fd971ac" target="_top" xlink:title=" ">
<polygon fill="white" stroke="#666666" points="317,-560 197,-560 197,-519 317,-519 317,-560"/>
<text text-anchor="start" x="205" y="-548" font-family="Helvetica,sans-Serif" font-size="10.00">precice::cplscheme</text>
<text text-anchor="start" x="205" y="-537" font-family="Helvetica,sans-Serif" font-size="10.00">::BiCouplingScheme::</text>
<text text-anchor="middle" x="257" y="-526" font-family="Helvetica,sans-Serif" font-size="10.00">getM2N</text>
</a>
</g>
</g>
<!-- Node1&#45;&gt;Node3 -->
<g id="edge2_Node000001_Node000003" class="edge">
<title>Node1&#45;&gt;Node3</title>
<g id="a_edge2_Node000001_Node000003"><a xlink:title=" ">
<path fill="none" stroke="#63b8ff" d="M91.02,-442.32C111,-462.1 143.34,-491.56 176,-510.5 179.67,-512.63 183.52,-514.64 187.46,-516.54"/>
<polygon fill="#63b8ff" stroke="#63b8ff" points="186.25,-519.83 196.8,-520.76 189.13,-513.45 186.25,-519.83"/>
</a>
</g>
</g>
<!-- Node4 -->
<g id="Node000004" class="node">
<title>Node4</title>
<g id="a_Node000004"><a xlink:href="classprecice_1_1cplscheme_1_1BiCouplingScheme.html#ab66e411f621d13312e3728404cc42eb8" target="_top" xlink:title="Returns all data to be received.">
<polygon fill="white" stroke="#666666" points="317,-501 197,-501 197,-460 317,-460 317,-501"/>
<text text-anchor="start" x="205" y="-489" font-family="Helvetica,sans-Serif" font-size="10.00">precice::cplscheme</text>
<text text-anchor="start" x="205" y="-478" font-family="Helvetica,sans-Serif" font-size="10.00">::BiCouplingScheme::</text>
<text text-anchor="middle" x="257" y="-467" font-family="Helvetica,sans-Serif" font-size="10.00">getReceiveData</text>
</a>
</g>
</g>
<!-- Node1&#45;&gt;Node4 -->
<g id="edge3_Node000001_Node000004" class="edge">
<title>Node1&#45;&gt;Node4</title>
<g id="a_edge3_Node000001_Node000004"><a xlink:title=" ">
<path fill="none" stroke="#63b8ff" d="M135.44,-442.05C152.09,-447.36 170.08,-453.1 186.96,-458.48"/>
<polygon fill="#63b8ff" stroke="#63b8ff" points="186.15,-461.9 196.74,-461.6 188.28,-455.23 186.15,-461.9"/>
</a>
</g>
</g>
<!-- Node5 -->
<g id="Node000005" class="node">
<title>Node5</title>
<g id="a_Node000005"><a xlink:href="classprecice_1_1cplscheme_1_1BiCouplingScheme.html#a53be61eb89bfff98ada4a33c3ba00545" target="_top" xlink:title="Returns all data to be sent.">
<polygon fill="white" stroke="#666666" points="317,-442 197,-442 197,-401 317,-401 317,-442"/>
<text text-anchor="start" x="205" y="-430" font-family="Helvetica,sans-Serif" font-size="10.00">precice::cplscheme</text>
<text text-anchor="start" x="205" y="-419" font-family="Helvetica,sans-Serif" font-size="10.00">::BiCouplingScheme::</text>
<text text-anchor="middle" x="257" y="-408" font-family="Helvetica,sans-Serif" font-size="10.00">getSendData</text>
</a>
</g>
</g>
<!-- Node1&#45;&gt;Node5 -->
<g id="edge4_Node000001_Node000005" class="edge">
<title>Node1&#45;&gt;Node5</title>
<g id="a_edge4_Node000001_Node000005"><a xlink:title=" ">
<path fill="none" stroke="#63b8ff" d="M140.15,-421.5C155.33,-421.5 171.4,-421.5 186.59,-421.5"/>
<polygon fill="#63b8ff" stroke="#63b8ff" points="186.94,-425 196.94,-421.5 186.94,-418 186.94,-425"/>
</a>
</g>
</g>
<!-- Node6 -->
<g id="Node000006" class="node">
<title>Node6</title>
<g id="a_Node000006"><a xlink:href="classprecice_1_1cplscheme_1_1BaseCouplingScheme.html#a3153d22622f9abe534cef5fb0fb299dc" target="_top" xlink:title="Used to set flag after data has been received using receiveData().">
<polygon fill="white" stroke="#666666" points="338,-383 176,-383 176,-342 338,-342 338,-383"/>
<text text-anchor="start" x="184" y="-371" font-family="Helvetica,sans-Serif" font-size="10.00">precice::cplscheme</text>
<text text-anchor="start" x="184" y="-360" font-family="Helvetica,sans-Serif" font-size="10.00">::BaseCouplingScheme</text>
<text text-anchor="middle" x="257" y="-349" font-family="Helvetica,sans-Serif" font-size="10.00">::notifyDataHasBeenReceived</text>
</a>
</g>
</g>
<!-- Node1&#45;&gt;Node6 -->
<g id="edge5_Node000001_Node000006" class="edge">
<title>Node1&#45;&gt;Node6</title>
<g id="a_edge5_Node000001_Node000006"><a xlink:title=" ">
<path fill="none" stroke="#63b8ff" d="M135.44,-400.95C150.33,-396.2 166.28,-391.11 181.55,-386.24"/>
<polygon fill="#63b8ff" stroke="#63b8ff" points="183.01,-389.45 191.47,-383.08 180.88,-382.78 183.01,-389.45"/>
</a>
</g>
</g>
<!-- Node7 -->
<g id="Node000007" class="node">
<title>Node7</title>
<g id="a_Node000007"><a xlink:href="classprecice_1_1cplscheme_1_1BaseCouplingScheme.html#af690c8d4e0f11e52fc7b9ca1fe098229" target="_top" xlink:title="Receives data receiveDataIDs given in mapCouplingData with communication.">
<polygon fill="white" stroke="#666666" points="321,-306 193,-306 193,-265 321,-265 321,-306"/>
<text text-anchor="start" x="201" y="-294" font-family="Helvetica,sans-Serif" font-size="10.00">precice::cplscheme</text>
<text text-anchor="start" x="201" y="-283" font-family="Helvetica,sans-Serif" font-size="10.00">::BaseCouplingScheme</text>
<text text-anchor="middle" x="257" y="-272" font-family="Helvetica,sans-Serif" font-size="10.00">::receiveData</text>
</a>
</g>
</g>
<!-- Node1&#45;&gt;Node7 -->
<g id="edge6_Node000001_Node000007" class="edge">
<title>Node1&#45;&gt;Node7</title>
<g id="a_edge6_Node000001_Node000007"><a xlink:title=" ">
<path fill="none" stroke="#63b8ff" d="M93.52,-400.84C114.23,-382.28 146.17,-354.75 176,-333.5 186.83,-325.79 198.94,-318.09 210.39,-311.18"/>
<polygon fill="#63b8ff" stroke="#63b8ff" points="212.18,-314.19 218.99,-306.07 208.61,-308.17 212.18,-314.19"/>
</a>
</g>
</g>
<!-- Node13 -->
<g id="Node000013" class="node">
<title>Node13</title>
<g id="a_Node000013"><a xlink:href="classprecice_1_1cplscheme_1_1BaseCouplingScheme.html#a3aa71af66bf740fa8d9182b47db7dac3" target="_top" xlink:title="Sends data sendDataIDs given in mapCouplingData with communication.">
<polygon fill="white" stroke="#666666" points="321,-159 193,-159 193,-118 321,-118 321,-159"/>
<text text-anchor="start" x="201" y="-147" font-family="Helvetica,sans-Serif" font-size="10.00">precice::cplscheme</text>
<text text-anchor="start" x="201" y="-136" font-family="Helvetica,sans-Serif" font-size="10.00">::BaseCouplingScheme</text>
<text text-anchor="middle" x="257" y="-125" font-family="Helvetica,sans-Serif" font-size="10.00">::sendData</text>
</a>
</g>
</g>
<!-- Node1&#45;&gt;Node13 -->
<g id="edge13_Node000001_Node000013" class="edge">
<title>Node1&#45;&gt;Node13</title>
<g id="a_edge13_Node000001_Node000013"><a xlink:title=" ">
<path fill="none" stroke="#63b8ff" d="M83.9,-400.8C103.53,-369.42 142.16,-308.01 176,-256.5 196.09,-225.92 219.66,-191.3 235.99,-167.51"/>
<polygon fill="#63b8ff" stroke="#63b8ff" points="238.87,-169.49 241.65,-159.27 233.11,-165.53 238.87,-169.49"/>
</a>
</g>
</g>
<!-- Node7&#45;&gt;Node7 -->
<g id="edge10_Node000007_Node000007" class="edge">
<title>Node7&#45;&gt;Node7</title>
<g id="a_edge10_Node000007_Node000007"><a xlink:title=" ">
<path fill="none" stroke="#63b8ff" d="M222.81,-306.1C219.09,-315.65 230.48,-324 257,-324 273.57,-324 284.24,-320.74 289,-315.96"/>
<polygon fill="#63b8ff" stroke="#63b8ff" points="292.44,-316.62 291.19,-306.1 285.61,-315.1 292.44,-316.62"/>
</a>
</g>
</g>
<!-- Node8 -->
<g id="Node000008" class="node">
<title>Node8</title>
<g id="a_Node000008"><a xlink:href="classprecice_1_1com_1_1serialize_1_1SerializedStamples.html#a914cc916961f26874b078f45ce01e6f5" target="_top" xlink:title="Create SerializedStamples with allocated buffers according to size of CouplingData.">
<polygon fill="white" stroke="#666666" points="531.5,-413.5 377.5,-413.5 377.5,-383.5 531.5,-383.5 531.5,-413.5"/>
<text text-anchor="start" x="385.5" y="-401.5" font-family="Helvetica,sans-Serif" font-size="10.00">precice::com::serialize</text>
<text text-anchor="middle" x="454.5" y="-390.5" font-family="Helvetica,sans-Serif" font-size="10.00">::SerializedStamples::empty</text>
</a>
</g>
</g>
<!-- Node7&#45;&gt;Node8 -->
<g id="edge7_Node000007_Node000008" class="edge">
<title>Node7&#45;&gt;Node8</title>
<g id="a_edge7_Node000007_Node000008"><a xlink:title=" ">
<path fill="none" stroke="#63b8ff" d="M297.88,-306.16C311.23,-313.91 325.81,-323.33 338,-333.5 356.62,-349.04 353.61,-361.38 374,-374.5 376.58,-376.16 379.29,-377.71 382.08,-379.16"/>
<polygon fill="#63b8ff" stroke="#63b8ff" points="380.67,-382.37 391.21,-383.44 383.64,-376.03 380.67,-382.37"/>
</a>
</g>
</g>
<!-- Node10 -->
<g id="Node000010" class="node">
<title>Node10</title>
<g id="a_Node000010"><a xlink:href="classprecice_1_1cplscheme_1_1BaseCouplingScheme.html#a6c37c619f364581226635cdca7d39e4b" target="_top" xlink:title="getter for _time">
<polygon fill="white" stroke="#666666" points="518.5,-365 390.5,-365 390.5,-324 518.5,-324 518.5,-365"/>
<text text-anchor="start" x="398.5" y="-353" font-family="Helvetica,sans-Serif" font-size="10.00">precice::cplscheme</text>
<text text-anchor="start" x="398.5" y="-342" font-family="Helvetica,sans-Serif" font-size="10.00">::BaseCouplingScheme</text>
<text text-anchor="middle" x="454.5" y="-331" font-family="Helvetica,sans-Serif" font-size="10.00">::getTime</text>
</a>
</g>
</g>
<!-- Node7&#45;&gt;Node10 -->
<g id="edge9_Node000007_Node000010" class="edge">
<title>Node7&#45;&gt;Node10</title>
<g id="a_edge9_Node000007_Node000010"><a xlink:title=" ">
<path fill="none" stroke="#63b8ff" d="M321.2,-304.57C340.1,-310.28 360.97,-316.58 380.45,-322.45"/>
<polygon fill="#63b8ff" stroke="#63b8ff" points="379.59,-325.85 390.18,-325.39 381.62,-319.15 379.59,-325.85"/>
</a>
</g>
</g>
<!-- Node11 -->
<g id="Node000011" class="node">
<title>Node11</title>
<g id="a_Node000011"><a xlink:href="classprecice_1_1cplscheme_1_1BaseCouplingScheme.html#a83379ed90469cb7710fff88ff52269ac" target="_top" xlink:title=" ">
<polygon fill="white" stroke="#666666" points="535,-306 374,-306 374,-265 535,-265 535,-306"/>
<text text-anchor="start" x="382" y="-294" font-family="Helvetica,sans-Serif" font-size="10.00">precice::cplscheme</text>
<text text-anchor="start" x="382" y="-283" font-family="Helvetica,sans-Serif" font-size="10.00">::BaseCouplingScheme</text>
<text text-anchor="middle" x="454.5" y="-272" font-family="Helvetica,sans-Serif" font-size="10.00">::receiveNumberOfTimeSteps</text>
</a>
</g>
</g>
<!-- Node7&#45;&gt;Node11 -->
<g id="edge11_Node000007_Node000011" class="edge">
<title>Node7&#45;&gt;Node11</title>
<g id="a_edge11_Node000007_Node000011"><a xlink:title=" ">
<path fill="none" stroke="#63b8ff" d="M321.2,-285.5C334.67,-285.5 349.14,-285.5 363.39,-285.5"/>
<polygon fill="#63b8ff" stroke="#63b8ff" points="363.71,-289 373.71,-285.5 363.71,-282 363.71,-289"/>
</a>
</g>
</g>
<!-- Node12 -->
<g id="Node000012" class="node">
<title>Node12</title>
<g id="a_Node000012"><a xlink:href="classprecice_1_1cplscheme_1_1BaseCouplingScheme.html#a700bef351e463eb84836538fd91f16b3" target="_top" xlink:title=" ">
<polygon fill="white" stroke="#666666" points="518.5,-247 390.5,-247 390.5,-206 518.5,-206 518.5,-247"/>
<text text-anchor="start" x="398.5" y="-235" font-family="Helvetica,sans-Serif" font-size="10.00">precice::cplscheme</text>
<text text-anchor="start" x="398.5" y="-224" font-family="Helvetica,sans-Serif" font-size="10.00">::BaseCouplingScheme</text>
<text text-anchor="middle" x="454.5" y="-213" font-family="Helvetica,sans-Serif" font-size="10.00">::receiveTimes</text>
</a>
</g>
</g>
<!-- Node7&#45;&gt;Node12 -->
<g id="edge12_Node000007_Node000012" class="edge">
<title>Node7&#45;&gt;Node12</title>
<g id="a_edge12_Node000007_Node000012"><a xlink:title=" ">
<path fill="none" stroke="#63b8ff" d="M321.2,-266.43C340.1,-260.72 360.97,-254.42 380.45,-248.55"/>
<polygon fill="#63b8ff" stroke="#63b8ff" points="381.62,-251.85 390.18,-245.61 379.59,-245.15 381.62,-251.85"/>
</a>
</g>
</g>
<!-- Node9 -->
<g id="Node000009" class="node">
<title>Node9</title>
<g id="a_Node000009"><a xlink:href="classprecice_1_1com_1_1serialize_1_1SerializedStamples.html#a766834ff07b9fc24a575a98c2fc8c382" target="_top" xlink:title=" ">
<polygon fill="white" stroke="#666666" points="697,-289 571,-289 571,-248 697,-248 697,-289"/>
<text text-anchor="start" x="579" y="-277" font-family="Helvetica,sans-Serif" font-size="10.00">precice::com::serialize</text>
<text text-anchor="start" x="579" y="-266" font-family="Helvetica,sans-Serif" font-size="10.00">::SerializedStamples::</text>
<text text-anchor="middle" x="634" y="-255" font-family="Helvetica,sans-Serif" font-size="10.00">allocate</text>
</a>
</g>
</g>
<!-- Node8&#45;&gt;Node9 -->
<g id="edge8_Node000008_Node000009" class="edge">
<title>Node8&#45;&gt;Node9</title>
<g id="a_edge8_Node000008_Node000009"><a xlink:title=" ">
<path fill="none" stroke="#63b8ff" d="M517.28,-383.48C523.48,-380.91 529.5,-377.94 535,-374.5 566.98,-354.5 595.23,-321.37 613.09,-297.47"/>
<polygon fill="#63b8ff" stroke="#63b8ff" points="616.11,-299.26 619.18,-289.12 610.46,-295.14 616.11,-299.26"/>
</a>
</g>
</g>
<!-- Node13&#45;&gt;Node13 -->
<g id="edge14_Node000013_Node000013" class="edge">
<title>Node13&#45;&gt;Node13</title>
<g id="a_edge14_Node000013_Node000013"><a xlink:title=" ">
<path fill="none" stroke="#63b8ff" d="M222.81,-159.1C219.09,-168.65 230.48,-177 257,-177 273.57,-177 284.24,-173.74 289,-168.96"/>
<polygon fill="#63b8ff" stroke="#63b8ff" points="292.44,-169.62 291.19,-159.1 285.61,-168.1 292.44,-169.62"/>
</a>
</g>
</g>
<!-- Node14 -->
<g id="Node000014" class="node">
<title>Node14</title>
<g id="a_Node000014"><a xlink:href="classprecice_1_1cplscheme_1_1BaseCouplingScheme.html#aab81f5f3857872a22d82f871248d4371" target="_top" xlink:title=" ">
<polygon fill="white" stroke="#666666" points="528.5,-188 380.5,-188 380.5,-147 528.5,-147 528.5,-188"/>
<text text-anchor="start" x="388.5" y="-176" font-family="Helvetica,sans-Serif" font-size="10.00">precice::cplscheme</text>
<text text-anchor="start" x="388.5" y="-165" font-family="Helvetica,sans-Serif" font-size="10.00">::BaseCouplingScheme</text>
<text text-anchor="middle" x="454.5" y="-154" font-family="Helvetica,sans-Serif" font-size="10.00">::sendNumberOfTimeSteps</text>
</a>
</g>
</g>
<!-- Node13&#45;&gt;Node14 -->
<g id="edge15_Node000013_Node000014" class="edge">
<title>Node13&#45;&gt;Node14</title>
<g id="a_edge15_Node000013_Node000014"><a xlink:title=" ">
<path fill="none" stroke="#63b8ff" d="M321.2,-147.88C336.82,-150.19 353.78,-152.71 370.19,-155.14"/>
<polygon fill="#63b8ff" stroke="#63b8ff" points="369.91,-158.64 380.31,-156.64 370.94,-151.71 369.91,-158.64"/>
</a>
</g>
</g>
<!-- Node15 -->
<g id="Node000015" class="node">
<title>Node15</title>
<g id="a_Node000015"><a xlink:href="classprecice_1_1cplscheme_1_1BaseCouplingScheme.html#ad50465f4541de9580e627400d7e39f4f" target="_top" xlink:title=" ">
<polygon fill="white" stroke="#666666" points="518.5,-129 390.5,-129 390.5,-88 518.5,-88 518.5,-129"/>
<text text-anchor="start" x="398.5" y="-117" font-family="Helvetica,sans-Serif" font-size="10.00">precice::cplscheme</text>
<text text-anchor="start" x="398.5" y="-106" font-family="Helvetica,sans-Serif" font-size="10.00">::BaseCouplingScheme</text>
<text text-anchor="middle" x="454.5" y="-95" font-family="Helvetica,sans-Serif" font-size="10.00">::sendTimes</text>
</a>
</g>
</g>
<!-- Node13&#45;&gt;Node15 -->
<g id="edge16_Node000013_Node000015" class="edge">
<title>Node13&#45;&gt;Node15</title>
<g id="a_edge16_Node000013_Node000015"><a xlink:title=" ">
<path fill="none" stroke="#63b8ff" d="M321.2,-128.8C340.01,-125.91 360.78,-122.73 380.18,-119.75"/>
<polygon fill="#63b8ff" stroke="#63b8ff" points="380.83,-123.19 390.18,-118.22 379.76,-116.27 380.83,-123.19"/>
</a>
</g>
</g>
<!-- Node16 -->
<g id="Node000016" class="node">
<title>Node16</title>
<g id="a_Node000016"><a xlink:href="classprecice_1_1com_1_1serialize_1_1SerializedStamples.html#acefbea8c1c6ff8ca9f647ebf37348513" target="_top" xlink:title="Serializes a given CouplingData into SerializedStamples.">
<polygon fill="white" stroke="#666666" points="517.5,-70 391.5,-70 391.5,-29 517.5,-29 517.5,-70"/>
<text text-anchor="start" x="399.5" y="-58" font-family="Helvetica,sans-Serif" font-size="10.00">precice::com::serialize</text>
<text text-anchor="start" x="399.5" y="-47" font-family="Helvetica,sans-Serif" font-size="10.00">::SerializedStamples::</text>
<text text-anchor="middle" x="454.5" y="-36" font-family="Helvetica,sans-Serif" font-size="10.00">serialize</text>
</a>
</g>
</g>
<!-- Node13&#45;&gt;Node16 -->
<g id="edge17_Node000013_Node000016" class="edge">
<title>Node13&#45;&gt;Node16</title>
<g id="a_edge17_Node000013_Node000016"><a xlink:title=" ">
<path fill="none" stroke="#63b8ff" d="M294.77,-117.95C317.29,-105.75 346.91,-90.39 374,-78.5 377.61,-76.92 381.33,-75.35 385.1,-73.81"/>
<polygon fill="#63b8ff" stroke="#63b8ff" points="386.56,-77 394.55,-70.04 383.97,-70.49 386.56,-77"/>
</a>
</g>
</g>
<!-- Node16&#45;&gt;Node9 -->
<g id="edge18_Node000016_Node000009" class="edge">
<title>Node16&#45;&gt;Node9</title>
<g id="a_edge18_Node000016_Node000009"><a xlink:title=" ">
<path fill="none" stroke="#63b8ff" d="M517.58,-66.8C523.86,-70.07 529.82,-73.94 535,-78.5 584.42,-122.04 612.42,-196.52 624.94,-238.12"/>
<polygon fill="#63b8ff" stroke="#63b8ff" points="621.65,-239.32 627.8,-247.95 628.37,-237.37 621.65,-239.32"/>
</a>
</g>
</g>
<!-- Node17 -->
<g id="Node000017" class="node">
<title>Node17</title>
<g id="a_Node000017"><a xlink:href="classprecice_1_1com_1_1serialize_1_1SerializedStamples.html#aa94dbbe6f68c1dc4f14fb132df8ab796" target="_top" xlink:title="Serialize gradients from timeStepsStorage of data into _gradients.">
<polygon fill="white" stroke="#666666" points="697,-100 571,-100 571,-59 697,-59 697,-100"/>
<text text-anchor="start" x="579" y="-88" font-family="Helvetica,sans-Serif" font-size="10.00">precice::com::serialize</text>
<text text-anchor="start" x="579" y="-77" font-family="Helvetica,sans-Serif" font-size="10.00">::SerializedStamples::</text>
<text text-anchor="middle" x="634" y="-66" font-family="Helvetica,sans-Serif" font-size="10.00">serializeGradients</text>
</a>
</g>
</g>
<!-- Node16&#45;&gt;Node17 -->
<g id="edge19_Node000016_Node000017" class="edge">
<title>Node16&#45;&gt;Node17</title>
<g id="a_edge19_Node000016_Node000017"><a xlink:title=" ">
<path fill="none" stroke="#63b8ff" d="M517.58,-59.99C531.63,-62.37 546.67,-64.91 561.09,-67.35"/>
<polygon fill="#63b8ff" stroke="#63b8ff" points="560.51,-70.8 570.95,-69.01 561.68,-63.9 560.51,-70.8"/>
</a>
</g>
</g>
<!-- Node18 -->
<g id="Node000018" class="node">
<title>Node18</title>
<g id="a_Node000018"><a xlink:href="classprecice_1_1com_1_1serialize_1_1SerializedStamples.html#a51596e529ca6050a18852bf5172df2e6" target="_top" xlink:title="Serialize values from timeStepsStorage of data into _values.">
<polygon fill="white" stroke="#666666" points="697,-41 571,-41 571,0 697,0 697,-41"/>
<text text-anchor="start" x="579" y="-29" font-family="Helvetica,sans-Serif" font-size="10.00">precice::com::serialize</text>
<text text-anchor="start" x="579" y="-18" font-family="Helvetica,sans-Serif" font-size="10.00">::SerializedStamples::</text>
<text text-anchor="middle" x="634" y="-7" font-family="Helvetica,sans-Serif" font-size="10.00">serializeValues</text>
</a>
</g>
</g>
<!-- Node16&#45;&gt;Node18 -->
<g id="edge20_Node000016_Node000018" class="edge">
<title>Node16&#45;&gt;Node18</title>
<g id="a_edge20_Node000016_Node000018"><a xlink:title=" ">
<path fill="none" stroke="#63b8ff" d="M517.58,-39.36C531.5,-37.08 546.38,-34.65 560.67,-32.32"/>
<polygon fill="#63b8ff" stroke="#63b8ff" points="561.65,-35.7 570.95,-30.64 560.52,-28.8 561.65,-35.7"/>
</a>
</g>
</g>
</g>
</svg>

<g id="navigator" transform="translate(0 0)" fill="#404254">
  <rect fill="#f2f5e9" fill-opacity="0.5" stroke="#606060" stroke-width=".5" x="0" y="0" width="60" height="60"/>
  <use id="zoomplus" xlink:href="#zoomPlus" x="17" y="9" onmousedown="handleZoom(evt,'in')"/>
  <use id="zoomminus" xlink:href="#zoomMin" x="42" y="9" onmousedown="handleZoom(evt,'out')"/>
  <use id="reset" xlink:href="#resetDef" x="30" y="36" onmousedown="handleReset()"/>
   <use id="arrowup" xlink:href="#arrowUp" x="0" y="0" onmousedown="handlePan(0,-1)"/>
  <use id="arrowright" xlink:href="#arrowRight" x="0" y="0" onmousedown="handlePan(1,0)"/>
  <use id="arrowdown" xlink:href="#arrowDown" x="0" y="0" onmousedown="handlePan(0,1)"/>
  <use id="arrowleft" xlink:href="#arrowLeft" x="0" y="0" onmousedown="handlePan(-1,0)"/>
</g>
<svg viewBox="0 0 15 15" width="100%" height="30px" preserveAspectRatio="xMaxYMin meet">
 <g id="arrow_out" transform="scale(0.3 0.3)">
  <a xlink:href="classprecice_1_1cplscheme_1_1ParallelCouplingScheme_a1a30fe08cb1215a949f2fb312fdc84fd_cgraph_org.svg" target="_base">
   <rect id="button" ry="5" rx="5" y="6" x="6" height="38" width="38"
        fill="#f2f5e9" fill-opacity="0.5" stroke="#606060" stroke-width="1.0"/>
   <path id="arrow"
     d="M 11.500037,31.436501 C 11.940474,20.09759 22.043105,11.32322 32.158766,21.979434 L 37.068811,17.246167 C 37.068811,17.246167 37.088388,32 37.088388,32 L 22.160133,31.978069 C 22.160133,31.978069 26.997745,27.140456 26.997745,27.140456 C 18.528582,18.264221 13.291696,25.230495 11.500037,31.436501 z"
     style="fill:#404040;"/>
  </a>
 </g>
</svg>

<style type='text/css'>
<![CDATA[
[data-mouse-over-selected='false'] { opacity: 0.7; }
[data-mouse-over-selected='true']  { opacity: 1.0; }
]]>
</style>
<script type="application/ecmascript"><![CDATA[
document.addEventListener('DOMContentLoaded', (event) => {
  highlightEdges();
  highlightAdjacentNodes();
});
]]></script>
</svg>
