<?xml version="1.0" encoding="UTF-8" standalone="no"?>
<!DOCTYPE svg PUBLIC "-//W3C//DTD SVG 1.1//EN"
 "http://www.w3.org/Graphics/SVG/1.1/DTD/svg11.dtd">
<!-- Generated by graphviz version 2.43.0 (0)
 -->
<!-- Title: precice::impl::SolverInterfaceImpl::setMeshVertices Pages: 1 -->
<svg width="521pt" height="252pt"
 viewBox="0.00 0.00 521.00 251.50" xmlns="http://www.w3.org/2000/svg" xmlns:xlink="http://www.w3.org/1999/xlink">
<g id="graph0" class="graph" transform="scale(1 1) rotate(0) translate(4 247.5)">
<title>precice::impl::SolverInterfaceImpl::setMeshVertices</title>
<polygon fill="white" stroke="transparent" points="-4,4 -4,-247.5 517,-247.5 517,4 -4,4"/>
<!-- Node1 -->
<g id="node1" class="node">
<title>Node1</title>
<g id="a_node1"><a xlink:title="Creates multiple mesh vertices.">
<polygon fill="#bfbfbf" stroke="black" points="0,-98.5 0,-128.5 160,-128.5 160,-98.5 0,-98.5"/>
<text text-anchor="start" x="8" y="-116.5" font-family="Helvetica,sans-Serif" font-size="10.00">precice::impl::SolverInterface</text>
<text text-anchor="middle" x="80" y="-105.5" font-family="Helvetica,sans-Serif" font-size="10.00">Impl::setMeshVertices</text>
</a>
</g>
</g>
<!-- Node2 -->
<g id="node2" class="node">
<title>Node2</title>
<g id="a_node2"><a xlink:href="classprecice_1_1mesh_1_1Mesh.html#afa920f8d8d32076837ae5e3dc28b0eea" target="_top" xlink:title="Allocates memory for the vertex data values and corresponding gradient values.">
<polygon fill="white" stroke="black" points="217.5,-196.5 217.5,-226.5 334.5,-226.5 334.5,-196.5 217.5,-196.5"/>
<text text-anchor="start" x="225.5" y="-214.5" font-family="Helvetica,sans-Serif" font-size="10.00">precice::mesh::Mesh</text>
<text text-anchor="middle" x="276" y="-203.5" font-family="Helvetica,sans-Serif" font-size="10.00">::allocateDataValues</text>
</a>
</g>
</g>
<!-- Node1&#45;&gt;Node2 -->
<g id="edge1" class="edge">
<title>Node1&#45;&gt;Node2</title>
<path fill="none" stroke="midnightblue" d="M101.26,-128.66C123.54,-144.77 160.85,-170.12 196,-186.5 200.89,-188.78 206.04,-190.93 211.28,-192.93"/>
<polygon fill="midnightblue" stroke="midnightblue" points="210.15,-196.25 220.74,-196.39 212.55,-189.67 210.15,-196.25"/>
</g>
<!-- Node5 -->
<g id="node5" class="node">
<title>Node5</title>
<g id="a_node5"><a xlink:href="classprecice_1_1mesh_1_1Mesh.html#af6e6d684553dc5d0f0a23cacb77b3fc7" target="_top" xlink:title="Creates and initializes a Vertex object.">
<polygon fill="white" stroke="black" points="217.5,-147.5 217.5,-177.5 334.5,-177.5 334.5,-147.5 217.5,-147.5"/>
<text text-anchor="start" x="225.5" y="-165.5" font-family="Helvetica,sans-Serif" font-size="10.00">precice::mesh::Mesh</text>
<text text-anchor="middle" x="276" y="-154.5" font-family="Helvetica,sans-Serif" font-size="10.00">::createVertex</text>
</a>
</g>
</g>
<!-- Node1&#45;&gt;Node5 -->
<g id="edge4" class="edge">
<title>Node1&#45;&gt;Node5</title>
<path fill="none" stroke="midnightblue" d="M140.52,-128.53C161.68,-133.88 185.64,-139.93 207.42,-145.43"/>
<polygon fill="midnightblue" stroke="midnightblue" points="206.7,-148.86 217.25,-147.91 208.41,-142.07 206.7,-148.86"/>
</g>
<!-- Node6 -->
<g id="node6" class="node">
<title>Node6</title>
<g id="a_node6"><a xlink:href="classprecice_1_1mesh_1_1Vertex.html#a2f62d7ef09981e963638cb3f2f6a9603" target="_top" xlink:title="Returns the unique (among vertices of one mesh on one processor) ID of the vertex.">
<polygon fill="white" stroke="black" points="215,-98.5 215,-128.5 337,-128.5 337,-98.5 215,-98.5"/>
<text text-anchor="start" x="223" y="-116.5" font-family="Helvetica,sans-Serif" font-size="10.00">precice::mesh::Vertex</text>
<text text-anchor="middle" x="276" y="-105.5" font-family="Helvetica,sans-Serif" font-size="10.00">::getID</text>
</a>
</g>
</g>
<!-- Node1&#45;&gt;Node6 -->
<g id="edge5" class="edge">
<title>Node1&#45;&gt;Node6</title>
<path fill="none" stroke="midnightblue" d="M160.19,-113.5C174.86,-113.5 190.09,-113.5 204.48,-113.5"/>
<polygon fill="midnightblue" stroke="midnightblue" points="204.79,-117 214.79,-113.5 204.79,-110 204.79,-117"/>
</g>
<!-- Node7 -->
<g id="node7" class="node">
<title>Node7</title>
<g id="a_node7"><a xlink:href="classprecice_1_1impl_1_1SolverInterfaceImpl.html#abafb6219d109dc3cdaab56cc1814ab82" target="_top" xlink:title="Allows to access a registered mesh.">
<polygon fill="white" stroke="black" points="196,-49.5 196,-79.5 356,-79.5 356,-49.5 196,-49.5"/>
<text text-anchor="start" x="204" y="-67.5" font-family="Helvetica,sans-Serif" font-size="10.00">precice::impl::SolverInterface</text>
<text text-anchor="middle" x="276" y="-56.5" font-family="Helvetica,sans-Serif" font-size="10.00">Impl::mesh</text>
</a>
</g>
</g>
<!-- Node1&#45;&gt;Node7 -->
<g id="edge6" class="edge">
<title>Node1&#45;&gt;Node7</title>
<path fill="none" stroke="midnightblue" d="M140.52,-98.47C161.1,-93.27 184.34,-87.4 205.63,-82.02"/>
<polygon fill="midnightblue" stroke="midnightblue" points="206.75,-85.35 215.59,-79.51 205.04,-78.56 206.75,-85.35"/>
</g>
<!-- Node8 -->
<g id="node8" class="node">
<title>Node8</title>
<g id="a_node8"><a xlink:href="namespaceTCB__SPAN__NAMESPACE__NAME_1_1detail.html#a876af6f91231ae4e7e7316f5402682dc" target="_top" xlink:title=" ">
<polygon fill="white" stroke="black" points="210.5,-0.5 210.5,-30.5 341.5,-30.5 341.5,-0.5 210.5,-0.5"/>
<text text-anchor="start" x="218.5" y="-18.5" font-family="Helvetica,sans-Serif" font-size="10.00">TCB_SPAN_NAMESPACE</text>
<text text-anchor="middle" x="276" y="-7.5" font-family="Helvetica,sans-Serif" font-size="10.00">_NAME::detail::size</text>
</a>
</g>
</g>
<!-- Node1&#45;&gt;Node8 -->
<g id="edge7" class="edge">
<title>Node1&#45;&gt;Node8</title>
<path fill="none" stroke="midnightblue" d="M100.79,-98.33C122.95,-81.94 160.45,-55.95 196,-39.5 200.14,-37.59 204.46,-35.78 208.87,-34.08"/>
<polygon fill="midnightblue" stroke="midnightblue" points="210.41,-37.24 218.61,-30.53 208.01,-30.67 210.41,-37.24"/>
</g>
<!-- Node3 -->
<g id="node3" class="node">
<title>Node3</title>
<g id="a_node3"><a xlink:href="namespaceprecice_1_1utils.html#a70a03ea1367189736d49351c6385c8c9" target="_top" xlink:title=" ">
<polygon fill="white" stroke="black" points="392,-224 392,-243 513,-243 513,-224 392,-224"/>
<text text-anchor="middle" x="452.5" y="-231" font-family="Helvetica,sans-Serif" font-size="10.00">precice::utils::append</text>
</a>
</g>
</g>
<!-- Node2&#45;&gt;Node3 -->
<g id="edge2" class="edge">
<title>Node2&#45;&gt;Node3</title>
<path fill="none" stroke="midnightblue" d="M334.62,-218.76C349.69,-220.66 366.09,-222.73 381.71,-224.7"/>
<polygon fill="midnightblue" stroke="midnightblue" points="381.49,-228.2 391.85,-225.98 382.36,-221.26 381.49,-228.2"/>
</g>
<!-- Node4 -->
<g id="node4" class="node">
<title>Node4</title>
<g id="a_node4"><a xlink:href="classprecice_1_1mesh_1_1Mesh.html#aceb3eabb4f8e40a44d5d1c2822ba7b56" target="_top" xlink:title="Allows access to all data.">
<polygon fill="white" stroke="black" points="394,-174.5 394,-204.5 511,-204.5 511,-174.5 394,-174.5"/>
<text text-anchor="start" x="402" y="-192.5" font-family="Helvetica,sans-Serif" font-size="10.00">precice::mesh::Mesh</text>
<text text-anchor="middle" x="452.5" y="-181.5" font-family="Helvetica,sans-Serif" font-size="10.00">::data</text>
</a>
</g>
</g>
<!-- Node2&#45;&gt;Node4 -->
<g id="edge3" class="edge">
<title>Node2&#45;&gt;Node4</title>
<path fill="none" stroke="midnightblue" d="M334.62,-204.24C350.41,-202.25 367.66,-200.07 383.94,-198.02"/>
<polygon fill="midnightblue" stroke="midnightblue" points="384.46,-201.48 393.94,-196.76 383.58,-194.54 384.46,-201.48"/>
</g>
</g>
</svg>
