<?xml version="1.0" encoding="UTF-8" standalone="no"?>
<!DOCTYPE svg PUBLIC "-//W3C//DTD SVG 1.1//EN"
 "http://www.w3.org/Graphics/SVG/1.1/DTD/svg11.dtd">
<!-- Generated by graphviz version 2.43.0 (0)
 -->
<!-- Title: precice::acceleration::impl::ResidualSumPreconditioner::initialize Pages: 1 -->
<svg width="481pt" height="101pt"
 viewBox="0.00 0.00 481.00 101.00" xmlns="http://www.w3.org/2000/svg" xmlns:xlink="http://www.w3.org/1999/xlink">

<svg id="main" version="1.1" xmlns="http://www.w3.org/2000/svg" xmlns:xlink="http://www.w3.org/1999/xlink" xml:space="preserve">

<style type="text/css"><![CDATA[
.node, .edge {opacity: 0.7;}
.node.selected, .edge.selected {opacity: 1;}
.edge:hover path { stroke: red; }
.edge:hover polygon { stroke: red; fill: red; }
]]></style>
<script type="application/ecmascript" xlink:href="svg.min.js"/>
<svg id="graph" class="graph">
<g id="graph0" class="graph" transform="scale(1 1) rotate(0) translate(4 97)">
<title>precice::acceleration::impl::ResidualSumPreconditioner::initialize</title>
<!-- Node1 -->
<g id="Node000001" class="node">
<title>Node1</title>
<g id="a_Node000001"><a xlink:title="initialize the preconditioner">
<polygon fill="#999999" stroke="#666666" points="185,-67 0,-67 0,-26 185,-26 185,-67"/>
<text text-anchor="start" x="8" y="-55" font-family="Helvetica,sans-Serif" font-size="10.00">precice::acceleration</text>
<text text-anchor="start" x="8" y="-44" font-family="Helvetica,sans-Serif" font-size="10.00">::impl::ResidualSumPreconditioner</text>
<text text-anchor="middle" x="92.5" y="-33" font-family="Helvetica,sans-Serif" font-size="10.00">::initialize</text>
</a>
</g>
</g>
<!-- Node2 -->
<g id="Node000002" class="node">
<title>Node2</title>
<g id="a_Node000002"><a xlink:href="classprecice_1_1acceleration_1_1impl_1_1Preconditioner.html#a78e842b438c802f599bb9731e7bc4e03" target="_top" xlink:title="initialize the preconditioner">
<polygon fill="white" stroke="#666666" points="342,-67 221,-67 221,-26 342,-26 342,-67"/>
<text text-anchor="start" x="229" y="-55" font-family="Helvetica,sans-Serif" font-size="10.00">precice::acceleration</text>
<text text-anchor="start" x="229" y="-44" font-family="Helvetica,sans-Serif" font-size="10.00">::impl::Preconditioner</text>
<text text-anchor="middle" x="281.5" y="-33" font-family="Helvetica,sans-Serif" font-size="10.00">::initialize</text>
</a>
</g>
</g>
<!-- Node1&#45;&gt;Node2 -->
<g id="edge1_Node000001_Node000002" class="edge">
<title>Node1&#45;&gt;Node2</title>
<g id="a_edge1_Node000001_Node000002"><a xlink:title=" ">
<path fill="none" stroke="#63b8ff" d="M185.08,-46.5C193.7,-46.5 202.34,-46.5 210.71,-46.5"/>
<polygon fill="#63b8ff" stroke="#63b8ff" points="210.76,-50 220.76,-46.5 210.76,-43 210.76,-50"/>
</a>
</g>
</g>
<!-- Node3 -->
<g id="Node000003" class="node">
<title>Node3</title>
<g id="a_Node000003"><a target="_parent" xlink:href="http://en.cppreference.com/w/cpp/algorithm/accumulate.html#" xlink:title=" ">
<polygon fill="white" stroke="#666666" points="473,-93 378,-93 378,-74 473,-74 473,-93"/>
<text text-anchor="middle" x="425.5" y="-81" font-family="Helvetica,sans-Serif" font-size="10.00">std::accumulate</text>
</a>
</g>
</g>
<!-- Node2&#45;&gt;Node3 -->
<g id="edge2_Node000002_Node000003" class="edge">
<title>Node2&#45;&gt;Node3</title>
<g id="a_edge2_Node000002_Node000003"><a xlink:title=" ">
<path fill="none" stroke="#63b8ff" d="M342.31,-62.08C354.27,-65.2 366.66,-68.43 378.09,-71.41"/>
<polygon fill="#63b8ff" stroke="#63b8ff" points="377.28,-74.81 387.84,-73.95 379.05,-68.04 377.28,-74.81"/>
</a>
</g>
</g>
<!-- Node4 -->
<g id="Node000004" class="node">
<title>Node4</title>
<g id="a_Node000004"><a target="_parent" xlink:href="http://en.cppreference.com/w/cpp/algorithm/partial_sum.html#" xlink:title=" ">
<polygon fill="white" stroke="#666666" points="473,-56 378,-56 378,-37 473,-37 473,-56"/>
<text text-anchor="middle" x="425.5" y="-44" font-family="Helvetica,sans-Serif" font-size="10.00">std::partial_sum</text>
</a>
</g>
</g>
<!-- Node2&#45;&gt;Node4 -->
<g id="edge3_Node000002_Node000004" class="edge">
<title>Node2&#45;&gt;Node4</title>
<g id="a_edge3_Node000002_Node000004"><a xlink:title=" ">
<path fill="none" stroke="#63b8ff" d="M342.31,-46.5C350.72,-46.5 359.34,-46.5 367.68,-46.5"/>
<polygon fill="#63b8ff" stroke="#63b8ff" points="367.7,-50 377.7,-46.5 367.7,-43 367.7,-50"/>
</a>
</g>
</g>
<!-- Node5 -->
<g id="Node000005" class="node">
<title>Node5</title>
<g id="a_Node000005"><a target="_parent" xlink:href="http://en.cppreference.com/w/cpp/container/vector/size.html#" xlink:title=" ">
<polygon fill="white" stroke="#666666" points="472.5,-19 378.5,-19 378.5,0 472.5,0 472.5,-19"/>
<text text-anchor="middle" x="425.5" y="-7" font-family="Helvetica,sans-Serif" font-size="10.00">std::vector::size</text>
</a>
</g>
</g>
<!-- Node2&#45;&gt;Node5 -->
<g id="edge4_Node000002_Node000005" class="edge">
<title>Node2&#45;&gt;Node5</title>
<g id="a_edge4_Node000002_Node000005"><a xlink:title=" ">
<path fill="none" stroke="#63b8ff" d="M342.31,-30.92C354.27,-27.8 366.66,-24.57 378.09,-21.59"/>
<polygon fill="#63b8ff" stroke="#63b8ff" points="379.05,-24.96 387.84,-19.05 377.28,-18.19 379.05,-24.96"/>
</a>
</g>
</g>
</g>
</svg>
</svg>

<style type='text/css'>
<![CDATA[
[data-mouse-over-selected='false'] { opacity: 0.7; }
[data-mouse-over-selected='true']  { opacity: 1.0; }
]]>
</style>
<script type="application/ecmascript"><![CDATA[
document.addEventListener('DOMContentLoaded', (event) => {
  highlightEdges();
  highlightAdjacentNodes();
});
]]></script>
</svg>
