<?xml version="1.0" encoding="UTF-8" standalone="no"?>
<!DOCTYPE svg PUBLIC "-//W3C//DTD SVG 1.1//EN"
 "http://www.w3.org/Graphics/SVG/1.1/DTD/svg11.dtd">
<!-- Generated by graphviz version 2.43.0 (0)
 -->
<!-- Title: precice::cplscheme::CouplingSchemeConfiguration::addTypespecifcSubtags Pages: 1 -->
<svg width="1389pt" height="663pt"
 viewBox="0.00 0.00 1389.00 662.50" xmlns="http://www.w3.org/2000/svg" xmlns:xlink="http://www.w3.org/1999/xlink">
<g id="graph0" class="graph" transform="scale(1 1) rotate(0) translate(4 658.5)">
<title>precice::cplscheme::CouplingSchemeConfiguration::addTypespecifcSubtags</title>
<!-- Node1 -->
<g id="Node000001" class="node">
<title>Node1</title>
<g id="a_Node000001"><a xlink:title=" ">
<polygon fill="#999999" stroke="#666666" points="170,-336 0,-336 0,-295 170,-295 170,-336"/>
<text text-anchor="start" x="8" y="-324" font-family="Helvetica,sans-Serif" font-size="10.00">precice::cplscheme</text>
<text text-anchor="start" x="8" y="-313" font-family="Helvetica,sans-Serif" font-size="10.00">::CouplingSchemeConfiguration</text>
<text text-anchor="middle" x="85" y="-302" font-family="Helvetica,sans-Serif" font-size="10.00">::addTypespecifcSubtags</text>
</a>
</g>
</g>
<!-- Node2 -->
<g id="Node000002" class="node">
<title>Node2</title>
<g id="a_Node000002"><a xlink:href="classprecice_1_1cplscheme_1_1CouplingSchemeConfiguration.html#a5a3c0e759d8aa275848644aa5741194e" target="_top" xlink:title=" ">
<polygon fill="white" stroke="#666666" points="416.5,-454 210.5,-454 210.5,-413 416.5,-413 416.5,-454"/>
<text text-anchor="start" x="218.5" y="-442" font-family="Helvetica,sans-Serif" font-size="10.00">precice::cplscheme</text>
<text text-anchor="start" x="218.5" y="-431" font-family="Helvetica,sans-Serif" font-size="10.00">::CouplingSchemeConfiguration</text>
<text text-anchor="middle" x="313.5" y="-420" font-family="Helvetica,sans-Serif" font-size="10.00">::addTagAbsoluteConvergenceMeasure</text>
</a>
</g>
</g>
<!-- Node1&#45;&gt;Node2 -->
<g id="edge1_Node000001_Node000002" class="edge">
<title>Node1&#45;&gt;Node2</title>
<g id="a_edge1_Node000001_Node000002"><a xlink:title=" ">
<path fill="none" stroke="#63b8ff" d="M108.22,-336.01C131.13,-356.14 168.67,-386.37 206,-404.5 209.39,-406.15 212.88,-407.71 216.45,-409.19"/>
<polygon fill="#63b8ff" stroke="#63b8ff" points="215.45,-412.56 226.03,-412.94 218,-406.04 215.45,-412.56"/>
</a>
</g>
</g>
<!-- Node17 -->
<g id="Node000017" class="node">
<title>Node17</title>
<g id="a_Node000017"><a xlink:href="classprecice_1_1cplscheme_1_1CouplingSchemeConfiguration.html#acf5f9f6247ad0518713724e37b17c246" target="_top" xlink:title=" ">
<polygon fill="white" stroke="#666666" points="421,-654.5 206,-654.5 206,-602.5 421,-602.5 421,-654.5"/>
<text text-anchor="start" x="214" y="-642.5" font-family="Helvetica,sans-Serif" font-size="10.00">precice::cplscheme</text>
<text text-anchor="start" x="214" y="-631.5" font-family="Helvetica,sans-Serif" font-size="10.00">::CouplingSchemeConfiguration</text>
<text text-anchor="start" x="214" y="-620.5" font-family="Helvetica,sans-Serif" font-size="10.00">::addTagAbsoluteOrRelativeConvergence</text>
<text text-anchor="middle" x="313.5" y="-609.5" font-family="Helvetica,sans-Serif" font-size="10.00">Measure</text>
</a>
</g>
</g>
<!-- Node1&#45;&gt;Node17 -->
<g id="edge18_Node000001_Node000017" class="edge">
<title>Node1&#45;&gt;Node17</title>
<g id="a_edge18_Node000001_Node000017"><a xlink:title=" ">
<path fill="none" stroke="#63b8ff" d="M89.04,-336.3C97.64,-387.58 126.84,-521.16 206,-593.5 207.12,-594.53 208.28,-595.52 209.46,-596.49"/>
<polygon fill="#63b8ff" stroke="#63b8ff" points="207.48,-599.38 217.62,-602.45 211.61,-593.73 207.48,-599.38"/>
</a>
</g>
</g>
<!-- Node18 -->
<g id="Node000018" class="node">
<title>Node18</title>
<g id="a_Node000018"><a xlink:href="classprecice_1_1cplscheme_1_1CouplingSchemeConfiguration.html#a368dbc1d9bb9df0b8cf9f5a37461a437" target="_top" xlink:title=" ">
<polygon fill="white" stroke="#666666" points="398.5,-41 228.5,-41 228.5,0 398.5,0 398.5,-41"/>
<text text-anchor="start" x="236.5" y="-29" font-family="Helvetica,sans-Serif" font-size="10.00">precice::cplscheme</text>
<text text-anchor="start" x="236.5" y="-18" font-family="Helvetica,sans-Serif" font-size="10.00">::CouplingSchemeConfiguration</text>
<text text-anchor="middle" x="313.5" y="-7" font-family="Helvetica,sans-Serif" font-size="10.00">::addTagAcceleration</text>
</a>
</g>
</g>
<!-- Node1&#45;&gt;Node18 -->
<g id="edge21_Node000001_Node000018" class="edge">
<title>Node1&#45;&gt;Node18</title>
<g id="a_edge21_Node000001_Node000018"><a xlink:title=" ">
<path fill="none" stroke="#63b8ff" d="M89.18,-294.97C98.01,-245.03 127.58,-116.42 206,-49.5 210.04,-46.05 214.46,-43.01 219.12,-40.33"/>
<polygon fill="#63b8ff" stroke="#63b8ff" points="221.05,-43.27 228.35,-35.6 217.85,-37.04 221.05,-43.27"/>
</a>
</g>
</g>
<!-- Node20 -->
<g id="Node000020" class="node">
<title>Node20</title>
<g id="a_Node000020"><a xlink:href="classprecice_1_1cplscheme_1_1CouplingSchemeConfiguration.html#a6deefef1b32bb2b91461a2d8e4bb8883" target="_top" xlink:title=" ">
<polygon fill="white" stroke="#666666" points="398.5,-218 228.5,-218 228.5,-177 398.5,-177 398.5,-218"/>
<text text-anchor="start" x="236.5" y="-206" font-family="Helvetica,sans-Serif" font-size="10.00">precice::cplscheme</text>
<text text-anchor="start" x="236.5" y="-195" font-family="Helvetica,sans-Serif" font-size="10.00">::CouplingSchemeConfiguration</text>
<text text-anchor="middle" x="313.5" y="-184" font-family="Helvetica,sans-Serif" font-size="10.00">::addTagExchange</text>
</a>
</g>
</g>
<!-- Node1&#45;&gt;Node20 -->
<g id="edge24_Node000001_Node000020" class="edge">
<title>Node1&#45;&gt;Node20</title>
<g id="a_edge24_Node000001_Node000020"><a xlink:title=" ">
<path fill="none" stroke="#63b8ff" d="M108.22,-294.99C131.13,-274.86 168.67,-244.63 206,-226.5 210.09,-224.52 214.33,-222.65 218.66,-220.9"/>
<polygon fill="#63b8ff" stroke="#63b8ff" points="220.17,-224.07 228.28,-217.25 217.68,-217.53 220.17,-224.07"/>
</a>
</g>
</g>
<!-- Node21 -->
<g id="Node000021" class="node">
<title>Node21</title>
<g id="a_Node000021"><a xlink:href="classprecice_1_1cplscheme_1_1CouplingSchemeConfiguration.html#ada603e7770fcdeac381aba8a5c29b03b" target="_top" xlink:title=" ">
<polygon fill="white" stroke="#666666" points="398.5,-159 228.5,-159 228.5,-118 398.5,-118 398.5,-159"/>
<text text-anchor="start" x="236.5" y="-147" font-family="Helvetica,sans-Serif" font-size="10.00">precice::cplscheme</text>
<text text-anchor="start" x="236.5" y="-136" font-family="Helvetica,sans-Serif" font-size="10.00">::CouplingSchemeConfiguration</text>
<text text-anchor="middle" x="313.5" y="-125" font-family="Helvetica,sans-Serif" font-size="10.00">::addTagMaxIterations</text>
</a>
</g>
</g>
<!-- Node1&#45;&gt;Node21 -->
<g id="edge26_Node000001_Node000021" class="edge">
<title>Node1&#45;&gt;Node21</title>
<g id="a_edge26_Node000001_Node000021"><a xlink:title=" ">
<path fill="none" stroke="#63b8ff" d="M97.04,-294.85C115.33,-262.65 155.01,-200.74 206,-167.5 210.1,-164.83 214.44,-162.4 218.93,-160.2"/>
<polygon fill="#63b8ff" stroke="#63b8ff" points="220.65,-163.26 228.34,-155.98 217.78,-156.87 220.65,-163.26"/>
</a>
</g>
</g>
<!-- Node22 -->
<g id="Node000022" class="node">
<title>Node22</title>
<g id="a_Node000022"><a xlink:href="classprecice_1_1cplscheme_1_1CouplingSchemeConfiguration.html#a2b04dae2a4650344701231a4abaa29b4" target="_top" xlink:title=" ">
<polygon fill="white" stroke="#666666" points="398.5,-100 228.5,-100 228.5,-59 398.5,-59 398.5,-100"/>
<text text-anchor="start" x="236.5" y="-88" font-family="Helvetica,sans-Serif" font-size="10.00">precice::cplscheme</text>
<text text-anchor="start" x="236.5" y="-77" font-family="Helvetica,sans-Serif" font-size="10.00">::CouplingSchemeConfiguration</text>
<text text-anchor="middle" x="313.5" y="-66" font-family="Helvetica,sans-Serif" font-size="10.00">::addTagMinIterations</text>
</a>
</g>
</g>
<!-- Node1&#45;&gt;Node22 -->
<g id="edge28_Node000001_Node000022" class="edge">
<title>Node1&#45;&gt;Node22</title>
<g id="a_edge28_Node000001_Node000022"><a xlink:title=" ">
<path fill="none" stroke="#63b8ff" d="M92.05,-294.9C105.41,-253.11 141.46,-158.14 206,-108.5 210.12,-105.33 214.56,-102.51 219.21,-100"/>
<polygon fill="#63b8ff" stroke="#63b8ff" points="220.92,-103.06 228.38,-95.53 217.85,-96.76 220.92,-103.06"/>
</a>
</g>
</g>
<!-- Node23 -->
<g id="Node000023" class="node">
<title>Node23</title>
<g id="a_Node000023"><a xlink:href="classprecice_1_1cplscheme_1_1CouplingSchemeConfiguration.html#a3d852875db2219f77625bf3cd33d483f" target="_top" xlink:title=" ">
<polygon fill="white" stroke="#666666" points="398.5,-395 228.5,-395 228.5,-354 398.5,-354 398.5,-395"/>
<text text-anchor="start" x="236.5" y="-383" font-family="Helvetica,sans-Serif" font-size="10.00">precice::cplscheme</text>
<text text-anchor="start" x="236.5" y="-372" font-family="Helvetica,sans-Serif" font-size="10.00">::CouplingSchemeConfiguration</text>
<text text-anchor="middle" x="313.5" y="-361" font-family="Helvetica,sans-Serif" font-size="10.00">::addTagParticipant</text>
</a>
</g>
</g>
<!-- Node1&#45;&gt;Node23 -->
<g id="edge30_Node000001_Node000023" class="edge">
<title>Node1&#45;&gt;Node23</title>
<g id="a_edge30_Node000001_Node000023"><a xlink:title=" ">
<path fill="none" stroke="#63b8ff" d="M164.9,-336.05C183.9,-341 204.33,-346.32 223.75,-351.38"/>
<polygon fill="#63b8ff" stroke="#63b8ff" points="222.94,-354.79 233.5,-353.92 224.7,-348.01 222.94,-354.79"/>
</a>
</g>
</g>
<!-- Node24 -->
<g id="Node000024" class="node">
<title>Node24</title>
<g id="a_Node000024"><a xlink:href="classprecice_1_1cplscheme_1_1CouplingSchemeConfiguration.html#aacfbdf096f414c4ea68ecfc3b889f4c0" target="_top" xlink:title=" ">
<polygon fill="white" stroke="#666666" points="398.5,-336 228.5,-336 228.5,-295 398.5,-295 398.5,-336"/>
<text text-anchor="start" x="236.5" y="-324" font-family="Helvetica,sans-Serif" font-size="10.00">precice::cplscheme</text>
<text text-anchor="start" x="236.5" y="-313" font-family="Helvetica,sans-Serif" font-size="10.00">::CouplingSchemeConfiguration</text>
<text text-anchor="middle" x="313.5" y="-302" font-family="Helvetica,sans-Serif" font-size="10.00">::addTagParticipants</text>
</a>
</g>
</g>
<!-- Node1&#45;&gt;Node24 -->
<g id="edge32_Node000001_Node000024" class="edge">
<title>Node1&#45;&gt;Node24</title>
<g id="a_edge32_Node000001_Node000024"><a xlink:title=" ">
<path fill="none" stroke="#63b8ff" d="M170.02,-315.5C185.61,-315.5 202,-315.5 217.89,-315.5"/>
<polygon fill="#63b8ff" stroke="#63b8ff" points="218.24,-319 228.24,-315.5 218.24,-312 218.24,-319"/>
</a>
</g>
</g>
<!-- Node25 -->
<g id="Node000025" class="node">
<title>Node25</title>
<g id="a_Node000025"><a xlink:href="classprecice_1_1cplscheme_1_1CouplingSchemeConfiguration.html#a3506522e6b69b64dbc3ff3b1367fef5d" target="_top" xlink:title=" ">
<polygon fill="white" stroke="#666666" points="415,-584 212,-584 212,-543 415,-543 415,-584"/>
<text text-anchor="start" x="220" y="-572" font-family="Helvetica,sans-Serif" font-size="10.00">precice::cplscheme</text>
<text text-anchor="start" x="220" y="-561" font-family="Helvetica,sans-Serif" font-size="10.00">::CouplingSchemeConfiguration</text>
<text text-anchor="middle" x="313.5" y="-550" font-family="Helvetica,sans-Serif" font-size="10.00">::addTagRelativeConvergenceMeasure</text>
</a>
</g>
</g>
<!-- Node1&#45;&gt;Node25 -->
<g id="edge34_Node000001_Node000025" class="edge">
<title>Node1&#45;&gt;Node25</title>
<g id="a_edge34_Node000001_Node000025"><a xlink:title=" ">
<path fill="none" stroke="#63b8ff" d="M91.47,-336.14C104.04,-379.5 139.18,-480.44 206,-533.5 207.8,-534.93 209.67,-536.29 211.59,-537.59"/>
<polygon fill="#63b8ff" stroke="#63b8ff" points="209.97,-540.7 220.34,-542.88 213.59,-534.71 209.97,-540.7"/>
</a>
</g>
</g>
<!-- Node26 -->
<g id="Node000026" class="node">
<title>Node26</title>
<g id="a_Node000026"><a xlink:href="classprecice_1_1cplscheme_1_1CouplingSchemeConfiguration.html#ac3a43f6008e6e9cbfccfff399b412b87" target="_top" xlink:title=" ">
<polygon fill="white" stroke="#666666" points="415,-524.5 212,-524.5 212,-472.5 415,-472.5 415,-524.5"/>
<text text-anchor="start" x="220" y="-512.5" font-family="Helvetica,sans-Serif" font-size="10.00">precice::cplscheme</text>
<text text-anchor="start" x="220" y="-501.5" font-family="Helvetica,sans-Serif" font-size="10.00">::CouplingSchemeConfiguration</text>
<text text-anchor="start" x="220" y="-490.5" font-family="Helvetica,sans-Serif" font-size="10.00">::addTagResidualRelativeConvergence</text>
<text text-anchor="middle" x="313.5" y="-479.5" font-family="Helvetica,sans-Serif" font-size="10.00">Measure</text>
</a>
</g>
</g>
<!-- Node1&#45;&gt;Node26 -->
<g id="edge37_Node000001_Node000026" class="edge">
<title>Node1&#45;&gt;Node26</title>
<g id="a_edge37_Node000001_Node000026"><a xlink:title=" ">
<path fill="none" stroke="#63b8ff" d="M97.4,-336.1C116.04,-367.95 156.02,-429.05 206,-463.5 207.92,-464.82 209.89,-466.1 211.91,-467.33"/>
<polygon fill="#63b8ff" stroke="#63b8ff" points="210.58,-470.6 221.02,-472.44 214.01,-464.49 210.58,-470.6"/>
</a>
</g>
</g>
<!-- Node27 -->
<g id="Node000027" class="node">
<title>Node27</title>
<g id="a_Node000027"><a xlink:href="classprecice_1_1cplscheme_1_1CouplingSchemeConfiguration.html#acc4f61a3c1e067f2501817fcc8638ff2" target="_top" xlink:title=" ">
<polygon fill="white" stroke="#666666" points="398.5,-277 228.5,-277 228.5,-236 398.5,-236 398.5,-277"/>
<text text-anchor="start" x="236.5" y="-265" font-family="Helvetica,sans-Serif" font-size="10.00">precice::cplscheme</text>
<text text-anchor="start" x="236.5" y="-254" font-family="Helvetica,sans-Serif" font-size="10.00">::CouplingSchemeConfiguration</text>
<text text-anchor="middle" x="313.5" y="-243" font-family="Helvetica,sans-Serif" font-size="10.00">::addTransientLimitTags</text>
</a>
</g>
</g>
<!-- Node1&#45;&gt;Node27 -->
<g id="edge40_Node000001_Node000027" class="edge">
<title>Node1&#45;&gt;Node27</title>
<g id="a_edge40_Node000001_Node000027"><a xlink:title=" ">
<path fill="none" stroke="#63b8ff" d="M164.9,-294.95C183.9,-290 204.33,-284.68 223.75,-279.62"/>
<polygon fill="#63b8ff" stroke="#63b8ff" points="224.7,-282.99 233.5,-277.08 222.94,-276.21 224.7,-282.99"/>
</a>
</g>
</g>
<!-- Node3 -->
<g id="Node000003" class="node">
<title>Node3</title>
<g id="a_Node000003"><a xlink:href="classprecice_1_1cplscheme_1_1CouplingSchemeConfiguration.html#a18bd32eda5f1036e13dbc3ef00340bc7" target="_top" xlink:title=" ">
<polygon fill="white" stroke="#666666" points="692,-519 457,-519 457,-478 692,-478 692,-519"/>
<text text-anchor="start" x="465" y="-507" font-family="Helvetica,sans-Serif" font-size="10.00">precice::cplscheme</text>
<text text-anchor="start" x="465" y="-496" font-family="Helvetica,sans-Serif" font-size="10.00">::CouplingSchemeConfiguration</text>
<text text-anchor="middle" x="574.5" y="-485" font-family="Helvetica,sans-Serif" font-size="10.00">::addBaseAttributesTagConvergenceMeasure</text>
</a>
</g>
</g>
<!-- Node2&#45;&gt;Node3 -->
<g id="edge2_Node000002_Node000003" class="edge">
<title>Node2&#45;&gt;Node3</title>
<g id="a_edge2_Node000002_Node000003"><a xlink:title=" ">
<path fill="none" stroke="#63b8ff" d="M396.45,-454.07C423.63,-460.89 454.05,-468.52 481.9,-475.51"/>
<polygon fill="#63b8ff" stroke="#63b8ff" points="481.09,-478.92 491.64,-477.96 482.79,-472.13 481.09,-478.92"/>
</a>
</g>
</g>
<!-- Node14 -->
<g id="Node000014" class="node">
<title>Node14</title>
<g id="a_Node000014"><a xlink:href="classprecice_1_1xml_1_1XMLTag.html#af81dc6eea2b9a75e14ddd6033ed9a1d4" target="_top" xlink:title="Adds an XML tag as subtag by making a copy of the given tag.">
<polygon fill="white" stroke="#666666" points="634,-343.5 515,-343.5 515,-313.5 634,-313.5 634,-343.5"/>
<text text-anchor="start" x="523" y="-331.5" font-family="Helvetica,sans-Serif" font-size="10.00">precice::xml::XMLTag</text>
<text text-anchor="middle" x="574.5" y="-320.5" font-family="Helvetica,sans-Serif" font-size="10.00">::addSubtag</text>
</a>
</g>
</g>
<!-- Node2&#45;&gt;Node14 -->
<g id="edge14_Node000002_Node000014" class="edge">
<title>Node2&#45;&gt;Node14</title>
<g id="a_edge14_Node000002_Node000014"><a xlink:title=" ">
<path fill="none" stroke="#63b8ff" d="M396.43,-412.95C404.8,-410.33 413.12,-407.5 421,-404.5 462.58,-388.65 507.96,-365.19 538.31,-348.53"/>
<polygon fill="#63b8ff" stroke="#63b8ff" points="540.17,-351.5 547.22,-343.59 536.78,-345.37 540.17,-351.5"/>
</a>
</g>
</g>
<!-- Node4 -->
<g id="Node000004" class="node">
<title>Node4</title>
<g id="a_Node000004"><a xlink:href="classprecice_1_1xml_1_1XMLTag.html#af1e842f982d0efa6f85412a23a110529" target="_top" xlink:title="Adds a XML attribute by making a copy of the given attribute.">
<polygon fill="white" stroke="#666666" points="847,-513.5 728,-513.5 728,-483.5 847,-483.5 847,-513.5"/>
<text text-anchor="start" x="736" y="-501.5" font-family="Helvetica,sans-Serif" font-size="10.00">precice::xml::XMLTag</text>
<text text-anchor="middle" x="787.5" y="-490.5" font-family="Helvetica,sans-Serif" font-size="10.00">::addAttribute</text>
</a>
</g>
</g>
<!-- Node3&#45;&gt;Node4 -->
<g id="edge3_Node000003_Node000004" class="edge">
<title>Node3&#45;&gt;Node4</title>
<g id="a_edge3_Node000003_Node000004"><a xlink:title=" ">
<path fill="none" stroke="#63b8ff" d="M692.11,-498.5C700.82,-498.5 709.43,-498.5 717.7,-498.5"/>
<polygon fill="#63b8ff" stroke="#63b8ff" points="717.97,-502 727.97,-498.5 717.97,-495 717.97,-502"/>
</a>
</g>
</g>
<!-- Node13 -->
<g id="Node000013" class="node">
<title>Node13</title>
<g id="a_Node000013"><a xlink:href="classprecice_1_1xml_1_1XMLTag.html#a7e13b793f414fd2fea562f2ad1e2a1d9" target="_top" xlink:title="Adds a description of the purpose of this XML tag.">
<polygon fill="white" stroke="#666666" points="847,-465.5 728,-465.5 728,-435.5 847,-435.5 847,-465.5"/>
<text text-anchor="start" x="736" y="-453.5" font-family="Helvetica,sans-Serif" font-size="10.00">precice::xml::XMLTag</text>
<text text-anchor="middle" x="787.5" y="-442.5" font-family="Helvetica,sans-Serif" font-size="10.00">::setDocumentation</text>
</a>
</g>
</g>
<!-- Node3&#45;&gt;Node13 -->
<g id="edge12_Node000003_Node000013" class="edge">
<title>Node3&#45;&gt;Node13</title>
<g id="a_edge12_Node000003_Node000013"><a xlink:title=" ">
<path fill="none" stroke="#63b8ff" d="M665.9,-477.93C683.22,-473.99 701.1,-469.93 717.61,-466.17"/>
<polygon fill="#63b8ff" stroke="#63b8ff" points="718.72,-469.51 727.7,-463.88 717.17,-462.68 718.72,-469.51"/>
</a>
</g>
</g>
<!-- Node5 -->
<g id="Node000005" class="node">
<title>Node5</title>
<g id="a_Node000005"><a xlink:href="classprecice_1_1xml_1_1XMLAttribute.html#aa00da780a944ba7db691f02b569b61d2" target="_top" xlink:title=" ">
<polygon fill="white" stroke="#666666" points="1030,-561.5 883,-561.5 883,-531.5 1030,-531.5 1030,-561.5"/>
<text text-anchor="start" x="891" y="-549.5" font-family="Helvetica,sans-Serif" font-size="10.00">precice::xml::XMLAttribute</text>
<text text-anchor="middle" x="956.5" y="-538.5" font-family="Helvetica,sans-Serif" font-size="10.00">::getName</text>
</a>
</g>
</g>
<!-- Node4&#45;&gt;Node5 -->
<g id="edge4_Node000004_Node000005" class="edge">
<title>Node4&#45;&gt;Node5</title>
<g id="a_edge4_Node000004_Node000005"><a xlink:title=" ">
<path fill="none" stroke="#63b8ff" d="M840.88,-513.56C857.51,-518.34 876.07,-523.67 893.32,-528.63"/>
<polygon fill="#63b8ff" stroke="#63b8ff" points="892.73,-532.1 903.3,-531.5 894.66,-525.37 892.73,-532.1"/>
</a>
</g>
</g>
<!-- Node6 -->
<g id="Node000006" class="node">
<title>Node6</title>
<g id="a_Node000006"><a xlink:href="classprecice_1_1xml_1_1XMLTag.html#a295459b05a6a26449587988d26f5b5d1" target="_top" xlink:title=" ">
<polygon fill="white" stroke="#666666" points="1016,-513.5 897,-513.5 897,-483.5 1016,-483.5 1016,-513.5"/>
<text text-anchor="start" x="905" y="-501.5" font-family="Helvetica,sans-Serif" font-size="10.00">precice::xml::XMLTag</text>
<text text-anchor="middle" x="956.5" y="-490.5" font-family="Helvetica,sans-Serif" font-size="10.00">::hasAttribute</text>
</a>
</g>
</g>
<!-- Node4&#45;&gt;Node6 -->
<g id="edge5_Node000004_Node000006" class="edge">
<title>Node4&#45;&gt;Node6</title>
<g id="a_edge5_Node000004_Node000006"><a xlink:title=" ">
<path fill="none" stroke="#63b8ff" d="M847.38,-498.5C860.05,-498.5 873.55,-498.5 886.56,-498.5"/>
<polygon fill="#63b8ff" stroke="#63b8ff" points="886.87,-502 896.87,-498.5 886.87,-495 886.87,-502"/>
</a>
</g>
</g>
<!-- Node7 -->
<g id="Node000007" class="node">
<title>Node7</title>
<g id="a_Node000007"><a xlink:href="classprecice_1_1xml_1_1XMLTag.html#ab41dfcb33c2d54376d455e04bfbcdc4c" target="_top" xlink:title="Standard constructor.">
<polygon fill="white" stroke="#666666" points="1016,-465.5 897,-465.5 897,-435.5 1016,-435.5 1016,-465.5"/>
<text text-anchor="start" x="905" y="-453.5" font-family="Helvetica,sans-Serif" font-size="10.00">precice::xml::XMLTag</text>
<text text-anchor="middle" x="956.5" y="-442.5" font-family="Helvetica,sans-Serif" font-size="10.00">::XMLTag</text>
</a>
</g>
</g>
<!-- Node4&#45;&gt;Node7 -->
<g id="edge6_Node000004_Node000007" class="edge">
<title>Node4&#45;&gt;Node7</title>
<g id="a_edge6_Node000004_Node000007"><a xlink:title=" ">
<path fill="none" stroke="#63b8ff" d="M840.88,-483.44C857.51,-478.66 876.07,-473.33 893.32,-468.37"/>
<polygon fill="#63b8ff" stroke="#63b8ff" points="894.66,-471.63 903.3,-465.5 892.73,-464.9 894.66,-471.63"/>
</a>
</g>
</g>
<!-- Node8 -->
<g id="Node000008" class="node">
<title>Node8</title>
<g id="a_Node000008"><a xlink:href="namespaceprecice_1_1utils.html#a00b79785686ed1cfeffb43af0b212092" target="_top" xlink:title=" ">
<polygon fill="white" stroke="#666666" points="1214,-460 1066,-460 1066,-441 1214,-441 1214,-460"/>
<text text-anchor="middle" x="1140" y="-448" font-family="Helvetica,sans-Serif" font-size="10.00">precice::utils::isKebabStyle</text>
</a>
</g>
</g>
<!-- Node7&#45;&gt;Node8 -->
<g id="edge7_Node000007_Node000008" class="edge">
<title>Node7&#45;&gt;Node8</title>
<g id="a_edge7_Node000007_Node000008"><a xlink:title=" ">
<path fill="none" stroke="#63b8ff" d="M1016.18,-450.5C1028.8,-450.5 1042.38,-450.5 1055.74,-450.5"/>
<polygon fill="#63b8ff" stroke="#63b8ff" points="1055.9,-454 1065.9,-450.5 1055.9,-447 1055.9,-454"/>
</a>
</g>
</g>
<!-- Node9 -->
<g id="Node000009" class="node">
<title>Node9</title>
<g id="a_Node000009"><a target="_parent" xlink:href="http://en.cppreference.com/w/cpp/string/basic_string_view/begin.html#" xlink:title=" ">
<polygon fill="white" stroke="#666666" points="1378.5,-516 1252.5,-516 1252.5,-497 1378.5,-497 1378.5,-516"/>
<text text-anchor="middle" x="1315.5" y="-504" font-family="Helvetica,sans-Serif" font-size="10.00">std::string_view::begin</text>
</a>
</g>
</g>
<!-- Node8&#45;&gt;Node9 -->
<g id="edge8_Node000008_Node000009" class="edge">
<title>Node8&#45;&gt;Node9</title>
<g id="a_edge8_Node000008_Node000009"><a xlink:title=" ">
<path fill="none" stroke="#63b8ff" d="M1166.83,-460.02C1188.82,-468.01 1221.32,-479.51 1250,-488.5 1256.12,-490.42 1262.59,-492.34 1268.98,-494.19"/>
<polygon fill="#63b8ff" stroke="#63b8ff" points="1268.32,-497.64 1278.9,-497 1270.23,-490.9 1268.32,-497.64"/>
</a>
</g>
</g>
<!-- Node10 -->
<g id="Node000010" class="node">
<title>Node10</title>
<g id="a_Node000010"><a target="_parent" xlink:href="http://en.cppreference.com/w/cpp/string/basic_string_view/empty.html#" xlink:title=" ">
<polygon fill="white" stroke="#666666" points="1381,-479 1250,-479 1250,-460 1381,-460 1381,-479"/>
<text text-anchor="middle" x="1315.5" y="-467" font-family="Helvetica,sans-Serif" font-size="10.00">std::string_view::empty</text>
</a>
</g>
</g>
<!-- Node8&#45;&gt;Node10 -->
<g id="edge9_Node000008_Node000010" class="edge">
<title>Node8&#45;&gt;Node10</title>
<g id="a_edge9_Node000008_Node000010"><a xlink:title=" ">
<path fill="none" stroke="#63b8ff" d="M1214.08,-458.5C1222.5,-459.43 1231.11,-460.37 1239.56,-461.29"/>
<polygon fill="#63b8ff" stroke="#63b8ff" points="1239.45,-464.8 1249.77,-462.41 1240.21,-457.84 1239.45,-464.8"/>
</a>
</g>
</g>
<!-- Node11 -->
<g id="Node000011" class="node">
<title>Node11</title>
<g id="a_Node000011"><a target="_parent" xlink:href="http://en.cppreference.com/w/cpp/string/basic_string_view/end.html#" xlink:title=" ">
<polygon fill="white" stroke="#666666" points="1374,-442 1257,-442 1257,-423 1374,-423 1374,-442"/>
<text text-anchor="middle" x="1315.5" y="-430" font-family="Helvetica,sans-Serif" font-size="10.00">std::string_view::end</text>
</a>
</g>
</g>
<!-- Node8&#45;&gt;Node11 -->
<g id="edge10_Node000008_Node000011" class="edge">
<title>Node8&#45;&gt;Node11</title>
<g id="a_edge10_Node000008_Node000011"><a xlink:title=" ">
<path fill="none" stroke="#63b8ff" d="M1214.08,-442.92C1224.88,-441.8 1235.98,-440.65 1246.68,-439.54"/>
<polygon fill="#63b8ff" stroke="#63b8ff" points="1247.2,-443 1256.79,-438.49 1246.48,-436.04 1247.2,-443"/>
</a>
</g>
</g>
<!-- Node12 -->
<g id="Node000012" class="node">
<title>Node12</title>
<g id="a_Node000012"><a target="_parent" xlink:href="http://en.cppreference.com/w/cpp/regex/regex_match.html#" xlink:title=" ">
<polygon fill="white" stroke="#666666" points="1366,-405 1265,-405 1265,-386 1366,-386 1366,-405"/>
<text text-anchor="middle" x="1315.5" y="-393" font-family="Helvetica,sans-Serif" font-size="10.00">std::regex_match</text>
</a>
</g>
</g>
<!-- Node8&#45;&gt;Node12 -->
<g id="edge11_Node000008_Node000012" class="edge">
<title>Node8&#45;&gt;Node12</title>
<g id="a_edge11_Node000008_Node000012"><a xlink:title=" ">
<path fill="none" stroke="#63b8ff" d="M1169.15,-440.92C1191.11,-433.52 1222.42,-423.12 1250,-414.5 1256.97,-412.32 1264.39,-410.07 1271.61,-407.92"/>
<polygon fill="#63b8ff" stroke="#63b8ff" points="1272.7,-411.25 1281.29,-405.06 1270.71,-404.54 1272.7,-411.25"/>
</a>
</g>
</g>
<!-- Node13&#45;&gt;Node7 -->
<g id="edge13_Node000013_Node000007" class="edge">
<title>Node13&#45;&gt;Node7</title>
<g id="a_edge13_Node000013_Node000007"><a xlink:title=" ">
<path fill="none" stroke="#63b8ff" d="M847.38,-450.5C860.05,-450.5 873.55,-450.5 886.56,-450.5"/>
<polygon fill="#63b8ff" stroke="#63b8ff" points="886.87,-454 896.87,-450.5 886.87,-447 886.87,-454"/>
</a>
</g>
</g>
<!-- Node14&#45;&gt;Node7 -->
<g id="edge17_Node000014_Node000007" class="edge">
<title>Node14&#45;&gt;Node7</title>
<g id="a_edge17_Node000014_Node000007"><a xlink:title=" ">
<path fill="none" stroke="#63b8ff" d="M622.48,-343.58C692.41,-366.03 823.71,-408.19 898.86,-432.32"/>
<polygon fill="#63b8ff" stroke="#63b8ff" points="898.04,-435.73 908.63,-435.45 900.18,-429.06 898.04,-435.73"/>
</a>
</g>
</g>
<!-- Node15 -->
<g id="Node000015" class="node">
<title>Node15</title>
<g id="a_Node000015"><a target="_parent" xlink:href="http://en.cppreference.com/w/cpp/string/basic_string/empty.html#" xlink:title=" ">
<polygon fill="white" stroke="#666666" points="839,-338 736,-338 736,-319 839,-319 839,-338"/>
<text text-anchor="middle" x="787.5" y="-326" font-family="Helvetica,sans-Serif" font-size="10.00">std::string::empty</text>
</a>
</g>
</g>
<!-- Node14&#45;&gt;Node15 -->
<g id="edge15_Node000014_Node000015" class="edge">
<title>Node14&#45;&gt;Node15</title>
<g id="a_edge15_Node000014_Node000015"><a xlink:title=" ">
<path fill="none" stroke="#63b8ff" d="M634.28,-328.5C662.73,-328.5 696.87,-328.5 725.59,-328.5"/>
<polygon fill="#63b8ff" stroke="#63b8ff" points="725.91,-332 735.91,-328.5 725.91,-325 725.91,-332"/>
</a>
</g>
</g>
<!-- Node16 -->
<g id="Node000016" class="node">
<title>Node16</title>
<g id="a_Node000016"><a target="_parent" xlink:href="http://en.cppreference.com/w/cpp/memory/shared_ptr/make_shared.html#" xlink:title=" ">
<polygon fill="white" stroke="#666666" points="839,-298 736,-298 736,-279 839,-279 839,-298"/>
<text text-anchor="middle" x="787.5" y="-286" font-family="Helvetica,sans-Serif" font-size="10.00">std::make_shared</text>
</a>
</g>
</g>
<!-- Node14&#45;&gt;Node16 -->
<g id="edge16_Node000014_Node000016" class="edge">
<title>Node14&#45;&gt;Node16</title>
<g id="a_edge16_Node000014_Node000016"><a xlink:title=" ">
<path fill="none" stroke="#63b8ff" d="M634.28,-317.36C662.96,-311.92 697.43,-305.39 726.3,-299.91"/>
<polygon fill="#63b8ff" stroke="#63b8ff" points="727.09,-303.32 736.26,-298.02 725.79,-296.45 727.09,-303.32"/>
</a>
</g>
</g>
<!-- Node17&#45;&gt;Node3 -->
<g id="edge19_Node000017_Node000003" class="edge">
<title>Node17&#45;&gt;Node3</title>
<g id="a_edge19_Node000017_Node000003"><a xlink:title=" ">
<path fill="none" stroke="#63b8ff" d="M400.08,-602.4C407.24,-599.61 414.3,-596.63 421,-593.5 462.54,-574.08 506.65,-545.64 536.69,-524.94"/>
<polygon fill="#63b8ff" stroke="#63b8ff" points="538.94,-527.64 545.16,-519.06 534.95,-521.89 538.94,-527.64"/>
</a>
</g>
</g>
<!-- Node17&#45;&gt;Node14 -->
<g id="edge20_Node000017_Node000014" class="edge">
<title>Node17&#45;&gt;Node14</title>
<g id="a_edge20_Node000017_Node000014"><a xlink:title=" ">
<path fill="none" stroke="#63b8ff" d="M410.85,-602.3C414.48,-599.64 417.89,-596.72 421,-593.5 460.86,-552.22 430.17,-520.23 457,-469.5 481.73,-422.75 523.6,-377.15 549.83,-350.99"/>
<polygon fill="#63b8ff" stroke="#63b8ff" points="552.44,-353.33 557.11,-343.83 547.53,-348.34 552.44,-353.33"/>
</a>
</g>
</g>
<!-- Node18&#45;&gt;Node16 -->
<g id="edge23_Node000018_Node000016" class="edge">
<title>Node18&#45;&gt;Node16</title>
<g id="a_edge23_Node000018_Node000016"><a xlink:title=" ">
<path fill="none" stroke="#63b8ff" d="M398.52,-40.69C406.23,-43.35 413.83,-46.28 421,-49.5 564.13,-113.84 714.74,-230.37 767.17,-272.64"/>
<polygon fill="#63b8ff" stroke="#63b8ff" points="765.02,-275.41 775,-278.99 769.43,-269.97 765.02,-275.41"/>
</a>
</g>
</g>
<!-- Node19 -->
<g id="Node000019" class="node">
<title>Node19</title>
<g id="a_Node000019"><a xlink:href="classprecice_1_1xml_1_1XMLTag.html#aa8e8dd146d8ade43e1656618dbad79b8" target="_top" xlink:title="Returns full name consisting of xml namespace + &quot;:&quot; + name.">
<polygon fill="white" stroke="#666666" points="634,-35.5 515,-35.5 515,-5.5 634,-5.5 634,-35.5"/>
<text text-anchor="start" x="523" y="-23.5" font-family="Helvetica,sans-Serif" font-size="10.00">precice::xml::XMLTag</text>
<text text-anchor="middle" x="574.5" y="-12.5" font-family="Helvetica,sans-Serif" font-size="10.00">::getFullName</text>
</a>
</g>
</g>
<!-- Node18&#45;&gt;Node19 -->
<g id="edge22_Node000018_Node000019" class="edge">
<title>Node18&#45;&gt;Node19</title>
<g id="a_edge22_Node000018_Node000019"><a xlink:title=" ">
<path fill="none" stroke="#63b8ff" d="M398.59,-20.5C432.84,-20.5 471.95,-20.5 504.49,-20.5"/>
<polygon fill="#63b8ff" stroke="#63b8ff" points="504.81,-24 514.81,-20.5 504.81,-17 504.81,-24"/>
</a>
</g>
</g>
<!-- Node20&#45;&gt;Node14 -->
<g id="edge25_Node000020_Node000014" class="edge">
<title>Node20&#45;&gt;Node14</title>
<g id="a_edge25_Node000020_Node000014"><a xlink:title=" ">
<path fill="none" stroke="#63b8ff" d="M398.55,-217.61C406.26,-220.28 413.85,-223.24 421,-226.5 468.48,-248.14 517.65,-283.86 546.89,-306.77"/>
<polygon fill="#63b8ff" stroke="#63b8ff" points="544.94,-309.69 554.95,-313.16 549.29,-304.2 544.94,-309.69"/>
</a>
</g>
</g>
<!-- Node21&#45;&gt;Node14 -->
<g id="edge27_Node000021_Node000014" class="edge">
<title>Node21&#45;&gt;Node14</title>
<g id="a_edge27_Node000021_Node000014"><a xlink:title=" ">
<path fill="none" stroke="#63b8ff" d="M398.59,-156.64C406.41,-159.73 414.01,-163.32 421,-167.5 452.31,-186.23 520.84,-265.47 554.32,-305.36"/>
<polygon fill="#63b8ff" stroke="#63b8ff" points="551.81,-307.81 560.91,-313.23 557.18,-303.32 551.81,-307.81"/>
</a>
</g>
</g>
<!-- Node22&#45;&gt;Node14 -->
<g id="edge29_Node000022_Node000014" class="edge">
<title>Node22&#45;&gt;Node14</title>
<g id="a_edge29_Node000022_Node000014"><a xlink:title=" ">
<path fill="none" stroke="#63b8ff" d="M398.57,-94.26C406.71,-98 414.39,-102.67 421,-108.5 452.4,-136.16 434.92,-159.95 457,-195.5 483.72,-238.51 524.37,-281.31 549.91,-306.31"/>
<polygon fill="#63b8ff" stroke="#63b8ff" points="547.69,-309.04 557.31,-313.48 552.56,-304.01 547.69,-309.04"/>
</a>
</g>
</g>
<!-- Node23&#45;&gt;Node14 -->
<g id="edge31_Node000023_Node000014" class="edge">
<title>Node23&#45;&gt;Node14</title>
<g id="a_edge31_Node000023_Node000014"><a xlink:title=" ">
<path fill="none" stroke="#63b8ff" d="M398.59,-359.57C432.99,-353.46 472.29,-346.48 504.91,-340.68"/>
<polygon fill="#63b8ff" stroke="#63b8ff" points="505.57,-344.12 514.81,-338.92 504.35,-337.23 505.57,-344.12"/>
</a>
</g>
</g>
<!-- Node24&#45;&gt;Node14 -->
<g id="edge33_Node000024_Node000014" class="edge">
<title>Node24&#45;&gt;Node14</title>
<g id="a_edge33_Node000024_Node000014"><a xlink:title=" ">
<path fill="none" stroke="#63b8ff" d="M398.59,-319.72C432.84,-321.44 471.95,-323.4 504.49,-325.04"/>
<polygon fill="#63b8ff" stroke="#63b8ff" points="504.64,-328.55 514.81,-325.55 504.99,-321.56 504.64,-328.55"/>
</a>
</g>
</g>
<!-- Node25&#45;&gt;Node3 -->
<g id="edge35_Node000025_Node000003" class="edge">
<title>Node25&#45;&gt;Node3</title>
<g id="a_edge35_Node000025_Node000003"><a xlink:title=" ">
<path fill="none" stroke="#63b8ff" d="M396.45,-542.93C423.63,-536.11 454.05,-528.48 481.9,-521.49"/>
<polygon fill="#63b8ff" stroke="#63b8ff" points="482.79,-524.87 491.64,-519.04 481.09,-518.08 482.79,-524.87"/>
</a>
</g>
</g>
<!-- Node25&#45;&gt;Node14 -->
<g id="edge36_Node000025_Node000014" class="edge">
<title>Node25&#45;&gt;Node14</title>
<g id="a_edge36_Node000025_Node000014"><a xlink:title=" ">
<path fill="none" stroke="#63b8ff" d="M406.36,-542.97C411.54,-540.2 416.47,-537.06 421,-533.5 446.65,-513.32 438.53,-496.41 457,-469.5 487.25,-425.42 528.11,-378.33 552.53,-351.25"/>
<polygon fill="#63b8ff" stroke="#63b8ff" points="555.13,-353.6 559.26,-343.84 549.94,-348.9 555.13,-353.6"/>
</a>
</g>
</g>
<!-- Node26&#45;&gt;Node3 -->
<g id="edge38_Node000026_Node000003" class="edge">
<title>Node26&#45;&gt;Node3</title>
<g id="a_edge38_Node000026_Node000003"><a xlink:title=" ">
<path fill="none" stroke="#63b8ff" d="M415.01,-498.5C425.35,-498.5 435.96,-498.5 446.54,-498.5"/>
<polygon fill="#63b8ff" stroke="#63b8ff" points="446.67,-502 456.67,-498.5 446.67,-495 446.67,-502"/>
</a>
</g>
</g>
<!-- Node26&#45;&gt;Node14 -->
<g id="edge39_Node000026_Node000014" class="edge">
<title>Node26&#45;&gt;Node14</title>
<g id="a_edge39_Node000026_Node000014"><a xlink:title=" ">
<path fill="none" stroke="#63b8ff" d="M403.19,-472.5C409.35,-469.74 415.35,-466.75 421,-463.5 474.54,-432.77 525.98,-381.17 553.28,-351.45"/>
<polygon fill="#63b8ff" stroke="#63b8ff" points="556.2,-353.45 560.33,-343.69 551.02,-348.74 556.2,-353.45"/>
</a>
</g>
</g>
<!-- Node27&#45;&gt;Node14 -->
<g id="edge41_Node000027_Node000014" class="edge">
<title>Node27&#45;&gt;Node14</title>
<g id="a_edge41_Node000027_Node000014"><a xlink:title=" ">
<path fill="none" stroke="#63b8ff" d="M388.37,-277.04C426.5,-287.64 472.58,-300.44 509.22,-310.63"/>
<polygon fill="#63b8ff" stroke="#63b8ff" points="508.72,-314.12 519.29,-313.43 510.6,-307.38 508.72,-314.12"/>
</a>
</g>
</g>
</g>
</svg>
