<?xml version="1.0" encoding="UTF-8" standalone="no"?>
<!DOCTYPE svg PUBLIC "-//W3C//DTD SVG 1.1//EN"
 "http://www.w3.org/Graphics/SVG/1.1/DTD/svg11.dtd">
<!-- Generated by graphviz version 2.43.0 (0)
 -->
<!-- Title: precice::m2n::PointToPointCommunication::broadcastSendMesh Pages: 1 -->
<svg width="701pt" height="449pt"
 viewBox="0.00 0.00 701.00 449.00" xmlns="http://www.w3.org/2000/svg" xmlns:xlink="http://www.w3.org/1999/xlink">
<g id="graph0" class="graph" transform="scale(1 1) rotate(0) translate(4 445)">
<title>precice::m2n::PointToPointCommunication::broadcastSendMesh</title>
<polygon fill="white" stroke="transparent" points="-4,4 -4,-445 697,-445 697,4 -4,4"/>
<!-- Node1 -->
<g id="node1" class="node">
<title>Node1</title>
<g id="a_node1"><a xlink:title="Broadcasts a mesh to connected ranks on remote participant.">
<polygon fill="#bfbfbf" stroke="black" points="0,-202.5 0,-232.5 198,-232.5 198,-202.5 0,-202.5"/>
<text text-anchor="start" x="8" y="-220.5" font-family="Helvetica,sans-Serif" font-size="10.00">precice::m2n::PointToPoint</text>
<text text-anchor="middle" x="99" y="-209.5" font-family="Helvetica,sans-Serif" font-size="10.00">Communication::broadcastSendMesh</text>
</a>
</g>
</g>
<!-- Node2 -->
<g id="node2" class="node">
<title>Node2</title>
<g id="a_node2"><a xlink:href="classprecice_1_1com_1_1CommunicateMesh.html#ace810ddd981fb3e2553a232a6afbf335" target="_top" xlink:title="Sends a constructed mesh to the receiver with given rank.">
<polygon fill="white" stroke="black" points="234,-202.5 234,-232.5 387,-232.5 387,-202.5 234,-202.5"/>
<text text-anchor="start" x="242" y="-220.5" font-family="Helvetica,sans-Serif" font-size="10.00">precice::com::Communicate</text>
<text text-anchor="middle" x="310.5" y="-209.5" font-family="Helvetica,sans-Serif" font-size="10.00">Mesh::sendMesh</text>
</a>
</g>
</g>
<!-- Node1&#45;&gt;Node2 -->
<g id="edge1" class="edge">
<title>Node1&#45;&gt;Node2</title>
<path fill="none" stroke="midnightblue" d="M198,-217.5C206.56,-217.5 215.17,-217.5 223.62,-217.5"/>
<polygon fill="midnightblue" stroke="midnightblue" points="223.82,-221 233.82,-217.5 223.82,-214 223.82,-221"/>
</g>
<!-- Node3 -->
<g id="node3" class="node">
<title>Node3</title>
<g id="a_node3"><a xlink:href="classprecice_1_1mesh_1_1Mesh.html#a1208772095354f328cae1b087e64642e" target="_top" xlink:title="Returns modifiable container holding all edges.">
<polygon fill="white" stroke="black" points="423,-410.5 423,-440.5 540,-440.5 540,-410.5 423,-410.5"/>
<text text-anchor="start" x="431" y="-428.5" font-family="Helvetica,sans-Serif" font-size="10.00">precice::mesh::Mesh</text>
<text text-anchor="middle" x="481.5" y="-417.5" font-family="Helvetica,sans-Serif" font-size="10.00">::edges</text>
</a>
</g>
</g>
<!-- Node2&#45;&gt;Node3 -->
<g id="edge2" class="edge">
<title>Node2&#45;&gt;Node3</title>
<path fill="none" stroke="midnightblue" d="M316.85,-232.55C329.81,-267.02 366.1,-352.52 423,-401.5 424.35,-402.66 425.77,-403.78 427.24,-404.84"/>
<polygon fill="midnightblue" stroke="midnightblue" points="425.77,-408.06 436.1,-410.42 429.5,-402.13 425.77,-408.06"/>
</g>
<!-- Node4 -->
<g id="node4" class="node">
<title>Node4</title>
<g id="a_node4"><a xlink:href="classprecice_1_1mesh_1_1Mesh.html#a136f6b4ce235025e418fab0ca5f350ff" target="_top" xlink:title=" ">
<polygon fill="white" stroke="black" points="423,-361.5 423,-391.5 540,-391.5 540,-361.5 423,-361.5"/>
<text text-anchor="start" x="431" y="-379.5" font-family="Helvetica,sans-Serif" font-size="10.00">precice::mesh::Mesh</text>
<text text-anchor="middle" x="481.5" y="-368.5" font-family="Helvetica,sans-Serif" font-size="10.00">::getDimensions</text>
</a>
</g>
</g>
<!-- Node2&#45;&gt;Node4 -->
<g id="edge3" class="edge">
<title>Node2&#45;&gt;Node4</title>
<path fill="none" stroke="midnightblue" d="M320.39,-232.5C337.25,-259.79 376.36,-317.92 423,-352.5 424.84,-353.86 426.76,-355.16 428.75,-356.4"/>
<polygon fill="midnightblue" stroke="midnightblue" points="427.33,-359.62 437.76,-361.45 430.75,-353.51 427.33,-359.62"/>
</g>
<!-- Node5 -->
<g id="node5" class="node">
<title>Node5</title>
<g id="a_node5"><a xlink:href="classprecice_1_1mesh_1_1Mesh.html#a3185fe962ba3e8fe0b3cf451681e6a48" target="_top" xlink:title="Returns the name of the mesh, as set in the config file.">
<polygon fill="white" stroke="black" points="423,-312.5 423,-342.5 540,-342.5 540,-312.5 423,-312.5"/>
<text text-anchor="start" x="431" y="-330.5" font-family="Helvetica,sans-Serif" font-size="10.00">precice::mesh::Mesh</text>
<text text-anchor="middle" x="481.5" y="-319.5" font-family="Helvetica,sans-Serif" font-size="10.00">::getName</text>
</a>
</g>
</g>
<!-- Node2&#45;&gt;Node5 -->
<g id="edge4" class="edge">
<title>Node2&#45;&gt;Node5</title>
<path fill="none" stroke="midnightblue" d="M330.66,-232.53C352.43,-249.29 389.32,-276.77 423,-297.5 428.54,-300.91 434.5,-304.3 440.42,-307.52"/>
<polygon fill="midnightblue" stroke="midnightblue" points="439.14,-310.81 449.61,-312.41 442.43,-304.62 439.14,-310.81"/>
</g>
<!-- Node6 -->
<g id="node6" class="node">
<title>Node6</title>
<g id="a_node6"><a xlink:href="classprecice_1_1mesh_1_1Mesh.html#a45245f4ead66206f426fdcba83b57707" target="_top" xlink:title=" ">
<polygon fill="white" stroke="black" points="423,-224.5 423,-254.5 540,-254.5 540,-224.5 423,-224.5"/>
<text text-anchor="start" x="431" y="-242.5" font-family="Helvetica,sans-Serif" font-size="10.00">precice::mesh::Mesh</text>
<text text-anchor="middle" x="481.5" y="-231.5" font-family="Helvetica,sans-Serif" font-size="10.00">::hasConnectivity</text>
</a>
</g>
</g>
<!-- Node2&#45;&gt;Node6 -->
<g id="edge5" class="edge">
<title>Node2&#45;&gt;Node6</title>
<path fill="none" stroke="midnightblue" d="M387.1,-227.34C395.66,-228.46 404.35,-229.59 412.8,-230.69"/>
<polygon fill="midnightblue" stroke="midnightblue" points="412.59,-234.19 422.96,-232.01 413.5,-227.25 412.59,-234.19"/>
</g>
<!-- Node7 -->
<g id="node7" class="node">
<title>Node7</title>
<g id="a_node7"><a xlink:href="classprecice_1_1mesh_1_1Mesh.html#a2c668ba49ee60871ddacbbbbb659eabe" target="_top" xlink:title=" ">
<polygon fill="white" stroke="black" points="576,-264.5 576,-294.5 693,-294.5 693,-264.5 576,-264.5"/>
<text text-anchor="start" x="584" y="-282.5" font-family="Helvetica,sans-Serif" font-size="10.00">precice::mesh::Mesh</text>
<text text-anchor="middle" x="634.5" y="-271.5" font-family="Helvetica,sans-Serif" font-size="10.00">::hasEdges</text>
</a>
</g>
</g>
<!-- Node2&#45;&gt;Node7 -->
<g id="edge9" class="edge">
<title>Node2&#45;&gt;Node7</title>
<path fill="none" stroke="midnightblue" d="M339.96,-232.57C361.98,-243.46 393.58,-257.46 423,-264.5 469.91,-275.73 524.24,-279.38 565.95,-280.27"/>
<polygon fill="midnightblue" stroke="midnightblue" points="565.94,-283.77 576,-280.44 566.06,-276.77 565.94,-283.77"/>
</g>
<!-- Node8 -->
<g id="node8" class="node">
<title>Node8</title>
<g id="a_node8"><a xlink:href="classprecice_1_1mesh_1_1Mesh.html#a116b5b631992b553eb0086a63a91faa6" target="_top" xlink:title=" ">
<polygon fill="white" stroke="black" points="576,-212.5 576,-242.5 693,-242.5 693,-212.5 576,-212.5"/>
<text text-anchor="start" x="584" y="-230.5" font-family="Helvetica,sans-Serif" font-size="10.00">precice::mesh::Mesh</text>
<text text-anchor="middle" x="634.5" y="-219.5" font-family="Helvetica,sans-Serif" font-size="10.00">::hasTetrahedra</text>
</a>
</g>
</g>
<!-- Node2&#45;&gt;Node8 -->
<g id="edge10" class="edge">
<title>Node2&#45;&gt;Node8</title>
<path fill="none" stroke="midnightblue" d="M387.22,-214.09C431.75,-212.77 489.13,-212.25 540,-215.5 548.33,-216.03 557.06,-216.83 565.69,-217.76"/>
<polygon fill="midnightblue" stroke="midnightblue" points="565.42,-221.26 575.75,-218.92 566.22,-214.3 565.42,-221.26"/>
</g>
<!-- Node9 -->
<g id="node9" class="node">
<title>Node9</title>
<g id="a_node9"><a xlink:href="classprecice_1_1mesh_1_1Mesh.html#afc779a392f25a3c9b0ccab04791bbbd9" target="_top" xlink:title=" ">
<polygon fill="white" stroke="black" points="576,-156.5 576,-186.5 693,-186.5 693,-156.5 576,-156.5"/>
<text text-anchor="start" x="584" y="-174.5" font-family="Helvetica,sans-Serif" font-size="10.00">precice::mesh::Mesh</text>
<text text-anchor="middle" x="634.5" y="-163.5" font-family="Helvetica,sans-Serif" font-size="10.00">::hasTriangles</text>
</a>
</g>
</g>
<!-- Node2&#45;&gt;Node9 -->
<g id="edge11" class="edge">
<title>Node2&#45;&gt;Node9</title>
<path fill="none" stroke="midnightblue" d="M387.4,-206.66C441.53,-198.92 513.65,-188.62 565.82,-181.17"/>
<polygon fill="midnightblue" stroke="midnightblue" points="566.57,-184.6 575.98,-179.72 565.58,-177.67 566.57,-184.6"/>
</g>
<!-- Node10 -->
<g id="node10" class="node">
<title>Node10</title>
<g id="a_node10"><a xlink:href="classprecice_1_1mesh_1_1Mesh.html#a479bf9583fd5a233f8ed1c8b9b3fe5c4" target="_top" xlink:title="Returns modifiable container holding all tetrahedra.">
<polygon fill="white" stroke="black" points="423,-98.5 423,-128.5 540,-128.5 540,-98.5 423,-98.5"/>
<text text-anchor="start" x="431" y="-116.5" font-family="Helvetica,sans-Serif" font-size="10.00">precice::mesh::Mesh</text>
<text text-anchor="middle" x="481.5" y="-105.5" font-family="Helvetica,sans-Serif" font-size="10.00">::tetrahedra</text>
</a>
</g>
</g>
<!-- Node2&#45;&gt;Node10 -->
<g id="edge12" class="edge">
<title>Node2&#45;&gt;Node10</title>
<path fill="none" stroke="midnightblue" d="M332.86,-202.35C354.99,-186.88 390.79,-162.52 423,-143.5 428.8,-140.08 435.02,-136.62 441.16,-133.32"/>
<polygon fill="midnightblue" stroke="midnightblue" points="442.82,-136.4 450.03,-128.64 439.56,-130.21 442.82,-136.4"/>
</g>
<!-- Node11 -->
<g id="node11" class="node">
<title>Node11</title>
<g id="a_node11"><a xlink:href="classprecice_1_1mesh_1_1Mesh.html#ad74df9a7f4cb96c251d32c3159d67352" target="_top" xlink:title="Returns modifiable container holding all triangles.">
<polygon fill="white" stroke="black" points="423,-49.5 423,-79.5 540,-79.5 540,-49.5 423,-49.5"/>
<text text-anchor="start" x="431" y="-67.5" font-family="Helvetica,sans-Serif" font-size="10.00">precice::mesh::Mesh</text>
<text text-anchor="middle" x="481.5" y="-56.5" font-family="Helvetica,sans-Serif" font-size="10.00">::triangles</text>
</a>
</g>
</g>
<!-- Node2&#45;&gt;Node11 -->
<g id="edge13" class="edge">
<title>Node2&#45;&gt;Node11</title>
<path fill="none" stroke="midnightblue" d="M321.1,-202.36C338.51,-175.99 377.68,-121.31 423,-88.5 424.85,-87.16 426.79,-85.88 428.78,-84.65"/>
<polygon fill="midnightblue" stroke="midnightblue" points="430.78,-87.55 437.83,-79.65 427.39,-81.42 430.78,-87.55"/>
</g>
<!-- Node12 -->
<g id="node12" class="node">
<title>Node12</title>
<g id="a_node12"><a xlink:href="classprecice_1_1mesh_1_1Mesh.html#a70d28ab188762edbe9a7b5b8439e9906" target="_top" xlink:title="Returns modifieable container holding all vertices.">
<polygon fill="white" stroke="black" points="423,-0.5 423,-30.5 540,-30.5 540,-0.5 423,-0.5"/>
<text text-anchor="start" x="431" y="-18.5" font-family="Helvetica,sans-Serif" font-size="10.00">precice::mesh::Mesh</text>
<text text-anchor="middle" x="481.5" y="-7.5" font-family="Helvetica,sans-Serif" font-size="10.00">::vertices</text>
</a>
</g>
</g>
<!-- Node2&#45;&gt;Node12 -->
<g id="edge14" class="edge">
<title>Node2&#45;&gt;Node12</title>
<path fill="none" stroke="midnightblue" d="M317.19,-202.44C330.61,-168.78 367.38,-86.67 423,-39.5 424.36,-38.35 425.79,-37.24 427.26,-36.18"/>
<polygon fill="midnightblue" stroke="midnightblue" points="429.52,-38.9 436.15,-30.63 425.81,-32.96 429.52,-38.9"/>
</g>
<!-- Node6&#45;&gt;Node7 -->
<g id="edge6" class="edge">
<title>Node6&#45;&gt;Node7</title>
<path fill="none" stroke="midnightblue" d="M539.16,-254.51C548.19,-256.9 557.61,-259.4 566.85,-261.84"/>
<polygon fill="midnightblue" stroke="midnightblue" points="566.21,-265.3 576.78,-264.47 568.01,-258.53 566.21,-265.3"/>
</g>
<!-- Node6&#45;&gt;Node8 -->
<g id="edge7" class="edge">
<title>Node6&#45;&gt;Node8</title>
<path fill="none" stroke="midnightblue" d="M540.02,-234.93C548.46,-234.26 557.23,-233.56 565.86,-232.88"/>
<polygon fill="midnightblue" stroke="midnightblue" points="566.2,-236.36 575.89,-232.08 565.65,-229.38 566.2,-236.36"/>
</g>
<!-- Node6&#45;&gt;Node9 -->
<g id="edge8" class="edge">
<title>Node6&#45;&gt;Node9</title>
<path fill="none" stroke="midnightblue" d="M516.01,-224.41C538.1,-214.46 567.23,-201.35 590.95,-190.66"/>
<polygon fill="midnightblue" stroke="midnightblue" points="592.4,-193.85 600.08,-186.55 589.53,-187.46 592.4,-193.85"/>
</g>
</g>
</svg>
