<?xml version="1.0" encoding="UTF-8" standalone="no"?>
<!DOCTYPE svg PUBLIC "-//W3C//DTD SVG 1.1//EN"
 "http://www.w3.org/Graphics/SVG/1.1/DTD/svg11.dtd">
<!-- Generated by graphviz version 2.43.0 (0)
 -->
<!-- Title: precice::io::ExportVTK::exportMesh Pages: 1 -->
<svg width="299pt" height="529pt"
 viewBox="0.00 0.00 299.00 529.00" xmlns="http://www.w3.org/2000/svg" xmlns:xlink="http://www.w3.org/1999/xlink">
<g id="graph0" class="graph" transform="scale(1 1) rotate(0) translate(4 525)">
<title>precice::io::ExportVTK::exportMesh</title>
<polygon fill="white" stroke="transparent" points="-4,4 -4,-525 295,-525 295,4 -4,4"/>
<!-- Node1 -->
<g id="node1" class="node">
<title>Node1</title>
<g id="a_node1"><a xlink:title=" ">
<polygon fill="#bfbfbf" stroke="black" points="0,-245.5 0,-275.5 124,-275.5 124,-245.5 0,-245.5"/>
<text text-anchor="start" x="8" y="-263.5" font-family="Helvetica,sans-Serif" font-size="10.00">precice::io::ExportVTK</text>
<text text-anchor="middle" x="62" y="-252.5" font-family="Helvetica,sans-Serif" font-size="10.00">::exportMesh</text>
</a>
</g>
</g>
<!-- Node2 -->
<g id="node2" class="node">
<title>Node2</title>
<g id="a_node2"><a xlink:href="classprecice_1_1mesh_1_1Mesh.html#a1208772095354f328cae1b087e64642e" target="_top" xlink:title="Returns modifiable container holding all edges.">
<polygon fill="white" stroke="black" points="167,-490.5 167,-520.5 284,-520.5 284,-490.5 167,-490.5"/>
<text text-anchor="start" x="175" y="-508.5" font-family="Helvetica,sans-Serif" font-size="10.00">precice::mesh::Mesh</text>
<text text-anchor="middle" x="225.5" y="-497.5" font-family="Helvetica,sans-Serif" font-size="10.00">::edges</text>
</a>
</g>
</g>
<!-- Node1&#45;&gt;Node2 -->
<g id="edge1" class="edge">
<title>Node1&#45;&gt;Node2</title>
<path fill="none" stroke="midnightblue" d="M65.47,-275.72C72.67,-315.25 97.24,-422.24 160,-481.5 161.25,-482.68 162.57,-483.81 163.94,-484.88"/>
<polygon fill="midnightblue" stroke="midnightblue" points="162.03,-487.81 172.29,-490.45 165.91,-481.99 162.03,-487.81"/>
</g>
<!-- Node3 -->
<g id="node3" class="node">
<title>Node3</title>
<g id="a_node3"><a xlink:href="classprecice_1_1mesh_1_1Mesh.html#a136f6b4ce235025e418fab0ca5f350ff" target="_top" xlink:title=" ">
<polygon fill="white" stroke="black" points="167,-441.5 167,-471.5 284,-471.5 284,-441.5 167,-441.5"/>
<text text-anchor="start" x="175" y="-459.5" font-family="Helvetica,sans-Serif" font-size="10.00">precice::mesh::Mesh</text>
<text text-anchor="middle" x="225.5" y="-448.5" font-family="Helvetica,sans-Serif" font-size="10.00">::getDimensions</text>
</a>
</g>
</g>
<!-- Node1&#45;&gt;Node3 -->
<g id="edge2" class="edge">
<title>Node1&#45;&gt;Node3</title>
<path fill="none" stroke="midnightblue" d="M67.57,-275.7C78.28,-308.84 108.12,-388.2 160,-432.5 161.5,-433.78 163.07,-435 164.71,-436.15"/>
<polygon fill="midnightblue" stroke="midnightblue" points="162.93,-439.17 173.29,-441.41 166.59,-433.2 162.93,-439.17"/>
</g>
<!-- Node4 -->
<g id="node4" class="node">
<title>Node4</title>
<g id="a_node4"><a xlink:href="classprecice_1_1mesh_1_1Mesh.html#a3185fe962ba3e8fe0b3cf451681e6a48" target="_top" xlink:title="Returns the name of the mesh, as set in the config file.">
<polygon fill="white" stroke="black" points="167,-392.5 167,-422.5 284,-422.5 284,-392.5 167,-392.5"/>
<text text-anchor="start" x="175" y="-410.5" font-family="Helvetica,sans-Serif" font-size="10.00">precice::mesh::Mesh</text>
<text text-anchor="middle" x="225.5" y="-399.5" font-family="Helvetica,sans-Serif" font-size="10.00">::getName</text>
</a>
</g>
</g>
<!-- Node1&#45;&gt;Node4 -->
<g id="edge3" class="edge">
<title>Node1&#45;&gt;Node4</title>
<path fill="none" stroke="midnightblue" d="M71.15,-275.55C85.73,-301.17 118.68,-353.39 160,-383.5 161.88,-384.87 163.85,-386.17 165.89,-387.41"/>
<polygon fill="midnightblue" stroke="midnightblue" points="164.67,-390.73 175.13,-392.4 168,-384.57 164.67,-390.73"/>
</g>
<!-- Node5 -->
<g id="node5" class="node">
<title>Node5</title>
<g id="a_node5"><a xlink:href="namespaceTCB__SPAN__NAMESPACE__NAME_1_1detail.html#a876af6f91231ae4e7e7316f5402682dc" target="_top" xlink:title=" ">
<polygon fill="white" stroke="black" points="160,-343.5 160,-373.5 291,-373.5 291,-343.5 160,-343.5"/>
<text text-anchor="start" x="168" y="-361.5" font-family="Helvetica,sans-Serif" font-size="10.00">TCB_SPAN_NAMESPACE</text>
<text text-anchor="middle" x="225.5" y="-350.5" font-family="Helvetica,sans-Serif" font-size="10.00">_NAME::detail::size</text>
</a>
</g>
</g>
<!-- Node1&#45;&gt;Node5 -->
<g id="edge4" class="edge">
<title>Node1&#45;&gt;Node5</title>
<path fill="none" stroke="midnightblue" d="M79.46,-275.51C97.95,-291.76 129.4,-317.62 160,-334.5 163.02,-336.17 166.18,-337.76 169.41,-339.28"/>
<polygon fill="midnightblue" stroke="midnightblue" points="168.08,-342.52 178.64,-343.36 170.91,-336.12 168.08,-342.52"/>
</g>
<!-- Node6 -->
<g id="node6" class="node">
<title>Node6</title>
<g id="a_node6"><a xlink:href="classprecice_1_1mesh_1_1Mesh.html#a479bf9583fd5a233f8ed1c8b9b3fe5c4" target="_top" xlink:title="Returns modifiable container holding all tetrahedra.">
<polygon fill="white" stroke="black" points="167,-294.5 167,-324.5 284,-324.5 284,-294.5 167,-294.5"/>
<text text-anchor="start" x="175" y="-312.5" font-family="Helvetica,sans-Serif" font-size="10.00">precice::mesh::Mesh</text>
<text text-anchor="middle" x="225.5" y="-301.5" font-family="Helvetica,sans-Serif" font-size="10.00">::tetrahedra</text>
</a>
</g>
</g>
<!-- Node1&#45;&gt;Node6 -->
<g id="edge5" class="edge">
<title>Node1&#45;&gt;Node6</title>
<path fill="none" stroke="midnightblue" d="M112.77,-275.6C129.28,-280.61 147.81,-286.23 164.97,-291.44"/>
<polygon fill="midnightblue" stroke="midnightblue" points="164.31,-294.89 174.89,-294.45 166.34,-288.2 164.31,-294.89"/>
</g>
<!-- Node7 -->
<g id="node7" class="node">
<title>Node7</title>
<g id="a_node7"><a xlink:href="classprecice_1_1mesh_1_1Mesh.html#ad74df9a7f4cb96c251d32c3159d67352" target="_top" xlink:title="Returns modifiable container holding all triangles.">
<polygon fill="white" stroke="black" points="167,-245.5 167,-275.5 284,-275.5 284,-245.5 167,-245.5"/>
<text text-anchor="start" x="175" y="-263.5" font-family="Helvetica,sans-Serif" font-size="10.00">precice::mesh::Mesh</text>
<text text-anchor="middle" x="225.5" y="-252.5" font-family="Helvetica,sans-Serif" font-size="10.00">::triangles</text>
</a>
</g>
</g>
<!-- Node1&#45;&gt;Node7 -->
<g id="edge6" class="edge">
<title>Node1&#45;&gt;Node7</title>
<path fill="none" stroke="midnightblue" d="M124.06,-260.5C134.68,-260.5 145.8,-260.5 156.59,-260.5"/>
<polygon fill="midnightblue" stroke="midnightblue" points="156.82,-264 166.82,-260.5 156.82,-257 156.82,-264"/>
</g>
<!-- Node8 -->
<g id="node8" class="node">
<title>Node8</title>
<g id="a_node8"><a xlink:href="classprecice_1_1mesh_1_1Mesh.html#a70d28ab188762edbe9a7b5b8439e9906" target="_top" xlink:title="Returns modifieable container holding all vertices.">
<polygon fill="white" stroke="black" points="167,-196.5 167,-226.5 284,-226.5 284,-196.5 167,-196.5"/>
<text text-anchor="start" x="175" y="-214.5" font-family="Helvetica,sans-Serif" font-size="10.00">precice::mesh::Mesh</text>
<text text-anchor="middle" x="225.5" y="-203.5" font-family="Helvetica,sans-Serif" font-size="10.00">::vertices</text>
</a>
</g>
</g>
<!-- Node1&#45;&gt;Node8 -->
<g id="edge7" class="edge">
<title>Node1&#45;&gt;Node8</title>
<path fill="none" stroke="midnightblue" d="M112.77,-245.4C129.28,-240.39 147.81,-234.77 164.97,-229.56"/>
<polygon fill="midnightblue" stroke="midnightblue" points="166.34,-232.8 174.89,-226.55 164.31,-226.11 166.34,-232.8"/>
</g>
<!-- Node9 -->
<g id="node9" class="node">
<title>Node9</title>
<g id="a_node9"><a xlink:href="classprecice_1_1io_1_1ExportVTK.html#a36a5ee193ff949d9bc9b0979c27e2aea" target="_top" xlink:title=" ">
<polygon fill="white" stroke="black" points="163.5,-147.5 163.5,-177.5 287.5,-177.5 287.5,-147.5 163.5,-147.5"/>
<text text-anchor="start" x="171.5" y="-165.5" font-family="Helvetica,sans-Serif" font-size="10.00">precice::io::ExportVTK</text>
<text text-anchor="middle" x="225.5" y="-154.5" font-family="Helvetica,sans-Serif" font-size="10.00">::writeLine</text>
</a>
</g>
</g>
<!-- Node1&#45;&gt;Node9 -->
<g id="edge8" class="edge">
<title>Node1&#45;&gt;Node9</title>
<path fill="none" stroke="midnightblue" d="M80.22,-245.21C98.86,-229.22 129.97,-204.19 160,-187.5 163.66,-185.46 167.52,-183.52 171.46,-181.68"/>
<polygon fill="midnightblue" stroke="midnightblue" points="173,-184.82 180.73,-177.58 170.17,-178.42 173,-184.82"/>
</g>
<!-- Node10 -->
<g id="node10" class="node">
<title>Node10</title>
<g id="a_node10"><a xlink:href="classprecice_1_1io_1_1ExportVTK.html#a56ad08c92bff7213cd0508ab23d0d67b" target="_top" xlink:title=" ">
<polygon fill="white" stroke="black" points="163.5,-98.5 163.5,-128.5 287.5,-128.5 287.5,-98.5 163.5,-98.5"/>
<text text-anchor="start" x="171.5" y="-116.5" font-family="Helvetica,sans-Serif" font-size="10.00">precice::io::ExportVTK</text>
<text text-anchor="middle" x="225.5" y="-105.5" font-family="Helvetica,sans-Serif" font-size="10.00">::writeTetrahedron</text>
</a>
</g>
</g>
<!-- Node1&#45;&gt;Node10 -->
<g id="edge9" class="edge">
<title>Node1&#45;&gt;Node10</title>
<path fill="none" stroke="midnightblue" d="M71.46,-245.23C86.27,-219.76 119.24,-168.49 160,-138.5 162.48,-136.67 165.12,-134.96 167.85,-133.36"/>
<polygon fill="midnightblue" stroke="midnightblue" points="169.62,-136.38 176.82,-128.61 166.34,-130.19 169.62,-136.38"/>
</g>
<!-- Node11 -->
<g id="node11" class="node">
<title>Node11</title>
<g id="a_node11"><a xlink:href="classprecice_1_1io_1_1ExportVTK.html#ad61070a5ab935aab087ff8865a21d2b5" target="_top" xlink:title=" ">
<polygon fill="white" stroke="black" points="163.5,-49.5 163.5,-79.5 287.5,-79.5 287.5,-49.5 163.5,-49.5"/>
<text text-anchor="start" x="171.5" y="-67.5" font-family="Helvetica,sans-Serif" font-size="10.00">precice::io::ExportVTK</text>
<text text-anchor="middle" x="225.5" y="-56.5" font-family="Helvetica,sans-Serif" font-size="10.00">::writeTriangle</text>
</a>
</g>
</g>
<!-- Node1&#45;&gt;Node11 -->
<g id="edge10" class="edge">
<title>Node1&#45;&gt;Node11</title>
<path fill="none" stroke="midnightblue" d="M67.64,-245.44C78.49,-212.6 108.59,-133.89 160,-89.5 161.95,-87.82 164.02,-86.24 166.19,-84.77"/>
<polygon fill="midnightblue" stroke="midnightblue" points="168.12,-87.69 174.92,-79.56 164.54,-81.67 168.12,-87.69"/>
</g>
<!-- Node12 -->
<g id="node12" class="node">
<title>Node12</title>
<g id="a_node12"><a xlink:href="classprecice_1_1io_1_1ExportVTK.html#a274ab69f114b930ee6a43f1660fc1d68" target="_top" xlink:title=" ">
<polygon fill="white" stroke="black" points="163.5,-0.5 163.5,-30.5 287.5,-30.5 287.5,-0.5 163.5,-0.5"/>
<text text-anchor="start" x="171.5" y="-18.5" font-family="Helvetica,sans-Serif" font-size="10.00">precice::io::ExportVTK</text>
<text text-anchor="middle" x="225.5" y="-7.5" font-family="Helvetica,sans-Serif" font-size="10.00">::writeVertex</text>
</a>
</g>
</g>
<!-- Node1&#45;&gt;Node12 -->
<g id="edge11" class="edge">
<title>Node1&#45;&gt;Node12</title>
<path fill="none" stroke="midnightblue" d="M65.54,-245.4C72.9,-206.16 97.83,-99.9 160,-40.5 161.62,-38.95 163.35,-37.49 165.16,-36.12"/>
<polygon fill="midnightblue" stroke="midnightblue" points="167.09,-39.05 173.56,-30.66 163.27,-33.18 167.09,-39.05"/>
</g>
</g>
</svg>
