<?xml version="1.0" encoding="UTF-8" standalone="no"?>
<!DOCTYPE svg PUBLIC "-//W3C//DTD SVG 1.1//EN"
 "http://www.w3.org/Graphics/SVG/1.1/DTD/svg11.dtd">
<!-- Generated by graphviz version 2.43.0 (0)
 -->
<!-- Title: precice::acceleration::AitkenAcceleration::performAcceleration Pages: 1 -->
<svg width="806pt" height="213pt"
 viewBox="0.00 0.00 806.00 212.50" xmlns="http://www.w3.org/2000/svg" xmlns:xlink="http://www.w3.org/1999/xlink">
<g id="graph0" class="graph" transform="scale(1 1) rotate(0) translate(4 208.5)">
<title>precice::acceleration::AitkenAcceleration::performAcceleration</title>
<!-- Node1 -->
<g id="Node000001" class="node">
<title>Node1</title>
<g id="a_Node000001"><a xlink:title=" ">
<polygon fill="#999999" stroke="#666666" points="122,-108 0,-108 0,-67 122,-67 122,-108"/>
<text text-anchor="start" x="8" y="-96" font-family="Helvetica,sans-Serif" font-size="10.00">precice::acceleration</text>
<text text-anchor="start" x="8" y="-85" font-family="Helvetica,sans-Serif" font-size="10.00">::AitkenAcceleration</text>
<text text-anchor="middle" x="61" y="-74" font-family="Helvetica,sans-Serif" font-size="10.00">::performAcceleration</text>
</a>
</g>
</g>
<!-- Node2 -->
<g id="Node000002" class="node">
<title>Node2</title>
<g id="a_Node000002"><a xlink:href="classprecice_1_1acceleration_1_1Acceleration.html#a39d733ed96866e3b7551f307c7b0e6df" target="_top" xlink:title="performs a relaxation given a relaxation factor omega">
<polygon fill="white" stroke="#666666" points="327,-204.5 158,-204.5 158,-174.5 327,-174.5 327,-204.5"/>
<text text-anchor="start" x="166" y="-192.5" font-family="Helvetica,sans-Serif" font-size="10.00">precice::acceleration</text>
<text text-anchor="middle" x="242.5" y="-181.5" font-family="Helvetica,sans-Serif" font-size="10.00">::Acceleration::applyRelaxation</text>
</a>
</g>
</g>
<!-- Node1&#45;&gt;Node2 -->
<g id="edge1_Node000001_Node000002" class="edge">
<title>Node1&#45;&gt;Node2</title>
<g id="a_edge1_Node000001_Node000002"><a xlink:title=" ">
<path fill="none" stroke="#63b8ff" d="M82.33,-108.18C100.65,-125.73 129.06,-150.4 158,-165.5 161.51,-167.33 165.18,-169.04 168.93,-170.63"/>
<polygon fill="#63b8ff" stroke="#63b8ff" points="167.83,-173.96 178.42,-174.35 170.38,-167.44 167.83,-173.96"/>
</a>
</g>
</g>
<!-- Node3 -->
<g id="Node000003" class="node">
<title>Node3</title>
<g id="a_Node000003"><a xlink:href="classprecice_1_1acceleration_1_1Acceleration.html#a9c1f84ac753371b853a6a67db447b5fe" target="_top" xlink:title="Concatenates all coupling data involved into a single vector.">
<polygon fill="white" stroke="#666666" points="317,-156 168,-156 168,-115 317,-115 317,-156"/>
<text text-anchor="start" x="176" y="-144" font-family="Helvetica,sans-Serif" font-size="10.00">precice::acceleration</text>
<text text-anchor="start" x="176" y="-133" font-family="Helvetica,sans-Serif" font-size="10.00">::Acceleration::concatenate</text>
<text text-anchor="middle" x="242.5" y="-122" font-family="Helvetica,sans-Serif" font-size="10.00">CouplingData</text>
</a>
</g>
</g>
<!-- Node1&#45;&gt;Node3 -->
<g id="edge2_Node000001_Node000003" class="edge">
<title>Node1&#45;&gt;Node3</title>
<g id="a_edge2_Node000001_Node000003"><a xlink:title=" ">
<path fill="none" stroke="#63b8ff" d="M122.27,-103.62C133.84,-106.71 146.15,-110 158.3,-113.25"/>
<polygon fill="#63b8ff" stroke="#63b8ff" points="157.42,-116.64 167.99,-115.84 159.23,-109.88 157.42,-116.64"/>
</a>
</g>
</g>
<!-- Node4 -->
<g id="Node000004" class="node">
<title>Node4</title>
<g id="a_Node000004"><a xlink:href="namespaceprecice_1_1utils.html#a434eabaa71f97a31726281a4df77bbcf" target="_top" xlink:title="Returns true, if given element is in vector, otherwise false.">
<polygon fill="white" stroke="#666666" points="309,-97 176,-97 176,-78 309,-78 309,-97"/>
<text text-anchor="middle" x="242.5" y="-85" font-family="Helvetica,sans-Serif" font-size="10.00">precice::utils::contained</text>
</a>
</g>
</g>
<!-- Node1&#45;&gt;Node4 -->
<g id="edge3_Node000001_Node000004" class="edge">
<title>Node1&#45;&gt;Node4</title>
<g id="a_edge3_Node000001_Node000004"><a xlink:title=" ">
<path fill="none" stroke="#63b8ff" d="M122.27,-87.5C136.12,-87.5 151.03,-87.5 165.45,-87.5"/>
<polygon fill="#63b8ff" stroke="#63b8ff" points="165.84,-91 175.84,-87.5 165.84,-84 165.84,-91"/>
</a>
</g>
</g>
<!-- Node5 -->
<g id="Node000005" class="node">
<title>Node5</title>
<g id="a_Node000005"><a xlink:href="classprecice_1_1utils_1_1IntraComm.html#a38ad54bcb1c09b6eba4097465b80fb08" target="_top" xlink:title=" ">
<polygon fill="white" stroke="#666666" points="323,-60 162,-60 162,-41 323,-41 323,-60"/>
<text text-anchor="middle" x="242.5" y="-48" font-family="Helvetica,sans-Serif" font-size="10.00">precice::utils::IntraComm::dot</text>
</a>
</g>
</g>
<!-- Node1&#45;&gt;Node5 -->
<g id="edge4_Node000001_Node000005" class="edge">
<title>Node1&#45;&gt;Node5</title>
<g id="a_edge4_Node000001_Node000005"><a xlink:title=" ">
<path fill="none" stroke="#63b8ff" d="M122.27,-75.08C142.66,-70.87 165.33,-66.2 185.38,-62.07"/>
<polygon fill="#63b8ff" stroke="#63b8ff" points="186.21,-65.47 195.3,-60.02 184.8,-58.61 186.21,-65.47"/>
</a>
</g>
</g>
<!-- Node11 -->
<g id="Node000011" class="node">
<title>Node11</title>
<g id="a_Node000011"><a xlink:href="namespaceprecice_1_1math.html#a123796aca6a6eb851f51fe62a98e9ba4" target="_top" xlink:title="Return the sign, one of {&#45;1, 0, 1}.">
<polygon fill="white" stroke="#666666" points="297.5,-22 187.5,-22 187.5,-3 297.5,-3 297.5,-22"/>
<text text-anchor="middle" x="242.5" y="-10" font-family="Helvetica,sans-Serif" font-size="10.00">precice::math::sign</text>
</a>
</g>
</g>
<!-- Node1&#45;&gt;Node11 -->
<g id="edge11_Node000001_Node000011" class="edge">
<title>Node1&#45;&gt;Node11</title>
<g id="a_edge11_Node000001_Node000011"><a xlink:title=" ">
<path fill="none" stroke="#63b8ff" d="M92.86,-66.8C111.15,-55.32 135.15,-41.57 158,-32.5 165.49,-29.53 173.53,-26.92 181.57,-24.66"/>
<polygon fill="#63b8ff" stroke="#63b8ff" points="182.56,-28.01 191.33,-22.06 180.76,-21.25 182.56,-28.01"/>
</a>
</g>
</g>
<!-- Node6 -->
<g id="Node000006" class="node">
<title>Node6</title>
<g id="a_Node000006"><a xlink:href="classprecice_1_1utils_1_1IntraComm.html#a1181baf395fd7e41bb0f922e3c3334cf" target="_top" xlink:title=" ">
<polygon fill="white" stroke="#666666" points="503,-67.5 363,-67.5 363,-37.5 503,-37.5 503,-67.5"/>
<text text-anchor="start" x="371" y="-55.5" font-family="Helvetica,sans-Serif" font-size="10.00">precice::utils::IntraComm</text>
<text text-anchor="middle" x="433" y="-44.5" font-family="Helvetica,sans-Serif" font-size="10.00">::allreduceSum</text>
</a>
</g>
</g>
<!-- Node5&#45;&gt;Node6 -->
<g id="edge5_Node000005_Node000006" class="edge">
<title>Node5&#45;&gt;Node6</title>
<g id="a_edge5_Node000005_Node000006"><a xlink:title=" ">
<path fill="none" stroke="#63b8ff" d="M323.17,-51.35C332.94,-51.45 342.92,-51.55 352.68,-51.66"/>
<polygon fill="#63b8ff" stroke="#63b8ff" points="352.73,-55.16 362.76,-51.77 352.8,-48.16 352.73,-55.16"/>
</a>
</g>
</g>
<!-- Node7 -->
<g id="Node000007" class="node">
<title>Node7</title>
<g id="a_Node000007"><a xlink:href="classprecice_1_1span.html#ab25ca07a93bfa334622507c2c22b1034" target="_top" xlink:title=" ">
<polygon fill="white" stroke="#666666" points="653,-80 539,-80 539,-61 653,-61 653,-80"/>
<text text-anchor="middle" x="596" y="-68" font-family="Helvetica,sans-Serif" font-size="10.00">precice::span::begin</text>
</a>
</g>
</g>
<!-- Node6&#45;&gt;Node7 -->
<g id="edge6_Node000006_Node000007" class="edge">
<title>Node6&#45;&gt;Node7</title>
<g id="a_edge6_Node000006_Node000007"><a xlink:title=" ">
<path fill="none" stroke="#63b8ff" d="M503.21,-60.24C511.7,-61.19 520.35,-62.15 528.79,-63.1"/>
<polygon fill="#63b8ff" stroke="#63b8ff" points="528.62,-66.6 538.94,-64.23 529.4,-59.64 528.62,-66.6"/>
</a>
</g>
</g>
<!-- Node9 -->
<g id="Node000009" class="node">
<title>Node9</title>
<g id="a_Node000009"><a xlink:href="classprecice_1_1span.html#ab86c14ec7bc7475d3ddb21d400e93121" target="_top" xlink:title=" ">
<polygon fill="white" stroke="#666666" points="648.5,-43 543.5,-43 543.5,-24 648.5,-24 648.5,-43"/>
<text text-anchor="middle" x="596" y="-31" font-family="Helvetica,sans-Serif" font-size="10.00">precice::span::end</text>
</a>
</g>
</g>
<!-- Node6&#45;&gt;Node9 -->
<g id="edge8_Node000006_Node000009" class="edge">
<title>Node6&#45;&gt;Node9</title>
<g id="a_edge8_Node000006_Node000009"><a xlink:title=" ">
<path fill="none" stroke="#63b8ff" d="M503.21,-44.33C513.21,-43.15 523.44,-41.95 533.27,-40.78"/>
<polygon fill="#63b8ff" stroke="#63b8ff" points="533.83,-44.24 543.35,-39.6 533.01,-37.29 533.83,-44.24"/>
</a>
</g>
</g>
<!-- Node8 -->
<g id="Node000008" class="node">
<title>Node8</title>
<g id="a_Node000008"><a xlink:href="classprecice_1_1span.html#a38fb4273ab189e44dfb475c17e063a9a" target="_top" xlink:title=" ">
<polygon fill="white" stroke="#666666" points="798,-80 689,-80 689,-61 798,-61 798,-80"/>
<text text-anchor="middle" x="743.5" y="-68" font-family="Helvetica,sans-Serif" font-size="10.00">precice::span::data</text>
</a>
</g>
</g>
<!-- Node7&#45;&gt;Node8 -->
<g id="edge7_Node000007_Node000008" class="edge">
<title>Node7&#45;&gt;Node8</title>
<g id="a_edge7_Node000007_Node000008"><a xlink:title=" ">
<path fill="none" stroke="#63b8ff" d="M653.25,-70.5C661.55,-70.5 670.16,-70.5 678.6,-70.5"/>
<polygon fill="#63b8ff" stroke="#63b8ff" points="678.78,-74 688.78,-70.5 678.78,-67 678.78,-74"/>
</a>
</g>
</g>
<!-- Node9&#45;&gt;Node8 -->
<g id="edge9_Node000009_Node000008" class="edge">
<title>Node9&#45;&gt;Node8</title>
<g id="a_edge9_Node000009_Node000008"><a xlink:title=" ">
<path fill="none" stroke="#63b8ff" d="M634.47,-43.03C652.98,-47.74 675.52,-53.47 695.2,-58.47"/>
<polygon fill="#63b8ff" stroke="#63b8ff" points="694.35,-61.87 704.9,-60.94 696.08,-55.08 694.35,-61.87"/>
</a>
</g>
</g>
<!-- Node10 -->
<g id="Node000010" class="node">
<title>Node10</title>
<g id="a_Node000010"><a xlink:href="classprecice_1_1span.html#ae91f5ed50b6cbf0d15382b8e3c2a9a04" target="_top" xlink:title=" ">
<polygon fill="white" stroke="#666666" points="797,-43 690,-43 690,-24 797,-24 797,-43"/>
<text text-anchor="middle" x="743.5" y="-31" font-family="Helvetica,sans-Serif" font-size="10.00">precice::span::size</text>
</a>
</g>
</g>
<!-- Node9&#45;&gt;Node10 -->
<g id="edge10_Node000009_Node000010" class="edge">
<title>Node9&#45;&gt;Node10</title>
<g id="a_edge10_Node000009_Node000010"><a xlink:title=" ">
<path fill="none" stroke="#63b8ff" d="M648.71,-33.5C658.75,-33.5 669.39,-33.5 679.74,-33.5"/>
<polygon fill="#63b8ff" stroke="#63b8ff" points="679.98,-37 689.98,-33.5 679.98,-30 679.98,-37"/>
</a>
</g>
</g>
<!-- Node12 -->
<g id="Node000012" class="node">
<title>Node12</title>
<g id="a_Node000012"><a xlink:href="namespaceprecice_1_1math.html#ab5fc218ddab783ccd97f7c14fc4ccab3" target="_top" xlink:title=" ">
<polygon fill="white" stroke="#666666" points="495.5,-19 370.5,-19 370.5,0 495.5,0 495.5,-19"/>
<text text-anchor="middle" x="433" y="-7" font-family="Helvetica,sans-Serif" font-size="10.00">precice::math::greater</text>
</a>
</g>
</g>
<!-- Node11&#45;&gt;Node12 -->
<g id="edge12_Node000011_Node000012" class="edge">
<title>Node11&#45;&gt;Node12</title>
<g id="a_edge12_Node000011_Node000012"><a xlink:title=" ">
<path fill="none" stroke="#63b8ff" d="M297.52,-11.64C317.06,-11.33 339.44,-10.97 360.26,-10.64"/>
<polygon fill="#63b8ff" stroke="#63b8ff" points="360.4,-14.14 370.34,-10.48 360.28,-7.14 360.4,-14.14"/>
</a>
</g>
</g>
</g>
</svg>
