<?xml version="1.0" encoding="UTF-8" standalone="no"?>
<!DOCTYPE svg PUBLIC "-//W3C//DTD SVG 1.1//EN"
 "http://www.w3.org/Graphics/SVG/1.1/DTD/svg11.dtd">
<!-- Generated by graphviz version 2.43.0 (0)
 -->
<!-- Title: precice::cplscheme::ParallelCouplingScheme::exchangeFirstData Pages: 1 -->
<!--zoomable 635 -->

<svg id="main" version="1.1" xmlns="http://www.w3.org/2000/svg" xmlns:xlink="http://www.w3.org/1999/xlink" xml:space="preserve" onload="init(evt)">

<style type="text/css"><![CDATA[
.node, .edge {opacity: 0.7;}
.node.selected, .edge.selected {opacity: 1;}
.edge:hover path { stroke: red; }
.edge:hover polygon { stroke: red; fill: red; }
]]></style>

<defs>
  <circle id="rim" cx="0" cy="0" r="7"/>
  <circle id="rim2" cx="0" cy="0" r="3.5"/>
  <g id="zoomPlus">
    <use xlink:href="#rim" fill="#404040"><set attributeName="fill" to="#808080" begin="zoomplus.mouseover" end="zoomplus.mouseout"/></use>
    <path d="M-4,0h8M0,-4v8" fill="none" stroke="white" stroke-width="1.5" pointer-events="none"/>
  </g>
  <g id="zoomMin">
    <use xlink:href="#rim" fill="#404040"><set attributeName="fill" to="#808080" begin="zoomminus.mouseover" end="zoomminus.mouseout"/></use>
    <path d="M-4,0h8" fill="none" stroke="white" stroke-width="1.5" pointer-events="none"/>
  </g>
  <g id="arrowUp" transform="translate(30 24)">
    <use xlink:href="#rim"/>
    <path pointer-events="none" fill="none" stroke="white" stroke-width="1.5" d="M0,-3.0v7 M-2.5,-0.5L0,-3.0L2.5,-0.5"/>
  </g>
  <g id="arrowRight" transform="rotate(90) translate(36 -43)">
    <use xlink:href="#rim"/>
    <path pointer-events="none" fill="none" stroke="white" stroke-width="1.5" d="M0,-3.0v7 M-2.5,-0.5L0,-3.0L2.5,-0.5"/>
  </g>
  <g id="arrowDown" transform="rotate(180) translate(-30 -48)">
    <use xlink:href="#rim"/>
    <path pointer-events="none" fill="none" stroke="white" stroke-width="1.5" d="M0,-3.0v7 M-2.5,-0.5L0,-3.0L2.5,-0.5"/>
  </g>
  <g id="arrowLeft" transform="rotate(270) translate(-36 17)">
    <use xlink:href="#rim"/>
    <path pointer-events="none" fill="none" stroke="white" stroke-width="1.5" d="M0,-3.0v7 M-2.5,-0.5L0,-3.0L2.5,-0.5"/>
  </g>
  <g id="resetDef">
    <use xlink:href="#rim2" fill="#404040"><set attributeName="fill" to="#808080" begin="reset.mouseover" end="reset.mouseout"/></use>
  </g>
</defs>
<script type="application/ecmascript">
var viewWidth = 698;
var viewHeight = 635;
var sectionId = 'dynsection-4';
</script>
<script type="application/ecmascript" xlink:href="svg.min.js"/>
<svg id="graph" class="graph">
<g id="viewport">
<title>precice::cplscheme::ParallelCouplingScheme::exchangeFirstData</title>
<!-- Node1 -->
<g id="Node000001" class="node">
<title>Node1</title>
<g id="a_Node000001"><a xlink:title="Functions needed for advance()">
<polygon fill="#999999" stroke="#666666" points="140,-381 0,-381 0,-340 140,-340 140,-381"/>
<text text-anchor="start" x="8" y="-369" font-family="Helvetica,sans-Serif" font-size="10.00">precice::cplscheme</text>
<text text-anchor="start" x="8" y="-358" font-family="Helvetica,sans-Serif" font-size="10.00">::ParallelCouplingScheme</text>
<text text-anchor="middle" x="70" y="-347" font-family="Helvetica,sans-Serif" font-size="10.00">::exchangeFirstData</text>
</a>
</g>
</g>
<!-- Node2 -->
<g id="Node000002" class="node">
<title>Node2</title>
<g id="a_Node000002"><a xlink:href="classprecice_1_1cplscheme_1_1BaseCouplingScheme.html#af880c679675d59efcf00b0b9fd984f6e" target="_top" xlink:title="Getter for _doesFirstStep.">
<polygon fill="white" stroke="#666666" points="321,-627 193,-627 193,-586 321,-586 321,-627"/>
<text text-anchor="start" x="201" y="-615" font-family="Helvetica,sans-Serif" font-size="10.00">precice::cplscheme</text>
<text text-anchor="start" x="201" y="-604" font-family="Helvetica,sans-Serif" font-size="10.00">::BaseCouplingScheme</text>
<text text-anchor="middle" x="257" y="-593" font-family="Helvetica,sans-Serif" font-size="10.00">::doesFirstStep</text>
</a>
</g>
</g>
<!-- Node1&#45;&gt;Node2 -->
<g id="edge1_Node000001_Node000002" class="edge">
<title>Node1&#45;&gt;Node2</title>
<g id="a_edge1_Node000001_Node000002"><a xlink:title=" ">
<path fill="none" stroke="#63b8ff" d="M75.48,-381.29C85.75,-424.04 114.93,-522.42 176,-577.5 178.47,-579.73 181.12,-581.79 183.91,-583.69"/>
<polygon fill="#63b8ff" stroke="#63b8ff" points="182.24,-586.77 192.61,-588.95 185.86,-580.78 182.24,-586.77"/>
</a>
</g>
</g>
<!-- Node3 -->
<g id="Node000003" class="node">
<title>Node3</title>
<g id="a_Node000003"><a xlink:href="namespaceprecice_1_1math.html#a0e86802cfe992deba131d789d035b5b7" target="_top" xlink:title="Compares two Eigen::MatrixBase for equality up to tolerance.">
<polygon fill="white" stroke="#666666" points="688,-532 566,-532 566,-513 688,-513 688,-532"/>
<text text-anchor="middle" x="627" y="-520" font-family="Helvetica,sans-Serif" font-size="10.00">precice::math::equals</text>
</a>
</g>
</g>
<!-- Node1&#45;&gt;Node3 -->
<g id="edge2_Node000001_Node000003" class="edge">
<title>Node1&#45;&gt;Node3</title>
<g id="a_edge2_Node000001_Node000003"><a xlink:title=" ">
<path fill="none" stroke="#63b8ff" d="M82.41,-381.17C98.99,-408.94 132.55,-457.35 176,-479.5 208.95,-496.3 437.37,-511.67 555.53,-518.61"/>
<polygon fill="#63b8ff" stroke="#63b8ff" points="555.38,-522.11 565.57,-519.2 555.79,-515.12 555.38,-522.11"/>
</a>
</g>
</g>
<!-- Node4 -->
<g id="Node000004" class="node">
<title>Node4</title>
<g id="a_Node000004"><a xlink:href="classprecice_1_1cplscheme_1_1BiCouplingScheme.html#ae90273efd5e7a1ba0b91b5e09fd971ac" target="_top" xlink:title=" ">
<polygon fill="white" stroke="#666666" points="317,-470 197,-470 197,-429 317,-429 317,-470"/>
<text text-anchor="start" x="205" y="-458" font-family="Helvetica,sans-Serif" font-size="10.00">precice::cplscheme</text>
<text text-anchor="start" x="205" y="-447" font-family="Helvetica,sans-Serif" font-size="10.00">::BiCouplingScheme::</text>
<text text-anchor="middle" x="257" y="-436" font-family="Helvetica,sans-Serif" font-size="10.00">getM2N</text>
</a>
</g>
</g>
<!-- Node1&#45;&gt;Node4 -->
<g id="edge3_Node000001_Node000004" class="edge">
<title>Node1&#45;&gt;Node4</title>
<g id="a_edge3_Node000001_Node000004"><a xlink:title=" ">
<path fill="none" stroke="#63b8ff" d="M103.8,-381.18C124.13,-393.51 151.04,-408.95 176,-420.5 179.77,-422.25 183.68,-423.96 187.65,-425.62"/>
<polygon fill="#63b8ff" stroke="#63b8ff" points="186.4,-428.89 196.99,-429.41 189.04,-422.41 186.4,-428.89"/>
</a>
</g>
</g>
<!-- Node5 -->
<g id="Node000005" class="node">
<title>Node5</title>
<g id="a_Node000005"><a xlink:href="classprecice_1_1cplscheme_1_1BiCouplingScheme.html#ab66e411f621d13312e3728404cc42eb8" target="_top" xlink:title="Returns all data to be received.">
<polygon fill="white" stroke="#666666" points="317,-411 197,-411 197,-370 317,-370 317,-411"/>
<text text-anchor="start" x="205" y="-399" font-family="Helvetica,sans-Serif" font-size="10.00">precice::cplscheme</text>
<text text-anchor="start" x="205" y="-388" font-family="Helvetica,sans-Serif" font-size="10.00">::BiCouplingScheme::</text>
<text text-anchor="middle" x="257" y="-377" font-family="Helvetica,sans-Serif" font-size="10.00">getReceiveData</text>
</a>
</g>
</g>
<!-- Node1&#45;&gt;Node5 -->
<g id="edge4_Node000001_Node000005" class="edge">
<title>Node1&#45;&gt;Node5</title>
<g id="a_edge4_Node000001_Node000005"><a xlink:title=" ">
<path fill="none" stroke="#63b8ff" d="M140.15,-371.71C155.47,-374.2 171.71,-376.83 187.02,-379.31"/>
<polygon fill="#63b8ff" stroke="#63b8ff" points="186.51,-382.78 196.94,-380.92 187.63,-375.87 186.51,-382.78"/>
</a>
</g>
</g>
<!-- Node6 -->
<g id="Node000006" class="node">
<title>Node6</title>
<g id="a_Node000006"><a xlink:href="classprecice_1_1cplscheme_1_1BiCouplingScheme.html#a53be61eb89bfff98ada4a33c3ba00545" target="_top" xlink:title="Returns all data to be sent.">
<polygon fill="white" stroke="#666666" points="317,-352 197,-352 197,-311 317,-311 317,-352"/>
<text text-anchor="start" x="205" y="-340" font-family="Helvetica,sans-Serif" font-size="10.00">precice::cplscheme</text>
<text text-anchor="start" x="205" y="-329" font-family="Helvetica,sans-Serif" font-size="10.00">::BiCouplingScheme::</text>
<text text-anchor="middle" x="257" y="-318" font-family="Helvetica,sans-Serif" font-size="10.00">getSendData</text>
</a>
</g>
</g>
<!-- Node1&#45;&gt;Node6 -->
<g id="edge5_Node000001_Node000006" class="edge">
<title>Node1&#45;&gt;Node6</title>
<g id="a_edge5_Node000001_Node000006"><a xlink:title=" ">
<path fill="none" stroke="#63b8ff" d="M140.15,-349.66C155.47,-347.26 171.71,-344.71 187.02,-342.31"/>
<polygon fill="#63b8ff" stroke="#63b8ff" points="187.6,-345.76 196.94,-340.76 186.52,-338.85 187.6,-345.76"/>
</a>
</g>
</g>
<!-- Node7 -->
<g id="Node000007" class="node">
<title>Node7</title>
<g id="a_Node000007"><a xlink:href="classprecice_1_1cplscheme_1_1BaseCouplingScheme.html#a9b2b8a399d66b14dd68a35db5347d308" target="_top" xlink:title="getter for _time">
<polygon fill="white" stroke="#666666" points="515,-309 387,-309 387,-268 515,-268 515,-309"/>
<text text-anchor="start" x="395" y="-297" font-family="Helvetica,sans-Serif" font-size="10.00">precice::cplscheme</text>
<text text-anchor="start" x="395" y="-286" font-family="Helvetica,sans-Serif" font-size="10.00">::BaseCouplingScheme</text>
<text text-anchor="middle" x="451" y="-275" font-family="Helvetica,sans-Serif" font-size="10.00">::getTime</text>
</a>
</g>
</g>
<!-- Node1&#45;&gt;Node7 -->
<g id="edge6_Node000001_Node000007" class="edge">
<title>Node1&#45;&gt;Node7</title>
<g id="a_edge6_Node000001_Node000007"><a xlink:title=" ">
<path fill="none" stroke="#63b8ff" d="M99.74,-339.92C120.01,-326.62 148.36,-310.38 176,-302.5 242.08,-283.65 320.7,-281.6 376.74,-283.4"/>
<polygon fill="#63b8ff" stroke="#63b8ff" points="376.81,-286.91 386.94,-283.78 377.07,-279.91 376.81,-286.91"/>
</a>
</g>
</g>
<!-- Node8 -->
<g id="Node000008" class="node">
<title>Node8</title>
<g id="a_Node000008"><a xlink:href="classprecice_1_1cplscheme_1_1BaseCouplingScheme.html#ac12278b409b70f27a135701e12cbcf3f" target="_top" xlink:title=" ">
<polygon fill="white" stroke="#666666" points="321,-568 193,-568 193,-527 321,-527 321,-568"/>
<text text-anchor="start" x="201" y="-556" font-family="Helvetica,sans-Serif" font-size="10.00">precice::cplscheme</text>
<text text-anchor="start" x="201" y="-545" font-family="Helvetica,sans-Serif" font-size="10.00">::BaseCouplingScheme</text>
<text text-anchor="middle" x="257" y="-534" font-family="Helvetica,sans-Serif" font-size="10.00">::getWindowEndTime</text>
</a>
</g>
</g>
<!-- Node1&#45;&gt;Node8 -->
<g id="edge7_Node000001_Node000008" class="edge">
<title>Node1&#45;&gt;Node8</title>
<g id="a_edge7_Node000001_Node000008"><a xlink:title=" ">
<path fill="none" stroke="#63b8ff" d="M80.57,-381.16C96.33,-413.2 130.58,-475.07 176,-512.5 180.17,-515.94 184.72,-519.09 189.48,-521.98"/>
<polygon fill="#63b8ff" stroke="#63b8ff" points="187.79,-525.04 198.22,-526.9 191.22,-518.94 187.79,-525.04"/>
</a>
</g>
</g>
<!-- Node10 -->
<g id="Node000010" class="node">
<title>Node10</title>
<g id="a_Node000010"><a xlink:href="classprecice_1_1cplscheme_1_1BaseCouplingScheme.html#a3153d22622f9abe534cef5fb0fb299dc" target="_top" xlink:title="Used to set flag after data has been received using receiveData().">
<polygon fill="white" stroke="#666666" points="338,-89 176,-89 176,-48 338,-48 338,-89"/>
<text text-anchor="start" x="184" y="-77" font-family="Helvetica,sans-Serif" font-size="10.00">precice::cplscheme</text>
<text text-anchor="start" x="184" y="-66" font-family="Helvetica,sans-Serif" font-size="10.00">::BaseCouplingScheme</text>
<text text-anchor="middle" x="257" y="-55" font-family="Helvetica,sans-Serif" font-size="10.00">::notifyDataHasBeenReceived</text>
</a>
</g>
</g>
<!-- Node1&#45;&gt;Node10 -->
<g id="edge10_Node000001_Node000010" class="edge">
<title>Node1&#45;&gt;Node10</title>
<g id="a_edge10_Node000001_Node000010"><a xlink:title=" ">
<path fill="none" stroke="#63b8ff" d="M73.6,-339.68C80.77,-290.82 105.23,-167.71 176,-98.5 177.24,-97.29 178.53,-96.12 179.87,-95.01"/>
<polygon fill="#63b8ff" stroke="#63b8ff" points="181.97,-97.81 187.99,-89.1 177.85,-92.15 181.97,-97.81"/>
</a>
</g>
</g>
<!-- Node11 -->
<g id="Node000011" class="node">
<title>Node11</title>
<g id="a_Node000011"><a xlink:href="classprecice_1_1cplscheme_1_1BaseCouplingScheme.html#af690c8d4e0f11e52fc7b9ca1fe098229" target="_top" xlink:title="Receives data receiveDataIDs given in mapCouplingData with communication.">
<polygon fill="white" stroke="#666666" points="321,-236 193,-236 193,-195 321,-195 321,-236"/>
<text text-anchor="start" x="201" y="-224" font-family="Helvetica,sans-Serif" font-size="10.00">precice::cplscheme</text>
<text text-anchor="start" x="201" y="-213" font-family="Helvetica,sans-Serif" font-size="10.00">::BaseCouplingScheme</text>
<text text-anchor="middle" x="257" y="-202" font-family="Helvetica,sans-Serif" font-size="10.00">::receiveData</text>
</a>
</g>
</g>
<!-- Node1&#45;&gt;Node11 -->
<g id="edge11_Node000001_Node000011" class="edge">
<title>Node1&#45;&gt;Node11</title>
<g id="a_edge11_Node000001_Node000011"><a xlink:title=" ">
<path fill="none" stroke="#63b8ff" d="M92.79,-339.86C113.54,-320.59 145.95,-291.45 176,-268.5 188.05,-259.3 201.64,-249.94 214.15,-241.7"/>
<polygon fill="#63b8ff" stroke="#63b8ff" points="216.14,-244.58 222.61,-236.19 212.32,-238.72 216.14,-244.58"/>
</a>
</g>
</g>
<!-- Node16 -->
<g id="Node000016" class="node">
<title>Node16</title>
<g id="a_Node000016"><a xlink:href="classprecice_1_1cplscheme_1_1BaseCouplingScheme.html#a3aa71af66bf740fa8d9182b47db7dac3" target="_top" xlink:title="Sends data sendDataIDs given in mapCouplingData with communication.">
<polygon fill="white" stroke="#666666" points="321,-148 193,-148 193,-107 321,-107 321,-148"/>
<text text-anchor="start" x="201" y="-136" font-family="Helvetica,sans-Serif" font-size="10.00">precice::cplscheme</text>
<text text-anchor="start" x="201" y="-125" font-family="Helvetica,sans-Serif" font-size="10.00">::BaseCouplingScheme</text>
<text text-anchor="middle" x="257" y="-114" font-family="Helvetica,sans-Serif" font-size="10.00">::sendData</text>
</a>
</g>
</g>
<!-- Node1&#45;&gt;Node16 -->
<g id="edge18_Node000001_Node000016" class="edge">
<title>Node1&#45;&gt;Node16</title>
<g id="a_edge18_Node000001_Node000016"><a xlink:title=" ">
<path fill="none" stroke="#63b8ff" d="M80.21,-339.74C96.2,-305.25 131.67,-235.13 176,-186.5 186.97,-174.47 200.71,-163.29 213.7,-153.98"/>
<polygon fill="#63b8ff" stroke="#63b8ff" points="215.89,-156.72 222.09,-148.13 211.89,-150.97 215.89,-156.72"/>
</a>
</g>
</g>
<!-- Node9 -->
<g id="Node000009" class="node">
<title>Node9</title>
<g id="a_Node000009"><a xlink:href="classprecice_1_1cplscheme_1_1BaseCouplingScheme.html#a073567dc3535de4121def61a3dc5215c" target="_top" xlink:title="Function to check whether time window size is defined by coupling scheme.">
<polygon fill="white" stroke="#666666" points="515,-568 387,-568 387,-527 515,-527 515,-568"/>
<text text-anchor="start" x="395" y="-556" font-family="Helvetica,sans-Serif" font-size="10.00">precice::cplscheme</text>
<text text-anchor="start" x="395" y="-545" font-family="Helvetica,sans-Serif" font-size="10.00">::BaseCouplingScheme</text>
<text text-anchor="middle" x="451" y="-534" font-family="Helvetica,sans-Serif" font-size="10.00">::hasTimeWindowSize</text>
</a>
</g>
</g>
<!-- Node8&#45;&gt;Node9 -->
<g id="edge8_Node000008_Node000009" class="edge">
<title>Node8&#45;&gt;Node9</title>
<g id="a_edge8_Node000008_Node000009"><a xlink:title=" ">
<path fill="none" stroke="#63b8ff" d="M321.13,-547.5C338.93,-547.5 358.45,-547.5 376.78,-547.5"/>
<polygon fill="#63b8ff" stroke="#63b8ff" points="376.83,-551 386.83,-547.5 376.83,-544 376.83,-551"/>
</a>
</g>
</g>
<!-- Node9&#45;&gt;Node3 -->
<g id="edge9_Node000009_Node000003" class="edge">
<title>Node9&#45;&gt;Node3</title>
<g id="a_edge9_Node000009_Node000003"><a xlink:title=" ">
<path fill="none" stroke="#63b8ff" d="M515.31,-538.4C528.47,-536.51 542.42,-534.51 555.81,-532.58"/>
<polygon fill="#63b8ff" stroke="#63b8ff" points="556.53,-536.02 565.93,-531.13 555.53,-529.09 556.53,-536.02"/>
</a>
</g>
</g>
<!-- Node11&#45;&gt;Node7 -->
<g id="edge15_Node000011_Node000007" class="edge">
<title>Node11&#45;&gt;Node7</title>
<g id="a_edge15_Node000011_Node000007"><a xlink:title=" ">
<path fill="none" stroke="#63b8ff" d="M311.99,-236.03C335.2,-244.85 362.49,-255.23 386.64,-264.41"/>
<polygon fill="#63b8ff" stroke="#63b8ff" points="385.49,-267.72 396.08,-268 387.98,-261.17 385.49,-267.72"/>
</a>
</g>
</g>
<!-- Node11&#45;&gt;Node11 -->
<g id="edge16_Node000011_Node000011" class="edge">
<title>Node11&#45;&gt;Node11</title>
<g id="a_edge16_Node000011_Node000011"><a xlink:title=" ">
<path fill="none" stroke="#63b8ff" d="M222.81,-236.1C219.09,-245.65 230.48,-254 257,-254 273.57,-254 284.24,-250.74 289,-245.96"/>
<polygon fill="#63b8ff" stroke="#63b8ff" points="292.44,-246.62 291.19,-236.1 285.61,-245.1 292.44,-246.62"/>
</a>
</g>
</g>
<!-- Node12 -->
<g id="Node000012" class="node">
<title>Node12</title>
<g id="a_Node000012"><a xlink:href="classprecice_1_1com_1_1serialize_1_1SerializedStamples.html#a6323c9aec715a5f6e4ff770807d3277b" target="_top" xlink:title="Create SerializedStamples with allocated buffers according to size of CouplingData.">
<polygon fill="white" stroke="#666666" points="528,-190.5 374,-190.5 374,-160.5 528,-160.5 528,-190.5"/>
<text text-anchor="start" x="382" y="-178.5" font-family="Helvetica,sans-Serif" font-size="10.00">precice::com::serialize</text>
<text text-anchor="middle" x="451" y="-167.5" font-family="Helvetica,sans-Serif" font-size="10.00">::SerializedStamples::empty</text>
</a>
</g>
</g>
<!-- Node11&#45;&gt;Node12 -->
<g id="edge12_Node000011_Node000012" class="edge">
<title>Node11&#45;&gt;Node12</title>
<g id="a_edge12_Node000011_Node000012"><a xlink:title=" ">
<path fill="none" stroke="#63b8ff" d="M321.13,-202.35C336.02,-199.25 352.1,-195.9 367.69,-192.65"/>
<polygon fill="#63b8ff" stroke="#63b8ff" points="368.77,-196 377.85,-190.53 367.34,-189.15 368.77,-196"/>
</a>
</g>
</g>
<!-- Node15 -->
<g id="Node000015" class="node">
<title>Node15</title>
<g id="a_Node000015"><a xlink:href="classprecice_1_1cplscheme_1_1BaseCouplingScheme.html#a7bd0c976a2b5072fe3c9e98c2c4f1688" target="_top" xlink:title=" ">
<polygon fill="white" stroke="#666666" points="515,-250 387,-250 387,-209 515,-209 515,-250"/>
<text text-anchor="start" x="395" y="-238" font-family="Helvetica,sans-Serif" font-size="10.00">precice::cplscheme</text>
<text text-anchor="start" x="395" y="-227" font-family="Helvetica,sans-Serif" font-size="10.00">::BaseCouplingScheme</text>
<text text-anchor="middle" x="451" y="-216" font-family="Helvetica,sans-Serif" font-size="10.00">::receiveTimes</text>
</a>
</g>
</g>
<!-- Node11&#45;&gt;Node15 -->
<g id="edge17_Node000011_Node000015" class="edge">
<title>Node11&#45;&gt;Node15</title>
<g id="a_edge17_Node000011_Node000015"><a xlink:title=" ">
<path fill="none" stroke="#63b8ff" d="M321.13,-220.1C338.93,-221.4 358.45,-222.82 376.78,-224.16"/>
<polygon fill="#63b8ff" stroke="#63b8ff" points="376.6,-227.66 386.83,-224.89 377.11,-220.68 376.6,-227.66"/>
</a>
</g>
</g>
<!-- Node13 -->
<g id="Node000013" class="node">
<title>Node13</title>
<g id="a_Node000013"><a xlink:href="classprecice_1_1com_1_1serialize_1_1SerializedStamples.html#a3bd729e27395b592be2fe9a124886f3b" target="_top" xlink:title=" ">
<polygon fill="white" stroke="#666666" points="690,-255 564,-255 564,-214 690,-214 690,-255"/>
<text text-anchor="start" x="572" y="-243" font-family="Helvetica,sans-Serif" font-size="10.00">precice::com::serialize</text>
<text text-anchor="start" x="572" y="-232" font-family="Helvetica,sans-Serif" font-size="10.00">::SerializedStamples::</text>
<text text-anchor="middle" x="627" y="-221" font-family="Helvetica,sans-Serif" font-size="10.00">allocate</text>
</a>
</g>
</g>
<!-- Node12&#45;&gt;Node13 -->
<g id="edge13_Node000012_Node000013" class="edge">
<title>Node12&#45;&gt;Node13</title>
<g id="a_edge13_Node000012_Node000013"><a xlink:title=" ">
<path fill="none" stroke="#63b8ff" d="M498.26,-190.58C508.09,-193.83 518.39,-197.25 528,-200.5 537.63,-203.75 547.78,-207.23 557.75,-210.66"/>
<polygon fill="#63b8ff" stroke="#63b8ff" points="556.64,-213.98 567.24,-213.94 558.93,-207.37 556.64,-213.98"/>
</a>
</g>
</g>
<!-- Node14 -->
<g id="Node000014" class="node">
<title>Node14</title>
<g id="a_Node000014"><a xlink:href="classprecice_1_1com_1_1serialize_1_1SerializedStamples.html#a72962498cead40c9cb5570666b2a7e98" target="_top" xlink:title=" ">
<polygon fill="white" stroke="#666666" points="690,-196 564,-196 564,-155 690,-155 690,-196"/>
<text text-anchor="start" x="572" y="-184" font-family="Helvetica,sans-Serif" font-size="10.00">precice::com::serialize</text>
<text text-anchor="start" x="572" y="-173" font-family="Helvetica,sans-Serif" font-size="10.00">::SerializedStamples::</text>
<text text-anchor="middle" x="627" y="-162" font-family="Helvetica,sans-Serif" font-size="10.00">SerializedStamples</text>
</a>
</g>
</g>
<!-- Node12&#45;&gt;Node14 -->
<g id="edge14_Node000012_Node000014" class="edge">
<title>Node12&#45;&gt;Node14</title>
<g id="a_edge14_Node000012_Node000014"><a xlink:title=" ">
<path fill="none" stroke="#63b8ff" d="M528.07,-175.5C536.58,-175.5 545.24,-175.5 553.71,-175.5"/>
<polygon fill="#63b8ff" stroke="#63b8ff" points="553.92,-179 563.92,-175.5 553.92,-172 553.92,-179"/>
</a>
</g>
</g>
<!-- Node16&#45;&gt;Node16 -->
<g id="edge19_Node000016_Node000016" class="edge">
<title>Node16&#45;&gt;Node16</title>
<g id="a_edge19_Node000016_Node000016"><a xlink:title=" ">
<path fill="none" stroke="#63b8ff" d="M222.81,-148.1C219.09,-157.65 230.48,-166 257,-166 273.57,-166 284.24,-162.74 289,-157.96"/>
<polygon fill="#63b8ff" stroke="#63b8ff" points="292.44,-158.62 291.19,-148.1 285.61,-157.1 292.44,-158.62"/>
</a>
</g>
</g>
<!-- Node17 -->
<g id="Node000017" class="node">
<title>Node17</title>
<g id="a_Node000017"><a xlink:href="classprecice_1_1cplscheme_1_1BaseCouplingScheme.html#a1f7b29aa49ad8ba5c652e9e452bacbb5" target="_top" xlink:title=" ">
<polygon fill="white" stroke="#666666" points="515,-57 387,-57 387,-16 515,-16 515,-57"/>
<text text-anchor="start" x="395" y="-45" font-family="Helvetica,sans-Serif" font-size="10.00">precice::cplscheme</text>
<text text-anchor="start" x="395" y="-34" font-family="Helvetica,sans-Serif" font-size="10.00">::BaseCouplingScheme</text>
<text text-anchor="middle" x="451" y="-23" font-family="Helvetica,sans-Serif" font-size="10.00">::sendTimes</text>
</a>
</g>
</g>
<!-- Node16&#45;&gt;Node17 -->
<g id="edge20_Node000016_Node000017" class="edge">
<title>Node16&#45;&gt;Node17</title>
<g id="a_edge20_Node000016_Node000017"><a xlink:title=" ">
<path fill="none" stroke="#63b8ff" d="M317.83,-106.99C324.7,-104.29 331.54,-101.43 338,-98.5 361.44,-87.84 386.6,-74.13 407.13,-62.32"/>
<polygon fill="#63b8ff" stroke="#63b8ff" points="409.03,-65.26 415.92,-57.21 405.51,-59.21 409.03,-65.26"/>
</a>
</g>
</g>
<!-- Node19 -->
<g id="Node000019" class="node">
<title>Node19</title>
<g id="a_Node000019"><a xlink:href="classprecice_1_1com_1_1serialize_1_1SerializedStamples.html#a1016a4d24473c968c6cc89659e3de614" target="_top" xlink:title="Serializes a given CouplingData into SerializedStamples.">
<polygon fill="white" stroke="#666666" points="514,-142 388,-142 388,-101 514,-101 514,-142"/>
<text text-anchor="start" x="396" y="-130" font-family="Helvetica,sans-Serif" font-size="10.00">precice::com::serialize</text>
<text text-anchor="start" x="396" y="-119" font-family="Helvetica,sans-Serif" font-size="10.00">::SerializedStamples::</text>
<text text-anchor="middle" x="451" y="-108" font-family="Helvetica,sans-Serif" font-size="10.00">serialize</text>
</a>
</g>
</g>
<!-- Node16&#45;&gt;Node19 -->
<g id="edge22_Node000016_Node000019" class="edge">
<title>Node16&#45;&gt;Node19</title>
<g id="a_edge22_Node000016_Node000019"><a xlink:title=" ">
<path fill="none" stroke="#63b8ff" d="M321.13,-125.53C339.21,-124.96 359.05,-124.34 377.64,-123.76"/>
<polygon fill="#63b8ff" stroke="#63b8ff" points="377.92,-127.25 387.81,-123.44 377.71,-120.26 377.92,-127.25"/>
</a>
</g>
</g>
<!-- Node18 -->
<g id="Node000018" class="node">
<title>Node18</title>
<g id="a_Node000018"><a xlink:href="classprecice_1_1span.html#ae91f5ed50b6cbf0d15382b8e3c2a9a04" target="_top" xlink:title=" ">
<polygon fill="white" stroke="#666666" points="680.5,-19 573.5,-19 573.5,0 680.5,0 680.5,-19"/>
<text text-anchor="middle" x="627" y="-7" font-family="Helvetica,sans-Serif" font-size="10.00">precice::span::size</text>
</a>
</g>
</g>
<!-- Node17&#45;&gt;Node18 -->
<g id="edge21_Node000017_Node000018" class="edge">
<title>Node17&#45;&gt;Node18</title>
<g id="a_edge21_Node000017_Node000018"><a xlink:title=" ">
<path fill="none" stroke="#63b8ff" d="M515.31,-26.68C530.93,-24.25 547.66,-21.66 563.26,-19.24"/>
<polygon fill="#63b8ff" stroke="#63b8ff" points="563.97,-22.67 573.32,-17.67 562.9,-15.75 563.97,-22.67"/>
</a>
</g>
</g>
<!-- Node19&#45;&gt;Node13 -->
<g id="edge23_Node000019_Node000013" class="edge">
<title>Node19&#45;&gt;Node13</title>
<g id="a_edge23_Node000019_Node000013"><a xlink:title=" ">
<path fill="none" stroke="#63b8ff" d="M513.97,-142.13C518.94,-144.91 523.7,-148.02 528,-151.5 550.44,-169.62 542.13,-186.69 564,-205.5 564.99,-206.35 566.01,-207.18 567.05,-207.99"/>
<polygon fill="#63b8ff" stroke="#63b8ff" points="565.24,-211 575.45,-213.83 569.24,-205.25 565.24,-211"/>
</a>
</g>
</g>
<!-- Node19&#45;&gt;Node14 -->
<g id="edge24_Node000019_Node000014" class="edge">
<title>Node19&#45;&gt;Node14</title>
<g id="a_edge24_Node000019_Node000014"><a xlink:title=" ">
<path fill="none" stroke="#63b8ff" d="M514.33,-140.84C527.15,-144.82 540.75,-149.04 553.88,-153.12"/>
<polygon fill="#63b8ff" stroke="#63b8ff" points="553.23,-156.58 563.82,-156.2 555.3,-149.89 553.23,-156.58"/>
</a>
</g>
</g>
<!-- Node20 -->
<g id="Node000020" class="node">
<title>Node20</title>
<g id="a_Node000020"><a xlink:href="classprecice_1_1com_1_1serialize_1_1SerializedStamples.html#abdad84a4a2921adfb761ffcdefcdc027" target="_top" xlink:title="Serialize gradients from waveform of data into _gradients.">
<polygon fill="white" stroke="#666666" points="690,-78 564,-78 564,-37 690,-37 690,-78"/>
<text text-anchor="start" x="572" y="-66" font-family="Helvetica,sans-Serif" font-size="10.00">precice::com::serialize</text>
<text text-anchor="start" x="572" y="-55" font-family="Helvetica,sans-Serif" font-size="10.00">::SerializedStamples::</text>
<text text-anchor="middle" x="627" y="-44" font-family="Helvetica,sans-Serif" font-size="10.00">serializeGradients</text>
</a>
</g>
</g>
<!-- Node19&#45;&gt;Node20 -->
<g id="edge25_Node000019_Node000020" class="edge">
<title>Node19&#45;&gt;Node20</title>
<g id="a_edge25_Node000019_Node000020"><a xlink:title=" ">
<path fill="none" stroke="#63b8ff" d="M508.01,-100.9C524.78,-94.73 543.31,-87.92 560.62,-81.55"/>
<polygon fill="#63b8ff" stroke="#63b8ff" points="561.92,-84.8 570.09,-78.06 559.5,-78.23 561.92,-84.8"/>
</a>
</g>
</g>
<!-- Node21 -->
<g id="Node000021" class="node">
<title>Node21</title>
<g id="a_Node000021"><a xlink:href="classprecice_1_1com_1_1serialize_1_1SerializedStamples.html#a71a588417330365bb8cf607c352d3919" target="_top" xlink:title="Serialize values from waveform of data into _values.">
<polygon fill="white" stroke="#666666" points="690,-137 564,-137 564,-96 690,-96 690,-137"/>
<text text-anchor="start" x="572" y="-125" font-family="Helvetica,sans-Serif" font-size="10.00">precice::com::serialize</text>
<text text-anchor="start" x="572" y="-114" font-family="Helvetica,sans-Serif" font-size="10.00">::SerializedStamples::</text>
<text text-anchor="middle" x="627" y="-103" font-family="Helvetica,sans-Serif" font-size="10.00">serializeValues</text>
</a>
</g>
</g>
<!-- Node19&#45;&gt;Node21 -->
<g id="edge26_Node000019_Node000021" class="edge">
<title>Node19&#45;&gt;Node21</title>
<g id="a_edge26_Node000019_Node000021"><a xlink:title=" ">
<path fill="none" stroke="#63b8ff" d="M514.33,-119.71C527.02,-119.34 540.48,-118.96 553.5,-118.58"/>
<polygon fill="#63b8ff" stroke="#63b8ff" points="553.92,-122.07 563.82,-118.29 553.72,-115.08 553.92,-122.07"/>
</a>
</g>
</g>
</g>
</svg>

<g id="navigator" transform="translate(0 0)" fill="#404254">
  <rect fill="#f2f5e9" fill-opacity="0.5" stroke="#606060" stroke-width=".5" x="0" y="0" width="60" height="60"/>
  <use id="zoomplus" xlink:href="#zoomPlus" x="17" y="9" onmousedown="handleZoom(evt,'in')"/>
  <use id="zoomminus" xlink:href="#zoomMin" x="42" y="9" onmousedown="handleZoom(evt,'out')"/>
  <use id="reset" xlink:href="#resetDef" x="30" y="36" onmousedown="handleReset()"/>
   <use id="arrowup" xlink:href="#arrowUp" x="0" y="0" onmousedown="handlePan(0,-1)"/>
  <use id="arrowright" xlink:href="#arrowRight" x="0" y="0" onmousedown="handlePan(1,0)"/>
  <use id="arrowdown" xlink:href="#arrowDown" x="0" y="0" onmousedown="handlePan(0,1)"/>
  <use id="arrowleft" xlink:href="#arrowLeft" x="0" y="0" onmousedown="handlePan(-1,0)"/>
</g>
<svg viewBox="0 0 15 15" width="100%" height="30px" preserveAspectRatio="xMaxYMin meet">
 <g id="arrow_out" transform="scale(0.3 0.3)">
  <a xlink:href="classprecice_1_1cplscheme_1_1ParallelCouplingScheme_a91385caa585edb910286b25073221090_cgraph_org.svg" target="_base">
   <rect id="button" ry="5" rx="5" y="6" x="6" height="38" width="38"
        fill="#f2f5e9" fill-opacity="0.5" stroke="#606060" stroke-width="1.0"/>
   <path id="arrow"
     d="M 11.500037,31.436501 C 11.940474,20.09759 22.043105,11.32322 32.158766,21.979434 L 37.068811,17.246167 C 37.068811,17.246167 37.088388,32 37.088388,32 L 22.160133,31.978069 C 22.160133,31.978069 26.997745,27.140456 26.997745,27.140456 C 18.528582,18.264221 13.291696,25.230495 11.500037,31.436501 z"
     style="fill:#404040;"/>
  </a>
 </g>
</svg>

<style type='text/css'>
<![CDATA[
[data-mouse-over-selected='false'] { opacity: 0.7; }
[data-mouse-over-selected='true']  { opacity: 1.0; }
]]>
</style>
<script type="application/ecmascript"><![CDATA[
document.addEventListener('DOMContentLoaded', (event) => {
  highlightEdges();
  highlightAdjacentNodes();
});
]]></script>
</svg>
