<?xml version="1.0" encoding="UTF-8" standalone="no"?>
<!DOCTYPE svg PUBLIC "-//W3C//DTD SVG 1.1//EN"
 "http://www.w3.org/Graphics/SVG/1.1/DTD/svg11.dtd">
<!-- Generated by graphviz version 2.43.0 (0)
 -->
<!-- Title: precice::io::Export Pages: 1 -->
<!--zoomable 619 -->

<svg id="main" version="1.1" xmlns="http://www.w3.org/2000/svg" xmlns:xlink="http://www.w3.org/1999/xlink" xml:space="preserve" onload="init(evt)">
<style type="text/css"><![CDATA[
.node, .edge {opacity: 0.7;}
.node.selected, .edge.selected {opacity: 1;}
.edge:hover path { stroke: red; }
.edge:hover polygon { stroke: red; fill: red; }
]]></style>

<defs>
  <circle id="rim" cx="0" cy="0" r="7"/>
  <circle id="rim2" cx="0" cy="0" r="3.5"/>
  <g id="zoomPlus">
    <use xlink:href="#rim" fill="#404040"><set attributeName="fill" to="#808080" begin="zoomplus.mouseover" end="zoomplus.mouseout"/></use>
    <path d="M-4,0h8M0,-4v8" fill="none" stroke="white" stroke-width="1.5" pointer-events="none"/>
  </g>
  <g id="zoomMin">
    <use xlink:href="#rim" fill="#404040"><set attributeName="fill" to="#808080" begin="zoomminus.mouseover" end="zoomminus.mouseout"/></use>
    <path d="M-4,0h8" fill="none" stroke="white" stroke-width="1.5" pointer-events="none"/>
  </g>
  <g id="arrowUp" transform="translate(30 24)">
    <use xlink:href="#rim"/>
    <path pointer-events="none" fill="none" stroke="white" stroke-width="1.5" d="M0,-3.0v7 M-2.5,-0.5L0,-3.0L2.5,-0.5"/>
  </g>
  <g id="arrowRight" transform="rotate(90) translate(36 -43)">
    <use xlink:href="#rim"/>
    <path pointer-events="none" fill="none" stroke="white" stroke-width="1.5" d="M0,-3.0v7 M-2.5,-0.5L0,-3.0L2.5,-0.5"/>
  </g>
  <g id="arrowDown" transform="rotate(180) translate(-30 -48)">
    <use xlink:href="#rim"/>
    <path pointer-events="none" fill="none" stroke="white" stroke-width="1.5" d="M0,-3.0v7 M-2.5,-0.5L0,-3.0L2.5,-0.5"/>
  </g>
  <g id="arrowLeft" transform="rotate(270) translate(-36 17)">
    <use xlink:href="#rim"/>
    <path pointer-events="none" fill="none" stroke="white" stroke-width="1.5" d="M0,-3.0v7 M-2.5,-0.5L0,-3.0L2.5,-0.5"/>
  </g>
  <g id="resetDef">
    <use xlink:href="#rim2" fill="#404040"><set attributeName="fill" to="#808080" begin="reset.mouseover" end="reset.mouseout"/></use>
  </g>
</defs>
<script type="application/ecmascript">
var viewWidth = 1723;
var viewHeight = 619;
var sectionId = 'dynsection-1';
</script>
<script type="application/ecmascript" xlink:href="svg.min.js"/>
<svg id="graph" class="graph">
<g id="viewport">
<title>precice::io::Export</title>
<!-- Node1 -->
<g id="Node000001" class="node">
<title>Node1</title>
<g id="a_Node000001"><a xlink:title="Abstract base class of all classes exporting container data structures.">
<polygon fill="#999999" stroke="#666666" points="1708,-561.51 1604,-561.51 1604,-542.51 1708,-542.51 1708,-561.51"/>
<text text-anchor="middle" x="1656" y="-549.51" font-family="Helvetica,sans-Serif" font-size="10.00">precice::io::Export</text>
</a>
</g>
</g>
<!-- Node2 -->
<g id="Node000002" class="node">
<title>Node2</title>
<g id="a_Node000002"><a target="_parent" xlink:href="http://en.cppreference.com/w/cpp/string/basic_string.html" xlink:title=" ">
<polygon fill="white" stroke="#666666" points="862.5,-561.51 797.5,-561.51 797.5,-542.51 862.5,-542.51 862.5,-561.51"/>
<text text-anchor="middle" x="830" y="-549.51" font-family="Helvetica,sans-Serif" font-size="10.00">std::string</text>
</a>
</g>
</g>
<!-- Node2&#45;&gt;Node1 -->
<g id="edge1_Node000001_Node000002" class="edge">
<title>Node2&#45;&gt;Node1</title>
<g id="a_edge1_Node000001_Node000002"><a xlink:title=" ">
<path fill="none" stroke="#9a32cd" stroke-dasharray="5,2" d="M872.71,-552.01C1010.8,-552.01 1452.91,-552.01 1603.9,-552.01"/>
<polygon fill="#9a32cd" stroke="#9a32cd" points="872.55,-548.51 862.55,-552.01 872.55,-555.51 872.55,-548.51"/>
</a>
</g>
<text text-anchor="middle" x="1296" y="-566.01" font-family="Helvetica,sans-Serif" font-size="10.00" fill="grey"> _location</text>
<text text-anchor="middle" x="1296" y="-555.01" font-family="Helvetica,sans-Serif" font-size="10.00" fill="grey">_participantName</text>
</g>
<!-- Node4 -->
<g id="Node000004" class="node">
<title>Node4</title>
<g id="a_Node000004"><a xlink:href="classprecice_1_1mesh_1_1Mesh.html" target="_top" xlink:title="Container and creator for meshes.">
<polygon fill="white" stroke="#666666" points="1500,-295.51 1383,-295.51 1383,-276.51 1500,-276.51 1500,-295.51"/>
<text text-anchor="middle" x="1441.5" y="-283.51" font-family="Helvetica,sans-Serif" font-size="10.00">precice::mesh::Mesh</text>
</a>
</g>
</g>
<!-- Node2&#45;&gt;Node4 -->
<g id="edge8_Node000004_Node000002" class="edge">
<title>Node2&#45;&gt;Node4</title>
<g id="a_edge8_Node000004_Node000002"><a xlink:title=" ">
<path fill="none" stroke="#9a32cd" stroke-dasharray="5,2" d="M857,-537.6C899.97,-514.46 989.09,-469.27 1070,-446.01 1190.39,-411.4 1240.97,-469.43 1349,-406.01 1394.86,-379.08 1425.53,-319.4 1436.26,-295.85"/>
<polygon fill="#9a32cd" stroke="#9a32cd" points="855.19,-534.6 848.07,-542.45 858.53,-540.76 855.19,-534.6"/>
</a>
</g>
<text text-anchor="middle" x="1147.5" y="-449.01" font-family="Helvetica,sans-Serif" font-size="10.00" fill="grey"> _name</text>
</g>
<!-- Node34 -->
<g id="Node000034" class="node">
<title>Node34</title>
<g id="a_Node000034"><a xlink:href="structprecice_1_1io_1_1Export_1_1Record.html" target="_top" xlink:title=" ">
<polygon fill="white" stroke="#666666" points="1199.5,-611.01 1095.5,-611.01 1095.5,-581.01 1199.5,-581.01 1199.5,-611.01"/>
<text text-anchor="start" x="1103.5" y="-599.01" font-family="Helvetica,sans-Serif" font-size="10.00">precice::io::Export</text>
<text text-anchor="middle" x="1147.5" y="-588.01" font-family="Helvetica,sans-Serif" font-size="10.00">::Record</text>
</a>
</g>
</g>
<!-- Node2&#45;&gt;Node34 -->
<g id="edge42_Node000034_Node000002" class="edge">
<title>Node2&#45;&gt;Node34</title>
<g id="a_edge42_Node000034_Node000002"><a xlink:title=" ">
<path fill="none" stroke="#9a32cd" stroke-dasharray="5,2" d="M872.94,-558.46C888.92,-560.88 907.29,-563.62 924,-566.01 982.65,-574.38 1050.1,-583.38 1095.21,-589.32"/>
<polygon fill="#9a32cd" stroke="#9a32cd" points="873.25,-554.97 862.83,-556.92 872.19,-561.89 873.25,-554.97"/>
</a>
</g>
<text text-anchor="middle" x="988" y="-586.01" font-family="Helvetica,sans-Serif" font-size="10.00" fill="grey"> filename</text>
</g>
<!-- Node3 -->
<g id="Node000003" class="node">
<title>Node3</title>
<g id="a_Node000003"><a target="_parent" xlink:href="http://en.cppreference.com/w/cpp/string/basic_string.html" xlink:title=" ">
<polygon fill="white" stroke="#666666" points="563,-567.01 459,-567.01 459,-537.01 563,-537.01 563,-567.01"/>
<text text-anchor="start" x="467" y="-555.01" font-family="Helvetica,sans-Serif" font-size="10.00">std::basic_string&lt;</text>
<text text-anchor="middle" x="511" y="-544.01" font-family="Helvetica,sans-Serif" font-size="10.00"> Char &gt;</text>
</a>
</g>
</g>
<!-- Node3&#45;&gt;Node2 -->
<g id="edge2_Node000002_Node000003" class="edge">
<title>Node3&#45;&gt;Node2</title>
<g id="a_edge2_Node000002_Node000003"><a xlink:title=" ">
<path fill="none" stroke="#63b8ff" d="M573.7,-552.01C640.66,-552.01 744.98,-552.01 797.1,-552.01"/>
<polygon fill="#63b8ff" stroke="#63b8ff" points="573.28,-548.51 563.28,-552.01 573.28,-555.51 573.28,-548.51"/>
</a>
</g>
</g>
<!-- Node4&#45;&gt;Node1 -->
<g id="edge3_Node000001_Node000004" class="edge">
<title>Node4&#45;&gt;Node1</title>
<g id="a_edge3_Node000001_Node000004"><a xlink:title=" ">
<path fill="none" stroke="#9a32cd" stroke-dasharray="5,2" d="M1456.63,-303.7C1497.7,-355.1 1616.05,-503.25 1647.34,-542.42"/>
<polygon fill="#9a32cd" stroke="#9a32cd" points="1459.29,-301.42 1450.32,-295.79 1453.82,-305.79 1459.29,-301.42"/>
</a>
</g>
<text text-anchor="middle" x="1556.5" y="-454.01" font-family="Helvetica,sans-Serif" font-size="10.00" fill="grey"> _mesh</text>
</g>
<!-- Node29 -->
<g id="Node000029" class="node">
<title>Node29</title>
<g id="a_Node000029"><a xlink:href="classprecice_1_1query_1_1Index.html" target="_top" xlink:title="Class to query the index trees of the mesh.">
<polygon fill="white" stroke="#666666" points="1715,-308.51 1597,-308.51 1597,-289.51 1715,-289.51 1715,-308.51"/>
<text text-anchor="middle" x="1656" y="-296.51" font-family="Helvetica,sans-Serif" font-size="10.00">precice::query::Index</text>
</a>
</g>
</g>
<!-- Node4&#45;&gt;Node29 -->
<g id="edge38_Node000029_Node000004" class="edge">
<title>Node4&#45;&gt;Node29</title>
<g id="a_edge38_Node000029_Node000004"><a xlink:title=" ">
<path fill="none" stroke="#9a32cd" stroke-dasharray="5,2" d="M1510.34,-279.45C1532.3,-278.41 1556.73,-278.41 1579,-281.01 1593.28,-282.67 1608.76,-286.05 1622,-289.43"/>
<polygon fill="#9a32cd" stroke="#9a32cd" points="1509.9,-275.96 1500.1,-280.01 1510.28,-282.95 1509.9,-275.96"/>
</a>
</g>
<text text-anchor="middle" x="1556.5" y="-284.01" font-family="Helvetica,sans-Serif" font-size="10.00" fill="grey"> _mesh</text>
</g>
<!-- Node5 -->
<g id="Node000005" class="node">
<title>Node5</title>
<g id="a_Node000005"><a xlink:href="classprecice_1_1logging_1_1Logger.html" target="_top" xlink:title="This class provides a lightweight logger.">
<polygon fill="white" stroke="#666666" points="896.5,-400.51 763.5,-400.51 763.5,-381.51 896.5,-381.51 896.5,-400.51"/>
<text text-anchor="middle" x="830" y="-388.51" font-family="Helvetica,sans-Serif" font-size="10.00">precice::logging::Logger</text>
</a>
</g>
</g>
<!-- Node5&#45;&gt;Node4 -->
<g id="edge4_Node000004_Node000005" class="edge">
<title>Node5&#45;&gt;Node4</title>
<g id="a_edge4_Node000004_Node000005"><a xlink:title=" ">
<path fill="none" stroke="#9a32cd" stroke-dasharray="5,2" d="M906.99,-381.13C1029.78,-364.94 1266.41,-332.67 1349,-314.01 1370.88,-309.06 1395.12,-301.55 1413.16,-295.55"/>
<polygon fill="#9a32cd" stroke="#9a32cd" points="906.37,-377.69 896.91,-382.46 907.28,-384.63 906.37,-377.69"/>
</a>
</g>
<text text-anchor="middle" x="1147.5" y="-362.01" font-family="Helvetica,sans-Serif" font-size="10.00" fill="grey"> _log</text>
</g>
<!-- Node28 -->
<g id="Node000028" class="node">
<title>Node28</title>
<g id="a_Node000028"><a xlink:href="classprecice_1_1mesh_1_1BoundingBox.html" target="_top" xlink:title="An axis&#45;aligned bounding box around a (partition of a) mesh.">
<polygon fill="white" stroke="#666666" points="1225,-400.51 1070,-400.51 1070,-381.51 1225,-381.51 1225,-400.51"/>
<text text-anchor="middle" x="1147.5" y="-388.51" font-family="Helvetica,sans-Serif" font-size="10.00">precice::mesh::BoundingBox</text>
</a>
</g>
</g>
<!-- Node5&#45;&gt;Node28 -->
<g id="edge32_Node000028_Node000005" class="edge">
<title>Node5&#45;&gt;Node28</title>
<g id="a_edge32_Node000028_Node000005"><a xlink:title=" ">
<path fill="none" stroke="#9a32cd" stroke-dasharray="5,2" d="M907.06,-391.01C956.43,-391.01 1020.54,-391.01 1070,-391.01"/>
<polygon fill="#9a32cd" stroke="#9a32cd" points="906.76,-387.51 896.76,-391.01 906.76,-394.51 906.76,-387.51"/>
</a>
</g>
<text text-anchor="middle" x="988" y="-394.01" font-family="Helvetica,sans-Serif" font-size="10.00" fill="grey"> _log</text>
</g>
<!-- Node5&#45;&gt;Node29 -->
<g id="edge39_Node000029_Node000005" class="edge">
<title>Node5&#45;&gt;Node29</title>
<g id="a_edge39_Node000029_Node000005"><a xlink:title=" ">
<path fill="none" stroke="#9a32cd" stroke-dasharray="5,2" d="M855.47,-405.57C897.55,-429.68 987.1,-476.91 1070,-494.01 1180.95,-516.9 1486.77,-531.79 1579,-466.01 1633.98,-426.79 1650.02,-338 1653.91,-308.64"/>
<polygon fill="#9a32cd" stroke="#9a32cd" points="857.17,-402.51 846.76,-400.52 853.66,-408.57 857.17,-402.51"/>
</a>
</g>
<text text-anchor="middle" x="1296" y="-517.01" font-family="Helvetica,sans-Serif" font-size="10.00" fill="grey"> _log</text>
</g>
<!-- Node6 -->
<g id="Node000006" class="node">
<title>Node6</title>
<g id="a_Node000006"><a target="_parent" xlink:href="http://en.cppreference.com/w/cpp/memory/unique_ptr.html" xlink:title=" ">
<polygon fill="white" stroke="#666666" points="596,-406.01 426,-406.01 426,-376.01 596,-376.01 596,-406.01"/>
<text text-anchor="start" x="434" y="-394.01" font-family="Helvetica,sans-Serif" font-size="10.00">std::unique_ptr&lt; precice</text>
<text text-anchor="middle" x="511" y="-383.01" font-family="Helvetica,sans-Serif" font-size="10.00">::logging::Logger::LoggerImpl &gt;</text>
</a>
</g>
</g>
<!-- Node6&#45;&gt;Node5 -->
<g id="edge5_Node000005_Node000006" class="edge">
<title>Node6&#45;&gt;Node5</title>
<g id="a_edge5_Node000005_Node000006"><a xlink:title=" ">
<path fill="none" stroke="#9a32cd" stroke-dasharray="5,2" d="M606.41,-391.01C656.97,-391.01 717.99,-391.01 763.34,-391.01"/>
<polygon fill="#9a32cd" stroke="#9a32cd" points="606.12,-387.51 596.12,-391.01 606.12,-394.51 606.12,-387.51"/>
</a>
</g>
<text text-anchor="middle" x="675" y="-394.01" font-family="Helvetica,sans-Serif" font-size="10.00" fill="grey"> _impl</text>
</g>
<!-- Node7 -->
<g id="Node000007" class="node">
<title>Node7</title>
<g id="a_Node000007"><a xlink:href="classprecice_1_1logging_1_1Logger_1_1LoggerImpl.html" target="_top" xlink:title=" ">
<polygon fill="white" stroke="#666666" points="341,-406.01 208,-406.01 208,-376.01 341,-376.01 341,-406.01"/>
<text text-anchor="start" x="216" y="-394.01" font-family="Helvetica,sans-Serif" font-size="10.00">precice::logging::Logger</text>
<text text-anchor="middle" x="274.5" y="-383.01" font-family="Helvetica,sans-Serif" font-size="10.00">::LoggerImpl</text>
</a>
</g>
</g>
<!-- Node7&#45;&gt;Node6 -->
<g id="edge6_Node000006_Node000007" class="edge">
<title>Node7&#45;&gt;Node6</title>
<g id="a_edge6_Node000006_Node000007"><a xlink:title=" ">
<path fill="none" stroke="#9a32cd" stroke-dasharray="5,2" d="M351.18,-391.01C375.03,-391.01 401.51,-391.01 425.91,-391.01"/>
<polygon fill="#9a32cd" stroke="#9a32cd" points="351.13,-387.51 341.13,-391.01 351.13,-394.51 351.13,-387.51"/>
</a>
</g>
<text text-anchor="middle" x="383.5" y="-394.01" font-family="Helvetica,sans-Serif" font-size="10.00" fill="grey"> ptr</text>
</g>
<!-- Node8 -->
<g id="Node000008" class="node">
<title>Node8</title>
<g id="a_Node000008"><a xlink:title=" ">
<polygon fill="white" stroke="#666666" points="126.5,-406.01 4.5,-406.01 4.5,-376.01 126.5,-376.01 126.5,-406.01"/>
<text text-anchor="start" x="12.5" y="-394.01" font-family="Helvetica,sans-Serif" font-size="10.00">BoostLogger&lt; Logger</text>
<text text-anchor="middle" x="65.5" y="-383.01" font-family="Helvetica,sans-Serif" font-size="10.00">::LoggerImpl &gt;</text>
</a>
</g>
</g>
<!-- Node8&#45;&gt;Node7 -->
<g id="edge7_Node000007_Node000008" class="edge">
<title>Node8&#45;&gt;Node7</title>
<g id="a_edge7_Node000007_Node000008"><a xlink:title=" ">
<path fill="none" stroke="#63b8ff" d="M136.68,-391.01C159.67,-391.01 185.11,-391.01 207.76,-391.01"/>
<polygon fill="#63b8ff" stroke="#63b8ff" points="136.65,-387.51 126.65,-391.01 136.65,-394.51 136.65,-387.51"/>
</a>
</g>
</g>
<!-- Node9 -->
<g id="Node000009" class="node">
<title>Node9</title>
<g id="a_Node000009"><a target="_parent" xlink:href="http://en.cppreference.com/w/cpp/container/deque.html" xlink:title=" ">
<polygon fill="white" stroke="#666666" points="736,-278.51 614,-278.51 614,-259.51 736,-259.51 736,-278.51"/>
<text text-anchor="middle" x="675" y="-266.51" font-family="Helvetica,sans-Serif" font-size="10.00">std::deque&lt; Vertex &gt;</text>
</a>
</g>
</g>
<!-- Node9&#45;&gt;Node4 -->
<g id="edge9_Node000004_Node000009" class="edge">
<title>Node9&#45;&gt;Node4</title>
<g id="a_edge9_Node000004_Node000009"><a xlink:title=" ">
<path fill="none" stroke="#9a32cd" stroke-dasharray="5,2" d="M746.33,-270.57C896.3,-273.91 1245.09,-281.66 1382.95,-284.73"/>
<polygon fill="#9a32cd" stroke="#9a32cd" points="746.38,-267.07 736.31,-270.35 746.23,-274.07 746.38,-267.07"/>
</a>
</g>
<text text-anchor="middle" x="988" y="-281.01" font-family="Helvetica,sans-Serif" font-size="10.00" fill="grey"> _vertices</text>
</g>
<!-- Node10 -->
<g id="Node000010" class="node">
<title>Node10</title>
<g id="a_Node000010"><a xlink:href="classprecice_1_1mesh_1_1Vertex.html" target="_top" xlink:title="Vertex of a mesh.">
<polygon fill="white" stroke="#666666" points="335.5,-257.51 213.5,-257.51 213.5,-238.51 335.5,-238.51 335.5,-257.51"/>
<text text-anchor="middle" x="274.5" y="-245.51" font-family="Helvetica,sans-Serif" font-size="10.00">precice::mesh::Vertex</text>
</a>
</g>
</g>
<!-- Node10&#45;&gt;Node9 -->
<g id="edge10_Node000009_Node000010" class="edge">
<title>Node10&#45;&gt;Node9</title>
<g id="a_edge10_Node000009_Node000010"><a xlink:title=" ">
<path fill="none" stroke="#9a32cd" stroke-dasharray="5,2" d="M346.02,-251.72C422.09,-255.73 541.93,-262.05 613.75,-265.83"/>
<polygon fill="#9a32cd" stroke="#9a32cd" points="345.76,-248.21 335.59,-251.17 345.39,-255.2 345.76,-248.21"/>
</a>
</g>
<text text-anchor="middle" x="383.5" y="-258.01" font-family="Helvetica,sans-Serif" font-size="10.00" fill="grey"> elements</text>
</g>
<!-- Node14 -->
<g id="Node000014" class="node">
<title>Node14</title>
<g id="a_Node000014"><a target="_parent" xlink:href="http://en.cppreference.com/w/cpp/container/array.html" xlink:title=" ">
<polygon fill="white" stroke="#666666" points="570.5,-241.01 451.5,-241.01 451.5,-211.01 570.5,-211.01 570.5,-241.01"/>
<text text-anchor="start" x="459.5" y="-229.01" font-family="Helvetica,sans-Serif" font-size="10.00">std::array&lt; precice</text>
<text text-anchor="middle" x="511" y="-218.01" font-family="Helvetica,sans-Serif" font-size="10.00">::mesh::Vertex *, 2 &gt;</text>
</a>
</g>
</g>
<!-- Node10&#45;&gt;Node14 -->
<g id="edge15_Node000014_Node000010" class="edge">
<title>Node10&#45;&gt;Node14</title>
<g id="a_edge15_Node000014_Node000010"><a xlink:title=" ">
<path fill="none" stroke="#9a32cd" stroke-dasharray="5,2" d="M345.58,-237.54C350.12,-236.98 354.62,-236.47 359,-236.01 389.44,-232.82 423.45,-230.46 451.47,-228.84"/>
<polygon fill="#9a32cd" stroke="#9a32cd" points="345.11,-234.07 335.64,-238.8 346,-241.01 345.11,-234.07"/>
</a>
</g>
<text text-anchor="middle" x="383.5" y="-239.01" font-family="Helvetica,sans-Serif" font-size="10.00" fill="grey"> elements</text>
</g>
<!-- Node17 -->
<g id="Node000017" class="node">
<title>Node17</title>
<g id="a_Node000017"><a target="_parent" xlink:href="http://en.cppreference.com/w/cpp/container/array.html" xlink:title=" ">
<polygon fill="white" stroke="#666666" points="570.5,-193.01 451.5,-193.01 451.5,-163.01 570.5,-163.01 570.5,-193.01"/>
<text text-anchor="start" x="459.5" y="-181.01" font-family="Helvetica,sans-Serif" font-size="10.00">std::array&lt; precice</text>
<text text-anchor="middle" x="511" y="-170.01" font-family="Helvetica,sans-Serif" font-size="10.00">::mesh::Vertex *, 3 &gt;</text>
</a>
</g>
</g>
<!-- Node10&#45;&gt;Node17 -->
<g id="edge19_Node000017_Node000010" class="edge">
<title>Node10&#45;&gt;Node17</title>
<g id="a_edge19_Node000017_Node000010"><a xlink:title=" ">
<path fill="none" stroke="#9a32cd" stroke-dasharray="5,2" d="M308.87,-234.72C324.04,-228.92 342.3,-222.25 359,-217.01 389.1,-207.56 423.07,-198.64 451.16,-191.71"/>
<polygon fill="#9a32cd" stroke="#9a32cd" points="307.45,-231.52 299.39,-238.39 309.98,-238.05 307.45,-231.52"/>
</a>
</g>
<text text-anchor="middle" x="383.5" y="-220.01" font-family="Helvetica,sans-Serif" font-size="10.00" fill="grey"> elements</text>
</g>
<!-- Node20 -->
<g id="Node000020" class="node">
<title>Node20</title>
<g id="a_Node000020"><a target="_parent" xlink:href="http://en.cppreference.com/w/cpp/container/array.html" xlink:title=" ">
<polygon fill="white" stroke="#666666" points="570.5,-327.01 451.5,-327.01 451.5,-297.01 570.5,-297.01 570.5,-327.01"/>
<text text-anchor="start" x="459.5" y="-315.01" font-family="Helvetica,sans-Serif" font-size="10.00">std::array&lt; precice</text>
<text text-anchor="middle" x="511" y="-304.01" font-family="Helvetica,sans-Serif" font-size="10.00">::mesh::Vertex *, 4 &gt;</text>
</a>
</g>
</g>
<!-- Node10&#45;&gt;Node20 -->
<g id="edge23_Node000020_Node000010" class="edge">
<title>Node10&#45;&gt;Node20</title>
<g id="a_edge23_Node000020_Node000010"><a xlink:title=" ">
<path fill="none" stroke="#9a32cd" stroke-dasharray="5,2" d="M303.55,-261.97C319.49,-269.43 339.99,-278.23 359,-284.01 388.85,-293.08 422.95,-299.71 451.19,-304.23"/>
<polygon fill="#9a32cd" stroke="#9a32cd" points="304.81,-258.7 294.28,-257.55 301.8,-265.01 304.81,-258.7"/>
</a>
</g>
<text text-anchor="middle" x="383.5" y="-299.01" font-family="Helvetica,sans-Serif" font-size="10.00" fill="grey"> elements</text>
</g>
<!-- Node11 -->
<g id="Node000011" class="node">
<title>Node11</title>
<g id="a_Node000011"><a target="_parent" xlink:href="http://en.cppreference.com/w/cpp/container/array.html" xlink:title=" ">
<polygon fill="white" stroke="#666666" points="131,-257.51 0,-257.51 0,-238.51 131,-238.51 131,-257.51"/>
<text text-anchor="middle" x="65.5" y="-245.51" font-family="Helvetica,sans-Serif" font-size="10.00">std::array&lt; double, 3 &gt;</text>
</a>
</g>
</g>
<!-- Node11&#45;&gt;Node10 -->
<g id="edge11_Node000010_Node000011" class="edge">
<title>Node11&#45;&gt;Node10</title>
<g id="a_edge11_Node000010_Node000011"><a xlink:title=" ">
<path fill="none" stroke="#9a32cd" stroke-dasharray="5,2" d="M141.46,-248.01C165.05,-248.01 190.79,-248.01 213.22,-248.01"/>
<polygon fill="#9a32cd" stroke="#9a32cd" points="141.14,-244.51 131.14,-248.01 141.14,-251.51 141.14,-244.51"/>
</a>
</g>
<text text-anchor="middle" x="169.5" y="-251.01" font-family="Helvetica,sans-Serif" font-size="10.00" fill="grey"> _coords</text>
</g>
<!-- Node12 -->
<g id="Node000012" class="node">
<title>Node12</title>
<g id="a_Node000012"><a target="_parent" xlink:href="http://en.cppreference.com/w/cpp/container/deque.html" xlink:title=" ">
<polygon fill="white" stroke="#666666" points="1204.5,-239.51 1090.5,-239.51 1090.5,-220.51 1204.5,-220.51 1204.5,-239.51"/>
<text text-anchor="middle" x="1147.5" y="-227.51" font-family="Helvetica,sans-Serif" font-size="10.00">std::deque&lt; Edge &gt;</text>
</a>
</g>
</g>
<!-- Node12&#45;&gt;Node4 -->
<g id="edge12_Node000004_Node000012" class="edge">
<title>Node12&#45;&gt;Node4</title>
<g id="a_edge12_Node000004_Node000012"><a xlink:title=" ">
<path fill="none" stroke="#9a32cd" stroke-dasharray="5,2" d="M1214.75,-228.14C1254.3,-228.54 1305.18,-231.72 1349,-243.01 1377.22,-250.27 1407.31,-266.2 1424.99,-276.49"/>
<polygon fill="#9a32cd" stroke="#9a32cd" points="1214.71,-224.64 1204.7,-228.1 1214.68,-231.64 1214.71,-224.64"/>
</a>
</g>
<text text-anchor="middle" x="1296" y="-246.01" font-family="Helvetica,sans-Serif" font-size="10.00" fill="grey"> _edges</text>
</g>
<!-- Node13 -->
<g id="Node000013" class="node">
<title>Node13</title>
<g id="a_Node000013"><a xlink:href="classprecice_1_1mesh_1_1Edge.html" target="_top" xlink:title="Linear edge of a mesh, defined by two Vertex objects.">
<polygon fill="white" stroke="#666666" points="887.5,-238.51 772.5,-238.51 772.5,-219.51 887.5,-219.51 887.5,-238.51"/>
<text text-anchor="middle" x="830" y="-226.51" font-family="Helvetica,sans-Serif" font-size="10.00">precice::mesh::Edge</text>
</a>
</g>
</g>
<!-- Node13&#45;&gt;Node12 -->
<g id="edge13_Node000012_Node000013" class="edge">
<title>Node13&#45;&gt;Node12</title>
<g id="a_edge13_Node000012_Node000013"><a xlink:title=" ">
<path fill="none" stroke="#9a32cd" stroke-dasharray="5,2" d="M897.81,-229.22C955.05,-229.4 1036.55,-229.66 1090.45,-229.83"/>
<polygon fill="#9a32cd" stroke="#9a32cd" points="897.78,-225.72 887.77,-229.19 897.76,-232.72 897.78,-225.72"/>
</a>
</g>
<text text-anchor="middle" x="988" y="-233.01" font-family="Helvetica,sans-Serif" font-size="10.00" fill="grey"> elements</text>
</g>
<!-- Node14&#45;&gt;Node13 -->
<g id="edge14_Node000013_Node000014" class="edge">
<title>Node14&#45;&gt;Node13</title>
<g id="a_edge14_Node000013_Node000014"><a xlink:title=" ">
<path fill="none" stroke="#9a32cd" stroke-dasharray="5,2" d="M580.58,-226.66C637.92,-227.2 718.73,-227.96 772.43,-228.47"/>
<polygon fill="#9a32cd" stroke="#9a32cd" points="580.54,-223.16 570.51,-226.56 580.48,-230.16 580.54,-223.16"/>
</a>
</g>
<text text-anchor="middle" x="675" y="-232.01" font-family="Helvetica,sans-Serif" font-size="10.00" fill="grey"> _vertices</text>
</g>
<!-- Node15 -->
<g id="Node000015" class="node">
<title>Node15</title>
<g id="a_Node000015"><a target="_parent" xlink:href="http://en.cppreference.com/w/cpp/container/deque.html" xlink:title=" ">
<polygon fill="white" stroke="#666666" points="1211.5,-202.51 1083.5,-202.51 1083.5,-183.51 1211.5,-183.51 1211.5,-202.51"/>
<text text-anchor="middle" x="1147.5" y="-190.51" font-family="Helvetica,sans-Serif" font-size="10.00">std::deque&lt; Triangle &gt;</text>
</a>
</g>
</g>
<!-- Node15&#45;&gt;Node4 -->
<g id="edge16_Node000004_Node000015" class="edge">
<title>Node15&#45;&gt;Node4</title>
<g id="a_edge16_Node000004_Node000015"><a xlink:title=" ">
<path fill="none" stroke="#9a32cd" stroke-dasharray="5,2" d="M1221.85,-191.55C1260.87,-193.09 1308.92,-198.79 1349,-215.01 1383.85,-229.11 1416.61,-260.5 1431.74,-276.39"/>
<polygon fill="#9a32cd" stroke="#9a32cd" points="1221.72,-188.04 1211.62,-191.23 1221.5,-195.04 1221.72,-188.04"/>
</a>
</g>
<text text-anchor="middle" x="1296" y="-218.01" font-family="Helvetica,sans-Serif" font-size="10.00" fill="grey"> _triangles</text>
</g>
<!-- Node16 -->
<g id="Node000016" class="node">
<title>Node16</title>
<g id="a_Node000016"><a xlink:href="classprecice_1_1mesh_1_1Triangle.html" target="_top" xlink:title="Triangle of a mesh, defined by three vertices.">
<polygon fill="white" stroke="#666666" points="894.5,-198.51 765.5,-198.51 765.5,-179.51 894.5,-179.51 894.5,-198.51"/>
<text text-anchor="middle" x="830" y="-186.51" font-family="Helvetica,sans-Serif" font-size="10.00">precice::mesh::Triangle</text>
</a>
</g>
</g>
<!-- Node16&#45;&gt;Node15 -->
<g id="edge17_Node000015_Node000016" class="edge">
<title>Node16&#45;&gt;Node15</title>
<g id="a_edge17_Node000015_Node000016"><a xlink:title=" ">
<path fill="none" stroke="#9a32cd" stroke-dasharray="5,2" d="M905.07,-189.95C959.22,-190.63 1031.87,-191.55 1083.29,-192.21"/>
<polygon fill="#9a32cd" stroke="#9a32cd" points="904.89,-186.44 894.85,-189.82 904.8,-193.44 904.89,-186.44"/>
</a>
</g>
<text text-anchor="middle" x="988" y="-195.01" font-family="Helvetica,sans-Serif" font-size="10.00" fill="grey"> elements</text>
</g>
<!-- Node17&#45;&gt;Node16 -->
<g id="edge18_Node000016_Node000017" class="edge">
<title>Node17&#45;&gt;Node16</title>
<g id="a_edge18_Node000016_Node000017"><a xlink:title=" ">
<path fill="none" stroke="#9a32cd" stroke-dasharray="5,2" d="M580.84,-180.4C635.71,-182.3 711.94,-184.95 765.39,-186.8"/>
<polygon fill="#9a32cd" stroke="#9a32cd" points="580.63,-176.89 570.51,-180.04 580.38,-183.88 580.63,-176.89"/>
</a>
</g>
<text text-anchor="middle" x="675" y="-189.01" font-family="Helvetica,sans-Serif" font-size="10.00" fill="grey"> _vertices</text>
</g>
<!-- Node18 -->
<g id="Node000018" class="node">
<title>Node18</title>
<g id="a_Node000018"><a target="_parent" xlink:href="http://en.cppreference.com/w/cpp/container/deque.html" xlink:title=" ">
<polygon fill="white" stroke="#666666" points="1221.5,-315.51 1073.5,-315.51 1073.5,-296.51 1221.5,-296.51 1221.5,-315.51"/>
<text text-anchor="middle" x="1147.5" y="-303.51" font-family="Helvetica,sans-Serif" font-size="10.00">std::deque&lt; Tetrahedron &gt;</text>
</a>
</g>
</g>
<!-- Node18&#45;&gt;Node4 -->
<g id="edge20_Node000004_Node000018" class="edge">
<title>Node18&#45;&gt;Node4</title>
<g id="a_edge20_Node000004_Node000018"><a xlink:title=" ">
<path fill="none" stroke="#9a32cd" stroke-dasharray="5,2" d="M1231.93,-300.29C1280.19,-296.99 1339.72,-292.91 1382.8,-289.96"/>
<polygon fill="#9a32cd" stroke="#9a32cd" points="1231.54,-296.81 1221.81,-300.99 1232.02,-303.79 1231.54,-296.81"/>
</a>
</g>
<text text-anchor="middle" x="1296" y="-302.01" font-family="Helvetica,sans-Serif" font-size="10.00" fill="grey"> _tetrahedra</text>
</g>
<!-- Node19 -->
<g id="Node000019" class="node">
<title>Node19</title>
<g id="a_Node000019"><a xlink:href="classprecice_1_1mesh_1_1Tetrahedron.html" target="_top" xlink:title="Tetrahedron of a mesh, defined by 4 vertices.">
<polygon fill="white" stroke="#666666" points="904.5,-317.51 755.5,-317.51 755.5,-298.51 904.5,-298.51 904.5,-317.51"/>
<text text-anchor="middle" x="830" y="-305.51" font-family="Helvetica,sans-Serif" font-size="10.00">precice::mesh::Tetrahedron</text>
</a>
</g>
</g>
<!-- Node19&#45;&gt;Node18 -->
<g id="edge21_Node000018_Node000019" class="edge">
<title>Node19&#45;&gt;Node18</title>
<g id="a_edge21_Node000018_Node000019"><a xlink:title=" ">
<path fill="none" stroke="#9a32cd" stroke-dasharray="5,2" d="M914.59,-307.48C963.98,-307.16 1025.92,-306.77 1073.36,-306.47"/>
<polygon fill="#9a32cd" stroke="#9a32cd" points="914.55,-303.98 904.57,-307.54 914.59,-310.98 914.55,-303.98"/>
</a>
</g>
<text text-anchor="middle" x="988" y="-311.01" font-family="Helvetica,sans-Serif" font-size="10.00" fill="grey"> elements</text>
</g>
<!-- Node20&#45;&gt;Node19 -->
<g id="edge22_Node000019_Node000020" class="edge">
<title>Node20&#45;&gt;Node19</title>
<g id="a_edge22_Node000019_Node000020"><a xlink:title=" ">
<path fill="none" stroke="#9a32cd" stroke-dasharray="5,2" d="M580.57,-311.14C632.15,-310.49 702.73,-309.6 755.48,-308.93"/>
<polygon fill="#9a32cd" stroke="#9a32cd" points="580.47,-307.64 570.51,-311.27 580.56,-314.64 580.47,-307.64"/>
</a>
</g>
<text text-anchor="middle" x="675" y="-314.01" font-family="Helvetica,sans-Serif" font-size="10.00" fill="grey"> _vertices</text>
</g>
<!-- Node21 -->
<g id="Node000021" class="node">
<title>Node21</title>
<g id="a_Node000021"><a target="_parent" xlink:href="http://en.cppreference.com/w/cpp/container/vector.html" xlink:title=" ">
<polygon fill="white" stroke="#666666" points="1052,-79.51 924,-79.51 924,-60.51 1052,-60.51 1052,-79.51"/>
<text text-anchor="middle" x="988" y="-67.51" font-family="Helvetica,sans-Serif" font-size="10.00">std::vector&lt; PtrData &gt;</text>
</a>
</g>
</g>
<!-- Node21&#45;&gt;Node4 -->
<g id="edge24_Node000004_Node000021" class="edge">
<title>Node21&#45;&gt;Node4</title>
<g id="a_edge24_Node000004_Node000021"><a xlink:title=" ">
<path fill="none" stroke="#9a32cd" stroke-dasharray="5,2" d="M1062.47,-65.68C1155.34,-61.87 1308.06,-61.65 1349,-98.01 1370.77,-117.34 1355.53,-134.24 1367,-161.01 1386.54,-206.59 1419.53,-256.04 1433.7,-276.41"/>
<polygon fill="#9a32cd" stroke="#9a32cd" points="1062.13,-62.2 1052.29,-66.13 1062.43,-69.19 1062.13,-62.2"/>
</a>
</g>
<text text-anchor="middle" x="1147.5" y="-70.01" font-family="Helvetica,sans-Serif" font-size="10.00" fill="grey"> _data</text>
</g>
<!-- Node22 -->
<g id="Node000022" class="node">
<title>Node22</title>
<g id="a_Node000022"><a target="_parent" xlink:href="http://en.cppreference.com/w/cpp/memory/shared_ptr.html" xlink:title=" ">
<polygon fill="white" stroke="#666666" points="570,-48.51 452,-48.51 452,-29.51 570,-29.51 570,-48.51"/>
<text text-anchor="middle" x="511" y="-36.51" font-family="Helvetica,sans-Serif" font-size="10.00">std::shared_ptr&lt; T &gt;</text>
</a>
</g>
</g>
<!-- Node22&#45;&gt;Node21 -->
<g id="edge25_Node000021_Node000022" class="edge">
<title>Node22&#45;&gt;Node21</title>
<g id="a_edge25_Node000021_Node000022"><a xlink:title=" ">
<path fill="none" stroke="#9a32cd" stroke-dasharray="5,2" d="M580.4,-46.9C591.62,-48.04 603.13,-49.13 614,-50.01 722.76,-58.78 849.67,-64.66 923.9,-67.66"/>
<polygon fill="#9a32cd" stroke="#9a32cd" points="580.51,-43.39 570.2,-45.83 579.79,-50.35 580.51,-43.39"/>
</a>
</g>
<text text-anchor="middle" x="675" y="-62.01" font-family="Helvetica,sans-Serif" font-size="10.00" fill="grey"> elements</text>
</g>
<!-- Node32 -->
<g id="Node000032" class="node">
<title>Node32</title>
<g id="a_Node000032"><a xlink:href="structprecice_1_1query_1_1MeshIndices.html" target="_top" xlink:title=" ">
<polygon fill="white" stroke="#666666" points="906,-19.51 754,-19.51 754,-0.51 906,-0.51 906,-19.51"/>
<text text-anchor="middle" x="830" y="-7.51" font-family="Helvetica,sans-Serif" font-size="10.00">precice::query::MeshIndices</text>
</a>
</g>
</g>
<!-- Node22&#45;&gt;Node32 -->
<g id="edge37_Node000032_Node000022" class="edge">
<title>Node22&#45;&gt;Node32</title>
<g id="a_edge37_Node000032_Node000022"><a xlink:title=" ">
<path fill="none" stroke="#9a32cd" stroke-dasharray="5,2" d="M544.03,-25.79C563.82,-18.34 589.94,-9.8 614,-6.01 660.1,1.26 712.44,0.48 753.93,-2.23"/>
<polygon fill="#9a32cd" stroke="#9a32cd" points="542.65,-22.57 534.59,-29.43 545.18,-29.09 542.65,-22.57"/>
</a>
</g>
<text text-anchor="middle" x="675" y="-42.01" font-family="Helvetica,sans-Serif" font-size="10.00" fill="grey"> edgeRTree</text>
<text text-anchor="middle" x="675" y="-31.01" font-family="Helvetica,sans-Serif" font-size="10.00" fill="grey">tetraRTree</text>
<text text-anchor="middle" x="675" y="-20.01" font-family="Helvetica,sans-Serif" font-size="10.00" fill="grey">triangleRTree</text>
<text text-anchor="middle" x="675" y="-9.01" font-family="Helvetica,sans-Serif" font-size="10.00" fill="grey">vertexRTree</text>
</g>
<!-- Node23 -->
<g id="Node000023" class="node">
<title>Node23</title>
<g id="a_Node000023"><a xlink:title=" ">
<polygon fill="white" stroke="#666666" points="289,-48.51 260,-48.51 260,-29.51 289,-29.51 289,-48.51"/>
<text text-anchor="middle" x="274.5" y="-36.51" font-family="Helvetica,sans-Serif" font-size="10.00">T</text>
</a>
</g>
</g>
<!-- Node23&#45;&gt;Node22 -->
<g id="edge26_Node000022_Node000023" class="edge">
<title>Node23&#45;&gt;Node22</title>
<g id="a_edge26_Node000022_Node000023"><a xlink:title=" ">
<path fill="none" stroke="#9a32cd" stroke-dasharray="5,2" d="M299.46,-39.01C334.98,-39.01 402.71,-39.01 451.77,-39.01"/>
<polygon fill="#9a32cd" stroke="#9a32cd" points="299.12,-35.51 289.12,-39.01 299.12,-42.51 299.12,-35.51"/>
</a>
</g>
<text text-anchor="middle" x="383.5" y="-42.01" font-family="Helvetica,sans-Serif" font-size="10.00" fill="grey"> ptr</text>
</g>
<!-- Node24 -->
<g id="Node000024" class="node">
<title>Node24</title>
<g id="a_Node000024"><a target="_parent" xlink:href="http://en.cppreference.com/w/cpp/container/map.html" xlink:title=" ">
<polygon fill="white" stroke="#666666" points="1212,-128.01 1083,-128.01 1083,-98.01 1212,-98.01 1212,-128.01"/>
<text text-anchor="start" x="1091" y="-116.01" font-family="Helvetica,sans-Serif" font-size="10.00">std::map&lt; Rank, std</text>
<text text-anchor="middle" x="1147.5" y="-105.01" font-family="Helvetica,sans-Serif" font-size="10.00">::vector&lt; VertexID &gt; &gt;</text>
</a>
</g>
</g>
<!-- Node24&#45;&gt;Node4 -->
<g id="edge27_Node000004_Node000024" class="edge">
<title>Node24&#45;&gt;Node4</title>
<g id="a_edge27_Node000004_Node000024"><a xlink:title=" ">
<path fill="none" stroke="#9a32cd" stroke-dasharray="5,2" d="M1222.3,-101.64C1262.77,-99.25 1312.06,-102.97 1349,-127.01 1363.33,-136.33 1358.66,-146.08 1367,-161.01 1391.3,-204.53 1421.98,-255.5 1434.63,-276.37"/>
<polygon fill="#9a32cd" stroke="#9a32cd" points="1221.94,-98.16 1212.22,-102.37 1222.45,-105.14 1221.94,-98.16"/>
</a>
</g>
<text text-anchor="middle" x="1296" y="-141.01" font-family="Helvetica,sans-Serif" font-size="10.00" fill="grey"> _communicationMap</text>
<text text-anchor="middle" x="1296" y="-130.01" font-family="Helvetica,sans-Serif" font-size="10.00" fill="grey">_vertexDistribution</text>
</g>
<!-- Node25 -->
<g id="Node000025" class="node">
<title>Node25</title>
<g id="a_Node000025"><a target="_parent" xlink:href="http://en.cppreference.com/w/cpp/container/vector.html" xlink:title=" ">
<polygon fill="white" stroke="#666666" points="896.5,-122.51 763.5,-122.51 763.5,-103.51 896.5,-103.51 896.5,-122.51"/>
<text text-anchor="middle" x="830" y="-110.51" font-family="Helvetica,sans-Serif" font-size="10.00">std::vector&lt; VertexID &gt;</text>
</a>
</g>
</g>
<!-- Node25&#45;&gt;Node24 -->
<g id="edge28_Node000024_Node000025" class="edge">
<title>Node25&#45;&gt;Node24</title>
<g id="a_edge28_Node000024_Node000025"><a xlink:title=" ">
<path fill="none" stroke="#9a32cd" stroke-dasharray="5,2" d="M906.93,-113.01C960.76,-113.01 1032.17,-113.01 1082.98,-113.01"/>
<polygon fill="#9a32cd" stroke="#9a32cd" points="906.76,-109.51 896.76,-113.01 906.76,-116.51 906.76,-109.51"/>
</a>
</g>
<text text-anchor="middle" x="988" y="-116.01" font-family="Helvetica,sans-Serif" font-size="10.00" fill="grey"> elements</text>
</g>
<!-- Node26 -->
<g id="Node000026" class="node">
<title>Node26</title>
<g id="a_Node000026"><a target="_parent" xlink:href="http://en.cppreference.com/w/cpp/container/vector.html" xlink:title=" ">
<polygon fill="white" stroke="#666666" points="1199.5,-165.51 1095.5,-165.51 1095.5,-146.51 1199.5,-146.51 1199.5,-165.51"/>
<text text-anchor="middle" x="1147.5" y="-153.51" font-family="Helvetica,sans-Serif" font-size="10.00">std::vector&lt; int &gt;</text>
</a>
</g>
</g>
<!-- Node26&#45;&gt;Node4 -->
<g id="edge29_Node000004_Node000026" class="edge">
<title>Node26&#45;&gt;Node4</title>
<g id="a_edge29_Node000004_Node000026"><a xlink:title=" ">
<path fill="none" stroke="#9a32cd" stroke-dasharray="5,2" d="M1209.98,-151.69C1251.53,-151.41 1306.37,-156.33 1349,-179.01 1392.38,-202.08 1424.05,-254.88 1435.65,-276.51"/>
<polygon fill="#9a32cd" stroke="#9a32cd" points="1209.66,-148.2 1199.72,-151.87 1209.78,-155.19 1209.66,-148.2"/>
</a>
</g>
<text text-anchor="middle" x="1296" y="-182.01" font-family="Helvetica,sans-Serif" font-size="10.00" fill="grey"> _vertexOffsets</text>
</g>
<!-- Node27 -->
<g id="Node000027" class="node">
<title>Node27</title>
<g id="a_Node000027"><a target="_parent" xlink:href="http://en.cppreference.com/w/cpp/container/vector.html" xlink:title=" ">
<polygon fill="white" stroke="#666666" points="1205.5,-485.51 1089.5,-485.51 1089.5,-466.51 1205.5,-466.51 1205.5,-485.51"/>
<text text-anchor="middle" x="1147.5" y="-473.51" font-family="Helvetica,sans-Serif" font-size="10.00">std::vector&lt; Rank &gt;</text>
</a>
</g>
</g>
<!-- Node27&#45;&gt;Node4 -->
<g id="edge30_Node000004_Node000027" class="edge">
<title>Node27&#45;&gt;Node4</title>
<g id="a_edge30_Node000004_Node000027"><a xlink:title=" ">
<path fill="none" stroke="#9a32cd" stroke-dasharray="5,2" d="M1215.57,-474.09C1265.2,-471.49 1327.72,-465.39 1349,-451.01 1406.54,-412.13 1431.53,-324.49 1438.42,-295.51"/>
<polygon fill="#9a32cd" stroke="#9a32cd" points="1215.33,-470.6 1205.51,-474.58 1215.67,-477.59 1215.33,-470.6"/>
</a>
</g>
<text text-anchor="middle" x="1296" y="-476.01" font-family="Helvetica,sans-Serif" font-size="10.00" fill="grey"> _connectedRanks</text>
</g>
<!-- Node28&#45;&gt;Node4 -->
<g id="edge31_Node000004_Node000028" class="edge">
<title>Node28&#45;&gt;Node4</title>
<g id="a_edge31_Node000004_Node000028"><a xlink:title=" ">
<path fill="none" stroke="#9a32cd" stroke-dasharray="5,2" d="M1235.25,-391.29C1271.71,-388.64 1313.74,-381.81 1349,-366.01 1385.78,-349.53 1418.61,-313.11 1432.91,-295.67"/>
<polygon fill="#9a32cd" stroke="#9a32cd" points="1234.89,-387.81 1225.13,-391.94 1235.33,-394.8 1234.89,-387.81"/>
</a>
</g>
<text text-anchor="middle" x="1296" y="-394.01" font-family="Helvetica,sans-Serif" font-size="10.00" fill="grey"> _boundingBox</text>
</g>
<!-- Node29&#45;&gt;Node4 -->
<g id="edge33_Node000004_Node000029" class="edge">
<title>Node29&#45;&gt;Node4</title>
<g id="a_edge33_Node000004_Node000029"><a xlink:title=" ">
<path fill="none" stroke="#9a32cd" stroke-dasharray="5,2" d="M1586.34,-296.72C1569.23,-296 1550.94,-295.1 1534,-294.01 1523.02,-293.3 1511.31,-292.39 1500.07,-291.45"/>
<polygon fill="#9a32cd" stroke="#9a32cd" points="1586.68,-300.23 1596.81,-297.14 1586.96,-293.24 1586.68,-300.23"/>
</a>
</g>
<text text-anchor="middle" x="1556.5" y="-300.01" font-family="Helvetica,sans-Serif" font-size="10.00" fill="grey"> _index</text>
</g>
<!-- Node30 -->
<g id="Node000030" class="node">
<title>Node30</title>
<g id="a_Node000030"><a target="_parent" xlink:href="http://en.cppreference.com/w/cpp/memory/unique_ptr.html" xlink:title=" ">
<polygon fill="white" stroke="#666666" points="1516,-152.01 1367,-152.01 1367,-122.01 1516,-122.01 1516,-152.01"/>
<text text-anchor="start" x="1375" y="-140.01" font-family="Helvetica,sans-Serif" font-size="10.00">std::unique_ptr&lt; precice</text>
<text text-anchor="middle" x="1441.5" y="-129.01" font-family="Helvetica,sans-Serif" font-size="10.00">::query::Index::IndexImpl &gt;</text>
</a>
</g>
</g>
<!-- Node30&#45;&gt;Node29 -->
<g id="edge34_Node000029_Node000030" class="edge">
<title>Node30&#45;&gt;Node29</title>
<g id="a_edge34_Node000029_Node000030"><a xlink:title=" ">
<path fill="none" stroke="#9a32cd" stroke-dasharray="5,2" d="M1470.67,-158.49C1517.43,-194.13 1609.22,-264.1 1642.54,-289.51"/>
<polygon fill="#9a32cd" stroke="#9a32cd" points="1472.57,-155.53 1462.49,-152.25 1468.32,-161.09 1472.57,-155.53"/>
</a>
</g>
<text text-anchor="middle" x="1556.5" y="-241.01" font-family="Helvetica,sans-Serif" font-size="10.00" fill="grey"> _pimpl</text>
</g>
<!-- Node31 -->
<g id="Node000031" class="node">
<title>Node31</title>
<g id="a_Node000031"><a xlink:href="classprecice_1_1query_1_1Index_1_1IndexImpl.html" target="_top" xlink:title=" ">
<polygon fill="white" stroke="#666666" points="1206.5,-32.01 1088.5,-32.01 1088.5,-2.01 1206.5,-2.01 1206.5,-32.01"/>
<text text-anchor="start" x="1096.5" y="-20.01" font-family="Helvetica,sans-Serif" font-size="10.00">precice::query::Index</text>
<text text-anchor="middle" x="1147.5" y="-9.01" font-family="Helvetica,sans-Serif" font-size="10.00">::IndexImpl</text>
</a>
</g>
</g>
<!-- Node31&#45;&gt;Node30 -->
<g id="edge35_Node000030_Node000031" class="edge">
<title>Node31&#45;&gt;Node30</title>
<g id="a_edge35_Node000030_Node000031"><a xlink:title=" ">
<path fill="none" stroke="#9a32cd" stroke-dasharray="5,2" d="M1216.74,-15.35C1257.11,-16.94 1308.17,-23.59 1349,-44.01 1385.26,-62.14 1415.55,-100.38 1430.49,-121.75"/>
<polygon fill="#9a32cd" stroke="#9a32cd" points="1216.82,-11.85 1206.71,-15.05 1216.6,-18.85 1216.82,-11.85"/>
</a>
</g>
<text text-anchor="middle" x="1296" y="-47.01" font-family="Helvetica,sans-Serif" font-size="10.00" fill="grey"> ptr</text>
</g>
<!-- Node32&#45;&gt;Node31 -->
<g id="edge36_Node000031_Node000032" class="edge">
<title>Node32&#45;&gt;Node31</title>
<g id="a_edge36_Node000031_Node000032"><a xlink:title=" ">
<path fill="none" stroke="#9a32cd" stroke-dasharray="5,2" d="M916.18,-11.9C970.75,-13.11 1040.14,-14.65 1088.43,-15.72"/>
<polygon fill="#9a32cd" stroke="#9a32cd" points="916.24,-8.4 906.17,-11.68 916.09,-15.4 916.24,-8.4"/>
</a>
</g>
<text text-anchor="middle" x="988" y="-18.01" font-family="Helvetica,sans-Serif" font-size="10.00" fill="grey"> indices</text>
</g>
<!-- Node33 -->
<g id="Node000033" class="node">
<title>Node33</title>
<g id="a_Node000033"><a target="_parent" xlink:href="http://en.cppreference.com/w/cpp/container/vector.html" xlink:title=" ">
<polygon fill="white" stroke="#666666" points="1501.5,-611.01 1381.5,-611.01 1381.5,-581.01 1501.5,-581.01 1501.5,-611.01"/>
<text text-anchor="start" x="1389.5" y="-599.01" font-family="Helvetica,sans-Serif" font-size="10.00">std::vector&lt; precice</text>
<text text-anchor="middle" x="1441.5" y="-588.01" font-family="Helvetica,sans-Serif" font-size="10.00">::io::Export::Record &gt;</text>
</a>
</g>
</g>
<!-- Node33&#45;&gt;Node1 -->
<g id="edge40_Node000001_Node000033" class="edge">
<title>Node33&#45;&gt;Node1</title>
<g id="a_edge40_Node000001_Node000033"><a xlink:title=" ">
<path fill="none" stroke="#9a32cd" stroke-dasharray="5,2" d="M1511.84,-581.65C1543.67,-575.06 1580.56,-567.42 1608.92,-561.55"/>
<polygon fill="#9a32cd" stroke="#9a32cd" points="1510.78,-578.3 1501.69,-583.75 1512.2,-585.15 1510.78,-578.3"/>
</a>
</g>
<text text-anchor="middle" x="1556.5" y="-579.01" font-family="Helvetica,sans-Serif" font-size="10.00" fill="grey"> _records</text>
</g>
<!-- Node34&#45;&gt;Node33 -->
<g id="edge41_Node000033_Node000034" class="edge">
<title>Node34&#45;&gt;Node33</title>
<g id="a_edge41_Node000033_Node000034"><a xlink:title=" ">
<path fill="none" stroke="#9a32cd" stroke-dasharray="5,2" d="M1209.82,-596.01C1260.3,-596.01 1331.42,-596.01 1381.31,-596.01"/>
<polygon fill="#9a32cd" stroke="#9a32cd" points="1209.7,-592.51 1199.7,-596.01 1209.7,-599.51 1209.7,-592.51"/>
</a>
</g>
<text text-anchor="middle" x="1296" y="-599.01" font-family="Helvetica,sans-Serif" font-size="10.00" fill="grey"> elements</text>
</g>
</g>
</svg>

<g id="navigator" transform="translate(0 0)" fill="#404254">
  <rect fill="#f2f5e9" fill-opacity="0.5" stroke="#606060" stroke-width=".5" x="0" y="0" width="60" height="60"/>
  <use id="zoomplus" xlink:href="#zoomPlus" x="17" y="9" onmousedown="handleZoom(evt,'in')"/>
  <use id="zoomminus" xlink:href="#zoomMin" x="42" y="9" onmousedown="handleZoom(evt,'out')"/>
  <use id="reset" xlink:href="#resetDef" x="30" y="36" onmousedown="handleReset()"/>
   <use id="arrowup" xlink:href="#arrowUp" x="0" y="0" onmousedown="handlePan(0,-1)"/>
  <use id="arrowright" xlink:href="#arrowRight" x="0" y="0" onmousedown="handlePan(1,0)"/>
  <use id="arrowdown" xlink:href="#arrowDown" x="0" y="0" onmousedown="handlePan(0,1)"/>
  <use id="arrowleft" xlink:href="#arrowLeft" x="0" y="0" onmousedown="handlePan(-1,0)"/>
</g>
<svg viewBox="0 0 15 15" width="100%" height="30px" preserveAspectRatio="xMaxYMin meet">
 <g id="arrow_out" transform="scale(0.3 0.3)">
  <a xlink:href="classprecice_1_1io_1_1Export__coll__graph_org.svg" target="_base">
   <rect id="button" ry="5" rx="5" y="6" x="6" height="38" width="38"
        fill="#f2f5e9" fill-opacity="0.5" stroke="#606060" stroke-width="1.0"/>
   <path id="arrow"
     d="M 11.500037,31.436501 C 11.940474,20.09759 22.043105,11.32322 32.158766,21.979434 L 37.068811,17.246167 C 37.068811,17.246167 37.088388,32 37.088388,32 L 22.160133,31.978069 C 22.160133,31.978069 26.997745,27.140456 26.997745,27.140456 C 18.528582,18.264221 13.291696,25.230495 11.500037,31.436501 z"
     style="fill:#404040;"/>
  </a>
 </g>
</svg>

<style type='text/css'>
<![CDATA[
[data-mouse-over-selected='false'] { opacity: 0.7; }
[data-mouse-over-selected='true']  { opacity: 1.0; }
]]>
</style>
<script type="application/ecmascript"><![CDATA[
document.addEventListener('DOMContentLoaded', (event) => {
  highlightEdges();
  highlightAdjacentNodes();
});
]]></script>
</svg>
