<?xml version="1.0" encoding="UTF-8" standalone="no"?>
<!DOCTYPE svg PUBLIC "-//W3C//DTD SVG 1.1//EN"
 "http://www.w3.org/Graphics/SVG/1.1/DTD/svg11.dtd">
<!-- Generated by graphviz version 2.43.0 (0)
 -->
<!-- Title: precice::acceleration::impl::ParallelMatrixOperations::initialize Pages: 1 -->
<!--zoomable 344 -->
<svg id="main" version="1.1" xmlns="http://www.w3.org/2000/svg" xmlns:xlink="http://www.w3.org/1999/xlink" xml:space="preserve" onload="init(evt)">
<style type="text/css"><![CDATA[
.edge:hover path { stroke: red; }
.edge:hover polygon { stroke: red; fill: red; }
]]></style>
<script type="text/javascript"><![CDATA[
var edges = document.getElementsByTagName('g');
if (edges && edges.length) {
  for (var i=0;i<edges.length;i++) {
    if (edges[i].id.substr(0,4)=='edge') {
      edges[i].setAttribute('class','edge');
    }
  }
}
]]></script>
        <defs>
                <circle id="rim" cx="0" cy="0" r="7"/>
                <circle id="rim2" cx="0" cy="0" r="3.5"/>
                <g id="zoomPlus">
                        <use xlink:href="#rim" fill="#404040">
                                <set attributeName="fill" to="#808080" begin="zoomplus.mouseover" end="zoomplus.mouseout"/>
                        </use>
                        <path d="M-4,0h8M0,-4v8" fill="none" stroke="white" stroke-width="1.5" pointer-events="none"/>
                </g>
                <g id="zoomMin">
                        <use xlink:href="#rim" fill="#404040">
                                <set attributeName="fill" to="#808080" begin="zoomminus.mouseover" end="zoomminus.mouseout"/>
                        </use>
                        <path d="M-4,0h8" fill="none" stroke="white" stroke-width="1.5" pointer-events="none"/>
                </g>
                <g id="dirArrow">
                        <path fill="none" stroke="white" stroke-width="1.5" d="M0,-3.0v7 M-2.5,-0.5L0,-3.0L2.5,-0.5"/>
                </g>
               <g id="resetDef">
                       <use xlink:href="#rim2" fill="#404040">
                               <set attributeName="fill" to="#808080" begin="reset.mouseover" end="reset.mouseout"/>
                       </use>
               </g>
        </defs>

<script type="text/javascript">
var viewWidth = 824;
var viewHeight = 344;
var sectionId = 'dynsection-7';
</script>
<script xlink:href="svgpan.js"/>
<svg id="graph" class="graph">
<g id="viewport">
<title>precice::acceleration::impl::ParallelMatrixOperations::initialize</title>
<polygon fill="white" stroke="transparent" points="-4,4 -4,-340 820,-340 820,4 -4,4"/>
<!-- Node1 -->
<g id="node1" class="node">
<title>Node1</title>
<g id="a_node1"><a xlink:title="Initializes the acceleration.">
<polygon fill="#bfbfbf" stroke="black" points="0,-38 0,-79 171,-79 171,-38 0,-38"/>
<text text-anchor="start" x="8" y="-67" font-family="Helvetica,sans-Serif" font-size="10.00">precice::acceleration</text>
<text text-anchor="start" x="8" y="-56" font-family="Helvetica,sans-Serif" font-size="10.00">::impl::ParallelMatrixOperations</text>
<text text-anchor="middle" x="85.5" y="-45" font-family="Helvetica,sans-Serif" font-size="10.00">::initialize</text>
</a>
</g>
</g>
<!-- Node2 -->
<g id="node2" class="node">
<title>Node2</title>
<g id="a_node2"><a xlink:href="classprecice_1_1acceleration_1_1impl_1_1ParallelMatrixOperations.html#ae88f0a4eceffc0e5d44fa6d642f47fbe" target="_top" xlink:title=" ">
<polygon fill="white" stroke="black" points="207,-66 207,-107 389,-107 389,-66 207,-66"/>
<text text-anchor="start" x="215" y="-95" font-family="Helvetica,sans-Serif" font-size="10.00">precice::acceleration</text>
<text text-anchor="start" x="215" y="-84" font-family="Helvetica,sans-Serif" font-size="10.00">::impl::ParallelMatrixOperations</text>
<text text-anchor="middle" x="298" y="-73" font-family="Helvetica,sans-Serif" font-size="10.00">::establishCircularCommunication</text>
</a>
</g>
</g>
<!-- Node1&#45;&gt;Node2 -->
<g id="edge1" class="edge">
<title>Node1&#45;&gt;Node2</title>
<path fill="none" stroke="midnightblue" d="M171.21,-69.77C179.67,-70.89 188.31,-72.04 196.9,-73.19"/>
<polygon fill="midnightblue" stroke="midnightblue" points="196.58,-76.67 206.96,-74.52 197.51,-69.73 196.58,-76.67"/>
</g>
<!-- Node12 -->
<g id="node12" class="node">
<title>Node12</title>
<g id="a_node12"><a xlink:href="classprecice_1_1utils_1_1IntraComm.html#a946589c66048ff3058ffa078d54b6073" target="_top" xlink:title="True if this process is running in parallel.">
<polygon fill="white" stroke="black" points="228,-16.5 228,-46.5 368,-46.5 368,-16.5 228,-16.5"/>
<text text-anchor="start" x="236" y="-34.5" font-family="Helvetica,sans-Serif" font-size="10.00">precice::utils::IntraComm</text>
<text text-anchor="middle" x="298" y="-23.5" font-family="Helvetica,sans-Serif" font-size="10.00">::isParallel</text>
</a>
</g>
</g>
<!-- Node1&#45;&gt;Node12 -->
<g id="edge12" class="edge">
<title>Node1&#45;&gt;Node12</title>
<path fill="none" stroke="midnightblue" d="M171.21,-47.63C186.52,-45.67 202.44,-43.63 217.6,-41.68"/>
<polygon fill="midnightblue" stroke="midnightblue" points="218.48,-45.1 227.96,-40.36 217.59,-38.16 218.48,-45.1"/>
</g>
<!-- Node3 -->
<g id="node3" class="node">
<title>Node3</title>
<g id="a_node3"><a xlink:href="namespaceprecice_1_1com.html#ae52af1c92aa8bb6b5feb18747b762637" target="_top" xlink:title=" ">
<polygon fill="white" stroke="black" points="425,-164 425,-183 618,-183 618,-164 425,-164"/>
<text text-anchor="middle" x="521.5" y="-171" font-family="Helvetica,sans-Serif" font-size="10.00">precice::com::connectCircularComm</text>
</a>
</g>
</g>
<!-- Node2&#45;&gt;Node3 -->
<g id="edge2" class="edge">
<title>Node2&#45;&gt;Node3</title>
<path fill="none" stroke="midnightblue" d="M351.21,-107.01C393.07,-123.45 450.57,-146.03 486.63,-160.19"/>
<polygon fill="midnightblue" stroke="midnightblue" points="485.61,-163.56 496.19,-163.95 488.17,-157.04 485.61,-163.56"/>
</g>
<!-- Node9 -->
<g id="node9" class="node">
<title>Node9</title>
<g id="a_node9"><a xlink:href="namespaceprecice_1_1detail.html#a99f20f73c4a3c34d08429ac0fea564ef" target="_top" xlink:title=" ">
<polygon fill="white" stroke="black" points="679.5,-71 679.5,-90 790.5,-90 790.5,-71 679.5,-71"/>
<text text-anchor="middle" x="735" y="-78" font-family="Helvetica,sans-Serif" font-size="10.00">precice::detail::size</text>
</a>
</g>
</g>
<!-- Node2&#45;&gt;Node9 -->
<g id="edge11" class="edge">
<title>Node2&#45;&gt;Node9</title>
<path fill="none" stroke="midnightblue" d="M389.09,-89.02C453,-90.33 540.79,-91.16 618,-88.5 634.62,-87.93 652.56,-86.89 669.25,-85.76"/>
<polygon fill="midnightblue" stroke="midnightblue" points="669.73,-89.23 679.46,-85.04 669.23,-82.25 669.73,-89.23"/>
</g>
<!-- Node10 -->
<g id="node10" class="node">
<title>Node10</title>
<g id="a_node10"><a xlink:href="classprecice_1_1utils_1_1IntraComm.html#a2c2aa5e2fd6cc26797b7fdee0b0b25ac" target="_top" xlink:title="Current rank.">
<polygon fill="white" stroke="black" points="451.5,-49.5 451.5,-79.5 591.5,-79.5 591.5,-49.5 451.5,-49.5"/>
<text text-anchor="start" x="459.5" y="-67.5" font-family="Helvetica,sans-Serif" font-size="10.00">precice::utils::IntraComm</text>
<text text-anchor="middle" x="521.5" y="-56.5" font-family="Helvetica,sans-Serif" font-size="10.00">::getRank</text>
</a>
</g>
</g>
<!-- Node2&#45;&gt;Node10 -->
<g id="edge9" class="edge">
<title>Node2&#45;&gt;Node10</title>
<path fill="none" stroke="midnightblue" d="M389.09,-77.55C406.25,-75.85 424.1,-74.08 440.9,-72.41"/>
<polygon fill="midnightblue" stroke="midnightblue" points="441.61,-75.85 451.21,-71.38 440.92,-68.89 441.61,-75.85"/>
</g>
<!-- Node11 -->
<g id="node11" class="node">
<title>Node11</title>
<g id="a_node11"><a xlink:href="classprecice_1_1utils_1_1IntraComm.html#a288038e87868e4078aed49436aa20264" target="_top" xlink:title="Number of ranks. This includes ranks from both participants, e.g. minimal size is 2.">
<polygon fill="white" stroke="black" points="451.5,-0.5 451.5,-30.5 591.5,-30.5 591.5,-0.5 451.5,-0.5"/>
<text text-anchor="start" x="459.5" y="-18.5" font-family="Helvetica,sans-Serif" font-size="10.00">precice::utils::IntraComm</text>
<text text-anchor="middle" x="521.5" y="-7.5" font-family="Helvetica,sans-Serif" font-size="10.00">::getSize</text>
</a>
</g>
</g>
<!-- Node2&#45;&gt;Node11 -->
<g id="edge10" class="edge">
<title>Node2&#45;&gt;Node11</title>
<path fill="none" stroke="midnightblue" d="M361.23,-65.85C370.58,-62.52 380.08,-59.01 389,-55.5 405.29,-49.09 408.45,-45.21 425,-39.5 431.3,-37.33 437.89,-35.26 444.54,-33.32"/>
<polygon fill="midnightblue" stroke="midnightblue" points="445.63,-36.65 454.31,-30.56 443.73,-29.91 445.63,-36.65"/>
</g>
<!-- Node4 -->
<g id="node4" class="node">
<title>Node4</title>
<g id="a_node4"><a xlink:href="classprecice_1_1com_1_1Communication.html#a652a8cbe5447146b4b3b6200db5ddbeb" target="_top" xlink:title="Accepts connection from another communicator, which has to call requestConnection().">
<polygon fill="white" stroke="black" points="654,-305.5 654,-335.5 816,-335.5 816,-305.5 654,-305.5"/>
<text text-anchor="start" x="662" y="-323.5" font-family="Helvetica,sans-Serif" font-size="10.00">precice::com::Communication</text>
<text text-anchor="middle" x="735" y="-312.5" font-family="Helvetica,sans-Serif" font-size="10.00">::acceptConnection</text>
</a>
</g>
</g>
<!-- Node3&#45;&gt;Node4 -->
<g id="edge3" class="edge">
<title>Node3&#45;&gt;Node4</title>
<path fill="none" stroke="midnightblue" d="M530,-183.07C548.53,-206.06 598.98,-264.87 654,-296.5 657.05,-298.25 660.23,-299.89 663.51,-301.41"/>
<polygon fill="midnightblue" stroke="midnightblue" points="662.34,-304.72 672.91,-305.42 665.09,-298.28 662.34,-304.72"/>
</g>
<!-- Node5 -->
<g id="node5" class="node">
<title>Node5</title>
<g id="a_node5"><a xlink:href="classprecice_1_1com_1_1Communication.html#a08e2067629d6f0198918a21467d29762" target="_top" xlink:title="Clean&#45;up environment used to establish the communication.">
<polygon fill="white" stroke="black" points="654,-256.5 654,-286.5 816,-286.5 816,-256.5 654,-256.5"/>
<text text-anchor="start" x="662" y="-274.5" font-family="Helvetica,sans-Serif" font-size="10.00">precice::com::Communication</text>
<text text-anchor="middle" x="735" y="-263.5" font-family="Helvetica,sans-Serif" font-size="10.00">::cleanupEstablishment</text>
</a>
</g>
</g>
<!-- Node3&#45;&gt;Node5 -->
<g id="edge4" class="edge">
<title>Node3&#45;&gt;Node5</title>
<path fill="none" stroke="midnightblue" d="M536.94,-183.04C560.59,-198.34 609.4,-228.54 654,-247.5 658.64,-249.47 663.49,-251.35 668.41,-253.12"/>
<polygon fill="midnightblue" stroke="midnightblue" points="667.33,-256.45 677.92,-256.4 669.61,-249.83 667.33,-256.45"/>
</g>
<!-- Node6 -->
<g id="node6" class="node">
<title>Node6</title>
<g id="a_node6"><a xlink:href="classprecice_1_1com_1_1Communication.html#a444946d1a6c67c352fe96b56cdbf1fd2" target="_top" xlink:title="Returns true, if a connection to a remote participant has been setup.">
<polygon fill="white" stroke="black" points="654,-207.5 654,-237.5 816,-237.5 816,-207.5 654,-207.5"/>
<text text-anchor="start" x="662" y="-225.5" font-family="Helvetica,sans-Serif" font-size="10.00">precice::com::Communication</text>
<text text-anchor="middle" x="735" y="-214.5" font-family="Helvetica,sans-Serif" font-size="10.00">::isConnected</text>
</a>
</g>
</g>
<!-- Node3&#45;&gt;Node6 -->
<g id="edge5" class="edge">
<title>Node3&#45;&gt;Node6</title>
<path fill="none" stroke="midnightblue" d="M563.53,-183.01C590.64,-189.29 626.96,-197.7 659.12,-205.15"/>
<polygon fill="midnightblue" stroke="midnightblue" points="658.42,-208.58 668.95,-207.43 660,-201.76 658.42,-208.58"/>
</g>
<!-- Node7 -->
<g id="node7" class="node">
<title>Node7</title>
<g id="a_node7"><a xlink:href="classprecice_1_1com_1_1Communication.html#a39d443a319b10525a50bac6b03ddd600" target="_top" xlink:title="Prepare environment used to establish the communication.">
<polygon fill="white" stroke="black" points="654,-158.5 654,-188.5 816,-188.5 816,-158.5 654,-158.5"/>
<text text-anchor="start" x="662" y="-176.5" font-family="Helvetica,sans-Serif" font-size="10.00">precice::com::Communication</text>
<text text-anchor="middle" x="735" y="-165.5" font-family="Helvetica,sans-Serif" font-size="10.00">::prepareEstablishment</text>
</a>
</g>
</g>
<!-- Node3&#45;&gt;Node7 -->
<g id="edge6" class="edge">
<title>Node3&#45;&gt;Node7</title>
<path fill="none" stroke="midnightblue" d="M618.04,-173.5C626.52,-173.5 635.1,-173.5 643.53,-173.5"/>
<polygon fill="midnightblue" stroke="midnightblue" points="643.75,-177 653.75,-173.5 643.75,-170 643.75,-177"/>
</g>
<!-- Node8 -->
<g id="node8" class="node">
<title>Node8</title>
<g id="a_node8"><a xlink:href="classprecice_1_1com_1_1Communication.html#ab019bdb3f7ad242a84bdc70cf0236a87" target="_top" xlink:title="Connects to another communicator, which has to call acceptConnection().">
<polygon fill="white" stroke="black" points="654,-109.5 654,-139.5 816,-139.5 816,-109.5 654,-109.5"/>
<text text-anchor="start" x="662" y="-127.5" font-family="Helvetica,sans-Serif" font-size="10.00">precice::com::Communication</text>
<text text-anchor="middle" x="735" y="-116.5" font-family="Helvetica,sans-Serif" font-size="10.00">::requestConnection</text>
</a>
</g>
</g>
<!-- Node3&#45;&gt;Node8 -->
<g id="edge7" class="edge">
<title>Node3&#45;&gt;Node8</title>
<path fill="none" stroke="midnightblue" d="M563.53,-163.99C590.64,-157.71 626.96,-149.3 659.12,-141.85"/>
<polygon fill="midnightblue" stroke="midnightblue" points="660,-145.24 668.95,-139.57 658.42,-138.42 660,-145.24"/>
</g>
<!-- Node3&#45;&gt;Node9 -->
<g id="edge8" class="edge">
<title>Node3&#45;&gt;Node9</title>
<path fill="none" stroke="midnightblue" d="M541.4,-163.96C560.84,-154.02 591.88,-137.79 618,-122.5 634.39,-112.91 636.52,-106.91 654,-99.5 659.87,-97.01 666.12,-94.82 672.44,-92.89"/>
<polygon fill="midnightblue" stroke="midnightblue" points="673.73,-96.16 682.4,-90.06 671.82,-89.42 673.73,-96.16"/>
</g>
</g>
</svg>
        <g id="navigator" transform="translate(0 0)" fill="#404254">
                <rect fill="#f2f5e9" fill-opacity="0.5" stroke="#606060" stroke-width=".5" x="0" y="0" width="60" height="60"/>
                <use id="zoomplus" xlink:href="#zoomPlus" x="17" y="9" onmousedown="handleZoom(evt,'in')"/>
                <use id="zoomminus" xlink:href="#zoomMin" x="42" y="9" onmousedown="handleZoom(evt,'out')"/>
                <use id="reset" xlink:href="#resetDef" x="30" y="36" onmousedown="handleReset()"/>
                <g id="arrowUp" xlink:href="#dirArrow" transform="translate(30 24)" onmousedown="handlePan(0,-1)">
                  <use xlink:href="#rim" fill="#404040">
                        <set attributeName="fill" to="#808080" begin="arrowUp.mouseover" end="arrowUp.mouseout"/>
                  </use>
                  <path fill="none" stroke="white" stroke-width="1.5" d="M0,-3.0v7 M-2.5,-0.5L0,-3.0L2.5,-0.5"/>
                </g>
                <g id="arrowRight" xlink:href="#dirArrow" transform="rotate(90) translate(36 -43)" onmousedown="handlePan(1,0)">
                  <use xlink:href="#rim" fill="#404040">
                        <set attributeName="fill" to="#808080" begin="arrowRight.mouseover" end="arrowRight.mouseout"/>
                  </use>
                  <path fill="none" stroke="white" stroke-width="1.5" d="M0,-3.0v7 M-2.5,-0.5L0,-3.0L2.5,-0.5"/>
                </g>
                <g id="arrowDown" xlink:href="#dirArrow" transform="rotate(180) translate(-30 -48)" onmousedown="handlePan(0,1)">
                  <use xlink:href="#rim" fill="#404040">
                        <set attributeName="fill" to="#808080" begin="arrowDown.mouseover" end="arrowDown.mouseout"/>
                  </use>
                  <path fill="none" stroke="white" stroke-width="1.5" d="M0,-3.0v7 M-2.5,-0.5L0,-3.0L2.5,-0.5"/>
                </g>
                <g id="arrowLeft" xlink:href="#dirArrow" transform="rotate(270) translate(-36 17)" onmousedown="handlePan(-1,0)">
                  <use xlink:href="#rim" fill="#404040">
                        <set attributeName="fill" to="#808080" begin="arrowLeft.mouseover" end="arrowLeft.mouseout"/>
                  </use>
                  <path fill="none" stroke="white" stroke-width="1.5" d="M0,-3.0v7 M-2.5,-0.5L0,-3.0L2.5,-0.5"/>
                </g>
        </g>
        <svg viewBox="0 0 15 15" width="100%" height="30px" preserveAspectRatio="xMaxYMin meet">
         <g id="arrow_out" transform="scale(0.3 0.3)">
          <a xlink:href="classprecice_1_1acceleration_1_1impl_1_1ParallelMatrixOperations_a17fdad66e9fa72c5fb40d0d3308e84a5_cgraph_org.svg" target="_base">
           <rect id="button" ry="5" rx="5" y="6" x="6" height="38" width="38"
                fill="#f2f5e9" fill-opacity="0.5" stroke="#606060" stroke-width="1.0"/>
           <path id="arrow"
             d="M 11.500037,31.436501 C 11.940474,20.09759 22.043105,11.32322 32.158766,21.979434 L 37.068811,17.246167 C 37.068811,17.246167 37.088388,32 37.088388,32 L 22.160133,31.978069 C 22.160133,31.978069 26.997745,27.140456 26.997745,27.140456 C 18.528582,18.264221 13.291696,25.230495 11.500037,31.436501 z"
             style="fill:#404040;"/>
          </a>
         </g>
        </svg>
</svg>
