<?xml version="1.0" encoding="UTF-8" standalone="no"?>
<!DOCTYPE svg PUBLIC "-//W3C//DTD SVG 1.1//EN"
 "http://www.w3.org/Graphics/SVG/1.1/DTD/svg11.dtd">
<!-- Generated by graphviz version 2.43.0 (0)
 -->
<!-- Title: precice::io::ExportConfiguration::xmlTagCallback Pages: 1 -->
<svg width="362pt" height="235pt"
 viewBox="0.00 0.00 362.00 235.00" xmlns="http://www.w3.org/2000/svg" xmlns:xlink="http://www.w3.org/1999/xlink">
<g id="graph0" class="graph" transform="scale(1 1) rotate(0) translate(4 231)">
<title>precice::io::ExportConfiguration::xmlTagCallback</title>
<polygon fill="white" stroke="transparent" points="-4,4 -4,-231 358,-231 358,4 -4,4"/>
<!-- Node1 -->
<g id="node1" class="node">
<title>Node1</title>
<g id="a_node1"><a xlink:title="Callback at begin of XML tag.">
<polygon fill="#bfbfbf" stroke="black" points="0,-98.5 0,-128.5 170,-128.5 170,-98.5 0,-98.5"/>
<text text-anchor="start" x="8" y="-116.5" font-family="Helvetica,sans-Serif" font-size="10.00">precice::io::ExportConfiguration</text>
<text text-anchor="middle" x="85" y="-105.5" font-family="Helvetica,sans-Serif" font-size="10.00">::xmlTagCallback</text>
</a>
</g>
</g>
<!-- Node2 -->
<g id="node2" class="node">
<title>Node2</title>
<g id="a_node2"><a xlink:href="classprecice_1_1xml_1_1XMLTag.html#a359e6589dbb57960f102b03dbe869efe" target="_top" xlink:title=" ">
<polygon fill="white" stroke="black" points="206,-196.5 206,-226.5 354,-226.5 354,-196.5 206,-196.5"/>
<text text-anchor="start" x="214" y="-214.5" font-family="Helvetica,sans-Serif" font-size="10.00">precice::xml::XMLTag</text>
<text text-anchor="middle" x="280" y="-203.5" font-family="Helvetica,sans-Serif" font-size="10.00">::getBooleanAttributeValue</text>
</a>
</g>
</g>
<!-- Node1&#45;&gt;Node2 -->
<g id="edge1" class="edge">
<title>Node1&#45;&gt;Node2</title>
<path fill="none" stroke="midnightblue" d="M107.25,-128.75C130.59,-144.97 169.6,-170.58 206,-187.5 210.06,-189.39 214.3,-191.19 218.62,-192.9"/>
<polygon fill="midnightblue" stroke="midnightblue" points="217.54,-196.23 228.14,-196.49 220.02,-189.69 217.54,-196.23"/>
</g>
<!-- Node3 -->
<g id="node3" class="node">
<title>Node3</title>
<g id="a_node3"><a xlink:href="classprecice_1_1xml_1_1XMLTag.html#ac74a7af0b26a7d519756ccbd9575f7e4" target="_top" xlink:title=" ">
<polygon fill="white" stroke="black" points="219.5,-147.5 219.5,-177.5 340.5,-177.5 340.5,-147.5 219.5,-147.5"/>
<text text-anchor="start" x="227.5" y="-165.5" font-family="Helvetica,sans-Serif" font-size="10.00">precice::xml::XMLTag</text>
<text text-anchor="middle" x="280" y="-154.5" font-family="Helvetica,sans-Serif" font-size="10.00">::getIntAttributeValue</text>
</a>
</g>
</g>
<!-- Node1&#45;&gt;Node3 -->
<g id="edge2" class="edge">
<title>Node1&#45;&gt;Node3</title>
<path fill="none" stroke="midnightblue" d="M145.22,-128.53C165.69,-133.73 188.8,-139.6 209.99,-144.98"/>
<polygon fill="midnightblue" stroke="midnightblue" points="209.34,-148.43 219.89,-147.49 211.06,-141.64 209.34,-148.43"/>
</g>
<!-- Node4 -->
<g id="node4" class="node">
<title>Node4</title>
<g id="a_node4"><a xlink:href="classprecice_1_1xml_1_1XMLTag.html#a0ef9cef092179e6b86eaf5144fa5c088" target="_top" xlink:title="Returns name (without namespace).">
<polygon fill="white" stroke="black" points="220.5,-98.5 220.5,-128.5 339.5,-128.5 339.5,-98.5 220.5,-98.5"/>
<text text-anchor="start" x="228.5" y="-116.5" font-family="Helvetica,sans-Serif" font-size="10.00">precice::xml::XMLTag</text>
<text text-anchor="middle" x="280" y="-105.5" font-family="Helvetica,sans-Serif" font-size="10.00">::getName</text>
</a>
</g>
</g>
<!-- Node1&#45;&gt;Node4 -->
<g id="edge3" class="edge">
<title>Node1&#45;&gt;Node4</title>
<path fill="none" stroke="midnightblue" d="M170.09,-113.5C183.48,-113.5 197.19,-113.5 210.17,-113.5"/>
<polygon fill="midnightblue" stroke="midnightblue" points="210.4,-117 220.4,-113.5 210.4,-110 210.4,-117"/>
</g>
<!-- Node5 -->
<g id="node5" class="node">
<title>Node5</title>
<g id="a_node5"><a xlink:href="classprecice_1_1xml_1_1XMLTag.html#a173bb75f95737c998b9f193847a28ba7" target="_top" xlink:title="Returns xml namespace.">
<polygon fill="white" stroke="black" points="220.5,-49.5 220.5,-79.5 339.5,-79.5 339.5,-49.5 220.5,-49.5"/>
<text text-anchor="start" x="228.5" y="-67.5" font-family="Helvetica,sans-Serif" font-size="10.00">precice::xml::XMLTag</text>
<text text-anchor="middle" x="280" y="-56.5" font-family="Helvetica,sans-Serif" font-size="10.00">::getNamespace</text>
</a>
</g>
</g>
<!-- Node1&#45;&gt;Node5 -->
<g id="edge4" class="edge">
<title>Node1&#45;&gt;Node5</title>
<path fill="none" stroke="midnightblue" d="M145.22,-98.47C165.78,-93.24 189.02,-87.34 210.29,-81.94"/>
<polygon fill="midnightblue" stroke="midnightblue" points="211.39,-85.28 220.23,-79.42 209.67,-78.49 211.39,-85.28"/>
</g>
<!-- Node6 -->
<g id="node6" class="node">
<title>Node6</title>
<g id="a_node6"><a xlink:href="classprecice_1_1xml_1_1XMLTag.html#a31c349d79529108e575f36271e5ffb83" target="_top" xlink:title=" ">
<polygon fill="white" stroke="black" points="211.5,-0.5 211.5,-30.5 348.5,-30.5 348.5,-0.5 211.5,-0.5"/>
<text text-anchor="start" x="219.5" y="-18.5" font-family="Helvetica,sans-Serif" font-size="10.00">precice::xml::XMLTag</text>
<text text-anchor="middle" x="280" y="-7.5" font-family="Helvetica,sans-Serif" font-size="10.00">::getStringAttributeValue</text>
</a>
</g>
</g>
<!-- Node1&#45;&gt;Node6 -->
<g id="edge5" class="edge">
<title>Node1&#45;&gt;Node6</title>
<path fill="none" stroke="midnightblue" d="M107.75,-98.28C131.2,-82.35 170.01,-57.37 206,-40.5 210.66,-38.32 215.56,-36.23 220.53,-34.25"/>
<polygon fill="midnightblue" stroke="midnightblue" points="222.02,-37.43 230.12,-30.6 219.53,-30.89 222.02,-37.43"/>
</g>
</g>
</svg>
