<?xml version="1.0" encoding="UTF-8" standalone="no"?>
<!DOCTYPE svg PUBLIC "-//W3C//DTD SVG 1.1//EN"
 "http://www.w3.org/Graphics/SVG/1.1/DTD/svg11.dtd">
<!-- Generated by graphviz version 2.43.0 (0)
 -->
<!-- Title: precice::acceleration::MVQNAcceleration::removeMatrixColumn Pages: 1 -->
<svg width="558pt" height="74pt"
 viewBox="0.00 0.00 558.00 74.00" xmlns="http://www.w3.org/2000/svg" xmlns:xlink="http://www.w3.org/1999/xlink">
<g id="graph0" class="graph" transform="scale(1 1) rotate(0) translate(4 70)">
<title>precice::acceleration::MVQNAcceleration::removeMatrixColumn</title>
<polygon fill="white" stroke="transparent" points="-4,4 -4,-70 554,-70 554,4 -4,4"/>
<!-- Node1 -->
<g id="node1" class="node">
<title>Node1</title>
<g id="a_node1"><a xlink:title=": Removes one iteration from V,W matrices and adapts _matrixCols.">
<polygon fill="#bfbfbf" stroke="black" points="0,-24.5 0,-65.5 189,-65.5 189,-24.5 0,-24.5"/>
<text text-anchor="start" x="8" y="-53.5" font-family="Helvetica,sans-Serif" font-size="10.00">precice::acceleration</text>
<text text-anchor="start" x="8" y="-42.5" font-family="Helvetica,sans-Serif" font-size="10.00">::MVQNAcceleration::removeMatrix</text>
<text text-anchor="middle" x="94.5" y="-31.5" font-family="Helvetica,sans-Serif" font-size="10.00">Column</text>
</a>
</g>
</g>
<!-- Node2 -->
<g id="node2" class="node">
<title>Node2</title>
<g id="a_node2"><a xlink:href="namespaceprecice_1_1utils.html#a0b9acdd5db07c6b42d9e999e112db8b8" target="_top" xlink:title=" ">
<polygon fill="white" stroke="black" points="390,-30 390,-60 550,-60 550,-30 390,-30"/>
<text text-anchor="start" x="398" y="-48" font-family="Helvetica,sans-Serif" font-size="10.00">precice::utils::removeColumn</text>
<text text-anchor="middle" x="470" y="-37" font-family="Helvetica,sans-Serif" font-size="10.00">FromMatrix</text>
</a>
</g>
</g>
<!-- Node1&#45;&gt;Node2 -->
<g id="edge1" class="edge">
<title>Node1&#45;&gt;Node2</title>
<path fill="none" stroke="midnightblue" d="M189.2,-49.86C201.25,-50.33 213.41,-50.73 225,-51 282.32,-52.33 296.69,-52.49 354,-51 362.33,-50.78 371,-50.48 379.67,-50.12"/>
<polygon fill="midnightblue" stroke="midnightblue" points="380,-53.61 389.84,-49.67 379.69,-46.61 380,-53.61"/>
</g>
<!-- Node3 -->
<g id="node3" class="node">
<title>Node3</title>
<g id="a_node3"><a xlink:href="classprecice_1_1acceleration_1_1BaseQNAcceleration.html#a9aa3dd1560886ab6b15e317396cdc814" target="_top" xlink:title="Removes one iteration from V,W matrices and adapts _matrixCols.">
<polygon fill="white" stroke="black" points="225,-0.5 225,-41.5 354,-41.5 354,-0.5 225,-0.5"/>
<text text-anchor="start" x="233" y="-29.5" font-family="Helvetica,sans-Serif" font-size="10.00">precice::acceleration</text>
<text text-anchor="start" x="233" y="-18.5" font-family="Helvetica,sans-Serif" font-size="10.00">::BaseQNAcceleration</text>
<text text-anchor="middle" x="289.5" y="-7.5" font-family="Helvetica,sans-Serif" font-size="10.00">::removeMatrixColumn</text>
</a>
</g>
</g>
<!-- Node1&#45;&gt;Node3 -->
<g id="edge2" class="edge">
<title>Node1&#45;&gt;Node3</title>
<path fill="none" stroke="midnightblue" d="M189.17,-33.35C197.78,-32.28 206.41,-31.21 214.8,-30.16"/>
<polygon fill="midnightblue" stroke="midnightblue" points="215.4,-33.62 224.89,-28.91 214.54,-26.67 215.4,-33.62"/>
</g>
<!-- Node3&#45;&gt;Node2 -->
<g id="edge3" class="edge">
<title>Node3&#45;&gt;Node2</title>
<path fill="none" stroke="midnightblue" d="M354.19,-29.56C362.46,-30.68 371.06,-31.83 379.66,-32.99"/>
<polygon fill="midnightblue" stroke="midnightblue" points="379.35,-36.48 389.73,-34.34 380.28,-29.54 379.35,-36.48"/>
</g>
</g>
</svg>
