<?xml version="1.0" encoding="UTF-8" standalone="no"?>
<!DOCTYPE svg PUBLIC "-//W3C//DTD SVG 1.1//EN"
 "http://www.w3.org/Graphics/SVG/1.1/DTD/svg11.dtd">
<!-- Generated by graphviz version 2.43.0 (0)
 -->
<!-- Title: precice::impl::SolverInterfaceImpl::writeBlockScalarGradientData Pages: 1 -->
<!--zoomable 274 -->
<svg id="main" version="1.1" xmlns="http://www.w3.org/2000/svg" xmlns:xlink="http://www.w3.org/1999/xlink" xml:space="preserve" onload="init(evt)">
<style type="text/css"><![CDATA[
.edge:hover path { stroke: red; }
.edge:hover polygon { stroke: red; fill: red; }
]]></style>
<script type="text/javascript"><![CDATA[
var edges = document.getElementsByTagName('g');
if (edges && edges.length) {
  for (var i=0;i<edges.length;i++) {
    if (edges[i].id.substr(0,4)=='edge') {
      edges[i].setAttribute('class','edge');
    }
  }
}
]]></script>
        <defs>
                <circle id="rim" cx="0" cy="0" r="7"/>
                <circle id="rim2" cx="0" cy="0" r="3.5"/>
                <g id="zoomPlus">
                        <use xlink:href="#rim" fill="#404040">
                                <set attributeName="fill" to="#808080" begin="zoomplus.mouseover" end="zoomplus.mouseout"/>
                        </use>
                        <path d="M-4,0h8M0,-4v8" fill="none" stroke="white" stroke-width="1.5" pointer-events="none"/>
                </g>
                <g id="zoomMin">
                        <use xlink:href="#rim" fill="#404040">
                                <set attributeName="fill" to="#808080" begin="zoomminus.mouseover" end="zoomminus.mouseout"/>
                        </use>
                        <path d="M-4,0h8" fill="none" stroke="white" stroke-width="1.5" pointer-events="none"/>
                </g>
                <g id="dirArrow">
                        <path fill="none" stroke="white" stroke-width="1.5" d="M0,-3.0v7 M-2.5,-0.5L0,-3.0L2.5,-0.5"/>
                </g>
               <g id="resetDef">
                       <use xlink:href="#rim2" fill="#404040">
                               <set attributeName="fill" to="#808080" begin="reset.mouseover" end="reset.mouseout"/>
                       </use>
               </g>
        </defs>

<script type="text/javascript">
var viewWidth = 567;
var viewHeight = 274;
var sectionId = 'dynsection-45';
</script>
<script xlink:href="svgpan.js"/>
<svg id="graph" class="graph">
<g id="viewport">
<title>precice::impl::SolverInterfaceImpl::writeBlockScalarGradientData</title>
<polygon fill="white" stroke="transparent" points="-4,4 -4,-270 563,-270 563,4 -4,4"/>
<!-- Node1 -->
<g id="node1" class="node">
<title>Node1</title>
<g id="a_node1"><a xlink:title="Writes scalar gradient data given as block.">
<polygon fill="#bfbfbf" stroke="black" points="0,-112.5 0,-142.5 191,-142.5 191,-112.5 0,-112.5"/>
<text text-anchor="start" x="8" y="-130.5" font-family="Helvetica,sans-Serif" font-size="10.00">precice::impl::SolverInterface</text>
<text text-anchor="middle" x="95.5" y="-119.5" font-family="Helvetica,sans-Serif" font-size="10.00">Impl::writeBlockScalarGradientData</text>
</a>
</g>
</g>
<!-- Node2 -->
<g id="node2" class="node">
<title>Node2</title>
<g id="a_node2"><a xlink:href="namespaceTCB__SPAN__NAMESPACE__NAME_1_1detail.html#ada90c89c458a0d53c483e767de7b7701" target="_top" xlink:title=" ">
<polygon fill="white" stroke="black" points="242,-235.5 242,-265.5 373,-265.5 373,-235.5 242,-235.5"/>
<text text-anchor="start" x="250" y="-253.5" font-family="Helvetica,sans-Serif" font-size="10.00">TCB_SPAN_NAMESPACE</text>
<text text-anchor="middle" x="307.5" y="-242.5" font-family="Helvetica,sans-Serif" font-size="10.00">_NAME::detail::data</text>
</a>
</g>
</g>
<!-- Node1&#45;&gt;Node2 -->
<g id="edge1" class="edge">
<title>Node1&#45;&gt;Node2</title>
<path fill="none" stroke="midnightblue" d="M112.51,-142.71C135.91,-164.2 181.64,-203.4 227,-226.5 230.69,-228.38 234.54,-230.13 238.49,-231.78"/>
<polygon fill="midnightblue" stroke="midnightblue" points="237.22,-235.04 247.81,-235.4 239.76,-228.51 237.22,-235.04"/>
</g>
<!-- Node3 -->
<g id="node3" class="node">
<title>Node3</title>
<g id="a_node3"><a xlink:href="classprecice_1_1impl_1_1DataContext.html#a37be0af0390aa2d429ecb3883bdba30c" target="_top" xlink:title="Get the dimensions of _providedData.">
<polygon fill="white" stroke="black" points="234,-186.5 234,-216.5 381,-216.5 381,-186.5 234,-186.5"/>
<text text-anchor="start" x="242" y="-204.5" font-family="Helvetica,sans-Serif" font-size="10.00">precice::impl::DataContext</text>
<text text-anchor="middle" x="307.5" y="-193.5" font-family="Helvetica,sans-Serif" font-size="10.00">::getDataDimensions</text>
</a>
</g>
</g>
<!-- Node1&#45;&gt;Node3 -->
<g id="edge2" class="edge">
<title>Node1&#45;&gt;Node3</title>
<path fill="none" stroke="midnightblue" d="M133.64,-142.56C159.62,-152.88 195.2,-166.63 227,-177.5 232.82,-179.49 238.91,-181.48 245.01,-183.42"/>
<polygon fill="midnightblue" stroke="midnightblue" points="243.99,-186.77 254.58,-186.42 246.08,-180.09 243.99,-186.77"/>
</g>
<!-- Node4 -->
<g id="node4" class="node">
<title>Node4</title>
<g id="a_node4"><a xlink:href="classprecice_1_1impl_1_1DataContext.html#a83f060a7c5fc9427870f99ba210c822e" target="_top" xlink:title="Get the Name of _providedData.">
<polygon fill="white" stroke="black" points="234,-137.5 234,-167.5 381,-167.5 381,-137.5 234,-137.5"/>
<text text-anchor="start" x="242" y="-155.5" font-family="Helvetica,sans-Serif" font-size="10.00">precice::impl::DataContext</text>
<text text-anchor="middle" x="307.5" y="-144.5" font-family="Helvetica,sans-Serif" font-size="10.00">::getDataName</text>
</a>
</g>
</g>
<!-- Node1&#45;&gt;Node4 -->
<g id="edge3" class="edge">
<title>Node1&#45;&gt;Node4</title>
<path fill="none" stroke="midnightblue" d="M191.06,-138.76C201.95,-140.05 212.99,-141.37 223.71,-142.64"/>
<polygon fill="midnightblue" stroke="midnightblue" points="223.52,-146.15 233.87,-143.85 224.35,-139.2 223.52,-146.15"/>
</g>
<!-- Node5 -->
<g id="node5" class="node">
<title>Node5</title>
<g id="a_node5"><a xlink:href="classprecice_1_1impl_1_1SolverInterfaceImpl.html#afc38a48db7b24701d093ad8a007faa43" target="_top" xlink:title="Checks if the given data set requires gradient data. We check if the data object has been initialized...">
<polygon fill="white" stroke="black" points="227,-88.5 227,-118.5 388,-118.5 388,-88.5 227,-88.5"/>
<text text-anchor="start" x="235" y="-106.5" font-family="Helvetica,sans-Serif" font-size="10.00">precice::impl::SolverInterface</text>
<text text-anchor="middle" x="307.5" y="-95.5" font-family="Helvetica,sans-Serif" font-size="10.00">Impl::isGradientDataRequired</text>
</a>
</g>
</g>
<!-- Node1&#45;&gt;Node5 -->
<g id="edge4" class="edge">
<title>Node1&#45;&gt;Node5</title>
<path fill="none" stroke="midnightblue" d="M191.06,-116.69C199.66,-115.71 208.37,-114.72 216.93,-113.74"/>
<polygon fill="midnightblue" stroke="midnightblue" points="217.36,-117.21 226.9,-112.6 216.57,-110.26 217.36,-117.21"/>
</g>
<!-- Node6 -->
<g id="node6" class="node">
<title>Node6</title>
<g id="a_node6"><a xlink:href="classprecice_1_1impl_1_1WriteDataContext.html#aa5e818a5abe696c8d36180817266f32f" target="_top" xlink:title="Get _providedData member.">
<polygon fill="white" stroke="black" points="424,-66.5 424,-96.5 559,-96.5 559,-66.5 424,-66.5"/>
<text text-anchor="start" x="432" y="-84.5" font-family="Helvetica,sans-Serif" font-size="10.00">precice::impl::WriteData</text>
<text text-anchor="middle" x="491.5" y="-73.5" font-family="Helvetica,sans-Serif" font-size="10.00">Context::providedData</text>
</a>
</g>
</g>
<!-- Node1&#45;&gt;Node6 -->
<g id="edge6" class="edge">
<title>Node1&#45;&gt;Node6</title>
<path fill="none" stroke="midnightblue" d="M127.8,-112.42C153.7,-100.83 191.83,-85.76 227,-79.5 289.2,-68.42 360.97,-69.88 413.89,-73.57"/>
<polygon fill="midnightblue" stroke="midnightblue" points="413.65,-77.06 423.88,-74.31 414.16,-70.08 413.65,-77.06"/>
</g>
<!-- Node7 -->
<g id="node7" class="node">
<title>Node7</title>
<g id="a_node7"><a xlink:href="namespaceTCB__SPAN__NAMESPACE__NAME_1_1detail.html#a876af6f91231ae4e7e7316f5402682dc" target="_top" xlink:title=" ">
<polygon fill="white" stroke="black" points="242,-0.5 242,-30.5 373,-30.5 373,-0.5 242,-0.5"/>
<text text-anchor="start" x="250" y="-18.5" font-family="Helvetica,sans-Serif" font-size="10.00">TCB_SPAN_NAMESPACE</text>
<text text-anchor="middle" x="307.5" y="-7.5" font-family="Helvetica,sans-Serif" font-size="10.00">_NAME::detail::size</text>
</a>
</g>
</g>
<!-- Node1&#45;&gt;Node7 -->
<g id="edge7" class="edge">
<title>Node1&#45;&gt;Node7</title>
<path fill="none" stroke="midnightblue" d="M117.44,-112.49C142.6,-94.91 186.5,-65.61 227,-45.5 234.97,-41.54 243.59,-37.79 252.12,-34.35"/>
<polygon fill="midnightblue" stroke="midnightblue" points="253.63,-37.52 261.68,-30.62 251.09,-31 253.63,-37.52"/>
</g>
<!-- Node5&#45;&gt;Node6 -->
<g id="edge5" class="edge">
<title>Node5&#45;&gt;Node6</title>
<path fill="none" stroke="midnightblue" d="M388.06,-93.88C396.66,-92.84 405.39,-91.79 413.95,-90.75"/>
<polygon fill="midnightblue" stroke="midnightblue" points="414.38,-94.23 423.89,-89.55 413.54,-87.28 414.38,-94.23"/>
</g>
</g>
</svg>
        <g id="navigator" transform="translate(0 0)" fill="#404254">
                <rect fill="#f2f5e9" fill-opacity="0.5" stroke="#606060" stroke-width=".5" x="0" y="0" width="60" height="60"/>
                <use id="zoomplus" xlink:href="#zoomPlus" x="17" y="9" onmousedown="handleZoom(evt,'in')"/>
                <use id="zoomminus" xlink:href="#zoomMin" x="42" y="9" onmousedown="handleZoom(evt,'out')"/>
                <use id="reset" xlink:href="#resetDef" x="30" y="36" onmousedown="handleReset()"/>
                <g id="arrowUp" xlink:href="#dirArrow" transform="translate(30 24)" onmousedown="handlePan(0,-1)">
                  <use xlink:href="#rim" fill="#404040">
                        <set attributeName="fill" to="#808080" begin="arrowUp.mouseover" end="arrowUp.mouseout"/>
                  </use>
                  <path fill="none" stroke="white" stroke-width="1.5" d="M0,-3.0v7 M-2.5,-0.5L0,-3.0L2.5,-0.5"/>
                </g>
                <g id="arrowRight" xlink:href="#dirArrow" transform="rotate(90) translate(36 -43)" onmousedown="handlePan(1,0)">
                  <use xlink:href="#rim" fill="#404040">
                        <set attributeName="fill" to="#808080" begin="arrowRight.mouseover" end="arrowRight.mouseout"/>
                  </use>
                  <path fill="none" stroke="white" stroke-width="1.5" d="M0,-3.0v7 M-2.5,-0.5L0,-3.0L2.5,-0.5"/>
                </g>
                <g id="arrowDown" xlink:href="#dirArrow" transform="rotate(180) translate(-30 -48)" onmousedown="handlePan(0,1)">
                  <use xlink:href="#rim" fill="#404040">
                        <set attributeName="fill" to="#808080" begin="arrowDown.mouseover" end="arrowDown.mouseout"/>
                  </use>
                  <path fill="none" stroke="white" stroke-width="1.5" d="M0,-3.0v7 M-2.5,-0.5L0,-3.0L2.5,-0.5"/>
                </g>
                <g id="arrowLeft" xlink:href="#dirArrow" transform="rotate(270) translate(-36 17)" onmousedown="handlePan(-1,0)">
                  <use xlink:href="#rim" fill="#404040">
                        <set attributeName="fill" to="#808080" begin="arrowLeft.mouseover" end="arrowLeft.mouseout"/>
                  </use>
                  <path fill="none" stroke="white" stroke-width="1.5" d="M0,-3.0v7 M-2.5,-0.5L0,-3.0L2.5,-0.5"/>
                </g>
        </g>
        <svg viewBox="0 0 15 15" width="100%" height="30px" preserveAspectRatio="xMaxYMin meet">
         <g id="arrow_out" transform="scale(0.3 0.3)">
          <a xlink:href="classprecice_1_1impl_1_1SolverInterfaceImpl_aecc43fdcab11a8c6728443948d833c04_cgraph_org.svg" target="_base">
           <rect id="button" ry="5" rx="5" y="6" x="6" height="38" width="38"
                fill="#f2f5e9" fill-opacity="0.5" stroke="#606060" stroke-width="1.0"/>
           <path id="arrow"
             d="M 11.500037,31.436501 C 11.940474,20.09759 22.043105,11.32322 32.158766,21.979434 L 37.068811,17.246167 C 37.068811,17.246167 37.088388,32 37.088388,32 L 22.160133,31.978069 C 22.160133,31.978069 26.997745,27.140456 26.997745,27.140456 C 18.528582,18.264221 13.291696,25.230495 11.500037,31.436501 z"
             style="fill:#404040;"/>
          </a>
         </g>
        </svg>
</svg>
