<?xml version="1.0" encoding="UTF-8" standalone="no"?>
<!DOCTYPE svg PUBLIC "-//W3C//DTD SVG 1.1//EN"
 "http://www.w3.org/Graphics/SVG/1.1/DTD/svg11.dtd">
<!-- Generated by graphviz version 2.43.0 (0)
 -->
<!-- Title: precice::mapping::RadialBasisFctBaseMapping::tagMeshSecondRound Pages: 1 -->
<svg width="736pt" height="270pt"
 viewBox="0.00 0.00 736.00 270.00" xmlns="http://www.w3.org/2000/svg" xmlns:xlink="http://www.w3.org/1999/xlink">
<g id="graph0" class="graph" transform="scale(1 1) rotate(0) translate(4 266)">
<title>precice::mapping::RadialBasisFctBaseMapping::tagMeshSecondRound</title>
<!-- Node1 -->
<g id="Node000001" class="node">
<title>Node1</title>
<g id="a_Node000001"><a xlink:title="Method used by partition. Tags vertices that can be filtered out.">
<polygon fill="#999999" stroke="#666666" points="172,-131.5 0,-131.5 0,-90.5 172,-90.5 172,-131.5"/>
<text text-anchor="start" x="8" y="-119.5" font-family="Helvetica,sans-Serif" font-size="10.00">precice::mapping::Radial</text>
<text text-anchor="start" x="8" y="-108.5" font-family="Helvetica,sans-Serif" font-size="10.00">BasisFctBaseMapping::tagMesh</text>
<text text-anchor="middle" x="86" y="-97.5" font-family="Helvetica,sans-Serif" font-size="10.00">SecondRound</text>
</a>
</g>
</g>
<!-- Node1&#45;&gt;Node1 -->
<g id="edge11_Node000001_Node000001" class="edge">
<title>Node1&#45;&gt;Node1</title>
<g id="a_edge11_Node000001_Node000001"><a xlink:title=" ">
<path fill="none" stroke="#63b8ff" d="M49.61,-131.6C45.64,-141.15 57.77,-149.5 86,-149.5 103.64,-149.5 115,-146.24 120.06,-141.46"/>
<polygon fill="#63b8ff" stroke="#63b8ff" points="123.5,-142.13 122.39,-131.6 116.69,-140.53 123.5,-142.13"/>
</a>
</g>
</g>
<!-- Node2 -->
<g id="Node000002" class="node">
<title>Node2</title>
<g id="a_Node000002"><a xlink:href="classprecice_1_1mesh_1_1BoundingBox.html#a7aeb328ca8291253c4fd22d0d4cb0a18" target="_top" xlink:title="Expand bounding box using another bounding box.">
<polygon fill="white" stroke="#666666" points="363,-212 208,-212 208,-182 363,-182 363,-212"/>
<text text-anchor="start" x="216" y="-200" font-family="Helvetica,sans-Serif" font-size="10.00">precice::mesh::BoundingBox</text>
<text text-anchor="middle" x="285.5" y="-189" font-family="Helvetica,sans-Serif" font-size="10.00">::expandBy</text>
</a>
</g>
</g>
<!-- Node1&#45;&gt;Node2 -->
<g id="edge1_Node000001_Node000002" class="edge">
<title>Node1&#45;&gt;Node2</title>
<g id="a_edge1_Node000001_Node000002"><a xlink:title=" ">
<path fill="none" stroke="#63b8ff" d="M123.04,-131.51C146.71,-144.46 178.62,-160.97 208,-173 212.71,-174.93 217.63,-176.8 222.62,-178.58"/>
<polygon fill="#63b8ff" stroke="#63b8ff" points="221.63,-181.94 232.23,-181.9 223.92,-175.33 221.63,-181.94"/>
</a>
</g>
</g>
<!-- Node7 -->
<g id="Node000007" class="node">
<title>Node7</title>
<g id="a_Node000007"><a target="_parent" xlink:href="http://en.cppreference.com/w/cpp/algorithm/for_each.html#" xlink:title=" ">
<polygon fill="white" stroke="#666666" points="325.5,-163.5 245.5,-163.5 245.5,-144.5 325.5,-144.5 325.5,-163.5"/>
<text text-anchor="middle" x="285.5" y="-151.5" font-family="Helvetica,sans-Serif" font-size="10.00">std::for_each</text>
</a>
</g>
</g>
<!-- Node1&#45;&gt;Node7 -->
<g id="edge6_Node000001_Node000007" class="edge">
<title>Node1&#45;&gt;Node7</title>
<g id="a_edge6_Node000001_Node000007"><a xlink:title=" ">
<path fill="none" stroke="#63b8ff" d="M172.19,-129.55C193.78,-134.25 216.26,-139.14 235.38,-143.31"/>
<polygon fill="#63b8ff" stroke="#63b8ff" points="234.82,-146.77 245.34,-145.47 236.31,-139.93 234.82,-146.77"/>
</a>
</g>
</g>
<!-- Node8 -->
<g id="Node000008" class="node">
<title>Node8</title>
<g id="a_Node000008"><a xlink:href="classprecice_1_1mapping_1_1Mapping.html#aeea2d39f5e6ce0eaa97ebe436ff89991" target="_top" xlink:title="Checks whether the mapping has the given constraint or not.">
<polygon fill="white" stroke="#666666" points="360,-126 211,-126 211,-96 360,-96 360,-126"/>
<text text-anchor="start" x="219" y="-114" font-family="Helvetica,sans-Serif" font-size="10.00">precice::mapping::Mapping</text>
<text text-anchor="middle" x="285.5" y="-103" font-family="Helvetica,sans-Serif" font-size="10.00">::hasConstraint</text>
</a>
</g>
</g>
<!-- Node1&#45;&gt;Node8 -->
<g id="edge7_Node000001_Node000008" class="edge">
<title>Node1&#45;&gt;Node8</title>
<g id="a_edge7_Node000001_Node000008"><a xlink:title=" ">
<path fill="none" stroke="#63b8ff" d="M172.19,-111C181.62,-111 191.22,-111 200.63,-111"/>
<polygon fill="#63b8ff" stroke="#63b8ff" points="200.76,-114.5 210.76,-111 200.76,-107.5 200.76,-114.5"/>
</a>
</g>
</g>
<!-- Node10 -->
<g id="Node000010" class="node">
<title>Node10</title>
<g id="a_Node000010"><a xlink:href="classprecice_1_1mapping_1_1Mapping.html#a61c3c55af467ada2bdd735efa0f960e4" target="_top" xlink:title="Returns pointer to input mesh.">
<polygon fill="white" stroke="#666666" points="360,-78 211,-78 211,-48 360,-48 360,-78"/>
<text text-anchor="start" x="219" y="-66" font-family="Helvetica,sans-Serif" font-size="10.00">precice::mapping::Mapping</text>
<text text-anchor="middle" x="285.5" y="-55" font-family="Helvetica,sans-Serif" font-size="10.00">::input</text>
</a>
</g>
</g>
<!-- Node1&#45;&gt;Node10 -->
<g id="edge9_Node000001_Node000010" class="edge">
<title>Node1&#45;&gt;Node10</title>
<g id="a_edge9_Node000001_Node000010"><a xlink:title=" ">
<path fill="none" stroke="#63b8ff" d="M171.62,-90.43C185.3,-87.11 199.35,-83.69 212.69,-80.45"/>
<polygon fill="#63b8ff" stroke="#63b8ff" points="213.85,-83.77 222.74,-78.01 212.2,-76.97 213.85,-83.77"/>
</a>
</g>
</g>
<!-- Node11 -->
<g id="Node000011" class="node">
<title>Node11</title>
<g id="a_Node000011"><a xlink:href="classprecice_1_1mapping_1_1Mapping.html#a07a71a54b71eda6d54510c94fb188e70" target="_top" xlink:title="Returns pointer to output mesh.">
<polygon fill="white" stroke="#666666" points="360,-30 211,-30 211,0 360,0 360,-30"/>
<text text-anchor="start" x="219" y="-18" font-family="Helvetica,sans-Serif" font-size="10.00">precice::mapping::Mapping</text>
<text text-anchor="middle" x="285.5" y="-7" font-family="Helvetica,sans-Serif" font-size="10.00">::output</text>
</a>
</g>
</g>
<!-- Node1&#45;&gt;Node11 -->
<g id="edge10_Node000001_Node000011" class="edge">
<title>Node1&#45;&gt;Node11</title>
<g id="a_edge10_Node000001_Node000011"><a xlink:title=" ">
<path fill="none" stroke="#63b8ff" d="M117.27,-90.29C141.12,-74.64 175.64,-53.47 208,-39 212.3,-37.08 216.8,-35.24 221.37,-33.51"/>
<polygon fill="#63b8ff" stroke="#63b8ff" points="222.61,-36.78 230.82,-30.09 220.23,-30.2 222.61,-36.78"/>
</a>
</g>
</g>
<!-- Node3 -->
<g id="Node000003" class="node">
<title>Node3</title>
<g id="a_Node000003"><a xlink:href="classprecice_1_1mesh_1_1BoundingBox.html#a7afbe3af5a4b2026dbe41276c7a189d1" target="_top" xlink:title=" ">
<polygon fill="white" stroke="#666666" points="554,-241 399,-241 399,-211 554,-211 554,-241"/>
<text text-anchor="start" x="407" y="-229" font-family="Helvetica,sans-Serif" font-size="10.00">precice::mesh::BoundingBox</text>
<text text-anchor="middle" x="476.5" y="-218" font-family="Helvetica,sans-Serif" font-size="10.00">::BoundingBox</text>
</a>
</g>
</g>
<!-- Node2&#45;&gt;Node3 -->
<g id="edge2_Node000002_Node000003" class="edge">
<title>Node2&#45;&gt;Node3</title>
<g id="a_edge2_Node000002_Node000003"><a xlink:title=" ">
<path fill="none" stroke="#63b8ff" d="M363.1,-208.75C371.56,-210.05 380.22,-211.38 388.79,-212.69"/>
<polygon fill="#63b8ff" stroke="#63b8ff" points="388.37,-216.17 398.79,-214.23 389.44,-209.25 388.37,-216.17"/>
</a>
</g>
</g>
<!-- Node6 -->
<g id="Node000006" class="node">
<title>Node6</title>
<g id="a_Node000006"><a xlink:href="classprecice_1_1mesh_1_1BoundingBox.html#ad500309dcbe440703ef71dfcc7a2a394" target="_top" xlink:title="Getter dimension of the bounding box.">
<polygon fill="white" stroke="#666666" points="554,-193 399,-193 399,-163 554,-163 554,-193"/>
<text text-anchor="start" x="407" y="-181" font-family="Helvetica,sans-Serif" font-size="10.00">precice::mesh::BoundingBox</text>
<text text-anchor="middle" x="476.5" y="-170" font-family="Helvetica,sans-Serif" font-size="10.00">::getDimension</text>
</a>
</g>
</g>
<!-- Node2&#45;&gt;Node6 -->
<g id="edge5_Node000002_Node000006" class="edge">
<title>Node2&#45;&gt;Node6</title>
<g id="a_edge5_Node000002_Node000006"><a xlink:title=" ">
<path fill="none" stroke="#63b8ff" d="M363.1,-189.3C371.56,-188.45 380.22,-187.58 388.79,-186.72"/>
<polygon fill="#63b8ff" stroke="#63b8ff" points="389.19,-190.19 398.79,-185.71 388.49,-183.23 389.19,-190.19"/>
</a>
</g>
</g>
<!-- Node4 -->
<g id="Node000004" class="node">
<title>Node4</title>
<g id="a_Node000004"><a target="_parent" xlink:href="http://en.cppreference.com/w/cpp/types/numeric_limits/lowest.html#" xlink:title=" ">
<polygon fill="white" stroke="#666666" points="714,-262 604,-262 604,-232 714,-232 714,-262"/>
<text text-anchor="start" x="612" y="-250" font-family="Helvetica,sans-Serif" font-size="10.00">std::numeric_limits</text>
<text text-anchor="middle" x="659" y="-239" font-family="Helvetica,sans-Serif" font-size="10.00">::lowest</text>
</a>
</g>
</g>
<!-- Node3&#45;&gt;Node4 -->
<g id="edge3_Node000003_Node000004" class="edge">
<title>Node3&#45;&gt;Node4</title>
<g id="a_edge3_Node000003_Node000004"><a xlink:title=" ">
<path fill="none" stroke="#63b8ff" d="M554.05,-234.91C567.24,-236.44 580.83,-238.02 593.66,-239.51"/>
<polygon fill="#63b8ff" stroke="#63b8ff" points="593.43,-243.01 603.76,-240.69 594.24,-236.06 593.43,-243.01"/>
</a>
</g>
</g>
<!-- Node5 -->
<g id="Node000005" class="node">
<title>Node5</title>
<g id="a_Node000005"><a target="_parent" xlink:href="http://en.cppreference.com/w/cpp/types/numeric_limits/max.html#" xlink:title=" ">
<polygon fill="white" stroke="#666666" points="728,-213.5 590,-213.5 590,-194.5 728,-194.5 728,-213.5"/>
<text text-anchor="middle" x="659" y="-201.5" font-family="Helvetica,sans-Serif" font-size="10.00">std::numeric_limits::max</text>
</a>
</g>
</g>
<!-- Node3&#45;&gt;Node5 -->
<g id="edge4_Node000003_Node000005" class="edge">
<title>Node3&#45;&gt;Node5</title>
<g id="a_edge4_Node000003_Node000005"><a xlink:title=" ">
<path fill="none" stroke="#63b8ff" d="M554.05,-216.67C562.61,-215.63 571.34,-214.56 579.93,-213.52"/>
<polygon fill="#63b8ff" stroke="#63b8ff" points="580.41,-216.98 589.91,-212.3 579.56,-210.03 580.41,-216.98"/>
</a>
</g>
</g>
<!-- Node9 -->
<g id="Node000009" class="node">
<title>Node9</title>
<g id="a_Node000009"><a xlink:href="classprecice_1_1mapping_1_1Mapping.html#a6afbd9aaac2ab09b078db271cfd977a1" target="_top" xlink:title="Returns the constraint (consistent/conservative) of the mapping.">
<polygon fill="white" stroke="#666666" points="551,-126 402,-126 402,-96 551,-96 551,-126"/>
<text text-anchor="start" x="410" y="-114" font-family="Helvetica,sans-Serif" font-size="10.00">precice::mapping::Mapping</text>
<text text-anchor="middle" x="476.5" y="-103" font-family="Helvetica,sans-Serif" font-size="10.00">::getConstraint</text>
</a>
</g>
</g>
<!-- Node8&#45;&gt;Node9 -->
<g id="edge8_Node000008_Node000009" class="edge">
<title>Node8&#45;&gt;Node9</title>
<g id="a_edge8_Node000008_Node000009"><a xlink:title=" ">
<path fill="none" stroke="#63b8ff" d="M360.11,-111C370.48,-111 381.2,-111 391.74,-111"/>
<polygon fill="#63b8ff" stroke="#63b8ff" points="391.78,-114.5 401.78,-111 391.78,-107.5 391.78,-114.5"/>
</a>
</g>
</g>
</g>
</svg>
