<?xml version="1.0" encoding="UTF-8" standalone="no"?>
<!DOCTYPE svg PUBLIC "-//W3C//DTD SVG 1.1//EN"
 "http://www.w3.org/Graphics/SVG/1.1/DTD/svg11.dtd">
<!-- Generated by graphviz version 2.43.0 (0)
 -->
<!-- Title: precice::acceleration::BaseQNAcceleration::writeLogEntries Pages: 1 -->
<svg width="410pt" height="216pt"
 viewBox="0.00 0.00 410.00 215.50" xmlns="http://www.w3.org/2000/svg" xmlns:xlink="http://www.w3.org/1999/xlink">
<g id="graph0" class="graph" transform="scale(1 1) rotate(0) translate(4 211.5)">
<title>precice::acceleration::BaseQNAcceleration::writeLogEntries</title>
<!-- Node1 -->
<g id="Node000001" class="node">
<title>Node1</title>
<g id="a_Node000001"><a xlink:title="Writes QN&#45;specific values to the iteration log columns.">
<polygon fill="#999999" stroke="#666666" points="122,-118.5 0,-118.5 0,-77.5 122,-77.5 122,-118.5"/>
<text text-anchor="start" x="8" y="-106.5" font-family="Helvetica,sans-Serif" font-size="10.00">precice::acceleration</text>
<text text-anchor="start" x="8" y="-95.5" font-family="Helvetica,sans-Serif" font-size="10.00">::BaseQNAcceleration</text>
<text text-anchor="middle" x="61" y="-84.5" font-family="Helvetica,sans-Serif" font-size="10.00">::writeLogEntries</text>
</a>
</g>
</g>
<!-- Node2 -->
<g id="Node000002" class="node">
<title>Node2</title>
<g id="a_Node000002"><a xlink:href="classprecice_1_1acceleration_1_1BaseQNAcceleration.html#ac8b209746308235529a3e547c3668177" target="_top" xlink:title="how many QN columns were deleted in this time window">
<polygon fill="white" stroke="#666666" points="292.5,-207.5 170.5,-207.5 170.5,-166.5 292.5,-166.5 292.5,-207.5"/>
<text text-anchor="start" x="178.5" y="-195.5" font-family="Helvetica,sans-Serif" font-size="10.00">precice::acceleration</text>
<text text-anchor="start" x="178.5" y="-184.5" font-family="Helvetica,sans-Serif" font-size="10.00">::BaseQNAcceleration</text>
<text text-anchor="middle" x="231.5" y="-173.5" font-family="Helvetica,sans-Serif" font-size="10.00">::getDeletedColumns</text>
</a>
</g>
</g>
<!-- Node1&#45;&gt;Node2 -->
<g id="edge1_Node000001_Node000002" class="edge">
<title>Node1&#45;&gt;Node2</title>
<g id="a_edge1_Node000001_Node000002"><a xlink:title=" ">
<path fill="none" stroke="#63b8ff" d="M91.89,-118.61C110.44,-130.91 135.04,-146.35 158,-158 160.75,-159.4 163.59,-160.77 166.47,-162.12"/>
<polygon fill="#63b8ff" stroke="#63b8ff" points="165.24,-165.41 175.8,-166.34 168.12,-159.03 165.24,-165.41"/>
</a>
</g>
</g>
<!-- Node3 -->
<g id="Node000003" class="node">
<title>Node3</title>
<g id="a_Node000003"><a xlink:href="classprecice_1_1acceleration_1_1BaseQNAcceleration.html#a74571db27748736d18e76a7034f671ff" target="_top" xlink:title="how many QN columns were dropped (went out of scope) in this time window">
<polygon fill="white" stroke="#666666" points="292.5,-148.5 170.5,-148.5 170.5,-107.5 292.5,-107.5 292.5,-148.5"/>
<text text-anchor="start" x="178.5" y="-136.5" font-family="Helvetica,sans-Serif" font-size="10.00">precice::acceleration</text>
<text text-anchor="start" x="178.5" y="-125.5" font-family="Helvetica,sans-Serif" font-size="10.00">::BaseQNAcceleration</text>
<text text-anchor="middle" x="231.5" y="-114.5" font-family="Helvetica,sans-Serif" font-size="10.00">::getDroppedColumns</text>
</a>
</g>
</g>
<!-- Node1&#45;&gt;Node3 -->
<g id="edge2_Node000001_Node000003" class="edge">
<title>Node1&#45;&gt;Node3</title>
<g id="a_edge2_Node000001_Node000003"><a xlink:title=" ">
<path fill="none" stroke="#63b8ff" d="M122.36,-108.75C134.65,-110.93 147.69,-113.26 160.29,-115.5"/>
<polygon fill="#63b8ff" stroke="#63b8ff" points="159.82,-118.97 170.28,-117.28 161.05,-112.08 159.82,-118.97"/>
</a>
</g>
</g>
<!-- Node4 -->
<g id="Node000004" class="node">
<title>Node4</title>
<g id="a_Node000004"><a xlink:href="classprecice_1_1acceleration_1_1BaseQNAcceleration.html#a2354cc9c97ebd8ff1ba76b5959e79f20" target="_top" xlink:title=": computes number of cols in least squares system, i.e, number of cols in _matrixV,...">
<polygon fill="white" stroke="#666666" points="292.5,-89.5 170.5,-89.5 170.5,-48.5 292.5,-48.5 292.5,-89.5"/>
<text text-anchor="start" x="178.5" y="-77.5" font-family="Helvetica,sans-Serif" font-size="10.00">precice::acceleration</text>
<text text-anchor="start" x="178.5" y="-66.5" font-family="Helvetica,sans-Serif" font-size="10.00">::BaseQNAcceleration</text>
<text text-anchor="middle" x="231.5" y="-55.5" font-family="Helvetica,sans-Serif" font-size="10.00">::getLSSystemCols</text>
</a>
</g>
</g>
<!-- Node1&#45;&gt;Node4 -->
<g id="edge3_Node000001_Node000004" class="edge">
<title>Node1&#45;&gt;Node4</title>
<g id="a_edge3_Node000001_Node000004"><a xlink:title=" ">
<path fill="none" stroke="#63b8ff" d="M122.36,-87.61C134.65,-85.5 147.69,-83.25 160.29,-81.08"/>
<polygon fill="#63b8ff" stroke="#63b8ff" points="161.02,-84.51 170.28,-79.36 159.83,-77.61 161.02,-84.51"/>
</a>
</g>
</g>
<!-- Node5 -->
<g id="Node000005" class="node">
<title>Node5</title>
<g id="a_Node000005"><a xlink:href="classprecice_1_1io_1_1TXTTableWriter.html#adc48b2e227c529b370bf016996c5f9d1" target="_top" xlink:title="Writes a integral scalar data value associated to the entry name.">
<polygon fill="white" stroke="#666666" points="305,-30 158,-30 158,0 305,0 305,-30"/>
<text text-anchor="start" x="166" y="-18" font-family="Helvetica,sans-Serif" font-size="10.00">precice::io::TXTTableWriter</text>
<text text-anchor="middle" x="231.5" y="-7" font-family="Helvetica,sans-Serif" font-size="10.00">::writeData</text>
</a>
</g>
</g>
<!-- Node1&#45;&gt;Node5 -->
<g id="edge4_Node000001_Node000005" class="edge">
<title>Node1&#45;&gt;Node5</title>
<g id="a_edge4_Node000001_Node000005"><a xlink:title=" ">
<path fill="none" stroke="#63b8ff" d="M92.21,-77.48C110.68,-65.52 135.07,-50.73 158,-40 162.63,-37.83 167.5,-35.75 172.44,-33.78"/>
<polygon fill="#63b8ff" stroke="#63b8ff" points="173.88,-36.98 181.96,-30.14 171.37,-30.44 173.88,-36.98"/>
</a>
</g>
</g>
<!-- Node6 -->
<g id="Node000006" class="node">
<title>Node6</title>
<g id="a_Node000006"><a target="_parent" xlink:href="http://en.cppreference.com/w/cpp/io/manip/setw.html#" xlink:title=" ">
<polygon fill="white" stroke="#666666" points="402,-24.5 341,-24.5 341,-5.5 402,-5.5 402,-24.5"/>
<text text-anchor="middle" x="371.5" y="-12.5" font-family="Helvetica,sans-Serif" font-size="10.00">std::setw</text>
</a>
</g>
</g>
<!-- Node5&#45;&gt;Node6 -->
<g id="edge5_Node000005_Node000006" class="edge">
<title>Node5&#45;&gt;Node6</title>
<g id="a_edge5_Node000005_Node000006"><a xlink:title=" ">
<path fill="none" stroke="#63b8ff" d="M305.14,-15C313.9,-15 322.58,-15 330.61,-15"/>
<polygon fill="#63b8ff" stroke="#63b8ff" points="330.76,-18.5 340.76,-15 330.76,-11.5 330.76,-18.5"/>
</a>
</g>
</g>
</g>
</svg>
