<?xml version="1.0" encoding="UTF-8" standalone="no"?>
<!DOCTYPE svg PUBLIC "-//W3C//DTD SVG 1.1//EN"
 "http://www.w3.org/Graphics/SVG/1.1/DTD/svg11.dtd">
<!-- Generated by graphviz version 2.43.0 (0)
 -->
<!-- Title: precice::io::ExportVTU Pages: 1 -->
<!--zoomable 731 -->

<svg id="main" version="1.1" xmlns="http://www.w3.org/2000/svg" xmlns:xlink="http://www.w3.org/1999/xlink" xml:space="preserve" onload="init(evt)">

<style type="text/css"><![CDATA[
.node, .edge {opacity: 0.7;}
.node.selected, .edge.selected {opacity: 1;}
.edge:hover path { stroke: red; }
.edge:hover polygon { stroke: red; fill: red; }
]]></style>

<defs>
  <circle id="rim" cx="0" cy="0" r="7"/>
  <circle id="rim2" cx="0" cy="0" r="3.5"/>
  <g id="zoomPlus">
    <use xlink:href="#rim" fill="#404040"><set attributeName="fill" to="#808080" begin="zoomplus.mouseover" end="zoomplus.mouseout"/></use>
    <path d="M-4,0h8M0,-4v8" fill="none" stroke="white" stroke-width="1.5" pointer-events="none"/>
  </g>
  <g id="zoomMin">
    <use xlink:href="#rim" fill="#404040"><set attributeName="fill" to="#808080" begin="zoomminus.mouseover" end="zoomminus.mouseout"/></use>
    <path d="M-4,0h8" fill="none" stroke="white" stroke-width="1.5" pointer-events="none"/>
  </g>
  <g id="arrowUp" transform="translate(30 24)">
    <use xlink:href="#rim"/>
    <path pointer-events="none" fill="none" stroke="white" stroke-width="1.5" d="M0,-3.0v7 M-2.5,-0.5L0,-3.0L2.5,-0.5"/>
  </g>
  <g id="arrowRight" transform="rotate(90) translate(36 -43)">
    <use xlink:href="#rim"/>
    <path pointer-events="none" fill="none" stroke="white" stroke-width="1.5" d="M0,-3.0v7 M-2.5,-0.5L0,-3.0L2.5,-0.5"/>
  </g>
  <g id="arrowDown" transform="rotate(180) translate(-30 -48)">
    <use xlink:href="#rim"/>
    <path pointer-events="none" fill="none" stroke="white" stroke-width="1.5" d="M0,-3.0v7 M-2.5,-0.5L0,-3.0L2.5,-0.5"/>
  </g>
  <g id="arrowLeft" transform="rotate(270) translate(-36 17)">
    <use xlink:href="#rim"/>
    <path pointer-events="none" fill="none" stroke="white" stroke-width="1.5" d="M0,-3.0v7 M-2.5,-0.5L0,-3.0L2.5,-0.5"/>
  </g>
  <g id="resetDef">
    <use xlink:href="#rim2" fill="#404040"><set attributeName="fill" to="#808080" begin="reset.mouseover" end="reset.mouseout"/></use>
  </g>
</defs>
<script type="application/ecmascript">
var viewWidth = 1894;
var viewHeight = 731;
var sectionId = 'dynsection-1';
</script>
<script type="application/ecmascript" xlink:href="svg.min.js"/>
<svg id="graph" class="graph">
<g id="viewport">
<title>precice::io::ExportVTU</title>
<!-- Node1 -->
<g id="Node000001" class="node">
<title>Node1</title>
<g id="a_Node000001"><a xlink:title=" ">
<polygon fill="#999999" stroke="#666666" points="1886,-425.56 1761,-425.56 1761,-406.56 1886,-406.56 1886,-425.56"/>
<text text-anchor="middle" x="1823.5" y="-413.56" font-family="Helvetica,sans-Serif" font-size="10.00">precice::io::ExportVTU</text>
</a>
</g>
</g>
<!-- Node2 -->
<g id="Node000002" class="node">
<title>Node2</title>
<g id="a_Node000002"><a xlink:href="classprecice_1_1io_1_1ExportXML.html" target="_top" xlink:title="Common class to generate the VTK XML&#45;based formats.">
<polygon fill="white" stroke="#666666" points="1724,-161.56 1599,-161.56 1599,-142.56 1724,-142.56 1724,-161.56"/>
<text text-anchor="middle" x="1661.5" y="-149.56" font-family="Helvetica,sans-Serif" font-size="10.00">precice::io::ExportXML</text>
</a>
</g>
</g>
<!-- Node2&#45;&gt;Node1 -->
<g id="edge1_Node000001_Node000002" class="edge">
<title>Node2&#45;&gt;Node1</title>
<g id="a_edge1_Node000001_Node000002"><a xlink:title=" ">
<path fill="none" stroke="#63b8ff" d="M1673.72,-170.58C1705.16,-222.45 1793.32,-367.91 1816.73,-406.54"/>
<polygon fill="#63b8ff" stroke="#63b8ff" points="1676.56,-168.51 1668.38,-161.77 1670.57,-172.14 1676.56,-168.51"/>
</a>
</g>
</g>
<!-- Node3 -->
<g id="Node000003" class="node">
<title>Node3</title>
<g id="a_Node000003"><a xlink:href="classprecice_1_1io_1_1Export.html" target="_top" xlink:title="Abstract base class of all classes exporting container data structures.">
<polygon fill="white" stroke="#666666" points="1555,-94.56 1451,-94.56 1451,-75.56 1555,-75.56 1555,-94.56"/>
<text text-anchor="middle" x="1503" y="-82.56" font-family="Helvetica,sans-Serif" font-size="10.00">precice::io::Export</text>
</a>
</g>
</g>
<!-- Node3&#45;&gt;Node2 -->
<g id="edge2_Node000002_Node000003" class="edge">
<title>Node3&#45;&gt;Node2</title>
<g id="a_edge2_Node000002_Node000003"><a xlink:title=" ">
<path fill="none" stroke="#63b8ff" d="M1547.34,-97.69C1558.45,-101.32 1570.29,-105.53 1581,-110.06 1603.72,-119.67 1628.68,-133.41 1644.46,-142.53"/>
<polygon fill="#63b8ff" stroke="#63b8ff" points="1548.4,-94.35 1537.81,-94.66 1546.28,-101.02 1548.4,-94.35"/>
</a>
</g>
</g>
<!-- Node4 -->
<g id="Node000004" class="node">
<title>Node4</title>
<g id="a_Node000004"><a target="_parent" xlink:href="http://en.cppreference.com/w/cpp/string/basic_string.html" xlink:title=" ">
<polygon fill="white" stroke="#666666" points="696.5,-73.56 631.5,-73.56 631.5,-54.56 696.5,-54.56 696.5,-73.56"/>
<text text-anchor="middle" x="664" y="-61.56" font-family="Helvetica,sans-Serif" font-size="10.00">std::string</text>
</a>
</g>
</g>
<!-- Node4&#45;&gt;Node3 -->
<g id="edge3_Node000003_Node000004" class="edge">
<title>Node4&#45;&gt;Node3</title>
<g id="a_edge3_Node000003_Node000004"><a xlink:title=" ">
<path fill="none" stroke="#9a32cd" stroke-dasharray="5,2" d="M700.04,-51.11C732.66,-39.74 782.89,-23.97 828,-17.06 1039.19,15.27 1098.42,-1.56 1308,-43.06 1360.57,-53.47 1420.85,-66.73 1460.08,-75.54"/>
<polygon fill="#9a32cd" stroke="#9a32cd" points="698.77,-47.84 690.51,-54.48 701.11,-54.44 698.77,-47.84"/>
</a>
</g>
<text text-anchor="start" x="1027" y="-32.06" font-family="Helvetica,sans-Serif" font-size="10.00" fill="grey">_location</text>
<text text-anchor="start" x="1027" y="-17.06" font-family="Helvetica,sans-Serif" font-size="10.00" fill="grey">_participantName</text>
</g>
<!-- Node6 -->
<g id="Node000006" class="node">
<title>Node6</title>
<g id="a_Node000006"><a xlink:href="classprecice_1_1mesh_1_1Mesh.html" target="_top" xlink:title="Container and creator for meshes.">
<polygon fill="white" stroke="#666666" points="1292,-398.56 1175,-398.56 1175,-379.56 1292,-379.56 1292,-398.56"/>
<text text-anchor="middle" x="1233.5" y="-386.56" font-family="Helvetica,sans-Serif" font-size="10.00">precice::mesh::Mesh</text>
</a>
</g>
</g>
<!-- Node4&#45;&gt;Node6 -->
<g id="edge10_Node000006_Node000004" class="edge">
<title>Node4&#45;&gt;Node6</title>
<g id="a_edge10_Node000006_Node000004"><a xlink:title=" ">
<path fill="none" stroke="#9a32cd" stroke-dasharray="5,2" d="M698.21,-77.39C715.8,-84.15 737.87,-92.15 758,-98.06 925.39,-147.23 1006,-73.56 1141,-184.06 1206.14,-237.38 1226.5,-346.67 1231.27,-379.52"/>
<polygon fill="#9a32cd" stroke="#9a32cd" points="699.01,-73.94 688.42,-73.58 696.47,-80.47 699.01,-73.94"/>
</a>
</g>
<text text-anchor="start" x="888.5" y="-123.56" font-family="Helvetica,sans-Serif" font-size="10.00" fill="grey">_name</text>
</g>
<!-- Node25 -->
<g id="Node000025" class="node">
<title>Node25</title>
<g id="a_Node000025"><a xlink:href="structprecice_1_1io_1_1Export_1_1Record.html" target="_top" xlink:title=" ">
<polygon fill="white" stroke="#666666" points="957.5,-56.06 853.5,-56.06 853.5,-26.06 957.5,-26.06 957.5,-56.06"/>
<text text-anchor="start" x="861.5" y="-44.06" font-family="Helvetica,sans-Serif" font-size="10.00">precice::io::Export</text>
<text text-anchor="middle" x="905.5" y="-33.06" font-family="Helvetica,sans-Serif" font-size="10.00">::Record</text>
</a>
</g>
</g>
<!-- Node4&#45;&gt;Node25 -->
<g id="edge29_Node000025_Node000004" class="edge">
<title>Node4&#45;&gt;Node25</title>
<g id="a_edge29_Node000025_Node000004"><a xlink:title=" ">
<path fill="none" stroke="#9a32cd" stroke-dasharray="5,2" d="M706.71,-53.93C722.66,-50.48 741.08,-47.01 758,-45.06 789.6,-41.43 825.27,-40.39 853.5,-40.28"/>
<polygon fill="#9a32cd" stroke="#9a32cd" points="705.63,-50.58 696.63,-56.17 707.15,-57.41 705.63,-50.58"/>
</a>
</g>
<text text-anchor="start" x="763" y="-50.56" font-family="Helvetica,sans-Serif" font-size="10.00" fill="grey">filename</text>
</g>
<!-- Node26 -->
<g id="Node000026" class="node">
<title>Node26</title>
<g id="a_Node000026"><a target="_parent" xlink:href="http://en.cppreference.com/w/cpp/container/vector.html" xlink:title=" ">
<polygon fill="white" stroke="#666666" points="1141,-109.56 1001,-109.56 1001,-90.56 1141,-90.56 1141,-109.56"/>
<text text-anchor="middle" x="1071" y="-97.56" font-family="Helvetica,sans-Serif" font-size="10.00">std::vector&lt; std::string &gt;</text>
</a>
</g>
</g>
<!-- Node4&#45;&gt;Node26 -->
<g id="edge32_Node000026_Node000004" class="edge">
<title>Node4&#45;&gt;Node26</title>
<g id="a_edge32_Node000026_Node000004"><a xlink:title=" ">
<path fill="none" stroke="#9a32cd" stroke-dasharray="5,2" d="M706.92,-67.79C776.46,-73.97 916.39,-86.41 1000.77,-93.91"/>
<polygon fill="#9a32cd" stroke="#9a32cd" points="707.05,-64.29 696.78,-66.89 706.43,-71.26 707.05,-64.29"/>
</a>
</g>
<text text-anchor="start" x="761" y="-82.56" font-family="Helvetica,sans-Serif" font-size="10.00" fill="grey">elements</text>
</g>
<!-- Node5 -->
<g id="Node000005" class="node">
<title>Node5</title>
<g id="a_Node000005"><a target="_parent" xlink:href="http://en.cppreference.com/w/cpp/string/basic_string.html" xlink:title=" ">
<polygon fill="white" stroke="#666666" points="485,-79.06 381,-79.06 381,-49.06 485,-49.06 485,-79.06"/>
<text text-anchor="start" x="389" y="-67.06" font-family="Helvetica,sans-Serif" font-size="10.00">std::basic_string&lt;</text>
<text text-anchor="middle" x="433" y="-56.06" font-family="Helvetica,sans-Serif" font-size="10.00"> Char &gt;</text>
</a>
</g>
</g>
<!-- Node5&#45;&gt;Node4 -->
<g id="edge4_Node000004_Node000005" class="edge">
<title>Node5&#45;&gt;Node4</title>
<g id="a_edge4_Node000004_Node000005"><a xlink:title=" ">
<path fill="none" stroke="#63b8ff" d="M495.38,-64.06C539.24,-64.06 596.47,-64.06 631.43,-64.06"/>
<polygon fill="#63b8ff" stroke="#63b8ff" points="495.11,-60.56 485.11,-64.06 495.11,-67.56 495.11,-60.56"/>
</a>
</g>
</g>
<!-- Node6&#45;&gt;Node3 -->
<g id="edge5_Node000003_Node000006" class="edge">
<title>Node6&#45;&gt;Node3</title>
<g id="a_edge5_Node000003_Node000006"><a xlink:title=" ">
<path fill="none" stroke="#9a32cd" stroke-dasharray="5,2" d="M1249.9,-371.56C1299.74,-314.92 1455.55,-137.85 1493.57,-94.64"/>
<polygon fill="#9a32cd" stroke="#9a32cd" points="1247.08,-369.47 1243.1,-379.29 1252.33,-374.1 1247.08,-369.47"/>
</a>
</g>
<text text-anchor="start" x="1360" y="-286.56" font-family="Helvetica,sans-Serif" font-size="10.00" fill="grey">_mesh</text>
</g>
<!-- Node20 -->
<g id="Node000020" class="node">
<title>Node20</title>
<g id="a_Node000020"><a xlink:href="classprecice_1_1query_1_1Index.html" target="_top" xlink:title="Class to query the index trees of the mesh.">
<polygon fill="white" stroke="#666666" points="1562,-543.56 1444,-543.56 1444,-524.56 1562,-524.56 1562,-543.56"/>
<text text-anchor="middle" x="1503" y="-531.56" font-family="Helvetica,sans-Serif" font-size="10.00">precice::query::Index</text>
</a>
</g>
</g>
<!-- Node6&#45;&gt;Node20 -->
<g id="edge25_Node000020_Node000006" class="edge">
<title>Node6&#45;&gt;Node20</title>
<g id="a_edge25_Node000020_Node000006"><a xlink:title=" ">
<path fill="none" stroke="#9a32cd" stroke-dasharray="5,2" d="M1250.24,-406.1C1267.41,-423.85 1296.43,-451.49 1326,-469.06 1370.52,-495.52 1427.63,-514.18 1464.52,-524.53"/>
<polygon fill="#9a32cd" stroke="#9a32cd" points="1252.64,-403.55 1243.22,-398.71 1247.57,-408.37 1252.64,-403.55"/>
</a>
</g>
<text text-anchor="start" x="1360" y="-516.56" font-family="Helvetica,sans-Serif" font-size="10.00" fill="grey">_mesh</text>
</g>
<!-- Node7 -->
<g id="Node000007" class="node">
<title>Node7</title>
<g id="a_Node000007"><a xlink:href="classprecice_1_1logging_1_1Logger.html" target="_top" xlink:title="This class provides a lightweight logger.">
<polygon fill="white" stroke="#666666" points="730.5,-545.56 597.5,-545.56 597.5,-526.56 730.5,-526.56 730.5,-545.56"/>
<text text-anchor="middle" x="664" y="-533.56" font-family="Helvetica,sans-Serif" font-size="10.00">precice::logging::Logger</text>
</a>
</g>
</g>
<!-- Node7&#45;&gt;Node1 -->
<g id="edge33_Node000001_Node000007" class="edge">
<title>Node7&#45;&gt;Node1</title>
<g id="a_edge33_Node000001_Node000007"><a xlink:title=" ">
<path fill="none" stroke="#9a32cd" stroke-dasharray="5,2" d="M683.16,-552.8C721.16,-586.01 813.12,-657.06 904.5,-657.06 904.5,-657.06 904.5,-657.06 1662.5,-657.06 1775.5,-657.06 1813.46,-470.89 1821,-425.81"/>
<polygon fill="#9a32cd" stroke="#9a32cd" points="685.28,-550.01 675.49,-545.96 680.62,-555.23 685.28,-550.01"/>
</a>
</g>
<text text-anchor="start" x="1366" y="-662.56" font-family="Helvetica,sans-Serif" font-size="10.00" fill="grey">_log</text>
</g>
<!-- Node7&#45;&gt;Node2 -->
<g id="edge30_Node000002_Node000007" class="edge">
<title>Node7&#45;&gt;Node2</title>
<g id="a_edge30_Node000002_Node000007"><a xlink:title=" ">
<path fill="none" stroke="#9a32cd" stroke-dasharray="5,2" d="M668.45,-516.28C679.76,-457.61 721.28,-283.2 828,-195.06 855.1,-172.68 869.36,-175.06 904.5,-175.06 904.5,-175.06 904.5,-175.06 1504,-175.06 1543.13,-175.06 1587.19,-167.93 1618.57,-161.62"/>
<polygon fill="#9a32cd" stroke="#9a32cd" points="664.96,-515.94 666.58,-526.41 671.84,-517.21 664.96,-515.94"/>
</a>
</g>
<text text-anchor="start" x="1223.5" y="-180.56" font-family="Helvetica,sans-Serif" font-size="10.00" fill="grey">_log</text>
</g>
<!-- Node7&#45;&gt;Node6 -->
<g id="edge6_Node000006_Node000007" class="edge">
<title>Node7&#45;&gt;Node6</title>
<g id="a_edge6_Node000006_Node000007"><a xlink:title=" ">
<path fill="none" stroke="#9a32cd" stroke-dasharray="5,2" d="M741.24,-537.2C866.86,-538.54 1106.9,-538.57 1141,-520.06 1191.47,-492.66 1220.14,-423.92 1229.27,-398.61"/>
<polygon fill="#9a32cd" stroke="#9a32cd" points="740.96,-533.7 730.92,-537.09 740.88,-540.7 740.96,-533.7"/>
</a>
</g>
<text text-anchor="start" x="895.5" y="-542.56" font-family="Helvetica,sans-Serif" font-size="10.00" fill="grey">_log</text>
</g>
<!-- Node19 -->
<g id="Node000019" class="node">
<title>Node19</title>
<g id="a_Node000019"><a xlink:href="classprecice_1_1mesh_1_1BoundingBox.html" target="_top" xlink:title="An axis&#45;aligned bounding box around a (partition of a) mesh.">
<polygon fill="white" stroke="#666666" points="983,-376.56 828,-376.56 828,-357.56 983,-357.56 983,-376.56"/>
<text text-anchor="middle" x="905.5" y="-364.56" font-family="Helvetica,sans-Serif" font-size="10.00">precice::mesh::BoundingBox</text>
</a>
</g>
</g>
<!-- Node7&#45;&gt;Node19 -->
<g id="edge20_Node000019_Node000007" class="edge">
<title>Node7&#45;&gt;Node19</title>
<g id="a_edge20_Node000019_Node000007"><a xlink:title=" ">
<path fill="none" stroke="#9a32cd" stroke-dasharray="5,2" d="M679.03,-518.26C704.96,-486.63 763.61,-420.71 828,-386.06 835.23,-382.17 843.27,-379.06 851.35,-376.58"/>
<polygon fill="#9a32cd" stroke="#9a32cd" points="676.17,-516.24 672.61,-526.22 681.62,-520.63 676.17,-516.24"/>
</a>
</g>
<text text-anchor="start" x="774" y="-440.56" font-family="Helvetica,sans-Serif" font-size="10.00" fill="grey">_log</text>
</g>
<!-- Node7&#45;&gt;Node20 -->
<g id="edge26_Node000020_Node000007" class="edge">
<title>Node7&#45;&gt;Node20</title>
<g id="a_edge26_Node000020_Node000007"><a xlink:title=" ">
<path fill="none" stroke="#9a32cd" stroke-dasharray="5,2" d="M691.94,-550.28C723.52,-566.07 777.92,-590.58 828,-600.06 1072.04,-646.25 1372.28,-571.27 1469.79,-543.64"/>
<polygon fill="#9a32cd" stroke="#9a32cd" points="693.41,-547.1 682.91,-545.69 690.24,-553.34 693.41,-547.1"/>
</a>
</g>
<text text-anchor="start" x="1061" y="-619.56" font-family="Helvetica,sans-Serif" font-size="10.00" fill="grey">_log</text>
</g>
<!-- Node8 -->
<g id="Node000008" class="node">
<title>Node8</title>
<g id="a_Node000008"><a target="_parent" xlink:href="http://en.cppreference.com/w/cpp/memory/unique_ptr.html" xlink:title=" ">
<polygon fill="white" stroke="#666666" points="518,-551.06 348,-551.06 348,-521.06 518,-521.06 518,-551.06"/>
<text text-anchor="start" x="356" y="-539.06" font-family="Helvetica,sans-Serif" font-size="10.00">std::unique_ptr&lt; precice</text>
<text text-anchor="middle" x="433" y="-528.06" font-family="Helvetica,sans-Serif" font-size="10.00">::logging::Logger::LoggerImpl &gt;</text>
</a>
</g>
</g>
<!-- Node8&#45;&gt;Node7 -->
<g id="edge7_Node000007_Node000008" class="edge">
<title>Node8&#45;&gt;Node7</title>
<g id="a_edge7_Node000007_Node000008"><a xlink:title=" ">
<path fill="none" stroke="#9a32cd" stroke-dasharray="5,2" d="M528.46,-536.06C551.54,-536.06 575.74,-536.06 597.15,-536.06"/>
<polygon fill="#9a32cd" stroke="#9a32cd" points="528.3,-532.56 518.3,-536.06 528.3,-539.56 528.3,-532.56"/>
</a>
</g>
<text text-anchor="start" x="539" y="-541.56" font-family="Helvetica,sans-Serif" font-size="10.00" fill="grey">_impl</text>
</g>
<!-- Node9 -->
<g id="Node000009" class="node">
<title>Node9</title>
<g id="a_Node000009"><a xlink:href="classprecice_1_1logging_1_1Logger_1_1LoggerImpl.html" target="_top" xlink:title=" ">
<polygon fill="white" stroke="#666666" points="292,-551.06 159,-551.06 159,-521.06 292,-521.06 292,-551.06"/>
<text text-anchor="start" x="167" y="-539.06" font-family="Helvetica,sans-Serif" font-size="10.00">precice::logging::Logger</text>
<text text-anchor="middle" x="225.5" y="-528.06" font-family="Helvetica,sans-Serif" font-size="10.00">::LoggerImpl</text>
</a>
</g>
</g>
<!-- Node9&#45;&gt;Node8 -->
<g id="edge8_Node000008_Node000009" class="edge">
<title>Node9&#45;&gt;Node8</title>
<g id="a_edge8_Node000008_Node000009"><a xlink:title=" ">
<path fill="none" stroke="#9a32cd" stroke-dasharray="5,2" d="M302.23,-536.06C317.09,-536.06 332.76,-536.06 347.87,-536.06"/>
<polygon fill="#9a32cd" stroke="#9a32cd" points="302.09,-532.56 292.09,-536.06 302.09,-539.56 302.09,-532.56"/>
</a>
</g>
<text text-anchor="start" x="313" y="-541.56" font-family="Helvetica,sans-Serif" font-size="10.00" fill="grey">ptr</text>
</g>
<!-- Node10 -->
<g id="Node000010" class="node">
<title>Node10</title>
<g id="a_Node000010"><a xlink:title=" ">
<polygon fill="white" stroke="#666666" points="122,-551.06 0,-551.06 0,-521.06 122,-521.06 122,-551.06"/>
<text text-anchor="start" x="8" y="-539.06" font-family="Helvetica,sans-Serif" font-size="10.00">BoostLogger&lt; Logger</text>
<text text-anchor="middle" x="61" y="-528.06" font-family="Helvetica,sans-Serif" font-size="10.00">::LoggerImpl &gt;</text>
</a>
</g>
</g>
<!-- Node10&#45;&gt;Node9 -->
<g id="edge9_Node000009_Node000010" class="edge">
<title>Node10&#45;&gt;Node9</title>
<g id="a_edge9_Node000009_Node000010"><a xlink:title=" ">
<path fill="none" stroke="#63b8ff" d="M132.33,-536.06C141.17,-536.06 150.19,-536.06 158.96,-536.06"/>
<polygon fill="#63b8ff" stroke="#63b8ff" points="132.05,-532.56 122.05,-536.06 132.05,-539.56 132.05,-532.56"/>
</a>
</g>
</g>
<!-- Node11 -->
<g id="Node000011" class="node">
<title>Node11</title>
<g id="a_Node000011"><a target="_parent" xlink:href="http://en.cppreference.com/w/cpp/container/deque.html" xlink:title=" ">
<polygon fill="white" stroke="#666666" points="966.5,-259.56 844.5,-259.56 844.5,-240.56 966.5,-240.56 966.5,-259.56"/>
<text text-anchor="middle" x="905.5" y="-247.56" font-family="Helvetica,sans-Serif" font-size="10.00">std::deque&lt; Vertex &gt;</text>
</a>
</g>
</g>
<!-- Node11&#45;&gt;Node6 -->
<g id="edge11_Node000006_Node000011" class="edge">
<title>Node11&#45;&gt;Node6</title>
<g id="a_edge11_Node000006_Node000011"><a xlink:title=" ">
<path fill="none" stroke="#9a32cd" stroke-dasharray="5,2" d="M963.74,-239.08C1013.65,-232.5 1086.41,-230.37 1141,-260.06 1190.69,-287.09 1219.66,-354.15 1229.08,-379.31"/>
<polygon fill="#9a32cd" stroke="#9a32cd" points="963.17,-235.63 953.76,-240.49 964.15,-242.56 963.17,-235.63"/>
</a>
</g>
<text text-anchor="start" x="1049" y="-265.56" font-family="Helvetica,sans-Serif" font-size="10.00" fill="grey">_vertices</text>
</g>
<!-- Node12 -->
<g id="Node000012" class="node">
<title>Node12</title>
<g id="a_Node000012"><a target="_parent" xlink:href="http://en.cppreference.com/w/cpp/container/deque.html" xlink:title=" ">
<polygon fill="white" stroke="#666666" points="962.5,-222.56 848.5,-222.56 848.5,-203.56 962.5,-203.56 962.5,-222.56"/>
<text text-anchor="middle" x="905.5" y="-210.56" font-family="Helvetica,sans-Serif" font-size="10.00">std::deque&lt; Edge &gt;</text>
</a>
</g>
</g>
<!-- Node12&#45;&gt;Node6 -->
<g id="edge12_Node000006_Node000012" class="edge">
<title>Node12&#45;&gt;Node6</title>
<g id="a_edge12_Node000006_Node000012"><a xlink:title=" ">
<path fill="none" stroke="#9a32cd" stroke-dasharray="5,2" d="M947.44,-201.06C997.11,-189.03 1081.58,-176.99 1141,-213.06 1203.99,-251.31 1225.61,-348.6 1231.01,-379.49"/>
<polygon fill="#9a32cd" stroke="#9a32cd" points="946.52,-197.68 937.69,-203.52 948.24,-204.46 946.52,-197.68"/>
</a>
</g>
<text text-anchor="start" x="1054" y="-218.56" font-family="Helvetica,sans-Serif" font-size="10.00" fill="grey">_edges</text>
</g>
<!-- Node13 -->
<g id="Node000013" class="node">
<title>Node13</title>
<g id="a_Node000013"><a target="_parent" xlink:href="http://en.cppreference.com/w/cpp/container/deque.html" xlink:title=" ">
<polygon fill="white" stroke="#666666" points="969.5,-590.56 841.5,-590.56 841.5,-571.56 969.5,-571.56 969.5,-590.56"/>
<text text-anchor="middle" x="905.5" y="-578.56" font-family="Helvetica,sans-Serif" font-size="10.00">std::deque&lt; Triangle &gt;</text>
</a>
</g>
</g>
<!-- Node13&#45;&gt;Node6 -->
<g id="edge13_Node000006_Node000013" class="edge">
<title>Node13&#45;&gt;Node6</title>
<g id="a_edge13_Node000006_Node000013"><a xlink:title=" ">
<path fill="none" stroke="#9a32cd" stroke-dasharray="5,2" d="M979.77,-578.42C1038.55,-575.03 1115.32,-567.36 1141,-550.06 1197.27,-512.17 1222.94,-427.37 1230.23,-398.72"/>
<polygon fill="#9a32cd" stroke="#9a32cd" points="979.56,-574.93 969.76,-578.97 979.94,-581.92 979.56,-574.93"/>
</a>
</g>
<text text-anchor="start" x="1047" y="-581.56" font-family="Helvetica,sans-Serif" font-size="10.00" fill="grey">_triangles</text>
</g>
<!-- Node14 -->
<g id="Node000014" class="node">
<title>Node14</title>
<g id="a_Node000014"><a target="_parent" xlink:href="http://en.cppreference.com/w/cpp/container/deque.html" xlink:title=" ">
<polygon fill="white" stroke="#666666" points="979.5,-499.56 831.5,-499.56 831.5,-480.56 979.5,-480.56 979.5,-499.56"/>
<text text-anchor="middle" x="905.5" y="-487.56" font-family="Helvetica,sans-Serif" font-size="10.00">std::deque&lt; Tetrahedron &gt;</text>
</a>
</g>
</g>
<!-- Node14&#45;&gt;Node6 -->
<g id="edge14_Node000006_Node000014" class="edge">
<title>Node14&#45;&gt;Node6</title>
<g id="a_edge14_Node000006_Node000014"><a xlink:title=" ">
<path fill="none" stroke="#9a32cd" stroke-dasharray="5,2" d="M989.54,-499.25C1035.92,-501.07 1093.72,-497.65 1141,-477.06 1180.4,-459.9 1212.87,-417.83 1226.1,-398.75"/>
<polygon fill="#9a32cd" stroke="#9a32cd" points="989.68,-495.76 979.52,-498.78 989.34,-502.75 989.68,-495.76"/>
</a>
</g>
<text text-anchor="start" x="1043" y="-504.56" font-family="Helvetica,sans-Serif" font-size="10.00" fill="grey">_tetrahedra</text>
</g>
<!-- Node15 -->
<g id="Node000015" class="node">
<title>Node15</title>
<g id="a_Node000015"><a target="_parent" xlink:href="http://en.cppreference.com/w/cpp/container/vector.html" xlink:title=" ">
<polygon fill="white" stroke="#666666" points="969.5,-462.56 841.5,-462.56 841.5,-443.56 969.5,-443.56 969.5,-462.56"/>
<text text-anchor="middle" x="905.5" y="-450.56" font-family="Helvetica,sans-Serif" font-size="10.00">std::vector&lt; PtrData &gt;</text>
</a>
</g>
</g>
<!-- Node15&#45;&gt;Node6 -->
<g id="edge15_Node000006_Node000015" class="edge">
<title>Node15&#45;&gt;Node6</title>
<g id="a_edge15_Node000006_Node000015"><a xlink:title=" ">
<path fill="none" stroke="#9a32cd" stroke-dasharray="5,2" d="M979.81,-456.84C1026.76,-457.28 1088.51,-454.15 1141,-439.06 1171.1,-430.41 1202.3,-410.62 1219.37,-398.69"/>
<polygon fill="#9a32cd" stroke="#9a32cd" points="979.77,-453.34 969.72,-456.69 979.66,-460.34 979.77,-453.34"/>
</a>
</g>
<text text-anchor="start" x="1057" y="-461.56" font-family="Helvetica,sans-Serif" font-size="10.00" fill="grey">_data</text>
</g>
<!-- Node16 -->
<g id="Node000016" class="node">
<title>Node16</title>
<g id="a_Node000016"><a target="_parent" xlink:href="http://en.cppreference.com/w/cpp/container/map.html" xlink:title=" ">
<polygon fill="white" stroke="#666666" points="970,-425.06 841,-425.06 841,-395.06 970,-395.06 970,-425.06"/>
<text text-anchor="start" x="849" y="-413.06" font-family="Helvetica,sans-Serif" font-size="10.00">std::map&lt; Rank, std</text>
<text text-anchor="middle" x="905.5" y="-402.06" font-family="Helvetica,sans-Serif" font-size="10.00">::vector&lt; VertexID &gt; &gt;</text>
</a>
</g>
</g>
<!-- Node16&#45;&gt;Node6 -->
<g id="edge16_Node000006_Node000016" class="edge">
<title>Node16&#45;&gt;Node6</title>
<g id="a_edge16_Node000006_Node000016"><a xlink:title=" ">
<path fill="none" stroke="#9a32cd" stroke-dasharray="5,2" d="M980.12,-405.32C1039.03,-401.52 1120.5,-396.28 1174.77,-392.78"/>
<polygon fill="#9a32cd" stroke="#9a32cd" points="979.88,-401.83 970.13,-405.96 980.33,-408.81 979.88,-401.83"/>
</a>
</g>
<text text-anchor="start" x="1020" y="-424.06" font-family="Helvetica,sans-Serif" font-size="10.00" fill="grey">_communicationMap</text>
<text text-anchor="start" x="1020" y="-409.06" font-family="Helvetica,sans-Serif" font-size="10.00" fill="grey">_vertexDistribution</text>
</g>
<!-- Node17 -->
<g id="Node000017" class="node">
<title>Node17</title>
<g id="a_Node000017"><a target="_parent" xlink:href="http://en.cppreference.com/w/cpp/container/vector.html" xlink:title=" ">
<polygon fill="white" stroke="#666666" points="957.5,-338.56 853.5,-338.56 853.5,-319.56 957.5,-319.56 957.5,-338.56"/>
<text text-anchor="middle" x="905.5" y="-326.56" font-family="Helvetica,sans-Serif" font-size="10.00">std::vector&lt; int &gt;</text>
</a>
</g>
</g>
<!-- Node17&#45;&gt;Node6 -->
<g id="edge17_Node000006_Node000017" class="edge">
<title>Node17&#45;&gt;Node6</title>
<g id="a_edge17_Node000006_Node000017"><a xlink:title=" ">
<path fill="none" stroke="#9a32cd" stroke-dasharray="5,2" d="M967.93,-326.96C1015.84,-326.81 1083.66,-329.92 1141,-345.06 1169.46,-352.58 1199.73,-369.01 1217.33,-379.53"/>
<polygon fill="#9a32cd" stroke="#9a32cd" points="967.69,-323.46 957.72,-327.04 967.74,-330.46 967.69,-323.46"/>
</a>
</g>
<text text-anchor="start" x="1035" y="-350.56" font-family="Helvetica,sans-Serif" font-size="10.00" fill="grey">_vertexOffsets</text>
</g>
<!-- Node18 -->
<g id="Node000018" class="node">
<title>Node18</title>
<g id="a_Node000018"><a target="_parent" xlink:href="http://en.cppreference.com/w/cpp/container/vector.html" xlink:title=" ">
<polygon fill="white" stroke="#666666" points="963.5,-298.56 847.5,-298.56 847.5,-279.56 963.5,-279.56 963.5,-298.56"/>
<text text-anchor="middle" x="905.5" y="-286.56" font-family="Helvetica,sans-Serif" font-size="10.00">std::vector&lt; Rank &gt;</text>
</a>
</g>
</g>
<!-- Node18&#45;&gt;Node6 -->
<g id="edge18_Node000006_Node000018" class="edge">
<title>Node18&#45;&gt;Node6</title>
<g id="a_edge18_Node000006_Node000018"><a xlink:title=" ">
<path fill="none" stroke="#9a32cd" stroke-dasharray="5,2" d="M973.95,-282.56C1022.35,-280.55 1088.1,-283.41 1141,-306.06 1179.05,-322.35 1211.74,-361.26 1225.52,-379.42"/>
<polygon fill="#9a32cd" stroke="#9a32cd" points="973.71,-279.06 963.89,-283.05 974.05,-286.05 973.71,-279.06"/>
</a>
</g>
<text text-anchor="start" x="1028" y="-311.56" font-family="Helvetica,sans-Serif" font-size="10.00" fill="grey">_connectedRanks</text>
</g>
<!-- Node19&#45;&gt;Node6 -->
<g id="edge19_Node000006_Node000019" class="edge">
<title>Node19&#45;&gt;Node6</title>
<g id="a_edge19_Node000006_Node000019"><a xlink:title=" ">
<path fill="none" stroke="#9a32cd" stroke-dasharray="5,2" d="M993.38,-366.91C1037.65,-367.53 1092.29,-369.36 1141,-374.06 1154.3,-375.34 1168.59,-377.37 1181.84,-379.53"/>
<polygon fill="#9a32cd" stroke="#9a32cd" points="993.27,-363.41 983.23,-366.79 993.19,-370.41 993.27,-363.41"/>
</a>
</g>
<text text-anchor="start" x="1036" y="-379.56" font-family="Helvetica,sans-Serif" font-size="10.00" fill="grey">_boundingBox</text>
</g>
<!-- Node20&#45;&gt;Node6 -->
<g id="edge21_Node000006_Node000020" class="edge">
<title>Node20&#45;&gt;Node6</title>
<g id="a_edge21_Node000006_Node000020"><a xlink:title=" ">
<path fill="none" stroke="#9a32cd" stroke-dasharray="5,2" d="M1489.81,-516.32C1476.24,-497.82 1452.67,-469.18 1426,-452.06 1382.85,-424.37 1326.37,-407.74 1285.95,-398.58"/>
<polygon fill="#9a32cd" stroke="#9a32cd" points="1486.98,-518.38 1495.64,-524.49 1492.68,-514.32 1486.98,-518.38"/>
</a>
</g>
<text text-anchor="start" x="1360" y="-457.56" font-family="Helvetica,sans-Serif" font-size="10.00" fill="grey">_index</text>
</g>
<!-- Node21 -->
<g id="Node000021" class="node">
<title>Node21</title>
<g id="a_Node000021"><a target="_parent" xlink:href="http://en.cppreference.com/w/cpp/memory/unique_ptr.html" xlink:title=" ">
<polygon fill="white" stroke="#666666" points="1308,-715.06 1159,-715.06 1159,-685.06 1308,-685.06 1308,-715.06"/>
<text text-anchor="start" x="1167" y="-703.06" font-family="Helvetica,sans-Serif" font-size="10.00">std::unique_ptr&lt; precice</text>
<text text-anchor="middle" x="1233.5" y="-692.06" font-family="Helvetica,sans-Serif" font-size="10.00">::query::Index::IndexImpl &gt;</text>
</a>
</g>
</g>
<!-- Node21&#45;&gt;Node20 -->
<g id="edge22_Node000020_Node000021" class="edge">
<title>Node21&#45;&gt;Node20</title>
<g id="a_edge22_Node000020_Node000021"><a xlink:title=" ">
<path fill="none" stroke="#9a32cd" stroke-dasharray="5,2" d="M1318.8,-706.54C1354.58,-705.31 1395.08,-698.26 1426,-677.06 1474.23,-644 1494.26,-570.26 1500.07,-543.77"/>
<polygon fill="#9a32cd" stroke="#9a32cd" points="1318.28,-703.05 1308.35,-706.74 1318.41,-710.05 1318.28,-703.05"/>
</a>
</g>
<text text-anchor="start" x="1359" y="-711.56" font-family="Helvetica,sans-Serif" font-size="10.00" fill="grey">_pimpl</text>
</g>
<!-- Node22 -->
<g id="Node000022" class="node">
<title>Node22</title>
<g id="a_Node000022"><a xlink:href="classprecice_1_1query_1_1Index_1_1IndexImpl.html" target="_top" xlink:title=" ">
<polygon fill="white" stroke="#666666" points="964.5,-715.06 846.5,-715.06 846.5,-685.06 964.5,-685.06 964.5,-715.06"/>
<text text-anchor="start" x="854.5" y="-703.06" font-family="Helvetica,sans-Serif" font-size="10.00">precice::query::Index</text>
<text text-anchor="middle" x="905.5" y="-692.06" font-family="Helvetica,sans-Serif" font-size="10.00">::IndexImpl</text>
</a>
</g>
</g>
<!-- Node22&#45;&gt;Node21 -->
<g id="edge23_Node000021_Node000022" class="edge">
<title>Node22&#45;&gt;Node21</title>
<g id="a_edge23_Node000021_Node000022"><a xlink:title=" ">
<path fill="none" stroke="#9a32cd" stroke-dasharray="5,2" d="M974.91,-700.06C1028.72,-700.06 1103.56,-700.06 1158.7,-700.06"/>
<polygon fill="#9a32cd" stroke="#9a32cd" points="974.78,-696.56 964.78,-700.06 974.78,-703.56 974.78,-696.56"/>
</a>
</g>
<text text-anchor="start" x="1064" y="-705.56" font-family="Helvetica,sans-Serif" font-size="10.00" fill="grey">ptr</text>
</g>
<!-- Node23 -->
<g id="Node000023" class="node">
<title>Node23</title>
<g id="a_Node000023"><a xlink:href="structprecice_1_1query_1_1MeshIndices.html" target="_top" xlink:title=" ">
<polygon fill="white" stroke="#666666" points="740,-709.56 588,-709.56 588,-690.56 740,-690.56 740,-709.56"/>
<text text-anchor="middle" x="664" y="-697.56" font-family="Helvetica,sans-Serif" font-size="10.00">precice::query::MeshIndices</text>
</a>
</g>
</g>
<!-- Node23&#45;&gt;Node22 -->
<g id="edge24_Node000022_Node000023" class="edge">
<title>Node23&#45;&gt;Node22</title>
<g id="a_edge24_Node000022_Node000023"><a xlink:title=" ">
<path fill="none" stroke="#9a32cd" stroke-dasharray="5,2" d="M750.32,-700.06C782.15,-700.06 817.53,-700.06 846.36,-700.06"/>
<polygon fill="#9a32cd" stroke="#9a32cd" points="750.12,-696.56 740.12,-700.06 750.12,-703.56 750.12,-696.56"/>
</a>
</g>
<text text-anchor="start" x="767" y="-705.56" font-family="Helvetica,sans-Serif" font-size="10.00" fill="grey">indices</text>
</g>
<!-- Node24 -->
<g id="Node000024" class="node">
<title>Node24</title>
<g id="a_Node000024"><a target="_parent" xlink:href="http://en.cppreference.com/w/cpp/container/vector.html" xlink:title=" ">
<polygon fill="white" stroke="#666666" points="1293.5,-82.06 1173.5,-82.06 1173.5,-52.06 1293.5,-52.06 1293.5,-82.06"/>
<text text-anchor="start" x="1181.5" y="-70.06" font-family="Helvetica,sans-Serif" font-size="10.00">std::vector&lt; precice</text>
<text text-anchor="middle" x="1233.5" y="-59.06" font-family="Helvetica,sans-Serif" font-size="10.00">::io::Export::Record &gt;</text>
</a>
</g>
</g>
<!-- Node24&#45;&gt;Node3 -->
<g id="edge27_Node000003_Node000024" class="edge">
<title>Node24&#45;&gt;Node3</title>
<g id="a_edge27_Node000003_Node000024"><a xlink:title=" ">
<path fill="none" stroke="#9a32cd" stroke-dasharray="5,2" d="M1303.72,-71.72C1349.69,-74.81 1409.04,-78.81 1450.78,-81.61"/>
<polygon fill="#9a32cd" stroke="#9a32cd" points="1303.75,-68.21 1293.54,-71.03 1303.28,-75.2 1303.75,-68.21"/>
</a>
</g>
<text text-anchor="start" x="1355" y="-85.56" font-family="Helvetica,sans-Serif" font-size="10.00" fill="grey">_records</text>
</g>
<!-- Node25&#45;&gt;Node24 -->
<g id="edge28_Node000024_Node000025" class="edge">
<title>Node25&#45;&gt;Node24</title>
<g id="a_edge28_Node000024_Node000025"><a xlink:title=" ">
<path fill="none" stroke="#9a32cd" stroke-dasharray="5,2" d="M968.07,-45.97C1026.95,-50.67 1115.12,-57.7 1173.22,-62.33"/>
<polygon fill="#9a32cd" stroke="#9a32cd" points="968.04,-42.46 957.8,-45.15 967.49,-49.44 968.04,-42.46"/>
</a>
</g>
<text text-anchor="start" x="1048" y="-65.56" font-family="Helvetica,sans-Serif" font-size="10.00" fill="grey">elements</text>
</g>
<!-- Node26&#45;&gt;Node2 -->
<g id="edge31_Node000002_Node000026" class="edge">
<title>Node26&#45;&gt;Node2</title>
<g id="a_edge31_Node000002_Node000026"><a xlink:title=" ">
<path fill="none" stroke="#9a32cd" stroke-dasharray="5,2" d="M1151.53,-106.21C1223.3,-111.85 1331.76,-120.58 1426,-129.06 1484.67,-134.34 1551.53,-140.96 1598.81,-145.74"/>
<polygon fill="#9a32cd" stroke="#9a32cd" points="1151.46,-102.69 1141.22,-105.4 1150.91,-109.67 1151.46,-102.69"/>
</a>
</g>
<text text-anchor="start" x="1329" y="-150.06" font-family="Helvetica,sans-Serif" font-size="10.00" fill="grey">_scalarDataNames</text>
<text text-anchor="start" x="1329" y="-135.06" font-family="Helvetica,sans-Serif" font-size="10.00" fill="grey">_vectorDataNames</text>
</g>
</g>
</svg>

<g id="navigator" transform="translate(0 0)" fill="#404254">
  <rect fill="#f2f5e9" fill-opacity="0.5" stroke="#606060" stroke-width=".5" x="0" y="0" width="60" height="60"/>
  <use id="zoomplus" xlink:href="#zoomPlus" x="17" y="9" onmousedown="handleZoom(evt,'in')"/>
  <use id="zoomminus" xlink:href="#zoomMin" x="42" y="9" onmousedown="handleZoom(evt,'out')"/>
  <use id="reset" xlink:href="#resetDef" x="30" y="36" onmousedown="handleReset()"/>
   <use id="arrowup" xlink:href="#arrowUp" x="0" y="0" onmousedown="handlePan(0,-1)"/>
  <use id="arrowright" xlink:href="#arrowRight" x="0" y="0" onmousedown="handlePan(1,0)"/>
  <use id="arrowdown" xlink:href="#arrowDown" x="0" y="0" onmousedown="handlePan(0,1)"/>
  <use id="arrowleft" xlink:href="#arrowLeft" x="0" y="0" onmousedown="handlePan(-1,0)"/>
</g>
<svg viewBox="0 0 15 15" width="100%" height="30px" preserveAspectRatio="xMaxYMin meet">
 <g id="arrow_out" transform="scale(0.3 0.3)">
  <a xlink:href="classprecice_1_1io_1_1ExportVTU__coll__graph_org.svg" target="_base">
   <rect id="button" ry="5" rx="5" y="6" x="6" height="38" width="38"
        fill="#f2f5e9" fill-opacity="0.5" stroke="#606060" stroke-width="1.0"/>
   <path id="arrow"
     d="M 11.500037,31.436501 C 11.940474,20.09759 22.043105,11.32322 32.158766,21.979434 L 37.068811,17.246167 C 37.068811,17.246167 37.088388,32 37.088388,32 L 22.160133,31.978069 C 22.160133,31.978069 26.997745,27.140456 26.997745,27.140456 C 18.528582,18.264221 13.291696,25.230495 11.500037,31.436501 z"
     style="fill:#404040;"/>
  </a>
 </g>
</svg>

<style type='text/css'>
<![CDATA[
[data-mouse-over-selected='false'] { opacity: 0.7; }
[data-mouse-over-selected='true']  { opacity: 1.0; }
]]>
</style>
<script type="application/ecmascript"><![CDATA[
document.addEventListener('DOMContentLoaded', (event) => {
  highlightEdges();
  highlightAdjacentNodes();
});
]]></script>
</svg>
