<?xml version="1.0" encoding="UTF-8" standalone="no"?>
<!DOCTYPE svg PUBLIC "-//W3C//DTD SVG 1.1//EN"
 "http://www.w3.org/Graphics/SVG/1.1/DTD/svg11.dtd">
<!-- Generated by graphviz version 2.43.0 (0)
 -->
<!-- Title: precice::config::ParticipantConfiguration Pages: 1 -->
<!--zoomable 517 -->

<svg id="main" version="1.1" xmlns="http://www.w3.org/2000/svg" xmlns:xlink="http://www.w3.org/1999/xlink" xml:space="preserve" onload="init(evt)">
<style type="text/css"><![CDATA[
.node, .edge {opacity: 0.7;}
.node.selected, .edge.selected {opacity: 1;}
.edge:hover path { stroke: red; }
.edge:hover polygon { stroke: red; fill: red; }
]]></style>

<defs>
  <circle id="rim" cx="0" cy="0" r="7"/>
  <circle id="rim2" cx="0" cy="0" r="3.5"/>
  <g id="zoomPlus">
    <use xlink:href="#rim" fill="#404040"><set attributeName="fill" to="#808080" begin="zoomplus.mouseover" end="zoomplus.mouseout"/></use>
    <path d="M-4,0h8M0,-4v8" fill="none" stroke="white" stroke-width="1.5" pointer-events="none"/>
  </g>
  <g id="zoomMin">
    <use xlink:href="#rim" fill="#404040"><set attributeName="fill" to="#808080" begin="zoomminus.mouseover" end="zoomminus.mouseout"/></use>
    <path d="M-4,0h8" fill="none" stroke="white" stroke-width="1.5" pointer-events="none"/>
  </g>
  <g id="arrowUp" transform="translate(30 24)">
    <use xlink:href="#rim"/>
    <path pointer-events="none" fill="none" stroke="white" stroke-width="1.5" d="M0,-3.0v7 M-2.5,-0.5L0,-3.0L2.5,-0.5"/>
  </g>
  <g id="arrowRight" transform="rotate(90) translate(36 -43)">
    <use xlink:href="#rim"/>
    <path pointer-events="none" fill="none" stroke="white" stroke-width="1.5" d="M0,-3.0v7 M-2.5,-0.5L0,-3.0L2.5,-0.5"/>
  </g>
  <g id="arrowDown" transform="rotate(180) translate(-30 -48)">
    <use xlink:href="#rim"/>
    <path pointer-events="none" fill="none" stroke="white" stroke-width="1.5" d="M0,-3.0v7 M-2.5,-0.5L0,-3.0L2.5,-0.5"/>
  </g>
  <g id="arrowLeft" transform="rotate(270) translate(-36 17)">
    <use xlink:href="#rim"/>
    <path pointer-events="none" fill="none" stroke="white" stroke-width="1.5" d="M0,-3.0v7 M-2.5,-0.5L0,-3.0L2.5,-0.5"/>
  </g>
  <g id="resetDef">
    <use xlink:href="#rim2" fill="#404040"><set attributeName="fill" to="#808080" begin="reset.mouseover" end="reset.mouseout"/></use>
  </g>
</defs>
<script type="application/ecmascript">
var viewWidth = 1260;
var viewHeight = 517;
var sectionId = 'dynsection-1';
</script>
<script type="application/ecmascript" xlink:href="svg.min.js"/>
<svg id="graph" class="graph">
<g id="viewport">
<title>precice::config::ParticipantConfiguration</title>
<!-- Node1 -->
<g id="Node000001" class="node">
<title>Node1</title>
<g id="a_Node000001"><a xlink:title="Performs XML configuration of a participant.">
<polygon fill="#999999" stroke="#666666" points="1252,-220 1107,-220 1107,-190 1252,-190 1252,-220"/>
<text text-anchor="start" x="1115" y="-208" font-family="Helvetica,sans-Serif" font-size="10.00">precice::config::Participant</text>
<text text-anchor="middle" x="1179.5" y="-197" font-family="Helvetica,sans-Serif" font-size="10.00">Configuration</text>
</a>
</g>
</g>
<!-- Node2 -->
<g id="Node000002" class="node">
<title>Node2</title>
<g id="a_Node000002"><a xlink:href="structprecice_1_1xml_1_1XMLTag_1_1Listener.html" target="_top" xlink:title="Callback interface for configuration classes using XMLTag.">
<polygon fill="white" stroke="#666666" points="914,-433 795,-433 795,-403 914,-403 914,-433"/>
<text text-anchor="start" x="803" y="-421" font-family="Helvetica,sans-Serif" font-size="10.00">precice::xml::XMLTag</text>
<text text-anchor="middle" x="854.5" y="-410" font-family="Helvetica,sans-Serif" font-size="10.00">::Listener</text>
</a>
</g>
</g>
<!-- Node2&#45;&gt;Node1 -->
<g id="edge1_Node000001_Node000002" class="edge">
<title>Node2&#45;&gt;Node1</title>
<g id="a_edge1_Node000001_Node000002"><a xlink:title=" ">
<path fill="none" stroke="#63b8ff" d="M924.32,-428.92C974.4,-433.07 1041.47,-430.37 1089,-397 1150.4,-353.89 1170.78,-257.56 1176.52,-220.21"/>
<polygon fill="#63b8ff" stroke="#63b8ff" points="924.51,-425.42 914.23,-427.97 923.86,-432.39 924.51,-425.42"/>
</a>
</g>
</g>
<!-- Node3 -->
<g id="Node000003" class="node">
<title>Node3</title>
<g id="a_Node000003"><a xlink:href="classprecice_1_1logging_1_1Logger.html" target="_top" xlink:title="This class provides a lightweight logger.">
<polygon fill="white" stroke="#666666" points="921,-384.5 788,-384.5 788,-365.5 921,-365.5 921,-384.5"/>
<text text-anchor="middle" x="854.5" y="-372.5" font-family="Helvetica,sans-Serif" font-size="10.00">precice::logging::Logger</text>
</a>
</g>
</g>
<!-- Node3&#45;&gt;Node1 -->
<g id="edge2_Node000001_Node000003" class="edge">
<title>Node3&#45;&gt;Node1</title>
<g id="a_edge2_Node000001_Node000003"><a xlink:title=" ">
<path fill="none" stroke="#9a32cd" stroke-dasharray="5,2" d="M931.33,-383.62C979.92,-385.38 1042.39,-380.33 1089,-351 1138.32,-319.97 1164.58,-250.87 1174.18,-220.19"/>
<polygon fill="#9a32cd" stroke="#9a32cd" points="931.33,-380.11 921.18,-383.14 931,-387.1 931.33,-380.11"/>
</a>
</g>
<text text-anchor="middle" x="1033" y="-385" font-family="Helvetica,sans-Serif" font-size="10.00" fill="grey"> _log</text>
</g>
<!-- Node4 -->
<g id="Node000004" class="node">
<title>Node4</title>
<g id="a_Node000004"><a target="_parent" xlink:href="http://en.cppreference.com/w/cpp/memory/unique_ptr.html" xlink:title=" ">
<polygon fill="white" stroke="#666666" points="561,-496 391,-496 391,-466 561,-466 561,-496"/>
<text text-anchor="start" x="399" y="-484" font-family="Helvetica,sans-Serif" font-size="10.00">std::unique_ptr&lt; precice</text>
<text text-anchor="middle" x="476" y="-473" font-family="Helvetica,sans-Serif" font-size="10.00">::logging::Logger::LoggerImpl &gt;</text>
</a>
</g>
</g>
<!-- Node4&#45;&gt;Node3 -->
<g id="edge3_Node000003_Node000004" class="edge">
<title>Node4&#45;&gt;Node3</title>
<g id="a_edge3_Node000003_Node000004"><a xlink:title=" ">
<path fill="none" stroke="#9a32cd" stroke-dasharray="5,2" d="M567.07,-496.92C620.74,-501.15 686.97,-496.42 732,-459 755.05,-439.84 727.89,-414.24 750,-394 760.45,-384.44 774.05,-378.93 787.95,-375.89"/>
<polygon fill="#9a32cd" stroke="#9a32cd" points="567.13,-493.42 556.86,-496 566.5,-500.39 567.13,-493.42"/>
</a>
</g>
<text text-anchor="middle" x="659.5" y="-501" font-family="Helvetica,sans-Serif" font-size="10.00" fill="grey"> _impl</text>
</g>
<!-- Node5 -->
<g id="Node000005" class="node">
<title>Node5</title>
<g id="a_Node000005"><a xlink:href="classprecice_1_1logging_1_1Logger_1_1LoggerImpl.html" target="_top" xlink:title=" ">
<polygon fill="white" stroke="#666666" points="292,-496 159,-496 159,-466 292,-466 292,-496"/>
<text text-anchor="start" x="167" y="-484" font-family="Helvetica,sans-Serif" font-size="10.00">precice::logging::Logger</text>
<text text-anchor="middle" x="225.5" y="-473" font-family="Helvetica,sans-Serif" font-size="10.00">::LoggerImpl</text>
</a>
</g>
</g>
<!-- Node5&#45;&gt;Node4 -->
<g id="edge4_Node000004_Node000005" class="edge">
<title>Node5&#45;&gt;Node4</title>
<g id="a_edge4_Node000004_Node000005"><a xlink:title=" ">
<path fill="none" stroke="#9a32cd" stroke-dasharray="5,2" d="M302.23,-481C330.18,-481 362.03,-481 390.69,-481"/>
<polygon fill="#9a32cd" stroke="#9a32cd" points="302.12,-477.5 292.12,-481 302.12,-484.5 302.12,-477.5"/>
</a>
</g>
<text text-anchor="middle" x="337.5" y="-484" font-family="Helvetica,sans-Serif" font-size="10.00" fill="grey"> ptr</text>
</g>
<!-- Node6 -->
<g id="Node000006" class="node">
<title>Node6</title>
<g id="a_Node000006"><a xlink:title=" ">
<polygon fill="white" stroke="#666666" points="122,-496 0,-496 0,-466 122,-466 122,-496"/>
<text text-anchor="start" x="8" y="-484" font-family="Helvetica,sans-Serif" font-size="10.00">BoostLogger&lt; Logger</text>
<text text-anchor="middle" x="61" y="-473" font-family="Helvetica,sans-Serif" font-size="10.00">::LoggerImpl &gt;</text>
</a>
</g>
</g>
<!-- Node6&#45;&gt;Node5 -->
<g id="edge5_Node000005_Node000006" class="edge">
<title>Node6&#45;&gt;Node5</title>
<g id="a_edge5_Node000005_Node000006"><a xlink:title=" ">
<path fill="none" stroke="#63b8ff" d="M132.33,-481C141.17,-481 150.19,-481 158.96,-481"/>
<polygon fill="#63b8ff" stroke="#63b8ff" points="132.05,-477.5 122.05,-481 132.05,-484.5 132.05,-477.5"/>
</a>
</g>
</g>
<!-- Node7 -->
<g id="Node000007" class="node">
<title>Node7</title>
<g id="a_Node000007"><a target="_parent" xlink:href="http://en.cppreference.com/w/cpp/string/basic_string.html" xlink:title=" ">
<polygon fill="white" stroke="#666666" points="258,-297.5 193,-297.5 193,-278.5 258,-278.5 258,-297.5"/>
<text text-anchor="middle" x="225.5" y="-285.5" font-family="Helvetica,sans-Serif" font-size="10.00">std::string</text>
</a>
</g>
</g>
<!-- Node7&#45;&gt;Node1 -->
<g id="edge6_Node000001_Node000007" class="edge">
<title>Node7&#45;&gt;Node1</title>
<g id="a_edge6_Node000001_Node000007"><a xlink:title=" ">
<path fill="none" stroke="#9a32cd" stroke-dasharray="5,2" d="M260.37,-301.02C275.34,-306.13 293.3,-311.38 310,-314 452.49,-336.33 816.53,-340.44 959,-318 1018.98,-308.55 1035.47,-304.66 1089,-276 1117.5,-260.74 1145.99,-236.13 1162.93,-220.26"/>
<polygon fill="#9a32cd" stroke="#9a32cd" points="261.13,-297.58 250.53,-297.54 258.79,-304.18 261.13,-297.58"/>
</a>
</g>
<text text-anchor="middle" x="659.5" y="-445" font-family="Helvetica,sans-Serif" font-size="10.00" fill="grey"> ATTR_ACTION_TYPE</text>
<text text-anchor="middle" x="659.5" y="-434" font-family="Helvetica,sans-Serif" font-size="10.00" fill="grey">ATTR_COMMUNICATION</text>
<text text-anchor="middle" x="659.5" y="-423" font-family="Helvetica,sans-Serif" font-size="10.00" fill="grey">ATTR_CONTEXT</text>
<text text-anchor="middle" x="659.5" y="-412" font-family="Helvetica,sans-Serif" font-size="10.00" fill="grey">ATTR_COORDINATE</text>
<text text-anchor="middle" x="659.5" y="-401" font-family="Helvetica,sans-Serif" font-size="10.00" fill="grey">ATTR_DIRECT_ACCESS</text>
<text text-anchor="middle" x="659.5" y="-390" font-family="Helvetica,sans-Serif" font-size="10.00" fill="grey">ATTR_EXCHANGE_DIRECTORY</text>
<text text-anchor="middle" x="659.5" y="-379" font-family="Helvetica,sans-Serif" font-size="10.00" fill="grey">ATTR_FROM</text>
<text text-anchor="middle" x="659.5" y="-368" font-family="Helvetica,sans-Serif" font-size="10.00" fill="grey">ATTR_GEOMETRIC_FILTER</text>
<text text-anchor="middle" x="659.5" y="-357" font-family="Helvetica,sans-Serif" font-size="10.00" fill="grey">ATTR_LOCAL_OFFSET</text>
<text text-anchor="middle" x="659.5" y="-346" font-family="Helvetica,sans-Serif" font-size="10.00" fill="grey">ATTR_MESH</text>
<text text-anchor="middle" x="659.5" y="-335" font-family="Helvetica,sans-Serif" font-size="10.00" fill="grey">...</text>
</g>
<!-- Node17 -->
<g id="Node000017" class="node">
<title>Node17</title>
<g id="a_Node000017"><a xlink:href="structprecice_1_1config_1_1ParticipantConfiguration_1_1WatchPointConfig.html" target="_top" xlink:title=" ">
<polygon fill="white" stroke="#666666" points="562.5,-303 389.5,-303 389.5,-273 562.5,-273 562.5,-303"/>
<text text-anchor="start" x="397.5" y="-291" font-family="Helvetica,sans-Serif" font-size="10.00">precice::config::Participant</text>
<text text-anchor="middle" x="476" y="-280" font-family="Helvetica,sans-Serif" font-size="10.00">Configuration::WatchPointConfig</text>
</a>
</g>
</g>
<!-- Node7&#45;&gt;Node17 -->
<g id="edge17_Node000017_Node000007" class="edge">
<title>Node7&#45;&gt;Node17</title>
<g id="a_edge17_Node000017_Node000007"><a xlink:title=" ">
<path fill="none" stroke="#9a32cd" stroke-dasharray="5,2" d="M268.41,-288C301.39,-288 348.44,-288 389.31,-288"/>
<polygon fill="#9a32cd" stroke="#9a32cd" points="268.23,-284.5 258.23,-288 268.23,-291.5 268.23,-284.5"/>
</a>
</g>
<text text-anchor="middle" x="337.5" y="-302" font-family="Helvetica,sans-Serif" font-size="10.00" fill="grey"> name</text>
<text text-anchor="middle" x="337.5" y="-291" font-family="Helvetica,sans-Serif" font-size="10.00" fill="grey">nameMesh</text>
</g>
<!-- Node19 -->
<g id="Node000019" class="node">
<title>Node19</title>
<g id="a_Node000019"><a xlink:href="structprecice_1_1config_1_1ParticipantConfiguration_1_1WatchIntegralConfig.html" target="_top" xlink:title=" ">
<polygon fill="white" stroke="#666666" points="569,-250 383,-250 383,-220 569,-220 569,-250"/>
<text text-anchor="start" x="391" y="-238" font-family="Helvetica,sans-Serif" font-size="10.00">precice::config::Participant</text>
<text text-anchor="middle" x="476" y="-227" font-family="Helvetica,sans-Serif" font-size="10.00">Configuration::WatchIntegralConfig</text>
</a>
</g>
</g>
<!-- Node7&#45;&gt;Node19 -->
<g id="edge20_Node000019_Node000007" class="edge">
<title>Node7&#45;&gt;Node19</title>
<g id="a_edge20_Node000019_Node000007"><a xlink:title=" ">
<path fill="none" stroke="#9a32cd" stroke-dasharray="5,2" d="M263.27,-275.34C277.71,-270.68 294.51,-265.66 310,-262 333.45,-256.46 359.03,-251.67 382.91,-247.74"/>
<polygon fill="#9a32cd" stroke="#9a32cd" points="262.1,-272.03 253.69,-278.48 264.28,-278.69 262.1,-272.03"/>
</a>
</g>
<text text-anchor="middle" x="337.5" y="-276" font-family="Helvetica,sans-Serif" font-size="10.00" fill="grey"> name</text>
<text text-anchor="middle" x="337.5" y="-265" font-family="Helvetica,sans-Serif" font-size="10.00" fill="grey">nameMesh</text>
</g>
<!-- Node8 -->
<g id="Node000008" class="node">
<title>Node8</title>
<g id="a_Node000008"><a target="_parent" xlink:href="http://en.cppreference.com/w/cpp/string/basic_string.html" xlink:title=" ">
<polygon fill="white" stroke="#666666" points="113,-303 9,-303 9,-273 113,-273 113,-303"/>
<text text-anchor="start" x="17" y="-291" font-family="Helvetica,sans-Serif" font-size="10.00">std::basic_string&lt;</text>
<text text-anchor="middle" x="61" y="-280" font-family="Helvetica,sans-Serif" font-size="10.00"> Char &gt;</text>
</a>
</g>
</g>
<!-- Node8&#45;&gt;Node7 -->
<g id="edge7_Node000007_Node000008" class="edge">
<title>Node8&#45;&gt;Node7</title>
<g id="a_edge7_Node000007_Node000008"><a xlink:title=" ">
<path fill="none" stroke="#63b8ff" d="M123.69,-288C147.25,-288 173.14,-288 192.78,-288"/>
<polygon fill="#63b8ff" stroke="#63b8ff" points="123.42,-284.5 113.42,-288 123.42,-291.5 123.42,-284.5"/>
</a>
</g>
</g>
<!-- Node9 -->
<g id="Node000009" class="node">
<title>Node9</title>
<g id="a_Node000009"><a target="_parent" xlink:href="http://en.cppreference.com/w/cpp/memory/shared_ptr.html" xlink:title=" ">
<polygon fill="white" stroke="#666666" points="956,-190.5 753,-190.5 753,-171.5 956,-171.5 956,-190.5"/>
<text text-anchor="middle" x="854.5" y="-178.5" font-family="Helvetica,sans-Serif" font-size="10.00">std::shared_ptr&lt; MeshConfiguration &gt;</text>
</a>
</g>
</g>
<!-- Node9&#45;&gt;Node1 -->
<g id="edge8_Node000001_Node000009" class="edge">
<title>Node9&#45;&gt;Node1</title>
<g id="a_edge8_Node000001_Node000009"><a xlink:title=" ">
<path fill="none" stroke="#9a32cd" stroke-dasharray="5,2" d="M966.57,-181.57C1005.38,-182.63 1049.2,-184.78 1089,-189 1094.81,-189.62 1100.81,-190.39 1106.82,-191.26"/>
<polygon fill="#9a32cd" stroke="#9a32cd" points="966.37,-178.07 956.29,-181.31 966.19,-185.06 966.37,-178.07"/>
</a>
</g>
<text text-anchor="middle" x="1033" y="-192" font-family="Helvetica,sans-Serif" font-size="10.00" fill="grey"> _meshConfig</text>
</g>
<!-- Node10 -->
<g id="Node000010" class="node">
<title>Node10</title>
<g id="a_Node000010"><a target="_parent" xlink:href="http://en.cppreference.com/w/cpp/memory/shared_ptr.html" xlink:title=" ">
<polygon fill="white" stroke="#666666" points="926,-153 783,-153 783,-123 926,-123 926,-153"/>
<text text-anchor="start" x="791" y="-141" font-family="Helvetica,sans-Serif" font-size="10.00">std::shared_ptr&lt; Mapping</text>
<text text-anchor="middle" x="854.5" y="-130" font-family="Helvetica,sans-Serif" font-size="10.00">Configuration &gt;</text>
</a>
</g>
</g>
<!-- Node10&#45;&gt;Node1 -->
<g id="edge9_Node000001_Node000010" class="edge">
<title>Node10&#45;&gt;Node1</title>
<g id="a_edge9_Node000001_Node000010"><a xlink:title=" ">
<path fill="none" stroke="#9a32cd" stroke-dasharray="5,2" d="M936.36,-141.88C981.83,-145.5 1039.27,-152.5 1089,-166 1110.1,-171.73 1132.66,-181.59 1149.85,-189.96"/>
<polygon fill="#9a32cd" stroke="#9a32cd" points="936.49,-138.38 926.25,-141.12 935.96,-145.36 936.49,-138.38"/>
</a>
</g>
<text text-anchor="middle" x="1033" y="-169" font-family="Helvetica,sans-Serif" font-size="10.00" fill="grey"> _mappingConfig</text>
</g>
<!-- Node11 -->
<g id="Node000011" class="node">
<title>Node11</title>
<g id="a_Node000011"><a target="_parent" xlink:href="http://en.cppreference.com/w/cpp/memory/shared_ptr.html" xlink:title=" ">
<polygon fill="white" stroke="#666666" points="958.5,-104.5 750.5,-104.5 750.5,-85.5 958.5,-85.5 958.5,-104.5"/>
<text text-anchor="middle" x="854.5" y="-92.5" font-family="Helvetica,sans-Serif" font-size="10.00">std::shared_ptr&lt; ActionConfiguration &gt;</text>
</a>
</g>
</g>
<!-- Node11&#45;&gt;Node1 -->
<g id="edge10_Node000001_Node000011" class="edge">
<title>Node11&#45;&gt;Node1</title>
<g id="a_edge10_Node000001_Node000011"><a xlink:title=" ">
<path fill="none" stroke="#9a32cd" stroke-dasharray="5,2" d="M968.76,-100.16C1008.13,-105.11 1051.74,-114.27 1089,-131 1119.9,-144.87 1148.79,-172.41 1165,-189.7"/>
<polygon fill="#9a32cd" stroke="#9a32cd" points="968.92,-96.66 958.58,-98.96 968.1,-103.61 968.92,-96.66"/>
</a>
</g>
<text text-anchor="middle" x="1033" y="-134" font-family="Helvetica,sans-Serif" font-size="10.00" fill="grey"> _actionConfig</text>
</g>
<!-- Node12 -->
<g id="Node000012" class="node">
<title>Node12</title>
<g id="a_Node000012"><a target="_parent" xlink:href="http://en.cppreference.com/w/cpp/memory/shared_ptr.html" xlink:title=" ">
<polygon fill="white" stroke="#666666" points="959,-67.5 750,-67.5 750,-48.5 959,-48.5 959,-67.5"/>
<text text-anchor="middle" x="854.5" y="-55.5" font-family="Helvetica,sans-Serif" font-size="10.00">std::shared_ptr&lt; ExportConfiguration &gt;</text>
</a>
</g>
</g>
<!-- Node12&#45;&gt;Node1 -->
<g id="edge11_Node000001_Node000012" class="edge">
<title>Node12&#45;&gt;Node1</title>
<g id="a_edge11_Node000001_Node000012"><a xlink:title=" ">
<path fill="none" stroke="#9a32cd" stroke-dasharray="5,2" d="M969.14,-53.71C1009.23,-56.68 1053.21,-65.38 1089,-86 1131.34,-110.39 1159.94,-163.63 1172.02,-189.82"/>
<polygon fill="#9a32cd" stroke="#9a32cd" points="969.23,-50.21 959.03,-53.07 968.79,-57.2 969.23,-50.21"/>
</a>
</g>
<text text-anchor="middle" x="1033" y="-89" font-family="Helvetica,sans-Serif" font-size="10.00" fill="grey"> _exportConfig</text>
</g>
<!-- Node13 -->
<g id="Node000013" class="node">
<title>Node13</title>
<g id="a_Node000013"><a target="_parent" xlink:href="http://en.cppreference.com/w/cpp/container/vector.html" xlink:title=" ">
<polygon fill="white" stroke="#666666" points="921.5,-30 787.5,-30 787.5,0 921.5,0 921.5,-30"/>
<text text-anchor="start" x="795.5" y="-18" font-family="Helvetica,sans-Serif" font-size="10.00">std::vector&lt; std::shared</text>
<text text-anchor="middle" x="854.5" y="-7" font-family="Helvetica,sans-Serif" font-size="10.00">_ptr &gt;</text>
</a>
</g>
</g>
<!-- Node13&#45;&gt;Node1 -->
<g id="edge12_Node000001_Node000013" class="edge">
<title>Node13&#45;&gt;Node1</title>
<g id="a_edge12_Node000001_Node000013"><a xlink:title=" ">
<path fill="none" stroke="#9a32cd" stroke-dasharray="5,2" d="M931.88,-5.53C980.71,-3.41 1043.22,-8.39 1089,-39 1143.44,-75.4 1167.44,-156.24 1175.34,-189.87"/>
<polygon fill="#9a32cd" stroke="#9a32cd" points="931.48,-2.05 921.68,-6.08 931.86,-9.03 931.48,-2.05"/>
</a>
</g>
<text text-anchor="middle" x="1033" y="-42" font-family="Helvetica,sans-Serif" font-size="10.00" fill="grey"> _participants</text>
</g>
<!-- Node14 -->
<g id="Node000014" class="node">
<title>Node14</title>
<g id="a_Node000014"><a target="_parent" xlink:href="http://en.cppreference.com/w/cpp/memory/shared_ptr.html" xlink:title=" ">
<polygon fill="white" stroke="#666666" points="535,-24.5 417,-24.5 417,-5.5 535,-5.5 535,-24.5"/>
<text text-anchor="middle" x="476" y="-12.5" font-family="Helvetica,sans-Serif" font-size="10.00">std::shared_ptr&lt; T &gt;</text>
</a>
</g>
</g>
<!-- Node14&#45;&gt;Node13 -->
<g id="edge13_Node000013_Node000014" class="edge">
<title>Node14&#45;&gt;Node13</title>
<g id="a_edge13_Node000013_Node000014"><a xlink:title=" ">
<path fill="none" stroke="#9a32cd" stroke-dasharray="5,2" d="M545.28,-15C613.97,-15 719.2,-15 787.18,-15"/>
<polygon fill="#9a32cd" stroke="#9a32cd" points="545,-11.5 535,-15 545,-18.5 545,-11.5"/>
</a>
</g>
<text text-anchor="middle" x="659.5" y="-18" font-family="Helvetica,sans-Serif" font-size="10.00" fill="grey"> elements</text>
</g>
<!-- Node15 -->
<g id="Node000015" class="node">
<title>Node15</title>
<g id="a_Node000015"><a xlink:title=" ">
<polygon fill="white" stroke="#666666" points="240,-24.5 211,-24.5 211,-5.5 240,-5.5 240,-24.5"/>
<text text-anchor="middle" x="225.5" y="-12.5" font-family="Helvetica,sans-Serif" font-size="10.00">T</text>
</a>
</g>
</g>
<!-- Node15&#45;&gt;Node14 -->
<g id="edge14_Node000014_Node000015" class="edge">
<title>Node15&#45;&gt;Node14</title>
<g id="a_edge14_Node000014_Node000015"><a xlink:title=" ">
<path fill="none" stroke="#9a32cd" stroke-dasharray="5,2" d="M250.33,-15C288.37,-15 363.93,-15 416.88,-15"/>
<polygon fill="#9a32cd" stroke="#9a32cd" points="250.21,-11.5 240.21,-15 250.21,-18.5 250.21,-11.5"/>
</a>
</g>
<text text-anchor="middle" x="337.5" y="-18" font-family="Helvetica,sans-Serif" font-size="10.00" fill="grey"> ptr</text>
</g>
<!-- Node16 -->
<g id="Node000016" class="node">
<title>Node16</title>
<g id="a_Node000016"><a target="_parent" xlink:href="http://en.cppreference.com/w/cpp/container/vector.html" xlink:title=" ">
<polygon fill="white" stroke="#666666" points="942,-308.5 767,-308.5 767,-267.5 942,-267.5 942,-308.5"/>
<text text-anchor="start" x="775" y="-296.5" font-family="Helvetica,sans-Serif" font-size="10.00">std::vector&lt; precice</text>
<text text-anchor="start" x="775" y="-285.5" font-family="Helvetica,sans-Serif" font-size="10.00">::config::ParticipantConfiguration</text>
<text text-anchor="middle" x="854.5" y="-274.5" font-family="Helvetica,sans-Serif" font-size="10.00">::WatchPointConfig &gt;</text>
</a>
</g>
</g>
<!-- Node16&#45;&gt;Node1 -->
<g id="edge15_Node000001_Node000016" class="edge">
<title>Node16&#45;&gt;Node1</title>
<g id="a_edge15_Node000001_Node000016"><a xlink:title=" ">
<path fill="none" stroke="#9a32cd" stroke-dasharray="5,2" d="M952.17,-267.6C994.39,-258.19 1044.36,-246.37 1089,-234 1103.95,-229.86 1120.13,-224.79 1134.57,-220.07"/>
<polygon fill="#9a32cd" stroke="#9a32cd" points="951.17,-264.24 942.17,-269.82 952.69,-271.07 951.17,-264.24"/>
</a>
</g>
<text text-anchor="middle" x="1033" y="-264" font-family="Helvetica,sans-Serif" font-size="10.00" fill="grey"> _watchPointConfigs</text>
</g>
<!-- Node17&#45;&gt;Node16 -->
<g id="edge16_Node000016_Node000017" class="edge">
<title>Node17&#45;&gt;Node16</title>
<g id="a_edge16_Node000016_Node000017"><a xlink:title=" ">
<path fill="none" stroke="#9a32cd" stroke-dasharray="5,2" d="M573.11,-288C632.88,-288 709.1,-288 766.99,-288"/>
<polygon fill="#9a32cd" stroke="#9a32cd" points="572.9,-284.5 562.9,-288 572.9,-291.5 572.9,-284.5"/>
</a>
</g>
<text text-anchor="middle" x="659.5" y="-291" font-family="Helvetica,sans-Serif" font-size="10.00" fill="grey"> elements</text>
</g>
<!-- Node18 -->
<g id="Node000018" class="node">
<title>Node18</title>
<g id="a_Node000018"><a target="_parent" xlink:href="http://en.cppreference.com/w/cpp/container/vector.html" xlink:title=" ">
<polygon fill="white" stroke="#666666" points="942,-249.5 767,-249.5 767,-208.5 942,-208.5 942,-249.5"/>
<text text-anchor="start" x="775" y="-237.5" font-family="Helvetica,sans-Serif" font-size="10.00">std::vector&lt; precice</text>
<text text-anchor="start" x="775" y="-226.5" font-family="Helvetica,sans-Serif" font-size="10.00">::config::ParticipantConfiguration</text>
<text text-anchor="middle" x="854.5" y="-215.5" font-family="Helvetica,sans-Serif" font-size="10.00">::WatchIntegralConfig &gt;</text>
</a>
</g>
</g>
<!-- Node18&#45;&gt;Node1 -->
<g id="edge18_Node000001_Node000018" class="edge">
<title>Node18&#45;&gt;Node1</title>
<g id="a_edge18_Node000001_Node000018"><a xlink:title=" ">
<path fill="none" stroke="#9a32cd" stroke-dasharray="5,2" d="M952.19,-221.82C1001.9,-218.12 1061.45,-213.7 1106.98,-210.31"/>
<polygon fill="#9a32cd" stroke="#9a32cd" points="951.77,-218.34 942.06,-222.57 952.29,-225.32 951.77,-218.34"/>
</a>
</g>
<text text-anchor="middle" x="1033" y="-222" font-family="Helvetica,sans-Serif" font-size="10.00" fill="grey"> _watchIntegralConfigs</text>
</g>
<!-- Node19&#45;&gt;Node18 -->
<g id="edge19_Node000018_Node000019" class="edge">
<title>Node19&#45;&gt;Node18</title>
<g id="a_edge19_Node000018_Node000019"><a xlink:title=" ">
<path fill="none" stroke="#9a32cd" stroke-dasharray="5,2" d="M579.15,-233.37C637.91,-232.44 710.94,-231.27 766.87,-230.38"/>
<polygon fill="#9a32cd" stroke="#9a32cd" points="579.05,-229.87 569.1,-233.53 579.16,-236.87 579.05,-229.87"/>
</a>
</g>
<text text-anchor="middle" x="659.5" y="-236" font-family="Helvetica,sans-Serif" font-size="10.00" fill="grey"> elements</text>
</g>
</g>
</svg>

<g id="navigator" transform="translate(0 0)" fill="#404254">
  <rect fill="#f2f5e9" fill-opacity="0.5" stroke="#606060" stroke-width=".5" x="0" y="0" width="60" height="60"/>
  <use id="zoomplus" xlink:href="#zoomPlus" x="17" y="9" onmousedown="handleZoom(evt,'in')"/>
  <use id="zoomminus" xlink:href="#zoomMin" x="42" y="9" onmousedown="handleZoom(evt,'out')"/>
  <use id="reset" xlink:href="#resetDef" x="30" y="36" onmousedown="handleReset()"/>
   <use id="arrowup" xlink:href="#arrowUp" x="0" y="0" onmousedown="handlePan(0,-1)"/>
  <use id="arrowright" xlink:href="#arrowRight" x="0" y="0" onmousedown="handlePan(1,0)"/>
  <use id="arrowdown" xlink:href="#arrowDown" x="0" y="0" onmousedown="handlePan(0,1)"/>
  <use id="arrowleft" xlink:href="#arrowLeft" x="0" y="0" onmousedown="handlePan(-1,0)"/>
</g>
<svg viewBox="0 0 15 15" width="100%" height="30px" preserveAspectRatio="xMaxYMin meet">
 <g id="arrow_out" transform="scale(0.3 0.3)">
  <a xlink:href="classprecice_1_1config_1_1ParticipantConfiguration__coll__graph_org.svg" target="_base">
   <rect id="button" ry="5" rx="5" y="6" x="6" height="38" width="38"
        fill="#f2f5e9" fill-opacity="0.5" stroke="#606060" stroke-width="1.0"/>
   <path id="arrow"
     d="M 11.500037,31.436501 C 11.940474,20.09759 22.043105,11.32322 32.158766,21.979434 L 37.068811,17.246167 C 37.068811,17.246167 37.088388,32 37.088388,32 L 22.160133,31.978069 C 22.160133,31.978069 26.997745,27.140456 26.997745,27.140456 C 18.528582,18.264221 13.291696,25.230495 11.500037,31.436501 z"
     style="fill:#404040;"/>
  </a>
 </g>
</svg>

<style type='text/css'>
<![CDATA[
[data-mouse-over-selected='false'] { opacity: 0.7; }
[data-mouse-over-selected='true']  { opacity: 1.0; }
]]>
</style>
<script type="application/ecmascript"><![CDATA[
document.addEventListener('DOMContentLoaded', (event) => {
  highlightEdges();
  highlightAdjacentNodes();
});
]]></script>
</svg>
