<?xml version="1.0" encoding="UTF-8" standalone="no"?>
<!DOCTYPE svg PUBLIC "-//W3C//DTD SVG 1.1//EN"
 "http://www.w3.org/Graphics/SVG/1.1/DTD/svg11.dtd">
<!-- Generated by graphviz version 2.43.0 (0)
 -->
<!-- Title: precice::cplscheme::CouplingSchemeConfiguration Pages: 1 -->
<svg width="1932pt" height="685pt"
 viewBox="0.00 0.00 1932.00 685.00" xmlns="http://www.w3.org/2000/svg" xmlns:xlink="http://www.w3.org/1999/xlink">
<g id="graph0" class="graph" transform="scale(1 1) rotate(0) translate(4 681)">
<title>precice::cplscheme::CouplingSchemeConfiguration</title>
<polygon fill="white" stroke="transparent" points="-4,4 -4,-681 1928,-681 1928,4 -4,4"/>
<!-- Node1 -->
<g id="node1" class="node">
<title>Node1</title>
<g id="a_node1"><a xlink:title="Configuration for coupling schemes.">
<polygon fill="#bfbfbf" stroke="black" points="1754,-273.5 1754,-303.5 1924,-303.5 1924,-273.5 1754,-273.5"/>
<text text-anchor="start" x="1762" y="-291.5" font-family="Helvetica,sans-Serif" font-size="10.00">precice::cplscheme</text>
<text text-anchor="middle" x="1839" y="-280.5" font-family="Helvetica,sans-Serif" font-size="10.00">::CouplingSchemeConfiguration</text>
</a>
</g>
</g>
<!-- Node2 -->
<g id="node2" class="node">
<title>Node2</title>
<g id="a_node2"><a xlink:href="structprecice_1_1xml_1_1XMLTag_1_1Listener.html" target="_top" xlink:title="Callback interface for configuration classes using XMLTag.">
<polygon fill="white" stroke="black" points="1401,-646.5 1401,-676.5 1520,-676.5 1520,-646.5 1401,-646.5"/>
<text text-anchor="start" x="1409" y="-664.5" font-family="Helvetica,sans-Serif" font-size="10.00">precice::xml::XMLTag</text>
<text text-anchor="middle" x="1460.5" y="-653.5" font-family="Helvetica,sans-Serif" font-size="10.00">::Listener</text>
</a>
</g>
</g>
<!-- Node2&#45;&gt;Node1 -->
<g id="edge1" class="edge">
<title>Node2&#45;&gt;Node1</title>
<path fill="none" stroke="midnightblue" d="M1530.41,-673.52C1591.39,-680.05 1679.28,-678.82 1736,-631.5 1788.71,-587.52 1826.43,-363.85 1835.76,-303.51"/>
<polygon fill="midnightblue" stroke="midnightblue" points="1530.44,-670 1520.1,-672.32 1529.63,-676.95 1530.44,-670"/>
</g>
<!-- Node3 -->
<g id="node3" class="node">
<title>Node3</title>
<g id="a_node3"><a xlink:title=" ">
<polygon fill="white" stroke="#bfbfbf" points="1366.5,-442 1366.5,-483 1554.5,-483 1554.5,-442 1366.5,-442"/>
<text text-anchor="start" x="1374.5" y="-471" font-family="Helvetica,sans-Serif" font-size="10.00">std::map&lt; std::string,</text>
<text text-anchor="start" x="1374.5" y="-460" font-family="Helvetica,sans-Serif" font-size="10.00"> precice::cplscheme::</text>
<text text-anchor="middle" x="1460.5" y="-449" font-family="Helvetica,sans-Serif" font-size="10.00">CompositionalCouplingScheme * &gt;</text>
</a>
</g>
</g>
<!-- Node3&#45;&gt;Node1 -->
<g id="edge2" class="edge">
<title>Node3&#45;&gt;Node1</title>
<path fill="none" stroke="#9a32cd" stroke-dasharray="5,2" d="M1515.51,-437.54C1594.9,-400.85 1740.68,-333.48 1805.48,-303.53"/>
<polygon fill="#9a32cd" stroke="#9a32cd" points="1513.78,-434.48 1506.17,-441.86 1516.71,-440.84 1513.78,-434.48"/>
<text text-anchor="middle" x="1658" y="-408.5" font-family="Helvetica,sans-Serif" font-size="10.00"> _couplingSchemeCompositions</text>
</g>
<!-- Node4 -->
<g id="node4" class="node">
<title>Node4</title>
<g id="a_node4"><a xlink:title="STL class.">
<polygon fill="white" stroke="#bfbfbf" points="397.5,-247 397.5,-266 462.5,-266 462.5,-247 397.5,-247"/>
<text text-anchor="middle" x="430" y="-254" font-family="Helvetica,sans-Serif" font-size="10.00">std::string</text>
</a>
</g>
</g>
<!-- Node4&#45;&gt;Node1 -->
<g id="edge21" class="edge">
<title>Node4&#45;&gt;Node1</title>
<path fill="none" stroke="#9a32cd" stroke-dasharray="5,2" d="M472.78,-262.35C491.21,-264.8 513.16,-267.52 533,-269.5 656.26,-281.78 687.2,-285.05 811,-289.5 1160.91,-302.07 1578.31,-294.77 1753.76,-290.68"/>
<polygon fill="#9a32cd" stroke="#9a32cd" points="473.03,-258.85 462.65,-260.99 472.1,-265.79 473.03,-258.85"/>
<text text-anchor="middle" x="1066" y="-419.5" font-family="Helvetica,sans-Serif" font-size="10.00"> VALUE_SERIAL_EXPLICIT</text>
<text text-anchor="middle" x="1066" y="-408.5" font-family="Helvetica,sans-Serif" font-size="10.00">ATTR_STRICT</text>
<text text-anchor="middle" x="1066" y="-397.5" font-family="Helvetica,sans-Serif" font-size="10.00">ATTR_NAME</text>
<text text-anchor="middle" x="1066" y="-386.5" font-family="Helvetica,sans-Serif" font-size="10.00">ATTR_EXCHANGE_SUBSTEPS</text>
<text text-anchor="middle" x="1066" y="-375.5" font-family="Helvetica,sans-Serif" font-size="10.00">ATTR_CONTROL</text>
<text text-anchor="middle" x="1066" y="-364.5" font-family="Helvetica,sans-Serif" font-size="10.00">ATTR_LIMIT</text>
<text text-anchor="middle" x="1066" y="-353.5" font-family="Helvetica,sans-Serif" font-size="10.00">TAG_PARTICIPANT</text>
<text text-anchor="start" x="996" y="-342.5" font-family="Helvetica,sans-Serif" font-size="10.00">TAG_ABS_OR_REL_CONV</text>
<text text-anchor="middle" x="1066" y="-331.5" font-family="Helvetica,sans-Serif" font-size="10.00">_MEASURE</text>
<text text-anchor="middle" x="1066" y="-320.5" font-family="Helvetica,sans-Serif" font-size="10.00">VALUE_PARALLEL_EXPLICIT</text>
<text text-anchor="middle" x="1066" y="-309.5" font-family="Helvetica,sans-Serif" font-size="10.00">TAG_MAX_TIME_WINDOWS</text>
<text text-anchor="middle" x="1066" y="-298.5" font-family="Helvetica,sans-Serif" font-size="10.00">...</text>
</g>
<!-- Node4&#45;&gt;Node3 -->
<g id="edge3" class="edge">
<title>Node4&#45;&gt;Node3</title>
<path fill="none" stroke="#9a32cd" stroke-dasharray="5,2" d="M452.51,-272.04C472.48,-285.81 503.49,-305.52 533,-317.5 709.89,-389.34 789.12,-315.28 951,-416.5 961.71,-423.2 957.72,-432.81 969,-438.5 1036.18,-472.37 1243.88,-470.95 1366.41,-466.79"/>
<polygon fill="#9a32cd" stroke="#9a32cd" points="454.36,-269.06 444.16,-266.19 450.34,-274.79 454.36,-269.06"/>
<text text-anchor="middle" x="881" y="-419.5" font-family="Helvetica,sans-Serif" font-size="10.00"> keys</text>
</g>
<!-- Node19 -->
<g id="node19" class="node">
<title>Node19</title>
<g id="a_node19"><a xlink:title=" ">
<polygon fill="white" stroke="#bfbfbf" points="639,-635.5 639,-665.5 765,-665.5 765,-635.5 639,-635.5"/>
<text text-anchor="start" x="647" y="-653.5" font-family="Helvetica,sans-Serif" font-size="10.00">std::map&lt; std::string,</text>
<text text-anchor="middle" x="702" y="-642.5" font-family="Helvetica,sans-Serif" font-size="10.00"> PtrCouplingScheme &gt;</text>
</a>
</g>
</g>
<!-- Node4&#45;&gt;Node19 -->
<g id="edge24" class="edge">
<title>Node4&#45;&gt;Node19</title>
<path fill="none" stroke="#9a32cd" stroke-dasharray="5,2" d="M441.34,-275.45C458.55,-307.58 493.3,-375.16 515,-435.5 525.87,-465.73 514.1,-479.52 533,-505.5 551.57,-531.02 574.92,-517.63 593,-543.5 614.62,-574.44 584.94,-599.19 611,-626.5 618.59,-634.46 628.5,-639.88 638.96,-643.55"/>
<polygon fill="#9a32cd" stroke="#9a32cd" points="444.24,-273.45 436.41,-266.31 438.08,-276.78 444.24,-273.45"/>
<text text-anchor="middle" x="563" y="-546.5" font-family="Helvetica,sans-Serif" font-size="10.00"> keys</text>
</g>
<!-- Node21 -->
<g id="node21" class="node">
<title>Node21</title>
<g id="a_node21"><a xlink:href="structprecice_1_1cplscheme_1_1CouplingSchemeConfiguration_1_1Config.html" target="_top" xlink:title=" ">
<polygon fill="white" stroke="black" points="1375.5,-233 1375.5,-274 1545.5,-274 1545.5,-233 1375.5,-233"/>
<text text-anchor="start" x="1383.5" y="-262" font-family="Helvetica,sans-Serif" font-size="10.00">precice::cplscheme</text>
<text text-anchor="start" x="1383.5" y="-251" font-family="Helvetica,sans-Serif" font-size="10.00">::CouplingSchemeConfiguration</text>
<text text-anchor="middle" x="1460.5" y="-240" font-family="Helvetica,sans-Serif" font-size="10.00">::Config</text>
</a>
</g>
</g>
<!-- Node4&#45;&gt;Node21 -->
<g id="edge32" class="edge">
<title>Node4&#45;&gt;Node21</title>
<path fill="none" stroke="#9a32cd" stroke-dasharray="5,2" d="M473.08,-256.38C627.69,-255.93 1166.16,-254.36 1375.42,-253.75"/>
<polygon fill="#9a32cd" stroke="#9a32cd" points="472.61,-252.88 462.63,-256.41 472.64,-259.88 472.61,-252.88"/>
<text text-anchor="middle" x="881" y="-279.5" font-family="Helvetica,sans-Serif" font-size="10.00"> controller</text>
<text text-anchor="middle" x="881" y="-268.5" font-family="Helvetica,sans-Serif" font-size="10.00">type</text>
<text text-anchor="middle" x="881" y="-257.5" font-family="Helvetica,sans-Serif" font-size="10.00">name</text>
</g>
<!-- Node23 -->
<g id="node23" class="node">
<title>Node23</title>
<g id="a_node23"><a xlink:href="structprecice_1_1cplscheme_1_1CouplingSchemeConfiguration_1_1Config_1_1Exchange.html" target="_top" xlink:title=" ">
<polygon fill="white" stroke="black" points="617,-132 617,-173 787,-173 787,-132 617,-132"/>
<text text-anchor="start" x="625" y="-161" font-family="Helvetica,sans-Serif" font-size="10.00">precice::cplscheme</text>
<text text-anchor="start" x="625" y="-150" font-family="Helvetica,sans-Serif" font-size="10.00">::CouplingSchemeConfiguration</text>
<text text-anchor="middle" x="702" y="-139" font-family="Helvetica,sans-Serif" font-size="10.00">::Config::Exchange</text>
</a>
</g>
</g>
<!-- Node4&#45;&gt;Node23 -->
<g id="edge30" class="edge">
<title>Node4&#45;&gt;Node23</title>
<path fill="none" stroke="#9a32cd" stroke-dasharray="5,2" d="M449.5,-240.35C468.96,-224.24 501.13,-200 533,-186.5 559.31,-175.36 589.51,-167.79 616.98,-162.69"/>
<polygon fill="#9a32cd" stroke="#9a32cd" points="447.12,-237.78 441.74,-246.91 451.64,-243.13 447.12,-237.78"/>
<text text-anchor="middle" x="563" y="-200.5" font-family="Helvetica,sans-Serif" font-size="10.00"> from</text>
<text text-anchor="middle" x="563" y="-189.5" font-family="Helvetica,sans-Serif" font-size="10.00">to</text>
</g>
<!-- Node27 -->
<g id="node27" class="node">
<title>Node27</title>
<g id="a_node27"><a xlink:href="structprecice_1_1cplscheme_1_1CouplingSchemeConfiguration_1_1ConvergenceMeasureDefintion.html" target="_top" xlink:title=" ">
<polygon fill="white" stroke="black" points="615.5,-38 615.5,-79 788.5,-79 788.5,-38 615.5,-38"/>
<text text-anchor="start" x="623.5" y="-67" font-family="Helvetica,sans-Serif" font-size="10.00">precice::cplscheme</text>
<text text-anchor="start" x="623.5" y="-56" font-family="Helvetica,sans-Serif" font-size="10.00">::CouplingSchemeConfiguration</text>
<text text-anchor="middle" x="702" y="-45" font-family="Helvetica,sans-Serif" font-size="10.00">::ConvergenceMeasureDefintion</text>
</a>
</g>
</g>
<!-- Node4&#45;&gt;Node27 -->
<g id="edge37" class="edge">
<title>Node4&#45;&gt;Node27</title>
<path fill="none" stroke="#9a32cd" stroke-dasharray="5,2" d="M450.02,-240C468.18,-223.6 495.59,-197.11 515,-170.5 525.08,-156.69 520.6,-148.27 533,-136.5 560.64,-110.27 598.69,-91.61 631.59,-79.13"/>
<polygon fill="#9a32cd" stroke="#9a32cd" points="447.53,-237.53 442.39,-246.79 452.18,-242.76 447.53,-237.53"/>
<text text-anchor="middle" x="563" y="-139.5" font-family="Helvetica,sans-Serif" font-size="10.00"> meshName</text>
</g>
<!-- Node29 -->
<g id="node29" class="node">
<title>Node29</title>
<g id="a_node29"><a xlink:title=" ">
<polygon fill="white" stroke="#bfbfbf" points="811,-208 811,-227 951,-227 951,-208 811,-208"/>
<text text-anchor="middle" x="881" y="-215" font-family="Helvetica,sans-Serif" font-size="10.00">std::vector&lt; std::string &gt;</text>
</a>
</g>
</g>
<!-- Node4&#45;&gt;Node29 -->
<g id="edge39" class="edge">
<title>Node4&#45;&gt;Node29</title>
<path fill="none" stroke="#9a32cd" stroke-dasharray="5,2" d="M472.63,-244.3C490.98,-239.44 512.89,-234.34 533,-231.5 628.67,-217.98 740.54,-215.9 810.83,-216.24"/>
<polygon fill="#9a32cd" stroke="#9a32cd" points="471.57,-240.96 462.84,-246.96 473.4,-247.71 471.57,-240.96"/>
<text text-anchor="middle" x="563" y="-234.5" font-family="Helvetica,sans-Serif" font-size="10.00"> elements</text>
</g>
<!-- Node5 -->
<g id="node5" class="node">
<title>Node5</title>
<g id="a_node5"><a xlink:title="STL class.">
<polygon fill="white" stroke="#bfbfbf" points="173.5,-241.5 173.5,-271.5 277.5,-271.5 277.5,-241.5 173.5,-241.5"/>
<text text-anchor="start" x="181.5" y="-259.5" font-family="Helvetica,sans-Serif" font-size="10.00">std::basic_string&lt;</text>
<text text-anchor="middle" x="225.5" y="-248.5" font-family="Helvetica,sans-Serif" font-size="10.00"> char &gt;</text>
</a>
</g>
</g>
<!-- Node5&#45;&gt;Node4 -->
<g id="edge4" class="edge">
<title>Node5&#45;&gt;Node4</title>
<path fill="none" stroke="midnightblue" d="M288.01,-256.5C324.04,-256.5 368.05,-256.5 397.21,-256.5"/>
<polygon fill="midnightblue" stroke="midnightblue" points="287.6,-253 277.6,-256.5 287.6,-260 287.6,-253"/>
</g>
<!-- Node6 -->
<g id="node6" class="node">
<title>Node6</title>
<g id="a_node6"><a xlink:href="classprecice_1_1cplscheme_1_1CompositionalCouplingScheme.html" target="_top" xlink:title="Acts as one coupling scheme, but consists of several composed ones.">
<polygon fill="white" stroke="black" points="978.5,-491.5 978.5,-521.5 1153.5,-521.5 1153.5,-491.5 978.5,-491.5"/>
<text text-anchor="start" x="986.5" y="-509.5" font-family="Helvetica,sans-Serif" font-size="10.00">precice::cplscheme</text>
<text text-anchor="middle" x="1066" y="-498.5" font-family="Helvetica,sans-Serif" font-size="10.00">::CompositionalCouplingScheme</text>
</a>
</g>
</g>
<!-- Node6&#45;&gt;Node3 -->
<g id="edge5" class="edge">
<title>Node6&#45;&gt;Node3</title>
<path fill="none" stroke="#9a32cd" stroke-dasharray="5,2" d="M1163.68,-496.12C1216.16,-490.43 1282.15,-483.2 1341,-476.5 1349.23,-475.56 1357.79,-474.58 1366.36,-473.58"/>
<polygon fill="#9a32cd" stroke="#9a32cd" points="1163.28,-492.64 1153.71,-497.2 1164.03,-499.6 1163.28,-492.64"/>
<text text-anchor="middle" x="1261" y="-496.5" font-family="Helvetica,sans-Serif" font-size="10.00"> elements</text>
</g>
<!-- Node7 -->
<g id="node7" class="node">
<title>Node7</title>
<g id="a_node7"><a xlink:href="classprecice_1_1cplscheme_1_1CouplingScheme.html" target="_top" xlink:title="Interface for all coupling schemes.">
<polygon fill="white" stroke="black" points="375,-444.5 375,-474.5 485,-474.5 485,-444.5 375,-444.5"/>
<text text-anchor="start" x="383" y="-462.5" font-family="Helvetica,sans-Serif" font-size="10.00">precice::cplscheme</text>
<text text-anchor="middle" x="430" y="-451.5" font-family="Helvetica,sans-Serif" font-size="10.00">::CouplingScheme</text>
</a>
</g>
</g>
<!-- Node7&#45;&gt;Node6 -->
<g id="edge6" class="edge">
<title>Node7&#45;&gt;Node6</title>
<path fill="none" stroke="midnightblue" d="M495.41,-446.07C596.43,-428.04 796.55,-404.71 951,-464.5 959.97,-467.97 960.32,-472.36 969,-476.5 981.05,-482.26 994.48,-487.25 1007.37,-491.42"/>
<polygon fill="midnightblue" stroke="midnightblue" points="494.56,-442.67 485.35,-447.9 495.82,-449.55 494.56,-442.67"/>
</g>
<!-- Node8 -->
<g id="node8" class="node">
<title>Node8</title>
<g id="a_node8"><a xlink:title=" ">
<polygon fill="white" stroke="#bfbfbf" points="611,-498.5 611,-528.5 793,-528.5 793,-498.5 611,-498.5"/>
<text text-anchor="start" x="619" y="-516.5" font-family="Helvetica,sans-Serif" font-size="10.00">std::vector&lt; precice</text>
<text text-anchor="middle" x="702" y="-505.5" font-family="Helvetica,sans-Serif" font-size="10.00">::cplscheme::CouplingScheme * &gt;</text>
</a>
</g>
</g>
<!-- Node7&#45;&gt;Node8 -->
<g id="edge8" class="edge">
<title>Node7&#45;&gt;Node8</title>
<path fill="none" stroke="#9a32cd" stroke-dasharray="5,2" d="M495.29,-472.36C534.48,-480.2 584.77,-490.25 625.81,-498.46"/>
<polygon fill="#9a32cd" stroke="#9a32cd" points="495.81,-468.89 485.31,-470.36 494.43,-475.76 495.81,-468.89"/>
<text text-anchor="middle" x="563" y="-493.5" font-family="Helvetica,sans-Serif" font-size="10.00"> elements</text>
</g>
<!-- Node9 -->
<g id="node9" class="node">
<title>Node9</title>
<g id="a_node9"><a xlink:title=" ">
<polygon fill="white" stroke="#bfbfbf" points="630.5,-449.5 630.5,-479.5 773.5,-479.5 773.5,-449.5 630.5,-449.5"/>
<text text-anchor="start" x="638.5" y="-467.5" font-family="Helvetica,sans-Serif" font-size="10.00">std::shared_ptr&lt; Coupling</text>
<text text-anchor="middle" x="702" y="-456.5" font-family="Helvetica,sans-Serif" font-size="10.00">Scheme &gt;</text>
</a>
</g>
</g>
<!-- Node7&#45;&gt;Node9 -->
<g id="edge10" class="edge">
<title>Node7&#45;&gt;Node9</title>
<path fill="none" stroke="#9a32cd" stroke-dasharray="5,2" d="M495.26,-459.44C525,-459.53 560.8,-459.8 593,-460.5 605.1,-460.76 617.96,-461.14 630.42,-461.57"/>
<polygon fill="#9a32cd" stroke="#9a32cd" points="495.01,-455.94 485.01,-459.42 495,-462.94 495.01,-455.94"/>
<text text-anchor="middle" x="563" y="-463.5" font-family="Helvetica,sans-Serif" font-size="10.00"> ptr</text>
</g>
<!-- Node8&#45;&gt;Node6 -->
<g id="edge7" class="edge">
<title>Node8&#45;&gt;Node6</title>
<path fill="none" stroke="#9a32cd" stroke-dasharray="5,2" d="M803.24,-500.06C805.85,-499.85 808.44,-499.67 811,-499.5 866.58,-495.91 929.11,-497.57 978.23,-500.16"/>
<polygon fill="#9a32cd" stroke="#9a32cd" points="802.74,-496.59 793.08,-500.94 803.34,-503.56 802.74,-496.59"/>
<text text-anchor="middle" x="881" y="-502.5" font-family="Helvetica,sans-Serif" font-size="10.00"> _activeSchemes</text>
</g>
<!-- Node9&#45;&gt;Node6 -->
<g id="edge9" class="edge">
<title>Node9&#45;&gt;Node6</title>
<path fill="none" stroke="#9a32cd" stroke-dasharray="5,2" d="M783.73,-467.02C832.37,-469.29 895.46,-473.55 951,-481.5 968.45,-484 987.21,-487.68 1004.36,-491.46"/>
<polygon fill="#9a32cd" stroke="#9a32cd" points="783.72,-463.52 773.58,-466.57 783.41,-470.51 783.72,-463.52"/>
<text text-anchor="middle" x="881" y="-484.5" font-family="Helvetica,sans-Serif" font-size="10.00"> _implicitScheme</text>
</g>
<!-- Node10 -->
<g id="node10" class="node">
<title>Node10</title>
<g id="a_node10"><a xlink:href="classprecice_1_1logging_1_1Logger.html" target="_top" xlink:title="This class provides a lightweight logger.">
<polygon fill="white" stroke="black" points="635.5,-548 635.5,-567 768.5,-567 768.5,-548 635.5,-548"/>
<text text-anchor="middle" x="702" y="-555" font-family="Helvetica,sans-Serif" font-size="10.00">precice::logging::Logger</text>
</a>
</g>
</g>
<!-- Node10&#45;&gt;Node1 -->
<g id="edge20" class="edge">
<title>Node10&#45;&gt;Node1</title>
<path fill="none" stroke="#9a32cd" stroke-dasharray="5,2" d="M778.69,-560.25C930.01,-563.91 1279.57,-563.08 1562,-492.5 1643.2,-472.21 1669.51,-471.32 1736,-420.5 1779.72,-387.08 1814.73,-330.56 1829.87,-303.63"/>
<polygon fill="#9a32cd" stroke="#9a32cd" points="778.66,-556.75 768.58,-559.99 778.48,-563.75 778.66,-556.75"/>
<text text-anchor="middle" x="1261" y="-552.5" font-family="Helvetica,sans-Serif" font-size="10.00"> _log</text>
</g>
<!-- Node10&#45;&gt;Node6 -->
<g id="edge11" class="edge">
<title>Node10&#45;&gt;Node6</title>
<path fill="none" stroke="#9a32cd" stroke-dasharray="5,2" d="M760.56,-545.91C771.36,-543.58 782.55,-541.05 793,-538.5 801.07,-536.53 802.84,-535.06 811,-533.5 866.21,-522.97 929.02,-516.25 978.36,-512.15"/>
<polygon fill="#9a32cd" stroke="#9a32cd" points="759.82,-542.49 750.77,-548 761.28,-549.34 759.82,-542.49"/>
<text text-anchor="middle" x="881" y="-536.5" font-family="Helvetica,sans-Serif" font-size="10.00"> _log</text>
</g>
<!-- Node11 -->
<g id="node11" class="node">
<title>Node11</title>
<g id="a_node11"><a xlink:title=" ">
<polygon fill="white" stroke="#bfbfbf" points="345,-546.5 345,-576.5 515,-576.5 515,-546.5 345,-546.5"/>
<text text-anchor="start" x="353" y="-564.5" font-family="Helvetica,sans-Serif" font-size="10.00">std::unique_ptr&lt; precice</text>
<text text-anchor="middle" x="430" y="-553.5" font-family="Helvetica,sans-Serif" font-size="10.00">::logging::Logger::LoggerImpl &gt;</text>
</a>
</g>
</g>
<!-- Node11&#45;&gt;Node10 -->
<g id="edge12" class="edge">
<title>Node11&#45;&gt;Node10</title>
<path fill="none" stroke="#9a32cd" stroke-dasharray="5,2" d="M525.43,-560.1C561.7,-559.56 602.28,-558.96 635.28,-558.47"/>
<polygon fill="#9a32cd" stroke="#9a32cd" points="525.27,-556.6 515.32,-560.25 525.37,-563.6 525.27,-556.6"/>
<text text-anchor="middle" x="563" y="-562.5" font-family="Helvetica,sans-Serif" font-size="10.00"> _impl</text>
</g>
<!-- Node12 -->
<g id="node12" class="node">
<title>Node12</title>
<g id="a_node12"><a xlink:href="classprecice_1_1logging_1_1Logger_1_1LoggerImpl.html" target="_top" xlink:title=" ">
<polygon fill="white" stroke="black" points="159,-546.5 159,-576.5 292,-576.5 292,-546.5 159,-546.5"/>
<text text-anchor="start" x="167" y="-564.5" font-family="Helvetica,sans-Serif" font-size="10.00">precice::logging::Logger</text>
<text text-anchor="middle" x="225.5" y="-553.5" font-family="Helvetica,sans-Serif" font-size="10.00">::LoggerImpl</text>
</a>
</g>
</g>
<!-- Node12&#45;&gt;Node11 -->
<g id="edge13" class="edge">
<title>Node12&#45;&gt;Node11</title>
<path fill="none" stroke="#9a32cd" stroke-dasharray="5,2" d="M302.62,-561.5C316.37,-561.5 330.78,-561.5 344.75,-561.5"/>
<polygon fill="#9a32cd" stroke="#9a32cd" points="302.25,-558 292.25,-561.5 302.25,-565 302.25,-558"/>
<text text-anchor="middle" x="318.5" y="-564.5" font-family="Helvetica,sans-Serif" font-size="10.00"> ptr</text>
</g>
<!-- Node13 -->
<g id="node13" class="node">
<title>Node13</title>
<g id="a_node13"><a xlink:title=" ">
<polygon fill="white" stroke="#bfbfbf" points="0,-546.5 0,-576.5 122,-576.5 122,-546.5 0,-546.5"/>
<text text-anchor="start" x="8" y="-564.5" font-family="Helvetica,sans-Serif" font-size="10.00">BoostLogger&lt; Logger</text>
<text text-anchor="middle" x="61" y="-553.5" font-family="Helvetica,sans-Serif" font-size="10.00">::LoggerImpl &gt;</text>
</a>
</g>
</g>
<!-- Node13&#45;&gt;Node12 -->
<g id="edge14" class="edge">
<title>Node13&#45;&gt;Node12</title>
<path fill="none" stroke="midnightblue" d="M132.33,-561.5C141.17,-561.5 150.19,-561.5 158.96,-561.5"/>
<polygon fill="midnightblue" stroke="midnightblue" points="132.05,-558 122.05,-561.5 132.05,-565 132.05,-558"/>
</g>
<!-- Node14 -->
<g id="node14" class="node">
<title>Node14</title>
<g id="a_node14"><a xlink:title=" ">
<polygon fill="white" stroke="#bfbfbf" points="634,-586.5 634,-616.5 770,-616.5 770,-586.5 634,-586.5"/>
<text text-anchor="start" x="642" y="-604.5" font-family="Helvetica,sans-Serif" font-size="10.00">std::vector&lt; PtrCoupling</text>
<text text-anchor="middle" x="702" y="-593.5" font-family="Helvetica,sans-Serif" font-size="10.00">Scheme &gt;</text>
</a>
</g>
</g>
<!-- Node14&#45;&gt;Node6 -->
<g id="edge15" class="edge">
<title>Node14&#45;&gt;Node6</title>
<path fill="none" stroke="#9a32cd" stroke-dasharray="5,2" d="M780.17,-587.94C829.48,-578.56 894.52,-564.85 951,-548.5 977.24,-540.91 1006.1,-530.25 1028.22,-521.57"/>
<polygon fill="#9a32cd" stroke="#9a32cd" points="779.4,-584.53 770.22,-589.82 780.69,-591.41 779.4,-584.53"/>
<text text-anchor="middle" x="881" y="-583.5" font-family="Helvetica,sans-Serif" font-size="10.00"> _explicitSchemes</text>
</g>
<!-- Node15 -->
<g id="node15" class="node">
<title>Node15</title>
<g id="a_node15"><a xlink:title="STL class.">
<polygon fill="white" stroke="#bfbfbf" points="371,-620 371,-639 489,-639 489,-620 371,-620"/>
<text text-anchor="middle" x="430" y="-627" font-family="Helvetica,sans-Serif" font-size="10.00">std::shared_ptr&lt; T &gt;</text>
</a>
</g>
</g>
<!-- Node15&#45;&gt;Node14 -->
<g id="edge16" class="edge">
<title>Node15&#45;&gt;Node14</title>
<path fill="none" stroke="#9a32cd" stroke-dasharray="5,2" d="M499.21,-622.43C540.44,-618.15 592.77,-612.72 633.81,-608.47"/>
<polygon fill="#9a32cd" stroke="#9a32cd" points="498.84,-618.95 489.25,-623.46 499.56,-625.91 498.84,-618.95"/>
<text text-anchor="middle" x="563" y="-621.5" font-family="Helvetica,sans-Serif" font-size="10.00"> elements</text>
</g>
<!-- Node15&#45;&gt;Node19 -->
<g id="edge23" class="edge">
<title>Node15&#45;&gt;Node19</title>
<path fill="none" stroke="#9a32cd" stroke-dasharray="5,2" d="M499.31,-634.81C542.15,-638.15 596.96,-642.41 638.62,-645.65"/>
<polygon fill="#9a32cd" stroke="#9a32cd" points="499.49,-631.32 489.25,-634.03 498.95,-638.3 499.49,-631.32"/>
<text text-anchor="middle" x="563" y="-644.5" font-family="Helvetica,sans-Serif" font-size="10.00"> elements</text>
</g>
<!-- Node16 -->
<g id="node16" class="node">
<title>Node16</title>
<g id="a_node16"><a xlink:title=" ">
<polygon fill="white" stroke="#bfbfbf" points="211,-620 211,-639 240,-639 240,-620 211,-620"/>
<text text-anchor="middle" x="225.5" y="-627" font-family="Helvetica,sans-Serif" font-size="10.00">T</text>
</a>
</g>
</g>
<!-- Node16&#45;&gt;Node15 -->
<g id="edge17" class="edge">
<title>Node16&#45;&gt;Node15</title>
<path fill="none" stroke="#9a32cd" stroke-dasharray="5,2" d="M250.25,-629.5C279.7,-629.5 330.9,-629.5 370.98,-629.5"/>
<polygon fill="#9a32cd" stroke="#9a32cd" points="250.1,-626 240.1,-629.5 250.1,-633 250.1,-626"/>
<text text-anchor="middle" x="318.5" y="-632.5" font-family="Helvetica,sans-Serif" font-size="10.00"> ptr</text>
</g>
<!-- Node17 -->
<g id="node17" class="node">
<title>Node17</title>
<g id="a_node17"><a xlink:title=" ">
<polygon fill="white" stroke="#bfbfbf" points="1380,-183.5 1380,-213.5 1541,-213.5 1541,-183.5 1380,-183.5"/>
<text text-anchor="start" x="1388" y="-201.5" font-family="Helvetica,sans-Serif" font-size="10.00">std::shared_ptr&lt; Acceleration</text>
<text text-anchor="middle" x="1460.5" y="-190.5" font-family="Helvetica,sans-Serif" font-size="10.00">Configuration &gt;</text>
</a>
</g>
</g>
<!-- Node17&#45;&gt;Node1 -->
<g id="edge18" class="edge">
<title>Node17&#45;&gt;Node1</title>
<path fill="none" stroke="#9a32cd" stroke-dasharray="5,2" d="M1551.03,-210.33C1605.17,-218.58 1675.25,-231.23 1736,-248.5 1759.42,-255.16 1784.92,-265.16 1804.56,-273.49"/>
<polygon fill="#9a32cd" stroke="#9a32cd" points="1551.52,-206.86 1541.11,-208.84 1550.48,-213.78 1551.52,-206.86"/>
<text text-anchor="middle" x="1658" y="-251.5" font-family="Helvetica,sans-Serif" font-size="10.00"> _accelerationConfig</text>
</g>
<!-- Node18 -->
<g id="node18" class="node">
<title>Node18</title>
<g id="a_node18"><a xlink:title=" ">
<polygon fill="white" stroke="#bfbfbf" points="1384.5,-134.5 1384.5,-164.5 1536.5,-164.5 1536.5,-134.5 1384.5,-134.5"/>
<text text-anchor="start" x="1392.5" y="-152.5" font-family="Helvetica,sans-Serif" font-size="10.00">std::shared_ptr&lt; Participant</text>
<text text-anchor="middle" x="1460.5" y="-141.5" font-family="Helvetica,sans-Serif" font-size="10.00">Configuration &gt;</text>
</a>
</g>
</g>
<!-- Node18&#45;&gt;Node1 -->
<g id="edge19" class="edge">
<title>Node18&#45;&gt;Node1</title>
<path fill="none" stroke="#9a32cd" stroke-dasharray="5,2" d="M1547.02,-153.34C1603.1,-158.63 1676.73,-170.96 1736,-199.5 1773.48,-217.55 1807.89,-253.19 1825.56,-273.46"/>
<polygon fill="#9a32cd" stroke="#9a32cd" points="1547.03,-149.83 1536.77,-152.43 1546.42,-156.8 1547.03,-149.83"/>
<text text-anchor="middle" x="1658" y="-202.5" font-family="Helvetica,sans-Serif" font-size="10.00"> _participantConfig</text>
</g>
<!-- Node19&#45;&gt;Node1 -->
<g id="edge22" class="edge">
<title>Node19&#45;&gt;Node1</title>
<path fill="none" stroke="#9a32cd" stroke-dasharray="5,2" d="M775.42,-644.91C924.5,-632.3 1275.71,-596.93 1562,-524.5 1640.89,-504.54 1672.97,-518.97 1736,-467.5 1791.55,-422.14 1822.65,-338.03 1833.53,-303.7"/>
<polygon fill="#9a32cd" stroke="#9a32cd" points="774.71,-641.45 765.04,-645.78 775.3,-648.43 774.71,-641.45"/>
<text text-anchor="middle" x="1261" y="-599.5" font-family="Helvetica,sans-Serif" font-size="10.00"> _couplingSchemes</text>
</g>
<!-- Node20 -->
<g id="node20" class="node">
<title>Node20</title>
<g id="a_node20"><a xlink:title=" ">
<polygon fill="white" stroke="#bfbfbf" points="1359,-96 1359,-115 1562,-115 1562,-96 1359,-96"/>
<text text-anchor="middle" x="1460.5" y="-103" font-family="Helvetica,sans-Serif" font-size="10.00">std::shared_ptr&lt; MeshConfiguration &gt;</text>
</a>
</g>
</g>
<!-- Node20&#45;&gt;Node1 -->
<g id="edge25" class="edge">
<title>Node20&#45;&gt;Node1</title>
<path fill="none" stroke="#9a32cd" stroke-dasharray="5,2" d="M1572.38,-100.41C1625.3,-102.77 1687.49,-112.93 1736,-142.5 1787.75,-174.05 1820.05,-242.87 1832.34,-273.4"/>
<polygon fill="#9a32cd" stroke="#9a32cd" points="1572.39,-96.9 1562.27,-100.04 1572.14,-103.9 1572.39,-96.9"/>
<text text-anchor="middle" x="1658" y="-145.5" font-family="Helvetica,sans-Serif" font-size="10.00"> _meshConfig</text>
</g>
<!-- Node21&#45;&gt;Node1 -->
<g id="edge26" class="edge">
<title>Node21&#45;&gt;Node1</title>
<path fill="none" stroke="#9a32cd" stroke-dasharray="5,2" d="M1555.7,-261.26C1608.7,-265.75 1676.06,-271.65 1736,-277.5 1741.85,-278.07 1747.89,-278.68 1753.96,-279.3"/>
<polygon fill="#9a32cd" stroke="#9a32cd" points="1555.9,-257.77 1545.64,-260.41 1555.31,-264.74 1555.9,-257.77"/>
<text text-anchor="middle" x="1658" y="-280.5" font-family="Helvetica,sans-Serif" font-size="10.00"> _config</text>
</g>
<!-- Node22 -->
<g id="node22" class="node">
<title>Node22</title>
<g id="a_node22"><a xlink:title=" ">
<polygon fill="white" stroke="#bfbfbf" points="974.5,-135 974.5,-176 1157.5,-176 1157.5,-135 974.5,-135"/>
<text text-anchor="start" x="982.5" y="-164" font-family="Helvetica,sans-Serif" font-size="10.00">std::vector&lt; precice</text>
<text text-anchor="start" x="982.5" y="-153" font-family="Helvetica,sans-Serif" font-size="10.00">::cplscheme::CouplingScheme</text>
<text text-anchor="middle" x="1066" y="-142" font-family="Helvetica,sans-Serif" font-size="10.00">Configuration::Config::Exchange &gt;</text>
</a>
</g>
</g>
<!-- Node22&#45;&gt;Node21 -->
<g id="edge27" class="edge">
<title>Node22&#45;&gt;Node21</title>
<path fill="none" stroke="#9a32cd" stroke-dasharray="5,2" d="M1167.96,-147.72C1223.35,-148.33 1290.77,-157.54 1341,-191.5 1354.52,-200.64 1346.25,-213.31 1359,-223.5 1363.98,-227.48 1369.47,-230.93 1375.25,-233.92"/>
<polygon fill="#9a32cd" stroke="#9a32cd" points="1167.77,-144.22 1157.77,-147.7 1167.76,-151.22 1167.77,-144.22"/>
<text text-anchor="middle" x="1261" y="-194.5" font-family="Helvetica,sans-Serif" font-size="10.00"> exchanges</text>
</g>
<!-- Node23&#45;&gt;Node22 -->
<g id="edge28" class="edge">
<title>Node23&#45;&gt;Node22</title>
<path fill="none" stroke="#9a32cd" stroke-dasharray="5,2" d="M797.45,-153.28C852.08,-153.74 920.47,-154.3 974.43,-154.75"/>
<polygon fill="#9a32cd" stroke="#9a32cd" points="797.44,-149.78 787.42,-153.2 797.39,-156.78 797.44,-149.78"/>
<text text-anchor="middle" x="881" y="-157.5" font-family="Helvetica,sans-Serif" font-size="10.00"> elements</text>
</g>
<!-- Node24 -->
<g id="node24" class="node">
<title>Node24</title>
<g id="a_node24"><a xlink:title=" ">
<polygon fill="white" stroke="#bfbfbf" points="362.5,-62 362.5,-81 497.5,-81 497.5,-62 362.5,-62"/>
<text text-anchor="middle" x="430" y="-69" font-family="Helvetica,sans-Serif" font-size="10.00">std::shared_ptr&lt; Data &gt;</text>
</a>
</g>
</g>
<!-- Node24&#45;&gt;Node23 -->
<g id="edge29" class="edge">
<title>Node24&#45;&gt;Node23</title>
<path fill="none" stroke="#9a32cd" stroke-dasharray="5,2" d="M508.16,-70.17C535.53,-71.65 566.17,-75.58 593,-84.5 624.12,-94.85 655.35,-115.96 676.17,-131.93"/>
<polygon fill="#9a32cd" stroke="#9a32cd" points="508,-66.66 497.85,-69.72 507.69,-73.66 508,-66.66"/>
<text text-anchor="middle" x="563" y="-87.5" font-family="Helvetica,sans-Serif" font-size="10.00"> data</text>
</g>
<!-- Node24&#45;&gt;Node27 -->
<g id="edge35" class="edge">
<title>Node24&#45;&gt;Node27</title>
<path fill="none" stroke="#9a32cd" stroke-dasharray="5,2" d="M477.84,-59.78C495.07,-56.02 514.81,-52.35 533,-50.5 559.73,-47.78 588.94,-48.04 615.4,-49.5"/>
<polygon fill="#9a32cd" stroke="#9a32cd" points="477.01,-56.38 468.02,-61.99 478.55,-63.21 477.01,-56.38"/>
<text text-anchor="middle" x="563" y="-53.5" font-family="Helvetica,sans-Serif" font-size="10.00"> data</text>
</g>
<!-- Node25 -->
<g id="node25" class="node">
<title>Node25</title>
<g id="a_node25"><a xlink:title=" ">
<polygon fill="white" stroke="#bfbfbf" points="361,-142 361,-161 499,-161 499,-142 361,-142"/>
<text text-anchor="middle" x="430" y="-149" font-family="Helvetica,sans-Serif" font-size="10.00">std::shared_ptr&lt; Mesh &gt;</text>
</a>
</g>
</g>
<!-- Node25&#45;&gt;Node23 -->
<g id="edge31" class="edge">
<title>Node25&#45;&gt;Node23</title>
<path fill="none" stroke="#9a32cd" stroke-dasharray="5,2" d="M509.4,-151.79C543.13,-151.92 582.61,-152.06 616.95,-152.19"/>
<polygon fill="#9a32cd" stroke="#9a32cd" points="509.15,-148.29 499.13,-151.75 509.12,-155.29 509.15,-148.29"/>
<text text-anchor="middle" x="563" y="-154.5" font-family="Helvetica,sans-Serif" font-size="10.00"> mesh</text>
</g>
<!-- Node26 -->
<g id="node26" class="node">
<title>Node26</title>
<g id="a_node26"><a xlink:title=" ">
<polygon fill="white" stroke="#bfbfbf" points="969,-59.5 969,-111.5 1163,-111.5 1163,-59.5 969,-59.5"/>
<text text-anchor="start" x="977" y="-99.5" font-family="Helvetica,sans-Serif" font-size="10.00">std::vector&lt; precice</text>
<text text-anchor="start" x="977" y="-88.5" font-family="Helvetica,sans-Serif" font-size="10.00">::cplscheme::CouplingScheme</text>
<text text-anchor="start" x="977" y="-77.5" font-family="Helvetica,sans-Serif" font-size="10.00">Configuration::ConvergenceMeasure</text>
<text text-anchor="middle" x="1066" y="-66.5" font-family="Helvetica,sans-Serif" font-size="10.00">Defintion &gt;</text>
</a>
</g>
</g>
<!-- Node26&#45;&gt;Node21 -->
<g id="edge33" class="edge">
<title>Node26&#45;&gt;Node21</title>
<path fill="none" stroke="#9a32cd" stroke-dasharray="5,2" d="M1173.29,-76.7C1230.21,-77.97 1297.4,-89.99 1341,-132.5 1370.52,-161.28 1331.26,-193 1359,-223.5 1363.66,-228.62 1369.14,-232.88 1375.11,-236.42"/>
<polygon fill="#9a32cd" stroke="#9a32cd" points="1173.19,-73.2 1163.15,-76.59 1173.11,-80.2 1173.19,-73.2"/>
<text text-anchor="middle" x="1261" y="-135.5" font-family="Helvetica,sans-Serif" font-size="10.00"> convergenceMeasureDefinitions</text>
</g>
<!-- Node27&#45;&gt;Node26 -->
<g id="edge34" class="edge">
<title>Node27&#45;&gt;Node26</title>
<path fill="none" stroke="#9a32cd" stroke-dasharray="5,2" d="M798.79,-65.64C851.37,-69.57 916.38,-74.41 968.99,-78.34"/>
<polygon fill="#9a32cd" stroke="#9a32cd" points="799.02,-62.15 788.79,-64.9 798.5,-69.13 799.02,-62.15"/>
<text text-anchor="middle" x="881" y="-80.5" font-family="Helvetica,sans-Serif" font-size="10.00"> elements</text>
</g>
<!-- Node28 -->
<g id="node28" class="node">
<title>Node28</title>
<g id="a_node28"><a xlink:title=" ">
<polygon fill="white" stroke="#bfbfbf" points="348,-0.5 348,-30.5 512,-30.5 512,-0.5 348,-0.5"/>
<text text-anchor="start" x="356" y="-18.5" font-family="Helvetica,sans-Serif" font-size="10.00">std::shared_ptr&lt; Convergence</text>
<text text-anchor="middle" x="430" y="-7.5" font-family="Helvetica,sans-Serif" font-size="10.00">Measure &gt;</text>
</a>
</g>
</g>
<!-- Node28&#45;&gt;Node27 -->
<g id="edge36" class="edge">
<title>Node28&#45;&gt;Node27</title>
<path fill="none" stroke="#9a32cd" stroke-dasharray="5,2" d="M522.18,-23.74C545.36,-26.35 570.16,-29.6 593,-33.5 600.68,-34.81 608.64,-36.33 616.59,-37.97"/>
<polygon fill="#9a32cd" stroke="#9a32cd" points="522.34,-20.24 512.01,-22.62 521.57,-27.2 522.34,-20.24"/>
<text text-anchor="middle" x="563" y="-36.5" font-family="Helvetica,sans-Serif" font-size="10.00"> measure</text>
</g>
<!-- Node29&#45;&gt;Node21 -->
<g id="edge38" class="edge">
<title>Node29&#45;&gt;Node21</title>
<path fill="none" stroke="#9a32cd" stroke-dasharray="5,2" d="M961.32,-220.25C1052.89,-223.74 1208,-230.66 1341,-241.5 1352.13,-242.41 1363.84,-243.47 1375.38,-244.57"/>
<polygon fill="#9a32cd" stroke="#9a32cd" points="961.42,-216.75 951.29,-219.87 961.15,-223.74 961.42,-216.75"/>
<text text-anchor="middle" x="1066" y="-231.5" font-family="Helvetica,sans-Serif" font-size="10.00"> participants</text>
</g>
<!-- Node30 -->
<g id="node30" class="node">
<title>Node30</title>
<g id="a_node30"><a xlink:title=" ">
<polygon fill="white" stroke="#bfbfbf" points="1360.5,-58 1360.5,-77 1560.5,-77 1560.5,-58 1360.5,-58"/>
<text text-anchor="middle" x="1460.5" y="-65" font-family="Helvetica,sans-Serif" font-size="10.00">std::shared_ptr&lt; M2NConfiguration &gt;</text>
</a>
</g>
</g>
<!-- Node30&#45;&gt;Node1 -->
<g id="edge40" class="edge">
<title>Node30&#45;&gt;Node1</title>
<path fill="none" stroke="#9a32cd" stroke-dasharray="5,2" d="M1515.03,-56.35C1574.23,-47.13 1669.96,-41.73 1736,-85.5 1803.72,-130.39 1828.5,-234.48 1835.6,-273.43"/>
<polygon fill="#9a32cd" stroke="#9a32cd" points="1514.43,-52.9 1505.13,-57.98 1515.57,-59.81 1514.43,-52.9"/>
<text text-anchor="middle" x="1658" y="-88.5" font-family="Helvetica,sans-Serif" font-size="10.00"> _m2nConfig</text>
</g>
</g>
</svg>
