<?xml version="1.0" encoding="UTF-8" standalone="no"?>
<!DOCTYPE svg PUBLIC "-//W3C//DTD SVG 1.1//EN"
 "http://www.w3.org/Graphics/SVG/1.1/DTD/svg11.dtd">
<!-- Generated by graphviz version 2.43.0 (0)
 -->
<!-- Title: precice::cplscheme::CouplingSchemeConfiguration::addTagAbsoluteOrRelativeConvergenceMeasure Pages: 1 -->
<svg width="860pt" height="140pt"
 viewBox="0.00 0.00 860.00 140.00" xmlns="http://www.w3.org/2000/svg" xmlns:xlink="http://www.w3.org/1999/xlink">
<g id="graph0" class="graph" transform="scale(1 1) rotate(0) translate(4 136)">
<title>precice::cplscheme::CouplingSchemeConfiguration::addTagAbsoluteOrRelativeConvergenceMeasure</title>
<!-- Node1 -->
<g id="Node000001" class="node">
<title>Node1</title>
<g id="a_Node000001"><a xlink:title=" ">
<polygon fill="#999999" stroke="#666666" points="215,-68 0,-68 0,-16 215,-16 215,-68"/>
<text text-anchor="start" x="8" y="-56" font-family="Helvetica,sans-Serif" font-size="10.00">precice::cplscheme</text>
<text text-anchor="start" x="8" y="-45" font-family="Helvetica,sans-Serif" font-size="10.00">::CouplingSchemeConfiguration</text>
<text text-anchor="start" x="8" y="-34" font-family="Helvetica,sans-Serif" font-size="10.00">::addTagAbsoluteOrRelativeConvergence</text>
<text text-anchor="middle" x="107.5" y="-23" font-family="Helvetica,sans-Serif" font-size="10.00">Measure</text>
</a>
</g>
</g>
<!-- Node2 -->
<g id="Node000002" class="node">
<title>Node2</title>
<g id="a_Node000002"><a xlink:href="classprecice_1_1cplscheme_1_1CouplingSchemeConfiguration.html#a18bd32eda5f1036e13dbc3ef00340bc7" target="_top" xlink:title=" ">
<polygon fill="white" stroke="#666666" points="486,-89.5 251,-89.5 251,-48.5 486,-48.5 486,-89.5"/>
<text text-anchor="start" x="259" y="-77.5" font-family="Helvetica,sans-Serif" font-size="10.00">precice::cplscheme</text>
<text text-anchor="start" x="259" y="-66.5" font-family="Helvetica,sans-Serif" font-size="10.00">::CouplingSchemeConfiguration</text>
<text text-anchor="middle" x="368.5" y="-55.5" font-family="Helvetica,sans-Serif" font-size="10.00">::addBaseAttributesTagConvergenceMeasure</text>
</a>
</g>
</g>
<!-- Node1&#45;&gt;Node2 -->
<g id="edge1_Node000001_Node000002" class="edge">
<title>Node1&#45;&gt;Node2</title>
<g id="a_edge1_Node000001_Node000002"><a xlink:title=" ">
<path fill="none" stroke="#63b8ff" d="M215.34,-53.14C223.75,-54.01 232.3,-54.91 240.83,-55.79"/>
<polygon fill="#63b8ff" stroke="#63b8ff" points="240.51,-59.28 250.82,-56.84 241.24,-52.32 240.51,-59.28"/>
</a>
</g>
</g>
<!-- Node7 -->
<g id="Node000007" class="node">
<title>Node7</title>
<g id="a_Node000007"><a xlink:href="classprecice_1_1xml_1_1XMLTag.html#af81dc6eea2b9a75e14ddd6033ed9a1d4" target="_top" xlink:title="Adds an XML tag as subtag by making a copy of the given tag.">
<polygon fill="white" stroke="#666666" points="428,-30 309,-30 309,0 428,0 428,-30"/>
<text text-anchor="start" x="317" y="-18" font-family="Helvetica,sans-Serif" font-size="10.00">precice::xml::XMLTag</text>
<text text-anchor="middle" x="368.5" y="-7" font-family="Helvetica,sans-Serif" font-size="10.00">::addSubtag</text>
</a>
</g>
</g>
<!-- Node1&#45;&gt;Node7 -->
<g id="edge6_Node000001_Node000007" class="edge">
<title>Node1&#45;&gt;Node7</title>
<g id="a_edge6_Node000001_Node000007"><a xlink:title=" ">
<path fill="none" stroke="#63b8ff" d="M215.34,-30.86C243.51,-27.93 273.16,-24.83 298.72,-22.17"/>
<polygon fill="#63b8ff" stroke="#63b8ff" points="299.09,-25.65 308.68,-21.13 298.37,-18.69 299.09,-25.65"/>
</a>
</g>
</g>
<!-- Node3 -->
<g id="Node000003" class="node">
<title>Node3</title>
<g id="a_Node000003"><a xlink:href="classprecice_1_1xml_1_1XMLTag.html#af1e842f982d0efa6f85412a23a110529" target="_top" xlink:title="Removes the XML subtag with given name.">
<polygon fill="white" stroke="#666666" points="655,-132 536,-132 536,-102 655,-102 655,-132"/>
<text text-anchor="start" x="544" y="-120" font-family="Helvetica,sans-Serif" font-size="10.00">precice::xml::XMLTag</text>
<text text-anchor="middle" x="595.5" y="-109" font-family="Helvetica,sans-Serif" font-size="10.00">::addAttribute</text>
</a>
</g>
</g>
<!-- Node2&#45;&gt;Node3 -->
<g id="edge2_Node000002_Node000003" class="edge">
<title>Node2&#45;&gt;Node3</title>
<g id="a_edge2_Node000002_Node000003"><a xlink:title=" ">
<path fill="none" stroke="#63b8ff" d="M465.9,-89.57C486.02,-93.86 506.84,-98.3 525.72,-102.33"/>
<polygon fill="#63b8ff" stroke="#63b8ff" points="525.18,-105.79 535.69,-104.45 526.64,-98.94 525.18,-105.79"/>
</a>
</g>
</g>
<!-- Node5 -->
<g id="Node000005" class="node">
<title>Node5</title>
<g id="a_Node000005"><a xlink:href="classprecice_1_1xml_1_1XMLTag.html#a41d7876b31d73a23ed8d04b996d45279" target="_top" xlink:title="Adds a description of the purpose of this XML tag.">
<polygon fill="white" stroke="#666666" points="655,-84 536,-84 536,-54 655,-54 655,-84"/>
<text text-anchor="start" x="544" y="-72" font-family="Helvetica,sans-Serif" font-size="10.00">precice::xml::XMLTag</text>
<text text-anchor="middle" x="595.5" y="-61" font-family="Helvetica,sans-Serif" font-size="10.00">::setDocumentation</text>
</a>
</g>
</g>
<!-- Node2&#45;&gt;Node5 -->
<g id="edge4_Node000002_Node000005" class="edge">
<title>Node2&#45;&gt;Node5</title>
<g id="a_edge4_Node000002_Node000005"><a xlink:title=" ">
<path fill="none" stroke="#63b8ff" d="M486.28,-69C499.74,-69 513.12,-69 525.64,-69"/>
<polygon fill="#63b8ff" stroke="#63b8ff" points="525.95,-72.5 535.95,-69 525.95,-65.5 525.95,-72.5"/>
</a>
</g>
</g>
<!-- Node6 -->
<g id="Node000006" class="node">
<title>Node6</title>
<g id="a_Node000006"><a xlink:href="classprecice_1_1xml_1_1XMLAttribute.html#ae336b527b63afb29a0860ced596535e6" target="_top" xlink:title="Sets a documentation string for the attribute.">
<polygon fill="white" stroke="#666666" points="669,-36 522,-36 522,-6 669,-6 669,-36"/>
<text text-anchor="start" x="530" y="-24" font-family="Helvetica,sans-Serif" font-size="10.00">precice::xml::XMLAttribute</text>
<text text-anchor="middle" x="595.5" y="-13" font-family="Helvetica,sans-Serif" font-size="10.00">::setDocumentation</text>
</a>
</g>
</g>
<!-- Node2&#45;&gt;Node6 -->
<g id="edge5_Node000002_Node000006" class="edge">
<title>Node2&#45;&gt;Node6</title>
<g id="a_edge5_Node000002_Node000006"><a xlink:title=" ">
<path fill="none" stroke="#63b8ff" d="M465.9,-48.43C481.95,-45.01 498.44,-41.49 514.03,-38.17"/>
<polygon fill="#63b8ff" stroke="#63b8ff" points="515.09,-41.52 524.14,-36.01 513.63,-34.67 515.09,-41.52"/>
</a>
</g>
</g>
<!-- Node4 -->
<g id="Node000004" class="node">
<title>Node4</title>
<g id="a_Node000004"><a xlink:href="classprecice_1_1xml_1_1XMLAttribute.html#aa00da780a944ba7db691f02b569b61d2" target="_top" xlink:title=" ">
<polygon fill="white" stroke="#666666" points="852,-132 705,-132 705,-102 852,-102 852,-132"/>
<text text-anchor="start" x="713" y="-120" font-family="Helvetica,sans-Serif" font-size="10.00">precice::xml::XMLAttribute</text>
<text text-anchor="middle" x="778.5" y="-109" font-family="Helvetica,sans-Serif" font-size="10.00">::getName</text>
</a>
</g>
</g>
<!-- Node3&#45;&gt;Node4 -->
<g id="edge3_Node000003_Node000004" class="edge">
<title>Node3&#45;&gt;Node4</title>
<g id="a_edge3_Node000003_Node000004"><a xlink:title=" ">
<path fill="none" stroke="#63b8ff" d="M655.27,-117C667.85,-117 681.37,-117 694.67,-117"/>
<polygon fill="#63b8ff" stroke="#63b8ff" points="694.78,-120.5 704.78,-117 694.78,-113.5 694.78,-120.5"/>
</a>
</g>
</g>
</g>
</svg>
