<?xml version="1.0" encoding="UTF-8" standalone="no"?>
<!DOCTYPE svg PUBLIC "-//W3C//DTD SVG 1.1//EN"
 "http://www.w3.org/Graphics/SVG/1.1/DTD/svg11.dtd">
<!-- Generated by graphviz version 2.43.0 (0)
 -->
<!-- Title: precice::xml::ConfigParser::ConfigParser Pages: 1 -->
<!--zoomable 889 -->

<svg id="main" version="1.1" xmlns="http://www.w3.org/2000/svg" xmlns:xlink="http://www.w3.org/1999/xlink" xml:space="preserve" onload="init(evt)">

<style type="text/css"><![CDATA[
.node, .edge {opacity: 0.7;}
.node.selected, .edge.selected {opacity: 1;}
.edge:hover path { stroke: red; }
.edge:hover polygon { stroke: red; fill: red; }
]]></style>

<defs>
  <circle id="rim" cx="0" cy="0" r="7"/>
  <circle id="rim2" cx="0" cy="0" r="3.5"/>
  <g id="zoomPlus">
    <use xlink:href="#rim" fill="#404040"><set attributeName="fill" to="#808080" begin="zoomplus.mouseover" end="zoomplus.mouseout"/></use>
    <path d="M-4,0h8M0,-4v8" fill="none" stroke="white" stroke-width="1.5" pointer-events="none"/>
  </g>
  <g id="zoomMin">
    <use xlink:href="#rim" fill="#404040"><set attributeName="fill" to="#808080" begin="zoomminus.mouseover" end="zoomminus.mouseout"/></use>
    <path d="M-4,0h8" fill="none" stroke="white" stroke-width="1.5" pointer-events="none"/>
  </g>
  <g id="arrowUp" transform="translate(30 24)">
    <use xlink:href="#rim"/>
    <path pointer-events="none" fill="none" stroke="white" stroke-width="1.5" d="M0,-3.0v7 M-2.5,-0.5L0,-3.0L2.5,-0.5"/>
  </g>
  <g id="arrowRight" transform="rotate(90) translate(36 -43)">
    <use xlink:href="#rim"/>
    <path pointer-events="none" fill="none" stroke="white" stroke-width="1.5" d="M0,-3.0v7 M-2.5,-0.5L0,-3.0L2.5,-0.5"/>
  </g>
  <g id="arrowDown" transform="rotate(180) translate(-30 -48)">
    <use xlink:href="#rim"/>
    <path pointer-events="none" fill="none" stroke="white" stroke-width="1.5" d="M0,-3.0v7 M-2.5,-0.5L0,-3.0L2.5,-0.5"/>
  </g>
  <g id="arrowLeft" transform="rotate(270) translate(-36 17)">
    <use xlink:href="#rim"/>
    <path pointer-events="none" fill="none" stroke="white" stroke-width="1.5" d="M0,-3.0v7 M-2.5,-0.5L0,-3.0L2.5,-0.5"/>
  </g>
  <g id="resetDef">
    <use xlink:href="#rim2" fill="#404040"><set attributeName="fill" to="#808080" begin="reset.mouseover" end="reset.mouseout"/></use>
  </g>
</defs>
<script type="application/ecmascript">
var viewWidth = 876;
var viewHeight = 889;
var sectionId = 'dynsection-1';
</script>
<script type="application/ecmascript" xlink:href="svg.min.js"/>
<svg id="graph" class="graph">
<g id="viewport">
<title>precice::xml::ConfigParser::ConfigParser</title>
<!-- Node1 -->
<g id="Node000001" class="node">
<title>Node1</title>
<g id="a_Node000001"><a xlink:title="Parser ctor for Callback init.">
<polygon fill="#999999" stroke="#666666" points="143,-546.5 0,-546.5 0,-516.5 143,-516.5 143,-546.5"/>
<text text-anchor="start" x="8" y="-534.5" font-family="Helvetica,sans-Serif" font-size="10.00">precice::xml::ConfigParser</text>
<text text-anchor="middle" x="71.5" y="-523.5" font-family="Helvetica,sans-Serif" font-size="10.00">::ConfigParser</text>
</a>
</g>
</g>
<!-- Node2 -->
<g id="Node000002" class="node">
<title>Node2</title>
<g id="a_Node000002"><a xlink:href="classprecice_1_1xml_1_1ConfigParser.html#a7a1d88ea16f47d4c7510caaf7902456e" target="_top" xlink:title="Connects the actual tags of an xml layer with the predefined tags.">
<polygon fill="white" stroke="#666666" points="322,-744.5 179,-744.5 179,-714.5 322,-714.5 322,-744.5"/>
<text text-anchor="start" x="187" y="-732.5" font-family="Helvetica,sans-Serif" font-size="10.00">precice::xml::ConfigParser</text>
<text text-anchor="middle" x="250.5" y="-721.5" font-family="Helvetica,sans-Serif" font-size="10.00">::connectTags</text>
</a>
</g>
</g>
<!-- Node1&#45;&gt;Node2 -->
<g id="edge1_Node000001_Node000002" class="edge">
<title>Node1&#45;&gt;Node2</title>
<g id="a_edge1_Node000001_Node000002"><a xlink:title=" ">
<path fill="none" stroke="#63b8ff" d="M86.09,-546.71C116.98,-581.26 192.59,-665.83 229.1,-706.68"/>
<polygon fill="#63b8ff" stroke="#63b8ff" points="226.58,-709.12 235.86,-714.24 231.8,-704.45 226.58,-709.12"/>
</a>
</g>
</g>
<!-- Node10 -->
<g id="Node000010" class="node">
<title>Node10</title>
<g id="a_Node000010"><a target="_parent" xlink:href="http://en.cppreference.com/w/cpp/container/vector/push_back.html#" xlink:title=" ">
<polygon fill="white" stroke="#666666" points="703,-610 577,-610 577,-591 703,-591 703,-610"/>
<text text-anchor="middle" x="640" y="-598" font-family="Helvetica,sans-Serif" font-size="10.00">std::vector::push_back</text>
</a>
</g>
</g>
<!-- Node1&#45;&gt;Node10 -->
<g id="edge17_Node000001_Node000010" class="edge">
<title>Node1&#45;&gt;Node10</title>
<g id="a_edge17_Node000001_Node000010"><a xlink:title=" ">
<path fill="none" stroke="#63b8ff" d="M143.15,-540.97C200.91,-548.63 284.69,-559.58 358,-568.5 428.92,-577.13 510.01,-586.29 566.79,-592.59"/>
<polygon fill="#63b8ff" stroke="#63b8ff" points="566.42,-596.07 576.74,-593.69 567.19,-589.11 566.42,-596.07"/>
</a>
</g>
</g>
<!-- Node17 -->
<g id="Node000017" class="node">
<title>Node17</title>
<g id="a_Node000017"><a xlink:href="classprecice_1_1xml_1_1ConfigParser.html#ab9032a70059974520b523cec609e7b1d" target="_top" xlink:title="Reads the xml file.">
<polygon fill="white" stroke="#666666" points="322,-472.5 179,-472.5 179,-442.5 322,-442.5 322,-472.5"/>
<text text-anchor="start" x="187" y="-460.5" font-family="Helvetica,sans-Serif" font-size="10.00">precice::xml::ConfigParser</text>
<text text-anchor="middle" x="250.5" y="-449.5" font-family="Helvetica,sans-Serif" font-size="10.00">::readXmlFile</text>
</a>
</g>
</g>
<!-- Node1&#45;&gt;Node17 -->
<g id="edge18_Node000001_Node000017" class="edge">
<title>Node1&#45;&gt;Node17</title>
<g id="a_edge18_Node000001_Node000017"><a xlink:title=" ">
<path fill="none" stroke="#63b8ff" d="M108.75,-516.35C136.4,-504.79 174.66,-488.79 204.31,-476.39"/>
<polygon fill="#63b8ff" stroke="#63b8ff" points="205.73,-479.59 213.61,-472.51 203.03,-473.13 205.73,-479.59"/>
</a>
</g>
</g>
<!-- Node42 -->
<g id="Node000042" class="node">
<title>Node42</title>
<g id="a_Node000042"><a target="_parent" xlink:href="http://en.cppreference.com/w/cpp/error/exception/what.html#" xlink:title=" ">
<polygon fill="white" stroke="#666666" points="308.5,-424 192.5,-424 192.5,-405 308.5,-405 308.5,-424"/>
<text text-anchor="middle" x="250.5" y="-412" font-family="Helvetica,sans-Serif" font-size="10.00">std::exception::what</text>
</a>
</g>
</g>
<!-- Node1&#45;&gt;Node42 -->
<g id="edge46_Node000001_Node000042" class="edge">
<title>Node1&#45;&gt;Node42</title>
<g id="a_edge46_Node000001_Node000042"><a xlink:title=" ">
<path fill="none" stroke="#63b8ff" d="M84.61,-516.49C102.83,-494.91 139.39,-455.32 179,-433.5 183.15,-431.21 187.6,-429.19 192.16,-427.4"/>
<polygon fill="#63b8ff" stroke="#63b8ff" points="193.38,-430.68 201.63,-424.04 191.04,-424.08 193.38,-430.68"/>
</a>
</g>
</g>
<!-- Node2&#45;&gt;Node2 -->
<g id="edge11_Node000002_Node000002" class="edge">
<title>Node2&#45;&gt;Node2</title>
<g id="a_edge11_Node000002_Node000002"><a xlink:title=" ">
<path fill="none" stroke="#63b8ff" d="M219.21,-744.78C212.26,-753.91 222.69,-762.5 250.5,-762.5 267.01,-762.5 277.4,-759.47 281.66,-755.1"/>
<polygon fill="#63b8ff" stroke="#63b8ff" points="285.16,-754.82 281.79,-744.78 278.16,-754.73 285.16,-754.82"/>
</a>
</g>
</g>
<!-- Node3 -->
<g id="Node000003" class="node">
<title>Node3</title>
<g id="a_Node000003"><a target="_parent" xlink:href="http://en.cppreference.com/w/cpp/iterator/back_inserter.html#" xlink:title=" ">
<polygon fill="white" stroke="#666666" points="496.5,-721 392.5,-721 392.5,-702 496.5,-702 496.5,-721"/>
<text text-anchor="middle" x="444.5" y="-709" font-family="Helvetica,sans-Serif" font-size="10.00">std::back_inserter</text>
</a>
</g>
</g>
<!-- Node2&#45;&gt;Node3 -->
<g id="edge2_Node000002_Node000003" class="edge">
<title>Node2&#45;&gt;Node3</title>
<g id="a_edge2_Node000002_Node000003"><a xlink:title=" ">
<path fill="none" stroke="#63b8ff" d="M322.18,-722.87C341.93,-721.02 363.23,-719.02 382.39,-717.23"/>
<polygon fill="#63b8ff" stroke="#63b8ff" points="382.86,-720.7 392.49,-716.28 382.2,-713.73 382.86,-720.7"/>
</a>
</g>
</g>
<!-- Node4 -->
<g id="Node000004" class="node">
<title>Node4</title>
<g id="a_Node000004"><a xlink:href="namespaceprecice_1_1utils.html#aeef1a589a6157acbe2184158fb727564" target="_top" xlink:title=" ">
<polygon fill="white" stroke="#666666" points="529,-684 360,-684 360,-665 529,-665 529,-684"/>
<text text-anchor="middle" x="444.5" y="-672" font-family="Helvetica,sans-Serif" font-size="10.00">precice::utils::computeMatches</text>
</a>
</g>
</g>
<!-- Node2&#45;&gt;Node4 -->
<g id="edge3_Node000002_Node000004" class="edge">
<title>Node2&#45;&gt;Node4</title>
<g id="a_edge3_Node000002_Node000004"><a xlink:title=" ">
<path fill="none" stroke="#63b8ff" d="M290.82,-714.5C310.76,-707.24 335.46,-698.76 358,-692.5 366.09,-690.25 374.68,-688.14 383.17,-686.2"/>
<polygon fill="#63b8ff" stroke="#63b8ff" points="384.05,-689.59 393.06,-684.01 382.54,-682.75 384.05,-689.59"/>
</a>
</g>
</g>
<!-- Node12 -->
<g id="Node000012" class="node">
<title>Node12</title>
<g id="a_Node000012"><a target="_parent" xlink:href="http://en.cppreference.com/w/cpp/container/unordered_set/count.html#" xlink:title=" ">
<polygon fill="white" stroke="#666666" points="498,-646.5 391,-646.5 391,-616.5 498,-616.5 498,-646.5"/>
<text text-anchor="start" x="399" y="-634.5" font-family="Helvetica,sans-Serif" font-size="10.00">std::unordered_set</text>
<text text-anchor="middle" x="444.5" y="-623.5" font-family="Helvetica,sans-Serif" font-size="10.00">::count</text>
</a>
</g>
</g>
<!-- Node2&#45;&gt;Node12 -->
<g id="edge12_Node000002_Node000012" class="edge">
<title>Node2&#45;&gt;Node12</title>
<g id="a_edge12_Node000002_Node000012"><a xlink:title=" ">
<path fill="none" stroke="#63b8ff" d="M269.2,-714.4C289.45,-697.82 324.19,-671.43 358,-655.5 365.34,-652.04 373.27,-648.99 381.24,-646.33"/>
<polygon fill="#63b8ff" stroke="#63b8ff" points="382.46,-649.61 390.95,-643.27 380.36,-642.94 382.46,-649.61"/>
</a>
</g>
</g>
<!-- Node13 -->
<g id="Node000013" class="node">
<title>Node13</title>
<g id="a_Node000013"><a target="_parent" xlink:href="http://en.cppreference.com/w/cpp/container/unordered_set/emplace.html#" xlink:title=" ">
<polygon fill="white" stroke="#666666" points="498,-880.5 391,-880.5 391,-850.5 498,-850.5 498,-880.5"/>
<text text-anchor="start" x="399" y="-868.5" font-family="Helvetica,sans-Serif" font-size="10.00">std::unordered_set</text>
<text text-anchor="middle" x="444.5" y="-857.5" font-family="Helvetica,sans-Serif" font-size="10.00">::emplace</text>
</a>
</g>
</g>
<!-- Node2&#45;&gt;Node13 -->
<g id="edge13_Node000002_Node000013" class="edge">
<title>Node2&#45;&gt;Node13</title>
<g id="a_edge13_Node000002_Node000013"><a xlink:title=" ">
<path fill="none" stroke="#63b8ff" d="M262.06,-744.85C279.35,-768.82 315.99,-815.01 358,-840.5 365.13,-844.82 373.04,-848.44 381.1,-851.44"/>
<polygon fill="#63b8ff" stroke="#63b8ff" points="379.99,-854.76 390.59,-854.7 382.27,-848.14 379.99,-854.76"/>
</a>
</g>
</g>
<!-- Node14 -->
<g id="Node000014" class="node">
<title>Node14</title>
<g id="a_Node000014"><a target="_parent" xlink:href="http://en.cppreference.com/w/cpp/algorithm/find.html#" xlink:title=" ">
<polygon fill="white" stroke="#666666" points="478.5,-832 410.5,-832 410.5,-813 478.5,-813 478.5,-832"/>
<text text-anchor="middle" x="444.5" y="-820" font-family="Helvetica,sans-Serif" font-size="10.00">std::find_if</text>
</a>
</g>
</g>
<!-- Node2&#45;&gt;Node14 -->
<g id="edge14_Node000002_Node000014" class="edge">
<title>Node2&#45;&gt;Node14</title>
<g id="a_edge14_Node000002_Node000014"><a xlink:title=" ">
<path fill="none" stroke="#63b8ff" d="M268.68,-744.64C288.73,-761.52 323.56,-788.41 358,-803.5 371.34,-809.34 386.66,-813.47 400.62,-816.36"/>
<polygon fill="#63b8ff" stroke="#63b8ff" points="400.01,-819.8 410.49,-818.24 401.32,-812.93 400.01,-819.8"/>
</a>
</g>
</g>
<!-- Node15 -->
<g id="Node000015" class="node">
<title>Node15</title>
<g id="a_Node000015"><a target="_parent" xlink:href="http://en.cppreference.com/w/cpp/algorithm/remove.html#" xlink:title=" ">
<polygon fill="white" stroke="#666666" points="488,-795 401,-795 401,-776 488,-776 488,-795"/>
<text text-anchor="middle" x="444.5" y="-783" font-family="Helvetica,sans-Serif" font-size="10.00">std::remove_if</text>
</a>
</g>
</g>
<!-- Node2&#45;&gt;Node15 -->
<g id="edge15_Node000002_Node000015" class="edge">
<title>Node2&#45;&gt;Node15</title>
<g id="a_edge15_Node000002_Node000015"><a xlink:title=" ">
<path fill="none" stroke="#63b8ff" d="M291.36,-744.58C311.21,-751.77 335.69,-760.17 358,-766.5 368.53,-769.49 379.89,-772.3 390.79,-774.79"/>
<polygon fill="#63b8ff" stroke="#63b8ff" points="390.11,-778.23 400.64,-776.99 391.64,-771.4 390.11,-778.23"/>
</a>
</g>
</g>
<!-- Node16 -->
<g id="Node000016" class="node">
<title>Node16</title>
<g id="a_Node000016"><a target="_parent" xlink:href="http://en.cppreference.com/w/cpp/algorithm/transform.html#" xlink:title=" ">
<polygon fill="white" stroke="#666666" points="487.5,-758 401.5,-758 401.5,-739 487.5,-739 487.5,-758"/>
<text text-anchor="middle" x="444.5" y="-746" font-family="Helvetica,sans-Serif" font-size="10.00">std::transform</text>
</a>
</g>
</g>
<!-- Node2&#45;&gt;Node16 -->
<g id="edge16_Node000002_Node000016" class="edge">
<title>Node2&#45;&gt;Node16</title>
<g id="a_edge16_Node000002_Node000016"><a xlink:title=" ">
<path fill="none" stroke="#63b8ff" d="M322.18,-736.49C345.06,-738.76 370,-741.23 391.29,-743.33"/>
<polygon fill="#63b8ff" stroke="#63b8ff" points="391.13,-746.83 401.43,-744.34 391.82,-739.87 391.13,-746.83"/>
</a>
</g>
</g>
<!-- Node5 -->
<g id="Node000005" class="node">
<title>Node5</title>
<g id="a_Node000005"><a target="_parent" xlink:href="http://en.cppreference.com/w/cpp/container/vector/begin.html#" xlink:title=" ">
<polygon fill="white" stroke="#666666" points="690.5,-758 589.5,-758 589.5,-739 690.5,-739 690.5,-758"/>
<text text-anchor="middle" x="640" y="-746" font-family="Helvetica,sans-Serif" font-size="10.00">std::vector::begin</text>
</a>
</g>
</g>
<!-- Node4&#45;&gt;Node5 -->
<g id="edge4_Node000004_Node000005" class="edge">
<title>Node4&#45;&gt;Node5</title>
<g id="a_edge4_Node000004_Node000005"><a xlink:title=" ">
<path fill="none" stroke="#63b8ff" d="M510.92,-684.03C517.92,-686.28 524.75,-689.06 531,-692.5 551.1,-703.57 547.19,-717.93 567,-729.5 570.94,-731.8 575.16,-733.83 579.5,-735.61"/>
<polygon fill="#63b8ff" stroke="#63b8ff" points="578.58,-739 589.17,-739.14 580.98,-732.42 578.58,-739"/>
</a>
</g>
</g>
<!-- Node6 -->
<g id="Node000006" class="node">
<title>Node6</title>
<g id="a_Node000006"><a xlink:href="namespaceprecice_1_1utils.html#a016a082a7d68a0f291b2cdd8cdf70beb" target="_top" xlink:title=" ">
<polygon fill="white" stroke="#666666" points="713,-721 567,-721 567,-702 713,-702 713,-721"/>
<text text-anchor="middle" x="640" y="-709" font-family="Helvetica,sans-Serif" font-size="10.00">precice::utils::editDistance</text>
</a>
</g>
</g>
<!-- Node4&#45;&gt;Node6 -->
<g id="edge5_Node000004_Node000006" class="edge">
<title>Node4&#45;&gt;Node6</title>
<g id="a_edge5_Node000004_Node000006"><a xlink:title=" ">
<path fill="none" stroke="#63b8ff" d="M495.33,-684.03C520.85,-688.91 552.11,-694.89 578.95,-700.02"/>
<polygon fill="#63b8ff" stroke="#63b8ff" points="578.52,-703.5 589,-701.94 579.84,-696.62 578.52,-703.5"/>
</a>
</g>
</g>
<!-- Node9 -->
<g id="Node000009" class="node">
<title>Node9</title>
<g id="a_Node000009"><a target="_parent" xlink:href="http://en.cppreference.com/w/cpp/container/vector/end.html#" xlink:title=" ">
<polygon fill="white" stroke="#666666" points="686,-684 594,-684 594,-665 686,-665 686,-684"/>
<text text-anchor="middle" x="640" y="-672" font-family="Helvetica,sans-Serif" font-size="10.00">std::vector::end</text>
</a>
</g>
</g>
<!-- Node4&#45;&gt;Node9 -->
<g id="edge8_Node000004_Node000009" class="edge">
<title>Node4&#45;&gt;Node9</title>
<g id="a_edge8_Node000004_Node000009"><a xlink:title=" ">
<path fill="none" stroke="#63b8ff" d="M529.25,-674.5C547.6,-674.5 566.59,-674.5 583.51,-674.5"/>
<polygon fill="#63b8ff" stroke="#63b8ff" points="583.75,-678 593.75,-674.5 583.75,-671 583.75,-678"/>
</a>
</g>
</g>
<!-- Node4&#45;&gt;Node10 -->
<g id="edge9_Node000004_Node000010" class="edge">
<title>Node4&#45;&gt;Node10</title>
<g id="a_edge9_Node000004_Node000010"><a xlink:title=" ">
<path fill="none" stroke="#63b8ff" d="M508.7,-664.87C516.47,-662.42 524.09,-659.35 531,-655.5 551.04,-644.32 547.11,-629.94 567,-618.5 570.05,-616.74 573.27,-615.16 576.59,-613.73"/>
<polygon fill="#63b8ff" stroke="#63b8ff" points="578.05,-616.92 586.15,-610.08 575.56,-610.37 578.05,-616.92"/>
</a>
</g>
</g>
<!-- Node11 -->
<g id="Node000011" class="node">
<title>Node11</title>
<g id="a_Node000011"><a target="_parent" xlink:href="http://en.cppreference.com/w/cpp/algorithm/sort.html#" xlink:title=" ">
<polygon fill="white" stroke="#666666" points="668,-647 612,-647 612,-628 668,-628 668,-647"/>
<text text-anchor="middle" x="640" y="-635" font-family="Helvetica,sans-Serif" font-size="10.00">std::sort</text>
</a>
</g>
</g>
<!-- Node4&#45;&gt;Node11 -->
<g id="edge10_Node000004_Node000011" class="edge">
<title>Node4&#45;&gt;Node11</title>
<g id="a_edge10_Node000004_Node000011"><a xlink:title=" ">
<path fill="none" stroke="#63b8ff" d="M495.33,-664.97C528.59,-658.61 571.6,-650.39 601.86,-644.6"/>
<polygon fill="#63b8ff" stroke="#63b8ff" points="602.83,-647.98 612,-642.66 601.52,-641.1 602.83,-647.98"/>
</a>
</g>
</g>
<!-- Node7 -->
<g id="Node000007" class="node">
<title>Node7</title>
<g id="a_Node000007"><a target="_parent" xlink:href="http://en.cppreference.com/w/cpp/algorithm/min.html#" xlink:title=" ">
<polygon fill="white" stroke="#666666" points="836.5,-721 780.5,-721 780.5,-702 836.5,-702 836.5,-721"/>
<text text-anchor="middle" x="808.5" y="-709" font-family="Helvetica,sans-Serif" font-size="10.00">std::min</text>
</a>
</g>
</g>
<!-- Node6&#45;&gt;Node7 -->
<g id="edge6_Node000006_Node000007" class="edge">
<title>Node6&#45;&gt;Node7</title>
<g id="a_edge6_Node000006_Node000007"><a xlink:title=" ">
<path fill="none" stroke="#63b8ff" d="M713.06,-711.5C732.86,-711.5 753.51,-711.5 770.44,-711.5"/>
<polygon fill="#63b8ff" stroke="#63b8ff" points="770.46,-715 780.46,-711.5 770.46,-708 770.46,-715"/>
</a>
</g>
</g>
<!-- Node8 -->
<g id="Node000008" class="node">
<title>Node8</title>
<g id="a_Node000008"><a target="_parent" xlink:href="http://en.cppreference.com/w/cpp/string/basic_string_view/size.html#" xlink:title=" ">
<polygon fill="white" stroke="#666666" points="868,-537 749,-537 749,-518 868,-518 868,-537"/>
<text text-anchor="middle" x="808.5" y="-525" font-family="Helvetica,sans-Serif" font-size="10.00">std::string_view::size</text>
</a>
</g>
</g>
<!-- Node6&#45;&gt;Node8 -->
<g id="edge7_Node000006_Node000008" class="edge">
<title>Node6&#45;&gt;Node8</title>
<g id="a_edge7_Node000006_Node000008"><a xlink:title=" ">
<path fill="none" stroke="#63b8ff" d="M696.24,-701.88C702.23,-699.43 707.97,-696.36 713,-692.5 762.87,-654.25 790.83,-581.63 801.89,-546.92"/>
<polygon fill="#63b8ff" stroke="#63b8ff" points="805.32,-547.66 804.89,-537.07 798.63,-545.62 805.32,-547.66"/>
</a>
</g>
</g>
<!-- Node18 -->
<g id="Node000018" class="node">
<title>Node18</title>
<g id="a_Node000018"><a xlink:href="namespaceprecice_1_1xml.html#acd5d48ae183ab591a5515cca6a10631d" target="_top" xlink:title=" ">
<polygon fill="white" stroke="#666666" points="519,-560 370,-560 370,-541 519,-541 519,-560"/>
<text text-anchor="middle" x="444.5" y="-548" font-family="Helvetica,sans-Serif" font-size="10.00">precice::xml::OnCharacters</text>
</a>
</g>
</g>
<!-- Node17&#45;&gt;Node18 -->
<g id="edge19_Node000017_Node000018" class="edge">
<title>Node17&#45;&gt;Node18</title>
<g id="a_edge19_Node000017_Node000018"><a xlink:title=" ">
<path fill="none" stroke="#63b8ff" d="M268.68,-472.64C288.73,-489.52 323.56,-516.41 358,-531.5 363.76,-534.02 369.89,-536.23 376.12,-538.15"/>
<polygon fill="#63b8ff" stroke="#63b8ff" points="375.37,-541.58 385.95,-540.94 377.28,-534.84 375.37,-541.58"/>
</a>
</g>
</g>
<!-- Node20 -->
<g id="Node000020" class="node">
<title>Node20</title>
<g id="a_Node000020"><a xlink:href="namespaceprecice_1_1xml.html#a3ce3c7bca5ccde3597703f4a8937bc0d" target="_top" xlink:title=" ">
<polygon fill="white" stroke="#666666" points="528,-523 361,-523 361,-504 528,-504 528,-523"/>
<text text-anchor="middle" x="444.5" y="-511" font-family="Helvetica,sans-Serif" font-size="10.00">precice::xml::OnEndElementNs</text>
</a>
</g>
</g>
<!-- Node17&#45;&gt;Node20 -->
<g id="edge21_Node000017_Node000020" class="edge">
<title>Node17&#45;&gt;Node20</title>
<g id="a_edge21_Node000017_Node000020"><a xlink:title=" ">
<path fill="none" stroke="#63b8ff" d="M291.36,-472.58C311.21,-479.77 335.69,-488.17 358,-494.5 366.92,-497.03 376.43,-499.43 385.76,-501.63"/>
<polygon fill="#63b8ff" stroke="#63b8ff" points="385.24,-505.1 395.77,-503.92 386.8,-498.27 385.24,-505.1"/>
</a>
</g>
</g>
<!-- Node22 -->
<g id="Node000022" class="node">
<title>Node22</title>
<g id="a_Node000022"><a xlink:href="namespaceprecice_1_1xml.html#ad023b596c2d3b1c49a2903a6dae15487" target="_top" xlink:title=" ">
<polygon fill="white" stroke="#666666" points="515.5,-486 373.5,-486 373.5,-467 515.5,-467 515.5,-486"/>
<text text-anchor="middle" x="444.5" y="-474" font-family="Helvetica,sans-Serif" font-size="10.00">precice::xml::OnErrorFunc</text>
</a>
</g>
</g>
<!-- Node17&#45;&gt;Node22 -->
<g id="edge23_Node000017_Node000022" class="edge">
<title>Node17&#45;&gt;Node22</title>
<g id="a_edge23_Node000017_Node000022"><a xlink:title=" ">
<path fill="none" stroke="#63b8ff" d="M322.18,-464.49C335.47,-465.81 349.46,-467.19 363.02,-468.54"/>
<polygon fill="#63b8ff" stroke="#63b8ff" points="363,-472.05 373.29,-469.55 363.69,-465.08 363,-472.05"/>
</a>
</g>
</g>
<!-- Node24 -->
<g id="Node000024" class="node">
<title>Node24</title>
<g id="a_Node000024"><a xlink:href="namespaceprecice_1_1xml.html#a4b36381c6b22c9401bb8007b86121534" target="_top" xlink:title=" ">
<polygon fill="white" stroke="#666666" points="527,-449 362,-449 362,-430 527,-430 527,-449"/>
<text text-anchor="middle" x="444.5" y="-437" font-family="Helvetica,sans-Serif" font-size="10.00">precice::xml::OnFatalErrorFunc</text>
</a>
</g>
</g>
<!-- Node17&#45;&gt;Node24 -->
<g id="edge25_Node000017_Node000024" class="edge">
<title>Node17&#45;&gt;Node24</title>
<g id="a_edge25_Node000017_Node000024"><a xlink:title=" ">
<path fill="none" stroke="#63b8ff" d="M322.18,-450.87C331.88,-449.96 341.95,-449.02 351.96,-448.08"/>
<polygon fill="#63b8ff" stroke="#63b8ff" points="352.31,-451.56 361.94,-447.15 351.65,-444.6 352.31,-451.56"/>
</a>
</g>
</g>
<!-- Node25 -->
<g id="Node000025" class="node">
<title>Node25</title>
<g id="a_Node000025"><a xlink:href="namespaceprecice_1_1xml.html#a4bf01772fdb97cbeb0e5999f91259b54" target="_top" xlink:title=" ">
<polygon fill="white" stroke="#666666" points="531,-250 358,-250 358,-231 531,-231 531,-250"/>
<text text-anchor="middle" x="444.5" y="-238" font-family="Helvetica,sans-Serif" font-size="10.00">precice::xml::OnStartElementNs</text>
</a>
</g>
</g>
<!-- Node17&#45;&gt;Node25 -->
<g id="edge27_Node000017_Node000025" class="edge">
<title>Node17&#45;&gt;Node25</title>
<g id="a_edge27_Node000017_Node000025"><a xlink:title=" ">
<path fill="none" stroke="#63b8ff" d="M309.46,-442.45C314.08,-439.67 318.36,-436.39 322,-432.5 362.37,-389.34 324.57,-353.23 358,-304.5 372.6,-283.21 396.61,-266.15 415.47,-255.01"/>
<polygon fill="#63b8ff" stroke="#63b8ff" points="417.28,-258.01 424.25,-250.03 413.83,-251.92 417.28,-258.01"/>
</a>
</g>
</g>
<!-- Node29 -->
<g id="Node000029" class="node">
<title>Node29</title>
<g id="a_Node000029"><a xlink:href="namespaceprecice_1_1xml.html#ac2900d138afeb687f3b88df26c7344b0" target="_top" xlink:title=" ">
<polygon fill="white" stroke="#666666" points="517.5,-411.5 371.5,-411.5 371.5,-381.5 517.5,-381.5 517.5,-411.5"/>
<text text-anchor="start" x="379.5" y="-399.5" font-family="Helvetica,sans-Serif" font-size="10.00">precice::xml::OnStructured</text>
<text text-anchor="middle" x="444.5" y="-388.5" font-family="Helvetica,sans-Serif" font-size="10.00">ErrorFunc</text>
</a>
</g>
</g>
<!-- Node17&#45;&gt;Node29 -->
<g id="edge31_Node000017_Node000029" class="edge">
<title>Node17&#45;&gt;Node29</title>
<g id="a_edge31_Node000017_Node000029"><a xlink:title=" ">
<path fill="none" stroke="#63b8ff" d="M293.85,-442.49C317.96,-434.01 345.72,-424.35 358,-420.5 364.52,-418.45 371.35,-416.4 378.18,-414.39"/>
<polygon fill="#63b8ff" stroke="#63b8ff" points="379.53,-417.65 388.16,-411.5 377.58,-410.92 379.53,-417.65"/>
</a>
</g>
</g>
<!-- Node31 -->
<g id="Node000031" class="node">
<title>Node31</title>
<g id="a_Node000031"><a xlink:href="namespaceprecice_1_1utils.html#abaf4f17929f6282f43af2fab8b45e049" target="_top" xlink:title="creates a portable hash of the given input">
<polygon fill="white" stroke="#666666" points="517,-333 372,-333 372,-314 517,-314 517,-333"/>
<text text-anchor="middle" x="444.5" y="-321" font-family="Helvetica,sans-Serif" font-size="10.00">precice::utils::preciceHash</text>
</a>
</g>
</g>
<!-- Node17&#45;&gt;Node31 -->
<g id="edge34_Node000017_Node000031" class="edge">
<title>Node17&#45;&gt;Node31</title>
<g id="a_edge34_Node000017_Node000031"><a xlink:title=" ">
<path fill="none" stroke="#63b8ff" d="M306.3,-442.45C311.91,-439.65 317.28,-436.36 322,-432.5 346.07,-412.81 335.79,-394.27 358,-372.5 373.15,-357.65 393.69,-345.68 410.84,-337.3"/>
<polygon fill="#63b8ff" stroke="#63b8ff" points="412.4,-340.43 419.97,-333.01 409.43,-334.1 412.4,-340.43"/>
</a>
</g>
</g>
<!-- Node36 -->
<g id="Node000036" class="node">
<title>Node36</title>
<g id="a_Node000036"><a xlink:href="classprecice_1_1xml_1_1ConfigParser.html#a844f2c5563ecf13a45c139bbd5175e2f" target="_top" xlink:title="Reads and returns the content of the file.">
<polygon fill="white" stroke="#666666" points="516,-117.5 373,-117.5 373,-87.5 516,-87.5 516,-117.5"/>
<text text-anchor="start" x="381" y="-105.5" font-family="Helvetica,sans-Serif" font-size="10.00">precice::xml::ConfigParser</text>
<text text-anchor="middle" x="444.5" y="-94.5" font-family="Helvetica,sans-Serif" font-size="10.00">::readFileContent</text>
</a>
</g>
</g>
<!-- Node17&#45;&gt;Node36 -->
<g id="edge40_Node000017_Node000036" class="edge">
<title>Node17&#45;&gt;Node36</title>
<g id="a_edge40_Node000017_Node000036"><a xlink:title=" ">
<path fill="none" stroke="#63b8ff" d="M310.56,-442.42C314.84,-439.65 318.74,-436.38 322,-432.5 383.25,-359.71 321.3,-309.27 358,-221.5 373.47,-184.5 402.31,-147.95 422.18,-125.32"/>
<polygon fill="#63b8ff" stroke="#63b8ff" points="425,-127.42 429.06,-117.63 419.78,-122.75 425,-127.42"/>
</a>
</g>
</g>
<!-- Node19 -->
<g id="Node000019" class="node">
<title>Node19</title>
<g id="a_Node000019"><a xlink:href="classprecice_1_1xml_1_1ConfigParser.html#a0ff864a595f1372bc59d37b7590ec375" target="_top" xlink:title="Callback for text sections in xml file.">
<polygon fill="white" stroke="#666666" points="711.5,-572.5 568.5,-572.5 568.5,-542.5 711.5,-542.5 711.5,-572.5"/>
<text text-anchor="start" x="576.5" y="-560.5" font-family="Helvetica,sans-Serif" font-size="10.00">precice::xml::ConfigParser</text>
<text text-anchor="middle" x="640" y="-549.5" font-family="Helvetica,sans-Serif" font-size="10.00">::OnTextSection</text>
</a>
</g>
</g>
<!-- Node18&#45;&gt;Node19 -->
<g id="edge20_Node000018_Node000019" class="edge">
<title>Node18&#45;&gt;Node19</title>
<g id="a_edge20_Node000018_Node000019"><a xlink:title=" ">
<path fill="none" stroke="#63b8ff" d="M519.21,-553.17C531.93,-553.63 545.22,-554.11 558.12,-554.57"/>
<polygon fill="#63b8ff" stroke="#63b8ff" points="558.25,-558.08 568.37,-554.94 558.5,-551.09 558.25,-558.08"/>
</a>
</g>
</g>
<!-- Node21 -->
<g id="Node000021" class="node">
<title>Node21</title>
<g id="a_Node000021"><a xlink:href="classprecice_1_1xml_1_1ConfigParser.html#a2d0d6f81fd09dae025356b3cd9d5c5d3" target="_top" xlink:title="Callback for End&#45;Tag.">
<polygon fill="white" stroke="#666666" points="711.5,-524.5 568.5,-524.5 568.5,-494.5 711.5,-494.5 711.5,-524.5"/>
<text text-anchor="start" x="576.5" y="-512.5" font-family="Helvetica,sans-Serif" font-size="10.00">precice::xml::ConfigParser</text>
<text text-anchor="middle" x="640" y="-501.5" font-family="Helvetica,sans-Serif" font-size="10.00">::OnEndElement</text>
</a>
</g>
</g>
<!-- Node20&#45;&gt;Node21 -->
<g id="edge22_Node000020_Node000021" class="edge">
<title>Node20&#45;&gt;Node21</title>
<g id="a_edge22_Node000020_Node000021"><a xlink:title=" ">
<path fill="none" stroke="#63b8ff" d="M528.12,-511.79C538.03,-511.59 548.15,-511.38 558.03,-511.17"/>
<polygon fill="#63b8ff" stroke="#63b8ff" points="558.31,-514.67 568.24,-510.96 558.17,-507.67 558.31,-514.67"/>
</a>
</g>
</g>
<!-- Node23 -->
<g id="Node000023" class="node">
<title>Node23</title>
<g id="a_Node000023"><a xlink:href="classprecice_1_1xml_1_1ConfigParser.html#a9175468dd6a6d5ea176e9eb621e7917a" target="_top" xlink:title="Proxy for error and warning messages from libxml2.">
<polygon fill="white" stroke="#666666" points="711.5,-476.5 568.5,-476.5 568.5,-446.5 711.5,-446.5 711.5,-476.5"/>
<text text-anchor="start" x="576.5" y="-464.5" font-family="Helvetica,sans-Serif" font-size="10.00">precice::xml::ConfigParser</text>
<text text-anchor="middle" x="640" y="-453.5" font-family="Helvetica,sans-Serif" font-size="10.00">::MessageProxy</text>
</a>
</g>
</g>
<!-- Node22&#45;&gt;Node23 -->
<g id="edge24_Node000022_Node000023" class="edge">
<title>Node22&#45;&gt;Node23</title>
<g id="a_edge24_Node000022_Node000023"><a xlink:title=" ">
<path fill="none" stroke="#63b8ff" d="M515.63,-471.06C529.47,-469.99 544.1,-468.86 558.25,-467.76"/>
<polygon fill="#63b8ff" stroke="#63b8ff" points="558.76,-471.23 568.46,-466.97 558.22,-464.25 558.76,-471.23"/>
</a>
</g>
</g>
<!-- Node24&#45;&gt;Node23 -->
<g id="edge26_Node000024_Node000023" class="edge">
<title>Node24&#45;&gt;Node23</title>
<g id="a_edge26_Node000024_Node000023"><a xlink:title=" ">
<path fill="none" stroke="#63b8ff" d="M527,-448.77C537.3,-449.94 547.84,-451.14 558.14,-452.31"/>
<polygon fill="#63b8ff" stroke="#63b8ff" points="558,-455.81 568.33,-453.46 558.79,-448.86 558,-455.81"/>
</a>
</g>
</g>
<!-- Node26 -->
<g id="Node000026" class="node">
<title>Node26</title>
<g id="a_Node000026"><a xlink:href="namespaceprecice_1_1xml.html#af0bb73c679f3549a88e54c2adb42e44c" target="_top" xlink:title="Decodes escape sequences of a given xml.">
<polygon fill="white" stroke="#666666" points="709.5,-204 570.5,-204 570.5,-185 709.5,-185 709.5,-204"/>
<text text-anchor="middle" x="640" y="-192" font-family="Helvetica,sans-Serif" font-size="10.00">precice::xml::decodeXML</text>
</a>
</g>
</g>
<!-- Node25&#45;&gt;Node26 -->
<g id="edge28_Node000025_Node000026" class="edge">
<title>Node25&#45;&gt;Node26</title>
<g id="a_edge28_Node000025_Node000026"><a xlink:title=" ">
<path fill="none" stroke="#63b8ff" d="M485.59,-230.97C515.56,-223.85 556.72,-214.06 588.86,-206.42"/>
<polygon fill="#63b8ff" stroke="#63b8ff" points="590.04,-209.74 598.96,-204.02 588.42,-202.93 590.04,-209.74"/>
</a>
</g>
</g>
<!-- Node27 -->
<g id="Node000027" class="node">
<title>Node27</title>
<g id="a_Node000027"><a target="_parent" xlink:href="http://en.cppreference.com/w/cpp/string/basic_string/find.html#" xlink:title=" ">
<polygon fill="white" stroke="#666666" points="853,-222 764,-222 764,-203 853,-203 853,-222"/>
<text text-anchor="middle" x="808.5" y="-210" font-family="Helvetica,sans-Serif" font-size="10.00">std::string::find</text>
</a>
</g>
</g>
<!-- Node26&#45;&gt;Node27 -->
<g id="edge29_Node000026_Node000027" class="edge">
<title>Node26&#45;&gt;Node27</title>
<g id="a_edge29_Node000026_Node000027"><a xlink:title=" ">
<path fill="none" stroke="#63b8ff" d="M709.68,-201.93C724.39,-203.51 739.72,-205.17 753.76,-206.69"/>
<polygon fill="#63b8ff" stroke="#63b8ff" points="753.42,-210.17 763.73,-207.77 754.17,-203.21 753.42,-210.17"/>
</a>
</g>
</g>
<!-- Node28 -->
<g id="Node000028" class="node">
<title>Node28</title>
<g id="a_Node000028"><a target="_parent" xlink:href="http://en.cppreference.com/w/cpp/string/basic_string/replace.html#" xlink:title=" ">
<polygon fill="white" stroke="#666666" points="862,-185 755,-185 755,-166 862,-166 862,-185"/>
<text text-anchor="middle" x="808.5" y="-173" font-family="Helvetica,sans-Serif" font-size="10.00">std::string::replace</text>
</a>
</g>
</g>
<!-- Node26&#45;&gt;Node28 -->
<g id="edge30_Node000026_Node000028" class="edge">
<title>Node26&#45;&gt;Node28</title>
<g id="a_edge30_Node000026_Node000028"><a xlink:title=" ">
<path fill="none" stroke="#63b8ff" d="M709.68,-186.66C721.21,-185.35 733.11,-183.99 744.48,-182.69"/>
<polygon fill="#63b8ff" stroke="#63b8ff" points="745.21,-186.13 754.75,-181.52 744.41,-179.18 745.21,-186.13"/>
</a>
</g>
</g>
<!-- Node29&#45;&gt;Node23 -->
<g id="edge33_Node000029_Node000023" class="edge">
<title>Node29&#45;&gt;Node23</title>
<g id="a_edge33_Node000029_Node000023"><a xlink:title=" ">
<path fill="none" stroke="#63b8ff" d="M503.35,-411.51C512.67,-414.28 522.15,-417.31 531,-420.5 547.47,-426.44 550.72,-430.07 567,-436.5 572.52,-438.68 578.31,-440.86 584.12,-442.98"/>
<polygon fill="#63b8ff" stroke="#63b8ff" points="583.25,-446.39 593.85,-446.47 585.62,-439.8 583.25,-446.39"/>
</a>
</g>
</g>
<!-- Node30 -->
<g id="Node000030" class="node">
<title>Node30</title>
<g id="a_Node000030"><a target="_parent" xlink:href="http://en.cppreference.com/w/cpp/string/basic_string_view/find.html#" xlink:title=" ">
<polygon fill="white" stroke="#666666" points="698.5,-428 581.5,-428 581.5,-409 698.5,-409 698.5,-428"/>
<text text-anchor="middle" x="640" y="-416" font-family="Helvetica,sans-Serif" font-size="10.00">std::string_view::find</text>
</a>
</g>
</g>
<!-- Node29&#45;&gt;Node30 -->
<g id="edge32_Node000029_Node000030" class="edge">
<title>Node29&#45;&gt;Node30</title>
<g id="a_edge32_Node000029_Node000030"><a xlink:title=" ">
<path fill="none" stroke="#63b8ff" d="M517.55,-404.69C535.16,-406.69 553.93,-408.83 571.32,-410.81"/>
<polygon fill="#63b8ff" stroke="#63b8ff" points="571.05,-414.3 581.39,-411.95 571.85,-407.34 571.05,-414.3"/>
</a>
</g>
</g>
<!-- Node31&#45;&gt;Node8 -->
<g id="edge39_Node000031_Node000008" class="edge">
<title>Node31&#45;&gt;Node8</title>
<g id="a_edge39_Node000031_Node000008"><a xlink:title=" ">
<path fill="none" stroke="#63b8ff" d="M475.87,-333.07C500.4,-340.72 535.83,-351.59 567,-360.5 631.58,-378.95 657.49,-361.69 713,-399.5 754.48,-427.75 784.68,-480.38 798.72,-508.55"/>
<polygon fill="#63b8ff" stroke="#63b8ff" points="795.65,-510.24 803.15,-517.73 801.96,-507.2 795.65,-510.24"/>
</a>
</g>
</g>
<!-- Node32 -->
<g id="Node000032" class="node">
<title>Node32</title>
<g id="a_Node000032"><a target="_parent" xlink:href="http://en.cppreference.com/w/cpp/string/basic_string/begin.html#" xlink:title=" ">
<polygon fill="white" stroke="#666666" points="689,-315 591,-315 591,-296 689,-296 689,-315"/>
<text text-anchor="middle" x="640" y="-303" font-family="Helvetica,sans-Serif" font-size="10.00">std::string::begin</text>
</a>
</g>
</g>
<!-- Node31&#45;&gt;Node32 -->
<g id="edge35_Node000031_Node000032" class="edge">
<title>Node31&#45;&gt;Node32</title>
<g id="a_edge35_Node000031_Node000032"><a xlink:title=" ">
<path fill="none" stroke="#63b8ff" d="M517,-316.85C538,-314.9 560.7,-312.78 580.76,-310.92"/>
<polygon fill="#63b8ff" stroke="#63b8ff" points="581.35,-314.38 590.98,-309.97 580.7,-307.41 581.35,-314.38"/>
</a>
</g>
</g>
<!-- Node33 -->
<g id="Node000033" class="node">
<title>Node33</title>
<g id="a_Node000033"><a target="_parent" xlink:href="http://en.cppreference.com/w/cpp/string/basic_string_view/data.html#" xlink:title=" ">
<polygon fill="white" stroke="#666666" points="700.5,-278 579.5,-278 579.5,-259 700.5,-259 700.5,-278"/>
<text text-anchor="middle" x="640" y="-266" font-family="Helvetica,sans-Serif" font-size="10.00">std::string_view::data</text>
</a>
</g>
</g>
<!-- Node31&#45;&gt;Node33 -->
<g id="edge36_Node000031_Node000033" class="edge">
<title>Node31&#45;&gt;Node33</title>
<g id="a_edge36_Node000031_Node000033"><a xlink:title=" ">
<path fill="none" stroke="#63b8ff" d="M475.34,-313.95C499.86,-306.22 535.55,-295.21 567,-286.5 574.25,-284.49 581.94,-282.46 589.49,-280.53"/>
<polygon fill="#63b8ff" stroke="#63b8ff" points="590.46,-283.89 599.29,-278.04 588.74,-277.11 590.46,-283.89"/>
</a>
</g>
</g>
<!-- Node34 -->
<g id="Node000034" class="node">
<title>Node34</title>
<g id="a_Node000034"><a target="_parent" xlink:href="http://en.cppreference.com/w/cpp/string/basic_string/end.html#" xlink:title=" ">
<polygon fill="white" stroke="#666666" points="684.5,-241 595.5,-241 595.5,-222 684.5,-222 684.5,-241"/>
<text text-anchor="middle" x="640" y="-229" font-family="Helvetica,sans-Serif" font-size="10.00">std::string::end</text>
</a>
</g>
</g>
<!-- Node31&#45;&gt;Node34 -->
<g id="edge37_Node000031_Node000034" class="edge">
<title>Node31&#45;&gt;Node34</title>
<g id="a_edge37_Node000031_Node000034"><a xlink:title=" ">
<path fill="none" stroke="#63b8ff" d="M458.28,-313.9C479.68,-298.25 524.62,-267.22 567,-249.5 572.85,-247.05 579.11,-244.88 585.41,-242.97"/>
<polygon fill="#63b8ff" stroke="#63b8ff" points="586.62,-246.27 595.29,-240.18 584.71,-239.53 586.62,-246.27"/>
</a>
</g>
</g>
<!-- Node35 -->
<g id="Node000035" class="node">
<title>Node35</title>
<g id="a_Node000035"><a target="_parent" xlink:href="http://en.cppreference.com/w/cpp/string/basic_string/erase.html#" xlink:title=" ">
<polygon fill="white" stroke="#666666" points="689,-352 591,-352 591,-333 689,-333 689,-352"/>
<text text-anchor="middle" x="640" y="-340" font-family="Helvetica,sans-Serif" font-size="10.00">std::string::erase</text>
</a>
</g>
</g>
<!-- Node31&#45;&gt;Node35 -->
<g id="edge38_Node000031_Node000035" class="edge">
<title>Node31&#45;&gt;Node35</title>
<g id="a_edge38_Node000031_Node000035"><a xlink:title=" ">
<path fill="none" stroke="#63b8ff" d="M517,-330.52C538,-332.58 560.7,-334.81 580.76,-336.78"/>
<polygon fill="#63b8ff" stroke="#63b8ff" points="580.69,-340.29 590.98,-337.79 581.37,-333.32 580.69,-340.29"/>
</a>
</g>
</g>
<!-- Node37 -->
<g id="Node000037" class="node">
<title>Node37</title>
<g id="a_Node000037"><a target="_parent" xlink:href="http://en.cppreference.com/w/cpp/string/basic_string/data.html#" xlink:title=" ">
<polygon fill="white" stroke="#666666" points="686.5,-167 593.5,-167 593.5,-148 686.5,-148 686.5,-167"/>
<text text-anchor="middle" x="640" y="-155" font-family="Helvetica,sans-Serif" font-size="10.00">std::string::data</text>
</a>
</g>
</g>
<!-- Node36&#45;&gt;Node37 -->
<g id="edge41_Node000036_Node000037" class="edge">
<title>Node36&#45;&gt;Node37</title>
<g id="a_edge41_Node000036_Node000037"><a xlink:title=" ">
<path fill="none" stroke="#63b8ff" d="M495.06,-117.55C517.05,-124.13 543.27,-131.86 567,-138.5 575.14,-140.78 583.82,-143.14 592.24,-145.38"/>
<polygon fill="#63b8ff" stroke="#63b8ff" points="591.38,-148.77 601.94,-147.95 593.17,-142.01 591.38,-148.77"/>
</a>
</g>
</g>
<!-- Node38 -->
<g id="Node000038" class="node">
<title>Node38</title>
<g id="a_Node000038"><a target="_parent" xlink:href="http://en.cppreference.com/w/cpp/string/basic_string/empty.html#" xlink:title=" ">
<polygon fill="white" stroke="#666666" points="691.5,-130 588.5,-130 588.5,-111 691.5,-111 691.5,-130"/>
<text text-anchor="middle" x="640" y="-118" font-family="Helvetica,sans-Serif" font-size="10.00">std::string::empty</text>
</a>
</g>
</g>
<!-- Node36&#45;&gt;Node38 -->
<g id="edge42_Node000036_Node000038" class="edge">
<title>Node36&#45;&gt;Node38</title>
<g id="a_edge42_Node000036_Node000038"><a xlink:title=" ">
<path fill="none" stroke="#63b8ff" d="M516.18,-109.07C536.59,-110.97 558.67,-113.03 578.41,-114.86"/>
<polygon fill="#63b8ff" stroke="#63b8ff" points="578.21,-118.36 588.49,-115.8 578.86,-111.39 578.21,-118.36"/>
</a>
</g>
</g>
<!-- Node39 -->
<g id="Node000039" class="node">
<title>Node39</title>
<g id="a_Node000039"><a target="_parent" xlink:href="http://en.cppreference.com/w/cpp/filesystem/file_size.html#" xlink:title=" ">
<polygon fill="white" stroke="#666666" points="707,-93 573,-93 573,-74 707,-74 707,-93"/>
<text text-anchor="middle" x="640" y="-81" font-family="Helvetica,sans-Serif" font-size="10.00">std::filesystem::file_size</text>
</a>
</g>
</g>
<!-- Node36&#45;&gt;Node39 -->
<g id="edge43_Node000036_Node000039" class="edge">
<title>Node36&#45;&gt;Node39</title>
<g id="a_edge43_Node000036_Node000039"><a xlink:title=" ">
<path fill="none" stroke="#63b8ff" d="M516.18,-95.56C531.32,-94.07 547.39,-92.5 562.73,-90.99"/>
<polygon fill="#63b8ff" stroke="#63b8ff" points="563.09,-94.47 572.7,-90.01 562.4,-87.5 563.09,-94.47"/>
</a>
</g>
</g>
<!-- Node40 -->
<g id="Node000040" class="node">
<title>Node40</title>
<g id="a_Node000040"><a target="_parent" xlink:href="http://en.cppreference.com/w/cpp/error/error_code/message.html#" xlink:title=" ">
<polygon fill="white" stroke="#666666" points="710,-56 570,-56 570,-37 710,-37 710,-56"/>
<text text-anchor="middle" x="640" y="-44" font-family="Helvetica,sans-Serif" font-size="10.00">std::error_code::message</text>
</a>
</g>
</g>
<!-- Node36&#45;&gt;Node40 -->
<g id="edge44_Node000036_Node000040" class="edge">
<title>Node36&#45;&gt;Node40</title>
<g id="a_edge44_Node000036_Node000040"><a xlink:title=" ">
<path fill="none" stroke="#63b8ff" d="M491.47,-87.43C514.12,-80.18 541.89,-71.56 567,-64.5 574.08,-62.51 581.58,-60.51 588.96,-58.61"/>
<polygon fill="#63b8ff" stroke="#63b8ff" points="590.07,-61.94 598.9,-56.09 588.35,-55.16 590.07,-61.94"/>
</a>
</g>
</g>
<!-- Node41 -->
<g id="Node000041" class="node">
<title>Node41</title>
<g id="a_Node000041"><a target="_parent" xlink:href="http://en.cppreference.com/w/cpp/io/basic_istream/read.html#" xlink:title=" ">
<polygon fill="white" stroke="#666666" points="693.5,-19 586.5,-19 586.5,0 693.5,0 693.5,-19"/>
<text text-anchor="middle" x="640" y="-7" font-family="Helvetica,sans-Serif" font-size="10.00">std::ifstream::read</text>
</a>
</g>
</g>
<!-- Node36&#45;&gt;Node41 -->
<g id="edge45_Node000036_Node000041" class="edge">
<title>Node36&#45;&gt;Node41</title>
<g id="a_edge45_Node000036_Node000041"><a xlink:title=" ">
<path fill="none" stroke="#63b8ff" d="M465.51,-87.44C488.77,-70.6 528.85,-43.58 567,-27.5 571.78,-25.49 576.83,-23.66 581.95,-22.02"/>
<polygon fill="#63b8ff" stroke="#63b8ff" points="583.26,-25.28 591.84,-19.07 581.26,-18.57 583.26,-25.28"/>
</a>
</g>
</g>
</g>
</svg>

<g id="navigator" transform="translate(0 0)" fill="#404254">
  <rect fill="#f2f5e9" fill-opacity="0.5" stroke="#606060" stroke-width=".5" x="0" y="0" width="60" height="60"/>
  <use id="zoomplus" xlink:href="#zoomPlus" x="17" y="9" onmousedown="handleZoom(evt,'in')"/>
  <use id="zoomminus" xlink:href="#zoomMin" x="42" y="9" onmousedown="handleZoom(evt,'out')"/>
  <use id="reset" xlink:href="#resetDef" x="30" y="36" onmousedown="handleReset()"/>
   <use id="arrowup" xlink:href="#arrowUp" x="0" y="0" onmousedown="handlePan(0,-1)"/>
  <use id="arrowright" xlink:href="#arrowRight" x="0" y="0" onmousedown="handlePan(1,0)"/>
  <use id="arrowdown" xlink:href="#arrowDown" x="0" y="0" onmousedown="handlePan(0,1)"/>
  <use id="arrowleft" xlink:href="#arrowLeft" x="0" y="0" onmousedown="handlePan(-1,0)"/>
</g>
<svg viewBox="0 0 15 15" width="100%" height="30px" preserveAspectRatio="xMaxYMin meet">
 <g id="arrow_out" transform="scale(0.3 0.3)">
  <a xlink:href="classprecice_1_1xml_1_1ConfigParser_a4a11659efece733814108afaabcc0088_cgraph_org.svg" target="_base">
   <rect id="button" ry="5" rx="5" y="6" x="6" height="38" width="38"
        fill="#f2f5e9" fill-opacity="0.5" stroke="#606060" stroke-width="1.0"/>
   <path id="arrow"
     d="M 11.500037,31.436501 C 11.940474,20.09759 22.043105,11.32322 32.158766,21.979434 L 37.068811,17.246167 C 37.068811,17.246167 37.088388,32 37.088388,32 L 22.160133,31.978069 C 22.160133,31.978069 26.997745,27.140456 26.997745,27.140456 C 18.528582,18.264221 13.291696,25.230495 11.500037,31.436501 z"
     style="fill:#404040;"/>
  </a>
 </g>
</svg>

<style type='text/css'>
<![CDATA[
[data-mouse-over-selected='false'] { opacity: 0.7; }
[data-mouse-over-selected='true']  { opacity: 1.0; }
]]>
</style>
<script type="application/ecmascript"><![CDATA[
document.addEventListener('DOMContentLoaded', (event) => {
  highlightEdges();
  highlightAdjacentNodes();
});
]]></script>
</svg>
