<?xml version="1.0" encoding="UTF-8" standalone="no"?>
<!DOCTYPE svg PUBLIC "-//W3C//DTD SVG 1.1//EN"
 "http://www.w3.org/Graphics/SVG/1.1/DTD/svg11.dtd">
<!-- Generated by graphviz version 2.43.0 (0)
 -->
<!-- Title: precice::mesh::MeshConfiguration::xmlTagCallback Pages: 1 -->
<svg width="418pt" height="323pt"
 viewBox="0.00 0.00 418.00 322.50" xmlns="http://www.w3.org/2000/svg" xmlns:xlink="http://www.w3.org/1999/xlink">
<g id="graph0" class="graph" transform="scale(1 1) rotate(0) translate(4 318.5)">
<title>precice::mesh::MeshConfiguration::xmlTagCallback</title>
<polygon fill="white" stroke="transparent" points="-4,4 -4,-318.5 414,-318.5 414,4 -4,4"/>
<!-- Node1 -->
<g id="node1" class="node">
<title>Node1</title>
<g id="a_node1"><a xlink:title="Callback at begin of XML tag.">
<polygon fill="#bfbfbf" stroke="black" points="0,-147.5 0,-177.5 182,-177.5 182,-147.5 0,-147.5"/>
<text text-anchor="start" x="8" y="-165.5" font-family="Helvetica,sans-Serif" font-size="10.00">precice::mesh::MeshConfiguration</text>
<text text-anchor="middle" x="91" y="-154.5" font-family="Helvetica,sans-Serif" font-size="10.00">::xmlTagCallback</text>
</a>
</g>
</g>
<!-- Node2 -->
<g id="node2" class="node">
<title>Node2</title>
<g id="a_node2"><a xlink:href="namespaceprecice_1_1detail.html#adede399b4b92eea01face616a0cc7051" target="_top" xlink:title=" ">
<polygon fill="white" stroke="black" points="257.5,-295 257.5,-314 370.5,-314 370.5,-295 257.5,-295"/>
<text text-anchor="middle" x="314" y="-302" font-family="Helvetica,sans-Serif" font-size="10.00">precice::detail::data</text>
</a>
</g>
</g>
<!-- Node1&#45;&gt;Node2 -->
<g id="edge1" class="edge">
<title>Node1&#45;&gt;Node2</title>
<path fill="none" stroke="midnightblue" d="M102.87,-177.83C122.57,-204.35 166.9,-258.54 218,-285.5 227.13,-290.32 237.35,-293.92 247.6,-296.6"/>
<polygon fill="midnightblue" stroke="midnightblue" points="246.87,-300.03 257.41,-298.91 248.48,-293.22 246.87,-300.03"/>
</g>
<!-- Node3 -->
<g id="node3" class="node">
<title>Node3</title>
<g id="a_node3"><a xlink:href="classprecice_1_1mesh_1_1MeshConfiguration.html#aec22d98371b16b2625452d21f3973222" target="_top" xlink:title="Get the number of dimensions that data values of this type (scalar/vector) have on this mesh.">
<polygon fill="white" stroke="black" points="223,-245.5 223,-275.5 405,-275.5 405,-245.5 223,-245.5"/>
<text text-anchor="start" x="231" y="-263.5" font-family="Helvetica,sans-Serif" font-size="10.00">precice::mesh::MeshConfiguration</text>
<text text-anchor="middle" x="314" y="-252.5" font-family="Helvetica,sans-Serif" font-size="10.00">::getDataDimensions</text>
</a>
</g>
</g>
<!-- Node1&#45;&gt;Node3 -->
<g id="edge2" class="edge">
<title>Node1&#45;&gt;Node3</title>
<path fill="none" stroke="midnightblue" d="M113.32,-177.58C137.63,-194.15 179.04,-220.52 218,-236.5 223.12,-238.6 228.46,-240.55 233.9,-242.36"/>
<polygon fill="midnightblue" stroke="midnightblue" points="233.17,-245.8 243.76,-245.46 235.27,-239.12 233.17,-245.8"/>
</g>
<!-- Node4 -->
<g id="node4" class="node">
<title>Node4</title>
<g id="a_node4"><a xlink:href="classprecice_1_1utils_1_1ManageUniqueIDs.html#a02be264c279698ae293587b6576088b5" target="_top" xlink:title=" ">
<polygon fill="white" stroke="black" points="235,-196.5 235,-226.5 393,-226.5 393,-196.5 235,-196.5"/>
<text text-anchor="start" x="243" y="-214.5" font-family="Helvetica,sans-Serif" font-size="10.00">precice::utils::ManageUnique</text>
<text text-anchor="middle" x="314" y="-203.5" font-family="Helvetica,sans-Serif" font-size="10.00">IDs::getFreeID</text>
</a>
</g>
</g>
<!-- Node1&#45;&gt;Node4 -->
<g id="edge3" class="edge">
<title>Node1&#45;&gt;Node4</title>
<path fill="none" stroke="midnightblue" d="M159.81,-177.53C183.67,-182.83 210.68,-188.81 235.29,-194.27"/>
<polygon fill="midnightblue" stroke="midnightblue" points="234.8,-197.75 245.32,-196.49 236.31,-190.91 234.8,-197.75"/>
</g>
<!-- Node5 -->
<g id="node5" class="node">
<title>Node5</title>
<g id="a_node5"><a xlink:href="classprecice_1_1xml_1_1XMLTag.html#ac74a7af0b26a7d519756ccbd9575f7e4" target="_top" xlink:title=" ">
<polygon fill="white" stroke="black" points="253.5,-147.5 253.5,-177.5 374.5,-177.5 374.5,-147.5 253.5,-147.5"/>
<text text-anchor="start" x="261.5" y="-165.5" font-family="Helvetica,sans-Serif" font-size="10.00">precice::xml::XMLTag</text>
<text text-anchor="middle" x="314" y="-154.5" font-family="Helvetica,sans-Serif" font-size="10.00">::getIntAttributeValue</text>
</a>
</g>
</g>
<!-- Node1&#45;&gt;Node5 -->
<g id="edge4" class="edge">
<title>Node1&#45;&gt;Node5</title>
<path fill="none" stroke="midnightblue" d="M182.21,-162.5C202.54,-162.5 223.83,-162.5 243.18,-162.5"/>
<polygon fill="midnightblue" stroke="midnightblue" points="243.41,-166 253.41,-162.5 243.41,-159 243.41,-166"/>
</g>
<!-- Node6 -->
<g id="node6" class="node">
<title>Node6</title>
<g id="a_node6"><a xlink:href="classprecice_1_1xml_1_1XMLTag.html#a0ef9cef092179e6b86eaf5144fa5c088" target="_top" xlink:title="Returns name (without namespace).">
<polygon fill="white" stroke="black" points="254.5,-98.5 254.5,-128.5 373.5,-128.5 373.5,-98.5 254.5,-98.5"/>
<text text-anchor="start" x="262.5" y="-116.5" font-family="Helvetica,sans-Serif" font-size="10.00">precice::xml::XMLTag</text>
<text text-anchor="middle" x="314" y="-105.5" font-family="Helvetica,sans-Serif" font-size="10.00">::getName</text>
</a>
</g>
</g>
<!-- Node1&#45;&gt;Node6 -->
<g id="edge5" class="edge">
<title>Node1&#45;&gt;Node6</title>
<path fill="none" stroke="midnightblue" d="M159.81,-147.47C186.59,-141.53 217.32,-134.72 244.19,-128.76"/>
<polygon fill="midnightblue" stroke="midnightblue" points="245.28,-132.1 254.28,-126.52 243.76,-125.27 245.28,-132.1"/>
</g>
<!-- Node7 -->
<g id="node7" class="node">
<title>Node7</title>
<g id="a_node7"><a xlink:href="classprecice_1_1xml_1_1XMLTag.html#a31c349d79529108e575f36271e5ffb83" target="_top" xlink:title=" ">
<polygon fill="white" stroke="black" points="245.5,-49.5 245.5,-79.5 382.5,-79.5 382.5,-49.5 245.5,-49.5"/>
<text text-anchor="start" x="253.5" y="-67.5" font-family="Helvetica,sans-Serif" font-size="10.00">precice::xml::XMLTag</text>
<text text-anchor="middle" x="314" y="-56.5" font-family="Helvetica,sans-Serif" font-size="10.00">::getStringAttributeValue</text>
</a>
</g>
</g>
<!-- Node1&#45;&gt;Node7 -->
<g id="edge6" class="edge">
<title>Node1&#45;&gt;Node7</title>
<path fill="none" stroke="midnightblue" d="M113.83,-147.41C138.24,-131.13 179.44,-105.41 218,-89.5 224.09,-86.99 230.51,-84.66 237.01,-82.53"/>
<polygon fill="midnightblue" stroke="midnightblue" points="238.08,-85.86 246.58,-79.54 235.99,-79.18 238.08,-85.86"/>
</g>
<!-- Node8 -->
<g id="node8" class="node">
<title>Node8</title>
<g id="a_node8"><a xlink:href="classprecice_1_1mesh_1_1MeshConfiguration.html#af176dbe0c0c22db05ee91b23a5471a00" target="_top" xlink:title="Initialize the map between meshes and dimensions, for unit tests that directly create mesh objects wi...">
<polygon fill="white" stroke="black" points="218,-0.5 218,-30.5 410,-30.5 410,-0.5 218,-0.5"/>
<text text-anchor="start" x="226" y="-18.5" font-family="Helvetica,sans-Serif" font-size="10.00">precice::mesh::MeshConfiguration</text>
<text text-anchor="middle" x="314" y="-7.5" font-family="Helvetica,sans-Serif" font-size="10.00">::insertMeshToMeshDimensionsMap</text>
</a>
</g>
</g>
<!-- Node1&#45;&gt;Node8 -->
<g id="edge7" class="edge">
<title>Node1&#45;&gt;Node8</title>
<path fill="none" stroke="midnightblue" d="M103.39,-147.2C123.56,-121.23 168.13,-68.61 218,-40.5 221.95,-38.27 226.11,-36.24 230.38,-34.38"/>
<polygon fill="midnightblue" stroke="midnightblue" points="231.9,-37.54 239.9,-30.59 229.31,-31.04 231.9,-37.54"/>
</g>
</g>
</svg>
