<?xml version="1.0" encoding="UTF-8" standalone="no"?>
<!DOCTYPE svg PUBLIC "-//W3C//DTD SVG 1.1//EN"
 "http://www.w3.org/Graphics/SVG/1.1/DTD/svg11.dtd">
<!-- Generated by graphviz version 2.43.0 (0)
 -->
<!-- Title: precice::com::serialize::SerializedConnectionMap::broadcastReceive Pages: 1 -->
<!--zoomable 359 -->

<svg id="main" version="1.1" xmlns="http://www.w3.org/2000/svg" xmlns:xlink="http://www.w3.org/1999/xlink" xml:space="preserve" onload="init(evt)">
<style type="text/css"><![CDATA[
.node, .edge {opacity: 0.7;}
.node.selected, .edge.selected {opacity: 1;}
.edge:hover path { stroke: red; }
.edge:hover polygon { stroke: red; fill: red; }
]]></style>

<defs>
  <circle id="rim" cx="0" cy="0" r="7"/>
  <circle id="rim2" cx="0" cy="0" r="3.5"/>
  <g id="zoomPlus">
    <use xlink:href="#rim" fill="#404040"><set attributeName="fill" to="#808080" begin="zoomplus.mouseover" end="zoomplus.mouseout"/></use>
    <path d="M-4,0h8M0,-4v8" fill="none" stroke="white" stroke-width="1.5" pointer-events="none"/>
  </g>
  <g id="zoomMin">
    <use xlink:href="#rim" fill="#404040"><set attributeName="fill" to="#808080" begin="zoomminus.mouseover" end="zoomminus.mouseout"/></use>
    <path d="M-4,0h8" fill="none" stroke="white" stroke-width="1.5" pointer-events="none"/>
  </g>
  <g id="arrowUp" transform="translate(30 24)">
    <use xlink:href="#rim"/>
    <path pointer-events="none" fill="none" stroke="white" stroke-width="1.5" d="M0,-3.0v7 M-2.5,-0.5L0,-3.0L2.5,-0.5"/>
  </g>
  <g id="arrowRight" transform="rotate(90) translate(36 -43)">
    <use xlink:href="#rim"/>
    <path pointer-events="none" fill="none" stroke="white" stroke-width="1.5" d="M0,-3.0v7 M-2.5,-0.5L0,-3.0L2.5,-0.5"/>
  </g>
  <g id="arrowDown" transform="rotate(180) translate(-30 -48)">
    <use xlink:href="#rim"/>
    <path pointer-events="none" fill="none" stroke="white" stroke-width="1.5" d="M0,-3.0v7 M-2.5,-0.5L0,-3.0L2.5,-0.5"/>
  </g>
  <g id="arrowLeft" transform="rotate(270) translate(-36 17)">
    <use xlink:href="#rim"/>
    <path pointer-events="none" fill="none" stroke="white" stroke-width="1.5" d="M0,-3.0v7 M-2.5,-0.5L0,-3.0L2.5,-0.5"/>
  </g>
  <g id="resetDef">
    <use xlink:href="#rim2" fill="#404040"><set attributeName="fill" to="#808080" begin="reset.mouseover" end="reset.mouseout"/></use>
  </g>
</defs>
<script type="application/ecmascript">
var viewWidth = 755;
var viewHeight = 359;
var sectionId = 'dynsection-2';
</script>
<script type="application/ecmascript" xlink:href="svg.min.js"/>
<svg id="graph" class="graph">
<g id="viewport">
<title>precice::com::serialize::SerializedConnectionMap::broadcastReceive</title>
<!-- Node1 -->
<g id="Node000001" class="node">
<title>Node1</title>
<g id="a_Node000001"><a xlink:title="receives a SerializedConnectionMap and calls assertValid before returning">
<polygon fill="#999999" stroke="#666666" points="146,-204.5 0,-204.5 0,-163.5 146,-163.5 146,-204.5"/>
<text text-anchor="start" x="8" y="-192.5" font-family="Helvetica,sans-Serif" font-size="10.00">precice::com::serialize</text>
<text text-anchor="start" x="8" y="-181.5" font-family="Helvetica,sans-Serif" font-size="10.00">::SerializedConnectionMap</text>
<text text-anchor="middle" x="73" y="-170.5" font-family="Helvetica,sans-Serif" font-size="10.00">::broadcastReceive</text>
</a>
</g>
</g>
<!-- Node2 -->
<g id="Node000002" class="node">
<title>Node2</title>
<g id="a_Node000002"><a xlink:href="classprecice_1_1com_1_1serialize_1_1SerializedConnectionMap.html#ac371682a00038cb21f3da4012831be73" target="_top" xlink:title="asserts the content for correctness">
<polygon fill="white" stroke="#666666" points="336,-287.5 190,-287.5 190,-246.5 336,-246.5 336,-287.5"/>
<text text-anchor="start" x="198" y="-275.5" font-family="Helvetica,sans-Serif" font-size="10.00">precice::com::serialize</text>
<text text-anchor="start" x="198" y="-264.5" font-family="Helvetica,sans-Serif" font-size="10.00">::SerializedConnectionMap</text>
<text text-anchor="middle" x="263" y="-253.5" font-family="Helvetica,sans-Serif" font-size="10.00">::assertValid</text>
</a>
</g>
</g>
<!-- Node1&#45;&gt;Node2 -->
<g id="edge1_Node000001_Node000002" class="edge">
<title>Node1&#45;&gt;Node2</title>
<g id="a_edge1_Node000001_Node000002"><a xlink:title=" ">
<path fill="none" stroke="#63b8ff" d="M120.47,-204.52C146.34,-215.94 178.74,-230.24 206,-242.28"/>
<polygon fill="#63b8ff" stroke="#63b8ff" points="204.85,-245.59 215.41,-246.43 207.68,-239.19 204.85,-245.59"/>
</a>
</g>
</g>
<!-- Node7 -->
<g id="Node000007" class="node">
<title>Node7</title>
<g id="a_Node000007"><a xlink:href="classprecice_1_1com_1_1Communication.html#af30b8fdbac93d60e7a54f0e67e5aeb53" target="_top" xlink:title=" ">
<polygon fill="white" stroke="#666666" points="344,-138 182,-138 182,-108 344,-108 344,-138"/>
<text text-anchor="start" x="190" y="-126" font-family="Helvetica,sans-Serif" font-size="10.00">precice::com::Communication</text>
<text text-anchor="middle" x="263" y="-115" font-family="Helvetica,sans-Serif" font-size="10.00">::broadcast</text>
</a>
</g>
</g>
<!-- Node1&#45;&gt;Node7 -->
<g id="edge6_Node000001_Node000007" class="edge">
<title>Node1&#45;&gt;Node7</title>
<g id="a_edge6_Node000001_Node000007"><a xlink:title=" ">
<path fill="none" stroke="#63b8ff" d="M137.39,-163.43C159.57,-156.23 184.31,-148.21 205.86,-141.21"/>
<polygon fill="#63b8ff" stroke="#63b8ff" points="207.09,-144.5 215.52,-138.08 204.93,-137.84 207.09,-144.5"/>
</a>
</g>
</g>
<!-- Node3 -->
<g id="Node000003" class="node">
<title>Node3</title>
<g id="a_Node000003"><a target="_parent" xlink:href="http://en.cppreference.com/w/cpp/container/vector/begin.html#" xlink:title=" ">
<polygon fill="white" stroke="#666666" points="511.5,-350.5 410.5,-350.5 410.5,-331.5 511.5,-331.5 511.5,-350.5"/>
<text text-anchor="middle" x="461" y="-338.5" font-family="Helvetica,sans-Serif" font-size="10.00">std::vector::begin</text>
</a>
</g>
</g>
<!-- Node2&#45;&gt;Node3 -->
<g id="edge2_Node000002_Node000003" class="edge">
<title>Node2&#45;&gt;Node3</title>
<g id="a_edge2_Node000002_Node000003"><a xlink:title=" ">
<path fill="none" stroke="#63b8ff" d="M300.95,-287.52C323.29,-299.25 352.66,-313.46 380,-323 386.5,-325.27 393.4,-327.32 400.32,-329.16"/>
<polygon fill="#63b8ff" stroke="#63b8ff" points="399.87,-332.66 410.42,-331.7 401.58,-325.87 399.87,-332.66"/>
</a>
</g>
</g>
<!-- Node4 -->
<g id="Node000004" class="node">
<title>Node4</title>
<g id="a_Node000004"><a target="_parent" xlink:href="http://en.cppreference.com/w/cpp/container/vector/front.html#" xlink:title=" ">
<polygon fill="white" stroke="#666666" points="510,-313.5 412,-313.5 412,-294.5 510,-294.5 510,-313.5"/>
<text text-anchor="middle" x="461" y="-301.5" font-family="Helvetica,sans-Serif" font-size="10.00">std::vector::front</text>
</a>
</g>
</g>
<!-- Node2&#45;&gt;Node4 -->
<g id="edge3_Node000002_Node000004" class="edge">
<title>Node2&#45;&gt;Node4</title>
<g id="a_edge3_Node000002_Node000004"><a xlink:title=" ">
<path fill="none" stroke="#63b8ff" d="M336.15,-280.62C357.82,-284.71 381.3,-289.14 401.94,-293.04"/>
<polygon fill="#63b8ff" stroke="#63b8ff" points="401.34,-296.49 411.82,-294.9 402.64,-289.61 401.34,-296.49"/>
</a>
</g>
</g>
<!-- Node5 -->
<g id="Node000005" class="node">
<title>Node5</title>
<g id="a_Node000005"><a target="_parent" xlink:href="http://en.cppreference.com/w/cpp/container/set/size.html#" xlink:title=" ">
<polygon fill="white" stroke="#666666" points="500,-276.5 422,-276.5 422,-257.5 500,-257.5 500,-276.5"/>
<text text-anchor="middle" x="461" y="-264.5" font-family="Helvetica,sans-Serif" font-size="10.00">std::set::size</text>
</a>
</g>
</g>
<!-- Node2&#45;&gt;Node5 -->
<g id="edge4_Node000002_Node000005" class="edge">
<title>Node2&#45;&gt;Node5</title>
<g id="a_edge4_Node000002_Node000005"><a xlink:title=" ">
<path fill="none" stroke="#63b8ff" d="M336.15,-267C361.33,-267 388.96,-267 411.72,-267"/>
<polygon fill="#63b8ff" stroke="#63b8ff" points="411.81,-270.5 421.81,-267 411.81,-263.5 411.81,-270.5"/>
</a>
</g>
</g>
<!-- Node6 -->
<g id="Node000006" class="node">
<title>Node6</title>
<g id="a_Node000006"><a target="_parent" xlink:href="http://en.cppreference.com/w/cpp/container/vector/size.html#" xlink:title=" ">
<polygon fill="white" stroke="#666666" points="508,-239.5 414,-239.5 414,-220.5 508,-220.5 508,-239.5"/>
<text text-anchor="middle" x="461" y="-227.5" font-family="Helvetica,sans-Serif" font-size="10.00">std::vector::size</text>
</a>
</g>
</g>
<!-- Node2&#45;&gt;Node6 -->
<g id="edge5_Node000002_Node000006" class="edge">
<title>Node2&#45;&gt;Node6</title>
<g id="a_edge5_Node000002_Node000006"><a xlink:title=" ">
<path fill="none" stroke="#63b8ff" d="M336.15,-253.38C358.47,-249.17 382.73,-244.59 403.8,-240.61"/>
<polygon fill="#63b8ff" stroke="#63b8ff" points="404.7,-244 413.87,-238.71 403.4,-237.12 404.7,-244"/>
</a>
</g>
</g>
<!-- Node8 -->
<g id="Node000008" class="node">
<title>Node8</title>
<g id="a_Node000008"><a xlink:href="classprecice_1_1com_1_1Communication.html#a1c988cdf4b433bc63b4b876dba5324fb" target="_top" xlink:title=" ">
<polygon fill="white" stroke="#666666" points="542,-202 380,-202 380,-172 542,-172 542,-202"/>
<text text-anchor="start" x="388" y="-190" font-family="Helvetica,sans-Serif" font-size="10.00">precice::com::Communication</text>
<text text-anchor="middle" x="461" y="-179" font-family="Helvetica,sans-Serif" font-size="10.00">::aSend</text>
</a>
</g>
</g>
<!-- Node7&#45;&gt;Node8 -->
<g id="edge7_Node000007_Node000008" class="edge">
<title>Node7&#45;&gt;Node8</title>
<g id="a_edge7_Node000007_Node000008"><a xlink:title=" ">
<path fill="none" stroke="#63b8ff" d="M309.95,-138.01C338.11,-147.2 374.35,-159.03 404.15,-168.76"/>
<polygon fill="#63b8ff" stroke="#63b8ff" points="403.4,-172.2 414,-171.98 405.58,-165.55 403.4,-172.2"/>
</a>
</g>
</g>
<!-- Node9 -->
<g id="Node000009" class="node">
<title>Node9</title>
<g id="a_Node000009"><a xlink:href="classprecice_1_1com_1_1Communication.html#a5319067292ba3f7979d92a72f9298f80" target="_top" xlink:title="Returns the number of processes in the remote communicator.">
<polygon fill="white" stroke="#666666" points="747,-137 578,-137 578,-107 747,-107 747,-137"/>
<text text-anchor="start" x="586" y="-125" font-family="Helvetica,sans-Serif" font-size="10.00">precice::com::Communication</text>
<text text-anchor="middle" x="662.5" y="-114" font-family="Helvetica,sans-Serif" font-size="10.00">::getRemoteCommunicatorSize</text>
</a>
</g>
</g>
<!-- Node7&#45;&gt;Node9 -->
<g id="edge8_Node000007_Node000009" class="edge">
<title>Node7&#45;&gt;Node9</title>
<g id="a_edge8_Node000007_Node000009"><a xlink:title=" ">
<path fill="none" stroke="#63b8ff" d="M344.18,-124.56C356.19,-124.74 368.42,-124.9 380,-125 452,-125.62 470.01,-125.9 542,-125 550.35,-124.9 559.03,-124.75 567.73,-124.58"/>
<polygon fill="#63b8ff" stroke="#63b8ff" points="568.01,-128.07 577.93,-124.37 567.86,-121.07 568.01,-128.07"/>
</a>
</g>
</g>
<!-- Node10 -->
<g id="Node000010" class="node">
<title>Node10</title>
<g id="a_Node000010"><a xlink:href="classprecice_1_1com_1_1Communication.html#a31587a46cf1d04c93c3082979598276a" target="_top" xlink:title="Returns a range over all valid remote ranks.">
<polygon fill="white" stroke="#666666" points="542,-116 380,-116 380,-86 542,-86 542,-116"/>
<text text-anchor="start" x="388" y="-104" font-family="Helvetica,sans-Serif" font-size="10.00">precice::com::Communication</text>
<text text-anchor="middle" x="461" y="-93" font-family="Helvetica,sans-Serif" font-size="10.00">::remoteCommunicatorRanks</text>
</a>
</g>
</g>
<!-- Node7&#45;&gt;Node10 -->
<g id="edge9_Node000007_Node000010" class="edge">
<title>Node7&#45;&gt;Node10</title>
<g id="a_edge9_Node000007_Node000010"><a xlink:title=" ">
<path fill="none" stroke="#63b8ff" d="M344,-114.02C352.52,-113.06 361.23,-112.09 369.86,-111.12"/>
<polygon fill="#63b8ff" stroke="#63b8ff" points="370.39,-114.58 379.93,-109.99 369.61,-107.62 370.39,-114.58"/>
</a>
</g>
</g>
<!-- Node11 -->
<g id="Node000011" class="node">
<title>Node11</title>
<g id="a_Node000011"><a xlink:href="classprecice_1_1span.html#ae91f5ed50b6cbf0d15382b8e3c2a9a04" target="_top" xlink:title=" ">
<polygon fill="white" stroke="#666666" points="514.5,-67.5 407.5,-67.5 407.5,-48.5 514.5,-48.5 514.5,-67.5"/>
<text text-anchor="middle" x="461" y="-55.5" font-family="Helvetica,sans-Serif" font-size="10.00">precice::span::size</text>
</a>
</g>
</g>
<!-- Node7&#45;&gt;Node11 -->
<g id="edge11_Node000007_Node000011" class="edge">
<title>Node7&#45;&gt;Node11</title>
<g id="a_edge11_Node000007_Node000011"><a xlink:title=" ">
<path fill="none" stroke="#63b8ff" d="M298.05,-107.99C320.92,-98.29 351.9,-85.86 380,-77 388.02,-74.47 396.59,-72.1 405.03,-69.95"/>
<polygon fill="#63b8ff" stroke="#63b8ff" points="405.97,-73.32 414.84,-67.52 404.29,-66.52 405.97,-73.32"/>
</a>
</g>
</g>
<!-- Node12 -->
<g id="Node000012" class="node">
<title>Node12</title>
<g id="a_Node000012"><a xlink:href="classprecice_1_1com_1_1Request.html#ad07792939dd8a5e4e23791e21aeacff0" target="_top" xlink:title=" ">
<polygon fill="white" stroke="#666666" points="523.5,-30 398.5,-30 398.5,0 523.5,0 523.5,-30"/>
<text text-anchor="start" x="406.5" y="-18" font-family="Helvetica,sans-Serif" font-size="10.00">precice::com::Request</text>
<text text-anchor="middle" x="461" y="-7" font-family="Helvetica,sans-Serif" font-size="10.00">::wait</text>
</a>
</g>
</g>
<!-- Node7&#45;&gt;Node12 -->
<g id="edge12_Node000007_Node000012" class="edge">
<title>Node7&#45;&gt;Node12</title>
<g id="a_edge12_Node000007_Node000012"><a xlink:title=" ">
<path fill="none" stroke="#63b8ff" d="M281.34,-107.87C303.07,-89.57 342.09,-58.87 380,-40 384.52,-37.75 389.29,-35.65 394.16,-33.7"/>
<polygon fill="#63b8ff" stroke="#63b8ff" points="395.47,-36.94 403.59,-30.13 393,-30.39 395.47,-36.94"/>
</a>
</g>
</g>
<!-- Node10&#45;&gt;Node9 -->
<g id="edge10_Node000010_Node000009" class="edge">
<title>Node10&#45;&gt;Node9</title>
<g id="a_edge10_Node000010_Node000009"><a xlink:title=" ">
<path fill="none" stroke="#63b8ff" d="M542.28,-109.45C550.69,-110.34 559.28,-111.24 567.82,-112.14"/>
<polygon fill="#63b8ff" stroke="#63b8ff" points="567.49,-115.62 577.8,-113.19 568.22,-108.66 567.49,-115.62"/>
</a>
</g>
</g>
</g>
</svg>

<g id="navigator" transform="translate(0 0)" fill="#404254">
  <rect fill="#f2f5e9" fill-opacity="0.5" stroke="#606060" stroke-width=".5" x="0" y="0" width="60" height="60"/>
  <use id="zoomplus" xlink:href="#zoomPlus" x="17" y="9" onmousedown="handleZoom(evt,'in')"/>
  <use id="zoomminus" xlink:href="#zoomMin" x="42" y="9" onmousedown="handleZoom(evt,'out')"/>
  <use id="reset" xlink:href="#resetDef" x="30" y="36" onmousedown="handleReset()"/>
   <use id="arrowup" xlink:href="#arrowUp" x="0" y="0" onmousedown="handlePan(0,-1)"/>
  <use id="arrowright" xlink:href="#arrowRight" x="0" y="0" onmousedown="handlePan(1,0)"/>
  <use id="arrowdown" xlink:href="#arrowDown" x="0" y="0" onmousedown="handlePan(0,1)"/>
  <use id="arrowleft" xlink:href="#arrowLeft" x="0" y="0" onmousedown="handlePan(-1,0)"/>
</g>
<svg viewBox="0 0 15 15" width="100%" height="30px" preserveAspectRatio="xMaxYMin meet">
 <g id="arrow_out" transform="scale(0.3 0.3)">
  <a xlink:href="classprecice_1_1com_1_1serialize_1_1SerializedConnectionMap_a7efe96fc1599d92dbcf929606a5943b0_cgraph_org.svg" target="_base">
   <rect id="button" ry="5" rx="5" y="6" x="6" height="38" width="38"
        fill="#f2f5e9" fill-opacity="0.5" stroke="#606060" stroke-width="1.0"/>
   <path id="arrow"
     d="M 11.500037,31.436501 C 11.940474,20.09759 22.043105,11.32322 32.158766,21.979434 L 37.068811,17.246167 C 37.068811,17.246167 37.088388,32 37.088388,32 L 22.160133,31.978069 C 22.160133,31.978069 26.997745,27.140456 26.997745,27.140456 C 18.528582,18.264221 13.291696,25.230495 11.500037,31.436501 z"
     style="fill:#404040;"/>
  </a>
 </g>
</svg>

<style type='text/css'>
<![CDATA[
[data-mouse-over-selected='false'] { opacity: 0.7; }
[data-mouse-over-selected='true']  { opacity: 1.0; }
]]>
</style>
<script type="application/ecmascript"><![CDATA[
document.addEventListener('DOMContentLoaded', (event) => {
  highlightEdges();
  highlightAdjacentNodes();
});
]]></script>
</svg>
