<?xml version="1.0" encoding="UTF-8" standalone="no"?>
<!DOCTYPE svg PUBLIC "-//W3C//DTD SVG 1.1//EN"
 "http://www.w3.org/Graphics/SVG/1.1/DTD/svg11.dtd">
<!-- Generated by graphviz version 2.43.0 (0)
 -->
<!-- Title: precice::acceleration::AccelerationConfiguration Pages: 1 -->
<svg width="1705pt" height="645pt"
 viewBox="0.00 0.00 1705.00 644.50" xmlns="http://www.w3.org/2000/svg" xmlns:xlink="http://www.w3.org/1999/xlink">
<g id="graph0" class="graph" transform="scale(1 1) rotate(0) translate(4 640.5)">
<title>precice::acceleration::AccelerationConfiguration</title>
<!-- Node1 -->
<g id="Node000001" class="node">
<title>Node1</title>
<g id="a_Node000001"><a xlink:title=" ">
<polygon fill="#999999" stroke="#666666" points="1697,-305.5 1548,-305.5 1548,-275.5 1697,-275.5 1697,-305.5"/>
<text text-anchor="start" x="1556" y="-293.5" font-family="Helvetica,sans-Serif" font-size="10.00">precice::acceleration</text>
<text text-anchor="middle" x="1622.5" y="-282.5" font-family="Helvetica,sans-Serif" font-size="10.00">::AccelerationConfiguration</text>
</a>
</g>
</g>
<!-- Node2 -->
<g id="Node000002" class="node">
<title>Node2</title>
<g id="a_Node000002"><a xlink:href="structprecice_1_1xml_1_1XMLTag_1_1Listener.html" target="_top" xlink:title="Callback interface for configuration classes using XMLTag.">
<polygon fill="white" stroke="#666666" points="1335.5,-617.5 1216.5,-617.5 1216.5,-587.5 1335.5,-587.5 1335.5,-617.5"/>
<text text-anchor="start" x="1224.5" y="-605.5" font-family="Helvetica,sans-Serif" font-size="10.00">precice::xml::XMLTag</text>
<text text-anchor="middle" x="1276" y="-594.5" font-family="Helvetica,sans-Serif" font-size="10.00">::Listener</text>
</a>
</g>
</g>
<!-- Node2&#45;&gt;Node1 -->
<g id="edge1_Node000001_Node000002" class="edge">
<title>Node2&#45;&gt;Node1</title>
<g id="a_edge1_Node000001_Node000002"><a xlink:title=" ">
<path fill="none" stroke="#63b8ff" d="M1345.62,-618.38C1401.17,-627.01 1478.39,-628.89 1530,-588.5 1576.45,-552.14 1610.14,-361.61 1619.12,-305.85"/>
<polygon fill="#63b8ff" stroke="#63b8ff" points="1345.95,-614.89 1335.51,-616.7 1344.8,-621.8 1345.95,-614.89"/>
</a>
</g>
</g>
<!-- Node3 -->
<g id="Node000003" class="node">
<title>Node3</title>
<g id="a_Node000003"><a xlink:href="classprecice_1_1logging_1_1Logger.html" target="_top" xlink:title="This class provides a lightweight logger.">
<polygon fill="white" stroke="#666666" points="715.5,-549 582.5,-549 582.5,-530 715.5,-530 715.5,-549"/>
<text text-anchor="middle" x="649" y="-537" font-family="Helvetica,sans-Serif" font-size="10.00">precice::logging::Logger</text>
</a>
</g>
</g>
<!-- Node3&#45;&gt;Node1 -->
<g id="edge2_Node000001_Node000003" class="edge">
<title>Node3&#45;&gt;Node1</title>
<g id="a_edge2_Node000001_Node000003"><a xlink:title=" ">
<path fill="none" stroke="#9a32cd" stroke-dasharray="5,2" d="M725.67,-542.45C858.13,-545.66 1139.59,-543.68 1367,-482.5 1444.55,-461.63 1467.07,-454.4 1530,-404.5 1566.59,-375.49 1597.85,-329.29 1612.54,-305.6"/>
<polygon fill="#9a32cd" stroke="#9a32cd" points="725.71,-538.95 715.62,-542.19 725.53,-545.95 725.71,-538.95"/>
</a>
</g>
<text text-anchor="middle" x="1091.5" y="-538.5" font-family="Helvetica,sans-Serif" font-size="10.00" fill="grey"> _log</text>
</g>
<!-- Node15 -->
<g id="Node000015" class="node">
<title>Node15</title>
<g id="a_Node000015"><a xlink:href="classprecice_1_1acceleration_1_1impl_1_1Preconditioner.html" target="_top" xlink:title="Interface for preconditioner variants that can be applied to quasi&#45;Newton acceleration schemes.">
<polygon fill="white" stroke="#666666" points="984,-591.5 863,-591.5 863,-561.5 984,-561.5 984,-591.5"/>
<text text-anchor="start" x="871" y="-579.5" font-family="Helvetica,sans-Serif" font-size="10.00">precice::acceleration</text>
<text text-anchor="middle" x="923.5" y="-568.5" font-family="Helvetica,sans-Serif" font-size="10.00">::impl::Preconditioner</text>
</a>
</g>
</g>
<!-- Node3&#45;&gt;Node15 -->
<g id="edge18_Node000015_Node000003" class="edge">
<title>Node3&#45;&gt;Node15</title>
<g id="a_edge18_Node000015_Node000003"><a xlink:title=" ">
<path fill="none" stroke="#9a32cd" stroke-dasharray="5,2" d="M725.8,-549.79C768.98,-555.66 822.33,-562.9 862.57,-568.36"/>
<polygon fill="#9a32cd" stroke="#9a32cd" points="726,-546.29 715.62,-548.41 725.06,-553.22 726,-546.29"/>
</a>
</g>
<text text-anchor="middle" x="782.5" y="-565.5" font-family="Helvetica,sans-Serif" font-size="10.00" fill="grey"> _log</text>
</g>
<!-- Node4 -->
<g id="Node000004" class="node">
<title>Node4</title>
<g id="a_Node000004"><a xlink:title=" ">
<polygon fill="white" stroke="#666666" points="515,-554.5 345,-554.5 345,-524.5 515,-524.5 515,-554.5"/>
<text text-anchor="start" x="353" y="-542.5" font-family="Helvetica,sans-Serif" font-size="10.00">std::unique_ptr&lt; precice</text>
<text text-anchor="middle" x="430" y="-531.5" font-family="Helvetica,sans-Serif" font-size="10.00">::logging::Logger::LoggerImpl &gt;</text>
</a>
</g>
</g>
<!-- Node4&#45;&gt;Node3 -->
<g id="edge3_Node000003_Node000004" class="edge">
<title>Node4&#45;&gt;Node3</title>
<g id="a_edge3_Node000003_Node000004"><a xlink:title=" ">
<path fill="none" stroke="#9a32cd" stroke-dasharray="5,2" d="M525.21,-539.5C544.47,-539.5 564.34,-539.5 582.34,-539.5"/>
<polygon fill="#9a32cd" stroke="#9a32cd" points="525.21,-536 515.21,-539.5 525.21,-543 525.21,-536"/>
</a>
</g>
<text text-anchor="middle" x="548.5" y="-542.5" font-family="Helvetica,sans-Serif" font-size="10.00" fill="grey"> _impl</text>
</g>
<!-- Node5 -->
<g id="Node000005" class="node">
<title>Node5</title>
<g id="a_Node000005"><a xlink:href="classprecice_1_1logging_1_1Logger_1_1LoggerImpl.html" target="_top" xlink:title=" ">
<polygon fill="white" stroke="#666666" points="292,-554.5 159,-554.5 159,-524.5 292,-524.5 292,-554.5"/>
<text text-anchor="start" x="167" y="-542.5" font-family="Helvetica,sans-Serif" font-size="10.00">precice::logging::Logger</text>
<text text-anchor="middle" x="225.5" y="-531.5" font-family="Helvetica,sans-Serif" font-size="10.00">::LoggerImpl</text>
</a>
</g>
</g>
<!-- Node5&#45;&gt;Node4 -->
<g id="edge4_Node000004_Node000005" class="edge">
<title>Node5&#45;&gt;Node4</title>
<g id="a_edge4_Node000004_Node000005"><a xlink:title=" ">
<path fill="none" stroke="#9a32cd" stroke-dasharray="5,2" d="M302.62,-539.5C316.37,-539.5 330.78,-539.5 344.75,-539.5"/>
<polygon fill="#9a32cd" stroke="#9a32cd" points="302.25,-536 292.25,-539.5 302.25,-543 302.25,-536"/>
</a>
</g>
<text text-anchor="middle" x="318.5" y="-542.5" font-family="Helvetica,sans-Serif" font-size="10.00" fill="grey"> ptr</text>
</g>
<!-- Node6 -->
<g id="Node000006" class="node">
<title>Node6</title>
<g id="a_Node000006"><a xlink:title=" ">
<polygon fill="white" stroke="#666666" points="122,-554.5 0,-554.5 0,-524.5 122,-524.5 122,-554.5"/>
<text text-anchor="start" x="8" y="-542.5" font-family="Helvetica,sans-Serif" font-size="10.00">BoostLogger&lt; Logger</text>
<text text-anchor="middle" x="61" y="-531.5" font-family="Helvetica,sans-Serif" font-size="10.00">::LoggerImpl &gt;</text>
</a>
</g>
</g>
<!-- Node6&#45;&gt;Node5 -->
<g id="edge5_Node000005_Node000006" class="edge">
<title>Node6&#45;&gt;Node5</title>
<g id="a_edge5_Node000005_Node000006"><a xlink:title=" ">
<path fill="none" stroke="#63b8ff" d="M132.33,-539.5C141.17,-539.5 150.19,-539.5 158.96,-539.5"/>
<polygon fill="#63b8ff" stroke="#63b8ff" points="132.05,-536 122.05,-539.5 132.05,-543 132.05,-536"/>
</a>
</g>
</g>
<!-- Node7 -->
<g id="Node000007" class="node">
<title>Node7</title>
<g id="a_Node000007"><a xlink:title=" ">
<polygon fill="white" stroke="#666666" points="681.5,-277 616.5,-277 616.5,-258 681.5,-258 681.5,-277"/>
<text text-anchor="middle" x="649" y="-265" font-family="Helvetica,sans-Serif" font-size="10.00">std::string</text>
</a>
</g>
</g>
<!-- Node7&#45;&gt;Node1 -->
<g id="edge6_Node000001_Node000007" class="edge">
<title>Node7&#45;&gt;Node1</title>
<g id="a_edge6_Node000001_Node000007"><a xlink:title=" ">
<path fill="none" stroke="#9a32cd" stroke-dasharray="5,2" d="M686.88,-280.01C701.39,-284.41 718.32,-288.91 734,-291.5 1011.65,-337.43 1085.58,-309.23 1367,-307.5 1439.45,-307.06 1457.83,-311.82 1530,-305.5 1535.77,-304.99 1541.73,-304.33 1547.71,-303.57"/>
<polygon fill="#9a32cd" stroke="#9a32cd" points="687.84,-276.65 677.26,-277 685.76,-283.33 687.84,-276.65"/>
</a>
</g>
<text text-anchor="middle" x="1091.5" y="-452.5" font-family="Helvetica,sans-Serif" font-size="10.00" fill="grey"> ATTR_BUILDJACOBIAN</text>
<text text-anchor="middle" x="1091.5" y="-441.5" font-family="Helvetica,sans-Serif" font-size="10.00" fill="grey">ATTR_ENFORCE</text>
<text text-anchor="middle" x="1091.5" y="-430.5" font-family="Helvetica,sans-Serif" font-size="10.00" fill="grey">ATTR_IMVJCHUNKSIZE</text>
<text text-anchor="middle" x="1091.5" y="-419.5" font-family="Helvetica,sans-Serif" font-size="10.00" fill="grey">ATTR_MESH</text>
<text text-anchor="middle" x="1091.5" y="-408.5" font-family="Helvetica,sans-Serif" font-size="10.00" fill="grey">ATTR_NAME</text>
<text text-anchor="start" x="1016" y="-397.5" font-family="Helvetica,sans-Serif" font-size="10.00" fill="grey">ATTR_PRECOND_NONCONST</text>
<text text-anchor="middle" x="1091.5" y="-386.5" font-family="Helvetica,sans-Serif" font-size="10.00" fill="grey">_TIME_WINDOWS</text>
<text text-anchor="start" x="1016" y="-375.5" font-family="Helvetica,sans-Serif" font-size="10.00" fill="grey">ATTR_RSLS_REUSED_TIME</text>
<text text-anchor="middle" x="1091.5" y="-364.5" font-family="Helvetica,sans-Serif" font-size="10.00" fill="grey">_WINDOWS</text>
<text text-anchor="middle" x="1091.5" y="-353.5" font-family="Helvetica,sans-Serif" font-size="10.00" fill="grey">ATTR_RSSVD_TRUNCATIONEPS</text>
<text text-anchor="middle" x="1091.5" y="-342.5" font-family="Helvetica,sans-Serif" font-size="10.00" fill="grey">ATTR_SCALING</text>
<text text-anchor="middle" x="1091.5" y="-331.5" font-family="Helvetica,sans-Serif" font-size="10.00" fill="grey">ATTR_SINGULARITYLIMIT</text>
<text text-anchor="middle" x="1091.5" y="-320.5" font-family="Helvetica,sans-Serif" font-size="10.00" fill="grey">...</text>
</g>
<!-- Node13 -->
<g id="Node000013" class="node">
<title>Node13</title>
<g id="a_Node000013"><a xlink:title=" ">
<polygon fill="white" stroke="#666666" points="1161.5,-302 1021.5,-302 1021.5,-283 1161.5,-283 1161.5,-302"/>
<text text-anchor="middle" x="1091.5" y="-290" font-family="Helvetica,sans-Serif" font-size="10.00">std::vector&lt; std::string &gt;</text>
</a>
</g>
</g>
<!-- Node7&#45;&gt;Node13 -->
<g id="edge13_Node000013_Node000007" class="edge">
<title>Node7&#45;&gt;Node13</title>
<g id="a_edge13_Node000013_Node000007"><a xlink:title=" ">
<path fill="none" stroke="#9a32cd" stroke-dasharray="5,2" d="M691.81,-269.87C767.71,-274.18 928.87,-283.33 1021.37,-288.58"/>
<polygon fill="#9a32cd" stroke="#9a32cd" points="691.86,-266.37 681.68,-269.3 691.47,-273.36 691.86,-266.37"/>
</a>
</g>
<text text-anchor="middle" x="782.5" y="-279.5" font-family="Helvetica,sans-Serif" font-size="10.00" fill="grey"> elements</text>
</g>
<!-- Node19 -->
<g id="Node000019" class="node">
<title>Node19</title>
<g id="a_Node000019"><a xlink:title=" ">
<polygon fill="white" stroke="#666666" points="983,-260.5 864,-260.5 864,-230.5 983,-230.5 983,-260.5"/>
<text text-anchor="start" x="872" y="-248.5" font-family="Helvetica,sans-Serif" font-size="10.00">std::pair&lt; std::string,</text>
<text text-anchor="middle" x="923.5" y="-237.5" font-family="Helvetica,sans-Serif" font-size="10.00"> std::string &gt;</text>
</a>
</g>
</g>
<!-- Node7&#45;&gt;Node19 -->
<g id="edge21_Node000019_Node000007" class="edge">
<title>Node7&#45;&gt;Node19</title>
<g id="a_edge21_Node000019_Node000007"><a xlink:title=" ">
<path fill="none" stroke="#9a32cd" stroke-dasharray="5,2" d="M689,-255.07C703.03,-251.19 719.08,-247.42 734,-245.5 777.17,-239.94 826.36,-240.16 863.67,-241.65"/>
<polygon fill="#9a32cd" stroke="#9a32cd" points="687.82,-251.76 679.18,-257.89 689.76,-258.49 687.82,-251.76"/>
</a>
</g>
<text text-anchor="middle" x="782.5" y="-259.5" font-family="Helvetica,sans-Serif" font-size="10.00" fill="grey"> first_type</text>
<text text-anchor="middle" x="782.5" y="-248.5" font-family="Helvetica,sans-Serif" font-size="10.00" fill="grey">second_type</text>
</g>
<!-- Node20 -->
<g id="Node000020" class="node">
<title>Node20</title>
<g id="a_Node000020"><a xlink:href="structprecice_1_1acceleration_1_1AccelerationConfiguration_1_1ConfigurationData.html" target="_top" xlink:title=" ">
<polygon fill="white" stroke="#666666" points="998,-483 849,-483 849,-442 998,-442 998,-483"/>
<text text-anchor="start" x="857" y="-471" font-family="Helvetica,sans-Serif" font-size="10.00">precice::acceleration</text>
<text text-anchor="start" x="857" y="-460" font-family="Helvetica,sans-Serif" font-size="10.00">::AccelerationConfiguration</text>
<text text-anchor="middle" x="923.5" y="-449" font-family="Helvetica,sans-Serif" font-size="10.00">::ConfigurationData</text>
</a>
</g>
</g>
<!-- Node7&#45;&gt;Node20 -->
<g id="edge25_Node000020_Node000007" class="edge">
<title>Node7&#45;&gt;Node20</title>
<g id="a_edge25_Node000020_Node000007"><a xlink:title=" ">
<path fill="none" stroke="#9a32cd" stroke-dasharray="5,2" d="M667.23,-284.07C683.77,-299.63 709.74,-323.19 734,-341.5 785.06,-380.03 848.34,-419.01 887.04,-441.94"/>
<polygon fill="#9a32cd" stroke="#9a32cd" points="669.58,-281.48 659.92,-277.13 664.76,-286.56 669.58,-281.48"/>
</a>
</g>
<text text-anchor="middle" x="782.5" y="-420.5" font-family="Helvetica,sans-Serif" font-size="10.00" fill="grey"> preconditionerType</text>
<text text-anchor="middle" x="782.5" y="-409.5" font-family="Helvetica,sans-Serif" font-size="10.00" fill="grey">type</text>
</g>
<!-- Node23 -->
<g id="Node000023" class="node">
<title>Node23</title>
<g id="a_Node000023"><a xlink:href="structprecice_1_1acceleration_1_1AccelerationConfiguration_1_1DefaultValuesIQN.html" target="_top" xlink:title=" ">
<polygon fill="white" stroke="#666666" points="1166,-219 1017,-219 1017,-178 1166,-178 1166,-219"/>
<text text-anchor="start" x="1025" y="-207" font-family="Helvetica,sans-Serif" font-size="10.00">precice::acceleration</text>
<text text-anchor="start" x="1025" y="-196" font-family="Helvetica,sans-Serif" font-size="10.00">::AccelerationConfiguration</text>
<text text-anchor="middle" x="1091.5" y="-185" font-family="Helvetica,sans-Serif" font-size="10.00">::DefaultValuesIQN</text>
</a>
</g>
</g>
<!-- Node7&#45;&gt;Node23 -->
<g id="edge27_Node000023_Node000007" class="edge">
<title>Node7&#45;&gt;Node23</title>
<g id="a_edge27_Node000023_Node000007"><a xlink:title=" ">
<path fill="none" stroke="#9a32cd" stroke-dasharray="5,2" d="M673.59,-252.59C689.9,-243.08 712.45,-231.45 734,-225.5 829.13,-199.21 943.61,-195.16 1016.71,-195.87"/>
<polygon fill="#9a32cd" stroke="#9a32cd" points="671.53,-249.74 664.76,-257.89 675.14,-255.74 671.53,-249.74"/>
</a>
</g>
<text text-anchor="middle" x="782.5" y="-228.5" font-family="Helvetica,sans-Serif" font-size="10.00" fill="grey"> preconditionerType</text>
</g>
<!-- Node24 -->
<g id="Node000024" class="node">
<title>Node24</title>
<g id="a_Node000024"><a xlink:href="structprecice_1_1acceleration_1_1AccelerationConfiguration_1_1DefaultValuesIMVJ.html" target="_top" xlink:title=" ">
<polygon fill="white" stroke="#666666" points="1166,-173 1017,-173 1017,-132 1166,-132 1166,-173"/>
<text text-anchor="start" x="1025" y="-161" font-family="Helvetica,sans-Serif" font-size="10.00">precice::acceleration</text>
<text text-anchor="start" x="1025" y="-150" font-family="Helvetica,sans-Serif" font-size="10.00">::AccelerationConfiguration</text>
<text text-anchor="middle" x="1091.5" y="-139" font-family="Helvetica,sans-Serif" font-size="10.00">::DefaultValuesIMVJ</text>
</a>
</g>
</g>
<!-- Node7&#45;&gt;Node24 -->
<g id="edge29_Node000024_Node000007" class="edge">
<title>Node7&#45;&gt;Node24</title>
<g id="a_edge29_Node000024_Node000007"><a xlink:title=" ">
<path fill="none" stroke="#9a32cd" stroke-dasharray="5,2" d="M663.49,-249.75C678.5,-231.45 704.56,-203.79 734,-190.5 825.05,-149.39 942.06,-144.89 1016.69,-147.26"/>
<polygon fill="#9a32cd" stroke="#9a32cd" points="660.52,-247.86 657.04,-257.87 666,-252.21 660.52,-247.86"/>
</a>
</g>
<text text-anchor="middle" x="782.5" y="-193.5" font-family="Helvetica,sans-Serif" font-size="10.00" fill="grey"> preconditionerType</text>
</g>
<!-- Node8 -->
<g id="Node000008" class="node">
<title>Node8</title>
<g id="a_Node000008"><a xlink:title=" ">
<polygon fill="white" stroke="#666666" points="482,-282.5 378,-282.5 378,-252.5 482,-252.5 482,-282.5"/>
<text text-anchor="start" x="386" y="-270.5" font-family="Helvetica,sans-Serif" font-size="10.00">std::basic_string&lt;</text>
<text text-anchor="middle" x="430" y="-259.5" font-family="Helvetica,sans-Serif" font-size="10.00"> Char &gt;</text>
</a>
</g>
</g>
<!-- Node8&#45;&gt;Node7 -->
<g id="edge7_Node000007_Node000008" class="edge">
<title>Node8&#45;&gt;Node7</title>
<g id="a_edge7_Node000007_Node000008"><a xlink:title=" ">
<path fill="none" stroke="#63b8ff" d="M492.17,-267.5C532.58,-267.5 583.89,-267.5 616.34,-267.5"/>
<polygon fill="#63b8ff" stroke="#63b8ff" points="492.15,-264 482.15,-267.5 492.15,-271 492.15,-264"/>
</a>
</g>
</g>
<!-- Node9 -->
<g id="Node000009" class="node">
<title>Node9</title>
<g id="a_Node000009"><a xlink:title=" ">
<polygon fill="white" stroke="#666666" points="1335,-115 1217,-115 1217,-96 1335,-96 1335,-115"/>
<text text-anchor="middle" x="1276" y="-103" font-family="Helvetica,sans-Serif" font-size="10.00">std::shared_ptr&lt; T &gt;</text>
</a>
</g>
</g>
<!-- Node9&#45;&gt;Node1 -->
<g id="edge8_Node000001_Node000009" class="edge">
<title>Node9&#45;&gt;Node1</title>
<g id="a_edge8_Node000001_Node000009"><a xlink:title=" ">
<path fill="none" stroke="#9a32cd" stroke-dasharray="5,2" d="M1342.79,-94.89C1397.28,-89.64 1474.48,-90.73 1530,-126.5 1584.82,-161.82 1609.83,-242.05 1618.15,-275.46"/>
<polygon fill="#9a32cd" stroke="#9a32cd" points="1342.13,-91.44 1332.56,-95.97 1342.87,-98.4 1342.13,-91.44"/>
</a>
</g>
<text text-anchor="middle" x="1457.5" y="-129.5" font-family="Helvetica,sans-Serif" font-size="10.00" fill="grey"> _meshConfig</text>
</g>
<!-- Node10 -->
<g id="Node000010" class="node">
<title>Node10</title>
<g id="a_Node000010"><a xlink:title=" ">
<polygon fill="white" stroke="#666666" points="938,-118 909,-118 909,-99 938,-99 938,-118"/>
<text text-anchor="middle" x="923.5" y="-106" font-family="Helvetica,sans-Serif" font-size="10.00">T</text>
</a>
</g>
</g>
<!-- Node10&#45;&gt;Node9 -->
<g id="edge9_Node000009_Node000010" class="edge">
<title>Node10&#45;&gt;Node9</title>
<g id="a_edge9_Node000009_Node000010"><a xlink:title=" ">
<path fill="none" stroke="#9a32cd" stroke-dasharray="5,2" d="M948.33,-108.3C1002.93,-107.83 1138.41,-106.67 1216.67,-106"/>
<polygon fill="#9a32cd" stroke="#9a32cd" points="948.21,-104.8 938.24,-108.38 948.27,-111.8 948.21,-104.8"/>
</a>
</g>
<text text-anchor="middle" x="1091.5" y="-110.5" font-family="Helvetica,sans-Serif" font-size="10.00" fill="grey"> ptr</text>
</g>
<!-- Node11 -->
<g id="Node000011" class="node">
<title>Node11</title>
<g id="a_Node000011"><a xlink:title=" ">
<polygon fill="white" stroke="#666666" points="1362.5,-78 1189.5,-78 1189.5,-59 1362.5,-59 1362.5,-78"/>
<text text-anchor="middle" x="1276" y="-66" font-family="Helvetica,sans-Serif" font-size="10.00">std::shared_ptr&lt; Acceleration &gt;</text>
</a>
</g>
</g>
<!-- Node11&#45;&gt;Node1 -->
<g id="edge10_Node000001_Node000011" class="edge">
<title>Node11&#45;&gt;Node1</title>
<g id="a_edge10_Node000001_Node000011"><a xlink:title=" ">
<path fill="none" stroke="#9a32cd" stroke-dasharray="5,2" d="M1372.67,-61.56C1433.35,-59.09 1504.96,-60.36 1530,-77.5 1598.75,-124.56 1616.14,-234.78 1620.28,-275.25"/>
<polygon fill="#9a32cd" stroke="#9a32cd" points="1372.48,-58.06 1362.65,-62 1372.8,-65.06 1372.48,-58.06"/>
</a>
</g>
<text text-anchor="middle" x="1457.5" y="-80.5" font-family="Helvetica,sans-Serif" font-size="10.00" fill="grey"> _acceleration</text>
</g>
<!-- Node12 -->
<g id="Node000012" class="node">
<title>Node12</title>
<g id="a_Node000012"><a xlink:href="classprecice_1_1acceleration_1_1Acceleration.html" target="_top" xlink:title=" ">
<polygon fill="white" stroke="#666666" points="982.5,-80.5 864.5,-80.5 864.5,-50.5 982.5,-50.5 982.5,-80.5"/>
<text text-anchor="start" x="872.5" y="-68.5" font-family="Helvetica,sans-Serif" font-size="10.00">precice::acceleration</text>
<text text-anchor="middle" x="923.5" y="-57.5" font-family="Helvetica,sans-Serif" font-size="10.00">::Acceleration</text>
</a>
</g>
</g>
<!-- Node12&#45;&gt;Node11 -->
<g id="edge11_Node000011_Node000012" class="edge">
<title>Node12&#45;&gt;Node11</title>
<g id="a_edge11_Node000011_Node000012"><a xlink:title=" ">
<path fill="none" stroke="#9a32cd" stroke-dasharray="5,2" d="M992.97,-66.09C1049.13,-66.57 1128.94,-67.25 1189.33,-67.77"/>
<polygon fill="#9a32cd" stroke="#9a32cd" points="992.8,-62.58 982.77,-66 992.74,-69.58 992.8,-62.58"/>
</a>
</g>
<text text-anchor="middle" x="1091.5" y="-70.5" font-family="Helvetica,sans-Serif" font-size="10.00" fill="grey"> ptr</text>
</g>
<!-- Node13&#45;&gt;Node1 -->
<g id="edge12_Node000001_Node000013" class="edge">
<title>Node13&#45;&gt;Node1</title>
<g id="a_edge12_Node000001_Node000013"><a xlink:title=" ">
<path fill="none" stroke="#9a32cd" stroke-dasharray="5,2" d="M1171.97,-292.52C1259.64,-292.5 1404.88,-292.33 1530,-291.5 1535.72,-291.46 1541.64,-291.42 1547.59,-291.36"/>
<polygon fill="#9a32cd" stroke="#9a32cd" points="1171.83,-289.02 1161.83,-292.53 1171.83,-296.02 1171.83,-289.02"/>
</a>
</g>
<text text-anchor="middle" x="1276" y="-295.5" font-family="Helvetica,sans-Serif" font-size="10.00" fill="grey"> _neededMeshes</text>
</g>
<!-- Node14 -->
<g id="Node000014" class="node">
<title>Node14</title>
<g id="a_Node000014"><a xlink:title=" ">
<polygon fill="white" stroke="#666666" points="1367,-569 1185,-569 1185,-550 1367,-550 1367,-569"/>
<text text-anchor="middle" x="1276" y="-557" font-family="Helvetica,sans-Serif" font-size="10.00">std::shared_ptr&lt; Preconditioner &gt;</text>
</a>
</g>
</g>
<!-- Node14&#45;&gt;Node1 -->
<g id="edge14_Node000001_Node000014" class="edge">
<title>Node14&#45;&gt;Node1</title>
<g id="a_edge14_Node000001_Node000014"><a xlink:title=" ">
<path fill="none" stroke="#9a32cd" stroke-dasharray="5,2" d="M1336.35,-570.39C1392.1,-577.12 1474.95,-577.7 1530,-535.5 1605.68,-477.49 1618.77,-349.79 1621.03,-305.77"/>
<polygon fill="#9a32cd" stroke="#9a32cd" points="1336.64,-566.9 1326.27,-569.07 1335.73,-573.84 1336.64,-566.9"/>
</a>
</g>
<text text-anchor="middle" x="1457.5" y="-576.5" font-family="Helvetica,sans-Serif" font-size="10.00" fill="grey"> _preconditioner</text>
</g>
<!-- Node15&#45;&gt;Node14 -->
<g id="edge15_Node000014_Node000015" class="edge">
<title>Node15&#45;&gt;Node14</title>
<g id="a_edge15_Node000014_Node000015"><a xlink:title=" ">
<path fill="none" stroke="#9a32cd" stroke-dasharray="5,2" d="M994.64,-573.1C1049.3,-570.45 1125.58,-566.75 1184.78,-563.88"/>
<polygon fill="#9a32cd" stroke="#9a32cd" points="994.17,-569.62 984.35,-573.6 994.51,-576.61 994.17,-569.62"/>
</a>
</g>
<text text-anchor="middle" x="1091.5" y="-574.5" font-family="Helvetica,sans-Serif" font-size="10.00" fill="grey"> ptr</text>
</g>
<!-- Node16 -->
<g id="Node000016" class="node">
<title>Node16</title>
<g id="a_Node000016"><a xlink:title=" ">
<polygon fill="white" stroke="#666666" points="711,-635 587,-635 587,-616 711,-616 711,-635"/>
<text text-anchor="middle" x="649" y="-623" font-family="Helvetica,sans-Serif" font-size="10.00">std::vector&lt; double &gt;</text>
</a>
</g>
</g>
<!-- Node16&#45;&gt;Node15 -->
<g id="edge16_Node000015_Node000016" class="edge">
<title>Node16&#45;&gt;Node15</title>
<g id="a_edge16_Node000015_Node000016"><a xlink:title=" ">
<path fill="none" stroke="#9a32cd" stroke-dasharray="5,2" d="M721.17,-617.01C754.63,-612.57 795.01,-606.59 831,-599.5 842.57,-597.22 854.87,-594.4 866.57,-591.53"/>
<polygon fill="#9a32cd" stroke="#9a32cd" points="720.47,-613.57 711.01,-618.34 721.38,-620.51 720.47,-613.57"/>
</a>
</g>
<text text-anchor="middle" x="782.5" y="-628.5" font-family="Helvetica,sans-Serif" font-size="10.00" fill="grey"> _invWeights</text>
<text text-anchor="middle" x="782.5" y="-617.5" font-family="Helvetica,sans-Serif" font-size="10.00" fill="grey">_weights</text>
</g>
<!-- Node17 -->
<g id="Node000017" class="node">
<title>Node17</title>
<g id="a_Node000017"><a xlink:title=" ">
<polygon fill="white" stroke="#666666" points="708.5,-598 589.5,-598 589.5,-579 708.5,-579 708.5,-598"/>
<text text-anchor="middle" x="649" y="-586" font-family="Helvetica,sans-Serif" font-size="10.00">std::vector&lt; size_t &gt;</text>
</a>
</g>
</g>
<!-- Node17&#45;&gt;Node15 -->
<g id="edge17_Node000015_Node000017" class="edge">
<title>Node17&#45;&gt;Node15</title>
<g id="a_edge17_Node000015_Node000017"><a xlink:title=" ">
<path fill="none" stroke="#9a32cd" stroke-dasharray="5,2" d="M718.92,-585.46C763.31,-583.51 820.44,-580.99 862.87,-579.13"/>
<polygon fill="#9a32cd" stroke="#9a32cd" points="718.63,-581.97 708.79,-585.91 718.94,-588.97 718.63,-581.97"/>
</a>
</g>
<text text-anchor="middle" x="782.5" y="-587.5" font-family="Helvetica,sans-Serif" font-size="10.00" fill="grey"> _subVectorSizes</text>
</g>
<!-- Node18 -->
<g id="Node000018" class="node">
<title>Node18</title>
<g id="a_Node000018"><a xlink:title=" ">
<polygon fill="white" stroke="#666666" points="1328,-269 1224,-269 1224,-228 1328,-228 1328,-269"/>
<text text-anchor="start" x="1232" y="-257" font-family="Helvetica,sans-Serif" font-size="10.00">std::set&lt; std::pair</text>
<text text-anchor="start" x="1232" y="-246" font-family="Helvetica,sans-Serif" font-size="10.00">&lt; std::string, std::</text>
<text text-anchor="middle" x="1276" y="-235" font-family="Helvetica,sans-Serif" font-size="10.00">string &gt; &gt;</text>
</a>
</g>
</g>
<!-- Node18&#45;&gt;Node1 -->
<g id="edge19_Node000001_Node000018" class="edge">
<title>Node18&#45;&gt;Node1</title>
<g id="a_edge19_Node000001_Node000018"><a xlink:title=" ">
<path fill="none" stroke="#9a32cd" stroke-dasharray="5,2" d="M1338.42,-255.99C1397.01,-263.13 1485.32,-273.9 1547.7,-281.5"/>
<polygon fill="#9a32cd" stroke="#9a32cd" points="1338.55,-252.48 1328.2,-254.74 1337.71,-259.43 1338.55,-252.48"/>
</a>
</g>
<text text-anchor="middle" x="1457.5" y="-281.5" font-family="Helvetica,sans-Serif" font-size="10.00" fill="grey"> _uniqueDataAndMeshNames</text>
</g>
<!-- Node19&#45;&gt;Node18 -->
<g id="edge20_Node000018_Node000019" class="edge">
<title>Node19&#45;&gt;Node18</title>
<g id="a_edge20_Node000018_Node000019"><a xlink:title=" ">
<path fill="none" stroke="#9a32cd" stroke-dasharray="5,2" d="M993.32,-246.09C1061.07,-246.67 1162.97,-247.54 1223.85,-248.06"/>
<polygon fill="#9a32cd" stroke="#9a32cd" points="993.2,-242.59 983.17,-246 993.14,-249.59 993.2,-242.59"/>
</a>
</g>
<text text-anchor="middle" x="1091.5" y="-250.5" font-family="Helvetica,sans-Serif" font-size="10.00" fill="grey"> keys</text>
</g>
<!-- Node20&#45;&gt;Node1 -->
<g id="edge22_Node000001_Node000020" class="edge">
<title>Node20&#45;&gt;Node1</title>
<g id="a_edge22_Node000001_Node000020"><a xlink:title=" ">
<path fill="none" stroke="#9a32cd" stroke-dasharray="5,2" d="M1008.25,-473.3C1055.17,-477.43 1114.61,-479.47 1167,-471.5 1334.05,-446.1 1379.39,-435.09 1530,-358.5 1558.4,-344.06 1587.27,-320.88 1604.78,-305.68"/>
<polygon fill="#9a32cd" stroke="#9a32cd" points="1008.41,-469.8 998.13,-472.36 1007.76,-476.77 1008.41,-469.8"/>
</a>
</g>
<text text-anchor="middle" x="1276" y="-470.5" font-family="Helvetica,sans-Serif" font-size="10.00" fill="grey"> _config</text>
</g>
<!-- Node21 -->
<g id="Node000021" class="node">
<title>Node21</title>
<g id="a_Node000021"><a xlink:title=" ">
<polygon fill="white" stroke="#666666" points="701,-500 597,-500 597,-481 701,-481 701,-500"/>
<text text-anchor="middle" x="649" y="-488" font-family="Helvetica,sans-Serif" font-size="10.00">std::vector&lt; int &gt;</text>
</a>
</g>
</g>
<!-- Node21&#45;&gt;Node20 -->
<g id="edge23_Node000020_Node000021" class="edge">
<title>Node21&#45;&gt;Node20</title>
<g id="a_edge23_Node000020_Node000021"><a xlink:title=" ">
<path fill="none" stroke="#9a32cd" stroke-dasharray="5,2" d="M711.32,-484.2C752.06,-480.01 805.78,-474.49 848.84,-470.07"/>
<polygon fill="#9a32cd" stroke="#9a32cd" points="710.85,-480.73 701.26,-485.23 711.56,-487.69 710.85,-480.73"/>
</a>
</g>
<text text-anchor="middle" x="782.5" y="-483.5" font-family="Helvetica,sans-Serif" font-size="10.00" fill="grey"> dataIDs</text>
</g>
<!-- Node22 -->
<g id="Node000022" class="node">
<title>Node22</title>
<g id="a_Node000022"><a xlink:title=" ">
<polygon fill="white" stroke="#666666" points="716,-463 582,-463 582,-444 716,-444 716,-463"/>
<text text-anchor="middle" x="649" y="-451" font-family="Helvetica,sans-Serif" font-size="10.00">std::map&lt; int, double &gt;</text>
</a>
</g>
</g>
<!-- Node22&#45;&gt;Node20 -->
<g id="edge24_Node000020_Node000022" class="edge">
<title>Node22&#45;&gt;Node20</title>
<g id="a_edge24_Node000020_Node000022"><a xlink:title=" ">
<path fill="none" stroke="#9a32cd" stroke-dasharray="5,2" d="M726.48,-454.64C758.74,-455.26 796.71,-456.18 831,-457.5 836.72,-457.72 842.65,-457.98 848.6,-458.26"/>
<polygon fill="#9a32cd" stroke="#9a32cd" points="726.27,-451.14 716.21,-454.45 726.14,-458.13 726.27,-451.14"/>
</a>
</g>
<text text-anchor="middle" x="782.5" y="-460.5" font-family="Helvetica,sans-Serif" font-size="10.00" fill="grey"> scalings</text>
</g>
<!-- Node23&#45;&gt;Node1 -->
<g id="edge26_Node000001_Node000023" class="edge">
<title>Node23&#45;&gt;Node1</title>
<g id="a_edge26_Node000001_Node000023"><a xlink:title=" ">
<path fill="none" stroke="#9a32cd" stroke-dasharray="5,2" d="M1176.45,-196.03C1231.08,-195.78 1303.69,-198.01 1367,-208.5 1441.63,-220.87 1458.17,-233.77 1530,-257.5 1546.84,-263.06 1565.25,-269.61 1581.12,-275.41"/>
<polygon fill="#9a32cd" stroke="#9a32cd" points="1176.09,-192.54 1166.12,-196.11 1176.15,-199.54 1176.09,-192.54"/>
</a>
</g>
<text text-anchor="middle" x="1276" y="-211.5" font-family="Helvetica,sans-Serif" font-size="10.00" fill="grey"> _defaultValuesIQNILS</text>
</g>
<!-- Node24&#45;&gt;Node1 -->
<g id="edge28_Node000001_Node000024" class="edge">
<title>Node24&#45;&gt;Node1</title>
<g id="a_edge28_Node000001_Node000024"><a xlink:title=" ">
<path fill="none" stroke="#9a32cd" stroke-dasharray="5,2" d="M1176.23,-147.56C1267.73,-145.57 1416.41,-152.57 1530,-207.5 1563.6,-223.75 1593.79,-256.25 1609.69,-275.41"/>
<polygon fill="#9a32cd" stroke="#9a32cd" points="1176.1,-144.06 1166.19,-147.81 1176.28,-151.06 1176.1,-144.06"/>
</a>
</g>
<text text-anchor="middle" x="1276" y="-161.5" font-family="Helvetica,sans-Serif" font-size="10.00" fill="grey"> _defaultValuesIQNIMVJ</text>
</g>
<!-- Node25 -->
<g id="Node000025" class="node">
<title>Node25</title>
<g id="a_Node000025"><a xlink:href="structprecice_1_1acceleration_1_1AccelerationConfiguration_1_1UserDefinitions.html" target="_top" xlink:title=" ">
<polygon fill="white" stroke="#666666" points="1350.5,-41 1201.5,-41 1201.5,0 1350.5,0 1350.5,-41"/>
<text text-anchor="start" x="1209.5" y="-29" font-family="Helvetica,sans-Serif" font-size="10.00">precice::acceleration</text>
<text text-anchor="start" x="1209.5" y="-18" font-family="Helvetica,sans-Serif" font-size="10.00">::AccelerationConfiguration</text>
<text text-anchor="middle" x="1276" y="-7" font-family="Helvetica,sans-Serif" font-size="10.00">::UserDefinitions</text>
</a>
</g>
</g>
<!-- Node25&#45;&gt;Node1 -->
<g id="edge30_Node000001_Node000025" class="edge">
<title>Node25&#45;&gt;Node1</title>
<g id="a_edge30_Node000001_Node000025"><a xlink:title=" ">
<path fill="none" stroke="#9a32cd" stroke-dasharray="5,2" d="M1360.87,-7.66C1414.49,-4.16 1482.6,-9.02 1530,-45.5 1605.56,-103.65 1618.73,-231.26 1621.02,-275.24"/>
<polygon fill="#9a32cd" stroke="#9a32cd" points="1360.4,-4.18 1350.7,-8.43 1360.93,-11.16 1360.4,-4.18"/>
</a>
</g>
<text text-anchor="middle" x="1457.5" y="-48.5" font-family="Helvetica,sans-Serif" font-size="10.00" fill="grey"> _userDefinitions</text>
</g>
</g>
</svg>
