<?xml version="1.0" encoding="UTF-8" standalone="no"?>
<!DOCTYPE svg PUBLIC "-//W3C//DTD SVG 1.1//EN"
 "http://www.w3.org/Graphics/SVG/1.1/DTD/svg11.dtd">
<!-- Generated by graphviz version 2.43.0 (0)
 -->
<!-- Title: precice::mapping::NearestNeighborBaseMapping::tagMeshFirstRound Pages: 1 -->
<!--zoomable 348 -->

<svg id="main" version="1.1" xmlns="http://www.w3.org/2000/svg" xmlns:xlink="http://www.w3.org/1999/xlink" xml:space="preserve" onload="init(evt)">

<style type="text/css"><![CDATA[
.node, .edge {opacity: 0.7;}
.node.selected, .edge.selected {opacity: 1;}
.edge:hover path { stroke: red; }
.edge:hover polygon { stroke: red; fill: red; }
]]></style>

<defs>
  <circle id="rim" cx="0" cy="0" r="7"/>
  <circle id="rim2" cx="0" cy="0" r="3.5"/>
  <g id="zoomPlus">
    <use xlink:href="#rim" fill="#404040"><set attributeName="fill" to="#808080" begin="zoomplus.mouseover" end="zoomplus.mouseout"/></use>
    <path d="M-4,0h8M0,-4v8" fill="none" stroke="white" stroke-width="1.5" pointer-events="none"/>
  </g>
  <g id="zoomMin">
    <use xlink:href="#rim" fill="#404040"><set attributeName="fill" to="#808080" begin="zoomminus.mouseover" end="zoomminus.mouseout"/></use>
    <path d="M-4,0h8" fill="none" stroke="white" stroke-width="1.5" pointer-events="none"/>
  </g>
  <g id="arrowUp" transform="translate(30 24)">
    <use xlink:href="#rim"/>
    <path pointer-events="none" fill="none" stroke="white" stroke-width="1.5" d="M0,-3.0v7 M-2.5,-0.5L0,-3.0L2.5,-0.5"/>
  </g>
  <g id="arrowRight" transform="rotate(90) translate(36 -43)">
    <use xlink:href="#rim"/>
    <path pointer-events="none" fill="none" stroke="white" stroke-width="1.5" d="M0,-3.0v7 M-2.5,-0.5L0,-3.0L2.5,-0.5"/>
  </g>
  <g id="arrowDown" transform="rotate(180) translate(-30 -48)">
    <use xlink:href="#rim"/>
    <path pointer-events="none" fill="none" stroke="white" stroke-width="1.5" d="M0,-3.0v7 M-2.5,-0.5L0,-3.0L2.5,-0.5"/>
  </g>
  <g id="arrowLeft" transform="rotate(270) translate(-36 17)">
    <use xlink:href="#rim"/>
    <path pointer-events="none" fill="none" stroke="white" stroke-width="1.5" d="M0,-3.0v7 M-2.5,-0.5L0,-3.0L2.5,-0.5"/>
  </g>
  <g id="resetDef">
    <use xlink:href="#rim2" fill="#404040"><set attributeName="fill" to="#808080" begin="reset.mouseover" end="reset.mouseout"/></use>
  </g>
</defs>
<script type="application/ecmascript">
var viewWidth = 908;
var viewHeight = 348;
var sectionId = 'dynsection-5';
</script>
<script type="application/ecmascript" xlink:href="svg.min.js"/>
<svg id="graph" class="graph">
<g id="viewport">
<title>precice::mapping::NearestNeighborBaseMapping::tagMeshFirstRound</title>
<!-- Node1 -->
<g id="Node000001" class="node">
<title>Node1</title>
<g id="a_Node000001"><a xlink:title="Method used by partition. Tags vertices that could be owned by this rank.">
<polygon fill="#999999" stroke="#666666" points="227,-184.5 0,-184.5 0,-154.5 227,-154.5 227,-184.5"/>
<text text-anchor="start" x="8" y="-172.5" font-family="Helvetica,sans-Serif" font-size="10.00">precice::mapping::Nearest</text>
<text text-anchor="middle" x="113.5" y="-161.5" font-family="Helvetica,sans-Serif" font-size="10.00">NeighborBaseMapping::tagMeshFirstRound</text>
</a>
</g>
</g>
<!-- Node2 -->
<g id="Node000002" class="node">
<title>Node2</title>
<g id="a_Node000002"><a xlink:href="classprecice_1_1mapping_1_1NearestNeighborBaseMapping.html#a0907655d50653e65a83140485492dceb" target="_top" xlink:title="Removes a computed mapping.">
<polygon fill="white" stroke="#666666" points="450.5,-303.5 293.5,-303.5 293.5,-273.5 450.5,-273.5 450.5,-303.5"/>
<text text-anchor="start" x="301.5" y="-291.5" font-family="Helvetica,sans-Serif" font-size="10.00">precice::mapping::Nearest</text>
<text text-anchor="middle" x="372" y="-280.5" font-family="Helvetica,sans-Serif" font-size="10.00">NeighborBaseMapping::clear</text>
</a>
</g>
</g>
<!-- Node1&#45;&gt;Node2 -->
<g id="edge1_Node000001_Node000002" class="edge">
<title>Node1&#45;&gt;Node2</title>
<g id="a_edge1_Node000001_Node000002"><a xlink:title=" ">
<path fill="none" stroke="#63b8ff" d="M135.12,-184.61C162.9,-204.33 214.48,-238.78 263,-259.5 272.61,-263.6 282.95,-267.26 293.29,-270.48"/>
<polygon fill="#63b8ff" stroke="#63b8ff" points="292.59,-273.93 303.17,-273.44 294.59,-267.22 292.59,-273.93"/>
</a>
</g>
</g>
<!-- Node4 -->
<g id="Node000004" class="node">
<title>Node4</title>
<g id="a_Node000004"><a xlink:href="classprecice_1_1mapping_1_1Mapping.html#a61c3c55af467ada2bdd735efa0f960e4" target="_top" xlink:title="Returns pointer to input mesh.">
<polygon fill="white" stroke="#666666" points="685,-270.5 536,-270.5 536,-240.5 685,-240.5 685,-270.5"/>
<text text-anchor="start" x="544" y="-258.5" font-family="Helvetica,sans-Serif" font-size="10.00">precice::mapping::Mapping</text>
<text text-anchor="middle" x="610.5" y="-247.5" font-family="Helvetica,sans-Serif" font-size="10.00">::input</text>
</a>
</g>
</g>
<!-- Node1&#45;&gt;Node4 -->
<g id="edge17_Node000001_Node000004" class="edge">
<title>Node1&#45;&gt;Node4</title>
<g id="a_edge17_Node000001_Node000004"><a xlink:title=" ">
<path fill="none" stroke="#63b8ff" d="M175.33,-184.53C202.12,-190.86 234.02,-198.02 263,-203.5 352.3,-220.4 455.38,-235.28 525.75,-244.75"/>
<polygon fill="#63b8ff" stroke="#63b8ff" points="525.51,-248.25 535.88,-246.11 526.44,-241.31 525.51,-248.25"/>
</a>
</g>
</g>
<!-- Node5 -->
<g id="Node000005" class="node">
<title>Node5</title>
<g id="a_Node000005"><a xlink:href="classprecice_1_1mapping_1_1Mapping.html#a07a71a54b71eda6d54510c94fb188e70" target="_top" xlink:title="Returns pointer to output mesh.">
<polygon fill="white" stroke="#666666" points="685,-222.5 536,-222.5 536,-192.5 685,-192.5 685,-222.5"/>
<text text-anchor="start" x="544" y="-210.5" font-family="Helvetica,sans-Serif" font-size="10.00">precice::mapping::Mapping</text>
<text text-anchor="middle" x="610.5" y="-199.5" font-family="Helvetica,sans-Serif" font-size="10.00">::output</text>
</a>
</g>
</g>
<!-- Node1&#45;&gt;Node5 -->
<g id="edge19_Node000001_Node000005" class="edge">
<title>Node1&#45;&gt;Node5</title>
<g id="a_edge19_Node000001_Node000005"><a xlink:title=" ">
<path fill="none" stroke="#63b8ff" d="M227.13,-178.15C317.92,-185.12 443.56,-194.76 525.66,-201.06"/>
<polygon fill="#63b8ff" stroke="#63b8ff" points="525.46,-204.56 535.7,-201.83 526,-197.58 525.46,-204.56"/>
</a>
</g>
</g>
<!-- Node7 -->
<g id="Node000007" class="node">
<title>Node7</title>
<g id="a_Node000007"><a xlink:href="classprecice_1_1mapping_1_1NearestNeighborBaseMapping.html#ab7b41fe767e36b9140c0c3a074e5b54c" target="_top" xlink:title="Computes the mapping coefficients from the in&#45; and output mesh.">
<polygon fill="white" stroke="#666666" points="481,-141.5 263,-141.5 263,-111.5 481,-111.5 481,-141.5"/>
<text text-anchor="start" x="271" y="-129.5" font-family="Helvetica,sans-Serif" font-size="10.00">precice::mapping::Nearest</text>
<text text-anchor="middle" x="372" y="-118.5" font-family="Helvetica,sans-Serif" font-size="10.00">NeighborBaseMapping::computeMapping</text>
</a>
</g>
</g>
<!-- Node1&#45;&gt;Node7 -->
<g id="edge6_Node000001_Node000007" class="edge">
<title>Node1&#45;&gt;Node7</title>
<g id="a_edge6_Node000001_Node000007"><a xlink:title=" ">
<path fill="none" stroke="#63b8ff" d="M204.21,-154.46C225.88,-150.83 249.18,-146.92 271.28,-143.22"/>
<polygon fill="#63b8ff" stroke="#63b8ff" points="272.06,-146.64 281.34,-141.53 270.9,-139.73 272.06,-146.64"/>
</a>
</g>
</g>
<!-- Node11 -->
<g id="Node000011" class="node">
<title>Node11</title>
<g id="a_Node000011"><a xlink:href="classprecice_1_1mapping_1_1Mapping.html#aeea2d39f5e6ce0eaa97ebe436ff89991" target="_top" xlink:title="Checks whether the mapping has the given constraint or not.">
<polygon fill="white" stroke="#666666" points="685,-174.5 536,-174.5 536,-144.5 685,-144.5 685,-174.5"/>
<text text-anchor="start" x="544" y="-162.5" font-family="Helvetica,sans-Serif" font-size="10.00">precice::mapping::Mapping</text>
<text text-anchor="middle" x="610.5" y="-151.5" font-family="Helvetica,sans-Serif" font-size="10.00">::hasConstraint</text>
</a>
</g>
</g>
<!-- Node1&#45;&gt;Node11 -->
<g id="edge16_Node000001_Node000011" class="edge">
<title>Node1&#45;&gt;Node11</title>
<g id="a_edge16_Node000001_Node000011"><a xlink:title=" ">
<path fill="none" stroke="#63b8ff" d="M227.13,-167.22C317.92,-165.39 443.56,-162.85 525.66,-161.19"/>
<polygon fill="#63b8ff" stroke="#63b8ff" points="525.78,-164.69 535.7,-160.99 525.63,-157.69 525.78,-164.69"/>
</a>
</g>
</g>
<!-- Node13 -->
<g id="Node000013" class="node">
<title>Node13</title>
<g id="a_Node000013"><a xlink:href="classprecice_1_1mapping_1_1Mapping.html#aa8abde9c7ccaf3aedc675e60f997e111" target="_top" xlink:title="Returns the name of the mapping method for logging purpose.">
<polygon fill="white" stroke="#666666" points="446.5,-93.5 297.5,-93.5 297.5,-63.5 446.5,-63.5 446.5,-93.5"/>
<text text-anchor="start" x="305.5" y="-81.5" font-family="Helvetica,sans-Serif" font-size="10.00">precice::mapping::Mapping</text>
<text text-anchor="middle" x="372" y="-70.5" font-family="Helvetica,sans-Serif" font-size="10.00">::getName</text>
</a>
</g>
</g>
<!-- Node1&#45;&gt;Node13 -->
<g id="edge15_Node000001_Node000013" class="edge">
<title>Node1&#45;&gt;Node13</title>
<g id="a_edge15_Node000001_Node000013"><a xlink:title=" ">
<path fill="none" stroke="#63b8ff" d="M143.1,-154.47C172.49,-139.53 219.93,-116.83 263,-102.5 270.86,-99.88 279.14,-97.47 287.47,-95.26"/>
<polygon fill="#63b8ff" stroke="#63b8ff" points="288.42,-98.63 297.25,-92.76 286.69,-91.85 288.42,-98.63"/>
</a>
</g>
</g>
<!-- Node14 -->
<g id="Node000014" class="node">
<title>Node14</title>
<g id="a_Node000014"><a xlink:href="classprecice_1_1mapping_1_1Mapping.html#a6a570de1a6eb66bf9963bbc4e50c2fe4" target="_top" xlink:title=" ">
<polygon fill="white" stroke="#666666" points="446.5,-45.5 297.5,-45.5 297.5,-15.5 446.5,-15.5 446.5,-45.5"/>
<text text-anchor="start" x="305.5" y="-33.5" font-family="Helvetica,sans-Serif" font-size="10.00">precice::mapping::Mapping</text>
<text text-anchor="middle" x="372" y="-22.5" font-family="Helvetica,sans-Serif" font-size="10.00">::isJustInTimeMapping</text>
</a>
</g>
</g>
<!-- Node1&#45;&gt;Node14 -->
<g id="edge18_Node000001_Node000014" class="edge">
<title>Node1&#45;&gt;Node14</title>
<g id="a_edge18_Node000001_Node000014"><a xlink:title=" ">
<path fill="none" stroke="#63b8ff" d="M129.42,-154.19C154.58,-129.3 208.1,-80.27 263,-54.5 270.77,-50.85 279.12,-47.75 287.6,-45.11"/>
<polygon fill="#63b8ff" stroke="#63b8ff" points="288.59,-48.47 297.22,-42.32 286.64,-41.74 288.59,-48.47"/>
</a>
</g>
</g>
<!-- Node3 -->
<g id="Node000003" class="node">
<title>Node3</title>
<g id="a_Node000003"><a xlink:href="classprecice_1_1mapping_1_1Mapping.html#a6afbd9aaac2ab09b078db271cfd977a1" target="_top" xlink:title="Returns the constraint (consistent/conservative) of the mapping.">
<polygon fill="white" stroke="#666666" points="894.5,-267.5 745.5,-267.5 745.5,-237.5 894.5,-237.5 894.5,-267.5"/>
<text text-anchor="start" x="753.5" y="-255.5" font-family="Helvetica,sans-Serif" font-size="10.00">precice::mapping::Mapping</text>
<text text-anchor="middle" x="820" y="-244.5" font-family="Helvetica,sans-Serif" font-size="10.00">::getConstraint</text>
</a>
</g>
</g>
<!-- Node2&#45;&gt;Node3 -->
<g id="edge2_Node000002_Node000003" class="edge">
<title>Node2&#45;&gt;Node3</title>
<g id="a_edge2_Node000002_Node000003"><a xlink:title=" ">
<path fill="none" stroke="#63b8ff" d="M413.64,-303.57C476.97,-324.78 602.5,-357.67 704,-327.5 738.85,-317.14 772.99,-292.51 794.9,-274.28"/>
<polygon fill="#63b8ff" stroke="#63b8ff" points="797.33,-276.8 802.67,-267.65 792.79,-271.48 797.33,-276.8"/>
</a>
</g>
</g>
<!-- Node2&#45;&gt;Node4 -->
<g id="edge3_Node000002_Node000004" class="edge">
<title>Node2&#45;&gt;Node4</title>
<g id="a_edge3_Node000002_Node000004"><a xlink:title=" ">
<path fill="none" stroke="#63b8ff" d="M450.77,-277.65C474.79,-274.3 501.34,-270.59 525.75,-267.19"/>
<polygon fill="#63b8ff" stroke="#63b8ff" points="526.28,-270.65 535.7,-265.8 525.31,-263.71 526.28,-270.65"/>
</a>
</g>
</g>
<!-- Node2&#45;&gt;Node5 -->
<g id="edge4_Node000002_Node000005" class="edge">
<title>Node2&#45;&gt;Node5</title>
<g id="a_edge4_Node000002_Node000005"><a xlink:title=" ">
<path fill="none" stroke="#63b8ff" d="M407.48,-273.46C436.38,-261.2 478.91,-243.93 517,-231.5 523.46,-229.39 530.23,-227.34 537.03,-225.39"/>
<polygon fill="#63b8ff" stroke="#63b8ff" points="538.31,-228.66 547,-222.6 536.43,-221.92 538.31,-228.66"/>
</a>
</g>
</g>
<!-- Node6 -->
<g id="Node000006" class="node">
<title>Node6</title>
<g id="a_Node000006"><a xlink:href="classprecice_1_1mapping_1_1Mapping.html#a893726817f8920f8bb7f9db4e8348262" target="_top" xlink:title="Returns whether the mapping requires gradient data.">
<polygon fill="white" stroke="#666666" points="685,-318.5 536,-318.5 536,-288.5 685,-288.5 685,-318.5"/>
<text text-anchor="start" x="544" y="-306.5" font-family="Helvetica,sans-Serif" font-size="10.00">precice::mapping::Mapping</text>
<text text-anchor="middle" x="610.5" y="-295.5" font-family="Helvetica,sans-Serif" font-size="10.00">::requiresGradientData</text>
</a>
</g>
</g>
<!-- Node2&#45;&gt;Node6 -->
<g id="edge5_Node000002_Node000006" class="edge">
<title>Node2&#45;&gt;Node6</title>
<g id="a_edge5_Node000002_Node000006"><a xlink:title=" ">
<path fill="none" stroke="#63b8ff" d="M450.77,-293.43C474.68,-294.95 501.11,-296.63 525.42,-298.17"/>
<polygon fill="#63b8ff" stroke="#63b8ff" points="525.5,-301.68 535.7,-298.82 525.94,-294.69 525.5,-301.68"/>
</a>
</g>
</g>
<!-- Node7&#45;&gt;Node4 -->
<g id="edge12_Node000007_Node000004" class="edge">
<title>Node7&#45;&gt;Node4</title>
<g id="a_edge12_Node000007_Node000004"><a xlink:title=" ">
<path fill="none" stroke="#63b8ff" d="M389.38,-141.71C414.79,-164.51 466.1,-207.42 517,-231.5 521.27,-233.52 525.74,-235.39 530.31,-237.12"/>
<polygon fill="#63b8ff" stroke="#63b8ff" points="529.2,-240.44 539.79,-240.46 531.53,-233.83 529.2,-240.44"/>
</a>
</g>
</g>
<!-- Node7&#45;&gt;Node5 -->
<g id="edge14_Node000007_Node000005" class="edge">
<title>Node7&#45;&gt;Node5</title>
<g id="a_edge14_Node000007_Node000005"><a xlink:title=" ">
<path fill="none" stroke="#63b8ff" d="M407.48,-141.54C436.38,-153.8 478.91,-171.07 517,-183.5 523.46,-185.61 530.23,-187.66 537.03,-189.61"/>
<polygon fill="#63b8ff" stroke="#63b8ff" points="536.43,-193.08 547,-192.4 538.31,-186.34 536.43,-193.08"/>
</a>
</g>
</g>
<!-- Node8 -->
<g id="Node000008" class="node">
<title>Node8</title>
<g id="a_Node000008"><a xlink:href="classprecice_1_1utils_1_1statistics_1_1DistanceAccumulator.html#ab62a4d99f3b8c512aeb45a3a9ae0547b" target="_top" xlink:title="Returns count == 0.">
<polygon fill="white" stroke="#666666" points="692.5,-126.5 528.5,-126.5 528.5,-96.5 692.5,-96.5 692.5,-126.5"/>
<text text-anchor="start" x="536.5" y="-114.5" font-family="Helvetica,sans-Serif" font-size="10.00">precice::utils::statistics</text>
<text text-anchor="middle" x="610.5" y="-103.5" font-family="Helvetica,sans-Serif" font-size="10.00">::DistanceAccumulator::empty</text>
</a>
</g>
</g>
<!-- Node7&#45;&gt;Node8 -->
<g id="edge7_Node000007_Node000008" class="edge">
<title>Node7&#45;&gt;Node8</title>
<g id="a_edge7_Node000007_Node000008"><a xlink:title=" ">
<path fill="none" stroke="#63b8ff" d="M481.21,-119.64C493.57,-118.85 506.07,-118.06 518.17,-117.29"/>
<polygon fill="#63b8ff" stroke="#63b8ff" points="518.47,-120.78 528.23,-116.65 518.03,-113.79 518.47,-120.78"/>
</a>
</g>
</g>
<!-- Node10 -->
<g id="Node000010" class="node">
<title>Node10</title>
<g id="a_Node000010"><a xlink:href="namespaceprecice.html#aa9d19e0a82fdcbffc72e0db264b4cceb" target="_top" xlink:title=" ">
<polygon fill="white" stroke="#666666" points="647.5,-78 573.5,-78 573.5,-59 647.5,-59 647.5,-78"/>
<text text-anchor="middle" x="610.5" y="-66" font-family="Helvetica,sans-Serif" font-size="10.00">precice::get</text>
</a>
</g>
</g>
<!-- Node7&#45;&gt;Node10 -->
<g id="edge9_Node000007_Node000010" class="edge">
<title>Node7&#45;&gt;Node10</title>
<g id="a_edge9_Node000007_Node000010"><a xlink:title=" ">
<path fill="none" stroke="#63b8ff" d="M448.69,-111.46C459.61,-108.78 470.65,-105.78 481,-102.5 497.52,-97.27 500.43,-92.6 517,-87.5 531.77,-82.95 548.2,-79.18 563.07,-76.22"/>
<polygon fill="#63b8ff" stroke="#63b8ff" points="563.91,-79.63 573.07,-74.31 562.59,-72.75 563.91,-79.63"/>
</a>
</g>
</g>
<!-- Node7&#45;&gt;Node11 -->
<g id="edge10_Node000007_Node000011" class="edge">
<title>Node7&#45;&gt;Node11</title>
<g id="a_edge10_Node000007_Node000011"><a xlink:title=" ">
<path fill="none" stroke="#63b8ff" d="M480.52,-141.5C495.69,-143.62 511.1,-145.77 525.73,-147.81"/>
<polygon fill="#63b8ff" stroke="#63b8ff" points="525.34,-151.29 535.73,-149.21 526.31,-144.36 525.34,-151.29"/>
</a>
</g>
</g>
<!-- Node12 -->
<g id="Node000012" class="node">
<title>Node12</title>
<g id="a_Node000012"><a xlink:href="classprecice_1_1mapping_1_1NearestNeighborBaseMapping.html#a3605e46cc2fa329c8ae2125197369150" target="_top" xlink:title=" ">
<polygon fill="white" stroke="#666666" points="704,-41 517,-41 517,0 704,0 704,-41"/>
<text text-anchor="start" x="525" y="-29" font-family="Helvetica,sans-Serif" font-size="10.00">precice::mapping::Nearest</text>
<text text-anchor="start" x="525" y="-18" font-family="Helvetica,sans-Serif" font-size="10.00">NeighborBaseMapping::onMapping</text>
<text text-anchor="middle" x="610.5" y="-7" font-family="Helvetica,sans-Serif" font-size="10.00">Computed</text>
</a>
</g>
</g>
<!-- Node7&#45;&gt;Node12 -->
<g id="edge13_Node000007_Node000012" class="edge">
<title>Node7&#45;&gt;Node12</title>
<g id="a_edge13_Node000007_Node000012"><a xlink:title=" ">
<path fill="none" stroke="#63b8ff" d="M464.68,-111.46C470.41,-108.92 475.91,-105.95 481,-102.5 504.56,-86.51 494.14,-66.48 517,-49.5 518.44,-48.43 519.92,-47.4 521.43,-46.41"/>
<polygon fill="#63b8ff" stroke="#63b8ff" points="523.59,-49.2 530.45,-41.12 520.05,-43.16 523.59,-49.2"/>
</a>
</g>
</g>
<!-- Node9 -->
<g id="Node000009" class="node">
<title>Node9</title>
<g id="a_Node000009"><a xlink:href="classprecice_1_1utils_1_1statistics_1_1DistanceAccumulator.html#ac9b87639f46a763b1f35cce56f78edd7" target="_top" xlink:title="Returns how many values have been accumulated.">
<polygon fill="white" stroke="#666666" points="900,-126.5 740,-126.5 740,-96.5 900,-96.5 900,-126.5"/>
<text text-anchor="start" x="748" y="-114.5" font-family="Helvetica,sans-Serif" font-size="10.00">precice::utils::statistics</text>
<text text-anchor="middle" x="820" y="-103.5" font-family="Helvetica,sans-Serif" font-size="10.00">::DistanceAccumulator::count</text>
</a>
</g>
</g>
<!-- Node8&#45;&gt;Node9 -->
<g id="edge8_Node000008_Node000009" class="edge">
<title>Node8&#45;&gt;Node9</title>
<g id="a_edge8_Node000008_Node000009"><a xlink:title=" ">
<path fill="none" stroke="#63b8ff" d="M692.62,-111.5C704.78,-111.5 717.38,-111.5 729.71,-111.5"/>
<polygon fill="#63b8ff" stroke="#63b8ff" points="729.98,-115 739.98,-111.5 729.98,-108 729.98,-115"/>
</a>
</g>
</g>
<!-- Node11&#45;&gt;Node3 -->
<g id="edge11_Node000011_Node000003" class="edge">
<title>Node11&#45;&gt;Node3</title>
<g id="a_edge11_Node000011_Node000003"><a xlink:title=" ">
<path fill="none" stroke="#63b8ff" d="M678.94,-174.57C687.5,-177.19 696.04,-180.16 704,-183.5 734.71,-196.38 767,-216.4 789.52,-231.57"/>
<polygon fill="#63b8ff" stroke="#63b8ff" points="787.71,-234.57 797.94,-237.32 791.66,-228.79 787.71,-234.57"/>
</a>
</g>
</g>
</g>
</svg>

<g id="navigator" transform="translate(0 0)" fill="#404254">
  <rect fill="#f2f5e9" fill-opacity="0.5" stroke="#606060" stroke-width=".5" x="0" y="0" width="60" height="60"/>
  <use id="zoomplus" xlink:href="#zoomPlus" x="17" y="9" onmousedown="handleZoom(evt,'in')"/>
  <use id="zoomminus" xlink:href="#zoomMin" x="42" y="9" onmousedown="handleZoom(evt,'out')"/>
  <use id="reset" xlink:href="#resetDef" x="30" y="36" onmousedown="handleReset()"/>
   <use id="arrowup" xlink:href="#arrowUp" x="0" y="0" onmousedown="handlePan(0,-1)"/>
  <use id="arrowright" xlink:href="#arrowRight" x="0" y="0" onmousedown="handlePan(1,0)"/>
  <use id="arrowdown" xlink:href="#arrowDown" x="0" y="0" onmousedown="handlePan(0,1)"/>
  <use id="arrowleft" xlink:href="#arrowLeft" x="0" y="0" onmousedown="handlePan(-1,0)"/>
</g>
<svg viewBox="0 0 15 15" width="100%" height="30px" preserveAspectRatio="xMaxYMin meet">
 <g id="arrow_out" transform="scale(0.3 0.3)">
  <a xlink:href="classprecice_1_1mapping_1_1NearestNeighborBaseMapping_afdc7b95766518503ce13194b9550c09a_cgraph_org.svg" target="_base">
   <rect id="button" ry="5" rx="5" y="6" x="6" height="38" width="38"
        fill="#f2f5e9" fill-opacity="0.5" stroke="#606060" stroke-width="1.0"/>
   <path id="arrow"
     d="M 11.500037,31.436501 C 11.940474,20.09759 22.043105,11.32322 32.158766,21.979434 L 37.068811,17.246167 C 37.068811,17.246167 37.088388,32 37.088388,32 L 22.160133,31.978069 C 22.160133,31.978069 26.997745,27.140456 26.997745,27.140456 C 18.528582,18.264221 13.291696,25.230495 11.500037,31.436501 z"
     style="fill:#404040;"/>
  </a>
 </g>
</svg>

<style type='text/css'>
<![CDATA[
[data-mouse-over-selected='false'] { opacity: 0.7; }
[data-mouse-over-selected='true']  { opacity: 1.0; }
]]>
</style>
<script type="application/ecmascript"><![CDATA[
document.addEventListener('DOMContentLoaded', (event) => {
  highlightEdges();
  highlightAdjacentNodes();
});
]]></script>
</svg>
