<?xml version="1.0" encoding="UTF-8" standalone="no"?>
<!DOCTYPE svg PUBLIC "-//W3C//DTD SVG 1.1//EN"
 "http://www.w3.org/Graphics/SVG/1.1/DTD/svg11.dtd">
<!-- Generated by graphviz version 2.43.0 (0)
 -->
<!-- Title: precice::partition::Partition Pages: 1 -->
<svg width="240pt" height="106pt"
 viewBox="0.00 0.00 240.00 106.00" xmlns="http://www.w3.org/2000/svg" xmlns:xlink="http://www.w3.org/1999/xlink">
<g id="graph0" class="graph" transform="scale(1 1) rotate(0) translate(4 102)">
<title>precice::partition::Partition</title>
<polygon fill="white" stroke="transparent" points="-4,4 -4,-102 236,-102 236,4 -4,4"/>
<!-- Node1 -->
<g id="node1" class="node">
<title>Node1</title>
<g id="a_node1"><a xlink:title="Abstract base class for partitions.">
<polygon fill="#bfbfbf" stroke="black" points="65.5,-67.5 65.5,-97.5 164.5,-97.5 164.5,-67.5 65.5,-67.5"/>
<text text-anchor="start" x="73.5" y="-85.5" font-family="Helvetica,sans-Serif" font-size="10.00">precice::partition</text>
<text text-anchor="middle" x="115" y="-74.5" font-family="Helvetica,sans-Serif" font-size="10.00">::Partition</text>
</a>
</g>
</g>
<!-- Node2 -->
<g id="node2" class="node">
<title>Node2</title>
<g id="a_node2"><a xlink:href="classprecice_1_1partition_1_1ProvidedPartition.html" target="_top" xlink:title="A partition that is provided by the participant.">
<polygon fill="white" stroke="black" points="0,-0.5 0,-30.5 106,-30.5 106,-0.5 0,-0.5"/>
<text text-anchor="start" x="8" y="-18.5" font-family="Helvetica,sans-Serif" font-size="10.00">precice::partition</text>
<text text-anchor="middle" x="53" y="-7.5" font-family="Helvetica,sans-Serif" font-size="10.00">::ProvidedPartition</text>
</a>
</g>
</g>
<!-- Node1&#45;&gt;Node2 -->
<g id="edge1" class="edge">
<title>Node1&#45;&gt;Node2</title>
<path fill="none" stroke="midnightblue" d="M94.52,-60.02C85.28,-50.34 74.63,-39.17 66.43,-30.58"/>
<polygon fill="midnightblue" stroke="midnightblue" points="92.11,-62.58 101.55,-67.4 97.18,-57.74 92.11,-62.58"/>
</g>
<!-- Node3 -->
<g id="node3" class="node">
<title>Node3</title>
<g id="a_node3"><a xlink:href="classprecice_1_1partition_1_1ReceivedPartition.html" target="_top" xlink:title="A partition that is computed from a mesh received from another participant.">
<polygon fill="white" stroke="black" points="124,-0.5 124,-30.5 232,-30.5 232,-0.5 124,-0.5"/>
<text text-anchor="start" x="132" y="-18.5" font-family="Helvetica,sans-Serif" font-size="10.00">precice::partition</text>
<text text-anchor="middle" x="178" y="-7.5" font-family="Helvetica,sans-Serif" font-size="10.00">::ReceivedPartition</text>
</a>
</g>
</g>
<!-- Node1&#45;&gt;Node3 -->
<g id="edge2" class="edge">
<title>Node1&#45;&gt;Node3</title>
<path fill="none" stroke="midnightblue" d="M135.81,-60.02C145.2,-50.34 156.02,-39.17 164.36,-30.58"/>
<polygon fill="midnightblue" stroke="midnightblue" points="133.12,-57.78 128.67,-67.4 138.14,-62.65 133.12,-57.78"/>
</g>
</g>
</svg>
