<?xml version="1.0" encoding="UTF-8" standalone="no"?>
<!DOCTYPE svg PUBLIC "-//W3C//DTD SVG 1.1//EN"
 "http://www.w3.org/Graphics/SVG/1.1/DTD/svg11.dtd">
<!-- Generated by graphviz version 2.43.0 (0)
 -->
<!-- Title: precice::utils::petsc::Vector::Vector Pages: 1 -->
<!--zoomable 148 -->

<svg id="main" version="1.1" xmlns="http://www.w3.org/2000/svg" xmlns:xlink="http://www.w3.org/1999/xlink" xml:space="preserve" onload="init(evt)">

<style type="text/css"><![CDATA[
.node, .edge {opacity: 0.7;}
.node.selected, .edge.selected {opacity: 1;}
.edge:hover path { stroke: red; }
.edge:hover polygon { stroke: red; fill: red; }
]]></style>

<defs>
  <circle id="rim" cx="0" cy="0" r="7"/>
  <circle id="rim2" cx="0" cy="0" r="3.5"/>
  <g id="zoomPlus">
    <use xlink:href="#rim" fill="#404040"><set attributeName="fill" to="#808080" begin="zoomplus.mouseover" end="zoomplus.mouseout"/></use>
    <path d="M-4,0h8M0,-4v8" fill="none" stroke="white" stroke-width="1.5" pointer-events="none"/>
  </g>
  <g id="zoomMin">
    <use xlink:href="#rim" fill="#404040"><set attributeName="fill" to="#808080" begin="zoomminus.mouseover" end="zoomminus.mouseout"/></use>
    <path d="M-4,0h8" fill="none" stroke="white" stroke-width="1.5" pointer-events="none"/>
  </g>
  <g id="arrowUp" transform="translate(30 24)">
    <use xlink:href="#rim"/>
    <path pointer-events="none" fill="none" stroke="white" stroke-width="1.5" d="M0,-3.0v7 M-2.5,-0.5L0,-3.0L2.5,-0.5"/>
  </g>
  <g id="arrowRight" transform="rotate(90) translate(36 -43)">
    <use xlink:href="#rim"/>
    <path pointer-events="none" fill="none" stroke="white" stroke-width="1.5" d="M0,-3.0v7 M-2.5,-0.5L0,-3.0L2.5,-0.5"/>
  </g>
  <g id="arrowDown" transform="rotate(180) translate(-30 -48)">
    <use xlink:href="#rim"/>
    <path pointer-events="none" fill="none" stroke="white" stroke-width="1.5" d="M0,-3.0v7 M-2.5,-0.5L0,-3.0L2.5,-0.5"/>
  </g>
  <g id="arrowLeft" transform="rotate(270) translate(-36 17)">
    <use xlink:href="#rim"/>
    <path pointer-events="none" fill="none" stroke="white" stroke-width="1.5" d="M0,-3.0v7 M-2.5,-0.5L0,-3.0L2.5,-0.5"/>
  </g>
  <g id="resetDef">
    <use xlink:href="#rim2" fill="#404040"><set attributeName="fill" to="#808080" begin="reset.mouseover" end="reset.mouseout"/></use>
  </g>
</defs>
<script type="application/ecmascript">
var viewWidth = 1054;
var viewHeight = 148;
var sectionId = 'dynsection-4';
</script>
<script type="application/ecmascript" xlink:href="svg.min.js"/>
<svg id="graph" class="graph">
<g id="viewport">
<title>precice::utils::petsc::Vector::Vector</title>
<!-- Node1 -->
<g id="Node000001" class="node">
<title>Node1</title>
<g id="a_Node000001"><a xlink:title=" ">
<polygon fill="#999999" stroke="#666666" points="111,-93.5 0,-93.5 0,-63.5 111,-63.5 111,-93.5"/>
<text text-anchor="start" x="8" y="-81.5" font-family="Helvetica,sans-Serif" font-size="10.00">precice::utils::petsc</text>
<text text-anchor="middle" x="55.5" y="-70.5" font-family="Helvetica,sans-Serif" font-size="10.00">::Vector::Vector</text>
</a>
</g>
</g>
<!-- Node2 -->
<g id="Node000002" class="node">
<title>Node2</title>
<g id="a_Node000002"><a xlink:href="namespaceprecice_1_1utils_1_1petsc.html#a521a46d3dea63d9aefc6a649bac8832b" target="_top" xlink:title=" ">
<polygon fill="white" stroke="#666666" points="410,-121.5 299,-121.5 299,-91.5 410,-91.5 410,-121.5"/>
<text text-anchor="start" x="307" y="-109.5" font-family="Helvetica,sans-Serif" font-size="10.00">precice::utils::petsc</text>
<text text-anchor="middle" x="354.5" y="-98.5" font-family="Helvetica,sans-Serif" font-size="10.00">::setName</text>
</a>
</g>
</g>
<!-- Node1&#45;&gt;Node2 -->
<g id="edge1_Node000001_Node000002" class="edge">
<title>Node1&#45;&gt;Node2</title>
<g id="a_edge1_Node000001_Node000002"><a xlink:title=" ">
<path fill="none" stroke="#63b8ff" d="M111.48,-86.28C123.19,-87.8 135.49,-89.29 147,-90.5 194.31,-95.47 247.87,-99.57 288.58,-102.38"/>
<polygon fill="#63b8ff" stroke="#63b8ff" points="288.43,-105.88 298.64,-103.07 288.91,-98.89 288.43,-105.88"/>
</a>
</g>
</g>
<!-- Node4 -->
<g id="Node000004" class="node">
<title>Node4</title>
<g id="a_Node000004"><a xlink:href="classprecice_1_1utils_1_1petsc_1_1Vector.html#af53e3beca2386f97fdebb25ea15aca2c" target="_top" xlink:title="Creates a new vector on the given MPI communicator.">
<polygon fill="white" stroke="#666666" points="258,-63.5 147,-63.5 147,-33.5 258,-33.5 258,-63.5"/>
<text text-anchor="start" x="155" y="-51.5" font-family="Helvetica,sans-Serif" font-size="10.00">precice::utils::petsc</text>
<text text-anchor="middle" x="202.5" y="-40.5" font-family="Helvetica,sans-Serif" font-size="10.00">::Vector::Vector</text>
</a>
</g>
</g>
<!-- Node1&#45;&gt;Node4 -->
<g id="edge4_Node000001_Node000004" class="edge">
<title>Node1&#45;&gt;Node4</title>
<g id="a_edge4_Node000001_Node000004"><a xlink:title=" ">
<path fill="none" stroke="#63b8ff" d="M111.32,-67.16C119.62,-65.44 128.25,-63.66 136.74,-61.9"/>
<polygon fill="#63b8ff" stroke="#63b8ff" points="137.52,-65.31 146.6,-59.86 136.1,-58.46 137.52,-65.31"/>
</a>
</g>
</g>
<!-- Node2&#45;&gt;Node2 -->
<g id="edge3_Node000002_Node000002" class="edge">
<title>Node2&#45;&gt;Node2</title>
<g id="a_edge3_Node000002_Node000002"><a xlink:title=" ">
<path fill="none" stroke="#63b8ff" d="M327.78,-121.78C321.84,-130.91 330.75,-139.5 354.5,-139.5 368.6,-139.5 377.47,-136.47 381.11,-132.1"/>
<polygon fill="#63b8ff" stroke="#63b8ff" points="384.61,-131.81 381.22,-121.78 377.61,-131.74 384.61,-131.81"/>
</a>
</g>
</g>
<!-- Node3 -->
<g id="Node000003" class="node">
<title>Node3</title>
<g id="a_Node000003"><a target="_parent" xlink:href="http://en.cppreference.com/w/cpp/string/basic_string/c_str.html#" xlink:title=" ">
<polygon fill="white" stroke="#666666" points="559,-116 464,-116 464,-97 559,-97 559,-116"/>
<text text-anchor="middle" x="511.5" y="-104" font-family="Helvetica,sans-Serif" font-size="10.00">std::string::c_str</text>
</a>
</g>
</g>
<!-- Node2&#45;&gt;Node3 -->
<g id="edge2_Node000002_Node000003" class="edge">
<title>Node2&#45;&gt;Node3</title>
<g id="a_edge2_Node000002_Node000003"><a xlink:title=" ">
<path fill="none" stroke="#63b8ff" d="M410.15,-106.5C424.24,-106.5 439.45,-106.5 453.66,-106.5"/>
<polygon fill="#63b8ff" stroke="#63b8ff" points="453.79,-110 463.79,-106.5 453.79,-103 453.79,-110"/>
</a>
</g>
</g>
<!-- Node4&#45;&gt;Node2 -->
<g id="edge12_Node000004_Node000002" class="edge">
<title>Node4&#45;&gt;Node2</title>
<g id="a_edge12_Node000004_Node000002"><a xlink:title=" ">
<path fill="none" stroke="#63b8ff" d="M242.52,-63.59C261.7,-71.01 285,-80.01 305.29,-87.86"/>
<polygon fill="#63b8ff" stroke="#63b8ff" points="304.09,-91.15 314.68,-91.49 306.61,-84.62 304.09,-91.15"/>
</a>
</g>
</g>
<!-- Node4&#45;&gt;Node4 -->
<g id="edge13_Node000004_Node000004" class="edge">
<title>Node4&#45;&gt;Node4</title>
<g id="a_edge13_Node000004_Node000004"><a xlink:title=" ">
<path fill="none" stroke="#63b8ff" d="M176.84,-63.78C171.13,-72.91 179.69,-81.5 202.5,-81.5 216.04,-81.5 224.56,-78.47 228.06,-74.1"/>
<polygon fill="#63b8ff" stroke="#63b8ff" points="231.56,-73.81 228.16,-63.78 224.56,-73.74 231.56,-73.81"/>
</a>
</g>
</g>
<!-- Node5 -->
<g id="Node000005" class="node">
<title>Node5</title>
<g id="a_Node000005"><a xlink:href="classprecice_1_1utils_1_1Parallel.html#a2aeadec30c9e48918e014608ede4d51d" target="_top" xlink:title="Returns an owning pointer to the current CommState.">
<polygon fill="white" stroke="#666666" points="415,-67.5 294,-67.5 294,-37.5 415,-37.5 415,-67.5"/>
<text text-anchor="start" x="302" y="-55.5" font-family="Helvetica,sans-Serif" font-size="10.00">precice::utils::Parallel</text>
<text text-anchor="middle" x="354.5" y="-44.5" font-family="Helvetica,sans-Serif" font-size="10.00">::current</text>
</a>
</g>
</g>
<!-- Node4&#45;&gt;Node5 -->
<g id="edge5_Node000004_Node000005" class="edge">
<title>Node4&#45;&gt;Node5</title>
<g id="a_edge5_Node000004_Node000005"><a xlink:title=" ">
<path fill="none" stroke="#63b8ff" d="M258.08,-49.96C266.45,-50.18 275.18,-50.41 283.82,-50.64"/>
<polygon fill="#63b8ff" stroke="#63b8ff" points="283.81,-54.14 293.9,-50.91 283.99,-47.15 283.81,-54.14"/>
</a>
</g>
</g>
<!-- Node10 -->
<g id="Node000010" class="node">
<title>Node10</title>
<g id="a_Node000010"><a xlink:href="MPI__Mock_8hpp.html#af02c1da1e2be331e53ac3e5f8ccfedb6" target="_top" xlink:title=" ">
<polygon fill="white" stroke="#666666" points="403,-19 306,-19 306,0 403,0 403,-19"/>
<text text-anchor="middle" x="354.5" y="-7" font-family="Helvetica,sans-Serif" font-size="10.00">MPI_Comm_size</text>
</a>
</g>
</g>
<!-- Node4&#45;&gt;Node10 -->
<g id="edge11_Node000004_Node000010" class="edge">
<title>Node4&#45;&gt;Node10</title>
<g id="a_edge11_Node000004_Node000010"><a xlink:title=" ">
<path fill="none" stroke="#63b8ff" d="M258.08,-34.31C274.02,-30.16 291.29,-25.67 306.71,-21.67"/>
<polygon fill="#63b8ff" stroke="#63b8ff" points="307.74,-25.01 316.54,-19.11 305.98,-18.24 307.74,-25.01"/>
</a>
</g>
</g>
<!-- Node6 -->
<g id="Node000006" class="node">
<title>Node6</title>
<g id="a_Node000006"><a xlink:href="structprecice_1_1utils_1_1Parallel_1_1CommState.html#a11c87f5cfaad1fb984d9dcd80e6f2c55" target="_top" xlink:title="returns a commstate containing MPI_COMM_WORLD">
<polygon fill="white" stroke="#666666" points="572,-67.5 451,-67.5 451,-37.5 572,-37.5 572,-67.5"/>
<text text-anchor="start" x="459" y="-55.5" font-family="Helvetica,sans-Serif" font-size="10.00">precice::utils::Parallel</text>
<text text-anchor="middle" x="511.5" y="-44.5" font-family="Helvetica,sans-Serif" font-size="10.00">::CommState::world</text>
</a>
</g>
</g>
<!-- Node5&#45;&gt;Node6 -->
<g id="edge6_Node000005_Node000006" class="edge">
<title>Node5&#45;&gt;Node6</title>
<g id="a_edge6_Node000005_Node000006"><a xlink:title=" ">
<path fill="none" stroke="#63b8ff" d="M415.43,-52.5C423.72,-52.5 432.31,-52.5 440.76,-52.5"/>
<polygon fill="#63b8ff" stroke="#63b8ff" points="440.99,-56 450.99,-52.5 440.99,-49 440.99,-56"/>
</a>
</g>
</g>
<!-- Node7 -->
<g id="Node000007" class="node">
<title>Node7</title>
<g id="a_Node000007"><a xlink:href="structprecice_1_1utils_1_1Parallel_1_1CommState.html#a440432f97f08c595678e1102edb43b9f" target="_top" xlink:title="returns the commstate representing comm">
<polygon fill="white" stroke="#666666" points="750,-89.5 608,-89.5 608,-59.5 750,-59.5 750,-89.5"/>
<text text-anchor="start" x="616" y="-77.5" font-family="Helvetica,sans-Serif" font-size="10.00">precice::utils::Parallel</text>
<text text-anchor="middle" x="679" y="-66.5" font-family="Helvetica,sans-Serif" font-size="10.00">::CommState::fromComm</text>
</a>
</g>
</g>
<!-- Node6&#45;&gt;Node7 -->
<g id="edge7_Node000006_Node000007" class="edge">
<title>Node6&#45;&gt;Node7</title>
<g id="a_edge7_Node000006_Node000007"><a xlink:title=" ">
<path fill="none" stroke="#63b8ff" d="M572.25,-60.44C580.57,-61.55 589.22,-62.7 597.84,-63.84"/>
<polygon fill="#63b8ff" stroke="#63b8ff" points="597.54,-67.34 607.92,-65.18 598.47,-60.4 597.54,-67.34"/>
</a>
</g>
</g>
<!-- Node8 -->
<g id="Node000008" class="node">
<title>Node8</title>
<g id="a_Node000008"><a xlink:href="structprecice_1_1utils_1_1Parallel_1_1CommState.html#a5e3626f4c22a0aa7ac05cd740dda95ca" target="_top" xlink:title="returns an blank commstate representing MPI_COMM_NULL">
<polygon fill="white" stroke="#666666" points="907,-67.5 786,-67.5 786,-37.5 907,-37.5 907,-67.5"/>
<text text-anchor="start" x="794" y="-55.5" font-family="Helvetica,sans-Serif" font-size="10.00">precice::utils::Parallel</text>
<text text-anchor="middle" x="846.5" y="-44.5" font-family="Helvetica,sans-Serif" font-size="10.00">::CommState::null</text>
</a>
</g>
</g>
<!-- Node6&#45;&gt;Node8 -->
<g id="edge10_Node000006_Node000008" class="edge">
<title>Node6&#45;&gt;Node8</title>
<g id="a_edge10_Node000006_Node000008"><a xlink:title=" ">
<path fill="none" stroke="#63b8ff" d="M572.1,-51.06C583.99,-50.83 596.39,-50.62 608,-50.5 671.11,-49.84 686.89,-49.84 750,-50.5 758.34,-50.59 767.1,-50.72 775.77,-50.87"/>
<polygon fill="#63b8ff" stroke="#63b8ff" points="775.84,-54.37 785.9,-51.06 775.97,-47.37 775.84,-54.37"/>
</a>
</g>
</g>
<!-- Node7&#45;&gt;Node8 -->
<g id="edge8_Node000007_Node000008" class="edge">
<title>Node7&#45;&gt;Node8</title>
<g id="a_edge8_Node000007_Node000008"><a xlink:title=" ">
<path fill="none" stroke="#63b8ff" d="M750.19,-65.17C758.64,-64.05 767.28,-62.9 775.73,-61.78"/>
<polygon fill="#63b8ff" stroke="#63b8ff" points="776.47,-65.21 785.92,-60.42 775.54,-58.27 776.47,-65.21"/>
</a>
</g>
</g>
<!-- Node9 -->
<g id="Node000009" class="node">
<title>Node9</title>
<g id="a_Node000009"><a target="_parent" xlink:href="http://en.cppreference.com/w/cpp/memory/shared_ptr/make_shared.html#" xlink:title=" ">
<polygon fill="white" stroke="#666666" points="1046,-62 943,-62 943,-43 1046,-43 1046,-62"/>
<text text-anchor="middle" x="994.5" y="-50" font-family="Helvetica,sans-Serif" font-size="10.00">std::make_shared</text>
</a>
</g>
</g>
<!-- Node8&#45;&gt;Node9 -->
<g id="edge9_Node000008_Node000009" class="edge">
<title>Node8&#45;&gt;Node9</title>
<g id="a_edge9_Node000008_Node000009"><a xlink:title=" ">
<path fill="none" stroke="#63b8ff" d="M907.31,-52.5C915.7,-52.5 924.34,-52.5 932.76,-52.5"/>
<polygon fill="#63b8ff" stroke="#63b8ff" points="932.88,-56 942.88,-52.5 932.88,-49 932.88,-56"/>
</a>
</g>
</g>
</g>
</svg>

<g id="navigator" transform="translate(0 0)" fill="#404254">
  <rect fill="#f2f5e9" fill-opacity="0.5" stroke="#606060" stroke-width=".5" x="0" y="0" width="60" height="60"/>
  <use id="zoomplus" xlink:href="#zoomPlus" x="17" y="9" onmousedown="handleZoom(evt,'in')"/>
  <use id="zoomminus" xlink:href="#zoomMin" x="42" y="9" onmousedown="handleZoom(evt,'out')"/>
  <use id="reset" xlink:href="#resetDef" x="30" y="36" onmousedown="handleReset()"/>
   <use id="arrowup" xlink:href="#arrowUp" x="0" y="0" onmousedown="handlePan(0,-1)"/>
  <use id="arrowright" xlink:href="#arrowRight" x="0" y="0" onmousedown="handlePan(1,0)"/>
  <use id="arrowdown" xlink:href="#arrowDown" x="0" y="0" onmousedown="handlePan(0,1)"/>
  <use id="arrowleft" xlink:href="#arrowLeft" x="0" y="0" onmousedown="handlePan(-1,0)"/>
</g>
<svg viewBox="0 0 15 15" width="100%" height="30px" preserveAspectRatio="xMaxYMin meet">
 <g id="arrow_out" transform="scale(0.3 0.3)">
  <a xlink:href="classprecice_1_1utils_1_1petsc_1_1Vector_a67337e1bfb4aa406b5f9bf6918cc6be5_cgraph_org.svg" target="_base">
   <rect id="button" ry="5" rx="5" y="6" x="6" height="38" width="38"
        fill="#f2f5e9" fill-opacity="0.5" stroke="#606060" stroke-width="1.0"/>
   <path id="arrow"
     d="M 11.500037,31.436501 C 11.940474,20.09759 22.043105,11.32322 32.158766,21.979434 L 37.068811,17.246167 C 37.068811,17.246167 37.088388,32 37.088388,32 L 22.160133,31.978069 C 22.160133,31.978069 26.997745,27.140456 26.997745,27.140456 C 18.528582,18.264221 13.291696,25.230495 11.500037,31.436501 z"
     style="fill:#404040;"/>
  </a>
 </g>
</svg>

<style type='text/css'>
<![CDATA[
[data-mouse-over-selected='false'] { opacity: 0.7; }
[data-mouse-over-selected='true']  { opacity: 1.0; }
]]>
</style>
<script type="application/ecmascript"><![CDATA[
document.addEventListener('DOMContentLoaded', (event) => {
  highlightEdges();
  highlightAdjacentNodes();
});
]]></script>
</svg>
