<?xml version="1.0" encoding="UTF-8" standalone="no"?>
<!DOCTYPE svg PUBLIC "-//W3C//DTD SVG 1.1//EN"
 "http://www.w3.org/Graphics/SVG/1.1/DTD/svg11.dtd">
<!-- Generated by graphviz version 2.43.0 (0)
 -->
<!-- Title: precice::com::CommunicateMesh::broadcastSendMesh Pages: 1 -->
<svg width="314pt" height="235pt"
 viewBox="0.00 0.00 314.00 235.00" xmlns="http://www.w3.org/2000/svg" xmlns:xlink="http://www.w3.org/1999/xlink">
<g id="graph0" class="graph" transform="scale(1 1) rotate(0) translate(4 231)">
<title>precice::com::CommunicateMesh::broadcastSendMesh</title>
<polygon fill="white" stroke="transparent" points="-4,4 -4,-231 310,-231 310,4 -4,4"/>
<!-- Node1 -->
<g id="node1" class="node">
<title>Node1</title>
<g id="a_node1"><a xlink:title=" ">
<polygon fill="#bfbfbf" stroke="black" points="0,-98.5 0,-128.5 153,-128.5 153,-98.5 0,-98.5"/>
<text text-anchor="start" x="8" y="-116.5" font-family="Helvetica,sans-Serif" font-size="10.00">precice::com::Communicate</text>
<text text-anchor="middle" x="76.5" y="-105.5" font-family="Helvetica,sans-Serif" font-size="10.00">Mesh::broadcastSendMesh</text>
</a>
</g>
</g>
<!-- Node2 -->
<g id="node2" class="node">
<title>Node2</title>
<g id="a_node2"><a xlink:href="classprecice_1_1mesh_1_1Mesh.html#a1208772095354f328cae1b087e64642e" target="_top" xlink:title="Returns modifiable container holding all edges.">
<polygon fill="white" stroke="black" points="189,-196.5 189,-226.5 306,-226.5 306,-196.5 189,-196.5"/>
<text text-anchor="start" x="197" y="-214.5" font-family="Helvetica,sans-Serif" font-size="10.00">precice::mesh::Mesh</text>
<text text-anchor="middle" x="247.5" y="-203.5" font-family="Helvetica,sans-Serif" font-size="10.00">::edges</text>
</a>
</g>
</g>
<!-- Node1&#45;&gt;Node2 -->
<g id="edge1" class="edge">
<title>Node1&#45;&gt;Node2</title>
<path fill="none" stroke="midnightblue" d="M97.73,-128.64C119.53,-144.53 155.6,-169.66 189,-187.5 192.05,-189.13 195.24,-190.73 198.47,-192.27"/>
<polygon fill="midnightblue" stroke="midnightblue" points="197.13,-195.51 207.68,-196.49 200.04,-189.14 197.13,-195.51"/>
</g>
<!-- Node3 -->
<g id="node3" class="node">
<title>Node3</title>
<g id="a_node3"><a xlink:href="classprecice_1_1mesh_1_1Mesh.html#a136f6b4ce235025e418fab0ca5f350ff" target="_top" xlink:title=" ">
<polygon fill="white" stroke="black" points="189,-147.5 189,-177.5 306,-177.5 306,-147.5 189,-147.5"/>
<text text-anchor="start" x="197" y="-165.5" font-family="Helvetica,sans-Serif" font-size="10.00">precice::mesh::Mesh</text>
<text text-anchor="middle" x="247.5" y="-154.5" font-family="Helvetica,sans-Serif" font-size="10.00">::getDimensions</text>
</a>
</g>
</g>
<!-- Node1&#45;&gt;Node3 -->
<g id="edge2" class="edge">
<title>Node1&#45;&gt;Node3</title>
<path fill="none" stroke="midnightblue" d="M129.58,-128.6C147.1,-133.68 166.79,-139.39 184.96,-144.66"/>
<polygon fill="midnightblue" stroke="midnightblue" points="184.01,-148.03 194.59,-147.45 185.96,-141.3 184.01,-148.03"/>
</g>
<!-- Node4 -->
<g id="node4" class="node">
<title>Node4</title>
<g id="a_node4"><a xlink:href="classprecice_1_1mesh_1_1Mesh.html#a3185fe962ba3e8fe0b3cf451681e6a48" target="_top" xlink:title="Returns the name of the mesh, as set in the config file.">
<polygon fill="white" stroke="black" points="189,-98.5 189,-128.5 306,-128.5 306,-98.5 189,-98.5"/>
<text text-anchor="start" x="197" y="-116.5" font-family="Helvetica,sans-Serif" font-size="10.00">precice::mesh::Mesh</text>
<text text-anchor="middle" x="247.5" y="-105.5" font-family="Helvetica,sans-Serif" font-size="10.00">::getName</text>
</a>
</g>
</g>
<!-- Node1&#45;&gt;Node4 -->
<g id="edge3" class="edge">
<title>Node1&#45;&gt;Node4</title>
<path fill="none" stroke="midnightblue" d="M153.1,-113.5C161.66,-113.5 170.35,-113.5 178.8,-113.5"/>
<polygon fill="midnightblue" stroke="midnightblue" points="178.96,-117 188.96,-113.5 178.96,-110 178.96,-117"/>
</g>
<!-- Node5 -->
<g id="node5" class="node">
<title>Node5</title>
<g id="a_node5"><a xlink:href="classprecice_1_1mesh_1_1Mesh.html#ad74df9a7f4cb96c251d32c3159d67352" target="_top" xlink:title="Returns modifiable container holding all triangles.">
<polygon fill="white" stroke="black" points="189,-49.5 189,-79.5 306,-79.5 306,-49.5 189,-49.5"/>
<text text-anchor="start" x="197" y="-67.5" font-family="Helvetica,sans-Serif" font-size="10.00">precice::mesh::Mesh</text>
<text text-anchor="middle" x="247.5" y="-56.5" font-family="Helvetica,sans-Serif" font-size="10.00">::triangles</text>
</a>
</g>
</g>
<!-- Node1&#45;&gt;Node5 -->
<g id="edge4" class="edge">
<title>Node1&#45;&gt;Node5</title>
<path fill="none" stroke="midnightblue" d="M129.58,-98.4C147.1,-93.32 166.79,-87.61 184.96,-82.34"/>
<polygon fill="midnightblue" stroke="midnightblue" points="185.96,-85.7 194.59,-79.55 184.01,-78.97 185.96,-85.7"/>
</g>
<!-- Node6 -->
<g id="node6" class="node">
<title>Node6</title>
<g id="a_node6"><a xlink:href="classprecice_1_1mesh_1_1Mesh.html#a70d28ab188762edbe9a7b5b8439e9906" target="_top" xlink:title="Returns modifieable container holding all vertices.">
<polygon fill="white" stroke="black" points="189,-0.5 189,-30.5 306,-30.5 306,-0.5 189,-0.5"/>
<text text-anchor="start" x="197" y="-18.5" font-family="Helvetica,sans-Serif" font-size="10.00">precice::mesh::Mesh</text>
<text text-anchor="middle" x="247.5" y="-7.5" font-family="Helvetica,sans-Serif" font-size="10.00">::vertices</text>
</a>
</g>
</g>
<!-- Node1&#45;&gt;Node6 -->
<g id="edge5" class="edge">
<title>Node1&#45;&gt;Node6</title>
<path fill="none" stroke="midnightblue" d="M98.22,-98.4C120.13,-82.81 156.01,-58.3 189,-40.5 192.51,-38.61 196.19,-36.74 199.93,-34.94"/>
<polygon fill="midnightblue" stroke="midnightblue" points="201.66,-37.99 209.25,-30.6 198.71,-31.65 201.66,-37.99"/>
</g>
</g>
</svg>
