<?xml version="1.0" encoding="UTF-8" standalone="no"?>
<!DOCTYPE svg PUBLIC "-//W3C//DTD SVG 1.1//EN"
 "http://www.w3.org/Graphics/SVG/1.1/DTD/svg11.dtd">
<!-- Generated by graphviz version 2.43.0 (0)
 -->
<!-- Title: precice::cplscheme::MultiCouplingScheme::exchangeFirstData Pages: 1 -->
<svg width="694pt" height="450pt"
 viewBox="0.00 0.00 694.00 450.00" xmlns="http://www.w3.org/2000/svg" xmlns:xlink="http://www.w3.org/1999/xlink">
<g id="graph0" class="graph" transform="scale(1 1) rotate(0) translate(4 446)">
<title>precice::cplscheme::MultiCouplingScheme::exchangeFirstData</title>
<!-- Node1 -->
<g id="Node000001" class="node">
<title>Node1</title>
<g id="a_Node000001"><a xlink:title="Functions needed for advance()">
<polygon fill="#999999" stroke="#666666" points="129,-344 0,-344 0,-303 129,-303 129,-344"/>
<text text-anchor="start" x="8" y="-332" font-family="Helvetica,sans-Serif" font-size="10.00">precice::cplscheme</text>
<text text-anchor="start" x="8" y="-321" font-family="Helvetica,sans-Serif" font-size="10.00">::MultiCouplingScheme</text>
<text text-anchor="middle" x="64.5" y="-310" font-family="Helvetica,sans-Serif" font-size="10.00">::exchangeFirstData</text>
</a>
</g>
</g>
<!-- Node2 -->
<g id="Node000002" class="node">
<title>Node2</title>
<g id="a_Node000002"><a xlink:href="classprecice_1_1cplscheme_1_1BaseCouplingScheme.html#a4dcb97e3ef79b1cca6af577f9cbbec19" target="_top" xlink:title="Function to determine whether coupling scheme is an implicit coupling scheme.">
<polygon fill="white" stroke="#666666" points="320.5,-442 171.5,-442 171.5,-401 320.5,-401 320.5,-442"/>
<text text-anchor="start" x="179.5" y="-430" font-family="Helvetica,sans-Serif" font-size="10.00">precice::cplscheme</text>
<text text-anchor="start" x="179.5" y="-419" font-family="Helvetica,sans-Serif" font-size="10.00">::BaseCouplingScheme</text>
<text text-anchor="middle" x="246" y="-408" font-family="Helvetica,sans-Serif" font-size="10.00">::isImplicitCouplingScheme</text>
</a>
</g>
</g>
<!-- Node1&#45;&gt;Node2 -->
<g id="edge1_Node000001_Node000002" class="edge">
<title>Node1&#45;&gt;Node2</title>
<g id="a_edge1_Node000001_Node000002"><a xlink:title=" ">
<path fill="none" stroke="#63b8ff" d="M91.34,-344.21C110.77,-359.06 138.48,-378.79 165,-392.5 167.89,-393.99 170.87,-395.44 173.91,-396.85"/>
<polygon fill="#63b8ff" stroke="#63b8ff" points="172.6,-400.09 183.16,-400.92 175.41,-393.69 172.6,-400.09"/>
</a>
</g>
</g>
<!-- Node3 -->
<g id="Node000003" class="node">
<title>Node3</title>
<g id="a_Node000003"><a xlink:href="classprecice_1_1cplscheme_1_1BaseCouplingScheme.html#a3153d22622f9abe534cef5fb0fb299dc" target="_top" xlink:title="Used to set flag after data has been received using receiveData().">
<polygon fill="white" stroke="#666666" points="327,-383 165,-383 165,-342 327,-342 327,-383"/>
<text text-anchor="start" x="173" y="-371" font-family="Helvetica,sans-Serif" font-size="10.00">precice::cplscheme</text>
<text text-anchor="start" x="173" y="-360" font-family="Helvetica,sans-Serif" font-size="10.00">::BaseCouplingScheme</text>
<text text-anchor="middle" x="246" y="-349" font-family="Helvetica,sans-Serif" font-size="10.00">::notifyDataHasBeenReceived</text>
</a>
</g>
</g>
<!-- Node1&#45;&gt;Node3 -->
<g id="edge2_Node000001_Node000003" class="edge">
<title>Node1&#45;&gt;Node3</title>
<g id="a_edge2_Node000001_Node000003"><a xlink:title=" ">
<path fill="none" stroke="#63b8ff" d="M129.04,-337.3C137.46,-339.14 146.23,-341.04 155,-342.94"/>
<polygon fill="#63b8ff" stroke="#63b8ff" points="154.36,-346.39 164.88,-345.09 155.85,-339.55 154.36,-346.39"/>
</a>
</g>
</g>
<!-- Node4 -->
<g id="Node000004" class="node">
<title>Node4</title>
<g id="a_Node000004"><a xlink:href="classprecice_1_1cplscheme_1_1BaseCouplingScheme.html#af690c8d4e0f11e52fc7b9ca1fe098229" target="_top" xlink:title="Receives data receiveDataIDs given in mapCouplingData with communication.">
<polygon fill="white" stroke="#666666" points="310,-306 182,-306 182,-265 310,-265 310,-306"/>
<text text-anchor="start" x="190" y="-294" font-family="Helvetica,sans-Serif" font-size="10.00">precice::cplscheme</text>
<text text-anchor="start" x="190" y="-283" font-family="Helvetica,sans-Serif" font-size="10.00">::BaseCouplingScheme</text>
<text text-anchor="middle" x="246" y="-272" font-family="Helvetica,sans-Serif" font-size="10.00">::receiveData</text>
</a>
</g>
</g>
<!-- Node1&#45;&gt;Node4 -->
<g id="edge3_Node000001_Node000004" class="edge">
<title>Node1&#45;&gt;Node4</title>
<g id="a_edge3_Node000001_Node000004"><a xlink:title=" ">
<path fill="none" stroke="#63b8ff" d="M129.04,-310.05C142.83,-307.13 157.54,-304.02 171.68,-301.02"/>
<polygon fill="#63b8ff" stroke="#63b8ff" points="172.79,-304.36 181.85,-298.87 171.34,-297.52 172.79,-304.36"/>
</a>
</g>
</g>
<!-- Node10 -->
<g id="Node000010" class="node">
<title>Node10</title>
<g id="a_Node000010"><a xlink:href="classprecice_1_1cplscheme_1_1BaseCouplingScheme.html#a3aa71af66bf740fa8d9182b47db7dac3" target="_top" xlink:title="Sends data sendDataIDs given in mapCouplingData with communication.">
<polygon fill="white" stroke="#666666" points="310,-159 182,-159 182,-118 310,-118 310,-159"/>
<text text-anchor="start" x="190" y="-147" font-family="Helvetica,sans-Serif" font-size="10.00">precice::cplscheme</text>
<text text-anchor="start" x="190" y="-136" font-family="Helvetica,sans-Serif" font-size="10.00">::BaseCouplingScheme</text>
<text text-anchor="middle" x="246" y="-125" font-family="Helvetica,sans-Serif" font-size="10.00">::sendData</text>
</a>
</g>
</g>
<!-- Node1&#45;&gt;Node10 -->
<g id="edge10_Node000001_Node000010" class="edge">
<title>Node1&#45;&gt;Node10</title>
<g id="a_edge10_Node000001_Node000010"><a xlink:title=" ">
<path fill="none" stroke="#63b8ff" d="M85.4,-302.99C117.61,-269.8 181.24,-204.21 217.67,-166.66"/>
<polygon fill="#63b8ff" stroke="#63b8ff" points="220.56,-168.71 225.02,-159.1 215.54,-163.84 220.56,-168.71"/>
</a>
</g>
</g>
<!-- Node4&#45;&gt;Node4 -->
<g id="edge7_Node000004_Node000004" class="edge">
<title>Node4&#45;&gt;Node4</title>
<g id="a_edge7_Node000004_Node000004"><a xlink:title=" ">
<path fill="none" stroke="#63b8ff" d="M212.92,-306.1C209.31,-315.65 220.34,-324 246,-324 262.04,-324 272.36,-320.74 276.97,-315.96"/>
<polygon fill="#63b8ff" stroke="#63b8ff" points="280.41,-316.61 279.08,-306.1 273.56,-315.14 280.41,-316.61"/>
</a>
</g>
</g>
<!-- Node5 -->
<g id="Node000005" class="node">
<title>Node5</title>
<g id="a_Node000005"><a xlink:href="classprecice_1_1com_1_1serialize_1_1SerializedStamples.html#a914cc916961f26874b078f45ce01e6f5" target="_top" xlink:title="Create SerializedStamples with allocated buffers according to size of CouplingData.">
<polygon fill="white" stroke="#666666" points="520.5,-413.5 366.5,-413.5 366.5,-383.5 520.5,-383.5 520.5,-413.5"/>
<text text-anchor="start" x="374.5" y="-401.5" font-family="Helvetica,sans-Serif" font-size="10.00">precice::com::serialize</text>
<text text-anchor="middle" x="443.5" y="-390.5" font-family="Helvetica,sans-Serif" font-size="10.00">::SerializedStamples::empty</text>
</a>
</g>
</g>
<!-- Node4&#45;&gt;Node5 -->
<g id="edge4_Node000004_Node000005" class="edge">
<title>Node4&#45;&gt;Node5</title>
<g id="a_edge4_Node000004_Node000005"><a xlink:title=" ">
<path fill="none" stroke="#63b8ff" d="M286.88,-306.16C300.23,-313.91 314.81,-323.33 327,-333.5 345.62,-349.04 342.61,-361.38 363,-374.5 365.58,-376.16 368.29,-377.71 371.08,-379.16"/>
<polygon fill="#63b8ff" stroke="#63b8ff" points="369.67,-382.37 380.21,-383.44 372.64,-376.03 369.67,-382.37"/>
</a>
</g>
</g>
<!-- Node7 -->
<g id="Node000007" class="node">
<title>Node7</title>
<g id="a_Node000007"><a xlink:href="classprecice_1_1cplscheme_1_1BaseCouplingScheme.html#a6c37c619f364581226635cdca7d39e4b" target="_top" xlink:title="getter for _time">
<polygon fill="white" stroke="#666666" points="507.5,-365 379.5,-365 379.5,-324 507.5,-324 507.5,-365"/>
<text text-anchor="start" x="387.5" y="-353" font-family="Helvetica,sans-Serif" font-size="10.00">precice::cplscheme</text>
<text text-anchor="start" x="387.5" y="-342" font-family="Helvetica,sans-Serif" font-size="10.00">::BaseCouplingScheme</text>
<text text-anchor="middle" x="443.5" y="-331" font-family="Helvetica,sans-Serif" font-size="10.00">::getTime</text>
</a>
</g>
</g>
<!-- Node4&#45;&gt;Node7 -->
<g id="edge6_Node000004_Node000007" class="edge">
<title>Node4&#45;&gt;Node7</title>
<g id="a_edge6_Node000004_Node000007"><a xlink:title=" ">
<path fill="none" stroke="#63b8ff" d="M310.2,-304.57C329.1,-310.28 349.97,-316.58 369.45,-322.45"/>
<polygon fill="#63b8ff" stroke="#63b8ff" points="368.59,-325.85 379.18,-325.39 370.62,-319.15 368.59,-325.85"/>
</a>
</g>
</g>
<!-- Node8 -->
<g id="Node000008" class="node">
<title>Node8</title>
<g id="a_Node000008"><a xlink:href="classprecice_1_1cplscheme_1_1BaseCouplingScheme.html#a83379ed90469cb7710fff88ff52269ac" target="_top" xlink:title=" ">
<polygon fill="white" stroke="#666666" points="524,-306 363,-306 363,-265 524,-265 524,-306"/>
<text text-anchor="start" x="371" y="-294" font-family="Helvetica,sans-Serif" font-size="10.00">precice::cplscheme</text>
<text text-anchor="start" x="371" y="-283" font-family="Helvetica,sans-Serif" font-size="10.00">::BaseCouplingScheme</text>
<text text-anchor="middle" x="443.5" y="-272" font-family="Helvetica,sans-Serif" font-size="10.00">::receiveNumberOfTimeSteps</text>
</a>
</g>
</g>
<!-- Node4&#45;&gt;Node8 -->
<g id="edge8_Node000004_Node000008" class="edge">
<title>Node4&#45;&gt;Node8</title>
<g id="a_edge8_Node000004_Node000008"><a xlink:title=" ">
<path fill="none" stroke="#63b8ff" d="M310.2,-285.5C323.67,-285.5 338.14,-285.5 352.39,-285.5"/>
<polygon fill="#63b8ff" stroke="#63b8ff" points="352.71,-289 362.71,-285.5 352.71,-282 352.71,-289"/>
</a>
</g>
</g>
<!-- Node9 -->
<g id="Node000009" class="node">
<title>Node9</title>
<g id="a_Node000009"><a xlink:href="classprecice_1_1cplscheme_1_1BaseCouplingScheme.html#a700bef351e463eb84836538fd91f16b3" target="_top" xlink:title=" ">
<polygon fill="white" stroke="#666666" points="507.5,-247 379.5,-247 379.5,-206 507.5,-206 507.5,-247"/>
<text text-anchor="start" x="387.5" y="-235" font-family="Helvetica,sans-Serif" font-size="10.00">precice::cplscheme</text>
<text text-anchor="start" x="387.5" y="-224" font-family="Helvetica,sans-Serif" font-size="10.00">::BaseCouplingScheme</text>
<text text-anchor="middle" x="443.5" y="-213" font-family="Helvetica,sans-Serif" font-size="10.00">::receiveTimes</text>
</a>
</g>
</g>
<!-- Node4&#45;&gt;Node9 -->
<g id="edge9_Node000004_Node000009" class="edge">
<title>Node4&#45;&gt;Node9</title>
<g id="a_edge9_Node000004_Node000009"><a xlink:title=" ">
<path fill="none" stroke="#63b8ff" d="M310.2,-266.43C329.1,-260.72 349.97,-254.42 369.45,-248.55"/>
<polygon fill="#63b8ff" stroke="#63b8ff" points="370.62,-251.85 379.18,-245.61 368.59,-245.15 370.62,-251.85"/>
</a>
</g>
</g>
<!-- Node6 -->
<g id="Node000006" class="node">
<title>Node6</title>
<g id="a_Node000006"><a xlink:href="classprecice_1_1com_1_1serialize_1_1SerializedStamples.html#a766834ff07b9fc24a575a98c2fc8c382" target="_top" xlink:title=" ">
<polygon fill="white" stroke="#666666" points="686,-289 560,-289 560,-248 686,-248 686,-289"/>
<text text-anchor="start" x="568" y="-277" font-family="Helvetica,sans-Serif" font-size="10.00">precice::com::serialize</text>
<text text-anchor="start" x="568" y="-266" font-family="Helvetica,sans-Serif" font-size="10.00">::SerializedStamples::</text>
<text text-anchor="middle" x="623" y="-255" font-family="Helvetica,sans-Serif" font-size="10.00">allocate</text>
</a>
</g>
</g>
<!-- Node5&#45;&gt;Node6 -->
<g id="edge5_Node000005_Node000006" class="edge">
<title>Node5&#45;&gt;Node6</title>
<g id="a_edge5_Node000005_Node000006"><a xlink:title=" ">
<path fill="none" stroke="#63b8ff" d="M506.28,-383.48C512.48,-380.91 518.5,-377.94 524,-374.5 555.98,-354.5 584.23,-321.37 602.09,-297.47"/>
<polygon fill="#63b8ff" stroke="#63b8ff" points="605.11,-299.26 608.18,-289.12 599.46,-295.14 605.11,-299.26"/>
</a>
</g>
</g>
<!-- Node10&#45;&gt;Node10 -->
<g id="edge11_Node000010_Node000010" class="edge">
<title>Node10&#45;&gt;Node10</title>
<g id="a_edge11_Node000010_Node000010"><a xlink:title=" ">
<path fill="none" stroke="#63b8ff" d="M212.92,-159.1C209.31,-168.65 220.34,-177 246,-177 262.04,-177 272.36,-173.74 276.97,-168.96"/>
<polygon fill="#63b8ff" stroke="#63b8ff" points="280.41,-169.61 279.08,-159.1 273.56,-168.14 280.41,-169.61"/>
</a>
</g>
</g>
<!-- Node11 -->
<g id="Node000011" class="node">
<title>Node11</title>
<g id="a_Node000011"><a xlink:href="classprecice_1_1cplscheme_1_1BaseCouplingScheme.html#aab81f5f3857872a22d82f871248d4371" target="_top" xlink:title=" ">
<polygon fill="white" stroke="#666666" points="517.5,-188 369.5,-188 369.5,-147 517.5,-147 517.5,-188"/>
<text text-anchor="start" x="377.5" y="-176" font-family="Helvetica,sans-Serif" font-size="10.00">precice::cplscheme</text>
<text text-anchor="start" x="377.5" y="-165" font-family="Helvetica,sans-Serif" font-size="10.00">::BaseCouplingScheme</text>
<text text-anchor="middle" x="443.5" y="-154" font-family="Helvetica,sans-Serif" font-size="10.00">::sendNumberOfTimeSteps</text>
</a>
</g>
</g>
<!-- Node10&#45;&gt;Node11 -->
<g id="edge12_Node000010_Node000011" class="edge">
<title>Node10&#45;&gt;Node11</title>
<g id="a_edge12_Node000010_Node000011"><a xlink:title=" ">
<path fill="none" stroke="#63b8ff" d="M310.2,-147.88C325.82,-150.19 342.78,-152.71 359.19,-155.14"/>
<polygon fill="#63b8ff" stroke="#63b8ff" points="358.91,-158.64 369.31,-156.64 359.94,-151.71 358.91,-158.64"/>
</a>
</g>
</g>
<!-- Node12 -->
<g id="Node000012" class="node">
<title>Node12</title>
<g id="a_Node000012"><a xlink:href="classprecice_1_1cplscheme_1_1BaseCouplingScheme.html#ad50465f4541de9580e627400d7e39f4f" target="_top" xlink:title=" ">
<polygon fill="white" stroke="#666666" points="507.5,-129 379.5,-129 379.5,-88 507.5,-88 507.5,-129"/>
<text text-anchor="start" x="387.5" y="-117" font-family="Helvetica,sans-Serif" font-size="10.00">precice::cplscheme</text>
<text text-anchor="start" x="387.5" y="-106" font-family="Helvetica,sans-Serif" font-size="10.00">::BaseCouplingScheme</text>
<text text-anchor="middle" x="443.5" y="-95" font-family="Helvetica,sans-Serif" font-size="10.00">::sendTimes</text>
</a>
</g>
</g>
<!-- Node10&#45;&gt;Node12 -->
<g id="edge13_Node000010_Node000012" class="edge">
<title>Node10&#45;&gt;Node12</title>
<g id="a_edge13_Node000010_Node000012"><a xlink:title=" ">
<path fill="none" stroke="#63b8ff" d="M310.2,-128.8C329.01,-125.91 349.78,-122.73 369.18,-119.75"/>
<polygon fill="#63b8ff" stroke="#63b8ff" points="369.83,-123.19 379.18,-118.22 368.76,-116.27 369.83,-123.19"/>
</a>
</g>
</g>
<!-- Node13 -->
<g id="Node000013" class="node">
<title>Node13</title>
<g id="a_Node000013"><a xlink:href="classprecice_1_1com_1_1serialize_1_1SerializedStamples.html#acefbea8c1c6ff8ca9f647ebf37348513" target="_top" xlink:title="Serializes a given CouplingData into SerializedStamples.">
<polygon fill="white" stroke="#666666" points="506.5,-70 380.5,-70 380.5,-29 506.5,-29 506.5,-70"/>
<text text-anchor="start" x="388.5" y="-58" font-family="Helvetica,sans-Serif" font-size="10.00">precice::com::serialize</text>
<text text-anchor="start" x="388.5" y="-47" font-family="Helvetica,sans-Serif" font-size="10.00">::SerializedStamples::</text>
<text text-anchor="middle" x="443.5" y="-36" font-family="Helvetica,sans-Serif" font-size="10.00">serialize</text>
</a>
</g>
</g>
<!-- Node10&#45;&gt;Node13 -->
<g id="edge14_Node000010_Node000013" class="edge">
<title>Node10&#45;&gt;Node13</title>
<g id="a_edge14_Node000010_Node000013"><a xlink:title=" ">
<path fill="none" stroke="#63b8ff" d="M283.77,-117.95C306.29,-105.75 335.91,-90.39 363,-78.5 366.61,-76.92 370.33,-75.35 374.1,-73.81"/>
<polygon fill="#63b8ff" stroke="#63b8ff" points="375.56,-77 383.55,-70.04 372.97,-70.49 375.56,-77"/>
</a>
</g>
</g>
<!-- Node13&#45;&gt;Node6 -->
<g id="edge15_Node000013_Node000006" class="edge">
<title>Node13&#45;&gt;Node6</title>
<g id="a_edge15_Node000013_Node000006"><a xlink:title=" ">
<path fill="none" stroke="#63b8ff" d="M506.58,-66.8C512.86,-70.07 518.82,-73.94 524,-78.5 573.42,-122.04 601.42,-196.52 613.94,-238.12"/>
<polygon fill="#63b8ff" stroke="#63b8ff" points="610.65,-239.32 616.8,-247.95 617.37,-237.37 610.65,-239.32"/>
</a>
</g>
</g>
<!-- Node14 -->
<g id="Node000014" class="node">
<title>Node14</title>
<g id="a_Node000014"><a xlink:href="classprecice_1_1com_1_1serialize_1_1SerializedStamples.html#aa94dbbe6f68c1dc4f14fb132df8ab796" target="_top" xlink:title="Serialize gradients from timeStepsStorage of data into _gradients.">
<polygon fill="white" stroke="#666666" points="686,-100 560,-100 560,-59 686,-59 686,-100"/>
<text text-anchor="start" x="568" y="-88" font-family="Helvetica,sans-Serif" font-size="10.00">precice::com::serialize</text>
<text text-anchor="start" x="568" y="-77" font-family="Helvetica,sans-Serif" font-size="10.00">::SerializedStamples::</text>
<text text-anchor="middle" x="623" y="-66" font-family="Helvetica,sans-Serif" font-size="10.00">serializeGradients</text>
</a>
</g>
</g>
<!-- Node13&#45;&gt;Node14 -->
<g id="edge16_Node000013_Node000014" class="edge">
<title>Node13&#45;&gt;Node14</title>
<g id="a_edge16_Node000013_Node000014"><a xlink:title=" ">
<path fill="none" stroke="#63b8ff" d="M506.58,-59.99C520.63,-62.37 535.67,-64.91 550.09,-67.35"/>
<polygon fill="#63b8ff" stroke="#63b8ff" points="549.51,-70.8 559.95,-69.01 550.68,-63.9 549.51,-70.8"/>
</a>
</g>
</g>
<!-- Node15 -->
<g id="Node000015" class="node">
<title>Node15</title>
<g id="a_Node000015"><a xlink:href="classprecice_1_1com_1_1serialize_1_1SerializedStamples.html#a51596e529ca6050a18852bf5172df2e6" target="_top" xlink:title="Serialize values from timeStepsStorage of data into _values.">
<polygon fill="white" stroke="#666666" points="686,-41 560,-41 560,0 686,0 686,-41"/>
<text text-anchor="start" x="568" y="-29" font-family="Helvetica,sans-Serif" font-size="10.00">precice::com::serialize</text>
<text text-anchor="start" x="568" y="-18" font-family="Helvetica,sans-Serif" font-size="10.00">::SerializedStamples::</text>
<text text-anchor="middle" x="623" y="-7" font-family="Helvetica,sans-Serif" font-size="10.00">serializeValues</text>
</a>
</g>
</g>
<!-- Node13&#45;&gt;Node15 -->
<g id="edge17_Node000013_Node000015" class="edge">
<title>Node13&#45;&gt;Node15</title>
<g id="a_edge17_Node000013_Node000015"><a xlink:title=" ">
<path fill="none" stroke="#63b8ff" d="M506.58,-39.36C520.5,-37.08 535.38,-34.65 549.67,-32.32"/>
<polygon fill="#63b8ff" stroke="#63b8ff" points="550.65,-35.7 559.95,-30.64 549.52,-28.8 550.65,-35.7"/>
</a>
</g>
</g>
</g>
</svg>
