<?xml version="1.0" encoding="UTF-8" standalone="no"?>
<!DOCTYPE svg PUBLIC "-//W3C//DTD SVG 1.1//EN"
 "http://www.w3.org/Graphics/SVG/1.1/DTD/svg11.dtd">
<!-- Generated by graphviz version 2.43.0 (0)
 -->
<!-- Title: precice::impl::ParticipantImpl::setMeshVertices Pages: 1 -->
<svg width="471pt" height="354pt"
 viewBox="0.00 0.00 471.00 354.00" xmlns="http://www.w3.org/2000/svg" xmlns:xlink="http://www.w3.org/1999/xlink">
<g id="graph0" class="graph" transform="scale(1 1) rotate(0) translate(4 350)">
<title>precice::impl::ParticipantImpl::setMeshVertices</title>
<!-- Node1 -->
<g id="Node000001" class="node">
<title>Node1</title>
<g id="a_Node000001"><a xlink:title="Creates multiple mesh vertices.">
<polygon fill="#999999" stroke="#666666" points="137,-188 0,-188 0,-158 137,-158 137,-188"/>
<text text-anchor="start" x="8" y="-176" font-family="Helvetica,sans-Serif" font-size="10.00">precice::impl::Participant</text>
<text text-anchor="middle" x="68.5" y="-165" font-family="Helvetica,sans-Serif" font-size="10.00">Impl::setMeshVertices</text>
</a>
</g>
</g>
<!-- Node2 -->
<g id="Node000002" class="node">
<title>Node2</title>
<g id="a_Node000002"><a xlink:href="classprecice_1_1mesh_1_1Mesh.html#afa920f8d8d32076837ae5e3dc28b0eea" target="_top" xlink:title="Allocates memory for the vertex data values and corresponding gradient values.">
<polygon fill="white" stroke="#666666" points="300,-346 183,-346 183,-316 300,-316 300,-346"/>
<text text-anchor="start" x="191" y="-334" font-family="Helvetica,sans-Serif" font-size="10.00">precice::mesh::Mesh</text>
<text text-anchor="middle" x="241.5" y="-323" font-family="Helvetica,sans-Serif" font-size="10.00">::allocateDataValues</text>
</a>
</g>
</g>
<!-- Node1&#45;&gt;Node2 -->
<g id="edge1_Node000001_Node000002" class="edge">
<title>Node1&#45;&gt;Node2</title>
<g id="a_edge1_Node000001_Node000002"><a xlink:title=" ">
<path fill="none" stroke="#63b8ff" d="M77.34,-188.16C92.3,-215.67 127.55,-274.04 173,-307 175.07,-308.5 177.24,-309.92 179.49,-311.25"/>
<polygon fill="#63b8ff" stroke="#63b8ff" points="177.98,-314.41 188.45,-315.99 181.25,-308.22 177.98,-314.41"/>
</a>
</g>
</g>
<!-- Node4 -->
<g id="Node000004" class="node">
<title>Node4</title>
<g id="a_Node000004"><a xlink:href="classprecice_1_1mesh_1_1Mesh.html#af6e6d684553dc5d0f0a23cacb77b3fc7" target="_top" xlink:title="Creates and initializes a Vertex object.">
<polygon fill="white" stroke="#666666" points="300,-298 183,-298 183,-268 300,-268 300,-298"/>
<text text-anchor="start" x="191" y="-286" font-family="Helvetica,sans-Serif" font-size="10.00">precice::mesh::Mesh</text>
<text text-anchor="middle" x="241.5" y="-275" font-family="Helvetica,sans-Serif" font-size="10.00">::createVertex</text>
</a>
</g>
</g>
<!-- Node1&#45;&gt;Node4 -->
<g id="edge3_Node000001_Node000004" class="edge">
<title>Node1&#45;&gt;Node4</title>
<g id="a_edge3_Node000001_Node000004"><a xlink:title=" ">
<path fill="none" stroke="#63b8ff" d="M84.34,-188.28C103.36,-207.13 138.08,-239.12 173,-259 176.01,-260.71 179.16,-262.34 182.39,-263.87"/>
<polygon fill="#63b8ff" stroke="#63b8ff" points="181.08,-267.12 191.65,-267.96 183.91,-260.72 181.08,-267.12"/>
</a>
</g>
</g>
<!-- Node5 -->
<g id="Node000005" class="node">
<title>Node5</title>
<g id="a_Node000005"><a xlink:href="classprecice_1_1span.html#a38fb4273ab189e44dfb475c17e063a9a" target="_top" xlink:title=" ">
<polygon fill="white" stroke="#666666" points="296,-249.5 187,-249.5 187,-230.5 296,-230.5 296,-249.5"/>
<text text-anchor="middle" x="241.5" y="-237.5" font-family="Helvetica,sans-Serif" font-size="10.00">precice::span::data</text>
</a>
</g>
</g>
<!-- Node1&#45;&gt;Node5 -->
<g id="edge4_Node000001_Node000005" class="edge">
<title>Node1&#45;&gt;Node5</title>
<g id="a_edge4_Node000001_Node000005"><a xlink:title=" ">
<path fill="none" stroke="#63b8ff" d="M98.86,-188.15C119.29,-198.31 147.36,-211.52 173,-221 179.37,-223.36 186.16,-225.59 192.9,-227.63"/>
<polygon fill="#63b8ff" stroke="#63b8ff" points="192.09,-231.04 202.67,-230.5 194.06,-224.33 192.09,-231.04"/>
</a>
</g>
</g>
<!-- Node6 -->
<g id="Node000006" class="node">
<title>Node6</title>
<g id="a_Node000006"><a xlink:href="classprecice_1_1mesh_1_1Mesh.html#a136f6b4ce235025e418fab0ca5f350ff" target="_top" xlink:title=" ">
<polygon fill="white" stroke="#666666" points="300,-212 183,-212 183,-182 300,-182 300,-212"/>
<text text-anchor="start" x="191" y="-200" font-family="Helvetica,sans-Serif" font-size="10.00">precice::mesh::Mesh</text>
<text text-anchor="middle" x="241.5" y="-189" font-family="Helvetica,sans-Serif" font-size="10.00">::getDimensions</text>
</a>
</g>
</g>
<!-- Node1&#45;&gt;Node6 -->
<g id="edge5_Node000001_Node000006" class="edge">
<title>Node1&#45;&gt;Node6</title>
<g id="a_edge5_Node000001_Node000006"><a xlink:title=" ">
<path fill="none" stroke="#63b8ff" d="M137.08,-182.49C148.78,-184.13 160.95,-185.83 172.65,-187.48"/>
<polygon fill="#63b8ff" stroke="#63b8ff" points="172.4,-190.98 182.79,-188.9 173.38,-184.04 172.4,-190.98"/>
</a>
</g>
</g>
<!-- Node7 -->
<g id="Node000007" class="node">
<title>Node7</title>
<g id="a_Node000007"><a xlink:href="classprecice_1_1mesh_1_1Mesh.html#a3185fe962ba3e8fe0b3cf451681e6a48" target="_top" xlink:title="Returns the name of the mesh, as set in the config file.">
<polygon fill="white" stroke="#666666" points="300,-164 183,-164 183,-134 300,-134 300,-164"/>
<text text-anchor="start" x="191" y="-152" font-family="Helvetica,sans-Serif" font-size="10.00">precice::mesh::Mesh</text>
<text text-anchor="middle" x="241.5" y="-141" font-family="Helvetica,sans-Serif" font-size="10.00">::getName</text>
</a>
</g>
</g>
<!-- Node1&#45;&gt;Node7 -->
<g id="edge6_Node000001_Node000007" class="edge">
<title>Node1&#45;&gt;Node7</title>
<g id="a_edge6_Node000001_Node000007"><a xlink:title=" ">
<path fill="none" stroke="#63b8ff" d="M137.08,-163.51C148.78,-161.87 160.95,-160.17 172.65,-158.52"/>
<polygon fill="#63b8ff" stroke="#63b8ff" points="173.38,-161.96 182.79,-157.1 172.4,-155.02 173.38,-161.96"/>
</a>
</g>
</g>
<!-- Node8 -->
<g id="Node000008" class="node">
<title>Node8</title>
<g id="a_Node000008"><a xlink:href="classprecice_1_1impl_1_1ParticipantImpl.html#ada2527840695cfb6486a76a0938b6b82" target="_top" xlink:title="Allows to access a registered mesh.">
<polygon fill="white" stroke="#666666" points="310,-116 173,-116 173,-86 310,-86 310,-116"/>
<text text-anchor="start" x="181" y="-104" font-family="Helvetica,sans-Serif" font-size="10.00">precice::impl::Participant</text>
<text text-anchor="middle" x="241.5" y="-93" font-family="Helvetica,sans-Serif" font-size="10.00">Impl::mesh</text>
</a>
</g>
</g>
<!-- Node1&#45;&gt;Node8 -->
<g id="edge7_Node000001_Node000008" class="edge">
<title>Node1&#45;&gt;Node8</title>
<g id="a_edge7_Node000001_Node000008"><a xlink:title=" ">
<path fill="none" stroke="#63b8ff" d="M99.97,-157.96C120.41,-148.1 148.06,-135.19 173,-125 177.44,-123.18 182.08,-121.37 186.75,-119.6"/>
<polygon fill="#63b8ff" stroke="#63b8ff" points="188.19,-122.8 196.34,-116.04 185.75,-116.24 188.19,-122.8"/>
</a>
</g>
</g>
<!-- Node9 -->
<g id="Node000009" class="node">
<title>Node9</title>
<g id="a_Node000009"><a xlink:href="classprecice_1_1span.html#ae91f5ed50b6cbf0d15382b8e3c2a9a04" target="_top" xlink:title=" ">
<polygon fill="white" stroke="#666666" points="295,-67.5 188,-67.5 188,-48.5 295,-48.5 295,-67.5"/>
<text text-anchor="middle" x="241.5" y="-55.5" font-family="Helvetica,sans-Serif" font-size="10.00">precice::span::size</text>
</a>
</g>
</g>
<!-- Node1&#45;&gt;Node9 -->
<g id="edge8_Node000001_Node000009" class="edge">
<title>Node1&#45;&gt;Node9</title>
<g id="a_edge8_Node000001_Node000009"><a xlink:title=" ">
<path fill="none" stroke="#63b8ff" d="M81.57,-157.99C99.38,-136.84 134.74,-98.46 173,-77 176.93,-74.8 181.13,-72.83 185.45,-71.09"/>
<polygon fill="#63b8ff" stroke="#63b8ff" points="186.82,-74.31 195.01,-67.6 184.42,-67.74 186.82,-74.31"/>
</a>
</g>
</g>
<!-- Node10 -->
<g id="Node000010" class="node">
<title>Node10</title>
<g id="a_Node000010"><a xlink:href="classprecice_1_1mesh_1_1Mesh.html#a13faa9b03e5d20918ed6528db1415fa3" target="_top" xlink:title="Returns modifieable container holding all vertices.">
<polygon fill="white" stroke="#666666" points="300,-30 183,-30 183,0 300,0 300,-30"/>
<text text-anchor="start" x="191" y="-18" font-family="Helvetica,sans-Serif" font-size="10.00">precice::mesh::Mesh</text>
<text text-anchor="middle" x="241.5" y="-7" font-family="Helvetica,sans-Serif" font-size="10.00">::vertices</text>
</a>
</g>
</g>
<!-- Node1&#45;&gt;Node10 -->
<g id="edge9_Node000001_Node000010" class="edge">
<title>Node1&#45;&gt;Node10</title>
<g id="a_edge9_Node000001_Node000010"><a xlink:title=" ">
<path fill="none" stroke="#63b8ff" d="M77.65,-157.59C92.86,-130.2 128.15,-72.85 173,-40 175.62,-38.08 178.41,-36.29 181.3,-34.63"/>
<polygon fill="#63b8ff" stroke="#63b8ff" points="182.94,-37.72 190.21,-30.01 179.72,-31.5 182.94,-37.72"/>
</a>
</g>
</g>
<!-- Node3 -->
<g id="Node000003" class="node">
<title>Node3</title>
<g id="a_Node000003"><a xlink:href="classprecice_1_1mesh_1_1Mesh.html#aceb3eabb4f8e40a44d5d1c2822ba7b56" target="_top" xlink:title="Allows access to all data.">
<polygon fill="white" stroke="#666666" points="463,-346 346,-346 346,-316 463,-316 463,-346"/>
<text text-anchor="start" x="354" y="-334" font-family="Helvetica,sans-Serif" font-size="10.00">precice::mesh::Mesh</text>
<text text-anchor="middle" x="404.5" y="-323" font-family="Helvetica,sans-Serif" font-size="10.00">::data</text>
</a>
</g>
</g>
<!-- Node2&#45;&gt;Node3 -->
<g id="edge2_Node000002_Node000003" class="edge">
<title>Node2&#45;&gt;Node3</title>
<g id="a_edge2_Node000002_Node000003"><a xlink:title=" ">
<path fill="none" stroke="#63b8ff" d="M300.17,-331C311.68,-331 323.88,-331 335.7,-331"/>
<polygon fill="#63b8ff" stroke="#63b8ff" points="335.96,-334.5 345.96,-331 335.96,-327.5 335.96,-334.5"/>
</a>
</g>
</g>
</g>
</svg>
