<?xml version="1.0" encoding="UTF-8" standalone="no"?>
<!DOCTYPE svg PUBLIC "-//W3C//DTD SVG 1.1//EN"
 "http://www.w3.org/Graphics/SVG/1.1/DTD/svg11.dtd">
<!-- Generated by graphviz version 2.43.0 (0)
 -->
<!-- Title: precice::io::ExportConfiguration Pages: 1 -->
<svg width="1095pt" height="277pt"
 viewBox="0.00 0.00 1095.00 277.15" xmlns="http://www.w3.org/2000/svg" xmlns:xlink="http://www.w3.org/1999/xlink">
<g id="graph0" class="graph" transform="scale(1 1) rotate(0) translate(4 273.15)">
<title>precice::io::ExportConfiguration</title>
<polygon fill="white" stroke="transparent" points="-4,4 -4,-273.15 1091,-273.15 1091,4 -4,4"/>
<!-- Node1 -->
<g id="node1" class="node">
<title>Node1</title>
<g id="a_node1"><a xlink:title="Configuration class for exports.">
<polygon fill="#bfbfbf" stroke="black" points="917,-180.15 917,-199.15 1087,-199.15 1087,-180.15 917,-180.15"/>
<text text-anchor="middle" x="1002" y="-187.15" font-family="Helvetica,sans-Serif" font-size="10.00">precice::io::ExportConfiguration</text>
</a>
</g>
</g>
<!-- Node2 -->
<g id="node2" class="node">
<title>Node2</title>
<g id="a_node2"><a xlink:href="structprecice_1_1xml_1_1XMLTag_1_1Listener.html" target="_top" xlink:title="Callback interface for configuration classes using XMLTag.">
<polygon fill="white" stroke="black" points="704,-238.65 704,-268.65 823,-268.65 823,-238.65 704,-238.65"/>
<text text-anchor="start" x="712" y="-256.65" font-family="Helvetica,sans-Serif" font-size="10.00">precice::xml::XMLTag</text>
<text text-anchor="middle" x="763.5" y="-245.65" font-family="Helvetica,sans-Serif" font-size="10.00">::Listener</text>
</a>
</g>
</g>
<!-- Node2&#45;&gt;Node1 -->
<g id="edge1" class="edge">
<title>Node2&#45;&gt;Node1</title>
<path fill="none" stroke="midnightblue" d="M829.69,-236C873.63,-224.11 929.9,-208.89 965.71,-199.2"/>
<polygon fill="midnightblue" stroke="midnightblue" points="828.69,-232.65 819.95,-238.64 830.52,-239.41 828.69,-232.65"/>
</g>
<!-- Node3 -->
<g id="node3" class="node">
<title>Node3</title>
<g id="a_node3"><a xlink:href="classprecice_1_1logging_1_1Logger.html" target="_top" xlink:title="This class provides a lightweight logger.">
<polygon fill="white" stroke="black" points="697,-200.15 697,-219.15 830,-219.15 830,-200.15 697,-200.15"/>
<text text-anchor="middle" x="763.5" y="-207.15" font-family="Helvetica,sans-Serif" font-size="10.00">precice::logging::Logger</text>
</a>
</g>
</g>
<!-- Node3&#45;&gt;Node1 -->
<g id="edge2" class="edge">
<title>Node3&#45;&gt;Node1</title>
<path fill="none" stroke="#9a32cd" stroke-dasharray="5,2" d="M840.31,-203.24C864.65,-201.18 891.75,-198.89 916.65,-196.78"/>
<polygon fill="#9a32cd" stroke="#9a32cd" points="839.73,-199.77 830.06,-204.1 840.32,-206.75 839.73,-199.77"/>
<text text-anchor="middle" x="873.5" y="-204.65" font-family="Helvetica,sans-Serif" font-size="10.00"> _log</text>
</g>
<!-- Node4 -->
<g id="node4" class="node">
<title>Node4</title>
<g id="a_node4"><a xlink:title=" ">
<polygon fill="white" stroke="#bfbfbf" points="399,-194.65 399,-224.65 569,-224.65 569,-194.65 399,-194.65"/>
<text text-anchor="start" x="407" y="-212.65" font-family="Helvetica,sans-Serif" font-size="10.00">std::unique_ptr&lt; precice</text>
<text text-anchor="middle" x="484" y="-201.65" font-family="Helvetica,sans-Serif" font-size="10.00">::logging::Logger::LoggerImpl &gt;</text>
</a>
</g>
</g>
<!-- Node4&#45;&gt;Node3 -->
<g id="edge3" class="edge">
<title>Node4&#45;&gt;Node3</title>
<path fill="none" stroke="#9a32cd" stroke-dasharray="5,2" d="M579.24,-209.65C617.91,-209.65 661.74,-209.65 696.83,-209.65"/>
<polygon fill="#9a32cd" stroke="#9a32cd" points="579.01,-206.15 569.01,-209.65 579.01,-213.15 579.01,-206.15"/>
<text text-anchor="middle" x="633" y="-212.65" font-family="Helvetica,sans-Serif" font-size="10.00"> _impl</text>
</g>
<!-- Node5 -->
<g id="node5" class="node">
<title>Node5</title>
<g id="a_node5"><a xlink:href="classprecice_1_1logging_1_1Logger_1_1LoggerImpl.html" target="_top" xlink:title=" ">
<polygon fill="white" stroke="black" points="180,-194.65 180,-224.65 313,-224.65 313,-194.65 180,-194.65"/>
<text text-anchor="start" x="188" y="-212.65" font-family="Helvetica,sans-Serif" font-size="10.00">precice::logging::Logger</text>
<text text-anchor="middle" x="246.5" y="-201.65" font-family="Helvetica,sans-Serif" font-size="10.00">::LoggerImpl</text>
</a>
</g>
</g>
<!-- Node5&#45;&gt;Node4 -->
<g id="edge4" class="edge">
<title>Node5&#45;&gt;Node4</title>
<path fill="none" stroke="#9a32cd" stroke-dasharray="5,2" d="M323.25,-209.65C347.34,-209.65 374.13,-209.65 398.78,-209.65"/>
<polygon fill="#9a32cd" stroke="#9a32cd" points="323.1,-206.15 313.1,-209.65 323.1,-213.15 323.1,-206.15"/>
<text text-anchor="middle" x="358.5" y="-212.65" font-family="Helvetica,sans-Serif" font-size="10.00"> ptr</text>
</g>
<!-- Node6 -->
<g id="node6" class="node">
<title>Node6</title>
<g id="a_node6"><a xlink:title=" ">
<polygon fill="white" stroke="#bfbfbf" points="0,-194.65 0,-224.65 122,-224.65 122,-194.65 0,-194.65"/>
<text text-anchor="start" x="8" y="-212.65" font-family="Helvetica,sans-Serif" font-size="10.00">BoostLogger&lt; Logger</text>
<text text-anchor="middle" x="61" y="-201.65" font-family="Helvetica,sans-Serif" font-size="10.00">::LoggerImpl &gt;</text>
</a>
</g>
</g>
<!-- Node6&#45;&gt;Node5 -->
<g id="edge5" class="edge">
<title>Node6&#45;&gt;Node5</title>
<path fill="none" stroke="midnightblue" d="M132.23,-209.65C147.89,-209.65 164.43,-209.65 179.9,-209.65"/>
<polygon fill="midnightblue" stroke="midnightblue" points="132.08,-206.15 122.08,-209.65 132.08,-213.15 132.08,-206.15"/>
</g>
<!-- Node7 -->
<g id="node7" class="node">
<title>Node7</title>
<g id="a_node7"><a xlink:title="STL class.">
<polygon fill="white" stroke="#bfbfbf" points="214,-22.15 214,-41.15 279,-41.15 279,-22.15 214,-22.15"/>
<text text-anchor="middle" x="246.5" y="-29.15" font-family="Helvetica,sans-Serif" font-size="10.00">std::string</text>
</a>
</g>
</g>
<!-- Node7&#45;&gt;Node1 -->
<g id="edge6" class="edge">
<title>Node7&#45;&gt;Node1</title>
<path fill="none" stroke="#9a32cd" stroke-dasharray="5,2" d="M289.18,-22.82C367.12,-7.95 539.66,17.24 679,-17.65 810.57,-50.58 947.18,-148.65 988.47,-179.94"/>
<polygon fill="#9a32cd" stroke="#9a32cd" points="288.41,-19.41 279.26,-24.76 289.75,-26.28 288.41,-19.41"/>
<text text-anchor="middle" x="633" y="-141.65" font-family="Helvetica,sans-Serif" font-size="10.00"> ATTR_NEIGHBORS</text>
<text text-anchor="middle" x="633" y="-130.65" font-family="Helvetica,sans-Serif" font-size="10.00">VALUE_VTK</text>
<text text-anchor="middle" x="633" y="-119.65" font-family="Helvetica,sans-Serif" font-size="10.00">VALUE_VTP</text>
<text text-anchor="middle" x="633" y="-108.65" font-family="Helvetica,sans-Serif" font-size="10.00">TAG</text>
<text text-anchor="middle" x="633" y="-97.65" font-family="Helvetica,sans-Serif" font-size="10.00">ATTR_LOCATION</text>
<text text-anchor="middle" x="633" y="-86.65" font-family="Helvetica,sans-Serif" font-size="10.00">VALUE_CSV</text>
<text text-anchor="start" x="587" y="-75.65" font-family="Helvetica,sans-Serif" font-size="10.00">ATTR_EVERY_N</text>
<text text-anchor="middle" x="633" y="-64.65" font-family="Helvetica,sans-Serif" font-size="10.00">_TIME_WINDOWS</text>
<text text-anchor="middle" x="633" y="-53.65" font-family="Helvetica,sans-Serif" font-size="10.00">ATTR_TYPE</text>
<text text-anchor="middle" x="633" y="-42.65" font-family="Helvetica,sans-Serif" font-size="10.00">VALUE_VTU</text>
<text text-anchor="middle" x="633" y="-31.65" font-family="Helvetica,sans-Serif" font-size="10.00">ATTR_AUTO</text>
<text text-anchor="middle" x="633" y="-20.65" font-family="Helvetica,sans-Serif" font-size="10.00">...</text>
</g>
<!-- Node10 -->
<g id="node10" class="node">
<title>Node10</title>
<g id="a_node10"><a xlink:href="structprecice_1_1io_1_1ExportContext.html" target="_top" xlink:title=" ">
<polygon fill="white" stroke="black" points="412.5,-138.15 412.5,-157.15 555.5,-157.15 555.5,-138.15 412.5,-138.15"/>
<text text-anchor="middle" x="484" y="-145.15" font-family="Helvetica,sans-Serif" font-size="10.00">precice::io::ExportContext</text>
</a>
</g>
</g>
<!-- Node7&#45;&gt;Node10 -->
<g id="edge12" class="edge">
<title>Node7&#45;&gt;Node10</title>
<path fill="none" stroke="#9a32cd" stroke-dasharray="5,2" d="M276.22,-45.79C324.83,-69.74 422.08,-117.64 463.55,-138.06"/>
<polygon fill="#9a32cd" stroke="#9a32cd" points="277.69,-42.62 267.17,-41.34 274.6,-48.9 277.69,-42.62"/>
<text text-anchor="middle" x="358.5" y="-109.65" font-family="Helvetica,sans-Serif" font-size="10.00"> type</text>
<text text-anchor="middle" x="358.5" y="-98.65" font-family="Helvetica,sans-Serif" font-size="10.00">location</text>
</g>
<!-- Node8 -->
<g id="node8" class="node">
<title>Node8</title>
<g id="a_node8"><a xlink:title="STL class.">
<polygon fill="white" stroke="#bfbfbf" points="9,-16.65 9,-46.65 113,-46.65 113,-16.65 9,-16.65"/>
<text text-anchor="start" x="17" y="-34.65" font-family="Helvetica,sans-Serif" font-size="10.00">std::basic_string&lt;</text>
<text text-anchor="middle" x="61" y="-23.65" font-family="Helvetica,sans-Serif" font-size="10.00"> char &gt;</text>
</a>
</g>
</g>
<!-- Node8&#45;&gt;Node7 -->
<g id="edge7" class="edge">
<title>Node8&#45;&gt;Node7</title>
<path fill="none" stroke="midnightblue" d="M123.21,-31.65C153.61,-31.65 189.06,-31.65 213.94,-31.65"/>
<polygon fill="midnightblue" stroke="midnightblue" points="123.12,-28.15 113.11,-31.65 123.11,-35.15 123.12,-28.15"/>
</g>
<!-- Node9 -->
<g id="node9" class="node">
<title>Node9</title>
<g id="a_node9"><a xlink:title=" ">
<polygon fill="white" stroke="#bfbfbf" points="704,-150.65 704,-180.65 823,-180.65 823,-150.65 704,-150.65"/>
<text text-anchor="start" x="712" y="-168.65" font-family="Helvetica,sans-Serif" font-size="10.00">std::list&lt; precice</text>
<text text-anchor="middle" x="763.5" y="-157.65" font-family="Helvetica,sans-Serif" font-size="10.00">::io::ExportContext &gt;</text>
</a>
</g>
</g>
<!-- Node9&#45;&gt;Node1 -->
<g id="edge8" class="edge">
<title>Node9&#45;&gt;Node1</title>
<path fill="none" stroke="#9a32cd" stroke-dasharray="5,2" d="M833.41,-172.64C859.43,-175.28 889.34,-178.32 916.63,-181.08"/>
<polygon fill="#9a32cd" stroke="#9a32cd" points="833.57,-169.14 823.26,-171.61 832.86,-176.1 833.57,-169.14"/>
<text text-anchor="middle" x="873.5" y="-181.65" font-family="Helvetica,sans-Serif" font-size="10.00"> _contexts</text>
</g>
<!-- Node10&#45;&gt;Node9 -->
<g id="edge9" class="edge">
<title>Node10&#45;&gt;Node9</title>
<path fill="none" stroke="#9a32cd" stroke-dasharray="5,2" d="M565.86,-152.89C609.94,-155.75 663.51,-159.23 703.6,-161.83"/>
<polygon fill="#9a32cd" stroke="#9a32cd" points="565.95,-149.39 555.74,-152.24 565.5,-156.38 565.95,-149.39"/>
<text text-anchor="middle" x="633" y="-162.65" font-family="Helvetica,sans-Serif" font-size="10.00"> elements</text>
</g>
<!-- Node11 -->
<g id="node11" class="node">
<title>Node11</title>
<g id="a_node11"><a xlink:title=" ">
<polygon fill="white" stroke="#bfbfbf" points="175,-138.15 175,-157.15 318,-157.15 318,-138.15 175,-138.15"/>
<text text-anchor="middle" x="246.5" y="-145.15" font-family="Helvetica,sans-Serif" font-size="10.00">std::shared_ptr&lt; Export &gt;</text>
</a>
</g>
</g>
<!-- Node11&#45;&gt;Node10 -->
<g id="edge10" class="edge">
<title>Node11&#45;&gt;Node10</title>
<path fill="none" stroke="#9a32cd" stroke-dasharray="5,2" d="M328.46,-147.65C355.75,-147.65 385.97,-147.65 412.39,-147.65"/>
<polygon fill="#9a32cd" stroke="#9a32cd" points="328.16,-144.15 318.16,-147.65 328.16,-151.15 328.16,-144.15"/>
<text text-anchor="middle" x="358.5" y="-150.65" font-family="Helvetica,sans-Serif" font-size="10.00"> exporter</text>
</g>
<!-- Node12 -->
<g id="node12" class="node">
<title>Node12</title>
<g id="a_node12"><a xlink:href="classprecice_1_1io_1_1Export.html" target="_top" xlink:title="Abstract base class of all classes exporting container data structures.">
<polygon fill="white" stroke="black" points="9,-138.15 9,-157.15 113,-157.15 113,-138.15 9,-138.15"/>
<text text-anchor="middle" x="61" y="-145.15" font-family="Helvetica,sans-Serif" font-size="10.00">precice::io::Export</text>
</a>
</g>
</g>
<!-- Node12&#45;&gt;Node11 -->
<g id="edge11" class="edge">
<title>Node12&#45;&gt;Node11</title>
<path fill="none" stroke="#9a32cd" stroke-dasharray="5,2" d="M123.2,-147.65C139.73,-147.65 157.76,-147.65 174.78,-147.65"/>
<polygon fill="#9a32cd" stroke="#9a32cd" points="123.12,-144.15 113.11,-147.65 123.11,-151.15 123.12,-144.15"/>
<text text-anchor="middle" x="148.5" y="-150.65" font-family="Helvetica,sans-Serif" font-size="10.00"> ptr</text>
</g>
</g>
</svg>
