<?xml version="1.0" encoding="UTF-8" standalone="no"?>
<!DOCTYPE svg PUBLIC "-//W3C//DTD SVG 1.1//EN"
 "http://www.w3.org/Graphics/SVG/1.1/DTD/svg11.dtd">
<!-- Generated by graphviz version 2.43.0 (0)
 -->
<!-- Title: precice::cplscheme::MultiCouplingScheme::exchangeInitialData Pages: 1 -->
<svg width="858pt" height="459pt"
 viewBox="0.00 0.00 858.00 459.00" xmlns="http://www.w3.org/2000/svg" xmlns:xlink="http://www.w3.org/1999/xlink">
<g id="graph0" class="graph" transform="scale(1 1) rotate(0) translate(4 455)">
<title>precice::cplscheme::MultiCouplingScheme::exchangeInitialData</title>
<!-- Node1 -->
<g id="Node000001" class="node">
<title>Node1</title>
<g id="a_Node000001"><a xlink:title="implements functionality for initialize in base class.">
<polygon fill="#999999" stroke="#666666" points="129,-256 0,-256 0,-215 129,-215 129,-256"/>
<text text-anchor="start" x="8" y="-244" font-family="Helvetica,sans-Serif" font-size="10.00">precice::cplscheme</text>
<text text-anchor="start" x="8" y="-233" font-family="Helvetica,sans-Serif" font-size="10.00">::MultiCouplingScheme</text>
<text text-anchor="middle" x="64.5" y="-222" font-family="Helvetica,sans-Serif" font-size="10.00">::exchangeInitialData</text>
</a>
</g>
</g>
<!-- Node2 -->
<g id="Node000002" class="node">
<title>Node2</title>
<g id="a_Node000002"><a xlink:href="classprecice_1_1cplscheme_1_1BaseCouplingScheme.html#a0b8be6a29082c8115db22aad3e0aa624" target="_top" xlink:title="Initializes storage in receiveData as zero.">
<polygon fill="white" stroke="#666666" points="326.5,-413 165.5,-413 165.5,-372 326.5,-372 326.5,-413"/>
<text text-anchor="start" x="173.5" y="-401" font-family="Helvetica,sans-Serif" font-size="10.00">precice::cplscheme</text>
<text text-anchor="start" x="173.5" y="-390" font-family="Helvetica,sans-Serif" font-size="10.00">::BaseCouplingScheme</text>
<text text-anchor="middle" x="246" y="-379" font-family="Helvetica,sans-Serif" font-size="10.00">::initializeWithZeroInitialData</text>
</a>
</g>
</g>
<!-- Node1&#45;&gt;Node2 -->
<g id="edge1_Node000001_Node000002" class="edge">
<title>Node1&#45;&gt;Node2</title>
<g id="a_edge1_Node000001_Node000002"><a xlink:title=" ">
<path fill="none" stroke="#63b8ff" d="M77.93,-256.18C94.77,-282.71 127.13,-328.74 165,-357.5 169.45,-360.88 174.28,-364.01 179.29,-366.9"/>
<polygon fill="#63b8ff" stroke="#63b8ff" points="177.98,-370.17 188.44,-371.83 181.3,-364.01 177.98,-370.17"/>
</a>
</g>
</g>
<!-- Node4 -->
<g id="Node000004" class="node">
<title>Node4</title>
<g id="a_Node000004"><a xlink:href="classprecice_1_1cplscheme_1_1BaseCouplingScheme.html#af690c8d4e0f11e52fc7b9ca1fe098229" target="_top" xlink:title="Receives data receiveDataIDs given in mapCouplingData with communication.">
<polygon fill="white" stroke="#666666" points="491,-364 363,-364 363,-323 491,-323 491,-364"/>
<text text-anchor="start" x="371" y="-352" font-family="Helvetica,sans-Serif" font-size="10.00">precice::cplscheme</text>
<text text-anchor="start" x="371" y="-341" font-family="Helvetica,sans-Serif" font-size="10.00">::BaseCouplingScheme</text>
<text text-anchor="middle" x="427" y="-330" font-family="Helvetica,sans-Serif" font-size="10.00">::receiveData</text>
</a>
</g>
</g>
<!-- Node1&#45;&gt;Node4 -->
<g id="edge13_Node000001_Node000004" class="edge">
<title>Node1&#45;&gt;Node4</title>
<g id="a_edge13_Node000001_Node000004"><a xlink:title=" ">
<path fill="none" stroke="#63b8ff" d="M81.58,-256.36C99.39,-277.7 130.22,-309.75 165,-324.5 224.63,-349.79 298.78,-352.81 352.8,-350.51"/>
<polygon fill="#63b8ff" stroke="#63b8ff" points="353.17,-354 362.98,-350.01 352.82,-347.01 353.17,-354"/>
</a>
</g>
</g>
<!-- Node10 -->
<g id="Node000010" class="node">
<title>Node10</title>
<g id="a_Node000010"><a xlink:href="classprecice_1_1cplscheme_1_1BaseCouplingScheme.html#a4dcb97e3ef79b1cca6af577f9cbbec19" target="_top" xlink:title="Function to determine whether coupling scheme is an implicit coupling scheme.">
<polygon fill="white" stroke="#666666" points="320.5,-315 171.5,-315 171.5,-274 320.5,-274 320.5,-315"/>
<text text-anchor="start" x="179.5" y="-303" font-family="Helvetica,sans-Serif" font-size="10.00">precice::cplscheme</text>
<text text-anchor="start" x="179.5" y="-292" font-family="Helvetica,sans-Serif" font-size="10.00">::BaseCouplingScheme</text>
<text text-anchor="middle" x="246" y="-281" font-family="Helvetica,sans-Serif" font-size="10.00">::isImplicitCouplingScheme</text>
</a>
</g>
</g>
<!-- Node1&#45;&gt;Node10 -->
<g id="edge11_Node000001_Node000010" class="edge">
<title>Node1&#45;&gt;Node10</title>
<g id="a_edge11_Node000001_Node000010"><a xlink:title=" ">
<path fill="none" stroke="#63b8ff" d="M128.03,-256.05C142.47,-260.8 157.95,-265.89 172.77,-270.76"/>
<polygon fill="#63b8ff" stroke="#63b8ff" points="171.8,-274.12 182.39,-273.92 173.98,-267.47 171.8,-274.12"/>
</a>
</g>
</g>
<!-- Node11 -->
<g id="Node000011" class="node">
<title>Node11</title>
<g id="a_Node000011"><a xlink:href="classprecice_1_1cplscheme_1_1BaseCouplingScheme.html#a3153d22622f9abe534cef5fb0fb299dc" target="_top" xlink:title="Used to set flag after data has been received using receiveData().">
<polygon fill="white" stroke="#666666" points="327,-256 165,-256 165,-215 327,-215 327,-256"/>
<text text-anchor="start" x="173" y="-244" font-family="Helvetica,sans-Serif" font-size="10.00">precice::cplscheme</text>
<text text-anchor="start" x="173" y="-233" font-family="Helvetica,sans-Serif" font-size="10.00">::BaseCouplingScheme</text>
<text text-anchor="middle" x="246" y="-222" font-family="Helvetica,sans-Serif" font-size="10.00">::notifyDataHasBeenReceived</text>
</a>
</g>
</g>
<!-- Node1&#45;&gt;Node11 -->
<g id="edge12_Node000001_Node000011" class="edge">
<title>Node1&#45;&gt;Node11</title>
<g id="a_edge12_Node000001_Node000011"><a xlink:title=" ">
<path fill="none" stroke="#63b8ff" d="M129.04,-235.5C137.37,-235.5 146.04,-235.5 154.71,-235.5"/>
<polygon fill="#63b8ff" stroke="#63b8ff" points="154.88,-239 164.88,-235.5 154.88,-232 154.88,-239"/>
</a>
</g>
</g>
<!-- Node12 -->
<g id="Node000012" class="node">
<title>Node12</title>
<g id="a_Node000012"><a xlink:href="classprecice_1_1cplscheme_1_1BaseCouplingScheme.html#aa1f5c8d5137b3d36fd19137195bee952" target="_top" xlink:title="Getter for _receivesInitializedData.">
<polygon fill="white" stroke="#666666" points="313.5,-197 178.5,-197 178.5,-156 313.5,-156 313.5,-197"/>
<text text-anchor="start" x="186.5" y="-185" font-family="Helvetica,sans-Serif" font-size="10.00">precice::cplscheme</text>
<text text-anchor="start" x="186.5" y="-174" font-family="Helvetica,sans-Serif" font-size="10.00">::BaseCouplingScheme</text>
<text text-anchor="middle" x="246" y="-163" font-family="Helvetica,sans-Serif" font-size="10.00">::receivesInitializedData</text>
</a>
</g>
</g>
<!-- Node1&#45;&gt;Node12 -->
<g id="edge14_Node000001_Node000012" class="edge">
<title>Node1&#45;&gt;Node12</title>
<g id="a_edge14_Node000001_Node000012"><a xlink:title=" ">
<path fill="none" stroke="#63b8ff" d="M128.03,-214.95C142.47,-210.2 157.95,-205.11 172.77,-200.24"/>
<polygon fill="#63b8ff" stroke="#63b8ff" points="173.98,-203.53 182.39,-197.08 171.8,-196.88 173.98,-203.53"/>
</a>
</g>
</g>
<!-- Node13 -->
<g id="Node000013" class="node">
<title>Node13</title>
<g id="a_Node000013"><a xlink:href="classprecice_1_1cplscheme_1_1BaseCouplingScheme.html#a3aa71af66bf740fa8d9182b47db7dac3" target="_top" xlink:title="Sends data sendDataIDs given in mapCouplingData with communication.">
<polygon fill="white" stroke="#666666" points="491,-148 363,-148 363,-107 491,-107 491,-148"/>
<text text-anchor="start" x="371" y="-136" font-family="Helvetica,sans-Serif" font-size="10.00">precice::cplscheme</text>
<text text-anchor="start" x="371" y="-125" font-family="Helvetica,sans-Serif" font-size="10.00">::BaseCouplingScheme</text>
<text text-anchor="middle" x="427" y="-114" font-family="Helvetica,sans-Serif" font-size="10.00">::sendData</text>
</a>
</g>
</g>
<!-- Node1&#45;&gt;Node13 -->
<g id="edge15_Node000001_Node000013" class="edge">
<title>Node1&#45;&gt;Node13</title>
<g id="a_edge15_Node000001_Node000013"><a xlink:title=" ">
<path fill="none" stroke="#63b8ff" d="M81.58,-214.64C99.39,-193.3 130.22,-161.25 165,-146.5 224.63,-121.21 298.78,-118.19 352.8,-120.49"/>
<polygon fill="#63b8ff" stroke="#63b8ff" points="352.82,-123.99 362.98,-120.99 353.17,-117 352.82,-123.99"/>
</a>
</g>
</g>
<!-- Node19 -->
<g id="Node000019" class="node">
<title>Node19</title>
<g id="a_Node000019"><a xlink:href="classprecice_1_1cplscheme_1_1BaseCouplingScheme.html#a451d5b7ad0672e0a2a4eea89eda25e1d" target="_top" xlink:title="Getter for _sendsInitializedData.">
<polygon fill="white" stroke="#666666" points="310,-99 182,-99 182,-58 310,-58 310,-99"/>
<text text-anchor="start" x="190" y="-87" font-family="Helvetica,sans-Serif" font-size="10.00">precice::cplscheme</text>
<text text-anchor="start" x="190" y="-76" font-family="Helvetica,sans-Serif" font-size="10.00">::BaseCouplingScheme</text>
<text text-anchor="middle" x="246" y="-65" font-family="Helvetica,sans-Serif" font-size="10.00">::sendsInitializedData</text>
</a>
</g>
</g>
<!-- Node1&#45;&gt;Node19 -->
<g id="edge24_Node000001_Node000019" class="edge">
<title>Node1&#45;&gt;Node19</title>
<g id="a_edge24_Node000001_Node000019"><a xlink:title=" ">
<path fill="none" stroke="#63b8ff" d="M77.93,-214.82C94.77,-188.29 127.13,-142.26 165,-113.5 169.45,-110.12 174.28,-106.99 179.29,-104.1"/>
<polygon fill="#63b8ff" stroke="#63b8ff" points="181.3,-106.99 188.44,-99.17 177.98,-100.83 181.3,-106.99"/>
</a>
</g>
</g>
<!-- Node3 -->
<g id="Node000003" class="node">
<title>Node3</title>
<g id="a_Node000003"><a xlink:href="classprecice_1_1cplscheme_1_1BaseCouplingScheme.html#a6c37c619f364581226635cdca7d39e4b" target="_top" xlink:title="getter for _time">
<polygon fill="white" stroke="#666666" points="671.5,-451 543.5,-451 543.5,-410 671.5,-410 671.5,-451"/>
<text text-anchor="start" x="551.5" y="-439" font-family="Helvetica,sans-Serif" font-size="10.00">precice::cplscheme</text>
<text text-anchor="start" x="551.5" y="-428" font-family="Helvetica,sans-Serif" font-size="10.00">::BaseCouplingScheme</text>
<text text-anchor="middle" x="607.5" y="-417" font-family="Helvetica,sans-Serif" font-size="10.00">::getTime</text>
</a>
</g>
</g>
<!-- Node2&#45;&gt;Node3 -->
<g id="edge2_Node000002_Node000003" class="edge">
<title>Node2&#45;&gt;Node3</title>
<g id="a_edge2_Node000002_Node000003"><a xlink:title=" ">
<path fill="none" stroke="#63b8ff" d="M326.78,-400.93C388.48,-407.45 473.21,-416.41 533.21,-422.75"/>
<polygon fill="#63b8ff" stroke="#63b8ff" points="533.05,-426.26 543.36,-423.83 533.79,-419.29 533.05,-426.26"/>
</a>
</g>
</g>
<!-- Node2&#45;&gt;Node4 -->
<g id="edge3_Node000002_Node000004" class="edge">
<title>Node2&#45;&gt;Node4</title>
<g id="a_edge3_Node000002_Node000004"><a xlink:title=" ">
<path fill="none" stroke="#63b8ff" d="M322.13,-371.93C332.43,-369.11 342.99,-366.22 353.24,-363.42"/>
<polygon fill="#63b8ff" stroke="#63b8ff" points="354.23,-366.77 362.96,-360.76 352.39,-360.02 354.23,-366.77"/>
</a>
</g>
</g>
<!-- Node4&#45;&gt;Node3 -->
<g id="edge7_Node000004_Node000003" class="edge">
<title>Node4&#45;&gt;Node3</title>
<g id="a_edge7_Node000004_Node000003"><a xlink:title=" ">
<path fill="none" stroke="#63b8ff" d="M460.73,-364.13C479.69,-375.62 504.23,-389.73 527,-400.5 531.01,-402.4 535.17,-404.26 539.4,-406.07"/>
<polygon fill="#63b8ff" stroke="#63b8ff" points="538.14,-409.34 548.72,-409.96 540.84,-402.88 538.14,-409.34"/>
</a>
</g>
</g>
<!-- Node4&#45;&gt;Node4 -->
<g id="edge8_Node000004_Node000004" class="edge">
<title>Node4&#45;&gt;Node4</title>
<g id="a_edge8_Node000004_Node000004"><a xlink:title=" ">
<path fill="none" stroke="#63b8ff" d="M393.92,-364.1C390.31,-373.65 401.34,-382 427,-382 443.04,-382 453.36,-378.74 457.97,-373.96"/>
<polygon fill="#63b8ff" stroke="#63b8ff" points="461.41,-374.61 460.08,-364.1 454.56,-373.14 461.41,-374.61"/>
</a>
</g>
</g>
<!-- Node5 -->
<g id="Node000005" class="node">
<title>Node5</title>
<g id="a_Node000005"><a xlink:href="classprecice_1_1com_1_1serialize_1_1SerializedStamples.html#a914cc916961f26874b078f45ce01e6f5" target="_top" xlink:title="Create SerializedStamples with allocated buffers according to size of CouplingData.">
<polygon fill="white" stroke="#666666" points="684.5,-391.5 530.5,-391.5 530.5,-361.5 684.5,-361.5 684.5,-391.5"/>
<text text-anchor="start" x="538.5" y="-379.5" font-family="Helvetica,sans-Serif" font-size="10.00">precice::com::serialize</text>
<text text-anchor="middle" x="607.5" y="-368.5" font-family="Helvetica,sans-Serif" font-size="10.00">::SerializedStamples::empty</text>
</a>
</g>
</g>
<!-- Node4&#45;&gt;Node5 -->
<g id="edge4_Node000004_Node000005" class="edge">
<title>Node4&#45;&gt;Node5</title>
<g id="a_edge4_Node000004_Node000005"><a xlink:title=" ">
<path fill="none" stroke="#63b8ff" d="M491.18,-355.18C500.56,-356.91 510.36,-358.73 520.12,-360.53"/>
<polygon fill="#63b8ff" stroke="#63b8ff" points="519.78,-364.03 530.24,-362.4 521.05,-357.14 519.78,-364.03"/>
</a>
</g>
</g>
<!-- Node7 -->
<g id="Node000007" class="node">
<title>Node7</title>
<g id="a_Node000007"><a target="_parent" xlink:href="http://en.cppreference.com/w/cpp/memory/shared_ptr/get.html#" xlink:title=" ">
<polygon fill="white" stroke="#666666" points="663,-225 552,-225 552,-206 663,-206 663,-225"/>
<text text-anchor="middle" x="607.5" y="-213" font-family="Helvetica,sans-Serif" font-size="10.00">std::shared_ptr::get</text>
</a>
</g>
</g>
<!-- Node4&#45;&gt;Node7 -->
<g id="edge6_Node000004_Node000007" class="edge">
<title>Node4&#45;&gt;Node7</title>
<g id="a_edge6_Node000004_Node000007"><a xlink:title=" ">
<path fill="none" stroke="#63b8ff" d="M440.67,-322.96C457.29,-297.82 488.88,-255.85 527,-233.5 531.73,-230.73 536.85,-228.38 542.13,-226.39"/>
<polygon fill="#63b8ff" stroke="#63b8ff" points="543.38,-229.67 551.77,-223.2 541.18,-223.02 543.38,-229.67"/>
</a>
</g>
</g>
<!-- Node8 -->
<g id="Node000008" class="node">
<title>Node8</title>
<g id="a_Node000008"><a xlink:href="classprecice_1_1cplscheme_1_1BaseCouplingScheme.html#a83379ed90469cb7710fff88ff52269ac" target="_top" xlink:title=" ">
<polygon fill="white" stroke="#666666" points="688,-343 527,-343 527,-302 688,-302 688,-343"/>
<text text-anchor="start" x="535" y="-331" font-family="Helvetica,sans-Serif" font-size="10.00">precice::cplscheme</text>
<text text-anchor="start" x="535" y="-320" font-family="Helvetica,sans-Serif" font-size="10.00">::BaseCouplingScheme</text>
<text text-anchor="middle" x="607.5" y="-309" font-family="Helvetica,sans-Serif" font-size="10.00">::receiveNumberOfTimeSteps</text>
</a>
</g>
</g>
<!-- Node4&#45;&gt;Node8 -->
<g id="edge9_Node000004_Node000008" class="edge">
<title>Node4&#45;&gt;Node8</title>
<g id="a_edge9_Node000004_Node000008"><a xlink:title=" ">
<path fill="none" stroke="#63b8ff" d="M491.18,-336.07C499.47,-335.09 508.09,-334.08 516.72,-333.06"/>
<polygon fill="#63b8ff" stroke="#63b8ff" points="517.3,-336.52 526.83,-331.87 516.49,-329.57 517.3,-336.52"/>
</a>
</g>
</g>
<!-- Node9 -->
<g id="Node000009" class="node">
<title>Node9</title>
<g id="a_Node000009"><a xlink:href="classprecice_1_1cplscheme_1_1BaseCouplingScheme.html#a700bef351e463eb84836538fd91f16b3" target="_top" xlink:title=" ">
<polygon fill="white" stroke="#666666" points="671.5,-284 543.5,-284 543.5,-243 671.5,-243 671.5,-284"/>
<text text-anchor="start" x="551.5" y="-272" font-family="Helvetica,sans-Serif" font-size="10.00">precice::cplscheme</text>
<text text-anchor="start" x="551.5" y="-261" font-family="Helvetica,sans-Serif" font-size="10.00">::BaseCouplingScheme</text>
<text text-anchor="middle" x="607.5" y="-250" font-family="Helvetica,sans-Serif" font-size="10.00">::receiveTimes</text>
</a>
</g>
</g>
<!-- Node4&#45;&gt;Node9 -->
<g id="edge10_Node000004_Node000009" class="edge">
<title>Node4&#45;&gt;Node9</title>
<g id="a_edge10_Node000004_Node000009"><a xlink:title=" ">
<path fill="none" stroke="#63b8ff" d="M466.57,-322.82C484.69,-313.41 506.73,-302.41 527,-293.5 531.33,-291.6 535.82,-289.7 540.37,-287.84"/>
<polygon fill="#63b8ff" stroke="#63b8ff" points="541.77,-291.05 549.74,-284.07 539.16,-284.55 541.77,-291.05"/>
</a>
</g>
</g>
<!-- Node6 -->
<g id="Node000006" class="node">
<title>Node6</title>
<g id="a_Node000006"><a xlink:href="classprecice_1_1com_1_1serialize_1_1SerializedStamples.html#a766834ff07b9fc24a575a98c2fc8c382" target="_top" xlink:title=" ">
<polygon fill="white" stroke="#666666" points="850,-278 724,-278 724,-237 850,-237 850,-278"/>
<text text-anchor="start" x="732" y="-266" font-family="Helvetica,sans-Serif" font-size="10.00">precice::com::serialize</text>
<text text-anchor="start" x="732" y="-255" font-family="Helvetica,sans-Serif" font-size="10.00">::SerializedStamples::</text>
<text text-anchor="middle" x="787" y="-244" font-family="Helvetica,sans-Serif" font-size="10.00">allocate</text>
</a>
</g>
</g>
<!-- Node5&#45;&gt;Node6 -->
<g id="edge5_Node000005_Node000006" class="edge">
<title>Node5&#45;&gt;Node6</title>
<g id="a_edge5_Node000005_Node000006"><a xlink:title=" ">
<path fill="none" stroke="#63b8ff" d="M669.26,-361.5C675.78,-358.92 682.16,-355.93 688,-352.5 717.52,-335.14 744.95,-307.1 763.23,-285.97"/>
<polygon fill="#63b8ff" stroke="#63b8ff" points="765.98,-288.14 769.78,-278.25 760.64,-283.62 765.98,-288.14"/>
</a>
</g>
</g>
<!-- Node13&#45;&gt;Node7 -->
<g id="edge16_Node000013_Node000007" class="edge">
<title>Node13&#45;&gt;Node7</title>
<g id="a_edge16_Node000013_Node000007"><a xlink:title=" ">
<path fill="none" stroke="#63b8ff" d="M452.06,-148.16C471.2,-163.58 499.28,-184.07 527,-196.5 532.47,-198.96 538.31,-201.12 544.24,-203.02"/>
<polygon fill="#63b8ff" stroke="#63b8ff" points="543.67,-206.5 554.25,-205.97 545.65,-199.79 543.67,-206.5"/>
</a>
</g>
</g>
<!-- Node13&#45;&gt;Node13 -->
<g id="edge17_Node000013_Node000013" class="edge">
<title>Node13&#45;&gt;Node13</title>
<g id="a_edge17_Node000013_Node000013"><a xlink:title=" ">
<path fill="none" stroke="#63b8ff" d="M393.92,-148.1C390.31,-157.65 401.34,-166 427,-166 443.04,-166 453.36,-162.74 457.97,-157.96"/>
<polygon fill="#63b8ff" stroke="#63b8ff" points="461.41,-158.61 460.08,-148.1 454.56,-157.14 461.41,-158.61"/>
</a>
</g>
</g>
<!-- Node14 -->
<g id="Node000014" class="node">
<title>Node14</title>
<g id="a_Node000014"><a xlink:href="classprecice_1_1cplscheme_1_1BaseCouplingScheme.html#aab81f5f3857872a22d82f871248d4371" target="_top" xlink:title=" ">
<polygon fill="white" stroke="#666666" points="681.5,-188 533.5,-188 533.5,-147 681.5,-147 681.5,-188"/>
<text text-anchor="start" x="541.5" y="-176" font-family="Helvetica,sans-Serif" font-size="10.00">precice::cplscheme</text>
<text text-anchor="start" x="541.5" y="-165" font-family="Helvetica,sans-Serif" font-size="10.00">::BaseCouplingScheme</text>
<text text-anchor="middle" x="607.5" y="-154" font-family="Helvetica,sans-Serif" font-size="10.00">::sendNumberOfTimeSteps</text>
</a>
</g>
</g>
<!-- Node13&#45;&gt;Node14 -->
<g id="edge18_Node000013_Node000014" class="edge">
<title>Node13&#45;&gt;Node14</title>
<g id="a_edge18_Node000013_Node000014"><a xlink:title=" ">
<path fill="none" stroke="#63b8ff" d="M491.18,-141.66C501.63,-144 512.59,-146.46 523.43,-148.89"/>
<polygon fill="#63b8ff" stroke="#63b8ff" points="522.81,-152.33 533.34,-151.11 524.35,-145.5 522.81,-152.33"/>
</a>
</g>
</g>
<!-- Node15 -->
<g id="Node000015" class="node">
<title>Node15</title>
<g id="a_Node000015"><a xlink:href="classprecice_1_1cplscheme_1_1BaseCouplingScheme.html#ad50465f4541de9580e627400d7e39f4f" target="_top" xlink:title=" ">
<polygon fill="white" stroke="#666666" points="671.5,-129 543.5,-129 543.5,-88 671.5,-88 671.5,-129"/>
<text text-anchor="start" x="551.5" y="-117" font-family="Helvetica,sans-Serif" font-size="10.00">precice::cplscheme</text>
<text text-anchor="start" x="551.5" y="-106" font-family="Helvetica,sans-Serif" font-size="10.00">::BaseCouplingScheme</text>
<text text-anchor="middle" x="607.5" y="-95" font-family="Helvetica,sans-Serif" font-size="10.00">::sendTimes</text>
</a>
</g>
</g>
<!-- Node13&#45;&gt;Node15 -->
<g id="edge19_Node000013_Node000015" class="edge">
<title>Node13&#45;&gt;Node15</title>
<g id="a_edge19_Node000013_Node000015"><a xlink:title=" ">
<path fill="none" stroke="#63b8ff" d="M491.18,-120.77C504.82,-119.32 519.35,-117.78 533.34,-116.29"/>
<polygon fill="#63b8ff" stroke="#63b8ff" points="533.83,-119.76 543.4,-115.22 533.09,-112.79 533.83,-119.76"/>
</a>
</g>
</g>
<!-- Node16 -->
<g id="Node000016" class="node">
<title>Node16</title>
<g id="a_Node000016"><a xlink:href="classprecice_1_1com_1_1serialize_1_1SerializedStamples.html#acefbea8c1c6ff8ca9f647ebf37348513" target="_top" xlink:title="Serializes a given CouplingData into SerializedStamples.">
<polygon fill="white" stroke="#666666" points="670.5,-70 544.5,-70 544.5,-29 670.5,-29 670.5,-70"/>
<text text-anchor="start" x="552.5" y="-58" font-family="Helvetica,sans-Serif" font-size="10.00">precice::com::serialize</text>
<text text-anchor="start" x="552.5" y="-47" font-family="Helvetica,sans-Serif" font-size="10.00">::SerializedStamples::</text>
<text text-anchor="middle" x="607.5" y="-36" font-family="Helvetica,sans-Serif" font-size="10.00">serialize</text>
</a>
</g>
</g>
<!-- Node13&#45;&gt;Node16 -->
<g id="edge20_Node000013_Node000016" class="edge">
<title>Node13&#45;&gt;Node16</title>
<g id="a_edge20_Node000013_Node000016"><a xlink:title=" ">
<path fill="none" stroke="#63b8ff" d="M467.04,-106.94C485.07,-97.77 506.9,-87.11 527,-78.5 530.62,-76.95 534.35,-75.41 538.13,-73.89"/>
<polygon fill="#63b8ff" stroke="#63b8ff" points="539.58,-77.08 547.6,-70.16 537.02,-70.56 539.58,-77.08"/>
</a>
</g>
</g>
<!-- Node16&#45;&gt;Node6 -->
<g id="edge21_Node000016_Node000006" class="edge">
<title>Node16&#45;&gt;Node6</title>
<g id="a_edge21_Node000016_Node000006"><a xlink:title=" ">
<path fill="none" stroke="#63b8ff" d="M670.87,-67.14C677.02,-70.34 682.87,-74.1 688,-78.5 735.09,-118.96 763.63,-187.91 776.96,-227.38"/>
<polygon fill="#63b8ff" stroke="#63b8ff" points="773.66,-228.56 780.09,-236.98 780.31,-226.39 773.66,-228.56"/>
</a>
</g>
</g>
<!-- Node17 -->
<g id="Node000017" class="node">
<title>Node17</title>
<g id="a_Node000017"><a xlink:href="classprecice_1_1com_1_1serialize_1_1SerializedStamples.html#aa94dbbe6f68c1dc4f14fb132df8ab796" target="_top" xlink:title="Serialize gradients from timeStepsStorage of data into _gradients.">
<polygon fill="white" stroke="#666666" points="850,-100 724,-100 724,-59 850,-59 850,-100"/>
<text text-anchor="start" x="732" y="-88" font-family="Helvetica,sans-Serif" font-size="10.00">precice::com::serialize</text>
<text text-anchor="start" x="732" y="-77" font-family="Helvetica,sans-Serif" font-size="10.00">::SerializedStamples::</text>
<text text-anchor="middle" x="787" y="-66" font-family="Helvetica,sans-Serif" font-size="10.00">serializeGradients</text>
</a>
</g>
</g>
<!-- Node16&#45;&gt;Node17 -->
<g id="edge22_Node000016_Node000017" class="edge">
<title>Node16&#45;&gt;Node17</title>
<g id="a_edge22_Node000016_Node000017"><a xlink:title=" ">
<path fill="none" stroke="#63b8ff" d="M670.58,-59.99C684.63,-62.37 699.67,-64.91 714.09,-67.35"/>
<polygon fill="#63b8ff" stroke="#63b8ff" points="713.51,-70.8 723.95,-69.01 714.68,-63.9 713.51,-70.8"/>
</a>
</g>
</g>
<!-- Node18 -->
<g id="Node000018" class="node">
<title>Node18</title>
<g id="a_Node000018"><a xlink:href="classprecice_1_1com_1_1serialize_1_1SerializedStamples.html#a51596e529ca6050a18852bf5172df2e6" target="_top" xlink:title="Serialize values from timeStepsStorage of data into _values.">
<polygon fill="white" stroke="#666666" points="850,-41 724,-41 724,0 850,0 850,-41"/>
<text text-anchor="start" x="732" y="-29" font-family="Helvetica,sans-Serif" font-size="10.00">precice::com::serialize</text>
<text text-anchor="start" x="732" y="-18" font-family="Helvetica,sans-Serif" font-size="10.00">::SerializedStamples::</text>
<text text-anchor="middle" x="787" y="-7" font-family="Helvetica,sans-Serif" font-size="10.00">serializeValues</text>
</a>
</g>
</g>
<!-- Node16&#45;&gt;Node18 -->
<g id="edge23_Node000016_Node000018" class="edge">
<title>Node16&#45;&gt;Node18</title>
<g id="a_edge23_Node000016_Node000018"><a xlink:title=" ">
<path fill="none" stroke="#63b8ff" d="M670.58,-39.36C684.5,-37.08 699.38,-34.65 713.67,-32.32"/>
<polygon fill="#63b8ff" stroke="#63b8ff" points="714.65,-35.7 723.95,-30.64 713.52,-28.8 714.65,-35.7"/>
</a>
</g>
</g>
</g>
</svg>
