<?xml version="1.0" encoding="UTF-8" standalone="no"?>
<!DOCTYPE svg PUBLIC "-//W3C//DTD SVG 1.1//EN"
 "http://www.w3.org/Graphics/SVG/1.1/DTD/svg11.dtd">
<!-- Generated by graphviz version 2.43.0 (0)
 -->
<!-- Title: precice::query::Index::getVerticesInsideBox Pages: 1 -->
<svg width="432pt" height="162pt"
 viewBox="0.00 0.00 432.00 161.50" xmlns="http://www.w3.org/2000/svg" xmlns:xlink="http://www.w3.org/1999/xlink">

<svg id="main" version="1.1" xmlns="http://www.w3.org/2000/svg" xmlns:xlink="http://www.w3.org/1999/xlink" xml:space="preserve" onload="init(evt)">
<style type="text/css"><![CDATA[
.node, .edge {opacity: 0.7;}
.node.selected, .edge.selected {opacity: 1;}
.edge:hover path { stroke: red; }
.edge:hover polygon { stroke: red; fill: red; }
]]></style>
<script type="application/ecmascript" xlink:href="svg.min.js"/>
<svg id="graph" class="graph">
<g id="graph0" class="graph" transform="scale(1 1) rotate(0) translate(4 157.5)">
<title>precice::query::Index::getVerticesInsideBox</title>
<!-- Node1 -->
<g id="Node000001" class="node">
<title>Node1</title>
<g id="a_Node000001"><a xlink:title="Return all the vertices inside the box formed by vertex and radius (boundary exclusive)">
<polygon fill="#999999" stroke="#666666" points="125,-94 0,-94 0,-64 125,-64 125,-94"/>
<text text-anchor="start" x="8" y="-82" font-family="Helvetica,sans-Serif" font-size="10.00">precice::query::Index</text>
<text text-anchor="middle" x="62.5" y="-71" font-family="Helvetica,sans-Serif" font-size="10.00">::getVerticesInsideBox</text>
</a>
</g>
</g>
<!-- Node2 -->
<g id="Node000002" class="node">
<title>Node2</title>
<g id="a_Node000002"><a target="_parent" xlink:href="http://en.cppreference.com/w/cpp/iterator/back_inserter.html#" xlink:title=" ">
<polygon fill="white" stroke="#666666" points="281.5,-153.5 177.5,-153.5 177.5,-134.5 281.5,-134.5 281.5,-153.5"/>
<text text-anchor="middle" x="229.5" y="-141.5" font-family="Helvetica,sans-Serif" font-size="10.00">std::back_inserter</text>
</a>
</g>
</g>
<!-- Node1&#45;&gt;Node2 -->
<g id="edge1_Node000001_Node000002" class="edge">
<title>Node1&#45;&gt;Node2</title>
<g id="a_edge1_Node000001_Node000002"><a xlink:title=" ">
<path fill="none" stroke="#63b8ff" d="M92.39,-94.19C111.51,-103.85 137.33,-116.16 161,-125 167.28,-127.35 173.99,-129.56 180.64,-131.6"/>
<polygon fill="#63b8ff" stroke="#63b8ff" points="179.72,-134.98 190.3,-134.44 181.7,-128.26 179.72,-134.98"/>
</a>
</g>
</g>
<!-- Node3 -->
<g id="Node000003" class="node">
<title>Node3</title>
<g id="a_Node000003"><a xlink:href="classprecice_1_1mesh_1_1Vertex.html#ad90010710b36c06a40ec09922c1b0fce" target="_top" xlink:title="Returns the coordinates of the vertex.">
<polygon fill="white" stroke="#666666" points="290.5,-116 168.5,-116 168.5,-86 290.5,-86 290.5,-116"/>
<text text-anchor="start" x="176.5" y="-104" font-family="Helvetica,sans-Serif" font-size="10.00">precice::mesh::Vertex</text>
<text text-anchor="middle" x="229.5" y="-93" font-family="Helvetica,sans-Serif" font-size="10.00">::getCoords</text>
</a>
</g>
</g>
<!-- Node1&#45;&gt;Node3 -->
<g id="edge2_Node000001_Node000003" class="edge">
<title>Node1&#45;&gt;Node3</title>
<g id="a_edge2_Node000001_Node000003"><a xlink:title=" ">
<path fill="none" stroke="#63b8ff" d="M125.41,-87.25C136.19,-88.69 147.47,-90.2 158.46,-91.66"/>
<polygon fill="#63b8ff" stroke="#63b8ff" points="158.06,-95.14 168.43,-92.99 158.98,-88.2 158.06,-95.14"/>
</a>
</g>
</g>
<!-- Node6 -->
<g id="Node000006" class="node">
<title>Node6</title>
<g id="a_Node000006"><a xlink:href="namespaceprecice_1_1query.html#a4f32eb2f416d0e754bb33cc90a52d199" target="_top" xlink:title=" ">
<polygon fill="white" stroke="#666666" points="298,-67.5 161,-67.5 161,-48.5 298,-48.5 298,-67.5"/>
<text text-anchor="middle" x="229.5" y="-55.5" font-family="Helvetica,sans-Serif" font-size="10.00">precice::query::makeBox</text>
</a>
</g>
</g>
<!-- Node1&#45;&gt;Node6 -->
<g id="edge5_Node000001_Node000006" class="edge">
<title>Node1&#45;&gt;Node6</title>
<g id="a_edge5_Node000001_Node000006"><a xlink:title=" ">
<path fill="none" stroke="#63b8ff" d="M125.41,-71.12C133.76,-70.06 142.4,-68.96 150.98,-67.87"/>
<polygon fill="#63b8ff" stroke="#63b8ff" points="151.51,-71.33 160.99,-66.59 150.63,-64.38 151.51,-71.33"/>
</a>
</g>
</g>
<!-- Node7 -->
<g id="Node000007" class="node">
<title>Node7</title>
<g id="a_Node000007"><a xlink:href="classprecice_1_1mesh_1_1Mesh.html#a13faa9b03e5d20918ed6528db1415fa3" target="_top" xlink:title="Returns modifieable container holding all vertices.">
<polygon fill="white" stroke="#666666" points="288,-30 171,-30 171,0 288,0 288,-30"/>
<text text-anchor="start" x="179" y="-18" font-family="Helvetica,sans-Serif" font-size="10.00">precice::mesh::Mesh</text>
<text text-anchor="middle" x="229.5" y="-7" font-family="Helvetica,sans-Serif" font-size="10.00">::vertices</text>
</a>
</g>
</g>
<!-- Node1&#45;&gt;Node7 -->
<g id="edge6_Node000001_Node000007" class="edge">
<title>Node1&#45;&gt;Node7</title>
<g id="a_edge6_Node000001_Node000007"><a xlink:title=" ">
<path fill="none" stroke="#63b8ff" d="M99,-63.96C117.41,-56.28 140.32,-46.91 161,-39 165.74,-37.19 170.69,-35.34 175.65,-33.52"/>
<polygon fill="#63b8ff" stroke="#63b8ff" points="176.97,-36.76 185.18,-30.06 174.58,-30.18 176.97,-36.76"/>
</a>
</g>
</g>
<!-- Node4 -->
<g id="Node000004" class="node">
<title>Node4</title>
<g id="a_Node000004"><a target="_parent" xlink:href="http://en.cppreference.com/w/cpp/algorithm/copy_n.html#" xlink:title=" ">
<polygon fill="white" stroke="#666666" points="415,-128.5 343,-128.5 343,-109.5 415,-109.5 415,-128.5"/>
<text text-anchor="middle" x="379" y="-116.5" font-family="Helvetica,sans-Serif" font-size="10.00">std::copy_n</text>
</a>
</g>
</g>
<!-- Node3&#45;&gt;Node4 -->
<g id="edge3_Node000003_Node000004" class="edge">
<title>Node3&#45;&gt;Node4</title>
<g id="a_edge3_Node000003_Node000004"><a xlink:title=" ">
<path fill="none" stroke="#63b8ff" d="M290.92,-108.37C304.86,-110.07 319.45,-111.85 332.62,-113.46"/>
<polygon fill="#63b8ff" stroke="#63b8ff" points="332.49,-116.97 342.84,-114.71 333.33,-110.02 332.49,-116.97"/>
</a>
</g>
</g>
<!-- Node5 -->
<g id="Node000005" class="node">
<title>Node5</title>
<g id="a_Node000005"><a target="_parent" xlink:href="http://en.cppreference.com/w/cpp/container/array/data.html#" xlink:title=" ">
<polygon fill="white" stroke="#666666" points="424,-91.5 334,-91.5 334,-72.5 424,-72.5 424,-91.5"/>
<text text-anchor="middle" x="379" y="-79.5" font-family="Helvetica,sans-Serif" font-size="10.00">std::array::data</text>
</a>
</g>
</g>
<!-- Node3&#45;&gt;Node5 -->
<g id="edge4_Node000003_Node000005" class="edge">
<title>Node3&#45;&gt;Node5</title>
<g id="a_edge4_Node000003_Node000005"><a xlink:title=" ">
<path fill="none" stroke="#63b8ff" d="M290.92,-93.22C301.77,-91.82 313.02,-90.37 323.69,-89"/>
<polygon fill="#63b8ff" stroke="#63b8ff" points="324.23,-92.45 333.7,-87.71 323.34,-85.51 324.23,-92.45"/>
</a>
</g>
</g>
</g>
</svg>
</svg>

<style type='text/css'>
<![CDATA[
[data-mouse-over-selected='false'] { opacity: 0.7; }
[data-mouse-over-selected='true']  { opacity: 1.0; }
]]>
</style>
<script type="application/ecmascript"><![CDATA[
document.addEventListener('DOMContentLoaded', (event) => {
  highlightEdges();
  highlightAdjacentNodes();
});
]]></script>
</svg>
