<?xml version="1.0" encoding="UTF-8" standalone="no"?>
<!DOCTYPE svg PUBLIC "-//W3C//DTD SVG 1.1//EN"
 "http://www.w3.org/Graphics/SVG/1.1/DTD/svg11.dtd">
<!-- Generated by graphviz version 2.43.0 (0)
 -->
<!-- Title: precice::com::MPISinglePortsCommunication Pages: 1 -->
<svg width="1496pt" height="205pt"
 viewBox="0.00 0.00 1496.00 205.00" xmlns="http://www.w3.org/2000/svg" xmlns:xlink="http://www.w3.org/1999/xlink">
<g id="graph0" class="graph" transform="scale(1 1) rotate(0) translate(4 201)">
<title>precice::com::MPISinglePortsCommunication</title>
<!-- Node1 -->
<g id="Node000001" class="node">
<title>Node1</title>
<g id="a_Node000001"><a xlink:title="Provides connection methods based on MPI ports (part of MPI 2.0).">
<polygon fill="#999999" stroke="#666666" points="1488,-120 1330,-120 1330,-90 1488,-90 1488,-120"/>
<text text-anchor="start" x="1338" y="-108" font-family="Helvetica,sans-Serif" font-size="10.00">precice::com::MPISinglePorts</text>
<text text-anchor="middle" x="1409" y="-97" font-family="Helvetica,sans-Serif" font-size="10.00">Communication</text>
</a>
</g>
</g>
<!-- Node2 -->
<g id="Node000002" class="node">
<title>Node2</title>
<g id="a_Node000002"><a xlink:href="classprecice_1_1com_1_1MPICommunication.html" target="_top" xlink:title="Provides implementation for basic MPI point&#45;to&#45;point communication.">
<polygon fill="white" stroke="#666666" points="1202,-151.5 1022,-151.5 1022,-132.5 1202,-132.5 1202,-151.5"/>
<text text-anchor="middle" x="1112" y="-139.5" font-family="Helvetica,sans-Serif" font-size="10.00">precice::com::MPICommunication</text>
</a>
</g>
</g>
<!-- Node2&#45;&gt;Node1 -->
<g id="edge1_Node000001_Node000002" class="edge">
<title>Node2&#45;&gt;Node1</title>
<g id="a_edge1_Node000001_Node000002"><a xlink:title=" ">
<path fill="none" stroke="#63b8ff" d="M1212.26,-138.24C1244.22,-136.17 1279.72,-132.97 1312,-128 1325.13,-125.98 1339.11,-123.07 1352.21,-120.01"/>
<polygon fill="#63b8ff" stroke="#63b8ff" points="1211.77,-134.77 1202.01,-138.88 1212.21,-141.75 1211.77,-134.77"/>
</a>
</g>
</g>
<!-- Node3 -->
<g id="Node000003" class="node">
<title>Node3</title>
<g id="a_Node000003"><a xlink:href="classprecice_1_1com_1_1Communication.html" target="_top" xlink:title="Interface for all interprocess communication classes.">
<polygon fill="white" stroke="#666666" points="937,-145.5 775,-145.5 775,-126.5 937,-126.5 937,-145.5"/>
<text text-anchor="middle" x="856" y="-133.5" font-family="Helvetica,sans-Serif" font-size="10.00">precice::com::Communication</text>
</a>
</g>
</g>
<!-- Node3&#45;&gt;Node2 -->
<g id="edge2_Node000002_Node000003" class="edge">
<title>Node3&#45;&gt;Node2</title>
<g id="a_edge2_Node000002_Node000003"><a xlink:title=" ">
<path fill="none" stroke="#63b8ff" d="M947.25,-138.13C971.42,-138.7 997.54,-139.32 1021.67,-139.89"/>
<polygon fill="#63b8ff" stroke="#63b8ff" points="947.1,-134.63 937.02,-137.89 946.93,-141.63 947.1,-134.63"/>
</a>
</g>
</g>
<!-- Node4 -->
<g id="Node000004" class="node">
<title>Node4</title>
<g id="a_Node000004"><a xlink:href="classprecice_1_1logging_1_1Logger.html" target="_top" xlink:title="This class provides a lightweight logger.">
<polygon fill="white" stroke="#666666" points="715,-191.5 582,-191.5 582,-172.5 715,-172.5 715,-191.5"/>
<text text-anchor="middle" x="648.5" y="-179.5" font-family="Helvetica,sans-Serif" font-size="10.00">precice::logging::Logger</text>
</a>
</g>
</g>
<!-- Node4&#45;&gt;Node1 -->
<g id="edge8_Node000001_Node000004" class="edge">
<title>Node4&#45;&gt;Node1</title>
<g id="a_edge8_Node000001_Node000004"><a xlink:title=" ">
<path fill="none" stroke="#9a32cd" stroke-dasharray="5,2" d="M725.26,-187.68C727.87,-187.8 730.46,-187.91 733,-188 743.66,-188.38 746.33,-188.06 757,-188 837,-187.56 857.11,-190.21 937,-186 1055.14,-179.78 1084.48,-174.55 1202,-161 1251.02,-155.35 1264.44,-159.14 1312,-146 1335.06,-139.63 1359.86,-128.93 1378.48,-120.05"/>
<polygon fill="#9a32cd" stroke="#9a32cd" points="725.28,-184.18 715.11,-187.16 724.92,-191.17 725.28,-184.18"/>
</a>
</g>
<text text-anchor="middle" x="979.5" y="-188" font-family="Helvetica,sans-Serif" font-size="10.00" fill="grey"> _log</text>
</g>
<!-- Node4&#45;&gt;Node2 -->
<g id="edge7_Node000002_Node000004" class="edge">
<title>Node4&#45;&gt;Node2</title>
<g id="a_edge7_Node000002_Node000004"><a xlink:title=" ">
<path fill="none" stroke="#9a32cd" stroke-dasharray="5,2" d="M725.48,-175.76C797.28,-169.83 907.98,-160.55 1004,-152 1009.85,-151.48 1015.89,-150.93 1021.97,-150.38"/>
<polygon fill="#9a32cd" stroke="#9a32cd" points="724.86,-172.3 715.18,-176.62 725.43,-179.28 724.86,-172.3"/>
</a>
</g>
<text text-anchor="middle" x="856" y="-174" font-family="Helvetica,sans-Serif" font-size="10.00" fill="grey"> _log</text>
</g>
<!-- Node4&#45;&gt;Node3 -->
<g id="edge3_Node000003_Node000004" class="edge">
<title>Node4&#45;&gt;Node3</title>
<g id="a_edge3_Node000003_Node000004"><a xlink:title=" ">
<path fill="none" stroke="#9a32cd" stroke-dasharray="5,2" d="M688.07,-169.39C702.12,-165.09 718.18,-160.48 733,-157 751.73,-152.6 772.27,-148.71 791.07,-145.51"/>
<polygon fill="#9a32cd" stroke="#9a32cd" points="686.76,-166.14 678.25,-172.46 688.84,-172.82 686.76,-166.14"/>
</a>
</g>
<text text-anchor="middle" x="745" y="-160" font-family="Helvetica,sans-Serif" font-size="10.00" fill="grey"> _log</text>
</g>
<!-- Node5 -->
<g id="Node000005" class="node">
<title>Node5</title>
<g id="a_Node000005"><a target="_parent" xlink:href="http://en.cppreference.com/w/cpp/memory/unique_ptr.html" xlink:title=" ">
<polygon fill="white" stroke="#666666" points="515,-197 345,-197 345,-167 515,-167 515,-197"/>
<text text-anchor="start" x="353" y="-185" font-family="Helvetica,sans-Serif" font-size="10.00">std::unique_ptr&lt; precice</text>
<text text-anchor="middle" x="430" y="-174" font-family="Helvetica,sans-Serif" font-size="10.00">::logging::Logger::LoggerImpl &gt;</text>
</a>
</g>
</g>
<!-- Node5&#45;&gt;Node4 -->
<g id="edge4_Node000004_Node000005" class="edge">
<title>Node5&#45;&gt;Node4</title>
<g id="a_edge4_Node000004_Node000005"><a xlink:title=" ">
<path fill="none" stroke="#9a32cd" stroke-dasharray="5,2" d="M525.26,-182C544.39,-182 564.12,-182 581.99,-182"/>
<polygon fill="#9a32cd" stroke="#9a32cd" points="525.01,-178.5 515.01,-182 525.01,-185.5 525.01,-178.5"/>
</a>
</g>
<text text-anchor="middle" x="548.5" y="-185" font-family="Helvetica,sans-Serif" font-size="10.00" fill="grey"> _impl</text>
</g>
<!-- Node6 -->
<g id="Node000006" class="node">
<title>Node6</title>
<g id="a_Node000006"><a xlink:href="classprecice_1_1logging_1_1Logger_1_1LoggerImpl.html" target="_top" xlink:title=" ">
<polygon fill="white" stroke="#666666" points="292,-197 159,-197 159,-167 292,-167 292,-197"/>
<text text-anchor="start" x="167" y="-185" font-family="Helvetica,sans-Serif" font-size="10.00">precice::logging::Logger</text>
<text text-anchor="middle" x="225.5" y="-174" font-family="Helvetica,sans-Serif" font-size="10.00">::LoggerImpl</text>
</a>
</g>
</g>
<!-- Node6&#45;&gt;Node5 -->
<g id="edge5_Node000005_Node000006" class="edge">
<title>Node6&#45;&gt;Node5</title>
<g id="a_edge5_Node000005_Node000006"><a xlink:title=" ">
<path fill="none" stroke="#9a32cd" stroke-dasharray="5,2" d="M302.62,-182C316.37,-182 330.78,-182 344.75,-182"/>
<polygon fill="#9a32cd" stroke="#9a32cd" points="302.25,-178.5 292.25,-182 302.25,-185.5 302.25,-178.5"/>
</a>
</g>
<text text-anchor="middle" x="318.5" y="-185" font-family="Helvetica,sans-Serif" font-size="10.00" fill="grey"> ptr</text>
</g>
<!-- Node7 -->
<g id="Node000007" class="node">
<title>Node7</title>
<g id="a_Node000007"><a xlink:title=" ">
<polygon fill="white" stroke="#666666" points="122,-197 0,-197 0,-167 122,-167 122,-197"/>
<text text-anchor="start" x="8" y="-185" font-family="Helvetica,sans-Serif" font-size="10.00">BoostLogger&lt; Logger</text>
<text text-anchor="middle" x="61" y="-174" font-family="Helvetica,sans-Serif" font-size="10.00">::LoggerImpl &gt;</text>
</a>
</g>
</g>
<!-- Node7&#45;&gt;Node6 -->
<g id="edge6_Node000006_Node000007" class="edge">
<title>Node7&#45;&gt;Node6</title>
<g id="a_edge6_Node000006_Node000007"><a xlink:title=" ">
<path fill="none" stroke="#63b8ff" d="M132.33,-182C141.17,-182 150.19,-182 158.96,-182"/>
<polygon fill="#63b8ff" stroke="#63b8ff" points="132.05,-178.5 122.05,-182 132.05,-185.5 132.05,-178.5"/>
</a>
</g>
</g>
<!-- Node8 -->
<g id="Node000008" class="node">
<title>Node8</title>
<g id="a_Node000008"><a target="_parent" xlink:href="http://en.cppreference.com/w/cpp/string/basic_string.html" xlink:title=" ">
<polygon fill="white" stroke="#666666" points="1144.5,-114.5 1079.5,-114.5 1079.5,-95.5 1144.5,-95.5 1144.5,-114.5"/>
<text text-anchor="middle" x="1112" y="-102.5" font-family="Helvetica,sans-Serif" font-size="10.00">std::string</text>
</a>
</g>
</g>
<!-- Node8&#45;&gt;Node1 -->
<g id="edge9_Node000001_Node000008" class="edge">
<title>Node8&#45;&gt;Node1</title>
<g id="a_edge9_Node000001_Node000008"><a xlink:title=" ">
<path fill="none" stroke="#9a32cd" stroke-dasharray="5,2" d="M1154.63,-105C1199.99,-105 1273.57,-105 1329.78,-105"/>
<polygon fill="#9a32cd" stroke="#9a32cd" points="1154.57,-101.5 1144.57,-105 1154.57,-108.5 1154.57,-101.5"/>
</a>
</g>
<text text-anchor="middle" x="1266" y="-119" font-family="Helvetica,sans-Serif" font-size="10.00" fill="grey"> _addressDirectory</text>
<text text-anchor="middle" x="1266" y="-108" font-family="Helvetica,sans-Serif" font-size="10.00" fill="grey">_portName</text>
</g>
<!-- Node9 -->
<g id="Node000009" class="node">
<title>Node9</title>
<g id="a_Node000009"><a target="_parent" xlink:href="http://en.cppreference.com/w/cpp/string/basic_string.html" xlink:title=" ">
<polygon fill="white" stroke="#666666" points="908,-108 804,-108 804,-78 908,-78 908,-108"/>
<text text-anchor="start" x="812" y="-96" font-family="Helvetica,sans-Serif" font-size="10.00">std::basic_string&lt;</text>
<text text-anchor="middle" x="856" y="-85" font-family="Helvetica,sans-Serif" font-size="10.00"> Char &gt;</text>
</a>
</g>
</g>
<!-- Node9&#45;&gt;Node8 -->
<g id="edge10_Node000008_Node000009" class="edge">
<title>Node9&#45;&gt;Node8</title>
<g id="a_edge10_Node000008_Node000009"><a xlink:title=" ">
<path fill="none" stroke="#63b8ff" d="M918.29,-95.9C969.03,-98.29 1039.07,-101.6 1079.24,-103.5"/>
<polygon fill="#63b8ff" stroke="#63b8ff" points="918.25,-92.39 908.1,-95.41 917.92,-99.38 918.25,-92.39"/>
</a>
</g>
</g>
<!-- Node10 -->
<g id="Node000010" class="node">
<title>Node10</title>
<g id="a_Node000010"><a target="_parent" xlink:href="http://en.cppreference.com/w/cpp/container/map.html" xlink:title=" ">
<polygon fill="white" stroke="#666666" points="1164,-30 1060,-30 1060,0 1164,0 1164,-30"/>
<text text-anchor="start" x="1068" y="-18" font-family="Helvetica,sans-Serif" font-size="10.00">std::map&lt; int, std</text>
<text text-anchor="middle" x="1112" y="-7" font-family="Helvetica,sans-Serif" font-size="10.00">::nullptr_t &gt;</text>
</a>
</g>
</g>
<!-- Node10&#45;&gt;Node1 -->
<g id="edge11_Node000001_Node000010" class="edge">
<title>Node10&#45;&gt;Node1</title>
<g id="a_edge11_Node000001_Node000010"><a xlink:title=" ">
<path fill="none" stroke="#9a32cd" stroke-dasharray="5,2" d="M1174.22,-15.83C1214.49,-18.08 1267.74,-24.39 1312,-41 1342.19,-52.33 1372.38,-74.72 1390.63,-89.78"/>
<polygon fill="#9a32cd" stroke="#9a32cd" points="1174.17,-12.32 1164.01,-15.32 1173.82,-19.31 1174.17,-12.32"/>
</a>
</g>
<text text-anchor="middle" x="1266" y="-44" font-family="Helvetica,sans-Serif" font-size="10.00" fill="grey"> _direct</text>
</g>
<!-- Node11 -->
<g id="Node000011" class="node">
<title>Node11</title>
<g id="a_Node000011"><a target="_parent" xlink:href="http://en.cppreference.com/w/cpp/types/nullptr_t.html" xlink:title=" ">
<polygon fill="white" stroke="#666666" points="895,-55.5 817,-55.5 817,-36.5 895,-36.5 895,-55.5"/>
<text text-anchor="middle" x="856" y="-43.5" font-family="Helvetica,sans-Serif" font-size="10.00">std::nullptr_t</text>
</a>
</g>
</g>
<!-- Node11&#45;&gt;Node1 -->
<g id="edge13_Node000001_Node000011" class="edge">
<title>Node11&#45;&gt;Node1</title>
<g id="a_edge13_Node000001_Node000011"><a xlink:title=" ">
<path fill="none" stroke="#9a32cd" stroke-dasharray="5,2" d="M905.33,-49.13C972.13,-53.67 1096.43,-62.89 1202,-75 1244.37,-79.86 1291.45,-86.61 1329.89,-92.48"/>
<polygon fill="#9a32cd" stroke="#9a32cd" points="905.32,-45.62 895.11,-48.44 904.85,-52.61 905.32,-45.62"/>
</a>
</g>
<text text-anchor="middle" x="1112" y="-78" font-family="Helvetica,sans-Serif" font-size="10.00" fill="grey"> _global</text>
</g>
<!-- Node11&#45;&gt;Node10 -->
<g id="edge12_Node000010_Node000011" class="edge">
<title>Node11&#45;&gt;Node10</title>
<g id="a_edge12_Node000010_Node000011"><a xlink:title=" ">
<path fill="none" stroke="#9a32cd" stroke-dasharray="5,2" d="M904.96,-40.15C949.23,-34.74 1014.76,-26.75 1059.97,-21.23"/>
<polygon fill="#9a32cd" stroke="#9a32cd" points="904.53,-36.67 895.03,-41.36 905.38,-43.62 904.53,-36.67"/>
</a>
</g>
<text text-anchor="middle" x="979.5" y="-37" font-family="Helvetica,sans-Serif" font-size="10.00" fill="grey"> elements</text>
</g>
</g>
</svg>
