<?xml version="1.0" encoding="UTF-8" standalone="no"?>
<!DOCTYPE svg PUBLIC "-//W3C//DTD SVG 1.1//EN"
 "http://www.w3.org/Graphics/SVG/1.1/DTD/svg11.dtd">
<!-- Generated by graphviz version 2.43.0 (0)
 -->
<!-- Title: precice::mapping::NearestNeighborGradientMapping Pages: 1 -->
<!--zoomable 207 -->
<svg id="main" version="1.1" xmlns="http://www.w3.org/2000/svg" xmlns:xlink="http://www.w3.org/1999/xlink" xml:space="preserve" onload="init(evt)">
<style type="text/css"><![CDATA[
.edge:hover path { stroke: red; }
.edge:hover polygon { stroke: red; fill: red; }
]]></style>
<script type="text/javascript"><![CDATA[
var edges = document.getElementsByTagName('g');
if (edges && edges.length) {
  for (var i=0;i<edges.length;i++) {
    if (edges[i].id.substr(0,4)=='edge') {
      edges[i].setAttribute('class','edge');
    }
  }
}
]]></script>
        <defs>
                <circle id="rim" cx="0" cy="0" r="7"/>
                <circle id="rim2" cx="0" cy="0" r="3.5"/>
                <g id="zoomPlus">
                        <use xlink:href="#rim" fill="#404040">
                                <set attributeName="fill" to="#808080" begin="zoomplus.mouseover" end="zoomplus.mouseout"/>
                        </use>
                        <path d="M-4,0h8M0,-4v8" fill="none" stroke="white" stroke-width="1.5" pointer-events="none"/>
                </g>
                <g id="zoomMin">
                        <use xlink:href="#rim" fill="#404040">
                                <set attributeName="fill" to="#808080" begin="zoomminus.mouseover" end="zoomminus.mouseout"/>
                        </use>
                        <path d="M-4,0h8" fill="none" stroke="white" stroke-width="1.5" pointer-events="none"/>
                </g>
                <g id="dirArrow">
                        <path fill="none" stroke="white" stroke-width="1.5" d="M0,-3.0v7 M-2.5,-0.5L0,-3.0L2.5,-0.5"/>
                </g>
               <g id="resetDef">
                       <use xlink:href="#rim2" fill="#404040">
                               <set attributeName="fill" to="#808080" begin="reset.mouseover" end="reset.mouseout"/>
                       </use>
               </g>
        </defs>

<script type="text/javascript">
var viewWidth = 1212;
var viewHeight = 207;
var sectionId = 'dynsection-1';
</script>
<script xlink:href="svgpan.js"/>
<svg id="graph" class="graph">
<g id="viewport">
<title>precice::mapping::NearestNeighborGradientMapping</title>
<polygon fill="white" stroke="transparent" points="-4,4 -4,-203 1208,-203 1208,4 -4,4"/>
<!-- Node1 -->
<g id="node1" class="node">
<title>Node1</title>
<g id="a_node1"><a xlink:title="Mapping using nearest neighboring vertices and their local gradient values.">
<polygon fill="#bfbfbf" stroke="black" points="1059,-77 1059,-107 1204,-107 1204,-77 1059,-77"/>
<text text-anchor="start" x="1067" y="-95" font-family="Helvetica,sans-Serif" font-size="10.00">precice::mapping::Nearest</text>
<text text-anchor="middle" x="1131.5" y="-84" font-family="Helvetica,sans-Serif" font-size="10.00">NeighborGradientMapping</text>
</a>
</g>
</g>
<!-- Node2 -->
<g id="node2" class="node">
<title>Node2</title>
<g id="a_node2"><a xlink:href="classprecice_1_1mapping_1_1NearestNeighborBaseMapping.html" target="_top" xlink:title=" ">
<polygon fill="white" stroke="black" points="877,-77 877,-107 1022,-107 1022,-77 877,-77"/>
<text text-anchor="start" x="885" y="-95" font-family="Helvetica,sans-Serif" font-size="10.00">precice::mapping::Nearest</text>
<text text-anchor="middle" x="949.5" y="-84" font-family="Helvetica,sans-Serif" font-size="10.00">NeighborBaseMapping</text>
</a>
</g>
</g>
<!-- Node2&#45;&gt;Node1 -->
<g id="edge1" class="edge">
<title>Node2&#45;&gt;Node1</title>
<path fill="none" stroke="midnightblue" d="M1032.42,-92C1041.22,-92 1050.13,-92 1058.79,-92"/>
<polygon fill="midnightblue" stroke="midnightblue" points="1032.16,-88.5 1022.16,-92 1032.16,-95.5 1032.16,-88.5"/>
</g>
<!-- Node3 -->
<g id="node3" class="node">
<title>Node3</title>
<g id="a_node3"><a xlink:href="classprecice_1_1mapping_1_1Mapping.html" target="_top" xlink:title="Abstract base class for mapping of data from one mesh to another.">
<polygon fill="white" stroke="black" points="591,-167.5 591,-186.5 740,-186.5 740,-167.5 591,-167.5"/>
<text text-anchor="middle" x="665.5" y="-174.5" font-family="Helvetica,sans-Serif" font-size="10.00">precice::mapping::Mapping</text>
</a>
</g>
</g>
<!-- Node3&#45;&gt;Node2 -->
<g id="edge2" class="edge">
<title>Node3&#45;&gt;Node2</title>
<path fill="none" stroke="midnightblue" d="M743.47,-165.75C779.19,-159.33 821.88,-149.94 859,-137 881.5,-129.16 905.55,-116.82 923.05,-107.05"/>
<polygon fill="midnightblue" stroke="midnightblue" points="742.83,-162.31 733.59,-167.48 744.04,-169.2 742.83,-162.31"/>
</g>
<!-- Node4 -->
<g id="node4" class="node">
<title>Node4</title>
<g id="a_node4"><a xlink:title=" ">
<polygon fill="white" stroke="#bfbfbf" points="361,-168.5 361,-187.5 499,-187.5 499,-168.5 361,-168.5"/>
<text text-anchor="middle" x="430" y="-175.5" font-family="Helvetica,sans-Serif" font-size="10.00">std::shared_ptr&lt; Mesh &gt;</text>
</a>
</g>
</g>
<!-- Node4&#45;&gt;Node3 -->
<g id="edge3" class="edge">
<title>Node4&#45;&gt;Node3</title>
<path fill="none" stroke="#9a32cd" stroke-dasharray="5,2" d="M509.48,-177.66C535.79,-177.55 565.02,-177.43 590.95,-177.32"/>
<polygon fill="#9a32cd" stroke="#9a32cd" points="509.15,-174.17 499.17,-177.71 509.18,-181.17 509.15,-174.17"/>
<text text-anchor="middle" x="553" y="-191" font-family="Helvetica,sans-Serif" font-size="10.00"> _output</text>
<text text-anchor="middle" x="553" y="-180" font-family="Helvetica,sans-Serif" font-size="10.00">_input</text>
</g>
<!-- Node5 -->
<g id="node5" class="node">
<title>Node5</title>
<g id="a_node5"><a xlink:href="classprecice_1_1logging_1_1Logger.html" target="_top" xlink:title="This class provides a lightweight logger.">
<polygon fill="white" stroke="black" points="599,-126.5 599,-145.5 732,-145.5 732,-126.5 599,-126.5"/>
<text text-anchor="middle" x="665.5" y="-133.5" font-family="Helvetica,sans-Serif" font-size="10.00">precice::logging::Logger</text>
</a>
</g>
</g>
<!-- Node5&#45;&gt;Node2 -->
<g id="edge4" class="edge">
<title>Node5&#45;&gt;Node2</title>
<path fill="none" stroke="#9a32cd" stroke-dasharray="5,2" d="M741.89,-124.94C777.43,-119.65 820.42,-113.14 859,-107 864.76,-106.08 870.72,-105.12 876.71,-104.14"/>
<polygon fill="#9a32cd" stroke="#9a32cd" points="740.96,-121.54 731.59,-126.47 741.99,-128.46 740.96,-121.54"/>
<text text-anchor="middle" x="808.5" y="-125" font-family="Helvetica,sans-Serif" font-size="10.00"> _log</text>
</g>
<!-- Node6 -->
<g id="node6" class="node">
<title>Node6</title>
<g id="a_node6"><a xlink:title=" ">
<polygon fill="white" stroke="#bfbfbf" points="345,-119 345,-149 515,-149 515,-119 345,-119"/>
<text text-anchor="start" x="353" y="-137" font-family="Helvetica,sans-Serif" font-size="10.00">std::unique_ptr&lt; precice</text>
<text text-anchor="middle" x="430" y="-126" font-family="Helvetica,sans-Serif" font-size="10.00">::logging::Logger::LoggerImpl &gt;</text>
</a>
</g>
</g>
<!-- Node6&#45;&gt;Node5 -->
<g id="edge5" class="edge">
<title>Node6&#45;&gt;Node5</title>
<path fill="none" stroke="#9a32cd" stroke-dasharray="5,2" d="M525.37,-134.81C549.94,-135.02 575.89,-135.24 598.64,-135.44"/>
<polygon fill="#9a32cd" stroke="#9a32cd" points="525.33,-131.31 515.3,-134.72 525.27,-138.31 525.33,-131.31"/>
<text text-anchor="middle" x="553" y="-138" font-family="Helvetica,sans-Serif" font-size="10.00"> _impl</text>
</g>
<!-- Node7 -->
<g id="node7" class="node">
<title>Node7</title>
<g id="a_node7"><a xlink:href="classprecice_1_1logging_1_1Logger_1_1LoggerImpl.html" target="_top" xlink:title=" ">
<polygon fill="white" stroke="black" points="159,-119 159,-149 292,-149 292,-119 159,-119"/>
<text text-anchor="start" x="167" y="-137" font-family="Helvetica,sans-Serif" font-size="10.00">precice::logging::Logger</text>
<text text-anchor="middle" x="225.5" y="-126" font-family="Helvetica,sans-Serif" font-size="10.00">::LoggerImpl</text>
</a>
</g>
</g>
<!-- Node7&#45;&gt;Node6 -->
<g id="edge6" class="edge">
<title>Node7&#45;&gt;Node6</title>
<path fill="none" stroke="#9a32cd" stroke-dasharray="5,2" d="M302.62,-134C316.37,-134 330.78,-134 344.75,-134"/>
<polygon fill="#9a32cd" stroke="#9a32cd" points="302.25,-130.5 292.25,-134 302.25,-137.5 302.25,-130.5"/>
<text text-anchor="middle" x="318.5" y="-137" font-family="Helvetica,sans-Serif" font-size="10.00"> ptr</text>
</g>
<!-- Node8 -->
<g id="node8" class="node">
<title>Node8</title>
<g id="a_node8"><a xlink:title=" ">
<polygon fill="white" stroke="#bfbfbf" points="0,-119 0,-149 122,-149 122,-119 0,-119"/>
<text text-anchor="start" x="8" y="-137" font-family="Helvetica,sans-Serif" font-size="10.00">BoostLogger&lt; Logger</text>
<text text-anchor="middle" x="61" y="-126" font-family="Helvetica,sans-Serif" font-size="10.00">::LoggerImpl &gt;</text>
</a>
</g>
</g>
<!-- Node8&#45;&gt;Node7 -->
<g id="edge7" class="edge">
<title>Node8&#45;&gt;Node7</title>
<path fill="none" stroke="midnightblue" d="M132.33,-134C141.17,-134 150.19,-134 158.96,-134"/>
<polygon fill="midnightblue" stroke="midnightblue" points="132.05,-130.5 122.05,-134 132.05,-137.5 132.05,-130.5"/>
</g>
<!-- Node9 -->
<g id="node9" class="node">
<title>Node9</title>
<g id="a_node9"><a xlink:title=" ">
<polygon fill="white" stroke="#bfbfbf" points="612,-77 612,-107 719,-107 719,-77 612,-77"/>
<text text-anchor="start" x="620" y="-95" font-family="Helvetica,sans-Serif" font-size="10.00">std::vector&lt; Eigen</text>
<text text-anchor="middle" x="665.5" y="-84" font-family="Helvetica,sans-Serif" font-size="10.00">::VectorXd &gt;</text>
</a>
</g>
</g>
<!-- Node9&#45;&gt;Node2 -->
<g id="edge8" class="edge">
<title>Node9&#45;&gt;Node2</title>
<path fill="none" stroke="#9a32cd" stroke-dasharray="5,2" d="M729.42,-92C773.12,-92 831.42,-92 876.9,-92"/>
<polygon fill="#9a32cd" stroke="#9a32cd" points="729.21,-88.5 719.21,-92 729.21,-95.5 729.21,-88.5"/>
<text text-anchor="middle" x="808.5" y="-95" font-family="Helvetica,sans-Serif" font-size="10.00"> _offsetsMatched</text>
</g>
<!-- Node10 -->
<g id="node10" class="node">
<title>Node10</title>
<g id="a_node10"><a xlink:title="STL class.">
<polygon fill="white" stroke="#bfbfbf" points="633,-38.5 633,-57.5 698,-57.5 698,-38.5 633,-38.5"/>
<text text-anchor="middle" x="665.5" y="-45.5" font-family="Helvetica,sans-Serif" font-size="10.00">std::string</text>
</a>
</g>
</g>
<!-- Node10&#45;&gt;Node2 -->
<g id="edge9" class="edge">
<title>Node10&#45;&gt;Node2</title>
<path fill="none" stroke="#9a32cd" stroke-dasharray="5,2" d="M708.33,-49.63C747.54,-51.69 807.65,-56.23 859,-66 873.46,-68.75 888.96,-72.83 902.91,-76.95"/>
<polygon fill="#9a32cd" stroke="#9a32cd" points="708.26,-46.12 698.1,-49.12 707.91,-53.11 708.26,-46.12"/>
<text text-anchor="middle" x="808.5" y="-80" font-family="Helvetica,sans-Serif" font-size="10.00"> mappingNameShort</text>
<text text-anchor="middle" x="808.5" y="-69" font-family="Helvetica,sans-Serif" font-size="10.00">mappingName</text>
</g>
<!-- Node11 -->
<g id="node11" class="node">
<title>Node11</title>
<g id="a_node11"><a xlink:title="STL class.">
<polygon fill="white" stroke="#bfbfbf" points="378,-33 378,-63 482,-63 482,-33 378,-33"/>
<text text-anchor="start" x="386" y="-51" font-family="Helvetica,sans-Serif" font-size="10.00">std::basic_string&lt;</text>
<text text-anchor="middle" x="430" y="-40" font-family="Helvetica,sans-Serif" font-size="10.00"> char &gt;</text>
</a>
</g>
</g>
<!-- Node11&#45;&gt;Node10 -->
<g id="edge10" class="edge">
<title>Node11&#45;&gt;Node10</title>
<path fill="none" stroke="midnightblue" d="M492.49,-48C537.54,-48 596.85,-48 632.75,-48"/>
<polygon fill="midnightblue" stroke="midnightblue" points="492.24,-44.5 482.24,-48 492.24,-51.5 492.24,-44.5"/>
</g>
<!-- Node12 -->
<g id="node12" class="node">
<title>Node12</title>
<g id="a_node12"><a xlink:title=" ">
<polygon fill="white" stroke="#bfbfbf" points="613.5,-0.5 613.5,-19.5 717.5,-19.5 717.5,-0.5 613.5,-0.5"/>
<text text-anchor="middle" x="665.5" y="-7.5" font-family="Helvetica,sans-Serif" font-size="10.00">std::vector&lt; int &gt;</text>
</a>
</g>
</g>
<!-- Node12&#45;&gt;Node2 -->
<g id="edge11" class="edge">
<title>Node12&#45;&gt;Node2</title>
<path fill="none" stroke="#9a32cd" stroke-dasharray="5,2" d="M727.73,-12.69C766.32,-15.89 816.68,-22.85 859,-38 884.8,-47.23 911.3,-64.36 928.7,-76.86"/>
<polygon fill="#9a32cd" stroke="#9a32cd" points="727.92,-9.2 717.68,-11.92 727.39,-16.18 727.92,-9.2"/>
<text text-anchor="middle" x="808.5" y="-41" font-family="Helvetica,sans-Serif" font-size="10.00"> _vertexIndices</text>
</g>
</g>
</svg>
        <g id="navigator" transform="translate(0 0)" fill="#404254">
                <rect fill="#f2f5e9" fill-opacity="0.5" stroke="#606060" stroke-width=".5" x="0" y="0" width="60" height="60"/>
                <use id="zoomplus" xlink:href="#zoomPlus" x="17" y="9" onmousedown="handleZoom(evt,'in')"/>
                <use id="zoomminus" xlink:href="#zoomMin" x="42" y="9" onmousedown="handleZoom(evt,'out')"/>
                <use id="reset" xlink:href="#resetDef" x="30" y="36" onmousedown="handleReset()"/>
                <g id="arrowUp" xlink:href="#dirArrow" transform="translate(30 24)" onmousedown="handlePan(0,-1)">
                  <use xlink:href="#rim" fill="#404040">
                        <set attributeName="fill" to="#808080" begin="arrowUp.mouseover" end="arrowUp.mouseout"/>
                  </use>
                  <path fill="none" stroke="white" stroke-width="1.5" d="M0,-3.0v7 M-2.5,-0.5L0,-3.0L2.5,-0.5"/>
                </g>
                <g id="arrowRight" xlink:href="#dirArrow" transform="rotate(90) translate(36 -43)" onmousedown="handlePan(1,0)">
                  <use xlink:href="#rim" fill="#404040">
                        <set attributeName="fill" to="#808080" begin="arrowRight.mouseover" end="arrowRight.mouseout"/>
                  </use>
                  <path fill="none" stroke="white" stroke-width="1.5" d="M0,-3.0v7 M-2.5,-0.5L0,-3.0L2.5,-0.5"/>
                </g>
                <g id="arrowDown" xlink:href="#dirArrow" transform="rotate(180) translate(-30 -48)" onmousedown="handlePan(0,1)">
                  <use xlink:href="#rim" fill="#404040">
                        <set attributeName="fill" to="#808080" begin="arrowDown.mouseover" end="arrowDown.mouseout"/>
                  </use>
                  <path fill="none" stroke="white" stroke-width="1.5" d="M0,-3.0v7 M-2.5,-0.5L0,-3.0L2.5,-0.5"/>
                </g>
                <g id="arrowLeft" xlink:href="#dirArrow" transform="rotate(270) translate(-36 17)" onmousedown="handlePan(-1,0)">
                  <use xlink:href="#rim" fill="#404040">
                        <set attributeName="fill" to="#808080" begin="arrowLeft.mouseover" end="arrowLeft.mouseout"/>
                  </use>
                  <path fill="none" stroke="white" stroke-width="1.5" d="M0,-3.0v7 M-2.5,-0.5L0,-3.0L2.5,-0.5"/>
                </g>
        </g>
        <svg viewBox="0 0 15 15" width="100%" height="30px" preserveAspectRatio="xMaxYMin meet">
         <g id="arrow_out" transform="scale(0.3 0.3)">
          <a xlink:href="classprecice_1_1mapping_1_1NearestNeighborGradientMapping__coll__graph_org.svg" target="_base">
           <rect id="button" ry="5" rx="5" y="6" x="6" height="38" width="38"
                fill="#f2f5e9" fill-opacity="0.5" stroke="#606060" stroke-width="1.0"/>
           <path id="arrow"
             d="M 11.500037,31.436501 C 11.940474,20.09759 22.043105,11.32322 32.158766,21.979434 L 37.068811,17.246167 C 37.068811,17.246167 37.088388,32 37.088388,32 L 22.160133,31.978069 C 22.160133,31.978069 26.997745,27.140456 26.997745,27.140456 C 18.528582,18.264221 13.291696,25.230495 11.500037,31.436501 z"
             style="fill:#404040;"/>
          </a>
         </g>
        </svg>
</svg>
