<?xml version="1.0" encoding="UTF-8" standalone="no"?>
<!DOCTYPE svg PUBLIC "-//W3C//DTD SVG 1.1//EN"
 "http://www.w3.org/Graphics/SVG/1.1/DTD/svg11.dtd">
<!-- Generated by graphviz version 2.43.0 (0)
 -->
<!-- Title: src/mesh/tests Pages: 1 -->
<svg width="262pt" height="439pt"
 viewBox="0.00 0.00 261.51 439.00" xmlns="http://www.w3.org/2000/svg" xmlns:xlink="http://www.w3.org/1999/xlink">
<g id="graph0" class="graph" transform="scale(1 1) rotate(0) translate(4 435)">
<title>src/mesh/tests</title>
<polygon fill="white" stroke="transparent" points="-4,4 -4,-435 257.51,-435 257.51,4 -4,4"/>
<g id="clust1" class="cluster">
<title>clusterdir_7be0d8c199b9408ae01f5d77515b8def</title>
<g id="a_clust1"><a xlink:href="dir_7be0d8c199b9408ae01f5d77515b8def.html" target="_top" xlink:title="mesh">
<polygon fill="#ddddee" stroke="black" points="114,-352 114,-423 184,-423 184,-352 114,-352"/>
<text text-anchor="middle" x="149" y="-411" font-family="Helvetica,sans-Serif" font-size="10.00">mesh</text>
</a>
</g>
</g>
<!-- dir_0e4b0aca39e38dbe1a3f6d3ba0954a28 -->
<g id="node1" class="node">
<title>dir_0e4b0aca39e38dbe1a3f6d3ba0954a28</title>
<g id="a_node1"><a xlink:href="dir_0e4b0aca39e38dbe1a3f6d3ba0954a28.html" target="_top" xlink:title="tests">
<polygon fill="#eeeeff" stroke="black" points="176,-396 122,-396 122,-360 176,-360 176,-396"/>
<text text-anchor="middle" x="149" y="-375.5" font-family="Helvetica,sans-Serif" font-size="10.00">tests</text>
</a>
</g>
</g>
<!-- dir_c43b215a2ade73e6562bd37d8a11c12a -->
<g id="node2" class="node">
<title>dir_c43b215a2ade73e6562bd37d8a11c12a</title>
<g id="a_node2"><a xlink:href="dir_c43b215a2ade73e6562bd37d8a11c12a.html" target="_top" xlink:title="xml">
<polygon fill="white" stroke="red" points="176,-252 122,-252 122,-216 176,-216 176,-252"/>
<text text-anchor="middle" x="149" y="-231.5" font-family="Helvetica,sans-Serif" font-size="10.00">xml</text>
</a>
</g>
</g>
<!-- dir_0e4b0aca39e38dbe1a3f6d3ba0954a28&#45;&gt;dir_c43b215a2ade73e6562bd37d8a11c12a -->
<g id="edge1" class="edge">
<title>dir_0e4b0aca39e38dbe1a3f6d3ba0954a28&#45;&gt;dir_c43b215a2ade73e6562bd37d8a11c12a</title>
<path fill="none" stroke="black" d="M149,-359.87C149,-335.67 149,-291.21 149,-262.39"/>
<polygon fill="black" stroke="black" points="152.5,-262.19 149,-252.19 145.5,-262.19 152.5,-262.19"/>
<g id="a_edge1&#45;headlabel"><a xlink:href="dir_000050_000063.html" target="_top" xlink:title="1">
<text text-anchor="middle" x="155.34" y="-263.28" font-family="Helvetica,sans-Serif" font-size="10.00">1</text>
</a>
</g>
</g>
<!-- dir_b32a0cd14f9ed55feb91267026223a7f -->
<g id="node3" class="node">
<title>dir_b32a0cd14f9ed55feb91267026223a7f</title>
<g id="a_node3"><a xlink:href="dir_b32a0cd14f9ed55feb91267026223a7f.html" target="_top" xlink:title="config">
<polygon fill="none" stroke="black" points="231,-324 177,-324 177,-288 231,-288 231,-324"/>
<text text-anchor="middle" x="204" y="-303.5" font-family="Helvetica,sans-Serif" font-size="10.00">config</text>
</a>
</g>
</g>
<!-- dir_0e4b0aca39e38dbe1a3f6d3ba0954a28&#45;&gt;dir_b32a0cd14f9ed55feb91267026223a7f -->
<g id="edge2" class="edge">
<title>dir_0e4b0aca39e38dbe1a3f6d3ba0954a28&#45;&gt;dir_b32a0cd14f9ed55feb91267026223a7f</title>
<path fill="none" stroke="black" d="M162.6,-359.7C169.12,-351.39 177.07,-341.28 184.25,-332.14"/>
<polygon fill="black" stroke="black" points="187.13,-334.13 190.56,-324.1 181.63,-329.81 187.13,-334.13"/>
<g id="a_edge2&#45;headlabel"><a xlink:href="dir_000050_000049.html" target="_top" xlink:title="1">
<text text-anchor="middle" x="187.15" y="-336.21" font-family="Helvetica,sans-Serif" font-size="10.00">1</text>
</a>
</g>
</g>
<!-- dir_3513c77e68d0de165c8b48f945306dcb -->
<g id="node4" class="node">
<title>dir_3513c77e68d0de165c8b48f945306dcb</title>
<g id="a_node4"><a xlink:href="dir_3513c77e68d0de165c8b48f945306dcb.html" target="_top" xlink:title="testing">
<polygon fill="white" stroke="red" points="82,-180 28,-180 28,-144 82,-144 82,-180"/>
<text text-anchor="middle" x="55" y="-159.5" font-family="Helvetica,sans-Serif" font-size="10.00">testing</text>
</a>
</g>
</g>
<!-- dir_0e4b0aca39e38dbe1a3f6d3ba0954a28&#45;&gt;dir_3513c77e68d0de165c8b48f945306dcb -->
<g id="edge3" class="edge">
<title>dir_0e4b0aca39e38dbe1a3f6d3ba0954a28&#45;&gt;dir_3513c77e68d0de165c8b48f945306dcb</title>
<path fill="none" stroke="black" d="M141.47,-359.85C125.1,-322.6 86.22,-234.07 66.66,-189.54"/>
<polygon fill="black" stroke="black" points="69.8,-187.98 62.57,-180.23 63.39,-190.8 69.8,-187.98"/>
<g id="a_edge3&#45;headlabel"><a xlink:href="dir_000050_000036.html" target="_top" xlink:title="17">
<text text-anchor="middle" x="73.84" y="-187.63" font-family="Helvetica,sans-Serif" font-size="10.00">17</text>
</a>
</g>
</g>
<!-- dir_b3320b59a4aa4a7431bc8488b87009bf -->
<g id="node5" class="node">
<title>dir_b3320b59a4aa4a7431bc8488b87009bf</title>
<g id="a_node5"><a xlink:href="dir_b3320b59a4aa4a7431bc8488b87009bf.html" target="_top" xlink:title="logging">
<polygon fill="white" stroke="red" points="192,-108 138,-108 138,-72 192,-72 192,-108"/>
<text text-anchor="middle" x="165" y="-87.5" font-family="Helvetica,sans-Serif" font-size="10.00">logging</text>
</a>
</g>
</g>
<!-- dir_0e4b0aca39e38dbe1a3f6d3ba0954a28&#45;&gt;dir_b3320b59a4aa4a7431bc8488b87009bf -->
<g id="edge4" class="edge">
<title>dir_0e4b0aca39e38dbe1a3f6d3ba0954a28&#45;&gt;dir_b3320b59a4aa4a7431bc8488b87009bf</title>
<path fill="none" stroke="black" d="M176.29,-369.34C197.82,-361.7 226.42,-347.62 240,-324 280.09,-254.26 219.88,-160.26 185.79,-116.01"/>
<polygon fill="black" stroke="black" points="188.49,-113.78 179.55,-108.09 182.99,-118.11 188.49,-113.78"/>
<g id="a_edge4&#45;headlabel"><a xlink:href="dir_000050_000039.html" target="_top" xlink:title="8">
<text text-anchor="middle" x="192.94" y="-112.35" font-family="Helvetica,sans-Serif" font-size="10.00">8</text>
</a>
</g>
</g>
<!-- dir_313caf1132e152dd9b58bea13a4052ca -->
<g id="node6" class="node">
<title>dir_313caf1132e152dd9b58bea13a4052ca</title>
<g id="a_node6"><a xlink:href="dir_313caf1132e152dd9b58bea13a4052ca.html" target="_top" xlink:title="utils">
<polygon fill="white" stroke="red" points="137,-36 83,-36 83,0 137,0 137,-36"/>
<text text-anchor="middle" x="110" y="-15.5" font-family="Helvetica,sans-Serif" font-size="10.00">utils</text>
</a>
</g>
</g>
<!-- dir_0e4b0aca39e38dbe1a3f6d3ba0954a28&#45;&gt;dir_313caf1132e152dd9b58bea13a4052ca -->
<g id="edge5" class="edge">
<title>dir_0e4b0aca39e38dbe1a3f6d3ba0954a28&#45;&gt;dir_313caf1132e152dd9b58bea13a4052ca</title>
<path fill="none" stroke="black" d="M121.67,-365.86C78.66,-346.31 0,-301.47 0,-235 0,-235 0,-235 0,-161 0,-110.76 43.56,-67.52 75.86,-42.36"/>
<polygon fill="black" stroke="black" points="78.34,-44.88 84.21,-36.06 74.12,-39.29 78.34,-44.88"/>
<g id="a_edge5&#45;headlabel"><a xlink:href="dir_000050_000061.html" target="_top" xlink:title="1">
<text text-anchor="middle" x="77.18" y="-46.81" font-family="Helvetica,sans-Serif" font-size="10.00">1</text>
</a>
</g>
</g>
<!-- dir_c43b215a2ade73e6562bd37d8a11c12a&#45;&gt;dir_3513c77e68d0de165c8b48f945306dcb -->
<g id="edge6" class="edge">
<title>dir_c43b215a2ade73e6562bd37d8a11c12a&#45;&gt;dir_3513c77e68d0de165c8b48f945306dcb</title>
<path fill="none" stroke="black" d="M125.76,-215.7C113.81,-206.8 99.08,-195.82 86.15,-186.2"/>
<polygon fill="black" stroke="black" points="88.08,-183.27 77.97,-180.1 83.9,-188.88 88.08,-183.27"/>
<g id="a_edge6&#45;headlabel"><a xlink:href="dir_000063_000036.html" target="_top" xlink:title="6">
<text text-anchor="middle" x="92.66" y="-180.64" font-family="Helvetica,sans-Serif" font-size="10.00">6</text>
</a>
</g>
</g>
<!-- dir_c43b215a2ade73e6562bd37d8a11c12a&#45;&gt;dir_b3320b59a4aa4a7431bc8488b87009bf -->
<g id="edge7" class="edge">
<title>dir_c43b215a2ade73e6562bd37d8a11c12a&#45;&gt;dir_b3320b59a4aa4a7431bc8488b87009bf</title>
<path fill="none" stroke="black" d="M146.35,-215.87C146.51,-191.56 151.27,-146.82 156.52,-118.01"/>
<polygon fill="black" stroke="black" points="159.96,-118.68 158.47,-108.19 153.09,-117.32 159.96,-118.68"/>
<g id="a_edge7&#45;headlabel"><a xlink:href="dir_000063_000039.html" target="_top" xlink:title="6">
<text text-anchor="middle" x="162.05" y="-120.26" font-family="Helvetica,sans-Serif" font-size="10.00">6</text>
</a>
</g>
</g>
<!-- dir_c43b215a2ade73e6562bd37d8a11c12a&#45;&gt;dir_313caf1132e152dd9b58bea13a4052ca -->
<g id="edge8" class="edge">
<title>dir_c43b215a2ade73e6562bd37d8a11c12a&#45;&gt;dir_313caf1132e152dd9b58bea13a4052ca</title>
<path fill="none" stroke="black" d="M145.87,-215.85C139.11,-178.75 123.09,-90.81 114.94,-46.1"/>
<polygon fill="black" stroke="black" points="118.38,-45.44 113.14,-36.23 111.49,-46.7 118.38,-45.44"/>
<g id="a_edge8&#45;headlabel"><a xlink:href="dir_000063_000061.html" target="_top" xlink:title="7">
<text text-anchor="middle" x="121.81" y="-45.97" font-family="Helvetica,sans-Serif" font-size="10.00">7</text>
</a>
</g>
</g>
<!-- dir_b32a0cd14f9ed55feb91267026223a7f&#45;&gt;dir_c43b215a2ade73e6562bd37d8a11c12a -->
<g id="edge9" class="edge">
<title>dir_b32a0cd14f9ed55feb91267026223a7f&#45;&gt;dir_c43b215a2ade73e6562bd37d8a11c12a</title>
<path fill="none" stroke="black" d="M190.4,-287.7C183.88,-279.39 175.93,-269.28 168.75,-260.14"/>
<polygon fill="black" stroke="black" points="171.37,-257.81 162.44,-252.1 165.87,-262.13 171.37,-257.81"/>
<g id="a_edge9&#45;headlabel"><a xlink:href="dir_000049_000063.html" target="_top" xlink:title="6">
<text text-anchor="middle" x="175.82" y="-256.38" font-family="Helvetica,sans-Serif" font-size="10.00">6</text>
</a>
</g>
</g>
<!-- dir_b32a0cd14f9ed55feb91267026223a7f&#45;&gt;dir_b3320b59a4aa4a7431bc8488b87009bf -->
<g id="edge10" class="edge">
<title>dir_b32a0cd14f9ed55feb91267026223a7f&#45;&gt;dir_b3320b59a4aa4a7431bc8488b87009bf</title>
<path fill="none" stroke="black" d="M202.18,-287.95C198.88,-258.42 191.17,-195.94 180,-144 178.14,-135.36 175.67,-126.05 173.27,-117.68"/>
<polygon fill="black" stroke="black" points="176.61,-116.65 170.42,-108.05 169.9,-118.63 176.61,-116.65"/>
<g id="a_edge10&#45;headlabel"><a xlink:href="dir_000049_000039.html" target="_top" xlink:title="4">
<text text-anchor="middle" x="180.35" y="-116.79" font-family="Helvetica,sans-Serif" font-size="10.00">4</text>
</a>
</g>
</g>
<!-- dir_b32a0cd14f9ed55feb91267026223a7f&#45;&gt;dir_313caf1132e152dd9b58bea13a4052ca -->
<g id="edge11" class="edge">
<title>dir_b32a0cd14f9ed55feb91267026223a7f&#45;&gt;dir_313caf1132e152dd9b58bea13a4052ca</title>
<path fill="none" stroke="black" d="M209.27,-287.88C220.76,-246.99 243.78,-141.86 201,-72 188.86,-52.17 166.32,-38.96 146.71,-30.69"/>
<polygon fill="black" stroke="black" points="147.97,-27.42 137.38,-27.02 145.4,-33.94 147.97,-27.42"/>
<g id="a_edge11&#45;headlabel"><a xlink:href="dir_000049_000061.html" target="_top" xlink:title="5">
<text text-anchor="middle" x="152.35" y="-23.6" font-family="Helvetica,sans-Serif" font-size="10.00">5</text>
</a>
</g>
</g>
<!-- dir_3513c77e68d0de165c8b48f945306dcb&#45;&gt;dir_b3320b59a4aa4a7431bc8488b87009bf -->
<g id="edge12" class="edge">
<title>dir_3513c77e68d0de165c8b48f945306dcb&#45;&gt;dir_b3320b59a4aa4a7431bc8488b87009bf</title>
<path fill="none" stroke="black" d="M81.91,-143.88C96.16,-134.81 113.85,-123.55 129.24,-113.76"/>
<polygon fill="black" stroke="black" points="131.43,-116.51 137.99,-108.19 127.67,-110.61 131.43,-116.51"/>
<g id="a_edge12&#45;headlabel"><a xlink:href="dir_000036_000039.html" target="_top" xlink:title="5">
<text text-anchor="middle" x="129.92" y="-118.34" font-family="Helvetica,sans-Serif" font-size="10.00">5</text>
</a>
</g>
</g>
<!-- dir_3513c77e68d0de165c8b48f945306dcb&#45;&gt;dir_313caf1132e152dd9b58bea13a4052ca -->
<g id="edge13" class="edge">
<title>dir_3513c77e68d0de165c8b48f945306dcb&#45;&gt;dir_313caf1132e152dd9b58bea13a4052ca</title>
<path fill="none" stroke="black" d="M57.05,-143.87C63.96,-119.35 81.24,-74.03 94.45,-45.26"/>
<polygon fill="black" stroke="black" points="97.63,-46.72 98.75,-36.19 91.3,-43.72 97.63,-46.72"/>
<g id="a_edge13&#45;headlabel"><a xlink:href="dir_000036_000061.html" target="_top" xlink:title="11">
<text text-anchor="middle" x="98.65" y="-48.69" font-family="Helvetica,sans-Serif" font-size="10.00">11</text>
</a>
</g>
</g>
<!-- dir_b3320b59a4aa4a7431bc8488b87009bf&#45;&gt;dir_c43b215a2ade73e6562bd37d8a11c12a -->
<g id="edge14" class="edge">
<title>dir_b3320b59a4aa4a7431bc8488b87009bf&#45;&gt;dir_c43b215a2ade73e6562bd37d8a11c12a</title>
<path fill="none" stroke="black" d="M167.65,-108.19C167.48,-132.53 162.71,-177.28 157.46,-206.06"/>
<polygon fill="black" stroke="black" points="154.03,-205.38 155.51,-215.87 160.9,-206.74 154.03,-205.38"/>
<g id="a_edge14&#45;headlabel"><a xlink:href="dir_000039_000063.html" target="_top" xlink:title="3">
<text text-anchor="middle" x="151.94" y="-198.8" font-family="Helvetica,sans-Serif" font-size="10.00">3</text>
</a>
</g>
</g>
<!-- dir_b3320b59a4aa4a7431bc8488b87009bf&#45;&gt;dir_313caf1132e152dd9b58bea13a4052ca -->
<g id="edge15" class="edge">
<title>dir_b3320b59a4aa4a7431bc8488b87009bf&#45;&gt;dir_313caf1132e152dd9b58bea13a4052ca</title>
<path fill="none" stroke="black" d="M145.49,-71.7C138.18,-63.47 130.13,-53.48 123.45,-44.42"/>
<polygon fill="black" stroke="black" points="126.19,-42.23 117.54,-36.1 120.48,-46.28 126.19,-42.23"/>
<g id="a_edge15&#45;headlabel"><a xlink:href="dir_000039_000061.html" target="_top" xlink:title="5">
<text text-anchor="middle" x="130.59" y="-41.01" font-family="Helvetica,sans-Serif" font-size="10.00">5</text>
</a>
</g>
</g>
<!-- dir_313caf1132e152dd9b58bea13a4052ca&#45;&gt;dir_3513c77e68d0de165c8b48f945306dcb -->
<g id="edge16" class="edge">
<title>dir_313caf1132e152dd9b58bea13a4052ca&#45;&gt;dir_3513c77e68d0de165c8b48f945306dcb</title>
<path fill="none" stroke="black" d="M107.93,-36.19C101.01,-60.74 83.72,-106.07 70.52,-134.81"/>
<polygon fill="black" stroke="black" points="67.34,-133.34 66.22,-143.87 73.67,-136.34 67.34,-133.34"/>
<g id="a_edge16&#45;headlabel"><a xlink:href="dir_000061_000036.html" target="_top" xlink:title="17">
<text text-anchor="middle" x="66.32" y="-126.37" font-family="Helvetica,sans-Serif" font-size="10.00">17</text>
</a>
</g>
</g>
<!-- dir_313caf1132e152dd9b58bea13a4052ca&#45;&gt;dir_b3320b59a4aa4a7431bc8488b87009bf -->
<g id="edge17" class="edge">
<title>dir_313caf1132e152dd9b58bea13a4052ca&#45;&gt;dir_b3320b59a4aa4a7431bc8488b87009bf</title>
<path fill="none" stroke="black" d="M129.33,-36.1C136.63,-44.3 144.69,-54.28 151.38,-63.36"/>
<polygon fill="black" stroke="black" points="148.67,-65.58 157.32,-71.7 154.37,-61.52 148.67,-65.58"/>
<g id="a_edge17&#45;headlabel"><a xlink:href="dir_000061_000039.html" target="_top" xlink:title="9">
<text text-anchor="middle" x="144.27" y="-61.8" font-family="Helvetica,sans-Serif" font-size="10.00">9</text>
</a>
</g>
</g>
</g>
</svg>
