<?xml version="1.0" encoding="UTF-8" standalone="no"?>
<!DOCTYPE svg PUBLIC "-//W3C//DTD SVG 1.1//EN"
 "http://www.w3.org/Graphics/SVG/1.1/DTD/svg11.dtd">
<!-- Generated by graphviz version 2.43.0 (0)
 -->
<!-- Title: main Pages: 1 -->
<!--zoomable 547 -->

<svg id="main" version="1.1" xmlns="http://www.w3.org/2000/svg" xmlns:xlink="http://www.w3.org/1999/xlink" xml:space="preserve" onload="init(evt)">

<style type="text/css"><![CDATA[
.node, .edge {opacity: 0.7;}
.node.selected, .edge.selected {opacity: 1;}
.edge:hover path { stroke: red; }
.edge:hover polygon { stroke: red; fill: red; }
]]></style>

<defs>
  <circle id="rim" cx="0" cy="0" r="7"/>
  <circle id="rim2" cx="0" cy="0" r="3.5"/>
  <g id="zoomPlus">
    <use xlink:href="#rim" fill="#404040"><set attributeName="fill" to="#808080" begin="zoomplus.mouseover" end="zoomplus.mouseout"/></use>
    <path d="M-4,0h8M0,-4v8" fill="none" stroke="white" stroke-width="1.5" pointer-events="none"/>
  </g>
  <g id="zoomMin">
    <use xlink:href="#rim" fill="#404040"><set attributeName="fill" to="#808080" begin="zoomminus.mouseover" end="zoomminus.mouseout"/></use>
    <path d="M-4,0h8" fill="none" stroke="white" stroke-width="1.5" pointer-events="none"/>
  </g>
  <g id="arrowUp" transform="translate(30 24)">
    <use xlink:href="#rim"/>
    <path pointer-events="none" fill="none" stroke="white" stroke-width="1.5" d="M0,-3.0v7 M-2.5,-0.5L0,-3.0L2.5,-0.5"/>
  </g>
  <g id="arrowRight" transform="rotate(90) translate(36 -43)">
    <use xlink:href="#rim"/>
    <path pointer-events="none" fill="none" stroke="white" stroke-width="1.5" d="M0,-3.0v7 M-2.5,-0.5L0,-3.0L2.5,-0.5"/>
  </g>
  <g id="arrowDown" transform="rotate(180) translate(-30 -48)">
    <use xlink:href="#rim"/>
    <path pointer-events="none" fill="none" stroke="white" stroke-width="1.5" d="M0,-3.0v7 M-2.5,-0.5L0,-3.0L2.5,-0.5"/>
  </g>
  <g id="arrowLeft" transform="rotate(270) translate(-36 17)">
    <use xlink:href="#rim"/>
    <path pointer-events="none" fill="none" stroke="white" stroke-width="1.5" d="M0,-3.0v7 M-2.5,-0.5L0,-3.0L2.5,-0.5"/>
  </g>
  <g id="resetDef">
    <use xlink:href="#rim2" fill="#404040"><set attributeName="fill" to="#808080" begin="reset.mouseover" end="reset.mouseout"/></use>
  </g>
</defs>
<script type="application/ecmascript">
var viewWidth = 1293;
var viewHeight = 547;
var sectionId = 'dynsection-1';
</script>
<script type="application/ecmascript" xlink:href="svg.min.js"/>
<svg id="graph" class="graph">
<g id="viewport">
<title>main</title>
<!-- Node1 -->
<g id="Node000001" class="node">
<title>Node1</title>
<g id="a_Node000001"><a xlink:title=" ">
<polygon fill="#999999" stroke="#666666" points="41,-111 0,-111 0,-92 41,-92 41,-111"/>
<text text-anchor="middle" x="20.5" y="-99" font-family="Helvetica,sans-Serif" font-size="10.00">main</text>
</a>
</g>
</g>
<!-- Node2 -->
<g id="Node000002" class="node">
<title>Node2</title>
<g id="a_Node000002"><a xlink:href="namespaceprecice_1_1tooling.html#a7d9c5a75a70c94b067aab47bbf64d0f7" target="_top" xlink:title="Checks a given configuration.">
<polygon fill="white" stroke="#666666" points="268,-295 77,-295 77,-276 268,-276 268,-295"/>
<text text-anchor="middle" x="172.5" y="-283" font-family="Helvetica,sans-Serif" font-size="10.00">precice::tooling::checkConfiguration</text>
</a>
</g>
</g>
<!-- Node1&#45;&gt;Node2 -->
<g id="edge1_Node000001_Node000002" class="edge">
<title>Node1&#45;&gt;Node2</title>
<g id="a_edge1_Node000001_Node000002"><a xlink:title=" ">
<path fill="none" stroke="#63b8ff" d="M29.35,-111.13C53.35,-140.57 125.96,-229.64 157.09,-267.82"/>
<polygon fill="#63b8ff" stroke="#63b8ff" points="154.69,-270.42 163.72,-275.96 160.12,-266 154.69,-270.42"/>
</a>
</g>
</g>
<!-- Node25 -->
<g id="Node000025" class="node">
<title>Node25</title>
<g id="a_Node000025"><a xlink:href="namespaceprecice.html#a8630eb212dd00074f632c73f21e7b563" target="_top" xlink:title="Returns information on the version of preCICE.">
<polygon fill="white" stroke="#666666" points="256,-154 89,-154 89,-135 256,-135 256,-154"/>
<text text-anchor="middle" x="172.5" y="-142" font-family="Helvetica,sans-Serif" font-size="10.00">precice::getVersionInformation</text>
</a>
</g>
</g>
<!-- Node1&#45;&gt;Node25 -->
<g id="edge31_Node000001_Node000025" class="edge">
<title>Node1&#45;&gt;Node25</title>
<g id="a_edge31_Node000001_Node000025"><a xlink:title=" ">
<path fill="none" stroke="#63b8ff" d="M40.9,-111.08C51.38,-115.95 64.68,-121.64 77,-125.5 85.68,-128.22 94.93,-130.64 104.12,-132.76"/>
<polygon fill="#63b8ff" stroke="#63b8ff" points="103.52,-136.21 114.04,-134.95 105.03,-129.38 103.52,-136.21"/>
</a>
</g>
</g>
<!-- Node26 -->
<g id="Node000026" class="node">
<title>Node26</title>
<g id="a_Node000026"><a xlink:href="namespaceprecice_1_1tooling.html#a091a02a1fec0dd96c2c742d934b33314" target="_top" xlink:title="Generates a configuration reference.">
<polygon fill="white" stroke="#666666" points="248,-116.5 97,-116.5 97,-86.5 248,-86.5 248,-116.5"/>
<text text-anchor="start" x="105" y="-104.5" font-family="Helvetica,sans-Serif" font-size="10.00">precice::tooling::printConfig</text>
<text text-anchor="middle" x="172.5" y="-93.5" font-family="Helvetica,sans-Serif" font-size="10.00">Reference</text>
</a>
</g>
</g>
<!-- Node1&#45;&gt;Node26 -->
<g id="edge32_Node000001_Node000026" class="edge">
<title>Node1&#45;&gt;Node26</title>
<g id="a_edge32_Node000001_Node000026"><a xlink:title=" ">
<path fill="none" stroke="#63b8ff" d="M41.11,-101.5C53.19,-101.5 69.61,-101.5 86.71,-101.5"/>
<polygon fill="#63b8ff" stroke="#63b8ff" points="86.84,-105 96.84,-101.5 86.84,-98 86.84,-105"/>
</a>
</g>
</g>
<!-- Node30 -->
<g id="Node000030" class="node">
<title>Node30</title>
<g id="a_Node000030"><a xlink:href="drivers_2main_8cpp.html#aead97c99e70c0da7036fbbe230ef68b6" target="_top" xlink:title=" ">
<polygon fill="white" stroke="#666666" points="207.5,-68 137.5,-68 137.5,-49 207.5,-49 207.5,-68"/>
<text text-anchor="middle" x="172.5" y="-56" font-family="Helvetica,sans-Serif" font-size="10.00">printUsage</text>
</a>
</g>
</g>
<!-- Node1&#45;&gt;Node30 -->
<g id="edge36_Node000001_Node000030" class="edge">
<title>Node1&#45;&gt;Node30</title>
<g id="a_edge36_Node000001_Node000030"><a xlink:title=" ">
<path fill="none" stroke="#63b8ff" d="M40.9,-91.92C51.38,-87.05 64.68,-81.36 77,-77.5 93.11,-72.46 111.21,-68.44 127.21,-65.42"/>
<polygon fill="#63b8ff" stroke="#63b8ff" points="128.17,-68.8 137.39,-63.58 126.93,-61.91 128.17,-68.8"/>
</a>
</g>
</g>
<!-- Node31 -->
<g id="Node000031" class="node">
<title>Node31</title>
<g id="a_Node000031"><a target="_parent" xlink:href="http://en.cppreference.com/w/cpp/string/basic_string/stol.html#" xlink:title=" ">
<polygon fill="white" stroke="#666666" points="200.5,-31 144.5,-31 144.5,-12 200.5,-12 200.5,-31"/>
<text text-anchor="middle" x="172.5" y="-19" font-family="Helvetica,sans-Serif" font-size="10.00">std::stoi</text>
</a>
</g>
</g>
<!-- Node1&#45;&gt;Node31 -->
<g id="edge37_Node000001_Node000031" class="edge">
<title>Node1&#45;&gt;Node31</title>
<g id="a_edge37_Node000001_Node000031"><a xlink:title=" ">
<path fill="none" stroke="#63b8ff" d="M27.28,-91.73C36.12,-77.75 54.36,-52.3 77,-39.5 94.34,-29.7 116.03,-25.12 134.26,-23.03"/>
<polygon fill="#63b8ff" stroke="#63b8ff" points="134.63,-26.51 144.25,-22.09 133.97,-19.54 134.63,-26.51"/>
</a>
</g>
</g>
<!-- Node3 -->
<g id="Node000003" class="node">
<title>Node3</title>
<g id="a_Node000003"><a xlink:href="namespaceprecice_1_1xml.html#afc0a3257f7a86c03e250c3f32635cff0" target="_top" xlink:title="Configures the given configuration from file configurationFilename.">
<polygon fill="white" stroke="#666666" points="451.5,-481 323.5,-481 323.5,-462 451.5,-462 451.5,-481"/>
<text text-anchor="middle" x="387.5" y="-469" font-family="Helvetica,sans-Serif" font-size="10.00">precice::xml::configure</text>
</a>
</g>
</g>
<!-- Node2&#45;&gt;Node3 -->
<g id="edge2_Node000002_Node000003" class="edge">
<title>Node2&#45;&gt;Node3</title>
<g id="a_edge2_Node000002_Node000003"><a xlink:title=" ">
<path fill="none" stroke="#63b8ff" d="M178.47,-295.33C193.36,-323.74 240.48,-406.54 304,-448.5 310.06,-452.5 316.8,-455.81 323.75,-458.55"/>
<polygon fill="#63b8ff" stroke="#63b8ff" points="322.72,-461.9 333.32,-461.94 325.06,-455.3 322.72,-461.9"/>
</a>
</g>
</g>
<!-- Node7 -->
<g id="Node000007" class="node">
<title>Node7</title>
<g id="a_Node000007"><a xlink:href="classprecice_1_1utils_1_1Petsc.html#ab9cb75bb28bc602f4ef5e76911f9cc9b" target="_top" xlink:title="Finalizes Petsc environment.">
<polygon fill="white" stroke="#666666" points="443,-439.5 332,-439.5 332,-409.5 443,-409.5 443,-439.5"/>
<text text-anchor="start" x="340" y="-427.5" font-family="Helvetica,sans-Serif" font-size="10.00">precice::utils::Petsc</text>
<text text-anchor="middle" x="387.5" y="-416.5" font-family="Helvetica,sans-Serif" font-size="10.00">::finalize</text>
</a>
</g>
</g>
<!-- Node2&#45;&gt;Node7 -->
<g id="edge6_Node000002_Node000007" class="edge">
<title>Node2&#45;&gt;Node7</title>
<g id="a_edge6_Node000002_Node000007"><a xlink:title=" ">
<path fill="none" stroke="#63b8ff" d="M181.62,-295.09C200.7,-317.04 250.81,-371.26 304,-400.5 309.8,-403.69 316.06,-406.49 322.45,-408.95"/>
<polygon fill="#63b8ff" stroke="#63b8ff" points="321.28,-412.24 331.88,-412.3 323.63,-405.65 321.28,-412.24"/>
</a>
</g>
</g>
<!-- Node8 -->
<g id="Node000008" class="node">
<title>Node8</title>
<g id="a_Node000008"><a xlink:href="classprecice_1_1utils_1_1Parallel.html#a14b8aee14f0ef2fd341e9090eaa35fc7" target="_top" xlink:title="Unconditionally finalizes MPI environment.">
<polygon fill="white" stroke="#666666" points="448,-391.5 327,-391.5 327,-361.5 448,-361.5 448,-391.5"/>
<text text-anchor="start" x="335" y="-379.5" font-family="Helvetica,sans-Serif" font-size="10.00">precice::utils::Parallel</text>
<text text-anchor="middle" x="387.5" y="-368.5" font-family="Helvetica,sans-Serif" font-size="10.00">::finalizeTestingMPI</text>
</a>
</g>
</g>
<!-- Node2&#45;&gt;Node8 -->
<g id="edge7_Node000002_Node000008" class="edge">
<title>Node2&#45;&gt;Node8</title>
<g id="a_edge7_Node000002_Node000008"><a xlink:title=" ">
<path fill="none" stroke="#63b8ff" d="M189.91,-295.23C214.19,-309.31 261.41,-335.55 304,-352.5 309.02,-354.5 314.28,-356.41 319.6,-358.23"/>
<polygon fill="#63b8ff" stroke="#63b8ff" points="318.62,-361.59 329.21,-361.38 320.8,-354.94 318.62,-361.59"/>
</a>
</g>
</g>
<!-- Node13 -->
<g id="Node000013" class="node">
<title>Node13</title>
<g id="a_Node000013"><a xlink:href="classprecice_1_1utils_1_1Parallel.html#ab6d275a3f8c567e2233c1ff36dd53054" target="_top" xlink:title=" ">
<polygon fill="white" stroke="#666666" points="448,-343.5 327,-343.5 327,-313.5 448,-313.5 448,-343.5"/>
<text text-anchor="start" x="335" y="-331.5" font-family="Helvetica,sans-Serif" font-size="10.00">precice::utils::Parallel</text>
<text text-anchor="middle" x="387.5" y="-320.5" font-family="Helvetica,sans-Serif" font-size="10.00">::initializeTestingMPI</text>
</a>
</g>
</g>
<!-- Node2&#45;&gt;Node13 -->
<g id="edge14_Node000002_Node000013" class="edge">
<title>Node2&#45;&gt;Node13</title>
<g id="a_edge14_Node000002_Node000013"><a xlink:title=" ">
<path fill="none" stroke="#63b8ff" d="M220.77,-295.04C248.97,-300.74 285.3,-308.07 316.75,-314.42"/>
<polygon fill="#63b8ff" stroke="#63b8ff" points="316.28,-317.89 326.77,-316.44 317.66,-311.03 316.28,-317.89"/>
</a>
</g>
</g>
<!-- Node14 -->
<g id="Node000014" class="node">
<title>Node14</title>
<g id="a_Node000014"><a xlink:href="classprecice_1_1utils_1_1Parallel.html#a0025ca7ace4e2f78d1d8ba228890e0e5" target="_top" xlink:title="Return true if MPI is initialized.">
<polygon fill="white" stroke="#666666" points="641,-300.5 520,-300.5 520,-270.5 641,-270.5 641,-300.5"/>
<text text-anchor="start" x="528" y="-288.5" font-family="Helvetica,sans-Serif" font-size="10.00">precice::utils::Parallel</text>
<text text-anchor="middle" x="580.5" y="-277.5" font-family="Helvetica,sans-Serif" font-size="10.00">::isMPIInitialized</text>
</a>
</g>
</g>
<!-- Node2&#45;&gt;Node14 -->
<g id="edge18_Node000002_Node000014" class="edge">
<title>Node2&#45;&gt;Node14</title>
<g id="a_edge18_Node000002_Node000014"><a xlink:title=" ">
<path fill="none" stroke="#63b8ff" d="M268.18,-285.5C342.02,-285.5 442.91,-285.5 509.57,-285.5"/>
<polygon fill="#63b8ff" stroke="#63b8ff" points="509.96,-289 519.96,-285.5 509.96,-282 509.96,-289"/>
</a>
</g>
</g>
<!-- Node15 -->
<g id="Node000015" class="node">
<title>Node15</title>
<g id="a_Node000015"><a xlink:href="namespaceprecice_1_1logging.html#afbd5b49f852cbbc9dd30b595ca363eaf" target="_top" xlink:title=" ">
<polygon fill="white" stroke="#666666" points="459,-257 316,-257 316,-238 459,-238 459,-257"/>
<text text-anchor="middle" x="387.5" y="-245" font-family="Helvetica,sans-Serif" font-size="10.00">precice::logging::lockConf</text>
</a>
</g>
</g>
<!-- Node2&#45;&gt;Node15 -->
<g id="edge19_Node000002_Node000015" class="edge">
<title>Node2&#45;&gt;Node15</title>
<g id="a_edge19_Node000002_Node000015"><a xlink:title=" ">
<path fill="none" stroke="#63b8ff" d="M226.97,-275.96C256.09,-270.77 292.31,-264.3 322.87,-258.85"/>
<polygon fill="#63b8ff" stroke="#63b8ff" points="323.77,-262.25 333,-257.04 322.54,-255.35 323.77,-262.25"/>
</a>
</g>
</g>
<!-- Node17 -->
<g id="Node000017" class="node">
<title>Node17</title>
<g id="a_Node000017"><a xlink:href="namespaceprecice_1_1logging.html#a33f23997f82442b8a7f097ec2e5d87c8" target="_top" xlink:title=" ">
<polygon fill="white" stroke="#666666" points="466.5,-220 308.5,-220 308.5,-201 466.5,-201 466.5,-220"/>
<text text-anchor="middle" x="387.5" y="-208" font-family="Helvetica,sans-Serif" font-size="10.00">precice::logging::setMPIRank</text>
</a>
</g>
</g>
<!-- Node2&#45;&gt;Node17 -->
<g id="edge21_Node000002_Node000017" class="edge">
<title>Node2&#45;&gt;Node17</title>
<g id="a_edge21_Node000002_Node000017"><a xlink:title=" ">
<path fill="none" stroke="#63b8ff" d="M192.97,-275.84C218.11,-263.67 263.46,-242.75 304,-229.5 311.93,-226.91 320.41,-224.53 328.79,-222.4"/>
<polygon fill="#63b8ff" stroke="#63b8ff" points="329.67,-225.79 338.55,-220.02 328,-218.99 329.67,-225.79"/>
</a>
</g>
</g>
<!-- Node18 -->
<g id="Node000018" class="node">
<title>Node18</title>
<g id="a_Node000018"><a xlink:href="namespaceprecice_1_1logging.html#a0b39b47931451a7576faa4e42e6c968e" target="_top" xlink:title="Configures the logging from a LoggingConfiguration.">
<polygon fill="white" stroke="#666666" points="470,-167 305,-167 305,-148 470,-148 470,-167"/>
<text text-anchor="middle" x="387.5" y="-155" font-family="Helvetica,sans-Serif" font-size="10.00">precice::logging::setupLogging</text>
</a>
</g>
</g>
<!-- Node2&#45;&gt;Node18 -->
<g id="edge23_Node000002_Node000018" class="edge">
<title>Node2&#45;&gt;Node18</title>
<g id="a_edge23_Node000002_Node000018"><a xlink:title=" ">
<path fill="none" stroke="#63b8ff" d="M185.15,-275.86C207.29,-257.86 257.39,-218.59 304,-192.5 318.7,-184.27 335.73,-176.74 350.48,-170.79"/>
<polygon fill="#63b8ff" stroke="#63b8ff" points="351.78,-174.04 359.8,-167.12 349.21,-167.53 351.78,-174.04"/>
</a>
</g>
</g>
<!-- Node4 -->
<g id="Node000004" class="node">
<title>Node4</title>
<g id="a_Node000004"><a xlink:href="classprecice_1_1xml_1_1XMLTag.html#aa8e8dd146d8ade43e1656618dbad79b8" target="_top" xlink:title="Returns full name consisting of xml namespace + &quot;:&quot; + name.">
<polygon fill="white" stroke="#666666" points="640,-538.5 521,-538.5 521,-508.5 640,-508.5 640,-538.5"/>
<text text-anchor="start" x="529" y="-526.5" font-family="Helvetica,sans-Serif" font-size="10.00">precice::xml::XMLTag</text>
<text text-anchor="middle" x="580.5" y="-515.5" font-family="Helvetica,sans-Serif" font-size="10.00">::getFullName</text>
</a>
</g>
</g>
<!-- Node3&#45;&gt;Node4 -->
<g id="edge3_Node000003_Node000004" class="edge">
<title>Node3&#45;&gt;Node4</title>
<g id="a_edge3_Node000003_Node000004"><a xlink:title=" ">
<path fill="none" stroke="#63b8ff" d="M423.53,-481.04C448.9,-487.94 483.93,-497.48 514.36,-505.77"/>
<polygon fill="#63b8ff" stroke="#63b8ff" points="513.5,-509.16 524.07,-508.41 515.34,-502.4 513.5,-509.16"/>
</a>
</g>
</g>
<!-- Node5 -->
<g id="Node000005" class="node">
<title>Node5</title>
<g id="a_Node000005"><a xlink:href="classprecice_1_1xml_1_1ConfigParser.html#a8e85237eadc627ba6d3571a86be519cd" target="_top" xlink:title="returns the hash of the processed XML file">
<polygon fill="white" stroke="#666666" points="652,-490.5 509,-490.5 509,-460.5 652,-460.5 652,-490.5"/>
<text text-anchor="start" x="517" y="-478.5" font-family="Helvetica,sans-Serif" font-size="10.00">precice::xml::ConfigParser</text>
<text text-anchor="middle" x="580.5" y="-467.5" font-family="Helvetica,sans-Serif" font-size="10.00">::hash</text>
</a>
</g>
</g>
<!-- Node3&#45;&gt;Node5 -->
<g id="edge4_Node000003_Node000005" class="edge">
<title>Node3&#45;&gt;Node5</title>
<g id="a_edge4_Node000003_Node000005"><a xlink:title=" ">
<path fill="none" stroke="#63b8ff" d="M451.57,-472.82C466.63,-473.14 482.92,-473.48 498.66,-473.81"/>
<polygon fill="#63b8ff" stroke="#63b8ff" points="498.84,-477.31 508.91,-474.02 498.98,-470.31 498.84,-477.31"/>
</a>
</g>
</g>
<!-- Node6 -->
<g id="Node000006" class="node">
<title>Node6</title>
<g id="a_Node000006"><a target="_parent" xlink:href="http://en.cppreference.com/w/cpp/memory/shared_ptr/make_shared.html#" xlink:title=" ">
<polygon fill="white" stroke="#666666" points="1285,-420 1182,-420 1182,-401 1285,-401 1285,-420"/>
<text text-anchor="middle" x="1233.5" y="-408" font-family="Helvetica,sans-Serif" font-size="10.00">std::make_shared</text>
</a>
</g>
</g>
<!-- Node3&#45;&gt;Node6 -->
<g id="edge5_Node000003_Node000006" class="edge">
<title>Node3&#45;&gt;Node6</title>
<g id="a_edge5_Node000003_Node000006"><a xlink:title=" ">
<path fill="none" stroke="#63b8ff" d="M438.81,-461.99C459.82,-458.29 484.53,-454.27 507,-451.5 614.3,-438.27 641.39,-432.5 749.5,-432.5 749.5,-432.5 749.5,-432.5 919,-432.5 1006.99,-432.5 1108.53,-423.77 1171.64,-417.31"/>
<polygon fill="#63b8ff" stroke="#63b8ff" points="1172.22,-420.77 1181.81,-416.25 1171.5,-413.8 1172.22,-420.77"/>
</a>
</g>
</g>
<!-- Node9 -->
<g id="Node000009" class="node">
<title>Node9</title>
<g id="a_Node000009"><a xlink:href="classprecice_1_1utils_1_1Parallel.html#a1c1615a4226312e45205bcff9120ca84" target="_top" xlink:title=" ">
<polygon fill="white" stroke="#666666" points="641,-404.5 520,-404.5 520,-374.5 641,-374.5 641,-404.5"/>
<text text-anchor="start" x="528" y="-392.5" font-family="Helvetica,sans-Serif" font-size="10.00">precice::utils::Parallel</text>
<text text-anchor="middle" x="580.5" y="-381.5" font-family="Helvetica,sans-Serif" font-size="10.00">::resetCommState</text>
</a>
</g>
</g>
<!-- Node8&#45;&gt;Node9 -->
<g id="edge8_Node000008_Node000009" class="edge">
<title>Node8&#45;&gt;Node9</title>
<g id="a_edge8_Node000008_Node000009"><a xlink:title=" ">
<path fill="none" stroke="#63b8ff" d="M448.15,-380.56C467.72,-381.89 489.64,-383.38 509.88,-384.76"/>
<polygon fill="#63b8ff" stroke="#63b8ff" points="509.76,-388.26 519.98,-385.45 510.24,-381.28 509.76,-388.26"/>
</a>
</g>
</g>
<!-- Node10 -->
<g id="Node000010" class="node">
<title>Node10</title>
<g id="a_Node000010"><a xlink:href="structprecice_1_1utils_1_1Parallel_1_1CommState.html#a11c87f5cfaad1fb984d9dcd80e6f2c55" target="_top" xlink:title="returns a commstate containing MPI_COMM_WORLD">
<polygon fill="white" stroke="#666666" points="811,-382.5 690,-382.5 690,-352.5 811,-352.5 811,-382.5"/>
<text text-anchor="start" x="698" y="-370.5" font-family="Helvetica,sans-Serif" font-size="10.00">precice::utils::Parallel</text>
<text text-anchor="middle" x="750.5" y="-359.5" font-family="Helvetica,sans-Serif" font-size="10.00">::CommState::world</text>
</a>
</g>
</g>
<!-- Node9&#45;&gt;Node10 -->
<g id="edge9_Node000009_Node000010" class="edge">
<title>Node9&#45;&gt;Node10</title>
<g id="a_edge9_Node000009_Node000010"><a xlink:title=" ">
<path fill="none" stroke="#63b8ff" d="M641.2,-381.68C653.71,-380.04 666.99,-378.3 679.82,-376.62"/>
<polygon fill="#63b8ff" stroke="#63b8ff" points="680.53,-380.06 689.99,-375.29 679.62,-373.12 680.53,-380.06"/>
</a>
</g>
</g>
<!-- Node11 -->
<g id="Node000011" class="node">
<title>Node11</title>
<g id="a_Node000011"><a xlink:href="structprecice_1_1utils_1_1Parallel_1_1CommState.html#a440432f97f08c595678e1102edb43b9f" target="_top" xlink:title="returns the commstate representing comm">
<polygon fill="white" stroke="#666666" points="989,-404.5 847,-404.5 847,-374.5 989,-374.5 989,-404.5"/>
<text text-anchor="start" x="855" y="-392.5" font-family="Helvetica,sans-Serif" font-size="10.00">precice::utils::Parallel</text>
<text text-anchor="middle" x="918" y="-381.5" font-family="Helvetica,sans-Serif" font-size="10.00">::CommState::fromComm</text>
</a>
</g>
</g>
<!-- Node10&#45;&gt;Node11 -->
<g id="edge10_Node000010_Node000011" class="edge">
<title>Node10&#45;&gt;Node11</title>
<g id="a_edge10_Node000010_Node000011"><a xlink:title=" ">
<path fill="none" stroke="#63b8ff" d="M811.25,-375.44C819.57,-376.55 828.22,-377.7 836.84,-378.84"/>
<polygon fill="#63b8ff" stroke="#63b8ff" points="836.54,-382.34 846.92,-380.18 837.47,-375.4 836.54,-382.34"/>
</a>
</g>
</g>
<!-- Node12 -->
<g id="Node000012" class="node">
<title>Node12</title>
<g id="a_Node000012"><a xlink:href="structprecice_1_1utils_1_1Parallel_1_1CommState.html#a5e3626f4c22a0aa7ac05cd740dda95ca" target="_top" xlink:title="returns an blank commstate representing MPI_COMM_NULL">
<polygon fill="white" stroke="#666666" points="1146,-404.5 1025,-404.5 1025,-374.5 1146,-374.5 1146,-404.5"/>
<text text-anchor="start" x="1033" y="-392.5" font-family="Helvetica,sans-Serif" font-size="10.00">precice::utils::Parallel</text>
<text text-anchor="middle" x="1085.5" y="-381.5" font-family="Helvetica,sans-Serif" font-size="10.00">::CommState::null</text>
</a>
</g>
</g>
<!-- Node10&#45;&gt;Node12 -->
<g id="edge13_Node000010_Node000012" class="edge">
<title>Node10&#45;&gt;Node12</title>
<g id="a_edge13_Node000010_Node000012"><a xlink:title=" ">
<path fill="none" stroke="#63b8ff" d="M811.29,-362.67C859.46,-359.82 928.84,-358.06 989,-365.5 1000.55,-366.93 1012.71,-369.29 1024.33,-372"/>
<polygon fill="#63b8ff" stroke="#63b8ff" points="1023.84,-375.48 1034.39,-374.44 1025.5,-368.68 1023.84,-375.48"/>
</a>
</g>
</g>
<!-- Node11&#45;&gt;Node12 -->
<g id="edge11_Node000011_Node000012" class="edge">
<title>Node11&#45;&gt;Node12</title>
<g id="a_edge11_Node000011_Node000012"><a xlink:title=" ">
<path fill="none" stroke="#63b8ff" d="M989.19,-389.5C997.64,-389.5 1006.28,-389.5 1014.73,-389.5"/>
<polygon fill="#63b8ff" stroke="#63b8ff" points="1014.92,-393 1024.92,-389.5 1014.92,-386 1014.92,-393"/>
</a>
</g>
</g>
<!-- Node12&#45;&gt;Node6 -->
<g id="edge12_Node000012_Node000006" class="edge">
<title>Node12&#45;&gt;Node6</title>
<g id="a_edge12_Node000012_Node000006"><a xlink:title=" ">
<path fill="none" stroke="#63b8ff" d="M1146.31,-398.1C1154.7,-399.31 1163.34,-400.55 1171.76,-401.76"/>
<polygon fill="#63b8ff" stroke="#63b8ff" points="1171.48,-405.26 1181.88,-403.22 1172.48,-398.33 1171.48,-405.26"/>
</a>
</g>
</g>
<!-- Node13&#45;&gt;Node10 -->
<g id="edge17_Node000013_Node000010" class="edge">
<title>Node13&#45;&gt;Node10</title>
<g id="a_edge17_Node000013_Node000010"><a xlink:title=" ">
<path fill="none" stroke="#63b8ff" d="M448.11,-334.94C511.73,-341.81 612.44,-352.69 679.71,-359.96"/>
<polygon fill="#63b8ff" stroke="#63b8ff" points="679.48,-363.46 689.8,-361.05 680.23,-356.5 679.48,-363.46"/>
</a>
</g>
</g>
<!-- Node13&#45;&gt;Node14 -->
<g id="edge15_Node000013_Node000014" class="edge">
<title>Node13&#45;&gt;Node14</title>
<g id="a_edge15_Node000013_Node000014"><a xlink:title=" ">
<path fill="none" stroke="#63b8ff" d="M448.15,-315.07C467.81,-310.65 489.84,-305.69 510.16,-301.11"/>
<polygon fill="#63b8ff" stroke="#63b8ff" points="510.99,-304.51 519.98,-298.9 509.45,-297.68 510.99,-304.51"/>
</a>
</g>
</g>
<!-- Node14&#45;&gt;Node14 -->
<g id="edge16_Node000014_Node000014" class="edge">
<title>Node14&#45;&gt;Node14</title>
<g id="a_edge16_Node000014_Node000014"><a xlink:title=" ">
<path fill="none" stroke="#63b8ff" d="M550.62,-300.78C543.98,-309.91 553.94,-318.5 580.5,-318.5 596.27,-318.5 606.19,-315.47 610.26,-311.1"/>
<polygon fill="#63b8ff" stroke="#63b8ff" points="613.76,-310.82 610.38,-300.78 606.76,-310.73 613.76,-310.82"/>
</a>
</g>
</g>
<!-- Node16 -->
<g id="Node000016" class="node">
<title>Node16</title>
<g id="a_Node000016"><a xlink:href="namespaceprecice_1_1logging.html#a90d9b50f6478a00af9aea3edd59e49cc" target="_top" xlink:title="Returns the global logging configuration.">
<polygon fill="white" stroke="#666666" points="654,-252.5 507,-252.5 507,-222.5 654,-222.5 654,-252.5"/>
<text text-anchor="start" x="515" y="-240.5" font-family="Helvetica,sans-Serif" font-size="10.00">precice::logging::getGlobal</text>
<text text-anchor="middle" x="580.5" y="-229.5" font-family="Helvetica,sans-Serif" font-size="10.00">LoggingConfig</text>
</a>
</g>
</g>
<!-- Node15&#45;&gt;Node16 -->
<g id="edge20_Node000015_Node000016" class="edge">
<title>Node15&#45;&gt;Node16</title>
<g id="a_edge20_Node000015_Node000016"><a xlink:title=" ">
<path fill="none" stroke="#63b8ff" d="M459.08,-243.8C471.4,-243.16 484.33,-242.48 496.94,-241.82"/>
<polygon fill="#63b8ff" stroke="#63b8ff" points="497.17,-245.32 506.98,-241.3 496.81,-238.32 497.17,-245.32"/>
</a>
</g>
</g>
<!-- Node17&#45;&gt;Node16 -->
<g id="edge22_Node000017_Node000016" class="edge">
<title>Node17&#45;&gt;Node16</title>
<g id="a_edge22_Node000017_Node000016"><a xlink:title=" ">
<path fill="none" stroke="#63b8ff" d="M455.84,-220.02C469.15,-221.9 483.26,-223.9 497,-225.84"/>
<polygon fill="#63b8ff" stroke="#63b8ff" points="496.54,-229.31 506.93,-227.24 497.52,-222.38 496.54,-229.31"/>
</a>
</g>
</g>
<!-- Node18&#45;&gt;Node16 -->
<g id="edge29_Node000018_Node000016" class="edge">
<title>Node18&#45;&gt;Node16</title>
<g id="a_edge29_Node000018_Node000016"><a xlink:title=" ">
<path fill="none" stroke="#63b8ff" d="M413.42,-167.11C429.98,-173.73 452.08,-183.02 471,-192.5 487.56,-200.8 490.12,-205.88 507,-213.5 511.12,-215.36 515.43,-217.15 519.81,-218.86"/>
<polygon fill="#63b8ff" stroke="#63b8ff" points="518.85,-222.24 529.44,-222.45 521.3,-215.68 518.85,-222.24"/>
</a>
</g>
</g>
<!-- Node19 -->
<g id="Node000019" class="node">
<title>Node19</title>
<g id="a_Node000019"><a target="_parent" xlink:href="http://en.cppreference.com/w/cpp/container/vector/begin.html#" xlink:title=" ">
<polygon fill="white" stroke="#666666" points="631,-204 530,-204 530,-185 631,-185 631,-204"/>
<text text-anchor="middle" x="580.5" y="-192" font-family="Helvetica,sans-Serif" font-size="10.00">std::vector::begin</text>
</a>
</g>
</g>
<!-- Node18&#45;&gt;Node19 -->
<g id="edge24_Node000018_Node000019" class="edge">
<title>Node18&#45;&gt;Node19</title>
<g id="a_edge24_Node000018_Node000019"><a xlink:title=" ">
<path fill="none" stroke="#63b8ff" d="M437.69,-167.03C462.88,-171.91 493.74,-177.89 520.23,-183.02"/>
<polygon fill="#63b8ff" stroke="#63b8ff" points="519.66,-186.47 530.15,-184.94 521,-179.6 519.66,-186.47"/>
</a>
</g>
</g>
<!-- Node20 -->
<g id="Node000020" class="node">
<title>Node20</title>
<g id="a_Node000020"><a target="_parent" xlink:href="http://en.cppreference.com/w/cpp/container/vector/clear.html#" xlink:title=" ">
<polygon fill="white" stroke="#666666" points="629.5,-167 531.5,-167 531.5,-148 629.5,-148 629.5,-167"/>
<text text-anchor="middle" x="580.5" y="-155" font-family="Helvetica,sans-Serif" font-size="10.00">std::vector::clear</text>
</a>
</g>
</g>
<!-- Node18&#45;&gt;Node20 -->
<g id="edge25_Node000018_Node000020" class="edge">
<title>Node18&#45;&gt;Node20</title>
<g id="a_edge25_Node000018_Node000020"><a xlink:title=" ">
<path fill="none" stroke="#63b8ff" d="M470.06,-157.5C487.19,-157.5 504.93,-157.5 521.02,-157.5"/>
<polygon fill="#63b8ff" stroke="#63b8ff" points="521.33,-161 531.33,-157.5 521.33,-154 521.33,-161"/>
</a>
</g>
</g>
<!-- Node21 -->
<g id="Node000021" class="node">
<title>Node21</title>
<g id="a_Node000021"><a target="_parent" xlink:href="http://en.cppreference.com/w/cpp/container/vector/emplace_back.html#" xlink:title=" ">
<polygon fill="white" stroke="#666666" points="653,-130 508,-130 508,-111 653,-111 653,-130"/>
<text text-anchor="middle" x="580.5" y="-118" font-family="Helvetica,sans-Serif" font-size="10.00">std::vector::emplace_back</text>
</a>
</g>
</g>
<!-- Node18&#45;&gt;Node21 -->
<g id="edge26_Node000018_Node000021" class="edge">
<title>Node18&#45;&gt;Node21</title>
<g id="a_edge26_Node000018_Node000021"><a xlink:title=" ">
<path fill="none" stroke="#63b8ff" d="M437.69,-147.97C462.88,-143.09 493.74,-137.11 520.23,-131.98"/>
<polygon fill="#63b8ff" stroke="#63b8ff" points="521,-135.4 530.15,-130.06 519.66,-128.53 521,-135.4"/>
</a>
</g>
</g>
<!-- Node22 -->
<g id="Node000022" class="node">
<title>Node22</title>
<g id="a_Node000022"><a target="_parent" xlink:href="http://en.cppreference.com/w/cpp/container/vector/empty.html#" xlink:title=" ">
<polygon fill="white" stroke="#666666" points="633.5,-93 527.5,-93 527.5,-74 633.5,-74 633.5,-93"/>
<text text-anchor="middle" x="580.5" y="-81" font-family="Helvetica,sans-Serif" font-size="10.00">std::vector::empty</text>
</a>
</g>
</g>
<!-- Node18&#45;&gt;Node22 -->
<g id="edge27_Node000018_Node000022" class="edge">
<title>Node18&#45;&gt;Node22</title>
<g id="a_edge27_Node000018_Node000022"><a xlink:title=" ">
<path fill="none" stroke="#63b8ff" d="M451.68,-147.87C458.42,-145.63 465,-142.89 471,-139.5 491.26,-128.07 486.9,-113.22 507,-101.5 510.43,-99.5 514.08,-97.72 517.84,-96.14"/>
<polygon fill="#63b8ff" stroke="#63b8ff" points="519.22,-99.36 527.38,-92.59 516.78,-92.8 519.22,-99.36"/>
</a>
</g>
</g>
<!-- Node23 -->
<g id="Node000023" class="node">
<title>Node23</title>
<g id="a_Node000023"><a target="_parent" xlink:href="http://en.cppreference.com/w/cpp/container/vector/end.html#" xlink:title=" ">
<polygon fill="white" stroke="#666666" points="626.5,-56 534.5,-56 534.5,-37 626.5,-37 626.5,-56"/>
<text text-anchor="middle" x="580.5" y="-44" font-family="Helvetica,sans-Serif" font-size="10.00">std::vector::end</text>
</a>
</g>
</g>
<!-- Node18&#45;&gt;Node23 -->
<g id="edge28_Node000018_Node000023" class="edge">
<title>Node18&#45;&gt;Node23</title>
<g id="a_edge28_Node000018_Node000023"><a xlink:title=" ">
<path fill="none" stroke="#63b8ff" d="M456.99,-147.91C462,-145.63 466.75,-142.86 471,-139.5 500,-116.57 478.33,-87.84 507,-64.5 512.27,-60.21 518.42,-56.92 524.87,-54.4"/>
<polygon fill="#63b8ff" stroke="#63b8ff" points="526.07,-57.7 534.47,-51.24 523.87,-51.05 526.07,-57.7"/>
</a>
</g>
</g>
<!-- Node24 -->
<g id="Node000024" class="node">
<title>Node24</title>
<g id="a_Node000024"><a target="_parent" xlink:href="http://en.cppreference.com/w/cpp/algorithm/all_any_none_of.html#" xlink:title=" ">
<polygon fill="white" stroke="#666666" points="619,-19 542,-19 542,0 619,0 619,-19"/>
<text text-anchor="middle" x="580.5" y="-7" font-family="Helvetica,sans-Serif" font-size="10.00">std::none_of</text>
</a>
</g>
</g>
<!-- Node18&#45;&gt;Node24 -->
<g id="edge30_Node000018_Node000024" class="edge">
<title>Node18&#45;&gt;Node24</title>
<g id="a_edge30_Node000018_Node000024"><a xlink:title=" ">
<path fill="none" stroke="#63b8ff" d="M458.7,-147.93C463.15,-145.63 467.31,-142.85 471,-139.5 509.71,-104.35 468.8,-63.2 507,-27.5 513.89,-21.06 522.71,-16.83 531.82,-14.07"/>
<polygon fill="#63b8ff" stroke="#63b8ff" points="532.86,-17.42 541.73,-11.61 531.18,-10.62 532.86,-17.42"/>
</a>
</g>
</g>
<!-- Node27 -->
<g id="Node000027" class="node">
<title>Node27</title>
<g id="a_Node000027"><a xlink:href="namespaceprecice_1_1xml.html#a9bb6b846a3db9eac454ba17738a45507" target="_top" xlink:title="Prints the XML reference for the given tag.">
<polygon fill="white" stroke="#666666" points="471,-130 304,-130 304,-111 471,-111 471,-130"/>
<text text-anchor="middle" x="387.5" y="-118" font-family="Helvetica,sans-Serif" font-size="10.00">precice::xml::toDocumentation</text>
</a>
</g>
</g>
<!-- Node26&#45;&gt;Node27 -->
<g id="edge33_Node000026_Node000027" class="edge">
<title>Node26&#45;&gt;Node27</title>
<g id="a_edge33_Node000026_Node000027"><a xlink:title=" ">
<path fill="none" stroke="#63b8ff" d="M248.3,-108.17C262.91,-109.48 278.39,-110.86 293.51,-112.2"/>
<polygon fill="#63b8ff" stroke="#63b8ff" points="293.63,-115.73 303.9,-113.13 294.25,-108.76 293.63,-115.73"/>
</a>
</g>
</g>
<!-- Node28 -->
<g id="Node000028" class="node">
<title>Node28</title>
<g id="a_Node000028"><a xlink:href="namespaceprecice_1_1xml.html#a5763778f25bd93e586ffdb6d0a10386d" target="_top" xlink:title="Prints the DTD reference for the given tag.">
<polygon fill="white" stroke="#666666" points="444,-93 331,-93 331,-74 444,-74 444,-93"/>
<text text-anchor="middle" x="387.5" y="-81" font-family="Helvetica,sans-Serif" font-size="10.00">precice::xml::toDTD</text>
</a>
</g>
</g>
<!-- Node26&#45;&gt;Node28 -->
<g id="edge34_Node000026_Node000028" class="edge">
<title>Node26&#45;&gt;Node28</title>
<g id="a_edge34_Node000026_Node000028"><a xlink:title=" ">
<path fill="none" stroke="#63b8ff" d="M248.3,-95.18C271.89,-93.18 297.78,-91 320.7,-89.06"/>
<polygon fill="#63b8ff" stroke="#63b8ff" points="321,-92.55 330.67,-88.22 320.41,-85.57 321,-92.55"/>
</a>
</g>
</g>
<!-- Node29 -->
<g id="Node000029" class="node">
<title>Node29</title>
<g id="a_Node000029"><a xlink:href="namespaceprecice_1_1xml.html#a4dcfaca557decff46e612b00f27a20c8" target="_top" xlink:title="Prints the Markdown reference for the given tag.">
<polygon fill="white" stroke="#666666" points="459,-56 316,-56 316,-37 459,-37 459,-56"/>
<text text-anchor="middle" x="387.5" y="-44" font-family="Helvetica,sans-Serif" font-size="10.00">precice::xml::toMarkdown</text>
</a>
</g>
</g>
<!-- Node26&#45;&gt;Node29 -->
<g id="edge35_Node000026_Node000029" class="edge">
<title>Node26&#45;&gt;Node29</title>
<g id="a_edge35_Node000026_Node000029"><a xlink:title=" ">
<path fill="none" stroke="#63b8ff" d="M232.64,-86.47C244.39,-83.31 256.62,-79.9 268,-76.5 284.16,-71.67 287.74,-68.97 304,-64.5 312.03,-62.29 320.55,-60.18 328.96,-58.23"/>
<polygon fill="#63b8ff" stroke="#63b8ff" points="329.76,-61.64 338.74,-56.01 328.21,-54.81 329.76,-61.64"/>
</a>
</g>
</g>
</g>
</svg>

<g id="navigator" transform="translate(0 0)" fill="#404254">
  <rect fill="#f2f5e9" fill-opacity="0.5" stroke="#606060" stroke-width=".5" x="0" y="0" width="60" height="60"/>
  <use id="zoomplus" xlink:href="#zoomPlus" x="17" y="9" onmousedown="handleZoom(evt,'in')"/>
  <use id="zoomminus" xlink:href="#zoomMin" x="42" y="9" onmousedown="handleZoom(evt,'out')"/>
  <use id="reset" xlink:href="#resetDef" x="30" y="36" onmousedown="handleReset()"/>
   <use id="arrowup" xlink:href="#arrowUp" x="0" y="0" onmousedown="handlePan(0,-1)"/>
  <use id="arrowright" xlink:href="#arrowRight" x="0" y="0" onmousedown="handlePan(1,0)"/>
  <use id="arrowdown" xlink:href="#arrowDown" x="0" y="0" onmousedown="handlePan(0,1)"/>
  <use id="arrowleft" xlink:href="#arrowLeft" x="0" y="0" onmousedown="handlePan(-1,0)"/>
</g>
<svg viewBox="0 0 15 15" width="100%" height="30px" preserveAspectRatio="xMaxYMin meet">
 <g id="arrow_out" transform="scale(0.3 0.3)">
  <a xlink:href="drivers_2main_8cpp_a3c04138a5bfe5d72780bb7e82a18e627_cgraph_org.svg" target="_base">
   <rect id="button" ry="5" rx="5" y="6" x="6" height="38" width="38"
        fill="#f2f5e9" fill-opacity="0.5" stroke="#606060" stroke-width="1.0"/>
   <path id="arrow"
     d="M 11.500037,31.436501 C 11.940474,20.09759 22.043105,11.32322 32.158766,21.979434 L 37.068811,17.246167 C 37.068811,17.246167 37.088388,32 37.088388,32 L 22.160133,31.978069 C 22.160133,31.978069 26.997745,27.140456 26.997745,27.140456 C 18.528582,18.264221 13.291696,25.230495 11.500037,31.436501 z"
     style="fill:#404040;"/>
  </a>
 </g>
</svg>

<style type='text/css'>
<![CDATA[
[data-mouse-over-selected='false'] { opacity: 0.7; }
[data-mouse-over-selected='true']  { opacity: 1.0; }
]]>
</style>
<script type="application/ecmascript"><![CDATA[
document.addEventListener('DOMContentLoaded', (event) => {
  highlightEdges();
  highlightAdjacentNodes();
});
]]></script>
</svg>
