<?xml version="1.0" encoding="UTF-8" standalone="no"?>
<!DOCTYPE svg PUBLIC "-//W3C//DTD SVG 1.1//EN"
 "http://www.w3.org/Graphics/SVG/1.1/DTD/svg11.dtd">
<!-- Generated by graphviz version 2.43.0 (0)
 -->
<!-- Title: BOOST_AUTO_TEST_CASE Pages: 1 -->
<svg width="676pt" height="365pt"
 viewBox="0.00 0.00 676.00 364.50" xmlns="http://www.w3.org/2000/svg" xmlns:xlink="http://www.w3.org/1999/xlink">
<g id="graph0" class="graph" transform="scale(1 1) rotate(0) translate(4 360.5)">
<title>BOOST_AUTO_TEST_CASE</title>
<!-- Node1 -->
<g id="Node000001" class="node">
<title>Node1</title>
<g id="a_Node000001"><a xlink:title=" ">
<polygon fill="#999999" stroke="#666666" points="143,-128.5 0,-128.5 0,-109.5 143,-109.5 143,-128.5"/>
<text text-anchor="middle" x="71.5" y="-116.5" font-family="Helvetica,sans-Serif" font-size="10.00">BOOST_AUTO_TEST_CASE</text>
</a>
</g>
</g>
<!-- Node2 -->
<g id="Node000002" class="node">
<title>Node2</title>
<g id="a_Node000002"><a xlink:href="classprecice_1_1mesh_1_1Mesh.html#a6e3fec22b430b35daccd92ef560d2c87" target="_top" xlink:title="Create only data for vertex.">
<polygon fill="white" stroke="#666666" points="315.5,-297 198.5,-297 198.5,-267 315.5,-267 315.5,-297"/>
<text text-anchor="start" x="206.5" y="-285" font-family="Helvetica,sans-Serif" font-size="10.00">precice::mesh::Mesh</text>
<text text-anchor="middle" x="257" y="-274" font-family="Helvetica,sans-Serif" font-size="10.00">::createData</text>
</a>
</g>
</g>
<!-- Node1&#45;&gt;Node2 -->
<g id="edge1_Node000001_Node000002" class="edge">
<title>Node1&#45;&gt;Node2</title>
<g id="a_edge1_Node000001_Node000002"><a xlink:title=" ">
<path fill="none" stroke="#63b8ff" d="M83.43,-128.71C112.29,-154.35 191.09,-224.34 231.46,-260.2"/>
<polygon fill="#63b8ff" stroke="#63b8ff" points="229.19,-262.87 238.99,-266.89 233.84,-257.63 229.19,-262.87"/>
</a>
</g>
</g>
<!-- Node6 -->
<g id="Node000006" class="node">
<title>Node6</title>
<g id="a_Node000006"><a xlink:href="classprecice_1_1mesh_1_1Mesh.html#ae9d36ab0ee34fa88e978b413f91eaabf" target="_top" xlink:title="Creates and initializes a Vertex object.">
<polygon fill="white" stroke="#666666" points="315.5,-189 198.5,-189 198.5,-159 315.5,-159 315.5,-189"/>
<text text-anchor="start" x="206.5" y="-177" font-family="Helvetica,sans-Serif" font-size="10.00">precice::mesh::Mesh</text>
<text text-anchor="middle" x="257" y="-166" font-family="Helvetica,sans-Serif" font-size="10.00">::createVertex</text>
</a>
</g>
</g>
<!-- Node1&#45;&gt;Node6 -->
<g id="edge5_Node000001_Node000006" class="edge">
<title>Node1&#45;&gt;Node6</title>
<g id="a_edge5_Node000001_Node000006"><a xlink:title=" ">
<path fill="none" stroke="#63b8ff" d="M104.46,-128.58C129.67,-136.13 165.53,-146.88 196.04,-156.03"/>
<polygon fill="#63b8ff" stroke="#63b8ff" points="195.15,-159.42 205.74,-158.93 197.16,-152.71 195.15,-159.42"/>
</a>
</g>
</g>
<!-- Node10 -->
<g id="Node000010" class="node">
<title>Node10</title>
<g id="a_Node000010"><a xlink:href="namespaceprecice_1_1testing.html#a8f1f5630ecc5af4934cb18fe3e59a7b8" target="_top" xlink:title=" ">
<polygon fill="white" stroke="#666666" points="322.5,-134 191.5,-134 191.5,-104 322.5,-104 322.5,-134"/>
<text text-anchor="start" x="199.5" y="-122" font-family="Helvetica,sans-Serif" font-size="10.00">precice::testing::expect</text>
<text text-anchor="middle" x="257" y="-111" font-family="Helvetica,sans-Serif" font-size="10.00">Files</text>
</a>
</g>
</g>
<!-- Node1&#45;&gt;Node10 -->
<g id="edge9_Node000001_Node000010" class="edge">
<title>Node1&#45;&gt;Node10</title>
<g id="a_edge9_Node000001_Node000010"><a xlink:title=" ">
<path fill="none" stroke="#63b8ff" d="M143.18,-119C155.57,-119 168.49,-119 180.99,-119"/>
<polygon fill="#63b8ff" stroke="#63b8ff" points="181.36,-122.5 191.36,-119 181.36,-115.5 181.36,-122.5"/>
</a>
</g>
</g>
<!-- Node13 -->
<g id="Node000013" class="node">
<title>Node13</title>
<g id="a_Node000013"><a xlink:href="namespaceprecice_1_1testing.html#a08533fd83bad3d7f27ea7f4a35a14aa4" target="_top" xlink:title=" ">
<polygon fill="white" stroke="#666666" points="335,-85.5 179,-85.5 179,-66.5 335,-66.5 335,-85.5"/>
<text text-anchor="middle" x="257" y="-73.5" font-family="Helvetica,sans-Serif" font-size="10.00">precice::testing::nextMeshID</text>
</a>
</g>
</g>
<!-- Node1&#45;&gt;Node13 -->
<g id="edge12_Node000001_Node000013" class="edge">
<title>Node1&#45;&gt;Node13</title>
<g id="a_edge12_Node000001_Node000013"><a xlink:title=" ">
<path fill="none" stroke="#63b8ff" d="M113.22,-109.46C140.43,-103.08 176.4,-94.65 205.44,-87.85"/>
<polygon fill="#63b8ff" stroke="#63b8ff" points="206.45,-91.21 215.39,-85.52 204.85,-84.39 206.45,-91.21"/>
</a>
</g>
</g>
<!-- Node15 -->
<g id="Node000015" class="node">
<title>Node15</title>
<g id="a_Node000015"><a xlink:href="structprecice_1_1time_1_1Sample.html#a6eef54f32f5a4cce23fee05e88606e2c" target="_top" xlink:title="Sets values and gradients to zero.">
<polygon fill="white" stroke="#666666" points="318.5,-30 195.5,-30 195.5,0 318.5,0 318.5,-30"/>
<text text-anchor="start" x="203.5" y="-18" font-family="Helvetica,sans-Serif" font-size="10.00">precice::time::Sample</text>
<text text-anchor="middle" x="257" y="-7" font-family="Helvetica,sans-Serif" font-size="10.00">::setZero</text>
</a>
</g>
</g>
<!-- Node1&#45;&gt;Node15 -->
<g id="edge14_Node000001_Node000015" class="edge">
<title>Node1&#45;&gt;Node15</title>
<g id="a_edge14_Node000001_Node000015"><a xlink:title=" ">
<path fill="none" stroke="#63b8ff" d="M88.66,-109.41C109.46,-97.1 146.76,-75.17 179,-57 191.92,-49.72 206.15,-41.9 218.82,-35.01"/>
<polygon fill="#63b8ff" stroke="#63b8ff" points="220.61,-38.02 227.74,-30.17 217.28,-31.86 220.61,-38.02"/>
</a>
</g>
</g>
<!-- Node3 -->
<g id="Node000003" class="node">
<title>Node3</title>
<g id="a_Node000003"><a target="_parent" xlink:href="http://en.cppreference.com/w/cpp/container/vector/back.html#" xlink:title=" ">
<polygon fill="white" stroke="#666666" points="499,-356.5 401,-356.5 401,-337.5 499,-337.5 499,-356.5"/>
<text text-anchor="middle" x="450" y="-344.5" font-family="Helvetica,sans-Serif" font-size="10.00">std::vector::back</text>
</a>
</g>
</g>
<!-- Node2&#45;&gt;Node3 -->
<g id="edge2_Node000002_Node000003" class="edge">
<title>Node2&#45;&gt;Node3</title>
<g id="a_edge2_Node000002_Node000003"><a xlink:title=" ">
<path fill="none" stroke="#63b8ff" d="M291.14,-297C313.41,-306.71 343.59,-319.14 371,-328 378.73,-330.5 386.99,-332.85 395.13,-334.98"/>
<polygon fill="#63b8ff" stroke="#63b8ff" points="394.4,-338.41 404.95,-337.47 396.12,-331.62 394.4,-338.41"/>
</a>
</g>
</g>
<!-- Node4 -->
<g id="Node000004" class="node">
<title>Node4</title>
<g id="a_Node000004"><a xlink:href="classprecice_1_1mesh_1_1Mesh.html#aceb3eabb4f8e40a44d5d1c2822ba7b56" target="_top" xlink:title="Allows access to all data.">
<polygon fill="white" stroke="#666666" points="508.5,-319 391.5,-319 391.5,-289 508.5,-289 508.5,-319"/>
<text text-anchor="start" x="399.5" y="-307" font-family="Helvetica,sans-Serif" font-size="10.00">precice::mesh::Mesh</text>
<text text-anchor="middle" x="450" y="-296" font-family="Helvetica,sans-Serif" font-size="10.00">::data</text>
</a>
</g>
</g>
<!-- Node2&#45;&gt;Node4 -->
<g id="edge3_Node000002_Node000004" class="edge">
<title>Node2&#45;&gt;Node4</title>
<g id="a_edge3_Node000002_Node000004"><a xlink:title=" ">
<path fill="none" stroke="#63b8ff" d="M315.57,-288.63C336.24,-291.01 359.74,-293.72 381.2,-296.19"/>
<polygon fill="#63b8ff" stroke="#63b8ff" points="380.89,-299.68 391.22,-297.35 381.69,-292.72 380.89,-299.68"/>
</a>
</g>
</g>
<!-- Node5 -->
<g id="Node000005" class="node">
<title>Node5</title>
<g id="a_Node000005"><a target="_parent" xlink:href="http://en.cppreference.com/w/cpp/container/vector/push_back.html#" xlink:title=" ">
<polygon fill="white" stroke="#666666" points="513,-270.5 387,-270.5 387,-251.5 513,-251.5 513,-270.5"/>
<text text-anchor="middle" x="450" y="-258.5" font-family="Helvetica,sans-Serif" font-size="10.00">std::vector::push_back</text>
</a>
</g>
</g>
<!-- Node2&#45;&gt;Node5 -->
<g id="edge4_Node000002_Node000005" class="edge">
<title>Node2&#45;&gt;Node5</title>
<g id="a_edge4_Node000002_Node000005"><a xlink:title=" ">
<path fill="none" stroke="#63b8ff" d="M315.57,-275.67C334.83,-273.55 356.55,-271.16 376.79,-268.94"/>
<polygon fill="#63b8ff" stroke="#63b8ff" points="377.34,-272.4 386.9,-267.83 376.57,-265.44 377.34,-272.4"/>
</a>
</g>
</g>
<!-- Node7 -->
<g id="Node000007" class="node">
<title>Node7</title>
<g id="a_Node000007"><a target="_parent" xlink:href="http://en.cppreference.com/w/cpp/container/deque/back.html#" xlink:title=" ">
<polygon fill="white" stroke="#666666" points="498.5,-233.5 401.5,-233.5 401.5,-214.5 498.5,-214.5 498.5,-233.5"/>
<text text-anchor="middle" x="450" y="-221.5" font-family="Helvetica,sans-Serif" font-size="10.00">std::deque::back</text>
</a>
</g>
</g>
<!-- Node6&#45;&gt;Node7 -->
<g id="edge6_Node000006_Node000007" class="edge">
<title>Node6&#45;&gt;Node7</title>
<g id="a_edge6_Node000006_Node000007"><a xlink:title=" ">
<path fill="none" stroke="#63b8ff" d="M309.05,-189.03C328.39,-194.58 350.66,-200.78 371,-206 379.13,-208.09 387.76,-210.19 396.21,-212.19"/>
<polygon fill="#63b8ff" stroke="#63b8ff" points="395.46,-215.61 406,-214.47 397.05,-208.79 395.46,-215.61"/>
</a>
</g>
</g>
<!-- Node8 -->
<g id="Node000008" class="node">
<title>Node8</title>
<g id="a_Node000008"><a target="_parent" xlink:href="http://en.cppreference.com/w/cpp/container/deque/emplace_back.html#" xlink:title=" ">
<polygon fill="white" stroke="#666666" points="522,-196.5 378,-196.5 378,-177.5 522,-177.5 522,-196.5"/>
<text text-anchor="middle" x="450" y="-184.5" font-family="Helvetica,sans-Serif" font-size="10.00">std::deque::emplace_back</text>
</a>
</g>
</g>
<!-- Node6&#45;&gt;Node8 -->
<g id="edge7_Node000006_Node000008" class="edge">
<title>Node6&#45;&gt;Node8</title>
<g id="a_edge7_Node000006_Node000008"><a xlink:title=" ">
<path fill="none" stroke="#63b8ff" d="M315.57,-177.92C331.91,-179.03 350.02,-180.26 367.5,-181.45"/>
<polygon fill="#63b8ff" stroke="#63b8ff" points="367.48,-184.96 377.7,-182.15 367.96,-177.98 367.48,-184.96"/>
</a>
</g>
</g>
<!-- Node9 -->
<g id="Node000009" class="node">
<title>Node9</title>
<g id="a_Node000009"><a target="_parent" xlink:href="http://en.cppreference.com/w/cpp/container/deque/size.html#" xlink:title=" ">
<polygon fill="white" stroke="#666666" points="496.5,-159.5 403.5,-159.5 403.5,-140.5 496.5,-140.5 496.5,-159.5"/>
<text text-anchor="middle" x="450" y="-147.5" font-family="Helvetica,sans-Serif" font-size="10.00">std::deque::size</text>
</a>
</g>
</g>
<!-- Node6&#45;&gt;Node9 -->
<g id="edge8_Node000006_Node000009" class="edge">
<title>Node6&#45;&gt;Node9</title>
<g id="a_edge8_Node000006_Node000009"><a xlink:title=" ">
<path fill="none" stroke="#63b8ff" d="M315.57,-166.77C340.17,-163.68 368.79,-160.08 393.19,-157.01"/>
<polygon fill="#63b8ff" stroke="#63b8ff" points="393.89,-160.45 403.37,-155.73 393.01,-153.51 393.89,-160.45"/>
</a>
</g>
</g>
<!-- Node11 -->
<g id="Node000011" class="node">
<title>Node11</title>
<g id="a_Node000011"><a xlink:href="namespaceprecice_1_1testing.html#a9ebc1fa1dfd0f354f5c0951b8473dd29" target="_top" xlink:title=" ">
<polygon fill="white" stroke="#666666" points="524,-122.5 376,-122.5 376,-103.5 524,-103.5 524,-122.5"/>
<text text-anchor="middle" x="450" y="-110.5" font-family="Helvetica,sans-Serif" font-size="10.00">precice::testing::expectFile</text>
</a>
</g>
</g>
<!-- Node10&#45;&gt;Node11 -->
<g id="edge10_Node000010_Node000011" class="edge">
<title>Node10&#45;&gt;Node11</title>
<g id="a_edge10_Node000010_Node000011"><a xlink:title=" ">
<path fill="none" stroke="#63b8ff" d="M322.66,-116.97C336.42,-116.54 351.14,-116.07 365.49,-115.62"/>
<polygon fill="#63b8ff" stroke="#63b8ff" points="365.97,-119.11 375.85,-115.3 365.75,-112.11 365.97,-119.11"/>
</a>
</g>
</g>
<!-- Node12 -->
<g id="Node000012" class="node">
<title>Node12</title>
<g id="a_Node000012"><a target="_parent" xlink:href="http://en.cppreference.com/w/cpp/filesystem/is_regular_file.html#" xlink:title=" ">
<polygon fill="white" stroke="#666666" points="668,-128 565,-128 565,-98 668,-98 668,-128"/>
<text text-anchor="start" x="573" y="-116" font-family="Helvetica,sans-Serif" font-size="10.00">std::filesystem::is</text>
<text text-anchor="middle" x="616.5" y="-105" font-family="Helvetica,sans-Serif" font-size="10.00">_regular_file</text>
</a>
</g>
</g>
<!-- Node11&#45;&gt;Node12 -->
<g id="edge11_Node000011_Node000012" class="edge">
<title>Node11&#45;&gt;Node12</title>
<g id="a_edge11_Node000011_Node000012"><a xlink:title=" ">
<path fill="none" stroke="#63b8ff" d="M524.11,-113C534.3,-113 544.68,-113 554.61,-113"/>
<polygon fill="#63b8ff" stroke="#63b8ff" points="554.77,-116.5 564.77,-113 554.77,-109.5 554.77,-116.5"/>
</a>
</g>
</g>
<!-- Node14 -->
<g id="Node000014" class="node">
<title>Node14</title>
<g id="a_Node000014"><a xlink:href="classprecice_1_1utils_1_1ManageUniqueIDs.html#a02be264c279698ae293587b6576088b5" target="_top" xlink:title=" ">
<polygon fill="white" stroke="#666666" points="529,-85 371,-85 371,-55 529,-55 529,-85"/>
<text text-anchor="start" x="379" y="-73" font-family="Helvetica,sans-Serif" font-size="10.00">precice::utils::ManageUnique</text>
<text text-anchor="middle" x="450" y="-62" font-family="Helvetica,sans-Serif" font-size="10.00">IDs::getFreeID</text>
</a>
</g>
</g>
<!-- Node13&#45;&gt;Node14 -->
<g id="edge13_Node000013_Node000014" class="edge">
<title>Node13&#45;&gt;Node14</title>
<g id="a_edge13_Node000013_Node000014"><a xlink:title=" ">
<path fill="none" stroke="#63b8ff" d="M335.14,-73.58C343.62,-73.31 352.3,-73.04 360.91,-72.77"/>
<polygon fill="#63b8ff" stroke="#63b8ff" points="361.07,-76.26 370.95,-72.45 360.85,-69.27 361.07,-76.26"/>
</a>
</g>
</g>
<!-- Node15&#45;&gt;Node15 -->
<g id="edge15_Node000015_Node000015" class="edge">
<title>Node15&#45;&gt;Node15</title>
<g id="a_edge15_Node000015_Node000015"><a xlink:title=" ">
<path fill="none" stroke="#63b8ff" d="M224.66,-30.28C217.47,-39.41 228.25,-48 257,-48 274.07,-48 284.81,-44.97 289.21,-40.6"/>
<polygon fill="#63b8ff" stroke="#63b8ff" points="292.71,-40.32 289.34,-30.28 285.71,-40.23 292.71,-40.32"/>
</a>
</g>
</g>
</g>
</svg>
