<?xml version="1.0" encoding="UTF-8" standalone="no"?>
<!DOCTYPE svg PUBLIC "-//W3C//DTD SVG 1.1//EN"
 "http://www.w3.org/Graphics/SVG/1.1/DTD/svg11.dtd">
<!-- Generated by graphviz version 2.43.0 (0)
 -->
<!-- Title: BOOST_AUTO_TEST_CASE Pages: 1 -->
<!--zoomable 914 -->

<svg id="main" version="1.1" xmlns="http://www.w3.org/2000/svg" xmlns:xlink="http://www.w3.org/1999/xlink" xml:space="preserve" onload="init(evt)">
<style type="text/css"><![CDATA[
.node, .edge {opacity: 0.7;}
.node.selected, .edge.selected {opacity: 1;}
.edge:hover path { stroke: red; }
.edge:hover polygon { stroke: red; fill: red; }
]]></style>

<defs>
  <circle id="rim" cx="0" cy="0" r="7"/>
  <circle id="rim2" cx="0" cy="0" r="3.5"/>
  <g id="zoomPlus">
    <use xlink:href="#rim" fill="#404040"><set attributeName="fill" to="#808080" begin="zoomplus.mouseover" end="zoomplus.mouseout"/></use>
    <path d="M-4,0h8M0,-4v8" fill="none" stroke="white" stroke-width="1.5" pointer-events="none"/>
  </g>
  <g id="zoomMin">
    <use xlink:href="#rim" fill="#404040"><set attributeName="fill" to="#808080" begin="zoomminus.mouseover" end="zoomminus.mouseout"/></use>
    <path d="M-4,0h8" fill="none" stroke="white" stroke-width="1.5" pointer-events="none"/>
  </g>
  <g id="arrowUp" transform="translate(30 24)">
    <use xlink:href="#rim"/>
    <path pointer-events="none" fill="none" stroke="white" stroke-width="1.5" d="M0,-3.0v7 M-2.5,-0.5L0,-3.0L2.5,-0.5"/>
  </g>
  <g id="arrowRight" transform="rotate(90) translate(36 -43)">
    <use xlink:href="#rim"/>
    <path pointer-events="none" fill="none" stroke="white" stroke-width="1.5" d="M0,-3.0v7 M-2.5,-0.5L0,-3.0L2.5,-0.5"/>
  </g>
  <g id="arrowDown" transform="rotate(180) translate(-30 -48)">
    <use xlink:href="#rim"/>
    <path pointer-events="none" fill="none" stroke="white" stroke-width="1.5" d="M0,-3.0v7 M-2.5,-0.5L0,-3.0L2.5,-0.5"/>
  </g>
  <g id="arrowLeft" transform="rotate(270) translate(-36 17)">
    <use xlink:href="#rim"/>
    <path pointer-events="none" fill="none" stroke="white" stroke-width="1.5" d="M0,-3.0v7 M-2.5,-0.5L0,-3.0L2.5,-0.5"/>
  </g>
  <g id="resetDef">
    <use xlink:href="#rim2" fill="#404040"><set attributeName="fill" to="#808080" begin="reset.mouseover" end="reset.mouseout"/></use>
  </g>
</defs>
<script type="application/ecmascript">
var viewWidth = 826;
var viewHeight = 914;
var sectionId = 'dynsection-1';
</script>
<script type="application/ecmascript" xlink:href="svg.min.js"/>
<svg id="graph" class="graph">
<g id="viewport">
<title>BOOST_AUTO_TEST_CASE</title>
<!-- Node1 -->
<g id="Node000001" class="node">
<title>Node1</title>
<g id="a_Node000001"><a xlink:title=" ">
<polygon fill="#999999" stroke="#666666" points="143,-675 0,-675 0,-656 143,-656 143,-675"/>
<text text-anchor="middle" x="71.5" y="-663" font-family="Helvetica,sans-Serif" font-size="10.00">BOOST_AUTO_TEST_CASE</text>
</a>
</g>
</g>
<!-- Node2 -->
<g id="Node000002" class="node">
<title>Node2</title>
<g id="a_Node000002"><a xlink:href="classprecice_1_1mesh_1_1Mesh.html#afa920f8d8d32076837ae5e3dc28b0eea" target="_top" xlink:title="Allocates memory for the vertex data values and corresponding gradient values.">
<polygon fill="white" stroke="#666666" points="508.5,-680.5 391.5,-680.5 391.5,-650.5 508.5,-650.5 508.5,-680.5"/>
<text text-anchor="start" x="399.5" y="-668.5" font-family="Helvetica,sans-Serif" font-size="10.00">precice::mesh::Mesh</text>
<text text-anchor="middle" x="450" y="-657.5" font-family="Helvetica,sans-Serif" font-size="10.00">::allocateDataValues</text>
</a>
</g>
</g>
<!-- Node1&#45;&gt;Node2 -->
<g id="edge1_Node000001_Node000002" class="edge">
<title>Node1&#45;&gt;Node2</title>
<g id="a_edge1_Node000001_Node000002"><a xlink:title=" ">
<path fill="none" stroke="#63b8ff" d="M143.32,-665.5C211.6,-665.5 314.2,-665.5 381.38,-665.5"/>
<polygon fill="#63b8ff" stroke="#63b8ff" points="381.44,-669 391.44,-665.5 381.44,-662 381.44,-669"/>
</a>
</g>
</g>
<!-- Node5 -->
<g id="Node000005" class="node">
<title>Node5</title>
<g id="a_Node000005"><a xlink:href="classprecice_1_1mesh_1_1Mesh.html#a6e3fec22b430b35daccd92ef560d2c87" target="_top" xlink:title="Create only data for vertex.">
<polygon fill="white" stroke="#666666" points="315.5,-855.5 198.5,-855.5 198.5,-825.5 315.5,-825.5 315.5,-855.5"/>
<text text-anchor="start" x="206.5" y="-843.5" font-family="Helvetica,sans-Serif" font-size="10.00">precice::mesh::Mesh</text>
<text text-anchor="middle" x="257" y="-832.5" font-family="Helvetica,sans-Serif" font-size="10.00">::createData</text>
</a>
</g>
</g>
<!-- Node1&#45;&gt;Node5 -->
<g id="edge4_Node000001_Node000005" class="edge">
<title>Node1&#45;&gt;Node5</title>
<g id="a_edge4_Node000001_Node000005"><a xlink:title=" ">
<path fill="none" stroke="#63b8ff" d="M82.63,-675.16C111.08,-702.3 192.31,-779.76 232.67,-818.25"/>
<polygon fill="#63b8ff" stroke="#63b8ff" points="230.51,-821.03 240.16,-825.4 235.34,-815.96 230.51,-821.03"/>
</a>
</g>
</g>
<!-- Node8 -->
<g id="Node000008" class="node">
<title>Node8</title>
<g id="a_Node000008"><a xlink:href="classprecice_1_1mesh_1_1Mesh.html#af6e6d684553dc5d0f0a23cacb77b3fc7" target="_top" xlink:title="Creates and initializes a Vertex object.">
<polygon fill="white" stroke="#666666" points="315.5,-741.5 198.5,-741.5 198.5,-711.5 315.5,-711.5 315.5,-741.5"/>
<text text-anchor="start" x="206.5" y="-729.5" font-family="Helvetica,sans-Serif" font-size="10.00">precice::mesh::Mesh</text>
<text text-anchor="middle" x="257" y="-718.5" font-family="Helvetica,sans-Serif" font-size="10.00">::createVertex</text>
</a>
</g>
</g>
<!-- Node1&#45;&gt;Node8 -->
<g id="edge8_Node000001_Node000008" class="edge">
<title>Node1&#45;&gt;Node8</title>
<g id="a_edge8_Node000001_Node000008"><a xlink:title=" ">
<path fill="none" stroke="#63b8ff" d="M101.17,-675.03C127.87,-683.91 168.38,-697.37 201.26,-708.3"/>
<polygon fill="#63b8ff" stroke="#63b8ff" points="200.16,-711.63 210.76,-711.46 202.37,-704.98 200.16,-711.63"/>
</a>
</g>
</g>
<!-- Node11 -->
<g id="Node000011" class="node">
<title>Node11</title>
<g id="a_Node000011"><a xlink:href="classprecice_1_1io_1_1ExportVTK.html#ad5ac77cae274433043e8d64b6a98c8e0" target="_top" xlink:title="Perform writing to VTK file.">
<polygon fill="white" stroke="#666666" points="319,-392.5 195,-392.5 195,-362.5 319,-362.5 319,-392.5"/>
<text text-anchor="start" x="203" y="-380.5" font-family="Helvetica,sans-Serif" font-size="10.00">precice::io::ExportVTK</text>
<text text-anchor="middle" x="257" y="-369.5" font-family="Helvetica,sans-Serif" font-size="10.00">::doExport</text>
</a>
</g>
</g>
<!-- Node1&#45;&gt;Node11 -->
<g id="edge12_Node000001_Node000011" class="edge">
<title>Node1&#45;&gt;Node11</title>
<g id="a_edge12_Node000001_Node000011"><a xlink:title=" ">
<path fill="none" stroke="#63b8ff" d="M78.61,-655.92C104.11,-615.89 202.55,-461.39 240.74,-401.45"/>
<polygon fill="#63b8ff" stroke="#63b8ff" points="243.91,-402.99 246.33,-392.68 238,-399.23 243.91,-402.99"/>
</a>
</g>
</g>
<!-- Node37 -->
<g id="Node000037" class="node">
<title>Node37</title>
<g id="a_Node000037"><a xlink:href="namespaceprecice_1_1testing.html#a08533fd83bad3d7f27ea7f4a35a14aa4" target="_top" xlink:title=" ">
<polygon fill="white" stroke="#666666" points="335,-213 179,-213 179,-194 335,-194 335,-213"/>
<text text-anchor="middle" x="257" y="-201" font-family="Helvetica,sans-Serif" font-size="10.00">precice::testing::nextMeshID</text>
</a>
</g>
</g>
<!-- Node1&#45;&gt;Node37 -->
<g id="edge46_Node000001_Node000037" class="edge">
<title>Node1&#45;&gt;Node37</title>
<g id="a_edge46_Node000001_Node000037"><a xlink:title=" ">
<path fill="none" stroke="#63b8ff" d="M75.23,-655.87C86.31,-617.19 129.67,-469.66 179,-353.5 199.69,-304.79 229.56,-250.06 245.33,-222.12"/>
<polygon fill="#63b8ff" stroke="#63b8ff" points="248.56,-223.52 250.45,-213.09 242.47,-220.06 248.56,-223.52"/>
</a>
</g>
</g>
<!-- Node3 -->
<g id="Node000003" class="node">
<title>Node3</title>
<g id="a_Node000003"><a xlink:href="classprecice_1_1mesh_1_1Mesh.html#aceb3eabb4f8e40a44d5d1c2822ba7b56" target="_top" xlink:title="Allows access to all data.">
<polygon fill="white" stroke="#666666" points="685.5,-708.5 568.5,-708.5 568.5,-678.5 685.5,-678.5 685.5,-708.5"/>
<text text-anchor="start" x="576.5" y="-696.5" font-family="Helvetica,sans-Serif" font-size="10.00">precice::mesh::Mesh</text>
<text text-anchor="middle" x="627" y="-685.5" font-family="Helvetica,sans-Serif" font-size="10.00">::data</text>
</a>
</g>
</g>
<!-- Node2&#45;&gt;Node3 -->
<g id="edge2_Node000002_Node000003" class="edge">
<title>Node2&#45;&gt;Node3</title>
<g id="a_edge2_Node000002_Node000003"><a xlink:title=" ">
<path fill="none" stroke="#63b8ff" d="M508.79,-674.75C524.62,-677.28 541.92,-680.05 558.25,-682.66"/>
<polygon fill="#63b8ff" stroke="#63b8ff" points="557.85,-686.14 568.27,-684.26 558.95,-679.23 557.85,-686.14"/>
</a>
</g>
</g>
<!-- Node4 -->
<g id="Node000004" class="node">
<title>Node4</title>
<g id="a_Node000004"><a target="_parent" xlink:href="http://en.cppreference.com/w/cpp/container/deque/size.html#" xlink:title=" ">
<polygon fill="white" stroke="#666666" points="818,-633 725,-633 725,-614 818,-614 818,-633"/>
<text text-anchor="middle" x="771.5" y="-621" font-family="Helvetica,sans-Serif" font-size="10.00">std::deque::size</text>
</a>
</g>
</g>
<!-- Node2&#45;&gt;Node4 -->
<g id="edge3_Node000002_Node000004" class="edge">
<title>Node2&#45;&gt;Node4</title>
<g id="a_edge3_Node000002_Node000004"><a xlink:title=" ">
<path fill="none" stroke="#63b8ff" d="M506.07,-680.59C513.94,-683.48 521.8,-686.78 529,-690.5 546.77,-699.68 546.03,-711.18 565,-717.5 617.28,-734.93 638.87,-740.39 689,-717.5 722.89,-702.03 748.11,-664.74 760.96,-642.05"/>
<polygon fill="#63b8ff" stroke="#63b8ff" points="764.14,-643.51 765.84,-633.05 757.99,-640.17 764.14,-643.51"/>
</a>
</g>
</g>
<!-- Node5&#45;&gt;Node3 -->
<g id="edge6_Node000005_Node000003" class="edge">
<title>Node5&#45;&gt;Node3</title>
<g id="a_edge6_Node000005_Node000003"><a xlink:title=" ">
<path fill="none" stroke="#63b8ff" d="M315.68,-830.56C372.06,-819.43 459.35,-798.37 529,-764.5 555.81,-751.46 582.91,-730.86 601.62,-715.21"/>
<polygon fill="#63b8ff" stroke="#63b8ff" points="604.01,-717.77 609.35,-708.62 599.47,-712.44 604.01,-717.77"/>
</a>
</g>
</g>
<!-- Node6 -->
<g id="Node000006" class="node">
<title>Node6</title>
<g id="a_Node000006"><a target="_parent" xlink:href="http://en.cppreference.com/w/cpp/container/vector/back.html#" xlink:title=" ">
<polygon fill="white" stroke="#666666" points="499,-869 401,-869 401,-850 499,-850 499,-869"/>
<text text-anchor="middle" x="450" y="-857" font-family="Helvetica,sans-Serif" font-size="10.00">std::vector::back</text>
</a>
</g>
</g>
<!-- Node5&#45;&gt;Node6 -->
<g id="edge5_Node000005_Node000006" class="edge">
<title>Node5&#45;&gt;Node6</title>
<g id="a_edge5_Node000005_Node000006"><a xlink:title=" ">
<path fill="none" stroke="#63b8ff" d="M315.57,-846.23C339.4,-848.6 367,-851.34 390.89,-853.72"/>
<polygon fill="#63b8ff" stroke="#63b8ff" points="390.59,-857.21 400.88,-854.71 391.28,-850.24 390.59,-857.21"/>
</a>
</g>
</g>
<!-- Node7 -->
<g id="Node000007" class="node">
<title>Node7</title>
<g id="a_Node000007"><a target="_parent" xlink:href="http://en.cppreference.com/w/cpp/container/vector/push_back.html#" xlink:title=" ">
<polygon fill="white" stroke="#666666" points="513,-906 387,-906 387,-887 513,-887 513,-906"/>
<text text-anchor="middle" x="450" y="-894" font-family="Helvetica,sans-Serif" font-size="10.00">std::vector::push_back</text>
</a>
</g>
</g>
<!-- Node5&#45;&gt;Node7 -->
<g id="edge7_Node000005_Node000007" class="edge">
<title>Node5&#45;&gt;Node7</title>
<g id="a_edge7_Node000005_Node000007"><a xlink:title=" ">
<path fill="none" stroke="#63b8ff" d="M299.55,-855.56C320.78,-862.97 347.1,-871.74 371,-878.5 378.52,-880.63 386.5,-882.69 394.38,-884.61"/>
<polygon fill="#63b8ff" stroke="#63b8ff" points="393.72,-888.05 404.26,-886.96 395.34,-881.24 393.72,-888.05"/>
</a>
</g>
</g>
<!-- Node8&#45;&gt;Node4 -->
<g id="edge11_Node000008_Node000004" class="edge">
<title>Node8&#45;&gt;Node4</title>
<g id="a_edge11_Node000008_Node000004"><a xlink:title=" ">
<path fill="none" stroke="#63b8ff" d="M292.87,-741.5C314.84,-750.12 344.04,-760.09 371,-764.5 510.94,-787.4 568.68,-813.55 689,-738.5 726.03,-715.41 751.02,-668.68 762.77,-642.46"/>
<polygon fill="#63b8ff" stroke="#63b8ff" points="766.02,-643.77 766.75,-633.2 759.58,-641.01 766.02,-643.77"/>
</a>
</g>
</g>
<!-- Node9 -->
<g id="Node000009" class="node">
<title>Node9</title>
<g id="a_Node000009"><a target="_parent" xlink:href="http://en.cppreference.com/w/cpp/container/deque/back.html#" xlink:title=" ">
<polygon fill="white" stroke="#666666" points="498.5,-755 401.5,-755 401.5,-736 498.5,-736 498.5,-755"/>
<text text-anchor="middle" x="450" y="-743" font-family="Helvetica,sans-Serif" font-size="10.00">std::deque::back</text>
</a>
</g>
</g>
<!-- Node8&#45;&gt;Node9 -->
<g id="edge9_Node000008_Node000009" class="edge">
<title>Node8&#45;&gt;Node9</title>
<g id="a_edge9_Node000008_Node000009"><a xlink:title=" ">
<path fill="none" stroke="#63b8ff" d="M315.57,-732.23C339.5,-734.61 367.22,-737.37 391.18,-739.75"/>
<polygon fill="#63b8ff" stroke="#63b8ff" points="390.9,-743.24 401.2,-740.74 391.59,-736.27 390.9,-743.24"/>
</a>
</g>
</g>
<!-- Node10 -->
<g id="Node000010" class="node">
<title>Node10</title>
<g id="a_Node000010"><a target="_parent" xlink:href="http://en.cppreference.com/w/cpp/container/deque/emplace_back.html#" xlink:title=" ">
<polygon fill="white" stroke="#666666" points="522,-718 378,-718 378,-699 522,-699 522,-718"/>
<text text-anchor="middle" x="450" y="-706" font-family="Helvetica,sans-Serif" font-size="10.00">std::deque::emplace_back</text>
</a>
</g>
</g>
<!-- Node8&#45;&gt;Node10 -->
<g id="edge10_Node000008_Node000010" class="edge">
<title>Node8&#45;&gt;Node10</title>
<g id="a_edge10_Node000008_Node000010"><a xlink:title=" ">
<path fill="none" stroke="#63b8ff" d="M315.57,-721.07C331.91,-719.53 350.02,-717.83 367.5,-716.18"/>
<polygon fill="#63b8ff" stroke="#63b8ff" points="368.07,-719.64 377.7,-715.22 367.41,-712.67 368.07,-719.64"/>
</a>
</g>
</g>
<!-- Node12 -->
<g id="Node000012" class="node">
<title>Node12</title>
<g id="a_Node000012"><a target="_parent" xlink:href="http://en.cppreference.com/w/cpp/io/basic_ofstream/close.html#" xlink:title=" ">
<polygon fill="white" stroke="#666666" points="506.5,-296 393.5,-296 393.5,-277 506.5,-277 506.5,-296"/>
<text text-anchor="middle" x="450" y="-284" font-family="Helvetica,sans-Serif" font-size="10.00">std::ofstream::close</text>
</a>
</g>
</g>
<!-- Node11&#45;&gt;Node12 -->
<g id="edge13_Node000011_Node000012" class="edge">
<title>Node11&#45;&gt;Node12</title>
<g id="a_edge13_Node000011_Node000012"><a xlink:title=" ">
<path fill="none" stroke="#63b8ff" d="M277.3,-362.38C298.96,-346.11 335.69,-320.56 371,-305.5 376.81,-303.02 383,-300.83 389.26,-298.89"/>
<polygon fill="#63b8ff" stroke="#63b8ff" points="390.46,-302.19 399.11,-296.06 388.53,-295.46 390.46,-302.19"/>
</a>
</g>
</g>
<!-- Node13 -->
<g id="Node000013" class="node">
<title>Node13</title>
<g id="a_Node000013"><a target="_parent" xlink:href="http://en.cppreference.com/w/cpp/filesystem/create_directory.html#" xlink:title=" ">
<polygon fill="white" stroke="#666666" points="512.5,-172.5 387.5,-172.5 387.5,-142.5 512.5,-142.5 512.5,-172.5"/>
<text text-anchor="start" x="395.5" y="-160.5" font-family="Helvetica,sans-Serif" font-size="10.00">std::filesystem::create</text>
<text text-anchor="middle" x="450" y="-149.5" font-family="Helvetica,sans-Serif" font-size="10.00">_directories</text>
</a>
</g>
</g>
<!-- Node11&#45;&gt;Node13 -->
<g id="edge14_Node000011_Node000013" class="edge">
<title>Node11&#45;&gt;Node13</title>
<g id="a_edge14_Node000011_Node000013"><a xlink:title=" ">
<path fill="none" stroke="#63b8ff" d="M264.92,-362.4C284.16,-320.99 338.99,-207.03 371,-181.5 373.28,-179.68 375.71,-177.99 378.23,-176.44"/>
<polygon fill="#63b8ff" stroke="#63b8ff" points="380.01,-179.45 387.15,-171.62 376.69,-173.29 380.01,-179.45"/>
</a>
</g>
</g>
<!-- Node14 -->
<g id="Node000014" class="node">
<title>Node14</title>
<g id="a_Node000014"><a target="_parent" xlink:href="http://en.cppreference.com/w/cpp/string/basic_string/empty.html#" xlink:title=" ">
<polygon fill="white" stroke="#666666" points="501.5,-124 398.5,-124 398.5,-105 501.5,-105 501.5,-124"/>
<text text-anchor="middle" x="450" y="-112" font-family="Helvetica,sans-Serif" font-size="10.00">std::string::empty</text>
</a>
</g>
</g>
<!-- Node11&#45;&gt;Node14 -->
<g id="edge15_Node000011_Node000014" class="edge">
<title>Node11&#45;&gt;Node14</title>
<g id="a_edge15_Node000011_Node000014"><a xlink:title=" ">
<path fill="none" stroke="#63b8ff" d="M266.04,-362.29C280.51,-334.73 311.58,-274.56 335,-222.5 352.5,-183.59 338.72,-161.4 371,-133.5 376.17,-129.03 382.23,-125.58 388.63,-122.91"/>
<polygon fill="#63b8ff" stroke="#63b8ff" points="389.94,-126.16 398.21,-119.55 387.62,-119.56 389.94,-126.16"/>
</a>
</g>
</g>
<!-- Node15 -->
<g id="Node000015" class="node">
<title>Node15</title>
<g id="a_Node000015"><a xlink:href="classprecice_1_1io_1_1ExportVTK.html#a059f840aae386d0aceef44b4776a4841" target="_top" xlink:title=" ">
<polygon fill="white" stroke="#666666" points="512,-584.5 388,-584.5 388,-554.5 512,-554.5 512,-584.5"/>
<text text-anchor="start" x="396" y="-572.5" font-family="Helvetica,sans-Serif" font-size="10.00">precice::io::ExportVTK</text>
<text text-anchor="middle" x="450" y="-561.5" font-family="Helvetica,sans-Serif" font-size="10.00">::exportData</text>
</a>
</g>
</g>
<!-- Node11&#45;&gt;Node15 -->
<g id="edge16_Node000011_Node000015" class="edge">
<title>Node11&#45;&gt;Node15</title>
<g id="a_edge16_Node000011_Node000015"><a xlink:title=" ">
<path fill="none" stroke="#63b8ff" d="M263.96,-392.58C277.71,-425.42 314.83,-503.81 371,-545.5 373.48,-547.34 376.1,-549.04 378.83,-550.61"/>
<polygon fill="#63b8ff" stroke="#63b8ff" points="377.32,-553.77 387.82,-555.21 380.5,-547.54 377.32,-553.77"/>
</a>
</g>
</g>
<!-- Node19 -->
<g id="Node000019" class="node">
<title>Node19</title>
<g id="a_Node000019"><a xlink:href="classprecice_1_1io_1_1ExportVTK.html#afe67b3e2730e44111fdba15d8ac53c1a" target="_top" xlink:title=" ">
<polygon fill="white" stroke="#666666" points="512,-632.5 388,-632.5 388,-602.5 512,-602.5 512,-632.5"/>
<text text-anchor="start" x="396" y="-620.5" font-family="Helvetica,sans-Serif" font-size="10.00">precice::io::ExportVTK</text>
<text text-anchor="middle" x="450" y="-609.5" font-family="Helvetica,sans-Serif" font-size="10.00">::exportGradient</text>
</a>
</g>
</g>
<!-- Node11&#45;&gt;Node19 -->
<g id="edge22_Node000011_Node000019" class="edge">
<title>Node11&#45;&gt;Node19</title>
<g id="a_edge22_Node000011_Node000019"><a xlink:title=" ">
<path fill="none" stroke="#63b8ff" d="M261.58,-392.62C271.64,-431.86 303.96,-537.76 371,-593.5 373.43,-595.52 376.02,-597.37 378.74,-599.06"/>
<polygon fill="#63b8ff" stroke="#63b8ff" points="377.31,-602.27 387.77,-603.96 380.65,-596.11 377.31,-602.27"/>
</a>
</g>
</g>
<!-- Node21 -->
<g id="Node000021" class="node">
<title>Node21</title>
<g id="a_Node000021"><a xlink:href="classprecice_1_1io_1_1ExportVTK.html#aba316940c3b78a5f6b47cd769e1d70c5" target="_top" xlink:title=" ">
<polygon fill="white" stroke="#666666" points="512,-344.5 388,-344.5 388,-314.5 512,-314.5 512,-344.5"/>
<text text-anchor="start" x="396" y="-332.5" font-family="Helvetica,sans-Serif" font-size="10.00">precice::io::ExportVTK</text>
<text text-anchor="middle" x="450" y="-321.5" font-family="Helvetica,sans-Serif" font-size="10.00">::exportMesh</text>
</a>
</g>
</g>
<!-- Node11&#45;&gt;Node21 -->
<g id="edge25_Node000011_Node000021" class="edge">
<title>Node11&#45;&gt;Node21</title>
<g id="a_edge25_Node000011_Node000021"><a xlink:title=" ">
<path fill="none" stroke="#63b8ff" d="M317.91,-362.44C337.47,-357.53 359.34,-352.03 379.54,-346.96"/>
<polygon fill="#63b8ff" stroke="#63b8ff" points="380.46,-350.33 389.3,-344.5 378.75,-343.55 380.46,-350.33"/>
</a>
</g>
</g>
<!-- Node23 -->
<g id="Node000023" class="node">
<title>Node23</title>
<g id="a_Node000023"><a xlink:href="classprecice_1_1mesh_1_1Mesh.html#a3185fe962ba3e8fe0b3cf451681e6a48" target="_top" xlink:title="Returns the name of the mesh, as set in the config file.">
<polygon fill="white" stroke="#666666" points="685.5,-104.5 568.5,-104.5 568.5,-74.5 685.5,-74.5 685.5,-104.5"/>
<text text-anchor="start" x="576.5" y="-92.5" font-family="Helvetica,sans-Serif" font-size="10.00">precice::mesh::Mesh</text>
<text text-anchor="middle" x="627" y="-81.5" font-family="Helvetica,sans-Serif" font-size="10.00">::getName</text>
</a>
</g>
</g>
<!-- Node11&#45;&gt;Node23 -->
<g id="edge39_Node000011_Node000023" class="edge">
<title>Node11&#45;&gt;Node23</title>
<g id="a_edge39_Node000011_Node000023"><a xlink:title=" ">
<path fill="none" stroke="#63b8ff" d="M269.37,-362.24C287.93,-338.45 327.1,-292.75 371,-268.5 434.31,-233.53 476.37,-279.12 529,-229.5 568.28,-192.47 528.27,-153.05 565,-113.5 565.89,-112.54 566.83,-111.61 567.8,-110.73"/>
<polygon fill="#63b8ff" stroke="#63b8ff" points="570.03,-113.43 575.91,-104.62 565.82,-107.84 570.03,-113.43"/>
</a>
</g>
</g>
<!-- Node30 -->
<g id="Node000030" class="node">
<title>Node30</title>
<g id="a_Node000030"><a target="_parent" xlink:href="http://en.cppreference.com/w/cpp/filesystem/path/generic_string.html#" xlink:title=" ">
<polygon fill="white" stroke="#666666" points="508,-536.5 392,-536.5 392,-506.5 508,-506.5 508,-536.5"/>
<text text-anchor="start" x="400" y="-524.5" font-family="Helvetica,sans-Serif" font-size="10.00">std::filesystem::path</text>
<text text-anchor="middle" x="450" y="-513.5" font-family="Helvetica,sans-Serif" font-size="10.00">::generic_string</text>
</a>
</g>
</g>
<!-- Node11&#45;&gt;Node30 -->
<g id="edge38_Node000011_Node000030" class="edge">
<title>Node11&#45;&gt;Node30</title>
<g id="a_edge38_Node000011_Node000030"><a xlink:title=" ">
<path fill="none" stroke="#63b8ff" d="M268.3,-392.79C286.22,-418.22 325.58,-469.21 371,-497.5 374.59,-499.73 378.39,-501.77 382.32,-503.63"/>
<polygon fill="#63b8ff" stroke="#63b8ff" points="381.1,-506.91 391.67,-507.65 383.87,-500.48 381.1,-506.91"/>
</a>
</g>
</g>
<!-- Node31 -->
<g id="Node000031" class="node">
<title>Node31</title>
<g id="a_Node000031"><a xlink:href="classprecice_1_1io_1_1ExportVTK.html#a49609d2a00aee1bb2775c513c2c0da5a" target="_top" xlink:title=" ">
<polygon fill="white" stroke="#666666" points="512,-220.5 388,-220.5 388,-190.5 512,-190.5 512,-220.5"/>
<text text-anchor="start" x="396" y="-208.5" font-family="Helvetica,sans-Serif" font-size="10.00">precice::io::ExportVTK</text>
<text text-anchor="middle" x="450" y="-197.5" font-family="Helvetica,sans-Serif" font-size="10.00">::initializeWriting</text>
</a>
</g>
</g>
<!-- Node11&#45;&gt;Node31 -->
<g id="edge40_Node000011_Node000031" class="edge">
<title>Node11&#45;&gt;Node31</title>
<g id="a_edge40_Node000011_Node000031"><a xlink:title=" ">
<path fill="none" stroke="#63b8ff" d="M266.19,-362.31C282.47,-333.46 321.62,-270.43 371,-234.5 375.86,-230.96 381.21,-227.81 386.75,-225"/>
<polygon fill="#63b8ff" stroke="#63b8ff" points="388.61,-228 396.21,-220.61 385.67,-221.65 388.61,-228"/>
</a>
</g>
</g>
<!-- Node34 -->
<g id="Node000034" class="node">
<title>Node34</title>
<g id="a_Node000034"><a xlink:href="classprecice_1_1utils_1_1IntraComm.html#a946589c66048ff3058ffa078d54b6073" target="_top" xlink:title="True if this process is running in parallel.">
<polygon fill="white" stroke="#666666" points="520,-488.5 380,-488.5 380,-458.5 520,-458.5 520,-488.5"/>
<text text-anchor="start" x="388" y="-476.5" font-family="Helvetica,sans-Serif" font-size="10.00">precice::utils::IntraComm</text>
<text text-anchor="middle" x="450" y="-465.5" font-family="Helvetica,sans-Serif" font-size="10.00">::isParallel</text>
</a>
</g>
</g>
<!-- Node11&#45;&gt;Node34 -->
<g id="edge43_Node000011_Node000034" class="edge">
<title>Node11&#45;&gt;Node34</title>
<g id="a_edge43_Node000011_Node000034"><a xlink:title=" ">
<path fill="none" stroke="#63b8ff" d="M277.87,-392.51C299.73,-408.45 336.37,-433.5 371,-449.5 375.09,-451.39 379.37,-453.18 383.72,-454.87"/>
<polygon fill="#63b8ff" stroke="#63b8ff" points="382.74,-458.24 393.34,-458.39 385.15,-451.66 382.74,-458.24"/>
</a>
</g>
</g>
<!-- Node35 -->
<g id="Node000035" class="node">
<title>Node35</title>
<g id="a_Node000035"><a target="_parent" xlink:href="http://en.cppreference.com/w/cpp/filesystem/path/string.html#" xlink:title=" ">
<polygon fill="white" stroke="#666666" points="508,-440.5 392,-440.5 392,-410.5 508,-410.5 508,-440.5"/>
<text text-anchor="start" x="400" y="-428.5" font-family="Helvetica,sans-Serif" font-size="10.00">std::filesystem::path</text>
<text text-anchor="middle" x="450" y="-417.5" font-family="Helvetica,sans-Serif" font-size="10.00">::string</text>
</a>
</g>
</g>
<!-- Node11&#45;&gt;Node35 -->
<g id="edge44_Node000011_Node000035" class="edge">
<title>Node11&#45;&gt;Node35</title>
<g id="a_edge44_Node000011_Node000035"><a xlink:title=" ">
<path fill="none" stroke="#63b8ff" d="M317.91,-392.56C338.31,-397.68 361.24,-403.44 382.15,-408.7"/>
<polygon fill="#63b8ff" stroke="#63b8ff" points="381.36,-412.11 391.91,-411.15 383.07,-405.32 381.36,-412.11"/>
</a>
</g>
</g>
<!-- Node36 -->
<g id="Node000036" class="node">
<title>Node36</title>
<g id="a_Node000036"><a xlink:href="classprecice_1_1io_1_1ExportVTK.html#a2774522fb358345188e85245cc48a0b6" target="_top" xlink:title=" ">
<polygon fill="white" stroke="#666666" points="512,-392.5 388,-392.5 388,-362.5 512,-362.5 512,-392.5"/>
<text text-anchor="start" x="396" y="-380.5" font-family="Helvetica,sans-Serif" font-size="10.00">precice::io::ExportVTK</text>
<text text-anchor="middle" x="450" y="-369.5" font-family="Helvetica,sans-Serif" font-size="10.00">::writeHeader</text>
</a>
</g>
</g>
<!-- Node11&#45;&gt;Node36 -->
<g id="edge45_Node000011_Node000036" class="edge">
<title>Node11&#45;&gt;Node36</title>
<g id="a_edge45_Node000011_Node000036"><a xlink:title=" ">
<path fill="none" stroke="#63b8ff" d="M319.22,-377.5C337.81,-377.5 358.4,-377.5 377.6,-377.5"/>
<polygon fill="#63b8ff" stroke="#63b8ff" points="377.8,-381 387.8,-377.5 377.8,-374 377.8,-381"/>
</a>
</g>
</g>
<!-- Node15&#45;&gt;Node3 -->
<g id="edge17_Node000015_Node000003" class="edge">
<title>Node15&#45;&gt;Node3</title>
<g id="a_edge17_Node000015_Node000003"><a xlink:title=" ">
<path fill="none" stroke="#63b8ff" d="M512.01,-582.66C518.15,-585.58 523.97,-589.14 529,-593.5 557.26,-617.96 537.69,-643.98 565,-669.5 566.26,-670.68 567.58,-671.8 568.95,-672.86"/>
<polygon fill="#63b8ff" stroke="#63b8ff" points="567.05,-675.8 577.31,-678.42 570.92,-669.97 567.05,-675.8"/>
</a>
</g>
</g>
<!-- Node16 -->
<g id="Node000016" class="node">
<title>Node16</title>
<g id="a_Node000016"><a target="_parent" xlink:href="http://en.cppreference.com/w/cpp/algorithm/fill_n.html#" xlink:title=" ">
<polygon fill="white" stroke="#666666" points="657.5,-612 596.5,-612 596.5,-593 657.5,-593 657.5,-612"/>
<text text-anchor="middle" x="627" y="-600" font-family="Helvetica,sans-Serif" font-size="10.00">std::fill_n</text>
</a>
</g>
</g>
<!-- Node15&#45;&gt;Node16 -->
<g id="edge18_Node000015_Node000016" class="edge">
<title>Node15&#45;&gt;Node16</title>
<g id="a_edge18_Node000015_Node000016"><a xlink:title=" ">
<path fill="none" stroke="#63b8ff" d="M512.21,-581.04C536.88,-585.69 564.63,-590.93 586.55,-595.06"/>
<polygon fill="#63b8ff" stroke="#63b8ff" points="586.02,-598.52 596.49,-596.94 587.31,-591.64 586.02,-598.52"/>
</a>
</g>
</g>
<!-- Node17 -->
<g id="Node000017" class="node">
<title>Node17</title>
<g id="a_Node000017"><a xlink:href="classprecice_1_1mesh_1_1Mesh.html#a4220c9b15bb1c3dbf5c00701851f8288" target="_top" xlink:title="Returns the number of vertices.">
<polygon fill="white" stroke="#666666" points="685.5,-526.5 568.5,-526.5 568.5,-496.5 685.5,-496.5 685.5,-526.5"/>
<text text-anchor="start" x="576.5" y="-514.5" font-family="Helvetica,sans-Serif" font-size="10.00">precice::mesh::Mesh</text>
<text text-anchor="middle" x="627" y="-503.5" font-family="Helvetica,sans-Serif" font-size="10.00">::nVertices</text>
</a>
</g>
</g>
<!-- Node15&#45;&gt;Node17 -->
<g id="edge19_Node000015_Node000017" class="edge">
<title>Node15&#45;&gt;Node17</title>
<g id="a_edge19_Node000015_Node000017"><a xlink:title=" ">
<path fill="none" stroke="#63b8ff" d="M501.02,-554.42C510.34,-551.52 519.98,-548.47 529,-545.5 543.88,-540.61 559.96,-535.07 574.66,-529.91"/>
<polygon fill="#63b8ff" stroke="#63b8ff" points="575.84,-533.21 584.1,-526.58 573.51,-526.61 575.84,-533.21"/>
</a>
</g>
</g>
<!-- Node18 -->
<g id="Node000018" class="node">
<title>Node18</title>
<g id="a_Node000018"><a xlink:href="classprecice_1_1mesh_1_1Mesh.html#a13faa9b03e5d20918ed6528db1415fa3" target="_top" xlink:title="Returns modifieable container holding all vertices.">
<polygon fill="white" stroke="#666666" points="685.5,-574.5 568.5,-574.5 568.5,-544.5 685.5,-544.5 685.5,-574.5"/>
<text text-anchor="start" x="576.5" y="-562.5" font-family="Helvetica,sans-Serif" font-size="10.00">precice::mesh::Mesh</text>
<text text-anchor="middle" x="627" y="-551.5" font-family="Helvetica,sans-Serif" font-size="10.00">::vertices</text>
</a>
</g>
</g>
<!-- Node15&#45;&gt;Node18 -->
<g id="edge21_Node000015_Node000018" class="edge">
<title>Node15&#45;&gt;Node18</title>
<g id="a_edge21_Node000015_Node000018"><a xlink:title=" ">
<path fill="none" stroke="#63b8ff" d="M512.21,-566C527.02,-565.16 542.95,-564.25 558.05,-563.38"/>
<polygon fill="#63b8ff" stroke="#63b8ff" points="558.57,-566.86 568.35,-562.79 558.17,-559.87 558.57,-566.86"/>
</a>
</g>
</g>
<!-- Node17&#45;&gt;Node4 -->
<g id="edge20_Node000017_Node000004" class="edge">
<title>Node17&#45;&gt;Node4</title>
<g id="a_edge20_Node000017_Node000004"><a xlink:title=" ">
<path fill="none" stroke="#63b8ff" d="M673.16,-526.57C678.7,-529.19 684.11,-532.16 689,-535.5 717.5,-554.97 743.26,-586.12 757.88,-605.66"/>
<polygon fill="#63b8ff" stroke="#63b8ff" points="755.23,-607.97 763.96,-613.98 760.88,-603.84 755.23,-607.97"/>
</a>
</g>
</g>
<!-- Node19&#45;&gt;Node3 -->
<g id="edge23_Node000019_Node000003" class="edge">
<title>Node19&#45;&gt;Node3</title>
<g id="a_edge23_Node000019_Node000003"><a xlink:title=" ">
<path fill="none" stroke="#63b8ff" d="M508.62,-632.61C515.64,-635.21 522.59,-638.16 529,-641.5 546.98,-650.86 547.39,-659.46 565,-669.5 567.82,-671.11 570.76,-672.65 573.78,-674.13"/>
<polygon fill="#63b8ff" stroke="#63b8ff" points="572.4,-677.35 582.94,-678.36 575.33,-670.99 572.4,-677.35"/>
</a>
</g>
</g>
<!-- Node20 -->
<g id="Node000020" class="node">
<title>Node20</title>
<g id="a_Node000020"><a xlink:href="classprecice_1_1mesh_1_1Mesh.html#a136f6b4ce235025e418fab0ca5f350ff" target="_top" xlink:title=" ">
<polygon fill="white" stroke="#666666" points="685.5,-660.5 568.5,-660.5 568.5,-630.5 685.5,-630.5 685.5,-660.5"/>
<text text-anchor="start" x="576.5" y="-648.5" font-family="Helvetica,sans-Serif" font-size="10.00">precice::mesh::Mesh</text>
<text text-anchor="middle" x="627" y="-637.5" font-family="Helvetica,sans-Serif" font-size="10.00">::getDimensions</text>
</a>
</g>
</g>
<!-- Node19&#45;&gt;Node20 -->
<g id="edge24_Node000019_Node000020" class="edge">
<title>Node19&#45;&gt;Node20</title>
<g id="a_edge24_Node000019_Node000020"><a xlink:title=" ">
<path fill="none" stroke="#63b8ff" d="M512.21,-627.29C527.02,-629.66 542.95,-632.21 558.05,-634.63"/>
<polygon fill="#63b8ff" stroke="#63b8ff" points="557.93,-638.15 568.35,-636.28 559.03,-631.24 557.93,-638.15"/>
</a>
</g>
</g>
<!-- Node21&#45;&gt;Node4 -->
<g id="edge30_Node000021_Node000004" class="edge">
<title>Node21&#45;&gt;Node4</title>
<g id="a_edge30_Node000021_Node000004"><a xlink:title=" ">
<path fill="none" stroke="#63b8ff" d="M512.38,-342.24C518.45,-345.24 524.15,-348.94 529,-353.5 562.18,-384.74 531.8,-418.28 565,-449.5 606.99,-488.99 643.61,-451.97 689,-487.5 728.77,-518.63 753.39,-574.99 764.16,-604.43"/>
<polygon fill="#63b8ff" stroke="#63b8ff" points="760.89,-605.68 767.5,-613.96 767.49,-603.37 760.89,-605.68"/>
</a>
</g>
</g>
<!-- Node21&#45;&gt;Node17 -->
<g id="edge29_Node000021_Node000017" class="edge">
<title>Node21&#45;&gt;Node17</title>
<g id="a_edge29_Node000021_Node000017"><a xlink:title=" ">
<path fill="none" stroke="#63b8ff" d="M512.02,-341.44C518.31,-344.58 524.16,-348.53 529,-353.5 570.53,-396.14 526.67,-436.96 565,-482.5 567.56,-485.54 570.51,-488.29 573.71,-490.76"/>
<polygon fill="#63b8ff" stroke="#63b8ff" points="571.81,-493.7 582.07,-496.36 575.71,-487.89 571.81,-493.7"/>
</a>
</g>
</g>
<!-- Node21&#45;&gt;Node18 -->
<g id="edge33_Node000021_Node000018" class="edge">
<title>Node21&#45;&gt;Node18</title>
<g id="a_edge33_Node000021_Node000018"><a xlink:title=" ">
<path fill="none" stroke="#63b8ff" d="M512.02,-340.89C518.39,-344.12 524.26,-348.24 529,-353.5 584.22,-414.74 512.16,-472.2 565,-535.5 565.71,-536.35 566.46,-537.17 567.23,-537.97"/>
<polygon fill="#63b8ff" stroke="#63b8ff" points="565.01,-540.67 574.95,-544.35 569.47,-535.28 565.01,-540.67"/>
</a>
</g>
</g>
<!-- Node21&#45;&gt;Node20 -->
<g id="edge27_Node000021_Node000020" class="edge">
<title>Node21&#45;&gt;Node20</title>
<g id="a_edge27_Node000021_Node000020"><a xlink:title=" ">
<path fill="none" stroke="#63b8ff" d="M512.34,-340.61C518.65,-343.89 524.42,-348.1 529,-353.5 606.69,-445.19 490.87,-526.91 565,-621.5 565.58,-622.24 566.19,-622.97 566.83,-623.67"/>
<polygon fill="#63b8ff" stroke="#63b8ff" points="564.61,-626.38 574.44,-630.33 569.22,-621.11 564.61,-626.38"/>
</a>
</g>
</g>
<!-- Node22 -->
<g id="Node000022" class="node">
<title>Node22</title>
<g id="a_Node000022"><a xlink:href="classprecice_1_1mesh_1_1Mesh.html#aec6f303d7791f8a64e2b78180531c89e" target="_top" xlink:title="Returns modifiable container holding all edges.">
<polygon fill="white" stroke="#666666" points="685.5,-344.5 568.5,-344.5 568.5,-314.5 685.5,-314.5 685.5,-344.5"/>
<text text-anchor="start" x="576.5" y="-332.5" font-family="Helvetica,sans-Serif" font-size="10.00">precice::mesh::Mesh</text>
<text text-anchor="middle" x="627" y="-321.5" font-family="Helvetica,sans-Serif" font-size="10.00">::edges</text>
</a>
</g>
</g>
<!-- Node21&#45;&gt;Node22 -->
<g id="edge26_Node000021_Node000022" class="edge">
<title>Node21&#45;&gt;Node22</title>
<g id="a_edge26_Node000021_Node000022"><a xlink:title=" ">
<path fill="none" stroke="#63b8ff" d="M512.21,-329.5C527.02,-329.5 542.95,-329.5 558.05,-329.5"/>
<polygon fill="#63b8ff" stroke="#63b8ff" points="558.35,-333 568.35,-329.5 558.35,-326 558.35,-333"/>
</a>
</g>
</g>
<!-- Node21&#45;&gt;Node23 -->
<g id="edge28_Node000021_Node000023" class="edge">
<title>Node21&#45;&gt;Node23</title>
<g id="a_edge28_Node000021_Node000023"><a xlink:title=" ">
<path fill="none" stroke="#63b8ff" d="M512.07,-318.15C518.43,-314.92 524.28,-310.78 529,-305.5 586.82,-240.74 509.69,-180.42 565,-113.5 565.71,-112.64 566.45,-111.82 567.22,-111.02"/>
<polygon fill="#63b8ff" stroke="#63b8ff" points="569.46,-113.71 574.91,-104.62 564.99,-108.33 569.46,-113.71"/>
</a>
</g>
</g>
<!-- Node24 -->
<g id="Node000024" class="node">
<title>Node24</title>
<g id="a_Node000024"><a xlink:href="classprecice_1_1mesh_1_1Mesh.html#a479bf9583fd5a233f8ed1c8b9b3fe5c4" target="_top" xlink:title="Returns modifiable container holding all tetrahedra.">
<polygon fill="white" stroke="#666666" points="685.5,-296.5 568.5,-296.5 568.5,-266.5 685.5,-266.5 685.5,-296.5"/>
<text text-anchor="start" x="576.5" y="-284.5" font-family="Helvetica,sans-Serif" font-size="10.00">precice::mesh::Mesh</text>
<text text-anchor="middle" x="627" y="-273.5" font-family="Helvetica,sans-Serif" font-size="10.00">::tetrahedra</text>
</a>
</g>
</g>
<!-- Node21&#45;&gt;Node24 -->
<g id="edge31_Node000021_Node000024" class="edge">
<title>Node21&#45;&gt;Node24</title>
<g id="a_edge31_Node000021_Node000024"><a xlink:title=" ">
<path fill="none" stroke="#63b8ff" d="M505.89,-314.44C523.56,-309.6 543.31,-304.18 561.6,-299.16"/>
<polygon fill="#63b8ff" stroke="#63b8ff" points="562.59,-302.52 571.3,-296.5 560.73,-295.77 562.59,-302.52"/>
</a>
</g>
</g>
<!-- Node25 -->
<g id="Node000025" class="node">
<title>Node25</title>
<g id="a_Node000025"><a xlink:href="classprecice_1_1mesh_1_1Mesh.html#ad24f3877f1ea7cd5cd5f93a6f2e4d3f9" target="_top" xlink:title="Returns modifiable container holding all triangles.">
<polygon fill="white" stroke="#666666" points="685.5,-248.5 568.5,-248.5 568.5,-218.5 685.5,-218.5 685.5,-248.5"/>
<text text-anchor="start" x="576.5" y="-236.5" font-family="Helvetica,sans-Serif" font-size="10.00">precice::mesh::Mesh</text>
<text text-anchor="middle" x="627" y="-225.5" font-family="Helvetica,sans-Serif" font-size="10.00">::triangles</text>
</a>
</g>
</g>
<!-- Node21&#45;&gt;Node25 -->
<g id="edge32_Node000021_Node000025" class="edge">
<title>Node21&#45;&gt;Node25</title>
<g id="a_edge32_Node000021_Node000025"><a xlink:title=" ">
<path fill="none" stroke="#63b8ff" d="M512.39,-314.76C518.25,-312.15 523.9,-309.09 529,-305.5 550.81,-290.16 543.79,-273.66 565,-257.5 566.8,-256.13 568.69,-254.82 570.65,-253.58"/>
<polygon fill="#63b8ff" stroke="#63b8ff" points="572.55,-256.53 579.55,-248.57 569.12,-250.43 572.55,-256.53"/>
</a>
</g>
</g>
<!-- Node26 -->
<g id="Node000026" class="node">
<title>Node26</title>
<g id="a_Node000026"><a xlink:href="classprecice_1_1io_1_1ExportVTK.html#a36a5ee193ff949d9bc9b0979c27e2aea" target="_top" xlink:title=" ">
<polygon fill="white" stroke="#666666" points="689,-200.5 565,-200.5 565,-170.5 689,-170.5 689,-200.5"/>
<text text-anchor="start" x="573" y="-188.5" font-family="Helvetica,sans-Serif" font-size="10.00">precice::io::ExportVTK</text>
<text text-anchor="middle" x="627" y="-177.5" font-family="Helvetica,sans-Serif" font-size="10.00">::writeLine</text>
</a>
</g>
</g>
<!-- Node21&#45;&gt;Node26 -->
<g id="edge34_Node000021_Node000026" class="edge">
<title>Node21&#45;&gt;Node26</title>
<g id="a_edge34_Node000021_Node000026"><a xlink:title=" ">
<path fill="none" stroke="#63b8ff" d="M512.38,-316.76C518.45,-313.76 524.15,-310.06 529,-305.5 562.18,-274.26 533.04,-241.98 565,-209.5 565.94,-208.54 566.93,-207.62 567.95,-206.74"/>
<polygon fill="#63b8ff" stroke="#63b8ff" points="570.35,-209.32 576.42,-200.63 566.26,-203.64 570.35,-209.32"/>
</a>
</g>
</g>
<!-- Node27 -->
<g id="Node000027" class="node">
<title>Node27</title>
<g id="a_Node000027"><a xlink:href="classprecice_1_1io_1_1ExportVTK.html#a56ad08c92bff7213cd0508ab23d0d67b" target="_top" xlink:title=" ">
<polygon fill="white" stroke="#666666" points="689,-152.5 565,-152.5 565,-122.5 689,-122.5 689,-152.5"/>
<text text-anchor="start" x="573" y="-140.5" font-family="Helvetica,sans-Serif" font-size="10.00">precice::io::ExportVTK</text>
<text text-anchor="middle" x="627" y="-129.5" font-family="Helvetica,sans-Serif" font-size="10.00">::writeTetrahedron</text>
</a>
</g>
</g>
<!-- Node21&#45;&gt;Node27 -->
<g id="edge35_Node000021_Node000027" class="edge">
<title>Node21&#45;&gt;Node27</title>
<g id="a_edge35_Node000021_Node000027"><a xlink:title=" ">
<path fill="none" stroke="#63b8ff" d="M512.15,-317.68C518.42,-314.53 524.22,-310.54 529,-305.5 574.38,-257.62 521.48,-211.08 565,-161.5 565.75,-160.64 566.54,-159.82 567.35,-159.02"/>
<polygon fill="#63b8ff" stroke="#63b8ff" points="569.76,-161.58 575.42,-152.62 565.41,-156.1 569.76,-161.58"/>
</a>
</g>
</g>
<!-- Node28 -->
<g id="Node000028" class="node">
<title>Node28</title>
<g id="a_Node000028"><a xlink:href="classprecice_1_1io_1_1ExportVTK.html#ad61070a5ab935aab087ff8865a21d2b5" target="_top" xlink:title=" ">
<polygon fill="white" stroke="#666666" points="689,-440.5 565,-440.5 565,-410.5 689,-410.5 689,-440.5"/>
<text text-anchor="start" x="573" y="-428.5" font-family="Helvetica,sans-Serif" font-size="10.00">precice::io::ExportVTK</text>
<text text-anchor="middle" x="627" y="-417.5" font-family="Helvetica,sans-Serif" font-size="10.00">::writeTriangle</text>
</a>
</g>
</g>
<!-- Node21&#45;&gt;Node28 -->
<g id="edge36_Node000021_Node000028" class="edge">
<title>Node21&#45;&gt;Node28</title>
<g id="a_edge36_Node000021_Node000028"><a xlink:title=" ">
<path fill="none" stroke="#63b8ff" d="M512.39,-344.24C518.25,-346.85 523.9,-349.91 529,-353.5 550.81,-368.84 543.79,-385.34 565,-401.5 566.8,-402.87 568.69,-404.18 570.65,-405.42"/>
<polygon fill="#63b8ff" stroke="#63b8ff" points="569.12,-408.57 579.55,-410.43 572.55,-402.47 569.12,-408.57"/>
</a>
</g>
</g>
<!-- Node29 -->
<g id="Node000029" class="node">
<title>Node29</title>
<g id="a_Node000029"><a xlink:href="classprecice_1_1io_1_1ExportVTK.html#a274ab69f114b930ee6a43f1660fc1d68" target="_top" xlink:title=" ">
<polygon fill="white" stroke="#666666" points="689,-392.5 565,-392.5 565,-362.5 689,-362.5 689,-392.5"/>
<text text-anchor="start" x="573" y="-380.5" font-family="Helvetica,sans-Serif" font-size="10.00">precice::io::ExportVTK</text>
<text text-anchor="middle" x="627" y="-369.5" font-family="Helvetica,sans-Serif" font-size="10.00">::writeVertex</text>
</a>
</g>
</g>
<!-- Node21&#45;&gt;Node29 -->
<g id="edge37_Node000021_Node000029" class="edge">
<title>Node21&#45;&gt;Node29</title>
<g id="a_edge37_Node000021_Node000029"><a xlink:title=" ">
<path fill="none" stroke="#63b8ff" d="M505.89,-344.56C523.56,-349.4 543.31,-354.82 561.6,-359.84"/>
<polygon fill="#63b8ff" stroke="#63b8ff" points="560.73,-363.23 571.3,-362.5 562.59,-356.48 560.73,-363.23"/>
</a>
</g>
</g>
<!-- Node32 -->
<g id="Node000032" class="node">
<title>Node32</title>
<g id="a_Node000032"><a target="_parent" xlink:href="http://en.cppreference.com/w/cpp/io/ios_base/setf.html#" xlink:title=" ">
<polygon fill="white" stroke="#666666" points="680.5,-56 573.5,-56 573.5,-37 680.5,-37 680.5,-56"/>
<text text-anchor="middle" x="627" y="-44" font-family="Helvetica,sans-Serif" font-size="10.00">std::ofstream::setf</text>
</a>
</g>
</g>
<!-- Node31&#45;&gt;Node32 -->
<g id="edge41_Node000031_Node000032" class="edge">
<title>Node31&#45;&gt;Node32</title>
<g id="a_edge41_Node000031_Node000032"><a xlink:title=" ">
<path fill="none" stroke="#63b8ff" d="M512.27,-193.23C518.43,-190.15 524.19,-186.3 529,-181.5 567.22,-143.38 526.85,-103.69 565,-65.5 566.44,-64.06 567.99,-62.73 569.62,-61.49"/>
<polygon fill="#63b8ff" stroke="#63b8ff" points="571.68,-64.34 578.38,-56.14 568.03,-58.37 571.68,-64.34"/>
</a>
</g>
</g>
<!-- Node33 -->
<g id="Node000033" class="node">
<title>Node33</title>
<g id="a_Node000033"><a target="_parent" xlink:href="http://en.cppreference.com/w/cpp/io/manip/setprecision.html#" xlink:title=" ">
<polygon fill="white" stroke="#666666" points="675.5,-19 578.5,-19 578.5,0 675.5,0 675.5,-19"/>
<text text-anchor="middle" x="627" y="-7" font-family="Helvetica,sans-Serif" font-size="10.00">std::setprecision</text>
</a>
</g>
</g>
<!-- Node31&#45;&gt;Node33 -->
<g id="edge42_Node000031_Node000033" class="edge">
<title>Node31&#45;&gt;Node33</title>
<g id="a_edge42_Node000031_Node000033"><a xlink:title=" ">
<path fill="none" stroke="#63b8ff" d="M512.23,-193.76C518.48,-190.59 524.26,-186.58 529,-181.5 576.96,-130.12 516.74,-78.61 565,-27.5 566.42,-25.99 567.96,-24.61 569.6,-23.35"/>
<polygon fill="#63b8ff" stroke="#63b8ff" points="571.75,-26.13 578.44,-17.91 568.08,-20.17 571.75,-26.13"/>
</a>
</g>
</g>
<!-- Node38 -->
<g id="Node000038" class="node">
<title>Node38</title>
<g id="a_Node000038"><a xlink:href="classprecice_1_1utils_1_1ManageUniqueIDs.html#a02be264c279698ae293587b6576088b5" target="_top" xlink:title=" ">
<polygon fill="white" stroke="#666666" points="529,-86.5 371,-86.5 371,-56.5 529,-56.5 529,-86.5"/>
<text text-anchor="start" x="379" y="-74.5" font-family="Helvetica,sans-Serif" font-size="10.00">precice::utils::ManageUnique</text>
<text text-anchor="middle" x="450" y="-63.5" font-family="Helvetica,sans-Serif" font-size="10.00">IDs::getFreeID</text>
</a>
</g>
</g>
<!-- Node37&#45;&gt;Node38 -->
<g id="edge47_Node000037_Node000038" class="edge">
<title>Node37&#45;&gt;Node38</title>
<g id="a_edge47_Node000037_Node000038"><a xlink:title=" ">
<path fill="none" stroke="#63b8ff" d="M265.68,-193.71C282.54,-172.85 324.96,-123.73 371,-96.5 374.58,-94.38 378.36,-92.42 382.25,-90.61"/>
<polygon fill="#63b8ff" stroke="#63b8ff" points="383.66,-93.81 391.47,-86.65 380.9,-87.38 383.66,-93.81"/>
</a>
</g>
</g>
</g>
</svg>

<g id="navigator" transform="translate(0 0)" fill="#404254">
  <rect fill="#f2f5e9" fill-opacity="0.5" stroke="#606060" stroke-width=".5" x="0" y="0" width="60" height="60"/>
  <use id="zoomplus" xlink:href="#zoomPlus" x="17" y="9" onmousedown="handleZoom(evt,'in')"/>
  <use id="zoomminus" xlink:href="#zoomMin" x="42" y="9" onmousedown="handleZoom(evt,'out')"/>
  <use id="reset" xlink:href="#resetDef" x="30" y="36" onmousedown="handleReset()"/>
   <use id="arrowup" xlink:href="#arrowUp" x="0" y="0" onmousedown="handlePan(0,-1)"/>
  <use id="arrowright" xlink:href="#arrowRight" x="0" y="0" onmousedown="handlePan(1,0)"/>
  <use id="arrowdown" xlink:href="#arrowDown" x="0" y="0" onmousedown="handlePan(0,1)"/>
  <use id="arrowleft" xlink:href="#arrowLeft" x="0" y="0" onmousedown="handlePan(-1,0)"/>
</g>
<svg viewBox="0 0 15 15" width="100%" height="30px" preserveAspectRatio="xMaxYMin meet">
 <g id="arrow_out" transform="scale(0.3 0.3)">
  <a xlink:href="ExportVTKTest_8cpp_ae26e11da7562db0f041ad746c72e613b_cgraph_org.svg" target="_base">
   <rect id="button" ry="5" rx="5" y="6" x="6" height="38" width="38"
        fill="#f2f5e9" fill-opacity="0.5" stroke="#606060" stroke-width="1.0"/>
   <path id="arrow"
     d="M 11.500037,31.436501 C 11.940474,20.09759 22.043105,11.32322 32.158766,21.979434 L 37.068811,17.246167 C 37.068811,17.246167 37.088388,32 37.088388,32 L 22.160133,31.978069 C 22.160133,31.978069 26.997745,27.140456 26.997745,27.140456 C 18.528582,18.264221 13.291696,25.230495 11.500037,31.436501 z"
     style="fill:#404040;"/>
  </a>
 </g>
</svg>

<style type='text/css'>
<![CDATA[
[data-mouse-over-selected='false'] { opacity: 0.7; }
[data-mouse-over-selected='true']  { opacity: 1.0; }
]]>
</style>
<script type="application/ecmascript"><![CDATA[
document.addEventListener('DOMContentLoaded', (event) => {
  highlightEdges();
  highlightAdjacentNodes();
});
]]></script>
</svg>
