<?xml version="1.0" encoding="UTF-8" standalone="no"?>
<!DOCTYPE svg PUBLIC "-//W3C//DTD SVG 1.1//EN"
 "http://www.w3.org/Graphics/SVG/1.1/DTD/svg11.dtd">
<!-- Generated by graphviz version 2.43.0 (0)
 -->
<!-- Title: BOOST_AUTO_TEST_CASE Pages: 1 -->
<!--zoomable 700 -->

<svg id="main" version="1.1" xmlns="http://www.w3.org/2000/svg" xmlns:xlink="http://www.w3.org/1999/xlink" xml:space="preserve" onload="init(evt)">
<style type="text/css"><![CDATA[
.node, .edge {opacity: 0.7;}
.node.selected, .edge.selected {opacity: 1;}
.edge:hover path { stroke: red; }
.edge:hover polygon { stroke: red; fill: red; }
]]></style>

<defs>
  <circle id="rim" cx="0" cy="0" r="7"/>
  <circle id="rim2" cx="0" cy="0" r="3.5"/>
  <g id="zoomPlus">
    <use xlink:href="#rim" fill="#404040"><set attributeName="fill" to="#808080" begin="zoomplus.mouseover" end="zoomplus.mouseout"/></use>
    <path d="M-4,0h8M0,-4v8" fill="none" stroke="white" stroke-width="1.5" pointer-events="none"/>
  </g>
  <g id="zoomMin">
    <use xlink:href="#rim" fill="#404040"><set attributeName="fill" to="#808080" begin="zoomminus.mouseover" end="zoomminus.mouseout"/></use>
    <path d="M-4,0h8" fill="none" stroke="white" stroke-width="1.5" pointer-events="none"/>
  </g>
  <g id="arrowUp" transform="translate(30 24)">
    <use xlink:href="#rim"/>
    <path pointer-events="none" fill="none" stroke="white" stroke-width="1.5" d="M0,-3.0v7 M-2.5,-0.5L0,-3.0L2.5,-0.5"/>
  </g>
  <g id="arrowRight" transform="rotate(90) translate(36 -43)">
    <use xlink:href="#rim"/>
    <path pointer-events="none" fill="none" stroke="white" stroke-width="1.5" d="M0,-3.0v7 M-2.5,-0.5L0,-3.0L2.5,-0.5"/>
  </g>
  <g id="arrowDown" transform="rotate(180) translate(-30 -48)">
    <use xlink:href="#rim"/>
    <path pointer-events="none" fill="none" stroke="white" stroke-width="1.5" d="M0,-3.0v7 M-2.5,-0.5L0,-3.0L2.5,-0.5"/>
  </g>
  <g id="arrowLeft" transform="rotate(270) translate(-36 17)">
    <use xlink:href="#rim"/>
    <path pointer-events="none" fill="none" stroke="white" stroke-width="1.5" d="M0,-3.0v7 M-2.5,-0.5L0,-3.0L2.5,-0.5"/>
  </g>
  <g id="resetDef">
    <use xlink:href="#rim2" fill="#404040"><set attributeName="fill" to="#808080" begin="reset.mouseover" end="reset.mouseout"/></use>
  </g>
</defs>
<script type="application/ecmascript">
var viewWidth = 925;
var viewHeight = 700;
var sectionId = 'dynsection-3';
</script>
<script type="application/ecmascript" xlink:href="svg.min.js"/>
<svg id="graph" class="graph">
<g id="viewport">
<title>BOOST_AUTO_TEST_CASE</title>
<!-- Node1 -->
<g id="Node000001" class="node">
<title>Node1</title>
<g id="a_Node000001"><a xlink:title=" ">
<polygon fill="#999999" stroke="#666666" points="143,-571.5 0,-571.5 0,-552.5 143,-552.5 143,-571.5"/>
<text text-anchor="middle" x="71.5" y="-559.5" font-family="Helvetica,sans-Serif" font-size="10.00">BOOST_AUTO_TEST_CASE</text>
</a>
</g>
</g>
<!-- Node2 -->
<g id="Node000002" class="node">
<title>Node2</title>
<g id="a_Node000002"><a xlink:href="classprecice_1_1mesh_1_1Mesh.html#ab5414039a184e349718371361d6e7777" target="_top" xlink:title="Creates and initializes a Tetrahedron object.">
<polygon fill="white" stroke="#666666" points="315.5,-649 198.5,-649 198.5,-619 315.5,-619 315.5,-649"/>
<text text-anchor="start" x="206.5" y="-637" font-family="Helvetica,sans-Serif" font-size="10.00">precice::mesh::Mesh</text>
<text text-anchor="middle" x="257" y="-626" font-family="Helvetica,sans-Serif" font-size="10.00">::createTetrahedron</text>
</a>
</g>
</g>
<!-- Node1&#45;&gt;Node2 -->
<g id="edge1_Node000001_Node000002" class="edge">
<title>Node1&#45;&gt;Node2</title>
<g id="a_edge1_Node000001_Node000002"><a xlink:title=" ">
<path fill="none" stroke="#63b8ff" d="M91.83,-571.57C112.94,-581.82 147.9,-598.2 179,-610 184.15,-611.96 189.55,-613.88 194.98,-615.73"/>
<polygon fill="#63b8ff" stroke="#63b8ff" points="194.16,-619.15 204.76,-618.98 196.37,-612.51 194.16,-619.15"/>
</a>
</g>
</g>
<!-- Node3 -->
<g id="Node000003" class="node">
<title>Node3</title>
<g id="a_Node000003"><a xlink:href="classprecice_1_1mesh_1_1Mesh.html#af6e6d684553dc5d0f0a23cacb77b3fc7" target="_top" xlink:title="Creates and initializes a Vertex object.">
<polygon fill="white" stroke="#666666" points="315.5,-601 198.5,-601 198.5,-571 315.5,-571 315.5,-601"/>
<text text-anchor="start" x="206.5" y="-589" font-family="Helvetica,sans-Serif" font-size="10.00">precice::mesh::Mesh</text>
<text text-anchor="middle" x="257" y="-578" font-family="Helvetica,sans-Serif" font-size="10.00">::createVertex</text>
</a>
</g>
</g>
<!-- Node1&#45;&gt;Node3 -->
<g id="edge2_Node000001_Node000003" class="edge">
<title>Node1&#45;&gt;Node3</title>
<g id="a_edge2_Node000001_Node000003"><a xlink:title=" ">
<path fill="none" stroke="#63b8ff" d="M143.18,-571.24C158.03,-573.19 173.66,-575.23 188.39,-577.16"/>
<polygon fill="#63b8ff" stroke="#63b8ff" points="188.06,-580.64 198.42,-578.47 188.96,-573.7 188.06,-580.64"/>
</a>
</g>
</g>
<!-- Node4 -->
<g id="Node000004" class="node">
<title>Node4</title>
<g id="a_Node000004"><a xlink:href="classprecice_1_1io_1_1ExportXML.html#a9f54fc6227af105dfa94fb3e8e729955" target="_top" xlink:title="Does export. Has to be implemented in subclass.">
<polygon fill="white" stroke="#666666" points="319.5,-553 194.5,-553 194.5,-523 319.5,-523 319.5,-553"/>
<text text-anchor="start" x="202.5" y="-541" font-family="Helvetica,sans-Serif" font-size="10.00">precice::io::ExportXML</text>
<text text-anchor="middle" x="257" y="-530" font-family="Helvetica,sans-Serif" font-size="10.00">::doExport</text>
</a>
</g>
</g>
<!-- Node1&#45;&gt;Node4 -->
<g id="edge3_Node000001_Node000004" class="edge">
<title>Node1&#45;&gt;Node4</title>
<g id="a_edge3_Node000001_Node000004"><a xlink:title=" ">
<path fill="none" stroke="#63b8ff" d="M143.18,-552.76C156.62,-551 170.69,-549.16 184.16,-547.4"/>
<polygon fill="#63b8ff" stroke="#63b8ff" points="184.87,-550.83 194.33,-546.07 183.96,-543.89 184.87,-550.83"/>
</a>
</g>
</g>
<!-- Node28 -->
<g id="Node000028" class="node">
<title>Node28</title>
<g id="a_Node000028"><a xlink:href="namespaceprecice_1_1testing.html#a08533fd83bad3d7f27ea7f4a35a14aa4" target="_top" xlink:title=" ">
<polygon fill="white" stroke="#666666" points="335,-360.5 179,-360.5 179,-341.5 335,-341.5 335,-360.5"/>
<text text-anchor="middle" x="257" y="-348.5" font-family="Helvetica,sans-Serif" font-size="10.00">precice::testing::nextMeshID</text>
</a>
</g>
</g>
<!-- Node1&#45;&gt;Node28 -->
<g id="edge33_Node000001_Node000028" class="edge">
<title>Node1&#45;&gt;Node28</title>
<g id="a_edge33_Node000001_Node000028"><a xlink:title=" ">
<path fill="none" stroke="#63b8ff" d="M80.86,-552.39C109.52,-519.43 204.04,-410.74 241,-368.25"/>
<polygon fill="#63b8ff" stroke="#63b8ff" points="243.67,-370.51 247.59,-360.67 238.39,-365.92 243.67,-370.51"/>
</a>
</g>
</g>
<!-- Node5 -->
<g id="Node000005" class="node">
<title>Node5</title>
<g id="a_Node000005"><a xlink:href="classprecice_1_1mesh_1_1Mesh.html#a3185fe962ba3e8fe0b3cf451681e6a48" target="_top" xlink:title="Returns the name of the mesh, as set in the config file.">
<polygon fill="white" stroke="#666666" points="526.5,-692 409.5,-692 409.5,-662 526.5,-662 526.5,-692"/>
<text text-anchor="start" x="417.5" y="-680" font-family="Helvetica,sans-Serif" font-size="10.00">precice::mesh::Mesh</text>
<text text-anchor="middle" x="468" y="-669" font-family="Helvetica,sans-Serif" font-size="10.00">::getName</text>
</a>
</g>
</g>
<!-- Node4&#45;&gt;Node5 -->
<g id="edge4_Node000004_Node000005" class="edge">
<title>Node4&#45;&gt;Node5</title>
<g id="a_edge4_Node000004_Node000005"><a xlink:title=" ">
<path fill="none" stroke="#63b8ff" d="M319.67,-551.49C325.25,-554.35 330.48,-557.81 335,-562 366.88,-591.59 338.29,-624.34 371,-653 379.21,-660.19 389.26,-665.3 399.73,-668.9"/>
<polygon fill="#63b8ff" stroke="#63b8ff" points="398.84,-672.29 409.42,-671.81 400.85,-665.58 398.84,-672.29"/>
</a>
</g>
</g>
<!-- Node6 -->
<g id="Node000006" class="node">
<title>Node6</title>
<g id="a_Node000006"><a xlink:href="classprecice_1_1utils_1_1IntraComm.html#a3e69605ac1a3f9f8c82471ba52624f5d" target="_top" xlink:title="True if this process is running the primary rank.">
<polygon fill="white" stroke="#666666" points="538,-644 398,-644 398,-614 538,-614 538,-644"/>
<text text-anchor="start" x="406" y="-632" font-family="Helvetica,sans-Serif" font-size="10.00">precice::utils::IntraComm</text>
<text text-anchor="middle" x="468" y="-621" font-family="Helvetica,sans-Serif" font-size="10.00">::isPrimary</text>
</a>
</g>
</g>
<!-- Node4&#45;&gt;Node6 -->
<g id="edge5_Node000004_Node000006" class="edge">
<title>Node4&#45;&gt;Node6</title>
<g id="a_edge5_Node000004_Node000006"><a xlink:title=" ">
<path fill="none" stroke="#63b8ff" d="M318.41,-553.09C324.23,-555.63 329.87,-558.58 335,-562 355.74,-575.82 349.87,-591.77 371,-605 376.4,-608.38 382.25,-611.28 388.3,-613.78"/>
<polygon fill="#63b8ff" stroke="#63b8ff" points="387.36,-617.16 397.95,-617.38 389.8,-610.6 387.36,-617.16"/>
</a>
</g>
</g>
<!-- Node7 -->
<g id="Node000007" class="node">
<title>Node7</title>
<g id="a_Node000007"><a xlink:href="classprecice_1_1io_1_1ExportXML.html#ae0582037c9ec0eab91e6a8d9604065b0" target="_top" xlink:title="Stores scalar and vector data names in string vectors Needed for writing primary file and sub files.">
<polygon fill="white" stroke="#666666" points="565,-596 371,-596 371,-566 565,-566 565,-596"/>
<text text-anchor="start" x="379" y="-584" font-family="Helvetica,sans-Serif" font-size="10.00">precice::io::ExportXML</text>
<text text-anchor="middle" x="468" y="-573" font-family="Helvetica,sans-Serif" font-size="10.00">::processDataNamesAndDimensions</text>
</a>
</g>
</g>
<!-- Node4&#45;&gt;Node7 -->
<g id="edge6_Node000004_Node000007" class="edge">
<title>Node4&#45;&gt;Node7</title>
<g id="a_edge6_Node000004_Node000007"><a xlink:title=" ">
<path fill="none" stroke="#63b8ff" d="M319.58,-550.67C339.83,-554.84 362.7,-559.54 384.26,-563.98"/>
<polygon fill="#63b8ff" stroke="#63b8ff" points="383.57,-567.41 394.07,-565.99 384.98,-560.55 383.57,-567.41"/>
</a>
</g>
</g>
<!-- Node10 -->
<g id="Node000010" class="node">
<title>Node10</title>
<g id="a_Node000010"><a xlink:href="classprecice_1_1mesh_1_1Mesh.html#a13faa9b03e5d20918ed6528db1415fa3" target="_top" xlink:title="Returns modifieable container holding all vertices.">
<polygon fill="white" stroke="#666666" points="905.5,-546 788.5,-546 788.5,-516 905.5,-516 905.5,-546"/>
<text text-anchor="start" x="796.5" y="-534" font-family="Helvetica,sans-Serif" font-size="10.00">precice::mesh::Mesh</text>
<text text-anchor="middle" x="847" y="-523" font-family="Helvetica,sans-Serif" font-size="10.00">::vertices</text>
</a>
</g>
</g>
<!-- Node4&#45;&gt;Node10 -->
<g id="edge9_Node000004_Node000010" class="edge">
<title>Node4&#45;&gt;Node10</title>
<g id="a_edge9_Node000004_Node000010"><a xlink:title=" ">
<path fill="none" stroke="#63b8ff" d="M319.54,-537.27C430.46,-535.95 663.07,-533.18 778.32,-531.81"/>
<polygon fill="#63b8ff" stroke="#63b8ff" points="778.47,-535.3 788.43,-531.69 778.38,-528.3 778.47,-535.3"/>
</a>
</g>
</g>
<!-- Node11 -->
<g id="Node000011" class="node">
<title>Node11</title>
<g id="a_Node000011"><a xlink:href="classprecice_1_1io_1_1ExportXML.html#adf64ac2c690c3f0c41f99ab07990599a" target="_top" xlink:title="Writes the primary file (called only by the primary rank)">
<polygon fill="white" stroke="#666666" points="530.5,-246 405.5,-246 405.5,-216 530.5,-216 530.5,-246"/>
<text text-anchor="start" x="413.5" y="-234" font-family="Helvetica,sans-Serif" font-size="10.00">precice::io::ExportXML</text>
<text text-anchor="middle" x="468" y="-223" font-family="Helvetica,sans-Serif" font-size="10.00">::writeParallelFile</text>
</a>
</g>
</g>
<!-- Node4&#45;&gt;Node11 -->
<g id="edge10_Node000004_Node000011" class="edge">
<title>Node4&#45;&gt;Node11</title>
<g id="a_edge10_Node000004_Node000011"><a xlink:title=" ">
<path fill="none" stroke="#63b8ff" d="M268.36,-522.78C302.21,-473.06 409.67,-315.21 450.78,-254.82"/>
<polygon fill="#63b8ff" stroke="#63b8ff" points="453.84,-256.55 456.57,-246.32 448.05,-252.61 453.84,-256.55"/>
</a>
</g>
</g>
<!-- Node20 -->
<g id="Node000020" class="node">
<title>Node20</title>
<g id="a_Node000020"><a xlink:href="classprecice_1_1io_1_1ExportXML.html#a778a886801dacfe0842a7f01393b3adb" target="_top" xlink:title="Writes the sub file for each rank.">
<polygon fill="white" stroke="#666666" points="530.5,-438 405.5,-438 405.5,-408 530.5,-408 530.5,-438"/>
<text text-anchor="start" x="413.5" y="-426" font-family="Helvetica,sans-Serif" font-size="10.00">precice::io::ExportXML</text>
<text text-anchor="middle" x="468" y="-415" font-family="Helvetica,sans-Serif" font-size="10.00">::writeSubFile</text>
</a>
</g>
</g>
<!-- Node4&#45;&gt;Node20 -->
<g id="edge19_Node000004_Node000020" class="edge">
<title>Node4&#45;&gt;Node20</title>
<g id="a_edge19_Node000004_Node000020"><a xlink:title=" ">
<path fill="none" stroke="#63b8ff" d="M285.32,-522.97C322.56,-502.48 389.34,-465.73 430.74,-442.95"/>
<polygon fill="#63b8ff" stroke="#63b8ff" points="432.6,-445.93 439.67,-438.04 429.22,-439.79 432.6,-445.93"/>
</a>
</g>
</g>
<!-- Node8 -->
<g id="Node000008" class="node">
<title>Node8</title>
<g id="a_Node000008"><a xlink:href="classprecice_1_1mesh_1_1Mesh.html#aceb3eabb4f8e40a44d5d1c2822ba7b56" target="_top" xlink:title="Allows access to all data.">
<polygon fill="white" stroke="#666666" points="905.5,-690 788.5,-690 788.5,-660 905.5,-660 905.5,-690"/>
<text text-anchor="start" x="796.5" y="-678" font-family="Helvetica,sans-Serif" font-size="10.00">precice::mesh::Mesh</text>
<text text-anchor="middle" x="847" y="-667" font-family="Helvetica,sans-Serif" font-size="10.00">::data</text>
</a>
</g>
</g>
<!-- Node7&#45;&gt;Node8 -->
<g id="edge7_Node000007_Node000008" class="edge">
<title>Node7&#45;&gt;Node8</title>
<g id="a_edge7_Node000007_Node000008"><a xlink:title=" ">
<path fill="none" stroke="#63b8ff" d="M548.42,-596.13C554.25,-598.65 559.85,-601.58 565,-605 587.22,-619.75 577.71,-640.02 601,-653 655.12,-683.16 726.58,-686.2 778.35,-683.18"/>
<polygon fill="#63b8ff" stroke="#63b8ff" points="778.69,-686.66 788.43,-682.5 778.22,-679.68 778.69,-686.66"/>
</a>
</g>
</g>
<!-- Node9 -->
<g id="Node000009" class="node">
<title>Node9</title>
<g id="a_Node000009"><a xlink:href="classprecice_1_1mesh_1_1Mesh.html#a136f6b4ce235025e418fab0ca5f350ff" target="_top" xlink:title=" ">
<polygon fill="white" stroke="#666666" points="729.5,-644 612.5,-644 612.5,-614 729.5,-614 729.5,-644"/>
<text text-anchor="start" x="620.5" y="-632" font-family="Helvetica,sans-Serif" font-size="10.00">precice::mesh::Mesh</text>
<text text-anchor="middle" x="671" y="-621" font-family="Helvetica,sans-Serif" font-size="10.00">::getDimensions</text>
</a>
</g>
</g>
<!-- Node7&#45;&gt;Node9 -->
<g id="edge8_Node000007_Node000009" class="edge">
<title>Node7&#45;&gt;Node9</title>
<g id="a_edge8_Node000007_Node000009"><a xlink:title=" ">
<path fill="none" stroke="#63b8ff" d="M532.05,-596.06C554.41,-601.4 579.66,-607.43 602.39,-612.85"/>
<polygon fill="#63b8ff" stroke="#63b8ff" points="601.76,-616.3 612.3,-615.22 603.39,-609.49 601.76,-616.3"/>
</a>
</g>
</g>
<!-- Node12 -->
<g id="Node000012" class="node">
<title>Node12</title>
<g id="a_Node000012"><a xlink:href="classprecice_1_1utils_1_1IntraComm.html#a557db722e7bfe5d237d0e7ed51851a44" target="_top" xlink:title="Returns an iterable range over salve ranks [1, _size)">
<polygon fill="white" stroke="#666666" points="741,-222 601,-222 601,-192 741,-192 741,-222"/>
<text text-anchor="start" x="609" y="-210" font-family="Helvetica,sans-Serif" font-size="10.00">precice::utils::IntraComm</text>
<text text-anchor="middle" x="671" y="-199" font-family="Helvetica,sans-Serif" font-size="10.00">::allSecondaryRanks</text>
</a>
</g>
</g>
<!-- Node11&#45;&gt;Node12 -->
<g id="edge11_Node000011_Node000012" class="edge">
<title>Node11&#45;&gt;Node12</title>
<g id="a_edge11_Node000011_Node000012"><a xlink:title=" ">
<path fill="none" stroke="#63b8ff" d="M530.67,-223.64C549.63,-221.37 570.76,-218.85 590.72,-216.47"/>
<polygon fill="#63b8ff" stroke="#63b8ff" points="591.21,-219.93 600.72,-215.27 590.38,-212.98 591.21,-219.93"/>
</a>
</g>
</g>
<!-- Node13 -->
<g id="Node000013" class="node">
<title>Node13</title>
<g id="a_Node000013"><a xlink:href="classprecice_1_1io_1_1ExportXML.html#aaf7029bbbf4a7bf3d13a5e1dd209576a" target="_top" xlink:title=" ">
<polygon fill="white" stroke="#666666" points="733.5,-174 608.5,-174 608.5,-144 733.5,-144 733.5,-174"/>
<text text-anchor="start" x="616.5" y="-162" font-family="Helvetica,sans-Serif" font-size="10.00">precice::io::ExportXML</text>
<text text-anchor="middle" x="671" y="-151" font-family="Helvetica,sans-Serif" font-size="10.00">::getParallelExtension</text>
</a>
</g>
</g>
<!-- Node11&#45;&gt;Node13 -->
<g id="edge12_Node000011_Node000013" class="edge">
<title>Node11&#45;&gt;Node13</title>
<g id="a_edge12_Node000011_Node000013"><a xlink:title=" ">
<path fill="none" stroke="#63b8ff" d="M530.74,-218.9C542.36,-215.69 554.24,-211.76 565,-207 582.59,-199.22 583.78,-191.56 601,-183 604.54,-181.24 608.24,-179.55 612.01,-177.95"/>
<polygon fill="#63b8ff" stroke="#63b8ff" points="613.51,-181.12 621.47,-174.13 610.89,-174.62 613.51,-181.12"/>
</a>
</g>
</g>
<!-- Node14 -->
<g id="Node000014" class="node">
<title>Node14</title>
<g id="a_Node000014"><a xlink:href="classprecice_1_1io_1_1ExportXML.html#a042534283342f8452af053ef3260921d" target="_top" xlink:title=" ">
<polygon fill="white" stroke="#666666" points="733.5,-366 608.5,-366 608.5,-336 733.5,-336 733.5,-366"/>
<text text-anchor="start" x="616.5" y="-354" font-family="Helvetica,sans-Serif" font-size="10.00">precice::io::ExportXML</text>
<text text-anchor="middle" x="671" y="-343" font-family="Helvetica,sans-Serif" font-size="10.00">::getPieceExtension</text>
</a>
</g>
</g>
<!-- Node11&#45;&gt;Node14 -->
<g id="edge13_Node000011_Node000014" class="edge">
<title>Node11&#45;&gt;Node14</title>
<g id="a_edge13_Node000011_Node000014"><a xlink:title=" ">
<path fill="none" stroke="#63b8ff" d="M486.25,-246.14C510.47,-266.76 556.55,-303.76 601,-327 604.44,-328.8 608.05,-330.51 611.73,-332.13"/>
<polygon fill="#63b8ff" stroke="#63b8ff" points="610.41,-335.37 620.99,-335.97 613.09,-328.91 610.41,-335.37"/>
</a>
</g>
</g>
<!-- Node15 -->
<g id="Node000015" class="node">
<title>Node15</title>
<g id="a_Node000015"><a xlink:href="classprecice_1_1mesh_1_1Mesh.html#a8a6c811fa2297900607b17a873239675" target="_top" xlink:title=" ">
<polygon fill="white" stroke="#666666" points="729.5,-126 612.5,-126 612.5,-96 729.5,-96 729.5,-126"/>
<text text-anchor="start" x="620.5" y="-114" font-family="Helvetica,sans-Serif" font-size="10.00">precice::mesh::Mesh</text>
<text text-anchor="middle" x="671" y="-103" font-family="Helvetica,sans-Serif" font-size="10.00">::getVertexOffsets</text>
</a>
</g>
</g>
<!-- Node11&#45;&gt;Node15 -->
<g id="edge14_Node000011_Node000015" class="edge">
<title>Node11&#45;&gt;Node15</title>
<g id="a_edge14_Node000011_Node000015"><a xlink:title=" ">
<path fill="none" stroke="#63b8ff" d="M530.54,-223.92C542.88,-220.32 555.08,-214.95 565,-207 592.91,-184.61 574.12,-158.62 601,-135 602.34,-133.82 603.75,-132.7 605.2,-131.63"/>
<polygon fill="#63b8ff" stroke="#63b8ff" points="607.41,-134.38 614.01,-126.09 603.68,-128.45 607.41,-134.38"/>
</a>
</g>
</g>
<!-- Node16 -->
<g id="Node000016" class="node">
<title>Node16</title>
<g id="a_Node000016"><a xlink:href="classprecice_1_1io_1_1ExportXML.html#a1deeab9eb7d5ead86edeb3c68169a470" target="_top" xlink:title=" ">
<polygon fill="white" stroke="#666666" points="733.5,-318 608.5,-318 608.5,-288 733.5,-288 733.5,-318"/>
<text text-anchor="start" x="616.5" y="-306" font-family="Helvetica,sans-Serif" font-size="10.00">precice::io::ExportXML</text>
<text text-anchor="middle" x="671" y="-295" font-family="Helvetica,sans-Serif" font-size="10.00">::getVTKFormat</text>
</a>
</g>
</g>
<!-- Node11&#45;&gt;Node16 -->
<g id="edge15_Node000011_Node000016" class="edge">
<title>Node11&#45;&gt;Node16</title>
<g id="a_edge15_Node000011_Node000016"><a xlink:title=" ">
<path fill="none" stroke="#63b8ff" d="M509.97,-246.07C536.01,-255.6 570.44,-268.13 601,-279 606.15,-280.83 611.53,-282.73 616.9,-284.62"/>
<polygon fill="#63b8ff" stroke="#63b8ff" points="615.94,-287.99 626.53,-287.99 618.25,-281.38 615.94,-287.99"/>
</a>
</g>
</g>
<!-- Node17 -->
<g id="Node000017" class="node">
<title>Node17</title>
<g id="a_Node000017"><a xlink:href="namespaceprecice_1_1utils.html#ae7d92396314ff258e1b8c82b44460c77" target="_top" xlink:title="Returns true if machine is big&#45;endian needed for parallel vtk output.">
<polygon fill="white" stroke="#666666" points="738,-270 604,-270 604,-240 738,-240 738,-270"/>
<text text-anchor="start" x="612" y="-258" font-family="Helvetica,sans-Serif" font-size="10.00">precice::utils::isMachine</text>
<text text-anchor="middle" x="671" y="-247" font-family="Helvetica,sans-Serif" font-size="10.00">BigEndian</text>
</a>
</g>
</g>
<!-- Node11&#45;&gt;Node17 -->
<g id="edge16_Node000011_Node000017" class="edge">
<title>Node11&#45;&gt;Node17</title>
<g id="a_edge16_Node000011_Node000017"><a xlink:title=" ">
<path fill="none" stroke="#63b8ff" d="M530.67,-238.36C550.61,-240.74 572.95,-243.41 593.8,-245.9"/>
<polygon fill="#63b8ff" stroke="#63b8ff" points="593.56,-249.4 603.91,-247.11 594.39,-242.45 593.56,-249.4"/>
</a>
</g>
</g>
<!-- Node18 -->
<g id="Node000018" class="node">
<title>Node18</title>
<g id="a_Node000018"><a xlink:href="classprecice_1_1io_1_1ExportXML.html#afc5313805a698768fe95df2c8652535f" target="_top" xlink:title=" ">
<polygon fill="white" stroke="#666666" points="733.5,-78 608.5,-78 608.5,-48 733.5,-48 733.5,-78"/>
<text text-anchor="start" x="616.5" y="-66" font-family="Helvetica,sans-Serif" font-size="10.00">precice::io::ExportXML</text>
<text text-anchor="middle" x="671" y="-55" font-family="Helvetica,sans-Serif" font-size="10.00">::writeParallelCells</text>
</a>
</g>
</g>
<!-- Node11&#45;&gt;Node18 -->
<g id="edge17_Node000011_Node000018" class="edge">
<title>Node11&#45;&gt;Node18</title>
<g id="a_edge17_Node000011_Node000018"><a xlink:title=" ">
<path fill="none" stroke="#63b8ff" d="M530.63,-225.46C543.26,-221.79 555.56,-216.02 565,-207 605.28,-168.55 562.49,-127.22 601,-87 601.91,-86.05 602.87,-85.13 603.85,-84.25"/>
<polygon fill="#63b8ff" stroke="#63b8ff" points="606.08,-86.96 612.03,-78.2 601.91,-81.33 606.08,-86.96"/>
</a>
</g>
</g>
<!-- Node19 -->
<g id="Node000019" class="node">
<title>Node19</title>
<g id="a_Node000019"><a xlink:href="classprecice_1_1io_1_1ExportXML.html#a08e2a219552bcb12edb60d1e6e73db39" target="_top" xlink:title=" ">
<polygon fill="white" stroke="#666666" points="733.5,-30 608.5,-30 608.5,0 733.5,0 733.5,-30"/>
<text text-anchor="start" x="616.5" y="-18" font-family="Helvetica,sans-Serif" font-size="10.00">precice::io::ExportXML</text>
<text text-anchor="middle" x="671" y="-7" font-family="Helvetica,sans-Serif" font-size="10.00">::writeParallelData</text>
</a>
</g>
</g>
<!-- Node11&#45;&gt;Node19 -->
<g id="edge18_Node000011_Node000019" class="edge">
<title>Node11&#45;&gt;Node19</title>
<g id="a_edge18_Node000011_Node000019"><a xlink:title=" ">
<path fill="none" stroke="#63b8ff" d="M530.68,-226.16C543.46,-222.47 555.81,-216.51 565,-207 618.07,-152.1 550.44,-96.23 601,-39 601.76,-38.14 602.54,-37.32 603.36,-36.52"/>
<polygon fill="#63b8ff" stroke="#63b8ff" points="605.76,-39.09 611.41,-30.13 601.4,-33.61 605.76,-39.09"/>
</a>
</g>
</g>
<!-- Node20&#45;&gt;Node14 -->
<g id="edge30_Node000020_Node000014" class="edge">
<title>Node20&#45;&gt;Node14</title>
<g id="a_edge30_Node000020_Node000014"><a xlink:title=" ">
<path fill="none" stroke="#63b8ff" d="M509.97,-407.93C536.01,-398.4 570.44,-385.87 601,-375 606.15,-373.17 611.53,-371.27 616.9,-369.38"/>
<polygon fill="#63b8ff" stroke="#63b8ff" points="618.25,-372.62 626.53,-366.01 615.94,-366.01 618.25,-372.62"/>
</a>
</g>
</g>
<!-- Node20&#45;&gt;Node16 -->
<g id="edge31_Node000020_Node000016" class="edge">
<title>Node20&#45;&gt;Node16</title>
<g id="a_edge31_Node000020_Node000016"><a xlink:title=" ">
<path fill="none" stroke="#63b8ff" d="M486.25,-407.86C510.47,-387.24 556.55,-350.24 601,-327 604.44,-325.2 608.05,-323.49 611.73,-321.87"/>
<polygon fill="#63b8ff" stroke="#63b8ff" points="613.09,-325.09 620.99,-318.03 610.41,-318.63 613.09,-325.09"/>
</a>
</g>
</g>
<!-- Node20&#45;&gt;Node17 -->
<g id="edge32_Node000020_Node000017" class="edge">
<title>Node20&#45;&gt;Node17</title>
<g id="a_edge32_Node000020_Node000017"><a xlink:title=" ">
<path fill="none" stroke="#63b8ff" d="M479.11,-407.66C499.06,-378.55 546.31,-314.97 601,-279 603.43,-277.4 605.99,-275.89 608.62,-274.48"/>
<polygon fill="#63b8ff" stroke="#63b8ff" points="610.34,-277.53 617.8,-270 607.28,-271.23 610.34,-277.53"/>
</a>
</g>
</g>
<!-- Node21 -->
<g id="Node000021" class="node">
<title>Node21</title>
<g id="a_Node000021"><a xlink:href="classprecice_1_1io_1_1ExportXML.html#a4580b2d2ae4d5fdd5774af3b7b88f752" target="_top" xlink:title=" ">
<polygon fill="white" stroke="#666666" points="733.5,-462 608.5,-462 608.5,-432 733.5,-432 733.5,-462"/>
<text text-anchor="start" x="616.5" y="-450" font-family="Helvetica,sans-Serif" font-size="10.00">precice::io::ExportXML</text>
<text text-anchor="middle" x="671" y="-439" font-family="Helvetica,sans-Serif" font-size="10.00">::exportConnectivity</text>
</a>
</g>
</g>
<!-- Node20&#45;&gt;Node21 -->
<g id="edge20_Node000020_Node000021" class="edge">
<title>Node20&#45;&gt;Node21</title>
<g id="a_edge20_Node000020_Node000021"><a xlink:title=" ">
<path fill="none" stroke="#63b8ff" d="M530.67,-430.36C552.09,-432.92 576.28,-435.81 598.43,-438.45"/>
<polygon fill="#63b8ff" stroke="#63b8ff" points="598.1,-441.94 608.44,-439.65 598.93,-434.99 598.1,-441.94"/>
</a>
</g>
</g>
<!-- Node22 -->
<g id="Node000022" class="node">
<title>Node22</title>
<g id="a_Node000022"><a xlink:href="classprecice_1_1io_1_1ExportXML.html#a2f575ac1d9af5ad84ba877f65ce61f92" target="_top" xlink:title=" ">
<polygon fill="white" stroke="#666666" points="733.5,-596 608.5,-596 608.5,-566 733.5,-566 733.5,-596"/>
<text text-anchor="start" x="616.5" y="-584" font-family="Helvetica,sans-Serif" font-size="10.00">precice::io::ExportXML</text>
<text text-anchor="middle" x="671" y="-573" font-family="Helvetica,sans-Serif" font-size="10.00">::exportData</text>
</a>
</g>
</g>
<!-- Node20&#45;&gt;Node22 -->
<g id="edge21_Node000020_Node000022" class="edge">
<title>Node20&#45;&gt;Node22</title>
<g id="a_edge21_Node000020_Node000022"><a xlink:title=" ">
<path fill="none" stroke="#63b8ff" d="M488.27,-438.15C524.22,-466.4 601.56,-527.2 642.8,-559.62"/>
<polygon fill="#63b8ff" stroke="#63b8ff" points="640.76,-562.47 650.79,-565.9 645.09,-556.96 640.76,-562.47"/>
</a>
</g>
</g>
<!-- Node25 -->
<g id="Node000025" class="node">
<title>Node25</title>
<g id="a_Node000025"><a xlink:href="classprecice_1_1io_1_1ExportXML.html#a5f31589ad30e39f57e4b761bc502163d" target="_top" xlink:title=" ">
<polygon fill="white" stroke="#666666" points="733.5,-510 608.5,-510 608.5,-480 733.5,-480 733.5,-510"/>
<text text-anchor="start" x="616.5" y="-498" font-family="Helvetica,sans-Serif" font-size="10.00">precice::io::ExportXML</text>
<text text-anchor="middle" x="671" y="-487" font-family="Helvetica,sans-Serif" font-size="10.00">::exportPoints</text>
</a>
</g>
</g>
<!-- Node20&#45;&gt;Node25 -->
<g id="edge26_Node000020_Node000025" class="edge">
<title>Node20&#45;&gt;Node25</title>
<g id="a_edge26_Node000020_Node000025"><a xlink:title=" ">
<path fill="none" stroke="#63b8ff" d="M509.97,-438.07C536.01,-447.6 570.44,-460.13 601,-471 606.15,-472.83 611.53,-474.73 616.9,-476.62"/>
<polygon fill="#63b8ff" stroke="#63b8ff" points="615.94,-479.99 626.53,-479.99 618.25,-473.38 615.94,-479.99"/>
</a>
</g>
</g>
<!-- Node27 -->
<g id="Node000027" class="node">
<title>Node27</title>
<g id="a_Node000027"><a xlink:href="classprecice_1_1io_1_1ExportXML.html#a06c7f37f7fa541792771addf7f689c33" target="_top" xlink:title=" ">
<polygon fill="white" stroke="#666666" points="733.5,-414 608.5,-414 608.5,-384 733.5,-384 733.5,-414"/>
<text text-anchor="start" x="616.5" y="-402" font-family="Helvetica,sans-Serif" font-size="10.00">precice::io::ExportXML</text>
<text text-anchor="middle" x="671" y="-391" font-family="Helvetica,sans-Serif" font-size="10.00">::getPieceAttributes</text>
</a>
</g>
</g>
<!-- Node20&#45;&gt;Node27 -->
<g id="edge29_Node000020_Node000027" class="edge">
<title>Node20&#45;&gt;Node27</title>
<g id="a_edge29_Node000020_Node000027"><a xlink:title=" ">
<path fill="none" stroke="#63b8ff" d="M530.67,-415.64C552.09,-413.08 576.28,-410.19 598.43,-407.55"/>
<polygon fill="#63b8ff" stroke="#63b8ff" points="598.93,-411.01 608.44,-406.35 598.1,-404.06 598.93,-411.01"/>
</a>
</g>
</g>
<!-- Node22&#45;&gt;Node8 -->
<g id="edge22_Node000022_Node000008" class="edge">
<title>Node22&#45;&gt;Node8</title>
<g id="a_edge22_Node000022_Node000008"><a xlink:title=" ">
<path fill="none" stroke="#63b8ff" d="M725.54,-596.1C730.99,-598.66 736.25,-601.61 741,-605 762.12,-620.1 755.88,-635.9 777,-651 779.08,-652.48 781.25,-653.88 783.5,-655.2"/>
<polygon fill="#63b8ff" stroke="#63b8ff" points="781.98,-658.36 792.46,-659.9 785.23,-652.16 781.98,-658.36"/>
</a>
</g>
</g>
<!-- Node22&#45;&gt;Node10 -->
<g id="edge25_Node000022_Node000010" class="edge">
<title>Node22&#45;&gt;Node10</title>
<g id="a_edge25_Node000022_Node000010"><a xlink:title=" ">
<path fill="none" stroke="#63b8ff" d="M724.21,-566C742.96,-560.61 764.3,-554.48 783.81,-548.87"/>
<polygon fill="#63b8ff" stroke="#63b8ff" points="784.89,-552.2 793.53,-546.08 782.95,-545.48 784.89,-552.2"/>
</a>
</g>
</g>
<!-- Node23 -->
<g id="Node000023" class="node">
<title>Node23</title>
<g id="a_Node000023"><a xlink:href="classprecice_1_1io_1_1ExportXML.html#abae0d85921cb20556c2efcdd78c751c7" target="_top" xlink:title=" ">
<polygon fill="white" stroke="#666666" points="909.5,-642 784.5,-642 784.5,-612 909.5,-612 909.5,-642"/>
<text text-anchor="start" x="792.5" y="-630" font-family="Helvetica,sans-Serif" font-size="10.00">precice::io::ExportXML</text>
<text text-anchor="middle" x="847" y="-619" font-family="Helvetica,sans-Serif" font-size="10.00">::exportGradient</text>
</a>
</g>
</g>
<!-- Node22&#45;&gt;Node23 -->
<g id="edge23_Node000022_Node000023" class="edge">
<title>Node22&#45;&gt;Node23</title>
<g id="a_edge23_Node000022_Node000023"><a xlink:title=" ">
<path fill="none" stroke="#63b8ff" d="M728.97,-596.06C745.13,-600.33 762.86,-605.02 779.53,-609.43"/>
<polygon fill="#63b8ff" stroke="#63b8ff" points="778.63,-612.81 789.2,-611.98 780.42,-606.04 778.63,-612.81"/>
</a>
</g>
</g>
<!-- Node24 -->
<g id="Node000024" class="node">
<title>Node24</title>
<g id="a_Node000024"><a xlink:href="classprecice_1_1utils_1_1IntraComm.html#a2c2aa5e2fd6cc26797b7fdee0b0b25ac" target="_top" xlink:title="Current rank.">
<polygon fill="white" stroke="#666666" points="917,-594 777,-594 777,-564 917,-564 917,-594"/>
<text text-anchor="start" x="785" y="-582" font-family="Helvetica,sans-Serif" font-size="10.00">precice::utils::IntraComm</text>
<text text-anchor="middle" x="847" y="-571" font-family="Helvetica,sans-Serif" font-size="10.00">::getRank</text>
</a>
</g>
</g>
<!-- Node22&#45;&gt;Node24 -->
<g id="edge24_Node000022_Node000024" class="edge">
<title>Node22&#45;&gt;Node24</title>
<g id="a_edge24_Node000022_Node000024"><a xlink:title=" ">
<path fill="none" stroke="#63b8ff" d="M733.84,-580.29C744.53,-580.17 755.78,-580.04 766.86,-579.91"/>
<polygon fill="#63b8ff" stroke="#63b8ff" points="767,-583.41 776.96,-579.79 766.92,-576.41 767,-583.41"/>
</a>
</g>
</g>
<!-- Node25&#45;&gt;Node10 -->
<g id="edge27_Node000025_Node000010" class="edge">
<title>Node25&#45;&gt;Node10</title>
<g id="a_edge27_Node000025_Node000010"><a xlink:title=" ">
<path fill="none" stroke="#63b8ff" d="M733.84,-507.79C748.28,-510.78 763.74,-513.98 778.42,-517.02"/>
<polygon fill="#63b8ff" stroke="#63b8ff" points="777.93,-520.49 788.43,-519.09 779.35,-513.64 777.93,-520.49"/>
</a>
</g>
</g>
<!-- Node26 -->
<g id="Node000026" class="node">
<title>Node26</title>
<g id="a_Node000026"><a xlink:href="classprecice_1_1io_1_1ExportXML.html#ae929b255dc356625b5568581d5e5e865" target="_top" xlink:title=" ">
<polygon fill="white" stroke="#666666" points="909.5,-498 784.5,-498 784.5,-468 909.5,-468 909.5,-498"/>
<text text-anchor="start" x="792.5" y="-486" font-family="Helvetica,sans-Serif" font-size="10.00">precice::io::ExportXML</text>
<text text-anchor="middle" x="847" y="-475" font-family="Helvetica,sans-Serif" font-size="10.00">::writeVertex</text>
</a>
</g>
</g>
<!-- Node25&#45;&gt;Node26 -->
<g id="edge28_Node000025_Node000026" class="edge">
<title>Node25&#45;&gt;Node26</title>
<g id="a_edge28_Node000025_Node000026"><a xlink:title=" ">
<path fill="none" stroke="#63b8ff" d="M733.84,-490.74C746.91,-489.83 760.82,-488.87 774.23,-487.95"/>
<polygon fill="#63b8ff" stroke="#63b8ff" points="774.63,-491.43 784.36,-487.25 774.15,-484.45 774.63,-491.43"/>
</a>
</g>
</g>
<!-- Node29 -->
<g id="Node000029" class="node">
<title>Node29</title>
<g id="a_Node000029"><a xlink:href="classprecice_1_1utils_1_1ManageUniqueIDs.html#a02be264c279698ae293587b6576088b5" target="_top" xlink:title=" ">
<polygon fill="white" stroke="#666666" points="547,-198 389,-198 389,-168 547,-168 547,-198"/>
<text text-anchor="start" x="397" y="-186" font-family="Helvetica,sans-Serif" font-size="10.00">precice::utils::ManageUnique</text>
<text text-anchor="middle" x="468" y="-175" font-family="Helvetica,sans-Serif" font-size="10.00">IDs::getFreeID</text>
</a>
</g>
</g>
<!-- Node28&#45;&gt;Node29 -->
<g id="edge34_Node000028_Node000029" class="edge">
<title>Node28&#45;&gt;Node29</title>
<g id="a_edge34_Node000028_Node000029"><a xlink:title=" ">
<path fill="none" stroke="#63b8ff" d="M262.77,-341.13C275.99,-314.85 315.8,-242.79 371,-207 373.74,-205.22 376.6,-203.58 379.55,-202.06"/>
<polygon fill="#63b8ff" stroke="#63b8ff" points="381.03,-205.23 388.63,-197.84 378.09,-198.88 381.03,-205.23"/>
</a>
</g>
</g>
</g>
</svg>

<g id="navigator" transform="translate(0 0)" fill="#404254">
  <rect fill="#f2f5e9" fill-opacity="0.5" stroke="#606060" stroke-width=".5" x="0" y="0" width="60" height="60"/>
  <use id="zoomplus" xlink:href="#zoomPlus" x="17" y="9" onmousedown="handleZoom(evt,'in')"/>
  <use id="zoomminus" xlink:href="#zoomMin" x="42" y="9" onmousedown="handleZoom(evt,'out')"/>
  <use id="reset" xlink:href="#resetDef" x="30" y="36" onmousedown="handleReset()"/>
   <use id="arrowup" xlink:href="#arrowUp" x="0" y="0" onmousedown="handlePan(0,-1)"/>
  <use id="arrowright" xlink:href="#arrowRight" x="0" y="0" onmousedown="handlePan(1,0)"/>
  <use id="arrowdown" xlink:href="#arrowDown" x="0" y="0" onmousedown="handlePan(0,1)"/>
  <use id="arrowleft" xlink:href="#arrowLeft" x="0" y="0" onmousedown="handlePan(-1,0)"/>
</g>
<svg viewBox="0 0 15 15" width="100%" height="30px" preserveAspectRatio="xMaxYMin meet">
 <g id="arrow_out" transform="scale(0.3 0.3)">
  <a xlink:href="ExportVTUTest_8cpp_a9d253ddec0277a154ce8e00fdd7725b6_cgraph_org.svg" target="_base">
   <rect id="button" ry="5" rx="5" y="6" x="6" height="38" width="38"
        fill="#f2f5e9" fill-opacity="0.5" stroke="#606060" stroke-width="1.0"/>
   <path id="arrow"
     d="M 11.500037,31.436501 C 11.940474,20.09759 22.043105,11.32322 32.158766,21.979434 L 37.068811,17.246167 C 37.068811,17.246167 37.088388,32 37.088388,32 L 22.160133,31.978069 C 22.160133,31.978069 26.997745,27.140456 26.997745,27.140456 C 18.528582,18.264221 13.291696,25.230495 11.500037,31.436501 z"
     style="fill:#404040;"/>
  </a>
 </g>
</svg>

<style type='text/css'>
<![CDATA[
[data-mouse-over-selected='false'] { opacity: 0.7; }
[data-mouse-over-selected='true']  { opacity: 1.0; }
]]>
</style>
<script type="application/ecmascript"><![CDATA[
document.addEventListener('DOMContentLoaded', (event) => {
  highlightEdges();
  highlightAdjacentNodes();
});
]]></script>
</svg>
