<?xml version="1.0" encoding="UTF-8" standalone="no"?>
<!DOCTYPE svg PUBLIC "-//W3C//DTD SVG 1.1//EN"
 "http://www.w3.org/Graphics/SVG/1.1/DTD/svg11.dtd">
<!-- Generated by graphviz version 2.43.0 (0)
 -->
<!-- Title: src/io/ExportCSV.hpp Pages: 1 -->
<!--zoomable 423 -->

<svg id="main" version="1.1" xmlns="http://www.w3.org/2000/svg" xmlns:xlink="http://www.w3.org/1999/xlink" xml:space="preserve" onload="init(evt)">
<style type="text/css"><![CDATA[
.node, .edge {opacity: 0.7;}
.node.selected, .edge.selected {opacity: 1;}
.edge:hover path { stroke: red; }
.edge:hover polygon { stroke: red; fill: red; }
]]></style>

<defs>
  <circle id="rim" cx="0" cy="0" r="7"/>
  <circle id="rim2" cx="0" cy="0" r="3.5"/>
  <g id="zoomPlus">
    <use xlink:href="#rim" fill="#404040"><set attributeName="fill" to="#808080" begin="zoomplus.mouseover" end="zoomplus.mouseout"/></use>
    <path d="M-4,0h8M0,-4v8" fill="none" stroke="white" stroke-width="1.5" pointer-events="none"/>
  </g>
  <g id="zoomMin">
    <use xlink:href="#rim" fill="#404040"><set attributeName="fill" to="#808080" begin="zoomminus.mouseover" end="zoomminus.mouseout"/></use>
    <path d="M-4,0h8" fill="none" stroke="white" stroke-width="1.5" pointer-events="none"/>
  </g>
  <g id="arrowUp" transform="translate(30 24)">
    <use xlink:href="#rim"/>
    <path pointer-events="none" fill="none" stroke="white" stroke-width="1.5" d="M0,-3.0v7 M-2.5,-0.5L0,-3.0L2.5,-0.5"/>
  </g>
  <g id="arrowRight" transform="rotate(90) translate(36 -43)">
    <use xlink:href="#rim"/>
    <path pointer-events="none" fill="none" stroke="white" stroke-width="1.5" d="M0,-3.0v7 M-2.5,-0.5L0,-3.0L2.5,-0.5"/>
  </g>
  <g id="arrowDown" transform="rotate(180) translate(-30 -48)">
    <use xlink:href="#rim"/>
    <path pointer-events="none" fill="none" stroke="white" stroke-width="1.5" d="M0,-3.0v7 M-2.5,-0.5L0,-3.0L2.5,-0.5"/>
  </g>
  <g id="arrowLeft" transform="rotate(270) translate(-36 17)">
    <use xlink:href="#rim"/>
    <path pointer-events="none" fill="none" stroke="white" stroke-width="1.5" d="M0,-3.0v7 M-2.5,-0.5L0,-3.0L2.5,-0.5"/>
  </g>
  <g id="resetDef">
    <use xlink:href="#rim2" fill="#404040"><set attributeName="fill" to="#808080" begin="reset.mouseover" end="reset.mouseout"/></use>
  </g>
</defs>
<script type="application/ecmascript">
var viewWidth = 1226;
var viewHeight = 423;
var sectionId = 'dynsection-0';
</script>
<script type="application/ecmascript" xlink:href="svg.min.js"/>
<svg id="graph" class="graph">
<g id="viewport">
<title>src/io/ExportCSV.hpp</title>
<!-- Node1 -->
<g id="Node000001" class="node">
<title>Node1</title>
<g id="a_Node000001"><a xlink:title=" ">
<polygon fill="#999999" stroke="#666666" points="167.5,-415 51.5,-415 51.5,-396 167.5,-396 167.5,-415"/>
<text text-anchor="middle" x="109.5" y="-403" font-family="Helvetica,sans-Serif" font-size="10.00">src/io/ExportCSV.hpp</text>
</a>
</g>
</g>
<!-- Node2 -->
<g id="Node000002" class="node">
<title>Node2</title>
<g id="a_Node000002"><a target="_parent" xlink:href="http://en.cppreference.com/w/cpp/header/string.html" xlink:title=" ">
<polygon fill="white" stroke="#666666" points="150.5,-129 106.5,-129 106.5,-110 150.5,-110 150.5,-129"/>
<text text-anchor="middle" x="128.5" y="-117" font-family="Helvetica,sans-Serif" font-size="10.00">string</text>
</a>
</g>
</g>
<!-- Node1&#45;&gt;Node2 -->
<g id="edge1_Node000001_Node000002" class="edge">
<title>Node1&#45;&gt;Node2</title>
<g id="a_edge1_Node000001_Node000002"><a xlink:title=" ">
<path fill="none" stroke="#63b8ff" d="M109.5,-395.82C109.5,-377.48 109.5,-333.44 109.5,-296.5 109.5,-296.5 109.5,-296.5 109.5,-239.5 109.5,-203.54 118.06,-162.23 123.69,-138.96"/>
<polygon fill="#63b8ff" stroke="#63b8ff" points="127.13,-139.64 126.17,-129.09 120.34,-137.93 127.13,-139.64"/>
</a>
</g>
</g>
<!-- Node3 -->
<g id="Node000003" class="node">
<title>Node3</title>
<g id="a_Node000003"><a xlink:href="Export_8hpp.html" target="_top" xlink:title=" ">
<polygon fill="white" stroke="#666666" points="81,-189.5 0,-189.5 0,-170.5 81,-170.5 81,-189.5"/>
<text text-anchor="middle" x="40.5" y="-177.5" font-family="Helvetica,sans-Serif" font-size="10.00">io/Export.hpp</text>
</a>
</g>
</g>
<!-- Node1&#45;&gt;Node3 -->
<g id="edge2_Node000001_Node000003" class="edge">
<title>Node1&#45;&gt;Node3</title>
<g id="a_edge2_Node000001_Node000003"><a xlink:title=" ">
<path fill="none" stroke="#63b8ff" d="M106.8,-395.97C103.97,-387.02 99.4,-372.53 95.5,-360 77.28,-301.41 56.03,-231.91 46.12,-199.44"/>
<polygon fill="#63b8ff" stroke="#63b8ff" points="49.38,-198.12 43.11,-189.58 42.68,-200.16 49.38,-198.12"/>
</a>
</g>
</g>
<!-- Node6 -->
<g id="Node000006" class="node">
<title>Node6</title>
<g id="a_Node000006"><a xlink:href="Logger_8hpp.html" target="_top" xlink:title=" ">
<polygon fill="white" stroke="#666666" points="950,-360 841,-360 841,-341 950,-341 950,-360"/>
<text text-anchor="middle" x="895.5" y="-348" font-family="Helvetica,sans-Serif" font-size="10.00">logging/Logger.hpp</text>
</a>
</g>
</g>
<!-- Node1&#45;&gt;Node6 -->
<g id="edge6_Node000001_Node000006" class="edge">
<title>Node1&#45;&gt;Node6</title>
<g id="a_edge6_Node000001_Node000006"><a xlink:title=" ">
<path fill="none" stroke="#63b8ff" d="M167.62,-400.58C311,-390.91 680.84,-365.97 830.85,-355.86"/>
<polygon fill="#63b8ff" stroke="#63b8ff" points="831.09,-359.35 840.83,-355.19 830.62,-352.37 831.09,-359.35"/>
</a>
</g>
</g>
<!-- Node3&#45;&gt;Node2 -->
<g id="edge3_Node000003_Node000002" class="edge">
<title>Node3&#45;&gt;Node2</title>
<g id="a_edge3_Node000003_Node000002"><a xlink:title=" ">
<path fill="none" stroke="#63b8ff" d="M53.48,-170.37C67.52,-161.04 90.13,-146.01 106.86,-134.88"/>
<polygon fill="#63b8ff" stroke="#63b8ff" points="109.07,-137.62 115.46,-129.17 105.2,-131.79 109.07,-137.62"/>
</a>
</g>
</g>
<!-- Node4 -->
<g id="Node000004" class="node">
<title>Node4</title>
<g id="a_Node000004"><a target="_parent" xlink:href="http://en.cppreference.com/w/cpp/header/string_view.html" xlink:title=" ">
<polygon fill="white" stroke="#666666" points="700,-129 627,-129 627,-110 700,-110 700,-129"/>
<text text-anchor="middle" x="663.5" y="-117" font-family="Helvetica,sans-Serif" font-size="10.00">string_view</text>
</a>
</g>
</g>
<!-- Node3&#45;&gt;Node4 -->
<g id="edge4_Node000003_Node000004" class="edge">
<title>Node3&#45;&gt;Node4</title>
<g id="a_edge4_Node000003_Node000004"><a xlink:title=" ">
<path fill="none" stroke="#63b8ff" d="M81.05,-174.27C105.74,-171.45 137.92,-167.87 166.5,-165 331.95,-148.4 528.7,-131.68 616.8,-124.35"/>
<polygon fill="#63b8ff" stroke="#63b8ff" points="617.32,-127.82 627,-123.5 616.74,-120.84 617.32,-127.82"/>
</a>
</g>
</g>
<!-- Node5 -->
<g id="Node000005" class="node">
<title>Node5</title>
<g id="a_Node000005"><a target="_parent" xlink:href="http://en.cppreference.com/w/cpp/header/vector.html" xlink:title=" ">
<polygon fill="white" stroke="#666666" points="353,-74 306,-74 306,-55 353,-55 353,-74"/>
<text text-anchor="middle" x="329.5" y="-62" font-family="Helvetica,sans-Serif" font-size="10.00">vector</text>
</a>
</g>
</g>
<!-- Node3&#45;&gt;Node5 -->
<g id="edge5_Node000003_Node000005" class="edge">
<title>Node3&#45;&gt;Node5</title>
<g id="a_edge5_Node000003_Node000005"><a xlink:title=" ">
<path fill="none" stroke="#63b8ff" d="M45.11,-170.13C53.41,-155.12 72.37,-124.89 97.5,-110 160.48,-72.68 248.43,-65.77 295.9,-65.01"/>
<polygon fill="#63b8ff" stroke="#63b8ff" points="295.98,-68.5 305.95,-64.93 295.92,-61.5 295.98,-68.5"/>
</a>
</g>
</g>
<!-- Node6&#45;&gt;Node2 -->
<g id="edge8_Node000006_Node000002" class="edge">
<title>Node6&#45;&gt;Node2</title>
<g id="a_edge8_Node000006_Node000002"><a xlink:title=" ">
<path fill="none" stroke="#63b8ff" d="M840.85,-344.02C690.29,-327.99 273.61,-277.1 166.5,-195 148.44,-181.16 138.26,-156.36 133.07,-139.19"/>
<polygon fill="#63b8ff" stroke="#63b8ff" points="136.35,-137.94 130.35,-129.21 129.6,-139.78 136.35,-137.94"/>
</a>
</g>
</g>
<!-- Node6&#45;&gt;Node4 -->
<g id="edge9_Node000006_Node000004" class="edge">
<title>Node6&#45;&gt;Node4</title>
<g id="a_edge9_Node000006_Node000004"><a xlink:title=" ">
<path fill="none" stroke="#63b8ff" d="M891.85,-340.73C888.22,-331.82 882.6,-317.58 878.5,-305 858.53,-243.7 886.51,-210.16 840.5,-165 831.11,-155.79 759.43,-139.8 710.21,-129.71"/>
<polygon fill="#63b8ff" stroke="#63b8ff" points="710.89,-126.27 700.39,-127.71 709.49,-133.13 710.89,-126.27"/>
</a>
</g>
</g>
<!-- Node7 -->
<g id="Node000007" class="node">
<title>Node7</title>
<g id="a_Node000007"><a target="_parent" xlink:href="http://en.cppreference.com/w/cpp/header/memory.html" xlink:title=" ">
<polygon fill="white" stroke="#666666" points="1091.5,-305 1033.5,-305 1033.5,-286 1091.5,-286 1091.5,-305"/>
<text text-anchor="middle" x="1062.5" y="-293" font-family="Helvetica,sans-Serif" font-size="10.00">memory</text>
</a>
</g>
</g>
<!-- Node6&#45;&gt;Node7 -->
<g id="edge7_Node000006_Node000007" class="edge">
<title>Node6&#45;&gt;Node7</title>
<g id="a_edge7_Node000006_Node000007"><a xlink:title=" ">
<path fill="none" stroke="#63b8ff" d="M922.33,-340.98C950.37,-332.09 994.55,-318.07 1025.8,-308.15"/>
<polygon fill="#63b8ff" stroke="#63b8ff" points="1026.99,-311.44 1035.46,-305.08 1024.87,-304.77 1026.99,-311.44"/>
</a>
</g>
</g>
<!-- Node8 -->
<g id="Node000008" class="node">
<title>Node8</title>
<g id="a_Node000008"><a xlink:href="LogMacros_8hpp.html" target="_top" xlink:title=" ">
<polygon fill="white" stroke="#666666" points="977.5,-305 887.5,-305 887.5,-286 977.5,-286 977.5,-305"/>
<text text-anchor="middle" x="932.5" y="-293" font-family="Helvetica,sans-Serif" font-size="10.00">LogMacros.hpp</text>
</a>
</g>
</g>
<!-- Node6&#45;&gt;Node8 -->
<g id="edge10_Node000006_Node000008" class="edge">
<title>Node6&#45;&gt;Node8</title>
<g id="a_edge10_Node000006_Node000008"><a xlink:title=" ">
<path fill="none" stroke="#63b8ff" d="M901.61,-340.75C906.78,-333.34 914.35,-322.5 920.69,-313.41"/>
<polygon fill="#63b8ff" stroke="#63b8ff" points="923.65,-315.29 926.5,-305.09 917.91,-311.29 923.65,-315.29"/>
</a>
</g>
</g>
<!-- Node9 -->
<g id="Node000009" class="node">
<title>Node9</title>
<g id="a_Node000009"><a xlink:href="Exceptions_8hpp.html" target="_top" xlink:title=" ">
<polygon fill="white" stroke="#666666" points="1085,-250 956,-250 956,-231 1085,-231 1085,-250"/>
<text text-anchor="middle" x="1020.5" y="-238" font-family="Helvetica,sans-Serif" font-size="10.00">precice/Exceptions.hpp</text>
</a>
</g>
</g>
<!-- Node8&#45;&gt;Node9 -->
<g id="edge11_Node000008_Node000009" class="edge">
<title>Node8&#45;&gt;Node9</title>
<g id="a_edge11_Node000008_Node000009"><a xlink:title=" ">
<path fill="none" stroke="#63b8ff" d="M946.64,-285.98C960.29,-277.77 981.19,-265.18 997.28,-255.49"/>
<polygon fill="#63b8ff" stroke="#63b8ff" points="999.34,-258.33 1006.1,-250.17 995.73,-252.33 999.34,-258.33"/>
</a>
</g>
</g>
<!-- Node12 -->
<g id="Node000012" class="node">
<title>Node12</title>
<g id="a_Node000012"><a xlink:href="fmt_8hpp.html" target="_top" xlink:title=" ">
<polygon fill="white" stroke="#666666" points="967,-189.5 888,-189.5 888,-170.5 967,-170.5 967,-189.5"/>
<text text-anchor="middle" x="927.5" y="-177.5" font-family="Helvetica,sans-Serif" font-size="10.00">utils/fmt.hpp</text>
</a>
</g>
</g>
<!-- Node8&#45;&gt;Node12 -->
<g id="edge14_Node000008_Node000012" class="edge">
<title>Node8&#45;&gt;Node12</title>
<g id="a_edge14_Node000008_Node000012"><a xlink:title=" ">
<path fill="none" stroke="#63b8ff" d="M932.12,-285.97C931.32,-267.73 929.42,-224.57 928.32,-199.64"/>
<polygon fill="#63b8ff" stroke="#63b8ff" points="931.82,-199.47 927.88,-189.63 924.82,-199.77 931.82,-199.47"/>
</a>
</g>
</g>
<!-- Node25 -->
<g id="Node000025" class="node">
<title>Node25</title>
<g id="a_Node000025"><a xlink:href="Tracer_8hpp.html" target="_top" xlink:title=" ">
<polygon fill="white" stroke="#666666" points="1208,-250 1103,-250 1103,-231 1208,-231 1208,-250"/>
<text text-anchor="middle" x="1155.5" y="-238" font-family="Helvetica,sans-Serif" font-size="10.00">logging/Tracer.hpp</text>
</a>
</g>
</g>
<!-- Node8&#45;&gt;Node25 -->
<g id="edge33_Node000008_Node000025" class="edge">
<title>Node8&#45;&gt;Node25</title>
<g id="a_edge33_Node000008_Node000025"><a xlink:title=" ">
<path fill="none" stroke="#63b8ff" d="M968.33,-285.98C1006.66,-276.87 1067.58,-262.4 1109.45,-252.45"/>
<polygon fill="#63b8ff" stroke="#63b8ff" points="1110.47,-255.8 1119.39,-250.08 1108.85,-248.99 1110.47,-255.8"/>
</a>
</g>
</g>
<!-- Node26 -->
<g id="Node000026" class="node">
<title>Node26</title>
<g id="a_Node000026"><a xlink:href="ArgumentFormatter_8hpp.html" target="_top" xlink:title=" ">
<polygon fill="white" stroke="#666666" points="721,-250 564,-250 564,-231 721,-231 721,-250"/>
<text text-anchor="middle" x="642.5" y="-238" font-family="Helvetica,sans-Serif" font-size="10.00">utils/ArgumentFormatter.hpp</text>
</a>
</g>
</g>
<!-- Node8&#45;&gt;Node26 -->
<g id="edge35_Node000008_Node000026" class="edge">
<title>Node8&#45;&gt;Node26</title>
<g id="a_edge35_Node000008_Node000026"><a xlink:title=" ">
<path fill="none" stroke="#63b8ff" d="M887.19,-286.22C836.5,-276.95 754.31,-261.93 699.35,-251.89"/>
<polygon fill="#63b8ff" stroke="#63b8ff" points="699.88,-248.43 689.42,-250.07 698.62,-255.32 699.88,-248.43"/>
</a>
</g>
</g>
<!-- Node10 -->
<g id="Node000010" class="node">
<title>Node10</title>
<g id="a_Node000010"><a target="_parent" xlink:href="http://en.cppreference.com/w/cpp/header/stdexcept.html" xlink:title=" ">
<polygon fill="white" stroke="#666666" points="1163,-189.5 1098,-189.5 1098,-170.5 1163,-170.5 1163,-189.5"/>
<text text-anchor="middle" x="1130.5" y="-177.5" font-family="Helvetica,sans-Serif" font-size="10.00">stdexcept</text>
</a>
</g>
</g>
<!-- Node9&#45;&gt;Node10 -->
<g id="edge12_Node000009_Node000010" class="edge">
<title>Node9&#45;&gt;Node10</title>
<g id="a_edge12_Node000009_Node000010"><a xlink:title=" ">
<path fill="none" stroke="#63b8ff" d="M1036.73,-230.87C1054.77,-221.28 1084.12,-205.67 1105.18,-194.47"/>
<polygon fill="#63b8ff" stroke="#63b8ff" points="1107.02,-197.45 1114.2,-189.67 1103.73,-191.27 1107.02,-197.45"/>
</a>
</g>
</g>
<!-- Node11 -->
<g id="Node000011" class="node">
<title>Node11</title>
<g id="a_Node000011"><a xlink:title=" ">
<polygon fill="#e0e0e0" stroke="#999999" points="1080,-189.5 985,-189.5 985,-170.5 1080,-170.5 1080,-189.5"/>
<text text-anchor="middle" x="1032.5" y="-177.5" font-family="Helvetica,sans-Serif" font-size="10.00">precice/export.h</text>
</a>
</g>
</g>
<!-- Node9&#45;&gt;Node11 -->
<g id="edge13_Node000009_Node000011" class="edge">
<title>Node9&#45;&gt;Node11</title>
<g id="a_edge13_Node000009_Node000011"><a xlink:title=" ">
<path fill="none" stroke="#63b8ff" d="M1022.27,-230.87C1023.95,-222.66 1026.54,-210.04 1028.69,-199.55"/>
<polygon fill="#63b8ff" stroke="#63b8ff" points="1032.14,-200.17 1030.72,-189.67 1025.28,-198.76 1032.14,-200.17"/>
</a>
</g>
</g>
<!-- Node12&#45;&gt;Node2 -->
<g id="edge15_Node000012_Node000002" class="edge">
<title>Node12&#45;&gt;Node2</title>
<g id="a_edge15_Node000012_Node000002"><a xlink:title=" ">
<path fill="none" stroke="#63b8ff" d="M887.76,-171.77C872.97,-169.3 856.01,-166.73 840.5,-165 579.22,-135.88 261.72,-124.46 160.86,-121.4"/>
<polygon fill="#63b8ff" stroke="#63b8ff" points="160.81,-117.9 150.71,-121.1 160.61,-124.9 160.81,-117.9"/>
</a>
</g>
</g>
<!-- Node12&#45;&gt;Node4 -->
<g id="edge16_Node000012_Node000004" class="edge">
<title>Node12&#45;&gt;Node4</title>
<g id="a_edge16_Node000012_Node000004"><a xlink:title=" ">
<path fill="none" stroke="#63b8ff" d="M895.58,-170.47C888.33,-168.61 880.66,-166.69 873.5,-165 817.42,-151.79 752.48,-138.31 709.84,-129.7"/>
<polygon fill="#63b8ff" stroke="#63b8ff" points="710.52,-126.27 700.03,-127.72 709.14,-133.13 710.52,-126.27"/>
</a>
</g>
</g>
<!-- Node13 -->
<g id="Node000013" class="node">
<title>Node13</title>
<g id="a_Node000013"><a xlink:title=" ">
<polygon fill="#e0e0e0" stroke="#999999" points="906,-74 827,-74 827,-55 906,-55 906,-74"/>
<text text-anchor="middle" x="866.5" y="-62" font-family="Helvetica,sans-Serif" font-size="10.00">fmt/format.h</text>
</a>
</g>
</g>
<!-- Node12&#45;&gt;Node13 -->
<g id="edge17_Node000012_Node000013" class="edge">
<title>Node12&#45;&gt;Node13</title>
<g id="a_edge17_Node000012_Node000013"><a xlink:title=" ">
<path fill="none" stroke="#63b8ff" d="M922.92,-170.47C912.98,-151.98 889.29,-107.9 875.98,-83.14"/>
<polygon fill="#63b8ff" stroke="#63b8ff" points="878.96,-81.28 871.14,-74.13 872.79,-84.6 878.96,-81.28"/>
</a>
</g>
</g>
<!-- Node14 -->
<g id="Node000014" class="node">
<title>Node14</title>
<g id="a_Node000014"><a xlink:title=" ">
<polygon fill="#e0e0e0" stroke="#999999" points="1130.5,-129 1044.5,-129 1044.5,-110 1130.5,-110 1130.5,-129"/>
<text text-anchor="middle" x="1087.5" y="-117" font-family="Helvetica,sans-Serif" font-size="10.00">fmt/ostream.h</text>
</a>
</g>
</g>
<!-- Node12&#45;&gt;Node14 -->
<g id="edge18_Node000012_Node000014" class="edge">
<title>Node12&#45;&gt;Node14</title>
<g id="a_edge18_Node000012_Node000014"><a xlink:title=" ">
<path fill="none" stroke="#63b8ff" d="M950.77,-170.49C978.14,-160.49 1023.77,-143.8 1054.72,-132.49"/>
<polygon fill="#63b8ff" stroke="#63b8ff" points="1056.02,-135.74 1064.21,-129.02 1053.61,-129.16 1056.02,-135.74"/>
</a>
</g>
</g>
<!-- Node15 -->
<g id="Node000015" class="node">
<title>Node15</title>
<g id="a_Node000015"><a xlink:href="fmtEigen_8hpp.html" target="_top" xlink:title=" ">
<polygon fill="white" stroke="#666666" points="1026.5,-129 920.5,-129 920.5,-110 1026.5,-110 1026.5,-129"/>
<text text-anchor="middle" x="973.5" y="-117" font-family="Helvetica,sans-Serif" font-size="10.00">utils/fmtEigen.hpp</text>
</a>
</g>
</g>
<!-- Node12&#45;&gt;Node15 -->
<g id="edge19_Node000012_Node000015" class="edge">
<title>Node12&#45;&gt;Node15</title>
<g id="a_edge19_Node000012_Node000015"><a xlink:title=" ">
<path fill="none" stroke="#63b8ff" d="M934.29,-170.37C941.15,-161.64 951.93,-147.93 960.45,-137.09"/>
<polygon fill="#63b8ff" stroke="#63b8ff" points="963.25,-139.19 966.68,-129.17 957.75,-134.86 963.25,-139.19"/>
</a>
</g>
</g>
<!-- Node20 -->
<g id="Node000020" class="node">
<title>Node20</title>
<g id="a_Node000020"><a xlink:href="fmtSTL_8hpp.html" target="_top" xlink:title=" ">
<polygon fill="white" stroke="#666666" points="814.5,-129 718.5,-129 718.5,-110 814.5,-110 814.5,-129"/>
<text text-anchor="middle" x="766.5" y="-117" font-family="Helvetica,sans-Serif" font-size="10.00">utils/fmtSTL.hpp</text>
</a>
</g>
</g>
<!-- Node12&#45;&gt;Node20 -->
<g id="edge26_Node000012_Node000020" class="edge">
<title>Node12&#45;&gt;Node20</title>
<g id="a_edge26_Node000012_Node000020"><a xlink:title=" ">
<path fill="none" stroke="#63b8ff" d="M904.09,-170.49C876.55,-160.49 830.63,-143.8 799.49,-132.49"/>
<polygon fill="#63b8ff" stroke="#63b8ff" points="800.53,-129.14 789.94,-129.02 798.14,-135.72 800.53,-129.14"/>
</a>
</g>
</g>
<!-- Node15&#45;&gt;Node13 -->
<g id="edge22_Node000015_Node000013" class="edge">
<title>Node15&#45;&gt;Node13</title>
<g id="a_edge22_Node000015_Node000013"><a xlink:title=" ">
<path fill="none" stroke="#63b8ff" d="M956.31,-109.98C939.25,-101.54 912.87,-88.47 893.1,-78.68"/>
<polygon fill="#63b8ff" stroke="#63b8ff" points="894.52,-75.47 884,-74.17 891.41,-81.75 894.52,-75.47"/>
</a>
</g>
</g>
<!-- Node16 -->
<g id="Node000016" class="node">
<title>Node16</title>
<g id="a_Node000016"><a xlink:title=" ">
<polygon fill="#e0e0e0" stroke="#999999" points="1047,-19 978,-19 978,0 1047,0 1047,-19"/>
<text text-anchor="middle" x="1012.5" y="-7" font-family="Helvetica,sans-Serif" font-size="10.00">Eigen/Core</text>
</a>
</g>
</g>
<!-- Node15&#45;&gt;Node16 -->
<g id="edge20_Node000015_Node000016" class="edge">
<title>Node15&#45;&gt;Node16</title>
<g id="a_edge20_Node000015_Node000016"><a xlink:title=" ">
<path fill="none" stroke="#63b8ff" d="M992.77,-109.9C1006.62,-102.55 1024.26,-90.54 1032.5,-74 1039.97,-59.02 1032.58,-40.66 1024.76,-27.54"/>
<polygon fill="#63b8ff" stroke="#63b8ff" points="1027.6,-25.49 1019.19,-19.04 1021.74,-29.33 1027.6,-25.49"/>
</a>
</g>
</g>
<!-- Node17 -->
<g id="Node000017" class="node">
<title>Node17</title>
<g id="a_Node000017"><a target="_parent" xlink:href="http://en.cppreference.com/w/cpp/header/algorithm.html" xlink:title=" ">
<polygon fill="white" stroke="#666666" points="1143.5,-74 1079.5,-74 1079.5,-55 1143.5,-55 1143.5,-74"/>
<text text-anchor="middle" x="1111.5" y="-62" font-family="Helvetica,sans-Serif" font-size="10.00">algorithm</text>
</a>
</g>
</g>
<!-- Node15&#45;&gt;Node17 -->
<g id="edge21_Node000015_Node000017" class="edge">
<title>Node15&#45;&gt;Node17</title>
<g id="a_edge21_Node000015_Node000017"><a xlink:title=" ">
<path fill="none" stroke="#63b8ff" d="M995.67,-109.98C1018.27,-101.3 1053.56,-87.75 1079.25,-77.88"/>
<polygon fill="#63b8ff" stroke="#63b8ff" points="1080.84,-81.02 1088.92,-74.17 1078.33,-74.49 1080.84,-81.02"/>
</a>
</g>
</g>
<!-- Node18 -->
<g id="Node000018" class="node">
<title>Node18</title>
<g id="a_Node000018"><a target="_parent" xlink:href="http://en.cppreference.com/w/cpp/header/sstream.html" xlink:title=" ">
<polygon fill="white" stroke="#666666" points="1217.5,-74 1161.5,-74 1161.5,-55 1217.5,-55 1217.5,-74"/>
<text text-anchor="middle" x="1189.5" y="-62" font-family="Helvetica,sans-Serif" font-size="10.00">sstream</text>
</a>
</g>
</g>
<!-- Node15&#45;&gt;Node18 -->
<g id="edge23_Node000015_Node000018" class="edge">
<title>Node15&#45;&gt;Node18</title>
<g id="a_edge23_Node000015_Node000018"><a xlink:title=" ">
<path fill="none" stroke="#63b8ff" d="M1008.2,-109.98C1047.45,-100.35 1111.15,-84.72 1151.65,-74.79"/>
<polygon fill="#63b8ff" stroke="#63b8ff" points="1152.54,-78.17 1161.42,-72.39 1150.87,-71.37 1152.54,-78.17"/>
</a>
</g>
</g>
<!-- Node19 -->
<g id="Node000019" class="node">
<title>Node19</title>
<g id="a_Node000019"><a xlink:href="EigenIO_8hpp.html" target="_top" xlink:title=" ">
<polygon fill="white" stroke="#666666" points="1023,-74 924,-74 924,-55 1023,-55 1023,-74"/>
<text text-anchor="middle" x="973.5" y="-62" font-family="Helvetica,sans-Serif" font-size="10.00">utils/EigenIO.hpp</text>
</a>
</g>
</g>
<!-- Node15&#45;&gt;Node19 -->
<g id="edge24_Node000015_Node000019" class="edge">
<title>Node15&#45;&gt;Node19</title>
<g id="a_edge24_Node000015_Node000019"><a xlink:title=" ">
<path fill="none" stroke="#63b8ff" d="M973.5,-109.75C973.5,-102.8 973.5,-92.85 973.5,-84.13"/>
<polygon fill="#63b8ff" stroke="#63b8ff" points="977,-84.09 973.5,-74.09 970,-84.09 977,-84.09"/>
</a>
</g>
</g>
<!-- Node19&#45;&gt;Node16 -->
<g id="edge25_Node000019_Node000016" class="edge">
<title>Node19&#45;&gt;Node16</title>
<g id="a_edge25_Node000019_Node000016"><a xlink:title=" ">
<path fill="none" stroke="#63b8ff" d="M979.94,-54.75C985.39,-47.34 993.36,-36.5 1000.06,-27.41"/>
<polygon fill="#63b8ff" stroke="#63b8ff" points="1003.07,-29.22 1006.18,-19.09 997.43,-25.07 1003.07,-29.22"/>
</a>
</g>
</g>
<!-- Node20&#45;&gt;Node5 -->
<g id="edge32_Node000020_Node000005" class="edge">
<title>Node20&#45;&gt;Node5</title>
<g id="a_edge32_Node000020_Node000005"><a xlink:title=" ">
<path fill="none" stroke="#63b8ff" d="M718.31,-111.21C715.33,-110.79 712.38,-110.38 709.5,-110 581.95,-93.03 429.85,-76.26 363.39,-69.11"/>
<polygon fill="#63b8ff" stroke="#63b8ff" points="363.42,-65.59 353.1,-68 362.67,-72.55 363.42,-65.59"/>
</a>
</g>
</g>
<!-- Node20&#45;&gt;Node13 -->
<g id="edge29_Node000020_Node000013" class="edge">
<title>Node20&#45;&gt;Node13</title>
<g id="a_edge29_Node000020_Node000013"><a xlink:title=" ">
<path fill="none" stroke="#63b8ff" d="M782.57,-109.98C798.36,-101.61 822.72,-88.7 841.13,-78.95"/>
<polygon fill="#63b8ff" stroke="#63b8ff" points="842.94,-81.95 850.14,-74.17 839.67,-75.76 842.94,-81.95"/>
</a>
</g>
</g>
<!-- Node21 -->
<g id="Node000021" class="node">
<title>Node21</title>
<g id="a_Node000021"><a target="_parent" xlink:href="http://en.cppreference.com/w/cpp/header/array.html" xlink:title=" ">
<polygon fill="white" stroke="#666666" points="636.5,-74 594.5,-74 594.5,-55 636.5,-55 636.5,-74"/>
<text text-anchor="middle" x="615.5" y="-62" font-family="Helvetica,sans-Serif" font-size="10.00">array</text>
</a>
</g>
</g>
<!-- Node20&#45;&gt;Node21 -->
<g id="edge27_Node000020_Node000021" class="edge">
<title>Node20&#45;&gt;Node21</title>
<g id="a_edge27_Node000020_Node000021"><a xlink:title=" ">
<path fill="none" stroke="#63b8ff" d="M742.24,-109.98C716.25,-100.86 674.93,-86.36 646.58,-76.41"/>
<polygon fill="#63b8ff" stroke="#63b8ff" points="647.37,-72.98 636.77,-72.97 645.05,-79.58 647.37,-72.98"/>
</a>
</g>
</g>
<!-- Node22 -->
<g id="Node000022" class="node">
<title>Node22</title>
<g id="a_Node000022"><a target="_parent" xlink:href="http://en.cppreference.com/w/cpp/header/deque.html" xlink:title=" ">
<polygon fill="white" stroke="#666666" points="702,-74 655,-74 655,-55 702,-55 702,-74"/>
<text text-anchor="middle" x="678.5" y="-62" font-family="Helvetica,sans-Serif" font-size="10.00">deque</text>
</a>
</g>
</g>
<!-- Node20&#45;&gt;Node22 -->
<g id="edge28_Node000020_Node000022" class="edge">
<title>Node20&#45;&gt;Node22</title>
<g id="a_edge28_Node000020_Node000022"><a xlink:title=" ">
<path fill="none" stroke="#63b8ff" d="M752.36,-109.98C738.71,-101.77 717.81,-89.18 701.72,-79.49"/>
<polygon fill="#63b8ff" stroke="#63b8ff" points="703.27,-76.33 692.9,-74.17 699.66,-82.33 703.27,-76.33"/>
</a>
</g>
</g>
<!-- Node23 -->
<g id="Node000023" class="node">
<title>Node23</title>
<g id="a_Node000023"><a target="_parent" xlink:href="http://en.cppreference.com/w/cpp/header/map.html" xlink:title=" ">
<polygon fill="white" stroke="#666666" points="758.5,-74 720.5,-74 720.5,-55 758.5,-55 758.5,-74"/>
<text text-anchor="middle" x="739.5" y="-62" font-family="Helvetica,sans-Serif" font-size="10.00">map</text>
</a>
</g>
</g>
<!-- Node20&#45;&gt;Node23 -->
<g id="edge30_Node000020_Node000023" class="edge">
<title>Node20&#45;&gt;Node23</title>
<g id="a_edge30_Node000020_Node000023"><a xlink:title=" ">
<path fill="none" stroke="#63b8ff" d="M762.04,-109.75C758.38,-102.57 753.09,-92.18 748.55,-83.27"/>
<polygon fill="#63b8ff" stroke="#63b8ff" points="751.53,-81.41 743.88,-74.09 745.3,-84.59 751.53,-81.41"/>
</a>
</g>
</g>
<!-- Node24 -->
<g id="Node000024" class="node">
<title>Node24</title>
<g id="a_Node000024"><a target="_parent" xlink:href="http://en.cppreference.com/w/cpp/header/set.html" xlink:title=" ">
<polygon fill="white" stroke="#666666" points="808.5,-74 776.5,-74 776.5,-55 808.5,-55 808.5,-74"/>
<text text-anchor="middle" x="792.5" y="-62" font-family="Helvetica,sans-Serif" font-size="10.00">set</text>
</a>
</g>
</g>
<!-- Node20&#45;&gt;Node24 -->
<g id="edge31_Node000020_Node000024" class="edge">
<title>Node20&#45;&gt;Node24</title>
<g id="a_edge31_Node000020_Node000024"><a xlink:title=" ">
<path fill="none" stroke="#63b8ff" d="M770.79,-109.75C774.31,-102.57 779.41,-92.18 783.78,-83.27"/>
<polygon fill="#63b8ff" stroke="#63b8ff" points="787.02,-84.61 788.29,-74.09 780.74,-81.53 787.02,-84.61"/>
</a>
</g>
</g>
<!-- Node25&#45;&gt;Node6 -->
<g id="edge34_Node000025_Node000006" class="edge">
<title>Node25&#45;&gt;Node6</title>
<g id="a_edge34_Node000025_Node000006"><a xlink:title=" ">
<path fill="none" stroke="#63b8ff" d="M1126.72,-250.04C1099.9,-258.28 1058.97,-271.61 1024.5,-286 1007.08,-293.28 1003.43,-296.63 986.5,-305 965.09,-315.59 940.77,-327.47 922.67,-336.29"/>
<polygon fill="#63b8ff" stroke="#63b8ff" points="920.77,-333.32 913.31,-340.85 923.83,-339.62 920.77,-333.32"/>
</a>
</g>
</g>
<!-- Node26&#45;&gt;Node12 -->
<g id="edge41_Node000026_Node000012" class="edge">
<title>Node26&#45;&gt;Node12</title>
<g id="a_edge41_Node000026_Node000012"><a xlink:title=" ">
<path fill="none" stroke="#63b8ff" d="M683.94,-230.99C735.39,-220.43 823.05,-202.44 877.99,-191.16"/>
<polygon fill="#63b8ff" stroke="#63b8ff" points="878.75,-194.58 887.85,-189.14 877.35,-187.72 878.75,-194.58"/>
</a>
</g>
</g>
<!-- Node27 -->
<g id="Node000027" class="node">
<title>Node27</title>
<g id="a_Node000027"><a xlink:title=" ">
<polygon fill="#e0e0e0" stroke="#999999" points="439.5,-195 329.5,-195 329.5,-165 439.5,-165 439.5,-195"/>
<text text-anchor="start" x="337.5" y="-183" font-family="Helvetica,sans-Serif" font-size="10.00">boost/preprocessor</text>
<text text-anchor="middle" x="384.5" y="-172" font-family="Helvetica,sans-Serif" font-size="10.00">/control/if.hpp</text>
</a>
</g>
</g>
<!-- Node26&#45;&gt;Node27 -->
<g id="edge36_Node000026_Node000027" class="edge">
<title>Node26&#45;&gt;Node27</title>
<g id="a_edge36_Node000026_Node000027"><a xlink:title=" ">
<path fill="none" stroke="#63b8ff" d="M604.98,-230.99C564.32,-221.77 498.67,-206.89 449.57,-195.75"/>
<polygon fill="#63b8ff" stroke="#63b8ff" points="450.19,-192.31 439.67,-193.51 448.64,-199.13 450.19,-192.31"/>
</a>
</g>
</g>
<!-- Node28 -->
<g id="Node000028" class="node">
<title>Node28</title>
<g id="a_Node000028"><a xlink:title=" ">
<polygon fill="#e0e0e0" stroke="#999999" points="569,-195 458,-195 458,-165 569,-165 569,-195"/>
<text text-anchor="start" x="466" y="-183" font-family="Helvetica,sans-Serif" font-size="10.00">boost/preprocessor</text>
<text text-anchor="middle" x="513.5" y="-172" font-family="Helvetica,sans-Serif" font-size="10.00">/seq/for_each_i.hpp</text>
</a>
</g>
</g>
<!-- Node26&#45;&gt;Node28 -->
<g id="edge37_Node000026_Node000028" class="edge">
<title>Node26&#45;&gt;Node28</title>
<g id="a_edge37_Node000026_Node000028"><a xlink:title=" ">
<path fill="none" stroke="#63b8ff" d="M623.74,-230.99C605.56,-222.75 577.4,-209.98 554.08,-199.4"/>
<polygon fill="#63b8ff" stroke="#63b8ff" points="555.32,-196.12 544.76,-195.18 552.43,-202.5 555.32,-196.12"/>
</a>
</g>
</g>
<!-- Node29 -->
<g id="Node000029" class="node">
<title>Node29</title>
<g id="a_Node000029"><a xlink:title=" ">
<polygon fill="#e0e0e0" stroke="#999999" points="697.5,-195 587.5,-195 587.5,-165 697.5,-165 697.5,-195"/>
<text text-anchor="start" x="595.5" y="-183" font-family="Helvetica,sans-Serif" font-size="10.00">boost/preprocessor</text>
<text text-anchor="middle" x="642.5" y="-172" font-family="Helvetica,sans-Serif" font-size="10.00">/stringize.hpp</text>
</a>
</g>
</g>
<!-- Node26&#45;&gt;Node29 -->
<g id="edge38_Node000026_Node000029" class="edge">
<title>Node26&#45;&gt;Node29</title>
<g id="a_edge38_Node000026_Node000029"><a xlink:title=" ">
<path fill="none" stroke="#63b8ff" d="M642.5,-230.87C642.5,-224.11 642.5,-214.35 642.5,-205.26"/>
<polygon fill="#63b8ff" stroke="#63b8ff" points="646,-205.11 642.5,-195.11 639,-205.11 646,-205.11"/>
</a>
</g>
</g>
<!-- Node30 -->
<g id="Node000030" class="node">
<title>Node30</title>
<g id="a_Node000030"><a xlink:title=" ">
<polygon fill="#e0e0e0" stroke="#999999" points="831,-195 716,-195 716,-165 831,-165 831,-195"/>
<text text-anchor="start" x="724" y="-183" font-family="Helvetica,sans-Serif" font-size="10.00">boost/preprocessor</text>
<text text-anchor="middle" x="773.5" y="-172" font-family="Helvetica,sans-Serif" font-size="10.00">/variadic/to_seq.hpp</text>
</a>
</g>
</g>
<!-- Node26&#45;&gt;Node30 -->
<g id="edge39_Node000026_Node000030" class="edge">
<title>Node26&#45;&gt;Node30</title>
<g id="a_edge39_Node000026_Node000030"><a xlink:title=" ">
<path fill="none" stroke="#63b8ff" d="M661.55,-230.99C680.15,-222.68 709.06,-209.78 732.84,-199.16"/>
<polygon fill="#63b8ff" stroke="#63b8ff" points="734.3,-202.34 742.01,-195.06 731.45,-195.95 734.3,-202.34"/>
</a>
</g>
</g>
<!-- Node31 -->
<g id="Node000031" class="node">
<title>Node31</title>
<g id="a_Node000031"><a xlink:title=" ">
<polygon fill="#e0e0e0" stroke="#999999" points="311.5,-189.5 175.5,-189.5 175.5,-170.5 311.5,-170.5 311.5,-189.5"/>
<text text-anchor="middle" x="243.5" y="-177.5" font-family="Helvetica,sans-Serif" font-size="10.00">boost/vmd/is_empty.hpp</text>
</a>
</g>
</g>
<!-- Node26&#45;&gt;Node31 -->
<g id="edge40_Node000026_Node000031" class="edge">
<title>Node26&#45;&gt;Node31</title>
<g id="a_edge40_Node000026_Node000031"><a xlink:title=" ">
<path fill="none" stroke="#63b8ff" d="M574.53,-230.96C509.28,-222.56 407.99,-208.99 320.5,-195 313.4,-193.86 305.94,-192.6 298.58,-191.31"/>
<polygon fill="#63b8ff" stroke="#63b8ff" points="299.1,-187.85 288.64,-189.54 297.87,-194.74 299.1,-187.85"/>
</a>
</g>
</g>
</g>
</svg>

<g id="navigator" transform="translate(0 0)" fill="#404254">
  <rect fill="#f2f5e9" fill-opacity="0.5" stroke="#606060" stroke-width=".5" x="0" y="0" width="60" height="60"/>
  <use id="zoomplus" xlink:href="#zoomPlus" x="17" y="9" onmousedown="handleZoom(evt,'in')"/>
  <use id="zoomminus" xlink:href="#zoomMin" x="42" y="9" onmousedown="handleZoom(evt,'out')"/>
  <use id="reset" xlink:href="#resetDef" x="30" y="36" onmousedown="handleReset()"/>
   <use id="arrowup" xlink:href="#arrowUp" x="0" y="0" onmousedown="handlePan(0,-1)"/>
  <use id="arrowright" xlink:href="#arrowRight" x="0" y="0" onmousedown="handlePan(1,0)"/>
  <use id="arrowdown" xlink:href="#arrowDown" x="0" y="0" onmousedown="handlePan(0,1)"/>
  <use id="arrowleft" xlink:href="#arrowLeft" x="0" y="0" onmousedown="handlePan(-1,0)"/>
</g>
<svg viewBox="0 0 15 15" width="100%" height="30px" preserveAspectRatio="xMaxYMin meet">
 <g id="arrow_out" transform="scale(0.3 0.3)">
  <a xlink:href="ExportCSV_8hpp__incl_org.svg" target="_base">
   <rect id="button" ry="5" rx="5" y="6" x="6" height="38" width="38"
        fill="#f2f5e9" fill-opacity="0.5" stroke="#606060" stroke-width="1.0"/>
   <path id="arrow"
     d="M 11.500037,31.436501 C 11.940474,20.09759 22.043105,11.32322 32.158766,21.979434 L 37.068811,17.246167 C 37.068811,17.246167 37.088388,32 37.088388,32 L 22.160133,31.978069 C 22.160133,31.978069 26.997745,27.140456 26.997745,27.140456 C 18.528582,18.264221 13.291696,25.230495 11.500037,31.436501 z"
     style="fill:#404040;"/>
  </a>
 </g>
</svg>

<style type='text/css'>
<![CDATA[
[data-mouse-over-selected='false'] { opacity: 0.7; }
[data-mouse-over-selected='true']  { opacity: 1.0; }
]]>
</style>
<script type="application/ecmascript"><![CDATA[
document.addEventListener('DOMContentLoaded', (event) => {
  highlightEdges();
  highlightAdjacentNodes();
});
]]></script>
</svg>
