<?xml version="1.0" encoding="UTF-8" standalone="no"?>
<!DOCTYPE svg PUBLIC "-//W3C//DTD SVG 1.1//EN"
 "http://www.w3.org/Graphics/SVG/1.1/DTD/svg11.dtd">
<!-- Generated by graphviz version 2.43.0 (0)
 -->
<!-- Title: src/io/Export.cpp Pages: 1 -->
<svg width="696pt" height="247pt"
 viewBox="0.00 0.00 695.50 247.00" xmlns="http://www.w3.org/2000/svg" xmlns:xlink="http://www.w3.org/1999/xlink">
<g id="graph0" class="graph" transform="scale(1 1) rotate(0) translate(4 243)">
<title>src/io/Export.cpp</title>
<!-- Node1 -->
<g id="Node000001" class="node">
<title>Node1</title>
<g id="a_Node000001"><a xlink:title=" ">
<polygon fill="#999999" stroke="#666666" points="230.5,-239 132.5,-239 132.5,-220 230.5,-220 230.5,-239"/>
<text text-anchor="middle" x="181.5" y="-227" font-family="Helvetica,sans-Serif" font-size="10.00">src/io/Export.cpp</text>
</a>
</g>
</g>
<!-- Node2 -->
<g id="Node000002" class="node">
<title>Node2</title>
<g id="a_Node000002"><a xlink:href="Export_8hpp.html" target="_top" xlink:title=" ">
<polygon fill="white" stroke="#666666" points="129,-184 48,-184 48,-165 129,-165 129,-184"/>
<text text-anchor="middle" x="88.5" y="-172" font-family="Helvetica,sans-Serif" font-size="10.00">io/Export.hpp</text>
</a>
</g>
</g>
<!-- Node1&#45;&gt;Node2 -->
<g id="edge1_Node000001_Node000002" class="edge">
<title>Node1&#45;&gt;Node2</title>
<g id="a_edge1_Node000001_Node000002"><a xlink:title=" ">
<path fill="none" stroke="#63b8ff" d="M166.56,-219.98C152,-211.69 129.63,-198.94 112.57,-189.22"/>
<polygon fill="#63b8ff" stroke="#63b8ff" points="114.14,-186.08 103.71,-184.17 110.67,-192.16 114.14,-186.08"/>
</a>
</g>
</g>
<!-- Node6 -->
<g id="Node000006" class="node">
<title>Node6</title>
<g id="a_Node000006"><a target="_parent" xlink:href="http://en.cppreference.com/w/cpp/header/filesystem.html" xlink:title=" ">
<polygon fill="white" stroke="#666666" points="215.5,-184 147.5,-184 147.5,-165 215.5,-165 215.5,-184"/>
<text text-anchor="middle" x="181.5" y="-172" font-family="Helvetica,sans-Serif" font-size="10.00">filesystem</text>
</a>
</g>
</g>
<!-- Node1&#45;&gt;Node6 -->
<g id="edge5_Node000001_Node000006" class="edge">
<title>Node1&#45;&gt;Node6</title>
<g id="a_edge5_Node000001_Node000006"><a xlink:title=" ">
<path fill="none" stroke="#63b8ff" d="M181.5,-219.75C181.5,-212.8 181.5,-202.85 181.5,-194.13"/>
<polygon fill="#63b8ff" stroke="#63b8ff" points="185,-194.09 181.5,-184.09 178,-194.09 185,-194.09"/>
</a>
</g>
</g>
<!-- Node7 -->
<g id="Node000007" class="node">
<title>Node7</title>
<g id="a_Node000007"><a xlink:href="fmt_8hpp.html" target="_top" xlink:title=" ">
<polygon fill="white" stroke="#666666" points="313,-184 234,-184 234,-165 313,-165 313,-184"/>
<text text-anchor="middle" x="273.5" y="-172" font-family="Helvetica,sans-Serif" font-size="10.00">utils/fmt.hpp</text>
</a>
</g>
</g>
<!-- Node1&#45;&gt;Node7 -->
<g id="edge6_Node000001_Node000007" class="edge">
<title>Node1&#45;&gt;Node7</title>
<g id="a_edge6_Node000001_Node000007"><a xlink:title=" ">
<path fill="none" stroke="#63b8ff" d="M196.28,-219.98C210.68,-211.69 232.81,-198.94 249.69,-189.22"/>
<polygon fill="#63b8ff" stroke="#63b8ff" points="251.53,-192.19 258.45,-184.17 248.04,-186.13 251.53,-192.19"/>
</a>
</g>
</g>
<!-- Node3 -->
<g id="Node000003" class="node">
<title>Node3</title>
<g id="a_Node000003"><a target="_parent" xlink:href="http://en.cppreference.com/w/cpp/header/string.html" xlink:title=" ">
<polygon fill="white" stroke="#666666" points="187.5,-129 143.5,-129 143.5,-110 187.5,-110 187.5,-129"/>
<text text-anchor="middle" x="165.5" y="-117" font-family="Helvetica,sans-Serif" font-size="10.00">string</text>
</a>
</g>
</g>
<!-- Node2&#45;&gt;Node3 -->
<g id="edge2_Node000002_Node000003" class="edge">
<title>Node2&#45;&gt;Node3</title>
<g id="a_edge2_Node000002_Node000003"><a xlink:title=" ">
<path fill="none" stroke="#63b8ff" d="M100.87,-164.98C112.59,-156.92 130.42,-144.65 144.39,-135.03"/>
<polygon fill="#63b8ff" stroke="#63b8ff" points="146.65,-137.72 152.9,-129.17 142.68,-131.96 146.65,-137.72"/>
</a>
</g>
</g>
<!-- Node4 -->
<g id="Node000004" class="node">
<title>Node4</title>
<g id="a_Node000004"><a target="_parent" xlink:href="http://en.cppreference.com/w/cpp/header/string_view.html" xlink:title=" ">
<polygon fill="white" stroke="#666666" points="125,-129 52,-129 52,-110 125,-110 125,-129"/>
<text text-anchor="middle" x="88.5" y="-117" font-family="Helvetica,sans-Serif" font-size="10.00">string_view</text>
</a>
</g>
</g>
<!-- Node2&#45;&gt;Node4 -->
<g id="edge3_Node000002_Node000004" class="edge">
<title>Node2&#45;&gt;Node4</title>
<g id="a_edge3_Node000002_Node000004"><a xlink:title=" ">
<path fill="none" stroke="#63b8ff" d="M88.5,-164.75C88.5,-157.8 88.5,-147.85 88.5,-139.13"/>
<polygon fill="#63b8ff" stroke="#63b8ff" points="92,-139.09 88.5,-129.09 85,-139.09 92,-139.09"/>
</a>
</g>
</g>
<!-- Node5 -->
<g id="Node000005" class="node">
<title>Node5</title>
<g id="a_Node000005"><a target="_parent" xlink:href="http://en.cppreference.com/w/cpp/header/vector.html" xlink:title=" ">
<polygon fill="white" stroke="#666666" points="47,-74 0,-74 0,-55 47,-55 47,-74"/>
<text text-anchor="middle" x="23.5" y="-62" font-family="Helvetica,sans-Serif" font-size="10.00">vector</text>
</a>
</g>
</g>
<!-- Node2&#45;&gt;Node5 -->
<g id="edge4_Node000002_Node000005" class="edge">
<title>Node2&#45;&gt;Node5</title>
<g id="a_edge4_Node000002_Node000005"><a xlink:title=" ">
<path fill="none" stroke="#63b8ff" d="M76.65,-164.9C66.23,-156.75 51.39,-143.62 42.5,-129 34.09,-115.17 29.19,-97.38 26.48,-84.14"/>
<polygon fill="#63b8ff" stroke="#63b8ff" points="29.92,-83.5 24.68,-74.29 23.03,-84.75 29.92,-83.5"/>
</a>
</g>
</g>
<!-- Node7&#45;&gt;Node3 -->
<g id="edge7_Node000007_Node000003" class="edge">
<title>Node7&#45;&gt;Node3</title>
<g id="a_edge7_Node000007_Node000003"><a xlink:title=" ">
<path fill="none" stroke="#63b8ff" d="M256.15,-164.98C238.93,-156.54 212.3,-143.47 192.35,-133.68"/>
<polygon fill="#63b8ff" stroke="#63b8ff" points="193.69,-130.43 183.17,-129.17 190.6,-136.72 193.69,-130.43"/>
</a>
</g>
</g>
<!-- Node7&#45;&gt;Node4 -->
<g id="edge8_Node000007_Node000004" class="edge">
<title>Node7&#45;&gt;Node4</title>
<g id="a_edge8_Node000007_Node000004"><a xlink:title=" ">
<path fill="none" stroke="#63b8ff" d="M243.78,-164.98C212.45,-156.01 162.93,-141.82 128.26,-131.89"/>
<polygon fill="#63b8ff" stroke="#63b8ff" points="129.03,-128.47 118.46,-129.08 127.11,-135.2 129.03,-128.47"/>
</a>
</g>
</g>
<!-- Node8 -->
<g id="Node000008" class="node">
<title>Node8</title>
<g id="a_Node000008"><a xlink:title=" ">
<polygon fill="#e0e0e0" stroke="#999999" points="376,-74 297,-74 297,-55 376,-55 376,-74"/>
<text text-anchor="middle" x="336.5" y="-62" font-family="Helvetica,sans-Serif" font-size="10.00">fmt/format.h</text>
</a>
</g>
</g>
<!-- Node7&#45;&gt;Node8 -->
<g id="edge9_Node000007_Node000008" class="edge">
<title>Node7&#45;&gt;Node8</title>
<g id="a_edge9_Node000007_Node000008"><a xlink:title=" ">
<path fill="none" stroke="#63b8ff" d="M282.02,-164.91C290.15,-156.37 302.32,-142.61 310.5,-129 319.13,-114.64 326.12,-96.9 330.68,-83.82"/>
<polygon fill="#63b8ff" stroke="#63b8ff" points="334.07,-84.7 333.91,-74.11 327.43,-82.49 334.07,-84.7"/>
</a>
</g>
</g>
<!-- Node9 -->
<g id="Node000009" class="node">
<title>Node9</title>
<g id="a_Node000009"><a xlink:title=" ">
<polygon fill="#e0e0e0" stroke="#999999" points="443.5,-129 357.5,-129 357.5,-110 443.5,-110 443.5,-129"/>
<text text-anchor="middle" x="400.5" y="-117" font-family="Helvetica,sans-Serif" font-size="10.00">fmt/ostream.h</text>
</a>
</g>
</g>
<!-- Node7&#45;&gt;Node9 -->
<g id="edge10_Node000007_Node000009" class="edge">
<title>Node7&#45;&gt;Node9</title>
<g id="a_edge10_Node000007_Node000009"><a xlink:title=" ">
<path fill="none" stroke="#63b8ff" d="M293.9,-164.98C314.52,-156.38 346.61,-142.99 370.19,-133.15"/>
<polygon fill="#63b8ff" stroke="#63b8ff" points="371.84,-136.25 379.72,-129.17 369.15,-129.79 371.84,-136.25"/>
</a>
</g>
</g>
<!-- Node10 -->
<g id="Node000010" class="node">
<title>Node10</title>
<g id="a_Node000010"><a xlink:href="fmtEigen_8hpp.html" target="_top" xlink:title=" ">
<polygon fill="white" stroke="#666666" points="568.5,-129 462.5,-129 462.5,-110 568.5,-110 568.5,-129"/>
<text text-anchor="middle" x="515.5" y="-117" font-family="Helvetica,sans-Serif" font-size="10.00">utils/fmtEigen.hpp</text>
</a>
</g>
</g>
<!-- Node7&#45;&gt;Node10 -->
<g id="edge11_Node000007_Node000010" class="edge">
<title>Node7&#45;&gt;Node10</title>
<g id="a_edge11_Node000007_Node000010"><a xlink:title=" ">
<path fill="none" stroke="#63b8ff" d="M312.38,-164.98C354.24,-155.82 420.93,-141.21 466.38,-131.26"/>
<polygon fill="#63b8ff" stroke="#63b8ff" points="467.29,-134.64 476.31,-129.08 465.8,-127.8 467.29,-134.64"/>
</a>
</g>
</g>
<!-- Node15 -->
<g id="Node000015" class="node">
<title>Node15</title>
<g id="a_Node000015"><a xlink:href="fmtSTL_8hpp.html" target="_top" xlink:title=" ">
<polygon fill="white" stroke="#666666" points="301.5,-129 205.5,-129 205.5,-110 301.5,-110 301.5,-129"/>
<text text-anchor="middle" x="253.5" y="-117" font-family="Helvetica,sans-Serif" font-size="10.00">utils/fmtSTL.hpp</text>
</a>
</g>
</g>
<!-- Node7&#45;&gt;Node15 -->
<g id="edge18_Node000007_Node000015" class="edge">
<title>Node7&#45;&gt;Node15</title>
<g id="a_edge18_Node000007_Node000015"><a xlink:title=" ">
<path fill="none" stroke="#63b8ff" d="M270.2,-164.75C267.52,-157.65 263.65,-147.4 260.31,-138.56"/>
<polygon fill="#63b8ff" stroke="#63b8ff" points="263.55,-137.21 256.74,-129.09 257,-139.68 263.55,-137.21"/>
</a>
</g>
</g>
<!-- Node10&#45;&gt;Node8 -->
<g id="edge14_Node000010_Node000008" class="edge">
<title>Node10&#45;&gt;Node8</title>
<g id="a_edge14_Node000010_Node000008"><a xlink:title=" ">
<path fill="none" stroke="#63b8ff" d="M486.74,-109.98C456.56,-101.05 408.93,-86.94 375.4,-77.02"/>
<polygon fill="#63b8ff" stroke="#63b8ff" points="376.07,-73.57 365.48,-74.08 374.08,-80.28 376.07,-73.57"/>
</a>
</g>
</g>
<!-- Node11 -->
<g id="Node000011" class="node">
<title>Node11</title>
<g id="a_Node000011"><a xlink:title=" ">
<polygon fill="#e0e0e0" stroke="#999999" points="591,-19 522,-19 522,0 591,0 591,-19"/>
<text text-anchor="middle" x="556.5" y="-7" font-family="Helvetica,sans-Serif" font-size="10.00">Eigen/Core</text>
</a>
</g>
</g>
<!-- Node10&#45;&gt;Node11 -->
<g id="edge12_Node000010_Node000011" class="edge">
<title>Node10&#45;&gt;Node11</title>
<g id="a_edge12_Node000010_Node000011"><a xlink:title=" ">
<path fill="none" stroke="#63b8ff" d="M535.7,-109.91C549.97,-102.64 568.01,-90.71 576.5,-74 584.09,-59.08 576.69,-40.71 568.83,-27.58"/>
<polygon fill="#63b8ff" stroke="#63b8ff" points="571.65,-25.5 563.23,-19.06 565.8,-29.34 571.65,-25.5"/>
</a>
</g>
</g>
<!-- Node12 -->
<g id="Node000012" class="node">
<title>Node12</title>
<g id="a_Node000012"><a target="_parent" xlink:href="http://en.cppreference.com/w/cpp/header/algorithm.html" xlink:title=" ">
<polygon fill="white" stroke="#666666" points="687.5,-74 623.5,-74 623.5,-55 687.5,-55 687.5,-74"/>
<text text-anchor="middle" x="655.5" y="-62" font-family="Helvetica,sans-Serif" font-size="10.00">algorithm</text>
</a>
</g>
</g>
<!-- Node10&#45;&gt;Node12 -->
<g id="edge13_Node000010_Node000012" class="edge">
<title>Node10&#45;&gt;Node12</title>
<g id="a_edge13_Node000010_Node000012"><a xlink:title=" ">
<path fill="none" stroke="#63b8ff" d="M537.99,-109.98C561.02,-101.27 597.04,-87.63 623.13,-77.75"/>
<polygon fill="#63b8ff" stroke="#63b8ff" points="624.48,-80.98 632.6,-74.17 622.01,-74.44 624.48,-80.98"/>
</a>
</g>
</g>
<!-- Node13 -->
<g id="Node000013" class="node">
<title>Node13</title>
<g id="a_Node000013"><a target="_parent" xlink:href="http://en.cppreference.com/w/cpp/header/sstream.html" xlink:title=" ">
<polygon fill="white" stroke="#666666" points="449.5,-74 393.5,-74 393.5,-55 449.5,-55 449.5,-74"/>
<text text-anchor="middle" x="421.5" y="-62" font-family="Helvetica,sans-Serif" font-size="10.00">sstream</text>
</a>
</g>
</g>
<!-- Node10&#45;&gt;Node13 -->
<g id="edge15_Node000010_Node000013" class="edge">
<title>Node10&#45;&gt;Node13</title>
<g id="a_edge15_Node000010_Node000013"><a xlink:title=" ">
<path fill="none" stroke="#63b8ff" d="M500.4,-109.98C485.68,-101.69 463.08,-88.94 445.83,-79.22"/>
<polygon fill="#63b8ff" stroke="#63b8ff" points="447.31,-76.03 436.88,-74.17 443.87,-82.13 447.31,-76.03"/>
</a>
</g>
</g>
<!-- Node14 -->
<g id="Node000014" class="node">
<title>Node14</title>
<g id="a_Node000014"><a xlink:href="EigenIO_8hpp.html" target="_top" xlink:title=" ">
<polygon fill="white" stroke="#666666" points="567,-74 468,-74 468,-55 567,-55 567,-74"/>
<text text-anchor="middle" x="517.5" y="-62" font-family="Helvetica,sans-Serif" font-size="10.00">utils/EigenIO.hpp</text>
</a>
</g>
</g>
<!-- Node10&#45;&gt;Node14 -->
<g id="edge16_Node000010_Node000014" class="edge">
<title>Node10&#45;&gt;Node14</title>
<g id="a_edge16_Node000010_Node000014"><a xlink:title=" ">
<path fill="none" stroke="#63b8ff" d="M515.83,-109.75C516.09,-102.8 516.47,-92.85 516.8,-84.13"/>
<polygon fill="#63b8ff" stroke="#63b8ff" points="520.3,-84.21 517.18,-74.09 513.3,-83.95 520.3,-84.21"/>
</a>
</g>
</g>
<!-- Node14&#45;&gt;Node11 -->
<g id="edge17_Node000014_Node000011" class="edge">
<title>Node14&#45;&gt;Node11</title>
<g id="a_edge17_Node000014_Node000011"><a xlink:title=" ">
<path fill="none" stroke="#63b8ff" d="M523.94,-54.75C529.39,-47.34 537.36,-36.5 544.06,-27.41"/>
<polygon fill="#63b8ff" stroke="#63b8ff" points="547.07,-29.22 550.18,-19.09 541.43,-25.07 547.07,-29.22"/>
</a>
</g>
</g>
<!-- Node15&#45;&gt;Node5 -->
<g id="edge24_Node000015_Node000005" class="edge">
<title>Node15&#45;&gt;Node5</title>
<g id="a_edge24_Node000015_Node000005"><a xlink:title=" ">
<path fill="none" stroke="#63b8ff" d="M213.57,-110C175.62,-101.82 116.71,-88.84 57.18,-74.35"/>
<polygon fill="#63b8ff" stroke="#63b8ff" points="57.78,-70.89 47.24,-71.91 56.12,-77.69 57.78,-70.89"/>
</a>
</g>
</g>
<!-- Node15&#45;&gt;Node8 -->
<g id="edge21_Node000015_Node000008" class="edge">
<title>Node15&#45;&gt;Node8</title>
<g id="a_edge21_Node000015_Node000008"><a xlink:title=" ">
<path fill="none" stroke="#63b8ff" d="M266.84,-109.98C279.59,-101.84 299.05,-89.41 314.17,-79.76"/>
<polygon fill="#63b8ff" stroke="#63b8ff" points="316.38,-82.5 322.92,-74.17 312.61,-76.6 316.38,-82.5"/>
</a>
</g>
</g>
<!-- Node16 -->
<g id="Node000016" class="node">
<title>Node16</title>
<g id="a_Node000016"><a target="_parent" xlink:href="http://en.cppreference.com/w/cpp/header/array.html" xlink:title=" ">
<polygon fill="white" stroke="#666666" points="278.5,-74 236.5,-74 236.5,-55 278.5,-55 278.5,-74"/>
<text text-anchor="middle" x="257.5" y="-62" font-family="Helvetica,sans-Serif" font-size="10.00">array</text>
</a>
</g>
</g>
<!-- Node15&#45;&gt;Node16 -->
<g id="edge19_Node000015_Node000016" class="edge">
<title>Node15&#45;&gt;Node16</title>
<g id="a_edge19_Node000015_Node000016"><a xlink:title=" ">
<path fill="none" stroke="#63b8ff" d="M254.16,-109.75C254.68,-102.8 255.44,-92.85 256.09,-84.13"/>
<polygon fill="#63b8ff" stroke="#63b8ff" points="259.59,-84.32 256.85,-74.09 252.61,-83.8 259.59,-84.32"/>
</a>
</g>
</g>
<!-- Node17 -->
<g id="Node000017" class="node">
<title>Node17</title>
<g id="a_Node000017"><a target="_parent" xlink:href="http://en.cppreference.com/w/cpp/header/deque.html" xlink:title=" ">
<polygon fill="white" stroke="#666666" points="112,-74 65,-74 65,-55 112,-55 112,-74"/>
<text text-anchor="middle" x="88.5" y="-62" font-family="Helvetica,sans-Serif" font-size="10.00">deque</text>
</a>
</g>
</g>
<!-- Node15&#45;&gt;Node17 -->
<g id="edge20_Node000015_Node000017" class="edge">
<title>Node15&#45;&gt;Node17</title>
<g id="a_edge20_Node000015_Node000017"><a xlink:title=" ">
<path fill="none" stroke="#63b8ff" d="M226.99,-109.98C198.43,-100.81 152.91,-86.19 121.91,-76.23"/>
<polygon fill="#63b8ff" stroke="#63b8ff" points="122.6,-72.78 112,-73.05 120.46,-79.44 122.6,-72.78"/>
</a>
</g>
</g>
<!-- Node18 -->
<g id="Node000018" class="node">
<title>Node18</title>
<g id="a_Node000018"><a target="_parent" xlink:href="http://en.cppreference.com/w/cpp/header/map.html" xlink:title=" ">
<polygon fill="white" stroke="#666666" points="168.5,-74 130.5,-74 130.5,-55 168.5,-55 168.5,-74"/>
<text text-anchor="middle" x="149.5" y="-62" font-family="Helvetica,sans-Serif" font-size="10.00">map</text>
</a>
</g>
</g>
<!-- Node15&#45;&gt;Node18 -->
<g id="edge22_Node000015_Node000018" class="edge">
<title>Node15&#45;&gt;Node18</title>
<g id="a_edge22_Node000015_Node000018"><a xlink:title=" ">
<path fill="none" stroke="#63b8ff" d="M236.79,-109.98C220.29,-101.57 194.8,-88.59 175.62,-78.81"/>
<polygon fill="#63b8ff" stroke="#63b8ff" points="177.01,-75.59 166.51,-74.17 173.83,-81.83 177.01,-75.59"/>
</a>
</g>
</g>
<!-- Node19 -->
<g id="Node000019" class="node">
<title>Node19</title>
<g id="a_Node000019"><a target="_parent" xlink:href="http://en.cppreference.com/w/cpp/header/set.html" xlink:title=" ">
<polygon fill="white" stroke="#666666" points="218.5,-74 186.5,-74 186.5,-55 218.5,-55 218.5,-74"/>
<text text-anchor="middle" x="202.5" y="-62" font-family="Helvetica,sans-Serif" font-size="10.00">set</text>
</a>
</g>
</g>
<!-- Node15&#45;&gt;Node19 -->
<g id="edge23_Node000015_Node000019" class="edge">
<title>Node15&#45;&gt;Node19</title>
<g id="a_edge23_Node000015_Node000019"><a xlink:title=" ">
<path fill="none" stroke="#63b8ff" d="M245.08,-109.75C237.73,-102.11 226.87,-90.82 217.96,-81.56"/>
<polygon fill="#63b8ff" stroke="#63b8ff" points="220.22,-78.87 210.76,-74.09 215.18,-83.72 220.22,-78.87"/>
</a>
</g>
</g>
</g>
</svg>
