<?xml version="1.0" encoding="UTF-8" standalone="no"?>
<!DOCTYPE svg PUBLIC "-//W3C//DTD SVG 1.1//EN"
 "http://www.w3.org/Graphics/SVG/1.1/DTD/svg11.dtd">
<!-- Generated by graphviz version 2.43.0 (0)
 -->
<!-- Title: src/logging/LogConfiguration.hpp Pages: 1 -->
<!--zoomable 225 -->

<svg id="main" version="1.1" xmlns="http://www.w3.org/2000/svg" xmlns:xlink="http://www.w3.org/1999/xlink" xml:space="preserve" onload="init(evt)">
<style type="text/css"><![CDATA[
.node, .edge {opacity: 0.7;}
.node.selected, .edge.selected {opacity: 1;}
.edge:hover path { stroke: red; }
.edge:hover polygon { stroke: red; fill: red; }
]]></style>

<defs>
  <circle id="rim" cx="0" cy="0" r="7"/>
  <circle id="rim2" cx="0" cy="0" r="3.5"/>
  <g id="zoomPlus">
    <use xlink:href="#rim" fill="#404040"><set attributeName="fill" to="#808080" begin="zoomplus.mouseover" end="zoomplus.mouseout"/></use>
    <path d="M-4,0h8M0,-4v8" fill="none" stroke="white" stroke-width="1.5" pointer-events="none"/>
  </g>
  <g id="zoomMin">
    <use xlink:href="#rim" fill="#404040"><set attributeName="fill" to="#808080" begin="zoomminus.mouseover" end="zoomminus.mouseout"/></use>
    <path d="M-4,0h8" fill="none" stroke="white" stroke-width="1.5" pointer-events="none"/>
  </g>
  <g id="arrowUp" transform="translate(30 24)">
    <use xlink:href="#rim"/>
    <path pointer-events="none" fill="none" stroke="white" stroke-width="1.5" d="M0,-3.0v7 M-2.5,-0.5L0,-3.0L2.5,-0.5"/>
  </g>
  <g id="arrowRight" transform="rotate(90) translate(36 -43)">
    <use xlink:href="#rim"/>
    <path pointer-events="none" fill="none" stroke="white" stroke-width="1.5" d="M0,-3.0v7 M-2.5,-0.5L0,-3.0L2.5,-0.5"/>
  </g>
  <g id="arrowDown" transform="rotate(180) translate(-30 -48)">
    <use xlink:href="#rim"/>
    <path pointer-events="none" fill="none" stroke="white" stroke-width="1.5" d="M0,-3.0v7 M-2.5,-0.5L0,-3.0L2.5,-0.5"/>
  </g>
  <g id="arrowLeft" transform="rotate(270) translate(-36 17)">
    <use xlink:href="#rim"/>
    <path pointer-events="none" fill="none" stroke="white" stroke-width="1.5" d="M0,-3.0v7 M-2.5,-0.5L0,-3.0L2.5,-0.5"/>
  </g>
  <g id="resetDef">
    <use xlink:href="#rim2" fill="#404040"><set attributeName="fill" to="#808080" begin="reset.mouseover" end="reset.mouseout"/></use>
  </g>
</defs>
<script type="application/ecmascript">
var viewWidth = 1124;
var viewHeight = 225;
var sectionId = 'dynsection-1';
</script>
<script type="application/ecmascript" xlink:href="svg.min.js"/>
<svg id="graph" class="graph">
<g id="viewport">
<title>src/logging/LogConfiguration.hpp</title>
<!-- Node1 -->
<g id="Node000001" class="node">
<title>Node1</title>
<g id="a_Node000001"><a xlink:title=" ">
<polygon fill="#999999" stroke="#666666" points="633.5,-217 457.5,-217 457.5,-198 633.5,-198 633.5,-217"/>
<text text-anchor="middle" x="545.5" y="-205" font-family="Helvetica,sans-Serif" font-size="10.00">src/logging/LogConfiguration.hpp</text>
</a>
</g>
</g>
<!-- Node2 -->
<g id="Node000002" class="node">
<title>Node2</title>
<g id="a_Node000002"><a xlink:href="LogConfiguration_8cpp.html" target="_top" xlink:title=" ">
<polygon fill="white" stroke="#666666" points="194.5,-156.5 18.5,-156.5 18.5,-137.5 194.5,-137.5 194.5,-156.5"/>
<text text-anchor="middle" x="106.5" y="-144.5" font-family="Helvetica,sans-Serif" font-size="10.00">src/logging/LogConfiguration.cpp</text>
</a>
</g>
</g>
<!-- Node1&#45;&gt;Node2 -->
<g id="edge1_Node000001_Node000002" class="edge">
<title>Node1&#45;&gt;Node2</title>
<g id="a_edge1_Node000001_Node000002"><a xlink:title=" ">
<path fill="none" stroke="#63b8ff" d="M467.45,-196.73C397.9,-187.94 293.36,-174.52 202.5,-162 189.99,-160.28 176.56,-158.36 163.84,-156.51"/>
<polygon fill="#63b8ff" stroke="#63b8ff" points="467.09,-200.21 477.45,-197.99 467.97,-193.27 467.09,-200.21"/>
</a>
</g>
</g>
<!-- Node3 -->
<g id="Node000003" class="node">
<title>Node3</title>
<g id="a_Node000003"><a xlink:href="Logger_8cpp.html" target="_top" xlink:title=" ">
<polygon fill="white" stroke="#666666" points="337,-156.5 212,-156.5 212,-137.5 337,-137.5 337,-156.5"/>
<text text-anchor="middle" x="274.5" y="-144.5" font-family="Helvetica,sans-Serif" font-size="10.00">src/logging/Logger.cpp</text>
</a>
</g>
</g>
<!-- Node1&#45;&gt;Node3 -->
<g id="edge2_Node000001_Node000003" class="edge">
<title>Node1&#45;&gt;Node3</title>
<g id="a_edge2_Node000001_Node000003"><a xlink:title=" ">
<path fill="none" stroke="#63b8ff" d="M496.03,-195.82C443.69,-184.52 362.14,-166.92 313.95,-156.52"/>
<polygon fill="#63b8ff" stroke="#63b8ff" points="495.58,-199.3 506.09,-197.99 497.06,-192.46 495.58,-199.3"/>
</a>
</g>
</g>
<!-- Node4 -->
<g id="Node000004" class="node">
<title>Node4</title>
<g id="a_Node000004"><a xlink:href="config_2LogConfiguration_8hpp.html" target="_top" xlink:title=" ">
<polygon fill="white" stroke="#666666" points="478,-162 355,-162 355,-132 478,-132 478,-162"/>
<text text-anchor="start" x="363" y="-150" font-family="Helvetica,sans-Serif" font-size="10.00">src/logging/config</text>
<text text-anchor="middle" x="416.5" y="-139" font-family="Helvetica,sans-Serif" font-size="10.00">/LogConfiguration.hpp</text>
</a>
</g>
</g>
<!-- Node1&#45;&gt;Node4 -->
<g id="edge3_Node000001_Node000004" class="edge">
<title>Node1&#45;&gt;Node4</title>
<g id="a_edge3_Node000001_Node000004"><a xlink:title=" ">
<path fill="none" stroke="#63b8ff" d="M517.59,-193.84C497.03,-184.52 469.07,-171.84 447.76,-162.18"/>
<polygon fill="#63b8ff" stroke="#63b8ff" points="516.19,-197.05 526.74,-197.99 519.08,-190.68 516.19,-197.05"/>
</a>
</g>
</g>
<!-- Node9 -->
<g id="Node000009" class="node">
<title>Node9</title>
<g id="a_Node000009"><a xlink:href="ParticipantImpl_8cpp.html" target="_top" xlink:title=" ">
<polygon fill="white" stroke="#666666" points="743,-30 594,-30 594,0 743,0 743,-30"/>
<text text-anchor="start" x="602" y="-18" font-family="Helvetica,sans-Serif" font-size="10.00">src/precice/impl/Participant</text>
<text text-anchor="middle" x="668.5" y="-7" font-family="Helvetica,sans-Serif" font-size="10.00">Impl.cpp</text>
</a>
</g>
</g>
<!-- Node1&#45;&gt;Node9 -->
<g id="edge12_Node000001_Node000009" class="edge">
<title>Node1&#45;&gt;Node9</title>
<g id="a_edge12_Node000001_Node000009"><a xlink:title=" ">
<path fill="none" stroke="#63b8ff" d="M534.43,-188.86C526.2,-173.33 517.77,-150.4 526.5,-132 549.62,-83.25 604.38,-48.2 638.74,-30.08"/>
<polygon fill="#63b8ff" stroke="#63b8ff" points="531.6,-190.96 539.63,-197.87 537.66,-187.46 531.6,-190.96"/>
</a>
</g>
</g>
<!-- Node12 -->
<g id="Node000012" class="node">
<title>Node12</title>
<g id="a_Node000012"><a xlink:href="M2N_8cpp.html" target="_top" xlink:title=" ">
<polygon fill="white" stroke="#666666" points="636,-156.5 535,-156.5 535,-137.5 636,-137.5 636,-156.5"/>
<text text-anchor="middle" x="585.5" y="-144.5" font-family="Helvetica,sans-Serif" font-size="10.00">src/m2n/M2N.cpp</text>
</a>
</g>
</g>
<!-- Node1&#45;&gt;Node12 -->
<g id="edge11_Node000001_Node000012" class="edge">
<title>Node1&#45;&gt;Node12</title>
<g id="a_edge11_Node000001_Node000012"><a xlink:title=" ">
<path fill="none" stroke="#63b8ff" d="M557.26,-189.3C564.59,-178.58 573.72,-165.23 579.57,-156.67"/>
<polygon fill="#63b8ff" stroke="#63b8ff" points="554.16,-187.64 551.4,-197.87 559.94,-191.59 554.16,-187.64"/>
</a>
</g>
</g>
<!-- Node13 -->
<g id="Node000013" class="node">
<title>Node13</title>
<g id="a_Node000013"><a xlink:href="GlobalFixtures_8cpp.html" target="_top" xlink:title=" ">
<polygon fill="white" stroke="#666666" points="815,-156.5 654,-156.5 654,-137.5 815,-137.5 815,-156.5"/>
<text text-anchor="middle" x="734.5" y="-144.5" font-family="Helvetica,sans-Serif" font-size="10.00">src/testing/GlobalFixtures.cpp</text>
</a>
</g>
</g>
<!-- Node1&#45;&gt;Node13 -->
<g id="edge13_Node000001_Node000013" class="edge">
<title>Node1&#45;&gt;Node13</title>
<g id="a_edge13_Node000001_Node000013"><a xlink:title=" ">
<path fill="none" stroke="#63b8ff" d="M582.77,-194.96C619.33,-183.65 674.22,-166.66 706.98,-156.52"/>
<polygon fill="#63b8ff" stroke="#63b8ff" points="581.5,-191.69 572.98,-197.99 583.57,-198.38 581.5,-191.69"/>
</a>
</g>
</g>
<!-- Node14 -->
<g id="Node000014" class="node">
<title>Node14</title>
<g id="a_Node000014"><a xlink:href="TestContext_8cpp.html" target="_top" xlink:title=" ">
<polygon fill="white" stroke="#666666" points="982,-156.5 833,-156.5 833,-137.5 982,-137.5 982,-156.5"/>
<text text-anchor="middle" x="907.5" y="-144.5" font-family="Helvetica,sans-Serif" font-size="10.00">src/testing/TestContext.cpp</text>
</a>
</g>
</g>
<!-- Node1&#45;&gt;Node14 -->
<g id="edge14_Node000001_Node000014" class="edge">
<title>Node1&#45;&gt;Node14</title>
<g id="a_edge14_Node000001_Node000014"><a xlink:title=" ">
<path fill="none" stroke="#63b8ff" d="M610.02,-196.38C666.59,-187.46 751.02,-174.06 824.5,-162 835.17,-160.25 846.61,-158.34 857.48,-156.51"/>
<polygon fill="#63b8ff" stroke="#63b8ff" points="609.13,-192.97 599.79,-197.99 610.21,-199.89 609.13,-192.97"/>
</a>
</g>
</g>
<!-- Node15 -->
<g id="Node000015" class="node">
<title>Node15</title>
<g id="a_Node000015"><a xlink:href="testing_2main_8cpp.html" target="_top" xlink:title=" ">
<polygon fill="white" stroke="#666666" points="1115.5,-156.5 999.5,-156.5 999.5,-137.5 1115.5,-137.5 1115.5,-156.5"/>
<text text-anchor="middle" x="1057.5" y="-144.5" font-family="Helvetica,sans-Serif" font-size="10.00">src/testing/main.cpp</text>
</a>
</g>
</g>
<!-- Node1&#45;&gt;Node15 -->
<g id="edge15_Node000001_Node000015" class="edge">
<title>Node1&#45;&gt;Node15</title>
<g id="a_edge15_Node000001_Node000015"><a xlink:title=" ">
<path fill="none" stroke="#63b8ff" d="M643.86,-199.8C734.49,-192.89 872.55,-180.49 991.5,-162 1000.99,-160.52 1011.17,-158.56 1020.63,-156.57"/>
<polygon fill="#63b8ff" stroke="#63b8ff" points="643.58,-196.31 633.87,-200.55 644.11,-203.29 643.58,-196.31"/>
</a>
</g>
</g>
<!-- Node5 -->
<g id="Node000005" class="node">
<title>Node5</title>
<g id="a_Node000005"><a xlink:href="config_2LogConfiguration_8cpp.html" target="_top" xlink:title=" ">
<polygon fill="white" stroke="#666666" points="345.5,-96 223.5,-96 223.5,-66 345.5,-66 345.5,-96"/>
<text text-anchor="start" x="231.5" y="-84" font-family="Helvetica,sans-Serif" font-size="10.00">src/logging/config</text>
<text text-anchor="middle" x="284.5" y="-73" font-family="Helvetica,sans-Serif" font-size="10.00">/LogConfiguration.cpp</text>
</a>
</g>
</g>
<!-- Node4&#45;&gt;Node5 -->
<g id="edge4_Node000004_Node000005" class="edge">
<title>Node4&#45;&gt;Node5</title>
<g id="a_edge4_Node000004_Node000005"><a xlink:title=" ">
<path fill="none" stroke="#63b8ff" d="M378.37,-127.51C357.66,-117.47 332.47,-105.26 313.4,-96.01"/>
<polygon fill="#63b8ff" stroke="#63b8ff" points="377.01,-130.74 387.53,-131.95 380.06,-124.44 377.01,-130.74"/>
</a>
</g>
</g>
<!-- Node6 -->
<g id="Node000006" class="node">
<title>Node6</title>
<g id="a_Node000006"><a xlink:href="Configuration_8hpp.html" target="_top" xlink:title=" ">
<polygon fill="white" stroke="#666666" points="469.5,-96 363.5,-96 363.5,-66 469.5,-66 469.5,-96"/>
<text text-anchor="start" x="371.5" y="-84" font-family="Helvetica,sans-Serif" font-size="10.00">src/precice/config</text>
<text text-anchor="middle" x="416.5" y="-73" font-family="Helvetica,sans-Serif" font-size="10.00">/Configuration.hpp</text>
</a>
</g>
</g>
<!-- Node4&#45;&gt;Node6 -->
<g id="edge5_Node000004_Node000006" class="edge">
<title>Node4&#45;&gt;Node6</title>
<g id="a_edge5_Node000004_Node000006"><a xlink:title=" ">
<path fill="none" stroke="#63b8ff" d="M416.5,-121.54C416.5,-112.96 416.5,-103.61 416.5,-96.16"/>
<polygon fill="#63b8ff" stroke="#63b8ff" points="413,-121.8 416.5,-131.8 420,-121.8 413,-121.8"/>
</a>
</g>
</g>
<!-- Node7 -->
<g id="Node000007" class="node">
<title>Node7</title>
<g id="a_Node000007"><a xlink:href="Tooling_8cpp.html" target="_top" xlink:title=" ">
<polygon fill="white" stroke="#666666" points="127,-24.5 0,-24.5 0,-5.5 127,-5.5 127,-24.5"/>
<text text-anchor="middle" x="63.5" y="-12.5" font-family="Helvetica,sans-Serif" font-size="10.00">src/precice/Tooling.cpp</text>
</a>
</g>
</g>
<!-- Node6&#45;&gt;Node7 -->
<g id="edge6_Node000006_Node000007" class="edge">
<title>Node6&#45;&gt;Node7</title>
<g id="a_edge6_Node000006_Node000007"><a xlink:title=" ">
<path fill="none" stroke="#63b8ff" d="M353.46,-65.87C255.99,-47.13 229.46,-46.85 135.5,-30 126.1,-28.31 116.03,-26.41 106.48,-24.57"/>
<polygon fill="#63b8ff" stroke="#63b8ff" points="352.96,-69.34 363.44,-67.8 354.29,-62.46 352.96,-69.34"/>
</a>
</g>
</g>
<!-- Node8 -->
<g id="Node000008" class="node">
<title>Node8</title>
<g id="a_Node000008"><a xlink:href="Configuration_8cpp.html" target="_top" xlink:title=" ">
<polygon fill="white" stroke="#666666" points="250,-30 145,-30 145,0 250,0 250,-30"/>
<text text-anchor="start" x="153" y="-18" font-family="Helvetica,sans-Serif" font-size="10.00">src/precice/config</text>
<text text-anchor="middle" x="197.5" y="-7" font-family="Helvetica,sans-Serif" font-size="10.00">/Configuration.cpp</text>
</a>
</g>
</g>
<!-- Node6&#45;&gt;Node8 -->
<g id="edge7_Node000006_Node000008" class="edge">
<title>Node6&#45;&gt;Node8</title>
<g id="a_edge7_Node000006_Node000008"><a xlink:title=" ">
<path fill="none" stroke="#63b8ff" d="M358.74,-63.12C323.43,-52.8 278.8,-39.76 245.45,-30.01"/>
<polygon fill="#63b8ff" stroke="#63b8ff" points="357.86,-66.51 368.44,-65.95 359.82,-59.79 357.86,-66.51"/>
</a>
</g>
</g>
<!-- Node6&#45;&gt;Node9 -->
<g id="edge8_Node000006_Node000009" class="edge">
<title>Node6&#45;&gt;Node9</title>
<g id="a_edge8_Node000006_Node000009"><a xlink:title=" ">
<path fill="none" stroke="#63b8ff" d="M479.54,-63.99C520.66,-53.55 573.81,-40.05 613.26,-30.03"/>
<polygon fill="#63b8ff" stroke="#63b8ff" points="478.47,-60.65 469.63,-66.51 480.19,-67.44 478.47,-60.65"/>
</a>
</g>
</g>
<!-- Node10 -->
<g id="Node000010" class="node">
<title>Node10</title>
<g id="a_Node000010"><a xlink:href="ParallelTests_8cpp.html" target="_top" xlink:title=" ">
<polygon fill="white" stroke="#666666" points="403,-30 268,-30 268,0 403,0 403,-30"/>
<text text-anchor="start" x="276" y="-18" font-family="Helvetica,sans-Serif" font-size="10.00">src/precice/tests/Parallel</text>
<text text-anchor="middle" x="335.5" y="-7" font-family="Helvetica,sans-Serif" font-size="10.00">Tests.cpp</text>
</a>
</g>
</g>
<!-- Node6&#45;&gt;Node10 -->
<g id="edge9_Node000006_Node000010" class="edge">
<title>Node6&#45;&gt;Node10</title>
<g id="a_edge9_Node000006_Node000010"><a xlink:title=" ">
<path fill="none" stroke="#63b8ff" d="M390.53,-59.48C378.42,-49.91 364.32,-38.77 353.43,-30.16"/>
<polygon fill="#63b8ff" stroke="#63b8ff" points="388.51,-62.34 398.52,-65.8 392.85,-56.85 388.51,-62.34"/>
</a>
</g>
</g>
<!-- Node11 -->
<g id="Node000011" class="node">
<title>Node11</title>
<g id="a_Node000011"><a xlink:href="PrinterTest_8cpp.html" target="_top" xlink:title=" ">
<polygon fill="white" stroke="#666666" points="576,-24.5 421,-24.5 421,-5.5 576,-5.5 576,-24.5"/>
<text text-anchor="middle" x="498.5" y="-12.5" font-family="Helvetica,sans-Serif" font-size="10.00">src/xml/tests/PrinterTest.cpp</text>
</a>
</g>
</g>
<!-- Node6&#45;&gt;Node11 -->
<g id="edge10_Node000006_Node000011" class="edge">
<title>Node6&#45;&gt;Node11</title>
<g id="a_edge10_Node000006_Node000011"><a xlink:title=" ">
<path fill="none" stroke="#63b8ff" d="M442.66,-59.58C457.66,-47.87 475.73,-33.77 487.17,-24.84"/>
<polygon fill="#63b8ff" stroke="#63b8ff" points="440.43,-56.88 434.7,-65.8 444.74,-62.4 440.43,-56.88"/>
</a>
</g>
</g>
</g>
</svg>

<g id="navigator" transform="translate(0 0)" fill="#404254">
  <rect fill="#f2f5e9" fill-opacity="0.5" stroke="#606060" stroke-width=".5" x="0" y="0" width="60" height="60"/>
  <use id="zoomplus" xlink:href="#zoomPlus" x="17" y="9" onmousedown="handleZoom(evt,'in')"/>
  <use id="zoomminus" xlink:href="#zoomMin" x="42" y="9" onmousedown="handleZoom(evt,'out')"/>
  <use id="reset" xlink:href="#resetDef" x="30" y="36" onmousedown="handleReset()"/>
   <use id="arrowup" xlink:href="#arrowUp" x="0" y="0" onmousedown="handlePan(0,-1)"/>
  <use id="arrowright" xlink:href="#arrowRight" x="0" y="0" onmousedown="handlePan(1,0)"/>
  <use id="arrowdown" xlink:href="#arrowDown" x="0" y="0" onmousedown="handlePan(0,1)"/>
  <use id="arrowleft" xlink:href="#arrowLeft" x="0" y="0" onmousedown="handlePan(-1,0)"/>
</g>
<svg viewBox="0 0 15 15" width="100%" height="30px" preserveAspectRatio="xMaxYMin meet">
 <g id="arrow_out" transform="scale(0.3 0.3)">
  <a xlink:href="LogConfiguration_8hpp__dep__incl_org.svg" target="_base">
   <rect id="button" ry="5" rx="5" y="6" x="6" height="38" width="38"
        fill="#f2f5e9" fill-opacity="0.5" stroke="#606060" stroke-width="1.0"/>
   <path id="arrow"
     d="M 11.500037,31.436501 C 11.940474,20.09759 22.043105,11.32322 32.158766,21.979434 L 37.068811,17.246167 C 37.068811,17.246167 37.088388,32 37.088388,32 L 22.160133,31.978069 C 22.160133,31.978069 26.997745,27.140456 26.997745,27.140456 C 18.528582,18.264221 13.291696,25.230495 11.500037,31.436501 z"
     style="fill:#404040;"/>
  </a>
 </g>
</svg>

<style type='text/css'>
<![CDATA[
[data-mouse-over-selected='false'] { opacity: 0.7; }
[data-mouse-over-selected='true']  { opacity: 1.0; }
]]>
</style>
<script type="application/ecmascript"><![CDATA[
document.addEventListener('DOMContentLoaded', (event) => {
  highlightEdges();
  highlightAdjacentNodes();
});
]]></script>
</svg>
