<?xml version="1.0" encoding="UTF-8" standalone="no"?>
<!DOCTYPE svg PUBLIC "-//W3C//DTD SVG 1.1//EN"
 "http://www.w3.org/Graphics/SVG/1.1/DTD/svg11.dtd">
<!-- Generated by graphviz version 2.43.0 (0)
 -->
<!-- Title: precice::com::receiveBoundingBox Pages: 1 -->
<svg width="760pt" height="206pt"
 viewBox="0.00 0.00 760.00 206.00" xmlns="http://www.w3.org/2000/svg" xmlns:xlink="http://www.w3.org/1999/xlink">
<g id="graph0" class="graph" transform="scale(1 1) rotate(0) translate(4 202)">
<title>precice::com::receiveBoundingBox</title>
<!-- Node1 -->
<g id="Node000001" class="node">
<title>Node1</title>
<g id="a_Node000001"><a xlink:title=" ">
<polygon fill="#999999" stroke="#666666" points="185,-59 0,-59 0,-40 185,-40 185,-59"/>
<text text-anchor="middle" x="92.5" y="-47" font-family="Helvetica,sans-Serif" font-size="10.00">precice::com::receiveBoundingBox</text>
</a>
</g>
</g>
<!-- Node2 -->
<g id="Node000002" class="node">
<title>Node2</title>
<g id="a_Node000002"><a xlink:href="classprecice_1_1com_1_1serialize_1_1SerializedBoundingBox.html#a026d987110999128cd5b2ddaca7433d5" target="_top" xlink:title="receives a SerializedBoundingBox and calls assertValid before returning">
<polygon fill="white" stroke="#666666" points="356,-100 221,-100 221,-59 356,-59 356,-100"/>
<text text-anchor="start" x="229" y="-88" font-family="Helvetica,sans-Serif" font-size="10.00">precice::com::serialize</text>
<text text-anchor="start" x="229" y="-77" font-family="Helvetica,sans-Serif" font-size="10.00">::SerializedBoundingBox</text>
<text text-anchor="middle" x="288.5" y="-66" font-family="Helvetica,sans-Serif" font-size="10.00">::receive</text>
</a>
</g>
</g>
<!-- Node1&#45;&gt;Node2 -->
<g id="edge1_Node000001_Node000002" class="edge">
<title>Node1&#45;&gt;Node2</title>
<g id="a_edge1_Node000001_Node000002"><a xlink:title=" ">
<path fill="none" stroke="#63b8ff" d="M155.15,-59.03C172.92,-61.78 192.53,-64.81 211.09,-67.68"/>
<polygon fill="#63b8ff" stroke="#63b8ff" points="210.56,-71.14 220.98,-69.21 211.63,-64.23 210.56,-71.14"/>
</a>
</g>
</g>
<!-- Node10 -->
<g id="Node000010" class="node">
<title>Node10</title>
<g id="a_Node000010"><a xlink:href="classprecice_1_1com_1_1serialize_1_1SerializedBoundingBox.html#a36c9f1018f15ae4e08417ea84c0cd4e6" target="_top" xlink:title="Builds and returns the BoundingBox represented by the serialized state.">
<polygon fill="white" stroke="#666666" points="356,-41 221,-41 221,0 356,0 356,-41"/>
<text text-anchor="start" x="229" y="-29" font-family="Helvetica,sans-Serif" font-size="10.00">precice::com::serialize</text>
<text text-anchor="start" x="229" y="-18" font-family="Helvetica,sans-Serif" font-size="10.00">::SerializedBoundingBox</text>
<text text-anchor="middle" x="288.5" y="-7" font-family="Helvetica,sans-Serif" font-size="10.00">::toBoundingBox</text>
</a>
</g>
</g>
<!-- Node1&#45;&gt;Node10 -->
<g id="edge9_Node000001_Node000010" class="edge">
<title>Node1&#45;&gt;Node10</title>
<g id="a_edge9_Node000001_Node000010"><a xlink:title=" ">
<path fill="none" stroke="#63b8ff" d="M157.29,-39.96C174.28,-37.42 192.81,-34.65 210.43,-32.02"/>
<polygon fill="#63b8ff" stroke="#63b8ff" points="211.3,-35.43 220.67,-30.49 210.26,-28.51 211.3,-35.43"/>
</a>
</g>
</g>
<!-- Node3 -->
<g id="Node000003" class="node">
<title>Node3</title>
<g id="a_Node000003"><a xlink:href="classprecice_1_1com_1_1serialize_1_1SerializedBoundingBox.html#aa277540ee9df0f86e08a9567b2a7d1bc" target="_top" xlink:title="asserts the content for correctness">
<polygon fill="white" stroke="#666666" points="540.5,-159 405.5,-159 405.5,-118 540.5,-118 540.5,-159"/>
<text text-anchor="start" x="413.5" y="-147" font-family="Helvetica,sans-Serif" font-size="10.00">precice::com::serialize</text>
<text text-anchor="start" x="413.5" y="-136" font-family="Helvetica,sans-Serif" font-size="10.00">::SerializedBoundingBox</text>
<text text-anchor="middle" x="473" y="-125" font-family="Helvetica,sans-Serif" font-size="10.00">::assertValid</text>
</a>
</g>
</g>
<!-- Node2&#45;&gt;Node3 -->
<g id="edge2_Node000002_Node000003" class="edge">
<title>Node2&#45;&gt;Node3</title>
<g id="a_edge2_Node000002_Node000003"><a xlink:title=" ">
<path fill="none" stroke="#63b8ff" d="M353.07,-100.05C367.76,-104.8 383.5,-109.89 398.56,-114.76"/>
<polygon fill="#63b8ff" stroke="#63b8ff" points="397.75,-118.18 408.35,-117.92 399.91,-111.51 397.75,-118.18"/>
</a>
</g>
</g>
<!-- Node7 -->
<g id="Node000007" class="node">
<title>Node7</title>
<g id="a_Node000007"><a xlink:href="classprecice_1_1com_1_1Communication.html#a2f98f94294a6100d0cd9e21c49fc3967" target="_top" xlink:title="Receives a range of ints as a vector&lt;int&gt;">
<polygon fill="white" stroke="#666666" points="554,-86.5 392,-86.5 392,-56.5 554,-56.5 554,-86.5"/>
<text text-anchor="start" x="400" y="-74.5" font-family="Helvetica,sans-Serif" font-size="10.00">precice::com::Communication</text>
<text text-anchor="middle" x="473" y="-63.5" font-family="Helvetica,sans-Serif" font-size="10.00">::receiveRange</text>
</a>
</g>
</g>
<!-- Node2&#45;&gt;Node7 -->
<g id="edge6_Node000002_Node000007" class="edge">
<title>Node2&#45;&gt;Node7</title>
<g id="a_edge6_Node000002_Node000007"><a xlink:title=" ">
<path fill="none" stroke="#63b8ff" d="M356.16,-76.58C364.5,-76.21 373.14,-75.83 381.77,-75.46"/>
<polygon fill="#63b8ff" stroke="#63b8ff" points="382.04,-78.95 391.88,-75.01 381.73,-71.95 382.04,-78.95"/>
</a>
</g>
</g>
<!-- Node4 -->
<g id="Node000004" class="node">
<title>Node4</title>
<g id="a_Node000004"><a target="_parent" xlink:href="http://en.cppreference.com/w/cpp/container/vector/empty.html#" xlink:title=" ">
<polygon fill="white" stroke="#666666" points="724,-198 618,-198 618,-179 724,-179 724,-198"/>
<text text-anchor="middle" x="671" y="-186" font-family="Helvetica,sans-Serif" font-size="10.00">std::vector::empty</text>
</a>
</g>
</g>
<!-- Node3&#45;&gt;Node4 -->
<g id="edge3_Node000003_Node000004" class="edge">
<title>Node3&#45;&gt;Node4</title>
<g id="a_edge3_Node000003_Node000004"><a xlink:title=" ">
<path fill="none" stroke="#63b8ff" d="M540.72,-157.49C556.81,-161.91 573.99,-166.49 590,-170.5 598.43,-172.61 607.39,-174.74 616.14,-176.75"/>
<polygon fill="#63b8ff" stroke="#63b8ff" points="615.37,-180.17 625.9,-178.97 616.92,-173.34 615.37,-180.17"/>
</a>
</g>
</g>
<!-- Node5 -->
<g id="Node000005" class="node">
<title>Node5</title>
<g id="a_Node000005"><a target="_parent" xlink:href="http://en.cppreference.com/w/cpp/container/vector/front.html#" xlink:title=" ">
<polygon fill="white" stroke="#666666" points="720,-161 622,-161 622,-142 720,-142 720,-161"/>
<text text-anchor="middle" x="671" y="-149" font-family="Helvetica,sans-Serif" font-size="10.00">std::vector::front</text>
</a>
</g>
</g>
<!-- Node3&#45;&gt;Node5 -->
<g id="edge4_Node000003_Node000005" class="edge">
<title>Node3&#45;&gt;Node5</title>
<g id="a_edge4_Node000003_Node000005"><a xlink:title=" ">
<path fill="none" stroke="#63b8ff" d="M540.63,-142.92C563.73,-144.45 589.42,-146.16 611.79,-147.64"/>
<polygon fill="#63b8ff" stroke="#63b8ff" points="611.6,-151.13 621.81,-148.3 612.06,-144.15 611.6,-151.13"/>
</a>
</g>
</g>
<!-- Node6 -->
<g id="Node000006" class="node">
<title>Node6</title>
<g id="a_Node000006"><a target="_parent" xlink:href="http://en.cppreference.com/w/cpp/container/vector/size.html#" xlink:title=" ">
<polygon fill="white" stroke="#666666" points="718,-124 624,-124 624,-105 718,-105 718,-124"/>
<text text-anchor="middle" x="671" y="-112" font-family="Helvetica,sans-Serif" font-size="10.00">std::vector::size</text>
</a>
</g>
</g>
<!-- Node3&#45;&gt;Node6 -->
<g id="edge5_Node000003_Node000006" class="edge">
<title>Node3&#45;&gt;Node6</title>
<g id="a_edge5_Node000003_Node000006"><a xlink:title=" ">
<path fill="none" stroke="#63b8ff" d="M540.63,-130.34C564.4,-127.43 590.92,-124.18 613.74,-121.39"/>
<polygon fill="#63b8ff" stroke="#63b8ff" points="614.43,-124.83 623.93,-120.14 613.58,-117.88 614.43,-124.83"/>
</a>
</g>
</g>
<!-- Node8 -->
<g id="Node000008" class="node">
<title>Node8</title>
<g id="a_Node000008"><a xlink:href="classprecice_1_1com_1_1Communication.html#a1dba8319f7bd90aecb30efba944f3bc9" target="_top" xlink:title="Receives a std::string from process with given rank.">
<polygon fill="white" stroke="#666666" points="752,-86.5 590,-86.5 590,-56.5 752,-56.5 752,-86.5"/>
<text text-anchor="start" x="598" y="-74.5" font-family="Helvetica,sans-Serif" font-size="10.00">precice::com::Communication</text>
<text text-anchor="middle" x="671" y="-63.5" font-family="Helvetica,sans-Serif" font-size="10.00">::receive</text>
</a>
</g>
</g>
<!-- Node7&#45;&gt;Node8 -->
<g id="edge7_Node000007_Node000008" class="edge">
<title>Node7&#45;&gt;Node8</title>
<g id="a_edge7_Node000007_Node000008"><a xlink:title=" ">
<path fill="none" stroke="#63b8ff" d="M554,-71.5C562.52,-71.5 571.23,-71.5 579.86,-71.5"/>
<polygon fill="#63b8ff" stroke="#63b8ff" points="579.93,-75 589.93,-71.5 579.93,-68 579.93,-75"/>
</a>
</g>
</g>
<!-- Node9 -->
<g id="Node000009" class="node">
<title>Node9</title>
<g id="a_Node000009"><a target="_parent" xlink:href="http://en.cppreference.com/w/cpp/container/vector/resize.html#" xlink:title=" ">
<polygon fill="white" stroke="#666666" points="723,-38 619,-38 619,-19 723,-19 723,-38"/>
<text text-anchor="middle" x="671" y="-26" font-family="Helvetica,sans-Serif" font-size="10.00">std::vector::resize</text>
</a>
</g>
</g>
<!-- Node7&#45;&gt;Node9 -->
<g id="edge8_Node000007_Node000009" class="edge">
<title>Node7&#45;&gt;Node9</title>
<g id="a_edge8_Node000007_Node000009"><a xlink:title=" ">
<path fill="none" stroke="#63b8ff" d="M542.55,-56.46C566.88,-51.12 593.88,-45.2 616.74,-40.18"/>
<polygon fill="#63b8ff" stroke="#63b8ff" points="617.58,-43.58 626.6,-38.02 616.08,-36.75 617.58,-43.58"/>
</a>
</g>
</g>
<!-- Node11 -->
<g id="Node000011" class="node">
<title>Node11</title>
<g id="a_Node000011"><a target="_parent" xlink:href="http://en.cppreference.com/w/cpp/container/vector/at.html#" xlink:title=" ">
<polygon fill="white" stroke="#666666" points="515,-30 431,-30 431,-11 515,-11 515,-30"/>
<text text-anchor="middle" x="473" y="-18" font-family="Helvetica,sans-Serif" font-size="10.00">std::vector::at</text>
</a>
</g>
</g>
<!-- Node10&#45;&gt;Node11 -->
<g id="edge10_Node000010_Node000011" class="edge">
<title>Node10&#45;&gt;Node11</title>
<g id="a_edge10_Node000010_Node000011"><a xlink:title=" ">
<path fill="none" stroke="#63b8ff" d="M356.16,-20.5C377.49,-20.5 400.76,-20.5 420.81,-20.5"/>
<polygon fill="#63b8ff" stroke="#63b8ff" points="420.97,-24 430.97,-20.5 420.97,-17 420.97,-24"/>
</a>
</g>
</g>
</g>
</svg>
