<?xml version="1.0" encoding="UTF-8" standalone="no"?>
<!DOCTYPE svg PUBLIC "-//W3C//DTD SVG 1.1//EN"
 "http://www.w3.org/Graphics/SVG/1.1/DTD/svg11.dtd">
<!-- Generated by graphviz version 2.43.0 (0)
 -->
<!-- Title: TestDeprecatedAction.vertexCallback Pages: 1 -->
<svg width="486pt" height="186pt"
 viewBox="0.00 0.00 486.00 186.00" xmlns="http://www.w3.org/2000/svg" xmlns:xlink="http://www.w3.org/1999/xlink">
<g id="graph0" class="graph" transform="scale(1 1) rotate(0) translate(4 182)">
<title>TestDeprecatedAction.vertexCallback</title>
<polygon fill="white" stroke="transparent" points="-4,4 -4,-182 482,-182 482,4 -4,4"/>
<!-- Node1 -->
<g id="node1" class="node">
<title>Node1</title>
<g id="a_node1"><a xlink:title=" ">
<polygon fill="#bfbfbf" stroke="black" points="0,-73.5 0,-103.5 158,-103.5 158,-73.5 0,-73.5"/>
<text text-anchor="start" x="8" y="-91.5" font-family="Helvetica,sans-Serif" font-size="10.00">TestDeprecatedAction.vertex</text>
<text text-anchor="middle" x="79" y="-80.5" font-family="Helvetica,sans-Serif" font-size="10.00">Callback</text>
</a>
</g>
</g>
<!-- Node2 -->
<g id="node2" class="node">
<title>Node2</title>
<g id="a_node2"><a xlink:href="namespaceprecice_1_1m2n.html#ab808ce4e50980cc9ea6f0aeb928f30b3" target="_top" xlink:title=" ">
<polygon fill="white" stroke="black" points="194,-79 194,-98 302,-98 302,-79 194,-79"/>
<text text-anchor="middle" x="248" y="-86" font-family="Helvetica,sans-Serif" font-size="10.00">precice::m2n::print</text>
</a>
</g>
</g>
<!-- Node1&#45;&gt;Node2 -->
<g id="edge1" class="edge">
<title>Node1&#45;&gt;Node2</title>
<path fill="none" stroke="midnightblue" d="M158.12,-88.5C166.69,-88.5 175.34,-88.5 183.7,-88.5"/>
<polygon fill="midnightblue" stroke="midnightblue" points="183.72,-92 193.72,-88.5 183.72,-85 183.72,-92"/>
</g>
<!-- Node3 -->
<g id="node3" class="node">
<title>Node3</title>
<g id="a_node3"><a xlink:href="classprecice_1_1utils_1_1IntraComm.html#a557db722e7bfe5d237d0e7ed51851a44" target="_top" xlink:title="Returns an iterable range over salve ranks [1, _size)">
<polygon fill="white" stroke="black" points="338,-147.5 338,-177.5 478,-177.5 478,-147.5 338,-147.5"/>
<text text-anchor="start" x="346" y="-165.5" font-family="Helvetica,sans-Serif" font-size="10.00">precice::utils::IntraComm</text>
<text text-anchor="middle" x="408" y="-154.5" font-family="Helvetica,sans-Serif" font-size="10.00">::allSecondaryRanks</text>
</a>
</g>
</g>
<!-- Node2&#45;&gt;Node3 -->
<g id="edge2" class="edge">
<title>Node2&#45;&gt;Node3</title>
<path fill="none" stroke="midnightblue" d="M264.01,-98.02C281.36,-108.77 311.02,-126.34 338,-138.5 342.08,-140.34 346.34,-142.12 350.66,-143.84"/>
<polygon fill="midnightblue" stroke="midnightblue" points="349.57,-147.17 360.16,-147.47 352.07,-140.63 349.57,-147.17"/>
</g>
<!-- Node4 -->
<g id="node4" class="node">
<title>Node4</title>
<g id="a_node4"><a xlink:href="classprecice_1_1utils_1_1IntraComm.html#a7daafddc884c6dc168e2add48733cde4" target="_top" xlink:title="Intra&#45;participant communication.">
<polygon fill="white" stroke="black" points="338,-98.5 338,-128.5 478,-128.5 478,-98.5 338,-98.5"/>
<text text-anchor="start" x="346" y="-116.5" font-family="Helvetica,sans-Serif" font-size="10.00">precice::utils::IntraComm</text>
<text text-anchor="middle" x="408" y="-105.5" font-family="Helvetica,sans-Serif" font-size="10.00">::getCommunication</text>
</a>
</g>
</g>
<!-- Node2&#45;&gt;Node4 -->
<g id="edge3" class="edge">
<title>Node2&#45;&gt;Node4</title>
<path fill="none" stroke="midnightblue" d="M302.05,-96.89C310.39,-98.21 319.16,-99.6 327.93,-100.99"/>
<polygon fill="midnightblue" stroke="midnightblue" points="327.39,-104.45 337.81,-102.55 328.48,-97.53 327.39,-104.45"/>
</g>
<!-- Node5 -->
<g id="node5" class="node">
<title>Node5</title>
<g id="a_node5"><a xlink:href="classprecice_1_1utils_1_1IntraComm.html#a2c2aa5e2fd6cc26797b7fdee0b0b25ac" target="_top" xlink:title="Current rank.">
<polygon fill="white" stroke="black" points="338,-49.5 338,-79.5 478,-79.5 478,-49.5 338,-49.5"/>
<text text-anchor="start" x="346" y="-67.5" font-family="Helvetica,sans-Serif" font-size="10.00">precice::utils::IntraComm</text>
<text text-anchor="middle" x="408" y="-56.5" font-family="Helvetica,sans-Serif" font-size="10.00">::getRank</text>
</a>
</g>
</g>
<!-- Node2&#45;&gt;Node5 -->
<g id="edge4" class="edge">
<title>Node2&#45;&gt;Node5</title>
<path fill="none" stroke="midnightblue" d="M302.05,-80.44C310.3,-79.19 318.97,-77.87 327.65,-76.55"/>
<polygon fill="midnightblue" stroke="midnightblue" points="328.45,-79.97 337.81,-75.01 327.4,-73.05 328.45,-79.97"/>
</g>
<!-- Node6 -->
<g id="node6" class="node">
<title>Node6</title>
<g id="a_node6"><a xlink:href="classprecice_1_1utils_1_1IntraComm.html#abde303b11e46851ae65dca65ef06daad" target="_top" xlink:title="True if this process is running a secondary rank.">
<polygon fill="white" stroke="black" points="338,-0.5 338,-30.5 478,-30.5 478,-0.5 338,-0.5"/>
<text text-anchor="start" x="346" y="-18.5" font-family="Helvetica,sans-Serif" font-size="10.00">precice::utils::IntraComm</text>
<text text-anchor="middle" x="408" y="-7.5" font-family="Helvetica,sans-Serif" font-size="10.00">::isSecondary</text>
</a>
</g>
</g>
<!-- Node2&#45;&gt;Node6 -->
<g id="edge5" class="edge">
<title>Node2&#45;&gt;Node6</title>
<path fill="none" stroke="midnightblue" d="M265.04,-78.92C282.59,-68.66 311.72,-52.27 338,-40.5 342.75,-38.37 347.74,-36.29 352.77,-34.29"/>
<polygon fill="midnightblue" stroke="midnightblue" points="354.38,-37.42 362.44,-30.55 351.85,-30.89 354.38,-37.42"/>
</g>
</g>
</svg>
