<?xml version="1.0" encoding="UTF-8" standalone="no"?>
<!DOCTYPE svg PUBLIC "-//W3C//DTD SVG 1.1//EN"
 "http://www.w3.org/Graphics/SVG/1.1/DTD/svg11.dtd">
<!-- Generated by graphviz version 2.43.0 (0)
 -->
<!-- Title: precice::com::sendBoundingBox Pages: 1 -->
<svg width="777pt" height="263pt"
 viewBox="0.00 0.00 777.00 263.00" xmlns="http://www.w3.org/2000/svg" xmlns:xlink="http://www.w3.org/1999/xlink">
<g id="graph0" class="graph" transform="scale(1 1) rotate(0) translate(4 259)">
<title>precice::com::sendBoundingBox</title>
<!-- Node1 -->
<g id="Node000001" class="node">
<title>Node1</title>
<g id="a_Node000001"><a xlink:title=" ">
<polygon fill="#999999" stroke="#666666" points="173,-147.5 0,-147.5 0,-128.5 173,-128.5 173,-147.5"/>
<text text-anchor="middle" x="86.5" y="-135.5" font-family="Helvetica,sans-Serif" font-size="10.00">precice::com::sendBoundingBox</text>
</a>
</g>
</g>
<!-- Node2 -->
<g id="Node000002" class="node">
<title>Node2</title>
<g id="a_Node000002"><a xlink:href="classprecice_1_1com_1_1serialize_1_1SerializedBoundingBox.html#a74021b702b540db41355b46f0347b99e" target="_top" xlink:title=" ">
<polygon fill="white" stroke="#666666" points="373,-207 209,-207 209,-177 373,-177 373,-207"/>
<text text-anchor="start" x="217" y="-195" font-family="Helvetica,sans-Serif" font-size="10.00">precice::com::serialize</text>
<text text-anchor="middle" x="291" y="-184" font-family="Helvetica,sans-Serif" font-size="10.00">::SerializedBoundingBox::send</text>
</a>
</g>
</g>
<!-- Node1&#45;&gt;Node2 -->
<g id="edge1_Node000001_Node000002" class="edge">
<title>Node1&#45;&gt;Node2</title>
<g id="a_edge1_Node000001_Node000002"><a xlink:title=" ">
<path fill="none" stroke="#63b8ff" d="M123.24,-147.53C151.04,-154.94 190.38,-165.43 223.87,-174.37"/>
<polygon fill="#63b8ff" stroke="#63b8ff" points="223.04,-177.77 233.6,-176.96 224.84,-171 223.04,-177.77"/>
</a>
</g>
</g>
<!-- Node6 -->
<g id="Node000006" class="node">
<title>Node6</title>
<g id="a_Node000006"><a xlink:href="classprecice_1_1com_1_1serialize_1_1SerializedBoundingBox.html#a0b301cdb22b0d8decc55eea3b1a2a7e8" target="_top" xlink:title=" ">
<polygon fill="white" stroke="#666666" points="358.5,-131.5 223.5,-131.5 223.5,-90.5 358.5,-90.5 358.5,-131.5"/>
<text text-anchor="start" x="231.5" y="-119.5" font-family="Helvetica,sans-Serif" font-size="10.00">precice::com::serialize</text>
<text text-anchor="start" x="231.5" y="-108.5" font-family="Helvetica,sans-Serif" font-size="10.00">::SerializedBoundingBox</text>
<text text-anchor="middle" x="291" y="-97.5" font-family="Helvetica,sans-Serif" font-size="10.00">::serialize</text>
</a>
</g>
</g>
<!-- Node1&#45;&gt;Node6 -->
<g id="edge5_Node000001_Node000006" class="edge">
<title>Node1&#45;&gt;Node6</title>
<g id="a_edge5_Node000001_Node000006"><a xlink:title=" ">
<path fill="none" stroke="#63b8ff" d="M158.89,-128.48C176.41,-126.15 195.23,-123.64 213,-121.27"/>
<polygon fill="#63b8ff" stroke="#63b8ff" points="213.87,-124.68 223.32,-119.89 212.94,-117.74 213.87,-124.68"/>
</a>
</g>
</g>
<!-- Node3 -->
<g id="Node000003" class="node">
<title>Node3</title>
<g id="a_Node000003"><a xlink:href="classprecice_1_1com_1_1Communication.html#a8caa1032e130719ef235553313b59a3b" target="_top" xlink:title="Sends a range of doubles (size + content)">
<polygon fill="white" stroke="#666666" points="571,-234 409,-234 409,-204 571,-204 571,-234"/>
<text text-anchor="start" x="417" y="-222" font-family="Helvetica,sans-Serif" font-size="10.00">precice::com::Communication</text>
<text text-anchor="middle" x="490" y="-211" font-family="Helvetica,sans-Serif" font-size="10.00">::sendRange</text>
</a>
</g>
</g>
<!-- Node2&#45;&gt;Node3 -->
<g id="edge2_Node000002_Node000003" class="edge">
<title>Node2&#45;&gt;Node3</title>
<g id="a_edge2_Node000002_Node000003"><a xlink:title=" ">
<path fill="none" stroke="#63b8ff" d="M373.26,-203.14C381.72,-204.3 390.35,-205.48 398.9,-206.65"/>
<polygon fill="#63b8ff" stroke="#63b8ff" points="398.49,-210.13 408.87,-208.02 399.44,-203.19 398.49,-210.13"/>
</a>
</g>
</g>
<!-- Node4 -->
<g id="Node000004" class="node">
<title>Node4</title>
<g id="a_Node000004"><a xlink:href="classprecice_1_1com_1_1Communication.html#ac95d9a27ce66edc756c96176d2e9d916" target="_top" xlink:title="Sends a std::string to process with given rank.">
<polygon fill="white" stroke="#666666" points="769,-255 607,-255 607,-225 769,-225 769,-255"/>
<text text-anchor="start" x="615" y="-243" font-family="Helvetica,sans-Serif" font-size="10.00">precice::com::Communication</text>
<text text-anchor="middle" x="688" y="-232" font-family="Helvetica,sans-Serif" font-size="10.00">::send</text>
</a>
</g>
</g>
<!-- Node3&#45;&gt;Node4 -->
<g id="edge3_Node000003_Node000004" class="edge">
<title>Node3&#45;&gt;Node4</title>
<g id="a_edge3_Node000003_Node000004"><a xlink:title=" ">
<path fill="none" stroke="#63b8ff" d="M571,-227.57C579.52,-228.48 588.23,-229.42 596.86,-230.34"/>
<polygon fill="#63b8ff" stroke="#63b8ff" points="596.62,-233.84 606.93,-231.42 597.36,-226.88 596.62,-233.84"/>
</a>
</g>
</g>
<!-- Node5 -->
<g id="Node000005" class="node">
<title>Node5</title>
<g id="a_Node000005"><a xlink:href="classprecice_1_1span.html#ae91f5ed50b6cbf0d15382b8e3c2a9a04" target="_top" xlink:title=" ">
<polygon fill="white" stroke="#666666" points="741.5,-206.5 634.5,-206.5 634.5,-187.5 741.5,-187.5 741.5,-206.5"/>
<text text-anchor="middle" x="688" y="-194.5" font-family="Helvetica,sans-Serif" font-size="10.00">precice::span::size</text>
</a>
</g>
</g>
<!-- Node3&#45;&gt;Node5 -->
<g id="edge4_Node000003_Node000005" class="edge">
<title>Node3&#45;&gt;Node5</title>
<g id="a_edge4_Node000003_Node000005"><a xlink:title=" ">
<path fill="none" stroke="#63b8ff" d="M571,-210.02C588.71,-208.03 607.23,-205.95 624.14,-204.06"/>
<polygon fill="#63b8ff" stroke="#63b8ff" points="624.89,-207.49 634.44,-202.9 624.11,-200.54 624.89,-207.49"/>
</a>
</g>
</g>
<!-- Node7 -->
<g id="Node000007" class="node">
<title>Node7</title>
<g id="a_Node000007"><a xlink:href="classprecice_1_1com_1_1serialize_1_1SerializedBoundingBox.html#aa277540ee9df0f86e08a9567b2a7d1bc" target="_top" xlink:title="asserts the content for correctness">
<polygon fill="white" stroke="#666666" points="557.5,-185.5 422.5,-185.5 422.5,-144.5 557.5,-144.5 557.5,-185.5"/>
<text text-anchor="start" x="430.5" y="-173.5" font-family="Helvetica,sans-Serif" font-size="10.00">precice::com::serialize</text>
<text text-anchor="start" x="430.5" y="-162.5" font-family="Helvetica,sans-Serif" font-size="10.00">::SerializedBoundingBox</text>
<text text-anchor="middle" x="490" y="-151.5" font-family="Helvetica,sans-Serif" font-size="10.00">::assertValid</text>
</a>
</g>
</g>
<!-- Node6&#45;&gt;Node7 -->
<g id="edge6_Node000006_Node000007" class="edge">
<title>Node6&#45;&gt;Node7</title>
<g id="a_edge6_Node000006_Node000007"><a xlink:title=" ">
<path fill="none" stroke="#63b8ff" d="M358.7,-129.28C376.02,-134.03 394.83,-139.19 412.61,-144.06"/>
<polygon fill="#63b8ff" stroke="#63b8ff" points="411.8,-147.47 422.37,-146.74 413.65,-140.72 411.8,-147.47"/>
</a>
</g>
</g>
<!-- Node8 -->
<g id="Node000008" class="node">
<title>Node8</title>
<g id="a_Node000008"><a xlink:href="classprecice_1_1mesh_1_1BoundingBox.html#ad500309dcbe440703ef71dfcc7a2a394" target="_top" xlink:title="Getter dimension of the bounding box.">
<polygon fill="white" stroke="#666666" points="567.5,-126 412.5,-126 412.5,-96 567.5,-96 567.5,-126"/>
<text text-anchor="start" x="420.5" y="-114" font-family="Helvetica,sans-Serif" font-size="10.00">precice::mesh::BoundingBox</text>
<text text-anchor="middle" x="490" y="-103" font-family="Helvetica,sans-Serif" font-size="10.00">::getDimension</text>
</a>
</g>
</g>
<!-- Node6&#45;&gt;Node8 -->
<g id="edge7_Node000006_Node000008" class="edge">
<title>Node6&#45;&gt;Node8</title>
<g id="a_edge7_Node000006_Node000008"><a xlink:title=" ">
<path fill="none" stroke="#63b8ff" d="M358.7,-111C372.66,-111 387.58,-111 402.16,-111"/>
<polygon fill="#63b8ff" stroke="#63b8ff" points="402.18,-114.5 412.18,-111 402.18,-107.5 402.18,-114.5"/>
</a>
</g>
</g>
<!-- Node9 -->
<g id="Node000009" class="node">
<title>Node9</title>
<g id="a_Node000009"><a xlink:href="classprecice_1_1mesh_1_1BoundingBox.html#a14cd5dbd1775876bf5795845699557d8" target="_top" xlink:title="the max corner of the bounding box">
<polygon fill="white" stroke="#666666" points="567.5,-78 412.5,-78 412.5,-48 567.5,-48 567.5,-78"/>
<text text-anchor="start" x="420.5" y="-66" font-family="Helvetica,sans-Serif" font-size="10.00">precice::mesh::BoundingBox</text>
<text text-anchor="middle" x="490" y="-55" font-family="Helvetica,sans-Serif" font-size="10.00">::maxCorner</text>
</a>
</g>
</g>
<!-- Node6&#45;&gt;Node9 -->
<g id="edge8_Node000006_Node000009" class="edge">
<title>Node6&#45;&gt;Node9</title>
<g id="a_edge8_Node000006_Node000009"><a xlink:title=" ">
<path fill="none" stroke="#63b8ff" d="M358.7,-94.75C377.61,-90.14 398.28,-85.1 417.47,-80.43"/>
<polygon fill="#63b8ff" stroke="#63b8ff" points="418.46,-83.79 427.35,-78.02 416.81,-76.99 418.46,-83.79"/>
</a>
</g>
</g>
<!-- Node10 -->
<g id="Node000010" class="node">
<title>Node10</title>
<g id="a_Node000010"><a xlink:href="classprecice_1_1mesh_1_1BoundingBox.html#a194a2fb80fd24fad4555df2a2453dac5" target="_top" xlink:title="the min corner of the bounding box">
<polygon fill="white" stroke="#666666" points="567.5,-30 412.5,-30 412.5,0 567.5,0 567.5,-30"/>
<text text-anchor="start" x="420.5" y="-18" font-family="Helvetica,sans-Serif" font-size="10.00">precice::mesh::BoundingBox</text>
<text text-anchor="middle" x="490" y="-7" font-family="Helvetica,sans-Serif" font-size="10.00">::minCorner</text>
</a>
</g>
</g>
<!-- Node6&#45;&gt;Node10 -->
<g id="edge9_Node000006_Node000010" class="edge">
<title>Node6&#45;&gt;Node10</title>
<g id="a_edge9_Node000006_Node000010"><a xlink:title=" ">
<path fill="none" stroke="#63b8ff" d="M320.64,-90.44C343.64,-74.66 377.23,-53.25 409,-39 413.32,-37.06 417.84,-35.23 422.44,-33.5"/>
<polygon fill="#63b8ff" stroke="#63b8ff" points="423.7,-36.77 431.95,-30.12 421.35,-30.17 423.7,-36.77"/>
</a>
</g>
</g>
</g>
</svg>
