<?xml version="1.0" encoding="UTF-8" standalone="no"?>
<!DOCTYPE svg PUBLIC "-//W3C//DTD SVG 1.1//EN"
 "http://www.w3.org/Graphics/SVG/1.1/DTD/svg11.dtd">
<!-- Generated by graphviz version 2.43.0 (0)
 -->
<!-- Title: precice::mapping::buildMatrixA Pages: 1 -->
<svg width="539pt" height="322pt"
 viewBox="0.00 0.00 539.00 322.00" xmlns="http://www.w3.org/2000/svg" xmlns:xlink="http://www.w3.org/1999/xlink">
<g id="graph0" class="graph" transform="scale(1 1) rotate(0) translate(4 318)">
<title>precice::mapping::buildMatrixA</title>
<!-- Node1 -->
<g id="Node000001" class="node">
<title>Node1</title>
<g id="a_Node000001"><a xlink:title=" ">
<polygon fill="#999999" stroke="#666666" points="169,-169 0,-169 0,-150 169,-150 169,-169"/>
<text text-anchor="middle" x="84.5" y="-157" font-family="Helvetica,sans-Serif" font-size="10.00">precice::mapping::buildMatrixA</text>
</a>
</g>
</g>
<!-- Node2 -->
<g id="Node000002" class="node">
<title>Node2</title>
<g id="a_Node000002"><a target="_parent" xlink:href="http://en.cppreference.com/w/cpp/container/array/begin.html#" xlink:title=" ">
<polygon fill="white" stroke="#666666" points="339,-314 244,-314 244,-295 339,-295 339,-314"/>
<text text-anchor="middle" x="291.5" y="-302" font-family="Helvetica,sans-Serif" font-size="10.00">std::array::begin</text>
</a>
</g>
</g>
<!-- Node1&#45;&gt;Node2 -->
<g id="edge1_Node000001_Node000002" class="edge">
<title>Node1&#45;&gt;Node2</title>
<g id="a_edge1_Node000001_Node000002"><a xlink:title=" ">
<path fill="none" stroke="#63b8ff" d="M91.66,-169.23C107.37,-193.18 151.48,-255.19 205,-285.5 213.83,-290.5 223.87,-294.19 233.89,-296.9"/>
<polygon fill="#63b8ff" stroke="#63b8ff" points="233.31,-300.36 243.85,-299.31 234.95,-293.56 233.31,-300.36"/>
</a>
</g>
</g>
<!-- Node3 -->
<g id="Node000003" class="node">
<title>Node3</title>
<g id="a_Node000003"><a xlink:href="namespaceprecice_1_1mapping.html#a8e50570bef6a89ba9016bf31fadd83f1" target="_top" xlink:title="Deletes all dead directions from fullVector and returns a vector of reduced dimensionality.">
<polygon fill="white" stroke="#666666" points="366,-276.5 217,-276.5 217,-246.5 366,-246.5 366,-276.5"/>
<text text-anchor="start" x="225" y="-264.5" font-family="Helvetica,sans-Serif" font-size="10.00">precice::mapping::compute</text>
<text text-anchor="middle" x="291.5" y="-253.5" font-family="Helvetica,sans-Serif" font-size="10.00">SquaredDifference</text>
</a>
</g>
</g>
<!-- Node1&#45;&gt;Node3 -->
<g id="edge2_Node000001_Node000003" class="edge">
<title>Node1&#45;&gt;Node3</title>
<g id="a_edge2_Node000001_Node000003"><a xlink:title=" ">
<path fill="none" stroke="#63b8ff" d="M97.34,-169.01C118.02,-185.21 162.59,-218.25 205,-237.5 209.33,-239.47 213.87,-241.31 218.49,-243.03"/>
<polygon fill="#63b8ff" stroke="#63b8ff" points="217.46,-246.38 228.06,-246.38 219.78,-239.77 217.46,-246.38"/>
</a>
</g>
</g>
<!-- Node4 -->
<g id="Node000004" class="node">
<title>Node4</title>
<g id="a_Node000004"><a target="_parent" xlink:href="http://en.cppreference.com/w/cpp/algorithm/count.html#" xlink:title=" ">
<polygon fill="white" stroke="#666666" points="324,-228 259,-228 259,-209 324,-209 324,-228"/>
<text text-anchor="middle" x="291.5" y="-216" font-family="Helvetica,sans-Serif" font-size="10.00">std::count</text>
</a>
</g>
</g>
<!-- Node1&#45;&gt;Node4 -->
<g id="edge3_Node000001_Node000004" class="edge">
<title>Node1&#45;&gt;Node4</title>
<g id="a_edge3_Node000001_Node000004"><a xlink:title=" ">
<path fill="none" stroke="#63b8ff" d="M110.4,-169.05C134.38,-178 171.8,-191.35 205,-200.5 219.12,-204.39 234.75,-207.91 248.75,-210.78"/>
<polygon fill="#63b8ff" stroke="#63b8ff" points="248.11,-214.22 258.61,-212.75 249.49,-207.36 248.11,-214.22"/>
</a>
</g>
</g>
<!-- Node5 -->
<g id="Node000005" class="node">
<title>Node5</title>
<g id="a_Node000005"><a target="_parent" xlink:href="http://en.cppreference.com/w/cpp/container/array/end.html#" xlink:title=" ">
<polygon fill="white" stroke="#666666" points="334.5,-191 248.5,-191 248.5,-172 334.5,-172 334.5,-191"/>
<text text-anchor="middle" x="291.5" y="-179" font-family="Helvetica,sans-Serif" font-size="10.00">std::array::end</text>
</a>
</g>
</g>
<!-- Node1&#45;&gt;Node5 -->
<g id="edge4_Node000001_Node000005" class="edge">
<title>Node1&#45;&gt;Node5</title>
<g id="a_edge4_Node000001_Node000005"><a xlink:title=" ">
<path fill="none" stroke="#63b8ff" d="M169.18,-168.48C192.58,-170.99 217.34,-173.65 238.35,-175.9"/>
<polygon fill="#63b8ff" stroke="#63b8ff" points="238.02,-179.39 248.34,-176.98 238.77,-172.43 238.02,-179.39"/>
</a>
</g>
</g>
<!-- Node6 -->
<g id="Node000006" class="node">
<title>Node6</title>
<g id="a_Node000006"><a xlink:href="namespaceprecice_1_1mapping.html#acb5af976a940daac3500bf78be6adb74" target="_top" xlink:title=" ">
<polygon fill="white" stroke="#666666" points="378,-153.5 205,-153.5 205,-123.5 378,-123.5 378,-153.5"/>
<text text-anchor="start" x="213" y="-141.5" font-family="Helvetica,sans-Serif" font-size="10.00">precice::mapping::fillPolynomial</text>
<text text-anchor="middle" x="291.5" y="-130.5" font-family="Helvetica,sans-Serif" font-size="10.00">Entries</text>
</a>
</g>
</g>
<!-- Node1&#45;&gt;Node6 -->
<g id="edge5_Node000001_Node000006" class="edge">
<title>Node1&#45;&gt;Node6</title>
<g id="a_edge5_Node000001_Node000006"><a xlink:title=" ">
<path fill="none" stroke="#63b8ff" d="M169.18,-150.93C177.61,-150.06 186.22,-149.18 194.77,-148.31"/>
<polygon fill="#63b8ff" stroke="#63b8ff" points="195.17,-151.78 204.76,-147.28 194.46,-144.82 195.17,-151.78"/>
</a>
</g>
</g>
<!-- Node8 -->
<g id="Node000008" class="node">
<title>Node8</title>
<g id="a_Node000008"><a xlink:href="classprecice_1_1mesh_1_1Mesh.html#a13faa9b03e5d20918ed6528db1415fa3" target="_top" xlink:title="Returns modifieable container holding all vertices.">
<polygon fill="white" stroke="#666666" points="531,-110.5 414,-110.5 414,-80.5 531,-80.5 531,-110.5"/>
<text text-anchor="start" x="422" y="-98.5" font-family="Helvetica,sans-Serif" font-size="10.00">precice::mesh::Mesh</text>
<text text-anchor="middle" x="472.5" y="-87.5" font-family="Helvetica,sans-Serif" font-size="10.00">::vertices</text>
</a>
</g>
</g>
<!-- Node1&#45;&gt;Node8 -->
<g id="edge10_Node000001_Node000008" class="edge">
<title>Node1&#45;&gt;Node8</title>
<g id="a_edge10_Node000001_Node000008"><a xlink:title=" ">
<path fill="none" stroke="#63b8ff" d="M105.67,-149.84C129,-139.16 168.84,-122.42 205,-114.5 271.51,-99.93 349.37,-95.82 403.69,-94.97"/>
<polygon fill="#63b8ff" stroke="#63b8ff" points="403.94,-98.47 413.89,-94.84 403.85,-91.47 403.94,-98.47"/>
</a>
</g>
</g>
<!-- Node9 -->
<g id="Node000009" class="node">
<title>Node9</title>
<g id="a_Node000009"><a xlink:href="classprecice_1_1mesh_1_1Mesh.html#a136f6b4ce235025e418fab0ca5f350ff" target="_top" xlink:title=" ">
<polygon fill="white" stroke="#666666" points="350,-67.5 233,-67.5 233,-37.5 350,-37.5 350,-67.5"/>
<text text-anchor="start" x="241" y="-55.5" font-family="Helvetica,sans-Serif" font-size="10.00">precice::mesh::Mesh</text>
<text text-anchor="middle" x="291.5" y="-44.5" font-family="Helvetica,sans-Serif" font-size="10.00">::getDimensions</text>
</a>
</g>
</g>
<!-- Node1&#45;&gt;Node9 -->
<g id="edge8_Node000001_Node000009" class="edge">
<title>Node1&#45;&gt;Node9</title>
<g id="a_edge8_Node000001_Node000009"><a xlink:title=" ">
<path fill="none" stroke="#63b8ff" d="M97.78,-149.97C118.78,-134.04 163.34,-101.76 205,-81.5 212.78,-77.71 221.19,-74.21 229.58,-71.05"/>
<polygon fill="#63b8ff" stroke="#63b8ff" points="230.82,-74.32 239.02,-67.62 228.43,-67.74 230.82,-74.32"/>
</a>
</g>
</g>
<!-- Node10 -->
<g id="Node000010" class="node">
<title>Node10</title>
<g id="a_Node000010"><a target="_parent" xlink:href="http://en.cppreference.com/w/cpp/numeric/math/sqrt.html#" xlink:title=" ">
<polygon fill="white" stroke="#666666" points="319.5,-19 263.5,-19 263.5,0 319.5,0 319.5,-19"/>
<text text-anchor="middle" x="291.5" y="-7" font-family="Helvetica,sans-Serif" font-size="10.00">std::sqrt</text>
</a>
</g>
</g>
<!-- Node1&#45;&gt;Node10 -->
<g id="edge9_Node000001_Node000010" class="edge">
<title>Node1&#45;&gt;Node10</title>
<g id="a_edge9_Node000001_Node000010"><a xlink:title=" ">
<path fill="none" stroke="#63b8ff" d="M91.34,-149.74C106.61,-125.11 150.39,-60.13 205,-28.5 219.57,-20.06 237.54,-15.37 253.23,-12.76"/>
<polygon fill="#63b8ff" stroke="#63b8ff" points="253.76,-16.22 263.16,-11.33 252.76,-9.29 253.76,-16.22"/>
</a>
</g>
</g>
<!-- Node7 -->
<g id="Node000007" class="node">
<title>Node7</title>
<g id="a_Node000007"><a target="_parent" xlink:href="http://en.cppreference.com/w/cpp/container/array/size.html#" xlink:title=" ">
<polygon fill="white" stroke="#666666" points="516.5,-148 428.5,-148 428.5,-129 516.5,-129 516.5,-148"/>
<text text-anchor="middle" x="472.5" y="-136" font-family="Helvetica,sans-Serif" font-size="10.00">std::array::size</text>
</a>
</g>
</g>
<!-- Node6&#45;&gt;Node7 -->
<g id="edge6_Node000006_Node000007" class="edge">
<title>Node6&#45;&gt;Node7</title>
<g id="a_edge6_Node000006_Node000007"><a xlink:title=" ">
<path fill="none" stroke="#63b8ff" d="M378.07,-138.5C391.69,-138.5 405.44,-138.5 418.04,-138.5"/>
<polygon fill="#63b8ff" stroke="#63b8ff" points="418.33,-142 428.33,-138.5 418.33,-135 418.33,-142"/>
</a>
</g>
</g>
<!-- Node6&#45;&gt;Node8 -->
<g id="edge7_Node000006_Node000008" class="edge">
<title>Node6&#45;&gt;Node8</title>
<g id="a_edge7_Node000006_Node000008"><a xlink:title=" ">
<path fill="none" stroke="#63b8ff" d="M355.11,-123.46C370.88,-119.67 387.89,-115.58 403.91,-111.74"/>
<polygon fill="#63b8ff" stroke="#63b8ff" points="404.82,-115.12 413.73,-109.38 403.19,-108.31 404.82,-115.12"/>
</a>
</g>
</g>
</g>
</svg>
