<?xml version="1.0" encoding="UTF-8" standalone="no"?>
<!DOCTYPE svg PUBLIC "-//W3C//DTD SVG 1.1//EN"
 "http://www.w3.org/Graphics/SVG/1.1/DTD/svg11.dtd">
<!-- Generated by graphviz version 2.43.0 (0)
 -->
<!-- Title: precice::mesh::operator&lt;&lt; Pages: 1 -->
<svg width="310pt" height="230pt"
 viewBox="0.00 0.00 310.00 230.00" xmlns="http://www.w3.org/2000/svg" xmlns:xlink="http://www.w3.org/1999/xlink">
<g id="graph0" class="graph" transform="scale(1 1) rotate(0) translate(4 226)">
<title>precice::mesh::operator&lt;&lt;</title>
<!-- Node1 -->
<g id="Node000001" class="node">
<title>Node1</title>
<g id="a_Node000001"><a xlink:title=" ">
<polygon fill="#999999" stroke="#666666" points="149,-120.5 0,-120.5 0,-101.5 149,-101.5 149,-120.5"/>
<text text-anchor="middle" x="74.5" y="-108.5" font-family="Helvetica,sans-Serif" font-size="10.00">precice::mesh::operator&lt;&lt;</text>
</a>
</g>
</g>
<!-- Node2 -->
<g id="Node000002" class="node">
<title>Node2</title>
<g id="a_Node000002"><a xlink:href="classprecice_1_1mesh_1_1Mesh.html#aec6f303d7791f8a64e2b78180531c89e" target="_top" xlink:title="Returns modifiable container holding all edges.">
<polygon fill="white" stroke="#666666" points="302,-222 185,-222 185,-192 302,-192 302,-222"/>
<text text-anchor="start" x="193" y="-210" font-family="Helvetica,sans-Serif" font-size="10.00">precice::mesh::Mesh</text>
<text text-anchor="middle" x="243.5" y="-199" font-family="Helvetica,sans-Serif" font-size="10.00">::edges</text>
</a>
</g>
</g>
<!-- Node1&#45;&gt;Node2 -->
<g id="edge1_Node000001_Node000002" class="edge">
<title>Node1&#45;&gt;Node2</title>
<g id="a_edge1_Node000001_Node000002"><a xlink:title=" ">
<path fill="none" stroke="#63b8ff" d="M88.49,-120.7C108.52,-135.37 148.44,-163.57 185,-183 188.05,-184.62 191.24,-186.21 194.48,-187.76"/>
<polygon fill="#63b8ff" stroke="#63b8ff" points="193.14,-190.99 203.69,-191.96 196.05,-184.62 193.14,-190.99"/>
</a>
</g>
</g>
<!-- Node3 -->
<g id="Node000003" class="node">
<title>Node3</title>
<g id="a_Node000003"><a xlink:href="classprecice_1_1mesh_1_1Mesh.html#a136f6b4ce235025e418fab0ca5f350ff" target="_top" xlink:title=" ">
<polygon fill="white" stroke="#666666" points="302,-174 185,-174 185,-144 302,-144 302,-174"/>
<text text-anchor="start" x="193" y="-162" font-family="Helvetica,sans-Serif" font-size="10.00">precice::mesh::Mesh</text>
<text text-anchor="middle" x="243.5" y="-151" font-family="Helvetica,sans-Serif" font-size="10.00">::getDimensions</text>
</a>
</g>
</g>
<!-- Node1&#45;&gt;Node3 -->
<g id="edge2_Node000001_Node000003" class="edge">
<title>Node1&#45;&gt;Node3</title>
<g id="a_edge2_Node000001_Node000003"><a xlink:title=" ">
<path fill="none" stroke="#63b8ff" d="M108.89,-120.6C129.31,-126.47 156.06,-134.15 180.26,-141.11"/>
<polygon fill="#63b8ff" stroke="#63b8ff" points="179.52,-144.54 190.09,-143.94 181.45,-137.81 179.52,-144.54"/>
</a>
</g>
</g>
<!-- Node4 -->
<g id="Node000004" class="node">
<title>Node4</title>
<g id="a_Node000004"><a xlink:href="classprecice_1_1mesh_1_1Mesh.html#a3185fe962ba3e8fe0b3cf451681e6a48" target="_top" xlink:title="Returns the name of the mesh, as set in the config file.">
<polygon fill="white" stroke="#666666" points="302,-126 185,-126 185,-96 302,-96 302,-126"/>
<text text-anchor="start" x="193" y="-114" font-family="Helvetica,sans-Serif" font-size="10.00">precice::mesh::Mesh</text>
<text text-anchor="middle" x="243.5" y="-103" font-family="Helvetica,sans-Serif" font-size="10.00">::getName</text>
</a>
</g>
</g>
<!-- Node1&#45;&gt;Node4 -->
<g id="edge3_Node000001_Node000004" class="edge">
<title>Node1&#45;&gt;Node4</title>
<g id="a_edge3_Node000001_Node000004"><a xlink:title=" ">
<path fill="none" stroke="#63b8ff" d="M149.23,-111C157.75,-111 166.39,-111 174.82,-111"/>
<polygon fill="#63b8ff" stroke="#63b8ff" points="174.96,-114.5 184.96,-111 174.96,-107.5 174.96,-114.5"/>
</a>
</g>
</g>
<!-- Node5 -->
<g id="Node000005" class="node">
<title>Node5</title>
<g id="a_Node000005"><a xlink:href="classprecice_1_1mesh_1_1Mesh.html#ad24f3877f1ea7cd5cd5f93a6f2e4d3f9" target="_top" xlink:title="Returns modifiable container holding all triangles.">
<polygon fill="white" stroke="#666666" points="302,-78 185,-78 185,-48 302,-48 302,-78"/>
<text text-anchor="start" x="193" y="-66" font-family="Helvetica,sans-Serif" font-size="10.00">precice::mesh::Mesh</text>
<text text-anchor="middle" x="243.5" y="-55" font-family="Helvetica,sans-Serif" font-size="10.00">::triangles</text>
</a>
</g>
</g>
<!-- Node1&#45;&gt;Node5 -->
<g id="edge4_Node000001_Node000005" class="edge">
<title>Node1&#45;&gt;Node5</title>
<g id="a_edge4_Node000001_Node000005"><a xlink:title=" ">
<path fill="none" stroke="#63b8ff" d="M108.89,-101.4C129.31,-95.53 156.06,-87.85 180.26,-80.89"/>
<polygon fill="#63b8ff" stroke="#63b8ff" points="181.45,-84.19 190.09,-78.06 179.52,-77.46 181.45,-84.19"/>
</a>
</g>
</g>
<!-- Node6 -->
<g id="Node000006" class="node">
<title>Node6</title>
<g id="a_Node000006"><a xlink:href="classprecice_1_1mesh_1_1Mesh.html#a13faa9b03e5d20918ed6528db1415fa3" target="_top" xlink:title="Returns modifieable container holding all vertices.">
<polygon fill="white" stroke="#666666" points="302,-30 185,-30 185,0 302,0 302,-30"/>
<text text-anchor="start" x="193" y="-18" font-family="Helvetica,sans-Serif" font-size="10.00">precice::mesh::Mesh</text>
<text text-anchor="middle" x="243.5" y="-7" font-family="Helvetica,sans-Serif" font-size="10.00">::vertices</text>
</a>
</g>
</g>
<!-- Node1&#45;&gt;Node6 -->
<g id="edge5_Node000001_Node000006" class="edge">
<title>Node1&#45;&gt;Node6</title>
<g id="a_edge5_Node000001_Node000006"><a xlink:title=" ">
<path fill="none" stroke="#63b8ff" d="M88.49,-101.3C108.52,-86.63 148.44,-58.43 185,-39 188.05,-37.38 191.24,-35.79 194.48,-34.24"/>
<polygon fill="#63b8ff" stroke="#63b8ff" points="196.05,-37.38 203.69,-30.04 193.14,-31.01 196.05,-37.38"/>
</a>
</g>
</g>
</g>
</svg>
