<?xml version="1.0" encoding="UTF-8" standalone="no"?>
<!DOCTYPE svg PUBLIC "-//W3C//DTD SVG 1.1//EN"
 "http://www.w3.org/Graphics/SVG/1.1/DTD/svg11.dtd">
<!-- Generated by graphviz version 2.43.0 (0)
 -->
<!-- Title: precice::mapping::kernel::do_batched_lu Pages: 1 -->
<svg width="491pt" height="38pt"
 viewBox="0.00 0.00 491.00 38.00" xmlns="http://www.w3.org/2000/svg" xmlns:xlink="http://www.w3.org/1999/xlink">
<g id="graph0" class="graph" transform="scale(1 1) rotate(0) translate(4 34)">
<title>precice::mapping::kernel::do_batched_lu</title>
<!-- Node1 -->
<g id="Node000001" class="node">
<title>Node1</title>
<g id="a_Node000001"><a xlink:title=" ">
<polygon fill="#999999" stroke="#666666" points="137,-30 0,-30 0,0 137,0 137,-30"/>
<text text-anchor="start" x="8" y="-18" font-family="Helvetica,sans-Serif" font-size="10.00">precice::mapping::kernel</text>
<text text-anchor="middle" x="68.5" y="-7" font-family="Helvetica,sans-Serif" font-size="10.00">::do_batched_lu</text>
</a>
</g>
</g>
<!-- Node2 -->
<g id="Node000002" class="node">
<title>Node2</title>
<g id="a_Node000002"><a xlink:href="namespaceprecice_1_1mapping_1_1kernel_1_1impl.html#a067c0f42757e58817c084a4753acdd75" target="_top" xlink:title=" ">
<polygon fill="white" stroke="#666666" points="310,-30 173,-30 173,0 310,0 310,-30"/>
<text text-anchor="start" x="181" y="-18" font-family="Helvetica,sans-Serif" font-size="10.00">precice::mapping::kernel</text>
<text text-anchor="middle" x="241.5" y="-7" font-family="Helvetica,sans-Serif" font-size="10.00">::impl::findTeamSize</text>
</a>
</g>
</g>
<!-- Node1&#45;&gt;Node2 -->
<g id="edge1_Node000001_Node000002" class="edge">
<title>Node1&#45;&gt;Node2</title>
<g id="a_edge1_Node000001_Node000002"><a xlink:title=" ">
<path fill="none" stroke="#63b8ff" d="M137.08,-15C145.54,-15 154.24,-15 162.83,-15"/>
<polygon fill="#63b8ff" stroke="#63b8ff" points="162.85,-18.5 172.85,-15 162.85,-11.5 162.85,-18.5"/>
</a>
</g>
</g>
<!-- Node3 -->
<g id="Node000003" class="node">
<title>Node3</title>
<g id="a_Node000003"><a xlink:href="namespaceprecice_1_1mapping_1_1kernel_1_1impl.html#a41d6419fd8987d0050ff73293b5ee3de" target="_top" xlink:title=" ">
<polygon fill="white" stroke="#666666" points="483,-30 346,-30 346,0 483,0 483,-30"/>
<text text-anchor="start" x="354" y="-18" font-family="Helvetica,sans-Serif" font-size="10.00">precice::mapping::kernel</text>
<text text-anchor="middle" x="414.5" y="-7" font-family="Helvetica,sans-Serif" font-size="10.00">::impl::powerOfTwo</text>
</a>
</g>
</g>
<!-- Node2&#45;&gt;Node3 -->
<g id="edge2_Node000002_Node000003" class="edge">
<title>Node2&#45;&gt;Node3</title>
<g id="a_edge2_Node000002_Node000003"><a xlink:title=" ">
<path fill="none" stroke="#63b8ff" d="M310.08,-15C318.54,-15 327.24,-15 335.83,-15"/>
<polygon fill="#63b8ff" stroke="#63b8ff" points="335.85,-18.5 345.85,-15 335.85,-11.5 335.85,-18.5"/>
</a>
</g>
</g>
</g>
</svg>
