<?xml version="1.0" encoding="UTF-8" standalone="no"?>
<!DOCTYPE svg PUBLIC "-//W3C//DTD SVG 1.1//EN"
 "http://www.w3.org/Graphics/SVG/1.1/DTD/svg11.dtd">
<!-- Generated by graphviz version 2.43.0 (0)
 -->
<!-- Title: precice::mapping::impl::createClustering Pages: 1 -->
<svg width="709pt" height="284pt"
 viewBox="0.00 0.00 709.00 284.00" xmlns="http://www.w3.org/2000/svg" xmlns:xlink="http://www.w3.org/1999/xlink">
<g id="graph0" class="graph" transform="scale(1 1) rotate(0) translate(4 280)">
<title>precice::mapping::impl::createClustering</title>
<polygon fill="white" stroke="transparent" points="-4,4 -4,-280 705,-280 705,4 -4,4"/>
<!-- Node1 -->
<g id="node1" class="node">
<title>Node1</title>
<g id="a_node1"><a xlink:title="Creates a clustering as a collection of Vertices (representing the cluster centers) and a cluster rad...">
<polygon fill="#bfbfbf" stroke="black" points="0,-122.5 0,-152.5 128,-152.5 128,-122.5 0,-122.5"/>
<text text-anchor="start" x="8" y="-140.5" font-family="Helvetica,sans-Serif" font-size="10.00">precice::mapping::impl</text>
<text text-anchor="middle" x="64" y="-129.5" font-family="Helvetica,sans-Serif" font-size="10.00">::createClustering</text>
</a>
</g>
</g>
<!-- Node2 -->
<g id="node2" class="node">
<title>Node2</title>
<g id="a_node2"><a xlink:href="classprecice_1_1mesh_1_1BoundingBox.html#ae2336cadbb2424c27b1bdb36f343e12b" target="_top" xlink:title="Returns the Center Of Gravity of the mesh.">
<polygon fill="white" stroke="black" points="355,-245.5 355,-275.5 510,-275.5 510,-245.5 355,-245.5"/>
<text text-anchor="start" x="363" y="-263.5" font-family="Helvetica,sans-Serif" font-size="10.00">precice::mesh::BoundingBox</text>
<text text-anchor="middle" x="432.5" y="-252.5" font-family="Helvetica,sans-Serif" font-size="10.00">::center</text>
</a>
</g>
</g>
<!-- Node1&#45;&gt;Node2 -->
<g id="edge1" class="edge">
<title>Node1&#45;&gt;Node2</title>
<path fill="none" stroke="midnightblue" d="M74.99,-152.84C90.8,-175.63 123.93,-217.76 164,-236.5 220.25,-262.8 290.36,-268.24 344.69,-267.39"/>
<polygon fill="midnightblue" stroke="midnightblue" points="345.08,-270.89 354.99,-267.16 344.91,-263.89 345.08,-270.89"/>
</g>
<!-- Node4 -->
<g id="node4" class="node">
<title>Node4</title>
<g id="a_node4"><a xlink:href="namespaceprecice_1_1mapping_1_1impl.html#a7ccf242183b04a7f69c3bd8cd2d5f5eb" target="_top" xlink:title="Computes an estimate for the cluster radius, which results in approximately verticesPerCluster vertic...">
<polygon fill="white" stroke="black" points="174.5,-196.5 174.5,-226.5 308.5,-226.5 308.5,-196.5 174.5,-196.5"/>
<text text-anchor="start" x="182.5" y="-214.5" font-family="Helvetica,sans-Serif" font-size="10.00">precice::mapping::impl</text>
<text text-anchor="middle" x="241.5" y="-203.5" font-family="Helvetica,sans-Serif" font-size="10.00">::estimateClusterRadius</text>
</a>
</g>
</g>
<!-- Node1&#45;&gt;Node4 -->
<g id="edge3" class="edge">
<title>Node1&#45;&gt;Node4</title>
<path fill="none" stroke="midnightblue" d="M91.76,-152.52C111.37,-163.15 138.85,-177.28 164,-187.5 168.72,-189.42 173.64,-191.27 178.63,-193.05"/>
<polygon fill="midnightblue" stroke="midnightblue" points="177.65,-196.41 188.24,-196.36 179.93,-189.8 177.65,-196.41"/>
</g>
<!-- Node7 -->
<g id="node7" class="node">
<title>Node7</title>
<g id="a_node7"><a xlink:href="classprecice_1_1mesh_1_1BoundingBox.html#a7aeb328ca8291253c4fd22d0d4cb0a18" target="_top" xlink:title="Expand bounding box using another bounding box.">
<polygon fill="white" stroke="black" points="164,-147.5 164,-177.5 319,-177.5 319,-147.5 164,-147.5"/>
<text text-anchor="start" x="172" y="-165.5" font-family="Helvetica,sans-Serif" font-size="10.00">precice::mesh::BoundingBox</text>
<text text-anchor="middle" x="241.5" y="-154.5" font-family="Helvetica,sans-Serif" font-size="10.00">::expandBy</text>
</a>
</g>
</g>
<!-- Node1&#45;&gt;Node7 -->
<g id="edge8" class="edge">
<title>Node1&#45;&gt;Node7</title>
<path fill="none" stroke="midnightblue" d="M128.36,-146.53C136.62,-147.7 145.19,-148.92 153.74,-150.14"/>
<polygon fill="midnightblue" stroke="midnightblue" points="153.37,-153.62 163.76,-151.57 154.36,-146.69 153.37,-153.62"/>
</g>
<!-- Node9 -->
<g id="node9" class="node">
<title>Node9</title>
<g id="a_node9"><a xlink:href="classprecice_1_1mesh_1_1BoundingBox.html#a600045b8e5d29f1e07af653e25881a7d" target="_top" xlink:title="returns the maximum length of the bounding box in any dimension">
<polygon fill="white" stroke="black" points="164,-98.5 164,-128.5 319,-128.5 319,-98.5 164,-98.5"/>
<text text-anchor="start" x="172" y="-116.5" font-family="Helvetica,sans-Serif" font-size="10.00">precice::mesh::BoundingBox</text>
<text text-anchor="middle" x="241.5" y="-105.5" font-family="Helvetica,sans-Serif" font-size="10.00">::longestEdgeLength</text>
</a>
</g>
</g>
<!-- Node1&#45;&gt;Node9 -->
<g id="edge10" class="edge">
<title>Node1&#45;&gt;Node9</title>
<path fill="none" stroke="midnightblue" d="M128.36,-128.84C136.62,-127.71 145.19,-126.53 153.74,-125.36"/>
<polygon fill="midnightblue" stroke="midnightblue" points="154.33,-128.82 163.76,-123.99 153.38,-121.88 154.33,-128.82"/>
</g>
<!-- Node10 -->
<g id="node10" class="node">
<title>Node10</title>
<g id="a_node10"><a xlink:href="classprecice_1_1mesh_1_1BoundingBox.html#a14cd5dbd1775876bf5795845699557d8" target="_top" xlink:title="the max corner of the bounding box">
<polygon fill="white" stroke="black" points="164,-49.5 164,-79.5 319,-79.5 319,-49.5 164,-49.5"/>
<text text-anchor="start" x="172" y="-67.5" font-family="Helvetica,sans-Serif" font-size="10.00">precice::mesh::BoundingBox</text>
<text text-anchor="middle" x="241.5" y="-56.5" font-family="Helvetica,sans-Serif" font-size="10.00">::maxCorner</text>
</a>
</g>
</g>
<!-- Node1&#45;&gt;Node10 -->
<g id="edge11" class="edge">
<title>Node1&#45;&gt;Node10</title>
<path fill="none" stroke="midnightblue" d="M92.63,-122.37C112.2,-112.02 139.26,-98.43 164,-88.5 168.8,-86.57 173.82,-84.7 178.9,-82.9"/>
<polygon fill="midnightblue" stroke="midnightblue" points="180.35,-86.11 188.68,-79.55 178.08,-79.48 180.35,-86.11"/>
</g>
<!-- Node11 -->
<g id="node11" class="node">
<title>Node11</title>
<g id="a_node11"><a xlink:href="classprecice_1_1mesh_1_1BoundingBox.html#a194a2fb80fd24fad4555df2a2453dac5" target="_top" xlink:title="the min corner of the bounding box">
<polygon fill="white" stroke="black" points="164,-0.5 164,-30.5 319,-30.5 319,-0.5 164,-0.5"/>
<text text-anchor="start" x="172" y="-18.5" font-family="Helvetica,sans-Serif" font-size="10.00">precice::mesh::BoundingBox</text>
<text text-anchor="middle" x="241.5" y="-7.5" font-family="Helvetica,sans-Serif" font-size="10.00">::minCorner</text>
</a>
</g>
</g>
<!-- Node1&#45;&gt;Node11 -->
<g id="edge12" class="edge">
<title>Node1&#45;&gt;Node11</title>
<path fill="none" stroke="midnightblue" d="M76.42,-122.3C93.29,-100.85 126.92,-61.84 164,-39.5 166.8,-37.81 169.73,-36.23 172.75,-34.75"/>
<polygon fill="midnightblue" stroke="midnightblue" points="174.29,-37.9 181.99,-30.62 171.44,-31.51 174.29,-37.9"/>
</g>
<!-- Node3 -->
<g id="node3" class="node">
<title>Node3</title>
<g id="a_node3"><a xlink:href="classprecice_1_1mesh_1_1BoundingBox.html#a93ebcb8b5754683c5042d63ce9042e9d" target="_top" xlink:title=" ">
<polygon fill="white" stroke="black" points="546,-220.5 546,-250.5 701,-250.5 701,-220.5 546,-220.5"/>
<text text-anchor="start" x="554" y="-238.5" font-family="Helvetica,sans-Serif" font-size="10.00">precice::mesh::BoundingBox</text>
<text text-anchor="middle" x="623.5" y="-227.5" font-family="Helvetica,sans-Serif" font-size="10.00">::isDefault</text>
</a>
</g>
</g>
<!-- Node2&#45;&gt;Node3 -->
<g id="edge2" class="edge">
<title>Node2&#45;&gt;Node3</title>
<path fill="none" stroke="midnightblue" d="M510.1,-250.37C518.56,-249.25 527.22,-248.1 535.79,-246.97"/>
<polygon fill="midnightblue" stroke="midnightblue" points="536.34,-250.43 545.79,-245.65 535.42,-243.49 536.34,-250.43"/>
</g>
<!-- Node4&#45;&gt;Node2 -->
<g id="edge4" class="edge">
<title>Node4&#45;&gt;Node2</title>
<path fill="none" stroke="midnightblue" d="M300.49,-226.53C320.54,-231.73 343.17,-237.6 363.92,-242.98"/>
<polygon fill="midnightblue" stroke="midnightblue" points="363.06,-246.37 373.62,-245.49 364.82,-239.6 363.06,-246.37"/>
</g>
<!-- Node5 -->
<g id="node5" class="node">
<title>Node5</title>
<g id="a_node5"><a xlink:href="classprecice_1_1mesh_1_1BoundingBox.html#a47cc0759796a01675620119783a11d8d" target="_top" xlink:title="Check if every dimension&#39;s length is equal to zero.">
<polygon fill="white" stroke="black" points="355,-196.5 355,-226.5 510,-226.5 510,-196.5 355,-196.5"/>
<text text-anchor="start" x="363" y="-214.5" font-family="Helvetica,sans-Serif" font-size="10.00">precice::mesh::BoundingBox</text>
<text text-anchor="middle" x="432.5" y="-203.5" font-family="Helvetica,sans-Serif" font-size="10.00">::empty</text>
</a>
</g>
</g>
<!-- Node4&#45;&gt;Node5 -->
<g id="edge5" class="edge">
<title>Node4&#45;&gt;Node5</title>
<path fill="none" stroke="midnightblue" d="M308.6,-211.5C320.25,-211.5 332.52,-211.5 344.63,-211.5"/>
<polygon fill="midnightblue" stroke="midnightblue" points="344.75,-215 354.75,-211.5 344.75,-208 344.75,-215"/>
</g>
<!-- Node6 -->
<g id="node6" class="node">
<title>Node6</title>
<g id="a_node6"><a xlink:href="classprecice_1_1mesh_1_1BoundingBox.html#afe975ebb34d491fc30bc9bce4ca2ed5f" target="_top" xlink:title="returns the edge length of a specific axis">
<polygon fill="white" stroke="black" points="355,-147.5 355,-177.5 510,-177.5 510,-147.5 355,-147.5"/>
<text text-anchor="start" x="363" y="-165.5" font-family="Helvetica,sans-Serif" font-size="10.00">precice::mesh::BoundingBox</text>
<text text-anchor="middle" x="432.5" y="-154.5" font-family="Helvetica,sans-Serif" font-size="10.00">::getEdgeLength</text>
</a>
</g>
</g>
<!-- Node4&#45;&gt;Node6 -->
<g id="edge7" class="edge">
<title>Node4&#45;&gt;Node6</title>
<path fill="none" stroke="midnightblue" d="M300.49,-196.47C320.54,-191.27 343.17,-185.4 363.92,-180.02"/>
<polygon fill="midnightblue" stroke="midnightblue" points="364.82,-183.4 373.62,-177.51 363.06,-176.63 364.82,-183.4"/>
</g>
<!-- Node5&#45;&gt;Node3 -->
<g id="edge6" class="edge">
<title>Node5&#45;&gt;Node3</title>
<path fill="none" stroke="midnightblue" d="M510.1,-221.23C518.56,-222.3 527.22,-223.4 535.79,-224.49"/>
<polygon fill="midnightblue" stroke="midnightblue" points="535.43,-227.97 545.79,-225.76 536.31,-221.03 535.43,-227.97"/>
</g>
<!-- Node8 -->
<g id="node8" class="node">
<title>Node8</title>
<g id="a_node8"><a xlink:href="classprecice_1_1mesh_1_1BoundingBox.html#ad500309dcbe440703ef71dfcc7a2a394" target="_top" xlink:title="Getter dimension of the bounding box.">
<polygon fill="white" stroke="black" points="355,-98.5 355,-128.5 510,-128.5 510,-98.5 355,-98.5"/>
<text text-anchor="start" x="363" y="-116.5" font-family="Helvetica,sans-Serif" font-size="10.00">precice::mesh::BoundingBox</text>
<text text-anchor="middle" x="432.5" y="-105.5" font-family="Helvetica,sans-Serif" font-size="10.00">::getDimension</text>
</a>
</g>
</g>
<!-- Node7&#45;&gt;Node8 -->
<g id="edge9" class="edge">
<title>Node7&#45;&gt;Node8</title>
<path fill="none" stroke="midnightblue" d="M300.49,-147.47C320.54,-142.27 343.17,-136.4 363.92,-131.02"/>
<polygon fill="midnightblue" stroke="midnightblue" points="364.82,-134.4 373.62,-128.51 363.06,-127.63 364.82,-134.4"/>
</g>
</g>
</svg>
