<?xml version="1.0" encoding="UTF-8" standalone="no"?>
<!DOCTYPE svg PUBLIC "-//W3C//DTD SVG 1.1//EN"
 "http://www.w3.org/Graphics/SVG/1.1/DTD/svg11.dtd">
<!-- Generated by graphviz version 2.43.0 (0)
 -->
<!-- Title: BOOST_AUTO_TEST_CASE Pages: 1 -->
<svg width="824pt" height="664pt"
 viewBox="0.00 0.00 824.00 664.00" xmlns="http://www.w3.org/2000/svg" xmlns:xlink="http://www.w3.org/1999/xlink">
<g id="graph0" class="graph" transform="scale(1 1) rotate(0) translate(4 660)">
<title>BOOST_AUTO_TEST_CASE</title>
<!-- Node1 -->
<g id="Node000001" class="node">
<title>Node1</title>
<g id="a_Node000001"><a xlink:title=" ">
<polygon fill="#999999" stroke="#666666" points="143,-269.5 0,-269.5 0,-250.5 143,-250.5 143,-269.5"/>
<text text-anchor="middle" x="71.5" y="-257.5" font-family="Helvetica,sans-Serif" font-size="10.00">BOOST_AUTO_TEST_CASE</text>
</a>
</g>
</g>
<!-- Node2 -->
<g id="Node000002" class="node">
<title>Node2</title>
<g id="a_Node000002"><a xlink:href="classprecice_1_1mapping_1_1NearestNeighborBaseMapping.html#ab7b41fe767e36b9140c0c3a074e5b54c" target="_top" xlink:title="Computes the mapping coefficients from the in&#45; and output mesh.">
<polygon fill="white" stroke="#666666" points="397,-505 179,-505 179,-475 397,-475 397,-505"/>
<text text-anchor="start" x="187" y="-493" font-family="Helvetica,sans-Serif" font-size="10.00">precice::mapping::Nearest</text>
<text text-anchor="middle" x="288" y="-482" font-family="Helvetica,sans-Serif" font-size="10.00">NeighborBaseMapping::computeMapping</text>
</a>
</g>
</g>
<!-- Node1&#45;&gt;Node2 -->
<g id="edge1_Node000001_Node000002" class="edge">
<title>Node1&#45;&gt;Node2</title>
<g id="a_edge1_Node000001_Node000002"><a xlink:title=" ">
<path fill="none" stroke="#63b8ff" d="M76.08,-269.67C87.18,-298.47 123.61,-384.9 179,-436 194.82,-450.59 215.32,-462.16 234.2,-470.79"/>
<polygon fill="#63b8ff" stroke="#63b8ff" points="233.03,-474.1 243.6,-474.91 235.85,-467.69 233.03,-474.1"/>
</a>
</g>
</g>
<!-- Node11 -->
<g id="Node000011" class="node">
<title>Node11</title>
<g id="a_Node000011"><a xlink:href="classprecice_1_1mesh_1_1Mesh.html#a00c3db2576c63d8c6f351175ddc0a4d0" target="_top" xlink:title="Creates and initializes a Triangle object.">
<polygon fill="white" stroke="#666666" points="346.5,-323 229.5,-323 229.5,-293 346.5,-293 346.5,-323"/>
<text text-anchor="start" x="237.5" y="-311" font-family="Helvetica,sans-Serif" font-size="10.00">precice::mesh::Mesh</text>
<text text-anchor="middle" x="288" y="-300" font-family="Helvetica,sans-Serif" font-size="10.00">::createTriangle</text>
</a>
</g>
</g>
<!-- Node1&#45;&gt;Node11 -->
<g id="edge10_Node000001_Node000011" class="edge">
<title>Node1&#45;&gt;Node11</title>
<g id="a_edge10_Node000001_Node000011"><a xlink:title=" ">
<path fill="none" stroke="#63b8ff" d="M114.73,-269.55C134.28,-273.96 157.82,-279.26 179,-284 191.99,-286.91 205.87,-290 219.2,-292.97"/>
<polygon fill="#63b8ff" stroke="#63b8ff" points="218.74,-296.45 229.26,-295.2 220.26,-289.62 218.74,-296.45"/>
</a>
</g>
</g>
<!-- Node13 -->
<g id="Node000013" class="node">
<title>Node13</title>
<g id="a_Node000013"><a xlink:href="classprecice_1_1mesh_1_1Mesh.html#af6e6d684553dc5d0f0a23cacb77b3fc7" target="_top" xlink:title="Creates and initializes a Vertex object.">
<polygon fill="white" stroke="#666666" points="346.5,-275 229.5,-275 229.5,-245 346.5,-245 346.5,-275"/>
<text text-anchor="start" x="237.5" y="-263" font-family="Helvetica,sans-Serif" font-size="10.00">precice::mesh::Mesh</text>
<text text-anchor="middle" x="288" y="-252" font-family="Helvetica,sans-Serif" font-size="10.00">::createVertex</text>
</a>
</g>
</g>
<!-- Node1&#45;&gt;Node13 -->
<g id="edge12_Node000001_Node000013" class="edge">
<title>Node1&#45;&gt;Node13</title>
<g id="a_edge12_Node000001_Node000013"><a xlink:title=" ">
<path fill="none" stroke="#63b8ff" d="M143.03,-260C167.5,-260 194.87,-260 219.12,-260"/>
<polygon fill="#63b8ff" stroke="#63b8ff" points="219.3,-263.5 229.3,-260 219.3,-256.5 219.3,-263.5"/>
</a>
</g>
</g>
<!-- Node14 -->
<g id="Node000014" class="node">
<title>Node14</title>
<g id="a_Node000014"><a xlink:href="namespaceprecice_1_1math.html#a0e86802cfe992deba131d789d035b5b7" target="_top" xlink:title="Compares two Eigen::MatrixBase for equality up to tolerance.">
<polygon fill="white" stroke="#666666" points="349,-226.5 227,-226.5 227,-207.5 349,-207.5 349,-226.5"/>
<text text-anchor="middle" x="288" y="-214.5" font-family="Helvetica,sans-Serif" font-size="10.00">precice::math::equals</text>
</a>
</g>
</g>
<!-- Node1&#45;&gt;Node14 -->
<g id="edge13_Node000001_Node000014" class="edge">
<title>Node1&#45;&gt;Node14</title>
<g id="a_edge13_Node000001_Node000014"><a xlink:title=" ">
<path fill="none" stroke="#63b8ff" d="M112.61,-250.49C132.52,-245.89 156.98,-240.42 179,-236 192.16,-233.36 206.27,-230.73 219.8,-228.31"/>
<polygon fill="#63b8ff" stroke="#63b8ff" points="220.78,-231.69 230.01,-226.5 219.56,-224.8 220.78,-231.69"/>
</a>
</g>
</g>
<!-- Node15 -->
<g id="Node000015" class="node">
<title>Node15</title>
<g id="a_Node000015"><a xlink:href="classprecice_1_1mapping_1_1Mapping.html#ad4c975ae2b8f1125a6707ab7857018f6" target="_top" xlink:title="Returns true, if the mapping has been computed.">
<polygon fill="white" stroke="#666666" points="362.5,-189 213.5,-189 213.5,-159 362.5,-159 362.5,-189"/>
<text text-anchor="start" x="221.5" y="-177" font-family="Helvetica,sans-Serif" font-size="10.00">precice::mapping::Mapping</text>
<text text-anchor="middle" x="288" y="-166" font-family="Helvetica,sans-Serif" font-size="10.00">::hasComputedMapping</text>
</a>
</g>
</g>
<!-- Node1&#45;&gt;Node15 -->
<g id="edge14_Node000001_Node000015" class="edge">
<title>Node1&#45;&gt;Node15</title>
<g id="a_edge14_Node000001_Node000015"><a xlink:title=" ">
<path fill="none" stroke="#63b8ff" d="M86.3,-250.32C106,-236.93 143.69,-212.85 179,-199 186.86,-195.92 195.19,-193.16 203.6,-190.7"/>
<polygon fill="#63b8ff" stroke="#63b8ff" points="204.8,-194 213.5,-187.96 202.93,-187.26 204.8,-194"/>
</a>
</g>
</g>
<!-- Node16 -->
<g id="Node000016" class="node">
<title>Node16</title>
<g id="a_Node000016"><a xlink:href="namespaceprecice_1_1mesh.html#a27bca58154223d9708c9634163026578" target="_top" xlink:title="Given the data and the mesh, this function returns the volume integral. Assumes no overlap exists for...">
<polygon fill="white" stroke="#666666" points="355.5,-141 220.5,-141 220.5,-111 355.5,-111 355.5,-141"/>
<text text-anchor="start" x="228.5" y="-129" font-family="Helvetica,sans-Serif" font-size="10.00">precice::mesh::integrate</text>
<text text-anchor="middle" x="288" y="-118" font-family="Helvetica,sans-Serif" font-size="10.00">Volume</text>
</a>
</g>
</g>
<!-- Node1&#45;&gt;Node16 -->
<g id="edge15_Node000001_Node000016" class="edge">
<title>Node1&#45;&gt;Node16</title>
<g id="a_edge15_Node000001_Node000016"><a xlink:title=" ">
<path fill="none" stroke="#63b8ff" d="M78.9,-250.24C93.7,-228.5 132.61,-175.96 179,-150 188.72,-144.56 199.59,-140.35 210.57,-137.1"/>
<polygon fill="#63b8ff" stroke="#63b8ff" points="211.5,-140.47 220.23,-134.48 209.66,-133.72 211.5,-140.47"/>
</a>
</g>
</g>
<!-- Node21 -->
<g id="Node000021" class="node">
<title>Node21</title>
<g id="a_Node000021"><a xlink:href="classprecice_1_1mapping_1_1Mapping.html#adac09460b4983629f85cec2a9f1fe75c" target="_top" xlink:title=" ">
<polygon fill="white" stroke="#666666" points="376,-360.5 200,-360.5 200,-341.5 376,-341.5 376,-360.5"/>
<text text-anchor="middle" x="288" y="-348.5" font-family="Helvetica,sans-Serif" font-size="10.00">precice::mapping::Mapping::map</text>
</a>
</g>
</g>
<!-- Node1&#45;&gt;Node21 -->
<g id="edge20_Node000001_Node000021" class="edge">
<title>Node1&#45;&gt;Node21</title>
<g id="a_edge20_Node000001_Node000021"><a xlink:title=" ">
<path fill="none" stroke="#63b8ff" d="M83.4,-269.71C101.73,-285.48 140.52,-316.44 179,-332 185.61,-334.67 192.6,-336.97 199.72,-338.95"/>
<polygon fill="#63b8ff" stroke="#63b8ff" points="198.92,-342.36 209.48,-341.45 200.66,-335.58 198.92,-342.36"/>
</a>
</g>
</g>
<!-- Node24 -->
<g id="Node000024" class="node">
<title>Node24</title>
<g id="a_Node000024"><a xlink:href="namespaceprecice_1_1testing.html#a08533fd83bad3d7f27ea7f4a35a14aa4" target="_top" xlink:title=" ">
<polygon fill="white" stroke="#666666" points="366,-58.5 210,-58.5 210,-39.5 366,-39.5 366,-58.5"/>
<text text-anchor="middle" x="288" y="-46.5" font-family="Helvetica,sans-Serif" font-size="10.00">precice::testing::nextMeshID</text>
</a>
</g>
</g>
<!-- Node1&#45;&gt;Node24 -->
<g id="edge26_Node000001_Node000024" class="edge">
<title>Node1&#45;&gt;Node24</title>
<g id="a_edge26_Node000001_Node000024"><a xlink:title=" ">
<path fill="none" stroke="#63b8ff" d="M76.86,-250.19C89.24,-223.26 127.13,-147.21 179,-102 199.16,-84.43 226.17,-71.17 248.14,-62.31"/>
<polygon fill="#63b8ff" stroke="#63b8ff" points="249.47,-65.55 257.52,-58.67 246.93,-59.03 249.47,-65.55"/>
</a>
</g>
</g>
<!-- Node26 -->
<g id="Node000026" class="node">
<title>Node26</title>
<g id="a_Node000026"><a xlink:href="classprecice_1_1mapping_1_1Mapping.html#a5bf2ecf9adb1ae66977c1223f841a61f" target="_top" xlink:title="Sets input and output meshes carrying data to be mapped.">
<polygon fill="white" stroke="#666666" points="362.5,-427 213.5,-427 213.5,-397 362.5,-397 362.5,-427"/>
<text text-anchor="start" x="221.5" y="-415" font-family="Helvetica,sans-Serif" font-size="10.00">precice::mapping::Mapping</text>
<text text-anchor="middle" x="288" y="-404" font-family="Helvetica,sans-Serif" font-size="10.00">::setMeshes</text>
</a>
</g>
</g>
<!-- Node1&#45;&gt;Node26 -->
<g id="edge28_Node000001_Node000026" class="edge">
<title>Node1&#45;&gt;Node26</title>
<g id="a_edge28_Node000001_Node000026"><a xlink:title=" ">
<path fill="none" stroke="#63b8ff" d="M77.47,-269.54C90.55,-293.62 128.41,-357.14 179,-388 186.57,-392.61 194.91,-396.35 203.51,-399.36"/>
<polygon fill="#63b8ff" stroke="#63b8ff" points="202.71,-402.78 213.3,-402.47 204.83,-396.11 202.71,-402.78"/>
</a>
</g>
</g>
<!-- Node3 -->
<g id="Node000003" class="node">
<title>Node3</title>
<g id="a_Node000003"><a xlink:href="classprecice_1_1utils_1_1statistics_1_1DistanceAccumulator.html#ab62a4d99f3b8c512aeb45a3a9ae0547b" target="_top" xlink:title="Returns count == 0.">
<polygon fill="white" stroke="#666666" points="608.5,-548 444.5,-548 444.5,-518 608.5,-518 608.5,-548"/>
<text text-anchor="start" x="452.5" y="-536" font-family="Helvetica,sans-Serif" font-size="10.00">precice::utils::statistics</text>
<text text-anchor="middle" x="526.5" y="-525" font-family="Helvetica,sans-Serif" font-size="10.00">::DistanceAccumulator::empty</text>
</a>
</g>
</g>
<!-- Node2&#45;&gt;Node3 -->
<g id="edge2_Node000002_Node000003" class="edge">
<title>Node2&#45;&gt;Node3</title>
<g id="a_edge2_Node000002_Node000003"><a xlink:title=" ">
<path fill="none" stroke="#63b8ff" d="M371.72,-505.04C391.98,-508.72 413.77,-512.69 434.4,-516.44"/>
<polygon fill="#63b8ff" stroke="#63b8ff" points="433.96,-519.91 444.43,-518.26 435.21,-513.03 433.96,-519.91"/>
</a>
</g>
</g>
<!-- Node5 -->
<g id="Node000005" class="node">
<title>Node5</title>
<g id="a_Node000005"><a xlink:href="namespaceprecice.html#aa9d19e0a82fdcbffc72e0db264b4cceb" target="_top" xlink:title=" ">
<polygon fill="white" stroke="#666666" points="563.5,-499.5 489.5,-499.5 489.5,-480.5 563.5,-480.5 563.5,-499.5"/>
<text text-anchor="middle" x="526.5" y="-487.5" font-family="Helvetica,sans-Serif" font-size="10.00">precice::get</text>
</a>
</g>
</g>
<!-- Node2&#45;&gt;Node5 -->
<g id="edge4_Node000002_Node000005" class="edge">
<title>Node2&#45;&gt;Node5</title>
<g id="a_edge4_Node000002_Node000005"><a xlink:title=" ">
<path fill="none" stroke="#63b8ff" d="M397.21,-490C426.14,-490 455.87,-490 479.42,-490"/>
<polygon fill="#63b8ff" stroke="#63b8ff" points="479.44,-493.5 489.44,-490 479.44,-486.5 479.44,-493.5"/>
</a>
</g>
</g>
<!-- Node6 -->
<g id="Node000006" class="node">
<title>Node6</title>
<g id="a_Node000006"><a xlink:href="classprecice_1_1mapping_1_1Mapping.html#aeea2d39f5e6ce0eaa97ebe436ff89991" target="_top" xlink:title="Checks whether the mapping has the given constraint or not.">
<polygon fill="white" stroke="#666666" points="601,-656 452,-656 452,-626 601,-626 601,-656"/>
<text text-anchor="start" x="460" y="-644" font-family="Helvetica,sans-Serif" font-size="10.00">precice::mapping::Mapping</text>
<text text-anchor="middle" x="526.5" y="-633" font-family="Helvetica,sans-Serif" font-size="10.00">::hasConstraint</text>
</a>
</g>
</g>
<!-- Node2&#45;&gt;Node6 -->
<g id="edge5_Node000002_Node000006" class="edge">
<title>Node2&#45;&gt;Node6</title>
<g id="a_edge5_Node000002_Node000006"><a xlink:title=" ">
<path fill="none" stroke="#63b8ff" d="M301.63,-505.05C324.84,-531.72 377.07,-587.29 433,-617 436.53,-618.87 440.21,-620.61 443.98,-622.21"/>
<polygon fill="#63b8ff" stroke="#63b8ff" points="442.93,-625.56 453.52,-625.93 445.48,-619.04 442.93,-625.56"/>
</a>
</g>
</g>
<!-- Node8 -->
<g id="Node000008" class="node">
<title>Node8</title>
<g id="a_Node000008"><a xlink:href="classprecice_1_1mapping_1_1Mapping.html#a61c3c55af467ada2bdd735efa0f960e4" target="_top" xlink:title="Returns pointer to input mesh.">
<polygon fill="white" stroke="#666666" points="601,-462 452,-462 452,-432 601,-432 601,-462"/>
<text text-anchor="start" x="460" y="-450" font-family="Helvetica,sans-Serif" font-size="10.00">precice::mapping::Mapping</text>
<text text-anchor="middle" x="526.5" y="-439" font-family="Helvetica,sans-Serif" font-size="10.00">::input</text>
</a>
</g>
</g>
<!-- Node2&#45;&gt;Node8 -->
<g id="edge7_Node000002_Node000008" class="edge">
<title>Node2&#45;&gt;Node8</title>
<g id="a_edge7_Node000002_Node000008"><a xlink:title=" ">
<path fill="none" stroke="#63b8ff" d="M371.72,-474.96C394.46,-470.83 419.13,-466.34 441.92,-462.2"/>
<polygon fill="#63b8ff" stroke="#63b8ff" points="442.69,-465.61 451.91,-460.38 441.44,-458.73 442.69,-465.61"/>
</a>
</g>
</g>
<!-- Node9 -->
<g id="Node000009" class="node">
<title>Node9</title>
<g id="a_Node000009"><a xlink:href="classprecice_1_1mapping_1_1NearestNeighborBaseMapping.html#a3605e46cc2fa329c8ae2125197369150" target="_top" xlink:title=" ">
<polygon fill="white" stroke="#666666" points="620,-607.5 433,-607.5 433,-566.5 620,-566.5 620,-607.5"/>
<text text-anchor="start" x="441" y="-595.5" font-family="Helvetica,sans-Serif" font-size="10.00">precice::mapping::Nearest</text>
<text text-anchor="start" x="441" y="-584.5" font-family="Helvetica,sans-Serif" font-size="10.00">NeighborBaseMapping::onMapping</text>
<text text-anchor="middle" x="526.5" y="-573.5" font-family="Helvetica,sans-Serif" font-size="10.00">Computed</text>
</a>
</g>
</g>
<!-- Node2&#45;&gt;Node9 -->
<g id="edge8_Node000002_Node000009" class="edge">
<title>Node2&#45;&gt;Node9</title>
<g id="a_edge8_Node000002_Node000009"><a xlink:title=" ">
<path fill="none" stroke="#63b8ff" d="M318.6,-505.07C347.39,-519.41 392.58,-541.11 433,-557 438.11,-559.01 443.41,-560.99 448.77,-562.92"/>
<polygon fill="#63b8ff" stroke="#63b8ff" points="447.87,-566.31 458.46,-566.33 450.19,-559.71 447.87,-566.31"/>
</a>
</g>
</g>
<!-- Node10 -->
<g id="Node000010" class="node">
<title>Node10</title>
<g id="a_Node000010"><a xlink:href="classprecice_1_1mapping_1_1Mapping.html#a07a71a54b71eda6d54510c94fb188e70" target="_top" xlink:title="Returns pointer to output mesh.">
<polygon fill="white" stroke="#666666" points="601,-414 452,-414 452,-384 601,-384 601,-414"/>
<text text-anchor="start" x="460" y="-402" font-family="Helvetica,sans-Serif" font-size="10.00">precice::mapping::Mapping</text>
<text text-anchor="middle" x="526.5" y="-391" font-family="Helvetica,sans-Serif" font-size="10.00">::output</text>
</a>
</g>
</g>
<!-- Node2&#45;&gt;Node10 -->
<g id="edge9_Node000002_Node000010" class="edge">
<title>Node2&#45;&gt;Node10</title>
<g id="a_edge9_Node000002_Node000010"><a xlink:title=" ">
<path fill="none" stroke="#63b8ff" d="M317.31,-474.95C345.89,-460.21 391.61,-437.86 433,-423 438.94,-420.87 445.16,-418.84 451.45,-416.93"/>
<polygon fill="#63b8ff" stroke="#63b8ff" points="452.73,-420.2 461.35,-414.03 450.77,-413.48 452.73,-420.2"/>
</a>
</g>
</g>
<!-- Node4 -->
<g id="Node000004" class="node">
<title>Node4</title>
<g id="a_Node000004"><a xlink:href="classprecice_1_1utils_1_1statistics_1_1DistanceAccumulator.html#ac9b87639f46a763b1f35cce56f78edd7" target="_top" xlink:title="Returns how many values have been accumulated.">
<polygon fill="white" stroke="#666666" points="816,-548 656,-548 656,-518 816,-518 816,-548"/>
<text text-anchor="start" x="664" y="-536" font-family="Helvetica,sans-Serif" font-size="10.00">precice::utils::statistics</text>
<text text-anchor="middle" x="736" y="-525" font-family="Helvetica,sans-Serif" font-size="10.00">::DistanceAccumulator::count</text>
</a>
</g>
</g>
<!-- Node3&#45;&gt;Node4 -->
<g id="edge3_Node000003_Node000004" class="edge">
<title>Node3&#45;&gt;Node4</title>
<g id="a_edge3_Node000003_Node000004"><a xlink:title=" ">
<path fill="none" stroke="#63b8ff" d="M608.62,-533C620.78,-533 633.38,-533 645.71,-533"/>
<polygon fill="#63b8ff" stroke="#63b8ff" points="645.98,-536.5 655.98,-533 645.98,-529.5 645.98,-536.5"/>
</a>
</g>
</g>
<!-- Node7 -->
<g id="Node000007" class="node">
<title>Node7</title>
<g id="a_Node000007"><a xlink:href="classprecice_1_1mapping_1_1Mapping.html#a6afbd9aaac2ab09b078db271cfd977a1" target="_top" xlink:title="Returns the constraint (consistent/conservative) of the mapping.">
<polygon fill="white" stroke="#666666" points="810.5,-656 661.5,-656 661.5,-626 810.5,-626 810.5,-656"/>
<text text-anchor="start" x="669.5" y="-644" font-family="Helvetica,sans-Serif" font-size="10.00">precice::mapping::Mapping</text>
<text text-anchor="middle" x="736" y="-633" font-family="Helvetica,sans-Serif" font-size="10.00">::getConstraint</text>
</a>
</g>
</g>
<!-- Node6&#45;&gt;Node7 -->
<g id="edge6_Node000006_Node000007" class="edge">
<title>Node6&#45;&gt;Node7</title>
<g id="a_edge6_Node000006_Node000007"><a xlink:title=" ">
<path fill="none" stroke="#63b8ff" d="M601.24,-641C617.45,-641 634.72,-641 651.29,-641"/>
<polygon fill="#63b8ff" stroke="#63b8ff" points="651.5,-644.5 661.5,-641 651.5,-637.5 651.5,-644.5"/>
</a>
</g>
</g>
<!-- Node12 -->
<g id="Node000012" class="node">
<title>Node12</title>
<g id="a_Node000012"><a xlink:href="classprecice_1_1mesh_1_1Edge.html#af27f4bd02d0b67cc5c3d04e2cf1ddee7" target="_top" xlink:title="Checks whether both edges share a vertex.">
<polygon fill="white" stroke="#666666" points="584,-270 469,-270 469,-240 584,-240 584,-270"/>
<text text-anchor="start" x="477" y="-258" font-family="Helvetica,sans-Serif" font-size="10.00">precice::mesh::Edge</text>
<text text-anchor="middle" x="526.5" y="-247" font-family="Helvetica,sans-Serif" font-size="10.00">::connectedTo</text>
</a>
</g>
</g>
<!-- Node11&#45;&gt;Node12 -->
<g id="edge11_Node000011_Node000012" class="edge">
<title>Node11&#45;&gt;Node12</title>
<g id="a_edge11_Node000011_Node000012"><a xlink:title=" ">
<path fill="none" stroke="#63b8ff" d="M346.74,-295.21C363,-291.59 380.69,-287.65 397,-284 417.14,-279.49 439.05,-274.55 458.98,-270.06"/>
<polygon fill="#63b8ff" stroke="#63b8ff" points="459.91,-273.43 468.9,-267.82 458.37,-266.61 459.91,-273.43"/>
</a>
</g>
</g>
<!-- Node17 -->
<g id="Node000017" class="node">
<title>Node17</title>
<g id="a_Node000017"><a xlink:href="classprecice_1_1mesh_1_1Mesh.html#a136f6b4ce235025e418fab0ca5f350ff" target="_top" xlink:title=" ">
<polygon fill="white" stroke="#666666" points="585,-126 468,-126 468,-96 585,-96 585,-126"/>
<text text-anchor="start" x="476" y="-114" font-family="Helvetica,sans-Serif" font-size="10.00">precice::mesh::Mesh</text>
<text text-anchor="middle" x="526.5" y="-103" font-family="Helvetica,sans-Serif" font-size="10.00">::getDimensions</text>
</a>
</g>
</g>
<!-- Node16&#45;&gt;Node17 -->
<g id="edge16_Node000016_Node000017" class="edge">
<title>Node16&#45;&gt;Node17</title>
<g id="a_edge16_Node000016_Node000017"><a xlink:title=" ">
<path fill="none" stroke="#63b8ff" d="M355.51,-121.78C387.44,-119.76 425.64,-117.33 457.73,-115.3"/>
<polygon fill="#63b8ff" stroke="#63b8ff" points="458.16,-118.78 467.92,-114.65 457.72,-111.79 458.16,-118.78"/>
</a>
</g>
</g>
<!-- Node18 -->
<g id="Node000018" class="node">
<title>Node18</title>
<g id="a_Node000018"><a xlink:href="classprecice_1_1mesh_1_1Mesh.html#a479bf9583fd5a233f8ed1c8b9b3fe5c4" target="_top" xlink:title="Returns modifiable container holding all tetrahedra.">
<polygon fill="white" stroke="#666666" points="585,-78 468,-78 468,-48 585,-48 585,-78"/>
<text text-anchor="start" x="476" y="-66" font-family="Helvetica,sans-Serif" font-size="10.00">precice::mesh::Mesh</text>
<text text-anchor="middle" x="526.5" y="-55" font-family="Helvetica,sans-Serif" font-size="10.00">::tetrahedra</text>
</a>
</g>
</g>
<!-- Node16&#45;&gt;Node18 -->
<g id="edge17_Node000016_Node000018" class="edge">
<title>Node16&#45;&gt;Node18</title>
<g id="a_edge17_Node000016_Node000018"><a xlink:title=" ">
<path fill="none" stroke="#63b8ff" d="M344.01,-110.95C370.83,-103.66 403.58,-94.8 433,-87 441.07,-84.86 449.54,-82.64 457.94,-80.44"/>
<polygon fill="#63b8ff" stroke="#63b8ff" points="458.95,-83.79 467.74,-77.88 457.18,-77.02 458.95,-83.79"/>
</a>
</g>
</g>
<!-- Node19 -->
<g id="Node000019" class="node">
<title>Node19</title>
<g id="a_Node000019"><a xlink:href="classprecice_1_1mesh_1_1Mesh.html#ad24f3877f1ea7cd5cd5f93a6f2e4d3f9" target="_top" xlink:title="Returns modifiable container holding all triangles.">
<polygon fill="white" stroke="#666666" points="585,-222 468,-222 468,-192 585,-192 585,-222"/>
<text text-anchor="start" x="476" y="-210" font-family="Helvetica,sans-Serif" font-size="10.00">precice::mesh::Mesh</text>
<text text-anchor="middle" x="526.5" y="-199" font-family="Helvetica,sans-Serif" font-size="10.00">::triangles</text>
</a>
</g>
</g>
<!-- Node16&#45;&gt;Node19 -->
<g id="edge18_Node000016_Node000019" class="edge">
<title>Node16&#45;&gt;Node19</title>
<g id="a_edge18_Node000016_Node000019"><a xlink:title=" ">
<path fill="none" stroke="#63b8ff" d="M355.75,-135.11C369.86,-138.59 384.31,-143.39 397,-150 416.25,-160.03 413.93,-172.63 433,-183 440.73,-187.2 449.23,-190.69 457.84,-193.59"/>
<polygon fill="#63b8ff" stroke="#63b8ff" points="457,-196.99 467.59,-196.61 459.07,-190.3 457,-196.99"/>
</a>
</g>
</g>
<!-- Node20 -->
<g id="Node000020" class="node">
<title>Node20</title>
<g id="a_Node000020"><a xlink:href="classprecice_1_1mesh_1_1Mesh.html#a13faa9b03e5d20918ed6528db1415fa3" target="_top" xlink:title="Returns modifieable container holding all vertices.">
<polygon fill="white" stroke="#666666" points="585,-174 468,-174 468,-144 585,-144 585,-174"/>
<text text-anchor="start" x="476" y="-162" font-family="Helvetica,sans-Serif" font-size="10.00">precice::mesh::Mesh</text>
<text text-anchor="middle" x="526.5" y="-151" font-family="Helvetica,sans-Serif" font-size="10.00">::vertices</text>
</a>
</g>
</g>
<!-- Node16&#45;&gt;Node20 -->
<g id="edge19_Node000016_Node000020" class="edge">
<title>Node16&#45;&gt;Node20</title>
<g id="a_edge19_Node000016_Node000020"><a xlink:title=" ">
<path fill="none" stroke="#63b8ff" d="M355.51,-135.28C387.44,-139.74 425.64,-145.07 457.73,-149.54"/>
<polygon fill="#63b8ff" stroke="#63b8ff" points="457.53,-153.05 467.92,-150.97 458.5,-146.12 457.53,-153.05"/>
</a>
</g>
</g>
<!-- Node21&#45;&gt;Node8 -->
<g id="edge22_Node000021_Node000008" class="edge">
<title>Node21&#45;&gt;Node8</title>
<g id="a_edge22_Node000021_Node000008"><a xlink:title=" ">
<path fill="none" stroke="#63b8ff" d="M330.38,-360.55C351.32,-366.5 376.56,-375.45 397,-388 416.02,-399.68 413.55,-412.06 433,-423 436.23,-424.82 439.59,-426.5 443.05,-428.05"/>
<polygon fill="#63b8ff" stroke="#63b8ff" points="441.8,-431.33 452.38,-431.89 444.46,-424.85 441.8,-431.33"/>
</a>
</g>
</g>
<!-- Node21&#45;&gt;Node10 -->
<g id="edge24_Node000021_Node000010" class="edge">
<title>Node21&#45;&gt;Node10</title>
<g id="a_edge24_Node000021_Node000010"><a xlink:title=" ">
<path fill="none" stroke="#63b8ff" d="M336.01,-360.54C366.17,-366.66 406.2,-374.79 441.7,-381.99"/>
<polygon fill="#63b8ff" stroke="#63b8ff" points="441.08,-385.44 451.58,-384 442.47,-378.58 441.08,-385.44"/>
</a>
</g>
</g>
<!-- Node21&#45;&gt;Node21 -->
<g id="edge23_Node000021_Node000021" class="edge">
<title>Node21&#45;&gt;Node21</title>
<g id="a_edge23_Node000021_Node000021"><a xlink:title=" ">
<path fill="none" stroke="#63b8ff" d="M254.71,-360.58C238.51,-369.23 249.61,-378.5 288,-378.5 315.59,-378.5 329.09,-373.71 328.48,-367.81"/>
<polygon fill="#63b8ff" stroke="#63b8ff" points="330.83,-365.2 321.29,-360.58 325.86,-370.14 330.83,-365.2"/>
</a>
</g>
</g>
<!-- Node22 -->
<g id="Node000022" class="node">
<title>Node22</title>
<g id="a_Node000022"><a xlink:href="classprecice_1_1mapping_1_1Mapping.html#a393912fe4919edd098e96f66ffbe0d52" target="_top" xlink:title=" ">
<polygon fill="white" stroke="#666666" points="601,-366 452,-366 452,-336 601,-336 601,-366"/>
<text text-anchor="start" x="460" y="-354" font-family="Helvetica,sans-Serif" font-size="10.00">precice::mapping::Mapping</text>
<text text-anchor="middle" x="526.5" y="-343" font-family="Helvetica,sans-Serif" font-size="10.00">::getDimensions</text>
</a>
</g>
</g>
<!-- Node21&#45;&gt;Node22 -->
<g id="edge21_Node000021_Node000022" class="edge">
<title>Node21&#45;&gt;Node22</title>
<g id="a_edge21_Node000021_Node000022"><a xlink:title=" ">
<path fill="none" stroke="#63b8ff" d="M376.06,-351C397.45,-351 420.31,-351 441.55,-351"/>
<polygon fill="#63b8ff" stroke="#63b8ff" points="441.83,-354.5 451.83,-351 441.83,-347.5 441.83,-354.5"/>
</a>
</g>
</g>
<!-- Node23 -->
<g id="Node000023" class="node">
<title>Node23</title>
<g id="a_Node000023"><a xlink:href="classprecice_1_1mapping_1_1Mapping.html#a06a1bad07e3562ca32581e412769b2e9" target="_top" xlink:title="Return true if the mapping requires an initial guess.">
<polygon fill="white" stroke="#666666" points="601,-318 452,-318 452,-288 601,-288 601,-318"/>
<text text-anchor="start" x="460" y="-306" font-family="Helvetica,sans-Serif" font-size="10.00">precice::mapping::Mapping</text>
<text text-anchor="middle" x="526.5" y="-295" font-family="Helvetica,sans-Serif" font-size="10.00">::requiresInitialGuess</text>
</a>
</g>
</g>
<!-- Node21&#45;&gt;Node23 -->
<g id="edge25_Node000021_Node000023" class="edge">
<title>Node21&#45;&gt;Node23</title>
<g id="a_edge25_Node000021_Node000023"><a xlink:title=" ">
<path fill="none" stroke="#63b8ff" d="M345.99,-341.5C362.48,-338.61 380.48,-335.32 397,-332 414.78,-328.43 433.88,-324.29 451.77,-320.27"/>
<polygon fill="#63b8ff" stroke="#63b8ff" points="452.59,-323.68 461.57,-318.06 451.05,-316.85 452.59,-323.68"/>
</a>
</g>
</g>
<!-- Node25 -->
<g id="Node000025" class="node">
<title>Node25</title>
<g id="a_Node000025"><a xlink:href="classprecice_1_1utils_1_1ManageUniqueIDs.html#a02be264c279698ae293587b6576088b5" target="_top" xlink:title=" ">
<polygon fill="white" stroke="#666666" points="605.5,-30 447.5,-30 447.5,0 605.5,0 605.5,-30"/>
<text text-anchor="start" x="455.5" y="-18" font-family="Helvetica,sans-Serif" font-size="10.00">precice::utils::ManageUnique</text>
<text text-anchor="middle" x="526.5" y="-7" font-family="Helvetica,sans-Serif" font-size="10.00">IDs::getFreeID</text>
</a>
</g>
</g>
<!-- Node24&#45;&gt;Node25 -->
<g id="edge27_Node000024_Node000025" class="edge">
<title>Node24&#45;&gt;Node25</title>
<g id="a_edge27_Node000024_Node000025"><a xlink:title=" ">
<path fill="none" stroke="#63b8ff" d="M355.19,-39.48C380.63,-35.83 410.08,-31.59 437.27,-27.68"/>
<polygon fill="#63b8ff" stroke="#63b8ff" points="437.77,-31.15 447.17,-26.26 436.77,-24.22 437.77,-31.15"/>
</a>
</g>
</g>
<!-- Node26&#45;&gt;Node8 -->
<g id="edge29_Node000026_Node000008" class="edge">
<title>Node26&#45;&gt;Node8</title>
<g id="a_edge29_Node000026_Node000008"><a xlink:title=" ">
<path fill="none" stroke="#63b8ff" d="M362.53,-422.88C387.55,-426.58 415.7,-430.75 441.48,-434.57"/>
<polygon fill="#63b8ff" stroke="#63b8ff" points="441.2,-438.06 451.6,-436.06 442.22,-431.14 441.2,-438.06"/>
</a>
</g>
</g>
<!-- Node26&#45;&gt;Node10 -->
<g id="edge30_Node000026_Node000010" class="edge">
<title>Node26&#45;&gt;Node10</title>
<g id="a_edge30_Node000026_Node000010"><a xlink:title=" ">
<path fill="none" stroke="#63b8ff" d="M362.53,-407.96C387.55,-406.58 415.7,-405.04 441.48,-403.62"/>
<polygon fill="#63b8ff" stroke="#63b8ff" points="441.81,-407.11 451.6,-403.06 441.43,-400.12 441.81,-407.11"/>
</a>
</g>
</g>
</g>
</svg>
