<?xml version="1.0" encoding="UTF-8" standalone="no"?>
<!DOCTYPE svg PUBLIC "-//W3C//DTD SVG 1.1//EN"
 "http://www.w3.org/Graphics/SVG/1.1/DTD/svg11.dtd">
<!-- Generated by graphviz version 2.43.0 (0)
 -->
<!-- Title: src/acceleration/impl/ParallelMatrixOperations.hpp Pages: 1 -->
<!--zoomable 318 -->
<svg id="main" version="1.1" xmlns="http://www.w3.org/2000/svg" xmlns:xlink="http://www.w3.org/1999/xlink" xml:space="preserve" onload="init(evt)">
<style type="text/css"><![CDATA[
.edge:hover path { stroke: red; }
.edge:hover polygon { stroke: red; fill: red; }
]]></style>
<script type="text/javascript"><![CDATA[
var edges = document.getElementsByTagName('g');
if (edges && edges.length) {
  for (var i=0;i<edges.length;i++) {
    if (edges[i].id.substr(0,4)=='edge') {
      edges[i].setAttribute('class','edge');
    }
  }
}
]]></script>
        <defs>
                <circle id="rim" cx="0" cy="0" r="7"/>
                <circle id="rim2" cx="0" cy="0" r="3.5"/>
                <g id="zoomPlus">
                        <use xlink:href="#rim" fill="#404040">
                                <set attributeName="fill" to="#808080" begin="zoomplus.mouseover" end="zoomplus.mouseout"/>
                        </use>
                        <path d="M-4,0h8M0,-4v8" fill="none" stroke="white" stroke-width="1.5" pointer-events="none"/>
                </g>
                <g id="zoomMin">
                        <use xlink:href="#rim" fill="#404040">
                                <set attributeName="fill" to="#808080" begin="zoomminus.mouseover" end="zoomminus.mouseout"/>
                        </use>
                        <path d="M-4,0h8" fill="none" stroke="white" stroke-width="1.5" pointer-events="none"/>
                </g>
                <g id="dirArrow">
                        <path fill="none" stroke="white" stroke-width="1.5" d="M0,-3.0v7 M-2.5,-0.5L0,-3.0L2.5,-0.5"/>
                </g>
               <g id="resetDef">
                       <use xlink:href="#rim2" fill="#404040">
                               <set attributeName="fill" to="#808080" begin="reset.mouseover" end="reset.mouseout"/>
                       </use>
               </g>
        </defs>

<script type="text/javascript">
var viewWidth = 1037;
var viewHeight = 318;
var sectionId = 'dynsection-1';
</script>
<script xlink:href="svgpan.js"/>
<svg id="graph" class="graph">
<g id="viewport">
<title>src/acceleration/impl/ParallelMatrixOperations.hpp</title>
<polygon fill="white" stroke="transparent" points="-4,4 -4,-314 1033,-314 1033,4 -4,4"/>
<!-- Node1 -->
<g id="node1" class="node">
<title>Node1</title>
<g id="a_node1"><a xlink:title=" ">
<polygon fill="#bfbfbf" stroke="black" points="697.5,-279.5 697.5,-309.5 858.5,-309.5 858.5,-279.5 697.5,-279.5"/>
<text text-anchor="start" x="705.5" y="-297.5" font-family="Helvetica,sans-Serif" font-size="10.00">src/acceleration/impl</text>
<text text-anchor="middle" x="778" y="-286.5" font-family="Helvetica,sans-Serif" font-size="10.00">/ParallelMatrixOperations.hpp</text>
</a>
</g>
</g>
<!-- Node2 -->
<g id="node2" class="node">
<title>Node2</title>
<g id="a_node2"><a xlink:href="ParallelMatrixOperations_8cpp.html" target="_top" xlink:title=" ">
<polygon fill="white" stroke="black" points="447.5,-212.5 447.5,-242.5 608.5,-242.5 608.5,-212.5 447.5,-212.5"/>
<text text-anchor="start" x="455.5" y="-230.5" font-family="Helvetica,sans-Serif" font-size="10.00">src/acceleration/impl</text>
<text text-anchor="middle" x="528" y="-219.5" font-family="Helvetica,sans-Serif" font-size="10.00">/ParallelMatrixOperations.cpp</text>
</a>
</g>
</g>
<!-- Node1&#45;&gt;Node2 -->
<g id="edge1" class="edge">
<title>Node1&#45;&gt;Node2</title>
<path fill="none" stroke="midnightblue" d="M714.22,-276.92C673.42,-266.31 621.07,-252.7 582.27,-242.61"/>
<polygon fill="midnightblue" stroke="midnightblue" points="713.5,-280.35 724.06,-279.48 715.26,-273.57 713.5,-280.35"/>
</g>
<!-- Node3 -->
<g id="node3" class="node">
<title>Node3</title>
<g id="a_node3"><a xlink:href="SVDFactorization_8hpp.html" target="_top" xlink:title=" ">
<polygon fill="white" stroke="black" points="626.5,-212.5 626.5,-242.5 749.5,-242.5 749.5,-212.5 626.5,-212.5"/>
<text text-anchor="start" x="634.5" y="-230.5" font-family="Helvetica,sans-Serif" font-size="10.00">src/acceleration/impl</text>
<text text-anchor="middle" x="688" y="-219.5" font-family="Helvetica,sans-Serif" font-size="10.00">/SVDFactorization.hpp</text>
</a>
</g>
</g>
<!-- Node1&#45;&gt;Node3 -->
<g id="edge2" class="edge">
<title>Node1&#45;&gt;Node3</title>
<path fill="none" stroke="midnightblue" d="M750.24,-273.45C736.39,-263.45 719.98,-251.6 707.49,-242.58"/>
<polygon fill="midnightblue" stroke="midnightblue" points="748.32,-276.38 758.47,-279.4 752.41,-270.7 748.32,-276.38"/>
</g>
<!-- Node5 -->
<g id="node5" class="node">
<title>Node5</title>
<g id="a_node5"><a xlink:href="MVQNAcceleration_8hpp.html" target="_top" xlink:title=" ">
<polygon fill="white" stroke="black" points="583.5,-151 583.5,-170 792.5,-170 792.5,-151 583.5,-151"/>
<text text-anchor="middle" x="688" y="-158" font-family="Helvetica,sans-Serif" font-size="10.00">src/acceleration/MVQNAcceleration.hpp</text>
</a>
</g>
</g>
<!-- Node1&#45;&gt;Node5 -->
<g id="edge16" class="edge">
<title>Node1&#45;&gt;Node5</title>
<path fill="none" stroke="midnightblue" d="M776.82,-268.97C774.97,-251.77 770.35,-228.93 759,-212 746.11,-192.78 723.27,-178.5 706.97,-170.11"/>
<polygon fill="midnightblue" stroke="midnightblue" points="773.37,-269.66 777.68,-279.34 780.34,-269.08 773.37,-269.66"/>
</g>
<!-- Node12 -->
<g id="node12" class="node">
<title>Node12</title>
<g id="a_node12"><a xlink:href="MVQNAcceleration_8cpp.html" target="_top" xlink:title=" ">
<polygon fill="white" stroke="black" points="774.5,-84 774.5,-103 983.5,-103 983.5,-84 774.5,-84"/>
<text text-anchor="middle" x="879" y="-91" font-family="Helvetica,sans-Serif" font-size="10.00">src/acceleration/MVQNAcceleration.cpp</text>
</a>
</g>
</g>
<!-- Node1&#45;&gt;Node12 -->
<g id="edge15" class="edge">
<title>Node1&#45;&gt;Node12</title>
<path fill="none" stroke="midnightblue" d="M789.88,-270.08C812.26,-226 859.71,-132.5 874.5,-103.36"/>
<polygon fill="midnightblue" stroke="midnightblue" points="786.67,-268.69 785.26,-279.19 792.91,-271.86 786.67,-268.69"/>
</g>
<!-- Node14 -->
<g id="node14" class="node">
<title>Node14</title>
<g id="a_node14"><a xlink:href="ParallelMatrixOperationsTest_8cpp.html" target="_top" xlink:title=" ">
<polygon fill="white" stroke="black" points="849,-212.5 849,-242.5 1029,-242.5 1029,-212.5 849,-212.5"/>
<text text-anchor="start" x="857" y="-230.5" font-family="Helvetica,sans-Serif" font-size="10.00">src/acceleration/test</text>
<text text-anchor="middle" x="939" y="-219.5" font-family="Helvetica,sans-Serif" font-size="10.00">/ParallelMatrixOperationsTest.cpp</text>
</a>
</g>
</g>
<!-- Node1&#45;&gt;Node14 -->
<g id="edge17" class="edge">
<title>Node1&#45;&gt;Node14</title>
<path fill="none" stroke="midnightblue" d="M822.48,-275.54C848.24,-265.14 880.2,-252.24 904.13,-242.58"/>
<polygon fill="midnightblue" stroke="midnightblue" points="820.9,-272.41 812.93,-279.4 823.52,-278.9 820.9,-272.41"/>
</g>
<!-- Node4 -->
<g id="node4" class="node">
<title>Node4</title>
<g id="a_node4"><a xlink:href="SVDFactorization_8cpp.html" target="_top" xlink:title=" ">
<polygon fill="white" stroke="black" points="443,-145.5 443,-175.5 565,-175.5 565,-145.5 443,-145.5"/>
<text text-anchor="start" x="451" y="-163.5" font-family="Helvetica,sans-Serif" font-size="10.00">src/acceleration/impl</text>
<text text-anchor="middle" x="504" y="-152.5" font-family="Helvetica,sans-Serif" font-size="10.00">/SVDFactorization.cpp</text>
</a>
</g>
</g>
<!-- Node3&#45;&gt;Node4 -->
<g id="edge3" class="edge">
<title>Node3&#45;&gt;Node4</title>
<path fill="none" stroke="midnightblue" d="M638.33,-208.96C608.7,-198.48 571.56,-185.37 543.85,-175.58"/>
<polygon fill="midnightblue" stroke="midnightblue" points="637.48,-212.37 648.07,-212.4 639.81,-205.76 637.48,-212.37"/>
</g>
<!-- Node3&#45;&gt;Node5 -->
<g id="edge4" class="edge">
<title>Node3&#45;&gt;Node5</title>
<path fill="none" stroke="midnightblue" d="M688,-202.25C688,-191.02 688,-178.38 688,-170.19"/>
<polygon fill="midnightblue" stroke="midnightblue" points="684.5,-202.4 688,-212.4 691.5,-202.4 684.5,-202.4"/>
</g>
<!-- Node6 -->
<g id="node6" class="node">
<title>Node6</title>
<g id="a_node6"><a xlink:href="AccelerationConfiguration_8cpp.html" target="_top" xlink:title=" ">
<polygon fill="white" stroke="black" points="748,-6 748,-36 914,-36 914,-6 748,-6"/>
<text text-anchor="start" x="756" y="-24" font-family="Helvetica,sans-Serif" font-size="10.00">src/acceleration/config</text>
<text text-anchor="middle" x="831" y="-13" font-family="Helvetica,sans-Serif" font-size="10.00">/AccelerationConfiguration.cpp</text>
</a>
</g>
</g>
<!-- Node5&#45;&gt;Node6 -->
<g id="edge5" class="edge">
<title>Node5&#45;&gt;Node6</title>
<path fill="none" stroke="midnightblue" d="M703.06,-142.84C718.45,-126.05 743.26,-99.58 766,-78 781.67,-63.13 800.44,-47.14 813.77,-36.07"/>
<polygon fill="midnightblue" stroke="midnightblue" points="700.08,-140.92 695.93,-150.67 705.26,-145.63 700.08,-140.92"/>
</g>
<!-- Node7 -->
<g id="node7" class="node">
<title>Node7</title>
<g id="a_node7"><a xlink:href="AccelerationConfiguration_8hpp.html" target="_top" xlink:title=" ">
<polygon fill="white" stroke="black" points="357.5,-78.5 357.5,-108.5 524.5,-108.5 524.5,-78.5 357.5,-78.5"/>
<text text-anchor="start" x="365.5" y="-96.5" font-family="Helvetica,sans-Serif" font-size="10.00">src/acceleration/config</text>
<text text-anchor="middle" x="441" y="-85.5" font-family="Helvetica,sans-Serif" font-size="10.00">/AccelerationConfiguration.hpp</text>
</a>
</g>
</g>
<!-- Node5&#45;&gt;Node7 -->
<g id="edge6" class="edge">
<title>Node5&#45;&gt;Node7</title>
<path fill="none" stroke="midnightblue" d="M645.59,-148.34C603.76,-137.33 539.7,-120.47 494.42,-108.56"/>
<polygon fill="midnightblue" stroke="midnightblue" points="644.89,-151.78 655.46,-150.94 646.68,-145.01 644.89,-151.78"/>
</g>
<!-- Node8 -->
<g id="node8" class="node">
<title>Node8</title>
<g id="a_node8"><a xlink:href="AccelerationSerialTest_8cpp.html" target="_top" xlink:title=" ">
<polygon fill="white" stroke="black" points="0,-6 0,-36 148,-36 148,-6 0,-6"/>
<text text-anchor="start" x="8" y="-24" font-family="Helvetica,sans-Serif" font-size="10.00">src/acceleration/test</text>
<text text-anchor="middle" x="74" y="-13" font-family="Helvetica,sans-Serif" font-size="10.00">/AccelerationSerialTest.cpp</text>
</a>
</g>
</g>
<!-- Node5&#45;&gt;Node8 -->
<g id="edge14" class="edge">
<title>Node5&#45;&gt;Node8</title>
<path fill="none" stroke="midnightblue" d="M611.93,-149.64C527.51,-138.45 396.74,-120.28 348,-109 261.93,-89.08 163.9,-55.12 111.59,-36.05"/>
<polygon fill="midnightblue" stroke="midnightblue" points="611.61,-153.13 621.99,-150.97 612.53,-146.19 611.61,-153.13"/>
</g>
<!-- Node5&#45;&gt;Node12 -->
<g id="edge12" class="edge">
<title>Node5&#45;&gt;Node12</title>
<path fill="none" stroke="midnightblue" d="M722.96,-147.6C760.83,-134.71 820.31,-114.47 853.84,-103.06"/>
<polygon fill="midnightblue" stroke="midnightblue" points="721.7,-144.33 713.36,-150.87 723.96,-150.96 721.7,-144.33"/>
</g>
<!-- Node13 -->
<g id="node13" class="node">
<title>Node13</title>
<g id="a_node13"><a xlink:href="AccelerationIntraCommTest_8cpp.html" target="_top" xlink:title=" ">
<polygon fill="white" stroke="black" points="542.5,-78.5 542.5,-108.5 717.5,-108.5 717.5,-78.5 542.5,-78.5"/>
<text text-anchor="start" x="550.5" y="-96.5" font-family="Helvetica,sans-Serif" font-size="10.00">src/acceleration/test</text>
<text text-anchor="middle" x="630" y="-85.5" font-family="Helvetica,sans-Serif" font-size="10.00">/AccelerationIntraCommTest.cpp</text>
</a>
</g>
</g>
<!-- Node5&#45;&gt;Node13 -->
<g id="edge13" class="edge">
<title>Node5&#45;&gt;Node13</title>
<path fill="none" stroke="midnightblue" d="M673.27,-142.99C663.79,-132.36 651.6,-118.7 642.57,-108.59"/>
<polygon fill="midnightblue" stroke="midnightblue" points="670.91,-145.6 680.18,-150.73 676.13,-140.94 670.91,-145.6"/>
</g>
<!-- Node7&#45;&gt;Node6 -->
<g id="edge7" class="edge">
<title>Node7&#45;&gt;Node6</title>
<path fill="none" stroke="midnightblue" d="M534.68,-77.64C593.24,-68.09 670.15,-55.06 738,-42 747.57,-40.16 757.67,-38.1 767.54,-36.03"/>
<polygon fill="midnightblue" stroke="midnightblue" points="534.02,-74.2 524.71,-79.26 535.14,-81.11 534.02,-74.2"/>
</g>
<!-- Node7&#45;&gt;Node8 -->
<g id="edge8" class="edge">
<title>Node7&#45;&gt;Node8</title>
<path fill="none" stroke="midnightblue" d="M347.32,-77.31C291.82,-67.94 220.22,-55.22 157,-42 148.3,-40.18 139.11,-38.11 130.15,-36.02"/>
<polygon fill="midnightblue" stroke="midnightblue" points="347.04,-80.81 357.48,-79.02 348.2,-73.91 347.04,-80.81"/>
</g>
<!-- Node9 -->
<g id="node9" class="node">
<title>Node9</title>
<g id="a_node9"><a xlink:href="CouplingSchemeConfiguration_8cpp.html" target="_top" xlink:title=" ">
<polygon fill="white" stroke="black" points="542.5,-6 542.5,-36 729.5,-36 729.5,-6 542.5,-6"/>
<text text-anchor="start" x="550.5" y="-24" font-family="Helvetica,sans-Serif" font-size="10.00">src/cplscheme/config</text>
<text text-anchor="middle" x="636" y="-13" font-family="Helvetica,sans-Serif" font-size="10.00">/CouplingSchemeConfiguration.cpp</text>
</a>
</g>
</g>
<!-- Node7&#45;&gt;Node9 -->
<g id="edge9" class="edge">
<title>Node7&#45;&gt;Node9</title>
<path fill="none" stroke="midnightblue" d="M489.5,-74.96C522.7,-62.96 566.14,-47.26 597.08,-36.07"/>
<polygon fill="midnightblue" stroke="midnightblue" points="488.21,-71.71 479.99,-78.4 490.59,-78.29 488.21,-71.71"/>
</g>
<!-- Node10 -->
<g id="node10" class="node">
<title>Node10</title>
<g id="a_node10"><a xlink:href="ParallelImplicitCouplingSchemeTest_8cpp.html" target="_top" xlink:title=" ">
<polygon fill="white" stroke="black" points="166,-0.5 166,-41.5 340,-41.5 340,-0.5 166,-0.5"/>
<text text-anchor="start" x="174" y="-29.5" font-family="Helvetica,sans-Serif" font-size="10.00">src/cplscheme/tests</text>
<text text-anchor="start" x="174" y="-18.5" font-family="Helvetica,sans-Serif" font-size="10.00">/ParallelImplicitCouplingScheme</text>
<text text-anchor="middle" x="253" y="-7.5" font-family="Helvetica,sans-Serif" font-size="10.00">Test.cpp</text>
</a>
</g>
</g>
<!-- Node7&#45;&gt;Node10 -->
<g id="edge10" class="edge">
<title>Node7&#45;&gt;Node10</title>
<path fill="none" stroke="midnightblue" d="M393.8,-74.8C366.81,-64.68 332.9,-51.96 305.12,-41.55"/>
<polygon fill="midnightblue" stroke="midnightblue" points="392.81,-78.17 403.41,-78.4 395.27,-71.61 392.81,-78.17"/>
</g>
<!-- Node11 -->
<g id="node11" class="node">
<title>Node11</title>
<g id="a_node11"><a xlink:href="SerialImplicitCouplingSchemeTest_8cpp.html" target="_top" xlink:title=" ">
<polygon fill="white" stroke="black" points="358,-0.5 358,-41.5 524,-41.5 524,-0.5 358,-0.5"/>
<text text-anchor="start" x="366" y="-29.5" font-family="Helvetica,sans-Serif" font-size="10.00">src/cplscheme/tests</text>
<text text-anchor="start" x="366" y="-18.5" font-family="Helvetica,sans-Serif" font-size="10.00">/SerialImplicitCouplingScheme</text>
<text text-anchor="middle" x="441" y="-7.5" font-family="Helvetica,sans-Serif" font-size="10.00">Test.cpp</text>
</a>
</g>
</g>
<!-- Node7&#45;&gt;Node11 -->
<g id="edge11" class="edge">
<title>Node7&#45;&gt;Node11</title>
<path fill="none" stroke="midnightblue" d="M441,-67.98C441,-59.35 441,-49.76 441,-41.59"/>
<polygon fill="midnightblue" stroke="midnightblue" points="437.5,-68.23 441,-78.23 444.5,-68.23 437.5,-68.23"/>
</g>
</g>
</svg>
        <g id="navigator" transform="translate(0 0)" fill="#404254">
                <rect fill="#f2f5e9" fill-opacity="0.5" stroke="#606060" stroke-width=".5" x="0" y="0" width="60" height="60"/>
                <use id="zoomplus" xlink:href="#zoomPlus" x="17" y="9" onmousedown="handleZoom(evt,'in')"/>
                <use id="zoomminus" xlink:href="#zoomMin" x="42" y="9" onmousedown="handleZoom(evt,'out')"/>
                <use id="reset" xlink:href="#resetDef" x="30" y="36" onmousedown="handleReset()"/>
                <g id="arrowUp" xlink:href="#dirArrow" transform="translate(30 24)" onmousedown="handlePan(0,-1)">
                  <use xlink:href="#rim" fill="#404040">
                        <set attributeName="fill" to="#808080" begin="arrowUp.mouseover" end="arrowUp.mouseout"/>
                  </use>
                  <path fill="none" stroke="white" stroke-width="1.5" d="M0,-3.0v7 M-2.5,-0.5L0,-3.0L2.5,-0.5"/>
                </g>
                <g id="arrowRight" xlink:href="#dirArrow" transform="rotate(90) translate(36 -43)" onmousedown="handlePan(1,0)">
                  <use xlink:href="#rim" fill="#404040">
                        <set attributeName="fill" to="#808080" begin="arrowRight.mouseover" end="arrowRight.mouseout"/>
                  </use>
                  <path fill="none" stroke="white" stroke-width="1.5" d="M0,-3.0v7 M-2.5,-0.5L0,-3.0L2.5,-0.5"/>
                </g>
                <g id="arrowDown" xlink:href="#dirArrow" transform="rotate(180) translate(-30 -48)" onmousedown="handlePan(0,1)">
                  <use xlink:href="#rim" fill="#404040">
                        <set attributeName="fill" to="#808080" begin="arrowDown.mouseover" end="arrowDown.mouseout"/>
                  </use>
                  <path fill="none" stroke="white" stroke-width="1.5" d="M0,-3.0v7 M-2.5,-0.5L0,-3.0L2.5,-0.5"/>
                </g>
                <g id="arrowLeft" xlink:href="#dirArrow" transform="rotate(270) translate(-36 17)" onmousedown="handlePan(-1,0)">
                  <use xlink:href="#rim" fill="#404040">
                        <set attributeName="fill" to="#808080" begin="arrowLeft.mouseover" end="arrowLeft.mouseout"/>
                  </use>
                  <path fill="none" stroke="white" stroke-width="1.5" d="M0,-3.0v7 M-2.5,-0.5L0,-3.0L2.5,-0.5"/>
                </g>
        </g>
        <svg viewBox="0 0 15 15" width="100%" height="30px" preserveAspectRatio="xMaxYMin meet">
         <g id="arrow_out" transform="scale(0.3 0.3)">
          <a xlink:href="ParallelMatrixOperations_8hpp__dep__incl_org.svg" target="_base">
           <rect id="button" ry="5" rx="5" y="6" x="6" height="38" width="38"
                fill="#f2f5e9" fill-opacity="0.5" stroke="#606060" stroke-width="1.0"/>
           <path id="arrow"
             d="M 11.500037,31.436501 C 11.940474,20.09759 22.043105,11.32322 32.158766,21.979434 L 37.068811,17.246167 C 37.068811,17.246167 37.088388,32 37.088388,32 L 22.160133,31.978069 C 22.160133,31.978069 26.997745,27.140456 26.997745,27.140456 C 18.528582,18.264221 13.291696,25.230495 11.500037,31.436501 z"
             style="fill:#404040;"/>
          </a>
         </g>
        </svg>
</svg>
