<?xml version="1.0" encoding="UTF-8" standalone="no"?>
<!DOCTYPE svg PUBLIC "-//W3C//DTD SVG 1.1//EN"
 "http://www.w3.org/Graphics/SVG/1.1/DTD/svg11.dtd">
<!-- Generated by graphviz version 2.43.0 (0)
 -->
<!-- Title: BOOST_AUTO_TEST_CASE Pages: 1 -->
<svg width="840pt" height="364pt"
 viewBox="0.00 0.00 840.00 364.00" xmlns="http://www.w3.org/2000/svg" xmlns:xlink="http://www.w3.org/1999/xlink">
<g id="graph0" class="graph" transform="scale(1 1) rotate(0) translate(4 360)">
<title>BOOST_AUTO_TEST_CASE</title>
<!-- Node1 -->
<g id="Node000001" class="node">
<title>Node1</title>
<g id="a_Node000001"><a xlink:title=" ">
<polygon fill="#999999" stroke="#666666" points="143,-182.5 0,-182.5 0,-163.5 143,-163.5 143,-182.5"/>
<text text-anchor="middle" x="71.5" y="-170.5" font-family="Helvetica,sans-Serif" font-size="10.00">BOOST_AUTO_TEST_CASE</text>
</a>
</g>
</g>
<!-- Node2 -->
<g id="Node000002" class="node">
<title>Node2</title>
<g id="a_Node000002"><a xlink:href="PointToPointCommunicationTest_8cpp.html#a848b966e32267d20397b9a22a1b76f1d" target="_top" xlink:title=" ">
<polygon fill="white" stroke="#666666" points="355,-188 179,-188 179,-158 355,-158 355,-188"/>
<text text-anchor="start" x="187" y="-176" font-family="Helvetica,sans-Serif" font-size="10.00">runP2PComLocalCommunication</text>
<text text-anchor="middle" x="267" y="-165" font-family="Helvetica,sans-Serif" font-size="10.00">MapTest</text>
</a>
</g>
</g>
<!-- Node1&#45;&gt;Node2 -->
<g id="edge1_Node000001_Node000002" class="edge">
<title>Node1&#45;&gt;Node2</title>
<g id="a_edge1_Node000001_Node000002"><a xlink:title=" ">
<path fill="none" stroke="#63b8ff" d="M143.18,-173C151.48,-173 160.06,-173 168.65,-173"/>
<polygon fill="#63b8ff" stroke="#63b8ff" points="168.71,-176.5 178.71,-173 168.71,-169.5 168.71,-176.5"/>
</a>
</g>
</g>
<!-- Node3 -->
<g id="Node000003" class="node">
<title>Node3</title>
<g id="a_Node000003"><a xlink:href="classprecice_1_1m2n_1_1PointToPointCommunication.html#a576eb87ad9657fa382bc0c53586d9a74" target="_top" xlink:title="Accepts connection from participant, which has to call requestPreConnection(). Only initial connectio...">
<polygon fill="white" stroke="#666666" points="615,-356 412,-356 412,-326 615,-326 615,-356"/>
<text text-anchor="start" x="420" y="-344" font-family="Helvetica,sans-Serif" font-size="10.00">precice::m2n::PointToPoint</text>
<text text-anchor="middle" x="513.5" y="-333" font-family="Helvetica,sans-Serif" font-size="10.00">Communication::acceptPreConnection</text>
</a>
</g>
</g>
<!-- Node2&#45;&gt;Node3 -->
<g id="edge2_Node000002_Node000003" class="edge">
<title>Node2&#45;&gt;Node3</title>
<g id="a_edge2_Node000002_Node000003"><a xlink:title=" ">
<path fill="none" stroke="#63b8ff" d="M276.2,-188.12C293.26,-218.02 335.66,-284.62 391,-317 394.65,-319.14 398.46,-321.09 402.38,-322.87"/>
<polygon fill="#63b8ff" stroke="#63b8ff" points="401.13,-326.14 411.71,-326.72 403.81,-319.67 401.13,-326.14"/>
</a>
</g>
</g>
<!-- Node6 -->
<g id="Node000006" class="node">
<title>Node6</title>
<g id="a_Node000006"><a xlink:href="classprecice_1_1m2n_1_1PointToPointCommunication.html#a3043e40bd5438be1e163bffe6f325cda" target="_top" xlink:title="Gathers a communication maps from connected ranks on remote participant.">
<polygon fill="white" stroke="#666666" points="634.5,-260 392.5,-260 392.5,-230 634.5,-230 634.5,-260"/>
<text text-anchor="start" x="400.5" y="-248" font-family="Helvetica,sans-Serif" font-size="10.00">precice::m2n::PointToPoint</text>
<text text-anchor="middle" x="513.5" y="-237" font-family="Helvetica,sans-Serif" font-size="10.00">Communication::gatherAllCommunicationMap</text>
</a>
</g>
</g>
<!-- Node2&#45;&gt;Node6 -->
<g id="edge5_Node000002_Node000006" class="edge">
<title>Node2&#45;&gt;Node6</title>
<g id="a_edge5_Node000002_Node000006"><a xlink:title=" ">
<path fill="none" stroke="#63b8ff" d="M301.9,-188.1C326.29,-198.51 360.19,-212.02 391,-221 399.25,-223.4 407.88,-225.64 416.58,-227.71"/>
<polygon fill="#63b8ff" stroke="#63b8ff" points="415.88,-231.14 426.41,-229.97 417.45,-224.32 415.88,-231.14"/>
</a>
</g>
</g>
<!-- Node7 -->
<g id="Node000007" class="node">
<title>Node7</title>
<g id="a_Node000007"><a xlink:href="classprecice_1_1testing_1_1TestContext.html#ab410f680ed3f84ee3994cbb1eb49a217" target="_top" xlink:title="Check whether this context has a given size.">
<polygon fill="white" stroke="#666666" points="591,-212 436,-212 436,-182 591,-182 591,-212"/>
<text text-anchor="start" x="444" y="-200" font-family="Helvetica,sans-Serif" font-size="10.00">precice::testing::TestContext</text>
<text text-anchor="middle" x="513.5" y="-189" font-family="Helvetica,sans-Serif" font-size="10.00">::hasSize</text>
</a>
</g>
</g>
<!-- Node2&#45;&gt;Node7 -->
<g id="edge6_Node000002_Node000007" class="edge">
<title>Node2&#45;&gt;Node7</title>
<g id="a_edge6_Node000002_Node000007"><a xlink:title=" ">
<path fill="none" stroke="#63b8ff" d="M355.23,-181.56C378.17,-183.81 402.9,-186.24 425.81,-188.49"/>
<polygon fill="#63b8ff" stroke="#63b8ff" points="425.56,-191.98 435.85,-189.48 426.24,-185.02 425.56,-191.98"/>
</a>
</g>
</g>
<!-- Node8 -->
<g id="Node000008" class="node">
<title>Node8</title>
<g id="a_Node000008"><a xlink:href="classprecice_1_1testing_1_1TestContext.html#a87ef3b67f676b69dfb8c4cfc2e8df819" target="_top" xlink:title="Check whether this context has a given name.">
<polygon fill="white" stroke="#666666" points="591,-164 436,-164 436,-134 591,-134 591,-164"/>
<text text-anchor="start" x="444" y="-152" font-family="Helvetica,sans-Serif" font-size="10.00">precice::testing::TestContext</text>
<text text-anchor="middle" x="513.5" y="-141" font-family="Helvetica,sans-Serif" font-size="10.00">::isNamed</text>
</a>
</g>
</g>
<!-- Node2&#45;&gt;Node8 -->
<g id="edge7_Node000002_Node000008" class="edge">
<title>Node2&#45;&gt;Node8</title>
<g id="a_edge7_Node000002_Node000008"><a xlink:title=" ">
<path fill="none" stroke="#63b8ff" d="M355.23,-164.44C378.17,-162.19 402.9,-159.76 425.81,-157.51"/>
<polygon fill="#63b8ff" stroke="#63b8ff" points="426.24,-160.98 435.85,-156.52 425.56,-154.02 426.24,-160.98"/>
</a>
</g>
</g>
<!-- Node9 -->
<g id="Node000009" class="node">
<title>Node9</title>
<g id="a_Node000009"><a xlink:href="classprecice_1_1testing_1_1TestContext.html#a32c92cb8b82149ed3f80981f9c24fd61" target="_top" xlink:title=" ">
<polygon fill="white" stroke="#666666" points="591,-116 436,-116 436,-86 591,-86 591,-116"/>
<text text-anchor="start" x="444" y="-104" font-family="Helvetica,sans-Serif" font-size="10.00">precice::testing::TestContext</text>
<text text-anchor="middle" x="513.5" y="-93" font-family="Helvetica,sans-Serif" font-size="10.00">::isPrimary</text>
</a>
</g>
</g>
<!-- Node2&#45;&gt;Node9 -->
<g id="edge8_Node000002_Node000009" class="edge">
<title>Node2&#45;&gt;Node9</title>
<g id="a_edge8_Node000002_Node000009"><a xlink:title=" ">
<path fill="none" stroke="#63b8ff" d="M301.9,-157.9C326.29,-147.49 360.19,-133.98 391,-125 402.21,-121.73 414.13,-118.77 425.95,-116.14"/>
<polygon fill="#63b8ff" stroke="#63b8ff" points="426.81,-119.53 435.85,-114 425.33,-112.69 426.81,-119.53"/>
</a>
</g>
</g>
<!-- Node11 -->
<g id="Node000011" class="node">
<title>Node11</title>
<g id="a_Node000011"><a xlink:href="namespaceprecice_1_1testing.html#a08533fd83bad3d7f27ea7f4a35a14aa4" target="_top" xlink:title=" ">
<polygon fill="white" stroke="#666666" points="591.5,-67.5 435.5,-67.5 435.5,-48.5 591.5,-48.5 591.5,-67.5"/>
<text text-anchor="middle" x="513.5" y="-55.5" font-family="Helvetica,sans-Serif" font-size="10.00">precice::testing::nextMeshID</text>
</a>
</g>
</g>
<!-- Node2&#45;&gt;Node11 -->
<g id="edge10_Node000002_Node000011" class="edge">
<title>Node2&#45;&gt;Node11</title>
<g id="a_edge10_Node000002_Node000011"><a xlink:title=" ">
<path fill="none" stroke="#63b8ff" d="M282.26,-157.77C303.63,-135.97 346.26,-96.39 391,-77 401.79,-72.32 413.56,-68.78 425.39,-66.1"/>
<polygon fill="#63b8ff" stroke="#63b8ff" points="426.24,-69.5 435.32,-64.04 424.82,-62.64 426.24,-69.5"/>
</a>
</g>
</g>
<!-- Node13 -->
<g id="Node000013" class="node">
<title>Node13</title>
<g id="a_Node000013"><a xlink:href="classprecice_1_1m2n_1_1PointToPointCommunication.html#a7749362861e7d56aa946c3b428a51dde" target="_top" xlink:title="Requests connection from participant, which has to call acceptConnection(). Only initial connection i...">
<polygon fill="white" stroke="#666666" points="617,-308 410,-308 410,-278 617,-278 617,-308"/>
<text text-anchor="start" x="418" y="-296" font-family="Helvetica,sans-Serif" font-size="10.00">precice::m2n::PointToPoint</text>
<text text-anchor="middle" x="513.5" y="-285" font-family="Helvetica,sans-Serif" font-size="10.00">Communication::requestPreConnection</text>
</a>
</g>
</g>
<!-- Node2&#45;&gt;Node13 -->
<g id="edge12_Node000002_Node000013" class="edge">
<title>Node2&#45;&gt;Node13</title>
<g id="a_edge12_Node000002_Node000013"><a xlink:title=" ">
<path fill="none" stroke="#63b8ff" d="M282.72,-188.36C304.34,-209.94 346.9,-248.84 391,-269 395.59,-271.1 400.35,-273.01 405.23,-274.76"/>
<polygon fill="#63b8ff" stroke="#63b8ff" points="404.13,-278.08 414.72,-277.92 406.34,-271.44 404.13,-278.08"/>
</a>
</g>
</g>
<!-- Node14 -->
<g id="Node000014" class="node">
<title>Node14</title>
<g id="a_Node000014"><a xlink:href="classprecice_1_1m2n_1_1PointToPointCommunication.html#a0a206c11255ec45e420dcb539fb02820" target="_top" xlink:title="Scatters a communication map over connected ranks on remote participant.">
<polygon fill="white" stroke="#666666" points="636,-30 391,-30 391,0 636,0 636,-30"/>
<text text-anchor="start" x="399" y="-18" font-family="Helvetica,sans-Serif" font-size="10.00">precice::m2n::PointToPoint</text>
<text text-anchor="middle" x="513.5" y="-7" font-family="Helvetica,sans-Serif" font-size="10.00">Communication::scatterAllCommunicationMap</text>
</a>
</g>
</g>
<!-- Node2&#45;&gt;Node14 -->
<g id="edge15_Node000002_Node000014" class="edge">
<title>Node2&#45;&gt;Node14</title>
<g id="a_edge15_Node000002_Node000014"><a xlink:title=" ">
<path fill="none" stroke="#63b8ff" d="M277.31,-157.63C295.38,-129.22 338.13,-68.68 391,-39 394.24,-37.18 397.59,-35.5 401.03,-33.95"/>
<polygon fill="#63b8ff" stroke="#63b8ff" points="402.4,-37.17 410.31,-30.12 399.73,-30.69 402.4,-37.17"/>
</a>
</g>
</g>
<!-- Node4 -->
<g id="Node000004" class="node">
<title>Node4</title>
<g id="a_Node000004"><a xlink:href="classprecice_1_1utils_1_1IntraComm.html#a2c2aa5e2fd6cc26797b7fdee0b0b25ac" target="_top" xlink:title="Current rank.">
<polygon fill="white" stroke="#666666" points="822,-356 682,-356 682,-326 822,-326 822,-356"/>
<text text-anchor="start" x="690" y="-344" font-family="Helvetica,sans-Serif" font-size="10.00">precice::utils::IntraComm</text>
<text text-anchor="middle" x="752" y="-333" font-family="Helvetica,sans-Serif" font-size="10.00">::getRank</text>
</a>
</g>
</g>
<!-- Node3&#45;&gt;Node4 -->
<g id="edge3_Node000003_Node000004" class="edge">
<title>Node3&#45;&gt;Node4</title>
<g id="a_edge3_Node000003_Node000004"><a xlink:title=" ">
<path fill="none" stroke="#63b8ff" d="M615.14,-341C634.04,-341 653.55,-341 671.69,-341"/>
<polygon fill="#63b8ff" stroke="#63b8ff" points="671.9,-344.5 681.9,-341 671.9,-337.5 671.9,-344.5"/>
</a>
</g>
</g>
<!-- Node5 -->
<g id="Node000005" class="node">
<title>Node5</title>
<g id="a_Node000005"><a xlink:href="classprecice_1_1m2n_1_1PointToPointCommunication.html#a3a8e2e7fc421ffb7a8a8e0730f875909" target="_top" xlink:title="Returns true, if a connection to a remote participant has been established.">
<polygon fill="white" stroke="#666666" points="832,-308 672,-308 672,-278 832,-278 832,-308"/>
<text text-anchor="start" x="680" y="-296" font-family="Helvetica,sans-Serif" font-size="10.00">precice::m2n::PointToPoint</text>
<text text-anchor="middle" x="752" y="-285" font-family="Helvetica,sans-Serif" font-size="10.00">Communication::isConnected</text>
</a>
</g>
</g>
<!-- Node3&#45;&gt;Node5 -->
<g id="edge4_Node000003_Node000005" class="edge">
<title>Node3&#45;&gt;Node5</title>
<g id="a_edge4_Node000003_Node000005"><a xlink:title=" ">
<path fill="none" stroke="#63b8ff" d="M591.33,-325.95C606.16,-323.01 621.57,-319.93 636,-317 646.9,-314.79 658.37,-312.43 669.68,-310.08"/>
<polygon fill="#63b8ff" stroke="#63b8ff" points="670.48,-313.49 679.56,-308.03 669.05,-306.64 670.48,-313.49"/>
</a>
</g>
</g>
<!-- Node10 -->
<g id="Node000010" class="node">
<title>Node10</title>
<g id="a_Node000010"><a xlink:href="classprecice_1_1testing_1_1TestContext.html#a09186fe2c05fb1de8fa4093f9686e7e4" target="_top" xlink:title="Check whether this context has a given rank inside the Participant.">
<polygon fill="white" stroke="#666666" points="829.5,-119 674.5,-119 674.5,-89 829.5,-89 829.5,-119"/>
<text text-anchor="start" x="682.5" y="-107" font-family="Helvetica,sans-Serif" font-size="10.00">precice::testing::TestContext</text>
<text text-anchor="middle" x="752" y="-96" font-family="Helvetica,sans-Serif" font-size="10.00">::isRank</text>
</a>
</g>
</g>
<!-- Node9&#45;&gt;Node10 -->
<g id="edge9_Node000009_Node000010" class="edge">
<title>Node9&#45;&gt;Node10</title>
<g id="a_edge9_Node000009_Node000010"><a xlink:title=" ">
<path fill="none" stroke="#63b8ff" d="M591.28,-101.97C614.53,-102.27 640.23,-102.59 664.09,-102.9"/>
<polygon fill="#63b8ff" stroke="#63b8ff" points="664.15,-106.4 674.2,-103.03 664.24,-99.4 664.15,-106.4"/>
</a>
</g>
</g>
<!-- Node12 -->
<g id="Node000012" class="node">
<title>Node12</title>
<g id="a_Node000012"><a xlink:href="classprecice_1_1utils_1_1ManageUniqueIDs.html#a02be264c279698ae293587b6576088b5" target="_top" xlink:title=" ">
<polygon fill="white" stroke="#666666" points="831,-71 673,-71 673,-41 831,-41 831,-71"/>
<text text-anchor="start" x="681" y="-59" font-family="Helvetica,sans-Serif" font-size="10.00">precice::utils::ManageUnique</text>
<text text-anchor="middle" x="752" y="-48" font-family="Helvetica,sans-Serif" font-size="10.00">IDs::getFreeID</text>
</a>
</g>
</g>
<!-- Node11&#45;&gt;Node12 -->
<g id="edge11_Node000011_Node000012" class="edge">
<title>Node11&#45;&gt;Node12</title>
<g id="a_edge11_Node000011_Node000012"><a xlink:title=" ">
<path fill="none" stroke="#63b8ff" d="M591.61,-57.35C614.27,-57.16 639.24,-56.95 662.55,-56.75"/>
<polygon fill="#63b8ff" stroke="#63b8ff" points="662.81,-60.25 672.78,-56.66 662.75,-53.25 662.81,-60.25"/>
</a>
</g>
</g>
<!-- Node13&#45;&gt;Node4 -->
<g id="edge13_Node000013_Node000004" class="edge">
<title>Node13&#45;&gt;Node4</title>
<g id="a_edge13_Node000013_Node000004"><a xlink:title=" ">
<path fill="none" stroke="#63b8ff" d="M591.33,-308.05C606.16,-310.99 621.57,-314.07 636,-317 647.56,-319.35 659.76,-321.86 671.72,-324.34"/>
<polygon fill="#63b8ff" stroke="#63b8ff" points="671.2,-327.8 681.7,-326.41 672.62,-320.95 671.2,-327.8"/>
</a>
</g>
</g>
<!-- Node13&#45;&gt;Node5 -->
<g id="edge14_Node000013_Node000005" class="edge">
<title>Node13&#45;&gt;Node5</title>
<g id="a_edge14_Node000013_Node000005"><a xlink:title=" ">
<path fill="none" stroke="#63b8ff" d="M617.2,-293C631.95,-293 647.02,-293 661.48,-293"/>
<polygon fill="#63b8ff" stroke="#63b8ff" points="661.89,-296.5 671.89,-293 661.89,-289.5 661.89,-296.5"/>
</a>
</g>
</g>
</g>
</svg>
