<?xml version="1.0" encoding="UTF-8" standalone="no"?>
<!DOCTYPE svg PUBLIC "-//W3C//DTD SVG 1.1//EN"
 "http://www.w3.org/Graphics/SVG/1.1/DTD/svg11.dtd">
<!-- Generated by graphviz version 2.43.0 (0)
 -->
<!-- Title: BOOST_AUTO_TEST_CASE Pages: 1 -->
<!--zoomable 309 -->

<svg id="main" version="1.1" xmlns="http://www.w3.org/2000/svg" xmlns:xlink="http://www.w3.org/1999/xlink" xml:space="preserve" onload="init(evt)">
<style type="text/css"><![CDATA[
.node, .edge {opacity: 0.7;}
.node.selected, .edge.selected {opacity: 1;}
.edge:hover path { stroke: red; }
.edge:hover polygon { stroke: red; fill: red; }
]]></style>

<defs>
  <circle id="rim" cx="0" cy="0" r="7"/>
  <circle id="rim2" cx="0" cy="0" r="3.5"/>
  <g id="zoomPlus">
    <use xlink:href="#rim" fill="#404040"><set attributeName="fill" to="#808080" begin="zoomplus.mouseover" end="zoomplus.mouseout"/></use>
    <path d="M-4,0h8M0,-4v8" fill="none" stroke="white" stroke-width="1.5" pointer-events="none"/>
  </g>
  <g id="zoomMin">
    <use xlink:href="#rim" fill="#404040"><set attributeName="fill" to="#808080" begin="zoomminus.mouseover" end="zoomminus.mouseout"/></use>
    <path d="M-4,0h8" fill="none" stroke="white" stroke-width="1.5" pointer-events="none"/>
  </g>
  <g id="arrowUp" transform="translate(30 24)">
    <use xlink:href="#rim"/>
    <path pointer-events="none" fill="none" stroke="white" stroke-width="1.5" d="M0,-3.0v7 M-2.5,-0.5L0,-3.0L2.5,-0.5"/>
  </g>
  <g id="arrowRight" transform="rotate(90) translate(36 -43)">
    <use xlink:href="#rim"/>
    <path pointer-events="none" fill="none" stroke="white" stroke-width="1.5" d="M0,-3.0v7 M-2.5,-0.5L0,-3.0L2.5,-0.5"/>
  </g>
  <g id="arrowDown" transform="rotate(180) translate(-30 -48)">
    <use xlink:href="#rim"/>
    <path pointer-events="none" fill="none" stroke="white" stroke-width="1.5" d="M0,-3.0v7 M-2.5,-0.5L0,-3.0L2.5,-0.5"/>
  </g>
  <g id="arrowLeft" transform="rotate(270) translate(-36 17)">
    <use xlink:href="#rim"/>
    <path pointer-events="none" fill="none" stroke="white" stroke-width="1.5" d="M0,-3.0v7 M-2.5,-0.5L0,-3.0L2.5,-0.5"/>
  </g>
  <g id="resetDef">
    <use xlink:href="#rim2" fill="#404040"><set attributeName="fill" to="#808080" begin="reset.mouseover" end="reset.mouseout"/></use>
  </g>
</defs>
<script type="application/ecmascript">
var viewWidth = 669;
var viewHeight = 309;
var sectionId = 'dynsection-2';
</script>
<script type="application/ecmascript" xlink:href="svg.min.js"/>
<svg id="graph" class="graph">
<g id="viewport">
<title>BOOST_AUTO_TEST_CASE</title>
<!-- Node1 -->
<g id="Node000001" class="node">
<title>Node1</title>
<g id="a_Node000001"><a xlink:title=" ">
<polygon fill="#999999" stroke="#666666" points="143,-152.5 0,-152.5 0,-133.5 143,-133.5 143,-152.5"/>
<text text-anchor="middle" x="71.5" y="-140.5" font-family="Helvetica,sans-Serif" font-size="10.00">BOOST_AUTO_TEST_CASE</text>
</a>
</g>
</g>
<!-- Node2 -->
<g id="Node000002" class="node">
<title>Node2</title>
<g id="a_Node000002"><a xlink:href="RadialBasisFctMappingTest_8cpp.html#a65a6d955459f02423c1b83ca4c788f1a" target="_top" xlink:title=" ">
<polygon fill="white" stroke="#666666" points="273,-152.5 179,-152.5 179,-133.5 273,-133.5 273,-152.5"/>
<text text-anchor="middle" x="226" y="-140.5" font-family="Helvetica,sans-Serif" font-size="10.00">testDeadAxis2d</text>
</a>
</g>
</g>
<!-- Node1&#45;&gt;Node2 -->
<g id="edge1_Node000001_Node000002" class="edge">
<title>Node1&#45;&gt;Node2</title>
<g id="a_edge1_Node000001_Node000002"><a xlink:title=" ">
<path fill="none" stroke="#63b8ff" d="M143.39,-143C151.81,-143 160.32,-143 168.51,-143"/>
<polygon fill="#63b8ff" stroke="#63b8ff" points="168.67,-146.5 178.67,-143 168.67,-139.5 168.67,-146.5"/>
</a>
</g>
</g>
<!-- Node3 -->
<g id="Node000003" class="node">
<title>Node3</title>
<g id="a_Node000003"><a xlink:href="PartitionOfUnityMappingTest_8cpp.html#a091feb1893c75899e59fa939e678debe" target="_top" xlink:title=" ">
<polygon fill="white" stroke="#666666" points="434.5,-294.5 341.5,-294.5 341.5,-275.5 434.5,-275.5 434.5,-294.5"/>
<text text-anchor="middle" x="388" y="-282.5" font-family="Helvetica,sans-Serif" font-size="10.00">addGlobalIndex</text>
</a>
</g>
</g>
<!-- Node2&#45;&gt;Node3 -->
<g id="edge2_Node000002_Node000003" class="edge">
<title>Node2&#45;&gt;Node3</title>
<g id="a_edge2_Node000002_Node000003"><a xlink:title=" ">
<path fill="none" stroke="#63b8ff" d="M230.6,-152.79C239.77,-176.28 266.32,-236.12 309,-266 315.74,-270.72 323.51,-274.27 331.49,-276.94"/>
<polygon fill="#63b8ff" stroke="#63b8ff" points="330.68,-280.35 341.26,-279.79 332.64,-273.63 330.68,-280.35"/>
</a>
</g>
</g>
<!-- Node4 -->
<g id="Node000004" class="node">
<title>Node4</title>
<g id="a_Node000004"><a xlink:href="classprecice_1_1mesh_1_1Mesh.html#af6e6d684553dc5d0f0a23cacb77b3fc7" target="_top" xlink:title="Creates and initializes a Vertex object.">
<polygon fill="white" stroke="#666666" points="446.5,-257 329.5,-257 329.5,-227 446.5,-227 446.5,-257"/>
<text text-anchor="start" x="337.5" y="-245" font-family="Helvetica,sans-Serif" font-size="10.00">precice::mesh::Mesh</text>
<text text-anchor="middle" x="388" y="-234" font-family="Helvetica,sans-Serif" font-size="10.00">::createVertex</text>
</a>
</g>
</g>
<!-- Node2&#45;&gt;Node4 -->
<g id="edge3_Node000002_Node000004" class="edge">
<title>Node2&#45;&gt;Node4</title>
<g id="a_edge3_Node000002_Node000004"><a xlink:title=" ">
<path fill="none" stroke="#63b8ff" d="M236.23,-152.84C250.57,-167.64 279.63,-195.74 309,-213 315.25,-216.67 322.05,-220.02 328.94,-223.03"/>
<polygon fill="#63b8ff" stroke="#63b8ff" points="327.77,-226.33 338.35,-226.92 330.45,-219.87 327.77,-226.33"/>
</a>
</g>
</g>
<!-- Node7 -->
<g id="Node000007" class="node">
<title>Node7</title>
<g id="a_Node000007"><a target="_parent" xlink:href="http://en.cppreference.com/w/cpp/container/deque/size.html#" xlink:title=" ">
<polygon fill="white" stroke="#666666" points="628.5,-226.5 535.5,-226.5 535.5,-207.5 628.5,-207.5 628.5,-226.5"/>
<text text-anchor="middle" x="582" y="-214.5" font-family="Helvetica,sans-Serif" font-size="10.00">std::deque::size</text>
</a>
</g>
</g>
<!-- Node2&#45;&gt;Node7 -->
<g id="edge16_Node000002_Node000007" class="edge">
<title>Node2&#45;&gt;Node7</title>
<g id="a_edge16_Node000002_Node000007"><a xlink:title=" ">
<path fill="none" stroke="#63b8ff" d="M244.35,-152.61C260.58,-161.17 285.73,-173.32 309,-180 382.09,-200.98 469.74,-210.18 525.41,-214.14"/>
<polygon fill="#63b8ff" stroke="#63b8ff" points="525.2,-217.63 535.42,-214.82 525.68,-210.65 525.2,-217.63"/>
</a>
</g>
</g>
<!-- Node8 -->
<g id="Node000008" class="node">
<title>Node8</title>
<g id="a_Node000008"><a xlink:href="namespaceprecice_1_1testing.html#a0819eba8ac83ede1db16e724dd4f5458" target="_top" xlink:title="equals to be used in tests. Compares two std::vectors using a given tolerance. Prints both operands o...">
<polygon fill="white" stroke="#666666" points="453,-152.5 323,-152.5 323,-133.5 453,-133.5 453,-152.5"/>
<text text-anchor="middle" x="388" y="-140.5" font-family="Helvetica,sans-Serif" font-size="10.00">precice::testing::equals</text>
</a>
</g>
</g>
<!-- Node2&#45;&gt;Node8 -->
<g id="edge7_Node000002_Node000008" class="edge">
<title>Node2&#45;&gt;Node8</title>
<g id="a_edge7_Node000002_Node000008"><a xlink:title=" ">
<path fill="none" stroke="#63b8ff" d="M273.28,-143C285.63,-143 299.3,-143 312.75,-143"/>
<polygon fill="#63b8ff" stroke="#63b8ff" points="312.97,-146.5 322.97,-143 312.97,-139.5 312.97,-146.5"/>
</a>
</g>
</g>
<!-- Node13 -->
<g id="Node000013" class="node">
<title>Node13</title>
<g id="a_Node000013"><a xlink:href="namespaceprecice_1_1testing.html#a08533fd83bad3d7f27ea7f4a35a14aa4" target="_top" xlink:title=" ">
<polygon fill="white" stroke="#666666" points="466,-115.5 310,-115.5 310,-96.5 466,-96.5 466,-115.5"/>
<text text-anchor="middle" x="388" y="-103.5" font-family="Helvetica,sans-Serif" font-size="10.00">precice::testing::nextMeshID</text>
</a>
</g>
</g>
<!-- Node2&#45;&gt;Node13 -->
<g id="edge13_Node000002_Node000013" class="edge">
<title>Node2&#45;&gt;Node13</title>
<g id="a_edge13_Node000002_Node000013"><a xlink:title=" ">
<path fill="none" stroke="#63b8ff" d="M268.2,-133.47C288.84,-128.7 314.02,-122.88 335.88,-117.82"/>
<polygon fill="#63b8ff" stroke="#63b8ff" points="336.7,-121.22 345.66,-115.56 335.13,-114.4 336.7,-121.22"/>
</a>
</g>
</g>
<!-- Node15 -->
<g id="Node000015" class="node">
<title>Node15</title>
<g id="a_Node000015"><a xlink:href="classprecice_1_1mesh_1_1Mesh.html#a02f0fe049261bbe1e82e0a00746b9313" target="_top" xlink:title=" ">
<polygon fill="white" stroke="#666666" points="467,-78 309,-78 309,-48 467,-48 467,-78"/>
<text text-anchor="start" x="317" y="-66" font-family="Helvetica,sans-Serif" font-size="10.00">precice::mesh::Mesh</text>
<text text-anchor="middle" x="388" y="-55" font-family="Helvetica,sans-Serif" font-size="10.00">::setGlobalNumberOfVertices</text>
</a>
</g>
</g>
<!-- Node2&#45;&gt;Node15 -->
<g id="edge15_Node000002_Node000015" class="edge">
<title>Node2&#45;&gt;Node15</title>
<g id="a_edge15_Node000002_Node000015"><a xlink:title=" ">
<path fill="none" stroke="#63b8ff" d="M238.85,-133.48C254.24,-121.49 282.3,-100.91 309,-88 313.6,-85.77 318.45,-83.68 323.38,-81.73"/>
<polygon fill="#63b8ff" stroke="#63b8ff" points="324.81,-84.93 332.94,-78.14 322.35,-78.38 324.81,-84.93"/>
</a>
</g>
</g>
<!-- Node16 -->
<g id="Node000016" class="node">
<title>Node16</title>
<g id="a_Node000016"><a xlink:href="classprecice_1_1mesh_1_1Mesh.html#a13faa9b03e5d20918ed6528db1415fa3" target="_top" xlink:title="Returns modifieable container holding all vertices.">
<polygon fill="white" stroke="#666666" points="446.5,-30 329.5,-30 329.5,0 446.5,0 446.5,-30"/>
<text text-anchor="start" x="337.5" y="-18" font-family="Helvetica,sans-Serif" font-size="10.00">precice::mesh::Mesh</text>
<text text-anchor="middle" x="388" y="-7" font-family="Helvetica,sans-Serif" font-size="10.00">::vertices</text>
</a>
</g>
</g>
<!-- Node2&#45;&gt;Node16 -->
<g id="edge17_Node000002_Node000016" class="edge">
<title>Node2&#45;&gt;Node16</title>
<g id="a_edge17_Node000002_Node000016"><a xlink:title=" ">
<path fill="none" stroke="#63b8ff" d="M231.94,-133.37C242.93,-112.88 271.45,-64.74 309,-39 312.48,-36.61 316.21,-34.46 320.09,-32.51"/>
<polygon fill="#63b8ff" stroke="#63b8ff" points="321.66,-35.64 329.33,-28.33 318.78,-29.26 321.66,-35.64"/>
</a>
</g>
</g>
<!-- Node5 -->
<g id="Node000005" class="node">
<title>Node5</title>
<g id="a_Node000005"><a target="_parent" xlink:href="http://en.cppreference.com/w/cpp/container/deque/back.html#" xlink:title=" ">
<polygon fill="white" stroke="#666666" points="630.5,-300.5 533.5,-300.5 533.5,-281.5 630.5,-281.5 630.5,-300.5"/>
<text text-anchor="middle" x="582" y="-288.5" font-family="Helvetica,sans-Serif" font-size="10.00">std::deque::back</text>
</a>
</g>
</g>
<!-- Node4&#45;&gt;Node5 -->
<g id="edge4_Node000004_Node000005" class="edge">
<title>Node4&#45;&gt;Node5</title>
<g id="a_edge4_Node000004_Node000005"><a xlink:title=" ">
<path fill="none" stroke="#63b8ff" d="M442.53,-257.02C461.58,-262.24 483.21,-268.03 503,-273 511.23,-275.07 519.98,-277.18 528.53,-279.18"/>
<polygon fill="#63b8ff" stroke="#63b8ff" points="527.89,-282.63 538.42,-281.49 529.48,-275.81 527.89,-282.63"/>
</a>
</g>
</g>
<!-- Node6 -->
<g id="Node000006" class="node">
<title>Node6</title>
<g id="a_Node000006"><a target="_parent" xlink:href="http://en.cppreference.com/w/cpp/container/deque/emplace_back.html#" xlink:title=" ">
<polygon fill="white" stroke="#666666" points="654,-263.5 510,-263.5 510,-244.5 654,-244.5 654,-263.5"/>
<text text-anchor="middle" x="582" y="-251.5" font-family="Helvetica,sans-Serif" font-size="10.00">std::deque::emplace_back</text>
</a>
</g>
</g>
<!-- Node4&#45;&gt;Node6 -->
<g id="edge5_Node000004_Node000006" class="edge">
<title>Node4&#45;&gt;Node6</title>
<g id="a_edge5_Node000004_Node000006"><a xlink:title=" ">
<path fill="none" stroke="#63b8ff" d="M446.61,-245.6C463.23,-246.64 481.69,-247.79 499.47,-248.9"/>
<polygon fill="#63b8ff" stroke="#63b8ff" points="499.64,-252.42 509.84,-249.55 500.08,-245.44 499.64,-252.42"/>
</a>
</g>
</g>
<!-- Node4&#45;&gt;Node7 -->
<g id="edge6_Node000004_Node000007" class="edge">
<title>Node4&#45;&gt;Node7</title>
<g id="a_edge6_Node000004_Node000007"><a xlink:title=" ">
<path fill="none" stroke="#63b8ff" d="M446.61,-234.5C471.56,-231.25 500.65,-227.46 525.37,-224.24"/>
<polygon fill="#63b8ff" stroke="#63b8ff" points="525.86,-227.71 535.32,-222.95 524.95,-220.77 525.86,-227.71"/>
</a>
</g>
</g>
<!-- Node8&#45;&gt;Node8 -->
<g id="edge11_Node000008_Node000008" class="edge">
<title>Node8&#45;&gt;Node8</title>
<g id="a_edge11_Node000008_Node000008"><a xlink:title=" ">
<path fill="none" stroke="#63b8ff" d="M363.03,-152.58C350.88,-161.23 359.21,-170.5 388,-170.5 406.9,-170.5 416.98,-166.51 418.24,-161.32"/>
<polygon fill="#63b8ff" stroke="#63b8ff" points="421.13,-159.34 412.97,-152.58 415.14,-162.95 421.13,-159.34"/>
</a>
</g>
</g>
<!-- Node9 -->
<g id="Node000009" class="node">
<title>Node9</title>
<g id="a_Node000009"><a target="_parent" xlink:href="http://en.cppreference.com/w/cpp/container/vector/begin.html#" xlink:title=" ">
<polygon fill="white" stroke="#666666" points="632.5,-189.5 531.5,-189.5 531.5,-170.5 632.5,-170.5 632.5,-189.5"/>
<text text-anchor="middle" x="582" y="-177.5" font-family="Helvetica,sans-Serif" font-size="10.00">std::vector::begin</text>
</a>
</g>
</g>
<!-- Node8&#45;&gt;Node9 -->
<g id="edge8_Node000008_Node000009" class="edge">
<title>Node8&#45;&gt;Node9</title>
<g id="a_edge8_Node000008_Node000009"><a xlink:title=" ">
<path fill="none" stroke="#63b8ff" d="M438.44,-152.53C463.77,-157.41 494.79,-163.39 521.42,-168.52"/>
<polygon fill="#63b8ff" stroke="#63b8ff" points="520.91,-171.98 531.39,-170.44 522.23,-165.11 520.91,-171.98"/>
</a>
</g>
</g>
<!-- Node10 -->
<g id="Node000010" class="node">
<title>Node10</title>
<g id="a_Node000010"><a target="_parent" xlink:href="http://en.cppreference.com/w/cpp/algorithm/copy.html#" xlink:title=" ">
<polygon fill="white" stroke="#666666" points="612.5,-152.5 551.5,-152.5 551.5,-133.5 612.5,-133.5 612.5,-152.5"/>
<text text-anchor="middle" x="582" y="-140.5" font-family="Helvetica,sans-Serif" font-size="10.00">std::copy</text>
</a>
</g>
</g>
<!-- Node8&#45;&gt;Node10 -->
<g id="edge9_Node000008_Node000010" class="edge">
<title>Node8&#45;&gt;Node10</title>
<g id="a_edge9_Node000008_Node000010"><a xlink:title=" ">
<path fill="none" stroke="#63b8ff" d="M453.2,-143C482.33,-143 515.86,-143 541.26,-143"/>
<polygon fill="#63b8ff" stroke="#63b8ff" points="541.27,-146.5 551.27,-143 541.27,-139.5 541.27,-146.5"/>
</a>
</g>
</g>
<!-- Node11 -->
<g id="Node000011" class="node">
<title>Node11</title>
<g id="a_Node000011"><a target="_parent" xlink:href="http://en.cppreference.com/w/cpp/container/vector/end.html#" xlink:title=" ">
<polygon fill="white" stroke="#666666" points="628,-115.5 536,-115.5 536,-96.5 628,-96.5 628,-115.5"/>
<text text-anchor="middle" x="582" y="-103.5" font-family="Helvetica,sans-Serif" font-size="10.00">std::vector::end</text>
</a>
</g>
</g>
<!-- Node8&#45;&gt;Node11 -->
<g id="edge10_Node000008_Node000011" class="edge">
<title>Node8&#45;&gt;Node11</title>
<g id="a_edge10_Node000008_Node000011"><a xlink:title=" ">
<path fill="none" stroke="#63b8ff" d="M438.44,-133.47C465.26,-128.3 498.47,-121.9 526.09,-116.58"/>
<polygon fill="#63b8ff" stroke="#63b8ff" points="526.84,-120 535.99,-114.67 525.51,-113.13 526.84,-120"/>
</a>
</g>
</g>
<!-- Node12 -->
<g id="Node000012" class="node">
<title>Node12</title>
<g id="a_Node000012"><a target="_parent" xlink:href="http://en.cppreference.com/w/cpp/container/vector/size.html#" xlink:title=" ">
<polygon fill="white" stroke="#666666" points="629,-78.5 535,-78.5 535,-59.5 629,-59.5 629,-78.5"/>
<text text-anchor="middle" x="582" y="-66.5" font-family="Helvetica,sans-Serif" font-size="10.00">std::vector::size</text>
</a>
</g>
</g>
<!-- Node8&#45;&gt;Node12 -->
<g id="edge12_Node000008_Node000012" class="edge">
<title>Node8&#45;&gt;Node12</title>
<g id="a_edge12_Node000008_Node000012"><a xlink:title=" ">
<path fill="none" stroke="#63b8ff" d="M447.47,-133.42C454.28,-131.17 460.95,-128.41 467,-125 486.99,-113.74 483.08,-99.38 503,-88 509.81,-84.11 517.39,-81.01 525.08,-78.55"/>
<polygon fill="#63b8ff" stroke="#63b8ff" points="526.17,-81.87 534.82,-75.75 524.24,-75.15 526.17,-81.87"/>
</a>
</g>
</g>
<!-- Node14 -->
<g id="Node000014" class="node">
<title>Node14</title>
<g id="a_Node000014"><a xlink:href="classprecice_1_1utils_1_1ManageUniqueIDs.html#a02be264c279698ae293587b6576088b5" target="_top" xlink:title=" ">
<polygon fill="white" stroke="#666666" points="661,-41 503,-41 503,-11 661,-11 661,-41"/>
<text text-anchor="start" x="511" y="-29" font-family="Helvetica,sans-Serif" font-size="10.00">precice::utils::ManageUnique</text>
<text text-anchor="middle" x="582" y="-18" font-family="Helvetica,sans-Serif" font-size="10.00">IDs::getFreeID</text>
</a>
</g>
</g>
<!-- Node13&#45;&gt;Node14 -->
<g id="edge14_Node000013_Node000014" class="edge">
<title>Node13&#45;&gt;Node14</title>
<g id="a_edge14_Node000013_Node000014"><a xlink:title=" ">
<path fill="none" stroke="#63b8ff" d="M445.03,-96.42C452.68,-93.96 460.22,-90.87 467,-87 486.92,-75.62 483.43,-61.97 503,-50 505.78,-48.3 508.69,-46.71 511.68,-45.23"/>
<polygon fill="#63b8ff" stroke="#63b8ff" points="513.19,-48.39 520.88,-41.09 510.32,-42.01 513.19,-48.39"/>
</a>
</g>
</g>
</g>
</svg>

<g id="navigator" transform="translate(0 0)" fill="#404254">
  <rect fill="#f2f5e9" fill-opacity="0.5" stroke="#606060" stroke-width=".5" x="0" y="0" width="60" height="60"/>
  <use id="zoomplus" xlink:href="#zoomPlus" x="17" y="9" onmousedown="handleZoom(evt,'in')"/>
  <use id="zoomminus" xlink:href="#zoomMin" x="42" y="9" onmousedown="handleZoom(evt,'out')"/>
  <use id="reset" xlink:href="#resetDef" x="30" y="36" onmousedown="handleReset()"/>
   <use id="arrowup" xlink:href="#arrowUp" x="0" y="0" onmousedown="handlePan(0,-1)"/>
  <use id="arrowright" xlink:href="#arrowRight" x="0" y="0" onmousedown="handlePan(1,0)"/>
  <use id="arrowdown" xlink:href="#arrowDown" x="0" y="0" onmousedown="handlePan(0,1)"/>
  <use id="arrowleft" xlink:href="#arrowLeft" x="0" y="0" onmousedown="handlePan(-1,0)"/>
</g>
<svg viewBox="0 0 15 15" width="100%" height="30px" preserveAspectRatio="xMaxYMin meet">
 <g id="arrow_out" transform="scale(0.3 0.3)">
  <a xlink:href="RadialBasisFctMappingTest_8cpp_a7e8ba6d6ba296140f28839907a1bc3c0_cgraph_org.svg" target="_base">
   <rect id="button" ry="5" rx="5" y="6" x="6" height="38" width="38"
        fill="#f2f5e9" fill-opacity="0.5" stroke="#606060" stroke-width="1.0"/>
   <path id="arrow"
     d="M 11.500037,31.436501 C 11.940474,20.09759 22.043105,11.32322 32.158766,21.979434 L 37.068811,17.246167 C 37.068811,17.246167 37.088388,32 37.088388,32 L 22.160133,31.978069 C 22.160133,31.978069 26.997745,27.140456 26.997745,27.140456 C 18.528582,18.264221 13.291696,25.230495 11.500037,31.436501 z"
     style="fill:#404040;"/>
  </a>
 </g>
</svg>

<style type='text/css'>
<![CDATA[
[data-mouse-over-selected='false'] { opacity: 0.7; }
[data-mouse-over-selected='true']  { opacity: 1.0; }
]]>
</style>
<script type="application/ecmascript"><![CDATA[
document.addEventListener('DOMContentLoaded', (event) => {
  highlightEdges();
  highlightAdjacentNodes();
});
]]></script>
</svg>
