<?xml version="1.0" encoding="UTF-8" standalone="no"?>
<!DOCTYPE svg PUBLIC "-//W3C//DTD SVG 1.1//EN"
 "http://www.w3.org/Graphics/SVG/1.1/DTD/svg11.dtd">
<!-- Generated by graphviz version 2.43.0 (0)
 -->
<!-- Title: BOOST_AUTO_TEST_CASE Pages: 1 -->
<!--zoomable 293 -->
<svg id="main" version="1.1" xmlns="http://www.w3.org/2000/svg" xmlns:xlink="http://www.w3.org/1999/xlink" xml:space="preserve" onload="init(evt)">
<style type="text/css"><![CDATA[
.edge:hover path { stroke: red; }
.edge:hover polygon { stroke: red; fill: red; }
]]></style>
<script type="text/javascript"><![CDATA[
var edges = document.getElementsByTagName('g');
if (edges && edges.length) {
  for (var i=0;i<edges.length;i++) {
    if (edges[i].id.substr(0,4)=='edge') {
      edges[i].setAttribute('class','edge');
    }
  }
}
]]></script>
        <defs>
                <circle id="rim" cx="0" cy="0" r="7"/>
                <circle id="rim2" cx="0" cy="0" r="3.5"/>
                <g id="zoomPlus">
                        <use xlink:href="#rim" fill="#404040">
                                <set attributeName="fill" to="#808080" begin="zoomplus.mouseover" end="zoomplus.mouseout"/>
                        </use>
                        <path d="M-4,0h8M0,-4v8" fill="none" stroke="white" stroke-width="1.5" pointer-events="none"/>
                </g>
                <g id="zoomMin">
                        <use xlink:href="#rim" fill="#404040">
                                <set attributeName="fill" to="#808080" begin="zoomminus.mouseover" end="zoomminus.mouseout"/>
                        </use>
                        <path d="M-4,0h8" fill="none" stroke="white" stroke-width="1.5" pointer-events="none"/>
                </g>
                <g id="dirArrow">
                        <path fill="none" stroke="white" stroke-width="1.5" d="M0,-3.0v7 M-2.5,-0.5L0,-3.0L2.5,-0.5"/>
                </g>
               <g id="resetDef">
                       <use xlink:href="#rim2" fill="#404040">
                               <set attributeName="fill" to="#808080" begin="reset.mouseover" end="reset.mouseout"/>
                       </use>
               </g>
        </defs>

<script type="text/javascript">
var viewWidth = 815;
var viewHeight = 293;
var sectionId = 'dynsection-2';
</script>
<script xlink:href="svgpan.js"/>
<svg id="graph" class="graph">
<g id="viewport">
<title>BOOST_AUTO_TEST_CASE</title>
<polygon fill="white" stroke="transparent" points="-4,4 -4,-289 811,-289 811,4 -4,4"/>
<!-- Node1 -->
<g id="node1" class="node">
<title>Node1</title>
<g id="a_node1"><a xlink:title=" ">
<polygon fill="#bfbfbf" stroke="black" points="0,-113 0,-132 143,-132 143,-113 0,-113"/>
<text text-anchor="middle" x="71.5" y="-120" font-family="Helvetica,sans-Serif" font-size="10.00">BOOST_AUTO_TEST_CASE</text>
</a>
</g>
</g>
<!-- Node2 -->
<g id="node2" class="node">
<title>Node2</title>
<g id="a_node2"><a xlink:href="classprecice_1_1query_1_1Index.html#a6274f24e063680f72f2d553700c6fb34" target="_top" xlink:title="Find the closest interpolation element to the given location. If exists, triangle or edge projection ...">
<polygon fill="white" stroke="black" points="179,-107.5 179,-137.5 307,-137.5 307,-107.5 179,-107.5"/>
<text text-anchor="start" x="187" y="-125.5" font-family="Helvetica,sans-Serif" font-size="10.00">precice::query::Index</text>
<text text-anchor="middle" x="243" y="-114.5" font-family="Helvetica,sans-Serif" font-size="10.00">::findNearestProjection</text>
</a>
</g>
</g>
<!-- Node1&#45;&gt;Node2 -->
<g id="edge1" class="edge">
<title>Node1&#45;&gt;Node2</title>
<path fill="none" stroke="midnightblue" d="M143.4,-122.5C151.79,-122.5 160.36,-122.5 168.77,-122.5"/>
<polygon fill="midnightblue" stroke="midnightblue" points="168.94,-126 178.94,-122.5 168.94,-119 168.94,-126"/>
</g>
<!-- Node3 -->
<g id="node3" class="node">
<title>Node3</title>
<g id="a_node3"><a xlink:href="classprecice_1_1query_1_1Index.html#a9915af4778d545e56a26dd2bea431ae8" target="_top" xlink:title="Find closest edge interpolation element. If cannot be found, it falls back to vertex projection.">
<polygon fill="white" stroke="black" points="507,-230.5 507,-260.5 625,-260.5 625,-230.5 507,-230.5"/>
<text text-anchor="start" x="515" y="-248.5" font-family="Helvetica,sans-Serif" font-size="10.00">precice::query::Index</text>
<text text-anchor="middle" x="566" y="-237.5" font-family="Helvetica,sans-Serif" font-size="10.00">::findEdgeProjection</text>
</a>
</g>
</g>
<!-- Node2&#45;&gt;Node3 -->
<g id="edge2" class="edge">
<title>Node2&#45;&gt;Node3</title>
<path fill="none" stroke="midnightblue" d="M271.22,-137.64C290.82,-148.2 318.09,-162.18 343,-172.5 395.56,-194.27 457.14,-214.09 502.09,-227.57"/>
<polygon fill="midnightblue" stroke="midnightblue" points="501.13,-230.93 511.71,-230.43 503.12,-224.22 501.13,-230.93"/>
</g>
<!-- Node7 -->
<g id="node7" class="node">
<title>Node7</title>
<g id="a_node7"><a xlink:href="classprecice_1_1query_1_1Index.html#acfc4fee3cfdaae2914a3cadf526f9f76" target="_top" xlink:title="Find closest face interpolation element. If cannot be found, it falls back to first edge interpolatio...">
<polygon fill="white" stroke="black" points="343,-132.5 343,-162.5 471,-162.5 471,-132.5 343,-132.5"/>
<text text-anchor="start" x="351" y="-150.5" font-family="Helvetica,sans-Serif" font-size="10.00">precice::query::Index</text>
<text text-anchor="middle" x="407" y="-139.5" font-family="Helvetica,sans-Serif" font-size="10.00">::findTriangleProjection</text>
</a>
</g>
</g>
<!-- Node2&#45;&gt;Node7 -->
<g id="edge6" class="edge">
<title>Node2&#45;&gt;Node7</title>
<path fill="none" stroke="midnightblue" d="M307.1,-132.24C315.53,-133.54 324.23,-134.88 332.81,-136.21"/>
<polygon fill="midnightblue" stroke="midnightblue" points="332.39,-139.68 342.81,-137.75 333.46,-132.76 332.39,-139.68"/>
</g>
<!-- Node10 -->
<g id="node10" class="node">
<title>Node10</title>
<g id="a_node10"><a xlink:href="classprecice_1_1query_1_1Index.html#aaa6bf329e94fe687df08dc7741954010" target="_top" xlink:title="Closest vertex projection element is always the nearest neighbor.">
<polygon fill="white" stroke="black" points="346.5,-63.5 346.5,-93.5 467.5,-93.5 467.5,-63.5 346.5,-63.5"/>
<text text-anchor="start" x="354.5" y="-81.5" font-family="Helvetica,sans-Serif" font-size="10.00">precice::query::Index</text>
<text text-anchor="middle" x="407" y="-70.5" font-family="Helvetica,sans-Serif" font-size="10.00">::findVertexProjection</text>
</a>
</g>
</g>
<!-- Node2&#45;&gt;Node10 -->
<g id="edge11" class="edge">
<title>Node2&#45;&gt;Node10</title>
<path fill="none" stroke="midnightblue" d="M299.3,-107.48C312.65,-103.85 327.04,-99.95 340.79,-96.21"/>
<polygon fill="midnightblue" stroke="midnightblue" points="341.94,-99.53 350.68,-93.53 340.11,-92.77 341.94,-99.53"/>
</g>
<!-- Node14 -->
<g id="node14" class="node">
<title>Node14</title>
<g id="a_node14"><a xlink:href="classprecice_1_1mesh_1_1Mesh.html#a136f6b4ce235025e418fab0ca5f350ff" target="_top" xlink:title=" ">
<polygon fill="white" stroke="black" points="348.5,-14.5 348.5,-44.5 465.5,-44.5 465.5,-14.5 348.5,-14.5"/>
<text text-anchor="start" x="356.5" y="-32.5" font-family="Helvetica,sans-Serif" font-size="10.00">precice::mesh::Mesh</text>
<text text-anchor="middle" x="407" y="-21.5" font-family="Helvetica,sans-Serif" font-size="10.00">::getDimensions</text>
</a>
</g>
</g>
<!-- Node2&#45;&gt;Node14 -->
<g id="edge16" class="edge">
<title>Node2&#45;&gt;Node14</title>
<path fill="none" stroke="midnightblue" d="M263.27,-107.33C282.64,-92.55 313.74,-70.1 343,-54.5 346.74,-52.51 350.67,-50.58 354.67,-48.74"/>
<polygon fill="midnightblue" stroke="midnightblue" points="356.31,-51.84 364.06,-44.61 353.49,-45.43 356.31,-51.84"/>
</g>
<!-- Node4 -->
<g id="node4" class="node">
<title>Node4</title>
<g id="a_node4"><a xlink:href="classprecice_1_1mapping_1_1Polation.html#a90b11bfde9c3f23b27a114a923ff4685" target="_top" xlink:title="Returns the projection distance.">
<polygon fill="white" stroke="black" points="661,-139.5 661,-169.5 807,-169.5 807,-139.5 661,-139.5"/>
<text text-anchor="start" x="669" y="-157.5" font-family="Helvetica,sans-Serif" font-size="10.00">precice::mapping::Polation</text>
<text text-anchor="middle" x="734" y="-146.5" font-family="Helvetica,sans-Serif" font-size="10.00">::distance</text>
</a>
</g>
</g>
<!-- Node3&#45;&gt;Node4 -->
<g id="edge3" class="edge">
<title>Node3&#45;&gt;Node4</title>
<path fill="none" stroke="midnightblue" d="M606.53,-230.48C612.82,-227.71 619.17,-224.68 625,-221.5 642.1,-212.17 644.57,-206.97 661,-196.5 672.55,-189.13 685.41,-181.47 697.03,-174.74"/>
<polygon fill="midnightblue" stroke="midnightblue" points="699.1,-177.58 706.03,-169.56 695.61,-171.51 699.1,-177.58"/>
</g>
<!-- Node5 -->
<g id="node5" class="node">
<title>Node5</title>
<g id="a_node5"><a xlink:href="classprecice_1_1mesh_1_1Mesh.html#a1208772095354f328cae1b087e64642e" target="_top" xlink:title="Returns modifiable container holding all edges.">
<polygon fill="white" stroke="black" points="675.5,-205.5 675.5,-235.5 792.5,-235.5 792.5,-205.5 675.5,-205.5"/>
<text text-anchor="start" x="683.5" y="-223.5" font-family="Helvetica,sans-Serif" font-size="10.00">precice::mesh::Mesh</text>
<text text-anchor="middle" x="734" y="-212.5" font-family="Helvetica,sans-Serif" font-size="10.00">::edges</text>
</a>
</g>
</g>
<!-- Node3&#45;&gt;Node5 -->
<g id="edge4" class="edge">
<title>Node3&#45;&gt;Node5</title>
<path fill="none" stroke="midnightblue" d="M625.06,-236.76C638.02,-234.8 651.88,-232.72 665.2,-230.71"/>
<polygon fill="midnightblue" stroke="midnightblue" points="665.89,-234.15 675.25,-229.2 664.84,-227.22 665.89,-234.15"/>
</g>
<!-- Node6 -->
<g id="node6" class="node">
<title>Node6</title>
<g id="a_node6"><a xlink:href="classprecice_1_1query_1_1Index.html#ad7246f8806501075e083cff367eb4813" target="_top" xlink:title="Get n number of closest edges to the given vertex.">
<polygon fill="white" stroke="black" points="675,-254.5 675,-284.5 793,-284.5 793,-254.5 675,-254.5"/>
<text text-anchor="start" x="683" y="-272.5" font-family="Helvetica,sans-Serif" font-size="10.00">precice::query::Index</text>
<text text-anchor="middle" x="734" y="-261.5" font-family="Helvetica,sans-Serif" font-size="10.00">::getClosestEdges</text>
</a>
</g>
</g>
<!-- Node3&#45;&gt;Node6 -->
<g id="edge5" class="edge">
<title>Node3&#45;&gt;Node6</title>
<path fill="none" stroke="midnightblue" d="M625.06,-253.89C637.95,-255.76 651.72,-257.75 664.97,-259.66"/>
<polygon fill="midnightblue" stroke="midnightblue" points="664.58,-263.14 674.97,-261.11 665.58,-256.22 664.58,-263.14"/>
</g>
<!-- Node7&#45;&gt;Node3 -->
<g id="edge8" class="edge">
<title>Node7&#45;&gt;Node3</title>
<path fill="none" stroke="midnightblue" d="M425.32,-162.56C444.38,-178.63 476.41,-204.1 507,-221.5 509.79,-223.09 512.72,-224.63 515.7,-226.11"/>
<polygon fill="midnightblue" stroke="midnightblue" points="514.21,-229.29 524.75,-230.38 517.2,-222.95 514.21,-229.29"/>
</g>
<!-- Node7&#45;&gt;Node4 -->
<g id="edge7" class="edge">
<title>Node7&#45;&gt;Node4</title>
<path fill="none" stroke="midnightblue" d="M459.98,-132.44C475.02,-128.76 491.55,-125.35 507,-123.5 559.07,-117.28 573.07,-116.19 625,-123.5 643.57,-126.11 663.42,-131.13 680.98,-136.39"/>
<polygon fill="midnightblue" stroke="midnightblue" points="680.43,-139.88 691.02,-139.49 682.5,-133.19 680.43,-139.88"/>
</g>
<!-- Node8 -->
<g id="node8" class="node">
<title>Node8</title>
<g id="a_node8"><a xlink:href="classprecice_1_1query_1_1Index.html#a7ea839d34f729a8bd497aaec52c5447a" target="_top" xlink:title="Get n number of closest triangles to the given vertex.">
<polygon fill="white" stroke="black" points="507,-132.5 507,-162.5 625,-162.5 625,-132.5 507,-132.5"/>
<text text-anchor="start" x="515" y="-150.5" font-family="Helvetica,sans-Serif" font-size="10.00">precice::query::Index</text>
<text text-anchor="middle" x="566" y="-139.5" font-family="Helvetica,sans-Serif" font-size="10.00">::getClosestTriangles</text>
</a>
</g>
</g>
<!-- Node7&#45;&gt;Node8 -->
<g id="edge9" class="edge">
<title>Node7&#45;&gt;Node8</title>
<path fill="none" stroke="midnightblue" d="M471.41,-147.5C479.75,-147.5 488.34,-147.5 496.77,-147.5"/>
<polygon fill="midnightblue" stroke="midnightblue" points="496.94,-151 506.94,-147.5 496.94,-144 496.94,-151"/>
</g>
<!-- Node9 -->
<g id="node9" class="node">
<title>Node9</title>
<g id="a_node9"><a xlink:href="classprecice_1_1mesh_1_1Mesh.html#ad74df9a7f4cb96c251d32c3159d67352" target="_top" xlink:title="Returns modifiable container holding all triangles.">
<polygon fill="white" stroke="black" points="507.5,-181.5 507.5,-211.5 624.5,-211.5 624.5,-181.5 507.5,-181.5"/>
<text text-anchor="start" x="515.5" y="-199.5" font-family="Helvetica,sans-Serif" font-size="10.00">precice::mesh::Mesh</text>
<text text-anchor="middle" x="566" y="-188.5" font-family="Helvetica,sans-Serif" font-size="10.00">::triangles</text>
</a>
</g>
</g>
<!-- Node7&#45;&gt;Node9 -->
<g id="edge10" class="edge">
<title>Node7&#45;&gt;Node9</title>
<path fill="none" stroke="midnightblue" d="M456.39,-162.6C472.43,-167.61 490.45,-173.23 507.13,-178.44"/>
<polygon fill="midnightblue" stroke="midnightblue" points="506.18,-181.81 516.77,-181.45 508.27,-175.13 506.18,-181.81"/>
</g>
<!-- Node11 -->
<g id="node11" class="node">
<title>Node11</title>
<g id="a_node11"><a xlink:href="classprecice_1_1query_1_1Index.html#a61ff793fd31c44ae072341d03f882a32" target="_top" xlink:title="Get the closest vertex to the given vertex.">
<polygon fill="white" stroke="black" points="507,-44.5 507,-74.5 625,-74.5 625,-44.5 507,-44.5"/>
<text text-anchor="start" x="515" y="-62.5" font-family="Helvetica,sans-Serif" font-size="10.00">precice::query::Index</text>
<text text-anchor="middle" x="566" y="-51.5" font-family="Helvetica,sans-Serif" font-size="10.00">::getClosestVertex</text>
</a>
</g>
</g>
<!-- Node10&#45;&gt;Node11 -->
<g id="edge12" class="edge">
<title>Node10&#45;&gt;Node11</title>
<path fill="none" stroke="midnightblue" d="M467.8,-71.26C477.32,-70.11 487.23,-68.91 496.92,-67.74"/>
<polygon fill="midnightblue" stroke="midnightblue" points="497.41,-71.21 506.92,-66.53 496.57,-64.26 497.41,-71.21"/>
</g>
<!-- Node13 -->
<g id="node13" class="node">
<title>Node13</title>
<g id="a_node13"><a xlink:href="classprecice_1_1mesh_1_1Mesh.html#a70d28ab188762edbe9a7b5b8439e9906" target="_top" xlink:title="Returns modifieable container holding all vertices.">
<polygon fill="white" stroke="black" points="675.5,-0.5 675.5,-30.5 792.5,-30.5 792.5,-0.5 675.5,-0.5"/>
<text text-anchor="start" x="683.5" y="-18.5" font-family="Helvetica,sans-Serif" font-size="10.00">precice::mesh::Mesh</text>
<text text-anchor="middle" x="734" y="-7.5" font-family="Helvetica,sans-Serif" font-size="10.00">::vertices</text>
</a>
</g>
</g>
<!-- Node10&#45;&gt;Node13 -->
<g id="edge15" class="edge">
<title>Node10&#45;&gt;Node13</title>
<path fill="none" stroke="midnightblue" d="M447.93,-63.41C455.65,-60.28 463.63,-56.9 471,-53.5 487.43,-45.93 489.64,-39.58 507,-34.5 558.64,-19.38 619.56,-14.99 665.12,-14.18"/>
<polygon fill="midnightblue" stroke="midnightblue" points="665.23,-17.68 675.19,-14.06 665.14,-10.68 665.23,-17.68"/>
</g>
<!-- Node12 -->
<g id="node12" class="node">
<title>Node12</title>
<g id="a_node12"><a xlink:href="classprecice_1_1mesh_1_1Mesh.html#a3185fe962ba3e8fe0b3cf451681e6a48" target="_top" xlink:title="Returns the name of the mesh, as set in the config file.">
<polygon fill="white" stroke="black" points="675.5,-49.5 675.5,-79.5 792.5,-79.5 792.5,-49.5 675.5,-49.5"/>
<text text-anchor="start" x="683.5" y="-67.5" font-family="Helvetica,sans-Serif" font-size="10.00">precice::mesh::Mesh</text>
<text text-anchor="middle" x="734" y="-56.5" font-family="Helvetica,sans-Serif" font-size="10.00">::getName</text>
</a>
</g>
</g>
<!-- Node11&#45;&gt;Node12 -->
<g id="edge13" class="edge">
<title>Node11&#45;&gt;Node12</title>
<path fill="none" stroke="midnightblue" d="M625.06,-61.25C638.02,-61.64 651.88,-62.06 665.2,-62.46"/>
<polygon fill="midnightblue" stroke="midnightblue" points="665.15,-65.96 675.25,-62.76 665.36,-58.96 665.15,-65.96"/>
</g>
<!-- Node11&#45;&gt;Node13 -->
<g id="edge14" class="edge">
<title>Node11&#45;&gt;Node13</title>
<path fill="none" stroke="midnightblue" d="M623.66,-44.48C637.48,-40.82 652.37,-36.87 666.6,-33.1"/>
<polygon fill="midnightblue" stroke="midnightblue" points="667.54,-36.47 676.31,-30.53 665.75,-29.71 667.54,-36.47"/>
</g>
</g>
</svg>
        <g id="navigator" transform="translate(0 0)" fill="#404254">
                <rect fill="#f2f5e9" fill-opacity="0.5" stroke="#606060" stroke-width=".5" x="0" y="0" width="60" height="60"/>
                <use id="zoomplus" xlink:href="#zoomPlus" x="17" y="9" onmousedown="handleZoom(evt,'in')"/>
                <use id="zoomminus" xlink:href="#zoomMin" x="42" y="9" onmousedown="handleZoom(evt,'out')"/>
                <use id="reset" xlink:href="#resetDef" x="30" y="36" onmousedown="handleReset()"/>
                <g id="arrowUp" xlink:href="#dirArrow" transform="translate(30 24)" onmousedown="handlePan(0,-1)">
                  <use xlink:href="#rim" fill="#404040">
                        <set attributeName="fill" to="#808080" begin="arrowUp.mouseover" end="arrowUp.mouseout"/>
                  </use>
                  <path fill="none" stroke="white" stroke-width="1.5" d="M0,-3.0v7 M-2.5,-0.5L0,-3.0L2.5,-0.5"/>
                </g>
                <g id="arrowRight" xlink:href="#dirArrow" transform="rotate(90) translate(36 -43)" onmousedown="handlePan(1,0)">
                  <use xlink:href="#rim" fill="#404040">
                        <set attributeName="fill" to="#808080" begin="arrowRight.mouseover" end="arrowRight.mouseout"/>
                  </use>
                  <path fill="none" stroke="white" stroke-width="1.5" d="M0,-3.0v7 M-2.5,-0.5L0,-3.0L2.5,-0.5"/>
                </g>
                <g id="arrowDown" xlink:href="#dirArrow" transform="rotate(180) translate(-30 -48)" onmousedown="handlePan(0,1)">
                  <use xlink:href="#rim" fill="#404040">
                        <set attributeName="fill" to="#808080" begin="arrowDown.mouseover" end="arrowDown.mouseout"/>
                  </use>
                  <path fill="none" stroke="white" stroke-width="1.5" d="M0,-3.0v7 M-2.5,-0.5L0,-3.0L2.5,-0.5"/>
                </g>
                <g id="arrowLeft" xlink:href="#dirArrow" transform="rotate(270) translate(-36 17)" onmousedown="handlePan(-1,0)">
                  <use xlink:href="#rim" fill="#404040">
                        <set attributeName="fill" to="#808080" begin="arrowLeft.mouseover" end="arrowLeft.mouseout"/>
                  </use>
                  <path fill="none" stroke="white" stroke-width="1.5" d="M0,-3.0v7 M-2.5,-0.5L0,-3.0L2.5,-0.5"/>
                </g>
        </g>
        <svg viewBox="0 0 15 15" width="100%" height="30px" preserveAspectRatio="xMaxYMin meet">
         <g id="arrow_out" transform="scale(0.3 0.3)">
          <a xlink:href="RTreeTests_8cpp_a5ec7376b6f8a9c596153760aa401aeab_cgraph_org.svg" target="_base">
           <rect id="button" ry="5" rx="5" y="6" x="6" height="38" width="38"
                fill="#f2f5e9" fill-opacity="0.5" stroke="#606060" stroke-width="1.0"/>
           <path id="arrow"
             d="M 11.500037,31.436501 C 11.940474,20.09759 22.043105,11.32322 32.158766,21.979434 L 37.068811,17.246167 C 37.068811,17.246167 37.088388,32 37.088388,32 L 22.160133,31.978069 C 22.160133,31.978069 26.997745,27.140456 26.997745,27.140456 C 18.528582,18.264221 13.291696,25.230495 11.500037,31.436501 z"
             style="fill:#404040;"/>
          </a>
         </g>
        </svg>
</svg>
