<?xml version="1.0" encoding="UTF-8" standalone="no"?>
<!DOCTYPE svg PUBLIC "-//W3C//DTD SVG 1.1//EN"
 "http://www.w3.org/Graphics/SVG/1.1/DTD/svg11.dtd">
<!-- Generated by graphviz version 2.43.0 (0)
 -->
<!-- Title: src/com/SocketCommunicationFactory.cpp Pages: 1 -->
<svg width="1967pt" height="554pt"
 viewBox="0.00 0.00 1967.31 554.00" xmlns="http://www.w3.org/2000/svg" xmlns:xlink="http://www.w3.org/1999/xlink">
<g id="graph0" class="graph" transform="scale(1 1) rotate(0) translate(4 550)">
<title>src/com/SocketCommunicationFactory.cpp</title>
<polygon fill="white" stroke="transparent" points="-4,4 -4,-550 1963.31,-550 1963.31,4 -4,4"/>
<!-- Node1 -->
<g id="node1" class="node">
<title>Node1</title>
<g id="a_node1"><a xlink:title=" ">
<polygon fill="#bfbfbf" stroke="black" points="1600.5,-515.5 1600.5,-545.5 1767.5,-545.5 1767.5,-515.5 1600.5,-515.5"/>
<text text-anchor="start" x="1608.5" y="-533.5" font-family="Helvetica,sans-Serif" font-size="10.00">src/com/SocketCommunication</text>
<text text-anchor="middle" x="1684" y="-522.5" font-family="Helvetica,sans-Serif" font-size="10.00">Factory.cpp</text>
</a>
</g>
</g>
<!-- Node2 -->
<g id="node2" class="node">
<title>Node2</title>
<g id="a_node2"><a xlink:href="SocketCommunicationFactory_8hpp.html" target="_top" xlink:title=" ">
<polygon fill="white" stroke="black" points="1765.5,-403.5 1765.5,-422.5 1946.5,-422.5 1946.5,-403.5 1765.5,-403.5"/>
<text text-anchor="middle" x="1856" y="-410.5" font-family="Helvetica,sans-Serif" font-size="10.00">SocketCommunicationFactory.hpp</text>
</a>
</g>
</g>
<!-- Node1&#45;&gt;Node2 -->
<g id="edge1" class="edge">
<title>Node1&#45;&gt;Node2</title>
<path fill="none" stroke="midnightblue" d="M1749.55,-515.41C1773.72,-507.73 1800.04,-496.16 1820,-479 1834.48,-466.55 1844.25,-446.75 1849.92,-432.28"/>
<polygon fill="midnightblue" stroke="midnightblue" points="1853.22,-433.45 1853.33,-422.86 1846.64,-431.07 1853.22,-433.45"/>
</g>
<!-- Node6 -->
<g id="node6" class="node">
<title>Node6</title>
<g id="a_node6"><a xlink:href="com_2SharedPointer_8hpp.html" target="_top" xlink:title=" ">
<polygon fill="white" stroke="black" points="1496.5,-291.5 1496.5,-310.5 1625.5,-310.5 1625.5,-291.5 1496.5,-291.5"/>
<text text-anchor="middle" x="1561" y="-298.5" font-family="Helvetica,sans-Serif" font-size="10.00">com/SharedPointer.hpp</text>
</a>
</g>
</g>
<!-- Node1&#45;&gt;Node6 -->
<g id="edge81" class="edge">
<title>Node1&#45;&gt;Node6</title>
<path fill="none" stroke="midnightblue" d="M1668.41,-515.25C1640.99,-489.05 1585,-430.11 1563,-367 1557.83,-352.16 1557.69,-334.24 1558.64,-320.97"/>
<polygon fill="midnightblue" stroke="midnightblue" points="1562.15,-321.01 1559.66,-310.71 1555.19,-320.32 1562.15,-321.01"/>
</g>
<!-- Node7 -->
<g id="node7" class="node">
<title>Node7</title>
<g id="a_node7"><a xlink:title=" ">
<polygon fill="white" stroke="#bfbfbf" points="1439,-235.5 1439,-254.5 1497,-254.5 1497,-235.5 1439,-235.5"/>
<text text-anchor="middle" x="1468" y="-242.5" font-family="Helvetica,sans-Serif" font-size="10.00">memory</text>
</a>
</g>
</g>
<!-- Node1&#45;&gt;Node7 -->
<g id="edge11" class="edge">
<title>Node1&#45;&gt;Node7</title>
<path fill="none" stroke="midnightblue" d="M1689.3,-515.46C1700.35,-483.79 1722.79,-405.06 1697,-347 1665.03,-275.04 1563.57,-254.35 1507.02,-248.4"/>
<polygon fill="midnightblue" stroke="midnightblue" points="1507.3,-244.91 1497.01,-247.45 1506.64,-251.88 1507.3,-244.91"/>
</g>
<!-- Node8 -->
<g id="node8" class="node">
<title>Node8</title>
<g id="a_node8"><a xlink:href="networking_8hpp.html" target="_top" xlink:title=" ">
<polygon fill="white" stroke="black" points="1572,-347.5 1572,-366.5 1688,-366.5 1688,-347.5 1572,-347.5"/>
<text text-anchor="middle" x="1630" y="-354.5" font-family="Helvetica,sans-Serif" font-size="10.00">utils/networking.hpp</text>
</a>
</g>
</g>
<!-- Node1&#45;&gt;Node8 -->
<g id="edge82" class="edge">
<title>Node1&#45;&gt;Node8</title>
<path fill="none" stroke="midnightblue" d="M1679.58,-515.47C1669.85,-484.57 1646.59,-410.69 1635.75,-376.25"/>
<polygon fill="midnightblue" stroke="midnightblue" points="1639.04,-375.05 1632.7,-366.56 1632.36,-377.15 1639.04,-375.05"/>
</g>
<!-- Node9 -->
<g id="node9" class="node">
<title>Node9</title>
<g id="a_node9"><a xlink:title=" ">
<polygon fill="white" stroke="#bfbfbf" points="1765.5,-459.5 1765.5,-478.5 1810.5,-478.5 1810.5,-459.5 1765.5,-459.5"/>
<text text-anchor="middle" x="1788" y="-466.5" font-family="Helvetica,sans-Serif" font-size="10.00">utility</text>
</a>
</g>
</g>
<!-- Node1&#45;&gt;Node9 -->
<g id="edge12" class="edge">
<title>Node1&#45;&gt;Node9</title>
<path fill="none" stroke="midnightblue" d="M1708.65,-515.4C1725.32,-505.86 1747.23,-493.32 1763.81,-483.84"/>
<polygon fill="midnightblue" stroke="midnightblue" points="1765.93,-486.66 1772.87,-478.66 1762.45,-480.59 1765.93,-486.66"/>
</g>
<!-- Node10 -->
<g id="node10" class="node">
<title>Node10</title>
<g id="a_node10"><a xlink:href="SocketCommunication_8hpp.html" target="_top" xlink:title=" ">
<polygon fill="white" stroke="black" points="903.5,-459.5 903.5,-478.5 1050.5,-478.5 1050.5,-459.5 903.5,-459.5"/>
<text text-anchor="middle" x="977" y="-466.5" font-family="Helvetica,sans-Serif" font-size="10.00">SocketCommunication.hpp</text>
</a>
</g>
</g>
<!-- Node1&#45;&gt;Node10 -->
<g id="edge13" class="edge">
<title>Node1&#45;&gt;Node10</title>
<path fill="none" stroke="midnightblue" d="M1600.47,-522.47C1464.47,-511.03 1196.74,-488.49 1060.66,-477.04"/>
<polygon fill="midnightblue" stroke="midnightblue" points="1060.95,-473.55 1050.7,-476.2 1060.37,-480.53 1060.95,-473.55"/>
</g>
<!-- Node3 -->
<g id="node3" class="node">
<title>Node3</title>
<g id="a_node3"><a xlink:href="CommunicationFactory_8hpp.html" target="_top" xlink:title=" ">
<polygon fill="white" stroke="black" points="1781.5,-347.5 1781.5,-366.5 1930.5,-366.5 1930.5,-347.5 1781.5,-347.5"/>
<text text-anchor="middle" x="1856" y="-354.5" font-family="Helvetica,sans-Serif" font-size="10.00">CommunicationFactory.hpp</text>
</a>
</g>
</g>
<!-- Node2&#45;&gt;Node3 -->
<g id="edge2" class="edge">
<title>Node2&#45;&gt;Node3</title>
<path fill="none" stroke="midnightblue" d="M1856,-403.08C1856,-396.01 1856,-385.86 1856,-376.99"/>
<polygon fill="midnightblue" stroke="midnightblue" points="1859.5,-376.75 1856,-366.75 1852.5,-376.75 1859.5,-376.75"/>
</g>
<!-- Node5 -->
<g id="node5" class="node">
<title>Node5</title>
<g id="a_node5"><a xlink:title=" ">
<polygon fill="white" stroke="#bfbfbf" points="1341,-112.5 1341,-131.5 1385,-131.5 1385,-112.5 1341,-112.5"/>
<text text-anchor="middle" x="1363" y="-119.5" font-family="Helvetica,sans-Serif" font-size="10.00">string</text>
</a>
</g>
</g>
<!-- Node2&#45;&gt;Node5 -->
<g id="edge10" class="edge">
<title>Node2&#45;&gt;Node5</title>
<path fill="none" stroke="midnightblue" d="M1888.99,-403.44C1907.46,-396.77 1928.95,-385.45 1940,-367 1954.66,-342.51 1923.01,-298.47 1915,-291 1761.19,-147.58 1488.42,-126.41 1395.24,-123.43"/>
<polygon fill="midnightblue" stroke="midnightblue" points="1395.13,-119.93 1385.04,-123.16 1394.94,-126.92 1395.13,-119.93"/>
</g>
<!-- Node2&#45;&gt;Node6 -->
<g id="edge7" class="edge">
<title>Node2&#45;&gt;Node6</title>
<path fill="none" stroke="midnightblue" d="M1836.09,-403.35C1806.15,-390.45 1747.63,-365.7 1697,-347 1663.86,-334.76 1625.62,-322.25 1598.15,-313.53"/>
<polygon fill="midnightblue" stroke="midnightblue" points="1599.13,-310.17 1588.54,-310.5 1597.03,-316.85 1599.13,-310.17"/>
</g>
<!-- Node2&#45;&gt;Node8 -->
<g id="edge8" class="edge">
<title>Node2&#45;&gt;Node8</title>
<path fill="none" stroke="midnightblue" d="M1820.19,-403.44C1781.01,-394.08 1718.12,-379.06 1675.48,-368.87"/>
<polygon fill="midnightblue" stroke="midnightblue" points="1676.18,-365.44 1665.64,-366.52 1674.56,-372.24 1676.18,-365.44"/>
</g>
<!-- Node4 -->
<g id="node4" class="node">
<title>Node4</title>
<g id="a_node4"><a xlink:title=" ">
<polygon fill="white" stroke="#bfbfbf" points="1840.5,-291.5 1840.5,-310.5 1905.5,-310.5 1905.5,-291.5 1840.5,-291.5"/>
<text text-anchor="middle" x="1873" y="-298.5" font-family="Helvetica,sans-Serif" font-size="10.00">stdexcept</text>
</a>
</g>
</g>
<!-- Node3&#45;&gt;Node4 -->
<g id="edge3" class="edge">
<title>Node3&#45;&gt;Node4</title>
<path fill="none" stroke="midnightblue" d="M1858.81,-347.08C1861.08,-339.85 1864.37,-329.41 1867.21,-320.4"/>
<polygon fill="midnightblue" stroke="midnightblue" points="1870.58,-321.34 1870.25,-310.75 1863.9,-319.24 1870.58,-321.34"/>
</g>
<!-- Node3&#45;&gt;Node5 -->
<g id="edge4" class="edge">
<title>Node3&#45;&gt;Node5</title>
<path fill="none" stroke="midnightblue" d="M1843.91,-347.41C1802.36,-318.24 1660.76,-221.8 1531,-168 1485.37,-149.08 1429.46,-135.97 1395.04,-128.96"/>
<polygon fill="midnightblue" stroke="midnightblue" points="1395.57,-125.5 1385.08,-126.99 1394.21,-132.37 1395.57,-125.5"/>
</g>
<!-- Node3&#45;&gt;Node6 -->
<g id="edge5" class="edge">
<title>Node3&#45;&gt;Node6</title>
<path fill="none" stroke="midnightblue" d="M1809.26,-347.44C1757.25,-337.92 1673.25,-322.55 1617.58,-312.36"/>
<polygon fill="midnightblue" stroke="midnightblue" points="1617.99,-308.87 1607.52,-310.52 1616.73,-315.76 1617.99,-308.87"/>
</g>
<!-- Node6&#45;&gt;Node7 -->
<g id="edge6" class="edge">
<title>Node6&#45;&gt;Node7</title>
<path fill="none" stroke="midnightblue" d="M1546.06,-291.32C1531.41,-282.82 1508.87,-269.73 1491.76,-259.8"/>
<polygon fill="midnightblue" stroke="midnightblue" points="1493.31,-256.65 1482.9,-254.65 1489.8,-262.7 1493.31,-256.65"/>
</g>
<!-- Node8&#45;&gt;Node5 -->
<g id="edge9" class="edge">
<title>Node8&#45;&gt;Node5</title>
<path fill="none" stroke="midnightblue" d="M1633.53,-347.36C1638.27,-334.25 1645.03,-308.99 1635,-291 1582.86,-197.52 1454.93,-149.54 1394.98,-131.56"/>
<polygon fill="midnightblue" stroke="midnightblue" points="1395.86,-128.17 1385.28,-128.74 1393.9,-134.89 1395.86,-128.17"/>
</g>
<!-- Node10&#45;&gt;Node5 -->
<g id="edge19" class="edge">
<title>Node10&#45;&gt;Node5</title>
<path fill="none" stroke="midnightblue" d="M986.62,-459.22C1009.01,-438.9 1066.54,-387.29 1117,-347 1203.7,-277.79 1243.58,-281.27 1318,-199 1333.86,-181.46 1346.95,-157.47 1354.84,-141.17"/>
<polygon fill="midnightblue" stroke="midnightblue" points="1358.2,-142.25 1359.26,-131.71 1351.85,-139.29 1358.2,-142.25"/>
</g>
<!-- Node10&#45;&gt;Node6 -->
<g id="edge69" class="edge">
<title>Node10&#45;&gt;Node6</title>
<path fill="none" stroke="midnightblue" d="M1050.68,-465.03C1181.98,-459.21 1446.08,-444.93 1482,-423 1516.1,-402.18 1508,-380.35 1530,-347 1536.22,-337.58 1543.35,-327.2 1549.21,-318.78"/>
<polygon fill="midnightblue" stroke="midnightblue" points="1552.09,-320.76 1554.95,-310.56 1546.36,-316.75 1552.09,-320.76"/>
</g>
<!-- Node10&#45;&gt;Node7 -->
<g id="edge16" class="edge">
<title>Node10&#45;&gt;Node7</title>
<path fill="none" stroke="midnightblue" d="M1050.65,-463.79C1144.82,-457.63 1302.15,-444.49 1356,-423 1417.43,-398.48 1434.39,-374.17 1454,-311 1458.76,-295.65 1462.49,-277.77 1464.89,-264.66"/>
<polygon fill="midnightblue" stroke="midnightblue" points="1468.39,-264.99 1466.66,-254.54 1461.49,-263.79 1468.39,-264.99"/>
</g>
<!-- Node10&#45;&gt;Node8 -->
<g id="edge80" class="edge">
<title>Node10&#45;&gt;Node8</title>
<path fill="none" stroke="midnightblue" d="M1050.6,-465.97C1178.09,-461.78 1434.6,-450.19 1520,-423 1554.77,-411.93 1590.28,-388.25 1611.21,-372.73"/>
<polygon fill="midnightblue" stroke="midnightblue" points="1613.39,-375.47 1619.25,-366.64 1609.17,-369.89 1613.39,-375.47"/>
</g>
<!-- Node11 -->
<g id="node11" class="node">
<title>Node11</title>
<g id="a_node11"><a xlink:title=" ">
<polygon fill="white" stroke="#bfbfbf" points="1126,-347.5 1126,-366.5 1214,-366.5 1214,-347.5 1126,-347.5"/>
<text text-anchor="middle" x="1170" y="-354.5" font-family="Helvetica,sans-Serif" font-size="10.00">boost/asio.hpp</text>
</a>
</g>
</g>
<!-- Node10&#45;&gt;Node11 -->
<g id="edge14" class="edge">
<title>Node10&#45;&gt;Node11</title>
<path fill="none" stroke="midnightblue" d="M1020.92,-459.48C1048.65,-452.67 1084.35,-441.2 1112,-423 1131.07,-410.45 1147.81,-390.1 1158.35,-375.52"/>
<polygon fill="midnightblue" stroke="midnightblue" points="1161.5,-377.11 1164.33,-366.9 1155.75,-373.12 1161.5,-377.11"/>
</g>
<!-- Node12 -->
<g id="node12" class="node">
<title>Node12</title>
<g id="a_node12"><a xlink:title=" ">
<polygon fill="white" stroke="#bfbfbf" points="187,-56.5 187,-75.5 225,-75.5 225,-56.5 187,-56.5"/>
<text text-anchor="middle" x="206" y="-63.5" font-family="Helvetica,sans-Serif" font-size="10.00">map</text>
</a>
</g>
</g>
<!-- Node10&#45;&gt;Node12 -->
<g id="edge15" class="edge">
<title>Node10&#45;&gt;Node12</title>
<path fill="none" stroke="midnightblue" d="M903.34,-467.26C751.04,-465.06 406.33,-456.42 294,-423 196.72,-394.06 146.23,-398.61 95,-311 46.99,-228.89 146.38,-122.37 188.42,-82.75"/>
<polygon fill="midnightblue" stroke="midnightblue" points="191.03,-85.1 196,-75.74 186.28,-79.96 191.03,-85.1"/>
</g>
<!-- Node13 -->
<g id="node13" class="node">
<title>Node13</title>
<g id="a_node13"><a xlink:title=" ">
<polygon fill="white" stroke="#bfbfbf" points="374,-56.5 374,-75.5 406,-75.5 406,-56.5 374,-56.5"/>
<text text-anchor="middle" x="390" y="-63.5" font-family="Helvetica,sans-Serif" font-size="10.00">set</text>
</a>
</g>
</g>
<!-- Node10&#45;&gt;Node13 -->
<g id="edge17" class="edge">
<title>Node10&#45;&gt;Node13</title>
<path fill="none" stroke="midnightblue" d="M903.37,-462.06C743.53,-448.18 379,-410.75 379,-358 379,-358 379,-358 379,-300 379,-224.86 393.77,-207.02 398,-132 398.5,-123.13 398.78,-120.85 398,-112 397.22,-103.2 395.61,-93.54 394.03,-85.43"/>
<polygon fill="midnightblue" stroke="midnightblue" points="397.44,-84.65 391.99,-75.57 390.59,-86.07 397.44,-84.65"/>
</g>
<!-- Node14 -->
<g id="node14" class="node">
<title>Node14</title>
<g id="a_node14"><a xlink:title=" ">
<polygon fill="white" stroke="#bfbfbf" points="848,-347.5 848,-366.5 904,-366.5 904,-347.5 848,-347.5"/>
<text text-anchor="middle" x="876" y="-354.5" font-family="Helvetica,sans-Serif" font-size="10.00">stddef.h</text>
</a>
</g>
</g>
<!-- Node10&#45;&gt;Node14 -->
<g id="edge18" class="edge">
<title>Node10&#45;&gt;Node14</title>
<path fill="none" stroke="midnightblue" d="M969.07,-459.37C952.19,-440.97 912.43,-397.67 890.74,-374.05"/>
<polygon fill="midnightblue" stroke="midnightblue" points="893.23,-371.59 883.89,-366.59 888.07,-376.32 893.23,-371.59"/>
</g>
<!-- Node15 -->
<g id="node15" class="node">
<title>Node15</title>
<g id="a_node15"><a xlink:title=" ">
<polygon fill="white" stroke="#bfbfbf" points="303,-403.5 303,-422.5 351,-422.5 351,-403.5 303,-403.5"/>
<text text-anchor="middle" x="327" y="-410.5" font-family="Helvetica,sans-Serif" font-size="10.00">thread</text>
</a>
</g>
</g>
<!-- Node10&#45;&gt;Node15 -->
<g id="edge20" class="edge">
<title>Node10&#45;&gt;Node15</title>
<path fill="none" stroke="midnightblue" d="M903.09,-466.36C787.62,-462.94 557.69,-452.71 365,-423 363.72,-422.8 362.42,-422.58 361.1,-422.35"/>
<polygon fill="midnightblue" stroke="midnightblue" points="361.51,-418.86 351.01,-420.3 360.11,-425.72 361.51,-418.86"/>
</g>
<!-- Node16 -->
<g id="node16" class="node">
<title>Node16</title>
<g id="a_node16"><a xlink:title=" ">
<polygon fill="white" stroke="#bfbfbf" points="57.5,-56.5 57.5,-75.5 104.5,-75.5 104.5,-56.5 57.5,-56.5"/>
<text text-anchor="middle" x="81" y="-63.5" font-family="Helvetica,sans-Serif" font-size="10.00">vector</text>
</a>
</g>
</g>
<!-- Node10&#45;&gt;Node16 -->
<g id="edge21" class="edge">
<title>Node10&#45;&gt;Node16</title>
<path fill="none" stroke="midnightblue" d="M903.17,-467.42C675.56,-464.67 0,-448.84 0,-358 0,-358 0,-358 0,-182.5 0,-140 37.22,-102.04 61.2,-82"/>
<polygon fill="midnightblue" stroke="midnightblue" points="63.46,-84.68 69.05,-75.68 59.06,-79.23 63.46,-84.68"/>
</g>
<!-- Node17 -->
<g id="node17" class="node">
<title>Node17</title>
<g id="a_node17"><a xlink:href="Communication_8hpp.html" target="_top" xlink:title=" ">
<polygon fill="white" stroke="black" points="628.5,-403.5 628.5,-422.5 767.5,-422.5 767.5,-403.5 628.5,-403.5"/>
<text text-anchor="middle" x="698" y="-410.5" font-family="Helvetica,sans-Serif" font-size="10.00">com/Communication.hpp</text>
</a>
</g>
</g>
<!-- Node10&#45;&gt;Node17 -->
<g id="edge22" class="edge">
<title>Node10&#45;&gt;Node17</title>
<path fill="none" stroke="midnightblue" d="M932.79,-459.44C883.71,-449.94 804.49,-434.61 751.84,-424.42"/>
<polygon fill="midnightblue" stroke="midnightblue" points="752.48,-420.98 742,-422.52 751.15,-427.85 752.48,-420.98"/>
</g>
<!-- Node20 -->
<g id="node20" class="node">
<title>Node20</title>
<g id="a_node20"><a xlink:href="Logger_8hpp.html" target="_top" xlink:title=" ">
<polygon fill="white" stroke="black" points="922.5,-347.5 922.5,-366.5 1031.5,-366.5 1031.5,-347.5 922.5,-347.5"/>
<text text-anchor="middle" x="977" y="-354.5" font-family="Helvetica,sans-Serif" font-size="10.00">logging/Logger.hpp</text>
</a>
</g>
</g>
<!-- Node10&#45;&gt;Node20 -->
<g id="edge78" class="edge">
<title>Node10&#45;&gt;Node20</title>
<path fill="none" stroke="midnightblue" d="M977,-459.37C977,-441.62 977,-400.67 977,-376.6"/>
<polygon fill="midnightblue" stroke="midnightblue" points="980.5,-376.59 977,-366.59 973.5,-376.59 980.5,-376.59"/>
</g>
<!-- Node40 -->
<g id="node40" class="node">
<title>Node40</title>
<g id="a_node40"><a xlink:href="types_8hpp.html" target="_top" xlink:title=" ">
<polygon fill="white" stroke="black" points="726.5,-347.5 726.5,-366.5 829.5,-366.5 829.5,-347.5 726.5,-347.5"/>
<text text-anchor="middle" x="778" y="-354.5" font-family="Helvetica,sans-Serif" font-size="10.00">precice/types.hpp</text>
</a>
</g>
</g>
<!-- Node10&#45;&gt;Node40 -->
<g id="edge79" class="edge">
<title>Node10&#45;&gt;Node40</title>
<path fill="none" stroke="midnightblue" d="M961.38,-459.37C926.87,-440.29 843.89,-394.42 802.43,-371.51"/>
<polygon fill="midnightblue" stroke="midnightblue" points="803.99,-368.37 793.54,-366.59 800.6,-374.49 803.99,-368.37"/>
</g>
<!-- Node45 -->
<g id="node45" class="node">
<title>Node45</title>
<g id="a_node45"><a xlink:href="SocketSendQueue_8hpp.html" target="_top" xlink:title=" ">
<polygon fill="white" stroke="black" points="1197.5,-403.5 1197.5,-422.5 1346.5,-422.5 1346.5,-403.5 1197.5,-403.5"/>
<text text-anchor="middle" x="1272" y="-410.5" font-family="Helvetica,sans-Serif" font-size="10.00">com/SocketSendQueue.hpp</text>
</a>
</g>
</g>
<!-- Node10&#45;&gt;Node45 -->
<g id="edge70" class="edge">
<title>Node10&#45;&gt;Node45</title>
<path fill="none" stroke="midnightblue" d="M1023.74,-459.44C1075.75,-449.92 1159.75,-434.55 1215.42,-424.36"/>
<polygon fill="midnightblue" stroke="midnightblue" points="1216.27,-427.76 1225.48,-422.52 1215.01,-420.87 1216.27,-427.76"/>
</g>
<!-- Node17&#45;&gt;Node5 -->
<g id="edge25" class="edge">
<title>Node17&#45;&gt;Node5</title>
<path fill="none" stroke="midnightblue" d="M695.72,-403.48C692.29,-390.96 685.41,-366.92 678,-347 648.49,-267.67 554.97,-229.61 613,-168 637.98,-141.48 1190.65,-126.97 1330.88,-123.71"/>
<polygon fill="midnightblue" stroke="midnightblue" points="1331.07,-127.21 1340.98,-123.48 1330.91,-120.21 1331.07,-127.21"/>
</g>
<!-- Node17&#45;&gt;Node6 -->
<g id="edge31" class="edge">
<title>Node17&#45;&gt;Node6</title>
<path fill="none" stroke="midnightblue" d="M767.73,-405.47C837.33,-398.34 947.15,-385.43 1041,-367 1075.27,-360.27 1082.63,-353.22 1117,-347 1245.52,-323.72 1397.31,-311.59 1485.99,-306.02"/>
<polygon fill="midnightblue" stroke="midnightblue" points="1486.46,-309.49 1496.22,-305.38 1486.02,-302.51 1486.46,-309.49"/>
</g>
<!-- Node17&#45;&gt;Node13 -->
<g id="edge23" class="edge">
<title>Node17&#45;&gt;Node13</title>
<path fill="none" stroke="midnightblue" d="M628.35,-409.85C559.22,-406.08 460.17,-395.67 436,-367 430.27,-360.2 435.17,-355.85 436,-347 440.24,-301.52 455,-291.68 455,-246 455,-246 455,-246 455,-182.5 455,-149.4 447.83,-140.5 431,-112 424.71,-101.35 415.61,-91.04 407.57,-82.98"/>
<polygon fill="midnightblue" stroke="midnightblue" points="409.68,-80.14 400.04,-75.74 404.83,-85.19 409.68,-80.14"/>
</g>
<!-- Node17&#45;&gt;Node14 -->
<g id="edge24" class="edge">
<title>Node17&#45;&gt;Node14</title>
<path fill="none" stroke="midnightblue" d="M726.2,-403.44C756.41,-394.28 804.51,-379.69 838.03,-369.52"/>
<polygon fill="midnightblue" stroke="midnightblue" points="839.37,-372.77 847.93,-366.52 837.34,-366.07 839.37,-372.77"/>
</g>
<!-- Node17&#45;&gt;Node16 -->
<g id="edge26" class="edge">
<title>Node17&#45;&gt;Node16</title>
<path fill="none" stroke="midnightblue" d="M628.3,-407.63C458.65,-396.05 38,-361.35 38,-302 38,-302 38,-302 38,-182.5 38,-145.76 57.34,-106.35 70.08,-84.37"/>
<polygon fill="midnightblue" stroke="midnightblue" points="73.22,-85.95 75.38,-75.58 67.22,-82.34 73.22,-85.95"/>
</g>
<!-- Node18 -->
<g id="node18" class="node">
<title>Node18</title>
<g id="a_node18"><a xlink:href="Request_8hpp.html" target="_top" xlink:title=" ">
<polygon fill="white" stroke="black" points="592.5,-347.5 592.5,-366.5 669.5,-366.5 669.5,-347.5 592.5,-347.5"/>
<text text-anchor="middle" x="631" y="-354.5" font-family="Helvetica,sans-Serif" font-size="10.00">Request.hpp</text>
</a>
</g>
</g>
<!-- Node17&#45;&gt;Node18 -->
<g id="edge27" class="edge">
<title>Node17&#45;&gt;Node18</title>
<path fill="none" stroke="midnightblue" d="M687.24,-403.32C677.23,-395.26 662.11,-383.08 650.07,-373.37"/>
<polygon fill="midnightblue" stroke="midnightblue" points="651.94,-370.38 641.96,-366.83 647.55,-375.83 651.94,-370.38"/>
</g>
<!-- Node19 -->
<g id="node19" class="node">
<title>Node19</title>
<g id="a_node19"><a xlink:title=" ">
<polygon fill="white" stroke="#bfbfbf" points="445.5,-347.5 445.5,-366.5 574.5,-366.5 574.5,-347.5 445.5,-347.5"/>
<text text-anchor="middle" x="510" y="-354.5" font-family="Helvetica,sans-Serif" font-size="10.00">boost/range/irange.hpp</text>
</a>
</g>
</g>
<!-- Node17&#45;&gt;Node19 -->
<g id="edge30" class="edge">
<title>Node17&#45;&gt;Node19</title>
<path fill="none" stroke="midnightblue" d="M668.21,-403.44C636.17,-394.24 585.07,-379.56 549.65,-369.39"/>
<polygon fill="midnightblue" stroke="midnightblue" points="550.23,-365.91 539.65,-366.52 548.29,-372.64 550.23,-365.91"/>
</g>
<!-- Node17&#45;&gt;Node20 -->
<g id="edge32" class="edge">
<title>Node17&#45;&gt;Node20</title>
<path fill="none" stroke="midnightblue" d="M742.21,-403.44C791.29,-393.94 870.51,-378.61 923.16,-368.42"/>
<polygon fill="midnightblue" stroke="midnightblue" points="923.85,-371.85 933,-366.52 922.52,-364.98 923.85,-371.85"/>
</g>
<!-- Node17&#45;&gt;Node40 -->
<g id="edge63" class="edge">
<title>Node17&#45;&gt;Node40</title>
<path fill="none" stroke="midnightblue" d="M710.85,-403.32C723.22,-394.98 742.13,-382.21 756.74,-372.35"/>
<polygon fill="midnightblue" stroke="midnightblue" points="758.85,-375.15 765.18,-366.65 754.93,-369.35 758.85,-375.15"/>
</g>
<!-- Node41 -->
<g id="node41" class="node">
<title>Node41</title>
<g id="a_node41"><a xlink:href="span_8hpp.html" target="_top" xlink:title=" ">
<polygon fill="white" stroke="black" points="245.5,-347.5 245.5,-366.5 330.5,-366.5 330.5,-347.5 245.5,-347.5"/>
<text text-anchor="middle" x="288" y="-354.5" font-family="Helvetica,sans-Serif" font-size="10.00">utils/span.hpp</text>
</a>
</g>
</g>
<!-- Node17&#45;&gt;Node41 -->
<g id="edge64" class="edge">
<title>Node17&#45;&gt;Node41</title>
<path fill="none" stroke="midnightblue" d="M633.03,-403.44C552.16,-392.79 415.6,-374.81 340.83,-364.96"/>
<polygon fill="midnightblue" stroke="midnightblue" points="341.07,-361.46 330.7,-363.62 340.16,-368.4 341.07,-361.46"/>
</g>
<!-- Node18&#45;&gt;Node6 -->
<g id="edge29" class="edge">
<title>Node18&#45;&gt;Node6</title>
<path fill="none" stroke="midnightblue" d="M669.51,-351.6C684.61,-349.98 702.1,-348.25 718,-347 1001.24,-324.8 1338.89,-310.42 1486.14,-304.74"/>
<polygon fill="midnightblue" stroke="midnightblue" points="1486.56,-308.23 1496.41,-304.35 1486.29,-301.24 1486.56,-308.23"/>
</g>
<!-- Node18&#45;&gt;Node16 -->
<g id="edge28" class="edge">
<title>Node18&#45;&gt;Node16</title>
<path fill="none" stroke="midnightblue" d="M614.54,-347.35C536.26,-306.22 201.51,-130.32 106.33,-80.31"/>
<polygon fill="midnightblue" stroke="midnightblue" points="107.88,-77.17 97.4,-75.62 104.62,-83.37 107.88,-77.17"/>
</g>
<!-- Node20&#45;&gt;Node5 -->
<g id="edge34" class="edge">
<title>Node20&#45;&gt;Node5</title>
<path fill="none" stroke="midnightblue" d="M999.78,-347.38C1053.03,-326.64 1188.57,-270.33 1287,-199 1311.19,-181.47 1334.85,-156.14 1349.18,-139.63"/>
<polygon fill="midnightblue" stroke="midnightblue" points="1351.95,-141.76 1355.77,-131.88 1346.63,-137.22 1351.95,-141.76"/>
</g>
<!-- Node20&#45;&gt;Node7 -->
<g id="edge33" class="edge">
<title>Node20&#45;&gt;Node7</title>
<path fill="none" stroke="midnightblue" d="M1031.79,-348.49C1112.98,-337.28 1258.25,-316.84 1282,-311 1338.47,-297.1 1401.97,-272.99 1438.26,-258.37"/>
<polygon fill="midnightblue" stroke="midnightblue" points="1439.8,-261.52 1447.74,-254.51 1437.16,-255.04 1439.8,-261.52"/>
</g>
<!-- Node21 -->
<g id="node21" class="node">
<title>Node21</title>
<g id="a_node21"><a xlink:href="LogMacros_8hpp.html" target="_top" xlink:title=" ">
<polygon fill="white" stroke="black" points="821,-291.5 821,-310.5 911,-310.5 911,-291.5 821,-291.5"/>
<text text-anchor="middle" x="866" y="-298.5" font-family="Helvetica,sans-Serif" font-size="10.00">LogMacros.hpp</text>
</a>
</g>
</g>
<!-- Node20&#45;&gt;Node21 -->
<g id="edge35" class="edge">
<title>Node20&#45;&gt;Node21</title>
<path fill="none" stroke="midnightblue" d="M959.17,-347.32C941.28,-338.62 913.52,-325.12 892.95,-315.11"/>
<polygon fill="midnightblue" stroke="midnightblue" points="894.31,-311.88 883.79,-310.65 891.25,-318.18 894.31,-311.88"/>
</g>
<!-- Node22 -->
<g id="node22" class="node">
<title>Node22</title>
<g id="a_node22"><a xlink:href="fmt_8hpp.html" target="_top" xlink:title=" ">
<polygon fill="white" stroke="black" points="486.5,-174 486.5,-193 565.5,-193 565.5,-174 486.5,-174"/>
<text text-anchor="middle" x="526" y="-181" font-family="Helvetica,sans-Serif" font-size="10.00">utils/fmt.hpp</text>
</a>
</g>
</g>
<!-- Node21&#45;&gt;Node22 -->
<g id="edge36" class="edge">
<title>Node21&#45;&gt;Node22</title>
<path fill="none" stroke="midnightblue" d="M840.72,-291.41C780.73,-271.03 629.65,-219.71 560.96,-196.38"/>
<polygon fill="midnightblue" stroke="midnightblue" points="562.04,-193.05 551.44,-193.14 559.79,-199.67 562.04,-193.05"/>
</g>
<!-- Node33 -->
<g id="node33" class="node">
<title>Node33</title>
<g id="a_node33"><a xlink:href="ArgumentFormatter_8hpp.html" target="_top" xlink:title=" ">
<polygon fill="white" stroke="black" points="749.5,-235.5 749.5,-254.5 906.5,-254.5 906.5,-235.5 749.5,-235.5"/>
<text text-anchor="middle" x="828" y="-242.5" font-family="Helvetica,sans-Serif" font-size="10.00">utils/ArgumentFormatter.hpp</text>
</a>
</g>
</g>
<!-- Node21&#45;&gt;Node33 -->
<g id="edge54" class="edge">
<title>Node21&#45;&gt;Node33</title>
<path fill="none" stroke="midnightblue" d="M859.73,-291.08C854.36,-283.46 846.48,-272.26 839.92,-262.94"/>
<polygon fill="midnightblue" stroke="midnightblue" points="842.78,-260.91 834.16,-254.75 837.05,-264.94 842.78,-260.91"/>
</g>
<!-- Node39 -->
<g id="node39" class="node">
<title>Node39</title>
<g id="a_node39"><a xlink:href="Tracer_8hpp.html" target="_top" xlink:title=" ">
<polygon fill="white" stroke="black" points="924.5,-235.5 924.5,-254.5 1029.5,-254.5 1029.5,-235.5 924.5,-235.5"/>
<text text-anchor="middle" x="977" y="-242.5" font-family="Helvetica,sans-Serif" font-size="10.00">logging/Tracer.hpp</text>
</a>
</g>
</g>
<!-- Node21&#45;&gt;Node39 -->
<g id="edge61" class="edge">
<title>Node21&#45;&gt;Node39</title>
<path fill="none" stroke="midnightblue" d="M883.83,-291.32C901.72,-282.62 929.48,-269.12 950.05,-259.11"/>
<polygon fill="midnightblue" stroke="midnightblue" points="951.75,-262.18 959.21,-254.65 948.69,-255.88 951.75,-262.18"/>
</g>
<!-- Node22&#45;&gt;Node5 -->
<g id="edge37" class="edge">
<title>Node22&#45;&gt;Node5</title>
<path fill="none" stroke="midnightblue" d="M553.51,-173.95C561.93,-171.64 571.28,-169.41 580,-168 868.19,-121.53 1222.83,-121.33 1330.5,-122.5"/>
<polygon fill="midnightblue" stroke="midnightblue" points="1330.67,-126 1340.71,-122.62 1330.75,-119 1330.67,-126"/>
</g>
<!-- Node23 -->
<g id="node23" class="node">
<title>Node23</title>
<g id="a_node23"><a xlink:title=" ">
<polygon fill="white" stroke="#bfbfbf" points="424.5,-56.5 424.5,-75.5 503.5,-75.5 503.5,-56.5 424.5,-56.5"/>
<text text-anchor="middle" x="464" y="-63.5" font-family="Helvetica,sans-Serif" font-size="10.00">fmt/format.h</text>
</a>
</g>
</g>
<!-- Node22&#45;&gt;Node23 -->
<g id="edge38" class="edge">
<title>Node22&#45;&gt;Node23</title>
<path fill="none" stroke="midnightblue" d="M540.43,-173.97C560.72,-160.86 593.57,-134.89 578,-112 569.52,-99.53 535.46,-87.07 506.76,-78.43"/>
<polygon fill="midnightblue" stroke="midnightblue" points="507.47,-74.99 496.88,-75.54 505.5,-81.71 507.47,-74.99"/>
</g>
<!-- Node24 -->
<g id="node24" class="node">
<title>Node24</title>
<g id="a_node24"><a xlink:title=" ">
<polygon fill="white" stroke="#bfbfbf" points="483,-112.5 483,-131.5 569,-131.5 569,-112.5 483,-112.5"/>
<text text-anchor="middle" x="526" y="-119.5" font-family="Helvetica,sans-Serif" font-size="10.00">fmt/ostream.h</text>
</a>
</g>
</g>
<!-- Node22&#45;&gt;Node24 -->
<g id="edge39" class="edge">
<title>Node22&#45;&gt;Node24</title>
<path fill="none" stroke="midnightblue" d="M526,-173.98C526,-165.58 526,-152.48 526,-141.66"/>
<polygon fill="midnightblue" stroke="midnightblue" points="529.5,-141.51 526,-131.51 522.5,-141.51 529.5,-141.51"/>
</g>
<!-- Node25 -->
<g id="node25" class="node">
<title>Node25</title>
<g id="a_node25"><a xlink:href="fmtEigen_8hpp.html" target="_top" xlink:title=" ">
<polygon fill="white" stroke="black" points="637,-112.5 637,-131.5 743,-131.5 743,-112.5 637,-112.5"/>
<text text-anchor="middle" x="690" y="-119.5" font-family="Helvetica,sans-Serif" font-size="10.00">utils/fmtEigen.hpp</text>
</a>
</g>
</g>
<!-- Node22&#45;&gt;Node25 -->
<g id="edge40" class="edge">
<title>Node22&#45;&gt;Node25</title>
<path fill="none" stroke="midnightblue" d="M549.5,-173.98C577.63,-163.77 624.93,-146.61 656.79,-135.05"/>
<polygon fill="midnightblue" stroke="midnightblue" points="658.34,-138.21 666.55,-131.51 655.95,-131.63 658.34,-138.21"/>
</g>
<!-- Node30 -->
<g id="node30" class="node">
<title>Node30</title>
<g id="a_node30"><a xlink:href="fmtSTL_8hpp.html" target="_top" xlink:title=" ">
<polygon fill="white" stroke="black" points="293,-112.5 293,-131.5 389,-131.5 389,-112.5 293,-112.5"/>
<text text-anchor="middle" x="341" y="-119.5" font-family="Helvetica,sans-Serif" font-size="10.00">utils/fmtSTL.hpp</text>
</a>
</g>
</g>
<!-- Node22&#45;&gt;Node30 -->
<g id="edge47" class="edge">
<title>Node22&#45;&gt;Node30</title>
<path fill="none" stroke="midnightblue" d="M499.49,-173.98C467.35,-163.64 413.01,-146.16 377.07,-134.6"/>
<polygon fill="midnightblue" stroke="midnightblue" points="378.05,-131.24 367.46,-131.51 375.9,-137.9 378.05,-131.24"/>
</g>
<!-- Node25&#45;&gt;Node23 -->
<g id="edge43" class="edge">
<title>Node25&#45;&gt;Node23</title>
<path fill="none" stroke="midnightblue" d="M654.19,-112.44C615.01,-103.08 552.12,-88.06 509.48,-77.87"/>
<polygon fill="midnightblue" stroke="midnightblue" points="510.18,-74.44 499.64,-75.52 508.56,-81.24 510.18,-74.44"/>
</g>
<!-- Node26 -->
<g id="node26" class="node">
<title>Node26</title>
<g id="a_node26"><a xlink:title=" ">
<polygon fill="white" stroke="#bfbfbf" points="607.5,-0.5 607.5,-19.5 676.5,-19.5 676.5,-0.5 607.5,-0.5"/>
<text text-anchor="middle" x="642" y="-7.5" font-family="Helvetica,sans-Serif" font-size="10.00">Eigen/Core</text>
</a>
</g>
</g>
<!-- Node25&#45;&gt;Node26 -->
<g id="edge41" class="edge">
<title>Node25&#45;&gt;Node26</title>
<path fill="none" stroke="midnightblue" d="M693.09,-112.11C697.05,-99.12 702.46,-74.51 694,-56 688.22,-43.36 676.95,-32.91 666.37,-25.27"/>
<polygon fill="midnightblue" stroke="midnightblue" points="668.04,-22.18 657.78,-19.53 664.15,-28 668.04,-22.18"/>
</g>
<!-- Node27 -->
<g id="node27" class="node">
<title>Node27</title>
<g id="a_node27"><a xlink:title=" ">
<polygon fill="white" stroke="#bfbfbf" points="742,-56.5 742,-75.5 806,-75.5 806,-56.5 742,-56.5"/>
<text text-anchor="middle" x="774" y="-63.5" font-family="Helvetica,sans-Serif" font-size="10.00">algorithm</text>
</a>
</g>
</g>
<!-- Node25&#45;&gt;Node27 -->
<g id="edge42" class="edge">
<title>Node25&#45;&gt;Node27</title>
<path fill="none" stroke="midnightblue" d="M703.5,-112.32C716.6,-103.9 736.71,-90.97 752.11,-81.07"/>
<polygon fill="midnightblue" stroke="midnightblue" points="754.02,-84.01 760.54,-75.65 750.23,-78.12 754.02,-84.01"/>
</g>
<!-- Node28 -->
<g id="node28" class="node">
<title>Node28</title>
<g id="a_node28"><a xlink:title=" ">
<polygon fill="white" stroke="#bfbfbf" points="824,-56.5 824,-75.5 880,-75.5 880,-56.5 824,-56.5"/>
<text text-anchor="middle" x="852" y="-63.5" font-family="Helvetica,sans-Serif" font-size="10.00">sstream</text>
</a>
</g>
</g>
<!-- Node25&#45;&gt;Node28 -->
<g id="edge44" class="edge">
<title>Node25&#45;&gt;Node28</title>
<path fill="none" stroke="midnightblue" d="M715.67,-112.44C742.92,-103.36 786.18,-88.94 816.65,-78.78"/>
<polygon fill="midnightblue" stroke="midnightblue" points="818.07,-82 826.45,-75.52 815.86,-75.36 818.07,-82"/>
</g>
<!-- Node29 -->
<g id="node29" class="node">
<title>Node29</title>
<g id="a_node29"><a xlink:href="EigenIO_8hpp.html" target="_top" xlink:title=" ">
<polygon fill="white" stroke="black" points="521.5,-56.5 521.5,-75.5 620.5,-75.5 620.5,-56.5 521.5,-56.5"/>
<text text-anchor="middle" x="571" y="-63.5" font-family="Helvetica,sans-Serif" font-size="10.00">utils/EigenIO.hpp</text>
</a>
</g>
</g>
<!-- Node25&#45;&gt;Node29 -->
<g id="edge45" class="edge">
<title>Node25&#45;&gt;Node29</title>
<path fill="none" stroke="midnightblue" d="M671.14,-112.44C651.73,-103.64 621.27,-89.81 599.04,-79.72"/>
<polygon fill="midnightblue" stroke="midnightblue" points="600.32,-76.46 589.77,-75.52 597.43,-82.84 600.32,-76.46"/>
</g>
<!-- Node29&#45;&gt;Node26 -->
<g id="edge46" class="edge">
<title>Node29&#45;&gt;Node26</title>
<path fill="none" stroke="midnightblue" d="M582.41,-56.32C593.11,-48.18 609.34,-35.84 622.16,-26.09"/>
<polygon fill="midnightblue" stroke="midnightblue" points="624.54,-28.67 630.39,-19.83 620.31,-23.1 624.54,-28.67"/>
</g>
<!-- Node30&#45;&gt;Node12 -->
<g id="edge51" class="edge">
<title>Node30&#45;&gt;Node12</title>
<path fill="none" stroke="midnightblue" d="M319.61,-112.44C296.64,-103.25 260.02,-88.61 234.59,-78.43"/>
<polygon fill="midnightblue" stroke="midnightblue" points="235.69,-75.11 225.11,-74.64 233.09,-81.61 235.69,-75.11"/>
</g>
<!-- Node30&#45;&gt;Node13 -->
<g id="edge52" class="edge">
<title>Node30&#45;&gt;Node13</title>
<path fill="none" stroke="midnightblue" d="M349.09,-112.08C356.16,-104.3 366.59,-92.8 375.15,-83.37"/>
<polygon fill="midnightblue" stroke="midnightblue" points="377.93,-85.51 382.06,-75.75 372.75,-80.8 377.93,-85.51"/>
</g>
<!-- Node30&#45;&gt;Node16 -->
<g id="edge53" class="edge">
<title>Node30&#45;&gt;Node16</title>
<path fill="none" stroke="midnightblue" d="M299.8,-112.44C248.55,-101.8 162.03,-83.83 114.59,-73.98"/>
<polygon fill="midnightblue" stroke="midnightblue" points="115.04,-70.49 104.53,-71.89 113.61,-77.35 115.04,-70.49"/>
</g>
<!-- Node30&#45;&gt;Node23 -->
<g id="edge50" class="edge">
<title>Node30&#45;&gt;Node23</title>
<path fill="none" stroke="midnightblue" d="M360.49,-112.44C380.64,-103.6 412.32,-89.69 435.33,-79.59"/>
<polygon fill="midnightblue" stroke="midnightblue" points="436.85,-82.74 444.6,-75.52 434.04,-76.33 436.85,-82.74"/>
</g>
<!-- Node31 -->
<g id="node31" class="node">
<title>Node31</title>
<g id="a_node31"><a xlink:title=" ">
<polygon fill="white" stroke="#bfbfbf" points="307,-56.5 307,-75.5 349,-75.5 349,-56.5 307,-56.5"/>
<text text-anchor="middle" x="328" y="-63.5" font-family="Helvetica,sans-Serif" font-size="10.00">array</text>
</a>
</g>
</g>
<!-- Node30&#45;&gt;Node31 -->
<g id="edge48" class="edge">
<title>Node30&#45;&gt;Node31</title>
<path fill="none" stroke="midnightblue" d="M338.85,-112.08C337.13,-104.93 334.65,-94.64 332.5,-85.69"/>
<polygon fill="midnightblue" stroke="midnightblue" points="335.85,-84.65 330.11,-75.75 329.04,-86.29 335.85,-84.65"/>
</g>
<!-- Node32 -->
<g id="node32" class="node">
<title>Node32</title>
<g id="a_node32"><a xlink:title=" ">
<polygon fill="white" stroke="#bfbfbf" points="638.5,-56.5 638.5,-75.5 685.5,-75.5 685.5,-56.5 638.5,-56.5"/>
<text text-anchor="middle" x="662" y="-63.5" font-family="Helvetica,sans-Serif" font-size="10.00">deque</text>
</a>
</g>
</g>
<!-- Node30&#45;&gt;Node32 -->
<g id="edge49" class="edge">
<title>Node30&#45;&gt;Node32</title>
<path fill="none" stroke="midnightblue" d="M389.2,-115.14C444.62,-108.02 538.47,-94.85 628.46,-75.9"/>
<polygon fill="midnightblue" stroke="midnightblue" points="629.23,-79.32 638.28,-73.81 627.77,-72.47 629.23,-79.32"/>
</g>
<!-- Node33&#45;&gt;Node22 -->
<g id="edge60" class="edge">
<title>Node33&#45;&gt;Node22</title>
<path fill="none" stroke="midnightblue" d="M784.73,-235.48C729.5,-224.59 634.13,-205.8 575.89,-194.33"/>
<polygon fill="midnightblue" stroke="midnightblue" points="576.31,-190.84 565.82,-192.35 574.95,-197.71 576.31,-190.84"/>
</g>
<!-- Node34 -->
<g id="node34" class="node">
<title>Node34</title>
<g id="a_node34"><a xlink:title=" ">
<polygon fill="white" stroke="#bfbfbf" points="1168,-168.5 1168,-198.5 1278,-198.5 1278,-168.5 1168,-168.5"/>
<text text-anchor="start" x="1176" y="-186.5" font-family="Helvetica,sans-Serif" font-size="10.00">boost/preprocessor</text>
<text text-anchor="middle" x="1223" y="-175.5" font-family="Helvetica,sans-Serif" font-size="10.00">/control/if.hpp</text>
</a>
</g>
</g>
<!-- Node33&#45;&gt;Node34 -->
<g id="edge55" class="edge">
<title>Node33&#45;&gt;Node34</title>
<path fill="none" stroke="midnightblue" d="M904.88,-235.48C969.8,-227.85 1065.39,-215.57 1157.82,-199.12"/>
<polygon fill="midnightblue" stroke="midnightblue" points="1158.68,-202.52 1167.9,-197.3 1157.44,-195.63 1158.68,-202.52"/>
</g>
<!-- Node35 -->
<g id="node35" class="node">
<title>Node35</title>
<g id="a_node35"><a xlink:title=" ">
<polygon fill="white" stroke="#bfbfbf" points="622.5,-168.5 622.5,-198.5 733.5,-198.5 733.5,-168.5 622.5,-168.5"/>
<text text-anchor="start" x="630.5" y="-186.5" font-family="Helvetica,sans-Serif" font-size="10.00">boost/preprocessor</text>
<text text-anchor="middle" x="678" y="-175.5" font-family="Helvetica,sans-Serif" font-size="10.00">/seq/for_each_i.hpp</text>
</a>
</g>
</g>
<!-- Node33&#45;&gt;Node35 -->
<g id="edge56" class="edge">
<title>Node33&#45;&gt;Node35</title>
<path fill="none" stroke="midnightblue" d="M806.51,-235.48C784.77,-226.85 750.51,-213.26 722.84,-202.29"/>
<polygon fill="midnightblue" stroke="midnightblue" points="723.94,-198.96 713.35,-198.52 721.36,-205.46 723.94,-198.96"/>
</g>
<!-- Node36 -->
<g id="node36" class="node">
<title>Node36</title>
<g id="a_node36"><a xlink:title=" ">
<polygon fill="white" stroke="#bfbfbf" points="752,-168.5 752,-198.5 862,-198.5 862,-168.5 752,-168.5"/>
<text text-anchor="start" x="760" y="-186.5" font-family="Helvetica,sans-Serif" font-size="10.00">boost/preprocessor</text>
<text text-anchor="middle" x="807" y="-175.5" font-family="Helvetica,sans-Serif" font-size="10.00">/stringize.hpp</text>
</a>
</g>
</g>
<!-- Node33&#45;&gt;Node36 -->
<g id="edge57" class="edge">
<title>Node33&#45;&gt;Node36</title>
<path fill="none" stroke="midnightblue" d="M824.99,-235.48C822.47,-228.32 818.73,-217.75 815.32,-208.08"/>
<polygon fill="midnightblue" stroke="midnightblue" points="818.58,-206.79 811.95,-198.52 811.98,-209.12 818.58,-206.79"/>
</g>
<!-- Node37 -->
<g id="node37" class="node">
<title>Node37</title>
<g id="a_node37"><a xlink:title=" ">
<polygon fill="white" stroke="#bfbfbf" points="880.5,-168.5 880.5,-198.5 995.5,-198.5 995.5,-168.5 880.5,-168.5"/>
<text text-anchor="start" x="888.5" y="-186.5" font-family="Helvetica,sans-Serif" font-size="10.00">boost/preprocessor</text>
<text text-anchor="middle" x="938" y="-175.5" font-family="Helvetica,sans-Serif" font-size="10.00">/variadic/to_seq.hpp</text>
</a>
</g>
</g>
<!-- Node33&#45;&gt;Node37 -->
<g id="edge58" class="edge">
<title>Node33&#45;&gt;Node37</title>
<path fill="none" stroke="midnightblue" d="M843.76,-235.48C859.22,-227.12 883.3,-214.09 903.25,-203.3"/>
<polygon fill="midnightblue" stroke="midnightblue" points="904.94,-206.36 912.08,-198.52 901.61,-200.2 904.94,-206.36"/>
</g>
<!-- Node38 -->
<g id="node38" class="node">
<title>Node38</title>
<g id="a_node38"><a xlink:title=" ">
<polygon fill="white" stroke="#bfbfbf" points="1014,-174 1014,-193 1150,-193 1150,-174 1014,-174"/>
<text text-anchor="middle" x="1082" y="-181" font-family="Helvetica,sans-Serif" font-size="10.00">boost/vmd/is_empty.hpp</text>
</a>
</g>
</g>
<!-- Node33&#45;&gt;Node38 -->
<g id="edge59" class="edge">
<title>Node33&#45;&gt;Node38</title>
<path fill="none" stroke="midnightblue" d="M864.39,-235.48C909.57,-224.89 986.65,-206.84 1035.91,-195.3"/>
<polygon fill="midnightblue" stroke="midnightblue" points="1036.74,-198.7 1045.68,-193.01 1035.14,-191.88 1036.74,-198.7"/>
</g>
<!-- Node39&#45;&gt;Node20 -->
<g id="edge62" class="edge">
<title>Node39&#45;&gt;Node20</title>
<path fill="none" stroke="midnightblue" d="M977,-254.59C977,-272.31 977,-313.25 977,-337.35"/>
<polygon fill="midnightblue" stroke="midnightblue" points="973.5,-337.37 977,-347.37 980.5,-337.37 973.5,-337.37"/>
</g>
<!-- Node41&#45;&gt;Node31 -->
<g id="edge65" class="edge">
<title>Node41&#45;&gt;Node31</title>
<path fill="none" stroke="midnightblue" d="M297.29,-347.39C305.58,-339.02 317.14,-325.48 322,-311 324.83,-302.57 323.04,-299.83 322,-291 312.48,-210.23 253.3,-187.31 284,-112 288.8,-100.23 298.33,-89.86 307.29,-82.05"/>
<polygon fill="midnightblue" stroke="midnightblue" points="309.65,-84.64 315.22,-75.63 305.25,-79.2 309.65,-84.64"/>
</g>
<!-- Node42 -->
<g id="node42" class="node">
<title>Node42</title>
<g id="a_node42"><a xlink:title=" ">
<polygon fill="white" stroke="#bfbfbf" points="191.5,-291.5 191.5,-310.5 244.5,-310.5 244.5,-291.5 191.5,-291.5"/>
<text text-anchor="middle" x="218" y="-298.5" font-family="Helvetica,sans-Serif" font-size="10.00">cstddef</text>
</a>
</g>
</g>
<!-- Node41&#45;&gt;Node42 -->
<g id="edge66" class="edge">
<title>Node41&#45;&gt;Node42</title>
<path fill="none" stroke="midnightblue" d="M276.75,-347.32C266.2,-339.18 250.2,-326.84 237.56,-317.09"/>
<polygon fill="midnightblue" stroke="midnightblue" points="239.51,-314.17 229.45,-310.83 235.23,-319.71 239.51,-314.17"/>
</g>
<!-- Node43 -->
<g id="node43" class="node">
<title>Node43</title>
<g id="a_node43"><a xlink:title=" ">
<polygon fill="white" stroke="#bfbfbf" points="263,-291.5 263,-310.5 313,-310.5 313,-291.5 263,-291.5"/>
<text text-anchor="middle" x="288" y="-298.5" font-family="Helvetica,sans-Serif" font-size="10.00">cstdint</text>
</a>
</g>
</g>
<!-- Node41&#45;&gt;Node43 -->
<g id="edge67" class="edge">
<title>Node41&#45;&gt;Node43</title>
<path fill="none" stroke="midnightblue" d="M288,-347.08C288,-340.01 288,-329.86 288,-320.99"/>
<polygon fill="midnightblue" stroke="midnightblue" points="291.5,-320.75 288,-310.75 284.5,-320.75 291.5,-320.75"/>
</g>
<!-- Node44 -->
<g id="node44" class="node">
<title>Node44</title>
<g id="a_node44"><a xlink:title=" ">
<polygon fill="white" stroke="#bfbfbf" points="104.5,-291.5 104.5,-310.5 173.5,-310.5 173.5,-291.5 104.5,-291.5"/>
<text text-anchor="middle" x="139" y="-298.5" font-family="Helvetica,sans-Serif" font-size="10.00">type_traits</text>
</a>
</g>
</g>
<!-- Node41&#45;&gt;Node44 -->
<g id="edge68" class="edge">
<title>Node41&#45;&gt;Node44</title>
<path fill="none" stroke="midnightblue" d="M264.39,-347.44C239.54,-338.44 200.23,-324.19 172.25,-314.05"/>
<polygon fill="midnightblue" stroke="midnightblue" points="173.09,-310.63 162.5,-310.52 170.71,-317.21 173.09,-310.63"/>
</g>
<!-- Node45&#45;&gt;Node5 -->
<g id="edge76" class="edge">
<title>Node45&#45;&gt;Node5</title>
<path fill="none" stroke="midnightblue" d="M1267.44,-403.4C1261.21,-390.35 1251.9,-365.16 1262,-347 1276.75,-320.49 1299.55,-333.42 1320,-311 1338.75,-290.44 1339.24,-281.41 1348,-255 1360.84,-216.27 1363.1,-168.03 1363.27,-141.92"/>
<polygon fill="midnightblue" stroke="midnightblue" points="1366.77,-141.59 1363.23,-131.6 1359.77,-141.61 1366.77,-141.59"/>
</g>
<!-- Node45&#45;&gt;Node7 -->
<g id="edge74" class="edge">
<title>Node45&#45;&gt;Node7</title>
<path fill="none" stroke="midnightblue" d="M1332.82,-403.46C1359.36,-397.12 1389.3,-386.11 1411,-367 1427.3,-352.65 1450.21,-294.68 1461.37,-264.49"/>
<polygon fill="midnightblue" stroke="midnightblue" points="1464.78,-265.35 1464.91,-254.76 1458.2,-262.95 1464.78,-265.35"/>
</g>
<!-- Node45&#45;&gt;Node11 -->
<g id="edge71" class="edge">
<title>Node45&#45;&gt;Node11</title>
<path fill="none" stroke="midnightblue" d="M1255.61,-403.32C1239.33,-394.7 1214.13,-381.36 1195.28,-371.39"/>
<polygon fill="midnightblue" stroke="midnightblue" points="1196.82,-368.24 1186.35,-366.65 1193.55,-374.43 1196.82,-368.24"/>
</g>
<!-- Node45&#45;&gt;Node20 -->
<g id="edge77" class="edge">
<title>Node45&#45;&gt;Node20</title>
<path fill="none" stroke="midnightblue" d="M1225.26,-403.44C1173.25,-393.92 1089.25,-378.55 1033.58,-368.36"/>
<polygon fill="midnightblue" stroke="midnightblue" points="1033.99,-364.87 1023.52,-366.52 1032.73,-371.76 1033.99,-364.87"/>
</g>
<!-- Node45&#45;&gt;Node32 -->
<g id="edge72" class="edge">
<title>Node45&#45;&gt;Node32</title>
<path fill="none" stroke="midnightblue" d="M1346.52,-411.76C1511.14,-410.56 1894.87,-403.79 1940,-367 1963.23,-348.06 1958,-331.98 1958,-302 1958,-302 1958,-302 1958,-182.5 1958,-111.41 815.26,-83.44 733,-76 720.75,-74.89 707.36,-73.29 695.54,-71.75"/>
<polygon fill="midnightblue" stroke="midnightblue" points="696,-68.28 685.62,-70.42 695.07,-75.22 696,-68.28"/>
</g>
<!-- Node46 -->
<g id="node46" class="node">
<title>Node46</title>
<g id="a_node46"><a xlink:title=" ">
<polygon fill="white" stroke="#bfbfbf" points="1270.5,-347.5 1270.5,-366.5 1335.5,-366.5 1335.5,-347.5 1270.5,-347.5"/>
<text text-anchor="middle" x="1303" y="-354.5" font-family="Helvetica,sans-Serif" font-size="10.00">functional</text>
</a>
</g>
</g>
<!-- Node45&#45;&gt;Node46 -->
<g id="edge73" class="edge">
<title>Node45&#45;&gt;Node46</title>
<path fill="none" stroke="midnightblue" d="M1277.12,-403.08C1281.41,-395.61 1287.66,-384.72 1292.94,-375.52"/>
<polygon fill="midnightblue" stroke="midnightblue" points="1296.03,-377.17 1297.98,-366.75 1289.96,-373.68 1296.03,-377.17"/>
</g>
<!-- Node47 -->
<g id="node47" class="node">
<title>Node47</title>
<g id="a_node47"><a xlink:title=" ">
<polygon fill="white" stroke="#bfbfbf" points="1354,-347.5 1354,-366.5 1402,-366.5 1402,-347.5 1354,-347.5"/>
<text text-anchor="middle" x="1378" y="-354.5" font-family="Helvetica,sans-Serif" font-size="10.00">mutex</text>
</a>
</g>
</g>
<!-- Node45&#45;&gt;Node47 -->
<g id="edge75" class="edge">
<title>Node45&#45;&gt;Node47</title>
<path fill="none" stroke="midnightblue" d="M1289.03,-403.32C1306.03,-394.66 1332.38,-381.24 1351.99,-371.25"/>
<polygon fill="midnightblue" stroke="midnightblue" points="1353.69,-374.31 1361.01,-366.65 1350.51,-368.08 1353.69,-374.31"/>
</g>
</g>
</svg>
