<?xml version="1.0" encoding="UTF-8" standalone="no"?>
<!DOCTYPE svg PUBLIC "-//W3C//DTD SVG 1.1//EN"
 "http://www.w3.org/Graphics/SVG/1.1/DTD/svg11.dtd">
<!-- Generated by graphviz version 2.43.0 (0)
 -->
<!-- Title: precice::cplscheme::CouplingSchemeConfiguration::Config Pages: 1 -->
<!--zoomable 290 -->

<svg id="main" version="1.1" xmlns="http://www.w3.org/2000/svg" xmlns:xlink="http://www.w3.org/1999/xlink" xml:space="preserve" onload="init(evt)">
<style type="text/css"><![CDATA[
.node, .edge {opacity: 0.7;}
.node.selected, .edge.selected {opacity: 1;}
.edge:hover path { stroke: red; }
.edge:hover polygon { stroke: red; fill: red; }
]]></style>

<defs>
  <circle id="rim" cx="0" cy="0" r="7"/>
  <circle id="rim2" cx="0" cy="0" r="3.5"/>
  <g id="zoomPlus">
    <use xlink:href="#rim" fill="#404040"><set attributeName="fill" to="#808080" begin="zoomplus.mouseover" end="zoomplus.mouseout"/></use>
    <path d="M-4,0h8M0,-4v8" fill="none" stroke="white" stroke-width="1.5" pointer-events="none"/>
  </g>
  <g id="zoomMin">
    <use xlink:href="#rim" fill="#404040"><set attributeName="fill" to="#808080" begin="zoomminus.mouseover" end="zoomminus.mouseout"/></use>
    <path d="M-4,0h8" fill="none" stroke="white" stroke-width="1.5" pointer-events="none"/>
  </g>
  <g id="arrowUp" transform="translate(30 24)">
    <use xlink:href="#rim"/>
    <path pointer-events="none" fill="none" stroke="white" stroke-width="1.5" d="M0,-3.0v7 M-2.5,-0.5L0,-3.0L2.5,-0.5"/>
  </g>
  <g id="arrowRight" transform="rotate(90) translate(36 -43)">
    <use xlink:href="#rim"/>
    <path pointer-events="none" fill="none" stroke="white" stroke-width="1.5" d="M0,-3.0v7 M-2.5,-0.5L0,-3.0L2.5,-0.5"/>
  </g>
  <g id="arrowDown" transform="rotate(180) translate(-30 -48)">
    <use xlink:href="#rim"/>
    <path pointer-events="none" fill="none" stroke="white" stroke-width="1.5" d="M0,-3.0v7 M-2.5,-0.5L0,-3.0L2.5,-0.5"/>
  </g>
  <g id="arrowLeft" transform="rotate(270) translate(-36 17)">
    <use xlink:href="#rim"/>
    <path pointer-events="none" fill="none" stroke="white" stroke-width="1.5" d="M0,-3.0v7 M-2.5,-0.5L0,-3.0L2.5,-0.5"/>
  </g>
  <g id="resetDef">
    <use xlink:href="#rim2" fill="#404040"><set attributeName="fill" to="#808080" begin="reset.mouseover" end="reset.mouseout"/></use>
  </g>
</defs>
<script type="application/ecmascript">
var viewWidth = 1318;
var viewHeight = 290;
var sectionId = 'dynsection-0';
</script>
<script type="application/ecmascript" xlink:href="svg.min.js"/>
<svg id="graph" class="graph">
<g id="viewport">
<title>precice::cplscheme::CouplingSchemeConfiguration::Config</title>
<!-- Node1 -->
<g id="Node000001" class="node">
<title>Node1</title>
<g id="a_Node000001"><a xlink:title=" ">
<polygon fill="#999999" stroke="#666666" points="1310,-220 1140,-220 1140,-179 1310,-179 1310,-220"/>
<text text-anchor="start" x="1148" y="-208" font-family="Helvetica,sans-Serif" font-size="10.00">precice::cplscheme</text>
<text text-anchor="start" x="1148" y="-197" font-family="Helvetica,sans-Serif" font-size="10.00">::CouplingSchemeConfiguration</text>
<text text-anchor="middle" x="1225" y="-186" font-family="Helvetica,sans-Serif" font-size="10.00">::Config</text>
</a>
</g>
</g>
<!-- Node2 -->
<g id="Node000002" class="node">
<title>Node2</title>
<g id="a_Node000002"><a xlink:title=" ">
<polygon fill="white" stroke="#666666" points="255.5,-217 190.5,-217 190.5,-198 255.5,-198 255.5,-217"/>
<text text-anchor="middle" x="223" y="-205" font-family="Helvetica,sans-Serif" font-size="10.00">std::string</text>
</a>
</g>
</g>
<!-- Node2&#45;&gt;Node1 -->
<g id="edge1_Node000001_Node000002" class="edge">
<title>Node2&#45;&gt;Node1</title>
<g id="a_edge1_Node000001_Node000002"><a xlink:title=" ">
<path fill="none" stroke="#9a32cd" stroke-dasharray="5,2" d="M265.84,-217.41C283.4,-221.19 304.09,-225.15 323,-227.5 596.9,-261.59 668.37,-248.11 944,-233.5 1023.21,-229.3 1043.43,-231.41 1122,-220.5 1127.82,-219.69 1133.81,-218.75 1139.82,-217.72"/>
<polygon fill="#9a32cd" stroke="#9a32cd" points="266.42,-213.95 255.9,-215.22 264.91,-220.79 266.42,-213.95"/>
</a>
</g>
<text text-anchor="middle" x="662" y="-273.5" font-family="Helvetica,sans-Serif" font-size="10.00" fill="grey"> controller</text>
<text text-anchor="middle" x="662" y="-262.5" font-family="Helvetica,sans-Serif" font-size="10.00" fill="grey">name</text>
<text text-anchor="middle" x="662" y="-251.5" font-family="Helvetica,sans-Serif" font-size="10.00" fill="grey">type</text>
</g>
<!-- Node4 -->
<g id="Node000004" class="node">
<title>Node4</title>
<g id="a_Node000004"><a xlink:title=" ">
<polygon fill="white" stroke="#666666" points="732,-232 592,-232 592,-213 732,-213 732,-232"/>
<text text-anchor="middle" x="662" y="-220" font-family="Helvetica,sans-Serif" font-size="10.00">std::vector&lt; std::string &gt;</text>
</a>
</g>
</g>
<!-- Node2&#45;&gt;Node4 -->
<g id="edge4_Node000004_Node000002" class="edge">
<title>Node2&#45;&gt;Node4</title>
<g id="a_edge4_Node000004_Node000002"><a xlink:title=" ">
<path fill="none" stroke="#9a32cd" stroke-dasharray="5,2" d="M265.83,-208.94C341.1,-211.52 500.03,-216.97 591.75,-220.12"/>
<polygon fill="#9a32cd" stroke="#9a32cd" points="265.89,-205.44 255.78,-208.59 265.65,-212.43 265.89,-205.44"/>
</a>
</g>
<text text-anchor="middle" x="353" y="-215.5" font-family="Helvetica,sans-Serif" font-size="10.00" fill="grey"> elements</text>
</g>
<!-- Node6 -->
<g id="Node000006" class="node">
<title>Node6</title>
<g id="a_Node000006"><a xlink:href="structprecice_1_1cplscheme_1_1CouplingSchemeConfiguration_1_1Config_1_1Exchange.html" target="_top" xlink:title=" ">
<polygon fill="white" stroke="#666666" points="572.5,-70 402.5,-70 402.5,-29 572.5,-29 572.5,-70"/>
<text text-anchor="start" x="410.5" y="-58" font-family="Helvetica,sans-Serif" font-size="10.00">precice::cplscheme</text>
<text text-anchor="start" x="410.5" y="-47" font-family="Helvetica,sans-Serif" font-size="10.00">::CouplingSchemeConfiguration</text>
<text text-anchor="middle" x="487.5" y="-36" font-family="Helvetica,sans-Serif" font-size="10.00">::Config::Exchange</text>
</a>
</g>
</g>
<!-- Node2&#45;&gt;Node6 -->
<g id="edge9_Node000006_Node000002" class="edge">
<title>Node2&#45;&gt;Node6</title>
<g id="a_edge9_Node000006_Node000002"><a xlink:title=" ">
<path fill="none" stroke="#9a32cd" stroke-dasharray="5,2" d="M244.22,-191.82C263.57,-177.42 294.02,-156.28 323,-142.5 348.26,-130.49 362.19,-142.19 383,-123.5 397.8,-110.2 386.61,-96.25 401,-82.5 405.95,-77.77 411.64,-73.7 417.7,-70.2"/>
<polygon fill="#9a32cd" stroke="#9a32cd" points="242.03,-189.1 236.16,-197.92 246.25,-194.68 242.03,-189.1"/>
</a>
</g>
<text text-anchor="middle" x="353" y="-156.5" font-family="Helvetica,sans-Serif" font-size="10.00" fill="grey"> from</text>
<text text-anchor="middle" x="353" y="-145.5" font-family="Helvetica,sans-Serif" font-size="10.00" fill="grey">to</text>
</g>
<!-- Node10 -->
<g id="Node000010" class="node">
<title>Node10</title>
<g id="a_Node000010"><a xlink:href="structprecice_1_1cplscheme_1_1CouplingSchemeConfiguration_1_1ConvergenceMeasureDefintion.html" target="_top" xlink:title=" ">
<polygon fill="white" stroke="#666666" points="574,-133 401,-133 401,-92 574,-92 574,-133"/>
<text text-anchor="start" x="409" y="-121" font-family="Helvetica,sans-Serif" font-size="10.00">precice::cplscheme</text>
<text text-anchor="start" x="409" y="-110" font-family="Helvetica,sans-Serif" font-size="10.00">::CouplingSchemeConfiguration</text>
<text text-anchor="middle" x="487.5" y="-99" font-family="Helvetica,sans-Serif" font-size="10.00">::ConvergenceMeasureDefintion</text>
</a>
</g>
</g>
<!-- Node2&#45;&gt;Node10 -->
<g id="edge13_Node000010_Node000002" class="edge">
<title>Node2&#45;&gt;Node10</title>
<g id="a_edge13_Node000010_Node000002"><a xlink:title=" ">
<path fill="none" stroke="#9a32cd" stroke-dasharray="5,2" d="M265.88,-200.27C298.47,-193.92 344.48,-183.36 383,-168.5 407.59,-159.01 433.68,-144.87 453.51,-133.17"/>
<polygon fill="#9a32cd" stroke="#9a32cd" points="264.97,-196.88 255.8,-202.18 266.28,-203.75 264.97,-196.88"/>
</a>
</g>
<text text-anchor="middle" x="353" y="-189.5" font-family="Helvetica,sans-Serif" font-size="10.00" fill="grey"> meshName</text>
</g>
<!-- Node3 -->
<g id="Node000003" class="node">
<title>Node3</title>
<g id="a_Node000003"><a xlink:title=" ">
<polygon fill="white" stroke="#666666" points="104,-222.5 0,-222.5 0,-192.5 104,-192.5 104,-222.5"/>
<text text-anchor="start" x="8" y="-210.5" font-family="Helvetica,sans-Serif" font-size="10.00">std::basic_string&lt;</text>
<text text-anchor="middle" x="52" y="-199.5" font-family="Helvetica,sans-Serif" font-size="10.00"> Char &gt;</text>
</a>
</g>
</g>
<!-- Node3&#45;&gt;Node2 -->
<g id="edge2_Node000002_Node000003" class="edge">
<title>Node3&#45;&gt;Node2</title>
<g id="a_edge2_Node000002_Node000003"><a xlink:title=" ">
<path fill="none" stroke="#63b8ff" d="M114.25,-207.5C140.06,-207.5 169,-207.5 190.39,-207.5"/>
<polygon fill="#63b8ff" stroke="#63b8ff" points="114.16,-204 104.16,-207.5 114.16,-211 114.16,-204"/>
</a>
</g>
</g>
<!-- Node4&#45;&gt;Node1 -->
<g id="edge3_Node000001_Node000004" class="edge">
<title>Node4&#45;&gt;Node1</title>
<g id="a_edge3_Node000001_Node000004"><a xlink:title=" ">
<path fill="none" stroke="#9a32cd" stroke-dasharray="5,2" d="M742.3,-219.25C847.4,-214.94 1032.05,-207.37 1139.63,-202.96"/>
<polygon fill="#9a32cd" stroke="#9a32cd" points="741.92,-215.76 732.07,-219.67 742.21,-222.76 741.92,-215.76"/>
</a>
</g>
<text text-anchor="middle" x="847" y="-221.5" font-family="Helvetica,sans-Serif" font-size="10.00" fill="grey"> participants</text>
</g>
<!-- Node5 -->
<g id="Node000005" class="node">
<title>Node5</title>
<g id="a_Node000005"><a xlink:title=" ">
<polygon fill="white" stroke="#666666" points="938.5,-90 755.5,-90 755.5,-49 938.5,-49 938.5,-90"/>
<text text-anchor="start" x="763.5" y="-78" font-family="Helvetica,sans-Serif" font-size="10.00">std::vector&lt; precice</text>
<text text-anchor="start" x="763.5" y="-67" font-family="Helvetica,sans-Serif" font-size="10.00">::cplscheme::CouplingScheme</text>
<text text-anchor="middle" x="847" y="-56" font-family="Helvetica,sans-Serif" font-size="10.00">Configuration::Config::Exchange &gt;</text>
</a>
</g>
</g>
<!-- Node5&#45;&gt;Node1 -->
<g id="edge5_Node000001_Node000005" class="edge">
<title>Node5&#45;&gt;Node1</title>
<g id="a_edge5_Node000001_Node000005"><a xlink:title=" ">
<path fill="none" stroke="#9a32cd" stroke-dasharray="5,2" d="M939.93,-92.71C993.71,-107.27 1062.52,-127.59 1122,-150.5 1143.27,-158.69 1166.2,-169.52 1184.93,-178.91"/>
<polygon fill="#9a32cd" stroke="#9a32cd" points="940.63,-89.28 930.07,-90.06 938.82,-96.04 940.63,-89.28"/>
</a>
</g>
<text text-anchor="middle" x="1042" y="-153.5" font-family="Helvetica,sans-Serif" font-size="10.00" fill="grey"> exchanges</text>
</g>
<!-- Node6&#45;&gt;Node5 -->
<g id="edge6_Node000005_Node000006" class="edge">
<title>Node6&#45;&gt;Node5</title>
<g id="a_edge6_Node000005_Node000006"><a xlink:title=" ">
<path fill="none" stroke="#9a32cd" stroke-dasharray="5,2" d="M582.92,-54.78C636.29,-57.77 702.68,-61.48 755.41,-64.43"/>
<polygon fill="#9a32cd" stroke="#9a32cd" points="582.95,-51.28 572.77,-54.21 582.56,-58.27 582.95,-51.28"/>
</a>
</g>
<text text-anchor="middle" x="662" y="-66.5" font-family="Helvetica,sans-Serif" font-size="10.00" fill="grey"> elements</text>
</g>
<!-- Node7 -->
<g id="Node000007" class="node">
<title>Node7</title>
<g id="a_Node000007"><a xlink:title=" ">
<polygon fill="white" stroke="#666666" points="290.5,-67 155.5,-67 155.5,-48 290.5,-48 290.5,-67"/>
<text text-anchor="middle" x="223" y="-55" font-family="Helvetica,sans-Serif" font-size="10.00">std::shared_ptr&lt; Data &gt;</text>
</a>
</g>
</g>
<!-- Node7&#45;&gt;Node6 -->
<g id="edge7_Node000006_Node000007" class="edge">
<title>Node7&#45;&gt;Node6</title>
<g id="a_edge7_Node000006_Node000007"><a xlink:title=" ">
<path fill="none" stroke="#9a32cd" stroke-dasharray="5,2" d="M297.14,-46.8C305.84,-45.86 314.61,-45.05 323,-44.5 348.79,-42.81 376.9,-42.96 402.43,-43.85"/>
<polygon fill="#9a32cd" stroke="#9a32cd" points="296.52,-43.35 286.99,-47.98 297.32,-50.31 296.52,-43.35"/>
</a>
</g>
<text text-anchor="middle" x="353" y="-47.5" font-family="Helvetica,sans-Serif" font-size="10.00" fill="grey"> data</text>
</g>
<!-- Node7&#45;&gt;Node10 -->
<g id="edge12_Node000010_Node000007" class="edge">
<title>Node7&#45;&gt;Node10</title>
<g id="a_edge12_Node000010_Node000007"><a xlink:title=" ">
<path fill="none" stroke="#9a32cd" stroke-dasharray="5,2" d="M279.51,-69.13C314.72,-76.51 360.98,-86.2 400.84,-94.55"/>
<polygon fill="#9a32cd" stroke="#9a32cd" points="279.93,-65.64 269.42,-67.02 278.49,-72.49 279.93,-65.64"/>
</a>
</g>
<text text-anchor="middle" x="353" y="-92.5" font-family="Helvetica,sans-Serif" font-size="10.00" fill="grey"> data</text>
</g>
<!-- Node8 -->
<g id="Node000008" class="node">
<title>Node8</title>
<g id="a_Node000008"><a xlink:title=" ">
<polygon fill="white" stroke="#666666" points="292,-19 154,-19 154,0 292,0 292,-19"/>
<text text-anchor="middle" x="223" y="-7" font-family="Helvetica,sans-Serif" font-size="10.00">std::shared_ptr&lt; Mesh &gt;</text>
</a>
</g>
</g>
<!-- Node8&#45;&gt;Node6 -->
<g id="edge8_Node000006_Node000008" class="edge">
<title>Node8&#45;&gt;Node6</title>
<g id="a_edge8_Node000006_Node000008"><a xlink:title=" ">
<path fill="none" stroke="#9a32cd" stroke-dasharray="5,2" d="M302.34,-17.58C328.1,-20.58 356.83,-24.29 383,-28.5 389.34,-29.52 395.87,-30.65 402.44,-31.85"/>
<polygon fill="#9a32cd" stroke="#9a32cd" points="302.59,-14.09 292.26,-16.43 301.79,-21.04 302.59,-14.09"/>
</a>
</g>
<text text-anchor="middle" x="353" y="-31.5" font-family="Helvetica,sans-Serif" font-size="10.00" fill="grey"> mesh</text>
</g>
<!-- Node9 -->
<g id="Node000009" class="node">
<title>Node9</title>
<g id="a_Node000009"><a xlink:title=" ">
<polygon fill="white" stroke="#666666" points="944,-175.5 750,-175.5 750,-123.5 944,-123.5 944,-175.5"/>
<text text-anchor="start" x="758" y="-163.5" font-family="Helvetica,sans-Serif" font-size="10.00">std::vector&lt; precice</text>
<text text-anchor="start" x="758" y="-152.5" font-family="Helvetica,sans-Serif" font-size="10.00">::cplscheme::CouplingScheme</text>
<text text-anchor="start" x="758" y="-141.5" font-family="Helvetica,sans-Serif" font-size="10.00">Configuration::ConvergenceMeasure</text>
<text text-anchor="middle" x="847" y="-130.5" font-family="Helvetica,sans-Serif" font-size="10.00">Defintion &gt;</text>
</a>
</g>
</g>
<!-- Node9&#45;&gt;Node1 -->
<g id="edge10_Node000001_Node000009" class="edge">
<title>Node9&#45;&gt;Node1</title>
<g id="a_edge10_Node000001_Node000009"><a xlink:title=" ">
<path fill="none" stroke="#9a32cd" stroke-dasharray="5,2" d="M954.39,-163.65C1013.09,-171.45 1084.97,-181.01 1139.74,-188.3"/>
<polygon fill="#9a32cd" stroke="#9a32cd" points="954.72,-160.16 944.34,-162.31 953.79,-167.1 954.72,-160.16"/>
</a>
</g>
<text text-anchor="middle" x="1042" y="-187.5" font-family="Helvetica,sans-Serif" font-size="10.00" fill="grey"> convergenceMeasureDefinitions</text>
</g>
<!-- Node10&#45;&gt;Node9 -->
<g id="edge11_Node000009_Node000010" class="edge">
<title>Node10&#45;&gt;Node9</title>
<g id="a_edge11_Node000009_Node000010"><a xlink:title=" ">
<path fill="none" stroke="#9a32cd" stroke-dasharray="5,2" d="M584.22,-122.41C635.46,-127.71 698.4,-134.22 749.73,-139.54"/>
<polygon fill="#9a32cd" stroke="#9a32cd" points="584.44,-118.91 574.13,-121.36 583.72,-125.87 584.44,-118.91"/>
</a>
</g>
<text text-anchor="middle" x="662" y="-140.5" font-family="Helvetica,sans-Serif" font-size="10.00" fill="grey"> elements</text>
</g>
<!-- Node11 -->
<g id="Node000011" class="node">
<title>Node11</title>
<g id="a_Node000011"><a xlink:title=" ">
<polygon fill="white" stroke="#666666" points="305,-126.5 141,-126.5 141,-96.5 305,-96.5 305,-126.5"/>
<text text-anchor="start" x="149" y="-114.5" font-family="Helvetica,sans-Serif" font-size="10.00">std::shared_ptr&lt; Convergence</text>
<text text-anchor="middle" x="223" y="-103.5" font-family="Helvetica,sans-Serif" font-size="10.00">Measure &gt;</text>
</a>
</g>
</g>
<!-- Node11&#45;&gt;Node10 -->
<g id="edge14_Node000010_Node000011" class="edge">
<title>Node11&#45;&gt;Node10</title>
<g id="a_edge14_Node000010_Node000011"><a xlink:title=" ">
<path fill="none" stroke="#9a32cd" stroke-dasharray="5,2" d="M315.33,-111.85C343.01,-111.95 373.31,-112.07 400.63,-112.17"/>
<polygon fill="#9a32cd" stroke="#9a32cd" points="315.27,-108.35 305.26,-111.81 315.25,-115.35 315.27,-108.35"/>
</a>
</g>
<text text-anchor="middle" x="353" y="-114.5" font-family="Helvetica,sans-Serif" font-size="10.00" fill="grey"> measure</text>
</g>
</g>
</svg>

<g id="navigator" transform="translate(0 0)" fill="#404254">
  <rect fill="#f2f5e9" fill-opacity="0.5" stroke="#606060" stroke-width=".5" x="0" y="0" width="60" height="60"/>
  <use id="zoomplus" xlink:href="#zoomPlus" x="17" y="9" onmousedown="handleZoom(evt,'in')"/>
  <use id="zoomminus" xlink:href="#zoomMin" x="42" y="9" onmousedown="handleZoom(evt,'out')"/>
  <use id="reset" xlink:href="#resetDef" x="30" y="36" onmousedown="handleReset()"/>
   <use id="arrowup" xlink:href="#arrowUp" x="0" y="0" onmousedown="handlePan(0,-1)"/>
  <use id="arrowright" xlink:href="#arrowRight" x="0" y="0" onmousedown="handlePan(1,0)"/>
  <use id="arrowdown" xlink:href="#arrowDown" x="0" y="0" onmousedown="handlePan(0,1)"/>
  <use id="arrowleft" xlink:href="#arrowLeft" x="0" y="0" onmousedown="handlePan(-1,0)"/>
</g>
<svg viewBox="0 0 15 15" width="100%" height="30px" preserveAspectRatio="xMaxYMin meet">
 <g id="arrow_out" transform="scale(0.3 0.3)">
  <a xlink:href="structprecice_1_1cplscheme_1_1CouplingSchemeConfiguration_1_1Config__coll__graph_org.svg" target="_base">
   <rect id="button" ry="5" rx="5" y="6" x="6" height="38" width="38"
        fill="#f2f5e9" fill-opacity="0.5" stroke="#606060" stroke-width="1.0"/>
   <path id="arrow"
     d="M 11.500037,31.436501 C 11.940474,20.09759 22.043105,11.32322 32.158766,21.979434 L 37.068811,17.246167 C 37.068811,17.246167 37.088388,32 37.088388,32 L 22.160133,31.978069 C 22.160133,31.978069 26.997745,27.140456 26.997745,27.140456 C 18.528582,18.264221 13.291696,25.230495 11.500037,31.436501 z"
     style="fill:#404040;"/>
  </a>
 </g>
</svg>

<style type='text/css'>
<![CDATA[
[data-mouse-over-selected='false'] { opacity: 0.7; }
[data-mouse-over-selected='true']  { opacity: 1.0; }
]]>
</style>
<script type="application/ecmascript"><![CDATA[
document.addEventListener('DOMContentLoaded', (event) => {
  highlightEdges();
  highlightAdjacentNodes();
});
]]></script>
</svg>
