<?xml version="1.0" encoding="UTF-8" standalone="no"?>
<!DOCTYPE svg PUBLIC "-//W3C//DTD SVG 1.1//EN"
 "http://www.w3.org/Graphics/SVG/1.1/DTD/svg11.dtd">
<!-- Generated by graphviz version 2.43.0 (0)
 -->
<!-- Title: src/testing/TestContext.hpp Pages: 1 -->
<!--zoomable 487 -->
<svg id="main" version="1.1" xmlns="http://www.w3.org/2000/svg" xmlns:xlink="http://www.w3.org/1999/xlink" xml:space="preserve" onload="init(evt)">
<style type="text/css"><![CDATA[
.edge:hover path { stroke: red; }
.edge:hover polygon { stroke: red; fill: red; }
]]></style>
<script type="text/javascript"><![CDATA[
var edges = document.getElementsByTagName('g');
if (edges && edges.length) {
  for (var i=0;i<edges.length;i++) {
    if (edges[i].id.substr(0,4)=='edge') {
      edges[i].setAttribute('class','edge');
    }
  }
}
]]></script>
        <defs>
                <circle id="rim" cx="0" cy="0" r="7"/>
                <circle id="rim2" cx="0" cy="0" r="3.5"/>
                <g id="zoomPlus">
                        <use xlink:href="#rim" fill="#404040">
                                <set attributeName="fill" to="#808080" begin="zoomplus.mouseover" end="zoomplus.mouseout"/>
                        </use>
                        <path d="M-4,0h8M0,-4v8" fill="none" stroke="white" stroke-width="1.5" pointer-events="none"/>
                </g>
                <g id="zoomMin">
                        <use xlink:href="#rim" fill="#404040">
                                <set attributeName="fill" to="#808080" begin="zoomminus.mouseover" end="zoomminus.mouseout"/>
                        </use>
                        <path d="M-4,0h8" fill="none" stroke="white" stroke-width="1.5" pointer-events="none"/>
                </g>
                <g id="dirArrow">
                        <path fill="none" stroke="white" stroke-width="1.5" d="M0,-3.0v7 M-2.5,-0.5L0,-3.0L2.5,-0.5"/>
                </g>
               <g id="resetDef">
                       <use xlink:href="#rim2" fill="#404040">
                               <set attributeName="fill" to="#808080" begin="reset.mouseover" end="reset.mouseout"/>
                       </use>
               </g>
        </defs>

<script type="text/javascript">
var viewWidth = 1224;
var viewHeight = 487;
var sectionId = 'dynsection-0';
</script>
<script xlink:href="svgpan.js"/>
<svg id="graph" class="graph">
<g id="viewport">
<title>src/testing/TestContext.hpp</title>
<polygon fill="white" stroke="transparent" points="-4,4 -4,-483 1220,-483 1220,4 -4,4"/>
<!-- Node1 -->
<g id="node1" class="node">
<title>Node1</title>
<g id="a_node1"><a xlink:title=" ">
<polygon fill="#bfbfbf" stroke="black" points="865,-459.5 865,-478.5 1014,-478.5 1014,-459.5 865,-459.5"/>
<text text-anchor="middle" x="939.5" y="-466.5" font-family="Helvetica,sans-Serif" font-size="10.00">src/testing/TestContext.hpp</text>
</a>
</g>
</g>
<!-- Node2 -->
<g id="node2" class="node">
<title>Node2</title>
<g id="a_node2"><a xlink:title=" ">
<polygon fill="white" stroke="#bfbfbf" points="0,-403.5 0,-422.5 65,-422.5 65,-403.5 0,-403.5"/>
<text text-anchor="middle" x="32.5" y="-410.5" font-family="Helvetica,sans-Serif" font-size="10.00">stdexcept</text>
</a>
</g>
</g>
<!-- Node1&#45;&gt;Node2 -->
<g id="edge1" class="edge">
<title>Node1&#45;&gt;Node2</title>
<path fill="none" stroke="midnightblue" d="M864.72,-467.52C715.08,-465.81 368.37,-458.05 79.5,-423 78.03,-422.82 76.54,-422.62 75.03,-422.41"/>
<polygon fill="midnightblue" stroke="midnightblue" points="75.45,-418.93 65.03,-420.83 74.35,-425.85 75.45,-418.93"/>
</g>
<!-- Node3 -->
<g id="node3" class="node">
<title>Node3</title>
<g id="a_node3"><a xlink:title=" ">
<polygon fill="white" stroke="#bfbfbf" points="988.5,-112.5 988.5,-131.5 1032.5,-131.5 1032.5,-112.5 988.5,-112.5"/>
<text text-anchor="middle" x="1010.5" y="-119.5" font-family="Helvetica,sans-Serif" font-size="10.00">string</text>
</a>
</g>
</g>
<!-- Node1&#45;&gt;Node3 -->
<g id="edge2" class="edge">
<title>Node1&#45;&gt;Node3</title>
<path fill="none" stroke="midnightblue" d="M951.69,-459.24C973.62,-442.35 1017.5,-402.95 1017.5,-358 1017.5,-358 1017.5,-358 1017.5,-244 1017.5,-207.83 1014.34,-165.69 1012.27,-141.9"/>
<polygon fill="midnightblue" stroke="midnightblue" points="1015.74,-141.44 1011.36,-131.8 1008.77,-142.07 1015.74,-141.44"/>
</g>
<!-- Node4 -->
<g id="node4" class="node">
<title>Node4</title>
<g id="a_node4"><a xlink:title=" ">
<polygon fill="white" stroke="#bfbfbf" points="1084,-403.5 1084,-422.5 1153,-422.5 1153,-403.5 1084,-403.5"/>
<text text-anchor="middle" x="1118.5" y="-410.5" font-family="Helvetica,sans-Serif" font-size="10.00">type_traits</text>
</a>
</g>
</g>
<!-- Node1&#45;&gt;Node4 -->
<g id="edge3" class="edge">
<title>Node1&#45;&gt;Node4</title>
<path fill="none" stroke="midnightblue" d="M967.86,-459.44C998.24,-450.28 1046.61,-435.69 1080.32,-425.52"/>
<polygon fill="midnightblue" stroke="midnightblue" points="1081.71,-428.76 1090.27,-422.52 1079.68,-422.05 1081.71,-428.76"/>
</g>
<!-- Node5 -->
<g id="node5" class="node">
<title>Node5</title>
<g id="a_node5"><a xlink:title=" ">
<polygon fill="white" stroke="#bfbfbf" points="1171,-403.5 1171,-422.5 1216,-422.5 1216,-403.5 1171,-403.5"/>
<text text-anchor="middle" x="1193.5" y="-410.5" font-family="Helvetica,sans-Serif" font-size="10.00">utility</text>
</a>
</g>
</g>
<!-- Node1&#45;&gt;Node5 -->
<g id="edge4" class="edge">
<title>Node1&#45;&gt;Node5</title>
<path fill="none" stroke="midnightblue" d="M986.93,-459.44C1029.92,-451.45 1095.2,-438.72 1161.1,-422.95"/>
<polygon fill="midnightblue" stroke="midnightblue" points="1161.93,-426.35 1170.83,-420.6 1160.29,-419.55 1161.93,-426.35"/>
</g>
<!-- Node6 -->
<g id="node6" class="node">
<title>Node6</title>
<g id="a_node6"><a xlink:title=" ">
<polygon fill="white" stroke="#bfbfbf" points="108,-56.5 108,-75.5 155,-75.5 155,-56.5 108,-56.5"/>
<text text-anchor="middle" x="131.5" y="-63.5" font-family="Helvetica,sans-Serif" font-size="10.00">vector</text>
</a>
</g>
</g>
<!-- Node1&#45;&gt;Node6 -->
<g id="edge5" class="edge">
<title>Node1&#45;&gt;Node6</title>
<path fill="none" stroke="midnightblue" d="M864.79,-466.08C658.05,-459.76 93.5,-435.43 93.5,-358 93.5,-358 93.5,-358 93.5,-182.5 93.5,-146.25 110.59,-106.67 121.85,-84.53"/>
<polygon fill="midnightblue" stroke="midnightblue" points="124.96,-86.14 126.53,-75.66 118.77,-82.87 124.96,-86.14"/>
</g>
<!-- Node7 -->
<g id="node7" class="node">
<title>Node7</title>
<g id="a_node7"><a xlink:href="m2n_2SharedPointer_8hpp.html" target="_top" xlink:title=" ">
<polygon fill="white" stroke="black" points="650.5,-403.5 650.5,-422.5 780.5,-422.5 780.5,-403.5 650.5,-403.5"/>
<text text-anchor="middle" x="715.5" y="-410.5" font-family="Helvetica,sans-Serif" font-size="10.00">m2n/SharedPointer.hpp</text>
</a>
</g>
</g>
<!-- Node1&#45;&gt;Node7 -->
<g id="edge6" class="edge">
<title>Node1&#45;&gt;Node7</title>
<path fill="none" stroke="midnightblue" d="M904.01,-459.44C865.18,-450.08 802.84,-435.06 760.58,-424.87"/>
<polygon fill="midnightblue" stroke="midnightblue" points="761.37,-421.46 750.83,-422.52 759.73,-428.26 761.37,-421.46"/>
</g>
<!-- Node9 -->
<g id="node9" class="node">
<title>Node9</title>
<g id="a_node9"><a xlink:href="impl_2Types_8hpp.html" target="_top" xlink:title=" ">
<polygon fill="white" stroke="black" points="1045.5,-347.5 1045.5,-366.5 1173.5,-366.5 1173.5,-347.5 1045.5,-347.5"/>
<text text-anchor="middle" x="1109.5" y="-354.5" font-family="Helvetica,sans-Serif" font-size="10.00">precice/impl/Types.hpp</text>
</a>
</g>
</g>
<!-- Node1&#45;&gt;Node9 -->
<g id="edge8" class="edge">
<title>Node1&#45;&gt;Node9</title>
<path fill="none" stroke="midnightblue" d="M960.73,-459.35C979.89,-451.15 1008.52,-437.89 1031.5,-423 1054.22,-408.28 1077.75,-387.83 1092.94,-373.82"/>
<polygon fill="midnightblue" stroke="midnightblue" points="1095.56,-376.17 1100.47,-366.78 1090.77,-371.06 1095.56,-376.17"/>
</g>
<!-- Node11 -->
<g id="node11" class="node">
<title>Node11</title>
<g id="a_node11"><a xlink:href="Parallel_8hpp.html" target="_top" xlink:title=" ">
<polygon fill="white" stroke="black" points="812.5,-403.5 812.5,-422.5 910.5,-422.5 910.5,-403.5 812.5,-403.5"/>
<text text-anchor="middle" x="861.5" y="-410.5" font-family="Helvetica,sans-Serif" font-size="10.00">utils/Parallel.hpp</text>
</a>
</g>
</g>
<!-- Node1&#45;&gt;Node11 -->
<g id="edge10" class="edge">
<title>Node1&#45;&gt;Node11</title>
<path fill="none" stroke="midnightblue" d="M926.97,-459.32C914.91,-450.98 896.47,-438.21 882.23,-428.35"/>
<polygon fill="midnightblue" stroke="midnightblue" points="884.22,-425.47 874,-422.65 880.23,-431.22 884.22,-425.47"/>
</g>
<!-- Node8 -->
<g id="node8" class="node">
<title>Node8</title>
<g id="a_node8"><a xlink:title=" ">
<polygon fill="white" stroke="#bfbfbf" points="676.5,-291.5 676.5,-310.5 734.5,-310.5 734.5,-291.5 676.5,-291.5"/>
<text text-anchor="middle" x="705.5" y="-298.5" font-family="Helvetica,sans-Serif" font-size="10.00">memory</text>
</a>
</g>
</g>
<!-- Node7&#45;&gt;Node8 -->
<g id="edge7" class="edge">
<title>Node7&#45;&gt;Node8</title>
<path fill="none" stroke="midnightblue" d="M714.72,-403.37C713.1,-385.62 709.38,-344.67 707.19,-320.6"/>
<polygon fill="midnightblue" stroke="midnightblue" points="710.67,-320.23 706.28,-310.59 703.7,-320.87 710.67,-320.23"/>
</g>
<!-- Node10 -->
<g id="node10" class="node">
<title>Node10</title>
<g id="a_node10"><a xlink:href="Types_8hpp.html" target="_top" xlink:title=" ">
<polygon fill="white" stroke="black" points="1057.5,-291.5 1057.5,-310.5 1161.5,-310.5 1161.5,-291.5 1057.5,-291.5"/>
<text text-anchor="middle" x="1109.5" y="-298.5" font-family="Helvetica,sans-Serif" font-size="10.00">precice/Types.hpp</text>
</a>
</g>
</g>
<!-- Node9&#45;&gt;Node10 -->
<g id="edge9" class="edge">
<title>Node9&#45;&gt;Node10</title>
<path fill="none" stroke="midnightblue" d="M1109.5,-347.08C1109.5,-340.01 1109.5,-329.86 1109.5,-320.99"/>
<polygon fill="midnightblue" stroke="midnightblue" points="1113,-320.75 1109.5,-310.75 1106,-320.75 1113,-320.75"/>
</g>
<!-- Node11&#45;&gt;Node3 -->
<g id="edge14" class="edge">
<title>Node11&#45;&gt;Node3</title>
<path fill="none" stroke="midnightblue" d="M898.64,-403.35C919.53,-396.68 944.55,-385.4 960.5,-367 980.22,-344.26 979.5,-332.1 979.5,-302 979.5,-302 979.5,-302 979.5,-244 979.5,-206.39 993.73,-164.2 1002.91,-140.9"/>
<polygon fill="midnightblue" stroke="midnightblue" points="1006.16,-142.19 1006.7,-131.61 999.68,-139.55 1006.16,-142.19"/>
</g>
<!-- Node11&#45;&gt;Node6 -->
<g id="edge15" class="edge">
<title>Node11&#45;&gt;Node6</title>
<path fill="none" stroke="midnightblue" d="M812.47,-405.26C648.79,-382.68 131.5,-310.63 131.5,-302 131.5,-302 131.5,-302 131.5,-182.5 131.5,-148.36 131.5,-108.55 131.5,-85.71"/>
<polygon fill="midnightblue" stroke="midnightblue" points="135,-85.69 131.5,-75.69 128,-85.69 135,-85.69"/>
</g>
<!-- Node11&#45;&gt;Node8 -->
<g id="edge12" class="edge">
<title>Node11&#45;&gt;Node8</title>
<path fill="none" stroke="midnightblue" d="M832.46,-403.45C810.67,-396.11 780.88,-383.99 758.5,-367 741,-353.71 725.71,-333.5 716.11,-319.14"/>
<polygon fill="midnightblue" stroke="midnightblue" points="719.02,-317.2 710.66,-310.69 713.13,-320.99 719.02,-317.2"/>
</g>
<!-- Node11&#45;&gt;Node9 -->
<g id="edge48" class="edge">
<title>Node11&#45;&gt;Node9</title>
<path fill="none" stroke="midnightblue" d="M900.8,-403.44C944.06,-394.02 1013.67,-378.87 1060.47,-368.68"/>
<polygon fill="midnightblue" stroke="midnightblue" points="1061.36,-372.06 1070.39,-366.52 1059.87,-365.22 1061.36,-372.06"/>
</g>
<!-- Node12 -->
<g id="node12" class="node">
<title>Node12</title>
<g id="a_node12"><a xlink:title=" ">
<polygon fill="white" stroke="#bfbfbf" points="767.5,-347.5 767.5,-366.5 815.5,-366.5 815.5,-347.5 767.5,-347.5"/>
<text text-anchor="middle" x="791.5" y="-354.5" font-family="Helvetica,sans-Serif" font-size="10.00">iosfwd</text>
</a>
</g>
</g>
<!-- Node11&#45;&gt;Node12 -->
<g id="edge11" class="edge">
<title>Node11&#45;&gt;Node12</title>
<path fill="none" stroke="midnightblue" d="M850.25,-403.32C839.7,-395.18 823.7,-382.84 811.06,-373.09"/>
<polygon fill="midnightblue" stroke="midnightblue" points="813.01,-370.17 802.95,-366.83 808.73,-375.71 813.01,-370.17"/>
</g>
<!-- Node13 -->
<g id="node13" class="node">
<title>Node13</title>
<g id="a_node13"><a xlink:title=" ">
<polygon fill="white" stroke="#bfbfbf" points="833.5,-347.5 833.5,-366.5 889.5,-366.5 889.5,-347.5 833.5,-347.5"/>
<text text-anchor="middle" x="861.5" y="-354.5" font-family="Helvetica,sans-Serif" font-size="10.00">optional</text>
</a>
</g>
</g>
<!-- Node11&#45;&gt;Node13 -->
<g id="edge13" class="edge">
<title>Node11&#45;&gt;Node13</title>
<path fill="none" stroke="midnightblue" d="M861.5,-403.08C861.5,-396.01 861.5,-385.86 861.5,-376.99"/>
<polygon fill="midnightblue" stroke="midnightblue" points="865,-376.75 861.5,-366.75 858,-376.75 865,-376.75"/>
</g>
<!-- Node14 -->
<g id="node14" class="node">
<title>Node14</title>
<g id="a_node14"><a xlink:href="Logger_8hpp.html" target="_top" xlink:title=" ">
<polygon fill="white" stroke="black" points="559,-347.5 559,-366.5 668,-366.5 668,-347.5 559,-347.5"/>
<text text-anchor="middle" x="613.5" y="-354.5" font-family="Helvetica,sans-Serif" font-size="10.00">logging/Logger.hpp</text>
</a>
</g>
</g>
<!-- Node11&#45;&gt;Node14 -->
<g id="edge16" class="edge">
<title>Node11&#45;&gt;Node14</title>
<path fill="none" stroke="midnightblue" d="M822.2,-403.44C778.94,-394.02 709.33,-378.87 662.53,-368.68"/>
<polygon fill="midnightblue" stroke="midnightblue" points="663.13,-365.22 652.61,-366.52 661.64,-372.06 663.13,-365.22"/>
</g>
<!-- Node37 -->
<g id="node37" class="node">
<title>Node37</title>
<g id="a_node37"><a xlink:title=" ">
<polygon fill="white" stroke="#bfbfbf" points="907.5,-347.5 907.5,-366.5 951.5,-366.5 951.5,-347.5 907.5,-347.5"/>
<text text-anchor="middle" x="929.5" y="-354.5" font-family="Helvetica,sans-Serif" font-size="10.00">mpi.h</text>
</a>
</g>
</g>
<!-- Node11&#45;&gt;Node37 -->
<g id="edge49" class="edge">
<title>Node11&#45;&gt;Node37</title>
<path fill="none" stroke="midnightblue" d="M872.43,-403.32C882.67,-395.18 898.22,-382.84 910.5,-373.09"/>
<polygon fill="midnightblue" stroke="midnightblue" points="912.72,-375.79 918.38,-366.83 908.37,-370.31 912.72,-375.79"/>
</g>
<!-- Node14&#45;&gt;Node8 -->
<g id="edge17" class="edge">
<title>Node14&#45;&gt;Node8</title>
<path fill="none" stroke="midnightblue" d="M628.28,-347.32C642.77,-338.82 665.07,-325.73 681.99,-315.8"/>
<polygon fill="midnightblue" stroke="midnightblue" points="683.9,-318.74 690.76,-310.65 680.36,-312.7 683.9,-318.74"/>
</g>
<!-- Node15 -->
<g id="node15" class="node">
<title>Node15</title>
<g id="a_node15"><a xlink:title=" ">
<polygon fill="white" stroke="#bfbfbf" points="341,-112.5 341,-131.5 414,-131.5 414,-112.5 341,-112.5"/>
<text text-anchor="middle" x="377.5" y="-119.5" font-family="Helvetica,sans-Serif" font-size="10.00">string_view</text>
</a>
</g>
</g>
<!-- Node14&#45;&gt;Node15 -->
<g id="edge18" class="edge">
<title>Node14&#45;&gt;Node15</title>
<path fill="none" stroke="midnightblue" d="M558.87,-354.43C464.63,-348.42 273.48,-320.98 188.5,-199 151.61,-146.04 263.35,-129.97 330.57,-125.1"/>
<polygon fill="midnightblue" stroke="midnightblue" points="331.2,-128.57 340.95,-124.41 330.74,-121.58 331.2,-128.57"/>
</g>
<!-- Node16 -->
<g id="node16" class="node">
<title>Node16</title>
<g id="a_node16"><a xlink:href="LogMacros_8hpp.html" target="_top" xlink:title=" ">
<polygon fill="white" stroke="black" points="568.5,-291.5 568.5,-310.5 658.5,-310.5 658.5,-291.5 568.5,-291.5"/>
<text text-anchor="middle" x="613.5" y="-298.5" font-family="Helvetica,sans-Serif" font-size="10.00">LogMacros.hpp</text>
</a>
</g>
</g>
<!-- Node14&#45;&gt;Node16 -->
<g id="edge19" class="edge">
<title>Node14&#45;&gt;Node16</title>
<path fill="none" stroke="midnightblue" d="M613.5,-347.08C613.5,-340.01 613.5,-329.86 613.5,-320.99"/>
<polygon fill="midnightblue" stroke="midnightblue" points="617,-320.75 613.5,-310.75 610,-320.75 617,-320.75"/>
</g>
<!-- Node17 -->
<g id="node17" class="node">
<title>Node17</title>
<g id="a_node17"><a xlink:href="fmt_8hpp.html" target="_top" xlink:title=" ">
<polygon fill="white" stroke="black" points="872,-174 872,-193 951,-193 951,-174 872,-174"/>
<text text-anchor="middle" x="911.5" y="-181" font-family="Helvetica,sans-Serif" font-size="10.00">utils/fmt.hpp</text>
</a>
</g>
</g>
<!-- Node16&#45;&gt;Node17 -->
<g id="edge20" class="edge">
<title>Node16&#45;&gt;Node17</title>
<path fill="none" stroke="midnightblue" d="M644.28,-291.49C673.49,-283.15 718.46,-269.57 756.5,-255 802.83,-237.25 855.04,-212.47 885.5,-197.51"/>
<polygon fill="midnightblue" stroke="midnightblue" points="887.17,-200.59 894.59,-193.02 884.07,-194.31 887.17,-200.59"/>
</g>
<!-- Node30 -->
<g id="node30" class="node">
<title>Node30</title>
<g id="a_node30"><a xlink:href="ArgumentFormatter_8hpp.html" target="_top" xlink:title=" ">
<polygon fill="white" stroke="black" points="591,-235.5 591,-254.5 748,-254.5 748,-235.5 591,-235.5"/>
<text text-anchor="middle" x="669.5" y="-242.5" font-family="Helvetica,sans-Serif" font-size="10.00">utils/ArgumentFormatter.hpp</text>
</a>
</g>
</g>
<!-- Node16&#45;&gt;Node30 -->
<g id="edge39" class="edge">
<title>Node16&#45;&gt;Node30</title>
<path fill="none" stroke="midnightblue" d="M622.5,-291.32C630.69,-283.42 643.01,-271.55 652.97,-261.94"/>
<polygon fill="midnightblue" stroke="midnightblue" points="655.57,-264.29 660.34,-254.83 650.71,-259.26 655.57,-264.29"/>
</g>
<!-- Node36 -->
<g id="node36" class="node">
<title>Node36</title>
<g id="a_node36"><a xlink:href="Tracer_8hpp.html" target="_top" xlink:title=" ">
<polygon fill="white" stroke="black" points="468,-235.5 468,-254.5 573,-254.5 573,-235.5 468,-235.5"/>
<text text-anchor="middle" x="520.5" y="-242.5" font-family="Helvetica,sans-Serif" font-size="10.00">logging/Tracer.hpp</text>
</a>
</g>
</g>
<!-- Node16&#45;&gt;Node36 -->
<g id="edge46" class="edge">
<title>Node16&#45;&gt;Node36</title>
<path fill="none" stroke="midnightblue" d="M598.56,-291.32C583.91,-282.82 561.37,-269.73 544.26,-259.8"/>
<polygon fill="midnightblue" stroke="midnightblue" points="545.81,-256.65 535.4,-254.65 542.3,-262.7 545.81,-256.65"/>
</g>
<!-- Node17&#45;&gt;Node3 -->
<g id="edge21" class="edge">
<title>Node17&#45;&gt;Node3</title>
<path fill="none" stroke="midnightblue" d="M925.68,-173.98C941.86,-164.25 968.53,-148.23 987.64,-136.74"/>
<polygon fill="midnightblue" stroke="midnightblue" points="989.57,-139.66 996.34,-131.51 985.97,-133.66 989.57,-139.66"/>
</g>
<!-- Node17&#45;&gt;Node15 -->
<g id="edge22" class="edge">
<title>Node17&#45;&gt;Node15</title>
<path fill="none" stroke="midnightblue" d="M886.05,-173.94C878.54,-171.7 870.25,-169.49 862.5,-168 703.51,-137.4 511.04,-127.4 424.11,-124.3"/>
<polygon fill="midnightblue" stroke="midnightblue" points="424.16,-120.8 414.04,-123.96 423.92,-127.8 424.16,-120.8"/>
</g>
<!-- Node18 -->
<g id="node18" class="node">
<title>Node18</title>
<g id="a_node18"><a xlink:title=" ">
<polygon fill="white" stroke="#bfbfbf" points="730,-56.5 730,-75.5 809,-75.5 809,-56.5 730,-56.5"/>
<text text-anchor="middle" x="769.5" y="-63.5" font-family="Helvetica,sans-Serif" font-size="10.00">fmt/format.h</text>
</a>
</g>
</g>
<!-- Node17&#45;&gt;Node18 -->
<g id="edge23" class="edge">
<title>Node17&#45;&gt;Node18</title>
<path fill="none" stroke="midnightblue" d="M900.83,-173.82C876.88,-154.34 818.58,-106.92 788.37,-82.34"/>
<polygon fill="midnightblue" stroke="midnightblue" points="790.26,-79.38 780.3,-75.78 785.85,-84.81 790.26,-79.38"/>
</g>
<!-- Node19 -->
<g id="node19" class="node">
<title>Node19</title>
<g id="a_node19"><a xlink:title=" ">
<polygon fill="white" stroke="#bfbfbf" points="722.5,-112.5 722.5,-131.5 808.5,-131.5 808.5,-112.5 722.5,-112.5"/>
<text text-anchor="middle" x="765.5" y="-119.5" font-family="Helvetica,sans-Serif" font-size="10.00">fmt/ostream.h</text>
</a>
</g>
</g>
<!-- Node17&#45;&gt;Node19 -->
<g id="edge24" class="edge">
<title>Node17&#45;&gt;Node19</title>
<path fill="none" stroke="midnightblue" d="M890.58,-173.98C865.75,-163.86 824.16,-146.9 795.81,-135.35"/>
<polygon fill="midnightblue" stroke="midnightblue" points="796.96,-132.04 786.38,-131.51 794.32,-138.52 796.96,-132.04"/>
</g>
<!-- Node20 -->
<g id="node20" class="node">
<title>Node20</title>
<g id="a_node20"><a xlink:href="fmtEigen_8hpp.html" target="_top" xlink:title=" ">
<polygon fill="white" stroke="black" points="864.5,-112.5 864.5,-131.5 970.5,-131.5 970.5,-112.5 864.5,-112.5"/>
<text text-anchor="middle" x="917.5" y="-119.5" font-family="Helvetica,sans-Serif" font-size="10.00">utils/fmtEigen.hpp</text>
</a>
</g>
</g>
<!-- Node17&#45;&gt;Node20 -->
<g id="edge25" class="edge">
<title>Node17&#45;&gt;Node20</title>
<path fill="none" stroke="midnightblue" d="M912.36,-173.98C913.21,-165.58 914.53,-152.48 915.62,-141.66"/>
<polygon fill="midnightblue" stroke="midnightblue" points="919.12,-141.81 916.64,-131.51 912.16,-141.11 919.12,-141.81"/>
</g>
<!-- Node25 -->
<g id="node25" class="node">
<title>Node25</title>
<g id="a_node25"><a xlink:href="fmtSTL_8hpp.html" target="_top" xlink:title=" ">
<polygon fill="white" stroke="black" points="587.5,-112.5 587.5,-131.5 683.5,-131.5 683.5,-112.5 587.5,-112.5"/>
<text text-anchor="middle" x="635.5" y="-119.5" font-family="Helvetica,sans-Serif" font-size="10.00">utils/fmtSTL.hpp</text>
</a>
</g>
</g>
<!-- Node17&#45;&gt;Node25 -->
<g id="edge32" class="edge">
<title>Node17&#45;&gt;Node25</title>
<path fill="none" stroke="midnightblue" d="M884.41,-174C877.31,-171.91 869.65,-169.76 862.5,-168 805.56,-153.96 739.76,-141.3 693.71,-133.02"/>
<polygon fill="midnightblue" stroke="midnightblue" points="694.07,-129.52 683.61,-131.21 692.84,-136.42 694.07,-129.52"/>
</g>
<!-- Node20&#45;&gt;Node18 -->
<g id="edge28" class="edge">
<title>Node20&#45;&gt;Node18</title>
<path fill="none" stroke="midnightblue" d="M894.05,-112.44C869.37,-103.44 830.31,-89.19 802.52,-79.05"/>
<polygon fill="midnightblue" stroke="midnightblue" points="803.44,-75.66 792.84,-75.52 801.04,-82.23 803.44,-75.66"/>
</g>
<!-- Node21 -->
<g id="node21" class="node">
<title>Node21</title>
<g id="a_node21"><a xlink:title=" ">
<polygon fill="white" stroke="#bfbfbf" points="998,-0.5 998,-19.5 1067,-19.5 1067,-0.5 998,-0.5"/>
<text text-anchor="middle" x="1032.5" y="-7.5" font-family="Helvetica,sans-Serif" font-size="10.00">Eigen/Core</text>
</a>
</g>
</g>
<!-- Node20&#45;&gt;Node21 -->
<g id="edge26" class="edge">
<title>Node20&#45;&gt;Node21</title>
<path fill="none" stroke="midnightblue" d="M929.79,-112.27C941.68,-103.6 960,-89.66 974.5,-76 990.76,-60.69 1007.56,-41.42 1018.86,-27.85"/>
<polygon fill="midnightblue" stroke="midnightblue" points="1021.79,-29.8 1025.44,-19.85 1016.39,-25.35 1021.79,-29.8"/>
</g>
<!-- Node22 -->
<g id="node22" class="node">
<title>Node22</title>
<g id="a_node22"><a xlink:title=" ">
<polygon fill="white" stroke="#bfbfbf" points="827.5,-56.5 827.5,-75.5 891.5,-75.5 891.5,-56.5 827.5,-56.5"/>
<text text-anchor="middle" x="859.5" y="-63.5" font-family="Helvetica,sans-Serif" font-size="10.00">algorithm</text>
</a>
</g>
</g>
<!-- Node20&#45;&gt;Node22 -->
<g id="edge27" class="edge">
<title>Node20&#45;&gt;Node22</title>
<path fill="none" stroke="midnightblue" d="M908.18,-112.32C899.61,-104.34 886.69,-92.31 876.31,-82.65"/>
<polygon fill="midnightblue" stroke="midnightblue" points="878.69,-80.09 868.99,-75.83 873.92,-85.21 878.69,-80.09"/>
</g>
<!-- Node23 -->
<g id="node23" class="node">
<title>Node23</title>
<g id="a_node23"><a xlink:title=" ">
<polygon fill="white" stroke="#bfbfbf" points="909.5,-56.5 909.5,-75.5 965.5,-75.5 965.5,-56.5 909.5,-56.5"/>
<text text-anchor="middle" x="937.5" y="-63.5" font-family="Helvetica,sans-Serif" font-size="10.00">sstream</text>
</a>
</g>
</g>
<!-- Node20&#45;&gt;Node23 -->
<g id="edge29" class="edge">
<title>Node20&#45;&gt;Node23</title>
<path fill="none" stroke="midnightblue" d="M920.8,-112.08C923.48,-104.85 927.35,-94.41 930.69,-85.4"/>
<polygon fill="midnightblue" stroke="midnightblue" points="934.07,-86.34 934.26,-75.75 927.5,-83.91 934.07,-86.34"/>
</g>
<!-- Node24 -->
<g id="node24" class="node">
<title>Node24</title>
<g id="a_node24"><a xlink:href="EigenIO_8hpp.html" target="_top" xlink:title=" ">
<polygon fill="white" stroke="black" points="1022,-56.5 1022,-75.5 1121,-75.5 1121,-56.5 1022,-56.5"/>
<text text-anchor="middle" x="1071.5" y="-63.5" font-family="Helvetica,sans-Serif" font-size="10.00">utils/EigenIO.hpp</text>
</a>
</g>
</g>
<!-- Node20&#45;&gt;Node24 -->
<g id="edge30" class="edge">
<title>Node20&#45;&gt;Node24</title>
<path fill="none" stroke="midnightblue" d="M941.9,-112.44C967.7,-103.4 1008.58,-89.06 1037.52,-78.92"/>
<polygon fill="midnightblue" stroke="midnightblue" points="1038.93,-82.13 1047.21,-75.52 1036.62,-75.52 1038.93,-82.13"/>
</g>
<!-- Node24&#45;&gt;Node21 -->
<g id="edge31" class="edge">
<title>Node24&#45;&gt;Node21</title>
<path fill="none" stroke="midnightblue" d="M1065.06,-56.08C1059.55,-48.46 1051.47,-37.26 1044.74,-27.94"/>
<polygon fill="midnightblue" stroke="midnightblue" points="1047.51,-25.81 1038.82,-19.75 1041.84,-29.91 1047.51,-25.81"/>
</g>
<!-- Node25&#45;&gt;Node6 -->
<g id="edge38" class="edge">
<title>Node25&#45;&gt;Node6</title>
<path fill="none" stroke="midnightblue" d="M587.17,-115.82C485.71,-104.95 252.66,-79.98 165.35,-70.63"/>
<polygon fill="midnightblue" stroke="midnightblue" points="165.53,-67.13 155.21,-69.54 164.78,-74.09 165.53,-67.13"/>
</g>
<!-- Node25&#45;&gt;Node18 -->
<g id="edge35" class="edge">
<title>Node25&#45;&gt;Node18</title>
<path fill="none" stroke="midnightblue" d="M656.73,-112.44C678.88,-103.52 713.82,-89.44 738.94,-79.32"/>
<polygon fill="midnightblue" stroke="midnightblue" points="740.4,-82.5 748.37,-75.52 737.78,-76.01 740.4,-82.5"/>
</g>
<!-- Node26 -->
<g id="node26" class="node">
<title>Node26</title>
<g id="a_node26"><a xlink:title=" ">
<polygon fill="white" stroke="#bfbfbf" points="669.5,-56.5 669.5,-75.5 711.5,-75.5 711.5,-56.5 669.5,-56.5"/>
<text text-anchor="middle" x="690.5" y="-63.5" font-family="Helvetica,sans-Serif" font-size="10.00">array</text>
</a>
</g>
</g>
<!-- Node25&#45;&gt;Node26 -->
<g id="edge33" class="edge">
<title>Node25&#45;&gt;Node26</title>
<path fill="none" stroke="midnightblue" d="M644.58,-112.08C652.67,-104.14 664.7,-92.34 674.41,-82.8"/>
<polygon fill="midnightblue" stroke="midnightblue" points="676.9,-85.25 681.59,-75.75 672,-80.26 676.9,-85.25"/>
</g>
<!-- Node27 -->
<g id="node27" class="node">
<title>Node27</title>
<g id="a_node27"><a xlink:title=" ">
<polygon fill="white" stroke="#bfbfbf" points="498,-56.5 498,-75.5 545,-75.5 545,-56.5 498,-56.5"/>
<text text-anchor="middle" x="521.5" y="-63.5" font-family="Helvetica,sans-Serif" font-size="10.00">deque</text>
</a>
</g>
</g>
<!-- Node25&#45;&gt;Node27 -->
<g id="edge34" class="edge">
<title>Node25&#45;&gt;Node27</title>
<path fill="none" stroke="midnightblue" d="M617.44,-112.44C598.93,-103.68 569.92,-89.94 548.64,-79.86"/>
<polygon fill="midnightblue" stroke="midnightblue" points="550.01,-76.63 539.48,-75.52 547.02,-82.96 550.01,-76.63"/>
</g>
<!-- Node28 -->
<g id="node28" class="node">
<title>Node28</title>
<g id="a_node28"><a xlink:title=" ">
<polygon fill="white" stroke="#bfbfbf" points="563.5,-56.5 563.5,-75.5 601.5,-75.5 601.5,-56.5 563.5,-56.5"/>
<text text-anchor="middle" x="582.5" y="-63.5" font-family="Helvetica,sans-Serif" font-size="10.00">map</text>
</a>
</g>
</g>
<!-- Node25&#45;&gt;Node28 -->
<g id="edge36" class="edge">
<title>Node25&#45;&gt;Node28</title>
<path fill="none" stroke="midnightblue" d="M626.75,-112.08C619.03,-104.22 607.6,-92.57 598.28,-83.08"/>
<polygon fill="midnightblue" stroke="midnightblue" points="600.59,-80.44 591.09,-75.75 595.6,-85.34 600.59,-80.44"/>
</g>
<!-- Node29 -->
<g id="node29" class="node">
<title>Node29</title>
<g id="a_node29"><a xlink:title=" ">
<polygon fill="white" stroke="#bfbfbf" points="619.5,-56.5 619.5,-75.5 651.5,-75.5 651.5,-56.5 619.5,-56.5"/>
<text text-anchor="middle" x="635.5" y="-63.5" font-family="Helvetica,sans-Serif" font-size="10.00">set</text>
</a>
</g>
</g>
<!-- Node25&#45;&gt;Node29 -->
<g id="edge37" class="edge">
<title>Node25&#45;&gt;Node29</title>
<path fill="none" stroke="midnightblue" d="M635.5,-112.08C635.5,-105.01 635.5,-94.86 635.5,-85.99"/>
<polygon fill="midnightblue" stroke="midnightblue" points="639,-85.75 635.5,-75.75 632,-85.75 639,-85.75"/>
</g>
<!-- Node30&#45;&gt;Node17 -->
<g id="edge45" class="edge">
<title>Node30&#45;&gt;Node17</title>
<path fill="none" stroke="midnightblue" d="M709.22,-235.45C748.36,-226.86 809.78,-212.93 862.5,-199 866.15,-198.04 869.93,-196.99 873.71,-195.92"/>
<polygon fill="midnightblue" stroke="midnightblue" points="874.96,-199.21 883.59,-193.07 873.02,-192.48 874.96,-199.21"/>
</g>
<!-- Node31 -->
<g id="node31" class="node">
<title>Node31</title>
<g id="a_node31"><a xlink:title=" ">
<polygon fill="white" stroke="#bfbfbf" points="485.5,-168.5 485.5,-198.5 595.5,-198.5 595.5,-168.5 485.5,-168.5"/>
<text text-anchor="start" x="493.5" y="-186.5" font-family="Helvetica,sans-Serif" font-size="10.00">boost/preprocessor</text>
<text text-anchor="middle" x="540.5" y="-175.5" font-family="Helvetica,sans-Serif" font-size="10.00">/control/if.hpp</text>
</a>
</g>
</g>
<!-- Node30&#45;&gt;Node31 -->
<g id="edge40" class="edge">
<title>Node30&#45;&gt;Node31</title>
<path fill="none" stroke="midnightblue" d="M651.02,-235.48C632.57,-226.96 603.63,-213.62 580,-202.72"/>
<polygon fill="midnightblue" stroke="midnightblue" points="581.45,-199.53 570.9,-198.52 578.52,-205.89 581.45,-199.53"/>
</g>
<!-- Node32 -->
<g id="node32" class="node">
<title>Node32</title>
<g id="a_node32"><a xlink:title=" ">
<polygon fill="white" stroke="#bfbfbf" points="614,-168.5 614,-198.5 725,-198.5 725,-168.5 614,-168.5"/>
<text text-anchor="start" x="622" y="-186.5" font-family="Helvetica,sans-Serif" font-size="10.00">boost/preprocessor</text>
<text text-anchor="middle" x="669.5" y="-175.5" font-family="Helvetica,sans-Serif" font-size="10.00">/seq/for_each_i.hpp</text>
</a>
</g>
</g>
<!-- Node30&#45;&gt;Node32 -->
<g id="edge41" class="edge">
<title>Node30&#45;&gt;Node32</title>
<path fill="none" stroke="midnightblue" d="M669.5,-235.48C669.5,-228.47 669.5,-218.19 669.5,-208.7"/>
<polygon fill="midnightblue" stroke="midnightblue" points="673,-208.52 669.5,-198.52 666,-208.52 673,-208.52"/>
</g>
<!-- Node33 -->
<g id="node33" class="node">
<title>Node33</title>
<g id="a_node33"><a xlink:title=" ">
<polygon fill="white" stroke="#bfbfbf" points="743.5,-168.5 743.5,-198.5 853.5,-198.5 853.5,-168.5 743.5,-168.5"/>
<text text-anchor="start" x="751.5" y="-186.5" font-family="Helvetica,sans-Serif" font-size="10.00">boost/preprocessor</text>
<text text-anchor="middle" x="798.5" y="-175.5" font-family="Helvetica,sans-Serif" font-size="10.00">/stringize.hpp</text>
</a>
</g>
</g>
<!-- Node30&#45;&gt;Node33 -->
<g id="edge42" class="edge">
<title>Node30&#45;&gt;Node33</title>
<path fill="none" stroke="midnightblue" d="M687.98,-235.48C706.43,-226.96 735.37,-213.62 759,-202.72"/>
<polygon fill="midnightblue" stroke="midnightblue" points="760.48,-205.89 768.1,-198.52 757.55,-199.53 760.48,-205.89"/>
</g>
<!-- Node34 -->
<g id="node34" class="node">
<title>Node34</title>
<g id="a_node34"><a xlink:title=" ">
<polygon fill="white" stroke="#bfbfbf" points="198,-168.5 198,-198.5 313,-198.5 313,-168.5 198,-168.5"/>
<text text-anchor="start" x="206" y="-186.5" font-family="Helvetica,sans-Serif" font-size="10.00">boost/preprocessor</text>
<text text-anchor="middle" x="255.5" y="-175.5" font-family="Helvetica,sans-Serif" font-size="10.00">/variadic/to_seq.hpp</text>
</a>
</g>
</g>
<!-- Node30&#45;&gt;Node34 -->
<g id="edge43" class="edge">
<title>Node30&#45;&gt;Node34</title>
<path fill="none" stroke="midnightblue" d="M590.66,-235.69C522.49,-228.07 421.09,-215.68 323.25,-199.04"/>
<polygon fill="midnightblue" stroke="midnightblue" points="323.63,-195.55 313.18,-197.31 322.45,-202.45 323.63,-195.55"/>
</g>
<!-- Node35 -->
<g id="node35" class="node">
<title>Node35</title>
<g id="a_node35"><a xlink:title=" ">
<polygon fill="white" stroke="#bfbfbf" points="331.5,-174 331.5,-193 467.5,-193 467.5,-174 331.5,-174"/>
<text text-anchor="middle" x="399.5" y="-181" font-family="Helvetica,sans-Serif" font-size="10.00">boost/vmd/is_empty.hpp</text>
</a>
</g>
</g>
<!-- Node30&#45;&gt;Node35 -->
<g id="edge44" class="edge">
<title>Node30&#45;&gt;Node35</title>
<path fill="none" stroke="midnightblue" d="M630.82,-235.48C582.7,-224.87 500.51,-206.76 448.17,-195.22"/>
<polygon fill="midnightblue" stroke="midnightblue" points="448.63,-191.74 438.11,-193.01 447.13,-198.58 448.63,-191.74"/>
</g>
<!-- Node36&#45;&gt;Node14 -->
<g id="edge47" class="edge">
<title>Node36&#45;&gt;Node14</title>
<path fill="none" stroke="midnightblue" d="M524.49,-254.59C530.78,-267.63 543.92,-292.81 559.5,-311 569.27,-322.41 582.13,-333.25 592.85,-341.43"/>
<polygon fill="midnightblue" stroke="midnightblue" points="590.77,-344.25 600.89,-347.38 594.93,-338.62 590.77,-344.25"/>
</g>
</g>
</svg>
        <g id="navigator" transform="translate(0 0)" fill="#404254">
                <rect fill="#f2f5e9" fill-opacity="0.5" stroke="#606060" stroke-width=".5" x="0" y="0" width="60" height="60"/>
                <use id="zoomplus" xlink:href="#zoomPlus" x="17" y="9" onmousedown="handleZoom(evt,'in')"/>
                <use id="zoomminus" xlink:href="#zoomMin" x="42" y="9" onmousedown="handleZoom(evt,'out')"/>
                <use id="reset" xlink:href="#resetDef" x="30" y="36" onmousedown="handleReset()"/>
                <g id="arrowUp" xlink:href="#dirArrow" transform="translate(30 24)" onmousedown="handlePan(0,-1)">
                  <use xlink:href="#rim" fill="#404040">
                        <set attributeName="fill" to="#808080" begin="arrowUp.mouseover" end="arrowUp.mouseout"/>
                  </use>
                  <path fill="none" stroke="white" stroke-width="1.5" d="M0,-3.0v7 M-2.5,-0.5L0,-3.0L2.5,-0.5"/>
                </g>
                <g id="arrowRight" xlink:href="#dirArrow" transform="rotate(90) translate(36 -43)" onmousedown="handlePan(1,0)">
                  <use xlink:href="#rim" fill="#404040">
                        <set attributeName="fill" to="#808080" begin="arrowRight.mouseover" end="arrowRight.mouseout"/>
                  </use>
                  <path fill="none" stroke="white" stroke-width="1.5" d="M0,-3.0v7 M-2.5,-0.5L0,-3.0L2.5,-0.5"/>
                </g>
                <g id="arrowDown" xlink:href="#dirArrow" transform="rotate(180) translate(-30 -48)" onmousedown="handlePan(0,1)">
                  <use xlink:href="#rim" fill="#404040">
                        <set attributeName="fill" to="#808080" begin="arrowDown.mouseover" end="arrowDown.mouseout"/>
                  </use>
                  <path fill="none" stroke="white" stroke-width="1.5" d="M0,-3.0v7 M-2.5,-0.5L0,-3.0L2.5,-0.5"/>
                </g>
                <g id="arrowLeft" xlink:href="#dirArrow" transform="rotate(270) translate(-36 17)" onmousedown="handlePan(-1,0)">
                  <use xlink:href="#rim" fill="#404040">
                        <set attributeName="fill" to="#808080" begin="arrowLeft.mouseover" end="arrowLeft.mouseout"/>
                  </use>
                  <path fill="none" stroke="white" stroke-width="1.5" d="M0,-3.0v7 M-2.5,-0.5L0,-3.0L2.5,-0.5"/>
                </g>
        </g>
        <svg viewBox="0 0 15 15" width="100%" height="30px" preserveAspectRatio="xMaxYMin meet">
         <g id="arrow_out" transform="scale(0.3 0.3)">
          <a xlink:href="TestContext_8hpp__incl_org.svg" target="_base">
           <rect id="button" ry="5" rx="5" y="6" x="6" height="38" width="38"
                fill="#f2f5e9" fill-opacity="0.5" stroke="#606060" stroke-width="1.0"/>
           <path id="arrow"
             d="M 11.500037,31.436501 C 11.940474,20.09759 22.043105,11.32322 32.158766,21.979434 L 37.068811,17.246167 C 37.068811,17.246167 37.088388,32 37.088388,32 L 22.160133,31.978069 C 22.160133,31.978069 26.997745,27.140456 26.997745,27.140456 C 18.528582,18.264221 13.291696,25.230495 11.500037,31.436501 z"
             style="fill:#404040;"/>
          </a>
         </g>
        </svg>
</svg>
