<?xml version="1.0" encoding="UTF-8" standalone="no"?>
<!DOCTYPE svg PUBLIC "-//W3C//DTD SVG 1.1//EN"
 "http://www.w3.org/Graphics/SVG/1.1/DTD/svg11.dtd">
<!-- Generated by graphviz version 2.43.0 (0)
 -->
<!-- Title: src/mesh/Tetrahedron.hpp Pages: 1 -->
<svg width="1503pt" height="666pt"
 viewBox="0.00 0.00 1503.00 666.00" xmlns="http://www.w3.org/2000/svg" xmlns:xlink="http://www.w3.org/1999/xlink">
<g id="graph0" class="graph" transform="scale(1 1) rotate(0) translate(4 662)">
<title>src/mesh/Tetrahedron.hpp</title>
<polygon fill="white" stroke="transparent" points="-4,4 -4,-662 1499,-662 1499,4 -4,4"/>
<!-- Node1 -->
<g id="node1" class="node">
<title>Node1</title>
<g id="a_node1"><a xlink:title=" ">
<polygon fill="#bfbfbf" stroke="black" points="388.5,-638.5 388.5,-657.5 531.5,-657.5 531.5,-638.5 388.5,-638.5"/>
<text text-anchor="middle" x="460" y="-645.5" font-family="Helvetica,sans-Serif" font-size="10.00">src/mesh/Tetrahedron.hpp</text>
</a>
</g>
</g>
<!-- Node2 -->
<g id="node2" class="node">
<title>Node2</title>
<g id="a_node2"><a xlink:title=" ">
<polygon fill="white" stroke="#bfbfbf" points="66,-56.5 66,-75.5 108,-75.5 108,-56.5 66,-56.5"/>
<text text-anchor="middle" x="87" y="-63.5" font-family="Helvetica,sans-Serif" font-size="10.00">array</text>
</a>
</g>
</g>
<!-- Node1&#45;&gt;Node2 -->
<g id="edge1" class="edge">
<title>Node1&#45;&gt;Node2</title>
<path fill="none" stroke="midnightblue" d="M388.38,-644.61C259.09,-638.32 0,-615.88 0,-537 0,-537 0,-537 0,-182.5 0,-138.97 39.91,-101.42 65.67,-81.72"/>
<polygon fill="midnightblue" stroke="midnightblue" points="67.81,-84.49 73.79,-75.74 63.66,-78.85 67.81,-84.49"/>
</g>
<!-- Node3 -->
<g id="node3" class="node">
<title>Node3</title>
<g id="a_node3"><a xlink:title=" ">
<polygon fill="white" stroke="#bfbfbf" points="104,-409 104,-428 164,-428 164,-409 104,-409"/>
<text text-anchor="middle" x="134" y="-416" font-family="Helvetica,sans-Serif" font-size="10.00">iostream</text>
</a>
</g>
</g>
<!-- Node1&#45;&gt;Node3 -->
<g id="edge2" class="edge">
<title>Node1&#45;&gt;Node3</title>
<path fill="none" stroke="midnightblue" d="M447.62,-638.36C398.5,-604.08 217.04,-477.45 154.97,-434.14"/>
<polygon fill="midnightblue" stroke="midnightblue" points="156.6,-431 146.39,-428.15 152.59,-436.74 156.6,-431"/>
</g>
<!-- Node4 -->
<g id="node4" class="node">
<title>Node4</title>
<g id="a_node4"><a xlink:title=" ">
<polygon fill="white" stroke="#bfbfbf" points="1443.5,-582.5 1443.5,-601.5 1484.5,-601.5 1484.5,-582.5 1443.5,-582.5"/>
<text text-anchor="middle" x="1464" y="-589.5" font-family="Helvetica,sans-Serif" font-size="10.00">tuple</text>
</a>
</g>
</g>
<!-- Node1&#45;&gt;Node4 -->
<g id="edge3" class="edge">
<title>Node1&#45;&gt;Node4</title>
<path fill="none" stroke="midnightblue" d="M531.51,-645.58C725,-641.44 1255.9,-627.99 1429,-602 1430.47,-601.78 1431.97,-601.52 1433.49,-601.24"/>
<polygon fill="midnightblue" stroke="midnightblue" points="1434.41,-604.62 1443.42,-599.04 1432.9,-597.78 1434.41,-604.62"/>
</g>
<!-- Node5 -->
<g id="node5" class="node">
<title>Node5</title>
<g id="a_node5"><a xlink:href="Vertex_8hpp.html" target="_top" xlink:title=" ">
<polygon fill="white" stroke="black" points="450.5,-582.5 450.5,-601.5 549.5,-601.5 549.5,-582.5 450.5,-582.5"/>
<text text-anchor="middle" x="500" y="-589.5" font-family="Helvetica,sans-Serif" font-size="10.00">mesh/Vertex.hpp</text>
</a>
</g>
</g>
<!-- Node1&#45;&gt;Node5 -->
<g id="edge4" class="edge">
<title>Node1&#45;&gt;Node5</title>
<path fill="none" stroke="midnightblue" d="M466.61,-638.08C472.26,-630.46 480.54,-619.26 487.45,-609.94"/>
<polygon fill="midnightblue" stroke="midnightblue" points="490.38,-611.87 493.52,-601.75 484.75,-607.7 490.38,-611.87"/>
</g>
<!-- Node9 -->
<g id="node9" class="node">
<title>Node9</title>
<g id="a_node9"><a xlink:href="assertion_8hpp.html" target="_top" xlink:title=" ">
<polygon fill="white" stroke="black" points="546.5,-470.5 546.5,-489.5 653.5,-489.5 653.5,-470.5 546.5,-470.5"/>
<text text-anchor="middle" x="600" y="-477.5" font-family="Helvetica,sans-Serif" font-size="10.00">utils/assertion.hpp</text>
</a>
</g>
</g>
<!-- Node1&#45;&gt;Node9 -->
<g id="edge69" class="edge">
<title>Node1&#45;&gt;Node9</title>
<path fill="none" stroke="midnightblue" d="M455.38,-638.34C450.94,-629.49 444.55,-615.22 442,-602 435.07,-566.01 445.91,-549.54 474,-526 493.55,-509.62 519.52,-499.01 542.79,-492.24"/>
<polygon fill="midnightblue" stroke="midnightblue" points="543.85,-495.58 552.58,-489.56 542.01,-488.82 543.85,-495.58"/>
</g>
<!-- Node41 -->
<g id="node41" class="node">
<title>Node41</title>
<g id="a_node41"><a xlink:href="impl_2Types_8hpp.html" target="_top" xlink:title=" ">
<polygon fill="white" stroke="black" points="1367,-347.5 1367,-366.5 1495,-366.5 1495,-347.5 1367,-347.5"/>
<text text-anchor="middle" x="1431" y="-354.5" font-family="Helvetica,sans-Serif" font-size="10.00">precice/impl/Types.hpp</text>
</a>
</g>
</g>
<!-- Node1&#45;&gt;Node41 -->
<g id="edge68" class="edge">
<title>Node1&#45;&gt;Node41</title>
<path fill="none" stroke="midnightblue" d="M531.78,-646.25C753.88,-643.01 1415,-625.87 1415,-537 1415,-537 1415,-537 1415,-479 1415,-442.58 1422.21,-400.52 1426.95,-376.81"/>
<polygon fill="midnightblue" stroke="midnightblue" points="1430.43,-377.26 1429.04,-366.75 1423.58,-375.83 1430.43,-377.26"/>
</g>
<!-- Node5&#45;&gt;Node2 -->
<g id="edge6" class="edge">
<title>Node5&#45;&gt;Node2</title>
<path fill="none" stroke="midnightblue" d="M470.78,-582.44C442.28,-573.89 397.82,-560.04 360,-546 218.09,-493.32 76,-509.37 76,-358 76,-358 76,-358 76,-182.5 76,-148.21 80.86,-108.45 84.12,-85.66"/>
<polygon fill="midnightblue" stroke="midnightblue" points="87.6,-86.07 85.61,-75.67 80.68,-85.04 87.6,-86.07"/>
</g>
<!-- Node5&#45;&gt;Node3 -->
<g id="edge7" class="edge">
<title>Node5&#45;&gt;Node3</title>
<path fill="none" stroke="midnightblue" d="M481.85,-582.5C422.34,-554.61 232.85,-465.82 161.52,-432.39"/>
<polygon fill="midnightblue" stroke="midnightblue" points="162.8,-429.13 152.26,-428.06 159.83,-435.47 162.8,-429.13"/>
</g>
<!-- Node6 -->
<g id="node6" class="node">
<title>Node6</title>
<g id="a_node6"><a xlink:title=" ">
<polygon fill="white" stroke="#bfbfbf" points="636.5,-0.5 636.5,-19.5 705.5,-19.5 705.5,-0.5 636.5,-0.5"/>
<text text-anchor="middle" x="671" y="-7.5" font-family="Helvetica,sans-Serif" font-size="10.00">Eigen/Core</text>
</a>
</g>
</g>
<!-- Node5&#45;&gt;Node6 -->
<g id="edge5" class="edge">
<title>Node5&#45;&gt;Node6</title>
<path fill="none" stroke="midnightblue" d="M450.12,-589.62C330.66,-584.97 38,-565 38,-481 38,-481 38,-481 38,-121 38,-90.9 33.59,-74.92 57,-56 100.96,-20.47 491.45,-12.93 625.82,-11.39"/>
<polygon fill="midnightblue" stroke="midnightblue" points="626.2,-14.88 636.16,-11.27 626.12,-7.88 626.2,-14.88"/>
</g>
<!-- Node7 -->
<g id="node7" class="node">
<title>Node7</title>
<g id="a_node7"><a xlink:title=" ">
<polygon fill="white" stroke="#bfbfbf" points="482.5,-526.5 482.5,-545.5 527.5,-545.5 527.5,-526.5 482.5,-526.5"/>
<text text-anchor="middle" x="505" y="-533.5" font-family="Helvetica,sans-Serif" font-size="10.00">utility</text>
</a>
</g>
</g>
<!-- Node5&#45;&gt;Node7 -->
<g id="edge8" class="edge">
<title>Node5&#45;&gt;Node7</title>
<path fill="none" stroke="midnightblue" d="M500.83,-582.08C501.48,-575.01 502.42,-564.86 503.24,-555.99"/>
<polygon fill="midnightblue" stroke="midnightblue" points="506.75,-556.03 504.19,-545.75 499.78,-555.39 506.75,-556.03"/>
</g>
<!-- Node8 -->
<g id="node8" class="node">
<title>Node8</title>
<g id="a_node8"><a xlink:href="differences_8hpp.html" target="_top" xlink:title=" ">
<polygon fill="white" stroke="black" points="584,-526.5 584,-545.5 704,-545.5 704,-526.5 584,-526.5"/>
<text text-anchor="middle" x="644" y="-533.5" font-family="Helvetica,sans-Serif" font-size="10.00">math/differences.hpp</text>
</a>
</g>
</g>
<!-- Node5&#45;&gt;Node8 -->
<g id="edge9" class="edge">
<title>Node5&#45;&gt;Node8</title>
<path fill="none" stroke="midnightblue" d="M522.82,-582.44C546.83,-573.44 584.83,-559.19 611.87,-549.05"/>
<polygon fill="midnightblue" stroke="midnightblue" points="613.16,-552.3 621.29,-545.52 610.7,-545.75 613.16,-552.3"/>
</g>
<!-- Node5&#45;&gt;Node9 -->
<g id="edge67" class="edge">
<title>Node5&#45;&gt;Node9</title>
<path fill="none" stroke="midnightblue" d="M507.85,-582.37C524.57,-563.97 563.94,-520.67 585.41,-497.05"/>
<polygon fill="midnightblue" stroke="midnightblue" points="588.05,-499.35 592.19,-489.59 582.87,-494.64 588.05,-499.35"/>
</g>
<!-- Node5&#45;&gt;Node41 -->
<g id="edge66" class="edge">
<title>Node5&#45;&gt;Node41</title>
<path fill="none" stroke="midnightblue" d="M549.52,-590.94C711.12,-589.85 1220.3,-579.28 1353,-490 1389.64,-465.35 1378.07,-440.74 1401,-403 1406.67,-393.67 1413.38,-383.54 1419.01,-375.25"/>
<polygon fill="midnightblue" stroke="midnightblue" points="1422.02,-377.05 1424.8,-366.82 1416.25,-373.08 1422.02,-377.05"/>
</g>
<!-- Node8&#45;&gt;Node6 -->
<g id="edge10" class="edge">
<title>Node8&#45;&gt;Node6</title>
<path fill="none" stroke="midnightblue" d="M704.02,-534.99C812.46,-532.76 1045.91,-517.68 1220,-434 1314.33,-388.66 1329.11,-350.01 1373,-255 1386.61,-225.54 1392,-216.95 1392,-184.5 1392,-184.5 1392,-184.5 1392,-121 1392,-52.3 873.88,-21.03 716.07,-13.1"/>
<polygon fill="midnightblue" stroke="midnightblue" points="715.94,-9.59 705.78,-12.59 715.59,-16.58 715.94,-9.59"/>
</g>
<!-- Node8&#45;&gt;Node9 -->
<g id="edge11" class="edge">
<title>Node8&#45;&gt;Node9</title>
<path fill="none" stroke="midnightblue" d="M636.73,-526.08C630.46,-518.38 621.21,-507.03 613.57,-497.65"/>
<polygon fill="midnightblue" stroke="midnightblue" points="616.16,-495.29 607.13,-489.75 610.73,-499.71 616.16,-495.29"/>
</g>
<!-- Node9&#45;&gt;Node3 -->
<g id="edge13" class="edge">
<title>Node9&#45;&gt;Node3</title>
<path fill="none" stroke="midnightblue" d="M546.27,-474.7C448.89,-466.67 246.96,-448.86 178,-434 174.32,-433.21 170.52,-432.22 166.77,-431.14"/>
<polygon fill="midnightblue" stroke="midnightblue" points="167.63,-427.74 157.04,-428.11 165.55,-434.42 167.63,-427.74"/>
</g>
<!-- Node10 -->
<g id="node10" class="node">
<title>Node10</title>
<g id="a_node10"><a xlink:title=" ">
<polygon fill="white" stroke="#bfbfbf" points="813.5,-409 813.5,-428 862.5,-428 862.5,-409 813.5,-409"/>
<text text-anchor="middle" x="838" y="-416" font-family="Helvetica,sans-Serif" font-size="10.00">cstdlib</text>
</a>
</g>
</g>
<!-- Node9&#45;&gt;Node10 -->
<g id="edge12" class="edge">
<title>Node9&#45;&gt;Node10</title>
<path fill="none" stroke="midnightblue" d="M651,-470.48C692.69,-462.86 752.88,-450.38 804,-434 805.92,-433.38 807.89,-432.7 809.86,-431.97"/>
<polygon fill="midnightblue" stroke="midnightblue" points="811.54,-435.07 819.53,-428.11 808.95,-428.57 811.54,-435.07"/>
</g>
<!-- Node11 -->
<g id="node11" class="node">
<title>Node11</title>
<g id="a_node11"><a xlink:title=" ">
<polygon fill="white" stroke="#bfbfbf" points="959.5,-112.5 959.5,-131.5 1032.5,-131.5 1032.5,-112.5 959.5,-112.5"/>
<text text-anchor="middle" x="996" y="-119.5" font-family="Helvetica,sans-Serif" font-size="10.00">string_view</text>
</a>
</g>
</g>
<!-- Node9&#45;&gt;Node11 -->
<g id="edge14" class="edge">
<title>Node9&#45;&gt;Node11</title>
<path fill="none" stroke="midnightblue" d="M653.74,-478.63C728.84,-476.83 859.32,-468.66 889,-434 897.96,-423.53 895.34,-415.23 889,-403 876.24,-378.37 850.76,-391.63 838,-367 833.91,-359.11 835.04,-355.38 838,-347 844.83,-327.62 855.81,-328.23 867,-311 887.68,-279.16 885.34,-266.85 906,-235 929.51,-198.77 962.39,-160.31 981.21,-139.22"/>
<polygon fill="midnightblue" stroke="midnightblue" points="984.03,-141.31 988.12,-131.54 978.83,-136.62 984.03,-141.31"/>
</g>
<!-- Node12 -->
<g id="node12" class="node">
<title>Node12</title>
<g id="a_node12"><a xlink:href="fmt_8hpp.html" target="_top" xlink:title=" ">
<polygon fill="white" stroke="black" points="777.5,-174 777.5,-193 856.5,-193 856.5,-174 777.5,-174"/>
<text text-anchor="middle" x="817" y="-181" font-family="Helvetica,sans-Serif" font-size="10.00">utils/fmt.hpp</text>
</a>
</g>
</g>
<!-- Node9&#45;&gt;Node12 -->
<g id="edge15" class="edge">
<title>Node9&#45;&gt;Node12</title>
<path fill="none" stroke="midnightblue" d="M653.59,-478.03C724.72,-475.48 844.56,-466.35 872,-434 880.91,-423.49 879.07,-414.83 872,-403 854.65,-373.99 831.11,-388.47 805,-367 780.12,-346.55 769.86,-341.32 759,-311 744.36,-270.1 778.89,-224.25 800.75,-200.58"/>
<polygon fill="midnightblue" stroke="midnightblue" points="803.46,-202.82 807.85,-193.18 798.4,-197.97 803.46,-202.82"/>
</g>
<!-- Node25 -->
<g id="node25" class="node">
<title>Node25</title>
<g id="a_node25"><a xlink:title=" ">
<polygon fill="white" stroke="#bfbfbf" points="296.5,-409 296.5,-428 443.5,-428 443.5,-409 296.5,-409"/>
<text text-anchor="middle" x="370" y="-416" font-family="Helvetica,sans-Serif" font-size="10.00">boost/current_function.hpp</text>
</a>
</g>
</g>
<!-- Node9&#45;&gt;Node25 -->
<g id="edge34" class="edge">
<title>Node9&#45;&gt;Node25</title>
<path fill="none" stroke="midnightblue" d="M567.05,-470.48C526.4,-459.96 457.21,-442.06 412.58,-430.51"/>
<polygon fill="midnightblue" stroke="midnightblue" points="413.45,-427.13 402.89,-428.01 411.7,-433.9 413.45,-427.13"/>
</g>
<!-- Node26 -->
<g id="node26" class="node">
<title>Node26</title>
<g id="a_node26"><a xlink:title=" ">
<polygon fill="white" stroke="#bfbfbf" points="461.5,-403.5 461.5,-433.5 596.5,-433.5 596.5,-403.5 461.5,-403.5"/>
<text text-anchor="start" x="469.5" y="-421.5" font-family="Helvetica,sans-Serif" font-size="10.00">boost/preprocessor</text>
<text text-anchor="middle" x="529" y="-410.5" font-family="Helvetica,sans-Serif" font-size="10.00">/comparison/greater.hpp</text>
</a>
</g>
</g>
<!-- Node9&#45;&gt;Node26 -->
<g id="edge35" class="edge">
<title>Node9&#45;&gt;Node26</title>
<path fill="none" stroke="midnightblue" d="M589.83,-470.48C580.39,-462.57 565.97,-450.48 553.54,-440.07"/>
<polygon fill="midnightblue" stroke="midnightblue" points="555.65,-437.26 545.73,-433.52 551.15,-442.63 555.65,-437.26"/>
</g>
<!-- Node27 -->
<g id="node27" class="node">
<title>Node27</title>
<g id="a_node27"><a xlink:title=" ">
<polygon fill="white" stroke="#bfbfbf" points="104,-168.5 104,-198.5 214,-198.5 214,-168.5 104,-168.5"/>
<text text-anchor="start" x="112" y="-186.5" font-family="Helvetica,sans-Serif" font-size="10.00">boost/preprocessor</text>
<text text-anchor="middle" x="159" y="-175.5" font-family="Helvetica,sans-Serif" font-size="10.00">/control/if.hpp</text>
</a>
</g>
</g>
<!-- Node9&#45;&gt;Node27 -->
<g id="edge36" class="edge">
<title>Node9&#45;&gt;Node27</title>
<path fill="none" stroke="midnightblue" d="M546.27,-478.2C457.43,-475.94 284.76,-467.27 235,-434 202.74,-412.43 192,-396.81 192,-358 192,-358 192,-358 192,-300 192,-267.12 179.48,-230.93 169.87,-207.98"/>
<polygon fill="midnightblue" stroke="midnightblue" points="173.03,-206.49 165.84,-198.71 166.62,-209.28 173.03,-206.49"/>
</g>
<!-- Node28 -->
<g id="node28" class="node">
<title>Node28</title>
<g id="a_node28"><a xlink:title=" ">
<polygon fill="white" stroke="#bfbfbf" points="232,-168.5 232,-198.5 342,-198.5 342,-168.5 232,-168.5"/>
<text text-anchor="start" x="240" y="-186.5" font-family="Helvetica,sans-Serif" font-size="10.00">boost/preprocessor</text>
<text text-anchor="middle" x="287" y="-175.5" font-family="Helvetica,sans-Serif" font-size="10.00">/stringize.hpp</text>
</a>
</g>
</g>
<!-- Node9&#45;&gt;Node28 -->
<g id="edge37" class="edge">
<title>Node9&#45;&gt;Node28</title>
<path fill="none" stroke="midnightblue" d="M546.18,-477.63C464.08,-474.56 312.49,-464.78 269,-434 238.01,-412.07 230,-395.97 230,-358 230,-358 230,-358 230,-300 230,-264.66 251.72,-228.94 268.34,-206.78"/>
<polygon fill="midnightblue" stroke="midnightblue" points="271.25,-208.74 274.63,-198.7 265.73,-204.44 271.25,-208.74"/>
</g>
<!-- Node29 -->
<g id="node29" class="node">
<title>Node29</title>
<g id="a_node29"><a xlink:title=" ">
<polygon fill="white" stroke="#bfbfbf" points="615,-403.5 615,-433.5 725,-433.5 725,-403.5 615,-403.5"/>
<text text-anchor="start" x="623" y="-421.5" font-family="Helvetica,sans-Serif" font-size="10.00">boost/preprocessor</text>
<text text-anchor="middle" x="670" y="-410.5" font-family="Helvetica,sans-Serif" font-size="10.00">/variadic/size.hpp</text>
</a>
</g>
</g>
<!-- Node9&#45;&gt;Node29 -->
<g id="edge38" class="edge">
<title>Node9&#45;&gt;Node29</title>
<path fill="none" stroke="midnightblue" d="M610.03,-470.48C619.33,-462.57 633.55,-450.48 645.8,-440.07"/>
<polygon fill="midnightblue" stroke="midnightblue" points="648.15,-442.67 653.5,-433.52 643.62,-437.33 648.15,-442.67"/>
</g>
<!-- Node30 -->
<g id="node30" class="node">
<title>Node30</title>
<g id="a_node30"><a xlink:href="ArgumentFormatter_8hpp.html" target="_top" xlink:title=" ">
<polygon fill="white" stroke="black" points="402.5,-235.5 402.5,-254.5 559.5,-254.5 559.5,-235.5 402.5,-235.5"/>
<text text-anchor="middle" x="481" y="-242.5" font-family="Helvetica,sans-Serif" font-size="10.00">utils/ArgumentFormatter.hpp</text>
</a>
</g>
</g>
<!-- Node9&#45;&gt;Node30 -->
<g id="edge39" class="edge">
<title>Node9&#45;&gt;Node30</title>
<path fill="none" stroke="midnightblue" d="M546.19,-479.37C465.7,-478.65 319.9,-471.96 287,-434 225.38,-362.89 379.5,-287.77 449.05,-258.6"/>
<polygon fill="midnightblue" stroke="midnightblue" points="450.76,-261.68 458.67,-254.63 448.09,-255.21 450.76,-261.68"/>
</g>
<!-- Node34 -->
<g id="node34" class="node">
<title>Node34</title>
<g id="a_node34"><a xlink:href="Parallel_8hpp.html" target="_top" xlink:title=" ">
<polygon fill="white" stroke="black" points="1064,-409 1064,-428 1162,-428 1162,-409 1064,-409"/>
<text text-anchor="middle" x="1113" y="-416" font-family="Helvetica,sans-Serif" font-size="10.00">utils/Parallel.hpp</text>
</a>
</g>
</g>
<!-- Node9&#45;&gt;Node34 -->
<g id="edge46" class="edge">
<title>Node9&#45;&gt;Node34</title>
<path fill="none" stroke="midnightblue" d="M653.93,-472.74C750.8,-461.51 953.51,-438 1053.96,-426.35"/>
<polygon fill="midnightblue" stroke="midnightblue" points="1054.41,-429.82 1063.94,-425.19 1053.61,-422.87 1054.41,-429.82"/>
</g>
<!-- Node44 -->
<g id="node44" class="node">
<title>Node44</title>
<g id="a_node44"><a xlink:href="stacktrace_8hpp.html" target="_top" xlink:title=" ">
<polygon fill="white" stroke="black" points="1250.5,-235.5 1250.5,-254.5 1363.5,-254.5 1363.5,-235.5 1250.5,-235.5"/>
<text text-anchor="middle" x="1307" y="-242.5" font-family="Helvetica,sans-Serif" font-size="10.00">utils/stacktrace.hpp</text>
</a>
</g>
</g>
<!-- Node9&#45;&gt;Node44 -->
<g id="edge63" class="edge">
<title>Node9&#45;&gt;Node44</title>
<path fill="none" stroke="midnightblue" d="M653.69,-478.05C776.77,-475.34 1075.94,-465.63 1171,-434 1223.88,-416.41 1244.39,-412.19 1277,-367 1299.4,-335.95 1305.17,-290.03 1306.59,-264.62"/>
<polygon fill="midnightblue" stroke="midnightblue" points="1310.1,-264.65 1306.99,-254.52 1303.1,-264.37 1310.1,-264.65"/>
</g>
<!-- Node45 -->
<g id="node45" class="node">
<title>Node45</title>
<g id="a_node45"><a xlink:title=" ">
<polygon fill="white" stroke="#bfbfbf" points="743,-409 743,-428 795,-428 795,-409 743,-409"/>
<text text-anchor="middle" x="769" y="-416" font-family="Helvetica,sans-Serif" font-size="10.00">cassert</text>
</a>
</g>
</g>
<!-- Node9&#45;&gt;Node45 -->
<g id="edge65" class="edge">
<title>Node9&#45;&gt;Node45</title>
<path fill="none" stroke="midnightblue" d="M627.14,-470.49C654.35,-461.82 697.34,-447.73 734,-434 735.85,-433.31 737.74,-432.58 739.65,-431.83"/>
<polygon fill="midnightblue" stroke="midnightblue" points="741.14,-435 749.1,-428.02 738.52,-428.51 741.14,-435"/>
</g>
<!-- Node12&#45;&gt;Node11 -->
<g id="edge17" class="edge">
<title>Node12&#45;&gt;Node11</title>
<path fill="none" stroke="midnightblue" d="M842.65,-173.98C873.62,-163.68 925.87,-146.31 960.65,-134.75"/>
<polygon fill="midnightblue" stroke="midnightblue" points="962.02,-137.98 970.4,-131.51 959.81,-131.34 962.02,-137.98"/>
</g>
<!-- Node13 -->
<g id="node13" class="node">
<title>Node13</title>
<g id="a_node13"><a xlink:title=" ">
<polygon fill="white" stroke="#bfbfbf" points="1212,-112.5 1212,-131.5 1256,-131.5 1256,-112.5 1212,-112.5"/>
<text text-anchor="middle" x="1234" y="-119.5" font-family="Helvetica,sans-Serif" font-size="10.00">string</text>
</a>
</g>
</g>
<!-- Node12&#45;&gt;Node13 -->
<g id="edge16" class="edge">
<title>Node12&#45;&gt;Node13</title>
<path fill="none" stroke="midnightblue" d="M856.61,-176.85C938.57,-165.15 1125.46,-138.49 1201.21,-127.68"/>
<polygon fill="midnightblue" stroke="midnightblue" points="1202.14,-131.08 1211.55,-126.2 1201.16,-124.15 1202.14,-131.08"/>
</g>
<!-- Node14 -->
<g id="node14" class="node">
<title>Node14</title>
<g id="a_node14"><a xlink:title=" ">
<polygon fill="white" stroke="#bfbfbf" points="777.5,-56.5 777.5,-75.5 856.5,-75.5 856.5,-56.5 777.5,-56.5"/>
<text text-anchor="middle" x="817" y="-63.5" font-family="Helvetica,sans-Serif" font-size="10.00">fmt/format.h</text>
</a>
</g>
</g>
<!-- Node12&#45;&gt;Node14 -->
<g id="edge18" class="edge">
<title>Node12&#45;&gt;Node14</title>
<path fill="none" stroke="midnightblue" d="M817,-173.82C817,-155.26 817,-111.34 817,-85.97"/>
<polygon fill="midnightblue" stroke="midnightblue" points="820.5,-85.78 817,-75.78 813.5,-85.78 820.5,-85.78"/>
</g>
<!-- Node15 -->
<g id="node15" class="node">
<title>Node15</title>
<g id="a_node15"><a xlink:title=" ">
<polygon fill="white" stroke="#bfbfbf" points="703,-112.5 703,-131.5 789,-131.5 789,-112.5 703,-112.5"/>
<text text-anchor="middle" x="746" y="-119.5" font-family="Helvetica,sans-Serif" font-size="10.00">fmt/ostream.h</text>
</a>
</g>
</g>
<!-- Node12&#45;&gt;Node15 -->
<g id="edge19" class="edge">
<title>Node12&#45;&gt;Node15</title>
<path fill="none" stroke="midnightblue" d="M806.83,-173.98C795.65,-164.61 777.48,-149.38 763.91,-138.01"/>
<polygon fill="midnightblue" stroke="midnightblue" points="766.07,-135.25 756.15,-131.51 761.57,-140.61 766.07,-135.25"/>
</g>
<!-- Node16 -->
<g id="node16" class="node">
<title>Node16</title>
<g id="a_node16"><a xlink:href="fmtEigen_8hpp.html" target="_top" xlink:title=" ">
<polygon fill="white" stroke="black" points="579,-112.5 579,-131.5 685,-131.5 685,-112.5 579,-112.5"/>
<text text-anchor="middle" x="632" y="-119.5" font-family="Helvetica,sans-Serif" font-size="10.00">utils/fmtEigen.hpp</text>
</a>
</g>
</g>
<!-- Node12&#45;&gt;Node16 -->
<g id="edge20" class="edge">
<title>Node12&#45;&gt;Node16</title>
<path fill="none" stroke="midnightblue" d="M790.49,-173.98C758.35,-163.64 704.01,-146.16 668.07,-134.6"/>
<polygon fill="midnightblue" stroke="midnightblue" points="669.05,-131.24 658.46,-131.51 666.9,-137.9 669.05,-131.24"/>
</g>
<!-- Node20 -->
<g id="node20" class="node">
<title>Node20</title>
<g id="a_node20"><a xlink:href="fmtSTL_8hpp.html" target="_top" xlink:title=" ">
<polygon fill="white" stroke="black" points="845,-112.5 845,-131.5 941,-131.5 941,-112.5 845,-112.5"/>
<text text-anchor="middle" x="893" y="-119.5" font-family="Helvetica,sans-Serif" font-size="10.00">utils/fmtSTL.hpp</text>
</a>
</g>
</g>
<!-- Node12&#45;&gt;Node20 -->
<g id="edge27" class="edge">
<title>Node12&#45;&gt;Node20</title>
<path fill="none" stroke="midnightblue" d="M827.89,-173.98C839.97,-164.52 859.67,-149.1 874.24,-137.69"/>
<polygon fill="midnightblue" stroke="midnightblue" points="876.41,-140.43 882.13,-131.51 872.1,-134.92 876.41,-140.43"/>
</g>
<!-- Node16&#45;&gt;Node6 -->
<g id="edge21" class="edge">
<title>Node16&#45;&gt;Node6</title>
<path fill="none" stroke="midnightblue" d="M634.32,-112.5C637.8,-99.99 644.73,-75.97 652,-56 655.3,-46.92 659.43,-37.01 662.99,-28.81"/>
<polygon fill="midnightblue" stroke="midnightblue" points="666.25,-30.09 667.1,-19.52 659.85,-27.25 666.25,-30.09"/>
</g>
<!-- Node16&#45;&gt;Node14 -->
<g id="edge23" class="edge">
<title>Node16&#45;&gt;Node14</title>
<path fill="none" stroke="midnightblue" d="M661.31,-112.44C692.84,-103.24 743.13,-88.56 777.99,-78.39"/>
<polygon fill="midnightblue" stroke="midnightblue" points="779.2,-81.68 787.82,-75.52 777.24,-74.96 779.2,-81.68"/>
</g>
<!-- Node17 -->
<g id="node17" class="node">
<title>Node17</title>
<g id="a_node17"><a xlink:title=" ">
<polygon fill="white" stroke="#bfbfbf" points="466,-56.5 466,-75.5 530,-75.5 530,-56.5 466,-56.5"/>
<text text-anchor="middle" x="498" y="-63.5" font-family="Helvetica,sans-Serif" font-size="10.00">algorithm</text>
</a>
</g>
</g>
<!-- Node16&#45;&gt;Node17 -->
<g id="edge22" class="edge">
<title>Node16&#45;&gt;Node17</title>
<path fill="none" stroke="midnightblue" d="M610.77,-112.44C588.62,-103.52 553.68,-89.44 528.56,-79.32"/>
<polygon fill="midnightblue" stroke="midnightblue" points="529.72,-76.01 519.13,-75.52 527.1,-82.5 529.72,-76.01"/>
</g>
<!-- Node18 -->
<g id="node18" class="node">
<title>Node18</title>
<g id="a_node18"><a xlink:title=" ">
<polygon fill="white" stroke="#bfbfbf" points="548,-56.5 548,-75.5 604,-75.5 604,-56.5 548,-56.5"/>
<text text-anchor="middle" x="576" y="-63.5" font-family="Helvetica,sans-Serif" font-size="10.00">sstream</text>
</a>
</g>
</g>
<!-- Node16&#45;&gt;Node18 -->
<g id="edge24" class="edge">
<title>Node16&#45;&gt;Node18</title>
<path fill="none" stroke="midnightblue" d="M623,-112.32C614.81,-104.42 602.49,-92.55 592.53,-82.94"/>
<polygon fill="midnightblue" stroke="midnightblue" points="594.79,-80.26 585.16,-75.83 589.93,-85.29 594.79,-80.26"/>
</g>
<!-- Node19 -->
<g id="node19" class="node">
<title>Node19</title>
<g id="a_node19"><a xlink:href="EigenIO_8hpp.html" target="_top" xlink:title=" ">
<polygon fill="white" stroke="black" points="660.5,-56.5 660.5,-75.5 759.5,-75.5 759.5,-56.5 660.5,-56.5"/>
<text text-anchor="middle" x="710" y="-63.5" font-family="Helvetica,sans-Serif" font-size="10.00">utils/EigenIO.hpp</text>
</a>
</g>
</g>
<!-- Node16&#45;&gt;Node19 -->
<g id="edge25" class="edge">
<title>Node16&#45;&gt;Node19</title>
<path fill="none" stroke="midnightblue" d="M644.53,-112.32C656.59,-103.98 675.03,-91.21 689.27,-81.35"/>
<polygon fill="midnightblue" stroke="midnightblue" points="691.27,-84.22 697.5,-75.65 687.28,-78.47 691.27,-84.22"/>
</g>
<!-- Node19&#45;&gt;Node6 -->
<g id="edge26" class="edge">
<title>Node19&#45;&gt;Node6</title>
<path fill="none" stroke="midnightblue" d="M703.56,-56.08C698.05,-48.46 689.97,-37.26 683.24,-27.94"/>
<polygon fill="midnightblue" stroke="midnightblue" points="686.01,-25.81 677.32,-19.75 680.34,-29.91 686.01,-25.81"/>
</g>
<!-- Node20&#45;&gt;Node2 -->
<g id="edge28" class="edge">
<title>Node20&#45;&gt;Node2</title>
<path fill="none" stroke="midnightblue" d="M844.7,-116.13C829.74,-114.7 813.19,-113.2 798,-112 535.65,-91.28 218.24,-73.92 118.53,-68.64"/>
<polygon fill="midnightblue" stroke="midnightblue" points="118.42,-65.13 108.25,-68.1 118.05,-72.12 118.42,-65.13"/>
</g>
<!-- Node20&#45;&gt;Node14 -->
<g id="edge30" class="edge">
<title>Node20&#45;&gt;Node14</title>
<path fill="none" stroke="midnightblue" d="M880.79,-112.32C869.22,-104.11 851.62,-91.6 837.84,-81.81"/>
<polygon fill="midnightblue" stroke="midnightblue" points="839.61,-78.77 829.43,-75.83 835.56,-84.48 839.61,-78.77"/>
</g>
<!-- Node21 -->
<g id="node21" class="node">
<title>Node21</title>
<g id="a_node21"><a xlink:title=" ">
<polygon fill="white" stroke="#bfbfbf" points="981.5,-56.5 981.5,-75.5 1028.5,-75.5 1028.5,-56.5 981.5,-56.5"/>
<text text-anchor="middle" x="1005" y="-63.5" font-family="Helvetica,sans-Serif" font-size="10.00">deque</text>
</a>
</g>
</g>
<!-- Node20&#45;&gt;Node21 -->
<g id="edge29" class="edge">
<title>Node20&#45;&gt;Node21</title>
<path fill="none" stroke="midnightblue" d="M910.99,-112.32C929.04,-103.62 957.05,-90.12 977.8,-80.11"/>
<polygon fill="midnightblue" stroke="midnightblue" points="979.56,-83.15 987.05,-75.65 976.52,-76.84 979.56,-83.15"/>
</g>
<!-- Node22 -->
<g id="node22" class="node">
<title>Node22</title>
<g id="a_node22"><a xlink:title=" ">
<polygon fill="white" stroke="#bfbfbf" points="875,-56.5 875,-75.5 913,-75.5 913,-56.5 875,-56.5"/>
<text text-anchor="middle" x="894" y="-63.5" font-family="Helvetica,sans-Serif" font-size="10.00">map</text>
</a>
</g>
</g>
<!-- Node20&#45;&gt;Node22 -->
<g id="edge31" class="edge">
<title>Node20&#45;&gt;Node22</title>
<path fill="none" stroke="midnightblue" d="M893.17,-112.08C893.3,-105.01 893.48,-94.86 893.65,-85.99"/>
<polygon fill="midnightblue" stroke="midnightblue" points="897.15,-85.81 893.84,-75.75 890.15,-85.68 897.15,-85.81"/>
</g>
<!-- Node23 -->
<g id="node23" class="node">
<title>Node23</title>
<g id="a_node23"><a xlink:title=" ">
<polygon fill="white" stroke="#bfbfbf" points="931,-56.5 931,-75.5 963,-75.5 963,-56.5 931,-56.5"/>
<text text-anchor="middle" x="947" y="-63.5" font-family="Helvetica,sans-Serif" font-size="10.00">set</text>
</a>
</g>
</g>
<!-- Node20&#45;&gt;Node23 -->
<g id="edge32" class="edge">
<title>Node20&#45;&gt;Node23</title>
<path fill="none" stroke="midnightblue" d="M901.92,-112.08C909.78,-104.22 921.43,-92.57 930.92,-83.08"/>
<polygon fill="midnightblue" stroke="midnightblue" points="933.65,-85.3 938.25,-75.75 928.7,-80.35 933.65,-85.3"/>
</g>
<!-- Node24 -->
<g id="node24" class="node">
<title>Node24</title>
<g id="a_node24"><a xlink:title=" ">
<polygon fill="white" stroke="#bfbfbf" points="1095.5,-56.5 1095.5,-75.5 1142.5,-75.5 1142.5,-56.5 1095.5,-56.5"/>
<text text-anchor="middle" x="1119" y="-63.5" font-family="Helvetica,sans-Serif" font-size="10.00">vector</text>
</a>
</g>
</g>
<!-- Node20&#45;&gt;Node24 -->
<g id="edge33" class="edge">
<title>Node20&#45;&gt;Node24</title>
<path fill="none" stroke="midnightblue" d="M928.81,-112.44C971.93,-102.14 1043.77,-84.97 1085.73,-74.95"/>
<polygon fill="midnightblue" stroke="midnightblue" points="1086.55,-78.35 1095.46,-72.62 1084.92,-71.54 1086.55,-78.35"/>
</g>
<!-- Node30&#45;&gt;Node12 -->
<g id="edge45" class="edge">
<title>Node30&#45;&gt;Node12</title>
<path fill="none" stroke="midnightblue" d="M552.26,-235.49C610.64,-227.88 695.18,-215.41 768,-199 772.14,-198.07 776.44,-196.98 780.7,-195.82"/>
<polygon fill="midnightblue" stroke="midnightblue" points="781.8,-199.15 790.47,-193.05 779.89,-192.41 781.8,-199.15"/>
</g>
<!-- Node30&#45;&gt;Node27 -->
<g id="edge40" class="edge">
<title>Node30&#45;&gt;Node27</title>
<path fill="none" stroke="midnightblue" d="M427.49,-235.47C377.45,-227.31 300.41,-214.29 224.36,-199.22"/>
<polygon fill="midnightblue" stroke="midnightblue" points="224.61,-195.7 214.12,-197.17 223.24,-202.56 224.61,-195.7"/>
</g>
<!-- Node30&#45;&gt;Node28 -->
<g id="edge42" class="edge">
<title>Node30&#45;&gt;Node28</title>
<path fill="none" stroke="midnightblue" d="M453.2,-235.48C424.47,-226.66 378.84,-212.67 342.66,-201.57"/>
<polygon fill="midnightblue" stroke="midnightblue" points="343.31,-198.11 332.72,-198.52 341.26,-204.8 343.31,-198.11"/>
</g>
<!-- Node31 -->
<g id="node31" class="node">
<title>Node31</title>
<g id="a_node31"><a xlink:title=" ">
<polygon fill="white" stroke="#bfbfbf" points="360.5,-168.5 360.5,-198.5 471.5,-198.5 471.5,-168.5 360.5,-168.5"/>
<text text-anchor="start" x="368.5" y="-186.5" font-family="Helvetica,sans-Serif" font-size="10.00">boost/preprocessor</text>
<text text-anchor="middle" x="416" y="-175.5" font-family="Helvetica,sans-Serif" font-size="10.00">/seq/for_each_i.hpp</text>
</a>
</g>
</g>
<!-- Node30&#45;&gt;Node31 -->
<g id="edge41" class="edge">
<title>Node30&#45;&gt;Node31</title>
<path fill="none" stroke="midnightblue" d="M471.69,-235.48C463.13,-227.64 450.1,-215.71 438.79,-205.37"/>
<polygon fill="midnightblue" stroke="midnightblue" points="441.06,-202.69 431.32,-198.52 436.33,-207.86 441.06,-202.69"/>
</g>
<!-- Node32 -->
<g id="node32" class="node">
<title>Node32</title>
<g id="a_node32"><a xlink:title=" ">
<polygon fill="white" stroke="#bfbfbf" points="489.5,-168.5 489.5,-198.5 604.5,-198.5 604.5,-168.5 489.5,-168.5"/>
<text text-anchor="start" x="497.5" y="-186.5" font-family="Helvetica,sans-Serif" font-size="10.00">boost/preprocessor</text>
<text text-anchor="middle" x="547" y="-175.5" font-family="Helvetica,sans-Serif" font-size="10.00">/variadic/to_seq.hpp</text>
</a>
</g>
</g>
<!-- Node30&#45;&gt;Node32 -->
<g id="edge43" class="edge">
<title>Node30&#45;&gt;Node32</title>
<path fill="none" stroke="midnightblue" d="M490.46,-235.48C499.14,-227.64 512.38,-215.71 523.86,-205.37"/>
<polygon fill="midnightblue" stroke="midnightblue" points="526.36,-207.82 531.45,-198.52 521.67,-202.62 526.36,-207.82"/>
</g>
<!-- Node33 -->
<g id="node33" class="node">
<title>Node33</title>
<g id="a_node33"><a xlink:title=" ">
<polygon fill="white" stroke="#bfbfbf" points="623,-174 623,-193 759,-193 759,-174 623,-174"/>
<text text-anchor="middle" x="691" y="-181" font-family="Helvetica,sans-Serif" font-size="10.00">boost/vmd/is_empty.hpp</text>
</a>
</g>
</g>
<!-- Node30&#45;&gt;Node33 -->
<g id="edge44" class="edge">
<title>Node30&#45;&gt;Node33</title>
<path fill="none" stroke="midnightblue" d="M511.09,-235.48C547.89,-225.05 610.31,-207.36 651.09,-195.81"/>
<polygon fill="midnightblue" stroke="midnightblue" points="652.3,-199.1 660.97,-193.01 650.39,-192.37 652.3,-199.1"/>
</g>
<!-- Node34&#45;&gt;Node13 -->
<g id="edge50" class="edge">
<title>Node34&#45;&gt;Node13</title>
<path fill="none" stroke="midnightblue" d="M1145.31,-409C1178.91,-399.43 1228.11,-383.1 1239,-367 1245.28,-357.72 1237.77,-197.29 1234.97,-141.75"/>
<polygon fill="midnightblue" stroke="midnightblue" points="1238.46,-141.39 1234.45,-131.58 1231.47,-141.74 1238.46,-141.39"/>
</g>
<!-- Node34&#45;&gt;Node24 -->
<g id="edge51" class="edge">
<title>Node34&#45;&gt;Node24</title>
<path fill="none" stroke="midnightblue" d="M1146.26,-408.93C1167.4,-401.57 1193.13,-388.63 1206,-367 1263.96,-269.58 1169.26,-131.24 1132.57,-83.75"/>
<polygon fill="midnightblue" stroke="midnightblue" points="1135.19,-81.43 1126.25,-75.74 1129.69,-85.76 1135.19,-81.43"/>
</g>
<!-- Node35 -->
<g id="node35" class="node">
<title>Node35</title>
<g id="a_node35"><a xlink:title=" ">
<polygon fill="white" stroke="#bfbfbf" points="1037,-347.5 1037,-366.5 1085,-366.5 1085,-347.5 1037,-347.5"/>
<text text-anchor="middle" x="1061" y="-354.5" font-family="Helvetica,sans-Serif" font-size="10.00">iosfwd</text>
</a>
</g>
</g>
<!-- Node34&#45;&gt;Node35 -->
<g id="edge47" class="edge">
<title>Node34&#45;&gt;Node35</title>
<path fill="none" stroke="midnightblue" d="M1105.55,-408.98C1097.67,-399.96 1085.06,-385.52 1075.26,-374.31"/>
<polygon fill="midnightblue" stroke="midnightblue" points="1077.65,-371.74 1068.44,-366.51 1072.38,-376.34 1077.65,-371.74"/>
</g>
<!-- Node36 -->
<g id="node36" class="node">
<title>Node36</title>
<g id="a_node36"><a xlink:title=" ">
<polygon fill="white" stroke="#bfbfbf" points="1081,-291.5 1081,-310.5 1139,-310.5 1139,-291.5 1081,-291.5"/>
<text text-anchor="middle" x="1110" y="-298.5" font-family="Helvetica,sans-Serif" font-size="10.00">memory</text>
</a>
</g>
</g>
<!-- Node34&#45;&gt;Node36 -->
<g id="edge48" class="edge">
<title>Node34&#45;&gt;Node36</title>
<path fill="none" stroke="midnightblue" d="M1112.77,-408.82C1112.29,-390.26 1111.15,-346.34 1110.49,-320.97"/>
<polygon fill="midnightblue" stroke="midnightblue" points="1113.99,-320.69 1110.23,-310.78 1106.99,-320.87 1113.99,-320.69"/>
</g>
<!-- Node37 -->
<g id="node37" class="node">
<title>Node37</title>
<g id="a_node37"><a xlink:title=" ">
<polygon fill="white" stroke="#bfbfbf" points="1141,-347.5 1141,-366.5 1197,-366.5 1197,-347.5 1141,-347.5"/>
<text text-anchor="middle" x="1169" y="-354.5" font-family="Helvetica,sans-Serif" font-size="10.00">optional</text>
</a>
</g>
</g>
<!-- Node34&#45;&gt;Node37 -->
<g id="edge49" class="edge">
<title>Node34&#45;&gt;Node37</title>
<path fill="none" stroke="midnightblue" d="M1121.02,-408.98C1129.59,-399.87 1143.36,-385.24 1153.96,-373.98"/>
<polygon fill="midnightblue" stroke="midnightblue" points="1156.69,-376.19 1160.99,-366.51 1151.59,-371.39 1156.69,-376.19"/>
</g>
<!-- Node38 -->
<g id="node38" class="node">
<title>Node38</title>
<g id="a_node38"><a xlink:href="Logger_8hpp.html" target="_top" xlink:title=" ">
<polygon fill="white" stroke="black" points="909.5,-347.5 909.5,-366.5 1018.5,-366.5 1018.5,-347.5 909.5,-347.5"/>
<text text-anchor="middle" x="964" y="-354.5" font-family="Helvetica,sans-Serif" font-size="10.00">logging/Logger.hpp</text>
</a>
</g>
</g>
<!-- Node34&#45;&gt;Node38 -->
<g id="edge52" class="edge">
<title>Node34&#45;&gt;Node38</title>
<path fill="none" stroke="midnightblue" d="M1091.65,-408.98C1066.31,-398.86 1023.86,-381.9 994.93,-370.35"/>
<polygon fill="midnightblue" stroke="midnightblue" points="995.89,-366.97 985.31,-366.51 993.3,-373.47 995.89,-366.97"/>
</g>
<!-- Node34&#45;&gt;Node41 -->
<g id="edge60" class="edge">
<title>Node34&#45;&gt;Node41</title>
<path fill="none" stroke="midnightblue" d="M1158.56,-408.98C1215.83,-398.26 1314.05,-379.88 1375.6,-368.37"/>
<polygon fill="midnightblue" stroke="midnightblue" points="1376.34,-371.79 1385.52,-366.51 1375.05,-364.91 1376.34,-371.79"/>
</g>
<!-- Node43 -->
<g id="node43" class="node">
<title>Node43</title>
<g id="a_node43"><a xlink:title=" ">
<polygon fill="white" stroke="#bfbfbf" points="847,-347.5 847,-366.5 891,-366.5 891,-347.5 847,-347.5"/>
<text text-anchor="middle" x="869" y="-354.5" font-family="Helvetica,sans-Serif" font-size="10.00">mpi.h</text>
</a>
</g>
</g>
<!-- Node34&#45;&gt;Node43 -->
<g id="edge62" class="edge">
<title>Node34&#45;&gt;Node43</title>
<path fill="none" stroke="midnightblue" d="M1074.97,-408.93C1032.46,-399.23 961.61,-382.73 901,-367 900.9,-366.97 900.8,-366.95 900.7,-366.92"/>
<polygon fill="midnightblue" stroke="midnightblue" points="901.57,-363.53 891,-364.31 899.75,-370.29 901.57,-363.53"/>
</g>
<!-- Node38&#45;&gt;Node11 -->
<g id="edge54" class="edge">
<title>Node38&#45;&gt;Node11</title>
<path fill="none" stroke="midnightblue" d="M972.04,-347.42C986.79,-331.02 1017.71,-293.41 1029,-255 1040.94,-214.39 1019.99,-165.95 1006.35,-140.54"/>
<polygon fill="midnightblue" stroke="midnightblue" points="1009.34,-138.72 1001.4,-131.71 1003.24,-142.15 1009.34,-138.72"/>
</g>
<!-- Node38&#45;&gt;Node36 -->
<g id="edge53" class="edge">
<title>Node38&#45;&gt;Node36</title>
<path fill="none" stroke="midnightblue" d="M987.13,-347.44C1011.48,-338.44 1050.01,-324.19 1077.42,-314.05"/>
<polygon fill="midnightblue" stroke="midnightblue" points="1078.81,-317.27 1086.97,-310.52 1076.38,-310.7 1078.81,-317.27"/>
</g>
<!-- Node39 -->
<g id="node39" class="node">
<title>Node39</title>
<g id="a_node39"><a xlink:href="LogMacros_8hpp.html" target="_top" xlink:title=" ">
<polygon fill="white" stroke="black" points="768,-291.5 768,-310.5 858,-310.5 858,-291.5 768,-291.5"/>
<text text-anchor="middle" x="813" y="-298.5" font-family="Helvetica,sans-Serif" font-size="10.00">LogMacros.hpp</text>
</a>
</g>
</g>
<!-- Node38&#45;&gt;Node39 -->
<g id="edge55" class="edge">
<title>Node38&#45;&gt;Node39</title>
<path fill="none" stroke="midnightblue" d="M940.07,-347.44C914.78,-338.4 874.7,-324.06 846.32,-313.92"/>
<polygon fill="midnightblue" stroke="midnightblue" points="847.41,-310.59 836.81,-310.52 845.05,-317.18 847.41,-310.59"/>
</g>
<!-- Node39&#45;&gt;Node12 -->
<g id="edge56" class="edge">
<title>Node39&#45;&gt;Node12</title>
<path fill="none" stroke="midnightblue" d="M813.3,-291.32C813.94,-272.76 815.46,-228.84 816.34,-203.47"/>
<polygon fill="midnightblue" stroke="midnightblue" points="819.85,-203.4 816.7,-193.28 812.85,-203.15 819.85,-203.4"/>
</g>
<!-- Node39&#45;&gt;Node30 -->
<g id="edge57" class="edge">
<title>Node39&#45;&gt;Node30</title>
<path fill="none" stroke="midnightblue" d="M767.88,-292.66C709.9,-283.23 608.96,-266.81 543.59,-256.18"/>
<polygon fill="midnightblue" stroke="midnightblue" points="543.84,-252.68 533.41,-254.52 542.72,-259.58 543.84,-252.68"/>
</g>
<!-- Node40 -->
<g id="node40" class="node">
<title>Node40</title>
<g id="a_node40"><a xlink:href="Tracer_8hpp.html" target="_top" xlink:title=" ">
<polygon fill="white" stroke="black" points="914.5,-235.5 914.5,-254.5 1019.5,-254.5 1019.5,-235.5 914.5,-235.5"/>
<text text-anchor="middle" x="967" y="-242.5" font-family="Helvetica,sans-Serif" font-size="10.00">logging/Tracer.hpp</text>
</a>
</g>
</g>
<!-- Node39&#45;&gt;Node40 -->
<g id="edge58" class="edge">
<title>Node39&#45;&gt;Node40</title>
<path fill="none" stroke="midnightblue" d="M837.4,-291.44C863.2,-282.4 904.08,-268.06 933.02,-257.92"/>
<polygon fill="midnightblue" stroke="midnightblue" points="934.43,-261.13 942.71,-254.52 932.12,-254.52 934.43,-261.13"/>
</g>
<!-- Node40&#45;&gt;Node38 -->
<g id="edge59" class="edge">
<title>Node40&#45;&gt;Node38</title>
<path fill="none" stroke="midnightblue" d="M966.77,-254.59C966.28,-272.31 965.17,-313.25 964.51,-337.35"/>
<polygon fill="midnightblue" stroke="midnightblue" points="961.01,-337.28 964.24,-347.37 968.01,-337.47 961.01,-337.28"/>
</g>
<!-- Node42 -->
<g id="node42" class="node">
<title>Node42</title>
<g id="a_node42"><a xlink:href="Types_8hpp.html" target="_top" xlink:title=" ">
<polygon fill="white" stroke="black" points="1379,-291.5 1379,-310.5 1483,-310.5 1483,-291.5 1379,-291.5"/>
<text text-anchor="middle" x="1431" y="-298.5" font-family="Helvetica,sans-Serif" font-size="10.00">precice/Types.hpp</text>
</a>
</g>
</g>
<!-- Node41&#45;&gt;Node42 -->
<g id="edge61" class="edge">
<title>Node41&#45;&gt;Node42</title>
<path fill="none" stroke="midnightblue" d="M1431,-347.08C1431,-340.01 1431,-329.86 1431,-320.99"/>
<polygon fill="midnightblue" stroke="midnightblue" points="1434.5,-320.75 1431,-310.75 1427.5,-320.75 1434.5,-320.75"/>
</g>
<!-- Node44&#45;&gt;Node13 -->
<g id="edge64" class="edge">
<title>Node44&#45;&gt;Node13</title>
<path fill="none" stroke="midnightblue" d="M1301.75,-235.3C1289.81,-215.5 1260.41,-166.78 1244.55,-140.49"/>
<polygon fill="midnightblue" stroke="midnightblue" points="1247.37,-138.38 1239.2,-131.62 1241.37,-141.99 1247.37,-138.38"/>
</g>
</g>
</svg>
