<?xml version="1.0" encoding="UTF-8" standalone="no"?>
<!DOCTYPE svg PUBLIC "-//W3C//DTD SVG 1.1//EN"
 "http://www.w3.org/Graphics/SVG/1.1/DTD/svg11.dtd">
<!-- Generated by graphviz version 2.43.0 (0)
 -->
<!-- Title: src/io/TXTReader.cpp Pages: 1 -->
<svg width="972pt" height="478pt"
 viewBox="0.00 0.00 971.50 478.00" xmlns="http://www.w3.org/2000/svg" xmlns:xlink="http://www.w3.org/1999/xlink">
<g id="graph0" class="graph" transform="scale(1 1) rotate(0) translate(4 474)">
<title>src/io/TXTReader.cpp</title>
<!-- Node1 -->
<g id="Node000001" class="node">
<title>Node1</title>
<g id="a_Node000001"><a xlink:title=" ">
<polygon fill="#999999" stroke="#666666" points="326.5,-470 207.5,-470 207.5,-451 326.5,-451 326.5,-470"/>
<text text-anchor="middle" x="267" y="-458" font-family="Helvetica,sans-Serif" font-size="10.00">src/io/TXTReader.cpp</text>
</a>
</g>
</g>
<!-- Node2 -->
<g id="Node000002" class="node">
<title>Node2</title>
<g id="a_Node000002"><a xlink:href="TXTReader_8hpp.html" target="_top" xlink:title=" ">
<polygon fill="white" stroke="#666666" points="393,-415 303,-415 303,-396 393,-396 393,-415"/>
<text text-anchor="middle" x="348" y="-403" font-family="Helvetica,sans-Serif" font-size="10.00">TXTReader.hpp</text>
</a>
</g>
</g>
<!-- Node1&#45;&gt;Node2 -->
<g id="edge1_Node000001_Node000002" class="edge">
<title>Node1&#45;&gt;Node2</title>
<g id="a_edge1_Node000001_Node000002"><a xlink:title=" ">
<path fill="none" stroke="#63b8ff" d="M280.01,-450.98C292.46,-442.84 311.46,-430.41 326.21,-420.76"/>
<polygon fill="#63b8ff" stroke="#63b8ff" points="328.3,-423.57 334.75,-415.17 324.46,-417.72 328.3,-423.57"/>
</a>
</g>
</g>
<!-- Node9 -->
<g id="Node000009" class="node">
<title>Node9</title>
<g id="a_Node000009"><a xlink:href="LogMacros_8hpp.html" target="_top" xlink:title=" ">
<polygon fill="white" stroke="#666666" points="568,-305 478,-305 478,-286 568,-286 568,-305"/>
<text text-anchor="middle" x="523" y="-293" font-family="Helvetica,sans-Serif" font-size="10.00">LogMacros.hpp</text>
</a>
</g>
</g>
<!-- Node1&#45;&gt;Node9 -->
<g id="edge37_Node000001_Node000009" class="edge">
<title>Node1&#45;&gt;Node9</title>
<g id="a_edge37_Node000001_Node000009"><a xlink:title=" ">
<path fill="none" stroke="#63b8ff" d="M267.48,-450.76C269.2,-428.69 276.91,-370.36 311,-341 334.09,-321.11 412.9,-308.57 467.63,-302.04"/>
<polygon fill="#63b8ff" stroke="#63b8ff" points="468.36,-305.48 477.89,-300.86 467.56,-298.53 468.36,-305.48"/>
</a>
</g>
</g>
<!-- Node3 -->
<g id="Node000003" class="node">
<title>Node3</title>
<g id="a_Node000003"><a xlink:title=" ">
<polygon fill="#e0e0e0" stroke="#999999" points="870.5,-19 801.5,-19 801.5,0 870.5,0 870.5,-19"/>
<text text-anchor="middle" x="836" y="-7" font-family="Helvetica,sans-Serif" font-size="10.00">Eigen/Core</text>
</a>
</g>
</g>
<!-- Node2&#45;&gt;Node3 -->
<g id="edge2_Node000002_Node000003" class="edge">
<title>Node2&#45;&gt;Node3</title>
<g id="a_edge2_Node000002_Node000003"><a xlink:title=" ">
<path fill="none" stroke="#63b8ff" d="M302.86,-400.06C208.7,-389.56 0,-359.21 0,-296.5 0,-296.5 0,-296.5 0,-118.5 0,-37.96 618.13,-16.08 791.36,-11.52"/>
<polygon fill="#63b8ff" stroke="#63b8ff" points="791.5,-15.02 801.41,-11.27 791.32,-8.02 791.5,-15.02"/>
</a>
</g>
</g>
<!-- Node4 -->
<g id="Node000004" class="node">
<title>Node4</title>
<g id="a_Node000004"><a xlink:title=" ">
<polygon fill="#e0e0e0" stroke="#999999" points="375.5,-360 320.5,-360 320.5,-341 375.5,-341 375.5,-360"/>
<text text-anchor="middle" x="348" y="-348" font-family="Helvetica,sans-Serif" font-size="10.00">fstream</text>
</a>
</g>
</g>
<!-- Node2&#45;&gt;Node4 -->
<g id="edge3_Node000002_Node000004" class="edge">
<title>Node2&#45;&gt;Node4</title>
<g id="a_edge3_Node000002_Node000004"><a xlink:title=" ">
<path fill="none" stroke="#63b8ff" d="M348,-395.75C348,-388.8 348,-378.85 348,-370.13"/>
<polygon fill="#63b8ff" stroke="#63b8ff" points="351.5,-370.09 348,-360.09 344.5,-370.09 351.5,-370.09"/>
</a>
</g>
</g>
<!-- Node5 -->
<g id="Node000005" class="node">
<title>Node5</title>
<g id="a_Node000005"><a xlink:title=" ">
<polygon fill="#e0e0e0" stroke="#999999" points="909,-129 865,-129 865,-110 909,-110 909,-129"/>
<text text-anchor="middle" x="887" y="-117" font-family="Helvetica,sans-Serif" font-size="10.00">string</text>
</a>
</g>
</g>
<!-- Node2&#45;&gt;Node5 -->
<g id="edge4_Node000002_Node000005" class="edge">
<title>Node2&#45;&gt;Node5</title>
<g id="a_edge4_Node000002_Node000005"><a xlink:title=" ">
<path fill="none" stroke="#63b8ff" d="M393.24,-404.66C519.75,-403.92 868,-393.08 868,-296.5 868,-296.5 868,-296.5 868,-239.5 868,-203.54 876.56,-162.23 882.19,-138.96"/>
<polygon fill="#63b8ff" stroke="#63b8ff" points="885.63,-139.64 884.67,-129.09 878.84,-137.93 885.63,-139.64"/>
</a>
</g>
</g>
<!-- Node6 -->
<g id="Node000006" class="node">
<title>Node6</title>
<g id="a_Node000006"><a xlink:href="Logger_8hpp.html" target="_top" xlink:title=" ">
<polygon fill="white" stroke="#666666" points="654.5,-360 545.5,-360 545.5,-341 654.5,-341 654.5,-360"/>
<text text-anchor="middle" x="600" y="-348" font-family="Helvetica,sans-Serif" font-size="10.00">logging/Logger.hpp</text>
</a>
</g>
</g>
<!-- Node2&#45;&gt;Node6 -->
<g id="edge5_Node000002_Node000006" class="edge">
<title>Node2&#45;&gt;Node6</title>
<g id="a_edge5_Node000002_Node000006"><a xlink:title=" ">
<path fill="none" stroke="#63b8ff" d="M388.49,-395.98C432.17,-386.8 501.81,-372.15 549.15,-362.19"/>
<polygon fill="#63b8ff" stroke="#63b8ff" points="550.13,-365.57 559.19,-360.08 548.69,-358.72 550.13,-365.57"/>
</a>
</g>
</g>
<!-- Node7 -->
<g id="Node000007" class="node">
<title>Node7</title>
<g id="a_Node000007"><a xlink:title=" ">
<polygon fill="#e0e0e0" stroke="#999999" points="686,-305 628,-305 628,-286 686,-286 686,-305"/>
<text text-anchor="middle" x="657" y="-293" font-family="Helvetica,sans-Serif" font-size="10.00">memory</text>
</a>
</g>
</g>
<!-- Node6&#45;&gt;Node7 -->
<g id="edge6_Node000006_Node000007" class="edge">
<title>Node6&#45;&gt;Node7</title>
<g id="a_edge6_Node000006_Node000007"><a xlink:title=" ">
<path fill="none" stroke="#63b8ff" d="M609.16,-340.98C617.5,-333.23 630.03,-321.58 640.18,-312.14"/>
<polygon fill="#63b8ff" stroke="#63b8ff" points="642.74,-314.54 647.68,-305.17 637.97,-309.42 642.74,-314.54"/>
</a>
</g>
</g>
<!-- Node8 -->
<g id="Node000008" class="node">
<title>Node8</title>
<g id="a_Node000008"><a xlink:title=" ">
<polygon fill="#e0e0e0" stroke="#999999" points="846.5,-129 773.5,-129 773.5,-110 846.5,-110 846.5,-129"/>
<text text-anchor="middle" x="810" y="-117" font-family="Helvetica,sans-Serif" font-size="10.00">string_view</text>
</a>
</g>
</g>
<!-- Node6&#45;&gt;Node8 -->
<g id="edge7_Node000006_Node000008" class="edge">
<title>Node6&#45;&gt;Node8</title>
<g id="a_edge7_Node000006_Node000008"><a xlink:title=" ">
<path fill="none" stroke="#63b8ff" d="M625.39,-340.96C645.5,-333.44 673.66,-321.17 695,-305 746.49,-266 759.75,-252.08 790,-195 799.39,-177.29 804.63,-154.82 807.37,-139.21"/>
<polygon fill="#63b8ff" stroke="#63b8ff" points="810.85,-139.65 808.95,-129.23 803.93,-138.56 810.85,-139.65"/>
</a>
</g>
</g>
<!-- Node6&#45;&gt;Node9 -->
<g id="edge8_Node000006_Node000009" class="edge">
<title>Node6&#45;&gt;Node9</title>
<g id="a_edge8_Node000006_Node000009"><a xlink:title=" ">
<path fill="none" stroke="#63b8ff" d="M587.63,-340.98C575.91,-332.92 558.08,-320.65 544.11,-311.03"/>
<polygon fill="#63b8ff" stroke="#63b8ff" points="545.82,-307.96 535.6,-305.17 541.85,-313.72 545.82,-307.96"/>
</a>
</g>
</g>
<!-- Node10 -->
<g id="Node000010" class="node">
<title>Node10</title>
<g id="a_Node000010"><a xlink:href="fmt_8hpp.html" target="_top" xlink:title=" ">
<polygon fill="white" stroke="#666666" points="781.5,-189.5 702.5,-189.5 702.5,-170.5 781.5,-170.5 781.5,-189.5"/>
<text text-anchor="middle" x="742" y="-177.5" font-family="Helvetica,sans-Serif" font-size="10.00">utils/fmt.hpp</text>
</a>
</g>
</g>
<!-- Node9&#45;&gt;Node10 -->
<g id="edge9_Node000009_Node000010" class="edge">
<title>Node9&#45;&gt;Node10</title>
<g id="a_edge9_Node000009_Node000010"><a xlink:title=" ">
<path fill="none" stroke="#63b8ff" d="M523.01,-285.71C523.53,-271.98 526.61,-245.54 542,-231 592.15,-183.62 626.26,-212.48 693,-195 696.35,-194.12 699.83,-193.18 703.31,-192.23"/>
<polygon fill="#63b8ff" stroke="#63b8ff" points="704.35,-195.57 713.04,-189.5 702.47,-188.83 704.35,-195.57"/>
</a>
</g>
</g>
<!-- Node23 -->
<g id="Node000023" class="node">
<title>Node23</title>
<g id="a_Node000023"><a xlink:href="ArgumentFormatter_8hpp.html" target="_top" xlink:title=" ">
<polygon fill="white" stroke="#666666" points="494.5,-250 337.5,-250 337.5,-231 494.5,-231 494.5,-250"/>
<text text-anchor="middle" x="416" y="-238" font-family="Helvetica,sans-Serif" font-size="10.00">utils/ArgumentFormatter.hpp</text>
</a>
</g>
</g>
<!-- Node9&#45;&gt;Node23 -->
<g id="edge28_Node000009_Node000023" class="edge">
<title>Node9&#45;&gt;Node23</title>
<g id="a_edge28_Node000009_Node000023"><a xlink:title=" ">
<path fill="none" stroke="#63b8ff" d="M505.81,-285.98C488.75,-277.54 462.37,-264.47 442.6,-254.68"/>
<polygon fill="#63b8ff" stroke="#63b8ff" points="444.02,-251.47 433.5,-250.17 440.91,-257.75 444.02,-251.47"/>
</a>
</g>
</g>
<!-- Node29 -->
<g id="Node000029" class="node">
<title>Node29</title>
<g id="a_Node000029"><a xlink:href="Tracer_8hpp.html" target="_top" xlink:title=" ">
<polygon fill="white" stroke="#666666" points="656.5,-250 551.5,-250 551.5,-231 656.5,-231 656.5,-250"/>
<text text-anchor="middle" x="604" y="-238" font-family="Helvetica,sans-Serif" font-size="10.00">logging/Tracer.hpp</text>
</a>
</g>
</g>
<!-- Node9&#45;&gt;Node29 -->
<g id="edge35_Node000009_Node000029" class="edge">
<title>Node9&#45;&gt;Node29</title>
<g id="a_edge35_Node000009_Node000029"><a xlink:title=" ">
<path fill="none" stroke="#63b8ff" d="M536.01,-285.98C548.46,-277.84 567.46,-265.41 582.21,-255.76"/>
<polygon fill="#63b8ff" stroke="#63b8ff" points="584.3,-258.57 590.75,-250.17 580.46,-252.72 584.3,-258.57"/>
</a>
</g>
</g>
<!-- Node10&#45;&gt;Node5 -->
<g id="edge10_Node000010_Node000005" class="edge">
<title>Node10&#45;&gt;Node5</title>
<g id="a_edge10_Node000010_Node000005"><a xlink:title=" ">
<path fill="none" stroke="#63b8ff" d="M763.08,-170.49C787.68,-160.57 828.53,-144.09 856.56,-132.78"/>
<polygon fill="#63b8ff" stroke="#63b8ff" points="857.93,-136 865.89,-129.02 855.31,-129.51 857.93,-136"/>
</a>
</g>
</g>
<!-- Node10&#45;&gt;Node8 -->
<g id="edge11_Node000010_Node000008" class="edge">
<title>Node10&#45;&gt;Node8</title>
<g id="a_edge11_Node000010_Node000008"><a xlink:title=" ">
<path fill="none" stroke="#63b8ff" d="M752.03,-170.37C762.58,-161.3 779.39,-146.84 792.19,-135.82"/>
<polygon fill="#63b8ff" stroke="#63b8ff" points="794.63,-138.34 799.93,-129.17 790.06,-133.04 794.63,-138.34"/>
</a>
</g>
</g>
<!-- Node11 -->
<g id="Node000011" class="node">
<title>Node11</title>
<g id="a_Node000011"><a xlink:title=" ">
<polygon fill="#e0e0e0" stroke="#999999" points="651.5,-74 572.5,-74 572.5,-55 651.5,-55 651.5,-74"/>
<text text-anchor="middle" x="612" y="-62" font-family="Helvetica,sans-Serif" font-size="10.00">fmt/format.h</text>
</a>
</g>
</g>
<!-- Node10&#45;&gt;Node11 -->
<g id="edge12_Node000010_Node000011" class="edge">
<title>Node10&#45;&gt;Node11</title>
<g id="a_edge12_Node000010_Node000011"><a xlink:title=" ">
<path fill="none" stroke="#63b8ff" d="M711.81,-170.43C689.49,-162.74 659.67,-149.48 640,-129 628.02,-116.52 620.67,-98.06 616.52,-84.25"/>
<polygon fill="#63b8ff" stroke="#63b8ff" points="619.84,-83.13 613.86,-74.39 613.08,-84.95 619.84,-83.13"/>
</a>
</g>
</g>
<!-- Node12 -->
<g id="Node000012" class="node">
<title>Node12</title>
<g id="a_Node000012"><a xlink:title=" ">
<polygon fill="#e0e0e0" stroke="#999999" points="436,-129 350,-129 350,-110 436,-110 436,-129"/>
<text text-anchor="middle" x="393" y="-117" font-family="Helvetica,sans-Serif" font-size="10.00">fmt/ostream.h</text>
</a>
</g>
</g>
<!-- Node10&#45;&gt;Node12 -->
<g id="edge13_Node000010_Node000012" class="edge">
<title>Node10&#45;&gt;Node12</title>
<g id="a_edge13_Node000010_Node000012"><a xlink:title=" ">
<path fill="none" stroke="#63b8ff" d="M714.69,-170.5C707.67,-168.5 700.09,-166.52 693,-165 587.18,-142.31 556.78,-145.76 446.01,-129.12"/>
<polygon fill="#63b8ff" stroke="#63b8ff" points="446.53,-125.66 436.12,-127.61 445.48,-132.58 446.53,-125.66"/>
</a>
</g>
</g>
<!-- Node13 -->
<g id="Node000013" class="node">
<title>Node13</title>
<g id="a_Node000013"><a xlink:href="fmtEigen_8hpp.html" target="_top" xlink:title=" ">
<polygon fill="white" stroke="#666666" points="755,-129 649,-129 649,-110 755,-110 755,-129"/>
<text text-anchor="middle" x="702" y="-117" font-family="Helvetica,sans-Serif" font-size="10.00">utils/fmtEigen.hpp</text>
</a>
</g>
</g>
<!-- Node10&#45;&gt;Node13 -->
<g id="edge14_Node000010_Node000013" class="edge">
<title>Node10&#45;&gt;Node13</title>
<g id="a_edge14_Node000010_Node000013"><a xlink:title=" ">
<path fill="none" stroke="#63b8ff" d="M736.1,-170.37C730.25,-161.81 721.13,-148.47 713.79,-137.74"/>
<polygon fill="#63b8ff" stroke="#63b8ff" points="716.46,-135.45 707.93,-129.17 710.68,-139.4 716.46,-135.45"/>
</a>
</g>
</g>
<!-- Node17 -->
<g id="Node000017" class="node">
<title>Node17</title>
<g id="a_Node000017"><a xlink:href="fmtSTL_8hpp.html" target="_top" xlink:title=" ">
<polygon fill="white" stroke="#666666" points="550,-129 454,-129 454,-110 550,-110 550,-129"/>
<text text-anchor="middle" x="502" y="-117" font-family="Helvetica,sans-Serif" font-size="10.00">utils/fmtSTL.hpp</text>
</a>
</g>
</g>
<!-- Node10&#45;&gt;Node17 -->
<g id="edge21_Node000010_Node000017" class="edge">
<title>Node10&#45;&gt;Node17</title>
<g id="a_edge21_Node000010_Node000017"><a xlink:title=" ">
<path fill="none" stroke="#63b8ff" d="M713.05,-170.47C706.47,-168.61 699.51,-166.69 693,-165 645.05,-152.57 589.9,-139.9 551.23,-131.27"/>
<polygon fill="#63b8ff" stroke="#63b8ff" points="551.8,-127.81 541.28,-129.06 550.28,-134.64 551.8,-127.81"/>
</a>
</g>
</g>
<!-- Node13&#45;&gt;Node3 -->
<g id="edge15_Node000013_Node000003" class="edge">
<title>Node13&#45;&gt;Node3</title>
<g id="a_edge15_Node000013_Node000003"><a xlink:title=" ">
<path fill="none" stroke="#63b8ff" d="M750.7,-109.98C773.64,-103.64 799.71,-92.71 817,-74 828.23,-61.85 832.84,-43.33 834.72,-29.41"/>
<polygon fill="#63b8ff" stroke="#63b8ff" points="838.24,-29.35 835.75,-19.05 831.28,-28.66 838.24,-29.35"/>
</a>
</g>
</g>
<!-- Node13&#45;&gt;Node11 -->
<g id="edge17_Node000013_Node000011" class="edge">
<title>Node13&#45;&gt;Node11</title>
<g id="a_edge17_Node000013_Node000011"><a xlink:title=" ">
<path fill="none" stroke="#63b8ff" d="M687.54,-109.98C673.58,-101.77 652.21,-89.18 635.75,-79.49"/>
<polygon fill="#63b8ff" stroke="#63b8ff" points="637.12,-76.23 626.72,-74.17 633.56,-82.26 637.12,-76.23"/>
</a>
</g>
</g>
<!-- Node14 -->
<g id="Node000014" class="node">
<title>Node14</title>
<g id="a_Node000014"><a xlink:title=" ">
<polygon fill="#e0e0e0" stroke="#999999" points="734,-74 670,-74 670,-55 734,-55 734,-74"/>
<text text-anchor="middle" x="702" y="-62" font-family="Helvetica,sans-Serif" font-size="10.00">algorithm</text>
</a>
</g>
</g>
<!-- Node13&#45;&gt;Node14 -->
<g id="edge16_Node000013_Node000014" class="edge">
<title>Node13&#45;&gt;Node14</title>
<g id="a_edge16_Node000013_Node000014"><a xlink:title=" ">
<path fill="none" stroke="#63b8ff" d="M702,-109.75C702,-102.8 702,-92.85 702,-84.13"/>
<polygon fill="#63b8ff" stroke="#63b8ff" points="705.5,-84.09 702,-74.09 698.5,-84.09 705.5,-84.09"/>
</a>
</g>
</g>
<!-- Node15 -->
<g id="Node000015" class="node">
<title>Node15</title>
<g id="a_Node000015"><a xlink:title=" ">
<polygon fill="#e0e0e0" stroke="#999999" points="808,-74 752,-74 752,-55 808,-55 808,-74"/>
<text text-anchor="middle" x="780" y="-62" font-family="Helvetica,sans-Serif" font-size="10.00">sstream</text>
</a>
</g>
</g>
<!-- Node13&#45;&gt;Node15 -->
<g id="edge18_Node000013_Node000015" class="edge">
<title>Node13&#45;&gt;Node15</title>
<g id="a_edge18_Node000013_Node000015"><a xlink:title=" ">
<path fill="none" stroke="#63b8ff" d="M714.53,-109.98C726.4,-101.92 744.46,-89.65 758.61,-80.03"/>
<polygon fill="#63b8ff" stroke="#63b8ff" points="760.94,-82.69 767.24,-74.17 757,-76.9 760.94,-82.69"/>
</a>
</g>
</g>
<!-- Node16 -->
<g id="Node000016" class="node">
<title>Node16</title>
<g id="a_Node000016"><a xlink:href="EigenIO_8hpp.html" target="_top" xlink:title=" ">
<polygon fill="white" stroke="#666666" points="963.5,-74 864.5,-74 864.5,-55 963.5,-55 963.5,-74"/>
<text text-anchor="middle" x="914" y="-62" font-family="Helvetica,sans-Serif" font-size="10.00">utils/EigenIO.hpp</text>
</a>
</g>
</g>
<!-- Node13&#45;&gt;Node16 -->
<g id="edge19_Node000013_Node000016" class="edge">
<title>Node13&#45;&gt;Node16</title>
<g id="a_edge19_Node000013_Node000016"><a xlink:title=" ">
<path fill="none" stroke="#63b8ff" d="M736.06,-109.98C772.42,-100.89 830.17,-86.46 869.97,-76.51"/>
<polygon fill="#63b8ff" stroke="#63b8ff" points="870.82,-79.9 879.67,-74.08 869.12,-73.11 870.82,-79.9"/>
</a>
</g>
</g>
<!-- Node16&#45;&gt;Node3 -->
<g id="edge20_Node000016_Node000003" class="edge">
<title>Node16&#45;&gt;Node3</title>
<g id="a_edge20_Node000016_Node000003"><a xlink:title=" ">
<path fill="none" stroke="#63b8ff" d="M901.47,-54.98C889.6,-46.92 871.54,-34.65 857.39,-25.03"/>
<polygon fill="#63b8ff" stroke="#63b8ff" points="859,-21.9 848.76,-19.17 855.06,-27.69 859,-21.9"/>
</a>
</g>
</g>
<!-- Node17&#45;&gt;Node11 -->
<g id="edge24_Node000017_Node000011" class="edge">
<title>Node17&#45;&gt;Node11</title>
<g id="a_edge24_Node000017_Node000011"><a xlink:title=" ">
<path fill="none" stroke="#63b8ff" d="M519.67,-109.98C537.29,-101.5 564.58,-88.35 584.93,-78.54"/>
<polygon fill="#63b8ff" stroke="#63b8ff" points="586.52,-81.66 594.01,-74.17 583.48,-75.36 586.52,-81.66"/>
</a>
</g>
</g>
<!-- Node18 -->
<g id="Node000018" class="node">
<title>Node18</title>
<g id="a_Node000018"><a xlink:title=" ">
<polygon fill="#e0e0e0" stroke="#999999" points="317,-74 275,-74 275,-55 317,-55 317,-74"/>
<text text-anchor="middle" x="296" y="-62" font-family="Helvetica,sans-Serif" font-size="10.00">array</text>
</a>
</g>
</g>
<!-- Node17&#45;&gt;Node18 -->
<g id="edge22_Node000017_Node000018" class="edge">
<title>Node17&#45;&gt;Node18</title>
<g id="a_edge22_Node000017_Node000018"><a xlink:title=" ">
<path fill="none" stroke="#63b8ff" d="M466.86,-109.93C433.3,-101.67 381.05,-88.64 327.03,-74.22"/>
<polygon fill="#63b8ff" stroke="#63b8ff" points="327.85,-70.82 317.28,-71.61 326.04,-77.58 327.85,-70.82"/>
</a>
</g>
</g>
<!-- Node19 -->
<g id="Node000019" class="node">
<title>Node19</title>
<g id="a_Node000019"><a xlink:title=" ">
<polygon fill="#e0e0e0" stroke="#999999" points="382.5,-74 335.5,-74 335.5,-55 382.5,-55 382.5,-74"/>
<text text-anchor="middle" x="359" y="-62" font-family="Helvetica,sans-Serif" font-size="10.00">deque</text>
</a>
</g>
</g>
<!-- Node17&#45;&gt;Node19 -->
<g id="edge23_Node000017_Node000019" class="edge">
<title>Node17&#45;&gt;Node19</title>
<g id="a_edge23_Node000017_Node000019"><a xlink:title=" ">
<path fill="none" stroke="#63b8ff" d="M479.02,-109.98C455.5,-101.27 418.71,-87.63 392.06,-77.75"/>
<polygon fill="#63b8ff" stroke="#63b8ff" points="392.99,-74.36 382.39,-74.17 390.55,-80.93 392.99,-74.36"/>
</a>
</g>
</g>
<!-- Node20 -->
<g id="Node000020" class="node">
<title>Node20</title>
<g id="a_Node000020"><a xlink:title=" ">
<polygon fill="#e0e0e0" stroke="#999999" points="439,-74 401,-74 401,-55 439,-55 439,-74"/>
<text text-anchor="middle" x="420" y="-62" font-family="Helvetica,sans-Serif" font-size="10.00">map</text>
</a>
</g>
</g>
<!-- Node17&#45;&gt;Node20 -->
<g id="edge25_Node000017_Node000020" class="edge">
<title>Node17&#45;&gt;Node20</title>
<g id="a_edge25_Node000017_Node000020"><a xlink:title=" ">
<path fill="none" stroke="#63b8ff" d="M488.83,-109.98C476.23,-101.84 457,-89.41 442.06,-79.76"/>
<polygon fill="#63b8ff" stroke="#63b8ff" points="443.71,-76.66 433.41,-74.17 439.91,-82.54 443.71,-76.66"/>
</a>
</g>
</g>
<!-- Node21 -->
<g id="Node000021" class="node">
<title>Node21</title>
<g id="a_Node000021"><a xlink:title=" ">
<polygon fill="#e0e0e0" stroke="#999999" points="489,-74 457,-74 457,-55 489,-55 489,-74"/>
<text text-anchor="middle" x="473" y="-62" font-family="Helvetica,sans-Serif" font-size="10.00">set</text>
</a>
</g>
</g>
<!-- Node17&#45;&gt;Node21 -->
<g id="edge26_Node000017_Node000021" class="edge">
<title>Node17&#45;&gt;Node21</title>
<g id="a_edge26_Node000017_Node000021"><a xlink:title=" ">
<path fill="none" stroke="#63b8ff" d="M497.21,-109.75C493.24,-102.49 487.47,-91.95 482.57,-82.98"/>
<polygon fill="#63b8ff" stroke="#63b8ff" points="485.57,-81.18 477.7,-74.09 479.43,-84.54 485.57,-81.18"/>
</a>
</g>
</g>
<!-- Node22 -->
<g id="Node000022" class="node">
<title>Node22</title>
<g id="a_Node000022"><a xlink:title=" ">
<polygon fill="#e0e0e0" stroke="#999999" points="554.5,-74 507.5,-74 507.5,-55 554.5,-55 554.5,-74"/>
<text text-anchor="middle" x="531" y="-62" font-family="Helvetica,sans-Serif" font-size="10.00">vector</text>
</a>
</g>
</g>
<!-- Node17&#45;&gt;Node22 -->
<g id="edge27_Node000017_Node000022" class="edge">
<title>Node17&#45;&gt;Node22</title>
<g id="a_edge27_Node000017_Node000022"><a xlink:title=" ">
<path fill="none" stroke="#63b8ff" d="M506.79,-109.75C510.76,-102.49 516.53,-91.95 521.43,-82.98"/>
<polygon fill="#63b8ff" stroke="#63b8ff" points="524.57,-84.54 526.3,-74.09 518.43,-81.18 524.57,-84.54"/>
</a>
</g>
</g>
<!-- Node23&#45;&gt;Node10 -->
<g id="edge34_Node000023_Node000010" class="edge">
<title>Node23&#45;&gt;Node10</title>
<g id="a_edge34_Node000023_Node000010"><a xlink:title=" ">
<path fill="none" stroke="#63b8ff" d="M483.31,-230.97C539.67,-223.28 622.04,-210.78 693,-195 696.83,-194.15 700.79,-193.17 704.74,-192.14"/>
<polygon fill="#63b8ff" stroke="#63b8ff" points="705.69,-195.51 714.42,-189.5 703.85,-188.76 705.69,-195.51"/>
</a>
</g>
</g>
<!-- Node24 -->
<g id="Node000024" class="node">
<title>Node24</title>
<g id="a_Node000024"><a xlink:title=" ">
<polygon fill="#e0e0e0" stroke="#999999" points="684,-195 574,-195 574,-165 684,-165 684,-195"/>
<text text-anchor="start" x="582" y="-183" font-family="Helvetica,sans-Serif" font-size="10.00">boost/preprocessor</text>
<text text-anchor="middle" x="629" y="-172" font-family="Helvetica,sans-Serif" font-size="10.00">/control/if.hpp</text>
</a>
</g>
</g>
<!-- Node23&#45;&gt;Node24 -->
<g id="edge29_Node000023_Node000024" class="edge">
<title>Node23&#45;&gt;Node24</title>
<g id="a_edge29_Node000023_Node000024"><a xlink:title=" ">
<path fill="none" stroke="#63b8ff" d="M446.97,-230.99C478.56,-222.32 528.42,-208.62 567.97,-197.76"/>
<polygon fill="#63b8ff" stroke="#63b8ff" points="569.08,-201.09 577.79,-195.06 567.22,-194.34 569.08,-201.09"/>
</a>
</g>
</g>
<!-- Node25 -->
<g id="Node000025" class="node">
<title>Node25</title>
<g id="a_Node000025"><a xlink:title=" ">
<polygon fill="#e0e0e0" stroke="#999999" points="139.5,-195 28.5,-195 28.5,-165 139.5,-165 139.5,-195"/>
<text text-anchor="start" x="36.5" y="-183" font-family="Helvetica,sans-Serif" font-size="10.00">boost/preprocessor</text>
<text text-anchor="middle" x="84" y="-172" font-family="Helvetica,sans-Serif" font-size="10.00">/seq/for_each_i.hpp</text>
</a>
</g>
</g>
<!-- Node23&#45;&gt;Node25 -->
<g id="edge30_Node000023_Node000025" class="edge">
<title>Node23&#45;&gt;Node25</title>
<g id="a_edge30_Node000023_Node000025"><a xlink:title=" ">
<path fill="none" stroke="#63b8ff" d="M360.12,-230.97C308.23,-222.87 228.57,-209.99 149.74,-195.09"/>
<polygon fill="#63b8ff" stroke="#63b8ff" points="150.11,-191.59 139.63,-193.16 148.8,-198.47 150.11,-191.59"/>
</a>
</g>
</g>
<!-- Node26 -->
<g id="Node000026" class="node">
<title>Node26</title>
<g id="a_Node000026"><a xlink:title=" ">
<polygon fill="#e0e0e0" stroke="#999999" points="268,-195 158,-195 158,-165 268,-165 268,-195"/>
<text text-anchor="start" x="166" y="-183" font-family="Helvetica,sans-Serif" font-size="10.00">boost/preprocessor</text>
<text text-anchor="middle" x="213" y="-172" font-family="Helvetica,sans-Serif" font-size="10.00">/stringize.hpp</text>
</a>
</g>
</g>
<!-- Node23&#45;&gt;Node26 -->
<g id="edge31_Node000023_Node000026" class="edge">
<title>Node23&#45;&gt;Node26</title>
<g id="a_edge31_Node000023_Node000026"><a xlink:title=" ">
<path fill="none" stroke="#63b8ff" d="M386.48,-230.99C356.5,-222.35 309.26,-208.74 271.64,-197.9"/>
<polygon fill="#63b8ff" stroke="#63b8ff" points="272.38,-194.47 261.8,-195.06 270.44,-201.2 272.38,-194.47"/>
</a>
</g>
</g>
<!-- Node27 -->
<g id="Node000027" class="node">
<title>Node27</title>
<g id="a_Node000027"><a xlink:title=" ">
<polygon fill="#e0e0e0" stroke="#999999" points="401.5,-195 286.5,-195 286.5,-165 401.5,-165 401.5,-195"/>
<text text-anchor="start" x="294.5" y="-183" font-family="Helvetica,sans-Serif" font-size="10.00">boost/preprocessor</text>
<text text-anchor="middle" x="344" y="-172" font-family="Helvetica,sans-Serif" font-size="10.00">/variadic/to_seq.hpp</text>
</a>
</g>
</g>
<!-- Node23&#45;&gt;Node27 -->
<g id="edge32_Node000023_Node000027" class="edge">
<title>Node23&#45;&gt;Node27</title>
<g id="a_edge32_Node000023_Node000027"><a xlink:title=" ">
<path fill="none" stroke="#63b8ff" d="M405.38,-230.87C395.88,-223.15 381.58,-211.54 369.18,-201.46"/>
<polygon fill="#63b8ff" stroke="#63b8ff" points="371.34,-198.7 361.37,-195.11 366.93,-204.14 371.34,-198.7"/>
</a>
</g>
</g>
<!-- Node28 -->
<g id="Node000028" class="node">
<title>Node28</title>
<g id="a_Node000028"><a xlink:title=" ">
<polygon fill="#e0e0e0" stroke="#999999" points="556,-189.5 420,-189.5 420,-170.5 556,-170.5 556,-189.5"/>
<text text-anchor="middle" x="488" y="-177.5" font-family="Helvetica,sans-Serif" font-size="10.00">boost/vmd/is_empty.hpp</text>
</a>
</g>
</g>
<!-- Node23&#45;&gt;Node28 -->
<g id="edge33_Node000023_Node000028" class="edge">
<title>Node23&#45;&gt;Node28</title>
<g id="a_edge33_Node000023_Node000028"><a xlink:title=" ">
<path fill="none" stroke="#63b8ff" d="M426.62,-230.87C437.9,-221.71 455.92,-207.06 469.53,-196.01"/>
<polygon fill="#63b8ff" stroke="#63b8ff" points="471.78,-198.69 477.33,-189.67 467.36,-193.26 471.78,-198.69"/>
</a>
</g>
</g>
<!-- Node29&#45;&gt;Node6 -->
<g id="edge36_Node000029_Node000006" class="edge">
<title>Node29&#45;&gt;Node6</title>
<g id="a_edge36_Node000029_Node000006"><a xlink:title=" ">
<path fill="none" stroke="#63b8ff" d="M603.68,-250.16C603.04,-267.5 601.58,-306.84 600.7,-330.48"/>
<polygon fill="#63b8ff" stroke="#63b8ff" points="597.2,-330.54 600.33,-340.66 604.2,-330.8 597.2,-330.54"/>
</a>
</g>
</g>
</g>
</svg>
