<?xml version="1.0" encoding="UTF-8" standalone="no"?>
<!DOCTYPE svg PUBLIC "-//W3C//DTD SVG 1.1//EN"
 "http://www.w3.org/Graphics/SVG/1.1/DTD/svg11.dtd">
<!-- Generated by graphviz version 2.43.0 (0)
 -->
<!-- Title: src/precice/impl/WatchIntegral.hpp Pages: 1 -->
<!--zoomable 478 -->

<svg id="main" version="1.1" xmlns="http://www.w3.org/2000/svg" xmlns:xlink="http://www.w3.org/1999/xlink" xml:space="preserve" onload="init(evt)">
<style type="text/css"><![CDATA[
.node, .edge {opacity: 0.7;}
.node.selected, .edge.selected {opacity: 1;}
.edge:hover path { stroke: red; }
.edge:hover polygon { stroke: red; fill: red; }
]]></style>

<defs>
  <circle id="rim" cx="0" cy="0" r="7"/>
  <circle id="rim2" cx="0" cy="0" r="3.5"/>
  <g id="zoomPlus">
    <use xlink:href="#rim" fill="#404040"><set attributeName="fill" to="#808080" begin="zoomplus.mouseover" end="zoomplus.mouseout"/></use>
    <path d="M-4,0h8M0,-4v8" fill="none" stroke="white" stroke-width="1.5" pointer-events="none"/>
  </g>
  <g id="zoomMin">
    <use xlink:href="#rim" fill="#404040"><set attributeName="fill" to="#808080" begin="zoomminus.mouseover" end="zoomminus.mouseout"/></use>
    <path d="M-4,0h8" fill="none" stroke="white" stroke-width="1.5" pointer-events="none"/>
  </g>
  <g id="arrowUp" transform="translate(30 24)">
    <use xlink:href="#rim"/>
    <path pointer-events="none" fill="none" stroke="white" stroke-width="1.5" d="M0,-3.0v7 M-2.5,-0.5L0,-3.0L2.5,-0.5"/>
  </g>
  <g id="arrowRight" transform="rotate(90) translate(36 -43)">
    <use xlink:href="#rim"/>
    <path pointer-events="none" fill="none" stroke="white" stroke-width="1.5" d="M0,-3.0v7 M-2.5,-0.5L0,-3.0L2.5,-0.5"/>
  </g>
  <g id="arrowDown" transform="rotate(180) translate(-30 -48)">
    <use xlink:href="#rim"/>
    <path pointer-events="none" fill="none" stroke="white" stroke-width="1.5" d="M0,-3.0v7 M-2.5,-0.5L0,-3.0L2.5,-0.5"/>
  </g>
  <g id="arrowLeft" transform="rotate(270) translate(-36 17)">
    <use xlink:href="#rim"/>
    <path pointer-events="none" fill="none" stroke="white" stroke-width="1.5" d="M0,-3.0v7 M-2.5,-0.5L0,-3.0L2.5,-0.5"/>
  </g>
  <g id="resetDef">
    <use xlink:href="#rim2" fill="#404040"><set attributeName="fill" to="#808080" begin="reset.mouseover" end="reset.mouseout"/></use>
  </g>
</defs>
<script type="application/ecmascript">
var viewWidth = 1403;
var viewHeight = 478;
var sectionId = 'dynsection-0';
</script>
<script type="application/ecmascript" xlink:href="svg.min.js"/>
<svg id="graph" class="graph">
<g id="viewport">
<title>src/precice/impl/WatchIntegral.hpp</title>
<!-- Node1 -->
<g id="Node000001" class="node">
<title>Node1</title>
<g id="a_Node000001"><a xlink:title=" ">
<polygon fill="#999999" stroke="#666666" points="311.5,-470 126.5,-470 126.5,-451 311.5,-451 311.5,-470"/>
<text text-anchor="middle" x="219" y="-458" font-family="Helvetica,sans-Serif" font-size="10.00">src/precice/impl/WatchIntegral.hpp</text>
</a>
</g>
</g>
<!-- Node2 -->
<g id="Node000002" class="node">
<title>Node2</title>
<g id="a_Node000002"><a xlink:title=" ">
<polygon fill="#e0e0e0" stroke="#999999" points="599.5,-19 530.5,-19 530.5,0 599.5,0 599.5,-19"/>
<text text-anchor="middle" x="565" y="-7" font-family="Helvetica,sans-Serif" font-size="10.00">Eigen/Core</text>
</a>
</g>
</g>
<!-- Node1&#45;&gt;Node2 -->
<g id="edge1_Node000001_Node000002" class="edge">
<title>Node1&#45;&gt;Node2</title>
<g id="a_edge1_Node000001_Node000002"><a xlink:title=" ">
<path fill="none" stroke="#63b8ff" d="M131.82,-450.98C70.74,-439.64 0,-413.18 0,-351.5 0,-351.5 0,-351.5 0,-118.5 0,-76.17 32.17,-71.87 71,-55 151.07,-20.22 414.17,-12.62 520.16,-10.96"/>
<polygon fill="#63b8ff" stroke="#63b8ff" points="520.27,-14.46 530.21,-10.81 520.16,-7.46 520.27,-14.46"/>
</a>
</g>
</g>
<!-- Node3 -->
<g id="Node000003" class="node">
<title>Node3</title>
<g id="a_Node000003"><a target="_parent" xlink:href="http://en.cppreference.com/w/cpp/header/string.html" xlink:title=" ">
<polygon fill="white" stroke="#666666" points="336,-129 292,-129 292,-110 336,-110 336,-129"/>
<text text-anchor="middle" x="314" y="-117" font-family="Helvetica,sans-Serif" font-size="10.00">string</text>
</a>
</g>
</g>
<!-- Node1&#45;&gt;Node3 -->
<g id="edge2_Node000001_Node000003" class="edge">
<title>Node1&#45;&gt;Node3</title>
<g id="a_edge2_Node000001_Node000003"><a xlink:title=" ">
<path fill="none" stroke="#63b8ff" d="M170.91,-450.94C147.26,-444.56 119.87,-433.6 101,-415 79.4,-393.71 76,-381.83 76,-351.5 76,-351.5 76,-351.5 76,-239.5 76,-148.7 216.31,-127.18 281.46,-122.08"/>
<polygon fill="#63b8ff" stroke="#63b8ff" points="281.88,-125.56 291.61,-121.37 281.39,-118.58 281.88,-125.56"/>
</a>
</g>
</g>
<!-- Node4 -->
<g id="Node000004" class="node">
<title>Node4</title>
<g id="a_Node000004"><a target="_parent" xlink:href="http://en.cppreference.com/w/cpp/header/vector.html" xlink:title=" ">
<polygon fill="white" stroke="#666666" points="287.5,-74 240.5,-74 240.5,-55 287.5,-55 287.5,-74"/>
<text text-anchor="middle" x="264" y="-62" font-family="Helvetica,sans-Serif" font-size="10.00">vector</text>
</a>
</g>
</g>
<!-- Node1&#45;&gt;Node4 -->
<g id="edge3_Node000001_Node000004" class="edge">
<title>Node1&#45;&gt;Node4</title>
<g id="a_edge3_Node000001_Node000004"><a xlink:title=" ">
<path fill="none" stroke="#63b8ff" d="M225.45,-450.77C237.89,-433.04 264,-391.11 264,-351.5 264,-351.5 264,-351.5 264,-179 264,-145.61 264,-106.69 264,-84.19"/>
<polygon fill="#63b8ff" stroke="#63b8ff" points="267.5,-84.04 264,-74.04 260.5,-84.04 267.5,-84.04"/>
</a>
</g>
</g>
<!-- Node5 -->
<g id="Node000005" class="node">
<title>Node5</title>
<g id="a_Node000005"><a xlink:href="TXTTableWriter_8hpp.html" target="_top" xlink:title=" ">
<polygon fill="white" stroke="#666666" points="233.5,-415 110.5,-415 110.5,-396 233.5,-396 233.5,-415"/>
<text text-anchor="middle" x="172" y="-403" font-family="Helvetica,sans-Serif" font-size="10.00">io/TXTTableWriter.hpp</text>
</a>
</g>
</g>
<!-- Node1&#45;&gt;Node5 -->
<g id="edge4_Node000001_Node000005" class="edge">
<title>Node1&#45;&gt;Node5</title>
<g id="a_edge4_Node000001_Node000005"><a xlink:title=" ">
<path fill="none" stroke="#63b8ff" d="M211.24,-450.75C204.53,-443.18 194.66,-432.05 186.49,-422.84"/>
<polygon fill="#63b8ff" stroke="#63b8ff" points="188.87,-420.25 179.62,-415.09 183.63,-424.89 188.87,-420.25"/>
</a>
</g>
</g>
<!-- Node7 -->
<g id="Node000007" class="node">
<title>Node7</title>
<g id="a_Node000007"><a xlink:href="Logger_8hpp.html" target="_top" xlink:title=" ">
<polygon fill="white" stroke="#666666" points="948.5,-360 839.5,-360 839.5,-341 948.5,-341 948.5,-360"/>
<text text-anchor="middle" x="894" y="-348" font-family="Helvetica,sans-Serif" font-size="10.00">logging/Logger.hpp</text>
</a>
</g>
</g>
<!-- Node1&#45;&gt;Node7 -->
<g id="edge45_Node000001_Node000007" class="edge">
<title>Node1&#45;&gt;Node7</title>
<g id="a_edge45_Node000001_Node000007"><a xlink:title=" ">
<path fill="none" stroke="#63b8ff" d="M272.25,-450.98C395.28,-431.3 698.82,-382.73 830.9,-361.6"/>
<polygon fill="#63b8ff" stroke="#63b8ff" points="831.55,-365.04 840.87,-360 830.45,-358.12 831.55,-365.04"/>
</a>
</g>
</g>
<!-- Node33 -->
<g id="Node000033" class="node">
<title>Node33</title>
<g id="a_Node000033"><a xlink:href="mesh_2SharedPointer_8hpp.html" target="_top" xlink:title=" ">
<polygon fill="white" stroke="#666666" points="939.5,-415 804.5,-415 804.5,-396 939.5,-396 939.5,-415"/>
<text text-anchor="middle" x="872" y="-403" font-family="Helvetica,sans-Serif" font-size="10.00">mesh/SharedPointer.hpp</text>
</a>
</g>
</g>
<!-- Node1&#45;&gt;Node33 -->
<g id="edge46_Node000001_Node000033" class="edge">
<title>Node1&#45;&gt;Node33</title>
<g id="a_edge46_Node000001_Node000033"><a xlink:title=" ">
<path fill="none" stroke="#63b8ff" d="M311.52,-451.99C440.75,-441.5 673,-422.65 793.96,-412.83"/>
<polygon fill="#63b8ff" stroke="#63b8ff" points="794.57,-416.3 804.25,-412 794,-409.32 794.57,-416.3"/>
</a>
</g>
</g>
<!-- Node5&#45;&gt;Node2 -->
<g id="edge5_Node000005_Node000002" class="edge">
<title>Node5&#45;&gt;Node2</title>
<g id="a_edge5_Node000005_Node000002"><a xlink:title=" ">
<path fill="none" stroke="#63b8ff" d="M143.91,-395.93C104.62,-382 38,-350.43 38,-296.5 38,-296.5 38,-296.5 38,-118.5 38,-20.39 392.94,-10.57 520.24,-10.21"/>
<polygon fill="#63b8ff" stroke="#63b8ff" points="520.43,-13.71 530.42,-10.2 520.42,-6.71 520.43,-13.71"/>
</a>
</g>
</g>
<!-- Node5&#45;&gt;Node3 -->
<g id="edge7_Node000005_Node000003" class="edge">
<title>Node5&#45;&gt;Node3</title>
<g id="a_edge7_Node000005_Node000003"><a xlink:title=" ">
<path fill="none" stroke="#63b8ff" d="M180.02,-395.92C187.63,-387.39 198.92,-373.63 206,-360 219.63,-333.74 226,-326.09 226,-296.5 226,-296.5 226,-296.5 226,-239.5 226,-194.48 267.21,-155.35 293.23,-135.13"/>
<polygon fill="#63b8ff" stroke="#63b8ff" points="295.49,-137.81 301.39,-129.02 291.29,-132.21 295.49,-137.81"/>
</a>
</g>
</g>
<!-- Node5&#45;&gt;Node4 -->
<g id="edge8_Node000005_Node000004" class="edge">
<title>Node5&#45;&gt;Node4</title>
<g id="a_edge8_Node000005_Node000004"><a xlink:title=" ">
<path fill="none" stroke="#63b8ff" d="M162.35,-395.85C153.54,-387.48 140.76,-374.02 133,-360 118.74,-334.22 114,-325.96 114,-296.5 114,-296.5 114,-296.5 114,-179 114,-120.98 186.24,-88.83 230.46,-74.58"/>
<polygon fill="#63b8ff" stroke="#63b8ff" points="231.7,-77.86 240.23,-71.57 229.64,-71.17 231.7,-77.86"/>
</a>
</g>
</g>
<!-- Node6 -->
<g id="Node000006" class="node">
<title>Node6</title>
<g id="a_Node000006"><a target="_parent" xlink:href="http://en.cppreference.com/w/cpp/header/fstream.html" xlink:title=" ">
<polygon fill="white" stroke="#666666" points="197.5,-360 142.5,-360 142.5,-341 197.5,-341 197.5,-360"/>
<text text-anchor="middle" x="170" y="-348" font-family="Helvetica,sans-Serif" font-size="10.00">fstream</text>
</a>
</g>
</g>
<!-- Node5&#45;&gt;Node6 -->
<g id="edge6_Node000005_Node000006" class="edge">
<title>Node5&#45;&gt;Node6</title>
<g id="a_edge6_Node000005_Node000006"><a xlink:title=" ">
<path fill="none" stroke="#63b8ff" d="M171.67,-395.75C171.41,-388.8 171.03,-378.85 170.7,-370.13"/>
<polygon fill="#63b8ff" stroke="#63b8ff" points="174.2,-369.95 170.32,-360.09 167.2,-370.21 174.2,-369.95"/>
</a>
</g>
</g>
<!-- Node5&#45;&gt;Node7 -->
<g id="edge9_Node000005_Node000007" class="edge">
<title>Node5&#45;&gt;Node7</title>
<g id="a_edge9_Node000005_Node000007"><a xlink:title=" ">
<path fill="none" stroke="#63b8ff" d="M233.56,-399.98C368.8,-390.05 690.76,-366.42 829.06,-356.27"/>
<polygon fill="#63b8ff" stroke="#63b8ff" points="829.37,-359.75 839.09,-355.53 828.86,-352.77 829.37,-359.75"/>
</a>
</g>
</g>
<!-- Node7&#45;&gt;Node3 -->
<g id="edge11_Node000007_Node000003" class="edge">
<title>Node7&#45;&gt;Node3</title>
<g id="a_edge11_Node000007_Node000003"><a xlink:title=" ">
<path fill="none" stroke="#63b8ff" d="M839.45,-347.59C743.47,-342.37 540.08,-322.86 387,-250 352.52,-233.59 338.8,-228.78 321,-195 311.94,-177.8 311.08,-155.24 311.93,-139.48"/>
<polygon fill="#63b8ff" stroke="#63b8ff" points="315.43,-139.62 312.76,-129.37 308.45,-139.05 315.43,-139.62"/>
</a>
</g>
</g>
<!-- Node8 -->
<g id="Node000008" class="node">
<title>Node8</title>
<g id="a_Node000008"><a target="_parent" xlink:href="http://en.cppreference.com/w/cpp/header/memory.html" xlink:title=" ">
<polygon fill="white" stroke="#666666" points="1395,-305 1337,-305 1337,-286 1395,-286 1395,-305"/>
<text text-anchor="middle" x="1366" y="-293" font-family="Helvetica,sans-Serif" font-size="10.00">memory</text>
</a>
</g>
</g>
<!-- Node7&#45;&gt;Node8 -->
<g id="edge10_Node000007_Node000008" class="edge">
<title>Node7&#45;&gt;Node8</title>
<g id="a_edge10_Node000007_Node000008"><a xlink:title=" ">
<path fill="none" stroke="#63b8ff" d="M948.72,-345.44C1030.46,-339.02 1189.16,-325.13 1323,-305 1324.27,-304.81 1325.56,-304.61 1326.86,-304.39"/>
<polygon fill="#63b8ff" stroke="#63b8ff" points="1327.68,-307.8 1336.92,-302.62 1326.46,-300.91 1327.68,-307.8"/>
</a>
</g>
</g>
<!-- Node9 -->
<g id="Node000009" class="node">
<title>Node9</title>
<g id="a_Node000009"><a target="_parent" xlink:href="http://en.cppreference.com/w/cpp/header/string_view.html" xlink:title=" ">
<polygon fill="white" stroke="#666666" points="1345.5,-129 1272.5,-129 1272.5,-110 1345.5,-110 1345.5,-129"/>
<text text-anchor="middle" x="1309" y="-117" font-family="Helvetica,sans-Serif" font-size="10.00">string_view</text>
</a>
</g>
</g>
<!-- Node7&#45;&gt;Node9 -->
<g id="edge12_Node000007_Node000009" class="edge">
<title>Node7&#45;&gt;Node9</title>
<g id="a_edge12_Node000007_Node000009"><a xlink:title=" ">
<path fill="none" stroke="#63b8ff" d="M948.65,-343.89C1034.37,-332.12 1199.91,-296.84 1290,-195 1303.65,-179.57 1307.75,-155.66 1308.85,-139.1"/>
<polygon fill="#63b8ff" stroke="#63b8ff" points="1312.35,-139.13 1309.21,-129.01 1305.36,-138.88 1312.35,-139.13"/>
</a>
</g>
</g>
<!-- Node10 -->
<g id="Node000010" class="node">
<title>Node10</title>
<g id="a_Node000010"><a xlink:href="LogMacros_8hpp.html" target="_top" xlink:title=" ">
<polygon fill="white" stroke="#666666" points="939,-305 849,-305 849,-286 939,-286 939,-305"/>
<text text-anchor="middle" x="894" y="-293" font-family="Helvetica,sans-Serif" font-size="10.00">LogMacros.hpp</text>
</a>
</g>
</g>
<!-- Node7&#45;&gt;Node10 -->
<g id="edge13_Node000007_Node000010" class="edge">
<title>Node7&#45;&gt;Node10</title>
<g id="a_edge13_Node000007_Node000010"><a xlink:title=" ">
<path fill="none" stroke="#63b8ff" d="M894,-340.75C894,-333.8 894,-323.85 894,-315.13"/>
<polygon fill="#63b8ff" stroke="#63b8ff" points="897.5,-315.09 894,-305.09 890.5,-315.09 897.5,-315.09"/>
</a>
</g>
</g>
<!-- Node11 -->
<g id="Node000011" class="node">
<title>Node11</title>
<g id="a_Node000011"><a xlink:href="Exceptions_8hpp.html" target="_top" xlink:title=" ">
<polygon fill="white" stroke="#666666" points="525.5,-250 396.5,-250 396.5,-231 525.5,-231 525.5,-250"/>
<text text-anchor="middle" x="461" y="-238" font-family="Helvetica,sans-Serif" font-size="10.00">precice/Exceptions.hpp</text>
</a>
</g>
</g>
<!-- Node10&#45;&gt;Node11 -->
<g id="edge14_Node000010_Node000011" class="edge">
<title>Node10&#45;&gt;Node11</title>
<g id="a_edge14_Node000010_Node000011"><a xlink:title=" ">
<path fill="none" stroke="#63b8ff" d="M848.89,-288.98C774.64,-279.89 625.94,-261.69 535.77,-250.65"/>
<polygon fill="#63b8ff" stroke="#63b8ff" points="535.96,-247.15 525.61,-249.41 535.11,-254.1 535.96,-247.15"/>
</a>
</g>
</g>
<!-- Node14 -->
<g id="Node000014" class="node">
<title>Node14</title>
<g id="a_Node000014"><a xlink:href="fmt_8hpp.html" target="_top" xlink:title=" ">
<polygon fill="white" stroke="#666666" points="1280.5,-189.5 1201.5,-189.5 1201.5,-170.5 1280.5,-170.5 1280.5,-189.5"/>
<text text-anchor="middle" x="1241" y="-177.5" font-family="Helvetica,sans-Serif" font-size="10.00">utils/fmt.hpp</text>
</a>
</g>
</g>
<!-- Node10&#45;&gt;Node14 -->
<g id="edge17_Node000010_Node000014" class="edge">
<title>Node10&#45;&gt;Node14</title>
<g id="a_edge17_Node000010_Node000014"><a xlink:title=" ">
<path fill="none" stroke="#63b8ff" d="M901.04,-285.82C912.99,-271.76 938.7,-244.23 967,-231 1058.74,-188.11 1093.14,-216.95 1192,-195 1195.83,-194.15 1199.79,-193.18 1203.74,-192.14"/>
<polygon fill="#63b8ff" stroke="#63b8ff" points="1204.69,-195.51 1213.42,-189.5 1202.85,-188.76 1204.69,-195.51"/>
</a>
</g>
</g>
<!-- Node26 -->
<g id="Node000026" class="node">
<title>Node26</title>
<g id="a_Node000026"><a xlink:href="Tracer_8hpp.html" target="_top" xlink:title=" ">
<polygon fill="white" stroke="#666666" points="1080.5,-250 975.5,-250 975.5,-231 1080.5,-231 1080.5,-250"/>
<text text-anchor="middle" x="1028" y="-238" font-family="Helvetica,sans-Serif" font-size="10.00">logging/Tracer.hpp</text>
</a>
</g>
</g>
<!-- Node10&#45;&gt;Node26 -->
<g id="edge36_Node000010_Node000026" class="edge">
<title>Node10&#45;&gt;Node26</title>
<g id="a_edge36_Node000010_Node000026"><a xlink:title=" ">
<path fill="none" stroke="#63b8ff" d="M915.53,-285.98C937.47,-277.3 971.74,-263.75 996.69,-253.88"/>
<polygon fill="#63b8ff" stroke="#63b8ff" points="998.07,-257.1 1006.08,-250.17 995.49,-250.59 998.07,-257.1"/>
</a>
</g>
</g>
<!-- Node27 -->
<g id="Node000027" class="node">
<title>Node27</title>
<g id="a_Node000027"><a xlink:href="ArgumentFormatter_8hpp.html" target="_top" xlink:title=" ">
<polygon fill="white" stroke="#666666" points="918.5,-250 761.5,-250 761.5,-231 918.5,-231 918.5,-250"/>
<text text-anchor="middle" x="840" y="-238" font-family="Helvetica,sans-Serif" font-size="10.00">utils/ArgumentFormatter.hpp</text>
</a>
</g>
</g>
<!-- Node10&#45;&gt;Node27 -->
<g id="edge38_Node000010_Node000027" class="edge">
<title>Node10&#45;&gt;Node27</title>
<g id="a_edge38_Node000010_Node000027"><a xlink:title=" ">
<path fill="none" stroke="#63b8ff" d="M885.08,-285.75C877.22,-278.03 865.57,-266.6 856.08,-257.28"/>
<polygon fill="#63b8ff" stroke="#63b8ff" points="858.34,-254.6 848.75,-250.09 853.44,-259.59 858.34,-254.6"/>
</a>
</g>
</g>
<!-- Node12 -->
<g id="Node000012" class="node">
<title>Node12</title>
<g id="a_Node000012"><a target="_parent" xlink:href="http://en.cppreference.com/w/cpp/header/stdexcept.html" xlink:title=" ">
<polygon fill="white" stroke="#666666" points="395.5,-189.5 330.5,-189.5 330.5,-170.5 395.5,-170.5 395.5,-189.5"/>
<text text-anchor="middle" x="363" y="-177.5" font-family="Helvetica,sans-Serif" font-size="10.00">stdexcept</text>
</a>
</g>
</g>
<!-- Node11&#45;&gt;Node12 -->
<g id="edge15_Node000011_Node000012" class="edge">
<title>Node11&#45;&gt;Node12</title>
<g id="a_edge15_Node000011_Node000012"><a xlink:title=" ">
<path fill="none" stroke="#63b8ff" d="M446.54,-230.87C430.69,-221.41 405.03,-206.09 386.32,-194.92"/>
<polygon fill="#63b8ff" stroke="#63b8ff" points="387.9,-191.79 377.52,-189.67 384.31,-197.8 387.9,-191.79"/>
</a>
</g>
</g>
<!-- Node13 -->
<g id="Node000013" class="node">
<title>Node13</title>
<g id="a_Node000013"><a xlink:title=" ">
<polygon fill="#e0e0e0" stroke="#999999" points="508.5,-189.5 413.5,-189.5 413.5,-170.5 508.5,-170.5 508.5,-189.5"/>
<text text-anchor="middle" x="461" y="-177.5" font-family="Helvetica,sans-Serif" font-size="10.00">precice/export.h</text>
</a>
</g>
</g>
<!-- Node11&#45;&gt;Node13 -->
<g id="edge16_Node000011_Node000013" class="edge">
<title>Node11&#45;&gt;Node13</title>
<g id="a_edge16_Node000011_Node000013"><a xlink:title=" ">
<path fill="none" stroke="#63b8ff" d="M461,-230.87C461,-222.75 461,-210.31 461,-199.89"/>
<polygon fill="#63b8ff" stroke="#63b8ff" points="464.5,-199.67 461,-189.67 457.5,-199.67 464.5,-199.67"/>
</a>
</g>
</g>
<!-- Node14&#45;&gt;Node3 -->
<g id="edge18_Node000014_Node000003" class="edge">
<title>Node14&#45;&gt;Node3</title>
<g id="a_edge18_Node000014_Node000003"><a xlink:title=" ">
<path fill="none" stroke="#63b8ff" d="M1215.31,-170.47C1207.87,-168.33 1199.68,-166.27 1192,-165 1024.51,-137.2 485.04,-124.11 346.61,-121.16"/>
<polygon fill="#63b8ff" stroke="#63b8ff" points="346.33,-117.65 336.26,-120.94 346.19,-124.65 346.33,-117.65"/>
</a>
</g>
</g>
<!-- Node14&#45;&gt;Node9 -->
<g id="edge19_Node000014_Node000009" class="edge">
<title>Node14&#45;&gt;Node9</title>
<g id="a_edge19_Node000014_Node000009"><a xlink:title=" ">
<path fill="none" stroke="#63b8ff" d="M1251.03,-170.37C1261.58,-161.3 1278.39,-146.84 1291.19,-135.82"/>
<polygon fill="#63b8ff" stroke="#63b8ff" points="1293.63,-138.34 1298.93,-129.17 1289.06,-133.04 1293.63,-138.34"/>
</a>
</g>
</g>
<!-- Node15 -->
<g id="Node000015" class="node">
<title>Node15</title>
<g id="a_Node000015"><a xlink:title=" ">
<polygon fill="#e0e0e0" stroke="#999999" points="1025.5,-74 946.5,-74 946.5,-55 1025.5,-55 1025.5,-74"/>
<text text-anchor="middle" x="986" y="-62" font-family="Helvetica,sans-Serif" font-size="10.00">fmt/format.h</text>
</a>
</g>
</g>
<!-- Node14&#45;&gt;Node15 -->
<g id="edge20_Node000014_Node000015" class="edge">
<title>Node14&#45;&gt;Node15</title>
<g id="a_edge20_Node000014_Node000015"><a xlink:title=" ">
<path fill="none" stroke="#63b8ff" d="M1212.05,-170.45C1205.48,-168.59 1198.51,-166.68 1192,-165 1122.67,-147.16 1095.29,-167.6 1035,-129 1017.28,-117.65 1003.4,-97.57 995.01,-83.03"/>
<polygon fill="#63b8ff" stroke="#63b8ff" points="997.96,-81.12 990.09,-74.01 991.81,-84.47 997.96,-81.12"/>
</a>
</g>
</g>
<!-- Node16 -->
<g id="Node000016" class="node">
<title>Node16</title>
<g id="a_Node000016"><a xlink:title=" ">
<polygon fill="#e0e0e0" stroke="#999999" points="1130,-129 1044,-129 1044,-110 1130,-110 1130,-129"/>
<text text-anchor="middle" x="1087" y="-117" font-family="Helvetica,sans-Serif" font-size="10.00">fmt/ostream.h</text>
</a>
</g>
</g>
<!-- Node14&#45;&gt;Node16 -->
<g id="edge21_Node000014_Node000016" class="edge">
<title>Node14&#45;&gt;Node16</title>
<g id="a_edge21_Node000014_Node000016"><a xlink:title=" ">
<path fill="none" stroke="#63b8ff" d="M1218.61,-170.49C1192.38,-160.53 1148.72,-143.95 1118.94,-132.63"/>
<polygon fill="#63b8ff" stroke="#63b8ff" points="1120.01,-129.3 1109.42,-129.02 1117.53,-135.84 1120.01,-129.3"/>
</a>
</g>
</g>
<!-- Node17 -->
<g id="Node000017" class="node">
<title>Node17</title>
<g id="a_Node000017"><a xlink:href="fmtEigen_8hpp.html" target="_top" xlink:title=" ">
<polygon fill="white" stroke="#666666" points="1254,-129 1148,-129 1148,-110 1254,-110 1254,-129"/>
<text text-anchor="middle" x="1201" y="-117" font-family="Helvetica,sans-Serif" font-size="10.00">utils/fmtEigen.hpp</text>
</a>
</g>
</g>
<!-- Node14&#45;&gt;Node17 -->
<g id="edge22_Node000014_Node000017" class="edge">
<title>Node14&#45;&gt;Node17</title>
<g id="a_edge22_Node000014_Node000017"><a xlink:title=" ">
<path fill="none" stroke="#63b8ff" d="M1235.1,-170.37C1229.25,-161.81 1220.13,-148.47 1212.79,-137.74"/>
<polygon fill="#63b8ff" stroke="#63b8ff" points="1215.46,-135.45 1206.93,-129.17 1209.68,-139.4 1215.46,-135.45"/>
</a>
</g>
</g>
<!-- Node21 -->
<g id="Node000021" class="node">
<title>Node21</title>
<g id="a_Node000021"><a xlink:href="fmtSTL_8hpp.html" target="_top" xlink:title=" ">
<polygon fill="white" stroke="#666666" points="907,-129 811,-129 811,-110 907,-110 907,-129"/>
<text text-anchor="middle" x="859" y="-117" font-family="Helvetica,sans-Serif" font-size="10.00">utils/fmtSTL.hpp</text>
</a>
</g>
</g>
<!-- Node14&#45;&gt;Node21 -->
<g id="edge29_Node000014_Node000021" class="edge">
<title>Node14&#45;&gt;Node21</title>
<g id="a_edge29_Node000014_Node000021"><a xlink:title=" ">
<path fill="none" stroke="#63b8ff" d="M1213.7,-170.44C1206.68,-168.45 1199.1,-166.48 1192,-165 1096.75,-145.14 984.23,-132.26 917.39,-125.71"/>
<polygon fill="#63b8ff" stroke="#63b8ff" points="917.36,-122.19 907.07,-124.71 916.69,-129.15 917.36,-122.19"/>
</a>
</g>
</g>
<!-- Node17&#45;&gt;Node2 -->
<g id="edge23_Node000017_Node000002" class="edge">
<title>Node17&#45;&gt;Node2</title>
<g id="a_edge23_Node000017_Node000002"><a xlink:title=" ">
<path fill="none" stroke="#63b8ff" d="M1197.13,-109.61C1190.33,-95.24 1174.8,-67.29 1152,-55 1104.7,-29.49 738.86,-15.86 609.85,-11.81"/>
<polygon fill="#63b8ff" stroke="#63b8ff" points="609.65,-8.3 599.54,-11.49 609.43,-15.3 609.65,-8.3"/>
</a>
</g>
</g>
<!-- Node17&#45;&gt;Node15 -->
<g id="edge25_Node000017_Node000015" class="edge">
<title>Node17&#45;&gt;Node15</title>
<g id="a_edge25_Node000017_Node000015"><a xlink:title=" ">
<path fill="none" stroke="#63b8ff" d="M1166.46,-109.98C1129.58,-100.89 1071.01,-86.46 1030.66,-76.51"/>
<polygon fill="#63b8ff" stroke="#63b8ff" points="1031.36,-73.08 1020.81,-74.08 1029.69,-79.87 1031.36,-73.08"/>
</a>
</g>
</g>
<!-- Node18 -->
<g id="Node000018" class="node">
<title>Node18</title>
<g id="a_Node000018"><a target="_parent" xlink:href="http://en.cppreference.com/w/cpp/header/algorithm.html" xlink:title=" ">
<polygon fill="white" stroke="#666666" points="1263,-74 1199,-74 1199,-55 1263,-55 1263,-74"/>
<text text-anchor="middle" x="1231" y="-62" font-family="Helvetica,sans-Serif" font-size="10.00">algorithm</text>
</a>
</g>
</g>
<!-- Node17&#45;&gt;Node18 -->
<g id="edge24_Node000017_Node000018" class="edge">
<title>Node17&#45;&gt;Node18</title>
<g id="a_edge24_Node000017_Node000018"><a xlink:title=" ">
<path fill="none" stroke="#63b8ff" d="M1205.95,-109.75C1210.06,-102.49 1216.03,-91.95 1221.1,-82.98"/>
<polygon fill="#63b8ff" stroke="#63b8ff" points="1224.26,-84.52 1226.14,-74.09 1218.17,-81.07 1224.26,-84.52"/>
</a>
</g>
</g>
<!-- Node19 -->
<g id="Node000019" class="node">
<title>Node19</title>
<g id="a_Node000019"><a target="_parent" xlink:href="http://en.cppreference.com/w/cpp/header/sstream.html" xlink:title=" ">
<polygon fill="white" stroke="#666666" points="1337,-74 1281,-74 1281,-55 1337,-55 1337,-74"/>
<text text-anchor="middle" x="1309" y="-62" font-family="Helvetica,sans-Serif" font-size="10.00">sstream</text>
</a>
</g>
</g>
<!-- Node17&#45;&gt;Node19 -->
<g id="edge26_Node000017_Node000019" class="edge">
<title>Node17&#45;&gt;Node19</title>
<g id="a_edge26_Node000017_Node000019"><a xlink:title=" ">
<path fill="none" stroke="#63b8ff" d="M1218.35,-109.98C1235.57,-101.54 1262.2,-88.47 1282.15,-78.68"/>
<polygon fill="#63b8ff" stroke="#63b8ff" points="1283.9,-81.72 1291.33,-74.17 1280.81,-75.43 1283.9,-81.72"/>
</a>
</g>
</g>
<!-- Node20 -->
<g id="Node000020" class="node">
<title>Node20</title>
<g id="a_Node000020"><a xlink:href="EigenIO_8hpp.html" target="_top" xlink:title=" ">
<polygon fill="white" stroke="#666666" points="1142.5,-74 1043.5,-74 1043.5,-55 1142.5,-55 1142.5,-74"/>
<text text-anchor="middle" x="1093" y="-62" font-family="Helvetica,sans-Serif" font-size="10.00">utils/EigenIO.hpp</text>
</a>
</g>
</g>
<!-- Node17&#45;&gt;Node20 -->
<g id="edge27_Node000017_Node000020" class="edge">
<title>Node17&#45;&gt;Node20</title>
<g id="a_edge27_Node000017_Node000020"><a xlink:title=" ">
<path fill="none" stroke="#63b8ff" d="M1183.65,-109.98C1166.43,-101.54 1139.8,-88.47 1119.85,-78.68"/>
<polygon fill="#63b8ff" stroke="#63b8ff" points="1121.19,-75.43 1110.67,-74.17 1118.1,-81.72 1121.19,-75.43"/>
</a>
</g>
</g>
<!-- Node20&#45;&gt;Node2 -->
<g id="edge28_Node000020_Node000002" class="edge">
<title>Node20&#45;&gt;Node2</title>
<g id="a_edge28_Node000020_Node000002"><a xlink:title=" ">
<path fill="none" stroke="#63b8ff" d="M1043.35,-56.05C1040.53,-55.68 1037.73,-55.33 1035,-55 879.12,-36.21 693.37,-20.62 609.72,-13.97"/>
<polygon fill="#63b8ff" stroke="#63b8ff" points="609.81,-10.46 599.56,-13.16 609.25,-17.44 609.81,-10.46"/>
</a>
</g>
</g>
<!-- Node21&#45;&gt;Node4 -->
<g id="edge35_Node000021_Node000004" class="edge">
<title>Node21&#45;&gt;Node4</title>
<g id="a_edge35_Node000021_Node000004"><a xlink:title=" ">
<path fill="none" stroke="#63b8ff" d="M810.81,-114.21C694.03,-103.81 398.13,-77.45 297.84,-68.51"/>
<polygon fill="#63b8ff" stroke="#63b8ff" points="297.95,-65.01 287.67,-67.61 297.32,-71.98 297.95,-65.01"/>
</a>
</g>
</g>
<!-- Node21&#45;&gt;Node15 -->
<g id="edge32_Node000021_Node000015" class="edge">
<title>Node21&#45;&gt;Node15</title>
<g id="a_edge32_Node000021_Node000015"><a xlink:title=" ">
<path fill="none" stroke="#63b8ff" d="M879.4,-109.98C900.02,-101.38 932.11,-87.99 955.69,-78.15"/>
<polygon fill="#63b8ff" stroke="#63b8ff" points="957.34,-81.25 965.22,-74.17 954.65,-74.79 957.34,-81.25"/>
</a>
</g>
</g>
<!-- Node22 -->
<g id="Node000022" class="node">
<title>Node22</title>
<g id="a_Node000022"><a target="_parent" xlink:href="http://en.cppreference.com/w/cpp/header/array.html" xlink:title=" ">
<polygon fill="white" stroke="#666666" points="756,-74 714,-74 714,-55 756,-55 756,-74"/>
<text text-anchor="middle" x="735" y="-62" font-family="Helvetica,sans-Serif" font-size="10.00">array</text>
</a>
</g>
</g>
<!-- Node21&#45;&gt;Node22 -->
<g id="edge30_Node000021_Node000022" class="edge">
<title>Node21&#45;&gt;Node22</title>
<g id="a_edge30_Node000021_Node000022"><a xlink:title=" ">
<path fill="none" stroke="#63b8ff" d="M839.08,-109.98C818.95,-101.38 787.62,-87.99 764.59,-78.15"/>
<polygon fill="#63b8ff" stroke="#63b8ff" points="765.86,-74.88 755.29,-74.17 763.1,-81.32 765.86,-74.88"/>
</a>
</g>
</g>
<!-- Node23 -->
<g id="Node000023" class="node">
<title>Node23</title>
<g id="a_Node000023"><a target="_parent" xlink:href="http://en.cppreference.com/w/cpp/header/deque.html" xlink:title=" ">
<polygon fill="white" stroke="#666666" points="821.5,-74 774.5,-74 774.5,-55 821.5,-55 821.5,-74"/>
<text text-anchor="middle" x="798" y="-62" font-family="Helvetica,sans-Serif" font-size="10.00">deque</text>
</a>
</g>
</g>
<!-- Node21&#45;&gt;Node23 -->
<g id="edge31_Node000021_Node000023" class="edge">
<title>Node21&#45;&gt;Node23</title>
<g id="a_edge31_Node000021_Node000023"><a xlink:title=" ">
<path fill="none" stroke="#63b8ff" d="M849.2,-109.98C840.18,-102.15 826.59,-90.34 815.68,-80.86"/>
<polygon fill="#63b8ff" stroke="#63b8ff" points="817.82,-78.09 807.98,-74.17 813.23,-83.37 817.82,-78.09"/>
</a>
</g>
</g>
<!-- Node24 -->
<g id="Node000024" class="node">
<title>Node24</title>
<g id="a_Node000024"><a target="_parent" xlink:href="http://en.cppreference.com/w/cpp/header/map.html" xlink:title=" ">
<polygon fill="white" stroke="#666666" points="878,-74 840,-74 840,-55 878,-55 878,-74"/>
<text text-anchor="middle" x="859" y="-62" font-family="Helvetica,sans-Serif" font-size="10.00">map</text>
</a>
</g>
</g>
<!-- Node21&#45;&gt;Node24 -->
<g id="edge33_Node000021_Node000024" class="edge">
<title>Node21&#45;&gt;Node24</title>
<g id="a_edge33_Node000021_Node000024"><a xlink:title=" ">
<path fill="none" stroke="#63b8ff" d="M859,-109.75C859,-102.8 859,-92.85 859,-84.13"/>
<polygon fill="#63b8ff" stroke="#63b8ff" points="862.5,-84.09 859,-74.09 855.5,-84.09 862.5,-84.09"/>
</a>
</g>
</g>
<!-- Node25 -->
<g id="Node000025" class="node">
<title>Node25</title>
<g id="a_Node000025"><a target="_parent" xlink:href="http://en.cppreference.com/w/cpp/header/set.html" xlink:title=" ">
<polygon fill="white" stroke="#666666" points="928,-74 896,-74 896,-55 928,-55 928,-74"/>
<text text-anchor="middle" x="912" y="-62" font-family="Helvetica,sans-Serif" font-size="10.00">set</text>
</a>
</g>
</g>
<!-- Node21&#45;&gt;Node25 -->
<g id="edge34_Node000021_Node000025" class="edge">
<title>Node21&#45;&gt;Node25</title>
<g id="a_edge34_Node000021_Node000025"><a xlink:title=" ">
<path fill="none" stroke="#63b8ff" d="M867.75,-109.75C875.47,-102.03 886.9,-90.6 896.22,-81.28"/>
<polygon fill="#63b8ff" stroke="#63b8ff" points="898.81,-83.64 903.41,-74.09 893.86,-78.69 898.81,-83.64"/>
</a>
</g>
</g>
<!-- Node26&#45;&gt;Node7 -->
<g id="edge37_Node000026_Node000007" class="edge">
<title>Node26&#45;&gt;Node7</title>
<g id="a_edge37_Node000026_Node000007"><a xlink:title=" ">
<path fill="none" stroke="#63b8ff" d="M1017.26,-250.16C994.57,-268.44 941.52,-311.2 912.98,-334.21"/>
<polygon fill="#63b8ff" stroke="#63b8ff" points="910.56,-331.66 904.97,-340.66 914.95,-337.11 910.56,-331.66"/>
</a>
</g>
</g>
<!-- Node27&#45;&gt;Node14 -->
<g id="edge44_Node000027_Node000014" class="edge">
<title>Node27&#45;&gt;Node14</title>
<g id="a_edge44_Node000027_Node000014"><a xlink:title=" ">
<path fill="none" stroke="#63b8ff" d="M918.61,-230.98C1005.96,-221.25 1141.39,-205.37 1192,-195 1195.93,-194.19 1200.01,-193.23 1204.06,-192.2"/>
<polygon fill="#63b8ff" stroke="#63b8ff" points="1205.23,-195.51 1213.97,-189.52 1203.4,-188.75 1205.23,-195.51"/>
</a>
</g>
</g>
<!-- Node28 -->
<g id="Node000028" class="node">
<title>Node28</title>
<g id="a_Node000028"><a xlink:title=" ">
<polygon fill="#e0e0e0" stroke="#999999" points="637,-195 527,-195 527,-165 637,-165 637,-195"/>
<text text-anchor="start" x="535" y="-183" font-family="Helvetica,sans-Serif" font-size="10.00">boost/preprocessor</text>
<text text-anchor="middle" x="582" y="-172" font-family="Helvetica,sans-Serif" font-size="10.00">/control/if.hpp</text>
</a>
</g>
</g>
<!-- Node27&#45;&gt;Node28 -->
<g id="edge39_Node000027_Node000028" class="edge">
<title>Node27&#45;&gt;Node28</title>
<g id="a_edge39_Node000027_Node000028"><a xlink:title=" ">
<path fill="none" stroke="#63b8ff" d="M802.48,-230.99C761.82,-221.77 696.17,-206.89 647.07,-195.75"/>
<polygon fill="#63b8ff" stroke="#63b8ff" points="647.69,-192.31 637.17,-193.51 646.14,-199.13 647.69,-192.31"/>
</a>
</g>
</g>
<!-- Node29 -->
<g id="Node000029" class="node">
<title>Node29</title>
<g id="a_Node000029"><a xlink:title=" ">
<polygon fill="#e0e0e0" stroke="#999999" points="766.5,-195 655.5,-195 655.5,-165 766.5,-165 766.5,-195"/>
<text text-anchor="start" x="663.5" y="-183" font-family="Helvetica,sans-Serif" font-size="10.00">boost/preprocessor</text>
<text text-anchor="middle" x="711" y="-172" font-family="Helvetica,sans-Serif" font-size="10.00">/seq/for_each_i.hpp</text>
</a>
</g>
</g>
<!-- Node27&#45;&gt;Node29 -->
<g id="edge40_Node000027_Node000029" class="edge">
<title>Node27&#45;&gt;Node29</title>
<g id="a_edge40_Node000027_Node000029"><a xlink:title=" ">
<path fill="none" stroke="#63b8ff" d="M821.24,-230.99C803.06,-222.75 774.9,-209.98 751.58,-199.4"/>
<polygon fill="#63b8ff" stroke="#63b8ff" points="752.82,-196.12 742.26,-195.18 749.93,-202.5 752.82,-196.12"/>
</a>
</g>
</g>
<!-- Node30 -->
<g id="Node000030" class="node">
<title>Node30</title>
<g id="a_Node000030"><a xlink:title=" ">
<polygon fill="#e0e0e0" stroke="#999999" points="895,-195 785,-195 785,-165 895,-165 895,-195"/>
<text text-anchor="start" x="793" y="-183" font-family="Helvetica,sans-Serif" font-size="10.00">boost/preprocessor</text>
<text text-anchor="middle" x="840" y="-172" font-family="Helvetica,sans-Serif" font-size="10.00">/stringize.hpp</text>
</a>
</g>
</g>
<!-- Node27&#45;&gt;Node30 -->
<g id="edge41_Node000027_Node000030" class="edge">
<title>Node27&#45;&gt;Node30</title>
<g id="a_edge41_Node000027_Node000030"><a xlink:title=" ">
<path fill="none" stroke="#63b8ff" d="M840,-230.87C840,-224.11 840,-214.35 840,-205.26"/>
<polygon fill="#63b8ff" stroke="#63b8ff" points="843.5,-205.11 840,-195.11 836.5,-205.11 843.5,-205.11"/>
</a>
</g>
</g>
<!-- Node31 -->
<g id="Node000031" class="node">
<title>Node31</title>
<g id="a_Node000031"><a xlink:title=" ">
<polygon fill="#e0e0e0" stroke="#999999" points="1028.5,-195 913.5,-195 913.5,-165 1028.5,-165 1028.5,-195"/>
<text text-anchor="start" x="921.5" y="-183" font-family="Helvetica,sans-Serif" font-size="10.00">boost/preprocessor</text>
<text text-anchor="middle" x="971" y="-172" font-family="Helvetica,sans-Serif" font-size="10.00">/variadic/to_seq.hpp</text>
</a>
</g>
</g>
<!-- Node27&#45;&gt;Node31 -->
<g id="edge42_Node000027_Node000031" class="edge">
<title>Node27&#45;&gt;Node31</title>
<g id="a_edge42_Node000027_Node000031"><a xlink:title=" ">
<path fill="none" stroke="#63b8ff" d="M859.05,-230.99C877.65,-222.68 906.56,-209.78 930.34,-199.16"/>
<polygon fill="#63b8ff" stroke="#63b8ff" points="931.8,-202.34 939.51,-195.06 928.95,-195.95 931.8,-202.34"/>
</a>
</g>
</g>
<!-- Node32 -->
<g id="Node000032" class="node">
<title>Node32</title>
<g id="a_Node000032"><a xlink:title=" ">
<polygon fill="#e0e0e0" stroke="#999999" points="1183,-189.5 1047,-189.5 1047,-170.5 1183,-170.5 1183,-189.5"/>
<text text-anchor="middle" x="1115" y="-177.5" font-family="Helvetica,sans-Serif" font-size="10.00">boost/vmd/is_empty.hpp</text>
</a>
</g>
</g>
<!-- Node27&#45;&gt;Node32 -->
<g id="edge43_Node000027_Node000032" class="edge">
<title>Node27&#45;&gt;Node32</title>
<g id="a_edge43_Node000027_Node000032"><a xlink:title=" ">
<path fill="none" stroke="#63b8ff" d="M879.99,-230.99C928.97,-220.57 1011.96,-202.92 1065.08,-191.62"/>
<polygon fill="#63b8ff" stroke="#63b8ff" points="1065.91,-195.02 1074.96,-189.52 1064.45,-188.17 1065.91,-195.02"/>
</a>
</g>
</g>
<!-- Node33&#45;&gt;Node8 -->
<g id="edge47_Node000033_Node000008" class="edge">
<title>Node33&#45;&gt;Node8</title>
<g id="a_edge47_Node000033_Node000008"><a xlink:title=" ">
<path fill="none" stroke="#63b8ff" d="M911.18,-395.94C1003.67,-375.71 1234.74,-325.2 1327.03,-305.02"/>
<polygon fill="#63b8ff" stroke="#63b8ff" points="1327.79,-308.44 1336.81,-302.88 1326.29,-301.6 1327.79,-308.44"/>
</a>
</g>
</g>
</g>
</svg>

<g id="navigator" transform="translate(0 0)" fill="#404254">
  <rect fill="#f2f5e9" fill-opacity="0.5" stroke="#606060" stroke-width=".5" x="0" y="0" width="60" height="60"/>
  <use id="zoomplus" xlink:href="#zoomPlus" x="17" y="9" onmousedown="handleZoom(evt,'in')"/>
  <use id="zoomminus" xlink:href="#zoomMin" x="42" y="9" onmousedown="handleZoom(evt,'out')"/>
  <use id="reset" xlink:href="#resetDef" x="30" y="36" onmousedown="handleReset()"/>
   <use id="arrowup" xlink:href="#arrowUp" x="0" y="0" onmousedown="handlePan(0,-1)"/>
  <use id="arrowright" xlink:href="#arrowRight" x="0" y="0" onmousedown="handlePan(1,0)"/>
  <use id="arrowdown" xlink:href="#arrowDown" x="0" y="0" onmousedown="handlePan(0,1)"/>
  <use id="arrowleft" xlink:href="#arrowLeft" x="0" y="0" onmousedown="handlePan(-1,0)"/>
</g>
<svg viewBox="0 0 15 15" width="100%" height="30px" preserveAspectRatio="xMaxYMin meet">
 <g id="arrow_out" transform="scale(0.3 0.3)">
  <a xlink:href="WatchIntegral_8hpp__incl_org.svg" target="_base">
   <rect id="button" ry="5" rx="5" y="6" x="6" height="38" width="38"
        fill="#f2f5e9" fill-opacity="0.5" stroke="#606060" stroke-width="1.0"/>
   <path id="arrow"
     d="M 11.500037,31.436501 C 11.940474,20.09759 22.043105,11.32322 32.158766,21.979434 L 37.068811,17.246167 C 37.068811,17.246167 37.088388,32 37.088388,32 L 22.160133,31.978069 C 22.160133,31.978069 26.997745,27.140456 26.997745,27.140456 C 18.528582,18.264221 13.291696,25.230495 11.500037,31.436501 z"
     style="fill:#404040;"/>
  </a>
 </g>
</svg>

<style type='text/css'>
<![CDATA[
[data-mouse-over-selected='false'] { opacity: 0.7; }
[data-mouse-over-selected='true']  { opacity: 1.0; }
]]>
</style>
<script type="application/ecmascript"><![CDATA[
document.addEventListener('DOMContentLoaded', (event) => {
  highlightEdges();
  highlightAdjacentNodes();
});
]]></script>
</svg>
