<?xml version="1.0" encoding="UTF-8" standalone="no"?>
<!DOCTYPE svg PUBLIC "-//W3C//DTD SVG 1.1//EN"
 "http://www.w3.org/Graphics/SVG/1.1/DTD/svg11.dtd">
<!-- Generated by graphviz version 2.43.0 (0)
 -->
<!-- Title: BOOST_AUTO_TEST_CASE Pages: 1 -->
<svg width="544pt" height="247pt"
 viewBox="0.00 0.00 544.00 247.00" xmlns="http://www.w3.org/2000/svg" xmlns:xlink="http://www.w3.org/1999/xlink">
<g id="graph0" class="graph" transform="scale(1 1) rotate(0) translate(4 243)">
<title>BOOST_AUTO_TEST_CASE</title>
<polygon fill="white" stroke="transparent" points="-4,4 -4,-243 540,-243 540,4 -4,4"/>
<!-- Node1 -->
<g id="node1" class="node">
<title>Node1</title>
<g id="a_node1"><a xlink:title=" ">
<polygon fill="#bfbfbf" stroke="black" points="0,-88.5 0,-107.5 143,-107.5 143,-88.5 0,-88.5"/>
<text text-anchor="middle" x="71.5" y="-95.5" font-family="Helvetica,sans-Serif" font-size="10.00">BOOST_AUTO_TEST_CASE</text>
</a>
</g>
</g>
<!-- Node2 -->
<g id="node2" class="node">
<title>Node2</title>
<g id="a_node2"><a xlink:href="classprecice_1_1xml_1_1XMLTag.html#af1e842f982d0efa6f85412a23a110529" target="_top" xlink:title="Removes the XML subtag with given name.">
<polygon fill="white" stroke="black" points="206.5,-170 206.5,-200 325.5,-200 325.5,-170 206.5,-170"/>
<text text-anchor="start" x="214.5" y="-188" font-family="Helvetica,sans-Serif" font-size="10.00">precice::xml::XMLTag</text>
<text text-anchor="middle" x="266" y="-177" font-family="Helvetica,sans-Serif" font-size="10.00">::addAttribute</text>
</a>
</g>
</g>
<!-- Node1&#45;&gt;Node2 -->
<g id="edge1" class="edge">
<title>Node1&#45;&gt;Node2</title>
<path fill="none" stroke="midnightblue" d="M91.17,-107.59C112.29,-118.33 147.82,-136.06 179,-150 191.2,-155.45 204.51,-161.04 216.94,-166.11"/>
<polygon fill="midnightblue" stroke="midnightblue" points="215.65,-169.36 226.23,-169.87 218.28,-162.88 215.65,-169.36"/>
</g>
<!-- Node5 -->
<g id="node5" class="node">
<title>Node5</title>
<g id="a_node5"><a xlink:href="classprecice_1_1xml_1_1XMLTag.html#af81dc6eea2b9a75e14ddd6033ed9a1d4" target="_top" xlink:title="Adds an XML tag as subtag by making a copy of the given tag.">
<polygon fill="white" stroke="black" points="403,-121 403,-151 522,-151 522,-121 403,-121"/>
<text text-anchor="start" x="411" y="-139" font-family="Helvetica,sans-Serif" font-size="10.00">precice::xml::XMLTag</text>
<text text-anchor="middle" x="462.5" y="-128" font-family="Helvetica,sans-Serif" font-size="10.00">::addSubtag</text>
</a>
</g>
</g>
<!-- Node1&#45;&gt;Node5 -->
<g id="edge4" class="edge">
<title>Node1&#45;&gt;Node5</title>
<path fill="none" stroke="midnightblue" d="M119.52,-107.53C137.99,-110.98 159.43,-114.6 179,-117 251.72,-125.91 335.53,-130.88 392.86,-133.49"/>
<polygon fill="midnightblue" stroke="midnightblue" points="392.75,-136.98 402.89,-133.93 393.06,-129.99 392.75,-136.98"/>
</g>
<!-- Node6 -->
<g id="node6" class="node">
<title>Node6</title>
<g id="a_node6"><a xlink:href="namespaceprecice_1_1xml.html#a747851d233cc337d88fa1fd8aaa5b4ad" target="_top" xlink:title="Configures the given configuration from file configurationFilename.">
<polygon fill="white" stroke="black" points="202,-88.5 202,-107.5 330,-107.5 330,-88.5 202,-88.5"/>
<text text-anchor="middle" x="266" y="-95.5" font-family="Helvetica,sans-Serif" font-size="10.00">precice::xml::configure</text>
</a>
</g>
</g>
<!-- Node1&#45;&gt;Node6 -->
<g id="edge5" class="edge">
<title>Node1&#45;&gt;Node6</title>
<path fill="none" stroke="midnightblue" d="M143.09,-98C158.84,-98 175.59,-98 191.46,-98"/>
<polygon fill="midnightblue" stroke="midnightblue" points="191.75,-101.5 201.75,-98 191.75,-94.5 191.75,-101.5"/>
</g>
<!-- Node8 -->
<g id="node8" class="node">
<title>Node8</title>
<g id="a_node8"><a xlink:href="namespaceprecice_1_1testing.html#ae1327e613df5bf60b9ff50eb80f9e42e" target="_top" xlink:title="Returns the base path to the sources.">
<polygon fill="white" stroke="black" points="199,-39 199,-69 333,-69 333,-39 199,-39"/>
<text text-anchor="start" x="207" y="-57" font-family="Helvetica,sans-Serif" font-size="10.00">precice::testing::getPath</text>
<text text-anchor="middle" x="266" y="-46" font-family="Helvetica,sans-Serif" font-size="10.00">ToSources</text>
</a>
</g>
</g>
<!-- Node1&#45;&gt;Node8 -->
<g id="edge8" class="edge">
<title>Node1&#45;&gt;Node8</title>
<path fill="none" stroke="midnightblue" d="M114.27,-88.45C136.14,-83.45 163.6,-77.18 189.07,-71.36"/>
<polygon fill="midnightblue" stroke="midnightblue" points="190.12,-74.71 199.09,-69.07 188.56,-67.88 190.12,-74.71"/>
</g>
<!-- Node10 -->
<g id="node10" class="node">
<title>Node10</title>
<g id="a_node10"><a xlink:href="namespaceprecice_1_1xml.html#a89fcda8bdfaf70ef8ed7914aebf01945" target="_top" xlink:title=" ">
<polygon fill="white" stroke="black" points="179,-0.5 179,-19.5 353,-19.5 353,-0.5 179,-0.5"/>
<text text-anchor="middle" x="266" y="-7.5" font-family="Helvetica,sans-Serif" font-size="10.00">precice::xml::makeXMLAttribute</text>
</a>
</g>
</g>
<!-- Node1&#45;&gt;Node10 -->
<g id="edge10" class="edge">
<title>Node1&#45;&gt;Node10</title>
<path fill="none" stroke="midnightblue" d="M84.16,-88.41C102.95,-73.44 141.6,-44.64 179,-29 185.16,-26.42 191.72,-24.17 198.37,-22.21"/>
<polygon fill="midnightblue" stroke="midnightblue" points="199.41,-25.56 208.13,-19.54 197.56,-18.8 199.41,-25.56"/>
</g>
<!-- Node3 -->
<g id="node3" class="node">
<title>Node3</title>
<g id="a_node3"><a xlink:href="namespaceprecice_1_1utils.html#a434eabaa71f97a31726281a4df77bbcf" target="_top" xlink:title="Returns true, if given element is in vector, otherwise false.">
<polygon fill="white" stroke="black" points="396,-219.5 396,-238.5 529,-238.5 529,-219.5 396,-219.5"/>
<text text-anchor="middle" x="462.5" y="-226.5" font-family="Helvetica,sans-Serif" font-size="10.00">precice::utils::contained</text>
</a>
</g>
</g>
<!-- Node2&#45;&gt;Node3 -->
<g id="edge2" class="edge">
<title>Node2&#45;&gt;Node3</title>
<path fill="none" stroke="midnightblue" d="M325.62,-198.26C352.28,-204.29 383.57,-211.37 409.4,-217.21"/>
<polygon fill="midnightblue" stroke="midnightblue" points="408.84,-220.68 419.37,-219.47 410.39,-213.85 408.84,-220.68"/>
</g>
<!-- Node4 -->
<g id="node4" class="node">
<title>Node4</title>
<g id="a_node4"><a xlink:href="classprecice_1_1xml_1_1XMLAttribute.html#a2c9a93a56a82b30a878f40a33891340e" target="_top" xlink:title=" ">
<polygon fill="white" stroke="black" points="389,-170 389,-200 536,-200 536,-170 389,-170"/>
<text text-anchor="start" x="397" y="-188" font-family="Helvetica,sans-Serif" font-size="10.00">precice::xml::XMLAttribute</text>
<text text-anchor="middle" x="462.5" y="-177" font-family="Helvetica,sans-Serif" font-size="10.00">::getName</text>
</a>
</g>
</g>
<!-- Node2&#45;&gt;Node4 -->
<g id="edge3" class="edge">
<title>Node2&#45;&gt;Node4</title>
<path fill="none" stroke="midnightblue" d="M325.62,-185C342.26,-185 360.71,-185 378.5,-185"/>
<polygon fill="midnightblue" stroke="midnightblue" points="378.89,-188.5 388.89,-185 378.89,-181.5 378.89,-188.5"/>
</g>
<!-- Node6&#45;&gt;Node5 -->
<g id="edge6" class="edge">
<title>Node6&#45;&gt;Node5</title>
<path fill="none" stroke="midnightblue" d="M315.83,-107.54C339.17,-112.1 367.52,-117.64 392.98,-122.61"/>
<polygon fill="midnightblue" stroke="midnightblue" points="392.46,-126.08 402.94,-124.56 393.8,-119.21 392.46,-126.08"/>
</g>
<!-- Node7 -->
<g id="node7" class="node">
<title>Node7</title>
<g id="a_node7"><a xlink:href="classprecice_1_1xml_1_1XMLTag.html#aa90f7a05aeab6f674ee1499a84a8bb2e" target="_top" xlink:title="Returns full name consisting of xml namespace + &quot;:&quot; + name.">
<polygon fill="white" stroke="black" points="403,-72 403,-102 522,-102 522,-72 403,-72"/>
<text text-anchor="start" x="411" y="-90" font-family="Helvetica,sans-Serif" font-size="10.00">precice::xml::XMLTag</text>
<text text-anchor="middle" x="462.5" y="-79" font-family="Helvetica,sans-Serif" font-size="10.00">::getFullName</text>
</a>
</g>
</g>
<!-- Node6&#45;&gt;Node7 -->
<g id="edge7" class="edge">
<title>Node6&#45;&gt;Node7</title>
<path fill="none" stroke="midnightblue" d="M330.15,-94.43C350.17,-93.3 372.4,-92.04 392.79,-90.89"/>
<polygon fill="midnightblue" stroke="midnightblue" points="393.17,-94.37 402.95,-90.31 392.77,-87.38 393.17,-94.37"/>
</g>
<!-- Node9 -->
<g id="node9" class="node">
<title>Node9</title>
<g id="a_node9"><a xlink:href="namespaceprecice_1_1testing.html#a7404f14d8e5b780dcd59098bd4d936c3" target="_top" xlink:title="Returns $PRECICE_ROOT, the base path of the repo.">
<polygon fill="white" stroke="black" points="395.5,-23 395.5,-53 529.5,-53 529.5,-23 395.5,-23"/>
<text text-anchor="start" x="403.5" y="-41" font-family="Helvetica,sans-Serif" font-size="10.00">precice::testing::getPath</text>
<text text-anchor="middle" x="462.5" y="-30" font-family="Helvetica,sans-Serif" font-size="10.00">ToRepository</text>
</a>
</g>
</g>
<!-- Node8&#45;&gt;Node9 -->
<g id="edge9" class="edge">
<title>Node8&#45;&gt;Node9</title>
<path fill="none" stroke="midnightblue" d="M333.12,-48.56C349.88,-47.18 368.01,-45.69 385.22,-44.27"/>
<polygon fill="midnightblue" stroke="midnightblue" points="385.55,-47.76 395.23,-43.45 384.98,-40.78 385.55,-47.76"/>
</g>
</g>
</svg>
