<?xml version="1.0" encoding="UTF-8" standalone="no"?>
<!DOCTYPE svg PUBLIC "-//W3C//DTD SVG 1.1//EN"
 "http://www.w3.org/Graphics/SVG/1.1/DTD/svg11.dtd">
<!-- Generated by graphviz version 2.43.0 (0)
 -->
<!-- Title: src/cplscheme/impl/AbsoluteConvergenceMeasure.hpp Pages: 1 -->
<svg width="1552pt" height="489pt"
 viewBox="0.00 0.00 1552.47 489.00" xmlns="http://www.w3.org/2000/svg" xmlns:xlink="http://www.w3.org/1999/xlink">
<g id="graph0" class="graph" transform="scale(1 1) rotate(0) translate(4 485)">
<title>src/cplscheme/impl/AbsoluteConvergenceMeasure.hpp</title>
<!-- Node1 -->
<g id="Node000001" class="node">
<title>Node1</title>
<g id="a_Node000001"><a xlink:title=" ">
<polygon fill="#999999" stroke="#666666" points="282.97,-481 93.97,-481 93.97,-451 282.97,-451 282.97,-481"/>
<text text-anchor="start" x="101.97" y="-469" font-family="Helvetica,sans-Serif" font-size="10.00">src/cplscheme/impl</text>
<text text-anchor="middle" x="188.47" y="-458" font-family="Helvetica,sans-Serif" font-size="10.00">/AbsoluteConvergenceMeasure.hpp</text>
</a>
</g>
</g>
<!-- Node2 -->
<g id="Node000002" class="node">
<title>Node2</title>
<g id="a_Node000002"><a xlink:title=" ">
<polygon fill="#e0e0e0" stroke="#999999" points="795.97,-19 726.97,-19 726.97,0 795.97,0 795.97,-19"/>
<text text-anchor="middle" x="761.47" y="-7" font-family="Helvetica,sans-Serif" font-size="10.00">Eigen/Core</text>
</a>
</g>
</g>
<!-- Node1&#45;&gt;Node2 -->
<g id="edge1_Node000001_Node000002" class="edge">
<title>Node1&#45;&gt;Node2</title>
<g id="a_edge1_Node000001_Node000002"><a xlink:title=" ">
<path fill="none" stroke="#63b8ff" d="M93.8,-454.2C66.83,-446.92 39.4,-434.87 19.47,-415 -1.4,-394.2 0.47,-380.96 0.47,-351.5 0.47,-351.5 0.47,-351.5 0.47,-118.5 0.47,-45.7 553.37,-18.54 716.61,-12.11"/>
<polygon fill="#63b8ff" stroke="#63b8ff" points="716.93,-15.6 726.79,-11.71 716.66,-8.6 716.93,-15.6"/>
</a>
</g>
</g>
<!-- Node3 -->
<g id="Node000003" class="node">
<title>Node3</title>
<g id="a_Node000003"><a target="_parent" xlink:href="http://en.cppreference.com/w/cpp/header/iomanip.html" xlink:title=" ">
<polygon fill="white" stroke="#666666" points="84.47,-415 28.47,-415 28.47,-396 84.47,-396 84.47,-415"/>
<text text-anchor="middle" x="56.47" y="-403" font-family="Helvetica,sans-Serif" font-size="10.00">iomanip</text>
</a>
</g>
</g>
<!-- Node1&#45;&gt;Node3 -->
<g id="edge2_Node000001_Node000003" class="edge">
<title>Node1&#45;&gt;Node3</title>
<g id="a_edge2_Node000001_Node000003"><a xlink:title=" ">
<path fill="none" stroke="#63b8ff" d="M156.85,-450.99C135.12,-441.36 106.49,-428.67 85.37,-419.31"/>
<polygon fill="#63b8ff" stroke="#63b8ff" points="86.52,-415.99 75.96,-415.14 83.68,-422.39 86.52,-415.99"/>
</a>
</g>
</g>
<!-- Node4 -->
<g id="Node000004" class="node">
<title>Node4</title>
<g id="a_Node000004"><a target="_parent" xlink:href="http://en.cppreference.com/w/cpp/header/ostream.html" xlink:title=" ">
<polygon fill="white" stroke="#666666" points="159.97,-415 102.97,-415 102.97,-396 159.97,-396 159.97,-415"/>
<text text-anchor="middle" x="131.47" y="-403" font-family="Helvetica,sans-Serif" font-size="10.00">ostream</text>
</a>
</g>
</g>
<!-- Node1&#45;&gt;Node4 -->
<g id="edge3_Node000001_Node000004" class="edge">
<title>Node1&#45;&gt;Node4</title>
<g id="a_edge3_Node000001_Node000004"><a xlink:title=" ">
<path fill="none" stroke="#63b8ff" d="M174.67,-450.84C166.39,-442.35 155.84,-431.52 147.24,-422.69"/>
<polygon fill="#63b8ff" stroke="#63b8ff" points="149.49,-419.99 140.01,-415.27 144.48,-424.87 149.49,-419.99"/>
</a>
</g>
</g>
<!-- Node5 -->
<g id="Node000005" class="node">
<title>Node5</title>
<g id="a_Node000005"><a target="_parent" xlink:href="http://en.cppreference.com/w/cpp/header/string.html" xlink:title=" ">
<polygon fill="white" stroke="#666666" points="173.47,-129 129.47,-129 129.47,-110 173.47,-110 173.47,-129"/>
<text text-anchor="middle" x="151.47" y="-117" font-family="Helvetica,sans-Serif" font-size="10.00">string</text>
</a>
</g>
</g>
<!-- Node1&#45;&gt;Node5 -->
<g id="edge4_Node000001_Node000005" class="edge">
<title>Node1&#45;&gt;Node5</title>
<g id="a_edge4_Node000001_Node000005"><a xlink:title=" ">
<path fill="none" stroke="#63b8ff" d="M186.92,-450.64C181.05,-395.96 160.1,-200.85 153.48,-139.27"/>
<polygon fill="#63b8ff" stroke="#63b8ff" points="156.94,-138.66 152.39,-129.1 149.98,-139.41 156.94,-138.66"/>
</a>
</g>
</g>
<!-- Node6 -->
<g id="Node000006" class="node">
<title>Node6</title>
<g id="a_Node000006"><a xlink:href="ConvergenceMeasure_8hpp.html" target="_top" xlink:title=" ">
<polygon fill="white" stroke="#666666" points="1203.97,-250 1060.97,-250 1060.97,-231 1203.97,-231 1203.97,-250"/>
<text text-anchor="middle" x="1132.47" y="-238" font-family="Helvetica,sans-Serif" font-size="10.00">ConvergenceMeasure.hpp</text>
</a>
</g>
</g>
<!-- Node1&#45;&gt;Node6 -->
<g id="edge5_Node000001_Node000006" class="edge">
<title>Node1&#45;&gt;Node6</title>
<g id="a_edge5_Node000001_Node000006"><a xlink:title=" ">
<path fill="none" stroke="#63b8ff" d="M283.19,-461.27C467.07,-452.62 864.68,-426.6 982.47,-360 1019.08,-339.3 1008.66,-312.33 1041.47,-286 1058.48,-272.35 1080.37,-261.48 1098.41,-253.9"/>
<polygon fill="#63b8ff" stroke="#63b8ff" points="1100.03,-257.02 1107.99,-250.03 1097.4,-250.53 1100.03,-257.02"/>
</a>
</g>
</g>
<!-- Node7 -->
<g id="Node000007" class="node">
<title>Node7</title>
<g id="a_Node000007"><a xlink:href="Logger_8hpp.html" target="_top" xlink:title=" ">
<polygon fill="white" stroke="#666666" points="593.97,-360 484.97,-360 484.97,-341 593.97,-341 593.97,-360"/>
<text text-anchor="middle" x="539.47" y="-348" font-family="Helvetica,sans-Serif" font-size="10.00">logging/Logger.hpp</text>
</a>
</g>
</g>
<!-- Node1&#45;&gt;Node7 -->
<g id="edge7_Node000001_Node000007" class="edge">
<title>Node1&#45;&gt;Node7</title>
<g id="a_edge7_Node000001_Node000007"><a xlink:title=" ">
<path fill="none" stroke="#63b8ff" d="M231.86,-450.97C301.67,-428.39 437.69,-384.41 502.9,-363.33"/>
<polygon fill="#63b8ff" stroke="#63b8ff" points="504.29,-366.55 512.73,-360.14 502.14,-359.89 504.29,-366.55"/>
</a>
</g>
</g>
<!-- Node34 -->
<g id="Node000034" class="node">
<title>Node34</title>
<g id="a_Node000034"><a xlink:href="IntraComm_8hpp.html" target="_top" xlink:title=" ">
<polygon fill="white" stroke="#666666" points="1193.47,-415 1077.47,-415 1077.47,-396 1193.47,-396 1193.47,-415"/>
<text text-anchor="middle" x="1135.47" y="-403" font-family="Helvetica,sans-Serif" font-size="10.00">utils/IntraComm.hpp</text>
</a>
</g>
</g>
<!-- Node1&#45;&gt;Node34 -->
<g id="edge43_Node000001_Node000034" class="edge">
<title>Node1&#45;&gt;Node34</title>
<g id="a_edge43_Node000001_Node000034"><a xlink:title=" ">
<path fill="none" stroke="#63b8ff" d="M282.98,-459.99C438.51,-451.6 758.12,-433.78 1028.47,-415 1041.01,-414.13 1054.37,-413.13 1067.25,-412.12"/>
<polygon fill="#63b8ff" stroke="#63b8ff" points="1067.76,-415.59 1077.45,-411.32 1067.21,-408.62 1067.76,-415.59"/>
</a>
</g>
</g>
<!-- Node6&#45;&gt;Node2 -->
<g id="edge6_Node000006_Node000002" class="edge">
<title>Node6&#45;&gt;Node2</title>
<g id="a_edge6_Node000006_Node000002"><a xlink:title=" ">
<path fill="none" stroke="#63b8ff" d="M1144.96,-230.93C1155.33,-222.99 1169.35,-210.14 1175.47,-195 1198.78,-137.31 1217.05,-101.29 1175.47,-55 1151.12,-27.89 908.34,-15.88 806.28,-12"/>
<polygon fill="#63b8ff" stroke="#63b8ff" points="806.12,-8.49 795.99,-11.62 805.86,-15.49 806.12,-8.49"/>
</a>
</g>
</g>
<!-- Node7&#45;&gt;Node5 -->
<g id="edge9_Node000007_Node000005" class="edge">
<title>Node7&#45;&gt;Node5</title>
<g id="a_edge9_Node000007_Node000005"><a xlink:title=" ">
<path fill="none" stroke="#63b8ff" d="M484.72,-345.65C437.02,-340.73 366.87,-329.67 310.47,-305 246.25,-276.91 235.81,-253.67 197.47,-195 184.91,-175.79 171.17,-153.34 162.01,-138.14"/>
<polygon fill="#63b8ff" stroke="#63b8ff" points="164.85,-136.08 156.7,-129.31 158.85,-139.68 164.85,-136.08"/>
</a>
</g>
</g>
<!-- Node8 -->
<g id="Node000008" class="node">
<title>Node8</title>
<g id="a_Node000008"><a target="_parent" xlink:href="http://en.cppreference.com/w/cpp/header/memory.html" xlink:title=" ">
<polygon fill="white" stroke="#666666" points="815.47,-305 757.47,-305 757.47,-286 815.47,-286 815.47,-305"/>
<text text-anchor="middle" x="786.47" y="-293" font-family="Helvetica,sans-Serif" font-size="10.00">memory</text>
</a>
</g>
</g>
<!-- Node7&#45;&gt;Node8 -->
<g id="edge8_Node000007_Node000008" class="edge">
<title>Node7&#45;&gt;Node8</title>
<g id="a_edge8_Node000007_Node000008"><a xlink:title=" ">
<path fill="none" stroke="#63b8ff" d="M579.15,-340.98C625.43,-331.06 701.43,-314.75 747.42,-304.88"/>
<polygon fill="#63b8ff" stroke="#63b8ff" points="748.28,-308.27 757.32,-302.75 746.81,-301.43 748.28,-308.27"/>
</a>
</g>
</g>
<!-- Node9 -->
<g id="Node000009" class="node">
<title>Node9</title>
<g id="a_Node000009"><a target="_parent" xlink:href="http://en.cppreference.com/w/cpp/header/string_view.html" xlink:title=" ">
<polygon fill="white" stroke="#666666" points="453.97,-129 380.97,-129 380.97,-110 453.97,-110 453.97,-129"/>
<text text-anchor="middle" x="417.47" y="-117" font-family="Helvetica,sans-Serif" font-size="10.00">string_view</text>
</a>
</g>
</g>
<!-- Node7&#45;&gt;Node9 -->
<g id="edge10_Node000007_Node000009" class="edge">
<title>Node7&#45;&gt;Node9</title>
<g id="a_edge10_Node000007_Node000009"><a xlink:title=" ">
<path fill="none" stroke="#63b8ff" d="M484.84,-342.08C407.74,-328.34 269.61,-291.02 208.47,-195 169.96,-134.53 297.88,-122.61 370.61,-120.61"/>
<polygon fill="#63b8ff" stroke="#63b8ff" points="371,-124.1 380.92,-120.38 370.84,-117.1 371,-124.1"/>
</a>
</g>
</g>
<!-- Node10 -->
<g id="Node000010" class="node">
<title>Node10</title>
<g id="a_Node000010"><a xlink:href="LogMacros_8hpp.html" target="_top" xlink:title=" ">
<polygon fill="white" stroke="#666666" points="733.47,-305 643.47,-305 643.47,-286 733.47,-286 733.47,-305"/>
<text text-anchor="middle" x="688.47" y="-293" font-family="Helvetica,sans-Serif" font-size="10.00">LogMacros.hpp</text>
</a>
</g>
</g>
<!-- Node7&#45;&gt;Node10 -->
<g id="edge11_Node000007_Node000010" class="edge">
<title>Node7&#45;&gt;Node10</title>
<g id="a_edge11_Node000007_Node000010"><a xlink:title=" ">
<path fill="none" stroke="#63b8ff" d="M563.41,-340.98C588.02,-332.23 626.59,-318.51 654.38,-308.62"/>
<polygon fill="#63b8ff" stroke="#63b8ff" points="655.84,-311.82 664.09,-305.17 653.5,-305.22 655.84,-311.82"/>
</a>
</g>
</g>
<!-- Node11 -->
<g id="Node000011" class="node">
<title>Node11</title>
<g id="a_Node000011"><a xlink:href="Exceptions_8hpp.html" target="_top" xlink:title=" ">
<polygon fill="white" stroke="#666666" points="1042.97,-250 913.97,-250 913.97,-231 1042.97,-231 1042.97,-250"/>
<text text-anchor="middle" x="978.47" y="-238" font-family="Helvetica,sans-Serif" font-size="10.00">precice/Exceptions.hpp</text>
</a>
</g>
</g>
<!-- Node10&#45;&gt;Node11 -->
<g id="edge12_Node000010_Node000011" class="edge">
<title>Node10&#45;&gt;Node11</title>
<g id="a_edge12_Node000010_Node000011"><a xlink:title=" ">
<path fill="none" stroke="#63b8ff" d="M733.78,-286.22C784.47,-276.95 866.66,-261.93 921.62,-251.89"/>
<polygon fill="#63b8ff" stroke="#63b8ff" points="922.34,-255.32 931.55,-250.07 921.08,-248.43 922.34,-255.32"/>
</a>
</g>
</g>
<!-- Node14 -->
<g id="Node000014" class="node">
<title>Node14</title>
<g id="a_Node000014"><a xlink:href="fmt_8hpp.html" target="_top" xlink:title=" ">
<polygon fill="white" stroke="#666666" points="969.97,-189.5 890.97,-189.5 890.97,-170.5 969.97,-170.5 969.97,-189.5"/>
<text text-anchor="middle" x="930.47" y="-177.5" font-family="Helvetica,sans-Serif" font-size="10.00">utils/fmt.hpp</text>
</a>
</g>
</g>
<!-- Node10&#45;&gt;Node14 -->
<g id="edge15_Node000010_Node000014" class="edge">
<title>Node10&#45;&gt;Node14</title>
<g id="a_edge15_Node000010_Node000014"><a xlink:title=" ">
<path fill="none" stroke="#63b8ff" d="M706.65,-285.97C748.7,-266.25 852.84,-217.41 902.82,-193.96"/>
<polygon fill="#63b8ff" stroke="#63b8ff" points="904.5,-197.05 912.07,-189.63 901.53,-190.71 904.5,-197.05"/>
</a>
</g>
</g>
<!-- Node27 -->
<g id="Node000027" class="node">
<title>Node27</title>
<g id="a_Node000027"><a xlink:href="Tracer_8hpp.html" target="_top" xlink:title=" ">
<polygon fill="white" stroke="#666666" points="591.97,-250 486.97,-250 486.97,-231 591.97,-231 591.97,-250"/>
<text text-anchor="middle" x="539.47" y="-238" font-family="Helvetica,sans-Serif" font-size="10.00">logging/Tracer.hpp</text>
</a>
</g>
</g>
<!-- Node10&#45;&gt;Node27 -->
<g id="edge34_Node000010_Node000027" class="edge">
<title>Node10&#45;&gt;Node27</title>
<g id="a_edge34_Node000010_Node000027"><a xlink:title=" ">
<path fill="none" stroke="#63b8ff" d="M664.53,-285.98C639.91,-277.23 601.35,-263.51 573.55,-253.62"/>
<polygon fill="#63b8ff" stroke="#63b8ff" points="574.44,-250.22 563.84,-250.17 572.09,-256.82 574.44,-250.22"/>
</a>
</g>
</g>
<!-- Node28 -->
<g id="Node000028" class="node">
<title>Node28</title>
<g id="a_Node000028"><a xlink:href="ArgumentFormatter_8hpp.html" target="_top" xlink:title=" ">
<polygon fill="white" stroke="#666666" points="766.97,-250 609.97,-250 609.97,-231 766.97,-231 766.97,-250"/>
<text text-anchor="middle" x="688.47" y="-238" font-family="Helvetica,sans-Serif" font-size="10.00">utils/ArgumentFormatter.hpp</text>
</a>
</g>
</g>
<!-- Node10&#45;&gt;Node28 -->
<g id="edge36_Node000010_Node000028" class="edge">
<title>Node10&#45;&gt;Node28</title>
<g id="a_edge36_Node000010_Node000028"><a xlink:title=" ">
<path fill="none" stroke="#63b8ff" d="M688.47,-285.75C688.47,-278.8 688.47,-268.85 688.47,-260.13"/>
<polygon fill="#63b8ff" stroke="#63b8ff" points="691.97,-260.09 688.47,-250.09 684.97,-260.09 691.97,-260.09"/>
</a>
</g>
</g>
<!-- Node12 -->
<g id="Node000012" class="node">
<title>Node12</title>
<g id="a_Node000012"><a target="_parent" xlink:href="http://en.cppreference.com/w/cpp/header/stdexcept.html" xlink:title=" ">
<polygon fill="white" stroke="#666666" points="1052.97,-189.5 987.97,-189.5 987.97,-170.5 1052.97,-170.5 1052.97,-189.5"/>
<text text-anchor="middle" x="1020.47" y="-177.5" font-family="Helvetica,sans-Serif" font-size="10.00">stdexcept</text>
</a>
</g>
</g>
<!-- Node11&#45;&gt;Node12 -->
<g id="edge13_Node000011_Node000012" class="edge">
<title>Node11&#45;&gt;Node12</title>
<g id="a_edge13_Node000011_Node000012"><a xlink:title=" ">
<path fill="none" stroke="#63b8ff" d="M984.66,-230.87C990.87,-222.23 1000.58,-208.7 1008.32,-197.92"/>
<polygon fill="#63b8ff" stroke="#63b8ff" points="1011.25,-199.83 1014.24,-189.67 1005.57,-195.75 1011.25,-199.83"/>
</a>
</g>
</g>
<!-- Node13 -->
<g id="Node000013" class="node">
<title>Node13</title>
<g id="a_Node000013"><a xlink:title=" ">
<polygon fill="#e0e0e0" stroke="#999999" points="1165.97,-189.5 1070.97,-189.5 1070.97,-170.5 1165.97,-170.5 1165.97,-189.5"/>
<text text-anchor="middle" x="1118.47" y="-177.5" font-family="Helvetica,sans-Serif" font-size="10.00">precice/export.h</text>
</a>
</g>
</g>
<!-- Node11&#45;&gt;Node13 -->
<g id="edge14_Node000011_Node000013" class="edge">
<title>Node11&#45;&gt;Node13</title>
<g id="a_edge14_Node000011_Node000013"><a xlink:title=" ">
<path fill="none" stroke="#63b8ff" d="M998.82,-230.99C1022.46,-221.12 1061.67,-204.73 1088.72,-193.43"/>
<polygon fill="#63b8ff" stroke="#63b8ff" points="1090.21,-196.6 1098.08,-189.52 1087.51,-190.14 1090.21,-196.6"/>
</a>
</g>
</g>
<!-- Node14&#45;&gt;Node5 -->
<g id="edge16_Node000014_Node000005" class="edge">
<title>Node14&#45;&gt;Node5</title>
<g id="a_edge16_Node000014_Node000005"><a xlink:title=" ">
<path fill="none" stroke="#63b8ff" d="M905.06,-170.44C897.83,-168.33 889.91,-166.29 882.47,-165 813.09,-152.93 316.42,-128.43 183.9,-122.05"/>
<polygon fill="#63b8ff" stroke="#63b8ff" points="183.76,-118.54 173.6,-121.55 183.42,-125.53 183.76,-118.54"/>
</a>
</g>
</g>
<!-- Node14&#45;&gt;Node9 -->
<g id="edge17_Node000014_Node000009" class="edge">
<title>Node14&#45;&gt;Node9</title>
<g id="a_edge17_Node000014_Node000009"><a xlink:title=" ">
<path fill="none" stroke="#63b8ff" d="M904.53,-170.47C897.44,-168.4 889.71,-166.39 882.47,-165 731.08,-135.95 548.16,-125.51 463.98,-122.05"/>
<polygon fill="#63b8ff" stroke="#63b8ff" points="464.1,-118.56 453.97,-121.66 463.83,-125.55 464.1,-118.56"/>
</a>
</g>
</g>
<!-- Node15 -->
<g id="Node000015" class="node">
<title>Node15</title>
<g id="a_Node000015"><a xlink:title=" ">
<polygon fill="#e0e0e0" stroke="#999999" points="868.97,-74 789.97,-74 789.97,-55 868.97,-55 868.97,-74"/>
<text text-anchor="middle" x="829.47" y="-62" font-family="Helvetica,sans-Serif" font-size="10.00">fmt/format.h</text>
</a>
</g>
</g>
<!-- Node14&#45;&gt;Node15 -->
<g id="edge18_Node000014_Node000015" class="edge">
<title>Node14&#45;&gt;Node15</title>
<g id="a_edge18_Node000014_Node000015"><a xlink:title=" ">
<path fill="none" stroke="#63b8ff" d="M912.44,-170.35C896.23,-161.79 872.67,-147.32 857.47,-129 846.41,-115.69 838.95,-97.33 834.53,-83.77"/>
<polygon fill="#63b8ff" stroke="#63b8ff" points="837.86,-82.69 831.62,-74.12 831.15,-84.71 837.86,-82.69"/>
</a>
</g>
</g>
<!-- Node16 -->
<g id="Node000016" class="node">
<title>Node16</title>
<g id="a_Node000016"><a xlink:title=" ">
<polygon fill="#e0e0e0" stroke="#999999" points="952.47,-129 866.47,-129 866.47,-110 952.47,-110 952.47,-129"/>
<text text-anchor="middle" x="909.47" y="-117" font-family="Helvetica,sans-Serif" font-size="10.00">fmt/ostream.h</text>
</a>
</g>
</g>
<!-- Node14&#45;&gt;Node16 -->
<g id="edge19_Node000014_Node000016" class="edge">
<title>Node14&#45;&gt;Node16</title>
<g id="a_edge19_Node000014_Node000016"><a xlink:title=" ">
<path fill="none" stroke="#63b8ff" d="M927.37,-170.37C924.39,-162.07 919.8,-149.28 916.01,-138.72"/>
<polygon fill="#63b8ff" stroke="#63b8ff" points="919.25,-137.4 912.58,-129.17 912.66,-139.76 919.25,-137.4"/>
</a>
</g>
</g>
<!-- Node17 -->
<g id="Node000017" class="node">
<title>Node17</title>
<g id="a_Node000017"><a xlink:href="fmtEigen_8hpp.html" target="_top" xlink:title=" ">
<polygon fill="white" stroke="#666666" points="784.47,-129 678.47,-129 678.47,-110 784.47,-110 784.47,-129"/>
<text text-anchor="middle" x="731.47" y="-117" font-family="Helvetica,sans-Serif" font-size="10.00">utils/fmtEigen.hpp</text>
</a>
</g>
</g>
<!-- Node14&#45;&gt;Node17 -->
<g id="edge20_Node000014_Node000017" class="edge">
<title>Node14&#45;&gt;Node17</title>
<g id="a_edge20_Node000014_Node000017"><a xlink:title=" ">
<path fill="none" stroke="#63b8ff" d="M901.53,-170.49C866.9,-160.31 808.76,-143.22 770.26,-131.9"/>
<polygon fill="#63b8ff" stroke="#63b8ff" points="771.02,-128.48 760.44,-129.02 769.04,-135.2 771.02,-128.48"/>
</a>
</g>
</g>
<!-- Node21 -->
<g id="Node000021" class="node">
<title>Node21</title>
<g id="a_Node000021"><a xlink:href="fmtSTL_8hpp.html" target="_top" xlink:title=" ">
<polygon fill="white" stroke="#666666" points="1066.47,-129 970.47,-129 970.47,-110 1066.47,-110 1066.47,-129"/>
<text text-anchor="middle" x="1018.47" y="-117" font-family="Helvetica,sans-Serif" font-size="10.00">utils/fmtSTL.hpp</text>
</a>
</g>
</g>
<!-- Node14&#45;&gt;Node21 -->
<g id="edge27_Node000014_Node000021" class="edge">
<title>Node14&#45;&gt;Node21</title>
<g id="a_edge27_Node000014_Node000021"><a xlink:title=" ">
<path fill="none" stroke="#63b8ff" d="M943.45,-170.37C957.49,-161.04 980.1,-146.01 996.83,-134.88"/>
<polygon fill="#63b8ff" stroke="#63b8ff" points="999.04,-137.62 1005.43,-129.17 995.16,-131.79 999.04,-137.62"/>
</a>
</g>
</g>
<!-- Node17&#45;&gt;Node2 -->
<g id="edge21_Node000017_Node000002" class="edge">
<title>Node17&#45;&gt;Node2</title>
<g id="a_edge21_Node000017_Node000002"><a xlink:title=" ">
<path fill="none" stroke="#63b8ff" d="M733.92,-109.66C738.8,-92.09 749.81,-52.45 756.34,-28.95"/>
<polygon fill="#63b8ff" stroke="#63b8ff" points="759.76,-29.73 759.06,-19.16 753.01,-27.86 759.76,-29.73"/>
</a>
</g>
</g>
<!-- Node17&#45;&gt;Node15 -->
<g id="edge23_Node000017_Node000015" class="edge">
<title>Node17&#45;&gt;Node15</title>
<g id="a_edge23_Node000017_Node000015"><a xlink:title=" ">
<path fill="none" stroke="#63b8ff" d="M747.21,-109.98C762.69,-101.61 786.56,-88.7 804.6,-78.95"/>
<polygon fill="#63b8ff" stroke="#63b8ff" points="806.3,-82.01 813.43,-74.17 802.97,-75.85 806.3,-82.01"/>
</a>
</g>
</g>
<!-- Node18 -->
<g id="Node000018" class="node">
<title>Node18</title>
<g id="a_Node000018"><a target="_parent" xlink:href="http://en.cppreference.com/w/cpp/header/algorithm.html" xlink:title=" ">
<polygon fill="white" stroke="#666666" points="659.47,-74 595.47,-74 595.47,-55 659.47,-55 659.47,-74"/>
<text text-anchor="middle" x="627.47" y="-62" font-family="Helvetica,sans-Serif" font-size="10.00">algorithm</text>
</a>
</g>
</g>
<!-- Node17&#45;&gt;Node18 -->
<g id="edge22_Node000017_Node000018" class="edge">
<title>Node17&#45;&gt;Node18</title>
<g id="a_edge22_Node000017_Node000018"><a xlink:title=" ">
<path fill="none" stroke="#63b8ff" d="M714.76,-109.98C698.25,-101.57 672.77,-88.59 653.59,-78.81"/>
<polygon fill="#63b8ff" stroke="#63b8ff" points="654.98,-75.59 644.48,-74.17 651.8,-81.83 654.98,-75.59"/>
</a>
</g>
</g>
<!-- Node19 -->
<g id="Node000019" class="node">
<title>Node19</title>
<g id="a_Node000019"><a target="_parent" xlink:href="http://en.cppreference.com/w/cpp/header/sstream.html" xlink:title=" ">
<polygon fill="white" stroke="#666666" points="733.47,-74 677.47,-74 677.47,-55 733.47,-55 733.47,-74"/>
<text text-anchor="middle" x="705.47" y="-62" font-family="Helvetica,sans-Serif" font-size="10.00">sstream</text>
</a>
</g>
</g>
<!-- Node17&#45;&gt;Node19 -->
<g id="edge24_Node000017_Node000019" class="edge">
<title>Node17&#45;&gt;Node19</title>
<g id="a_edge24_Node000017_Node000019"><a xlink:title=" ">
<path fill="none" stroke="#63b8ff" d="M727.17,-109.75C723.65,-102.57 718.55,-92.18 714.18,-83.27"/>
<polygon fill="#63b8ff" stroke="#63b8ff" points="717.23,-81.53 709.68,-74.09 710.94,-84.61 717.23,-81.53"/>
</a>
</g>
</g>
<!-- Node20 -->
<g id="Node000020" class="node">
<title>Node20</title>
<g id="a_Node000020"><a xlink:href="EigenIO_8hpp.html" target="_top" xlink:title=" ">
<polygon fill="white" stroke="#666666" points="576.97,-74 477.97,-74 477.97,-55 576.97,-55 576.97,-74"/>
<text text-anchor="middle" x="527.47" y="-62" font-family="Helvetica,sans-Serif" font-size="10.00">utils/EigenIO.hpp</text>
</a>
</g>
</g>
<!-- Node17&#45;&gt;Node20 -->
<g id="edge25_Node000017_Node000020" class="edge">
<title>Node17&#45;&gt;Node20</title>
<g id="a_edge25_Node000017_Node000020"><a xlink:title=" ">
<path fill="none" stroke="#63b8ff" d="M698.69,-109.98C663.85,-100.93 608.6,-86.58 570.33,-76.64"/>
<polygon fill="#63b8ff" stroke="#63b8ff" points="571.06,-73.21 560.5,-74.08 569.3,-79.98 571.06,-73.21"/>
</a>
</g>
</g>
<!-- Node20&#45;&gt;Node2 -->
<g id="edge26_Node000020_Node000002" class="edge">
<title>Node20&#45;&gt;Node2</title>
<g id="a_edge26_Node000020_Node000002"><a xlink:title=" ">
<path fill="none" stroke="#63b8ff" d="M565.06,-54.98C606.41,-45.62 672.82,-30.58 716.79,-20.62"/>
<polygon fill="#63b8ff" stroke="#63b8ff" points="717.66,-24.01 726.64,-18.39 716.11,-17.18 717.66,-24.01"/>
</a>
</g>
</g>
<!-- Node21&#45;&gt;Node15 -->
<g id="edge30_Node000021_Node000015" class="edge">
<title>Node21&#45;&gt;Node15</title>
<g id="a_edge30_Node000021_Node000015"><a xlink:title=" ">
<path fill="none" stroke="#63b8ff" d="M988.1,-109.98C956.09,-101.01 905.5,-86.82 870.08,-76.89"/>
<polygon fill="#63b8ff" stroke="#63b8ff" points="870.64,-73.41 860.07,-74.08 868.75,-80.15 870.64,-73.41"/>
</a>
</g>
</g>
<!-- Node22 -->
<g id="Node000022" class="node">
<title>Node22</title>
<g id="a_Node000022"><a target="_parent" xlink:href="http://en.cppreference.com/w/cpp/header/array.html" xlink:title=" ">
<polygon fill="white" stroke="#666666" points="1166.47,-74 1124.47,-74 1124.47,-55 1166.47,-55 1166.47,-74"/>
<text text-anchor="middle" x="1145.47" y="-62" font-family="Helvetica,sans-Serif" font-size="10.00">array</text>
</a>
</g>
</g>
<!-- Node21&#45;&gt;Node22 -->
<g id="edge28_Node000021_Node000022" class="edge">
<title>Node21&#45;&gt;Node22</title>
<g id="a_edge28_Node000021_Node000022"><a xlink:title=" ">
<path fill="none" stroke="#63b8ff" d="M1038.87,-109.98C1059.48,-101.38 1091.57,-87.99 1115.16,-78.15"/>
<polygon fill="#63b8ff" stroke="#63b8ff" points="1116.81,-81.25 1124.69,-74.17 1114.11,-74.79 1116.81,-81.25"/>
</a>
</g>
</g>
<!-- Node23 -->
<g id="Node000023" class="node">
<title>Node23</title>
<g id="a_Node000023"><a target="_parent" xlink:href="http://en.cppreference.com/w/cpp/header/deque.html" xlink:title=" ">
<polygon fill="white" stroke="#666666" points="1049.97,-74 1002.97,-74 1002.97,-55 1049.97,-55 1049.97,-74"/>
<text text-anchor="middle" x="1026.47" y="-62" font-family="Helvetica,sans-Serif" font-size="10.00">deque</text>
</a>
</g>
</g>
<!-- Node21&#45;&gt;Node23 -->
<g id="edge29_Node000021_Node000023" class="edge">
<title>Node21&#45;&gt;Node23</title>
<g id="a_edge29_Node000021_Node000023"><a xlink:title=" ">
<path fill="none" stroke="#63b8ff" d="M1019.79,-109.75C1020.84,-102.8 1022.34,-92.85 1023.65,-84.13"/>
<polygon fill="#63b8ff" stroke="#63b8ff" points="1027.14,-84.5 1025.17,-74.09 1020.22,-83.45 1027.14,-84.5"/>
</a>
</g>
</g>
<!-- Node24 -->
<g id="Node000024" class="node">
<title>Node24</title>
<g id="a_Node000024"><a target="_parent" xlink:href="http://en.cppreference.com/w/cpp/header/map.html" xlink:title=" ">
<polygon fill="white" stroke="#666666" points="1106.47,-74 1068.47,-74 1068.47,-55 1106.47,-55 1106.47,-74"/>
<text text-anchor="middle" x="1087.47" y="-62" font-family="Helvetica,sans-Serif" font-size="10.00">map</text>
</a>
</g>
</g>
<!-- Node21&#45;&gt;Node24 -->
<g id="edge31_Node000021_Node000024" class="edge">
<title>Node21&#45;&gt;Node24</title>
<g id="a_edge31_Node000021_Node000024"><a xlink:title=" ">
<path fill="none" stroke="#63b8ff" d="M1029.55,-109.98C1039.95,-102 1055.73,-89.88 1068.19,-80.31"/>
<polygon fill="#63b8ff" stroke="#63b8ff" points="1070.38,-83.04 1076.18,-74.17 1066.12,-77.49 1070.38,-83.04"/>
</a>
</g>
</g>
<!-- Node25 -->
<g id="Node000025" class="node">
<title>Node25</title>
<g id="a_Node000025"><a target="_parent" xlink:href="http://en.cppreference.com/w/cpp/header/set.html" xlink:title=" ">
<polygon fill="white" stroke="#666666" points="919.47,-74 887.47,-74 887.47,-55 919.47,-55 919.47,-74"/>
<text text-anchor="middle" x="903.47" y="-62" font-family="Helvetica,sans-Serif" font-size="10.00">set</text>
</a>
</g>
</g>
<!-- Node21&#45;&gt;Node25 -->
<g id="edge32_Node000021_Node000025" class="edge">
<title>Node21&#45;&gt;Node25</title>
<g id="a_edge32_Node000021_Node000025"><a xlink:title=" ">
<path fill="none" stroke="#63b8ff" d="M999.99,-109.98C980.72,-101.1 950.38,-87.12 928.86,-77.2"/>
<polygon fill="#63b8ff" stroke="#63b8ff" points="930.21,-73.97 919.67,-72.97 927.28,-80.33 930.21,-73.97"/>
</a>
</g>
</g>
<!-- Node26 -->
<g id="Node000026" class="node">
<title>Node26</title>
<g id="a_Node000026"><a target="_parent" xlink:href="http://en.cppreference.com/w/cpp/header/vector.html" xlink:title=" ">
<polygon fill="white" stroke="#666666" points="984.97,-74 937.97,-74 937.97,-55 984.97,-55 984.97,-74"/>
<text text-anchor="middle" x="961.47" y="-62" font-family="Helvetica,sans-Serif" font-size="10.00">vector</text>
</a>
</g>
</g>
<!-- Node21&#45;&gt;Node26 -->
<g id="edge33_Node000021_Node000026" class="edge">
<title>Node21&#45;&gt;Node26</title>
<g id="a_edge33_Node000021_Node000026"><a xlink:title=" ">
<path fill="none" stroke="#63b8ff" d="M1009.31,-109.98C1000.96,-102.23 988.43,-90.58 978.29,-81.14"/>
<polygon fill="#63b8ff" stroke="#63b8ff" points="980.5,-78.42 970.79,-74.17 975.73,-83.54 980.5,-78.42"/>
</a>
</g>
</g>
<!-- Node27&#45;&gt;Node7 -->
<g id="edge35_Node000027_Node000007" class="edge">
<title>Node27&#45;&gt;Node7</title>
<g id="a_edge35_Node000027_Node000007"><a xlink:title=" ">
<path fill="none" stroke="#63b8ff" d="M539.47,-250.16C539.47,-267.5 539.47,-306.84 539.47,-330.48"/>
<polygon fill="#63b8ff" stroke="#63b8ff" points="535.97,-330.66 539.47,-340.66 542.97,-330.66 535.97,-330.66"/>
</a>
</g>
</g>
<!-- Node28&#45;&gt;Node14 -->
<g id="edge42_Node000028_Node000014" class="edge">
<title>Node28&#45;&gt;Node14</title>
<g id="a_edge42_Node000028_Node000014"><a xlink:title=" ">
<path fill="none" stroke="#63b8ff" d="M728.76,-230.98C768.11,-222.48 829.63,-208.75 882.47,-195 885.66,-194.17 888.96,-193.28 892.27,-192.36"/>
<polygon fill="#63b8ff" stroke="#63b8ff" points="893.45,-195.66 902.11,-189.57 891.54,-188.93 893.45,-195.66"/>
</a>
</g>
</g>
<!-- Node29 -->
<g id="Node000029" class="node">
<title>Node29</title>
<g id="a_Node000029"><a xlink:title=" ">
<polygon fill="#e0e0e0" stroke="#999999" points="743.47,-195 633.47,-195 633.47,-165 743.47,-165 743.47,-195"/>
<text text-anchor="start" x="641.47" y="-183" font-family="Helvetica,sans-Serif" font-size="10.00">boost/preprocessor</text>
<text text-anchor="middle" x="688.47" y="-172" font-family="Helvetica,sans-Serif" font-size="10.00">/control/if.hpp</text>
</a>
</g>
</g>
<!-- Node28&#45;&gt;Node29 -->
<g id="edge37_Node000028_Node000029" class="edge">
<title>Node28&#45;&gt;Node29</title>
<g id="a_edge37_Node000028_Node000029"><a xlink:title=" ">
<path fill="none" stroke="#63b8ff" d="M688.47,-230.87C688.47,-224.11 688.47,-214.35 688.47,-205.26"/>
<polygon fill="#63b8ff" stroke="#63b8ff" points="691.97,-205.11 688.47,-195.11 684.97,-205.11 691.97,-205.11"/>
</a>
</g>
</g>
<!-- Node30 -->
<g id="Node000030" class="node">
<title>Node30</title>
<g id="a_Node000030"><a xlink:title=" ">
<polygon fill="#e0e0e0" stroke="#999999" points="872.97,-195 761.97,-195 761.97,-165 872.97,-165 872.97,-195"/>
<text text-anchor="start" x="769.97" y="-183" font-family="Helvetica,sans-Serif" font-size="10.00">boost/preprocessor</text>
<text text-anchor="middle" x="817.47" y="-172" font-family="Helvetica,sans-Serif" font-size="10.00">/seq/for_each_i.hpp</text>
</a>
</g>
</g>
<!-- Node28&#45;&gt;Node30 -->
<g id="edge38_Node000028_Node000030" class="edge">
<title>Node28&#45;&gt;Node30</title>
<g id="a_edge38_Node000028_Node000030"><a xlink:title=" ">
<path fill="none" stroke="#63b8ff" d="M707.22,-230.99C725.4,-222.75 753.57,-209.98 776.88,-199.4"/>
<polygon fill="#63b8ff" stroke="#63b8ff" points="778.54,-202.5 786.2,-195.18 775.65,-196.12 778.54,-202.5"/>
</a>
</g>
</g>
<!-- Node31 -->
<g id="Node000031" class="node">
<title>Node31</title>
<g id="a_Node000031"><a xlink:title=" ">
<polygon fill="#e0e0e0" stroke="#999999" points="327.47,-195 217.47,-195 217.47,-165 327.47,-165 327.47,-195"/>
<text text-anchor="start" x="225.47" y="-183" font-family="Helvetica,sans-Serif" font-size="10.00">boost/preprocessor</text>
<text text-anchor="middle" x="272.47" y="-172" font-family="Helvetica,sans-Serif" font-size="10.00">/stringize.hpp</text>
</a>
</g>
</g>
<!-- Node28&#45;&gt;Node31 -->
<g id="edge39_Node000028_Node000031" class="edge">
<title>Node28&#45;&gt;Node31</title>
<g id="a_edge39_Node000028_Node000031"><a xlink:title=" ">
<path fill="none" stroke="#63b8ff" d="M609.88,-231.6C540.65,-224.18 436.9,-211.92 337.48,-195.08"/>
<polygon fill="#63b8ff" stroke="#63b8ff" points="338.01,-191.62 327.56,-193.38 336.83,-198.52 338.01,-191.62"/>
</a>
</g>
</g>
<!-- Node32 -->
<g id="Node000032" class="node">
<title>Node32</title>
<g id="a_Node000032"><a xlink:title=" ">
<polygon fill="#e0e0e0" stroke="#999999" points="460.97,-195 345.97,-195 345.97,-165 460.97,-165 460.97,-195"/>
<text text-anchor="start" x="353.97" y="-183" font-family="Helvetica,sans-Serif" font-size="10.00">boost/preprocessor</text>
<text text-anchor="middle" x="403.47" y="-172" font-family="Helvetica,sans-Serif" font-size="10.00">/variadic/to_seq.hpp</text>
</a>
</g>
</g>
<!-- Node28&#45;&gt;Node32 -->
<g id="edge40_Node000028_Node000032" class="edge">
<title>Node28&#45;&gt;Node32</title>
<g id="a_edge40_Node000028_Node000032"><a xlink:title=" ">
<path fill="none" stroke="#63b8ff" d="M646.25,-230.94C604.39,-222.44 538.14,-208.96 471.1,-195.13"/>
<polygon fill="#63b8ff" stroke="#63b8ff" points="471.71,-191.68 461.21,-193.08 470.29,-198.53 471.71,-191.68"/>
</a>
</g>
</g>
<!-- Node33 -->
<g id="Node000033" class="node">
<title>Node33</title>
<g id="a_Node000033"><a xlink:title=" ">
<polygon fill="#e0e0e0" stroke="#999999" points="615.47,-189.5 479.47,-189.5 479.47,-170.5 615.47,-170.5 615.47,-189.5"/>
<text text-anchor="middle" x="547.47" y="-177.5" font-family="Helvetica,sans-Serif" font-size="10.00">boost/vmd/is_empty.hpp</text>
</a>
</g>
</g>
<!-- Node28&#45;&gt;Node33 -->
<g id="edge41_Node000028_Node000033" class="edge">
<title>Node28&#45;&gt;Node33</title>
<g id="a_edge41_Node000028_Node000033"><a xlink:title=" ">
<path fill="none" stroke="#63b8ff" d="M667.96,-230.99C644.15,-221.12 604.67,-204.73 577.43,-193.43"/>
<polygon fill="#63b8ff" stroke="#63b8ff" points="578.57,-190.12 567.99,-189.52 575.89,-196.58 578.57,-190.12"/>
</a>
</g>
</g>
<!-- Node34&#45;&gt;Node2 -->
<g id="edge44_Node000034_Node000002" class="edge">
<title>Node34&#45;&gt;Node2</title>
<g id="a_edge44_Node000034_Node000002"><a xlink:title=" ">
<path fill="none" stroke="#63b8ff" d="M1193.51,-404.11C1268.2,-400.19 1388.47,-380.79 1388.47,-296.5 1388.47,-296.5 1388.47,-296.5 1388.47,-118.5 1388.47,-59.37 949.75,-23.59 806.27,-13.48"/>
<polygon fill="#63b8ff" stroke="#63b8ff" points="806.29,-9.97 796.07,-12.76 805.8,-16.95 806.29,-9.97"/>
</a>
</g>
</g>
<!-- Node34&#45;&gt;Node7 -->
<g id="edge48_Node000034_Node000007" class="edge">
<title>Node34&#45;&gt;Node7</title>
<g id="a_edge48_Node000034_Node000007"><a xlink:title=" ">
<path fill="none" stroke="#63b8ff" d="M1077.23,-399.32C965.35,-389.37 721.1,-367.65 604.25,-357.26"/>
<polygon fill="#63b8ff" stroke="#63b8ff" points="604.3,-353.75 594.03,-356.35 603.68,-360.72 604.3,-353.75"/>
</a>
</g>
</g>
<!-- Node35 -->
<g id="Node000035" class="node">
<title>Node35</title>
<g id="a_Node000035"><a xlink:title=" ">
<polygon fill="#e0e0e0" stroke="#999999" points="1331.97,-360 1202.97,-360 1202.97,-341 1331.97,-341 1331.97,-360"/>
<text text-anchor="middle" x="1267.47" y="-348" font-family="Helvetica,sans-Serif" font-size="10.00">boost/range/irange.hpp</text>
</a>
</g>
</g>
<!-- Node34&#45;&gt;Node35 -->
<g id="edge45_Node000034_Node000035" class="edge">
<title>Node34&#45;&gt;Node35</title>
<g id="a_edge45_Node000034_Node000035"><a xlink:title=" ">
<path fill="none" stroke="#63b8ff" d="M1156.67,-395.98C1178.2,-387.34 1211.75,-373.87 1236.29,-364.02"/>
<polygon fill="#63b8ff" stroke="#63b8ff" points="1237.9,-367.14 1245.87,-360.17 1235.29,-360.65 1237.9,-367.14"/>
</a>
</g>
</g>
<!-- Node36 -->
<g id="Node000036" class="node">
<title>Node36</title>
<g id="a_Node000036"><a xlink:href="com_2SharedPointer_8hpp.html" target="_top" xlink:title=" ">
<polygon fill="white" stroke="#666666" points="972.97,-360 843.97,-360 843.97,-341 972.97,-341 972.97,-360"/>
<text text-anchor="middle" x="908.47" y="-348" font-family="Helvetica,sans-Serif" font-size="10.00">com/SharedPointer.hpp</text>
</a>
</g>
</g>
<!-- Node34&#45;&gt;Node36 -->
<g id="edge46_Node000034_Node000036" class="edge">
<title>Node34&#45;&gt;Node36</title>
<g id="a_edge46_Node000034_Node000036"><a xlink:title=" ">
<path fill="none" stroke="#63b8ff" d="M1098.99,-395.98C1059.89,-386.86 997.7,-372.33 955.08,-362.38"/>
<polygon fill="#63b8ff" stroke="#63b8ff" points="955.76,-358.95 945.22,-360.08 954.17,-365.76 955.76,-358.95"/>
</a>
</g>
</g>
<!-- Node37 -->
<g id="Node000037" class="node">
<title>Node37</title>
<g id="a_Node000037"><a xlink:href="impl_2Types_8hpp.html" target="_top" xlink:title=" ">
<polygon fill="white" stroke="#666666" points="1544.47,-360 1416.47,-360 1416.47,-341 1544.47,-341 1544.47,-360"/>
<text text-anchor="middle" x="1480.47" y="-348" font-family="Helvetica,sans-Serif" font-size="10.00">precice/impl/Types.hpp</text>
</a>
</g>
</g>
<!-- Node34&#45;&gt;Node37 -->
<g id="edge49_Node000034_Node000037" class="edge">
<title>Node34&#45;&gt;Node37</title>
<g id="a_edge49_Node000034_Node000037"><a xlink:title=" ">
<path fill="none" stroke="#63b8ff" d="M1190.9,-395.98C1251.92,-386.61 1349.94,-371.55 1414.78,-361.59"/>
<polygon fill="#63b8ff" stroke="#63b8ff" points="1415.53,-365.02 1424.89,-360.04 1414.47,-358.1 1415.53,-365.02"/>
</a>
</g>
</g>
<!-- Node39 -->
<g id="Node000039" class="node">
<title>Node39</title>
<g id="a_Node000039"><a xlink:href="span_8hpp.html" target="_top" xlink:title=" ">
<polygon fill="white" stroke="#666666" points="1184.97,-360 1085.97,-360 1085.97,-341 1184.97,-341 1184.97,-360"/>
<text text-anchor="middle" x="1135.47" y="-348" font-family="Helvetica,sans-Serif" font-size="10.00">precice/span.hpp</text>
</a>
</g>
</g>
<!-- Node34&#45;&gt;Node39 -->
<g id="edge51_Node000034_Node000039" class="edge">
<title>Node34&#45;&gt;Node39</title>
<g id="a_edge51_Node000034_Node000039"><a xlink:title=" ">
<path fill="none" stroke="#63b8ff" d="M1135.47,-395.75C1135.47,-388.8 1135.47,-378.85 1135.47,-370.13"/>
<polygon fill="#63b8ff" stroke="#63b8ff" points="1138.97,-370.09 1135.47,-360.09 1131.97,-370.09 1138.97,-370.09"/>
</a>
</g>
</g>
<!-- Node36&#45;&gt;Node8 -->
<g id="edge47_Node000036_Node000008" class="edge">
<title>Node36&#45;&gt;Node8</title>
<g id="a_edge47_Node000036_Node000008"><a xlink:title=" ">
<path fill="none" stroke="#63b8ff" d="M888.86,-340.98C869.15,-332.42 838.51,-319.11 815.88,-309.28"/>
<polygon fill="#63b8ff" stroke="#63b8ff" points="816.99,-305.94 806.42,-305.17 814.2,-312.37 816.99,-305.94"/>
</a>
</g>
</g>
<!-- Node38 -->
<g id="Node000038" class="node">
<title>Node38</title>
<g id="a_Node000038"><a xlink:href="Types_8hpp.html" target="_top" xlink:title=" ">
<polygon fill="white" stroke="#666666" points="1532.47,-305 1428.47,-305 1428.47,-286 1532.47,-286 1532.47,-305"/>
<text text-anchor="middle" x="1480.47" y="-293" font-family="Helvetica,sans-Serif" font-size="10.00">precice/Types.hpp</text>
</a>
</g>
</g>
<!-- Node37&#45;&gt;Node38 -->
<g id="edge50_Node000037_Node000038" class="edge">
<title>Node37&#45;&gt;Node38</title>
<g id="a_edge50_Node000037_Node000038"><a xlink:title=" ">
<path fill="none" stroke="#63b8ff" d="M1480.47,-340.75C1480.47,-333.8 1480.47,-323.85 1480.47,-315.13"/>
<polygon fill="#63b8ff" stroke="#63b8ff" points="1483.97,-315.09 1480.47,-305.09 1476.97,-315.09 1483.97,-315.09"/>
</a>
</g>
</g>
<!-- Node39&#45;&gt;Node22 -->
<g id="edge52_Node000039_Node000022" class="edge">
<title>Node39&#45;&gt;Node22</title>
<g id="a_edge52_Node000039_Node000022"><a xlink:title=" ">
<path fill="none" stroke="#63b8ff" d="M1116.09,-340.81C1092.61,-329.06 1058.09,-307.16 1074.47,-286 1113.53,-235.53 1174.41,-300.47 1213.47,-250 1254.69,-196.74 1191.99,-116 1161.06,-81.76"/>
<polygon fill="#63b8ff" stroke="#63b8ff" points="1163.33,-79.06 1153.97,-74.1 1158.2,-83.82 1163.33,-79.06"/>
</a>
</g>
</g>
<!-- Node40 -->
<g id="Node000040" class="node">
<title>Node40</title>
<g id="a_Node000040"><a target="_parent" xlink:href="http://en.cppreference.com/w/cpp/header/cstddef.html" xlink:title=" ">
<polygon fill="white" stroke="#666666" points="1359.97,-305 1306.97,-305 1306.97,-286 1359.97,-286 1359.97,-305"/>
<text text-anchor="middle" x="1333.47" y="-293" font-family="Helvetica,sans-Serif" font-size="10.00">cstddef</text>
</a>
</g>
</g>
<!-- Node39&#45;&gt;Node40 -->
<g id="edge53_Node000039_Node000040" class="edge">
<title>Node39&#45;&gt;Node40</title>
<g id="a_edge53_Node000039_Node000040"><a xlink:title=" ">
<path fill="none" stroke="#63b8ff" d="M1167.28,-340.98C1202.65,-331.52 1259.69,-316.25 1296.88,-306.29"/>
<polygon fill="#63b8ff" stroke="#63b8ff" points="1298.06,-309.6 1306.81,-303.63 1296.25,-302.84 1298.06,-309.6"/>
</a>
</g>
</g>
<!-- Node41 -->
<g id="Node000041" class="node">
<title>Node41</title>
<g id="a_Node000041"><a target="_parent" xlink:href="http://en.cppreference.com/w/cpp/header/cstdint.html" xlink:title=" ">
<polygon fill="white" stroke="#666666" points="1133.47,-305 1083.47,-305 1083.47,-286 1133.47,-286 1133.47,-305"/>
<text text-anchor="middle" x="1108.47" y="-293" font-family="Helvetica,sans-Serif" font-size="10.00">cstdint</text>
</a>
</g>
</g>
<!-- Node39&#45;&gt;Node41 -->
<g id="edge54_Node000039_Node000041" class="edge">
<title>Node39&#45;&gt;Node41</title>
<g id="a_edge54_Node000039_Node000041"><a xlink:title=" ">
<path fill="none" stroke="#63b8ff" d="M1131.01,-340.75C1127.35,-333.57 1122.06,-323.18 1117.52,-314.27"/>
<polygon fill="#63b8ff" stroke="#63b8ff" points="1120.5,-312.41 1112.84,-305.09 1114.26,-315.59 1120.5,-312.41"/>
</a>
</g>
</g>
<!-- Node42 -->
<g id="Node000042" class="node">
<title>Node42</title>
<g id="a_Node000042"><a target="_parent" xlink:href="http://en.cppreference.com/w/cpp/header/cstring.html" xlink:title=" ">
<polygon fill="white" stroke="#666666" points="1201.47,-305 1151.47,-305 1151.47,-286 1201.47,-286 1201.47,-305"/>
<text text-anchor="middle" x="1176.47" y="-293" font-family="Helvetica,sans-Serif" font-size="10.00">cstring</text>
</a>
</g>
</g>
<!-- Node39&#45;&gt;Node42 -->
<g id="edge55_Node000039_Node000042" class="edge">
<title>Node39&#45;&gt;Node42</title>
<g id="a_edge55_Node000039_Node000042"><a xlink:title=" ">
<path fill="none" stroke="#63b8ff" d="M1142.24,-340.75C1148.03,-333.26 1156.52,-322.28 1163.6,-313.13"/>
<polygon fill="#63b8ff" stroke="#63b8ff" points="1166.47,-315.14 1169.82,-305.09 1160.93,-310.86 1166.47,-315.14"/>
</a>
</g>
</g>
<!-- Node43 -->
<g id="Node000043" class="node">
<title>Node43</title>
<g id="a_Node000043"><a target="_parent" xlink:href="http://en.cppreference.com/w/cpp/header/type_traits.html" xlink:title=" ">
<polygon fill="white" stroke="#666666" points="1288.97,-305 1219.97,-305 1219.97,-286 1288.97,-286 1288.97,-305"/>
<text text-anchor="middle" x="1254.47" y="-293" font-family="Helvetica,sans-Serif" font-size="10.00">type_traits</text>
</a>
</g>
</g>
<!-- Node39&#45;&gt;Node43 -->
<g id="edge56_Node000039_Node000043" class="edge">
<title>Node39&#45;&gt;Node43</title>
<g id="a_edge56_Node000039_Node000043"><a xlink:title=" ">
<path fill="none" stroke="#63b8ff" d="M1154.59,-340.98C1173.81,-332.42 1203.7,-319.11 1225.77,-309.28"/>
<polygon fill="#63b8ff" stroke="#63b8ff" points="1227.29,-312.44 1235,-305.17 1224.44,-306.04 1227.29,-312.44"/>
</a>
</g>
</g>
</g>
</svg>
