<?xml version="1.0" encoding="UTF-8" standalone="no"?>
<!DOCTYPE svg PUBLIC "-//W3C//DTD SVG 1.1//EN"
 "http://www.w3.org/Graphics/SVG/1.1/DTD/svg11.dtd">
<!-- Generated by graphviz version 2.43.0 (0)
 -->
<!-- Title: src/acceleration/Acceleration.hpp Pages: 1 -->
<!--zoomable 307 -->
<svg id="main" version="1.1" xmlns="http://www.w3.org/2000/svg" xmlns:xlink="http://www.w3.org/1999/xlink" xml:space="preserve" onload="init(evt)">
<style type="text/css"><![CDATA[
.edge:hover path { stroke: red; }
.edge:hover polygon { stroke: red; fill: red; }
]]></style>
<script type="text/javascript"><![CDATA[
var edges = document.getElementsByTagName('g');
if (edges && edges.length) {
  for (var i=0;i<edges.length;i++) {
    if (edges[i].id.substr(0,4)=='edge') {
      edges[i].setAttribute('class','edge');
    }
  }
}
]]></script>
        <defs>
                <circle id="rim" cx="0" cy="0" r="7"/>
                <circle id="rim2" cx="0" cy="0" r="3.5"/>
                <g id="zoomPlus">
                        <use xlink:href="#rim" fill="#404040">
                                <set attributeName="fill" to="#808080" begin="zoomplus.mouseover" end="zoomplus.mouseout"/>
                        </use>
                        <path d="M-4,0h8M0,-4v8" fill="none" stroke="white" stroke-width="1.5" pointer-events="none"/>
                </g>
                <g id="zoomMin">
                        <use xlink:href="#rim" fill="#404040">
                                <set attributeName="fill" to="#808080" begin="zoomminus.mouseover" end="zoomminus.mouseout"/>
                        </use>
                        <path d="M-4,0h8" fill="none" stroke="white" stroke-width="1.5" pointer-events="none"/>
                </g>
                <g id="dirArrow">
                        <path fill="none" stroke="white" stroke-width="1.5" d="M0,-3.0v7 M-2.5,-0.5L0,-3.0L2.5,-0.5"/>
                </g>
               <g id="resetDef">
                       <use xlink:href="#rim2" fill="#404040">
                               <set attributeName="fill" to="#808080" begin="reset.mouseover" end="reset.mouseout"/>
                       </use>
               </g>
        </defs>

<script type="text/javascript">
var viewWidth = 2321;
var viewHeight = 307;
var sectionId = 'dynsection-1';
</script>
<script xlink:href="svgpan.js"/>
<svg id="graph" class="graph">
<g id="viewport">
<title>src/acceleration/Acceleration.hpp</title>
<polygon fill="white" stroke="transparent" points="-4,4 -4,-303 2316.5,-303 2316.5,4 -4,4"/>
<!-- Node1 -->
<g id="node1" class="node">
<title>Node1</title>
<g id="a_node1"><a xlink:title=" ">
<polygon fill="#bfbfbf" stroke="black" points="1238,-279.5 1238,-298.5 1417,-298.5 1417,-279.5 1238,-279.5"/>
<text text-anchor="middle" x="1327.5" y="-286.5" font-family="Helvetica,sans-Serif" font-size="10.00">src/acceleration/Acceleration.hpp</text>
</a>
</g>
</g>
<!-- Node2 -->
<g id="node2" class="node">
<title>Node2</title>
<g id="a_node2"><a xlink:href="Acceleration_8cpp.html" target="_top" xlink:title=" ">
<polygon fill="white" stroke="black" points="158.5,-218 158.5,-237 336.5,-237 336.5,-218 158.5,-218"/>
<text text-anchor="middle" x="247.5" y="-225" font-family="Helvetica,sans-Serif" font-size="10.00">src/acceleration/Acceleration.cpp</text>
</a>
</g>
</g>
<!-- Node1&#45;&gt;Node2 -->
<g id="edge1" class="edge">
<title>Node1&#45;&gt;Node2</title>
<path fill="none" stroke="midnightblue" d="M1227.65,-286.49C1050.6,-283.13 670.17,-272.8 350.5,-243 334.41,-241.5 316.98,-239.28 301.11,-237.02"/>
<polygon fill="midnightblue" stroke="midnightblue" points="1227.67,-289.99 1237.73,-286.68 1227.8,-282.99 1227.67,-289.99"/>
</g>
<!-- Node3 -->
<g id="node3" class="node">
<title>Node3</title>
<g id="a_node3"><a xlink:href="AitkenAcceleration_8hpp.html" target="_top" xlink:title=" ">
<polygon fill="white" stroke="black" points="165,-84 165,-103 374,-103 374,-84 165,-84"/>
<text text-anchor="middle" x="269.5" y="-91" font-family="Helvetica,sans-Serif" font-size="10.00">src/acceleration/AitkenAcceleration.hpp</text>
</a>
</g>
</g>
<!-- Node1&#45;&gt;Node3 -->
<g id="edge2" class="edge">
<title>Node1&#45;&gt;Node3</title>
<path fill="none" stroke="midnightblue" d="M1227.58,-287.83C1000.92,-286.78 461.71,-280.33 388.5,-243 326.1,-211.18 285.44,-130.22 273.31,-103.33"/>
<polygon fill="midnightblue" stroke="midnightblue" points="1227.79,-291.33 1237.81,-287.87 1227.83,-284.33 1227.79,-291.33"/>
</g>
<!-- Node5 -->
<g id="node5" class="node">
<title>Node5</title>
<g id="a_node5"><a xlink:href="AccelerationConfiguration_8cpp.html" target="_top" xlink:title=" ">
<polygon fill="white" stroke="black" points="783.5,-6 783.5,-36 949.5,-36 949.5,-6 783.5,-6"/>
<text text-anchor="start" x="791.5" y="-24" font-family="Helvetica,sans-Serif" font-size="10.00">src/acceleration/config</text>
<text text-anchor="middle" x="866.5" y="-13" font-family="Helvetica,sans-Serif" font-size="10.00">/AccelerationConfiguration.cpp</text>
</a>
</g>
</g>
<!-- Node1&#45;&gt;Node5 -->
<g id="edge31" class="edge">
<title>Node1&#45;&gt;Node5</title>
<path fill="none" stroke="midnightblue" d="M1227.7,-285.14C1091.24,-280.34 853.96,-268.55 771.5,-243 714.26,-225.27 693.28,-221.68 654.5,-176 625.41,-141.73 601.61,-113.25 629.5,-78 632.25,-74.52 733.46,-51.49 802.72,-36.07"/>
<polygon fill="midnightblue" stroke="midnightblue" points="1227.63,-288.64 1237.75,-285.49 1227.88,-281.64 1227.63,-288.64"/>
</g>
<!-- Node6 -->
<g id="node6" class="node">
<title>Node6</title>
<g id="a_node6"><a xlink:href="CouplingSchemeConfiguration_8cpp.html" target="_top" xlink:title=" ">
<polygon fill="white" stroke="black" points="227,-6 227,-36 414,-36 414,-6 227,-6"/>
<text text-anchor="start" x="235" y="-24" font-family="Helvetica,sans-Serif" font-size="10.00">src/cplscheme/config</text>
<text text-anchor="middle" x="320.5" y="-13" font-family="Helvetica,sans-Serif" font-size="10.00">/CouplingSchemeConfiguration.cpp</text>
</a>
</g>
</g>
<!-- Node1&#45;&gt;Node6 -->
<g id="edge44" class="edge">
<title>Node1&#45;&gt;Node6</title>
<path fill="none" stroke="midnightblue" d="M1227.56,-285.94C1033.28,-281.38 618.4,-268.74 558.5,-243 459.99,-200.67 461.4,-150.6 382.5,-78 366.92,-63.66 348.94,-47.46 336.37,-36.19"/>
<polygon fill="midnightblue" stroke="midnightblue" points="1227.69,-289.44 1237.77,-286.17 1227.85,-282.44 1227.69,-289.44"/>
</g>
<!-- Node7 -->
<g id="node7" class="node">
<title>Node7</title>
<g id="a_node7"><a xlink:href="BaseQNAcceleration_8hpp.html" target="_top" xlink:title=" ">
<polygon fill="white" stroke="black" points="1218.5,-218 1218.5,-237 1436.5,-237 1436.5,-218 1218.5,-218"/>
<text text-anchor="middle" x="1327.5" y="-225" font-family="Helvetica,sans-Serif" font-size="10.00">src/acceleration/BaseQNAcceleration.hpp</text>
</a>
</g>
</g>
<!-- Node1&#45;&gt;Node7 -->
<g id="edge6" class="edge">
<title>Node1&#45;&gt;Node7</title>
<path fill="none" stroke="midnightblue" d="M1327.5,-269.32C1327.5,-258.5 1327.5,-245.4 1327.5,-237.01"/>
<polygon fill="midnightblue" stroke="midnightblue" points="1324,-269.48 1327.5,-279.48 1331,-269.48 1324,-269.48"/>
</g>
<!-- Node9 -->
<g id="node9" class="node">
<title>Node9</title>
<g id="a_node9"><a xlink:href="BroydenAcceleration_8hpp.html" target="_top" xlink:title=" ">
<polygon fill="white" stroke="black" points="664,-145.5 664,-175.5 801,-175.5 801,-145.5 664,-145.5"/>
<text text-anchor="start" x="672" y="-163.5" font-family="Helvetica,sans-Serif" font-size="10.00">src/acceleration/Broyden</text>
<text text-anchor="middle" x="732.5" y="-152.5" font-family="Helvetica,sans-Serif" font-size="10.00">Acceleration.hpp</text>
</a>
</g>
</g>
<!-- Node1&#45;&gt;Node9 -->
<g id="edge30" class="edge">
<title>Node1&#45;&gt;Node9</title>
<path fill="none" stroke="midnightblue" d="M1227.75,-287.16C1099.95,-284.73 886.46,-275.71 815.5,-243 783.04,-228.03 755.79,-194.8 742.06,-175.72"/>
<polygon fill="midnightblue" stroke="midnightblue" points="1227.88,-290.66 1237.94,-287.34 1228,-283.66 1227.88,-290.66"/>
</g>
<!-- Node11 -->
<g id="node11" class="node">
<title>Node11</title>
<g id="a_node11"><a xlink:href="IQNILSAcceleration_8hpp.html" target="_top" xlink:title=" ">
<polygon fill="white" stroke="black" points="1588.5,-151 1588.5,-170 1800.5,-170 1800.5,-151 1588.5,-151"/>
<text text-anchor="middle" x="1694.5" y="-158" font-family="Helvetica,sans-Serif" font-size="10.00">src/acceleration/IQNILSAcceleration.hpp</text>
</a>
</g>
</g>
<!-- Node1&#45;&gt;Node11 -->
<g id="edge38" class="edge">
<title>Node1&#45;&gt;Node11</title>
<path fill="none" stroke="midnightblue" d="M1427.18,-279.41C1473.28,-273.05 1527.99,-262.03 1574.5,-243 1580.41,-240.58 1652.4,-190.75 1681.96,-170.22"/>
<polygon fill="midnightblue" stroke="midnightblue" points="1426.63,-275.95 1417.18,-280.74 1427.55,-282.89 1426.63,-275.95"/>
</g>
<!-- Node13 -->
<g id="node13" class="node">
<title>Node13</title>
<g id="a_node13"><a xlink:href="AccelerationIntraCommTest_8cpp.html" target="_top" xlink:title=" ">
<polygon fill="white" stroke="black" points="1359,-78.5 1359,-108.5 1534,-108.5 1534,-78.5 1359,-78.5"/>
<text text-anchor="start" x="1367" y="-96.5" font-family="Helvetica,sans-Serif" font-size="10.00">src/acceleration/test</text>
<text text-anchor="middle" x="1446.5" y="-85.5" font-family="Helvetica,sans-Serif" font-size="10.00">/AccelerationIntraCommTest.cpp</text>
</a>
</g>
</g>
<!-- Node1&#45;&gt;Node13 -->
<g id="edge40" class="edge">
<title>Node1&#45;&gt;Node13</title>
<path fill="none" stroke="midnightblue" d="M1389.32,-277.08C1442.69,-263.77 1515.22,-235.24 1541.5,-176 1547.09,-163.41 1548.6,-156.81 1541.5,-145 1531.3,-128.03 1513.26,-116.45 1495.62,-108.72"/>
<polygon fill="midnightblue" stroke="midnightblue" points="1388.17,-273.76 1379.25,-279.47 1389.79,-280.57 1388.17,-273.76"/>
</g>
<!-- Node14 -->
<g id="node14" class="node">
<title>Node14</title>
<g id="a_node14"><a xlink:href="AccelerationSerialTest_8cpp.html" target="_top" xlink:title=" ">
<polygon fill="white" stroke="black" points="1256.5,-6 1256.5,-36 1404.5,-36 1404.5,-6 1256.5,-6"/>
<text text-anchor="start" x="1264.5" y="-24" font-family="Helvetica,sans-Serif" font-size="10.00">src/acceleration/test</text>
<text text-anchor="middle" x="1330.5" y="-13" font-family="Helvetica,sans-Serif" font-size="10.00">/AccelerationSerialTest.cpp</text>
</a>
</g>
</g>
<!-- Node1&#45;&gt;Node14 -->
<g id="edge41" class="edge">
<title>Node1&#45;&gt;Node14</title>
<path fill="none" stroke="midnightblue" d="M1427.31,-282.74C1482.81,-277.22 1552.22,-265.96 1610.5,-243 1633.44,-233.96 1633.91,-221.87 1656.5,-212 1720.51,-184.02 1759,-224.27 1809.5,-176 1841.57,-145.35 1858.07,-111.08 1828.5,-78 1800.78,-46.99 1536.54,-31.06 1404.64,-24.98"/>
<polygon fill="midnightblue" stroke="midnightblue" points="1426.75,-279.28 1417.12,-283.7 1427.4,-286.25 1426.75,-279.28"/>
</g>
<!-- Node15 -->
<g id="node15" class="node">
<title>Node15</title>
<g id="a_node15"><a xlink:href="MVQNAcceleration_8hpp.html" target="_top" xlink:title=" ">
<polygon fill="white" stroke="black" points="858,-151 858,-170 1067,-170 1067,-151 858,-151"/>
<text text-anchor="middle" x="962.5" y="-158" font-family="Helvetica,sans-Serif" font-size="10.00">src/acceleration/MVQNAcceleration.hpp</text>
</a>
</g>
</g>
<!-- Node1&#45;&gt;Node15 -->
<g id="edge39" class="edge">
<title>Node1&#45;&gt;Node15</title>
<path fill="none" stroke="midnightblue" d="M1293.05,-276.06C1219.98,-250.74 1050.97,-192.16 987.34,-170.11"/>
<polygon fill="midnightblue" stroke="midnightblue" points="1292.1,-279.44 1302.7,-279.4 1294.4,-272.82 1292.1,-279.44"/>
</g>
<!-- Node16 -->
<g id="node16" class="node">
<title>Node16</title>
<g id="a_node16"><a xlink:href="AccelerationConfiguration_8hpp.html" target="_top" xlink:title=" ">
<polygon fill="white" stroke="black" points="832,-78.5 832,-108.5 999,-108.5 999,-78.5 832,-78.5"/>
<text text-anchor="start" x="840" y="-96.5" font-family="Helvetica,sans-Serif" font-size="10.00">src/acceleration/config</text>
<text text-anchor="middle" x="915.5" y="-85.5" font-family="Helvetica,sans-Serif" font-size="10.00">/AccelerationConfiguration.hpp</text>
</a>
</g>
</g>
<!-- Node1&#45;&gt;Node16 -->
<g id="edge32" class="edge">
<title>Node1&#45;&gt;Node16</title>
<path fill="none" stroke="midnightblue" d="M1227.75,-279.2C1101.33,-265.72 894.28,-235.07 848.5,-176 829.87,-151.97 863.58,-124.83 889.57,-108.73"/>
<polygon fill="midnightblue" stroke="midnightblue" points="1227.53,-282.7 1237.84,-280.26 1228.26,-275.73 1227.53,-282.7"/>
</g>
<!-- Node20 -->
<g id="node20" class="node">
<title>Node20</title>
<g id="a_node20"><a xlink:href="QRFactorizationTest_8cpp.html" target="_top" xlink:title=" ">
<polygon fill="white" stroke="black" points="1396.5,-145.5 1396.5,-175.5 1532.5,-175.5 1532.5,-145.5 1396.5,-145.5"/>
<text text-anchor="start" x="1404.5" y="-163.5" font-family="Helvetica,sans-Serif" font-size="10.00">src/acceleration/test</text>
<text text-anchor="middle" x="1464.5" y="-152.5" font-family="Helvetica,sans-Serif" font-size="10.00">/QRFactorizationTest.cpp</text>
</a>
</g>
</g>
<!-- Node1&#45;&gt;Node20 -->
<g id="edge42" class="edge">
<title>Node1&#45;&gt;Node20</title>
<path fill="none" stroke="midnightblue" d="M1389.66,-276.58C1410.04,-269.93 1431.12,-259.47 1445.5,-243 1462.03,-224.07 1464.9,-193.5 1465.02,-175.68"/>
<polygon fill="midnightblue" stroke="midnightblue" points="1388.64,-273.23 1380.06,-279.45 1390.65,-279.93 1388.64,-273.23"/>
</g>
<!-- Node21 -->
<g id="node21" class="node">
<title>Node21</title>
<g id="a_node21"><a xlink:href="ConstantRelaxationAcceleration_8hpp.html" target="_top" xlink:title=" ">
<polygon fill="white" stroke="black" points="431,-78.5 431,-108.5 582,-108.5 582,-78.5 431,-78.5"/>
<text text-anchor="start" x="439" y="-96.5" font-family="Helvetica,sans-Serif" font-size="10.00">src/acceleration/Constant</text>
<text text-anchor="middle" x="506.5" y="-85.5" font-family="Helvetica,sans-Serif" font-size="10.00">RelaxationAcceleration.hpp</text>
</a>
</g>
</g>
<!-- Node1&#45;&gt;Node21 -->
<g id="edge33" class="edge">
<title>Node1&#45;&gt;Node21</title>
<path fill="none" stroke="midnightblue" d="M1227.66,-286.96C1040.1,-284.25 649.16,-274.83 596.5,-243 545.16,-211.97 519.25,-139.45 510.26,-108.69"/>
<polygon fill="midnightblue" stroke="midnightblue" points="1227.75,-290.46 1237.8,-287.1 1227.85,-283.46 1227.75,-290.46"/>
</g>
<!-- Node23 -->
<g id="node23" class="node">
<title>Node23</title>
<g id="a_node23"><a xlink:href="QRFactorization_8cpp.html" target="_top" xlink:title=" ">
<polygon fill="white" stroke="black" points="1665,-212.5 1665,-242.5 1784,-242.5 1784,-212.5 1665,-212.5"/>
<text text-anchor="start" x="1673" y="-230.5" font-family="Helvetica,sans-Serif" font-size="10.00">src/acceleration/impl</text>
<text text-anchor="middle" x="1724.5" y="-219.5" font-family="Helvetica,sans-Serif" font-size="10.00">/QRFactorization.cpp</text>
</a>
</g>
</g>
<!-- Node1&#45;&gt;Node23 -->
<g id="edge37" class="edge">
<title>Node1&#45;&gt;Node23</title>
<path fill="none" stroke="midnightblue" d="M1406.91,-278.18C1472.41,-269.78 1567.68,-256.87 1650.5,-243 1655.15,-242.22 1659.95,-241.38 1664.78,-240.5"/>
<polygon fill="midnightblue" stroke="midnightblue" points="1406.14,-274.75 1396.66,-279.48 1407.03,-281.69 1406.14,-274.75"/>
</g>
<!-- Node24 -->
<g id="node24" class="node">
<title>Node24</title>
<g id="a_node24"><a xlink:href="BaseCouplingScheme_8cpp.html" target="_top" xlink:title=" ">
<polygon fill="white" stroke="black" points="1802.5,-212.5 1802.5,-242.5 1958.5,-242.5 1958.5,-212.5 1802.5,-212.5"/>
<text text-anchor="start" x="1810.5" y="-230.5" font-family="Helvetica,sans-Serif" font-size="10.00">src/cplscheme/BaseCoupling</text>
<text text-anchor="middle" x="1880.5" y="-219.5" font-family="Helvetica,sans-Serif" font-size="10.00">Scheme.cpp</text>
</a>
</g>
</g>
<!-- Node1&#45;&gt;Node24 -->
<g id="edge43" class="edge">
<title>Node1&#45;&gt;Node24</title>
<path fill="none" stroke="midnightblue" d="M1427.17,-280.38C1521.67,-272.67 1667.54,-259.56 1793.5,-243 1796.38,-242.62 1799.32,-242.22 1802.28,-241.8"/>
<polygon fill="midnightblue" stroke="midnightblue" points="1426.73,-276.9 1417.04,-281.2 1427.29,-283.88 1426.73,-276.9"/>
</g>
<!-- Node25 -->
<g id="node25" class="node">
<title>Node25</title>
<g id="a_node25"><a xlink:href="MultiCouplingScheme_8cpp.html" target="_top" xlink:title=" ">
<polygon fill="white" stroke="black" points="1977,-212.5 1977,-242.5 2134,-242.5 2134,-212.5 1977,-212.5"/>
<text text-anchor="start" x="1985" y="-230.5" font-family="Helvetica,sans-Serif" font-size="10.00">src/cplscheme/MultiCoupling</text>
<text text-anchor="middle" x="2055.5" y="-219.5" font-family="Helvetica,sans-Serif" font-size="10.00">Scheme.cpp</text>
</a>
</g>
</g>
<!-- Node1&#45;&gt;Node25 -->
<g id="edge45" class="edge">
<title>Node1&#45;&gt;Node25</title>
<path fill="none" stroke="midnightblue" d="M1427.07,-283.87C1553.17,-277.99 1776.99,-265.34 1967.5,-243 1970.58,-242.64 1973.71,-242.25 1976.87,-241.83"/>
<polygon fill="midnightblue" stroke="midnightblue" points="1426.88,-280.38 1417.05,-284.34 1427.2,-287.37 1426.88,-280.38"/>
</g>
<!-- Node26 -->
<g id="node26" class="node">
<title>Node26</title>
<g id="a_node26"><a xlink:href="SerialCouplingScheme_8cpp.html" target="_top" xlink:title=" ">
<polygon fill="white" stroke="black" points="2152.5,-212.5 2152.5,-242.5 2312.5,-242.5 2312.5,-212.5 2152.5,-212.5"/>
<text text-anchor="start" x="2160.5" y="-230.5" font-family="Helvetica,sans-Serif" font-size="10.00">src/cplscheme/SerialCoupling</text>
<text text-anchor="middle" x="2232.5" y="-219.5" font-family="Helvetica,sans-Serif" font-size="10.00">Scheme.cpp</text>
</a>
</g>
</g>
<!-- Node1&#45;&gt;Node26 -->
<g id="edge46" class="edge">
<title>Node1&#45;&gt;Node26</title>
<path fill="none" stroke="midnightblue" d="M1427.49,-285.91C1581.62,-281.92 1886.35,-270.96 2143.5,-243 2146.3,-242.7 2149.15,-242.36 2152.02,-242.01"/>
<polygon fill="midnightblue" stroke="midnightblue" points="1427.01,-282.42 1417.11,-286.17 1427.19,-289.42 1427.01,-282.42"/>
</g>
<!-- Node4 -->
<g id="node4" class="node">
<title>Node4</title>
<g id="a_node4"><a xlink:href="AitkenAcceleration_8cpp.html" target="_top" xlink:title=" ">
<polygon fill="white" stroke="black" points="0,-11.5 0,-30.5 209,-30.5 209,-11.5 0,-11.5"/>
<text text-anchor="middle" x="104.5" y="-18.5" font-family="Helvetica,sans-Serif" font-size="10.00">src/acceleration/AitkenAcceleration.cpp</text>
</a>
</g>
</g>
<!-- Node3&#45;&gt;Node4 -->
<g id="edge3" class="edge">
<title>Node3&#45;&gt;Node4</title>
<path fill="none" stroke="midnightblue" d="M240.37,-80.05C207.05,-65.82 153.38,-42.88 124.47,-30.53"/>
<polygon fill="midnightblue" stroke="midnightblue" points="239.03,-83.29 249.6,-84 241.78,-76.85 239.03,-83.29"/>
</g>
<!-- Node3&#45;&gt;Node5 -->
<g id="edge4" class="edge">
<title>Node3&#45;&gt;Node5</title>
<path fill="none" stroke="midnightblue" d="M367.28,-83.01C508.45,-69.27 754.73,-45.13 774.5,-42 784.99,-40.34 796.09,-38.23 806.81,-36.01"/>
<polygon fill="midnightblue" stroke="midnightblue" points="366.92,-79.53 357.31,-83.98 367.6,-86.5 366.92,-79.53"/>
</g>
<!-- Node3&#45;&gt;Node6 -->
<g id="edge5" class="edge">
<title>Node3&#45;&gt;Node6</title>
<path fill="none" stroke="midnightblue" d="M281.77,-75.54C290.5,-63.47 302.1,-47.44 310.32,-36.08"/>
<polygon fill="midnightblue" stroke="midnightblue" points="278.78,-73.7 275.75,-83.86 284.45,-77.8 278.78,-73.7"/>
</g>
<!-- Node8 -->
<g id="node8" class="node">
<title>Node8</title>
<g id="a_node8"><a xlink:href="BaseQNAcceleration_8cpp.html" target="_top" xlink:title=" ">
<polygon fill="white" stroke="black" points="1085,-151 1085,-170 1302,-170 1302,-151 1085,-151"/>
<text text-anchor="middle" x="1193.5" y="-158" font-family="Helvetica,sans-Serif" font-size="10.00">src/acceleration/BaseQNAcceleration.cpp</text>
</a>
</g>
</g>
<!-- Node7&#45;&gt;Node8 -->
<g id="edge7" class="edge">
<title>Node7&#45;&gt;Node8</title>
<path fill="none" stroke="midnightblue" d="M1300.58,-213.44C1274.04,-200.57 1234.23,-181.26 1211.37,-170.17"/>
<polygon fill="midnightblue" stroke="midnightblue" points="1299.18,-216.65 1309.71,-217.87 1302.24,-210.35 1299.18,-216.65"/>
</g>
<!-- Node7&#45;&gt;Node9 -->
<g id="edge8" class="edge">
<title>Node7&#45;&gt;Node9</title>
<path fill="none" stroke="midnightblue" d="M1231.73,-216.95C1134.99,-207.18 981.28,-191.3 848.5,-176 833.18,-174.23 816.73,-172.24 801.17,-170.31"/>
<polygon fill="midnightblue" stroke="midnightblue" points="1231.48,-220.45 1241.78,-217.97 1232.18,-213.48 1231.48,-220.45"/>
</g>
<!-- Node7&#45;&gt;Node11 -->
<g id="edge11" class="edge">
<title>Node7&#45;&gt;Node11</title>
<path fill="none" stroke="midnightblue" d="M1386.13,-216.12C1458.26,-203.34 1579.36,-181.89 1646.33,-170.03"/>
<polygon fill="midnightblue" stroke="midnightblue" points="1385.09,-212.75 1375.86,-217.94 1386.31,-219.64 1385.09,-212.75"/>
</g>
<!-- Node7&#45;&gt;Node13 -->
<g id="edge27" class="edge">
<title>Node7&#45;&gt;Node13</title>
<path fill="none" stroke="midnightblue" d="M1338.35,-209.5C1349.64,-192.39 1368.33,-165.63 1387.5,-145 1399.98,-131.57 1415.85,-118.15 1427.99,-108.53"/>
<polygon fill="midnightblue" stroke="midnightblue" points="1335.39,-207.63 1332.88,-217.92 1341.26,-211.44 1335.39,-207.63"/>
</g>
<!-- Node7&#45;&gt;Node14 -->
<g id="edge28" class="edge">
<title>Node7&#45;&gt;Node14</title>
<path fill="none" stroke="midnightblue" d="M1327.77,-207.91C1328.37,-167.48 1329.76,-72.27 1330.29,-36.2"/>
<polygon fill="midnightblue" stroke="midnightblue" points="1324.27,-207.92 1327.63,-217.97 1331.27,-208.03 1324.27,-207.92"/>
</g>
<!-- Node7&#45;&gt;Node15 -->
<g id="edge16" class="edge">
<title>Node7&#45;&gt;Node15</title>
<path fill="none" stroke="midnightblue" d="M1269.19,-216.12C1197.45,-203.34 1077.01,-181.89 1010.41,-170.03"/>
<polygon fill="midnightblue" stroke="midnightblue" points="1268.95,-219.63 1279.41,-217.94 1270.18,-212.74 1268.95,-219.63"/>
</g>
<!-- Node7&#45;&gt;Node20 -->
<g id="edge29" class="edge">
<title>Node7&#45;&gt;Node20</title>
<path fill="none" stroke="midnightblue" d="M1354.96,-213.47C1378.12,-202.49 1411.19,-186.79 1434.93,-175.53"/>
<polygon fill="midnightblue" stroke="midnightblue" points="1353.23,-210.42 1345.69,-217.87 1356.23,-216.74 1353.23,-210.42"/>
</g>
<!-- Node9&#45;&gt;Node5 -->
<g id="edge10" class="edge">
<title>Node9&#45;&gt;Node5</title>
<path fill="none" stroke="midnightblue" d="M755.03,-138.04C764.25,-129.15 774.98,-118.67 784.5,-109 809.41,-83.72 837.63,-53.39 853.62,-36.04"/>
<polygon fill="midnightblue" stroke="midnightblue" points="752.48,-135.64 747.69,-145.09 757.33,-140.69 752.48,-135.64"/>
</g>
<!-- Node10 -->
<g id="node10" class="node">
<title>Node10</title>
<g id="a_node10"><a xlink:href="BroydenAcceleration_8cpp.html" target="_top" xlink:title=" ">
<polygon fill="white" stroke="black" points="639,-78.5 639,-108.5 776,-108.5 776,-78.5 639,-78.5"/>
<text text-anchor="start" x="647" y="-96.5" font-family="Helvetica,sans-Serif" font-size="10.00">src/acceleration/Broyden</text>
<text text-anchor="middle" x="707.5" y="-85.5" font-family="Helvetica,sans-Serif" font-size="10.00">Acceleration.cpp</text>
</a>
</g>
</g>
<!-- Node9&#45;&gt;Node10 -->
<g id="edge9" class="edge">
<title>Node9&#45;&gt;Node10</title>
<path fill="none" stroke="midnightblue" d="M723.46,-135.99C719.92,-126.8 715.99,-116.58 712.91,-108.58"/>
<polygon fill="midnightblue" stroke="midnightblue" points="720.22,-137.32 727.08,-145.4 726.75,-134.81 720.22,-137.32"/>
</g>
<!-- Node11&#45;&gt;Node5 -->
<g id="edge12" class="edge">
<title>Node11&#45;&gt;Node5</title>
<path fill="none" stroke="midnightblue" d="M1661.32,-147.07C1638.44,-137.9 1607.72,-124.38 1582.5,-109 1563.6,-97.47 1564.17,-85.94 1543.5,-78 1421.91,-31.32 1087.51,-59.89 958.5,-42 947.49,-40.47 935.84,-38.35 924.66,-36.05"/>
<polygon fill="midnightblue" stroke="midnightblue" points="1660.33,-150.44 1670.92,-150.85 1662.89,-143.93 1660.33,-150.44"/>
</g>
<!-- Node12 -->
<g id="node12" class="node">
<title>Node12</title>
<g id="a_node12"><a xlink:href="IQNILSAcceleration_8cpp.html" target="_top" xlink:title=" ">
<polygon fill="white" stroke="black" points="1591,-84 1591,-103 1802,-103 1802,-84 1591,-84"/>
<text text-anchor="middle" x="1696.5" y="-91" font-family="Helvetica,sans-Serif" font-size="10.00">src/acceleration/IQNILSAcceleration.cpp</text>
</a>
</g>
</g>
<!-- Node11&#45;&gt;Node12 -->
<g id="edge13" class="edge">
<title>Node11&#45;&gt;Node12</title>
<path fill="none" stroke="midnightblue" d="M1695.08,-140.54C1695.46,-128.17 1695.94,-112.62 1696.23,-103.13"/>
<polygon fill="midnightblue" stroke="midnightblue" points="1691.58,-140.63 1694.77,-150.73 1698.58,-140.85 1691.58,-140.63"/>
</g>
<!-- Node11&#45;&gt;Node13 -->
<g id="edge14" class="edge">
<title>Node11&#45;&gt;Node13</title>
<path fill="none" stroke="midnightblue" d="M1651.91,-148.34C1609.92,-137.33 1545.6,-120.47 1500.14,-108.56"/>
<polygon fill="midnightblue" stroke="midnightblue" points="1651.26,-151.79 1661.82,-150.94 1653.04,-145.01 1651.26,-151.79"/>
</g>
<!-- Node11&#45;&gt;Node14 -->
<g id="edge15" class="edge">
<title>Node11&#45;&gt;Node14</title>
<path fill="none" stroke="midnightblue" d="M1737.15,-147.96C1780.91,-134.11 1838.97,-108.85 1811.5,-78 1784.95,-48.17 1532.85,-31.77 1404.63,-25.3"/>
<polygon fill="midnightblue" stroke="midnightblue" points="1736.06,-144.64 1727.52,-150.91 1738.1,-151.33 1736.06,-144.64"/>
</g>
<!-- Node15&#45;&gt;Node5 -->
<g id="edge17" class="edge">
<title>Node15&#45;&gt;Node5</title>
<path fill="none" stroke="midnightblue" d="M981.56,-143.95C999.76,-127.18 1022.38,-99.92 1007.5,-78 996.96,-62.47 954.47,-46.88 918.86,-36.11"/>
<polygon fill="midnightblue" stroke="midnightblue" points="978.88,-141.65 973.66,-150.87 983.49,-146.92 978.88,-141.65"/>
</g>
<!-- Node15&#45;&gt;Node13 -->
<g id="edge25" class="edge">
<title>Node15&#45;&gt;Node13</title>
<path fill="none" stroke="midnightblue" d="M1036.29,-149.59C1122.95,-137.95 1266.54,-118.67 1358.8,-106.28"/>
<polygon fill="midnightblue" stroke="midnightblue" points="1035.72,-146.14 1026.27,-150.94 1036.65,-153.07 1035.72,-146.14"/>
</g>
<!-- Node15&#45;&gt;Node14 -->
<g id="edge26" class="edge">
<title>Node15&#45;&gt;Node14</title>
<path fill="none" stroke="midnightblue" d="M1032.58,-149.53C1120.89,-136.75 1262.46,-115.47 1272.5,-109 1299.82,-91.41 1317.29,-55.88 1325.33,-36.1"/>
<polygon fill="midnightblue" stroke="midnightblue" points="1032.02,-146.07 1022.62,-150.96 1033.02,-153 1032.02,-146.07"/>
</g>
<!-- Node15&#45;&gt;Node16 -->
<g id="edge18" class="edge">
<title>Node15&#45;&gt;Node16</title>
<path fill="none" stroke="midnightblue" d="M950.1,-142.35C942.49,-131.82 932.86,-118.5 925.69,-108.59"/>
<polygon fill="midnightblue" stroke="midnightblue" points="947.47,-144.68 956.16,-150.73 953.14,-140.58 947.47,-144.68"/>
</g>
<!-- Node19 -->
<g id="node19" class="node">
<title>Node19</title>
<g id="a_node19"><a xlink:href="MVQNAcceleration_8cpp.html" target="_top" xlink:title=" ">
<polygon fill="white" stroke="black" points="1055,-84 1055,-103 1264,-103 1264,-84 1055,-84"/>
<text text-anchor="middle" x="1159.5" y="-91" font-family="Helvetica,sans-Serif" font-size="10.00">src/acceleration/MVQNAcceleration.cpp</text>
</a>
</g>
</g>
<!-- Node15&#45;&gt;Node19 -->
<g id="edge24" class="edge">
<title>Node15&#45;&gt;Node19</title>
<path fill="none" stroke="midnightblue" d="M998.56,-147.6C1037.62,-134.71 1098.97,-114.47 1133.55,-103.06"/>
<polygon fill="midnightblue" stroke="midnightblue" points="997.06,-144.41 988.66,-150.87 999.25,-151.06 997.06,-144.41"/>
</g>
<!-- Node16&#45;&gt;Node5 -->
<g id="edge19" class="edge">
<title>Node16&#45;&gt;Node5</title>
<path fill="none" stroke="midnightblue" d="M899.78,-69.89C892.11,-58.84 883.11,-45.89 876.4,-36.25"/>
<polygon fill="midnightblue" stroke="midnightblue" points="897,-72.02 905.58,-78.23 902.75,-68.02 897,-72.02"/>
</g>
<!-- Node16&#45;&gt;Node6 -->
<g id="edge21" class="edge">
<title>Node16&#45;&gt;Node6</title>
<path fill="none" stroke="midnightblue" d="M821.68,-81.99C809.18,-80.62 796.53,-79.26 784.5,-78 623.7,-61.11 582.45,-65.58 422.5,-42 411.07,-40.32 398.99,-38.22 387.28,-36.03"/>
<polygon fill="midnightblue" stroke="midnightblue" points="821.33,-85.47 831.65,-83.08 822.09,-78.51 821.33,-85.47"/>
</g>
<!-- Node16&#45;&gt;Node14 -->
<g id="edge20" class="edge">
<title>Node16&#45;&gt;Node14</title>
<path fill="none" stroke="midnightblue" d="M1007.88,-76.81C1082.68,-64.1 1186.69,-46.43 1256.18,-34.63"/>
<polygon fill="midnightblue" stroke="midnightblue" points="1007.26,-73.36 997.99,-78.49 1008.43,-80.26 1007.26,-73.36"/>
</g>
<!-- Node17 -->
<g id="node17" class="node">
<title>Node17</title>
<g id="a_node17"><a xlink:href="ParallelImplicitCouplingSchemeTest_8cpp.html" target="_top" xlink:title=" ">
<polygon fill="white" stroke="black" points="967.5,-0.5 967.5,-41.5 1141.5,-41.5 1141.5,-0.5 967.5,-0.5"/>
<text text-anchor="start" x="975.5" y="-29.5" font-family="Helvetica,sans-Serif" font-size="10.00">src/cplscheme/tests</text>
<text text-anchor="start" x="975.5" y="-18.5" font-family="Helvetica,sans-Serif" font-size="10.00">/ParallelImplicitCouplingScheme</text>
<text text-anchor="middle" x="1054.5" y="-7.5" font-family="Helvetica,sans-Serif" font-size="10.00">Test.cpp</text>
</a>
</g>
</g>
<!-- Node16&#45;&gt;Node17 -->
<g id="edge22" class="edge">
<title>Node16&#45;&gt;Node17</title>
<path fill="none" stroke="midnightblue" d="M952.25,-73.86C971.89,-63.9 996.06,-51.64 1015.96,-41.55"/>
<polygon fill="midnightblue" stroke="midnightblue" points="950.63,-70.76 943.29,-78.4 953.8,-77 950.63,-70.76"/>
</g>
<!-- Node18 -->
<g id="node18" class="node">
<title>Node18</title>
<g id="a_node18"><a xlink:href="SerialImplicitCouplingSchemeTest_8cpp.html" target="_top" xlink:title=" ">
<polygon fill="white" stroke="black" points="599.5,-0.5 599.5,-41.5 765.5,-41.5 765.5,-0.5 599.5,-0.5"/>
<text text-anchor="start" x="607.5" y="-29.5" font-family="Helvetica,sans-Serif" font-size="10.00">src/cplscheme/tests</text>
<text text-anchor="start" x="607.5" y="-18.5" font-family="Helvetica,sans-Serif" font-size="10.00">/SerialImplicitCouplingScheme</text>
<text text-anchor="middle" x="682.5" y="-7.5" font-family="Helvetica,sans-Serif" font-size="10.00">Test.cpp</text>
</a>
</g>
</g>
<!-- Node16&#45;&gt;Node18 -->
<g id="edge23" class="edge">
<title>Node16&#45;&gt;Node18</title>
<path fill="none" stroke="midnightblue" d="M859.47,-75.55C825.68,-65.32 782.5,-52.26 747.25,-41.59"/>
<polygon fill="midnightblue" stroke="midnightblue" points="858.6,-78.94 869.19,-78.49 860.63,-72.24 858.6,-78.94"/>
</g>
<!-- Node21&#45;&gt;Node5 -->
<g id="edge34" class="edge">
<title>Node21&#45;&gt;Node5</title>
<path fill="none" stroke="midnightblue" d="M592.25,-76.97C644.91,-67.28 713.69,-54.34 774.5,-42 783.79,-40.12 793.59,-38.06 803.2,-36"/>
<polygon fill="midnightblue" stroke="midnightblue" points="591.48,-73.55 582.27,-78.8 592.74,-80.44 591.48,-73.55"/>
</g>
<!-- Node21&#45;&gt;Node18 -->
<g id="edge36" class="edge">
<title>Node21&#45;&gt;Node18</title>
<path fill="none" stroke="midnightblue" d="M551.02,-74.67C576.24,-64.57 607.82,-51.92 633.7,-41.55"/>
<polygon fill="midnightblue" stroke="midnightblue" points="549.67,-71.44 541.69,-78.4 552.28,-77.93 549.67,-71.44"/>
</g>
<!-- Node22 -->
<g id="node22" class="node">
<title>Node22</title>
<g id="a_node22"><a xlink:href="ConstantRelaxationAcceleration_8cpp.html" target="_top" xlink:title=" ">
<polygon fill="white" stroke="black" points="431.5,-6 431.5,-36 581.5,-36 581.5,-6 431.5,-6"/>
<text text-anchor="start" x="439.5" y="-24" font-family="Helvetica,sans-Serif" font-size="10.00">src/acceleration/Constant</text>
<text text-anchor="middle" x="506.5" y="-13" font-family="Helvetica,sans-Serif" font-size="10.00">RelaxationAcceleration.cpp</text>
</a>
</g>
</g>
<!-- Node21&#45;&gt;Node22 -->
<g id="edge35" class="edge">
<title>Node21&#45;&gt;Node22</title>
<path fill="none" stroke="midnightblue" d="M506.5,-68.23C506.5,-57.57 506.5,-45.41 506.5,-36.25"/>
<polygon fill="midnightblue" stroke="midnightblue" points="503,-68.23 506.5,-78.23 510,-68.23 503,-68.23"/>
</g>
</g>
</svg>
        <g id="navigator" transform="translate(0 0)" fill="#404254">
                <rect fill="#f2f5e9" fill-opacity="0.5" stroke="#606060" stroke-width=".5" x="0" y="0" width="60" height="60"/>
                <use id="zoomplus" xlink:href="#zoomPlus" x="17" y="9" onmousedown="handleZoom(evt,'in')"/>
                <use id="zoomminus" xlink:href="#zoomMin" x="42" y="9" onmousedown="handleZoom(evt,'out')"/>
                <use id="reset" xlink:href="#resetDef" x="30" y="36" onmousedown="handleReset()"/>
                <g id="arrowUp" xlink:href="#dirArrow" transform="translate(30 24)" onmousedown="handlePan(0,-1)">
                  <use xlink:href="#rim" fill="#404040">
                        <set attributeName="fill" to="#808080" begin="arrowUp.mouseover" end="arrowUp.mouseout"/>
                  </use>
                  <path fill="none" stroke="white" stroke-width="1.5" d="M0,-3.0v7 M-2.5,-0.5L0,-3.0L2.5,-0.5"/>
                </g>
                <g id="arrowRight" xlink:href="#dirArrow" transform="rotate(90) translate(36 -43)" onmousedown="handlePan(1,0)">
                  <use xlink:href="#rim" fill="#404040">
                        <set attributeName="fill" to="#808080" begin="arrowRight.mouseover" end="arrowRight.mouseout"/>
                  </use>
                  <path fill="none" stroke="white" stroke-width="1.5" d="M0,-3.0v7 M-2.5,-0.5L0,-3.0L2.5,-0.5"/>
                </g>
                <g id="arrowDown" xlink:href="#dirArrow" transform="rotate(180) translate(-30 -48)" onmousedown="handlePan(0,1)">
                  <use xlink:href="#rim" fill="#404040">
                        <set attributeName="fill" to="#808080" begin="arrowDown.mouseover" end="arrowDown.mouseout"/>
                  </use>
                  <path fill="none" stroke="white" stroke-width="1.5" d="M0,-3.0v7 M-2.5,-0.5L0,-3.0L2.5,-0.5"/>
                </g>
                <g id="arrowLeft" xlink:href="#dirArrow" transform="rotate(270) translate(-36 17)" onmousedown="handlePan(-1,0)">
                  <use xlink:href="#rim" fill="#404040">
                        <set attributeName="fill" to="#808080" begin="arrowLeft.mouseover" end="arrowLeft.mouseout"/>
                  </use>
                  <path fill="none" stroke="white" stroke-width="1.5" d="M0,-3.0v7 M-2.5,-0.5L0,-3.0L2.5,-0.5"/>
                </g>
        </g>
        <svg viewBox="0 0 15 15" width="100%" height="30px" preserveAspectRatio="xMaxYMin meet">
         <g id="arrow_out" transform="scale(0.3 0.3)">
          <a xlink:href="Acceleration_8hpp__dep__incl_org.svg" target="_base">
           <rect id="button" ry="5" rx="5" y="6" x="6" height="38" width="38"
                fill="#f2f5e9" fill-opacity="0.5" stroke="#606060" stroke-width="1.0"/>
           <path id="arrow"
             d="M 11.500037,31.436501 C 11.940474,20.09759 22.043105,11.32322 32.158766,21.979434 L 37.068811,17.246167 C 37.068811,17.246167 37.088388,32 37.088388,32 L 22.160133,31.978069 C 22.160133,31.978069 26.997745,27.140456 26.997745,27.140456 C 18.528582,18.264221 13.291696,25.230495 11.500037,31.436501 z"
             style="fill:#404040;"/>
          </a>
         </g>
        </svg>
</svg>
