<?xml version="1.0" encoding="UTF-8" standalone="no"?>
<!DOCTYPE svg PUBLIC "-//W3C//DTD SVG 1.1//EN"
 "http://www.w3.org/Graphics/SVG/1.1/DTD/svg11.dtd">
<!-- Generated by graphviz version 2.43.0 (0)
 -->
<!-- Title: src/action/Action.hpp Pages: 1 -->
<!--zoomable 162 -->
<svg id="main" version="1.1" xmlns="http://www.w3.org/2000/svg" xmlns:xlink="http://www.w3.org/1999/xlink" xml:space="preserve" onload="init(evt)">
<style type="text/css"><![CDATA[
.edge:hover path { stroke: red; }
.edge:hover polygon { stroke: red; fill: red; }
]]></style>
<script type="text/javascript"><![CDATA[
var edges = document.getElementsByTagName('g');
if (edges && edges.length) {
  for (var i=0;i<edges.length;i++) {
    if (edges[i].id.substr(0,4)=='edge') {
      edges[i].setAttribute('class','edge');
    }
  }
}
]]></script>
        <defs>
                <circle id="rim" cx="0" cy="0" r="7"/>
                <circle id="rim2" cx="0" cy="0" r="3.5"/>
                <g id="zoomPlus">
                        <use xlink:href="#rim" fill="#404040">
                                <set attributeName="fill" to="#808080" begin="zoomplus.mouseover" end="zoomplus.mouseout"/>
                        </use>
                        <path d="M-4,0h8M0,-4v8" fill="none" stroke="white" stroke-width="1.5" pointer-events="none"/>
                </g>
                <g id="zoomMin">
                        <use xlink:href="#rim" fill="#404040">
                                <set attributeName="fill" to="#808080" begin="zoomminus.mouseover" end="zoomminus.mouseout"/>
                        </use>
                        <path d="M-4,0h8" fill="none" stroke="white" stroke-width="1.5" pointer-events="none"/>
                </g>
                <g id="dirArrow">
                        <path fill="none" stroke="white" stroke-width="1.5" d="M0,-3.0v7 M-2.5,-0.5L0,-3.0L2.5,-0.5"/>
                </g>
               <g id="resetDef">
                       <use xlink:href="#rim2" fill="#404040">
                               <set attributeName="fill" to="#808080" begin="reset.mouseover" end="reset.mouseout"/>
                       </use>
               </g>
        </defs>

<script type="text/javascript">
var viewWidth = 2095;
var viewHeight = 162;
var sectionId = 'dynsection-1';
</script>
<script xlink:href="svgpan.js"/>
<svg id="graph" class="graph">
<g id="viewport">
<title>src/action/Action.hpp</title>
<polygon fill="white" stroke="transparent" points="-4,4 -4,-158 2090.5,-158 2090.5,4 -4,4"/>
<!-- Node1 -->
<g id="node1" class="node">
<title>Node1</title>
<g id="a_node1"><a xlink:title=" ">
<polygon fill="#bfbfbf" stroke="black" points="867.5,-134.5 867.5,-153.5 986.5,-153.5 986.5,-134.5 867.5,-134.5"/>
<text text-anchor="middle" x="927" y="-141.5" font-family="Helvetica,sans-Serif" font-size="10.00">src/action/Action.hpp</text>
</a>
</g>
</g>
<!-- Node2 -->
<g id="node2" class="node">
<title>Node2</title>
<g id="a_node2"><a xlink:href="ActionConfiguration_8hpp.html" target="_top" xlink:title=" ">
<polygon fill="white" stroke="black" points="909,-67.5 909,-97.5 1039,-97.5 1039,-67.5 909,-67.5"/>
<text text-anchor="start" x="917" y="-85.5" font-family="Helvetica,sans-Serif" font-size="10.00">src/action/config/Action</text>
<text text-anchor="middle" x="974" y="-74.5" font-family="Helvetica,sans-Serif" font-size="10.00">Configuration.hpp</text>
</a>
</g>
</g>
<!-- Node1&#45;&gt;Node2 -->
<g id="edge1" class="edge">
<title>Node1&#45;&gt;Node2</title>
<path fill="none" stroke="midnightblue" d="M940.01,-126.53C947.21,-117.42 956.06,-106.21 962.92,-97.52"/>
<polygon fill="midnightblue" stroke="midnightblue" points="937.19,-124.46 933.73,-134.48 942.68,-128.8 937.19,-124.46"/>
</g>
<!-- Node4 -->
<g id="node4" class="node">
<title>Node4</title>
<g id="a_node4"><a xlink:href="ScaleActionTest_8cpp.html" target="_top" xlink:title=" ">
<polygon fill="white" stroke="black" points="674.5,-0.5 674.5,-30.5 825.5,-30.5 825.5,-0.5 674.5,-0.5"/>
<text text-anchor="start" x="682.5" y="-18.5" font-family="Helvetica,sans-Serif" font-size="10.00">src/action/tests/ScaleAction</text>
<text text-anchor="middle" x="750" y="-7.5" font-family="Helvetica,sans-Serif" font-size="10.00">Test.cpp</text>
</a>
</g>
</g>
<!-- Node1&#45;&gt;Node4 -->
<g id="edge25" class="edge">
<title>Node1&#45;&gt;Node4</title>
<path fill="none" stroke="midnightblue" d="M857.4,-140.91C788,-137.18 688.3,-126.81 664,-98 642.25,-72.21 683.66,-46.02 716.24,-30.52"/>
<polygon fill="midnightblue" stroke="midnightblue" points="857.25,-144.4 867.41,-141.41 857.6,-137.41 857.25,-144.4"/>
</g>
<!-- Node5 -->
<g id="node5" class="node">
<title>Node5</title>
<g id="a_node5"><a xlink:href="SummationActionTest_8cpp.html" target="_top" xlink:title=" ">
<polygon fill="white" stroke="black" points="1041,-0.5 1041,-30.5 1191,-30.5 1191,-0.5 1041,-0.5"/>
<text text-anchor="start" x="1049" y="-18.5" font-family="Helvetica,sans-Serif" font-size="10.00">src/action/tests/Summation</text>
<text text-anchor="middle" x="1116" y="-7.5" font-family="Helvetica,sans-Serif" font-size="10.00">ActionTest.cpp</text>
</a>
</g>
</g>
<!-- Node1&#45;&gt;Node5 -->
<g id="edge26" class="edge">
<title>Node1&#45;&gt;Node5</title>
<path fill="none" stroke="midnightblue" d="M974.39,-131.6C997.94,-124.45 1025.99,-113.57 1048,-98 1074.18,-79.48 1096.18,-48.49 1107.6,-30.53"/>
<polygon fill="midnightblue" stroke="midnightblue" points="973.23,-128.29 964.61,-134.44 975.19,-135.02 973.23,-128.29"/>
</g>
<!-- Node6 -->
<g id="node6" class="node">
<title>Node6</title>
<g id="a_node6"><a xlink:href="ParticipantConfiguration_8cpp.html" target="_top" xlink:title=" ">
<polygon fill="white" stroke="black" points="1209.5,-0.5 1209.5,-30.5 1366.5,-30.5 1366.5,-0.5 1209.5,-0.5"/>
<text text-anchor="start" x="1217.5" y="-18.5" font-family="Helvetica,sans-Serif" font-size="10.00">src/precice/config</text>
<text text-anchor="middle" x="1288" y="-7.5" font-family="Helvetica,sans-Serif" font-size="10.00">/ParticipantConfiguration.cpp</text>
</a>
</g>
</g>
<!-- Node1&#45;&gt;Node6 -->
<g id="edge27" class="edge">
<title>Node1&#45;&gt;Node6</title>
<path fill="none" stroke="midnightblue" d="M996.81,-143.89C1088.09,-143.47 1240.9,-136.76 1279,-98 1296.36,-80.34 1294.28,-49.03 1291.17,-30.79"/>
<polygon fill="midnightblue" stroke="midnightblue" points="996.53,-140.39 986.54,-143.92 996.54,-147.39 996.53,-140.39"/>
</g>
<!-- Node7 -->
<g id="node7" class="node">
<title>Node7</title>
<g id="a_node7"><a xlink:href="PythonAction_8hpp.html" target="_top" xlink:title=" ">
<polygon fill="white" stroke="black" points="211,-73 211,-92 363,-92 363,-73 211,-73"/>
<text text-anchor="middle" x="287" y="-80" font-family="Helvetica,sans-Serif" font-size="10.00">src/action/PythonAction.hpp</text>
</a>
</g>
</g>
<!-- Node1&#45;&gt;Node7 -->
<g id="edge6" class="edge">
<title>Node1&#45;&gt;Node7</title>
<path fill="none" stroke="midnightblue" d="M857.03,-137.48C758.07,-129.54 571.59,-114.06 413,-98 395.15,-96.19 375.89,-94.06 357.93,-92.01"/>
<polygon fill="midnightblue" stroke="midnightblue" points="856.95,-140.99 867.2,-138.3 857.51,-134.01 856.95,-140.99"/>
</g>
<!-- Node9 -->
<g id="node9" class="node">
<title>Node9</title>
<g id="a_node9"><a xlink:href="PythonActionTest_8cpp.html" target="_top" xlink:title=" ">
<polygon fill="white" stroke="black" points="0,-0.5 0,-30.5 158,-30.5 158,-0.5 0,-0.5"/>
<text text-anchor="start" x="8" y="-18.5" font-family="Helvetica,sans-Serif" font-size="10.00">src/action/tests/PythonAction</text>
<text text-anchor="middle" x="79" y="-7.5" font-family="Helvetica,sans-Serif" font-size="10.00">Test.cpp</text>
</a>
</g>
</g>
<!-- Node1&#45;&gt;Node9 -->
<g id="edge24" class="edge">
<title>Node1&#45;&gt;Node9</title>
<path fill="none" stroke="midnightblue" d="M857.25,-143.24C699.97,-143.05 322.07,-138.27 202,-98 158.77,-83.5 116.19,-49.76 94.26,-30.55"/>
<polygon fill="midnightblue" stroke="midnightblue" points="857.28,-146.74 867.29,-143.25 857.29,-139.74 857.28,-146.74"/>
</g>
<!-- Node10 -->
<g id="node10" class="node">
<title>Node10</title>
<g id="a_node10"><a xlink:href="RecorderAction_8cpp.html" target="_top" xlink:title=" ">
<polygon fill="white" stroke="black" points="346.5,-6 346.5,-25 507.5,-25 507.5,-6 346.5,-6"/>
<text text-anchor="middle" x="427" y="-13" font-family="Helvetica,sans-Serif" font-size="10.00">src/action/RecorderAction.cpp</text>
</a>
</g>
</g>
<!-- Node1&#45;&gt;Node10 -->
<g id="edge10" class="edge">
<title>Node1&#45;&gt;Node10</title>
<path fill="none" stroke="midnightblue" d="M856.77,-140.91C730.7,-136.5 476.27,-124.42 446,-98 424.65,-79.37 424.8,-41.83 426.09,-25"/>
<polygon fill="midnightblue" stroke="midnightblue" points="856.98,-144.41 867.09,-141.26 857.22,-137.42 856.98,-144.41"/>
</g>
<!-- Node11 -->
<g id="node11" class="node">
<title>Node11</title>
<g id="a_node11"><a xlink:href="RecorderAction_8hpp.html" target="_top" xlink:title=" ">
<polygon fill="white" stroke="black" points="455,-73 455,-92 617,-92 617,-73 455,-73"/>
<text text-anchor="middle" x="536" y="-80" font-family="Helvetica,sans-Serif" font-size="10.00">src/action/RecorderAction.hpp</text>
</a>
</g>
</g>
<!-- Node1&#45;&gt;Node11 -->
<g id="edge11" class="edge">
<title>Node1&#45;&gt;Node11</title>
<path fill="none" stroke="midnightblue" d="M860.71,-132.93C800.72,-123.82 709.94,-110.02 631,-98 618.3,-96.07 604.64,-93.98 591.76,-92.02"/>
<polygon fill="midnightblue" stroke="midnightblue" points="860.39,-136.43 870.8,-134.47 861.44,-129.5 860.39,-136.43"/>
</g>
<!-- Node12 -->
<g id="node12" class="node">
<title>Node12</title>
<g id="a_node12"><a xlink:href="ScaleByAreaAction_8hpp.html" target="_top" xlink:title=" ">
<polygon fill="white" stroke="black" points="673,-73 673,-92 853,-92 853,-73 673,-73"/>
<text text-anchor="middle" x="763" y="-80" font-family="Helvetica,sans-Serif" font-size="10.00">src/action/ScaleByAreaAction.hpp</text>
</a>
</g>
</g>
<!-- Node1&#45;&gt;Node12 -->
<g id="edge14" class="edge">
<title>Node1&#45;&gt;Node12</title>
<path fill="none" stroke="midnightblue" d="M893.74,-130.93C861.86,-119.37 814.57,-102.21 786.45,-92.01"/>
<polygon fill="midnightblue" stroke="midnightblue" points="892.91,-134.35 903.5,-134.48 895.3,-127.77 892.91,-134.35"/>
</g>
<!-- Node13 -->
<g id="node13" class="node">
<title>Node13</title>
<g id="a_node13"><a xlink:href="ScaleByAreaAction_8cpp.html" target="_top" xlink:title=" ">
<polygon fill="white" stroke="black" points="843.5,-6 843.5,-25 1022.5,-25 1022.5,-6 843.5,-6"/>
<text text-anchor="middle" x="933" y="-13" font-family="Helvetica,sans-Serif" font-size="10.00">src/action/ScaleByAreaAction.cpp</text>
</a>
</g>
</g>
<!-- Node1&#45;&gt;Node13 -->
<g id="edge18" class="edge">
<title>Node1&#45;&gt;Node13</title>
<path fill="none" stroke="midnightblue" d="M913.97,-126.23C908.51,-118.17 902.79,-108.08 900,-98 896.32,-84.72 896.07,-80.2 900,-67 904.9,-50.54 917.07,-34.44 925.18,-25"/>
<polygon fill="midnightblue" stroke="midnightblue" points="911.15,-128.31 919.85,-134.36 916.82,-124.21 911.15,-128.31"/>
</g>
<!-- Node14 -->
<g id="node14" class="node">
<title>Node14</title>
<g id="a_node14"><a xlink:href="SummationAction_8hpp.html" target="_top" xlink:title=" ">
<polygon fill="white" stroke="black" points="1095.5,-73 1095.5,-92 1270.5,-92 1270.5,-73 1095.5,-73"/>
<text text-anchor="middle" x="1183" y="-80" font-family="Helvetica,sans-Serif" font-size="10.00">src/action/SummationAction.hpp</text>
</a>
</g>
</g>
<!-- Node1&#45;&gt;Node14 -->
<g id="edge19" class="edge">
<title>Node1&#45;&gt;Node14</title>
<path fill="none" stroke="midnightblue" d="M973.53,-132.19C1023.2,-120.64 1100.89,-102.58 1146.39,-92.01"/>
<polygon fill="midnightblue" stroke="midnightblue" points="972.63,-128.8 963.68,-134.48 974.21,-135.62 972.63,-128.8"/>
</g>
<!-- Node15 -->
<g id="node15" class="node">
<title>Node15</title>
<g id="a_node15"><a xlink:href="SummationAction_8cpp.html" target="_top" xlink:title=" ">
<polygon fill="white" stroke="black" points="1385,-6 1385,-25 1559,-25 1559,-6 1385,-6"/>
<text text-anchor="middle" x="1472" y="-13" font-family="Helvetica,sans-Serif" font-size="10.00">src/action/SummationAction.cpp</text>
</a>
</g>
</g>
<!-- Node1&#45;&gt;Node15 -->
<g id="edge23" class="edge">
<title>Node1&#45;&gt;Node15</title>
<path fill="none" stroke="midnightblue" d="M997.13,-142.66C1073.44,-140.44 1198.18,-131.37 1300,-98 1326.66,-89.26 1329.86,-79.47 1355,-67 1387.51,-50.88 1426.38,-34.69 1450.12,-25.13"/>
<polygon fill="midnightblue" stroke="midnightblue" points="996.59,-139.17 986.69,-142.93 996.78,-146.17 996.59,-139.17"/>
</g>
<!-- Node16 -->
<g id="node16" class="node">
<title>Node16</title>
<g id="a_node16"><a xlink:href="Participant_8cpp.html" target="_top" xlink:title=" ">
<polygon fill="white" stroke="black" points="1364.5,-73 1364.5,-92 1533.5,-92 1533.5,-73 1364.5,-73"/>
<text text-anchor="middle" x="1449" y="-80" font-family="Helvetica,sans-Serif" font-size="10.00">src/precice/impl/Participant.cpp</text>
</a>
</g>
</g>
<!-- Node1&#45;&gt;Node16 -->
<g id="edge28" class="edge">
<title>Node1&#45;&gt;Node16</title>
<path fill="none" stroke="midnightblue" d="M996.98,-136.46C1081.12,-128.4 1226.58,-113.8 1351,-98 1364.99,-96.22 1380.07,-94.1 1394.11,-92.03"/>
<polygon fill="midnightblue" stroke="midnightblue" points="996.4,-133 986.77,-137.44 997.06,-139.97 996.4,-133"/>
</g>
<!-- Node17 -->
<g id="node17" class="node">
<title>Node17</title>
<g id="a_node17"><a xlink:href="SolverInterfaceImpl_8hpp.html" target="_top" xlink:title=" ">
<polygon fill="white" stroke="black" points="1670.5,-67.5 1670.5,-97.5 1841.5,-97.5 1841.5,-67.5 1670.5,-67.5"/>
<text text-anchor="start" x="1678.5" y="-85.5" font-family="Helvetica,sans-Serif" font-size="10.00">src/precice/impl/SolverInterface</text>
<text text-anchor="middle" x="1756" y="-74.5" font-family="Helvetica,sans-Serif" font-size="10.00">Impl.hpp</text>
</a>
</g>
</g>
<!-- Node1&#45;&gt;Node17 -->
<g id="edge29" class="edge">
<title>Node1&#45;&gt;Node17</title>
<path fill="none" stroke="midnightblue" d="M996.71,-138C1147.96,-127.14 1505.81,-101.46 1670.43,-89.64"/>
<polygon fill="midnightblue" stroke="midnightblue" points="996.34,-134.51 986.62,-138.72 996.84,-141.5 996.34,-134.51"/>
</g>
<!-- Node3 -->
<g id="node3" class="node">
<title>Node3</title>
<g id="a_node3"><a xlink:href="ActionConfiguration_8cpp.html" target="_top" xlink:title=" ">
<polygon fill="white" stroke="black" points="526,-0.5 526,-30.5 656,-30.5 656,-0.5 526,-0.5"/>
<text text-anchor="start" x="534" y="-18.5" font-family="Helvetica,sans-Serif" font-size="10.00">src/action/config/Action</text>
<text text-anchor="middle" x="591" y="-7.5" font-family="Helvetica,sans-Serif" font-size="10.00">Configuration.cpp</text>
</a>
</g>
</g>
<!-- Node2&#45;&gt;Node3 -->
<g id="edge2" class="edge">
<title>Node2&#45;&gt;Node3</title>
<path fill="none" stroke="midnightblue" d="M898.61,-69.86C835.97,-60.02 744.57,-45.29 665,-31 662.17,-30.49 659.27,-29.96 656.35,-29.42"/>
<polygon fill="midnightblue" stroke="midnightblue" points="898.37,-73.36 908.79,-71.45 899.46,-66.45 898.37,-73.36"/>
</g>
<!-- Node2&#45;&gt;Node4 -->
<g id="edge3" class="edge">
<title>Node2&#45;&gt;Node4</title>
<path fill="none" stroke="midnightblue" d="M915.69,-64.58C879.31,-54.02 833.03,-40.59 798.63,-30.61"/>
<polygon fill="midnightblue" stroke="midnightblue" points="915.09,-68.05 925.67,-67.48 917.04,-61.33 915.09,-68.05"/>
</g>
<!-- Node2&#45;&gt;Node5 -->
<g id="edge4" class="edge">
<title>Node2&#45;&gt;Node5</title>
<path fill="none" stroke="midnightblue" d="M1014.13,-63.13C1036.69,-52.8 1064.42,-40.11 1085.25,-30.58"/>
<polygon fill="midnightblue" stroke="midnightblue" points="1012.45,-60.05 1004.81,-67.4 1015.36,-66.42 1012.45,-60.05"/>
</g>
<!-- Node2&#45;&gt;Node6 -->
<g id="edge5" class="edge">
<title>Node2&#45;&gt;Node6</title>
<path fill="none" stroke="midnightblue" d="M1048.91,-65.99C1101.01,-55.21 1169.87,-40.95 1220.31,-30.51"/>
<polygon fill="midnightblue" stroke="midnightblue" points="1048.14,-62.58 1039.06,-68.03 1049.56,-69.43 1048.14,-62.58"/>
</g>
<!-- Node7&#45;&gt;Node3 -->
<g id="edge7" class="edge">
<title>Node7&#45;&gt;Node3</title>
<path fill="none" stroke="midnightblue" d="M336.97,-70.82C388.55,-59.79 469.26,-42.53 525.82,-30.44"/>
<polygon fill="midnightblue" stroke="midnightblue" points="336.1,-67.42 327.06,-72.94 337.57,-74.27 336.1,-67.42"/>
</g>
<!-- Node8 -->
<g id="node8" class="node">
<title>Node8</title>
<g id="a_node8"><a xlink:href="PythonAction_8cpp.html" target="_top" xlink:title=" ">
<polygon fill="white" stroke="black" points="176,-6 176,-25 328,-25 328,-6 176,-6"/>
<text text-anchor="middle" x="252" y="-13" font-family="Helvetica,sans-Serif" font-size="10.00">src/action/PythonAction.cpp</text>
</a>
</g>
</g>
<!-- Node7&#45;&gt;Node8 -->
<g id="edge8" class="edge">
<title>Node7&#45;&gt;Node8</title>
<path fill="none" stroke="midnightblue" d="M277.4,-63.66C270.65,-51.13 261.91,-34.91 256.65,-25.13"/>
<polygon fill="midnightblue" stroke="midnightblue" points="274.46,-65.59 282.28,-72.73 280.62,-62.27 274.46,-65.59"/>
</g>
<!-- Node7&#45;&gt;Node9 -->
<g id="edge9" class="edge">
<title>Node7&#45;&gt;Node9</title>
<path fill="none" stroke="midnightblue" d="M249.48,-69.77C214.21,-58.75 161.38,-42.24 123.89,-30.53"/>
<polygon fill="midnightblue" stroke="midnightblue" points="248.79,-73.23 259.38,-72.87 250.88,-66.55 248.79,-73.23"/>
</g>
<!-- Node11&#45;&gt;Node3 -->
<g id="edge12" class="edge">
<title>Node11&#45;&gt;Node3</title>
<path fill="none" stroke="midnightblue" d="M549.97,-64.99C558.96,-54.36 570.52,-40.7 579.08,-30.59"/>
<polygon fill="midnightblue" stroke="midnightblue" points="547.21,-62.84 543.42,-72.73 552.55,-67.36 547.21,-62.84"/>
</g>
<!-- Node11&#45;&gt;Node10 -->
<g id="edge13" class="edge">
<title>Node11&#45;&gt;Node10</title>
<path fill="none" stroke="midnightblue" d="M512.43,-67.44C490.84,-54.57 459.58,-35.93 441.47,-25.13"/>
<polygon fill="midnightblue" stroke="midnightblue" points="510.92,-70.62 521.3,-72.73 514.5,-64.61 510.92,-70.62"/>
</g>
<!-- Node12&#45;&gt;Node3 -->
<g id="edge15" class="edge">
<title>Node12&#45;&gt;Node3</title>
<path fill="none" stroke="midnightblue" d="M730.46,-69.2C701.31,-58.19 658.59,-42.04 628.12,-30.53"/>
<polygon fill="midnightblue" stroke="midnightblue" points="729.57,-72.61 740.16,-72.87 732.04,-66.06 729.57,-72.61"/>
</g>
<!-- Node12&#45;&gt;Node4 -->
<g id="edge17" class="edge">
<title>Node12&#45;&gt;Node4</title>
<path fill="none" stroke="midnightblue" d="M759.25,-62.74C757.2,-52.49 754.7,-40 752.82,-30.59"/>
<polygon fill="midnightblue" stroke="midnightblue" points="755.85,-63.61 761.25,-72.73 762.72,-62.24 755.85,-63.61"/>
</g>
<!-- Node12&#45;&gt;Node13 -->
<g id="edge16" class="edge">
<title>Node12&#45;&gt;Node13</title>
<path fill="none" stroke="midnightblue" d="M794.98,-69.27C828.72,-56.37 881.02,-36.38 910.6,-25.06"/>
<polygon fill="midnightblue" stroke="midnightblue" points="793.67,-66.03 785.57,-72.87 796.17,-72.57 793.67,-66.03"/>
</g>
<!-- Node14&#45;&gt;Node3 -->
<g id="edge20" class="edge">
<title>Node14&#45;&gt;Node3</title>
<path fill="none" stroke="midnightblue" d="M1095.01,-71.88C1079.35,-70.22 1063.2,-68.53 1048,-67 877.89,-49.87 834.21,-55.47 665,-31 662.15,-30.59 659.24,-30.14 656.31,-29.66"/>
<polygon fill="midnightblue" stroke="midnightblue" points="1094.89,-75.39 1105.21,-72.97 1095.63,-68.43 1094.89,-75.39"/>
</g>
<!-- Node14&#45;&gt;Node5 -->
<g id="edge22" class="edge">
<title>Node14&#45;&gt;Node5</title>
<path fill="none" stroke="midnightblue" d="M1166.63,-65.62C1155.59,-54.91 1141.15,-40.9 1130.52,-30.59"/>
<polygon fill="midnightblue" stroke="midnightblue" points="1164.35,-68.28 1173.96,-72.73 1169.22,-63.26 1164.35,-68.28"/>
</g>
<!-- Node14&#45;&gt;Node15 -->
<g id="edge21" class="edge">
<title>Node14&#45;&gt;Node15</title>
<path fill="none" stroke="midnightblue" d="M1230.91,-70.72C1287.82,-57.92 1381.59,-36.83 1433.84,-25.08"/>
<polygon fill="midnightblue" stroke="midnightblue" points="1230.07,-67.33 1221.08,-72.94 1231.6,-74.16 1230.07,-67.33"/>
</g>
<!-- Node18 -->
<g id="node18" class="node">
<title>Node18</title>
<g id="a_node18"><a xlink:href="SolverInterfaceImpl_8cpp.html" target="_top" xlink:title=" ">
<polygon fill="white" stroke="black" points="1577.5,-0.5 1577.5,-30.5 1748.5,-30.5 1748.5,-0.5 1577.5,-0.5"/>
<text text-anchor="start" x="1585.5" y="-18.5" font-family="Helvetica,sans-Serif" font-size="10.00">src/precice/impl/SolverInterface</text>
<text text-anchor="middle" x="1663" y="-7.5" font-family="Helvetica,sans-Serif" font-size="10.00">Impl.cpp</text>
</a>
</g>
</g>
<!-- Node17&#45;&gt;Node18 -->
<g id="edge30" class="edge">
<title>Node17&#45;&gt;Node18</title>
<path fill="none" stroke="midnightblue" d="M1727.31,-61.45C1713.01,-51.45 1696.05,-39.6 1683.14,-30.58"/>
<polygon fill="midnightblue" stroke="midnightblue" points="1725.62,-64.54 1735.82,-67.4 1729.63,-58.8 1725.62,-64.54"/>
</g>
<!-- Node19 -->
<g id="node19" class="node">
<title>Node19</title>
<g id="a_node19"><a xlink:href="SolverInterface_8cpp.html" target="_top" xlink:title=" ">
<polygon fill="white" stroke="black" points="1766.5,-6 1766.5,-25 1933.5,-25 1933.5,-6 1766.5,-6"/>
<text text-anchor="middle" x="1850" y="-13" font-family="Helvetica,sans-Serif" font-size="10.00">src/precice/SolverInterface.cpp</text>
</a>
</g>
</g>
<!-- Node17&#45;&gt;Node19 -->
<g id="edge31" class="edge">
<title>Node17&#45;&gt;Node19</title>
<path fill="none" stroke="midnightblue" d="M1784.72,-61.64C1802.46,-49.37 1824.31,-34.26 1837.7,-25.01"/>
<polygon fill="midnightblue" stroke="midnightblue" points="1782.63,-58.83 1776.4,-67.4 1786.61,-64.59 1782.63,-58.83"/>
</g>
<!-- Node20 -->
<g id="node20" class="node">
<title>Node20</title>
<g id="a_node20"><a xlink:href="ParallelTests_8cpp.html" target="_top" xlink:title=" ">
<polygon fill="white" stroke="black" points="1951.5,-0.5 1951.5,-30.5 2086.5,-30.5 2086.5,-0.5 1951.5,-0.5"/>
<text text-anchor="start" x="1959.5" y="-18.5" font-family="Helvetica,sans-Serif" font-size="10.00">src/precice/tests/Parallel</text>
<text text-anchor="middle" x="2019" y="-7.5" font-family="Helvetica,sans-Serif" font-size="10.00">Tests.cpp</text>
</a>
</g>
</g>
<!-- Node17&#45;&gt;Node20 -->
<g id="edge32" class="edge">
<title>Node17&#45;&gt;Node20</title>
<path fill="none" stroke="midnightblue" d="M1822.55,-65.05C1865.55,-54.43 1920.92,-40.74 1961.91,-30.61"/>
<polygon fill="midnightblue" stroke="midnightblue" points="1821.61,-61.68 1812.74,-67.48 1823.29,-68.47 1821.61,-61.68"/>
</g>
</g>
</svg>
        <g id="navigator" transform="translate(0 0)" fill="#404254">
                <rect fill="#f2f5e9" fill-opacity="0.5" stroke="#606060" stroke-width=".5" x="0" y="0" width="60" height="60"/>
                <use id="zoomplus" xlink:href="#zoomPlus" x="17" y="9" onmousedown="handleZoom(evt,'in')"/>
                <use id="zoomminus" xlink:href="#zoomMin" x="42" y="9" onmousedown="handleZoom(evt,'out')"/>
                <use id="reset" xlink:href="#resetDef" x="30" y="36" onmousedown="handleReset()"/>
                <g id="arrowUp" xlink:href="#dirArrow" transform="translate(30 24)" onmousedown="handlePan(0,-1)">
                  <use xlink:href="#rim" fill="#404040">
                        <set attributeName="fill" to="#808080" begin="arrowUp.mouseover" end="arrowUp.mouseout"/>
                  </use>
                  <path fill="none" stroke="white" stroke-width="1.5" d="M0,-3.0v7 M-2.5,-0.5L0,-3.0L2.5,-0.5"/>
                </g>
                <g id="arrowRight" xlink:href="#dirArrow" transform="rotate(90) translate(36 -43)" onmousedown="handlePan(1,0)">
                  <use xlink:href="#rim" fill="#404040">
                        <set attributeName="fill" to="#808080" begin="arrowRight.mouseover" end="arrowRight.mouseout"/>
                  </use>
                  <path fill="none" stroke="white" stroke-width="1.5" d="M0,-3.0v7 M-2.5,-0.5L0,-3.0L2.5,-0.5"/>
                </g>
                <g id="arrowDown" xlink:href="#dirArrow" transform="rotate(180) translate(-30 -48)" onmousedown="handlePan(0,1)">
                  <use xlink:href="#rim" fill="#404040">
                        <set attributeName="fill" to="#808080" begin="arrowDown.mouseover" end="arrowDown.mouseout"/>
                  </use>
                  <path fill="none" stroke="white" stroke-width="1.5" d="M0,-3.0v7 M-2.5,-0.5L0,-3.0L2.5,-0.5"/>
                </g>
                <g id="arrowLeft" xlink:href="#dirArrow" transform="rotate(270) translate(-36 17)" onmousedown="handlePan(-1,0)">
                  <use xlink:href="#rim" fill="#404040">
                        <set attributeName="fill" to="#808080" begin="arrowLeft.mouseover" end="arrowLeft.mouseout"/>
                  </use>
                  <path fill="none" stroke="white" stroke-width="1.5" d="M0,-3.0v7 M-2.5,-0.5L0,-3.0L2.5,-0.5"/>
                </g>
        </g>
        <svg viewBox="0 0 15 15" width="100%" height="30px" preserveAspectRatio="xMaxYMin meet">
         <g id="arrow_out" transform="scale(0.3 0.3)">
          <a xlink:href="Action_8hpp__dep__incl_org.svg" target="_base">
           <rect id="button" ry="5" rx="5" y="6" x="6" height="38" width="38"
                fill="#f2f5e9" fill-opacity="0.5" stroke="#606060" stroke-width="1.0"/>
           <path id="arrow"
             d="M 11.500037,31.436501 C 11.940474,20.09759 22.043105,11.32322 32.158766,21.979434 L 37.068811,17.246167 C 37.068811,17.246167 37.088388,32 37.088388,32 L 22.160133,31.978069 C 22.160133,31.978069 26.997745,27.140456 26.997745,27.140456 C 18.528582,18.264221 13.291696,25.230495 11.500037,31.436501 z"
             style="fill:#404040;"/>
          </a>
         </g>
        </svg>
</svg>
