<?xml version="1.0" encoding="UTF-8" standalone="no"?>
<!DOCTYPE svg PUBLIC "-//W3C//DTD SVG 1.1//EN"
 "http://www.w3.org/Graphics/SVG/1.1/DTD/svg11.dtd">
<!-- Generated by graphviz version 2.43.0 (0)
 -->
<!-- Title: src/math/barycenter.hpp Pages: 1 -->
<!--zoomable 666 -->
<svg id="main" version="1.1" xmlns="http://www.w3.org/2000/svg" xmlns:xlink="http://www.w3.org/1999/xlink" xml:space="preserve" onload="init(evt)">
<style type="text/css"><![CDATA[
.edge:hover path { stroke: red; }
.edge:hover polygon { stroke: red; fill: red; }
]]></style>
<script type="text/javascript"><![CDATA[
var edges = document.getElementsByTagName('g');
if (edges && edges.length) {
  for (var i=0;i<edges.length;i++) {
    if (edges[i].id.substr(0,4)=='edge') {
      edges[i].setAttribute('class','edge');
    }
  }
}
]]></script>
        <defs>
                <circle id="rim" cx="0" cy="0" r="7"/>
                <circle id="rim2" cx="0" cy="0" r="3.5"/>
                <g id="zoomPlus">
                        <use xlink:href="#rim" fill="#404040">
                                <set attributeName="fill" to="#808080" begin="zoomplus.mouseover" end="zoomplus.mouseout"/>
                        </use>
                        <path d="M-4,0h8M0,-4v8" fill="none" stroke="white" stroke-width="1.5" pointer-events="none"/>
                </g>
                <g id="zoomMin">
                        <use xlink:href="#rim" fill="#404040">
                                <set attributeName="fill" to="#808080" begin="zoomminus.mouseover" end="zoomminus.mouseout"/>
                        </use>
                        <path d="M-4,0h8" fill="none" stroke="white" stroke-width="1.5" pointer-events="none"/>
                </g>
                <g id="dirArrow">
                        <path fill="none" stroke="white" stroke-width="1.5" d="M0,-3.0v7 M-2.5,-0.5L0,-3.0L2.5,-0.5"/>
                </g>
               <g id="resetDef">
                       <use xlink:href="#rim2" fill="#404040">
                               <set attributeName="fill" to="#808080" begin="reset.mouseover" end="reset.mouseout"/>
                       </use>
               </g>
        </defs>

<script type="text/javascript">
var viewWidth = 1224;
var viewHeight = 666;
var sectionId = 'dynsection-0';
</script>
<script xlink:href="svgpan.js"/>
<svg id="graph" class="graph">
<g id="viewport">
<title>src/math/barycenter.hpp</title>
<polygon fill="white" stroke="transparent" points="-4,4 -4,-662 1220,-662 1220,4 -4,4"/>
<!-- Node1 -->
<g id="node1" class="node">
<title>Node1</title>
<g id="a_node1"><a xlink:title=" ">
<polygon fill="#bfbfbf" stroke="black" points="951.5,-638.5 951.5,-657.5 1086.5,-657.5 1086.5,-638.5 951.5,-638.5"/>
<text text-anchor="middle" x="1019" y="-645.5" font-family="Helvetica,sans-Serif" font-size="10.00">src/math/barycenter.hpp</text>
</a>
</g>
</g>
<!-- Node2 -->
<g id="node2" class="node">
<title>Node2</title>
<g id="a_node2"><a xlink:title=" ">
<polygon fill="white" stroke="#bfbfbf" points="237.5,-0.5 237.5,-19.5 306.5,-19.5 306.5,-0.5 237.5,-0.5"/>
<text text-anchor="middle" x="272" y="-7.5" font-family="Helvetica,sans-Serif" font-size="10.00">Eigen/Core</text>
</a>
</g>
</g>
<!-- Node1&#45;&gt;Node2 -->
<g id="edge1" class="edge">
<title>Node1&#45;&gt;Node2</title>
<path fill="none" stroke="midnightblue" d="M1082.14,-638.47C1139.77,-626.72 1216,-599.38 1216,-537 1216,-537 1216,-537 1216,-121 1216,-57.59 1150.21,-72.55 1089,-56 941.52,-16.13 465.13,-11.49 316.63,-11.03"/>
<polygon fill="midnightblue" stroke="midnightblue" points="316.52,-7.53 306.51,-11 316.5,-14.53 316.52,-7.53"/>
</g>
<!-- Node3 -->
<g id="node3" class="node">
<title>Node3</title>
<g id="a_node3"><a xlink:title=" ">
<polygon fill="white" stroke="#bfbfbf" points="980.5,-582.5 980.5,-601.5 1057.5,-601.5 1057.5,-582.5 980.5,-582.5"/>
<text text-anchor="middle" x="1019" y="-589.5" font-family="Helvetica,sans-Serif" font-size="10.00">Eigen/Dense</text>
</a>
</g>
</g>
<!-- Node1&#45;&gt;Node3 -->
<g id="edge2" class="edge">
<title>Node1&#45;&gt;Node3</title>
<path fill="none" stroke="midnightblue" d="M1019,-638.08C1019,-631.01 1019,-620.86 1019,-611.99"/>
<polygon fill="midnightblue" stroke="midnightblue" points="1022.5,-611.75 1019,-601.75 1015.5,-611.75 1022.5,-611.75"/>
</g>
<!-- Node4 -->
<g id="node4" class="node">
<title>Node4</title>
<g id="a_node4"><a xlink:href="geometry_8hpp.html" target="_top" xlink:title=" ">
<polygon fill="white" stroke="black" points="720,-582.5 720,-601.5 832,-601.5 832,-582.5 720,-582.5"/>
<text text-anchor="middle" x="776" y="-589.5" font-family="Helvetica,sans-Serif" font-size="10.00">math/geometry.hpp</text>
</a>
</g>
</g>
<!-- Node1&#45;&gt;Node4 -->
<g id="edge3" class="edge">
<title>Node1&#45;&gt;Node4</title>
<path fill="none" stroke="midnightblue" d="M980.5,-638.44C938.19,-629.04 870.18,-613.93 824.33,-603.74"/>
<polygon fill="midnightblue" stroke="midnightblue" points="824.85,-600.27 814.32,-601.52 823.33,-607.1 824.85,-600.27"/>
</g>
<!-- Node4&#45;&gt;Node2 -->
<g id="edge4" class="edge">
<title>Node4&#45;&gt;Node2</title>
<path fill="none" stroke="midnightblue" d="M719.88,-588.95C541.63,-581.72 0,-553.75 0,-481 0,-481 0,-481 0,-121 0,-87.31 11.4,-75.32 39,-56 68.77,-35.17 168.15,-21.68 227.07,-15.3"/>
<polygon fill="midnightblue" stroke="midnightblue" points="227.65,-18.76 237.22,-14.23 226.91,-11.8 227.65,-18.76"/>
</g>
<!-- Node5 -->
<g id="node5" class="node">
<title>Node5</title>
<g id="a_node5"><a xlink:title=" ">
<polygon fill="white" stroke="#bfbfbf" points="1038,-56.5 1038,-75.5 1080,-75.5 1080,-56.5 1038,-56.5"/>
<text text-anchor="middle" x="1059" y="-63.5" font-family="Helvetica,sans-Serif" font-size="10.00">array</text>
</a>
</g>
</g>
<!-- Node4&#45;&gt;Node5 -->
<g id="edge5" class="edge">
<title>Node4&#45;&gt;Node5</title>
<path fill="none" stroke="midnightblue" d="M832.32,-587.36C942.96,-578.65 1178,-551.82 1178,-481 1178,-481 1178,-481 1178,-182.5 1178,-132.89 1124.09,-97.74 1088.84,-80.06"/>
<polygon fill="midnightblue" stroke="midnightblue" points="1089.99,-76.72 1079.46,-75.54 1086.95,-83.03 1089.99,-76.72"/>
</g>
<!-- Node6 -->
<g id="node6" class="node">
<title>Node6</title>
<g id="a_node6"><a xlink:href="differences_8hpp.html" target="_top" xlink:title=" ">
<polygon fill="white" stroke="black" points="628,-526.5 628,-545.5 748,-545.5 748,-526.5 628,-526.5"/>
<text text-anchor="middle" x="688" y="-533.5" font-family="Helvetica,sans-Serif" font-size="10.00">math/differences.hpp</text>
</a>
</g>
</g>
<!-- Node4&#45;&gt;Node6 -->
<g id="edge6" class="edge">
<title>Node4&#45;&gt;Node6</title>
<path fill="none" stroke="midnightblue" d="M761.86,-582.32C748.13,-573.9 727.06,-560.97 710.94,-551.07"/>
<polygon fill="midnightblue" stroke="midnightblue" points="712.46,-547.9 702.1,-545.65 708.8,-553.87 712.46,-547.9"/>
</g>
<!-- Node7 -->
<g id="node7" class="node">
<title>Node7</title>
<g id="a_node7"><a xlink:href="assertion_8hpp.html" target="_top" xlink:title=" ">
<polygon fill="white" stroke="black" points="678.5,-470.5 678.5,-489.5 785.5,-489.5 785.5,-470.5 678.5,-470.5"/>
<text text-anchor="middle" x="732" y="-477.5" font-family="Helvetica,sans-Serif" font-size="10.00">utils/assertion.hpp</text>
</a>
</g>
</g>
<!-- Node4&#45;&gt;Node7 -->
<g id="edge61" class="edge">
<title>Node4&#45;&gt;Node7</title>
<path fill="none" stroke="midnightblue" d="M774.13,-582.38C771.24,-569.73 765.16,-545.53 757,-526 753.04,-516.52 747.59,-506.47 742.79,-498.29"/>
<polygon fill="midnightblue" stroke="midnightblue" points="745.75,-496.42 737.58,-489.67 739.76,-500.04 745.75,-496.42"/>
</g>
<!-- Node6&#45;&gt;Node2 -->
<g id="edge7" class="edge">
<title>Node6&#45;&gt;Node2</title>
<path fill="none" stroke="midnightblue" d="M627.72,-530.6C466.59,-518.05 38,-479.06 38,-419.5 38,-419.5 38,-419.5 38,-121 38,-90.9 34.9,-76.44 57,-56 81.26,-33.56 171.23,-20.88 226.81,-15.03"/>
<polygon fill="midnightblue" stroke="midnightblue" points="227.5,-18.47 237.1,-13.98 226.8,-11.51 227.5,-18.47"/>
</g>
<!-- Node6&#45;&gt;Node7 -->
<g id="edge8" class="edge">
<title>Node6&#45;&gt;Node7</title>
<path fill="none" stroke="midnightblue" d="M695.27,-526.08C701.54,-518.38 710.79,-507.03 718.43,-497.65"/>
<polygon fill="midnightblue" stroke="midnightblue" points="721.27,-499.71 724.87,-489.75 715.84,-495.29 721.27,-499.71"/>
</g>
<!-- Node8 -->
<g id="node8" class="node">
<title>Node8</title>
<g id="a_node8"><a xlink:title=" ">
<polygon fill="white" stroke="#bfbfbf" points="776.5,-409 776.5,-428 825.5,-428 825.5,-409 776.5,-409"/>
<text text-anchor="middle" x="801" y="-416" font-family="Helvetica,sans-Serif" font-size="10.00">cstdlib</text>
</a>
</g>
</g>
<!-- Node7&#45;&gt;Node8 -->
<g id="edge9" class="edge">
<title>Node7&#45;&gt;Node8</title>
<path fill="none" stroke="midnightblue" d="M741.89,-470.48C752.65,-461.2 770.07,-446.17 783.22,-434.83"/>
<polygon fill="midnightblue" stroke="midnightblue" points="785.84,-437.19 791.13,-428.01 781.27,-431.89 785.84,-437.19"/>
</g>
<!-- Node9 -->
<g id="node9" class="node">
<title>Node9</title>
<g id="a_node9"><a xlink:title=" ">
<polygon fill="white" stroke="#bfbfbf" points="882,-409 882,-428 942,-428 942,-409 882,-409"/>
<text text-anchor="middle" x="912" y="-416" font-family="Helvetica,sans-Serif" font-size="10.00">iostream</text>
</a>
</g>
</g>
<!-- Node7&#45;&gt;Node9 -->
<g id="edge10" class="edge">
<title>Node7&#45;&gt;Node9</title>
<path fill="none" stroke="midnightblue" d="M757.79,-470.48C788.93,-460.18 841.48,-442.81 876.45,-431.25"/>
<polygon fill="midnightblue" stroke="midnightblue" points="877.86,-434.47 886.26,-428.01 875.66,-427.82 877.86,-434.47"/>
</g>
<!-- Node10 -->
<g id="node10" class="node">
<title>Node10</title>
<g id="a_node10"><a xlink:title=" ">
<polygon fill="white" stroke="#bfbfbf" points="932.5,-112.5 932.5,-131.5 1005.5,-131.5 1005.5,-112.5 932.5,-112.5"/>
<text text-anchor="middle" x="969" y="-119.5" font-family="Helvetica,sans-Serif" font-size="10.00">string_view</text>
</a>
</g>
</g>
<!-- Node7&#45;&gt;Node10 -->
<g id="edge11" class="edge">
<title>Node7&#45;&gt;Node10</title>
<path fill="none" stroke="midnightblue" d="M785.67,-474.6C847.28,-468.59 943.51,-455.97 972,-434 1001.6,-411.18 1008,-395.38 1008,-358 1008,-358 1008,-358 1008,-244 1008,-205.55 989.94,-163.39 978.4,-140.38"/>
<polygon fill="midnightblue" stroke="midnightblue" points="981.5,-138.76 973.78,-131.5 975.29,-141.99 981.5,-138.76"/>
</g>
<!-- Node11 -->
<g id="node11" class="node">
<title>Node11</title>
<g id="a_node11"><a xlink:href="fmt_8hpp.html" target="_top" xlink:title=" ">
<polygon fill="white" stroke="black" points="734.5,-174 734.5,-193 813.5,-193 813.5,-174 734.5,-174"/>
<text text-anchor="middle" x="774" y="-181" font-family="Helvetica,sans-Serif" font-size="10.00">utils/fmt.hpp</text>
</a>
</g>
</g>
<!-- Node7&#45;&gt;Node11 -->
<g id="edge12" class="edge">
<title>Node7&#45;&gt;Node11</title>
<path fill="none" stroke="midnightblue" d="M778.94,-470.42C799.76,-464.04 822.36,-453.01 835,-434 846.93,-416.06 844.48,-254.93 835,-235 827.61,-219.47 812.87,-207.05 799.73,-198.42"/>
<polygon fill="midnightblue" stroke="midnightblue" points="801.35,-195.31 791,-193.06 797.69,-201.27 801.35,-195.31"/>
</g>
<!-- Node24 -->
<g id="node24" class="node">
<title>Node24</title>
<g id="a_node24"><a xlink:title=" ">
<polygon fill="white" stroke="#bfbfbf" points="66.5,-409 66.5,-428 213.5,-428 213.5,-409 66.5,-409"/>
<text text-anchor="middle" x="140" y="-416" font-family="Helvetica,sans-Serif" font-size="10.00">boost/current_function.hpp</text>
</a>
</g>
</g>
<!-- Node7&#45;&gt;Node24 -->
<g id="edge31" class="edge">
<title>Node7&#45;&gt;Node24</title>
<path fill="none" stroke="midnightblue" d="M678.15,-475.51C585.81,-469.23 391.41,-454.73 228,-434 218.21,-432.76 207.84,-431.24 197.78,-429.65"/>
<polygon fill="midnightblue" stroke="midnightblue" points="198.29,-426.19 187.86,-428.05 197.18,-433.1 198.29,-426.19"/>
</g>
<!-- Node25 -->
<g id="node25" class="node">
<title>Node25</title>
<g id="a_node25"><a xlink:title=" ">
<polygon fill="white" stroke="#bfbfbf" points="308.5,-403.5 308.5,-433.5 443.5,-433.5 443.5,-403.5 308.5,-403.5"/>
<text text-anchor="start" x="316.5" y="-421.5" font-family="Helvetica,sans-Serif" font-size="10.00">boost/preprocessor</text>
<text text-anchor="middle" x="376" y="-410.5" font-family="Helvetica,sans-Serif" font-size="10.00">/comparison/greater.hpp</text>
</a>
</g>
</g>
<!-- Node7&#45;&gt;Node25 -->
<g id="edge32" class="edge">
<title>Node7&#45;&gt;Node25</title>
<path fill="none" stroke="midnightblue" d="M678.44,-470.79C624.37,-462.4 538.17,-448.77 453.62,-434.08"/>
<polygon fill="midnightblue" stroke="midnightblue" points="454.04,-430.6 443.59,-432.33 452.84,-437.5 454.04,-430.6"/>
</g>
<!-- Node26 -->
<g id="node26" class="node">
<title>Node26</title>
<g id="a_node26"><a xlink:title=" ">
<polygon fill="white" stroke="#bfbfbf" points="832,-168.5 832,-198.5 942,-198.5 942,-168.5 832,-168.5"/>
<text text-anchor="start" x="840" y="-186.5" font-family="Helvetica,sans-Serif" font-size="10.00">boost/preprocessor</text>
<text text-anchor="middle" x="887" y="-175.5" font-family="Helvetica,sans-Serif" font-size="10.00">/control/if.hpp</text>
</a>
</g>
</g>
<!-- Node7&#45;&gt;Node26 -->
<g id="edge33" class="edge">
<title>Node7&#45;&gt;Node26</title>
<path fill="none" stroke="midnightblue" d="M785.58,-475.57C843.56,-470.62 930.52,-459.12 951,-434 1006.75,-365.63 938.56,-254.46 904.35,-207.06"/>
<polygon fill="midnightblue" stroke="midnightblue" points="906.96,-204.69 898.2,-198.72 901.32,-208.85 906.96,-204.69"/>
</g>
<!-- Node27 -->
<g id="node27" class="node">
<title>Node27</title>
<g id="a_node27"><a xlink:title=" ">
<polygon fill="white" stroke="#bfbfbf" points="189,-168.5 189,-198.5 299,-198.5 299,-168.5 189,-168.5"/>
<text text-anchor="start" x="197" y="-186.5" font-family="Helvetica,sans-Serif" font-size="10.00">boost/preprocessor</text>
<text text-anchor="middle" x="244" y="-175.5" font-family="Helvetica,sans-Serif" font-size="10.00">/stringize.hpp</text>
</a>
</g>
</g>
<!-- Node7&#45;&gt;Node27 -->
<g id="edge34" class="edge">
<title>Node7&#45;&gt;Node27</title>
<path fill="none" stroke="midnightblue" d="M678.29,-476.55C565.59,-470.99 312.19,-456.17 280,-434 248.9,-412.58 242,-395.76 242,-358 242,-358 242,-358 242,-300 242,-268.49 242.75,-232.15 243.34,-208.78"/>
<polygon fill="midnightblue" stroke="midnightblue" points="246.84,-208.81 243.6,-198.72 239.84,-208.63 246.84,-208.81"/>
</g>
<!-- Node28 -->
<g id="node28" class="node">
<title>Node28</title>
<g id="a_node28"><a xlink:title=" ">
<polygon fill="white" stroke="#bfbfbf" points="462,-403.5 462,-433.5 572,-433.5 572,-403.5 462,-403.5"/>
<text text-anchor="start" x="470" y="-421.5" font-family="Helvetica,sans-Serif" font-size="10.00">boost/preprocessor</text>
<text text-anchor="middle" x="517" y="-410.5" font-family="Helvetica,sans-Serif" font-size="10.00">/variadic/size.hpp</text>
</a>
</g>
</g>
<!-- Node7&#45;&gt;Node28 -->
<g id="edge35" class="edge">
<title>Node7&#45;&gt;Node28</title>
<path fill="none" stroke="midnightblue" d="M701.2,-470.48C669.02,-461.57 617.7,-447.37 577.4,-436.22"/>
<polygon fill="midnightblue" stroke="midnightblue" points="578.24,-432.82 567.67,-433.52 576.38,-439.56 578.24,-432.82"/>
</g>
<!-- Node29 -->
<g id="node29" class="node">
<title>Node29</title>
<g id="a_node29"><a xlink:href="ArgumentFormatter_8hpp.html" target="_top" xlink:title=" ">
<polygon fill="white" stroke="black" points="474.5,-235.5 474.5,-254.5 631.5,-254.5 631.5,-235.5 474.5,-235.5"/>
<text text-anchor="middle" x="553" y="-242.5" font-family="Helvetica,sans-Serif" font-size="10.00">utils/ArgumentFormatter.hpp</text>
</a>
</g>
</g>
<!-- Node7&#45;&gt;Node29 -->
<g id="edge36" class="edge">
<title>Node7&#45;&gt;Node29</title>
<path fill="none" stroke="midnightblue" d="M678.42,-477.37C568.14,-473.45 323.99,-461.72 299,-434 225.61,-352.58 421.49,-283.74 511.04,-257.43"/>
<polygon fill="midnightblue" stroke="midnightblue" points="512.26,-260.72 520.9,-254.58 510.32,-254 512.26,-260.72"/>
</g>
<!-- Node33 -->
<g id="node33" class="node">
<title>Node33</title>
<g id="a_node33"><a xlink:href="Parallel_8hpp.html" target="_top" xlink:title=" ">
<polygon fill="white" stroke="black" points="590,-409 590,-428 688,-428 688,-409 590,-409"/>
<text text-anchor="middle" x="639" y="-416" font-family="Helvetica,sans-Serif" font-size="10.00">utils/Parallel.hpp</text>
</a>
</g>
</g>
<!-- Node7&#45;&gt;Node33 -->
<g id="edge43" class="edge">
<title>Node7&#45;&gt;Node33</title>
<path fill="none" stroke="midnightblue" d="M718.68,-470.48C703.62,-460.84 678.88,-445.02 660.96,-433.55"/>
<polygon fill="midnightblue" stroke="midnightblue" points="662.61,-430.45 652.3,-428.01 658.84,-436.35 662.61,-430.45"/>
</g>
<!-- Node41 -->
<g id="node41" class="node">
<title>Node41</title>
<g id="a_node41"><a xlink:href="stacktrace_8hpp.html" target="_top" xlink:title=" ">
<polygon fill="white" stroke="black" points="1036.5,-291.5 1036.5,-310.5 1149.5,-310.5 1149.5,-291.5 1036.5,-291.5"/>
<text text-anchor="middle" x="1093" y="-298.5" font-family="Helvetica,sans-Serif" font-size="10.00">utils/stacktrace.hpp</text>
</a>
</g>
</g>
<!-- Node7&#45;&gt;Node41 -->
<g id="edge58" class="edge">
<title>Node7&#45;&gt;Node41</title>
<path fill="none" stroke="midnightblue" d="M785.74,-476.33C858.88,-471.74 984.93,-460.22 1022,-434 1061.37,-406.15 1080.95,-349.45 1088.76,-320.26"/>
<polygon fill="midnightblue" stroke="midnightblue" points="1092.16,-321.09 1091.19,-310.54 1085.37,-319.39 1092.16,-321.09"/>
</g>
<!-- Node42 -->
<g id="node42" class="node">
<title>Node42</title>
<g id="a_node42"><a xlink:title=" ">
<polygon fill="white" stroke="#bfbfbf" points="706,-409 706,-428 758,-428 758,-409 706,-409"/>
<text text-anchor="middle" x="732" y="-416" font-family="Helvetica,sans-Serif" font-size="10.00">cassert</text>
</a>
</g>
</g>
<!-- Node7&#45;&gt;Node42 -->
<g id="edge60" class="edge">
<title>Node7&#45;&gt;Node42</title>
<path fill="none" stroke="midnightblue" d="M732,-470.48C732,-462.08 732,-448.98 732,-438.16"/>
<polygon fill="midnightblue" stroke="midnightblue" points="735.5,-438.01 732,-428.01 728.5,-438.01 735.5,-438.01"/>
</g>
<!-- Node11&#45;&gt;Node10 -->
<g id="edge14" class="edge">
<title>Node11&#45;&gt;Node10</title>
<path fill="none" stroke="midnightblue" d="M801.94,-173.98C835.97,-163.59 893.58,-146.01 931.46,-134.45"/>
<polygon fill="midnightblue" stroke="midnightblue" points="932.57,-137.78 941.11,-131.51 930.53,-131.08 932.57,-137.78"/>
</g>
<!-- Node12 -->
<g id="node12" class="node">
<title>Node12</title>
<g id="a_node12"><a xlink:title=" ">
<polygon fill="white" stroke="#bfbfbf" points="1024,-112.5 1024,-131.5 1068,-131.5 1068,-112.5 1024,-112.5"/>
<text text-anchor="middle" x="1046" y="-119.5" font-family="Helvetica,sans-Serif" font-size="10.00">string</text>
</a>
</g>
</g>
<!-- Node11&#45;&gt;Node12 -->
<g id="edge13" class="edge">
<title>Node11&#45;&gt;Node12</title>
<path fill="none" stroke="midnightblue" d="M801.08,-173.95C808.17,-171.86 815.84,-169.73 823,-168 904.35,-148.39 928.79,-151.84 1013.89,-132.07"/>
<polygon fill="midnightblue" stroke="midnightblue" points="1014.79,-135.46 1023.72,-129.75 1013.18,-128.64 1014.79,-135.46"/>
</g>
<!-- Node13 -->
<g id="node13" class="node">
<title>Node13</title>
<g id="a_node13"><a xlink:title=" ">
<polygon fill="white" stroke="#bfbfbf" points="604.5,-56.5 604.5,-75.5 683.5,-75.5 683.5,-56.5 604.5,-56.5"/>
<text text-anchor="middle" x="644" y="-63.5" font-family="Helvetica,sans-Serif" font-size="10.00">fmt/format.h</text>
</a>
</g>
</g>
<!-- Node11&#45;&gt;Node13 -->
<g id="edge15" class="edge">
<title>Node11&#45;&gt;Node13</title>
<path fill="none" stroke="midnightblue" d="M768.48,-173.91C759.11,-159.79 738.98,-131.34 717,-112 702.88,-99.58 684.92,-88.45 670.35,-80.38"/>
<polygon fill="midnightblue" stroke="midnightblue" points="671.8,-77.18 661.33,-75.53 668.48,-83.35 671.8,-77.18"/>
</g>
<!-- Node14 -->
<g id="node14" class="node">
<title>Node14</title>
<g id="a_node14"><a xlink:title=" ">
<polygon fill="white" stroke="#bfbfbf" points="622,-112.5 622,-131.5 708,-131.5 708,-112.5 622,-112.5"/>
<text text-anchor="middle" x="665" y="-119.5" font-family="Helvetica,sans-Serif" font-size="10.00">fmt/ostream.h</text>
</a>
</g>
</g>
<!-- Node11&#45;&gt;Node14 -->
<g id="edge16" class="edge">
<title>Node11&#45;&gt;Node14</title>
<path fill="none" stroke="midnightblue" d="M758.38,-173.98C740.41,-164.17 710.68,-147.93 689.59,-136.42"/>
<polygon fill="midnightblue" stroke="midnightblue" points="691.04,-133.23 680.59,-131.51 687.69,-139.37 691.04,-133.23"/>
</g>
<!-- Node15 -->
<g id="node15" class="node">
<title>Node15</title>
<g id="a_node15"><a xlink:href="fmtEigen_8hpp.html" target="_top" xlink:title=" ">
<polygon fill="white" stroke="black" points="123,-112.5 123,-131.5 229,-131.5 229,-112.5 123,-112.5"/>
<text text-anchor="middle" x="176" y="-119.5" font-family="Helvetica,sans-Serif" font-size="10.00">utils/fmtEigen.hpp</text>
</a>
</g>
</g>
<!-- Node11&#45;&gt;Node15 -->
<g id="edge17" class="edge">
<title>Node11&#45;&gt;Node15</title>
<path fill="none" stroke="midnightblue" d="M749.34,-173.96C741.92,-171.69 733.7,-169.46 726,-168 551.96,-134.98 342.41,-126.18 239.44,-123.84"/>
<polygon fill="midnightblue" stroke="midnightblue" points="239.28,-120.34 229.21,-123.63 239.13,-127.34 239.28,-120.34"/>
</g>
<!-- Node19 -->
<g id="node19" class="node">
<title>Node19</title>
<g id="a_node19"><a xlink:href="fmtSTL_8hpp.html" target="_top" xlink:title=" ">
<polygon fill="white" stroke="black" points="764,-112.5 764,-131.5 860,-131.5 860,-112.5 764,-112.5"/>
<text text-anchor="middle" x="812" y="-119.5" font-family="Helvetica,sans-Serif" font-size="10.00">utils/fmtSTL.hpp</text>
</a>
</g>
</g>
<!-- Node11&#45;&gt;Node19 -->
<g id="edge24" class="edge">
<title>Node11&#45;&gt;Node19</title>
<path fill="none" stroke="midnightblue" d="M779.44,-173.98C785.09,-165.14 794.06,-151.09 801.16,-139.98"/>
<polygon fill="midnightblue" stroke="midnightblue" points="804.13,-141.82 806.57,-131.51 798.23,-138.05 804.13,-141.82"/>
</g>
<!-- Node15&#45;&gt;Node2 -->
<g id="edge18" class="edge">
<title>Node15&#45;&gt;Node2</title>
<path fill="none" stroke="midnightblue" d="M228.9,-112.46C268.43,-104.87 317.68,-92.44 330,-76 344.05,-57.26 319.87,-37.4 298.58,-24.64"/>
<polygon fill="midnightblue" stroke="midnightblue" points="300.17,-21.52 289.75,-19.63 296.72,-27.61 300.17,-21.52"/>
</g>
<!-- Node15&#45;&gt;Node13 -->
<g id="edge20" class="edge">
<title>Node15&#45;&gt;Node13</title>
<path fill="none" stroke="midnightblue" d="M229.02,-113.77C233.74,-113.16 238.46,-112.56 243,-112 369.34,-96.43 518.35,-80.29 594.2,-72.24"/>
<polygon fill="midnightblue" stroke="midnightblue" points="594.83,-75.69 604.41,-71.15 594.1,-68.73 594.83,-75.69"/>
</g>
<!-- Node16 -->
<g id="node16" class="node">
<title>Node16</title>
<g id="a_node16"><a xlink:title=" ">
<polygon fill="white" stroke="#bfbfbf" points="66,-56.5 66,-75.5 130,-75.5 130,-56.5 66,-56.5"/>
<text text-anchor="middle" x="98" y="-63.5" font-family="Helvetica,sans-Serif" font-size="10.00">algorithm</text>
</a>
</g>
</g>
<!-- Node15&#45;&gt;Node16 -->
<g id="edge19" class="edge">
<title>Node15&#45;&gt;Node16</title>
<path fill="none" stroke="midnightblue" d="M163.47,-112.32C151.41,-103.98 132.97,-91.21 118.73,-81.35"/>
<polygon fill="midnightblue" stroke="midnightblue" points="120.72,-78.47 110.5,-75.65 116.73,-84.22 120.72,-78.47"/>
</g>
<!-- Node17 -->
<g id="node17" class="node">
<title>Node17</title>
<g id="a_node17"><a xlink:title=" ">
<polygon fill="white" stroke="#bfbfbf" points="148,-56.5 148,-75.5 204,-75.5 204,-56.5 148,-56.5"/>
<text text-anchor="middle" x="176" y="-63.5" font-family="Helvetica,sans-Serif" font-size="10.00">sstream</text>
</a>
</g>
</g>
<!-- Node15&#45;&gt;Node17 -->
<g id="edge21" class="edge">
<title>Node15&#45;&gt;Node17</title>
<path fill="none" stroke="midnightblue" d="M176,-112.08C176,-105.01 176,-94.86 176,-85.99"/>
<polygon fill="midnightblue" stroke="midnightblue" points="179.5,-85.75 176,-75.75 172.5,-85.75 179.5,-85.75"/>
</g>
<!-- Node18 -->
<g id="node18" class="node">
<title>Node18</title>
<g id="a_node18"><a xlink:href="EigenIO_8hpp.html" target="_top" xlink:title=" ">
<polygon fill="white" stroke="black" points="222.5,-56.5 222.5,-75.5 321.5,-75.5 321.5,-56.5 222.5,-56.5"/>
<text text-anchor="middle" x="272" y="-63.5" font-family="Helvetica,sans-Serif" font-size="10.00">utils/EigenIO.hpp</text>
</a>
</g>
</g>
<!-- Node15&#45;&gt;Node18 -->
<g id="edge22" class="edge">
<title>Node15&#45;&gt;Node18</title>
<path fill="none" stroke="midnightblue" d="M191.42,-112.32C206.54,-103.82 229.82,-90.73 247.47,-80.8"/>
<polygon fill="midnightblue" stroke="midnightblue" points="249.61,-83.61 256.61,-75.65 246.18,-77.51 249.61,-83.61"/>
</g>
<!-- Node18&#45;&gt;Node2 -->
<g id="edge23" class="edge">
<title>Node18&#45;&gt;Node2</title>
<path fill="none" stroke="midnightblue" d="M272,-56.08C272,-49.01 272,-38.86 272,-29.99"/>
<polygon fill="midnightblue" stroke="midnightblue" points="275.5,-29.75 272,-19.75 268.5,-29.75 275.5,-29.75"/>
</g>
<!-- Node19&#45;&gt;Node5 -->
<g id="edge25" class="edge">
<title>Node19&#45;&gt;Node5</title>
<path fill="none" stroke="midnightblue" d="M851.14,-112.44C900.13,-101.73 983.04,-83.61 1027.91,-73.8"/>
<polygon fill="midnightblue" stroke="midnightblue" points="1028.92,-77.16 1037.94,-71.6 1027.42,-70.32 1028.92,-77.16"/>
</g>
<!-- Node19&#45;&gt;Node13 -->
<g id="edge27" class="edge">
<title>Node19&#45;&gt;Node13</title>
<path fill="none" stroke="midnightblue" d="M785.38,-112.44C756.99,-103.32 711.86,-88.81 680.25,-78.65"/>
<polygon fill="midnightblue" stroke="midnightblue" points="681.09,-75.24 670.5,-75.52 678.94,-81.91 681.09,-75.24"/>
</g>
<!-- Node20 -->
<g id="node20" class="node">
<title>Node20</title>
<g id="a_node20"><a xlink:title=" ">
<polygon fill="white" stroke="#bfbfbf" points="817.5,-56.5 817.5,-75.5 864.5,-75.5 864.5,-56.5 817.5,-56.5"/>
<text text-anchor="middle" x="841" y="-63.5" font-family="Helvetica,sans-Serif" font-size="10.00">deque</text>
</a>
</g>
</g>
<!-- Node19&#45;&gt;Node20 -->
<g id="edge26" class="edge">
<title>Node19&#45;&gt;Node20</title>
<path fill="none" stroke="midnightblue" d="M816.79,-112.08C820.76,-104.69 826.53,-93.95 831.43,-84.81"/>
<polygon fill="midnightblue" stroke="midnightblue" points="834.65,-86.22 836.3,-75.75 828.49,-82.91 834.65,-86.22"/>
</g>
<!-- Node21 -->
<g id="node21" class="node">
<title>Node21</title>
<g id="a_node21"><a xlink:title=" ">
<polygon fill="white" stroke="#bfbfbf" points="883,-56.5 883,-75.5 921,-75.5 921,-56.5 883,-56.5"/>
<text text-anchor="middle" x="902" y="-63.5" font-family="Helvetica,sans-Serif" font-size="10.00">map</text>
</a>
</g>
</g>
<!-- Node19&#45;&gt;Node21 -->
<g id="edge28" class="edge">
<title>Node19&#45;&gt;Node21</title>
<path fill="none" stroke="midnightblue" d="M826.46,-112.32C840.5,-103.9 862.05,-90.97 878.54,-81.07"/>
<polygon fill="midnightblue" stroke="midnightblue" points="880.8,-83.8 887.58,-75.65 877.2,-77.8 880.8,-83.8"/>
</g>
<!-- Node22 -->
<g id="node22" class="node">
<title>Node22</title>
<g id="a_node22"><a xlink:title=" ">
<polygon fill="white" stroke="#bfbfbf" points="767,-56.5 767,-75.5 799,-75.5 799,-56.5 767,-56.5"/>
<text text-anchor="middle" x="783" y="-63.5" font-family="Helvetica,sans-Serif" font-size="10.00">set</text>
</a>
</g>
</g>
<!-- Node19&#45;&gt;Node22 -->
<g id="edge29" class="edge">
<title>Node19&#45;&gt;Node22</title>
<path fill="none" stroke="midnightblue" d="M807.21,-112.08C803.24,-104.69 797.47,-93.95 792.57,-84.81"/>
<polygon fill="midnightblue" stroke="midnightblue" points="795.51,-82.91 787.7,-75.75 789.35,-86.22 795.51,-82.91"/>
</g>
<!-- Node23 -->
<g id="node23" class="node">
<title>Node23</title>
<g id="a_node23"><a xlink:title=" ">
<polygon fill="white" stroke="#bfbfbf" points="701.5,-56.5 701.5,-75.5 748.5,-75.5 748.5,-56.5 701.5,-56.5"/>
<text text-anchor="middle" x="725" y="-63.5" font-family="Helvetica,sans-Serif" font-size="10.00">vector</text>
</a>
</g>
</g>
<!-- Node19&#45;&gt;Node23 -->
<g id="edge30" class="edge">
<title>Node19&#45;&gt;Node23</title>
<path fill="none" stroke="midnightblue" d="M798.02,-112.32C784.45,-103.9 763.62,-90.97 747.68,-81.07"/>
<polygon fill="midnightblue" stroke="midnightblue" points="749.29,-77.95 738.94,-75.65 745.59,-83.9 749.29,-77.95"/>
</g>
<!-- Node29&#45;&gt;Node11 -->
<g id="edge42" class="edge">
<title>Node29&#45;&gt;Node11</title>
<path fill="none" stroke="midnightblue" d="M587.57,-235.43C622.57,-226.65 678.2,-212.43 726,-199 729.41,-198.04 732.96,-197.02 736.5,-195.98"/>
<polygon fill="midnightblue" stroke="midnightblue" points="737.8,-199.25 746.39,-193.04 735.8,-192.54 737.8,-199.25"/>
</g>
<!-- Node29&#45;&gt;Node26 -->
<g id="edge37" class="edge">
<title>Node29&#45;&gt;Node26</title>
<path fill="none" stroke="midnightblue" d="M610.06,-235.47C662.58,-227.39 742.87,-214.49 821.77,-199.18"/>
<polygon fill="midnightblue" stroke="midnightblue" points="822.74,-202.55 831.88,-197.2 821.4,-195.68 822.74,-202.55"/>
</g>
<!-- Node29&#45;&gt;Node27 -->
<g id="edge39" class="edge">
<title>Node29&#45;&gt;Node27</title>
<path fill="none" stroke="midnightblue" d="M503.14,-235.46C455.69,-227.2 382.03,-214.01 308.96,-199.15"/>
<polygon fill="midnightblue" stroke="midnightblue" points="309.63,-195.71 299.13,-197.14 308.22,-202.57 309.63,-195.71"/>
</g>
<!-- Node30 -->
<g id="node30" class="node">
<title>Node30</title>
<g id="a_node30"><a xlink:title=" ">
<polygon fill="white" stroke="#bfbfbf" points="605.5,-168.5 605.5,-198.5 716.5,-198.5 716.5,-168.5 605.5,-168.5"/>
<text text-anchor="start" x="613.5" y="-186.5" font-family="Helvetica,sans-Serif" font-size="10.00">boost/preprocessor</text>
<text text-anchor="middle" x="661" y="-175.5" font-family="Helvetica,sans-Serif" font-size="10.00">/seq/for_each_i.hpp</text>
</a>
</g>
</g>
<!-- Node29&#45;&gt;Node30 -->
<g id="edge38" class="edge">
<title>Node29&#45;&gt;Node30</title>
<path fill="none" stroke="midnightblue" d="M568.47,-235.48C583.58,-227.15 607.08,-214.21 626.61,-203.45"/>
<polygon fill="midnightblue" stroke="midnightblue" points="628.48,-206.41 635.55,-198.52 625.1,-200.28 628.48,-206.41"/>
</g>
<!-- Node31 -->
<g id="node31" class="node">
<title>Node31</title>
<g id="a_node31"><a xlink:title=" ">
<polygon fill="white" stroke="#bfbfbf" points="317.5,-168.5 317.5,-198.5 432.5,-198.5 432.5,-168.5 317.5,-168.5"/>
<text text-anchor="start" x="325.5" y="-186.5" font-family="Helvetica,sans-Serif" font-size="10.00">boost/preprocessor</text>
<text text-anchor="middle" x="375" y="-175.5" font-family="Helvetica,sans-Serif" font-size="10.00">/variadic/to_seq.hpp</text>
</a>
</g>
</g>
<!-- Node29&#45;&gt;Node31 -->
<g id="edge40" class="edge">
<title>Node29&#45;&gt;Node31</title>
<path fill="none" stroke="midnightblue" d="M527.5,-235.48C501.25,-226.7 459.63,-212.79 426.49,-201.71"/>
<polygon fill="midnightblue" stroke="midnightblue" points="427.54,-198.37 416.95,-198.52 425.33,-205.01 427.54,-198.37"/>
</g>
<!-- Node32 -->
<g id="node32" class="node">
<title>Node32</title>
<g id="a_node32"><a xlink:title=" ">
<polygon fill="white" stroke="#bfbfbf" points="451,-174 451,-193 587,-193 587,-174 451,-174"/>
<text text-anchor="middle" x="519" y="-181" font-family="Helvetica,sans-Serif" font-size="10.00">boost/vmd/is_empty.hpp</text>
</a>
</g>
</g>
<!-- Node29&#45;&gt;Node32 -->
<g id="edge41" class="edge">
<title>Node29&#45;&gt;Node32</title>
<path fill="none" stroke="midnightblue" d="M548.13,-235.48C543.13,-226.73 535.21,-212.87 528.89,-201.81"/>
<polygon fill="midnightblue" stroke="midnightblue" points="531.86,-199.96 523.86,-193.01 525.78,-203.43 531.86,-199.96"/>
</g>
<!-- Node33&#45;&gt;Node12 -->
<g id="edge46" class="edge">
<title>Node33&#45;&gt;Node12</title>
<path fill="none" stroke="midnightblue" d="M672.94,-408.94C728.82,-394.82 834.24,-368.09 836,-367 933.56,-306.44 1009.79,-185.92 1036.09,-140.69"/>
<polygon fill="midnightblue" stroke="midnightblue" points="1039.25,-142.2 1041.18,-131.78 1033.18,-138.72 1039.25,-142.2"/>
</g>
<!-- Node33&#45;&gt;Node23 -->
<g id="edge47" class="edge">
<title>Node33&#45;&gt;Node23</title>
<path fill="none" stroke="midnightblue" d="M604.72,-408.93C554.22,-396.2 464.22,-373.16 450,-367 313.21,-307.74 84.35,-282.34 180,-168 215.6,-125.45 602.01,-91.89 691.32,-75.94"/>
<polygon fill="midnightblue" stroke="midnightblue" points="692.18,-79.33 701.3,-73.94 690.81,-72.47 692.18,-79.33"/>
</g>
<!-- Node34 -->
<g id="node34" class="node">
<title>Node34</title>
<g id="a_node34"><a xlink:title=" ">
<polygon fill="white" stroke="#bfbfbf" points="530,-347.5 530,-366.5 578,-366.5 578,-347.5 530,-347.5"/>
<text text-anchor="middle" x="554" y="-354.5" font-family="Helvetica,sans-Serif" font-size="10.00">iosfwd</text>
</a>
</g>
</g>
<!-- Node33&#45;&gt;Node34 -->
<g id="edge44" class="edge">
<title>Node33&#45;&gt;Node34</title>
<path fill="none" stroke="midnightblue" d="M626.82,-408.98C613.19,-399.43 590.87,-383.81 574.53,-372.37"/>
<polygon fill="midnightblue" stroke="midnightblue" points="576.36,-369.38 566.16,-366.51 572.34,-375.11 576.36,-369.38"/>
</g>
<!-- Node35 -->
<g id="node35" class="node">
<title>Node35</title>
<g id="a_node35"><a xlink:title=" ">
<polygon fill="white" stroke="#bfbfbf" points="491,-291.5 491,-310.5 549,-310.5 549,-291.5 491,-291.5"/>
<text text-anchor="middle" x="520" y="-298.5" font-family="Helvetica,sans-Serif" font-size="10.00">memory</text>
</a>
</g>
</g>
<!-- Node33&#45;&gt;Node35 -->
<g id="edge45" class="edge">
<title>Node33&#45;&gt;Node35</title>
<path fill="none" stroke="midnightblue" d="M606.5,-408.91C555.27,-395.3 461.28,-370.01 459,-367 444.46,-347.81 470.11,-327.94 492.49,-315.3"/>
<polygon fill="midnightblue" stroke="midnightblue" points="494.27,-318.32 501.43,-310.51 490.96,-312.15 494.27,-318.32"/>
</g>
<!-- Node36 -->
<g id="node36" class="node">
<title>Node36</title>
<g id="a_node36"><a xlink:href="Logger_8hpp.html" target="_top" xlink:title=" ">
<polygon fill="white" stroke="black" points="717.5,-347.5 717.5,-366.5 826.5,-366.5 826.5,-347.5 717.5,-347.5"/>
<text text-anchor="middle" x="772" y="-354.5" font-family="Helvetica,sans-Serif" font-size="10.00">logging/Logger.hpp</text>
</a>
</g>
</g>
<!-- Node33&#45;&gt;Node36 -->
<g id="edge48" class="edge">
<title>Node33&#45;&gt;Node36</title>
<path fill="none" stroke="midnightblue" d="M658.06,-408.98C680.47,-398.95 717.91,-382.2 743.71,-370.65"/>
<polygon fill="midnightblue" stroke="midnightblue" points="745.28,-373.79 752.98,-366.51 742.42,-367.4 745.28,-373.79"/>
</g>
<!-- Node39 -->
<g id="node39" class="node">
<title>Node39</title>
<g id="a_node39"><a xlink:href="types_8hpp.html" target="_top" xlink:title=" ">
<polygon fill="white" stroke="black" points="596.5,-347.5 596.5,-366.5 699.5,-366.5 699.5,-347.5 596.5,-347.5"/>
<text text-anchor="middle" x="648" y="-354.5" font-family="Helvetica,sans-Serif" font-size="10.00">precice/types.hpp</text>
</a>
</g>
</g>
<!-- Node33&#45;&gt;Node39 -->
<g id="edge56" class="edge">
<title>Node33&#45;&gt;Node39</title>
<path fill="none" stroke="midnightblue" d="M640.29,-408.98C641.56,-400.58 643.54,-387.48 645.18,-376.66"/>
<polygon fill="midnightblue" stroke="midnightblue" points="648.68,-376.92 646.71,-366.51 641.76,-375.87 648.68,-376.92"/>
</g>
<!-- Node40 -->
<g id="node40" class="node">
<title>Node40</title>
<g id="a_node40"><a xlink:title=" ">
<polygon fill="white" stroke="#bfbfbf" points="468,-347.5 468,-366.5 512,-366.5 512,-347.5 468,-347.5"/>
<text text-anchor="middle" x="490" y="-354.5" font-family="Helvetica,sans-Serif" font-size="10.00">mpi.h</text>
</a>
</g>
</g>
<!-- Node33&#45;&gt;Node40 -->
<g id="edge57" class="edge">
<title>Node33&#45;&gt;Node40</title>
<path fill="none" stroke="midnightblue" d="M617.65,-408.98C592.31,-398.86 549.86,-381.9 520.93,-370.35"/>
<polygon fill="midnightblue" stroke="midnightblue" points="521.89,-366.97 511.31,-366.51 519.3,-373.47 521.89,-366.97"/>
</g>
<!-- Node36&#45;&gt;Node10 -->
<g id="edge50" class="edge">
<title>Node36&#45;&gt;Node10</title>
<path fill="none" stroke="midnightblue" d="M787.05,-347.39C821.82,-326.66 908.06,-270.37 951,-199 961.58,-181.42 965.94,-158.08 967.74,-141.92"/>
<polygon fill="midnightblue" stroke="midnightblue" points="971.25,-141.88 968.65,-131.61 964.28,-141.27 971.25,-141.88"/>
</g>
<!-- Node36&#45;&gt;Node35 -->
<g id="edge49" class="edge">
<title>Node36&#45;&gt;Node35</title>
<path fill="none" stroke="midnightblue" d="M732.07,-347.44C684.62,-337.28 605.97,-320.42 558.95,-310.35"/>
<polygon fill="midnightblue" stroke="midnightblue" points="559.65,-306.92 549.14,-308.24 558.18,-313.76 559.65,-306.92"/>
</g>
<!-- Node37 -->
<g id="node37" class="node">
<title>Node37</title>
<g id="a_node37"><a xlink:href="LogMacros_8hpp.html" target="_top" xlink:title=" ">
<polygon fill="white" stroke="black" points="650,-291.5 650,-310.5 740,-310.5 740,-291.5 650,-291.5"/>
<text text-anchor="middle" x="695" y="-298.5" font-family="Helvetica,sans-Serif" font-size="10.00">LogMacros.hpp</text>
</a>
</g>
</g>
<!-- Node36&#45;&gt;Node37 -->
<g id="edge51" class="edge">
<title>Node36&#45;&gt;Node37</title>
<path fill="none" stroke="midnightblue" d="M759.63,-347.32C747.84,-339.06 729.87,-326.45 715.86,-316.63"/>
<polygon fill="midnightblue" stroke="midnightblue" points="717.54,-313.53 707.34,-310.65 713.52,-319.26 717.54,-313.53"/>
</g>
<!-- Node37&#45;&gt;Node11 -->
<g id="edge52" class="edge">
<title>Node37&#45;&gt;Node11</title>
<path fill="none" stroke="midnightblue" d="M695.56,-291.32C696.77,-278.18 700.52,-252.86 712,-235 721.58,-220.11 737.01,-207.52 750.07,-198.63"/>
<polygon fill="midnightblue" stroke="midnightblue" points="752.15,-201.46 758.64,-193.09 748.35,-195.58 752.15,-201.46"/>
</g>
<!-- Node37&#45;&gt;Node29 -->
<g id="edge53" class="edge">
<title>Node37&#45;&gt;Node29</title>
<path fill="none" stroke="midnightblue" d="M672.5,-291.44C648.92,-282.48 611.68,-268.31 585.04,-258.18"/>
<polygon fill="midnightblue" stroke="midnightblue" points="585.99,-254.8 575.4,-254.52 583.5,-261.34 585.99,-254.8"/>
</g>
<!-- Node38 -->
<g id="node38" class="node">
<title>Node38</title>
<g id="a_node38"><a xlink:href="Tracer_8hpp.html" target="_top" xlink:title=" ">
<polygon fill="white" stroke="black" points="720.5,-235.5 720.5,-254.5 825.5,-254.5 825.5,-235.5 720.5,-235.5"/>
<text text-anchor="middle" x="773" y="-242.5" font-family="Helvetica,sans-Serif" font-size="10.00">logging/Tracer.hpp</text>
</a>
</g>
</g>
<!-- Node37&#45;&gt;Node38 -->
<g id="edge54" class="edge">
<title>Node37&#45;&gt;Node38</title>
<path fill="none" stroke="midnightblue" d="M707.53,-291.32C719.59,-282.98 738.03,-270.21 752.27,-260.35"/>
<polygon fill="midnightblue" stroke="midnightblue" points="754.27,-263.22 760.5,-254.65 750.28,-257.47 754.27,-263.22"/>
</g>
<!-- Node38&#45;&gt;Node36 -->
<g id="edge55" class="edge">
<title>Node38&#45;&gt;Node36</title>
<path fill="none" stroke="midnightblue" d="M772.92,-254.59C772.76,-272.31 772.39,-313.25 772.17,-337.35"/>
<polygon fill="midnightblue" stroke="midnightblue" points="768.67,-337.34 772.08,-347.37 775.67,-337.4 768.67,-337.34"/>
</g>
<!-- Node41&#45;&gt;Node12 -->
<g id="edge59" class="edge">
<title>Node41&#45;&gt;Node12</title>
<path fill="none" stroke="midnightblue" d="M1091.01,-291.31C1086.11,-270.12 1072.94,-214.17 1060,-168 1057.51,-159.13 1054.5,-149.35 1051.91,-141.18"/>
<polygon fill="midnightblue" stroke="midnightblue" points="1055.22,-140.03 1048.83,-131.58 1048.56,-142.18 1055.22,-140.03"/>
</g>
</g>
</svg>
        <g id="navigator" transform="translate(0 0)" fill="#404254">
                <rect fill="#f2f5e9" fill-opacity="0.5" stroke="#606060" stroke-width=".5" x="0" y="0" width="60" height="60"/>
                <use id="zoomplus" xlink:href="#zoomPlus" x="17" y="9" onmousedown="handleZoom(evt,'in')"/>
                <use id="zoomminus" xlink:href="#zoomMin" x="42" y="9" onmousedown="handleZoom(evt,'out')"/>
                <use id="reset" xlink:href="#resetDef" x="30" y="36" onmousedown="handleReset()"/>
                <g id="arrowUp" xlink:href="#dirArrow" transform="translate(30 24)" onmousedown="handlePan(0,-1)">
                  <use xlink:href="#rim" fill="#404040">
                        <set attributeName="fill" to="#808080" begin="arrowUp.mouseover" end="arrowUp.mouseout"/>
                  </use>
                  <path fill="none" stroke="white" stroke-width="1.5" d="M0,-3.0v7 M-2.5,-0.5L0,-3.0L2.5,-0.5"/>
                </g>
                <g id="arrowRight" xlink:href="#dirArrow" transform="rotate(90) translate(36 -43)" onmousedown="handlePan(1,0)">
                  <use xlink:href="#rim" fill="#404040">
                        <set attributeName="fill" to="#808080" begin="arrowRight.mouseover" end="arrowRight.mouseout"/>
                  </use>
                  <path fill="none" stroke="white" stroke-width="1.5" d="M0,-3.0v7 M-2.5,-0.5L0,-3.0L2.5,-0.5"/>
                </g>
                <g id="arrowDown" xlink:href="#dirArrow" transform="rotate(180) translate(-30 -48)" onmousedown="handlePan(0,1)">
                  <use xlink:href="#rim" fill="#404040">
                        <set attributeName="fill" to="#808080" begin="arrowDown.mouseover" end="arrowDown.mouseout"/>
                  </use>
                  <path fill="none" stroke="white" stroke-width="1.5" d="M0,-3.0v7 M-2.5,-0.5L0,-3.0L2.5,-0.5"/>
                </g>
                <g id="arrowLeft" xlink:href="#dirArrow" transform="rotate(270) translate(-36 17)" onmousedown="handlePan(-1,0)">
                  <use xlink:href="#rim" fill="#404040">
                        <set attributeName="fill" to="#808080" begin="arrowLeft.mouseover" end="arrowLeft.mouseout"/>
                  </use>
                  <path fill="none" stroke="white" stroke-width="1.5" d="M0,-3.0v7 M-2.5,-0.5L0,-3.0L2.5,-0.5"/>
                </g>
        </g>
        <svg viewBox="0 0 15 15" width="100%" height="30px" preserveAspectRatio="xMaxYMin meet">
         <g id="arrow_out" transform="scale(0.3 0.3)">
          <a xlink:href="barycenter_8hpp__incl_org.svg" target="_base">
           <rect id="button" ry="5" rx="5" y="6" x="6" height="38" width="38"
                fill="#f2f5e9" fill-opacity="0.5" stroke="#606060" stroke-width="1.0"/>
           <path id="arrow"
             d="M 11.500037,31.436501 C 11.940474,20.09759 22.043105,11.32322 32.158766,21.979434 L 37.068811,17.246167 C 37.068811,17.246167 37.088388,32 37.088388,32 L 22.160133,31.978069 C 22.160133,31.978069 26.997745,27.140456 26.997745,27.140456 C 18.528582,18.264221 13.291696,25.230495 11.500037,31.436501 z"
             style="fill:#404040;"/>
          </a>
         </g>
        </svg>
</svg>
