<?xml version="1.0" encoding="UTF-8" standalone="no"?>
<!DOCTYPE svg PUBLIC "-//W3C//DTD SVG 1.1//EN"
 "http://www.w3.org/Graphics/SVG/1.1/DTD/svg11.dtd">
<!-- Generated by graphviz version 2.43.0 (0)
 -->
<!-- Title: src/mapping/impl/BasisFunctions.hpp Pages: 1 -->
<svg width="1766pt" height="654pt"
 viewBox="0.00 0.00 1765.50 654.00" xmlns="http://www.w3.org/2000/svg" xmlns:xlink="http://www.w3.org/1999/xlink">
<g id="graph0" class="graph" transform="scale(1 1) rotate(0) translate(4 650)">
<title>src/mapping/impl/BasisFunctions.hpp</title>
<!-- Node1 -->
<g id="Node000001" class="node">
<title>Node1</title>
<g id="a_Node000001"><a xlink:title=" ">
<polygon fill="#999999" stroke="#666666" points="1416.5,-646 1218.5,-646 1218.5,-627 1416.5,-627 1416.5,-646"/>
<text text-anchor="middle" x="1317.5" y="-634" font-family="Helvetica,sans-Serif" font-size="10.00">src/mapping/impl/BasisFunctions.hpp</text>
</a>
</g>
</g>
<!-- Node2 -->
<g id="Node000002" class="node">
<title>Node2</title>
<g id="a_Node000002"><a target="_parent" xlink:href="http://en.cppreference.com/w/cpp/header/stdexcept.html" xlink:title=" ">
<polygon fill="white" stroke="#666666" points="311,-189.5 246,-189.5 246,-170.5 311,-170.5 311,-189.5"/>
<text text-anchor="middle" x="278.5" y="-177.5" font-family="Helvetica,sans-Serif" font-size="10.00">stdexcept</text>
</a>
</g>
</g>
<!-- Node1&#45;&gt;Node2 -->
<g id="edge1_Node000001_Node000002" class="edge">
<title>Node1&#45;&gt;Node2</title>
<g id="a_edge1_Node000001_Node000002"><a xlink:title=" ">
<path fill="none" stroke="#63b8ff" d="M1218.25,-631.55C934.73,-619.61 141.5,-581.38 141.5,-527.5 141.5,-527.5 141.5,-527.5 141.5,-410 141.5,-318.26 223.47,-231.43 260.6,-196.8"/>
<polygon fill="#63b8ff" stroke="#63b8ff" points="263.18,-199.19 268.2,-189.86 258.46,-194.02 263.18,-199.19"/>
</a>
</g>
</g>
<!-- Node3 -->
<g id="Node000003" class="node">
<title>Node3</title>
<g id="a_Node000003"><a xlink:title=" ">
<polygon fill="#e0e0e0" stroke="#999999" points="1481.5,-591 1381.5,-591 1381.5,-572 1481.5,-572 1481.5,-591"/>
<text text-anchor="middle" x="1431.5" y="-579" font-family="Helvetica,sans-Serif" font-size="10.00">Kokkos_Core.hpp</text>
</a>
</g>
</g>
<!-- Node1&#45;&gt;Node3 -->
<g id="edge2_Node000001_Node000003" class="edge">
<title>Node1&#45;&gt;Node3</title>
<g id="a_edge2_Node000001_Node000003"><a xlink:title=" ">
<path fill="none" stroke="#63b8ff" d="M1335.82,-626.98C1354.16,-618.46 1382.61,-605.23 1403.73,-595.41"/>
<polygon fill="#63b8ff" stroke="#63b8ff" points="1405.26,-598.56 1412.85,-591.17 1402.31,-592.21 1405.26,-598.56"/>
</a>
</g>
</g>
<!-- Node4 -->
<g id="Node000004" class="node">
<title>Node4</title>
<g id="a_Node000004"><a xlink:href="math_8hpp.html" target="_top" xlink:title=" ">
<polygon fill="white" stroke="#666666" points="1363.5,-591 1271.5,-591 1271.5,-572 1363.5,-572 1363.5,-591"/>
<text text-anchor="middle" x="1317.5" y="-579" font-family="Helvetica,sans-Serif" font-size="10.00">math/math.hpp</text>
</a>
</g>
</g>
<!-- Node1&#45;&gt;Node4 -->
<g id="edge3_Node000001_Node000004" class="edge">
<title>Node1&#45;&gt;Node4</title>
<g id="a_edge3_Node000001_Node000004"><a xlink:title=" ">
<path fill="none" stroke="#63b8ff" d="M1317.5,-626.75C1317.5,-619.8 1317.5,-609.85 1317.5,-601.13"/>
<polygon fill="#63b8ff" stroke="#63b8ff" points="1321,-601.09 1317.5,-591.09 1314,-601.09 1321,-601.09"/>
</a>
</g>
</g>
<!-- Node5 -->
<g id="Node000005" class="node">
<title>Node5</title>
<g id="a_Node000005"><a xlink:href="constants_8hpp.html" target="_top" xlink:title=" ">
<polygon fill="white" stroke="#666666" points="1430,-536 1317,-536 1317,-517 1430,-517 1430,-536"/>
<text text-anchor="middle" x="1373.5" y="-524" font-family="Helvetica,sans-Serif" font-size="10.00">math/constants.hpp</text>
</a>
</g>
</g>
<!-- Node4&#45;&gt;Node5 -->
<g id="edge4_Node000004_Node000005" class="edge">
<title>Node4&#45;&gt;Node5</title>
<g id="a_edge4_Node000004_Node000005"><a xlink:title=" ">
<path fill="none" stroke="#63b8ff" d="M1326.5,-571.98C1334.69,-564.23 1347.01,-552.58 1356.97,-543.14"/>
<polygon fill="#63b8ff" stroke="#63b8ff" points="1359.48,-545.59 1364.34,-536.17 1354.67,-540.5 1359.48,-545.59"/>
</a>
</g>
</g>
<!-- Node6 -->
<g id="Node000006" class="node">
<title>Node6</title>
<g id="a_Node000006"><a xlink:href="differences_8hpp.html" target="_top" xlink:title=" ">
<polygon fill="white" stroke="#666666" points="1757.5,-481 1637.5,-481 1637.5,-462 1757.5,-462 1757.5,-481"/>
<text text-anchor="middle" x="1697.5" y="-469" font-family="Helvetica,sans-Serif" font-size="10.00">math/differences.hpp</text>
</a>
</g>
</g>
<!-- Node4&#45;&gt;Node6 -->
<g id="edge5_Node000004_Node000006" class="edge">
<title>Node4&#45;&gt;Node6</title>
<g id="a_edge5_Node000004_Node000006"><a xlink:title=" ">
<path fill="none" stroke="#63b8ff" d="M1347.64,-571.94C1415.68,-552.6 1581.2,-505.55 1657.62,-483.83"/>
<polygon fill="#63b8ff" stroke="#63b8ff" points="1658.7,-487.17 1667.36,-481.07 1656.79,-480.43 1658.7,-487.17"/>
</a>
</g>
</g>
<!-- Node9 -->
<g id="Node000009" class="node">
<title>Node9</title>
<g id="a_Node000009"><a xlink:href="la_8hpp.html" target="_top" xlink:title=" ">
<polygon fill="white" stroke="#666666" points="1299,-536 1224,-536 1224,-517 1299,-517 1299,-536"/>
<text text-anchor="middle" x="1261.5" y="-524" font-family="Helvetica,sans-Serif" font-size="10.00">math/la.hpp</text>
</a>
</g>
</g>
<!-- Node4&#45;&gt;Node9 -->
<g id="edge8_Node000004_Node000009" class="edge">
<title>Node4&#45;&gt;Node9</title>
<g id="a_edge8_Node000004_Node000009"><a xlink:title=" ">
<path fill="none" stroke="#63b8ff" d="M1308.5,-571.98C1300.31,-564.23 1287.99,-552.58 1278.03,-543.14"/>
<polygon fill="#63b8ff" stroke="#63b8ff" points="1280.33,-540.5 1270.66,-536.17 1275.52,-545.59 1280.33,-540.5"/>
</a>
</g>
</g>
<!-- Node7 -->
<g id="Node000007" class="node">
<title>Node7</title>
<g id="a_Node000007"><a xlink:title=" ">
<polygon fill="#e0e0e0" stroke="#999999" points="1463,-19 1394,-19 1394,0 1463,0 1463,-19"/>
<text text-anchor="middle" x="1428.5" y="-7" font-family="Helvetica,sans-Serif" font-size="10.00">Eigen/Core</text>
</a>
</g>
</g>
<!-- Node6&#45;&gt;Node7 -->
<g id="edge6_Node000006_Node000007" class="edge">
<title>Node6&#45;&gt;Node7</title>
<g id="a_edge6_Node000006_Node000007"><a xlink:title=" ">
<path fill="none" stroke="#63b8ff" d="M1696.03,-461.87C1692.82,-442.3 1685.5,-393.03 1685.5,-351.5 1685.5,-351.5 1685.5,-351.5 1685.5,-118.5 1685.5,-27.63 1547.24,-11.96 1473.54,-10.06"/>
<polygon fill="#63b8ff" stroke="#63b8ff" points="1473.22,-6.55 1463.16,-9.87 1473.1,-13.55 1473.22,-6.55"/>
</a>
</g>
</g>
<!-- Node8 -->
<g id="Node000008" class="node">
<title>Node8</title>
<g id="a_Node000008"><a target="_parent" xlink:href="http://en.cppreference.com/w/cpp/header/cstdlib.html" xlink:title=" ">
<polygon fill="white" stroke="#666666" points="1594,-420.5 1545,-420.5 1545,-401.5 1594,-401.5 1594,-420.5"/>
<text text-anchor="middle" x="1569.5" y="-408.5" font-family="Helvetica,sans-Serif" font-size="10.00">cstdlib</text>
</a>
</g>
</g>
<!-- Node6&#45;&gt;Node8 -->
<g id="edge7_Node000006_Node000008" class="edge">
<title>Node6&#45;&gt;Node8</title>
<g id="a_edge7_Node000006_Node000008"><a xlink:title=" ">
<path fill="none" stroke="#63b8ff" d="M1678.89,-461.99C1657.46,-452.2 1622.06,-436.02 1597.35,-424.73"/>
<polygon fill="#63b8ff" stroke="#63b8ff" points="1598.68,-421.49 1588.13,-420.52 1595.78,-427.86 1598.68,-421.49"/>
</a>
</g>
</g>
<!-- Node9&#45;&gt;Node7 -->
<g id="edge9_Node000009_Node000007" class="edge">
<title>Node9&#45;&gt;Node7</title>
<g id="a_edge9_Node000009_Node000007"><a xlink:title=" ">
<path fill="none" stroke="#63b8ff" d="M1298.46,-516.94C1382.4,-497.18 1581.84,-448.39 1603.5,-426 1627.26,-401.44 1622.5,-385.67 1622.5,-351.5 1622.5,-351.5 1622.5,-351.5 1622.5,-118.5 1622.5,-50.5 1530.38,-24.93 1473.1,-15.61"/>
<polygon fill="#63b8ff" stroke="#63b8ff" points="1473.6,-12.14 1463.18,-14.1 1472.54,-19.06 1473.6,-12.14"/>
</a>
</g>
</g>
<!-- Node10 -->
<g id="Node000010" class="node">
<title>Node10</title>
<g id="a_Node000010"><a xlink:href="assertion_8hpp.html" target="_top" xlink:title=" ">
<polygon fill="white" stroke="#666666" points="1248,-481 1141,-481 1141,-462 1248,-462 1248,-481"/>
<text text-anchor="middle" x="1194.5" y="-469" font-family="Helvetica,sans-Serif" font-size="10.00">utils/assertion.hpp</text>
</a>
</g>
</g>
<!-- Node9&#45;&gt;Node10 -->
<g id="edge10_Node000009_Node000010" class="edge">
<title>Node9&#45;&gt;Node10</title>
<g id="a_edge10_Node000009_Node000010"><a xlink:title=" ">
<path fill="none" stroke="#63b8ff" d="M1250.74,-516.98C1240.73,-509.07 1225.61,-497.11 1213.57,-487.58"/>
<polygon fill="#63b8ff" stroke="#63b8ff" points="1215.47,-484.63 1205.46,-481.17 1211.13,-490.12 1215.47,-484.63"/>
</a>
</g>
</g>
<!-- Node10&#45;&gt;Node8 -->
<g id="edge11_Node000010_Node000008" class="edge">
<title>Node10&#45;&gt;Node8</title>
<g id="a_edge11_Node000010_Node000008"><a xlink:title=" ">
<path fill="none" stroke="#63b8ff" d="M1248.1,-466.94C1314.97,-461.69 1432.43,-449.81 1530.5,-426 1533.16,-425.35 1535.89,-424.59 1538.62,-423.76"/>
<polygon fill="#63b8ff" stroke="#63b8ff" points="1539.91,-427.02 1548.29,-420.54 1537.7,-420.37 1539.91,-427.02"/>
</a>
</g>
</g>
<!-- Node11 -->
<g id="Node000011" class="node">
<title>Node11</title>
<g id="a_Node000011"><a target="_parent" xlink:href="http://en.cppreference.com/w/cpp/header/iostream.html" xlink:title=" ">
<polygon fill="white" stroke="#666666" points="895.5,-420.5 835.5,-420.5 835.5,-401.5 895.5,-401.5 895.5,-420.5"/>
<text text-anchor="middle" x="865.5" y="-408.5" font-family="Helvetica,sans-Serif" font-size="10.00">iostream</text>
</a>
</g>
</g>
<!-- Node10&#45;&gt;Node11 -->
<g id="edge12_Node000010_Node000011" class="edge">
<title>Node10&#45;&gt;Node11</title>
<g id="a_edge12_Node000010_Node000011"><a xlink:title=" ">
<path fill="none" stroke="#63b8ff" d="M1140.97,-465.41C1082.3,-459.1 985.72,-446.6 904.5,-426 902,-425.37 899.43,-424.63 896.87,-423.84"/>
<polygon fill="#63b8ff" stroke="#63b8ff" points="897.73,-420.44 887.13,-420.6 895.52,-427.08 897.73,-420.44"/>
</a>
</g>
</g>
<!-- Node12 -->
<g id="Node000012" class="node">
<title>Node12</title>
<g id="a_Node000012"><a target="_parent" xlink:href="http://en.cppreference.com/w/cpp/header/string_view.html" xlink:title=" ">
<polygon fill="white" stroke="#666666" points="913,-129 840,-129 840,-110 913,-110 913,-129"/>
<text text-anchor="middle" x="876.5" y="-117" font-family="Helvetica,sans-Serif" font-size="10.00">string_view</text>
</a>
</g>
</g>
<!-- Node10&#45;&gt;Node12 -->
<g id="edge13_Node000010_Node000012" class="edge">
<title>Node10&#45;&gt;Node12</title>
<g id="a_edge13_Node000010_Node000012"><a xlink:title=" ">
<path fill="none" stroke="#63b8ff" d="M1248.08,-469.57C1325.09,-467.12 1461.76,-458.21 1497.5,-426 1522.88,-403.12 1516.5,-385.67 1516.5,-351.5 1516.5,-351.5 1516.5,-351.5 1516.5,-239.5 1516.5,-170.19 1445.85,-185.03 1379.5,-165 1294.93,-139.47 1031.77,-126.56 923.63,-122.22"/>
<polygon fill="#63b8ff" stroke="#63b8ff" points="923.48,-118.71 913.35,-121.81 923.2,-125.71 923.48,-118.71"/>
</a>
</g>
</g>
<!-- Node13 -->
<g id="Node000013" class="node">
<title>Node13</title>
<g id="a_Node000013"><a xlink:href="fmt_8hpp.html" target="_top" xlink:title=" ">
<polygon fill="white" stroke="#666666" points="659,-189.5 580,-189.5 580,-170.5 659,-170.5 659,-189.5"/>
<text text-anchor="middle" x="619.5" y="-177.5" font-family="Helvetica,sans-Serif" font-size="10.00">utils/fmt.hpp</text>
</a>
</g>
</g>
<!-- Node10&#45;&gt;Node13 -->
<g id="edge14_Node000010_Node000013" class="edge">
<title>Node10&#45;&gt;Node13</title>
<g id="a_edge14_Node000010_Node000013"><a xlink:title=" ">
<path fill="none" stroke="#63b8ff" d="M1140.74,-470.3C1047.86,-468.99 862.24,-461.82 809.5,-426 778.41,-404.89 769.5,-389.08 769.5,-351.5 769.5,-351.5 769.5,-351.5 769.5,-294.5 769.5,-239.85 705.4,-208.15 661.01,-192.75"/>
<polygon fill="#63b8ff" stroke="#63b8ff" points="661.9,-189.36 651.31,-189.53 659.7,-196 661.9,-189.36"/>
</a>
</g>
</g>
<!-- Node27 -->
<g id="Node000027" class="node">
<title>Node27</title>
<g id="a_Node000027"><a xlink:title=" ">
<polygon fill="#e0e0e0" stroke="#999999" points="1061,-420.5 914,-420.5 914,-401.5 1061,-401.5 1061,-420.5"/>
<text text-anchor="middle" x="987.5" y="-408.5" font-family="Helvetica,sans-Serif" font-size="10.00">boost/current_function.hpp</text>
</a>
</g>
</g>
<!-- Node10&#45;&gt;Node27 -->
<g id="edge33_Node000010_Node000027" class="edge">
<title>Node10&#45;&gt;Node27</title>
<g id="a_edge33_Node000010_Node000027"><a xlink:title=" ">
<path fill="none" stroke="#63b8ff" d="M1164.4,-461.99C1128.22,-451.77 1067.39,-434.58 1027.34,-423.26"/>
<polygon fill="#63b8ff" stroke="#63b8ff" points="1028.21,-419.87 1017.64,-420.52 1026.31,-426.6 1028.21,-419.87"/>
</a>
</g>
</g>
<!-- Node28 -->
<g id="Node000028" class="node">
<title>Node28</title>
<g id="a_Node000028"><a xlink:title=" ">
<polygon fill="#e0e0e0" stroke="#999999" points="1214,-426 1079,-426 1079,-396 1214,-396 1214,-426"/>
<text text-anchor="start" x="1087" y="-414" font-family="Helvetica,sans-Serif" font-size="10.00">boost/preprocessor</text>
<text text-anchor="middle" x="1146.5" y="-403" font-family="Helvetica,sans-Serif" font-size="10.00">/comparison/greater.hpp</text>
</a>
</g>
</g>
<!-- Node10&#45;&gt;Node28 -->
<g id="edge34_Node000010_Node000028" class="edge">
<title>Node10&#45;&gt;Node28</title>
<g id="a_edge34_Node000010_Node000028"><a xlink:title=" ">
<path fill="none" stroke="#63b8ff" d="M1187.42,-461.87C1181.39,-454.52 1172.46,-443.63 1164.48,-433.91"/>
<polygon fill="#63b8ff" stroke="#63b8ff" points="1167.13,-431.63 1158.08,-426.11 1161.72,-436.07 1167.13,-431.63"/>
</a>
</g>
</g>
<!-- Node29 -->
<g id="Node000029" class="node">
<title>Node29</title>
<g id="a_Node000029"><a xlink:title=" ">
<polygon fill="#e0e0e0" stroke="#999999" points="1242.5,-195 1132.5,-195 1132.5,-165 1242.5,-165 1242.5,-195"/>
<text text-anchor="start" x="1140.5" y="-183" font-family="Helvetica,sans-Serif" font-size="10.00">boost/preprocessor</text>
<text text-anchor="middle" x="1187.5" y="-172" font-family="Helvetica,sans-Serif" font-size="10.00">/control/if.hpp</text>
</a>
</g>
</g>
<!-- Node10&#45;&gt;Node29 -->
<g id="edge35_Node000010_Node000029" class="edge">
<title>Node10&#45;&gt;Node29</title>
<g id="a_edge35_Node000010_Node000029"><a xlink:title=" ">
<path fill="none" stroke="#63b8ff" d="M1201.13,-461.74C1207.41,-453.07 1216.73,-439.22 1222.5,-426 1236.23,-394.58 1242.5,-385.78 1242.5,-351.5 1242.5,-351.5 1242.5,-351.5 1242.5,-294.5 1242.5,-260.09 1221.78,-225.16 1205.77,-203.31"/>
<polygon fill="#63b8ff" stroke="#63b8ff" points="1208.54,-201.18 1199.71,-195.33 1202.97,-205.41 1208.54,-201.18"/>
</a>
</g>
</g>
<!-- Node30 -->
<g id="Node000030" class="node">
<title>Node30</title>
<g id="a_Node000030"><a xlink:title=" ">
<polygon fill="#e0e0e0" stroke="#999999" points="1370.5,-195 1260.5,-195 1260.5,-165 1370.5,-165 1370.5,-195"/>
<text text-anchor="start" x="1268.5" y="-183" font-family="Helvetica,sans-Serif" font-size="10.00">boost/preprocessor</text>
<text text-anchor="middle" x="1315.5" y="-172" font-family="Helvetica,sans-Serif" font-size="10.00">/stringize.hpp</text>
</a>
</g>
</g>
<!-- Node10&#45;&gt;Node30 -->
<g id="edge36_Node000010_Node000030" class="edge">
<title>Node10&#45;&gt;Node30</title>
<g id="a_edge36_Node000010_Node000030"><a xlink:title=" ">
<path fill="none" stroke="#63b8ff" d="M1206.82,-461.92C1230.6,-444.23 1280.5,-401.21 1280.5,-351.5 1280.5,-351.5 1280.5,-351.5 1280.5,-294.5 1280.5,-262.17 1293.63,-226.86 1303.81,-204.36"/>
<polygon fill="#63b8ff" stroke="#63b8ff" points="1307,-205.8 1308.08,-195.26 1300.66,-202.82 1307,-205.8"/>
</a>
</g>
</g>
<!-- Node31 -->
<g id="Node000031" class="node">
<title>Node31</title>
<g id="a_Node000031"><a xlink:title=" ">
<polygon fill="#e0e0e0" stroke="#999999" points="1418.5,-426 1308.5,-426 1308.5,-396 1418.5,-396 1418.5,-426"/>
<text text-anchor="start" x="1316.5" y="-414" font-family="Helvetica,sans-Serif" font-size="10.00">boost/preprocessor</text>
<text text-anchor="middle" x="1363.5" y="-403" font-family="Helvetica,sans-Serif" font-size="10.00">/variadic/size.hpp</text>
</a>
</g>
</g>
<!-- Node10&#45;&gt;Node31 -->
<g id="edge37_Node000010_Node000031" class="edge">
<title>Node10&#45;&gt;Node31</title>
<g id="a_edge37_Node000010_Node000031"><a xlink:title=" ">
<path fill="none" stroke="#63b8ff" d="M1219.07,-461.99C1243.61,-453.5 1282.03,-440.2 1313.08,-429.45"/>
<polygon fill="#63b8ff" stroke="#63b8ff" points="1314.56,-432.64 1322.87,-426.06 1312.28,-426.03 1314.56,-432.64"/>
</a>
</g>
</g>
<!-- Node32 -->
<g id="Node000032" class="node">
<title>Node32</title>
<g id="a_Node000032"><a xlink:href="ArgumentFormatter_8hpp.html" target="_top" xlink:title=" ">
<polygon fill="white" stroke="#666666" points="980,-250 823,-250 823,-231 980,-231 980,-250"/>
<text text-anchor="middle" x="901.5" y="-238" font-family="Helvetica,sans-Serif" font-size="10.00">utils/ArgumentFormatter.hpp</text>
</a>
</g>
</g>
<!-- Node10&#45;&gt;Node32 -->
<g id="edge38_Node000010_Node000032" class="edge">
<title>Node10&#45;&gt;Node32</title>
<g id="a_edge38_Node000010_Node000032"><a xlink:title=" ">
<path fill="none" stroke="#63b8ff" d="M1140.84,-467.88C1043.74,-462.59 846.99,-449.12 826.5,-426 781.06,-374.74 850.87,-292.32 884.76,-257.67"/>
<polygon fill="#63b8ff" stroke="#63b8ff" points="887.54,-259.84 892.14,-250.3 882.59,-254.89 887.54,-259.84"/>
</a>
</g>
</g>
<!-- Node36 -->
<g id="Node000036" class="node">
<title>Node36</title>
<g id="a_Node000036"><a xlink:href="Parallel_8hpp.html" target="_top" xlink:title=" ">
<polygon fill="white" stroke="#666666" points="557.5,-420.5 459.5,-420.5 459.5,-401.5 557.5,-401.5 557.5,-420.5"/>
<text text-anchor="middle" x="508.5" y="-408.5" font-family="Helvetica,sans-Serif" font-size="10.00">utils/Parallel.hpp</text>
</a>
</g>
</g>
<!-- Node10&#45;&gt;Node36 -->
<g id="edge45_Node000010_Node000036" class="edge">
<title>Node10&#45;&gt;Node36</title>
<g id="a_edge45_Node000010_Node000036"><a xlink:title=" ">
<path fill="none" stroke="#63b8ff" d="M1140.96,-465.93C1014.93,-455.19 700.26,-428.35 568.27,-417.1"/>
<polygon fill="#63b8ff" stroke="#63b8ff" points="568.21,-413.58 557.95,-416.22 567.62,-420.55 568.21,-413.58"/>
</a>
</g>
</g>
<!-- Node48 -->
<g id="Node000048" class="node">
<title>Node48</title>
<g id="a_Node000048"><a xlink:href="stacktrace_8hpp.html" target="_top" xlink:title=" ">
<polygon fill="white" stroke="#666666" points="113,-305 0,-305 0,-286 113,-286 113,-305"/>
<text text-anchor="middle" x="56.5" y="-293" font-family="Helvetica,sans-Serif" font-size="10.00">utils/stacktrace.hpp</text>
</a>
</g>
</g>
<!-- Node10&#45;&gt;Node48 -->
<g id="edge66_Node000010_Node000048" class="edge">
<title>Node10&#45;&gt;Node48</title>
<g id="a_edge66_Node000010_Node000048"><a xlink:title=" ">
<path fill="none" stroke="#63b8ff" d="M1140.96,-470.37C1018.21,-469.4 707.27,-463.14 450.5,-426 321.82,-407.39 286.36,-407.93 165.5,-360 132.87,-347.06 98.37,-325.43 77.13,-311.07"/>
<polygon fill="#63b8ff" stroke="#63b8ff" points="78.85,-308 68.63,-305.22 74.88,-313.77 78.85,-308"/>
</a>
</g>
</g>
<!-- Node49 -->
<g id="Node000049" class="node">
<title>Node49</title>
<g id="a_Node000049"><a target="_parent" xlink:href="http://en.cppreference.com/w/cpp/header/cassert.html" xlink:title=" ">
<polygon fill="white" stroke="#666666" points="1488.5,-420.5 1436.5,-420.5 1436.5,-401.5 1488.5,-401.5 1488.5,-420.5"/>
<text text-anchor="middle" x="1462.5" y="-408.5" font-family="Helvetica,sans-Serif" font-size="10.00">cassert</text>
</a>
</g>
</g>
<!-- Node10&#45;&gt;Node49 -->
<g id="edge68_Node000010_Node000049" class="edge">
<title>Node10&#45;&gt;Node49</title>
<g id="a_edge68_Node000010_Node000049"><a xlink:title=" ">
<path fill="none" stroke="#63b8ff" d="M1248.4,-463.21C1296.08,-456.05 1367.22,-443.63 1427.5,-426 1429.43,-425.43 1431.4,-424.8 1433.38,-424.13"/>
<polygon fill="#63b8ff" stroke="#63b8ff" points="1434.95,-427.28 1443.11,-420.52 1432.52,-420.72 1434.95,-427.28"/>
</a>
</g>
</g>
<!-- Node13&#45;&gt;Node12 -->
<g id="edge16_Node000013_Node000012" class="edge">
<title>Node13&#45;&gt;Node12</title>
<g id="a_edge16_Node000013_Node000012"><a xlink:title=" ">
<path fill="none" stroke="#63b8ff" d="M651.72,-170.43C658.88,-168.59 666.44,-166.69 673.5,-165 726.88,-152.24 788.49,-138.93 829.71,-130.23"/>
<polygon fill="#63b8ff" stroke="#63b8ff" points="830.67,-133.61 839.73,-128.12 829.23,-126.76 830.67,-133.61"/>
</a>
</g>
</g>
<!-- Node14 -->
<g id="Node000014" class="node">
<title>Node14</title>
<g id="a_Node000014"><a target="_parent" xlink:href="http://en.cppreference.com/w/cpp/header/string.html" xlink:title=" ">
<polygon fill="white" stroke="#666666" points="300.5,-129 256.5,-129 256.5,-110 300.5,-110 300.5,-129"/>
<text text-anchor="middle" x="278.5" y="-117" font-family="Helvetica,sans-Serif" font-size="10.00">string</text>
</a>
</g>
</g>
<!-- Node13&#45;&gt;Node14 -->
<g id="edge15_Node000013_Node000014" class="edge">
<title>Node13&#45;&gt;Node14</title>
<g id="a_edge15_Node000013_Node000014"><a xlink:title=" ">
<path fill="none" stroke="#63b8ff" d="M579.72,-172.17C511.46,-160.46 373.34,-136.77 310.7,-126.02"/>
<polygon fill="#63b8ff" stroke="#63b8ff" points="311.06,-122.53 300.61,-124.29 309.87,-129.43 311.06,-122.53"/>
</a>
</g>
</g>
<!-- Node15 -->
<g id="Node000015" class="node">
<title>Node15</title>
<g id="a_Node000015"><a xlink:title=" ">
<polygon fill="#e0e0e0" stroke="#999999" points="652,-74 573,-74 573,-55 652,-55 652,-74"/>
<text text-anchor="middle" x="612.5" y="-62" font-family="Helvetica,sans-Serif" font-size="10.00">fmt/format.h</text>
</a>
</g>
</g>
<!-- Node13&#45;&gt;Node15 -->
<g id="edge17_Node000013_Node000015" class="edge">
<title>Node13&#45;&gt;Node15</title>
<g id="a_edge17_Node000013_Node000015"><a xlink:title=" ">
<path fill="none" stroke="#63b8ff" d="M615.59,-170.37C611.39,-160.58 604.98,-144.02 602.5,-129 599.99,-113.84 603.07,-96.62 606.46,-83.94"/>
<polygon fill="#63b8ff" stroke="#63b8ff" points="609.88,-84.72 609.38,-74.13 603.17,-82.72 609.88,-84.72"/>
</a>
</g>
</g>
<!-- Node16 -->
<g id="Node000016" class="node">
<title>Node16</title>
<g id="a_Node000016"><a xlink:title=" ">
<polygon fill="#e0e0e0" stroke="#999999" points="697.5,-129 611.5,-129 611.5,-110 697.5,-110 697.5,-129"/>
<text text-anchor="middle" x="654.5" y="-117" font-family="Helvetica,sans-Serif" font-size="10.00">fmt/ostream.h</text>
</a>
</g>
</g>
<!-- Node13&#45;&gt;Node16 -->
<g id="edge18_Node000013_Node000016" class="edge">
<title>Node13&#45;&gt;Node16</title>
<g id="a_edge18_Node000013_Node000016"><a xlink:title=" ">
<path fill="none" stroke="#63b8ff" d="M624.66,-170.37C629.73,-161.9 637.6,-148.74 643.99,-138.07"/>
<polygon fill="#63b8ff" stroke="#63b8ff" points="647.18,-139.55 649.31,-129.17 641.18,-135.95 647.18,-139.55"/>
</a>
</g>
</g>
<!-- Node17 -->
<g id="Node000017" class="node">
<title>Node17</title>
<g id="a_Node000017"><a xlink:href="fmtEigen_8hpp.html" target="_top" xlink:title=" ">
<polygon fill="white" stroke="#666666" points="821.5,-129 715.5,-129 715.5,-110 821.5,-110 821.5,-129"/>
<text text-anchor="middle" x="768.5" y="-117" font-family="Helvetica,sans-Serif" font-size="10.00">utils/fmtEigen.hpp</text>
</a>
</g>
</g>
<!-- Node13&#45;&gt;Node17 -->
<g id="edge19_Node000013_Node000017" class="edge">
<title>Node13&#45;&gt;Node17</title>
<g id="a_edge19_Node000013_Node000017"><a xlink:title=" ">
<path fill="none" stroke="#63b8ff" d="M641.17,-170.49C666.44,-160.57 708.41,-144.09 737.22,-132.78"/>
<polygon fill="#63b8ff" stroke="#63b8ff" points="738.78,-135.93 746.81,-129.02 736.22,-129.41 738.78,-135.93"/>
</a>
</g>
</g>
<!-- Node21 -->
<g id="Node000021" class="node">
<title>Node21</title>
<g id="a_Node000021"><a xlink:href="fmtSTL_8hpp.html" target="_top" xlink:title=" ">
<polygon fill="white" stroke="#666666" points="533.5,-129 437.5,-129 437.5,-110 533.5,-110 533.5,-129"/>
<text text-anchor="middle" x="485.5" y="-117" font-family="Helvetica,sans-Serif" font-size="10.00">utils/fmtSTL.hpp</text>
</a>
</g>
</g>
<!-- Node13&#45;&gt;Node21 -->
<g id="edge26_Node000013_Node000021" class="edge">
<title>Node13&#45;&gt;Node21</title>
<g id="a_edge26_Node000013_Node000021"><a xlink:title=" ">
<path fill="none" stroke="#63b8ff" d="M600.02,-170.49C577.49,-160.66 540.19,-144.38 514.31,-133.08"/>
<polygon fill="#63b8ff" stroke="#63b8ff" points="515.57,-129.81 505.01,-129.02 512.77,-136.23 515.57,-129.81"/>
</a>
</g>
</g>
<!-- Node17&#45;&gt;Node7 -->
<g id="edge20_Node000017_Node000007" class="edge">
<title>Node17&#45;&gt;Node7</title>
<g id="a_edge20_Node000017_Node000007"><a xlink:title=" ">
<path fill="none" stroke="#63b8ff" d="M820.56,-109.98C946.44,-89.38 1265.55,-37.17 1383.65,-17.84"/>
<polygon fill="#63b8ff" stroke="#63b8ff" points="1384.48,-21.25 1393.78,-16.18 1383.35,-14.34 1384.48,-21.25"/>
</a>
</g>
</g>
<!-- Node17&#45;&gt;Node15 -->
<g id="edge22_Node000017_Node000015" class="edge">
<title>Node17&#45;&gt;Node15</title>
<g id="a_edge22_Node000017_Node000015"><a xlink:title=" ">
<path fill="none" stroke="#63b8ff" d="M743.44,-109.98C717.47,-101.16 676.69,-87.31 647.54,-77.41"/>
<polygon fill="#63b8ff" stroke="#63b8ff" points="648.35,-73.99 637.76,-74.08 646.1,-80.61 648.35,-73.99"/>
</a>
</g>
</g>
<!-- Node18 -->
<g id="Node000018" class="node">
<title>Node18</title>
<g id="a_Node000018"><a target="_parent" xlink:href="http://en.cppreference.com/w/cpp/header/algorithm.html" xlink:title=" ">
<polygon fill="white" stroke="#666666" points="778.5,-74 714.5,-74 714.5,-55 778.5,-55 778.5,-74"/>
<text text-anchor="middle" x="746.5" y="-62" font-family="Helvetica,sans-Serif" font-size="10.00">algorithm</text>
</a>
</g>
</g>
<!-- Node17&#45;&gt;Node18 -->
<g id="edge21_Node000017_Node000018" class="edge">
<title>Node17&#45;&gt;Node18</title>
<g id="a_edge21_Node000017_Node000018"><a xlink:title=" ">
<path fill="none" stroke="#63b8ff" d="M764.87,-109.75C761.92,-102.65 757.67,-92.4 753.99,-83.56"/>
<polygon fill="#63b8ff" stroke="#63b8ff" points="757.13,-81.98 750.07,-74.09 750.67,-84.67 757.13,-81.98"/>
</a>
</g>
</g>
<!-- Node19 -->
<g id="Node000019" class="node">
<title>Node19</title>
<g id="a_Node000019"><a target="_parent" xlink:href="http://en.cppreference.com/w/cpp/header/sstream.html" xlink:title=" ">
<polygon fill="white" stroke="#666666" points="852.5,-74 796.5,-74 796.5,-55 852.5,-55 852.5,-74"/>
<text text-anchor="middle" x="824.5" y="-62" font-family="Helvetica,sans-Serif" font-size="10.00">sstream</text>
</a>
</g>
</g>
<!-- Node17&#45;&gt;Node19 -->
<g id="edge23_Node000017_Node000019" class="edge">
<title>Node17&#45;&gt;Node19</title>
<g id="a_edge23_Node000017_Node000019"><a xlink:title=" ">
<path fill="none" stroke="#63b8ff" d="M777.5,-109.98C785.69,-102.23 798.01,-90.58 807.97,-81.14"/>
<polygon fill="#63b8ff" stroke="#63b8ff" points="810.48,-83.59 815.34,-74.17 805.67,-78.5 810.48,-83.59"/>
</a>
</g>
</g>
<!-- Node20 -->
<g id="Node000020" class="node">
<title>Node20</title>
<g id="a_Node000020"><a xlink:href="EigenIO_8hpp.html" target="_top" xlink:title=" ">
<polygon fill="white" stroke="#666666" points="1439,-74 1340,-74 1340,-55 1439,-55 1439,-74"/>
<text text-anchor="middle" x="1389.5" y="-62" font-family="Helvetica,sans-Serif" font-size="10.00">utils/EigenIO.hpp</text>
</a>
</g>
</g>
<!-- Node17&#45;&gt;Node20 -->
<g id="edge24_Node000017_Node000020" class="edge">
<title>Node17&#45;&gt;Node20</title>
<g id="a_edge24_Node000017_Node000020"><a xlink:title=" ">
<path fill="none" stroke="#63b8ff" d="M821.58,-111.02C824.59,-110.66 827.58,-110.32 830.5,-110 1011.8,-90.37 1227.07,-75.64 1329.53,-69.15"/>
<polygon fill="#63b8ff" stroke="#63b8ff" points="1329.92,-72.63 1339.68,-68.51 1329.48,-65.65 1329.92,-72.63"/>
</a>
</g>
</g>
<!-- Node20&#45;&gt;Node7 -->
<g id="edge25_Node000020_Node000007" class="edge">
<title>Node20&#45;&gt;Node7</title>
<g id="a_edge25_Node000020_Node000007"><a xlink:title=" ">
<path fill="none" stroke="#63b8ff" d="M1395.94,-54.75C1401.39,-47.34 1409.36,-36.5 1416.06,-27.41"/>
<polygon fill="#63b8ff" stroke="#63b8ff" points="1419.07,-29.22 1422.18,-19.09 1413.43,-25.07 1419.07,-29.22"/>
</a>
</g>
</g>
<!-- Node21&#45;&gt;Node15 -->
<g id="edge29_Node000021_Node000015" class="edge">
<title>Node21&#45;&gt;Node15</title>
<g id="a_edge29_Node000021_Node000015"><a xlink:title=" ">
<path fill="none" stroke="#63b8ff" d="M505.9,-109.98C526.52,-101.38 558.61,-87.99 582.19,-78.15"/>
<polygon fill="#63b8ff" stroke="#63b8ff" points="583.84,-81.25 591.72,-74.17 581.15,-74.79 583.84,-81.25"/>
</a>
</g>
</g>
<!-- Node22 -->
<g id="Node000022" class="node">
<title>Node22</title>
<g id="a_Node000022"><a target="_parent" xlink:href="http://en.cppreference.com/w/cpp/header/array.html" xlink:title=" ">
<polygon fill="white" stroke="#666666" points="382.5,-74 340.5,-74 340.5,-55 382.5,-55 382.5,-74"/>
<text text-anchor="middle" x="361.5" y="-62" font-family="Helvetica,sans-Serif" font-size="10.00">array</text>
</a>
</g>
</g>
<!-- Node21&#45;&gt;Node22 -->
<g id="edge27_Node000021_Node000022" class="edge">
<title>Node21&#45;&gt;Node22</title>
<g id="a_edge27_Node000021_Node000022"><a xlink:title=" ">
<path fill="none" stroke="#63b8ff" d="M465.58,-109.98C445.45,-101.38 414.12,-87.99 391.09,-78.15"/>
<polygon fill="#63b8ff" stroke="#63b8ff" points="392.36,-74.88 381.79,-74.17 389.6,-81.32 392.36,-74.88"/>
</a>
</g>
</g>
<!-- Node23 -->
<g id="Node000023" class="node">
<title>Node23</title>
<g id="a_Node000023"><a target="_parent" xlink:href="http://en.cppreference.com/w/cpp/header/deque.html" xlink:title=" ">
<polygon fill="white" stroke="#666666" points="448,-74 401,-74 401,-55 448,-55 448,-74"/>
<text text-anchor="middle" x="424.5" y="-62" font-family="Helvetica,sans-Serif" font-size="10.00">deque</text>
</a>
</g>
</g>
<!-- Node21&#45;&gt;Node23 -->
<g id="edge28_Node000021_Node000023" class="edge">
<title>Node21&#45;&gt;Node23</title>
<g id="a_edge28_Node000021_Node000023"><a xlink:title=" ">
<path fill="none" stroke="#63b8ff" d="M475.7,-109.98C466.68,-102.15 453.09,-90.34 442.18,-80.86"/>
<polygon fill="#63b8ff" stroke="#63b8ff" points="444.32,-78.09 434.48,-74.17 439.73,-83.37 444.32,-78.09"/>
</a>
</g>
</g>
<!-- Node24 -->
<g id="Node000024" class="node">
<title>Node24</title>
<g id="a_Node000024"><a target="_parent" xlink:href="http://en.cppreference.com/w/cpp/header/map.html" xlink:title=" ">
<polygon fill="white" stroke="#666666" points="504.5,-74 466.5,-74 466.5,-55 504.5,-55 504.5,-74"/>
<text text-anchor="middle" x="485.5" y="-62" font-family="Helvetica,sans-Serif" font-size="10.00">map</text>
</a>
</g>
</g>
<!-- Node21&#45;&gt;Node24 -->
<g id="edge30_Node000021_Node000024" class="edge">
<title>Node21&#45;&gt;Node24</title>
<g id="a_edge30_Node000021_Node000024"><a xlink:title=" ">
<path fill="none" stroke="#63b8ff" d="M485.5,-109.75C485.5,-102.8 485.5,-92.85 485.5,-84.13"/>
<polygon fill="#63b8ff" stroke="#63b8ff" points="489,-84.09 485.5,-74.09 482,-84.09 489,-84.09"/>
</a>
</g>
</g>
<!-- Node25 -->
<g id="Node000025" class="node">
<title>Node25</title>
<g id="a_Node000025"><a target="_parent" xlink:href="http://en.cppreference.com/w/cpp/header/set.html" xlink:title=" ">
<polygon fill="white" stroke="#666666" points="554.5,-74 522.5,-74 522.5,-55 554.5,-55 554.5,-74"/>
<text text-anchor="middle" x="538.5" y="-62" font-family="Helvetica,sans-Serif" font-size="10.00">set</text>
</a>
</g>
</g>
<!-- Node21&#45;&gt;Node25 -->
<g id="edge31_Node000021_Node000025" class="edge">
<title>Node21&#45;&gt;Node25</title>
<g id="a_edge31_Node000021_Node000025"><a xlink:title=" ">
<path fill="none" stroke="#63b8ff" d="M494.25,-109.75C501.97,-102.03 513.4,-90.6 522.72,-81.28"/>
<polygon fill="#63b8ff" stroke="#63b8ff" points="525.31,-83.64 529.91,-74.09 520.36,-78.69 525.31,-83.64"/>
</a>
</g>
</g>
<!-- Node26 -->
<g id="Node000026" class="node">
<title>Node26</title>
<g id="a_Node000026"><a target="_parent" xlink:href="http://en.cppreference.com/w/cpp/header/vector.html" xlink:title=" ">
<polygon fill="white" stroke="#666666" points="231,-74 184,-74 184,-55 231,-55 231,-74"/>
<text text-anchor="middle" x="207.5" y="-62" font-family="Helvetica,sans-Serif" font-size="10.00">vector</text>
</a>
</g>
</g>
<!-- Node21&#45;&gt;Node26 -->
<g id="edge32_Node000021_Node000026" class="edge">
<title>Node21&#45;&gt;Node26</title>
<g id="a_edge32_Node000021_Node000026"><a xlink:title=" ">
<path fill="none" stroke="#63b8ff" d="M440.83,-109.98C385.09,-99.36 291.03,-81.43 241.06,-71.9"/>
<polygon fill="#63b8ff" stroke="#63b8ff" points="241.57,-68.43 231.09,-70 240.26,-75.31 241.57,-68.43"/>
</a>
</g>
</g>
<!-- Node32&#45;&gt;Node13 -->
<g id="edge44_Node000032_Node000013" class="edge">
<title>Node32&#45;&gt;Node13</title>
<g id="a_edge44_Node000032_Node000013"><a xlink:title=" ">
<path fill="none" stroke="#63b8ff" d="M860.49,-230.99C809.84,-220.48 723.7,-202.62 669.29,-191.33"/>
<polygon fill="#63b8ff" stroke="#63b8ff" points="669.69,-187.84 659.19,-189.23 668.27,-194.69 669.69,-187.84"/>
</a>
</g>
</g>
<!-- Node32&#45;&gt;Node29 -->
<g id="edge39_Node000032_Node000029" class="edge">
<title>Node32&#45;&gt;Node29</title>
<g id="a_edge39_Node000032_Node000029"><a xlink:title=" ">
<path fill="none" stroke="#63b8ff" d="M944.73,-230.97C987.22,-222.55 1054.17,-209.18 1122.16,-195.05"/>
<polygon fill="#63b8ff" stroke="#63b8ff" points="1123.12,-198.43 1132.19,-192.97 1121.69,-191.58 1123.12,-198.43"/>
</a>
</g>
</g>
<!-- Node32&#45;&gt;Node30 -->
<g id="edge41_Node000032_Node000030" class="edge">
<title>Node32&#45;&gt;Node30</title>
<g id="a_edge41_Node000032_Node000030"><a xlink:title=" ">
<path fill="none" stroke="#63b8ff" d="M980.34,-231.5C1049.11,-224.06 1151.76,-211.84 1250.27,-195.12"/>
<polygon fill="#63b8ff" stroke="#63b8ff" points="1251.14,-198.52 1260.4,-193.38 1249.96,-191.62 1251.14,-198.52"/>
</a>
</g>
</g>
<!-- Node33 -->
<g id="Node000033" class="node">
<title>Node33</title>
<g id="a_Node000033"><a xlink:title=" ">
<polygon fill="#e0e0e0" stroke="#999999" points="981,-195 870,-195 870,-165 981,-165 981,-195"/>
<text text-anchor="start" x="878" y="-183" font-family="Helvetica,sans-Serif" font-size="10.00">boost/preprocessor</text>
<text text-anchor="middle" x="925.5" y="-172" font-family="Helvetica,sans-Serif" font-size="10.00">/seq/for_each_i.hpp</text>
</a>
</g>
</g>
<!-- Node32&#45;&gt;Node33 -->
<g id="edge40_Node000032_Node000033" class="edge">
<title>Node32&#45;&gt;Node33</title>
<g id="a_edge40_Node000032_Node000033"><a xlink:title=" ">
<path fill="none" stroke="#63b8ff" d="M905.04,-230.87C907.91,-223.89 912.08,-213.71 915.91,-204.38"/>
<polygon fill="#63b8ff" stroke="#63b8ff" points="919.15,-205.69 919.71,-195.11 912.68,-203.04 919.15,-205.69"/>
</a>
</g>
</g>
<!-- Node34 -->
<g id="Node000034" class="node">
<title>Node34</title>
<g id="a_Node000034"><a xlink:title=" ">
<polygon fill="#e0e0e0" stroke="#999999" points="1114,-195 999,-195 999,-165 1114,-165 1114,-195"/>
<text text-anchor="start" x="1007" y="-183" font-family="Helvetica,sans-Serif" font-size="10.00">boost/preprocessor</text>
<text text-anchor="middle" x="1056.5" y="-172" font-family="Helvetica,sans-Serif" font-size="10.00">/variadic/to_seq.hpp</text>
</a>
</g>
</g>
<!-- Node32&#45;&gt;Node34 -->
<g id="edge42_Node000032_Node000034" class="edge">
<title>Node32&#45;&gt;Node34</title>
<g id="a_edge42_Node000032_Node000034"><a xlink:title=" ">
<path fill="none" stroke="#63b8ff" d="M924.04,-230.99C946.35,-222.57 981.17,-209.43 1009.51,-198.73"/>
<polygon fill="#63b8ff" stroke="#63b8ff" points="1011.12,-201.87 1019.24,-195.06 1008.64,-195.32 1011.12,-201.87"/>
</a>
</g>
</g>
<!-- Node35 -->
<g id="Node000035" class="node">
<title>Node35</title>
<g id="a_Node000035"><a xlink:title=" ">
<polygon fill="#e0e0e0" stroke="#999999" points="851.5,-189.5 715.5,-189.5 715.5,-170.5 851.5,-170.5 851.5,-189.5"/>
<text text-anchor="middle" x="783.5" y="-177.5" font-family="Helvetica,sans-Serif" font-size="10.00">boost/vmd/is_empty.hpp</text>
</a>
</g>
</g>
<!-- Node32&#45;&gt;Node35 -->
<g id="edge43_Node000032_Node000035" class="edge">
<title>Node32&#45;&gt;Node35</title>
<g id="a_edge43_Node000032_Node000035"><a xlink:title=" ">
<path fill="none" stroke="#63b8ff" d="M884.34,-230.99C864.77,-221.29 832.53,-205.31 809.78,-194.03"/>
<polygon fill="#63b8ff" stroke="#63b8ff" points="811.19,-190.82 800.68,-189.52 808.08,-197.09 811.19,-190.82"/>
</a>
</g>
</g>
<!-- Node36&#45;&gt;Node14 -->
<g id="edge49_Node000036_Node000014" class="edge">
<title>Node36&#45;&gt;Node14</title>
<g id="a_edge49_Node000036_Node000014"><a xlink:title=" ">
<path fill="none" stroke="#63b8ff" d="M459.36,-403.78C385.54,-394.02 252.9,-374.7 236.5,-360 214.57,-340.33 217.5,-325.96 217.5,-296.5 217.5,-296.5 217.5,-296.5 217.5,-239.5 217.5,-205.33 220.02,-194.94 236.5,-165 242.48,-154.14 251.73,-143.93 260.04,-136.04"/>
<polygon fill="#63b8ff" stroke="#63b8ff" points="262.49,-138.54 267.57,-129.24 257.8,-133.34 262.49,-138.54"/>
</a>
</g>
</g>
<!-- Node36&#45;&gt;Node26 -->
<g id="edge50_Node000036_Node000026" class="edge">
<title>Node36&#45;&gt;Node26</title>
<g id="a_edge50_Node000036_Node000026"><a xlink:title=" ">
<path fill="none" stroke="#63b8ff" d="M459.33,-404.7C381,-395.79 235.02,-377.11 218.5,-360 144.18,-283.01 183.96,-135.24 201,-83.74"/>
<polygon fill="#63b8ff" stroke="#63b8ff" points="204.4,-84.62 204.33,-74.03 197.78,-82.35 204.4,-84.62"/>
</a>
</g>
</g>
<!-- Node37 -->
<g id="Node000037" class="node">
<title>Node37</title>
<g id="a_Node000037"><a target="_parent" xlink:href="http://en.cppreference.com/w/cpp/header/iosfwd.html" xlink:title=" ">
<polygon fill="white" stroke="#666666" points="629.5,-360 581.5,-360 581.5,-341 629.5,-341 629.5,-360"/>
<text text-anchor="middle" x="605.5" y="-348" font-family="Helvetica,sans-Serif" font-size="10.00">iosfwd</text>
</a>
</g>
</g>
<!-- Node36&#45;&gt;Node37 -->
<g id="edge46_Node000036_Node000037" class="edge">
<title>Node36&#45;&gt;Node37</title>
<g id="a_edge46_Node000036_Node000037"><a xlink:title=" ">
<path fill="none" stroke="#63b8ff" d="M522.81,-401.37C538.5,-391.91 563.9,-376.59 582.41,-365.42"/>
<polygon fill="#63b8ff" stroke="#63b8ff" points="584.37,-368.33 591.13,-360.17 580.76,-362.33 584.37,-368.33"/>
</a>
</g>
</g>
<!-- Node38 -->
<g id="Node000038" class="node">
<title>Node38</title>
<g id="a_Node000038"><a target="_parent" xlink:href="http://en.cppreference.com/w/cpp/header/memory.html" xlink:title=" ">
<polygon fill="white" stroke="#666666" points="741.5,-305 683.5,-305 683.5,-286 741.5,-286 741.5,-305"/>
<text text-anchor="middle" x="712.5" y="-293" font-family="Helvetica,sans-Serif" font-size="10.00">memory</text>
</a>
</g>
</g>
<!-- Node36&#45;&gt;Node38 -->
<g id="edge47_Node000036_Node000038" class="edge">
<title>Node36&#45;&gt;Node38</title>
<g id="a_edge47_Node000036_Node000038"><a xlink:title=" ">
<path fill="none" stroke="#63b8ff" d="M557.54,-404.88C611.65,-398.1 693.59,-384.1 712.5,-360 722.27,-347.54 721.08,-329.08 718.15,-315.27"/>
<polygon fill="#63b8ff" stroke="#63b8ff" points="721.49,-314.2 715.6,-305.39 714.71,-315.95 721.49,-314.2"/>
</a>
</g>
</g>
<!-- Node39 -->
<g id="Node000039" class="node">
<title>Node39</title>
<g id="a_Node000039"><a target="_parent" xlink:href="http://en.cppreference.com/w/cpp/header/optional.html" xlink:title=" ">
<polygon fill="white" stroke="#666666" points="703.5,-360 647.5,-360 647.5,-341 703.5,-341 703.5,-360"/>
<text text-anchor="middle" x="675.5" y="-348" font-family="Helvetica,sans-Serif" font-size="10.00">optional</text>
</a>
</g>
</g>
<!-- Node36&#45;&gt;Node39 -->
<g id="edge48_Node000036_Node000039" class="edge">
<title>Node36&#45;&gt;Node39</title>
<g id="a_edge48_Node000036_Node000039"><a xlink:title=" ">
<path fill="none" stroke="#63b8ff" d="M532.78,-401.49C561.48,-391.44 609.39,-374.66 641.7,-363.34"/>
<polygon fill="#63b8ff" stroke="#63b8ff" points="642.91,-366.63 651.19,-360.02 640.59,-360.02 642.91,-366.63"/>
</a>
</g>
</g>
<!-- Node40 -->
<g id="Node000040" class="node">
<title>Node40</title>
<g id="a_Node000040"><a xlink:href="Logger_8hpp.html" target="_top" xlink:title=" ">
<polygon fill="white" stroke="#666666" points="563,-360 454,-360 454,-341 563,-341 563,-360"/>
<text text-anchor="middle" x="508.5" y="-348" font-family="Helvetica,sans-Serif" font-size="10.00">logging/Logger.hpp</text>
</a>
</g>
</g>
<!-- Node36&#45;&gt;Node40 -->
<g id="edge51_Node000036_Node000040" class="edge">
<title>Node36&#45;&gt;Node40</title>
<g id="a_edge51_Node000036_Node000040"><a xlink:title=" ">
<path fill="none" stroke="#63b8ff" d="M508.5,-401.37C508.5,-393.25 508.5,-380.81 508.5,-370.39"/>
<polygon fill="#63b8ff" stroke="#63b8ff" points="512,-370.17 508.5,-360.17 505,-370.17 512,-370.17"/>
</a>
</g>
</g>
<!-- Node45 -->
<g id="Node000045" class="node">
<title>Node45</title>
<g id="a_Node000045"><a xlink:href="impl_2Types_8hpp.html" target="_top" xlink:title=" ">
<polygon fill="white" stroke="#666666" points="373.5,-360 245.5,-360 245.5,-341 373.5,-341 373.5,-360"/>
<text text-anchor="middle" x="309.5" y="-348" font-family="Helvetica,sans-Serif" font-size="10.00">precice/impl/Types.hpp</text>
</a>
</g>
</g>
<!-- Node36&#45;&gt;Node45 -->
<g id="edge63_Node000036_Node000045" class="edge">
<title>Node36&#45;&gt;Node45</title>
<g id="a_edge63_Node000036_Node000045"><a xlink:title=" ">
<path fill="none" stroke="#63b8ff" d="M479.56,-401.49C444.93,-391.31 386.8,-374.22 348.29,-362.9"/>
<polygon fill="#63b8ff" stroke="#63b8ff" points="349.05,-359.48 338.47,-360.02 347.08,-366.2 349.05,-359.48"/>
</a>
</g>
</g>
<!-- Node47 -->
<g id="Node000047" class="node">
<title>Node47</title>
<g id="a_Node000047"><a xlink:title=" ">
<polygon fill="#e0e0e0" stroke="#999999" points="435.5,-360 391.5,-360 391.5,-341 435.5,-341 435.5,-360"/>
<text text-anchor="middle" x="413.5" y="-348" font-family="Helvetica,sans-Serif" font-size="10.00">mpi.h</text>
</a>
</g>
</g>
<!-- Node36&#45;&gt;Node47 -->
<g id="edge65_Node000036_Node000047" class="edge">
<title>Node36&#45;&gt;Node47</title>
<g id="a_edge65_Node000036_Node000047"><a xlink:title=" ">
<path fill="none" stroke="#63b8ff" d="M494.48,-401.37C479.19,-391.95 454.47,-376.73 436.36,-365.58"/>
<polygon fill="#63b8ff" stroke="#63b8ff" points="437.93,-362.43 427.58,-360.17 434.25,-368.39 437.93,-362.43"/>
</a>
</g>
</g>
<!-- Node40&#45;&gt;Node12 -->
<g id="edge54_Node000040_Node000012" class="edge">
<title>Node40&#45;&gt;Node12</title>
<g id="a_edge54_Node000040_Node000012"><a xlink:title=" ">
<path fill="none" stroke="#63b8ff" d="M529.71,-340.95C548.86,-332.83 577.48,-319.72 600.5,-305 632.96,-284.24 643.98,-280.51 667.5,-250 692.88,-217.08 674.66,-191.72 706.5,-165 716.05,-156.98 782.75,-141.05 829.7,-130.59"/>
<polygon fill="#63b8ff" stroke="#63b8ff" points="830.68,-133.96 839.68,-128.38 829.16,-127.12 830.68,-133.96"/>
</a>
</g>
</g>
<!-- Node40&#45;&gt;Node14 -->
<g id="edge53_Node000040_Node000014" class="edge">
<title>Node40&#45;&gt;Node14</title>
<g id="a_edge53_Node000040_Node000014"><a xlink:title=" ">
<path fill="none" stroke="#63b8ff" d="M488.96,-340.92C457.68,-326.33 396.08,-293.93 358.5,-250 331.48,-218.42 342.53,-199.6 319.5,-165 312.69,-154.77 303.54,-144.59 295.61,-136.56"/>
<polygon fill="#63b8ff" stroke="#63b8ff" points="297.82,-133.82 288.22,-129.32 292.92,-138.82 297.82,-133.82"/>
</a>
</g>
</g>
<!-- Node40&#45;&gt;Node38 -->
<g id="edge52_Node000040_Node000038" class="edge">
<title>Node40&#45;&gt;Node38</title>
<g id="a_edge52_Node000040_Node000038"><a xlink:title=" ">
<path fill="none" stroke="#63b8ff" d="M541.28,-340.98C577.36,-331.61 635.33,-316.55 673.66,-306.59"/>
<polygon fill="#63b8ff" stroke="#63b8ff" points="674.64,-309.95 683.44,-304.05 672.88,-303.18 674.64,-309.95"/>
</a>
</g>
</g>
<!-- Node41 -->
<g id="Node000041" class="node">
<title>Node41</title>
<g id="a_Node000041"><a xlink:href="LogMacros_8hpp.html" target="_top" xlink:title=" ">
<polygon fill="white" stroke="#666666" points="570.5,-305 480.5,-305 480.5,-286 570.5,-286 570.5,-305"/>
<text text-anchor="middle" x="525.5" y="-293" font-family="Helvetica,sans-Serif" font-size="10.00">LogMacros.hpp</text>
</a>
</g>
</g>
<!-- Node40&#45;&gt;Node41 -->
<g id="edge55_Node000040_Node000041" class="edge">
<title>Node40&#45;&gt;Node41</title>
<g id="a_edge55_Node000040_Node000041"><a xlink:title=" ">
<path fill="none" stroke="#63b8ff" d="M511.31,-340.75C513.56,-333.72 516.8,-323.62 519.62,-314.84"/>
<polygon fill="#63b8ff" stroke="#63b8ff" points="523.02,-315.68 522.75,-305.09 516.36,-313.54 523.02,-315.68"/>
</a>
</g>
</g>
<!-- Node41&#45;&gt;Node13 -->
<g id="edge59_Node000041_Node000013" class="edge">
<title>Node41&#45;&gt;Node13</title>
<g id="a_edge59_Node000041_Node000013"><a xlink:title=" ">
<path fill="none" stroke="#63b8ff" d="M526.22,-285.87C527.7,-272.83 532.05,-247.84 544.5,-231 556.21,-215.16 574.54,-202.81 590.14,-194.35"/>
<polygon fill="#63b8ff" stroke="#63b8ff" points="592.13,-197.26 599.43,-189.58 588.93,-191.04 592.13,-197.26"/>
</a>
</g>
</g>
<!-- Node41&#45;&gt;Node32 -->
<g id="edge62_Node000041_Node000032" class="edge">
<title>Node41&#45;&gt;Node32</title>
<g id="a_edge62_Node000041_Node000032"><a xlink:title=" ">
<path fill="none" stroke="#63b8ff" d="M570.85,-288.11C635.53,-278.99 754.85,-262.17 831.08,-251.43"/>
<polygon fill="#63b8ff" stroke="#63b8ff" points="831.67,-254.88 841.08,-250.02 830.69,-247.95 831.67,-254.88"/>
</a>
</g>
</g>
<!-- Node42 -->
<g id="Node000042" class="node">
<title>Node42</title>
<g id="a_Node000042"><a xlink:href="Exceptions_8hpp.html" target="_top" xlink:title=" ">
<polygon fill="white" stroke="#666666" points="497,-250 368,-250 368,-231 497,-231 497,-250"/>
<text text-anchor="middle" x="432.5" y="-238" font-family="Helvetica,sans-Serif" font-size="10.00">precice/Exceptions.hpp</text>
</a>
</g>
</g>
<!-- Node41&#45;&gt;Node42 -->
<g id="edge56_Node000041_Node000042" class="edge">
<title>Node41&#45;&gt;Node42</title>
<g id="a_edge56_Node000041_Node000042"><a xlink:title=" ">
<path fill="none" stroke="#63b8ff" d="M510.56,-285.98C496,-277.69 473.63,-264.94 456.57,-255.22"/>
<polygon fill="#63b8ff" stroke="#63b8ff" points="458.14,-252.08 447.71,-250.17 454.67,-258.16 458.14,-252.08"/>
</a>
</g>
</g>
<!-- Node44 -->
<g id="Node000044" class="node">
<title>Node44</title>
<g id="a_Node000044"><a xlink:href="Tracer_8hpp.html" target="_top" xlink:title=" ">
<polygon fill="white" stroke="#666666" points="659,-250 554,-250 554,-231 659,-231 659,-250"/>
<text text-anchor="middle" x="606.5" y="-238" font-family="Helvetica,sans-Serif" font-size="10.00">logging/Tracer.hpp</text>
</a>
</g>
</g>
<!-- Node41&#45;&gt;Node44 -->
<g id="edge60_Node000041_Node000044" class="edge">
<title>Node41&#45;&gt;Node44</title>
<g id="a_edge60_Node000041_Node000044"><a xlink:title=" ">
<path fill="none" stroke="#63b8ff" d="M538.51,-285.98C550.96,-277.84 569.96,-265.41 584.71,-255.76"/>
<polygon fill="#63b8ff" stroke="#63b8ff" points="586.8,-258.57 593.25,-250.17 582.96,-252.72 586.8,-258.57"/>
</a>
</g>
</g>
<!-- Node42&#45;&gt;Node2 -->
<g id="edge57_Node000042_Node000002" class="edge">
<title>Node42&#45;&gt;Node2</title>
<g id="a_edge57_Node000042_Node000002"><a xlink:title=" ">
<path fill="none" stroke="#63b8ff" d="M410.11,-230.99C383.88,-221.03 340.22,-204.45 310.44,-193.13"/>
<polygon fill="#63b8ff" stroke="#63b8ff" points="311.51,-189.8 300.92,-189.52 309.03,-196.34 311.51,-189.8"/>
</a>
</g>
</g>
<!-- Node43 -->
<g id="Node000043" class="node">
<title>Node43</title>
<g id="a_Node000043"><a xlink:title=" ">
<polygon fill="#e0e0e0" stroke="#999999" points="480,-189.5 385,-189.5 385,-170.5 480,-170.5 480,-189.5"/>
<text text-anchor="middle" x="432.5" y="-177.5" font-family="Helvetica,sans-Serif" font-size="10.00">precice/export.h</text>
</a>
</g>
</g>
<!-- Node42&#45;&gt;Node43 -->
<g id="edge58_Node000042_Node000043" class="edge">
<title>Node42&#45;&gt;Node43</title>
<g id="a_edge58_Node000042_Node000043"><a xlink:title=" ">
<path fill="none" stroke="#63b8ff" d="M432.5,-230.87C432.5,-222.75 432.5,-210.31 432.5,-199.89"/>
<polygon fill="#63b8ff" stroke="#63b8ff" points="436,-199.67 432.5,-189.67 429,-199.67 436,-199.67"/>
</a>
</g>
</g>
<!-- Node44&#45;&gt;Node40 -->
<g id="edge61_Node000044_Node000040" class="edge">
<title>Node44&#45;&gt;Node40</title>
<g id="a_edge61_Node000044_Node000040"><a xlink:title=" ">
<path fill="none" stroke="#63b8ff" d="M604.58,-250.19C601.33,-263.32 593.65,-288.42 579.5,-305 568.3,-318.13 552.23,-328.64 538.22,-336.15"/>
<polygon fill="#63b8ff" stroke="#63b8ff" points="536.26,-333.22 528.92,-340.86 539.43,-339.46 536.26,-333.22"/>
</a>
</g>
</g>
<!-- Node46 -->
<g id="Node000046" class="node">
<title>Node46</title>
<g id="a_Node000046"><a xlink:href="Types_8hpp.html" target="_top" xlink:title=" ">
<polygon fill="white" stroke="#666666" points="349.5,-305 245.5,-305 245.5,-286 349.5,-286 349.5,-305"/>
<text text-anchor="middle" x="297.5" y="-293" font-family="Helvetica,sans-Serif" font-size="10.00">precice/Types.hpp</text>
</a>
</g>
</g>
<!-- Node45&#45;&gt;Node46 -->
<g id="edge64_Node000045_Node000046" class="edge">
<title>Node45&#45;&gt;Node46</title>
<g id="a_edge64_Node000045_Node000046"><a xlink:title=" ">
<path fill="none" stroke="#63b8ff" d="M307.52,-340.75C305.93,-333.72 303.64,-323.62 301.65,-314.84"/>
<polygon fill="#63b8ff" stroke="#63b8ff" points="305.07,-314.07 299.44,-305.09 298.24,-315.62 305.07,-314.07"/>
</a>
</g>
</g>
<!-- Node48&#45;&gt;Node14 -->
<g id="edge67_Node000048_Node000014" class="edge">
<title>Node48&#45;&gt;Node14</title>
<g id="a_edge67_Node000048_Node000014"><a xlink:title=" ">
<path fill="none" stroke="#63b8ff" d="M65.29,-285.69C87.36,-263.81 147.39,-205.81 203.5,-165 219.27,-153.53 238.15,-142.34 253.03,-134.05"/>
<polygon fill="#63b8ff" stroke="#63b8ff" points="255.07,-136.92 262.15,-129.04 251.7,-130.78 255.07,-136.92"/>
</a>
</g>
</g>
</g>
</svg>
