<?xml version="1.0" encoding="UTF-8" standalone="no"?>
<!DOCTYPE svg PUBLIC "-//W3C//DTD SVG 1.1//EN"
 "http://www.w3.org/Graphics/SVG/1.1/DTD/svg11.dtd">
<!-- Generated by graphviz version 2.43.0 (0)
 -->
<!-- Title: src/math/Bspline.cpp Pages: 1 -->
<!--zoomable 610 -->
<svg id="main" version="1.1" xmlns="http://www.w3.org/2000/svg" xmlns:xlink="http://www.w3.org/1999/xlink" xml:space="preserve" onload="init(evt)">
<style type="text/css"><![CDATA[
.edge:hover path { stroke: red; }
.edge:hover polygon { stroke: red; fill: red; }
]]></style>
<script type="text/javascript"><![CDATA[
var edges = document.getElementsByTagName('g');
if (edges && edges.length) {
  for (var i=0;i<edges.length;i++) {
    if (edges[i].id.substr(0,4)=='edge') {
      edges[i].setAttribute('class','edge');
    }
  }
}
]]></script>
        <defs>
                <circle id="rim" cx="0" cy="0" r="7"/>
                <circle id="rim2" cx="0" cy="0" r="3.5"/>
                <g id="zoomPlus">
                        <use xlink:href="#rim" fill="#404040">
                                <set attributeName="fill" to="#808080" begin="zoomplus.mouseover" end="zoomplus.mouseout"/>
                        </use>
                        <path d="M-4,0h8M0,-4v8" fill="none" stroke="white" stroke-width="1.5" pointer-events="none"/>
                </g>
                <g id="zoomMin">
                        <use xlink:href="#rim" fill="#404040">
                                <set attributeName="fill" to="#808080" begin="zoomminus.mouseover" end="zoomminus.mouseout"/>
                        </use>
                        <path d="M-4,0h8" fill="none" stroke="white" stroke-width="1.5" pointer-events="none"/>
                </g>
                <g id="dirArrow">
                        <path fill="none" stroke="white" stroke-width="1.5" d="M0,-3.0v7 M-2.5,-0.5L0,-3.0L2.5,-0.5"/>
                </g>
               <g id="resetDef">
                       <use xlink:href="#rim2" fill="#404040">
                               <set attributeName="fill" to="#808080" begin="reset.mouseover" end="reset.mouseout"/>
                       </use>
               </g>
        </defs>

<script type="text/javascript">
var viewWidth = 1482;
var viewHeight = 610;
var sectionId = 'dynsection-0';
</script>
<script xlink:href="svgpan.js"/>
<svg id="graph" class="graph">
<g id="viewport">
<title>src/math/Bspline.cpp</title>
<polygon fill="white" stroke="transparent" points="-4,4 -4,-606 1478.2,-606 1478.2,4 -4,4"/>
<!-- Node1 -->
<g id="node1" class="node">
<title>Node1</title>
<g id="a_node1"><a xlink:title=" ">
<polygon fill="#bfbfbf" stroke="black" points="1064.7,-582.5 1064.7,-601.5 1183.7,-601.5 1183.7,-582.5 1064.7,-582.5"/>
<text text-anchor="middle" x="1124.2" y="-589.5" font-family="Helvetica,sans-Serif" font-size="10.00">src/math/Bspline.cpp</text>
</a>
</g>
</g>
<!-- Node2 -->
<g id="node2" class="node">
<title>Node2</title>
<g id="a_node2"><a xlink:href="Bspline_8hpp.html" target="_top" xlink:title=" ">
<polygon fill="white" stroke="black" points="33.2,-470.5 33.2,-489.5 135.2,-489.5 135.2,-470.5 33.2,-470.5"/>
<text text-anchor="middle" x="84.2" y="-477.5" font-family="Helvetica,sans-Serif" font-size="10.00">math/Bspline.hpp</text>
</a>
</g>
</g>
<!-- Node1&#45;&gt;Node2 -->
<g id="edge1" class="edge">
<title>Node1&#45;&gt;Node2</title>
<path fill="none" stroke="midnightblue" d="M1064.42,-591.11C934.46,-590.57 616.8,-584.97 354.2,-546 270.14,-533.53 173.85,-507.42 122.01,-492.36"/>
<polygon fill="midnightblue" stroke="midnightblue" points="122.83,-488.96 112.25,-489.51 120.87,-495.67 122.83,-488.96"/>
</g>
<!-- Node3 -->
<g id="node3" class="node">
<title>Node3</title>
<g id="a_node3"><a xlink:title=" ">
<polygon fill="white" stroke="#bfbfbf" points="1082.7,-0.5 1082.7,-19.5 1151.7,-19.5 1151.7,-0.5 1082.7,-0.5"/>
<text text-anchor="middle" x="1117.2" y="-7.5" font-family="Helvetica,sans-Serif" font-size="10.00">Eigen/Core</text>
</a>
</g>
</g>
<!-- Node1&#45;&gt;Node3 -->
<g id="edge57" class="edge">
<title>Node1&#45;&gt;Node3</title>
<path fill="none" stroke="midnightblue" d="M1183.79,-587.64C1216.53,-582.76 1255.57,-571.5 1281.2,-546 1302.54,-524.77 1300.2,-511.1 1300.2,-481 1300.2,-481 1300.2,-481 1300.2,-121 1300.2,-56.75 1216.31,-29.08 1162.13,-17.9"/>
<polygon fill="midnightblue" stroke="midnightblue" points="1162.54,-14.42 1152.05,-15.94 1161.2,-21.29 1162.54,-14.42"/>
</g>
<!-- Node4 -->
<g id="node4" class="node">
<title>Node4</title>
<g id="a_node4"><a xlink:href="differences_8hpp.html" target="_top" xlink:title=" ">
<polygon fill="white" stroke="black" points="1152.2,-526.5 1152.2,-545.5 1272.2,-545.5 1272.2,-526.5 1152.2,-526.5"/>
<text text-anchor="middle" x="1212.2" y="-533.5" font-family="Helvetica,sans-Serif" font-size="10.00">math/differences.hpp</text>
</a>
</g>
</g>
<!-- Node1&#45;&gt;Node4 -->
<g id="edge3" class="edge">
<title>Node1&#45;&gt;Node4</title>
<path fill="none" stroke="midnightblue" d="M1138.34,-582.32C1152.07,-573.9 1173.14,-560.97 1189.27,-551.07"/>
<polygon fill="midnightblue" stroke="midnightblue" points="1191.41,-553.87 1198.1,-545.65 1187.74,-547.9 1191.41,-553.87"/>
</g>
<!-- Node5 -->
<g id="node5" class="node">
<title>Node5</title>
<g id="a_node5"><a xlink:href="assertion_8hpp.html" target="_top" xlink:title=" ">
<polygon fill="white" stroke="black" points="498.7,-470.5 498.7,-489.5 605.7,-489.5 605.7,-470.5 498.7,-470.5"/>
<text text-anchor="middle" x="552.2" y="-477.5" font-family="Helvetica,sans-Serif" font-size="10.00">utils/assertion.hpp</text>
</a>
</g>
</g>
<!-- Node1&#45;&gt;Node5 -->
<g id="edge56" class="edge">
<title>Node1&#45;&gt;Node5</title>
<path fill="none" stroke="midnightblue" d="M1079.79,-582.46C976.32,-562.56 719.44,-513.16 606.71,-491.48"/>
<polygon fill="midnightblue" stroke="midnightblue" points="607.06,-487.99 596.58,-489.53 605.74,-494.86 607.06,-487.99"/>
</g>
<!-- Node6 -->
<g id="node6" class="node">
<title>Node6</title>
<g id="a_node6"><a xlink:title=" ">
<polygon fill="white" stroke="#bfbfbf" points="28.7,-409 28.7,-428 77.7,-428 77.7,-409 28.7,-409"/>
<text text-anchor="middle" x="53.2" y="-416" font-family="Helvetica,sans-Serif" font-size="10.00">cstdlib</text>
</a>
</g>
</g>
<!-- Node1&#45;&gt;Node6 -->
<g id="edge59" class="edge">
<title>Node1&#45;&gt;Node6</title>
<path fill="none" stroke="midnightblue" d="M1064.69,-583.66C996.58,-575.14 881.73,-560.41 783.2,-546 472.75,-500.58 387.15,-522.71 86.2,-434 84.06,-433.37 81.87,-432.63 79.69,-431.83"/>
<polygon fill="midnightblue" stroke="midnightblue" points="80.94,-428.56 70.36,-428.03 78.3,-435.04 80.94,-428.56"/>
</g>
<!-- Node13 -->
<g id="node13" class="node">
<title>Node13</title>
<g id="a_node13"><a xlink:title=" ">
<polygon fill="white" stroke="#bfbfbf" points="1145.2,-56.5 1145.2,-75.5 1209.2,-75.5 1209.2,-56.5 1145.2,-56.5"/>
<text text-anchor="middle" x="1177.2" y="-63.5" font-family="Helvetica,sans-Serif" font-size="10.00">algorithm</text>
</a>
</g>
</g>
<!-- Node1&#45;&gt;Node13 -->
<g id="edge58" class="edge">
<title>Node1&#45;&gt;Node13</title>
<path fill="none" stroke="midnightblue" d="M1126.51,-582.08C1129.84,-569.48 1136.35,-545.78 1143.2,-526 1168.96,-451.63 1199.2,-436.71 1199.2,-358 1199.2,-358 1199.2,-358 1199.2,-182.5 1199.2,-147.59 1189.38,-107.78 1182.87,-85.19"/>
<polygon fill="midnightblue" stroke="midnightblue" points="1186.21,-84.16 1179.99,-75.59 1179.5,-86.17 1186.21,-84.16"/>
</g>
<!-- Node41 -->
<g id="node41" class="node">
<title>Node41</title>
<g id="a_node41"><a xlink:title=" ">
<polygon fill="white" stroke="#bfbfbf" points="1328.2,-526.5 1328.2,-545.5 1474.2,-545.5 1474.2,-526.5 1328.2,-526.5"/>
<text text-anchor="middle" x="1401.2" y="-533.5" font-family="Helvetica,sans-Serif" font-size="10.00">unsupported/Eigen/Splines</text>
</a>
</g>
</g>
<!-- Node1&#45;&gt;Node41 -->
<g id="edge60" class="edge">
<title>Node1&#45;&gt;Node41</title>
<path fill="none" stroke="midnightblue" d="M1168.09,-582.44C1216.72,-572.96 1295.15,-557.67 1347.43,-547.48"/>
<polygon fill="midnightblue" stroke="midnightblue" points="1348.37,-550.87 1357.52,-545.52 1347.03,-543.99 1348.37,-550.87"/>
</g>
<!-- Node2&#45;&gt;Node3 -->
<g id="edge2" class="edge">
<title>Node2&#45;&gt;Node3</title>
<path fill="none" stroke="midnightblue" d="M65.13,-470.5C50.41,-462.97 30.68,-450.59 19.2,-434 -0.6,-405.36 0.2,-392.82 0.2,-358 0.2,-358 0.2,-358 0.2,-121 0.2,-11.35 863.72,-9.48 1072.27,-10.63"/>
<polygon fill="midnightblue" stroke="midnightblue" points="1072.53,-14.13 1082.55,-10.69 1072.57,-7.13 1072.53,-14.13"/>
</g>
<!-- Node4&#45;&gt;Node3 -->
<g id="edge4" class="edge">
<title>Node4&#45;&gt;Node3</title>
<path fill="none" stroke="midnightblue" d="M1215.37,-526.44C1222.09,-507.47 1237.2,-460.33 1237.2,-419.5 1237.2,-419.5 1237.2,-419.5 1237.2,-121 1237.2,-90.9 1238,-78.67 1218.2,-56 1203.62,-39.3 1181.64,-28.51 1161.9,-21.7"/>
<polygon fill="midnightblue" stroke="midnightblue" points="1162.73,-18.29 1152.14,-18.58 1160.59,-24.96 1162.73,-18.29"/>
</g>
<!-- Node4&#45;&gt;Node5 -->
<g id="edge5" class="edge">
<title>Node4&#45;&gt;Node5</title>
<path fill="none" stroke="midnightblue" d="M1152.17,-530.09C1027.95,-519.93 743.67,-496.67 616.16,-486.23"/>
<polygon fill="midnightblue" stroke="midnightblue" points="616.4,-482.74 606.15,-485.41 615.83,-489.72 616.4,-482.74"/>
</g>
<!-- Node5&#45;&gt;Node6 -->
<g id="edge6" class="edge">
<title>Node5&#45;&gt;Node6</title>
<path fill="none" stroke="midnightblue" d="M498.5,-475.96C393.13,-469.64 162.88,-454 86.2,-434 83.9,-433.4 81.56,-432.66 79.24,-431.83"/>
<polygon fill="midnightblue" stroke="midnightblue" points="80.54,-428.59 69.96,-428.09 77.92,-435.08 80.54,-428.59"/>
</g>
<!-- Node7 -->
<g id="node7" class="node">
<title>Node7</title>
<g id="a_node7"><a xlink:title=" ">
<polygon fill="white" stroke="#bfbfbf" points="599.2,-409 599.2,-428 659.2,-428 659.2,-409 599.2,-409"/>
<text text-anchor="middle" x="629.2" y="-416" font-family="Helvetica,sans-Serif" font-size="10.00">iostream</text>
</a>
</g>
</g>
<!-- Node5&#45;&gt;Node7 -->
<g id="edge7" class="edge">
<title>Node5&#45;&gt;Node7</title>
<path fill="none" stroke="midnightblue" d="M563.23,-470.48C575.47,-461.02 595.43,-445.6 610.19,-434.19"/>
<polygon fill="midnightblue" stroke="midnightblue" points="612.42,-436.89 618.19,-428.01 608.14,-431.35 612.42,-436.89"/>
</g>
<!-- Node8 -->
<g id="node8" class="node">
<title>Node8</title>
<g id="a_node8"><a xlink:href="fmt_8hpp.html" target="_top" xlink:title=" ">
<polygon fill="white" stroke="black" points="833.7,-174 833.7,-193 912.7,-193 912.7,-174 833.7,-174"/>
<text text-anchor="middle" x="873.2" y="-181" font-family="Helvetica,sans-Serif" font-size="10.00">utils/fmt.hpp</text>
</a>
</g>
</g>
<!-- Node5&#45;&gt;Node8 -->
<g id="edge8" class="edge">
<title>Node5&#45;&gt;Node8</title>
<path fill="none" stroke="midnightblue" d="M552.84,-470.29C554.91,-447.58 563.23,-385.66 594.2,-347 658.97,-266.15 775.62,-217.34 835.5,-196.45"/>
<polygon fill="midnightblue" stroke="midnightblue" points="836.97,-199.65 845.3,-193.11 834.7,-193.03 836.97,-199.65"/>
</g>
<!-- Node22 -->
<g id="node22" class="node">
<title>Node22</title>
<g id="a_node22"><a xlink:title=" ">
<polygon fill="white" stroke="#bfbfbf" points="1023.7,-409 1023.7,-428 1170.7,-428 1170.7,-409 1023.7,-409"/>
<text text-anchor="middle" x="1097.2" y="-416" font-family="Helvetica,sans-Serif" font-size="10.00">boost/current_function.hpp</text>
</a>
</g>
</g>
<!-- Node5&#45;&gt;Node22 -->
<g id="edge26" class="edge">
<title>Node5&#45;&gt;Node22</title>
<path fill="none" stroke="midnightblue" d="M605.8,-474.86C691.3,-468 863.76,-453.12 1009.2,-434 1018.77,-432.74 1028.9,-431.24 1038.75,-429.68"/>
<polygon fill="midnightblue" stroke="midnightblue" points="1039.56,-433.09 1048.87,-428.04 1038.44,-426.18 1039.56,-433.09"/>
</g>
<!-- Node23 -->
<g id="node23" class="node">
<title>Node23</title>
<g id="a_node23"><a xlink:title=" ">
<polygon fill="white" stroke="#bfbfbf" points="95.7,-403.5 95.7,-433.5 230.7,-433.5 230.7,-403.5 95.7,-403.5"/>
<text text-anchor="start" x="103.7" y="-421.5" font-family="Helvetica,sans-Serif" font-size="10.00">boost/preprocessor</text>
<text text-anchor="middle" x="163.2" y="-410.5" font-family="Helvetica,sans-Serif" font-size="10.00">/comparison/greater.hpp</text>
</a>
</g>
</g>
<!-- Node5&#45;&gt;Node23 -->
<g id="edge27" class="edge">
<title>Node5&#45;&gt;Node23</title>
<path fill="none" stroke="midnightblue" d="M498.61,-471.63C437.28,-463.09 333.88,-448.34 245.2,-434 243.73,-433.76 242.24,-433.52 240.75,-433.27"/>
<polygon fill="midnightblue" stroke="midnightblue" points="241.18,-429.8 230.74,-431.61 240.03,-436.7 241.18,-429.8"/>
</g>
<!-- Node24 -->
<g id="node24" class="node">
<title>Node24</title>
<g id="a_node24"><a xlink:title=" ">
<polygon fill="white" stroke="#bfbfbf" points="250.2,-168.5 250.2,-198.5 360.2,-198.5 360.2,-168.5 250.2,-168.5"/>
<text text-anchor="start" x="258.2" y="-186.5" font-family="Helvetica,sans-Serif" font-size="10.00">boost/preprocessor</text>
<text text-anchor="middle" x="305.2" y="-175.5" font-family="Helvetica,sans-Serif" font-size="10.00">/control/if.hpp</text>
</a>
</g>
</g>
<!-- Node5&#45;&gt;Node24 -->
<g id="edge28" class="edge">
<title>Node5&#45;&gt;Node24</title>
<path fill="none" stroke="midnightblue" d="M498.65,-475.4C437.3,-470.17 341.93,-458.31 316.2,-434 290.9,-410.09 297.2,-392.82 297.2,-358 297.2,-358 297.2,-358 297.2,-300 297.2,-268.42 300.21,-232.1 302.54,-208.75"/>
<polygon fill="midnightblue" stroke="midnightblue" points="306.03,-209.01 303.58,-198.7 299.07,-208.29 306.03,-209.01"/>
</g>
<!-- Node25 -->
<g id="node25" class="node">
<title>Node25</title>
<g id="a_node25"><a xlink:title=" ">
<polygon fill="white" stroke="#bfbfbf" points="122.2,-168.5 122.2,-198.5 232.2,-198.5 232.2,-168.5 122.2,-168.5"/>
<text text-anchor="start" x="130.2" y="-186.5" font-family="Helvetica,sans-Serif" font-size="10.00">boost/preprocessor</text>
<text text-anchor="middle" x="177.2" y="-175.5" font-family="Helvetica,sans-Serif" font-size="10.00">/stringize.hpp</text>
</a>
</g>
</g>
<!-- Node5&#45;&gt;Node25 -->
<g id="edge29" class="edge">
<title>Node5&#45;&gt;Node25</title>
<path fill="none" stroke="midnightblue" d="M498.54,-475.46C432.54,-470.14 325.41,-458.02 294.2,-434 264.73,-411.32 259.2,-395.19 259.2,-358 259.2,-358 259.2,-358 259.2,-300 259.2,-261.11 227.92,-226.2 203.99,-205.19"/>
<polygon fill="midnightblue" stroke="midnightblue" points="206.11,-202.4 196.22,-198.61 201.59,-207.74 206.11,-202.4"/>
</g>
<!-- Node26 -->
<g id="node26" class="node">
<title>Node26</title>
<g id="a_node26"><a xlink:title=" ">
<polygon fill="white" stroke="#bfbfbf" points="325.2,-403.5 325.2,-433.5 435.2,-433.5 435.2,-403.5 325.2,-403.5"/>
<text text-anchor="start" x="333.2" y="-421.5" font-family="Helvetica,sans-Serif" font-size="10.00">boost/preprocessor</text>
<text text-anchor="middle" x="380.2" y="-410.5" font-family="Helvetica,sans-Serif" font-size="10.00">/variadic/size.hpp</text>
</a>
</g>
</g>
<!-- Node5&#45;&gt;Node26 -->
<g id="edge30" class="edge">
<title>Node5&#45;&gt;Node26</title>
<path fill="none" stroke="midnightblue" d="M527.56,-470.48C502.3,-461.74 462.32,-447.91 430.37,-436.86"/>
<polygon fill="midnightblue" stroke="midnightblue" points="431.33,-433.48 420.74,-433.52 429.04,-440.1 431.33,-433.48"/>
</g>
<!-- Node27 -->
<g id="node27" class="node">
<title>Node27</title>
<g id="a_node27"><a xlink:href="ArgumentFormatter_8hpp.html" target="_top" xlink:title=" ">
<polygon fill="white" stroke="black" points="416.7,-235.5 416.7,-254.5 573.7,-254.5 573.7,-235.5 416.7,-235.5"/>
<text text-anchor="middle" x="495.2" y="-242.5" font-family="Helvetica,sans-Serif" font-size="10.00">utils/ArgumentFormatter.hpp</text>
</a>
</g>
</g>
<!-- Node5&#45;&gt;Node27 -->
<g id="edge31" class="edge">
<title>Node5&#45;&gt;Node27</title>
<path fill="none" stroke="midnightblue" d="M549.87,-470.31C544.84,-451.5 532.67,-405.63 523.2,-367 514.33,-330.83 504.69,-288.38 499.35,-264.59"/>
<polygon fill="midnightblue" stroke="midnightblue" points="502.69,-263.52 497.09,-254.53 495.86,-265.05 502.69,-263.52"/>
</g>
<!-- Node31 -->
<g id="node31" class="node">
<title>Node31</title>
<g id="a_node31"><a xlink:href="Parallel_8hpp.html" target="_top" xlink:title=" ">
<polygon fill="white" stroke="black" points="720.2,-409 720.2,-428 818.2,-428 818.2,-409 720.2,-409"/>
<text text-anchor="middle" x="769.2" y="-416" font-family="Helvetica,sans-Serif" font-size="10.00">utils/Parallel.hpp</text>
</a>
</g>
</g>
<!-- Node5&#45;&gt;Node31 -->
<g id="edge38" class="edge">
<title>Node5&#45;&gt;Node31</title>
<path fill="none" stroke="midnightblue" d="M583.29,-470.48C621.48,-460 686.37,-442.21 728.5,-430.66"/>
<polygon fill="midnightblue" stroke="midnightblue" points="729.45,-434.03 738.17,-428.01 727.6,-427.28 729.45,-434.03"/>
</g>
<!-- Node39 -->
<g id="node39" class="node">
<title>Node39</title>
<g id="a_node39"><a xlink:href="stacktrace_8hpp.html" target="_top" xlink:title=" ">
<polygon fill="white" stroke="black" points="1057.7,-291.5 1057.7,-310.5 1170.7,-310.5 1170.7,-291.5 1057.7,-291.5"/>
<text text-anchor="middle" x="1114.2" y="-298.5" font-family="Helvetica,sans-Serif" font-size="10.00">utils/stacktrace.hpp</text>
</a>
</g>
</g>
<!-- Node5&#45;&gt;Node39 -->
<g id="edge53" class="edge">
<title>Node5&#45;&gt;Node39</title>
<path fill="none" stroke="midnightblue" d="M606.04,-476.9C700.56,-471.1 899.88,-449.26 1043.2,-367 1065.5,-354.2 1086.63,-333.32 1099.95,-318.69"/>
<polygon fill="midnightblue" stroke="midnightblue" points="1102.83,-320.71 1106.84,-310.9 1097.59,-316.07 1102.83,-320.71"/>
</g>
<!-- Node40 -->
<g id="node40" class="node">
<title>Node40</title>
<g id="a_node40"><a xlink:title=" ">
<polygon fill="white" stroke="#bfbfbf" points="453.2,-409 453.2,-428 505.2,-428 505.2,-409 453.2,-409"/>
<text text-anchor="middle" x="479.2" y="-416" font-family="Helvetica,sans-Serif" font-size="10.00">cassert</text>
</a>
</g>
</g>
<!-- Node5&#45;&gt;Node40 -->
<g id="edge55" class="edge">
<title>Node5&#45;&gt;Node40</title>
<path fill="none" stroke="midnightblue" d="M541.74,-470.48C530.25,-461.11 511.57,-445.88 497.61,-434.51"/>
<polygon fill="midnightblue" stroke="midnightblue" points="499.6,-431.61 489.64,-428.01 495.18,-437.04 499.6,-431.61"/>
</g>
<!-- Node9 -->
<g id="node9" class="node">
<title>Node9</title>
<g id="a_node9"><a xlink:title=" ">
<polygon fill="white" stroke="#bfbfbf" points="1021.2,-112.5 1021.2,-131.5 1065.2,-131.5 1065.2,-112.5 1021.2,-112.5"/>
<text text-anchor="middle" x="1043.2" y="-119.5" font-family="Helvetica,sans-Serif" font-size="10.00">string</text>
</a>
</g>
</g>
<!-- Node8&#45;&gt;Node9 -->
<g id="edge9" class="edge">
<title>Node8&#45;&gt;Node9</title>
<path fill="none" stroke="midnightblue" d="M897.56,-173.98C927.51,-163.49 978.43,-145.67 1011.43,-134.12"/>
<polygon fill="midnightblue" stroke="midnightblue" points="1012.77,-137.36 1021.05,-130.75 1010.46,-130.75 1012.77,-137.36"/>
</g>
<!-- Node10 -->
<g id="node10" class="node">
<title>Node10</title>
<g id="a_node10"><a xlink:title=" ">
<polygon fill="white" stroke="#bfbfbf" points="818.7,-56.5 818.7,-75.5 897.7,-75.5 897.7,-56.5 818.7,-56.5"/>
<text text-anchor="middle" x="858.2" y="-63.5" font-family="Helvetica,sans-Serif" font-size="10.00">fmt/format.h</text>
</a>
</g>
</g>
<!-- Node8&#45;&gt;Node10 -->
<g id="edge10" class="edge">
<title>Node8&#45;&gt;Node10</title>
<path fill="none" stroke="midnightblue" d="M872.07,-173.82C869.66,-155.26 863.96,-111.34 860.67,-85.97"/>
<polygon fill="midnightblue" stroke="midnightblue" points="864.1,-85.25 859.34,-75.78 857.16,-86.15 864.1,-85.25"/>
</g>
<!-- Node11 -->
<g id="node11" class="node">
<title>Node11</title>
<g id="a_node11"><a xlink:title=" ">
<polygon fill="white" stroke="#bfbfbf" points="755.2,-112.5 755.2,-131.5 841.2,-131.5 841.2,-112.5 755.2,-112.5"/>
<text text-anchor="middle" x="798.2" y="-119.5" font-family="Helvetica,sans-Serif" font-size="10.00">fmt/ostream.h</text>
</a>
</g>
</g>
<!-- Node8&#45;&gt;Node11 -->
<g id="edge11" class="edge">
<title>Node8&#45;&gt;Node11</title>
<path fill="none" stroke="midnightblue" d="M862.46,-173.98C850.65,-164.61 831.46,-149.38 817.12,-138.01"/>
<polygon fill="midnightblue" stroke="midnightblue" points="818.94,-134.98 808.93,-131.51 814.59,-140.47 818.94,-134.98"/>
</g>
<!-- Node12 -->
<g id="node12" class="node">
<title>Node12</title>
<g id="a_node12"><a xlink:href="fmtEigen_8hpp.html" target="_top" xlink:title=" ">
<polygon fill="white" stroke="black" points="897.2,-112.5 897.2,-131.5 1003.2,-131.5 1003.2,-112.5 897.2,-112.5"/>
<text text-anchor="middle" x="950.2" y="-119.5" font-family="Helvetica,sans-Serif" font-size="10.00">utils/fmtEigen.hpp</text>
</a>
</g>
</g>
<!-- Node8&#45;&gt;Node12 -->
<g id="edge12" class="edge">
<title>Node8&#45;&gt;Node12</title>
<path fill="none" stroke="midnightblue" d="M884.23,-173.98C896.47,-164.52 916.43,-149.1 931.19,-137.69"/>
<polygon fill="midnightblue" stroke="midnightblue" points="933.42,-140.39 939.19,-131.51 929.14,-134.85 933.42,-140.39"/>
</g>
<!-- Node16 -->
<g id="node16" class="node">
<title>Node16</title>
<g id="a_node16"><a xlink:href="fmtSTL_8hpp.html" target="_top" xlink:title=" ">
<polygon fill="white" stroke="black" points="641.2,-112.5 641.2,-131.5 737.2,-131.5 737.2,-112.5 641.2,-112.5"/>
<text text-anchor="middle" x="689.2" y="-119.5" font-family="Helvetica,sans-Serif" font-size="10.00">utils/fmtSTL.hpp</text>
</a>
</g>
</g>
<!-- Node8&#45;&gt;Node16 -->
<g id="edge19" class="edge">
<title>Node8&#45;&gt;Node16</title>
<path fill="none" stroke="midnightblue" d="M846.84,-173.98C814.87,-163.64 760.83,-146.16 725.08,-134.6"/>
<polygon fill="midnightblue" stroke="midnightblue" points="726.11,-131.26 715.52,-131.51 723.95,-137.92 726.11,-131.26"/>
</g>
<!-- Node12&#45;&gt;Node3 -->
<g id="edge13" class="edge">
<title>Node12&#45;&gt;Node3</title>
<path fill="none" stroke="midnightblue" d="M993.23,-112.5C1031.11,-104.2 1082.47,-90.71 1097.2,-76 1109.33,-63.89 1114.14,-44.61 1116.02,-30.18"/>
<polygon fill="midnightblue" stroke="midnightblue" points="1119.54,-30.17 1116.99,-19.89 1112.57,-29.52 1119.54,-30.17"/>
</g>
<!-- Node12&#45;&gt;Node10 -->
<g id="edge15" class="edge">
<title>Node12&#45;&gt;Node10</title>
<path fill="none" stroke="midnightblue" d="M935.42,-112.32C920.93,-103.82 898.63,-90.73 881.71,-80.8"/>
<polygon fill="midnightblue" stroke="midnightblue" points="883.34,-77.7 872.95,-75.65 879.8,-83.74 883.34,-77.7"/>
</g>
<!-- Node12&#45;&gt;Node13 -->
<g id="edge14" class="edge">
<title>Node12&#45;&gt;Node13</title>
<path fill="none" stroke="midnightblue" d="M986.17,-112.44C1026.68,-102.81 1092.42,-87.17 1135.24,-76.98"/>
<polygon fill="midnightblue" stroke="midnightblue" points="1136.15,-80.36 1145.07,-74.64 1134.53,-73.55 1136.15,-80.36"/>
</g>
<!-- Node14 -->
<g id="node14" class="node">
<title>Node14</title>
<g id="a_node14"><a xlink:title=" ">
<polygon fill="white" stroke="#bfbfbf" points="915.2,-56.5 915.2,-75.5 971.2,-75.5 971.2,-56.5 915.2,-56.5"/>
<text text-anchor="middle" x="943.2" y="-63.5" font-family="Helvetica,sans-Serif" font-size="10.00">sstream</text>
</a>
</g>
</g>
<!-- Node12&#45;&gt;Node14 -->
<g id="edge16" class="edge">
<title>Node12&#45;&gt;Node14</title>
<path fill="none" stroke="midnightblue" d="M949.05,-112.08C948.12,-104.93 946.78,-94.64 945.62,-85.69"/>
<polygon fill="midnightblue" stroke="midnightblue" points="949.09,-85.22 944.34,-75.75 942.15,-86.12 949.09,-85.22"/>
</g>
<!-- Node15 -->
<g id="node15" class="node">
<title>Node15</title>
<g id="a_node15"><a xlink:href="EigenIO_8hpp.html" target="_top" xlink:title=" ">
<polygon fill="white" stroke="black" points="989.7,-56.5 989.7,-75.5 1088.7,-75.5 1088.7,-56.5 989.7,-56.5"/>
<text text-anchor="middle" x="1039.2" y="-63.5" font-family="Helvetica,sans-Serif" font-size="10.00">utils/EigenIO.hpp</text>
</a>
</g>
</g>
<!-- Node12&#45;&gt;Node15 -->
<g id="edge17" class="edge">
<title>Node12&#45;&gt;Node15</title>
<path fill="none" stroke="midnightblue" d="M964.5,-112.32C978.38,-103.9 999.69,-90.97 1016.01,-81.07"/>
<polygon fill="midnightblue" stroke="midnightblue" points="1018.2,-83.83 1024.94,-75.65 1014.57,-77.85 1018.2,-83.83"/>
</g>
<!-- Node15&#45;&gt;Node3 -->
<g id="edge18" class="edge">
<title>Node15&#45;&gt;Node3</title>
<path fill="none" stroke="midnightblue" d="M1051.73,-56.32C1063.79,-47.98 1082.23,-35.21 1096.47,-25.35"/>
<polygon fill="midnightblue" stroke="midnightblue" points="1098.47,-28.22 1104.7,-19.65 1094.49,-22.47 1098.47,-28.22"/>
</g>
<!-- Node16&#45;&gt;Node10 -->
<g id="edge22" class="edge">
<title>Node16&#45;&gt;Node10</title>
<path fill="none" stroke="midnightblue" d="M715.98,-112.44C744.53,-103.32 789.93,-88.81 821.74,-78.65"/>
<polygon fill="midnightblue" stroke="midnightblue" points="823.09,-81.89 831.55,-75.52 820.96,-75.23 823.09,-81.89"/>
</g>
<!-- Node17 -->
<g id="node17" class="node">
<title>Node17</title>
<g id="a_node17"><a xlink:title=" ">
<polygon fill="white" stroke="#bfbfbf" points="617.2,-56.5 617.2,-75.5 659.2,-75.5 659.2,-56.5 617.2,-56.5"/>
<text text-anchor="middle" x="638.2" y="-63.5" font-family="Helvetica,sans-Serif" font-size="10.00">array</text>
</a>
</g>
</g>
<!-- Node16&#45;&gt;Node17 -->
<g id="edge20" class="edge">
<title>Node16&#45;&gt;Node17</title>
<path fill="none" stroke="midnightblue" d="M680.78,-112.08C673.35,-104.22 662.35,-92.57 653.39,-83.08"/>
<polygon fill="midnightblue" stroke="midnightblue" points="655.88,-80.62 646.47,-75.75 650.79,-85.42 655.88,-80.62"/>
</g>
<!-- Node18 -->
<g id="node18" class="node">
<title>Node18</title>
<g id="a_node18"><a xlink:title=" ">
<polygon fill="white" stroke="#bfbfbf" points="677.7,-56.5 677.7,-75.5 724.7,-75.5 724.7,-56.5 677.7,-56.5"/>
<text text-anchor="middle" x="701.2" y="-63.5" font-family="Helvetica,sans-Serif" font-size="10.00">deque</text>
</a>
</g>
</g>
<!-- Node16&#45;&gt;Node18 -->
<g id="edge21" class="edge">
<title>Node16&#45;&gt;Node18</title>
<path fill="none" stroke="midnightblue" d="M691.18,-112.08C692.77,-104.93 695.06,-94.64 697.05,-85.69"/>
<polygon fill="midnightblue" stroke="midnightblue" points="700.5,-86.27 699.26,-75.75 693.67,-84.75 700.5,-86.27"/>
</g>
<!-- Node19 -->
<g id="node19" class="node">
<title>Node19</title>
<g id="a_node19"><a xlink:title=" ">
<polygon fill="white" stroke="#bfbfbf" points="743.2,-56.5 743.2,-75.5 781.2,-75.5 781.2,-56.5 743.2,-56.5"/>
<text text-anchor="middle" x="762.2" y="-63.5" font-family="Helvetica,sans-Serif" font-size="10.00">map</text>
</a>
</g>
</g>
<!-- Node16&#45;&gt;Node19 -->
<g id="edge23" class="edge">
<title>Node16&#45;&gt;Node19</title>
<path fill="none" stroke="midnightblue" d="M700.93,-112.32C712.04,-104.11 728.94,-91.6 742.18,-81.81"/>
<polygon fill="midnightblue" stroke="midnightblue" points="744.3,-84.59 750.26,-75.83 740.14,-78.97 744.3,-84.59"/>
</g>
<!-- Node20 -->
<g id="node20" class="node">
<title>Node20</title>
<g id="a_node20"><a xlink:title=" ">
<polygon fill="white" stroke="#bfbfbf" points="567.2,-56.5 567.2,-75.5 599.2,-75.5 599.2,-56.5 567.2,-56.5"/>
<text text-anchor="middle" x="583.2" y="-63.5" font-family="Helvetica,sans-Serif" font-size="10.00">set</text>
</a>
</g>
</g>
<!-- Node16&#45;&gt;Node20 -->
<g id="edge24" class="edge">
<title>Node16&#45;&gt;Node20</title>
<path fill="none" stroke="midnightblue" d="M672.17,-112.32C654.97,-103.56 628.2,-89.92 608.52,-79.9"/>
<polygon fill="midnightblue" stroke="midnightblue" points="609.99,-76.72 599.49,-75.3 606.82,-82.96 609.99,-76.72"/>
</g>
<!-- Node21 -->
<g id="node21" class="node">
<title>Node21</title>
<g id="a_node21"><a xlink:title=" ">
<polygon fill="white" stroke="#bfbfbf" points="425.7,-56.5 425.7,-75.5 472.7,-75.5 472.7,-56.5 425.7,-56.5"/>
<text text-anchor="middle" x="449.2" y="-63.5" font-family="Helvetica,sans-Serif" font-size="10.00">vector</text>
</a>
</g>
</g>
<!-- Node16&#45;&gt;Node21 -->
<g id="edge25" class="edge">
<title>Node16&#45;&gt;Node21</title>
<path fill="none" stroke="midnightblue" d="M651.17,-112.44C604.8,-102.01 527.13,-84.53 482.84,-74.57"/>
<polygon fill="midnightblue" stroke="midnightblue" points="483.39,-71.11 472.87,-72.32 481.85,-77.93 483.39,-71.11"/>
</g>
<!-- Node27&#45;&gt;Node8 -->
<g id="edge37" class="edge">
<title>Node27&#45;&gt;Node8</title>
<path fill="none" stroke="midnightblue" d="M566.87,-235.49C648.45,-225.57 776.58,-209.24 824.2,-199 828.4,-198.1 832.76,-197.02 837.07,-195.86"/>
<polygon fill="midnightblue" stroke="midnightblue" points="838.27,-199.16 846.94,-193.07 836.37,-192.42 838.27,-199.16"/>
</g>
<!-- Node27&#45;&gt;Node24 -->
<g id="edge32" class="edge">
<title>Node27&#45;&gt;Node24</title>
<path fill="none" stroke="midnightblue" d="M467.98,-235.48C439.84,-226.66 395.15,-212.67 359.71,-201.57"/>
<polygon fill="midnightblue" stroke="midnightblue" points="360.57,-198.17 349.98,-198.52 358.48,-204.85 360.57,-198.17"/>
</g>
<!-- Node27&#45;&gt;Node25 -->
<g id="edge34" class="edge">
<title>Node27&#45;&gt;Node25</title>
<path fill="none" stroke="midnightblue" d="M443.01,-235.5C393.78,-227.31 317.67,-214.22 242.45,-199.2"/>
<polygon fill="midnightblue" stroke="midnightblue" points="242.82,-195.7 232.32,-197.16 241.44,-202.57 242.82,-195.7"/>
</g>
<!-- Node28 -->
<g id="node28" class="node">
<title>Node28</title>
<g id="a_node28"><a xlink:title=" ">
<polygon fill="white" stroke="#bfbfbf" points="704.7,-168.5 704.7,-198.5 815.7,-198.5 815.7,-168.5 704.7,-168.5"/>
<text text-anchor="start" x="712.7" y="-186.5" font-family="Helvetica,sans-Serif" font-size="10.00">boost/preprocessor</text>
<text text-anchor="middle" x="760.2" y="-175.5" font-family="Helvetica,sans-Serif" font-size="10.00">/seq/for_each_i.hpp</text>
</a>
</g>
</g>
<!-- Node27&#45;&gt;Node28 -->
<g id="edge33" class="edge">
<title>Node27&#45;&gt;Node28</title>
<path fill="none" stroke="midnightblue" d="M533.17,-235.48C575.16,-226.05 643.6,-210.68 694.37,-199.28"/>
<polygon fill="midnightblue" stroke="midnightblue" points="695.28,-202.66 704.27,-197.06 693.75,-195.83 695.28,-202.66"/>
</g>
<!-- Node29 -->
<g id="node29" class="node">
<title>Node29</title>
<g id="a_node29"><a xlink:title=" ">
<polygon fill="white" stroke="#bfbfbf" points="416.7,-168.5 416.7,-198.5 531.7,-198.5 531.7,-168.5 416.7,-168.5"/>
<text text-anchor="start" x="424.7" y="-186.5" font-family="Helvetica,sans-Serif" font-size="10.00">boost/preprocessor</text>
<text text-anchor="middle" x="474.2" y="-175.5" font-family="Helvetica,sans-Serif" font-size="10.00">/variadic/to_seq.hpp</text>
</a>
</g>
</g>
<!-- Node27&#45;&gt;Node29 -->
<g id="edge35" class="edge">
<title>Node27&#45;&gt;Node29</title>
<path fill="none" stroke="midnightblue" d="M492.19,-235.48C489.67,-228.32 485.94,-217.75 482.53,-208.08"/>
<polygon fill="midnightblue" stroke="midnightblue" points="485.78,-206.79 479.15,-198.52 479.18,-209.12 485.78,-206.79"/>
</g>
<!-- Node30 -->
<g id="node30" class="node">
<title>Node30</title>
<g id="a_node30"><a xlink:title=" ">
<polygon fill="white" stroke="#bfbfbf" points="550.2,-174 550.2,-193 686.2,-193 686.2,-174 550.2,-174"/>
<text text-anchor="middle" x="618.2" y="-181" font-family="Helvetica,sans-Serif" font-size="10.00">boost/vmd/is_empty.hpp</text>
</a>
</g>
</g>
<!-- Node27&#45;&gt;Node30 -->
<g id="edge36" class="edge">
<title>Node27&#45;&gt;Node30</title>
<path fill="none" stroke="midnightblue" d="M512.82,-235.48C533.38,-225.53 567.57,-208.99 591.41,-197.46"/>
<polygon fill="midnightblue" stroke="midnightblue" points="593.13,-200.51 600.61,-193.01 590.09,-194.21 593.13,-200.51"/>
</g>
<!-- Node31&#45;&gt;Node9 -->
<g id="edge41" class="edge">
<title>Node31&#45;&gt;Node9</title>
<path fill="none" stroke="midnightblue" d="M818.34,-410.73C874.52,-402.22 962.22,-386.36 989.2,-367 1016.76,-347.22 1029.2,-335.92 1029.2,-302 1029.2,-302 1029.2,-302 1029.2,-244 1029.2,-207.65 1035.51,-165.57 1039.66,-141.84"/>
<polygon fill="midnightblue" stroke="midnightblue" points="1043.15,-142.23 1041.48,-131.77 1036.26,-140.98 1043.15,-142.23"/>
</g>
<!-- Node31&#45;&gt;Node21 -->
<g id="edge42" class="edge">
<title>Node31&#45;&gt;Node21</title>
<path fill="none" stroke="midnightblue" d="M728.56,-408.93C692.41,-400.57 638.57,-386.3 594.2,-367 505.36,-328.36 454.97,-339.28 407.2,-255 375.1,-198.35 416.12,-119.13 437.61,-84.43"/>
<polygon fill="midnightblue" stroke="midnightblue" points="440.63,-86.2 443.07,-75.89 434.74,-82.43 440.63,-86.2"/>
</g>
<!-- Node32 -->
<g id="node32" class="node">
<title>Node32</title>
<g id="a_node32"><a xlink:title=" ">
<polygon fill="white" stroke="#bfbfbf" points="603.2,-347.5 603.2,-366.5 651.2,-366.5 651.2,-347.5 603.2,-347.5"/>
<text text-anchor="middle" x="627.2" y="-354.5" font-family="Helvetica,sans-Serif" font-size="10.00">iosfwd</text>
</a>
</g>
</g>
<!-- Node31&#45;&gt;Node32 -->
<g id="edge39" class="edge">
<title>Node31&#45;&gt;Node32</title>
<path fill="none" stroke="midnightblue" d="M748.86,-408.98C724.81,-398.9 684.6,-382.05 657.04,-370.5"/>
<polygon fill="midnightblue" stroke="midnightblue" points="658.08,-367.15 647.51,-366.51 655.38,-373.6 658.08,-367.15"/>
</g>
<!-- Node33 -->
<g id="node33" class="node">
<title>Node33</title>
<g id="a_node33"><a xlink:title=" ">
<polygon fill="white" stroke="#bfbfbf" points="943.2,-291.5 943.2,-310.5 1001.2,-310.5 1001.2,-291.5 943.2,-291.5"/>
<text text-anchor="middle" x="972.2" y="-298.5" font-family="Helvetica,sans-Serif" font-size="10.00">memory</text>
</a>
</g>
</g>
<!-- Node31&#45;&gt;Node33 -->
<g id="edge40" class="edge">
<title>Node31&#45;&gt;Node33</title>
<path fill="none" stroke="midnightblue" d="M818.67,-412.01C872.2,-404.93 952.44,-390.65 971.2,-367 981.38,-354.16 980.34,-334.98 977.53,-320.78"/>
<polygon fill="midnightblue" stroke="midnightblue" points="980.83,-319.56 975.07,-310.67 974.03,-321.22 980.83,-319.56"/>
</g>
<!-- Node34 -->
<g id="node34" class="node">
<title>Node34</title>
<g id="a_node34"><a xlink:href="Logger_8hpp.html" target="_top" xlink:title=" ">
<polygon fill="white" stroke="black" points="853.7,-347.5 853.7,-366.5 962.7,-366.5 962.7,-347.5 853.7,-347.5"/>
<text text-anchor="middle" x="908.2" y="-354.5" font-family="Helvetica,sans-Serif" font-size="10.00">logging/Logger.hpp</text>
</a>
</g>
</g>
<!-- Node31&#45;&gt;Node34 -->
<g id="edge43" class="edge">
<title>Node31&#45;&gt;Node34</title>
<path fill="none" stroke="midnightblue" d="M789.12,-408.98C812.65,-398.9 852.01,-382.05 878.99,-370.5"/>
<polygon fill="midnightblue" stroke="midnightblue" points="880.51,-373.66 888.32,-366.51 877.75,-367.23 880.51,-373.66"/>
</g>
<!-- Node37 -->
<g id="node37" class="node">
<title>Node37</title>
<g id="a_node37"><a xlink:href="types_8hpp.html" target="_top" xlink:title=" ">
<polygon fill="white" stroke="black" points="669.7,-347.5 669.7,-366.5 772.7,-366.5 772.7,-347.5 669.7,-347.5"/>
<text text-anchor="middle" x="721.2" y="-354.5" font-family="Helvetica,sans-Serif" font-size="10.00">precice/types.hpp</text>
</a>
</g>
</g>
<!-- Node31&#45;&gt;Node37 -->
<g id="edge51" class="edge">
<title>Node31&#45;&gt;Node37</title>
<path fill="none" stroke="midnightblue" d="M762.32,-408.98C755.05,-399.96 743.41,-385.52 734.36,-374.31"/>
<polygon fill="midnightblue" stroke="midnightblue" points="737.07,-372.09 728.07,-366.51 731.62,-376.49 737.07,-372.09"/>
</g>
<!-- Node38 -->
<g id="node38" class="node">
<title>Node38</title>
<g id="a_node38"><a xlink:title=" ">
<polygon fill="white" stroke="#bfbfbf" points="791.2,-347.5 791.2,-366.5 835.2,-366.5 835.2,-347.5 791.2,-347.5"/>
<text text-anchor="middle" x="813.2" y="-354.5" font-family="Helvetica,sans-Serif" font-size="10.00">mpi.h</text>
</a>
</g>
</g>
<!-- Node31&#45;&gt;Node38 -->
<g id="edge52" class="edge">
<title>Node31&#45;&gt;Node38</title>
<path fill="none" stroke="midnightblue" d="M775.51,-408.98C782.11,-400.05 792.64,-385.81 800.89,-374.64"/>
<polygon fill="midnightblue" stroke="midnightblue" points="803.78,-376.63 806.91,-366.51 798.15,-372.47 803.78,-376.63"/>
</g>
<!-- Node34&#45;&gt;Node9 -->
<g id="edge45" class="edge">
<title>Node34&#45;&gt;Node9</title>
<path fill="none" stroke="midnightblue" d="M911.05,-347.35C915.37,-334.67 924.14,-310.42 934.2,-291 964.22,-233.06 1008.81,-169.78 1030.47,-140.13"/>
<polygon fill="midnightblue" stroke="midnightblue" points="1033.54,-141.86 1036.65,-131.73 1027.9,-137.71 1033.54,-141.86"/>
</g>
<!-- Node34&#45;&gt;Node33 -->
<g id="edge44" class="edge">
<title>Node34&#45;&gt;Node33</title>
<path fill="none" stroke="midnightblue" d="M918.48,-347.32C928.04,-339.26 942.48,-327.08 953.99,-317.37"/>
<polygon fill="midnightblue" stroke="midnightblue" points="956.35,-319.96 961.73,-310.83 951.83,-314.61 956.35,-319.96"/>
</g>
<!-- Node35 -->
<g id="node35" class="node">
<title>Node35</title>
<g id="a_node35"><a xlink:href="LogMacros_8hpp.html" target="_top" xlink:title=" ">
<polygon fill="white" stroke="black" points="741.2,-291.5 741.2,-310.5 831.2,-310.5 831.2,-291.5 741.2,-291.5"/>
<text text-anchor="middle" x="786.2" y="-298.5" font-family="Helvetica,sans-Serif" font-size="10.00">LogMacros.hpp</text>
</a>
</g>
</g>
<!-- Node34&#45;&gt;Node35 -->
<g id="edge46" class="edge">
<title>Node34&#45;&gt;Node35</title>
<path fill="none" stroke="midnightblue" d="M888.87,-347.44C868.88,-338.6 837.46,-324.69 814.64,-314.59"/>
<polygon fill="midnightblue" stroke="midnightblue" points="816,-311.36 805.44,-310.52 813.17,-317.76 816,-311.36"/>
</g>
<!-- Node35&#45;&gt;Node8 -->
<g id="edge47" class="edge">
<title>Node35&#45;&gt;Node8</title>
<path fill="none" stroke="midnightblue" d="M785.76,-291.22C785.52,-277.95 786.75,-252.47 798.2,-235 809.07,-218.43 827.45,-205.92 843.3,-197.5"/>
<polygon fill="midnightblue" stroke="midnightblue" points="844.88,-200.62 852.26,-193.01 841.75,-194.36 844.88,-200.62"/>
</g>
<!-- Node35&#45;&gt;Node27 -->
<g id="edge48" class="edge">
<title>Node35&#45;&gt;Node27</title>
<path fill="none" stroke="midnightblue" d="M741.05,-291.62C689.95,-282.14 606.66,-266.68 551.4,-256.43"/>
<polygon fill="midnightblue" stroke="midnightblue" points="551.89,-252.96 541.42,-254.58 550.61,-259.84 551.89,-252.96"/>
</g>
<!-- Node36 -->
<g id="node36" class="node">
<title>Node36</title>
<g id="a_node36"><a xlink:href="Tracer_8hpp.html" target="_top" xlink:title=" ">
<polygon fill="white" stroke="black" points="807.7,-235.5 807.7,-254.5 912.7,-254.5 912.7,-235.5 807.7,-235.5"/>
<text text-anchor="middle" x="860.2" y="-242.5" font-family="Helvetica,sans-Serif" font-size="10.00">logging/Tracer.hpp</text>
</a>
</g>
</g>
<!-- Node35&#45;&gt;Node36 -->
<g id="edge49" class="edge">
<title>Node35&#45;&gt;Node36</title>
<path fill="none" stroke="midnightblue" d="M798.09,-291.32C809.35,-283.11 826.49,-270.6 839.91,-260.81"/>
<polygon fill="midnightblue" stroke="midnightblue" points="842.08,-263.56 848.1,-254.83 837.95,-257.9 842.08,-263.56"/>
</g>
<!-- Node36&#45;&gt;Node34 -->
<g id="edge50" class="edge">
<title>Node36&#45;&gt;Node34</title>
<path fill="none" stroke="midnightblue" d="M863.95,-254.59C871.75,-272.47 889.87,-314 900.35,-338"/>
<polygon fill="midnightblue" stroke="midnightblue" points="897.23,-339.6 904.44,-347.37 903.64,-336.8 897.23,-339.6"/>
</g>
<!-- Node39&#45;&gt;Node9 -->
<g id="edge54" class="edge">
<title>Node39&#45;&gt;Node9</title>
<path fill="none" stroke="midnightblue" d="M1110.78,-291.46C1099.89,-264.31 1065.87,-179.51 1050.67,-141.62"/>
<polygon fill="midnightblue" stroke="midnightblue" points="1053.73,-139.85 1046.76,-131.87 1047.23,-142.45 1053.73,-139.85"/>
</g>
</g>
</svg>
        <g id="navigator" transform="translate(0 0)" fill="#404254">
                <rect fill="#f2f5e9" fill-opacity="0.5" stroke="#606060" stroke-width=".5" x="0" y="0" width="60" height="60"/>
                <use id="zoomplus" xlink:href="#zoomPlus" x="17" y="9" onmousedown="handleZoom(evt,'in')"/>
                <use id="zoomminus" xlink:href="#zoomMin" x="42" y="9" onmousedown="handleZoom(evt,'out')"/>
                <use id="reset" xlink:href="#resetDef" x="30" y="36" onmousedown="handleReset()"/>
                <g id="arrowUp" xlink:href="#dirArrow" transform="translate(30 24)" onmousedown="handlePan(0,-1)">
                  <use xlink:href="#rim" fill="#404040">
                        <set attributeName="fill" to="#808080" begin="arrowUp.mouseover" end="arrowUp.mouseout"/>
                  </use>
                  <path fill="none" stroke="white" stroke-width="1.5" d="M0,-3.0v7 M-2.5,-0.5L0,-3.0L2.5,-0.5"/>
                </g>
                <g id="arrowRight" xlink:href="#dirArrow" transform="rotate(90) translate(36 -43)" onmousedown="handlePan(1,0)">
                  <use xlink:href="#rim" fill="#404040">
                        <set attributeName="fill" to="#808080" begin="arrowRight.mouseover" end="arrowRight.mouseout"/>
                  </use>
                  <path fill="none" stroke="white" stroke-width="1.5" d="M0,-3.0v7 M-2.5,-0.5L0,-3.0L2.5,-0.5"/>
                </g>
                <g id="arrowDown" xlink:href="#dirArrow" transform="rotate(180) translate(-30 -48)" onmousedown="handlePan(0,1)">
                  <use xlink:href="#rim" fill="#404040">
                        <set attributeName="fill" to="#808080" begin="arrowDown.mouseover" end="arrowDown.mouseout"/>
                  </use>
                  <path fill="none" stroke="white" stroke-width="1.5" d="M0,-3.0v7 M-2.5,-0.5L0,-3.0L2.5,-0.5"/>
                </g>
                <g id="arrowLeft" xlink:href="#dirArrow" transform="rotate(270) translate(-36 17)" onmousedown="handlePan(-1,0)">
                  <use xlink:href="#rim" fill="#404040">
                        <set attributeName="fill" to="#808080" begin="arrowLeft.mouseover" end="arrowLeft.mouseout"/>
                  </use>
                  <path fill="none" stroke="white" stroke-width="1.5" d="M0,-3.0v7 M-2.5,-0.5L0,-3.0L2.5,-0.5"/>
                </g>
        </g>
        <svg viewBox="0 0 15 15" width="100%" height="30px" preserveAspectRatio="xMaxYMin meet">
         <g id="arrow_out" transform="scale(0.3 0.3)">
          <a xlink:href="Bspline_8cpp__incl_org.svg" target="_base">
           <rect id="button" ry="5" rx="5" y="6" x="6" height="38" width="38"
                fill="#f2f5e9" fill-opacity="0.5" stroke="#606060" stroke-width="1.0"/>
           <path id="arrow"
             d="M 11.500037,31.436501 C 11.940474,20.09759 22.043105,11.32322 32.158766,21.979434 L 37.068811,17.246167 C 37.068811,17.246167 37.088388,32 37.088388,32 L 22.160133,31.978069 C 22.160133,31.978069 26.997745,27.140456 26.997745,27.140456 C 18.528582,18.264221 13.291696,25.230495 11.500037,31.436501 z"
             style="fill:#404040;"/>
          </a>
         </g>
        </svg>
</svg>
