<?xml version="1.0" encoding="UTF-8" standalone="no"?>
<!DOCTYPE svg PUBLIC "-//W3C//DTD SVG 1.1//EN"
 "http://www.w3.org/Graphics/SVG/1.1/DTD/svg11.dtd">
<!-- Generated by graphviz version 2.43.0 (0)
 -->
<!-- Title: precice::com::serialize::SerializedBoundingBoxMap::receive Pages: 1 -->
<svg width="560pt" height="116pt"
 viewBox="0.00 0.00 560.00 116.00" xmlns="http://www.w3.org/2000/svg" xmlns:xlink="http://www.w3.org/1999/xlink">
<g id="graph0" class="graph" transform="scale(1 1) rotate(0) translate(4 112)">
<title>precice::com::serialize::SerializedBoundingBoxMap::receive</title>
<polygon fill="white" stroke="transparent" points="-4,4 -4,-112 556,-112 556,4 -4,4"/>
<!-- Node1 -->
<g id="node1" class="node">
<title>Node1</title>
<g id="a_node1"><a xlink:title="receives a SerializedBoundingBoxMap and calls assertValid before returning">
<polygon fill="#bfbfbf" stroke="black" points="0,-38.5 0,-79.5 156,-79.5 156,-38.5 0,-38.5"/>
<text text-anchor="start" x="8" y="-67.5" font-family="Helvetica,sans-Serif" font-size="10.00">precice::com::serialize</text>
<text text-anchor="start" x="8" y="-56.5" font-family="Helvetica,sans-Serif" font-size="10.00">::SerializedBoundingBoxMap</text>
<text text-anchor="middle" x="78" y="-45.5" font-family="Helvetica,sans-Serif" font-size="10.00">::receive</text>
</a>
</g>
</g>
<!-- Node2 -->
<g id="node2" class="node">
<title>Node2</title>
<g id="a_node2"><a xlink:href="classprecice_1_1com_1_1serialize_1_1SerializedBoundingBoxMap.html#ac5da435f4595d1f171d688a7b260c0ea" target="_top" xlink:title="asserts the content for correctness">
<polygon fill="white" stroke="black" points="195,-66.5 195,-107.5 351,-107.5 351,-66.5 195,-66.5"/>
<text text-anchor="start" x="203" y="-95.5" font-family="Helvetica,sans-Serif" font-size="10.00">precice::com::serialize</text>
<text text-anchor="start" x="203" y="-84.5" font-family="Helvetica,sans-Serif" font-size="10.00">::SerializedBoundingBoxMap</text>
<text text-anchor="middle" x="273" y="-73.5" font-family="Helvetica,sans-Serif" font-size="10.00">::assertValid</text>
</a>
</g>
</g>
<!-- Node1&#45;&gt;Node2 -->
<g id="edge1" class="edge">
<title>Node1&#45;&gt;Node2</title>
<path fill="none" stroke="midnightblue" d="M156.11,-70.19C165.54,-71.56 175.23,-72.96 184.79,-74.35"/>
<polygon fill="midnightblue" stroke="midnightblue" points="184.3,-77.81 194.7,-75.79 185.3,-70.89 184.3,-77.81"/>
</g>
<!-- Node3 -->
<g id="node3" class="node">
<title>Node3</title>
<g id="a_node3"><a xlink:href="classprecice_1_1com_1_1Communication.html#a2f98f94294a6100d0cd9e21c49fc3967" target="_top" xlink:title="Receives a range of ints as a vector&lt;int&gt;">
<polygon fill="white" stroke="black" points="192,-17 192,-47 354,-47 354,-17 192,-17"/>
<text text-anchor="start" x="200" y="-35" font-family="Helvetica,sans-Serif" font-size="10.00">precice::com::Communication</text>
<text text-anchor="middle" x="273" y="-24" font-family="Helvetica,sans-Serif" font-size="10.00">::receiveRange</text>
</a>
</g>
</g>
<!-- Node1&#45;&gt;Node3 -->
<g id="edge2" class="edge">
<title>Node1&#45;&gt;Node3</title>
<path fill="none" stroke="midnightblue" d="M156.11,-48.21C164.56,-47.03 173.22,-45.82 181.81,-44.62"/>
<polygon fill="midnightblue" stroke="midnightblue" points="182.43,-48.06 191.85,-43.21 181.46,-41.13 182.43,-48.06"/>
</g>
<!-- Node4 -->
<g id="node4" class="node">
<title>Node4</title>
<g id="a_node4"><a xlink:href="classprecice_1_1com_1_1Communication.html#a1dba8319f7bd90aecb30efba944f3bc9" target="_top" xlink:title="Receives a std::string from process with given rank.">
<polygon fill="white" stroke="black" points="390,-39 390,-69 552,-69 552,-39 390,-39"/>
<text text-anchor="start" x="398" y="-57" font-family="Helvetica,sans-Serif" font-size="10.00">precice::com::Communication</text>
<text text-anchor="middle" x="471" y="-46" font-family="Helvetica,sans-Serif" font-size="10.00">::receive</text>
</a>
</g>
</g>
<!-- Node3&#45;&gt;Node4 -->
<g id="edge3" class="edge">
<title>Node3&#45;&gt;Node4</title>
<path fill="none" stroke="midnightblue" d="M354,-40.98C362.52,-41.94 371.23,-42.91 379.86,-43.88"/>
<polygon fill="midnightblue" stroke="midnightblue" points="379.61,-47.38 389.93,-45.01 380.39,-40.42 379.61,-47.38"/>
</g>
<!-- Node5 -->
<g id="node5" class="node">
<title>Node5</title>
<g id="a_node5"><a xlink:href="namespaceprecice_1_1detail.html#a99f20f73c4a3c34d08429ac0fea564ef" target="_top" xlink:title=" ">
<polygon fill="white" stroke="black" points="415.5,-0.5 415.5,-19.5 526.5,-19.5 526.5,-0.5 415.5,-0.5"/>
<text text-anchor="middle" x="471" y="-7.5" font-family="Helvetica,sans-Serif" font-size="10.00">precice::detail::size</text>
</a>
</g>
</g>
<!-- Node3&#45;&gt;Node5 -->
<g id="edge4" class="edge">
<title>Node3&#45;&gt;Node5</title>
<path fill="none" stroke="midnightblue" d="M354,-23.02C371.1,-21.1 388.95,-19.1 405.38,-17.25"/>
<polygon fill="midnightblue" stroke="midnightblue" points="405.85,-20.72 415.4,-16.13 405.07,-13.77 405.85,-20.72"/>
</g>
</g>
</svg>
