<?xml version="1.0" encoding="UTF-8" standalone="no"?>
<!DOCTYPE svg PUBLIC "-//W3C//DTD SVG 1.1//EN"
 "http://www.w3.org/Graphics/SVG/1.1/DTD/svg11.dtd">
<!-- Generated by graphviz version 2.43.0 (0)
 -->
<!-- Title: precice::mapping::NearestNeighborMapping::mapConsistent Pages: 1 -->
<svg width="566pt" height="238pt"
 viewBox="0.00 0.00 566.00 237.50" xmlns="http://www.w3.org/2000/svg" xmlns:xlink="http://www.w3.org/1999/xlink">
<g id="graph0" class="graph" transform="scale(1 1) rotate(0) translate(4 233.5)">
<title>precice::mapping::NearestNeighborMapping::mapConsistent</title>
<!-- Node1 -->
<g id="Node000001" class="node">
<title>Node1</title>
<g id="a_Node000001"><a xlink:title="Maps data using a consistent constraint.">
<polygon fill="#999999" stroke="#666666" points="182,-133.5 0,-133.5 0,-103.5 182,-103.5 182,-133.5"/>
<text text-anchor="start" x="8" y="-121.5" font-family="Helvetica,sans-Serif" font-size="10.00">precice::mapping::Nearest</text>
<text text-anchor="middle" x="91" y="-110.5" font-family="Helvetica,sans-Serif" font-size="10.00">NeighborMapping::mapConsistent</text>
</a>
</g>
</g>
<!-- Node2 -->
<g id="Node000002" class="node">
<title>Node2</title>
<g id="a_Node000002"><a xlink:href="classprecice_1_1mapping_1_1NearestNeighborMapping.html#a6d58ace88221eb5cfbbdab28bf7ea0ca" target="_top" xlink:title="name of the nn mapping">
<polygon fill="white" stroke="#666666" points="372.5,-229.5 218.5,-229.5 218.5,-199.5 372.5,-199.5 372.5,-229.5"/>
<text text-anchor="start" x="226.5" y="-217.5" font-family="Helvetica,sans-Serif" font-size="10.00">precice::mapping::Nearest</text>
<text text-anchor="middle" x="295.5" y="-206.5" font-family="Helvetica,sans-Serif" font-size="10.00">NeighborMapping::getName</text>
</a>
</g>
</g>
<!-- Node1&#45;&gt;Node2 -->
<g id="edge1_Node000001_Node000002" class="edge">
<title>Node1&#45;&gt;Node2</title>
<g id="a_edge1_Node000001_Node000002"><a xlink:title=" ">
<path fill="none" stroke="#63b8ff" d="M114.9,-133.6C139.57,-149.37 180.36,-174.07 218,-190.5 222.39,-192.42 226.99,-194.25 231.65,-196"/>
<polygon fill="#63b8ff" stroke="#63b8ff" points="230.69,-199.37 241.28,-199.43 233.04,-192.77 230.69,-199.37"/>
</a>
</g>
</g>
<!-- Node3 -->
<g id="Node000003" class="node">
<title>Node3</title>
<g id="a_Node000003"><a xlink:href="classprecice_1_1mapping_1_1Mapping.html#aeea2d39f5e6ce0eaa97ebe436ff89991" target="_top" xlink:title="Checks whether the mapping has the given constraint or not.">
<polygon fill="white" stroke="#666666" points="370,-181.5 221,-181.5 221,-151.5 370,-151.5 370,-181.5"/>
<text text-anchor="start" x="229" y="-169.5" font-family="Helvetica,sans-Serif" font-size="10.00">precice::mapping::Mapping</text>
<text text-anchor="middle" x="295.5" y="-158.5" font-family="Helvetica,sans-Serif" font-size="10.00">::hasConstraint</text>
</a>
</g>
</g>
<!-- Node1&#45;&gt;Node3 -->
<g id="edge2_Node000001_Node000003" class="edge">
<title>Node1&#45;&gt;Node3</title>
<g id="a_edge2_Node000001_Node000003"><a xlink:title=" ">
<path fill="none" stroke="#63b8ff" d="M155.52,-133.56C176.44,-138.51 199.87,-144.07 221.44,-149.18"/>
<polygon fill="#63b8ff" stroke="#63b8ff" points="220.67,-152.6 231.21,-151.5 222.29,-145.79 220.67,-152.6"/>
</a>
</g>
</g>
<!-- Node5 -->
<g id="Node000005" class="node">
<title>Node5</title>
<g id="a_Node000005"><a xlink:href="classprecice_1_1mapping_1_1Mapping.html#a61c3c55af467ada2bdd735efa0f960e4" target="_top" xlink:title="Returns pointer to input mesh.">
<polygon fill="white" stroke="#666666" points="370,-133.5 221,-133.5 221,-103.5 370,-103.5 370,-133.5"/>
<text text-anchor="start" x="229" y="-121.5" font-family="Helvetica,sans-Serif" font-size="10.00">precice::mapping::Mapping</text>
<text text-anchor="middle" x="295.5" y="-110.5" font-family="Helvetica,sans-Serif" font-size="10.00">::input</text>
</a>
</g>
</g>
<!-- Node1&#45;&gt;Node5 -->
<g id="edge4_Node000001_Node000005" class="edge">
<title>Node1&#45;&gt;Node5</title>
<g id="a_edge4_Node000001_Node000005"><a xlink:title=" ">
<path fill="none" stroke="#63b8ff" d="M182.29,-118.5C191.74,-118.5 201.32,-118.5 210.69,-118.5"/>
<polygon fill="#63b8ff" stroke="#63b8ff" points="210.77,-122 220.77,-118.5 210.77,-115 210.77,-122"/>
</a>
</g>
</g>
<!-- Node6 -->
<g id="Node000006" class="node">
<title>Node6</title>
<g id="a_Node000006"><a xlink:href="classprecice_1_1mapping_1_1Mapping.html#a07a71a54b71eda6d54510c94fb188e70" target="_top" xlink:title="Returns pointer to output mesh.">
<polygon fill="white" stroke="#666666" points="370,-85.5 221,-85.5 221,-55.5 370,-55.5 370,-85.5"/>
<text text-anchor="start" x="229" y="-73.5" font-family="Helvetica,sans-Serif" font-size="10.00">precice::mapping::Mapping</text>
<text text-anchor="middle" x="295.5" y="-62.5" font-family="Helvetica,sans-Serif" font-size="10.00">::output</text>
</a>
</g>
</g>
<!-- Node1&#45;&gt;Node6 -->
<g id="edge5_Node000001_Node000006" class="edge">
<title>Node1&#45;&gt;Node6</title>
<g id="a_edge5_Node000001_Node000006"><a xlink:title=" ">
<path fill="none" stroke="#63b8ff" d="M155.52,-103.44C176.44,-98.49 199.87,-92.93 221.44,-87.82"/>
<polygon fill="#63b8ff" stroke="#63b8ff" points="222.29,-91.21 231.21,-85.5 220.67,-84.4 222.29,-91.21"/>
</a>
</g>
</g>
<!-- Node7 -->
<g id="Node000007" class="node">
<title>Node7</title>
<g id="a_Node000007"><a xlink:href="namespaceprecice_1_1utils.html#a8d146a5d1b3755f23ab1c1e8e96dc880" target="_top" xlink:title=" ">
<polygon fill="white" stroke="#666666" points="373,-37 218,-37 218,-18 373,-18 373,-37"/>
<text text-anchor="middle" x="295.5" y="-25" font-family="Helvetica,sans-Serif" font-size="10.00">precice::utils::previewRange</text>
</a>
</g>
</g>
<!-- Node1&#45;&gt;Node7 -->
<g id="edge6_Node000001_Node000007" class="edge">
<title>Node1&#45;&gt;Node7</title>
<g id="a_edge6_Node000001_Node000007"><a xlink:title=" ">
<path fill="none" stroke="#63b8ff" d="M114.26,-103.24C138.72,-87.1 179.65,-61.88 218,-46.5 224.23,-44 230.88,-41.76 237.56,-39.78"/>
<polygon fill="#63b8ff" stroke="#63b8ff" points="238.64,-43.11 247.33,-37.05 236.76,-36.37 238.64,-43.11"/>
</a>
</g>
</g>
<!-- Node4 -->
<g id="Node000004" class="node">
<title>Node4</title>
<g id="a_Node000004"><a xlink:href="classprecice_1_1mapping_1_1Mapping.html#a6afbd9aaac2ab09b078db271cfd977a1" target="_top" xlink:title="Returns the constraint (consistent/conservative) of the mapping.">
<polygon fill="white" stroke="#666666" points="558,-181.5 409,-181.5 409,-151.5 558,-151.5 558,-181.5"/>
<text text-anchor="start" x="417" y="-169.5" font-family="Helvetica,sans-Serif" font-size="10.00">precice::mapping::Mapping</text>
<text text-anchor="middle" x="483.5" y="-158.5" font-family="Helvetica,sans-Serif" font-size="10.00">::getConstraint</text>
</a>
</g>
</g>
<!-- Node3&#45;&gt;Node4 -->
<g id="edge3_Node000003_Node000004" class="edge">
<title>Node3&#45;&gt;Node4</title>
<g id="a_edge3_Node000003_Node000004"><a xlink:title=" ">
<path fill="none" stroke="#63b8ff" d="M370.01,-166.5C379.41,-166.5 389.08,-166.5 398.63,-166.5"/>
<polygon fill="#63b8ff" stroke="#63b8ff" points="398.91,-170 408.91,-166.5 398.91,-163 398.91,-170"/>
</a>
</g>
</g>
<!-- Node8 -->
<g id="Node000008" class="node">
<title>Node8</title>
<g id="a_Node000008"><a target="_parent" xlink:href="http://en.cppreference.com/w/cpp/iterator/begin.html#" xlink:title=" ">
<polygon fill="white" stroke="#666666" points="516,-56 451,-56 451,-37 516,-37 516,-56"/>
<text text-anchor="middle" x="483.5" y="-44" font-family="Helvetica,sans-Serif" font-size="10.00">std::begin</text>
</a>
</g>
</g>
<!-- Node7&#45;&gt;Node8 -->
<g id="edge7_Node000007_Node000008" class="edge">
<title>Node7&#45;&gt;Node8</title>
<g id="a_edge7_Node000007_Node000008"><a xlink:title=" ">
<path fill="none" stroke="#63b8ff" d="M373.23,-35.34C396.41,-37.71 420.98,-40.22 440.94,-42.25"/>
<polygon fill="#63b8ff" stroke="#63b8ff" points="440.62,-45.74 450.92,-43.27 441.33,-38.78 440.62,-45.74"/>
</a>
</g>
</g>
<!-- Node9 -->
<g id="Node000009" class="node">
<title>Node9</title>
<g id="a_Node000009"><a target="_parent" xlink:href="http://en.cppreference.com/w/cpp/iterator/end.html#" xlink:title=" ">
<polygon fill="white" stroke="#666666" points="511.5,-19 455.5,-19 455.5,0 511.5,0 511.5,-19"/>
<text text-anchor="middle" x="483.5" y="-7" font-family="Helvetica,sans-Serif" font-size="10.00">std::end</text>
</a>
</g>
</g>
<!-- Node7&#45;&gt;Node9 -->
<g id="edge8_Node000007_Node000009" class="edge">
<title>Node7&#45;&gt;Node9</title>
<g id="a_edge8_Node000007_Node000009"><a xlink:title=" ">
<path fill="none" stroke="#63b8ff" d="M373.23,-20.07C398.11,-17.67 424.6,-15.1 445.26,-13.1"/>
<polygon fill="#63b8ff" stroke="#63b8ff" points="445.88,-16.56 455.5,-12.11 445.21,-9.59 445.88,-16.56"/>
</a>
</g>
</g>
</g>
</svg>
