<?xml version="1.0" encoding="UTF-8" standalone="no"?>
<!DOCTYPE svg PUBLIC "-//W3C//DTD SVG 1.1//EN"
 "http://www.w3.org/Graphics/SVG/1.1/DTD/svg11.dtd">
<!-- Generated by graphviz version 2.43.0 (0)
 -->
<!-- Title: precice::action::ActionConfiguration::ActionConfiguration Pages: 1 -->
<svg width="859pt" height="162pt"
 viewBox="0.00 0.00 859.00 162.00" xmlns="http://www.w3.org/2000/svg" xmlns:xlink="http://www.w3.org/1999/xlink">
<g id="graph0" class="graph" transform="scale(1 1) rotate(0) translate(4 158)">
<title>precice::action::ActionConfiguration::ActionConfiguration</title>
<!-- Node1 -->
<g id="Node000001" class="node">
<title>Node1</title>
<g id="a_Node000001"><a xlink:title=" ">
<polygon fill="#999999" stroke="#666666" points="190,-100.5 0,-100.5 0,-70.5 190,-70.5 190,-100.5"/>
<text text-anchor="start" x="8" y="-88.5" font-family="Helvetica,sans-Serif" font-size="10.00">precice::action::ActionConfiguration</text>
<text text-anchor="middle" x="95" y="-77.5" font-family="Helvetica,sans-Serif" font-size="10.00">::ActionConfiguration</text>
</a>
</g>
</g>
<!-- Node2 -->
<g id="Node000002" class="node">
<title>Node2</title>
<g id="a_Node000002"><a xlink:href="classprecice_1_1xml_1_1XMLTag.html#af81dc6eea2b9a75e14ddd6033ed9a1d4" target="_top" xlink:title="Adds an XML tag as subtag by making a copy of the given tag.">
<polygon fill="white" stroke="#666666" points="345,-122.5 226,-122.5 226,-92.5 345,-92.5 345,-122.5"/>
<text text-anchor="start" x="234" y="-110.5" font-family="Helvetica,sans-Serif" font-size="10.00">precice::xml::XMLTag</text>
<text text-anchor="middle" x="285.5" y="-99.5" font-family="Helvetica,sans-Serif" font-size="10.00">::addSubtag</text>
</a>
</g>
</g>
<!-- Node1&#45;&gt;Node2 -->
<g id="edge1_Node000001_Node000002" class="edge">
<title>Node1&#45;&gt;Node2</title>
<g id="a_edge1_Node000001_Node000002"><a xlink:title=" ">
<path fill="none" stroke="#63b8ff" d="M190.25,-96.5C198.89,-97.51 207.52,-98.52 215.87,-99.49"/>
<polygon fill="#63b8ff" stroke="#63b8ff" points="215.55,-102.98 225.89,-100.66 216.36,-96.02 215.55,-102.98"/>
</a>
</g>
</g>
<!-- Node11 -->
<g id="Node000011" class="node">
<title>Node11</title>
<g id="a_Node000011"><a target="_parent" xlink:href="http://en.cppreference.com/w/cpp/container/list/push_back.html#" xlink:title=" ">
<polygon fill="white" stroke="#666666" points="340.5,-74 230.5,-74 230.5,-55 340.5,-55 340.5,-74"/>
<text text-anchor="middle" x="285.5" y="-62" font-family="Helvetica,sans-Serif" font-size="10.00">std::list::push_back</text>
</a>
</g>
</g>
<!-- Node1&#45;&gt;Node11 -->
<g id="edge10_Node000001_Node000011" class="edge">
<title>Node1&#45;&gt;Node11</title>
<g id="a_edge10_Node000001_Node000011"><a xlink:title=" ">
<path fill="none" stroke="#63b8ff" d="M190.25,-75C200.5,-73.86 210.74,-72.72 220.51,-71.63"/>
<polygon fill="#63b8ff" stroke="#63b8ff" points="220.93,-75.1 230.48,-70.52 220.16,-68.15 220.93,-75.1"/>
</a>
</g>
</g>
<!-- Node3 -->
<g id="Node000003" class="node">
<title>Node3</title>
<g id="a_Node000003"><a target="_parent" xlink:href="http://en.cppreference.com/w/cpp/string/basic_string/empty.html#" xlink:title=" ">
<polygon fill="white" stroke="#666666" points="492,-154 389,-154 389,-135 492,-135 492,-154"/>
<text text-anchor="middle" x="440.5" y="-142" font-family="Helvetica,sans-Serif" font-size="10.00">std::string::empty</text>
</a>
</g>
</g>
<!-- Node2&#45;&gt;Node3 -->
<g id="edge2_Node000002_Node000003" class="edge">
<title>Node2&#45;&gt;Node3</title>
<g id="a_edge2_Node000002_Node000003"><a xlink:title=" ">
<path fill="none" stroke="#63b8ff" d="M345.22,-121.7C360,-125.27 375.72,-129.08 390,-132.53"/>
<polygon fill="#63b8ff" stroke="#63b8ff" points="389.57,-136.03 400.11,-134.97 391.21,-129.22 389.57,-136.03"/>
</a>
</g>
</g>
<!-- Node4 -->
<g id="Node000004" class="node">
<title>Node4</title>
<g id="a_Node000004"><a target="_parent" xlink:href="http://en.cppreference.com/w/cpp/memory/shared_ptr/make_shared.html#" xlink:title=" ">
<polygon fill="white" stroke="#666666" points="492,-117 389,-117 389,-98 492,-98 492,-117"/>
<text text-anchor="middle" x="440.5" y="-105" font-family="Helvetica,sans-Serif" font-size="10.00">std::make_shared</text>
</a>
</g>
</g>
<!-- Node2&#45;&gt;Node4 -->
<g id="edge3_Node000002_Node000004" class="edge">
<title>Node2&#45;&gt;Node4</title>
<g id="a_edge3_Node000002_Node000004"><a xlink:title=" ">
<path fill="none" stroke="#63b8ff" d="M345.22,-107.5C356.07,-107.5 367.44,-107.5 378.36,-107.5"/>
<polygon fill="#63b8ff" stroke="#63b8ff" points="378.67,-111 388.67,-107.5 378.67,-104 378.67,-111"/>
</a>
</g>
</g>
<!-- Node5 -->
<g id="Node000005" class="node">
<title>Node5</title>
<g id="a_Node000005"><a xlink:href="classprecice_1_1xml_1_1XMLTag.html#ab41dfcb33c2d54376d455e04bfbcdc4c" target="_top" xlink:title="Standard constructor.">
<polygon fill="white" stroke="#666666" points="500,-79.5 381,-79.5 381,-49.5 500,-49.5 500,-79.5"/>
<text text-anchor="start" x="389" y="-67.5" font-family="Helvetica,sans-Serif" font-size="10.00">precice::xml::XMLTag</text>
<text text-anchor="middle" x="440.5" y="-56.5" font-family="Helvetica,sans-Serif" font-size="10.00">::XMLTag</text>
</a>
</g>
</g>
<!-- Node2&#45;&gt;Node5 -->
<g id="edge4_Node000002_Node000005" class="edge">
<title>Node2&#45;&gt;Node5</title>
<g id="a_edge4_Node000002_Node000005"><a xlink:title=" ">
<path fill="none" stroke="#63b8ff" d="M340.01,-92.46C351.66,-89.19 364.09,-85.69 376.08,-82.32"/>
<polygon fill="#63b8ff" stroke="#63b8ff" points="377.34,-85.61 386.02,-79.53 375.44,-78.87 377.34,-85.61"/>
</a>
</g>
</g>
<!-- Node6 -->
<g id="Node000006" class="node">
<title>Node6</title>
<g id="a_Node000006"><a xlink:href="namespaceprecice_1_1utils.html#a00b79785686ed1cfeffb43af0b212092" target="_top" xlink:title=" ">
<polygon fill="white" stroke="#666666" points="684,-74 536,-74 536,-55 684,-55 684,-74"/>
<text text-anchor="middle" x="610" y="-62" font-family="Helvetica,sans-Serif" font-size="10.00">precice::utils::isKebabStyle</text>
</a>
</g>
</g>
<!-- Node5&#45;&gt;Node6 -->
<g id="edge5_Node000005_Node000006" class="edge">
<title>Node5&#45;&gt;Node6</title>
<g id="a_edge5_Node000005_Node000006"><a xlink:title=" ">
<path fill="none" stroke="#63b8ff" d="M500.08,-64.5C508.36,-64.5 516.99,-64.5 525.62,-64.5"/>
<polygon fill="#63b8ff" stroke="#63b8ff" points="525.72,-68 535.72,-64.5 525.72,-61 525.72,-68"/>
</a>
</g>
</g>
<!-- Node7 -->
<g id="Node000007" class="node">
<title>Node7</title>
<g id="a_Node000007"><a target="_parent" xlink:href="http://en.cppreference.com/w/cpp/string/basic_string_view/begin.html#" xlink:title=" ">
<polygon fill="white" stroke="#666666" points="848.5,-130 722.5,-130 722.5,-111 848.5,-111 848.5,-130"/>
<text text-anchor="middle" x="785.5" y="-118" font-family="Helvetica,sans-Serif" font-size="10.00">std::string_view::begin</text>
</a>
</g>
</g>
<!-- Node6&#45;&gt;Node7 -->
<g id="edge6_Node000006_Node000007" class="edge">
<title>Node6&#45;&gt;Node7</title>
<g id="a_edge6_Node000006_Node000007"><a xlink:title=" ">
<path fill="none" stroke="#63b8ff" d="M636.83,-74.02C658.82,-82.01 691.32,-93.51 720,-102.5 726.12,-104.42 732.59,-106.34 738.98,-108.19"/>
<polygon fill="#63b8ff" stroke="#63b8ff" points="738.32,-111.64 748.9,-111 740.23,-104.9 738.32,-111.64"/>
</a>
</g>
</g>
<!-- Node8 -->
<g id="Node000008" class="node">
<title>Node8</title>
<g id="a_Node000008"><a target="_parent" xlink:href="http://en.cppreference.com/w/cpp/string/basic_string_view/empty.html#" xlink:title=" ">
<polygon fill="white" stroke="#666666" points="851,-93 720,-93 720,-74 851,-74 851,-93"/>
<text text-anchor="middle" x="785.5" y="-81" font-family="Helvetica,sans-Serif" font-size="10.00">std::string_view::empty</text>
</a>
</g>
</g>
<!-- Node6&#45;&gt;Node8 -->
<g id="edge7_Node000006_Node000008" class="edge">
<title>Node6&#45;&gt;Node8</title>
<g id="a_edge7_Node000006_Node000008"><a xlink:title=" ">
<path fill="none" stroke="#63b8ff" d="M684.08,-72.5C692.5,-73.43 701.11,-74.37 709.56,-75.29"/>
<polygon fill="#63b8ff" stroke="#63b8ff" points="709.45,-78.8 719.77,-76.41 710.21,-71.84 709.45,-78.8"/>
</a>
</g>
</g>
<!-- Node9 -->
<g id="Node000009" class="node">
<title>Node9</title>
<g id="a_Node000009"><a target="_parent" xlink:href="http://en.cppreference.com/w/cpp/string/basic_string_view/end.html#" xlink:title=" ">
<polygon fill="white" stroke="#666666" points="844,-56 727,-56 727,-37 844,-37 844,-56"/>
<text text-anchor="middle" x="785.5" y="-44" font-family="Helvetica,sans-Serif" font-size="10.00">std::string_view::end</text>
</a>
</g>
</g>
<!-- Node6&#45;&gt;Node9 -->
<g id="edge8_Node000006_Node000009" class="edge">
<title>Node6&#45;&gt;Node9</title>
<g id="a_edge8_Node000006_Node000009"><a xlink:title=" ">
<path fill="none" stroke="#63b8ff" d="M684.08,-56.92C694.88,-55.8 705.98,-54.65 716.68,-53.54"/>
<polygon fill="#63b8ff" stroke="#63b8ff" points="717.2,-57 726.79,-52.49 716.48,-50.04 717.2,-57"/>
</a>
</g>
</g>
<!-- Node10 -->
<g id="Node000010" class="node">
<title>Node10</title>
<g id="a_Node000010"><a target="_parent" xlink:href="http://en.cppreference.com/w/cpp/regex/regex_match.html#" xlink:title=" ">
<polygon fill="white" stroke="#666666" points="836,-19 735,-19 735,0 836,0 836,-19"/>
<text text-anchor="middle" x="785.5" y="-7" font-family="Helvetica,sans-Serif" font-size="10.00">std::regex_match</text>
</a>
</g>
</g>
<!-- Node6&#45;&gt;Node10 -->
<g id="edge9_Node000006_Node000010" class="edge">
<title>Node6&#45;&gt;Node10</title>
<g id="a_edge9_Node000006_Node000010"><a xlink:title=" ">
<path fill="none" stroke="#63b8ff" d="M637.74,-54.96C659.73,-47.23 691.74,-36.23 720,-27.5 726.12,-25.61 732.6,-23.7 738.99,-21.86"/>
<polygon fill="#63b8ff" stroke="#63b8ff" points="740.24,-25.14 748.91,-19.05 738.34,-18.41 740.24,-25.14"/>
</a>
</g>
</g>
</g>
</svg>
