<?xml version="1.0" encoding="UTF-8" standalone="no"?>
<!DOCTYPE svg PUBLIC "-//W3C//DTD SVG 1.1//EN"
 "http://www.w3.org/Graphics/SVG/1.1/DTD/svg11.dtd">
<!-- Generated by graphviz version 2.43.0 (0)
 -->
<!-- Title: precice::mesh::Mesh::expandBoundingBox Pages: 1 -->
<svg width="322pt" height="39pt"
 viewBox="0.00 0.00 322.00 39.00" xmlns="http://www.w3.org/2000/svg" xmlns:xlink="http://www.w3.org/1999/xlink">
<g id="graph0" class="graph" transform="scale(1 1) rotate(0) translate(4 35)">
<title>precice::mesh::Mesh::expandBoundingBox</title>
<polygon fill="white" stroke="transparent" points="-4,4 -4,-35 318,-35 318,4 -4,4"/>
<!-- Node1 -->
<g id="node1" class="node">
<title>Node1</title>
<g id="a_node1"><a xlink:title=" ">
<polygon fill="#bfbfbf" stroke="black" points="0,-0.5 0,-30.5 123,-30.5 123,-0.5 0,-0.5"/>
<text text-anchor="start" x="8" y="-18.5" font-family="Helvetica,sans-Serif" font-size="10.00">precice::mesh::Mesh</text>
<text text-anchor="middle" x="61.5" y="-7.5" font-family="Helvetica,sans-Serif" font-size="10.00">::expandBoundingBox</text>
</a>
</g>
</g>
<!-- Node2 -->
<g id="node2" class="node">
<title>Node2</title>
<g id="a_node2"><a xlink:href="classprecice_1_1mesh_1_1BoundingBox.html#a7aeb328ca8291253c4fd22d0d4cb0a18" target="_top" xlink:title="Expand bounding box using another bounding box.">
<polygon fill="white" stroke="black" points="159,-0.5 159,-30.5 314,-30.5 314,-0.5 159,-0.5"/>
<text text-anchor="start" x="167" y="-18.5" font-family="Helvetica,sans-Serif" font-size="10.00">precice::mesh::BoundingBox</text>
<text text-anchor="middle" x="236.5" y="-7.5" font-family="Helvetica,sans-Serif" font-size="10.00">::expandBy</text>
</a>
</g>
</g>
<!-- Node1&#45;&gt;Node2 -->
<g id="edge1" class="edge">
<title>Node1&#45;&gt;Node2</title>
<path fill="none" stroke="midnightblue" d="M123.01,-15.5C131.34,-15.5 140.03,-15.5 148.72,-15.5"/>
<polygon fill="midnightblue" stroke="midnightblue" points="148.91,-19 158.91,-15.5 148.91,-12 148.91,-19"/>
</g>
</g>
</svg>
