<?xml version="1.0" encoding="UTF-8" standalone="no"?>
<!DOCTYPE svg PUBLIC "-//W3C//DTD SVG 1.1//EN"
 "http://www.w3.org/Graphics/SVG/1.1/DTD/svg11.dtd">
<!-- Generated by graphviz version 2.43.0 (0)
 -->
<!-- Title: precice::mapping::LinearCellInterpolationMapping::LinearCellInterpolationMapping Pages: 1 -->
<svg width="800pt" height="182pt"
 viewBox="0.00 0.00 800.00 182.00" xmlns="http://www.w3.org/2000/svg" xmlns:xlink="http://www.w3.org/1999/xlink">
<g id="graph0" class="graph" transform="scale(1 1) rotate(0) translate(4 178)">
<title>precice::mapping::LinearCellInterpolationMapping::LinearCellInterpolationMapping</title>
<!-- Node1 -->
<g id="Node000001" class="node">
<title>Node1</title>
<g id="a_Node000001"><a xlink:title="Constructor, taking mapping constraint.">
<polygon fill="#999999" stroke="#666666" points="176,-107.5 0,-107.5 0,-66.5 176,-66.5 176,-107.5"/>
<text text-anchor="start" x="8" y="-95.5" font-family="Helvetica,sans-Serif" font-size="10.00">precice::mapping::Linear</text>
<text text-anchor="start" x="8" y="-84.5" font-family="Helvetica,sans-Serif" font-size="10.00">CellInterpolationMapping</text>
<text text-anchor="middle" x="88" y="-73.5" font-family="Helvetica,sans-Serif" font-size="10.00">::LinearCellInterpolationMapping</text>
</a>
</g>
</g>
<!-- Node2 -->
<g id="Node000002" class="node">
<title>Node2</title>
<g id="a_Node000002"><a xlink:href="classprecice_1_1mapping_1_1BarycentricBaseMapping.html#a8e355ee4d9aebc61cdc8e077c4635825" target="_top" xlink:title=" ">
<polygon fill="white" stroke="#666666" points="422,-174 212,-174 212,-144 422,-144 422,-174"/>
<text text-anchor="start" x="220" y="-162" font-family="Helvetica,sans-Serif" font-size="10.00">precice::mapping::Barycentric</text>
<text text-anchor="middle" x="317" y="-151" font-family="Helvetica,sans-Serif" font-size="10.00">BaseMapping::BarycentricBaseMapping</text>
</a>
</g>
</g>
<!-- Node1&#45;&gt;Node2 -->
<g id="edge1_Node000001_Node000002" class="edge">
<title>Node1&#45;&gt;Node2</title>
<g id="a_edge1_Node000001_Node000002"><a xlink:title=" ">
<path fill="none" stroke="#63b8ff" d="M136.91,-107.57C159.43,-116.75 186.81,-127.22 212,-135 219.35,-137.27 227.04,-139.43 234.78,-141.46"/>
<polygon fill="#63b8ff" stroke="#63b8ff" points="234.03,-144.88 244.58,-143.97 235.76,-138.1 234.03,-144.88"/>
</a>
</g>
</g>
<!-- Node5 -->
<g id="Node000005" class="node">
<title>Node5</title>
<g id="a_Node000005"><a xlink:href="classprecice_1_1mapping_1_1Mapping.html#a6d9b8f1628e20e7f9e6d3834d7a992e3" target="_top" xlink:title="Returns true if mapping is a form of scaled consistent mapping.">
<polygon fill="white" stroke="#666666" points="391.5,-126 242.5,-126 242.5,-96 391.5,-96 391.5,-126"/>
<text text-anchor="start" x="250.5" y="-114" font-family="Helvetica,sans-Serif" font-size="10.00">precice::mapping::Mapping</text>
<text text-anchor="middle" x="317" y="-103" font-family="Helvetica,sans-Serif" font-size="10.00">::isScaledConsistent</text>
</a>
</g>
</g>
<!-- Node1&#45;&gt;Node5 -->
<g id="edge4_Node000001_Node000005" class="edge">
<title>Node1&#45;&gt;Node5</title>
<g id="a_edge4_Node000001_Node000005"><a xlink:title=" ">
<path fill="none" stroke="#63b8ff" d="M176.11,-96.21C194.58,-98.16 214.02,-100.22 232.35,-102.16"/>
<polygon fill="#63b8ff" stroke="#63b8ff" points="232.09,-105.65 242.41,-103.22 232.83,-98.69 232.09,-105.65"/>
</a>
</g>
</g>
<!-- Node8 -->
<g id="Node000008" class="node">
<title>Node8</title>
<g id="a_Node000008"><a xlink:href="classprecice_1_1mapping_1_1Mapping.html#a812fe6094e2862467acc81919505157d" target="_top" xlink:title="Sets the mesh requirement for the input mesh.">
<polygon fill="white" stroke="#666666" points="391.5,-78 242.5,-78 242.5,-48 391.5,-48 391.5,-78"/>
<text text-anchor="start" x="250.5" y="-66" font-family="Helvetica,sans-Serif" font-size="10.00">precice::mapping::Mapping</text>
<text text-anchor="middle" x="317" y="-55" font-family="Helvetica,sans-Serif" font-size="10.00">::setInputRequirement</text>
</a>
</g>
</g>
<!-- Node1&#45;&gt;Node8 -->
<g id="edge7_Node000001_Node000008" class="edge">
<title>Node1&#45;&gt;Node8</title>
<g id="a_edge7_Node000001_Node000008"><a xlink:title=" ">
<path fill="none" stroke="#63b8ff" d="M176.11,-77.79C194.58,-75.84 214.02,-73.78 232.35,-71.84"/>
<polygon fill="#63b8ff" stroke="#63b8ff" points="232.83,-75.31 242.41,-70.78 232.09,-68.35 232.83,-75.31"/>
</a>
</g>
</g>
<!-- Node9 -->
<g id="Node000009" class="node">
<title>Node9</title>
<g id="a_Node000009"><a xlink:href="classprecice_1_1mapping_1_1Mapping.html#ac8b311598c20854ac46efc50f99029f8" target="_top" xlink:title="Sets the mesh requirement for the output mesh.">
<polygon fill="white" stroke="#666666" points="391.5,-30 242.5,-30 242.5,0 391.5,0 391.5,-30"/>
<text text-anchor="start" x="250.5" y="-18" font-family="Helvetica,sans-Serif" font-size="10.00">precice::mapping::Mapping</text>
<text text-anchor="middle" x="317" y="-7" font-family="Helvetica,sans-Serif" font-size="10.00">::setOutputRequirement</text>
</a>
</g>
</g>
<!-- Node1&#45;&gt;Node9 -->
<g id="edge8_Node000001_Node000009" class="edge">
<title>Node1&#45;&gt;Node9</title>
<g id="a_edge8_Node000001_Node000009"><a xlink:title=" ">
<path fill="none" stroke="#63b8ff" d="M136.91,-66.43C159.43,-57.25 186.81,-46.78 212,-39 219.35,-36.73 227.04,-34.57 234.78,-32.54"/>
<polygon fill="#63b8ff" stroke="#63b8ff" points="235.76,-35.9 244.58,-30.03 234.03,-29.12 235.76,-35.9"/>
</a>
</g>
</g>
<!-- Node3 -->
<g id="Node000003" class="node">
<title>Node3</title>
<g id="a_Node000003"><a xlink:href="classprecice_1_1mapping_1_1Mapping.html#a5c5b4a880f6b1b794b358cdcba08edb8" target="_top" xlink:title="Constructor, takes mapping constraint.">
<polygon fill="white" stroke="#666666" points="607,-174 458,-174 458,-144 607,-144 607,-174"/>
<text text-anchor="start" x="466" y="-162" font-family="Helvetica,sans-Serif" font-size="10.00">precice::mapping::Mapping</text>
<text text-anchor="middle" x="532.5" y="-151" font-family="Helvetica,sans-Serif" font-size="10.00">::Mapping</text>
</a>
</g>
</g>
<!-- Node2&#45;&gt;Node3 -->
<g id="edge2_Node000002_Node000003" class="edge">
<title>Node2&#45;&gt;Node3</title>
<g id="a_edge2_Node000002_Node000003"><a xlink:title=" ">
<path fill="none" stroke="#63b8ff" d="M422.25,-159C430.83,-159 439.43,-159 447.83,-159"/>
<polygon fill="#63b8ff" stroke="#63b8ff" points="447.96,-162.5 457.96,-159 447.96,-155.5 447.96,-162.5"/>
</a>
</g>
</g>
<!-- Node4 -->
<g id="Node000004" class="node">
<title>Node4</title>
<g id="a_Node000004"><a xlink:href="classprecice_1_1mapping_1_1Mapping.html#a893726817f8920f8bb7f9db4e8348262" target="_top" xlink:title="Returns whether the mapping requires gradient data.">
<polygon fill="white" stroke="#666666" points="792,-174 643,-174 643,-144 792,-144 792,-174"/>
<text text-anchor="start" x="651" y="-162" font-family="Helvetica,sans-Serif" font-size="10.00">precice::mapping::Mapping</text>
<text text-anchor="middle" x="717.5" y="-151" font-family="Helvetica,sans-Serif" font-size="10.00">::requiresGradientData</text>
</a>
</g>
</g>
<!-- Node3&#45;&gt;Node4 -->
<g id="edge3_Node000003_Node000004" class="edge">
<title>Node3&#45;&gt;Node4</title>
<g id="a_edge3_Node000003_Node000004"><a xlink:title=" ">
<path fill="none" stroke="#63b8ff" d="M607.14,-159C615.47,-159 624.01,-159 632.46,-159"/>
<polygon fill="#63b8ff" stroke="#63b8ff" points="632.71,-162.5 642.71,-159 632.71,-155.5 632.71,-162.5"/>
</a>
</g>
</g>
<!-- Node6 -->
<g id="Node000006" class="node">
<title>Node6</title>
<g id="a_Node000006"><a xlink:href="classprecice_1_1mapping_1_1Mapping.html#aeea2d39f5e6ce0eaa97ebe436ff89991" target="_top" xlink:title="Checks whether the mapping has the given constraint or not.">
<polygon fill="white" stroke="#666666" points="607,-126 458,-126 458,-96 607,-96 607,-126"/>
<text text-anchor="start" x="466" y="-114" font-family="Helvetica,sans-Serif" font-size="10.00">precice::mapping::Mapping</text>
<text text-anchor="middle" x="532.5" y="-103" font-family="Helvetica,sans-Serif" font-size="10.00">::hasConstraint</text>
</a>
</g>
</g>
<!-- Node5&#45;&gt;Node6 -->
<g id="edge5_Node000005_Node000006" class="edge">
<title>Node5&#45;&gt;Node6</title>
<g id="a_edge5_Node000005_Node000006"><a xlink:title=" ">
<path fill="none" stroke="#63b8ff" d="M391.77,-111C409.77,-111 429.16,-111 447.6,-111"/>
<polygon fill="#63b8ff" stroke="#63b8ff" points="447.72,-114.5 457.72,-111 447.72,-107.5 447.72,-114.5"/>
</a>
</g>
</g>
<!-- Node7 -->
<g id="Node000007" class="node">
<title>Node7</title>
<g id="a_Node000007"><a xlink:href="classprecice_1_1mapping_1_1Mapping.html#a6afbd9aaac2ab09b078db271cfd977a1" target="_top" xlink:title="Returns the constraint (consistent/conservative) of the mapping.">
<polygon fill="white" stroke="#666666" points="792,-126 643,-126 643,-96 792,-96 792,-126"/>
<text text-anchor="start" x="651" y="-114" font-family="Helvetica,sans-Serif" font-size="10.00">precice::mapping::Mapping</text>
<text text-anchor="middle" x="717.5" y="-103" font-family="Helvetica,sans-Serif" font-size="10.00">::getConstraint</text>
</a>
</g>
</g>
<!-- Node6&#45;&gt;Node7 -->
<g id="edge6_Node000006_Node000007" class="edge">
<title>Node6&#45;&gt;Node7</title>
<g id="a_edge6_Node000006_Node000007"><a xlink:title=" ">
<path fill="none" stroke="#63b8ff" d="M607.14,-111C615.47,-111 624.01,-111 632.46,-111"/>
<polygon fill="#63b8ff" stroke="#63b8ff" points="632.71,-114.5 642.71,-111 632.71,-107.5 632.71,-114.5"/>
</a>
</g>
</g>
</g>
</svg>
