<?xml version="1.0" encoding="UTF-8" standalone="no"?>
<!DOCTYPE svg PUBLIC "-//W3C//DTD SVG 1.1//EN"
 "http://www.w3.org/Graphics/SVG/1.1/DTD/svg11.dtd">
<!-- Generated by graphviz version 2.43.0 (0)
 -->
<!-- Title: precice::cplscheme::BaseCouplingScheme::firstExchange Pages: 1 -->
<svg width="658pt" height="238pt"
 viewBox="0.00 0.00 658.00 237.50" xmlns="http://www.w3.org/2000/svg" xmlns:xlink="http://www.w3.org/1999/xlink">
<g id="graph0" class="graph" transform="scale(1 1) rotate(0) translate(4 233.5)">
<title>precice::cplscheme::BaseCouplingScheme::firstExchange</title>
<!-- Node1 -->
<g id="Node000001" class="node">
<title>Node1</title>
<g id="a_Node000001"><a xlink:title=" ">
<polygon fill="#999999" stroke="#666666" points="128,-129 0,-129 0,-88 128,-88 128,-129"/>
<text text-anchor="start" x="8" y="-117" font-family="Helvetica,sans-Serif" font-size="10.00">precice::cplscheme</text>
<text text-anchor="start" x="8" y="-106" font-family="Helvetica,sans-Serif" font-size="10.00">::BaseCouplingScheme</text>
<text text-anchor="middle" x="64" y="-95" font-family="Helvetica,sans-Serif" font-size="10.00">::firstExchange</text>
</a>
</g>
</g>
<!-- Node2 -->
<g id="Node000002" class="node">
<title>Node2</title>
<g id="a_Node000002"><a xlink:href="classprecice_1_1cplscheme_1_1BaseCouplingScheme.html#af710df20ec188ce2a1a8ef12c0a54783" target="_top" xlink:title="If any required actions are open, an error message is issued.">
<polygon fill="white" stroke="#666666" points="328,-229.5 164,-229.5 164,-177.5 328,-177.5 328,-229.5"/>
<text text-anchor="start" x="172" y="-217.5" font-family="Helvetica,sans-Serif" font-size="10.00">precice::cplscheme</text>
<text text-anchor="start" x="172" y="-206.5" font-family="Helvetica,sans-Serif" font-size="10.00">::BaseCouplingScheme</text>
<text text-anchor="start" x="172" y="-195.5" font-family="Helvetica,sans-Serif" font-size="10.00">::checkCompletenessRequired</text>
<text text-anchor="middle" x="246" y="-184.5" font-family="Helvetica,sans-Serif" font-size="10.00">Actions</text>
</a>
</g>
</g>
<!-- Node1&#45;&gt;Node2 -->
<g id="edge1_Node000001_Node000002" class="edge">
<title>Node1&#45;&gt;Node2</title>
<g id="a_edge1_Node000001_Node000002"><a xlink:title=" ">
<path fill="none" stroke="#63b8ff" d="M96.47,-129.09C115.62,-141.23 140.78,-156.52 164,-168.5 166.93,-170.01 169.93,-171.51 172.99,-173"/>
<polygon fill="#63b8ff" stroke="#63b8ff" points="171.71,-176.27 182.25,-177.4 174.72,-169.95 171.71,-176.27"/>
</a>
</g>
</g>
<!-- Node3 -->
<g id="Node000003" class="node">
<title>Node3</title>
<g id="a_Node000003"><a xlink:href="classprecice_1_1cplscheme_1_1BaseCouplingScheme.html#a3b23b7c85e0a45eb420947aee38b5751" target="_top" xlink:title="Functions needed for advance()">
<polygon fill="white" stroke="#666666" points="310,-159 182,-159 182,-118 310,-118 310,-159"/>
<text text-anchor="start" x="190" y="-147" font-family="Helvetica,sans-Serif" font-size="10.00">precice::cplscheme</text>
<text text-anchor="start" x="190" y="-136" font-family="Helvetica,sans-Serif" font-size="10.00">::BaseCouplingScheme</text>
<text text-anchor="middle" x="246" y="-125" font-family="Helvetica,sans-Serif" font-size="10.00">::exchangeFirstData</text>
</a>
</g>
</g>
<!-- Node1&#45;&gt;Node3 -->
<g id="edge2_Node000001_Node000003" class="edge">
<title>Node1&#45;&gt;Node3</title>
<g id="a_edge2_Node000001_Node000003"><a xlink:title=" ">
<path fill="none" stroke="#63b8ff" d="M128.21,-119.03C142.36,-121.39 157.49,-123.92 172.01,-126.34"/>
<polygon fill="#63b8ff" stroke="#63b8ff" points="171.5,-129.8 181.94,-127.99 172.66,-122.89 171.5,-129.8"/>
</a>
</g>
</g>
<!-- Node4 -->
<g id="Node000004" class="node">
<title>Node4</title>
<g id="a_Node000004"><a xlink:href="classprecice_1_1cplscheme_1_1BaseCouplingScheme.html#a9b2b8a399d66b14dd68a35db5347d308" target="_top" xlink:title="getter for _time">
<polygon fill="white" stroke="#666666" points="310,-100 182,-100 182,-59 310,-59 310,-100"/>
<text text-anchor="start" x="190" y="-88" font-family="Helvetica,sans-Serif" font-size="10.00">precice::cplscheme</text>
<text text-anchor="start" x="190" y="-77" font-family="Helvetica,sans-Serif" font-size="10.00">::BaseCouplingScheme</text>
<text text-anchor="middle" x="246" y="-66" font-family="Helvetica,sans-Serif" font-size="10.00">::getTime</text>
</a>
</g>
</g>
<!-- Node1&#45;&gt;Node4 -->
<g id="edge3_Node000001_Node000004" class="edge">
<title>Node1&#45;&gt;Node4</title>
<g id="a_edge3_Node000001_Node000004"><a xlink:title=" ">
<path fill="none" stroke="#63b8ff" d="M128.21,-98.32C142.36,-96.04 157.49,-93.6 172.01,-91.26"/>
<polygon fill="#63b8ff" stroke="#63b8ff" points="172.63,-94.71 181.94,-89.66 171.51,-87.79 172.63,-94.71"/>
</a>
</g>
</g>
<!-- Node5 -->
<g id="Node000005" class="node">
<title>Node5</title>
<g id="a_Node000005"><a xlink:href="classprecice_1_1cplscheme_1_1BaseCouplingScheme.html#a832f4c52f3563470b428583ba96f4534" target="_top" xlink:title="Function to check whether end of time window is reached. Does not check for convergence.">
<polygon fill="white" stroke="#666666" points="323.5,-41 168.5,-41 168.5,0 323.5,0 323.5,-41"/>
<text text-anchor="start" x="176.5" y="-29" font-family="Helvetica,sans-Serif" font-size="10.00">precice::cplscheme</text>
<text text-anchor="start" x="176.5" y="-18" font-family="Helvetica,sans-Serif" font-size="10.00">::BaseCouplingScheme</text>
<text text-anchor="middle" x="246" y="-7" font-family="Helvetica,sans-Serif" font-size="10.00">::reachedEndOfTimeWindow</text>
</a>
</g>
</g>
<!-- Node1&#45;&gt;Node5 -->
<g id="edge4_Node000001_Node000005" class="edge">
<title>Node1&#45;&gt;Node5</title>
<g id="a_edge4_Node000001_Node000005"><a xlink:title=" ">
<path fill="none" stroke="#63b8ff" d="M96.77,-87.96C115.82,-76.14 140.78,-61.5 164,-50.5 168,-48.61 172.15,-46.75 176.36,-44.95"/>
<polygon fill="#63b8ff" stroke="#63b8ff" points="177.76,-48.16 185.66,-41.1 175.08,-41.69 177.76,-48.16"/>
</a>
</g>
</g>
<!-- Node6 -->
<g id="Node000006" class="node">
<title>Node6</title>
<g id="a_Node000006"><a xlink:href="classprecice_1_1cplscheme_1_1BaseCouplingScheme.html#a073567dc3535de4121def61a3dc5215c" target="_top" xlink:title="Function to check whether time window size is defined by coupling scheme.">
<polygon fill="white" stroke="#666666" points="492,-41 364,-41 364,0 492,0 492,-41"/>
<text text-anchor="start" x="372" y="-29" font-family="Helvetica,sans-Serif" font-size="10.00">precice::cplscheme</text>
<text text-anchor="start" x="372" y="-18" font-family="Helvetica,sans-Serif" font-size="10.00">::BaseCouplingScheme</text>
<text text-anchor="middle" x="428" y="-7" font-family="Helvetica,sans-Serif" font-size="10.00">::hasTimeWindowSize</text>
</a>
</g>
</g>
<!-- Node5&#45;&gt;Node6 -->
<g id="edge5_Node000005_Node000006" class="edge">
<title>Node5&#45;&gt;Node6</title>
<g id="a_edge5_Node000005_Node000006"><a xlink:title=" ">
<path fill="none" stroke="#63b8ff" d="M323.6,-20.5C333.54,-20.5 343.71,-20.5 353.59,-20.5"/>
<polygon fill="#63b8ff" stroke="#63b8ff" points="353.78,-24 363.78,-20.5 353.78,-17 353.78,-24"/>
</a>
</g>
</g>
<!-- Node7 -->
<g id="Node000007" class="node">
<title>Node7</title>
<g id="a_Node000007"><a xlink:href="namespaceprecice_1_1math.html#a0e86802cfe992deba131d789d035b5b7" target="_top" xlink:title="Compares two Eigen::MatrixBase for equality up to tolerance.">
<polygon fill="white" stroke="#666666" points="650,-30 528,-30 528,-11 650,-11 650,-30"/>
<text text-anchor="middle" x="589" y="-18" font-family="Helvetica,sans-Serif" font-size="10.00">precice::math::equals</text>
</a>
</g>
</g>
<!-- Node6&#45;&gt;Node7 -->
<g id="edge6_Node000006_Node000007" class="edge">
<title>Node6&#45;&gt;Node7</title>
<g id="a_edge6_Node000006_Node000007"><a xlink:title=" ">
<path fill="none" stroke="#63b8ff" d="M492.3,-20.5C500.61,-20.5 509.17,-20.5 517.59,-20.5"/>
<polygon fill="#63b8ff" stroke="#63b8ff" points="517.77,-24 527.77,-20.5 517.77,-17 517.77,-24"/>
</a>
</g>
</g>
</g>
</svg>
