<?xml version="1.0" encoding="UTF-8" standalone="no"?>
<!DOCTYPE svg PUBLIC "-//W3C//DTD SVG 1.1//EN"
 "http://www.w3.org/Graphics/SVG/1.1/DTD/svg11.dtd">
<!-- Generated by graphviz version 2.43.0 (0)
 -->
<!-- Title: precice::mapping::RadialBasisFctBaseMapping::setDeadAxis Pages: 1 -->
<svg width="339pt" height="138pt"
 viewBox="0.00 0.00 339.00 138.00" xmlns="http://www.w3.org/2000/svg" xmlns:xlink="http://www.w3.org/1999/xlink">

<svg id="main" version="1.1" xmlns="http://www.w3.org/2000/svg" xmlns:xlink="http://www.w3.org/1999/xlink" xml:space="preserve" onload="init(evt)">
<style type="text/css"><![CDATA[
.node, .edge {opacity: 0.7;}
.node.selected, .edge.selected {opacity: 1;}
.edge:hover path { stroke: red; }
.edge:hover polygon { stroke: red; fill: red; }
]]></style>
<script type="application/ecmascript" xlink:href="svg.min.js"/>
<svg id="graph" class="graph">
<g id="graph0" class="graph" transform="scale(1 1) rotate(0) translate(4 134)">
<title>precice::mapping::RadialBasisFctBaseMapping::setDeadAxis</title>
<!-- Node1 -->
<g id="Node000001" class="node">
<title>Node1</title>
<g id="a_Node000001"><a xlink:title="converts the boolean switches to a boolean vector">
<polygon fill="#999999" stroke="#666666" points="191,-79.5 0,-79.5 0,-49.5 191,-49.5 191,-79.5"/>
<text text-anchor="start" x="8" y="-67.5" font-family="Helvetica,sans-Serif" font-size="10.00">precice::mapping::Radial</text>
<text text-anchor="middle" x="95.5" y="-56.5" font-family="Helvetica,sans-Serif" font-size="10.00">BasisFctBaseMapping::setDeadAxis</text>
</a>
</g>
</g>
<!-- Node2 -->
<g id="Node000002" class="node">
<title>Node2</title>
<g id="a_Node000002"><a target="_parent" xlink:href="http://en.cppreference.com/w/cpp/algorithm/all_any_none_of.html#" xlink:title=" ">
<polygon fill="white" stroke="#666666" points="314.5,-130 243.5,-130 243.5,-111 314.5,-111 314.5,-130"/>
<text text-anchor="middle" x="279" y="-118" font-family="Helvetica,sans-Serif" font-size="10.00">std::any_of</text>
</a>
</g>
</g>
<!-- Node1&#45;&gt;Node2 -->
<g id="edge1_Node000001_Node000002" class="edge">
<title>Node1&#45;&gt;Node2</title>
<g id="a_edge1_Node000001_Node000002"><a xlink:title=" ">
<path fill="none" stroke="#63b8ff" d="M145.14,-79.51C174.04,-88.42 210.25,-99.6 237.57,-108.03"/>
<polygon fill="#63b8ff" stroke="#63b8ff" points="236.62,-111.39 247.21,-111 238.68,-104.71 236.62,-111.39"/>
</a>
</g>
</g>
<!-- Node3 -->
<g id="Node000003" class="node">
<title>Node3</title>
<g id="a_Node000003"><a target="_parent" xlink:href="http://en.cppreference.com/w/cpp/iterator/back_inserter.html#" xlink:title=" ">
<polygon fill="white" stroke="#666666" points="331,-93 227,-93 227,-74 331,-74 331,-93"/>
<text text-anchor="middle" x="279" y="-81" font-family="Helvetica,sans-Serif" font-size="10.00">std::back_inserter</text>
</a>
</g>
</g>
<!-- Node1&#45;&gt;Node3 -->
<g id="edge2_Node000001_Node000003" class="edge">
<title>Node1&#45;&gt;Node3</title>
<g id="a_edge2_Node000001_Node000003"><a xlink:title=" ">
<path fill="none" stroke="#63b8ff" d="M191.24,-74.42C199.82,-75.32 208.35,-76.21 216.53,-77.07"/>
<polygon fill="#63b8ff" stroke="#63b8ff" points="216.37,-80.57 226.68,-78.13 217.1,-73.61 216.37,-80.57"/>
</a>
</g>
</g>
<!-- Node4 -->
<g id="Node000004" class="node">
<title>Node4</title>
<g id="a_Node000004"><a target="_parent" xlink:href="http://en.cppreference.com/w/cpp/container/array/begin.html#" xlink:title=" ">
<polygon fill="white" stroke="#666666" points="326.5,-56 231.5,-56 231.5,-37 326.5,-37 326.5,-56"/>
<text text-anchor="middle" x="279" y="-44" font-family="Helvetica,sans-Serif" font-size="10.00">std::array::begin</text>
</a>
</g>
</g>
<!-- Node1&#45;&gt;Node4 -->
<g id="edge3_Node000001_Node000004" class="edge">
<title>Node1&#45;&gt;Node4</title>
<g id="a_edge3_Node000001_Node000004"><a xlink:title=" ">
<path fill="none" stroke="#63b8ff" d="M191.24,-55.1C201.46,-54.09 211.62,-53.08 221.19,-52.13"/>
<polygon fill="#63b8ff" stroke="#63b8ff" points="221.71,-55.6 231.32,-51.13 221.02,-48.63 221.71,-55.6"/>
</a>
</g>
</g>
<!-- Node5 -->
<g id="Node000005" class="node">
<title>Node5</title>
<g id="a_Node000005"><a target="_parent" xlink:href="http://en.cppreference.com/w/cpp/algorithm/copy_n.html#" xlink:title=" ">
<polygon fill="white" stroke="#666666" points="315,-19 243,-19 243,0 315,0 315,-19"/>
<text text-anchor="middle" x="279" y="-7" font-family="Helvetica,sans-Serif" font-size="10.00">std::copy_n</text>
</a>
</g>
</g>
<!-- Node1&#45;&gt;Node5 -->
<g id="edge4_Node000001_Node000005" class="edge">
<title>Node1&#45;&gt;Node5</title>
<g id="a_edge4_Node000001_Node000005"><a xlink:title=" ">
<path fill="none" stroke="#63b8ff" d="M146.1,-49.47C174.48,-40.87 209.68,-30.2 236.58,-22.05"/>
<polygon fill="#63b8ff" stroke="#63b8ff" points="237.89,-25.31 246.45,-19.06 235.86,-18.61 237.89,-25.31"/>
</a>
</g>
</g>
</g>
</svg>
</svg>

<style type='text/css'>
<![CDATA[
[data-mouse-over-selected='false'] { opacity: 0.7; }
[data-mouse-over-selected='true']  { opacity: 1.0; }
]]>
</style>
<script type="application/ecmascript"><![CDATA[
document.addEventListener('DOMContentLoaded', (event) => {
  highlightEdges();
  highlightAdjacentNodes();
});
]]></script>
</svg>
