<?xml version="1.0" encoding="UTF-8" standalone="no"?>
<!DOCTYPE svg PUBLIC "-//W3C//DTD SVG 1.1//EN"
 "http://www.w3.org/Graphics/SVG/1.1/DTD/svg11.dtd">
<!-- Generated by graphviz version 2.43.0 (0)
 -->
<!-- Title: precice::impl::SolverInterfaceImpl::setMeshQuads Pages: 1 -->
<svg width="718pt" height="508pt"
 viewBox="0.00 0.00 718.00 508.00" xmlns="http://www.w3.org/2000/svg" xmlns:xlink="http://www.w3.org/1999/xlink">
<g id="graph0" class="graph" transform="scale(1 1) rotate(0) translate(4 504)">
<title>precice::impl::SolverInterfaceImpl::setMeshQuads</title>
<polygon fill="white" stroke="transparent" points="-4,4 -4,-504 714,-504 714,4 -4,4"/>
<!-- Node1 -->
<g id="node1" class="node">
<title>Node1</title>
<g id="a_node1"><a xlink:title="Sets multiple mesh quads from vertex IDs.">
<polygon fill="#bfbfbf" stroke="black" points="0,-210 0,-240 160,-240 160,-210 0,-210"/>
<text text-anchor="start" x="8" y="-228" font-family="Helvetica,sans-Serif" font-size="10.00">precice::impl::SolverInterface</text>
<text text-anchor="middle" x="80" y="-217" font-family="Helvetica,sans-Serif" font-size="10.00">Impl::setMeshQuads</text>
</a>
</g>
</g>
<!-- Node2 -->
<g id="node2" class="node">
<title>Node2</title>
<g id="a_node2"><a xlink:href="classprecice_1_1impl_1_1SolverInterfaceImpl.html#a66c6abd8ce48c127e63c559a6fe87afe" target="_top" xlink:title="Sets a planar surface mesh quadrangle from vertex IDs.">
<polygon fill="white" stroke="black" points="196,-235 196,-265 356,-265 356,-235 196,-235"/>
<text text-anchor="start" x="204" y="-253" font-family="Helvetica,sans-Serif" font-size="10.00">precice::impl::SolverInterface</text>
<text text-anchor="middle" x="276" y="-242" font-family="Helvetica,sans-Serif" font-size="10.00">Impl::setMeshQuad</text>
</a>
</g>
</g>
<!-- Node1&#45;&gt;Node2 -->
<g id="edge1" class="edge">
<title>Node1&#45;&gt;Node2</title>
<path fill="none" stroke="midnightblue" d="M160.19,-235.2C168.62,-236.29 177.24,-237.4 185.78,-238.5"/>
<polygon fill="midnightblue" stroke="midnightblue" points="185.39,-241.98 195.75,-239.79 186.28,-235.04 185.39,-241.98"/>
</g>
<!-- Node17 -->
<g id="node17" class="node">
<title>Node17</title>
<g id="a_node17"><a xlink:href="namespaceTCB__SPAN__NAMESPACE__NAME_1_1detail.html#a876af6f91231ae4e7e7316f5402682dc" target="_top" xlink:title=" ">
<polygon fill="white" stroke="black" points="210.5,-186 210.5,-216 341.5,-216 341.5,-186 210.5,-186"/>
<text text-anchor="start" x="218.5" y="-204" font-family="Helvetica,sans-Serif" font-size="10.00">TCB_SPAN_NAMESPACE</text>
<text text-anchor="middle" x="276" y="-193" font-family="Helvetica,sans-Serif" font-size="10.00">_NAME::detail::size</text>
</a>
</g>
</g>
<!-- Node1&#45;&gt;Node17 -->
<g id="edge16" class="edge">
<title>Node1&#45;&gt;Node17</title>
<path fill="none" stroke="midnightblue" d="M160.19,-215.2C173.46,-213.56 187.2,-211.86 200.35,-210.23"/>
<polygon fill="midnightblue" stroke="midnightblue" points="200.79,-213.71 210.28,-209.01 199.93,-206.76 200.79,-213.71"/>
</g>
<!-- Node3 -->
<g id="node3" class="node">
<title>Node3</title>
<g id="a_node3"><a xlink:href="namespaceprecice_1_1mesh.html#a5a7124e24a25e64c99ddf6ce6aba9f96" target="_top" xlink:title="Given a mesh and an array of vertexIDS, this function returns an array of coordinates of the vertices...">
<polygon fill="white" stroke="black" points="403,-480.5 403,-499.5 541,-499.5 541,-480.5 403,-480.5"/>
<text text-anchor="middle" x="472" y="-487.5" font-family="Helvetica,sans-Serif" font-size="10.00">precice::mesh::coordsFor</text>
</a>
</g>
</g>
<!-- Node2&#45;&gt;Node3 -->
<g id="edge2" class="edge">
<title>Node2&#45;&gt;Node3</title>
<path fill="none" stroke="midnightblue" d="M280.27,-265.13C289.81,-305.4 321.46,-415.86 392,-471 394.29,-472.79 396.73,-474.42 399.27,-475.89"/>
<polygon fill="midnightblue" stroke="midnightblue" points="397.75,-479.05 408.26,-480.36 400.86,-472.78 397.75,-479.05"/>
</g>
<!-- Node4 -->
<g id="node4" class="node">
<title>Node4</title>
<g id="a_node4"><a xlink:href="classprecice_1_1mesh_1_1Mesh.html#ae05c5234aa9adc6f47a814622039c28e" target="_top" xlink:title="Creates and initializes an Edge object.">
<polygon fill="white" stroke="black" points="413.5,-431 413.5,-461 530.5,-461 530.5,-431 413.5,-431"/>
<text text-anchor="start" x="421.5" y="-449" font-family="Helvetica,sans-Serif" font-size="10.00">precice::mesh::Mesh</text>
<text text-anchor="middle" x="472" y="-438" font-family="Helvetica,sans-Serif" font-size="10.00">::createEdge</text>
</a>
</g>
</g>
<!-- Node2&#45;&gt;Node4 -->
<g id="edge3" class="edge">
<title>Node2&#45;&gt;Node4</title>
<path fill="none" stroke="midnightblue" d="M282.92,-265.2C296.75,-298.7 334.44,-379.31 392,-422 395.83,-424.84 399.99,-427.35 404.35,-429.56"/>
<polygon fill="midnightblue" stroke="midnightblue" points="402.94,-432.76 413.49,-433.7 405.83,-426.39 402.94,-432.76"/>
</g>
<!-- Node5 -->
<g id="node5" class="node">
<title>Node5</title>
<g id="a_node5"><a xlink:href="classprecice_1_1mesh_1_1Mesh.html#a00c3db2576c63d8c6f351175ddc0a4d0" target="_top" xlink:title="Creates and initializes a Triangle object.">
<polygon fill="white" stroke="black" points="413.5,-382 413.5,-412 530.5,-412 530.5,-382 413.5,-382"/>
<text text-anchor="start" x="421.5" y="-400" font-family="Helvetica,sans-Serif" font-size="10.00">precice::mesh::Mesh</text>
<text text-anchor="middle" x="472" y="-389" font-family="Helvetica,sans-Serif" font-size="10.00">::createTriangle</text>
</a>
</g>
</g>
<!-- Node2&#45;&gt;Node5 -->
<g id="edge4" class="edge">
<title>Node2&#45;&gt;Node5</title>
<path fill="none" stroke="midnightblue" d="M287.16,-265.28C305.2,-291.23 345.35,-343.95 392,-373 395.8,-375.37 399.85,-377.51 404.02,-379.45"/>
<polygon fill="midnightblue" stroke="midnightblue" points="402.76,-382.72 413.34,-383.4 405.49,-376.27 402.76,-382.72"/>
</g>
<!-- Node7 -->
<g id="node7" class="node">
<title>Node7</title>
<g id="a_node7"><a xlink:href="namespaceprecice_1_1impl.html#a35061dd5dea8f5b6c982bbc1849fc61d" target="_top" xlink:title=" ">
<polygon fill="white" stroke="black" points="401,-333 401,-363 543,-363 543,-333 401,-333"/>
<text text-anchor="start" x="409" y="-351" font-family="Helvetica,sans-Serif" font-size="10.00">precice::impl::errorInvalid</text>
<text text-anchor="middle" x="472" y="-340" font-family="Helvetica,sans-Serif" font-size="10.00">VertexID</text>
</a>
</g>
</g>
<!-- Node2&#45;&gt;Node7 -->
<g id="edge6" class="edge">
<title>Node2&#45;&gt;Node7</title>
<path fill="none" stroke="midnightblue" d="M296.79,-265.17C318.95,-281.56 356.45,-307.55 392,-324 396.14,-325.91 400.46,-327.72 404.87,-329.42"/>
<polygon fill="midnightblue" stroke="midnightblue" points="404.01,-332.83 414.61,-332.97 406.41,-326.26 404.01,-332.83"/>
</g>
<!-- Node8 -->
<g id="node8" class="node">
<title>Node8</title>
<g id="a_node8"><a xlink:href="namespaceprecice_1_1math_1_1geometry.html#ad42e2f02d09a55a766329ae82cde70d6" target="_top" xlink:title=" ">
<polygon fill="white" stroke="black" points="403.5,-284 403.5,-314 540.5,-314 540.5,-284 403.5,-284"/>
<text text-anchor="start" x="411.5" y="-302" font-family="Helvetica,sans-Serif" font-size="10.00">precice::math::geometry</text>
<text text-anchor="middle" x="472" y="-291" font-family="Helvetica,sans-Serif" font-size="10.00">::isConvexQuad</text>
</a>
</g>
</g>
<!-- Node2&#45;&gt;Node8 -->
<g id="edge7" class="edge">
<title>Node2&#45;&gt;Node8</title>
<path fill="none" stroke="midnightblue" d="M336.52,-265.03C357.1,-270.23 380.34,-276.1 401.63,-281.48"/>
<polygon fill="midnightblue" stroke="midnightblue" points="401.04,-284.94 411.59,-283.99 402.75,-278.15 401.04,-284.94"/>
</g>
<!-- Node10 -->
<g id="node10" class="node">
<title>Node10</title>
<g id="a_node10"><a xlink:href="classprecice_1_1mesh_1_1Mesh.html#ac21407160a09623491d9f6364c0a7e43" target="_top" xlink:title="Returns true if the given vertexID is valid.">
<polygon fill="white" stroke="black" points="413.5,-235 413.5,-265 530.5,-265 530.5,-235 413.5,-235"/>
<text text-anchor="start" x="421.5" y="-253" font-family="Helvetica,sans-Serif" font-size="10.00">precice::mesh::Mesh</text>
<text text-anchor="middle" x="472" y="-242" font-family="Helvetica,sans-Serif" font-size="10.00">::isValidVertexID</text>
</a>
</g>
</g>
<!-- Node2&#45;&gt;Node10 -->
<g id="edge9" class="edge">
<title>Node2&#45;&gt;Node10</title>
<path fill="none" stroke="midnightblue" d="M356.19,-250C371.77,-250 387.98,-250 403.14,-250"/>
<polygon fill="midnightblue" stroke="midnightblue" points="403.45,-253.5 413.45,-250 403.45,-246.5 403.45,-253.5"/>
</g>
<!-- Node12 -->
<g id="node12" class="node">
<title>Node12</title>
<g id="a_node12"><a xlink:href="namespaceprecice_1_1utils.html#a5b6e7c7682a521aedca3fe44cc5c060c" target="_top" xlink:title="Function that generates an array from given elements.">
<polygon fill="white" stroke="black" points="416,-186 416,-216 528,-216 528,-186 416,-186"/>
<text text-anchor="start" x="424" y="-204" font-family="Helvetica,sans-Serif" font-size="10.00">precice::utils::make</text>
<text text-anchor="middle" x="472" y="-193" font-family="Helvetica,sans-Serif" font-size="10.00">_array</text>
</a>
</g>
</g>
<!-- Node2&#45;&gt;Node12 -->
<g id="edge11" class="edge">
<title>Node2&#45;&gt;Node12</title>
<path fill="none" stroke="midnightblue" d="M336.52,-234.97C358.55,-229.4 383.62,-223.07 406.1,-217.39"/>
<polygon fill="midnightblue" stroke="midnightblue" points="407.05,-220.76 415.89,-214.92 405.34,-213.98 407.05,-220.76"/>
</g>
<!-- Node13 -->
<g id="node13" class="node">
<title>Node13</title>
<g id="a_node13"><a xlink:href="classprecice_1_1impl_1_1SolverInterfaceImpl.html#abafb6219d109dc3cdaab56cc1814ab82" target="_top" xlink:title="Allows to access a registered mesh.">
<polygon fill="white" stroke="black" points="392,-137 392,-167 552,-167 552,-137 392,-137"/>
<text text-anchor="start" x="400" y="-155" font-family="Helvetica,sans-Serif" font-size="10.00">precice::impl::SolverInterface</text>
<text text-anchor="middle" x="472" y="-144" font-family="Helvetica,sans-Serif" font-size="10.00">Impl::mesh</text>
</a>
</g>
</g>
<!-- Node2&#45;&gt;Node13 -->
<g id="edge12" class="edge">
<title>Node2&#45;&gt;Node13</title>
<path fill="none" stroke="midnightblue" d="M340.42,-234.84C345.92,-232.32 351.2,-229.4 356,-226 378.06,-210.39 370.03,-192.74 392,-177 394.69,-175.07 397.53,-173.29 400.48,-171.64"/>
<polygon fill="midnightblue" stroke="midnightblue" points="402.21,-174.69 409.59,-167.09 399.08,-168.43 402.21,-174.69"/>
</g>
<!-- Node14 -->
<g id="node14" class="node">
<title>Node14</title>
<g id="a_node14"><a xlink:href="namespaceprecice_1_1utils.html#a1385b0d82045a8400ae9c4033b9e896e" target="_top" xlink:title="Reorders an array given an array of unique indices.">
<polygon fill="white" stroke="black" points="412,-88 412,-118 532,-118 532,-88 412,-88"/>
<text text-anchor="start" x="420" y="-106" font-family="Helvetica,sans-Serif" font-size="10.00">precice::utils::reorder</text>
<text text-anchor="middle" x="472" y="-95" font-family="Helvetica,sans-Serif" font-size="10.00">_array</text>
</a>
</g>
</g>
<!-- Node2&#45;&gt;Node14 -->
<g id="edge13" class="edge">
<title>Node2&#45;&gt;Node14</title>
<path fill="none" stroke="midnightblue" d="M343.82,-234.92C348.23,-232.4 352.35,-229.44 356,-226 389.73,-194.14 358.45,-160.05 392,-128 395.31,-124.84 399.01,-122.08 402.96,-119.67"/>
<polygon fill="midnightblue" stroke="midnightblue" points="404.74,-122.69 411.95,-114.93 401.47,-116.5 404.74,-122.69"/>
</g>
<!-- Node15 -->
<g id="node15" class="node">
<title>Node15</title>
<g id="a_node15"><a xlink:href="namespaceprecice_1_1utils.html#a8f1caaf51865145ea758cbe2d1657d48" target="_top" xlink:title=" ">
<polygon fill="white" stroke="black" points="413,-39 413,-69 531,-69 531,-39 413,-39"/>
<text text-anchor="start" x="421" y="-57" font-family="Helvetica,sans-Serif" font-size="10.00">precice::utils::unique</text>
<text text-anchor="middle" x="472" y="-46" font-family="Helvetica,sans-Serif" font-size="10.00">_elements</text>
</a>
</g>
</g>
<!-- Node2&#45;&gt;Node15 -->
<g id="edge14" class="edge">
<title>Node2&#45;&gt;Node15</title>
<path fill="none" stroke="midnightblue" d="M345,-234.91C349.02,-232.38 352.75,-229.44 356,-226 402.24,-177.15 346.04,-128.11 392,-79 395.53,-75.22 399.63,-72.01 404.07,-69.29"/>
<polygon fill="midnightblue" stroke="midnightblue" points="405.73,-72.37 412.96,-64.62 402.48,-66.17 405.73,-72.37"/>
</g>
<!-- Node16 -->
<g id="node16" class="node">
<title>Node16</title>
<g id="a_node16"><a xlink:href="namespaceprecice_1_1mesh.html#a8b0288a6bdcf6f936ef7e63713013742" target="_top" xlink:title="Given a mesh and an array of vertexIDS, this function returns an array of pointers to vertices.">
<polygon fill="white" stroke="black" points="394,-0.5 394,-19.5 550,-19.5 550,-0.5 394,-0.5"/>
<text text-anchor="middle" x="472" y="-7.5" font-family="Helvetica,sans-Serif" font-size="10.00">precice::mesh::vertexPtrsFor</text>
</a>
</g>
</g>
<!-- Node2&#45;&gt;Node16 -->
<g id="edge15" class="edge">
<title>Node2&#45;&gt;Node16</title>
<path fill="none" stroke="midnightblue" d="M345.59,-234.89C349.42,-232.36 352.95,-229.42 356,-226 414.98,-159.93 331.48,-94.67 392,-30 393.61,-28.28 395.35,-26.7 397.18,-25.24"/>
<polygon fill="midnightblue" stroke="midnightblue" points="399.32,-28.03 405.82,-19.66 395.52,-22.15 399.32,-28.03"/>
</g>
<!-- Node6 -->
<g id="node6" class="node">
<title>Node6</title>
<g id="a_node6"><a xlink:href="classprecice_1_1mesh_1_1Edge.html#af27f4bd02d0b67cc5c3d04e2cf1ddee7" target="_top" xlink:title="Checks whether both edges share a vertex.">
<polygon fill="white" stroke="black" points="591.5,-382 591.5,-412 706.5,-412 706.5,-382 591.5,-382"/>
<text text-anchor="start" x="599.5" y="-400" font-family="Helvetica,sans-Serif" font-size="10.00">precice::mesh::Edge</text>
<text text-anchor="middle" x="649" y="-389" font-family="Helvetica,sans-Serif" font-size="10.00">::connectedTo</text>
</a>
</g>
</g>
<!-- Node5&#45;&gt;Node6 -->
<g id="edge5" class="edge">
<title>Node5&#45;&gt;Node6</title>
<path fill="none" stroke="midnightblue" d="M530.79,-397C546.95,-397 564.64,-397 581.27,-397"/>
<polygon fill="midnightblue" stroke="midnightblue" points="581.47,-400.5 591.47,-397 581.47,-393.5 581.47,-400.5"/>
</g>
<!-- Node9 -->
<g id="node9" class="node">
<title>Node9</title>
<g id="a_node9"><a xlink:href="namespaceprecice_1_1math.html#a0e86802cfe992deba131d789d035b5b7" target="_top" xlink:title="Compares two Eigen::MatrixBase for equality up to tolerance.">
<polygon fill="white" stroke="black" points="588,-289.5 588,-308.5 710,-308.5 710,-289.5 588,-289.5"/>
<text text-anchor="middle" x="649" y="-296.5" font-family="Helvetica,sans-Serif" font-size="10.00">precice::math::equals</text>
</a>
</g>
</g>
<!-- Node8&#45;&gt;Node9 -->
<g id="edge8" class="edge">
<title>Node8&#45;&gt;Node9</title>
<path fill="none" stroke="midnightblue" d="M540.66,-299C552.83,-299 565.55,-299 577.79,-299"/>
<polygon fill="midnightblue" stroke="midnightblue" points="577.94,-302.5 587.94,-299 577.94,-295.5 577.94,-302.5"/>
</g>
<!-- Node11 -->
<g id="node11" class="node">
<title>Node11</title>
<g id="a_node11"><a xlink:href="classprecice_1_1mesh_1_1Mesh.html#a70d28ab188762edbe9a7b5b8439e9906" target="_top" xlink:title="Returns modifieable container holding all vertices.">
<polygon fill="white" stroke="black" points="590.5,-235 590.5,-265 707.5,-265 707.5,-235 590.5,-235"/>
<text text-anchor="start" x="598.5" y="-253" font-family="Helvetica,sans-Serif" font-size="10.00">precice::mesh::Mesh</text>
<text text-anchor="middle" x="649" y="-242" font-family="Helvetica,sans-Serif" font-size="10.00">::vertices</text>
</a>
</g>
</g>
<!-- Node10&#45;&gt;Node11 -->
<g id="edge10" class="edge">
<title>Node10&#45;&gt;Node11</title>
<path fill="none" stroke="midnightblue" d="M530.79,-250C546.62,-250 563.92,-250 580.25,-250"/>
<polygon fill="midnightblue" stroke="midnightblue" points="580.27,-253.5 590.27,-250 580.27,-246.5 580.27,-253.5"/>
</g>
</g>
</svg>
