<?xml version="1.0" encoding="UTF-8" standalone="no"?>
<!DOCTYPE svg PUBLIC "-//W3C//DTD SVG 1.1//EN"
 "http://www.w3.org/Graphics/SVG/1.1/DTD/svg11.dtd">
<!-- Generated by graphviz version 2.43.0 (0)
 -->
<!-- Title: precice::m2n::GatherScatterComFactory Pages: 1 -->
<svg width="356pt" height="121pt"
 viewBox="0.00 0.00 355.50 121.00" xmlns="http://www.w3.org/2000/svg" xmlns:xlink="http://www.w3.org/1999/xlink">
<g id="graph0" class="graph" transform="scale(1 1) rotate(0) translate(4 117)">
<title>precice::m2n::GatherScatterComFactory</title>
<!-- Node1 -->
<g id="Node000001" class="node">
<title>Node1</title>
<g id="a_Node000001"><a xlink:title=" ">
<polygon fill="#999999" stroke="#666666" points="237.5,-30 84.5,-30 84.5,0 237.5,0 237.5,-30"/>
<text text-anchor="start" x="92.5" y="-18" font-family="Helvetica,sans-Serif" font-size="10.00">precice::m2n::GatherScatter</text>
<text text-anchor="middle" x="161" y="-7" font-family="Helvetica,sans-Serif" font-size="10.00">ComFactory</text>
</a>
</g>
</g>
<!-- Node2 -->
<g id="Node000002" class="node">
<title>Node2</title>
<g id="a_Node000002"><a xlink:href="classprecice_1_1m2n_1_1DistributedComFactory.html" target="_top" xlink:title=" ">
<polygon fill="white" stroke="#666666" points="140,-113 0,-113 0,-83 140,-83 140,-113"/>
<text text-anchor="start" x="8" y="-101" font-family="Helvetica,sans-Serif" font-size="10.00">precice::m2n::Distributed</text>
<text text-anchor="middle" x="70" y="-90" font-family="Helvetica,sans-Serif" font-size="10.00">ComFactory</text>
</a>
</g>
</g>
<!-- Node2&#45;&gt;Node1 -->
<g id="edge1_Node000001_Node000002" class="edge">
<title>Node2&#45;&gt;Node1</title>
<g id="a_edge1_Node000001_Node000002"><a xlink:title=" ">
<path fill="none" stroke="#63b8ff" d="M93.36,-76.21C109.56,-61.79 130.72,-42.95 145.03,-30.22"/>
<polygon fill="#63b8ff" stroke="#63b8ff" points="90.99,-73.63 85.85,-82.89 95.65,-78.86 90.99,-73.63"/>
</a>
</g>
</g>
<!-- Node3 -->
<g id="Node000003" class="node">
<title>Node3</title>
<g id="a_Node000003"><a target="_parent" xlink:href="http://en.cppreference.com/w/cpp/memory/shared_ptr.html" xlink:title=" ">
<polygon fill="white" stroke="#666666" points="347.5,-107.5 158.5,-107.5 158.5,-88.5 347.5,-88.5 347.5,-107.5"/>
<text text-anchor="middle" x="253" y="-95.5" font-family="Helvetica,sans-Serif" font-size="10.00">std::shared_ptr&lt; Communication &gt;</text>
</a>
</g>
</g>
<!-- Node3&#45;&gt;Node1 -->
<g id="edge2_Node000001_Node000003" class="edge">
<title>Node3&#45;&gt;Node1</title>
<g id="a_edge2_Node000001_Node000003"><a xlink:title=" ">
<path fill="none" stroke="#9a32cd" stroke-dasharray="5,2" d="M235.63,-81.7C218.73,-66.83 193.29,-44.43 176.91,-30.01"/>
<polygon fill="#9a32cd" stroke="#9a32cd" points="233.34,-84.35 243.15,-88.33 237.96,-79.1 233.34,-84.35"/>
</a>
</g>
<text text-anchor="start" x="219.5" y="-53.5" font-family="Helvetica,sans-Serif" font-size="10.00" fill="grey">_intraComm</text>
</g>
</g>
</svg>
