<?xml version="1.0" encoding="UTF-8" standalone="no"?>
<!DOCTYPE svg PUBLIC "-//W3C//DTD SVG 1.1//EN"
 "http://www.w3.org/Graphics/SVG/1.1/DTD/svg11.dtd">
<!-- Generated by graphviz version 2.43.0 (0)
 -->
<!-- Title: precice::cplscheme::MultiCouplingScheme::initializeReceiveDataStorage Pages: 1 -->
<svg width="1041pt" height="206pt"
 viewBox="0.00 0.00 1041.00 206.00" xmlns="http://www.w3.org/2000/svg" xmlns:xlink="http://www.w3.org/1999/xlink">
<g id="graph0" class="graph" transform="scale(1 1) rotate(0) translate(4 202)">
<title>precice::cplscheme::MultiCouplingScheme::initializeReceiveDataStorage</title>
<polygon fill="white" stroke="transparent" points="-4,4 -4,-202 1037,-202 1037,4 -4,4"/>
<!-- Node1 -->
<g id="node1" class="node">
<title>Node1</title>
<g id="a_node1"><a xlink:title="Functions needed for initialize()">
<polygon fill="#bfbfbf" stroke="black" points="0,-156.5 0,-197.5 164,-197.5 164,-156.5 0,-156.5"/>
<text text-anchor="start" x="8" y="-185.5" font-family="Helvetica,sans-Serif" font-size="10.00">precice::cplscheme</text>
<text text-anchor="start" x="8" y="-174.5" font-family="Helvetica,sans-Serif" font-size="10.00">::MultiCouplingScheme</text>
<text text-anchor="middle" x="82" y="-163.5" font-family="Helvetica,sans-Serif" font-size="10.00">::initializeReceiveDataStorage</text>
</a>
</g>
</g>
<!-- Node2 -->
<g id="node2" class="node">
<title>Node2</title>
<g id="a_node2"><a xlink:href="classprecice_1_1cplscheme_1_1BaseCouplingScheme.html#a0b8be6a29082c8115db22aad3e0aa624" target="_top" xlink:title="Initializes storage in receiveData as zero.">
<polygon fill="white" stroke="black" points="200,-156.5 200,-197.5 361,-197.5 361,-156.5 200,-156.5"/>
<text text-anchor="start" x="208" y="-185.5" font-family="Helvetica,sans-Serif" font-size="10.00">precice::cplscheme</text>
<text text-anchor="start" x="208" y="-174.5" font-family="Helvetica,sans-Serif" font-size="10.00">::BaseCouplingScheme</text>
<text text-anchor="middle" x="280.5" y="-163.5" font-family="Helvetica,sans-Serif" font-size="10.00">::initializeWithZeroInitialData</text>
</a>
</g>
</g>
<!-- Node1&#45;&gt;Node2 -->
<g id="edge1" class="edge">
<title>Node1&#45;&gt;Node2</title>
<path fill="none" stroke="midnightblue" d="M164.06,-177C172.57,-177 181.26,-177 189.86,-177"/>
<polygon fill="midnightblue" stroke="midnightblue" points="189.89,-180.5 199.89,-177 189.89,-173.5 189.89,-180.5"/>
</g>
<!-- Node3 -->
<g id="node3" class="node">
<title>Node3</title>
<g id="a_node3"><a xlink:href="namespaceprecice_1_1detail.html#adede399b4b92eea01face616a0cc7051" target="_top" xlink:title=" ">
<polygon fill="white" stroke="black" points="920,-151.5 920,-170.5 1033,-170.5 1033,-151.5 920,-151.5"/>
<text text-anchor="middle" x="976.5" y="-158.5" font-family="Helvetica,sans-Serif" font-size="10.00">precice::detail::data</text>
</a>
</g>
</g>
<!-- Node2&#45;&gt;Node3 -->
<g id="edge2" class="edge">
<title>Node2&#45;&gt;Node3</title>
<path fill="none" stroke="midnightblue" d="M361.28,-184.25C476.96,-193.29 697.8,-205.07 884,-183 900.5,-181.04 918.34,-177.17 933.84,-173.21"/>
<polygon fill="midnightblue" stroke="midnightblue" points="934.88,-176.55 943.65,-170.61 933.09,-169.79 934.88,-176.55"/>
</g>
<!-- Node4 -->
<g id="node4" class="node">
<title>Node4</title>
<g id="a_node4"><a xlink:href="classprecice_1_1cplscheme_1_1BaseCouplingScheme.html#af690c8d4e0f11e52fc7b9ca1fe098229" target="_top" xlink:title="Receives data receiveDataIDs given in mapCouplingData with communication.">
<polygon fill="white" stroke="black" points="397,-115.5 397,-156.5 525,-156.5 525,-115.5 397,-115.5"/>
<text text-anchor="start" x="405" y="-144.5" font-family="Helvetica,sans-Serif" font-size="10.00">precice::cplscheme</text>
<text text-anchor="start" x="405" y="-133.5" font-family="Helvetica,sans-Serif" font-size="10.00">::BaseCouplingScheme</text>
<text text-anchor="middle" x="461" y="-122.5" font-family="Helvetica,sans-Serif" font-size="10.00">::receiveData</text>
</a>
</g>
</g>
<!-- Node2&#45;&gt;Node4 -->
<g id="edge3" class="edge">
<title>Node2&#45;&gt;Node4</title>
<path fill="none" stroke="midnightblue" d="M361.09,-158.72C369.71,-156.74 378.45,-154.73 386.99,-152.77"/>
<polygon fill="midnightblue" stroke="midnightblue" points="387.93,-156.14 396.9,-150.49 386.37,-149.32 387.93,-156.14"/>
</g>
<!-- Node4&#45;&gt;Node3 -->
<g id="edge4" class="edge">
<title>Node4&#45;&gt;Node3</title>
<path fill="none" stroke="midnightblue" d="M525.21,-154.33C537.01,-157.07 549.31,-159.49 561,-161 683.33,-176.84 827.69,-171.47 909.72,-166.19"/>
<polygon fill="midnightblue" stroke="midnightblue" points="910.15,-169.67 919.9,-165.51 909.69,-162.68 910.15,-169.67"/>
</g>
<!-- Node5 -->
<g id="node5" class="node">
<title>Node5</title>
<g id="a_node5"><a xlink:href="classprecice_1_1com_1_1serialize_1_1SerializedStamples.html#a914cc916961f26874b078f45ce01e6f5" target="_top" xlink:title="Create SerializedStamples with allocated buffers according to size of CouplingData.">
<polygon fill="white" stroke="black" points="564.5,-121 564.5,-151 718.5,-151 718.5,-121 564.5,-121"/>
<text text-anchor="start" x="572.5" y="-139" font-family="Helvetica,sans-Serif" font-size="10.00">precice::com::serialize</text>
<text text-anchor="middle" x="641.5" y="-128" font-family="Helvetica,sans-Serif" font-size="10.00">::SerializedStamples::empty</text>
</a>
</g>
</g>
<!-- Node4&#45;&gt;Node5 -->
<g id="edge5" class="edge">
<title>Node4&#45;&gt;Node5</title>
<path fill="none" stroke="midnightblue" d="M525.18,-136C534.56,-136 544.36,-136 554.12,-136"/>
<polygon fill="midnightblue" stroke="midnightblue" points="554.24,-139.5 564.24,-136 554.24,-132.5 554.24,-139.5"/>
</g>
<!-- Node7 -->
<g id="node7" class="node">
<title>Node7</title>
<g id="a_node7"><a xlink:href="classprecice_1_1cplscheme_1_1BaseCouplingScheme.html#a83379ed90469cb7710fff88ff52269ac" target="_top" xlink:title=" ">
<polygon fill="white" stroke="black" points="561,-60.5 561,-101.5 722,-101.5 722,-60.5 561,-60.5"/>
<text text-anchor="start" x="569" y="-89.5" font-family="Helvetica,sans-Serif" font-size="10.00">precice::cplscheme</text>
<text text-anchor="start" x="569" y="-78.5" font-family="Helvetica,sans-Serif" font-size="10.00">::BaseCouplingScheme</text>
<text text-anchor="middle" x="641.5" y="-67.5" font-family="Helvetica,sans-Serif" font-size="10.00">::receiveNumberOfTimeSteps</text>
</a>
</g>
</g>
<!-- Node4&#45;&gt;Node7 -->
<g id="edge9" class="edge">
<title>Node4&#45;&gt;Node7</title>
<path fill="none" stroke="midnightblue" d="M525.18,-116.53C537.73,-112.67 551.03,-108.57 563.97,-104.58"/>
<polygon fill="midnightblue" stroke="midnightblue" points="565.25,-107.85 573.77,-101.56 563.18,-101.16 565.25,-107.85"/>
</g>
<!-- Node8 -->
<g id="node8" class="node">
<title>Node8</title>
<g id="a_node8"><a xlink:href="classprecice_1_1cplscheme_1_1BaseCouplingScheme.html#a700bef351e463eb84836538fd91f16b3" target="_top" xlink:title=" ">
<polygon fill="white" stroke="black" points="577.5,-0.5 577.5,-41.5 705.5,-41.5 705.5,-0.5 577.5,-0.5"/>
<text text-anchor="start" x="585.5" y="-29.5" font-family="Helvetica,sans-Serif" font-size="10.00">precice::cplscheme</text>
<text text-anchor="start" x="585.5" y="-18.5" font-family="Helvetica,sans-Serif" font-size="10.00">::BaseCouplingScheme</text>
<text text-anchor="middle" x="641.5" y="-7.5" font-family="Helvetica,sans-Serif" font-size="10.00">::receiveTimes</text>
</a>
</g>
</g>
<!-- Node4&#45;&gt;Node8 -->
<g id="edge10" class="edge">
<title>Node4&#45;&gt;Node8</title>
<path fill="none" stroke="midnightblue" d="M481.6,-115.47C500.49,-96.64 530.6,-69.02 561,-51 563.86,-49.31 566.82,-47.68 569.86,-46.12"/>
<polygon fill="midnightblue" stroke="midnightblue" points="571.66,-49.14 579.14,-41.65 568.62,-42.84 571.66,-49.14"/>
</g>
<!-- Node5&#45;&gt;Node3 -->
<g id="edge8" class="edge">
<title>Node5&#45;&gt;Node3</title>
<path fill="none" stroke="midnightblue" d="M718.9,-141.74C776.53,-146.06 854.78,-151.94 909.66,-156.06"/>
<polygon fill="midnightblue" stroke="midnightblue" points="909.74,-159.57 919.97,-156.83 910.26,-152.59 909.74,-159.57"/>
</g>
<!-- Node6 -->
<g id="node6" class="node">
<title>Node6</title>
<g id="a_node6"><a xlink:href="classprecice_1_1com_1_1serialize_1_1SerializedStamples.html#a766834ff07b9fc24a575a98c2fc8c382" target="_top" xlink:title=" ">
<polygon fill="white" stroke="black" points="758,-72.5 758,-113.5 884,-113.5 884,-72.5 758,-72.5"/>
<text text-anchor="start" x="766" y="-101.5" font-family="Helvetica,sans-Serif" font-size="10.00">precice::com::serialize</text>
<text text-anchor="start" x="766" y="-90.5" font-family="Helvetica,sans-Serif" font-size="10.00">::SerializedStamples::</text>
<text text-anchor="middle" x="821" y="-79.5" font-family="Helvetica,sans-Serif" font-size="10.00">allocate</text>
</a>
</g>
</g>
<!-- Node5&#45;&gt;Node6 -->
<g id="edge6" class="edge">
<title>Node5&#45;&gt;Node6</title>
<path fill="none" stroke="midnightblue" d="M704.58,-120.96C718.63,-117.56 733.67,-113.91 748.09,-110.42"/>
<polygon fill="midnightblue" stroke="midnightblue" points="749.06,-113.79 757.95,-108.03 747.41,-106.98 749.06,-113.79"/>
</g>
<!-- Node6&#45;&gt;Node3 -->
<g id="edge7" class="edge">
<title>Node6&#45;&gt;Node3</title>
<path fill="none" stroke="midnightblue" d="M868.47,-113.59C893.11,-124.5 922.71,-137.61 944.53,-147.28"/>
<polygon fill="midnightblue" stroke="midnightblue" points="943.4,-150.61 953.96,-151.46 946.24,-144.21 943.4,-150.61"/>
</g>
</g>
</svg>
