<?xml version="1.0" encoding="UTF-8" standalone="no"?>
<!DOCTYPE svg PUBLIC "-//W3C//DTD SVG 1.1//EN"
 "http://www.w3.org/Graphics/SVG/1.1/DTD/svg11.dtd">
<!-- Generated by graphviz version 2.43.0 (0)
 -->
<!-- Title: precice::cplscheme::CouplingSchemeConfiguration::addTagRelativeConvergenceMeasure Pages: 1 -->
<!--zoomable 276 -->

<svg id="main" version="1.1" xmlns="http://www.w3.org/2000/svg" xmlns:xlink="http://www.w3.org/1999/xlink" xml:space="preserve" onload="init(evt)">
<style type="text/css"><![CDATA[
.node, .edge {opacity: 0.7;}
.node.selected, .edge.selected {opacity: 1;}
.edge:hover path { stroke: red; }
.edge:hover polygon { stroke: red; fill: red; }
]]></style>

<defs>
  <circle id="rim" cx="0" cy="0" r="7"/>
  <circle id="rim2" cx="0" cy="0" r="3.5"/>
  <g id="zoomPlus">
    <use xlink:href="#rim" fill="#404040"><set attributeName="fill" to="#808080" begin="zoomplus.mouseover" end="zoomplus.mouseout"/></use>
    <path d="M-4,0h8M0,-4v8" fill="none" stroke="white" stroke-width="1.5" pointer-events="none"/>
  </g>
  <g id="zoomMin">
    <use xlink:href="#rim" fill="#404040"><set attributeName="fill" to="#808080" begin="zoomminus.mouseover" end="zoomminus.mouseout"/></use>
    <path d="M-4,0h8" fill="none" stroke="white" stroke-width="1.5" pointer-events="none"/>
  </g>
  <g id="arrowUp" transform="translate(30 24)">
    <use xlink:href="#rim"/>
    <path pointer-events="none" fill="none" stroke="white" stroke-width="1.5" d="M0,-3.0v7 M-2.5,-0.5L0,-3.0L2.5,-0.5"/>
  </g>
  <g id="arrowRight" transform="rotate(90) translate(36 -43)">
    <use xlink:href="#rim"/>
    <path pointer-events="none" fill="none" stroke="white" stroke-width="1.5" d="M0,-3.0v7 M-2.5,-0.5L0,-3.0L2.5,-0.5"/>
  </g>
  <g id="arrowDown" transform="rotate(180) translate(-30 -48)">
    <use xlink:href="#rim"/>
    <path pointer-events="none" fill="none" stroke="white" stroke-width="1.5" d="M0,-3.0v7 M-2.5,-0.5L0,-3.0L2.5,-0.5"/>
  </g>
  <g id="arrowLeft" transform="rotate(270) translate(-36 17)">
    <use xlink:href="#rim"/>
    <path pointer-events="none" fill="none" stroke="white" stroke-width="1.5" d="M0,-3.0v7 M-2.5,-0.5L0,-3.0L2.5,-0.5"/>
  </g>
  <g id="resetDef">
    <use xlink:href="#rim2" fill="#404040"><set attributeName="fill" to="#808080" begin="reset.mouseover" end="reset.mouseout"/></use>
  </g>
</defs>
<script type="application/ecmascript">
var viewWidth = 985;
var viewHeight = 276;
var sectionId = 'dynsection-20';
</script>
<script type="application/ecmascript" xlink:href="svg.min.js"/>
<svg id="graph" class="graph">
<g id="viewport">
<title>precice::cplscheme::CouplingSchemeConfiguration::addTagRelativeConvergenceMeasure</title>
<!-- Node1 -->
<g id="Node000001" class="node">
<title>Node1</title>
<g id="a_Node000001"><a xlink:title=" ">
<polygon fill="#999999" stroke="#666666" points="203,-75 0,-75 0,-34 203,-34 203,-75"/>
<text text-anchor="start" x="8" y="-63" font-family="Helvetica,sans-Serif" font-size="10.00">precice::cplscheme</text>
<text text-anchor="start" x="8" y="-52" font-family="Helvetica,sans-Serif" font-size="10.00">::CouplingSchemeConfiguration</text>
<text text-anchor="middle" x="101.5" y="-41" font-family="Helvetica,sans-Serif" font-size="10.00">::addTagRelativeConvergenceMeasure</text>
</a>
</g>
</g>
<!-- Node2 -->
<g id="Node000002" class="node">
<title>Node2</title>
<g id="a_Node000002"><a xlink:href="classprecice_1_1cplscheme_1_1CouplingSchemeConfiguration.html#a18bd32eda5f1036e13dbc3ef00340bc7" target="_top" xlink:title=" ">
<polygon fill="white" stroke="#666666" points="474,-111 239,-111 239,-70 474,-70 474,-111"/>
<text text-anchor="start" x="247" y="-99" font-family="Helvetica,sans-Serif" font-size="10.00">precice::cplscheme</text>
<text text-anchor="start" x="247" y="-88" font-family="Helvetica,sans-Serif" font-size="10.00">::CouplingSchemeConfiguration</text>
<text text-anchor="middle" x="356.5" y="-77" font-family="Helvetica,sans-Serif" font-size="10.00">::addBaseAttributesTagConvergenceMeasure</text>
</a>
</g>
</g>
<!-- Node1&#45;&gt;Node2 -->
<g id="edge1_Node000001_Node000002" class="edge">
<title>Node1&#45;&gt;Node2</title>
<g id="a_edge1_Node000001_Node000002"><a xlink:title=" ">
<path fill="none" stroke="#63b8ff" d="M203.22,-68.83C211.64,-70.03 220.22,-71.25 228.79,-72.47"/>
<polygon fill="#63b8ff" stroke="#63b8ff" points="228.46,-75.96 238.86,-73.9 229.45,-69.03 228.46,-75.96"/>
</a>
</g>
</g>
<!-- Node14 -->
<g id="Node000014" class="node">
<title>Node14</title>
<g id="a_Node000014"><a xlink:href="classprecice_1_1xml_1_1XMLTag.html#af81dc6eea2b9a75e14ddd6033ed9a1d4" target="_top" xlink:title="Adds an XML tag as subtag by making a copy of the given tag.">
<polygon fill="white" stroke="#666666" points="416,-42.5 297,-42.5 297,-12.5 416,-12.5 416,-42.5"/>
<text text-anchor="start" x="305" y="-30.5" font-family="Helvetica,sans-Serif" font-size="10.00">precice::xml::XMLTag</text>
<text text-anchor="middle" x="356.5" y="-19.5" font-family="Helvetica,sans-Serif" font-size="10.00">::addSubtag</text>
</a>
</g>
</g>
<!-- Node1&#45;&gt;Node14 -->
<g id="edge13_Node000001_Node000014" class="edge">
<title>Node1&#45;&gt;Node14</title>
<g id="a_edge13_Node000001_Node000014"><a xlink:title=" ">
<path fill="none" stroke="#63b8ff" d="M203.22,-43.75C231.2,-40.77 260.94,-37.59 286.64,-34.85"/>
<polygon fill="#63b8ff" stroke="#63b8ff" points="287.07,-38.32 296.64,-33.78 286.33,-31.36 287.07,-38.32"/>
</a>
</g>
</g>
<!-- Node3 -->
<g id="Node000003" class="node">
<title>Node3</title>
<g id="a_Node000003"><a xlink:href="classprecice_1_1xml_1_1XMLTag.html#af1e842f982d0efa6f85412a23a110529" target="_top" xlink:title="Removes the XML subtag with given name.">
<polygon fill="white" stroke="#666666" points="643,-182.5 524,-182.5 524,-152.5 643,-152.5 643,-182.5"/>
<text text-anchor="start" x="532" y="-170.5" font-family="Helvetica,sans-Serif" font-size="10.00">precice::xml::XMLTag</text>
<text text-anchor="middle" x="583.5" y="-159.5" font-family="Helvetica,sans-Serif" font-size="10.00">::addAttribute</text>
</a>
</g>
</g>
<!-- Node2&#45;&gt;Node3 -->
<g id="edge2_Node000002_Node000003" class="edge">
<title>Node2&#45;&gt;Node3</title>
<g id="a_edge2_Node000002_Node000003"><a xlink:title=" ">
<path fill="none" stroke="#63b8ff" d="M417.5,-111.03C452.1,-122.87 495.24,-137.64 528.72,-149.1"/>
<polygon fill="#63b8ff" stroke="#63b8ff" points="527.75,-152.46 538.34,-152.39 530.01,-145.84 527.75,-152.46"/>
</a>
</g>
</g>
<!-- Node11 -->
<g id="Node000011" class="node">
<title>Node11</title>
<g id="a_Node000011"><a xlink:href="classprecice_1_1xml_1_1XMLAttribute.html#ae6ec83e00d2bfd4e0a8263ded3182678" target="_top" xlink:title="Sets a documentation string for the attribute.">
<polygon fill="white" stroke="#666666" points="657,-115.5 510,-115.5 510,-85.5 657,-85.5 657,-115.5"/>
<text text-anchor="start" x="518" y="-103.5" font-family="Helvetica,sans-Serif" font-size="10.00">precice::xml::XMLAttribute</text>
<text text-anchor="middle" x="583.5" y="-92.5" font-family="Helvetica,sans-Serif" font-size="10.00">::setDocumentation</text>
</a>
</g>
</g>
<!-- Node2&#45;&gt;Node11 -->
<g id="edge10_Node000002_Node000011" class="edge">
<title>Node2&#45;&gt;Node11</title>
<g id="a_edge10_Node000002_Node000011"><a xlink:title=" ">
<path fill="none" stroke="#63b8ff" d="M474.28,-95.69C482.88,-96.07 491.44,-96.45 499.77,-96.82"/>
<polygon fill="#63b8ff" stroke="#63b8ff" points="499.65,-100.32 509.8,-97.27 499.97,-93.33 499.65,-100.32"/>
</a>
</g>
</g>
<!-- Node13 -->
<g id="Node000013" class="node">
<title>Node13</title>
<g id="a_Node000013"><a xlink:href="classprecice_1_1xml_1_1XMLTag.html#a7e13b793f414fd2fea562f2ad1e2a1d9" target="_top" xlink:title="Adds a description of the purpose of this XML tag.">
<polygon fill="white" stroke="#666666" points="643,-67.5 524,-67.5 524,-37.5 643,-37.5 643,-67.5"/>
<text text-anchor="start" x="532" y="-55.5" font-family="Helvetica,sans-Serif" font-size="10.00">precice::xml::XMLTag</text>
<text text-anchor="middle" x="583.5" y="-44.5" font-family="Helvetica,sans-Serif" font-size="10.00">::setDocumentation</text>
</a>
</g>
</g>
<!-- Node2&#45;&gt;Node13 -->
<g id="edge12_Node000002_Node000013" class="edge">
<title>Node2&#45;&gt;Node13</title>
<g id="a_edge12_Node000002_Node000013"><a xlink:title=" ">
<path fill="none" stroke="#63b8ff" d="M474.28,-70.78C487.88,-68.48 501.39,-66.2 514.02,-64.07"/>
<polygon fill="#63b8ff" stroke="#63b8ff" points="514.67,-67.51 523.95,-62.39 513.5,-60.6 514.67,-67.51"/>
</a>
</g>
</g>
<!-- Node4 -->
<g id="Node000004" class="node">
<title>Node4</title>
<g id="a_Node000004"><a target="_parent" xlink:href="http://en.cppreference.com/w/cpp/container/map/count.html#" xlink:title=" ">
<polygon fill="white" stroke="#666666" points="812.5,-268 720.5,-268 720.5,-249 812.5,-249 812.5,-268"/>
<text text-anchor="middle" x="766.5" y="-256" font-family="Helvetica,sans-Serif" font-size="10.00">std::map::count</text>
</a>
</g>
</g>
<!-- Node3&#45;&gt;Node4 -->
<g id="edge3_Node000003_Node000004" class="edge">
<title>Node3&#45;&gt;Node4</title>
<g id="a_edge3_Node000003_Node000004"><a xlink:title=" ">
<path fill="none" stroke="#63b8ff" d="M602.98,-182.55C623.72,-198.75 658.96,-224.25 693,-239.5 698.48,-241.95 704.33,-244.14 710.26,-246.07"/>
<polygon fill="#63b8ff" stroke="#63b8ff" points="709.64,-249.55 720.23,-249.1 711.68,-242.85 709.64,-249.55"/>
</a>
</g>
</g>
<!-- Node5 -->
<g id="Node000005" class="node">
<title>Node5</title>
<g id="a_Node000005"><a xlink:href="classprecice_1_1xml_1_1XMLAttribute.html#aa00da780a944ba7db691f02b569b61d2" target="_top" xlink:title=" ">
<polygon fill="white" stroke="#666666" points="840,-230.5 693,-230.5 693,-200.5 840,-200.5 840,-230.5"/>
<text text-anchor="start" x="701" y="-218.5" font-family="Helvetica,sans-Serif" font-size="10.00">precice::xml::XMLAttribute</text>
<text text-anchor="middle" x="766.5" y="-207.5" font-family="Helvetica,sans-Serif" font-size="10.00">::getName</text>
</a>
</g>
</g>
<!-- Node3&#45;&gt;Node5 -->
<g id="edge4_Node000003_Node000005" class="edge">
<title>Node3&#45;&gt;Node5</title>
<g id="a_edge4_Node000003_Node000005"><a xlink:title=" ">
<path fill="none" stroke="#63b8ff" d="M641.27,-182.56C659.64,-187.43 680.16,-192.87 699.16,-197.91"/>
<polygon fill="#63b8ff" stroke="#63b8ff" points="698.37,-201.32 708.93,-200.5 700.16,-194.55 698.37,-201.32"/>
</a>
</g>
</g>
<!-- Node6 -->
<g id="Node000006" class="node">
<title>Node6</title>
<g id="a_Node000006"><a xlink:href="classprecice_1_1xml_1_1XMLTag.html#a2d1880a2c372828603fae92dd328e563" target="_top" xlink:title=" ">
<polygon fill="white" stroke="#666666" points="826,-182.5 707,-182.5 707,-152.5 826,-152.5 826,-182.5"/>
<text text-anchor="start" x="715" y="-170.5" font-family="Helvetica,sans-Serif" font-size="10.00">precice::xml::XMLTag</text>
<text text-anchor="middle" x="766.5" y="-159.5" font-family="Helvetica,sans-Serif" font-size="10.00">::hasAttribute</text>
</a>
</g>
</g>
<!-- Node3&#45;&gt;Node6 -->
<g id="edge5_Node000003_Node000006" class="edge">
<title>Node3&#45;&gt;Node6</title>
<g id="a_edge5_Node000003_Node000006"><a xlink:title=" ">
<path fill="none" stroke="#63b8ff" d="M643.27,-167.5C660.26,-167.5 678.97,-167.5 696.53,-167.5"/>
<polygon fill="#63b8ff" stroke="#63b8ff" points="696.72,-171 706.72,-167.5 696.72,-164 696.72,-171"/>
</a>
</g>
</g>
<!-- Node10 -->
<g id="Node000010" class="node">
<title>Node10</title>
<g id="a_Node000010"><a target="_parent" xlink:href="http://en.cppreference.com/w/cpp/container/vector/push_back.html#" xlink:title=" ">
<polygon fill="white" stroke="#666666" points="829.5,-134 703.5,-134 703.5,-115 829.5,-115 829.5,-134"/>
<text text-anchor="middle" x="766.5" y="-122" font-family="Helvetica,sans-Serif" font-size="10.00">std::vector::push_back</text>
</a>
</g>
</g>
<!-- Node3&#45;&gt;Node10 -->
<g id="edge9_Node000003_Node000010" class="edge">
<title>Node3&#45;&gt;Node10</title>
<g id="a_edge9_Node000003_Node000010"><a xlink:title=" ">
<path fill="none" stroke="#63b8ff" d="M643.27,-153.54C666.54,-148.01 693.02,-141.72 715.37,-136.41"/>
<polygon fill="#63b8ff" stroke="#63b8ff" points="716.4,-139.76 725.32,-134.05 714.78,-132.95 716.4,-139.76"/>
</a>
</g>
</g>
<!-- Node7 -->
<g id="Node000007" class="node">
<title>Node7</title>
<g id="a_Node000007"><a target="_parent" xlink:href="http://en.cppreference.com/w/cpp/container/vector/begin.html#" xlink:title=" ">
<polygon fill="white" stroke="#666666" points="977,-214 876,-214 876,-195 977,-195 977,-214"/>
<text text-anchor="middle" x="926.5" y="-202" font-family="Helvetica,sans-Serif" font-size="10.00">std::vector::begin</text>
</a>
</g>
</g>
<!-- Node6&#45;&gt;Node7 -->
<g id="edge6_Node000006_Node000007" class="edge">
<title>Node6&#45;&gt;Node7</title>
<g id="a_edge6_Node000006_Node000007"><a xlink:title=" ">
<path fill="none" stroke="#63b8ff" d="M826.33,-181.28C842.31,-185.02 859.47,-189.04 874.94,-192.66"/>
<polygon fill="#63b8ff" stroke="#63b8ff" points="874.31,-196.11 884.84,-194.98 875.9,-189.29 874.31,-196.11"/>
</a>
</g>
</g>
<!-- Node8 -->
<g id="Node000008" class="node">
<title>Node8</title>
<g id="a_Node000008"><a target="_parent" xlink:href="http://en.cppreference.com/w/cpp/container/vector/end.html#" xlink:title=" ">
<polygon fill="white" stroke="#666666" points="972.5,-177 880.5,-177 880.5,-158 972.5,-158 972.5,-177"/>
<text text-anchor="middle" x="926.5" y="-165" font-family="Helvetica,sans-Serif" font-size="10.00">std::vector::end</text>
</a>
</g>
</g>
<!-- Node6&#45;&gt;Node8 -->
<g id="edge7_Node000006_Node000008" class="edge">
<title>Node6&#45;&gt;Node8</title>
<g id="a_edge7_Node000006_Node000008"><a xlink:title=" ">
<path fill="none" stroke="#63b8ff" d="M826.33,-167.5C840.74,-167.5 856.1,-167.5 870.32,-167.5"/>
<polygon fill="#63b8ff" stroke="#63b8ff" points="870.45,-171 880.45,-167.5 870.45,-164 870.45,-171"/>
</a>
</g>
</g>
<!-- Node9 -->
<g id="Node000009" class="node">
<title>Node9</title>
<g id="a_Node000009"><a target="_parent" xlink:href="http://en.cppreference.com/w/cpp/algorithm/find.html#" xlink:title=" ">
<polygon fill="white" stroke="#666666" points="954.5,-140 898.5,-140 898.5,-121 954.5,-121 954.5,-140"/>
<text text-anchor="middle" x="926.5" y="-128" font-family="Helvetica,sans-Serif" font-size="10.00">std::find</text>
</a>
</g>
</g>
<!-- Node6&#45;&gt;Node9 -->
<g id="edge8_Node000006_Node000009" class="edge">
<title>Node6&#45;&gt;Node9</title>
<g id="a_edge8_Node000006_Node000009"><a xlink:title=" ">
<path fill="none" stroke="#63b8ff" d="M826.33,-153.72C847.21,-148.83 870.1,-143.47 888.62,-139.14"/>
<polygon fill="#63b8ff" stroke="#63b8ff" points="889.48,-142.53 898.42,-136.84 887.89,-135.71 889.48,-142.53"/>
</a>
</g>
</g>
<!-- Node12 -->
<g id="Node000012" class="node">
<title>Node12</title>
<g id="a_Node000012"><a xlink:href="classprecice_1_1xml_1_1XMLAttribute.html#aabe7dcb8b1549b7d14ab59b04eff751a" target="_top" xlink:title=" ">
<polygon fill="white" stroke="#666666" points="840,-96.5 693,-96.5 693,-66.5 840,-66.5 840,-96.5"/>
<text text-anchor="start" x="701" y="-84.5" font-family="Helvetica,sans-Serif" font-size="10.00">precice::xml::XMLAttribute</text>
<text text-anchor="middle" x="766.5" y="-73.5" font-family="Helvetica,sans-Serif" font-size="10.00">::XMLAttribute</text>
</a>
</g>
</g>
<!-- Node11&#45;&gt;Node12 -->
<g id="edge11_Node000011_Node000012" class="edge">
<title>Node11&#45;&gt;Node12</title>
<g id="a_edge11_Node000011_Node000012"><a xlink:title=" ">
<path fill="none" stroke="#63b8ff" d="M657.08,-92.88C665.56,-91.99 674.26,-91.08 682.87,-90.17"/>
<polygon fill="#63b8ff" stroke="#63b8ff" points="683.33,-93.65 692.91,-89.12 682.6,-86.68 683.33,-93.65"/>
</a>
</g>
</g>
<!-- Node15 -->
<g id="Node000015" class="node">
<title>Node15</title>
<g id="a_Node000015"><a target="_parent" xlink:href="http://en.cppreference.com/w/cpp/string/basic_string/empty.html#" xlink:title=" ">
<polygon fill="white" stroke="#666666" points="635,-19 532,-19 532,0 635,0 635,-19"/>
<text text-anchor="middle" x="583.5" y="-7" font-family="Helvetica,sans-Serif" font-size="10.00">std::string::empty</text>
</a>
</g>
</g>
<!-- Node14&#45;&gt;Node15 -->
<g id="edge14_Node000014_Node000015" class="edge">
<title>Node14&#45;&gt;Node15</title>
<g id="a_edge14_Node000014_Node000015"><a xlink:title=" ">
<path fill="none" stroke="#63b8ff" d="M416.03,-22.82C448.46,-20.22 488.73,-17 521.53,-14.38"/>
<polygon fill="#63b8ff" stroke="#63b8ff" points="522.22,-17.83 531.9,-13.55 521.66,-10.86 522.22,-17.83"/>
</a>
</g>
</g>
</g>
</svg>

<g id="navigator" transform="translate(0 0)" fill="#404254">
  <rect fill="#f2f5e9" fill-opacity="0.5" stroke="#606060" stroke-width=".5" x="0" y="0" width="60" height="60"/>
  <use id="zoomplus" xlink:href="#zoomPlus" x="17" y="9" onmousedown="handleZoom(evt,'in')"/>
  <use id="zoomminus" xlink:href="#zoomMin" x="42" y="9" onmousedown="handleZoom(evt,'out')"/>
  <use id="reset" xlink:href="#resetDef" x="30" y="36" onmousedown="handleReset()"/>
   <use id="arrowup" xlink:href="#arrowUp" x="0" y="0" onmousedown="handlePan(0,-1)"/>
  <use id="arrowright" xlink:href="#arrowRight" x="0" y="0" onmousedown="handlePan(1,0)"/>
  <use id="arrowdown" xlink:href="#arrowDown" x="0" y="0" onmousedown="handlePan(0,1)"/>
  <use id="arrowleft" xlink:href="#arrowLeft" x="0" y="0" onmousedown="handlePan(-1,0)"/>
</g>
<svg viewBox="0 0 15 15" width="100%" height="30px" preserveAspectRatio="xMaxYMin meet">
 <g id="arrow_out" transform="scale(0.3 0.3)">
  <a xlink:href="classprecice_1_1cplscheme_1_1CouplingSchemeConfiguration_a3506522e6b69b64dbc3ff3b1367fef5d_cgraph_org.svg" target="_base">
   <rect id="button" ry="5" rx="5" y="6" x="6" height="38" width="38"
        fill="#f2f5e9" fill-opacity="0.5" stroke="#606060" stroke-width="1.0"/>
   <path id="arrow"
     d="M 11.500037,31.436501 C 11.940474,20.09759 22.043105,11.32322 32.158766,21.979434 L 37.068811,17.246167 C 37.068811,17.246167 37.088388,32 37.088388,32 L 22.160133,31.978069 C 22.160133,31.978069 26.997745,27.140456 26.997745,27.140456 C 18.528582,18.264221 13.291696,25.230495 11.500037,31.436501 z"
     style="fill:#404040;"/>
  </a>
 </g>
</svg>

<style type='text/css'>
<![CDATA[
[data-mouse-over-selected='false'] { opacity: 0.7; }
[data-mouse-over-selected='true']  { opacity: 1.0; }
]]>
</style>
<script type="application/ecmascript"><![CDATA[
document.addEventListener('DOMContentLoaded', (event) => {
  highlightEdges();
  highlightAdjacentNodes();
});
]]></script>
</svg>
