<?xml version="1.0" encoding="UTF-8" standalone="no"?>
<!DOCTYPE svg PUBLIC "-//W3C//DTD SVG 1.1//EN"
 "http://www.w3.org/Graphics/SVG/1.1/DTD/svg11.dtd">
<!-- Generated by graphviz version 2.43.0 (0)
 -->
<!-- Title: precice::mapping::Polation::Polation Pages: 1 -->
<svg width="438pt" height="99pt"
 viewBox="0.00 0.00 438.00 98.50" xmlns="http://www.w3.org/2000/svg" xmlns:xlink="http://www.w3.org/1999/xlink">
<g id="graph0" class="graph" transform="scale(1 1) rotate(0) translate(4 94.5)">
<title>precice::mapping::Polation::Polation</title>
<!-- Node1 -->
<g id="Node000001" class="node">
<title>Node1</title>
<g id="a_Node000001"><a xlink:title="Calculate projection to a vertex. Weight is always 1.0.">
<polygon fill="#999999" stroke="#666666" points="146,-54 0,-54 0,-24 146,-24 146,-54"/>
<text text-anchor="start" x="8" y="-42" font-family="Helvetica,sans-Serif" font-size="10.00">precice::mapping::Polation</text>
<text text-anchor="middle" x="73" y="-31" font-family="Helvetica,sans-Serif" font-size="10.00">::Polation</text>
</a>
</g>
</g>
<!-- Node2 -->
<g id="Node000002" class="node">
<title>Node2</title>
<g id="a_Node000002"><a xlink:href="classprecice_1_1mesh_1_1Vertex.html#ad90010710b36c06a40ec09922c1b0fce" target="_top" xlink:title="Returns the coordinates of the vertex.">
<polygon fill="white" stroke="#666666" points="304,-78 182,-78 182,-48 304,-48 304,-78"/>
<text text-anchor="start" x="190" y="-66" font-family="Helvetica,sans-Serif" font-size="10.00">precice::mesh::Vertex</text>
<text text-anchor="middle" x="243" y="-55" font-family="Helvetica,sans-Serif" font-size="10.00">::getCoords</text>
</a>
</g>
</g>
<!-- Node1&#45;&gt;Node2 -->
<g id="edge1_Node000001_Node000002" class="edge">
<title>Node1&#45;&gt;Node2</title>
<g id="a_edge1_Node000001_Node000002"><a xlink:title=" ">
<path fill="none" stroke="#63b8ff" d="M146.22,-49.32C154.79,-50.54 163.52,-51.79 172.05,-53.01"/>
<polygon fill="#63b8ff" stroke="#63b8ff" points="171.56,-56.47 181.96,-54.42 172.55,-49.54 171.56,-56.47"/>
</a>
</g>
</g>
<!-- Node5 -->
<g id="Node000005" class="node">
<title>Node5</title>
<g id="a_Node000005"><a xlink:href="classprecice_1_1mesh_1_1Vertex.html#a2f62d7ef09981e963638cb3f2f6a9603" target="_top" xlink:title="Returns the unique (among vertices of one mesh on one processor) ID of the vertex.">
<polygon fill="white" stroke="#666666" points="304,-30 182,-30 182,0 304,0 304,-30"/>
<text text-anchor="start" x="190" y="-18" font-family="Helvetica,sans-Serif" font-size="10.00">precice::mesh::Vertex</text>
<text text-anchor="middle" x="243" y="-7" font-family="Helvetica,sans-Serif" font-size="10.00">::getID</text>
</a>
</g>
</g>
<!-- Node1&#45;&gt;Node5 -->
<g id="edge4_Node000001_Node000005" class="edge">
<title>Node1&#45;&gt;Node5</title>
<g id="a_edge4_Node000001_Node000005"><a xlink:title=" ">
<path fill="none" stroke="#63b8ff" d="M146.22,-28.68C154.79,-27.46 163.52,-26.21 172.05,-24.99"/>
<polygon fill="#63b8ff" stroke="#63b8ff" points="172.55,-28.46 181.96,-23.58 171.56,-21.53 172.55,-28.46"/>
</a>
</g>
</g>
<!-- Node3 -->
<g id="Node000003" class="node">
<title>Node3</title>
<g id="a_Node000003"><a target="_parent" xlink:href="http://en.cppreference.com/w/cpp/algorithm/copy_n.html#" xlink:title=" ">
<polygon fill="white" stroke="#666666" points="421,-90.5 349,-90.5 349,-71.5 421,-71.5 421,-90.5"/>
<text text-anchor="middle" x="385" y="-78.5" font-family="Helvetica,sans-Serif" font-size="10.00">std::copy_n</text>
</a>
</g>
</g>
<!-- Node2&#45;&gt;Node3 -->
<g id="edge2_Node000002_Node000003" class="edge">
<title>Node2&#45;&gt;Node3</title>
<g id="a_edge2_Node000002_Node000003"><a xlink:title=" ">
<path fill="none" stroke="#63b8ff" d="M304.19,-70.74C315.75,-72.23 327.69,-73.76 338.69,-75.17"/>
<polygon fill="#63b8ff" stroke="#63b8ff" points="338.54,-78.68 348.91,-76.49 339.44,-71.74 338.54,-78.68"/>
</a>
</g>
</g>
<!-- Node4 -->
<g id="Node000004" class="node">
<title>Node4</title>
<g id="a_Node000004"><a target="_parent" xlink:href="http://en.cppreference.com/w/cpp/container/array/data.html#" xlink:title=" ">
<polygon fill="white" stroke="#666666" points="430,-53.5 340,-53.5 340,-34.5 430,-34.5 430,-53.5"/>
<text text-anchor="middle" x="385" y="-41.5" font-family="Helvetica,sans-Serif" font-size="10.00">std::array::data</text>
</a>
</g>
</g>
<!-- Node2&#45;&gt;Node4 -->
<g id="edge3_Node000002_Node000004" class="edge">
<title>Node2&#45;&gt;Node4</title>
<g id="a_edge3_Node000002_Node000004"><a xlink:title=" ">
<path fill="none" stroke="#63b8ff" d="M304.19,-54.83C312.72,-53.67 321.45,-52.49 329.87,-51.35"/>
<polygon fill="#63b8ff" stroke="#63b8ff" points="330.49,-54.79 339.93,-49.98 329.55,-47.86 330.49,-54.79"/>
</a>
</g>
</g>
</g>
</svg>
