<?xml version="1.0" encoding="UTF-8" standalone="no"?>
<!DOCTYPE svg PUBLIC "-//W3C//DTD SVG 1.1//EN"
 "http://www.w3.org/Graphics/SVG/1.1/DTD/svg11.dtd">
<!-- Generated by graphviz version 2.43.0 (0)
 -->
<!-- Title: precice::m2n::PointToPointCommunication::receive Pages: 1 -->
<svg width="454pt" height="138pt"
 viewBox="0.00 0.00 454.00 138.00" xmlns="http://www.w3.org/2000/svg" xmlns:xlink="http://www.w3.org/1999/xlink">

<svg id="main" version="1.1" xmlns="http://www.w3.org/2000/svg" xmlns:xlink="http://www.w3.org/1999/xlink" xml:space="preserve" onload="init(evt)">
<style type="text/css"><![CDATA[
.node, .edge {opacity: 0.7;}
.node.selected, .edge.selected {opacity: 1;}
.edge:hover path { stroke: red; }
.edge:hover polygon { stroke: red; fill: red; }
]]></style>
<script type="application/ecmascript" xlink:href="svg.min.js"/>
<svg id="graph" class="graph">
<g id="graph0" class="graph" transform="scale(1 1) rotate(0) translate(4 134)">
<title>precice::m2n::PointToPointCommunication::receive</title>
<!-- Node1 -->
<g id="Node000001" class="node">
<title>Node1</title>
<g id="a_Node000001"><a xlink:title="Receives a subset of local double values corresponding to local indices deduced from the current and ...">
<polygon fill="#999999" stroke="#666666" points="146,-79.5 0,-79.5 0,-49.5 146,-49.5 146,-79.5"/>
<text text-anchor="start" x="8" y="-67.5" font-family="Helvetica,sans-Serif" font-size="10.00">precice::m2n::PointToPoint</text>
<text text-anchor="middle" x="73" y="-56.5" font-family="Helvetica,sans-Serif" font-size="10.00">Communication::receive</text>
</a>
</g>
</g>
<!-- Node2 -->
<g id="Node000002" class="node">
<title>Node2</title>
<g id="a_Node000002"><a xlink:href="classprecice_1_1span.html#ab25ca07a93bfa334622507c2c22b1034" target="_top" xlink:title=" ">
<polygon fill="white" stroke="#666666" points="298.5,-130 184.5,-130 184.5,-111 298.5,-111 298.5,-130"/>
<text text-anchor="middle" x="241.5" y="-118" font-family="Helvetica,sans-Serif" font-size="10.00">precice::span::begin</text>
</a>
</g>
</g>
<!-- Node1&#45;&gt;Node2 -->
<g id="edge1_Node000001_Node000002" class="edge">
<title>Node1&#45;&gt;Node2</title>
<g id="a_edge1_Node000001_Node000002"><a xlink:title=" ">
<path fill="none" stroke="#63b8ff" d="M115.41,-79.5C135.46,-86.66 159.91,-95.22 182,-102.5 187.36,-104.27 193.02,-106.08 198.61,-107.83"/>
<polygon fill="#63b8ff" stroke="#63b8ff" points="197.96,-111.3 208.55,-110.92 200.04,-104.61 197.96,-111.3"/>
</a>
</g>
</g>
<!-- Node4 -->
<g id="Node000004" class="node">
<title>Node4</title>
<g id="a_Node000004"><a xlink:href="classprecice_1_1span.html#a864923e4c92c2dd5176f2956531c977c" target="_top" xlink:title=" ">
<polygon fill="white" stroke="#666666" points="301,-56 182,-56 182,-37 301,-37 301,-56"/>
<text text-anchor="middle" x="241.5" y="-44" font-family="Helvetica,sans-Serif" font-size="10.00">precice::span::empty</text>
</a>
</g>
</g>
<!-- Node1&#45;&gt;Node4 -->
<g id="edge3_Node000001_Node000004" class="edge">
<title>Node1&#45;&gt;Node4</title>
<g id="a_edge3_Node000001_Node000004"><a xlink:title=" ">
<path fill="none" stroke="#63b8ff" d="M146.06,-56.71C154.56,-55.79 163.21,-54.86 171.67,-53.94"/>
<polygon fill="#63b8ff" stroke="#63b8ff" points="172.28,-57.4 181.85,-52.84 171.53,-50.44 172.28,-57.4"/>
</a>
</g>
</g>
<!-- Node6 -->
<g id="Node000006" class="node">
<title>Node6</title>
<g id="a_Node000006"><a xlink:href="classprecice_1_1span.html#ab86c14ec7bc7475d3ddb21d400e93121" target="_top" xlink:title=" ">
<polygon fill="white" stroke="#666666" points="294,-93 189,-93 189,-74 294,-74 294,-93"/>
<text text-anchor="middle" x="241.5" y="-81" font-family="Helvetica,sans-Serif" font-size="10.00">precice::span::end</text>
</a>
</g>
</g>
<!-- Node1&#45;&gt;Node6 -->
<g id="edge5_Node000001_Node000006" class="edge">
<title>Node1&#45;&gt;Node6</title>
<g id="a_edge5_Node000001_Node000006"><a xlink:title=" ">
<path fill="none" stroke="#63b8ff" d="M146.06,-72.72C156.98,-73.97 168.17,-75.25 178.84,-76.46"/>
<polygon fill="#63b8ff" stroke="#63b8ff" points="178.57,-79.96 188.9,-77.61 179.36,-73 178.57,-79.96"/>
</a>
</g>
</g>
<!-- Node7 -->
<g id="Node000007" class="node">
<title>Node7</title>
<g id="a_Node000007"><a target="_parent" xlink:href="http://en.cppreference.com/w/cpp/algorithm/fill.html#" xlink:title=" ">
<polygon fill="white" stroke="#666666" points="266.5,-19 216.5,-19 216.5,0 266.5,0 266.5,-19"/>
<text text-anchor="middle" x="241.5" y="-7" font-family="Helvetica,sans-Serif" font-size="10.00">std::fill</text>
</a>
</g>
</g>
<!-- Node1&#45;&gt;Node7 -->
<g id="edge8_Node000001_Node000007" class="edge">
<title>Node1&#45;&gt;Node7</title>
<g id="a_edge8_Node000001_Node000007"><a xlink:title=" ">
<path fill="none" stroke="#63b8ff" d="M118.9,-49.45C138.3,-42.97 161.25,-35.33 182,-28.5 190,-25.87 198.63,-23.05 206.74,-20.42"/>
<polygon fill="#63b8ff" stroke="#63b8ff" points="207.86,-23.73 216.29,-17.32 205.7,-17.07 207.86,-23.73"/>
</a>
</g>
</g>
<!-- Node3 -->
<g id="Node000003" class="node">
<title>Node3</title>
<g id="a_Node000003"><a xlink:href="classprecice_1_1span.html#a38fb4273ab189e44dfb475c17e063a9a" target="_top" xlink:title=" ">
<polygon fill="white" stroke="#666666" points="446,-111 337,-111 337,-92 446,-92 446,-111"/>
<text text-anchor="middle" x="391.5" y="-99" font-family="Helvetica,sans-Serif" font-size="10.00">precice::span::data</text>
</a>
</g>
</g>
<!-- Node2&#45;&gt;Node3 -->
<g id="edge2_Node000002_Node000003" class="edge">
<title>Node2&#45;&gt;Node3</title>
<g id="a_edge2_Node000002_Node000003"><a xlink:title=" ">
<path fill="none" stroke="#63b8ff" d="M298.87,-113.26C307.99,-112.09 317.49,-110.87 326.77,-109.68"/>
<polygon fill="#63b8ff" stroke="#63b8ff" points="327.25,-113.15 336.72,-108.4 326.36,-106.21 327.25,-113.15"/>
</a>
</g>
</g>
<!-- Node5 -->
<g id="Node000005" class="node">
<title>Node5</title>
<g id="a_Node000005"><a xlink:href="classprecice_1_1span.html#ae91f5ed50b6cbf0d15382b8e3c2a9a04" target="_top" xlink:title=" ">
<polygon fill="white" stroke="#666666" points="445,-74 338,-74 338,-55 445,-55 445,-74"/>
<text text-anchor="middle" x="391.5" y="-62" font-family="Helvetica,sans-Serif" font-size="10.00">precice::span::size</text>
</a>
</g>
</g>
<!-- Node4&#45;&gt;Node5 -->
<g id="edge4_Node000004_Node000005" class="edge">
<title>Node4&#45;&gt;Node5</title>
<g id="a_edge4_Node000004_Node000005"><a xlink:title=" ">
<path fill="none" stroke="#63b8ff" d="M301.42,-53.67C309.99,-54.71 318.85,-55.79 327.5,-56.84"/>
<polygon fill="#63b8ff" stroke="#63b8ff" points="327.19,-60.33 337.54,-58.06 328.03,-53.38 327.19,-60.33"/>
</a>
</g>
</g>
<!-- Node6&#45;&gt;Node3 -->
<g id="edge6_Node000006_Node000003" class="edge">
<title>Node6&#45;&gt;Node3</title>
<g id="a_edge6_Node000006_Node000003"><a xlink:title=" ">
<path fill="none" stroke="#63b8ff" d="M294.26,-89.8C304.69,-91.06 315.76,-92.41 326.54,-93.72"/>
<polygon fill="#63b8ff" stroke="#63b8ff" points="326.41,-97.23 336.76,-94.96 327.25,-90.28 326.41,-97.23"/>
</a>
</g>
</g>
<!-- Node6&#45;&gt;Node5 -->
<g id="edge7_Node000006_Node000005" class="edge">
<title>Node6&#45;&gt;Node5</title>
<g id="a_edge7_Node000006_Node000005"><a xlink:title=" ">
<path fill="none" stroke="#63b8ff" d="M294.26,-76.85C305.05,-75.47 316.53,-74 327.66,-72.57"/>
<polygon fill="#63b8ff" stroke="#63b8ff" points="328.29,-76.02 337.76,-71.27 327.4,-69.07 328.29,-76.02"/>
</a>
</g>
</g>
</g>
</svg>
</svg>

<style type='text/css'>
<![CDATA[
[data-mouse-over-selected='false'] { opacity: 0.7; }
[data-mouse-over-selected='true']  { opacity: 1.0; }
]]>
</style>
<script type="application/ecmascript"><![CDATA[
document.addEventListener('DOMContentLoaded', (event) => {
  highlightEdges();
  highlightAdjacentNodes();
});
]]></script>
</svg>
