<?xml version="1.0" encoding="UTF-8" standalone="no"?>
<!DOCTYPE svg PUBLIC "-//W3C//DTD SVG 1.1//EN"
 "http://www.w3.org/Graphics/SVG/1.1/DTD/svg11.dtd">
<!-- Generated by graphviz version 2.43.0 (0)
 -->
<!-- Title: precice::mesh::MeshConfiguration Pages: 1 -->
<!--zoomable 368 -->

<svg id="main" version="1.1" xmlns="http://www.w3.org/2000/svg" xmlns:xlink="http://www.w3.org/1999/xlink" xml:space="preserve" onload="init(evt)">

<style type="text/css"><![CDATA[
.node, .edge {opacity: 0.7;}
.node.selected, .edge.selected {opacity: 1;}
.edge:hover path { stroke: red; }
.edge:hover polygon { stroke: red; fill: red; }
]]></style>

<defs>
  <circle id="rim" cx="0" cy="0" r="7"/>
  <circle id="rim2" cx="0" cy="0" r="3.5"/>
  <g id="zoomPlus">
    <use xlink:href="#rim" fill="#404040"><set attributeName="fill" to="#808080" begin="zoomplus.mouseover" end="zoomplus.mouseout"/></use>
    <path d="M-4,0h8M0,-4v8" fill="none" stroke="white" stroke-width="1.5" pointer-events="none"/>
  </g>
  <g id="zoomMin">
    <use xlink:href="#rim" fill="#404040"><set attributeName="fill" to="#808080" begin="zoomminus.mouseover" end="zoomminus.mouseout"/></use>
    <path d="M-4,0h8" fill="none" stroke="white" stroke-width="1.5" pointer-events="none"/>
  </g>
  <g id="arrowUp" transform="translate(30 24)">
    <use xlink:href="#rim"/>
    <path pointer-events="none" fill="none" stroke="white" stroke-width="1.5" d="M0,-3.0v7 M-2.5,-0.5L0,-3.0L2.5,-0.5"/>
  </g>
  <g id="arrowRight" transform="rotate(90) translate(36 -43)">
    <use xlink:href="#rim"/>
    <path pointer-events="none" fill="none" stroke="white" stroke-width="1.5" d="M0,-3.0v7 M-2.5,-0.5L0,-3.0L2.5,-0.5"/>
  </g>
  <g id="arrowDown" transform="rotate(180) translate(-30 -48)">
    <use xlink:href="#rim"/>
    <path pointer-events="none" fill="none" stroke="white" stroke-width="1.5" d="M0,-3.0v7 M-2.5,-0.5L0,-3.0L2.5,-0.5"/>
  </g>
  <g id="arrowLeft" transform="rotate(270) translate(-36 17)">
    <use xlink:href="#rim"/>
    <path pointer-events="none" fill="none" stroke="white" stroke-width="1.5" d="M0,-3.0v7 M-2.5,-0.5L0,-3.0L2.5,-0.5"/>
  </g>
  <g id="resetDef">
    <use xlink:href="#rim2" fill="#404040"><set attributeName="fill" to="#808080" begin="reset.mouseover" end="reset.mouseout"/></use>
  </g>
</defs>
<script type="application/ecmascript">
var viewWidth = 1225;
var viewHeight = 368;
var sectionId = 'dynsection-1';
</script>
<script type="application/ecmascript" xlink:href="svg.min.js"/>
<svg id="graph" class="graph">
<g id="viewport">
<title>precice::mesh::MeshConfiguration</title>
<!-- Node1 -->
<g id="Node000001" class="node">
<title>Node1</title>
<g id="a_Node000001"><a xlink:title=" ">
<polygon fill="#999999" stroke="#666666" points="1217,-186 1035,-186 1035,-167 1217,-167 1217,-186"/>
<text text-anchor="middle" x="1126" y="-174" font-family="Helvetica,sans-Serif" font-size="10.00">precice::mesh::MeshConfiguration</text>
</a>
</g>
</g>
<!-- Node2 -->
<g id="Node000002" class="node">
<title>Node2</title>
<g id="a_Node000002"><a xlink:href="structprecice_1_1xml_1_1XMLTag_1_1Listener.html" target="_top" xlink:title="Callback interface for configuration classes using XMLTag.">
<polygon fill="white" stroke="#666666" points="867.5,-333.5 748.5,-333.5 748.5,-303.5 867.5,-303.5 867.5,-333.5"/>
<text text-anchor="start" x="756.5" y="-321.5" font-family="Helvetica,sans-Serif" font-size="10.00">precice::xml::XMLTag</text>
<text text-anchor="middle" x="808" y="-310.5" font-family="Helvetica,sans-Serif" font-size="10.00">::Listener</text>
</a>
</g>
</g>
<!-- Node2&#45;&gt;Node1 -->
<g id="edge1_Node000001_Node000002" class="edge">
<title>Node2&#45;&gt;Node1</title>
<g id="a_edge1_Node000001_Node000002"><a xlink:title=" ">
<path fill="none" stroke="#63b8ff" d="M877.92,-321.51C920.18,-320.61 974.2,-314.39 1017,-292.5 1066.73,-267.07 1105.5,-209.03 1119.42,-186.09"/>
<polygon fill="#63b8ff" stroke="#63b8ff" points="877.68,-318.01 867.72,-321.62 877.76,-325.01 877.68,-318.01"/>
</a>
</g>
</g>
<!-- Node3 -->
<g id="Node000003" class="node">
<title>Node3</title>
<g id="a_Node000003"><a xlink:href="classprecice_1_1logging_1_1Logger.html" target="_top" xlink:title="This class provides a lightweight logger.">
<polygon fill="white" stroke="#666666" points="874.5,-285 741.5,-285 741.5,-266 874.5,-266 874.5,-285"/>
<text text-anchor="middle" x="808" y="-273" font-family="Helvetica,sans-Serif" font-size="10.00">precice::logging::Logger</text>
</a>
</g>
</g>
<!-- Node3&#45;&gt;Node1 -->
<g id="edge2_Node000001_Node000003" class="edge">
<title>Node3&#45;&gt;Node1</title>
<g id="a_edge2_Node000001_Node000003"><a xlink:title=" ">
<path fill="none" stroke="#9a32cd" stroke-dasharray="5,2" d="M884.7,-275.61C925.09,-273.5 974.99,-267.36 1017,-251.5 1057.36,-236.26 1096.99,-202.65 1114.97,-186.09"/>
<polygon fill="#9a32cd" stroke="#9a32cd" points="884.48,-272.12 874.64,-276.06 884.79,-279.11 884.48,-272.12"/>
</a>
</g>
<text text-anchor="start" x="961.5" y="-277" font-family="Helvetica,sans-Serif" font-size="10.00" fill="grey">_log</text>
</g>
<!-- Node4 -->
<g id="Node000004" class="node">
<title>Node4</title>
<g id="a_Node000004"><a target="_parent" xlink:href="http://en.cppreference.com/w/cpp/memory/unique_ptr.html" xlink:title=" ">
<polygon fill="white" stroke="#666666" points="550,-352.5 380,-352.5 380,-322.5 550,-322.5 550,-352.5"/>
<text text-anchor="start" x="388" y="-340.5" font-family="Helvetica,sans-Serif" font-size="10.00">std::unique_ptr&lt; precice</text>
<text text-anchor="middle" x="465" y="-329.5" font-family="Helvetica,sans-Serif" font-size="10.00">::logging::Logger::LoggerImpl &gt;</text>
</a>
</g>
</g>
<!-- Node4&#45;&gt;Node3 -->
<g id="edge3_Node000003_Node000004" class="edge">
<title>Node4&#45;&gt;Node3</title>
<g id="a_edge3_Node000003_Node000004"><a xlink:title=" ">
<path fill="none" stroke="#9a32cd" stroke-dasharray="5,2" d="M560.24,-343.68C602.06,-342.64 650.62,-336.01 690,-315.5 700.9,-309.82 697.37,-300.67 708,-294.5 718.14,-288.61 729.76,-284.51 741.38,-281.65"/>
<polygon fill="#9a32cd" stroke="#9a32cd" points="559.99,-340.18 550.04,-343.83 560.09,-347.18 559.99,-340.18"/>
</a>
</g>
<text text-anchor="start" x="615" y="-348" font-family="Helvetica,sans-Serif" font-size="10.00" fill="grey">_impl</text>
</g>
<!-- Node5 -->
<g id="Node000005" class="node">
<title>Node5</title>
<g id="a_Node000005"><a xlink:href="classprecice_1_1logging_1_1Logger_1_1LoggerImpl.html" target="_top" xlink:title=" ">
<polygon fill="white" stroke="#666666" points="292,-352.5 159,-352.5 159,-322.5 292,-322.5 292,-352.5"/>
<text text-anchor="start" x="167" y="-340.5" font-family="Helvetica,sans-Serif" font-size="10.00">precice::logging::Logger</text>
<text text-anchor="middle" x="225.5" y="-329.5" font-family="Helvetica,sans-Serif" font-size="10.00">::LoggerImpl</text>
</a>
</g>
</g>
<!-- Node5&#45;&gt;Node4 -->
<g id="edge4_Node000004_Node000005" class="edge">
<title>Node5&#45;&gt;Node4</title>
<g id="a_edge4_Node000004_Node000005"><a xlink:title=" ">
<path fill="none" stroke="#9a32cd" stroke-dasharray="5,2" d="M302.1,-337.5C326.89,-337.5 354.59,-337.5 379.97,-337.5"/>
<polygon fill="#9a32cd" stroke="#9a32cd" points="302.03,-334 292.03,-337.5 302.03,-341 302.03,-334"/>
</a>
</g>
<text text-anchor="start" x="329" y="-343" font-family="Helvetica,sans-Serif" font-size="10.00" fill="grey">ptr</text>
</g>
<!-- Node6 -->
<g id="Node000006" class="node">
<title>Node6</title>
<g id="a_Node000006"><a xlink:title=" ">
<polygon fill="white" stroke="#666666" points="122,-352.5 0,-352.5 0,-322.5 122,-322.5 122,-352.5"/>
<text text-anchor="start" x="8" y="-340.5" font-family="Helvetica,sans-Serif" font-size="10.00">BoostLogger&lt; Logger</text>
<text text-anchor="middle" x="61" y="-329.5" font-family="Helvetica,sans-Serif" font-size="10.00">::LoggerImpl &gt;</text>
</a>
</g>
</g>
<!-- Node6&#45;&gt;Node5 -->
<g id="edge5_Node000005_Node000006" class="edge">
<title>Node6&#45;&gt;Node5</title>
<g id="a_edge5_Node000005_Node000006"><a xlink:title=" ">
<path fill="none" stroke="#63b8ff" d="M132.33,-337.5C141.17,-337.5 150.19,-337.5 158.96,-337.5"/>
<polygon fill="#63b8ff" stroke="#63b8ff" points="132.05,-334 122.05,-337.5 132.05,-341 132.05,-334"/>
</a>
</g>
</g>
<!-- Node7 -->
<g id="Node000007" class="node">
<title>Node7</title>
<g id="a_Node000007"><a target="_parent" xlink:href="http://en.cppreference.com/w/cpp/string/basic_string.html" xlink:title=" ">
<polygon fill="white" stroke="#666666" points="258,-183 193,-183 193,-164 258,-164 258,-183"/>
<text text-anchor="middle" x="225.5" y="-171" font-family="Helvetica,sans-Serif" font-size="10.00">std::string</text>
</a>
</g>
</g>
<!-- Node7&#45;&gt;Node1 -->
<g id="edge6_Node000001_Node000007" class="edge">
<title>Node7&#45;&gt;Node1</title>
<g id="a_edge6_Node000001_Node000007"><a xlink:title=" ">
<path fill="none" stroke="#9a32cd" stroke-dasharray="5,2" d="M259.96,-186.48C275.03,-191.76 293.17,-197.34 310,-200.5 571.28,-249.51 643.11,-234.87 908,-212.5 968.12,-207.42 1036.69,-194.9 1080.38,-186.06"/>
<polygon fill="#9a32cd" stroke="#9a32cd" points="261.15,-183.19 250.56,-183.08 258.77,-189.77 261.15,-183.19"/>
</a>
</g>
<text text-anchor="start" x="582" y="-298" font-family="Helvetica,sans-Serif" font-size="10.00" fill="grey">ATTR_DIMENSIONS</text>
<text text-anchor="start" x="582" y="-283" font-family="Helvetica,sans-Serif" font-size="10.00" fill="grey">ATTR_NAME</text>
<text text-anchor="start" x="582" y="-268" font-family="Helvetica,sans-Serif" font-size="10.00" fill="grey">ATTR_SIDE_INDEX</text>
<text text-anchor="start" x="582" y="-253" font-family="Helvetica,sans-Serif" font-size="10.00" fill="grey">TAG</text>
<text text-anchor="start" x="582" y="-238" font-family="Helvetica,sans-Serif" font-size="10.00" fill="grey">TAG_DATA</text>
</g>
<!-- Node9 -->
<g id="Node000009" class="node">
<title>Node9</title>
<g id="a_Node000009"><a target="_parent" xlink:href="http://en.cppreference.com/w/cpp/container/map.html" xlink:title=" ">
<polygon fill="white" stroke="#666666" points="690,-209.5 568,-209.5 568,-179.5 690,-179.5 690,-209.5"/>
<text text-anchor="start" x="576" y="-197.5" font-family="Helvetica,sans-Serif" font-size="10.00">std::map&lt; std::string,</text>
<text text-anchor="middle" x="629" y="-186.5" font-family="Helvetica,sans-Serif" font-size="10.00"> int &gt;</text>
</a>
</g>
</g>
<!-- Node7&#45;&gt;Node9 -->
<g id="edge9_Node000009_Node000007" class="edge">
<title>Node7&#45;&gt;Node9</title>
<g id="a_edge9_Node000009_Node000007"><a xlink:title=" ">
<path fill="none" stroke="#9a32cd" stroke-dasharray="5,2" d="M268.4,-175.69C339.86,-179.43 485.53,-187.05 567.85,-191.35"/>
<polygon fill="#9a32cd" stroke="#9a32cd" points="268.17,-172.18 258.01,-175.15 267.81,-179.17 268.17,-172.18"/>
</a>
</g>
<text text-anchor="start" x="325" y="-185" font-family="Helvetica,sans-Serif" font-size="10.00" fill="grey">keys</text>
</g>
<!-- Node13 -->
<g id="Node000013" class="node">
<title>Node13</title>
<g id="a_Node000013"><a target="_parent" xlink:href="http://en.cppreference.com/w/cpp/container/map.html" xlink:title=" ">
<polygon fill="white" stroke="#666666" points="885,-156.5 731,-156.5 731,-126.5 885,-126.5 885,-156.5"/>
<text text-anchor="start" x="739" y="-144.5" font-family="Helvetica,sans-Serif" font-size="10.00">std::map&lt; std::string,</text>
<text text-anchor="middle" x="808" y="-133.5" font-family="Helvetica,sans-Serif" font-size="10.00"> std::vector&lt; std::string &gt; &gt;</text>
</a>
</g>
</g>
<!-- Node7&#45;&gt;Node13 -->
<g id="edge14_Node000013_Node000007" class="edge">
<title>Node7&#45;&gt;Node13</title>
<g id="a_edge14_Node000013_Node000007"><a xlink:title=" ">
<path fill="none" stroke="#9a32cd" stroke-dasharray="5,2" d="M268.19,-169.52C299.05,-166.68 342.11,-162.95 380,-160.5 502.74,-152.57 645.54,-146.95 730.97,-143.96"/>
<polygon fill="#9a32cd" stroke="#9a32cd" points="267.86,-166.03 258.22,-170.44 268.5,-173 267.86,-166.03"/>
</a>
</g>
<text text-anchor="start" x="454" y="-166" font-family="Helvetica,sans-Serif" font-size="10.00" fill="grey">keys</text>
</g>
<!-- Node14 -->
<g id="Node000014" class="node">
<title>Node14</title>
<g id="a_Node000014"><a target="_parent" xlink:href="http://en.cppreference.com/w/cpp/container/vector.html" xlink:title=" ">
<polygon fill="white" stroke="#666666" points="535,-115 395,-115 395,-96 535,-96 535,-115"/>
<text text-anchor="middle" x="465" y="-103" font-family="Helvetica,sans-Serif" font-size="10.00">std::vector&lt; std::string &gt;</text>
</a>
</g>
</g>
<!-- Node7&#45;&gt;Node14 -->
<g id="edge16_Node000014_Node000007" class="edge">
<title>Node7&#45;&gt;Node14</title>
<g id="a_edge16_Node000014_Node000007"><a xlink:title=" ">
<path fill="none" stroke="#9a32cd" stroke-dasharray="5,2" d="M245.83,-157.49C261.93,-145.11 286.03,-128.75 310,-120.5 336.8,-111.28 367.66,-107.11 394.69,-105.4"/>
<polygon fill="#9a32cd" stroke="#9a32cd" points="243.42,-154.93 237.75,-163.88 247.77,-160.41 243.42,-154.93"/>
</a>
</g>
<text text-anchor="start" x="313" y="-126" font-family="Helvetica,sans-Serif" font-size="10.00" fill="grey">elements</text>
</g>
<!-- Node8 -->
<g id="Node000008" class="node">
<title>Node8</title>
<g id="a_Node000008"><a target="_parent" xlink:href="http://en.cppreference.com/w/cpp/string/basic_string.html" xlink:title=" ">
<polygon fill="white" stroke="#666666" points="113,-188.5 9,-188.5 9,-158.5 113,-158.5 113,-188.5"/>
<text text-anchor="start" x="17" y="-176.5" font-family="Helvetica,sans-Serif" font-size="10.00">std::basic_string&lt;</text>
<text text-anchor="middle" x="61" y="-165.5" font-family="Helvetica,sans-Serif" font-size="10.00"> Char &gt;</text>
</a>
</g>
</g>
<!-- Node8&#45;&gt;Node7 -->
<g id="edge7_Node000007_Node000008" class="edge">
<title>Node8&#45;&gt;Node7</title>
<g id="a_edge7_Node000007_Node000008"><a xlink:title=" ">
<path fill="none" stroke="#63b8ff" d="M123.69,-173.5C147.25,-173.5 173.14,-173.5 192.78,-173.5"/>
<polygon fill="#63b8ff" stroke="#63b8ff" points="123.42,-170 113.42,-173.5 123.42,-177 123.42,-170"/>
</a>
</g>
</g>
<!-- Node9&#45;&gt;Node1 -->
<g id="edge8_Node000001_Node000009" class="edge">
<title>Node9&#45;&gt;Node1</title>
<g id="a_edge8_Node000001_Node000009"><a xlink:title=" ">
<path fill="none" stroke="#9a32cd" stroke-dasharray="5,2" d="M700.33,-191.94C788.11,-188.75 938.4,-183.29 1034.64,-179.79"/>
<polygon fill="#9a32cd" stroke="#9a32cd" points="700.07,-188.45 690.2,-192.31 700.32,-195.45 700.07,-188.45"/>
</a>
</g>
<text text-anchor="start" x="752" y="-197" font-family="Helvetica,sans-Serif" font-size="10.00" fill="grey">_meshDimensionsMap</text>
</g>
<!-- Node10 -->
<g id="Node000010" class="node">
<title>Node10</title>
<g id="a_Node000010"><a target="_parent" xlink:href="http://en.cppreference.com/w/cpp/memory/shared_ptr.html" xlink:title=" ">
<polygon fill="white" stroke="#666666" points="908,-108 708,-108 708,-89 908,-89 908,-108"/>
<text text-anchor="middle" x="808" y="-96" font-family="Helvetica,sans-Serif" font-size="10.00">std::shared_ptr&lt; DataConfiguration &gt;</text>
</a>
</g>
</g>
<!-- Node10&#45;&gt;Node1 -->
<g id="edge10_Node000001_Node000010" class="edge">
<title>Node10&#45;&gt;Node1</title>
<g id="a_edge10_Node000001_Node000010"><a xlink:title=" ">
<path fill="none" stroke="#9a32cd" stroke-dasharray="5,2" d="M914,-109.45C947.31,-114.3 984.04,-121.11 1017,-130.5 1049.53,-139.77 1085.29,-156.36 1106.4,-166.88"/>
<polygon fill="#9a32cd" stroke="#9a32cd" points="914.17,-105.94 903.78,-108 913.19,-112.87 914.17,-105.94"/>
</a>
</g>
<text text-anchor="start" x="942.5" y="-136" font-family="Helvetica,sans-Serif" font-size="10.00" fill="grey">_dataConfig</text>
</g>
<!-- Node11 -->
<g id="Node000011" class="node">
<title>Node11</title>
<g id="a_Node000011"><a target="_parent" xlink:href="http://en.cppreference.com/w/cpp/container/vector.html" xlink:title=" ">
<polygon fill="white" stroke="#666666" points="875,-70.5 741,-70.5 741,-40.5 875,-40.5 875,-70.5"/>
<text text-anchor="start" x="749" y="-58.5" font-family="Helvetica,sans-Serif" font-size="10.00">std::vector&lt; std::shared</text>
<text text-anchor="middle" x="808" y="-47.5" font-family="Helvetica,sans-Serif" font-size="10.00">_ptr&lt; Mesh &gt; &gt;</text>
</a>
</g>
</g>
<!-- Node11&#45;&gt;Node1 -->
<g id="edge11_Node000001_Node000011" class="edge">
<title>Node11&#45;&gt;Node1</title>
<g id="a_edge11_Node000001_Node000011"><a xlink:title=" ">
<path fill="none" stroke="#9a32cd" stroke-dasharray="5,2" d="M885.29,-58.58C925.86,-62.51 975.73,-71.07 1017,-89.5 1059.43,-108.45 1099.27,-148.28 1116.31,-166.73"/>
<polygon fill="#9a32cd" stroke="#9a32cd" points="885.46,-55.08 875.19,-57.68 884.84,-62.06 885.46,-55.08"/>
</a>
</g>
<text text-anchor="start" x="949.5" y="-95" font-family="Helvetica,sans-Serif" font-size="10.00" fill="grey">_meshes</text>
</g>
<!-- Node12 -->
<g id="Node000012" class="node">
<title>Node12</title>
<g id="a_Node000012"><a target="_parent" xlink:href="http://en.cppreference.com/w/cpp/memory/shared_ptr.html" xlink:title=" ">
<polygon fill="white" stroke="#666666" points="534,-65 396,-65 396,-46 534,-46 534,-65"/>
<text text-anchor="middle" x="465" y="-53" font-family="Helvetica,sans-Serif" font-size="10.00">std::shared_ptr&lt; Mesh &gt;</text>
</a>
</g>
</g>
<!-- Node12&#45;&gt;Node11 -->
<g id="edge12_Node000011_Node000012" class="edge">
<title>Node12&#45;&gt;Node11</title>
<g id="a_edge12_Node000011_Node000012"><a xlink:title=" ">
<path fill="none" stroke="#9a32cd" stroke-dasharray="5,2" d="M544.29,-55.5C603.79,-55.5 684.71,-55.5 740.96,-55.5"/>
<polygon fill="#9a32cd" stroke="#9a32cd" points="544.19,-52 534.19,-55.5 544.19,-59 544.19,-52"/>
</a>
</g>
<text text-anchor="start" x="606" y="-61" font-family="Helvetica,sans-Serif" font-size="10.00" fill="grey">elements</text>
</g>
<!-- Node13&#45;&gt;Node1 -->
<g id="edge13_Node000001_Node000013" class="edge">
<title>Node13&#45;&gt;Node1</title>
<g id="a_edge13_Node000001_Node000013"><a xlink:title=" ">
<path fill="none" stroke="#9a32cd" stroke-dasharray="5,2" d="M895.51,-149C932.91,-152.45 977.15,-156.82 1017,-161.5 1030.82,-163.12 1045.6,-165.05 1059.66,-166.97"/>
<polygon fill="#9a32cd" stroke="#9a32cd" points="895.43,-145.47 885.15,-148.05 894.79,-152.45 895.43,-145.47"/>
</a>
</g>
<text text-anchor="start" x="932.5" y="-167" font-family="Helvetica,sans-Serif" font-size="10.00" fill="grey">_neededMeshes</text>
</g>
<!-- Node14&#45;&gt;Node13 -->
<g id="edge15_Node000013_Node000014" class="edge">
<title>Node14&#45;&gt;Node13</title>
<g id="a_edge15_Node000013_Node000014"><a xlink:title=" ">
<path fill="none" stroke="#9a32cd" stroke-dasharray="5,2" d="M545.41,-108.67C588.33,-110.93 642.19,-114.63 690,-120.5 703.21,-122.12 717.19,-124.26 730.72,-126.55"/>
<polygon fill="#9a32cd" stroke="#9a32cd" points="545.47,-105.17 535.31,-108.16 545.12,-112.16 545.47,-105.17"/>
</a>
</g>
<text text-anchor="start" x="606" y="-126" font-family="Helvetica,sans-Serif" font-size="10.00" fill="grey">elements</text>
</g>
<!-- Node15 -->
<g id="Node000015" class="node">
<title>Node15</title>
<g id="a_Node000015"><a xlink:href="classprecice_1_1utils_1_1ManageUniqueIDs.html" target="_top" xlink:title="Manages a set of unique IDs.">
<polygon fill="white" stroke="#666666" points="895,-19 721,-19 721,0 895,0 895,-19"/>
<text text-anchor="middle" x="808" y="-7" font-family="Helvetica,sans-Serif" font-size="10.00">precice::utils::ManageUniqueIDs</text>
</a>
</g>
</g>
<!-- Node15&#45;&gt;Node1 -->
<g id="edge17_Node000001_Node000015" class="edge">
<title>Node15&#45;&gt;Node1</title>
<g id="a_edge17_Node000001_Node000015"><a xlink:title=" ">
<path fill="none" stroke="#9a32cd" stroke-dasharray="5,2" d="M905.32,-1.31C942.31,-2.26 983.62,-8.61 1017,-27.5 1075.39,-60.54 1110.66,-139.64 1121.45,-167"/>
<polygon fill="#9a32cd" stroke="#9a32cd" points="905.05,2.19 895.01,-1.18 904.96,-4.81 905.05,2.19"/>
</a>
</g>
<text text-anchor="start" x="929.5" y="-48.5" font-family="Helvetica,sans-Serif" font-size="10.00" fill="grey">_dataIDManager</text>
<text text-anchor="start" x="929.5" y="-33.5" font-family="Helvetica,sans-Serif" font-size="10.00" fill="grey">_meshIdManager</text>
</g>
</g>
</svg>

<g id="navigator" transform="translate(0 0)" fill="#404254">
  <rect fill="#f2f5e9" fill-opacity="0.5" stroke="#606060" stroke-width=".5" x="0" y="0" width="60" height="60"/>
  <use id="zoomplus" xlink:href="#zoomPlus" x="17" y="9" onmousedown="handleZoom(evt,'in')"/>
  <use id="zoomminus" xlink:href="#zoomMin" x="42" y="9" onmousedown="handleZoom(evt,'out')"/>
  <use id="reset" xlink:href="#resetDef" x="30" y="36" onmousedown="handleReset()"/>
   <use id="arrowup" xlink:href="#arrowUp" x="0" y="0" onmousedown="handlePan(0,-1)"/>
  <use id="arrowright" xlink:href="#arrowRight" x="0" y="0" onmousedown="handlePan(1,0)"/>
  <use id="arrowdown" xlink:href="#arrowDown" x="0" y="0" onmousedown="handlePan(0,1)"/>
  <use id="arrowleft" xlink:href="#arrowLeft" x="0" y="0" onmousedown="handlePan(-1,0)"/>
</g>
<svg viewBox="0 0 15 15" width="100%" height="30px" preserveAspectRatio="xMaxYMin meet">
 <g id="arrow_out" transform="scale(0.3 0.3)">
  <a xlink:href="classprecice_1_1mesh_1_1MeshConfiguration__coll__graph_org.svg" target="_base">
   <rect id="button" ry="5" rx="5" y="6" x="6" height="38" width="38"
        fill="#f2f5e9" fill-opacity="0.5" stroke="#606060" stroke-width="1.0"/>
   <path id="arrow"
     d="M 11.500037,31.436501 C 11.940474,20.09759 22.043105,11.32322 32.158766,21.979434 L 37.068811,17.246167 C 37.068811,17.246167 37.088388,32 37.088388,32 L 22.160133,31.978069 C 22.160133,31.978069 26.997745,27.140456 26.997745,27.140456 C 18.528582,18.264221 13.291696,25.230495 11.500037,31.436501 z"
     style="fill:#404040;"/>
  </a>
 </g>
</svg>

<style type='text/css'>
<![CDATA[
[data-mouse-over-selected='false'] { opacity: 0.7; }
[data-mouse-over-selected='true']  { opacity: 1.0; }
]]>
</style>
<script type="application/ecmascript"><![CDATA[
document.addEventListener('DOMContentLoaded', (event) => {
  highlightEdges();
  highlightAdjacentNodes();
});
]]></script>
</svg>
