<?xml version="1.0" encoding="UTF-8" standalone="no"?>
<!DOCTYPE svg PUBLIC "-//W3C//DTD SVG 1.1//EN"
 "http://www.w3.org/Graphics/SVG/1.1/DTD/svg11.dtd">
<!-- Generated by graphviz version 2.43.0 (0)
 -->
<!-- Title: precice::mesh::Edge Pages: 1 -->
<svg width="139pt" height="254pt"
 viewBox="0.00 0.00 139.00 254.00" xmlns="http://www.w3.org/2000/svg" xmlns:xlink="http://www.w3.org/1999/xlink">
<g id="graph0" class="graph" transform="scale(1 1) rotate(0) translate(4 250)">
<title>precice::mesh::Edge</title>
<!-- Node1 -->
<g id="Node000001" class="node">
<title>Node1</title>
<g id="a_Node000001"><a xlink:title="Linear edge of a mesh, defined by two Vertex objects.">
<polygon fill="#999999" stroke="#666666" points="123,-19 8,-19 8,0 123,0 123,-19"/>
<text text-anchor="middle" x="65.5" y="-7" font-family="Helvetica,sans-Serif" font-size="10.00">precice::mesh::Edge</text>
</a>
</g>
</g>
<!-- Node2 -->
<g id="Node000002" class="node">
<title>Node2</title>
<g id="a_Node000002"><a target="_parent" xlink:href="http://en.cppreference.com/w/cpp/container/array.html" xlink:title=" ">
<polygon fill="white" stroke="#666666" points="125,-102 6,-102 6,-72 125,-72 125,-102"/>
<text text-anchor="start" x="14" y="-90" font-family="Helvetica,sans-Serif" font-size="10.00">std::array&lt; precice</text>
<text text-anchor="middle" x="65.5" y="-79" font-family="Helvetica,sans-Serif" font-size="10.00">::mesh::Vertex *, 2 &gt;</text>
</a>
</g>
</g>
<!-- Node2&#45;&gt;Node1 -->
<g id="edge1_Node000001_Node000002" class="edge">
<title>Node2&#45;&gt;Node1</title>
<g id="a_edge1_Node000001_Node000002"><a xlink:title=" ">
<path fill="none" stroke="#9a32cd" stroke-dasharray="5,2" d="M65.5,-61.4C65.5,-46.81 65.5,-29.22 65.5,-19.01"/>
<polygon fill="#9a32cd" stroke="#9a32cd" points="62,-61.8 65.5,-71.8 69,-61.8 62,-61.8"/>
</a>
</g>
<text text-anchor="start" x="69" y="-42.5" font-family="Helvetica,sans-Serif" font-size="10.00" fill="grey">_vertices</text>
</g>
<!-- Node3 -->
<g id="Node000003" class="node">
<title>Node3</title>
<g id="a_Node000003"><a xlink:href="classprecice_1_1mesh_1_1Vertex.html" target="_top" xlink:title="Vertex of a mesh.">
<polygon fill="white" stroke="#666666" points="126.5,-174 4.5,-174 4.5,-155 126.5,-155 126.5,-174"/>
<text text-anchor="middle" x="65.5" y="-162" font-family="Helvetica,sans-Serif" font-size="10.00">precice::mesh::Vertex</text>
</a>
</g>
</g>
<!-- Node3&#45;&gt;Node2 -->
<g id="edge2_Node000002_Node000003" class="edge">
<title>Node3&#45;&gt;Node2</title>
<g id="a_edge2_Node000002_Node000003"><a xlink:title=" ">
<path fill="none" stroke="#9a32cd" stroke-dasharray="5,2" d="M65.5,-144.57C65.5,-131.43 65.5,-114.18 65.5,-102.21"/>
<polygon fill="#9a32cd" stroke="#9a32cd" points="62,-144.84 65.5,-154.84 69,-144.84 62,-144.84"/>
</a>
</g>
<text text-anchor="start" x="68.5" y="-125.5" font-family="Helvetica,sans-Serif" font-size="10.00" fill="grey">elements</text>
</g>
<!-- Node4 -->
<g id="Node000004" class="node">
<title>Node4</title>
<g id="a_Node000004"><a target="_parent" xlink:href="http://en.cppreference.com/w/cpp/container/array.html" xlink:title=" ">
<polygon fill="white" stroke="#666666" points="131,-246 0,-246 0,-227 131,-227 131,-246"/>
<text text-anchor="middle" x="65.5" y="-234" font-family="Helvetica,sans-Serif" font-size="10.00">std::array&lt; double, 3 &gt;</text>
</a>
</g>
</g>
<!-- Node4&#45;&gt;Node3 -->
<g id="edge3_Node000003_Node000004" class="edge">
<title>Node4&#45;&gt;Node3</title>
<g id="a_edge3_Node000003_Node000004"><a xlink:title=" ">
<path fill="none" stroke="#9a32cd" stroke-dasharray="5,2" d="M65.5,-216.58C65.5,-202.76 65.5,-184.68 65.5,-174.15"/>
<polygon fill="#9a32cd" stroke="#9a32cd" points="62,-216.92 65.5,-226.92 69,-216.92 62,-216.92"/>
</a>
</g>
<text text-anchor="start" x="68.5" y="-197.5" font-family="Helvetica,sans-Serif" font-size="10.00" fill="grey">_coords</text>
</g>
</g>
</svg>
