<?xml version="1.0" encoding="UTF-8" standalone="no"?>
<!DOCTYPE svg PUBLIC "-//W3C//DTD SVG 1.1//EN"
 "http://www.w3.org/Graphics/SVG/1.1/DTD/svg11.dtd">
<!-- Generated by graphviz version 2.43.0 (0)
 -->
<!-- Title: precice::cplscheme::BiCouplingScheme Pages: 1 -->
<svg width="2649pt" height="640pt"
 viewBox="0.00 0.00 2649.00 640.00" xmlns="http://www.w3.org/2000/svg" xmlns:xlink="http://www.w3.org/1999/xlink">
<g id="graph0" class="graph" transform="scale(1 1) rotate(0) translate(4 636)">
<title>precice::cplscheme::BiCouplingScheme</title>
<polygon fill="white" stroke="transparent" points="-4,4 -4,-636 2645,-636 2645,4 -4,4"/>
<!-- Node1 -->
<g id="node1" class="node">
<title>Node1</title>
<g id="a_node1"><a xlink:title="Abstract base class for coupling schemes with two participants.">
<polygon fill="#bfbfbf" stroke="black" points="2527,-183 2527,-213 2641,-213 2641,-183 2527,-183"/>
<text text-anchor="start" x="2535" y="-201" font-family="Helvetica,sans-Serif" font-size="10.00">precice::cplscheme</text>
<text text-anchor="middle" x="2584" y="-190" font-family="Helvetica,sans-Serif" font-size="10.00">::BiCouplingScheme</text>
</a>
</g>
</g>
<!-- Node2 -->
<g id="node2" class="node">
<title>Node2</title>
<g id="a_node2"><a xlink:href="classprecice_1_1cplscheme_1_1BaseCouplingScheme.html" target="_top" xlink:title="Abstract base class for standard coupling schemes.">
<polygon fill="white" stroke="black" points="2329,-341 2329,-371 2457,-371 2457,-341 2329,-341"/>
<text text-anchor="start" x="2337" y="-359" font-family="Helvetica,sans-Serif" font-size="10.00">precice::cplscheme</text>
<text text-anchor="middle" x="2393" y="-348" font-family="Helvetica,sans-Serif" font-size="10.00">::BaseCouplingScheme</text>
</a>
</g>
</g>
<!-- Node2&#45;&gt;Node1 -->
<g id="edge1" class="edge">
<title>Node2&#45;&gt;Node1</title>
<path fill="none" stroke="midnightblue" d="M2419.88,-334.36C2458.76,-301.86 2531.25,-241.26 2564.93,-213.1"/>
<polygon fill="midnightblue" stroke="midnightblue" points="2417.55,-331.75 2412.12,-340.85 2422.04,-337.12 2417.55,-331.75"/>
</g>
<!-- Node3 -->
<g id="node3" class="node">
<title>Node3</title>
<g id="a_node3"><a xlink:href="classprecice_1_1cplscheme_1_1CouplingScheme.html" target="_top" xlink:title="Interface for all coupling schemes.">
<polygon fill="white" stroke="black" points="2023.5,-363 2023.5,-393 2133.5,-393 2133.5,-363 2023.5,-363"/>
<text text-anchor="start" x="2031.5" y="-381" font-family="Helvetica,sans-Serif" font-size="10.00">precice::cplscheme</text>
<text text-anchor="middle" x="2078.5" y="-370" font-family="Helvetica,sans-Serif" font-size="10.00">::CouplingScheme</text>
</a>
</g>
</g>
<!-- Node3&#45;&gt;Node2 -->
<g id="edge2" class="edge">
<title>Node3&#45;&gt;Node2</title>
<path fill="none" stroke="midnightblue" d="M2143.76,-373.48C2197.94,-369.66 2275.05,-364.23 2328.91,-360.44"/>
<polygon fill="midnightblue" stroke="midnightblue" points="2143.31,-370 2133.58,-374.19 2143.8,-376.98 2143.31,-370"/>
</g>
<!-- Node4 -->
<g id="node4" class="node">
<title>Node4</title>
<g id="a_node4"><a xlink:title=" ">
<polygon fill="white" stroke="#bfbfbf" points="1985,-226.5 1985,-267.5 2172,-267.5 2172,-226.5 1985,-226.5"/>
<text text-anchor="start" x="1993" y="-255.5" font-family="Helvetica,sans-Serif" font-size="10.00">std::vector&lt; precice</text>
<text text-anchor="start" x="1993" y="-244.5" font-family="Helvetica,sans-Serif" font-size="10.00">::cplscheme::BaseCouplingScheme</text>
<text text-anchor="middle" x="2078.5" y="-233.5" font-family="Helvetica,sans-Serif" font-size="10.00">::ConvergenceMeasureContext &gt;</text>
</a>
</g>
</g>
<!-- Node4&#45;&gt;Node2 -->
<g id="edge3" class="edge">
<title>Node4&#45;&gt;Node2</title>
<path fill="none" stroke="#9a32cd" stroke-dasharray="5,2" d="M2182.37,-247.03C2223.1,-250.42 2269.34,-258.67 2308,-277 2339.12,-291.75 2366.34,-322.34 2380.85,-340.83"/>
<polygon fill="#9a32cd" stroke="#9a32cd" points="2182.37,-243.52 2172.14,-246.27 2181.85,-250.5 2182.37,-243.52"/>
<text text-anchor="middle" x="2249" y="-280" font-family="Helvetica,sans-Serif" font-size="10.00"> _convergenceMeasures</text>
</g>
<!-- Node5 -->
<g id="node5" class="node">
<title>Node5</title>
<g id="a_node5"><a xlink:href="structprecice_1_1cplscheme_1_1BaseCouplingScheme_1_1ConvergenceMeasureContext.html" target="_top" xlink:title="Holds meta information to perform a convergence measurement.">
<polygon fill="white" stroke="black" points="1625,-242.5 1625,-283.5 1792,-283.5 1792,-242.5 1625,-242.5"/>
<text text-anchor="start" x="1633" y="-271.5" font-family="Helvetica,sans-Serif" font-size="10.00">precice::cplscheme</text>
<text text-anchor="start" x="1633" y="-260.5" font-family="Helvetica,sans-Serif" font-size="10.00">::BaseCouplingScheme</text>
<text text-anchor="middle" x="1708.5" y="-249.5" font-family="Helvetica,sans-Serif" font-size="10.00">::ConvergenceMeasureContext</text>
</a>
</g>
</g>
<!-- Node5&#45;&gt;Node4 -->
<g id="edge4" class="edge">
<title>Node5&#45;&gt;Node4</title>
<path fill="none" stroke="#9a32cd" stroke-dasharray="5,2" d="M1802.33,-258.96C1858.18,-256.54 1929.02,-253.46 1984.83,-251.03"/>
<polygon fill="#9a32cd" stroke="#9a32cd" points="1801.92,-255.48 1792.09,-259.41 1802.23,-262.47 1801.92,-255.48"/>
<text text-anchor="middle" x="1894" y="-261" font-family="Helvetica,sans-Serif" font-size="10.00"> elements</text>
</g>
<!-- Node6 -->
<g id="node6" class="node">
<title>Node6</title>
<g id="a_node6"><a xlink:title=" ">
<polygon fill="white" stroke="#bfbfbf" points="1330,-267 1330,-297 1494,-297 1494,-267 1330,-267"/>
<text text-anchor="start" x="1338" y="-285" font-family="Helvetica,sans-Serif" font-size="10.00">std::shared_ptr&lt; Convergence</text>
<text text-anchor="middle" x="1412" y="-274" font-family="Helvetica,sans-Serif" font-size="10.00">Measure &gt;</text>
</a>
</g>
</g>
<!-- Node6&#45;&gt;Node5 -->
<g id="edge5" class="edge">
<title>Node6&#45;&gt;Node5</title>
<path fill="none" stroke="#9a32cd" stroke-dasharray="5,2" d="M1504.43,-276.1C1542.95,-273.62 1587.46,-270.74 1624.98,-268.32"/>
<polygon fill="#9a32cd" stroke="#9a32cd" points="1504.01,-272.62 1494.25,-276.76 1504.46,-279.61 1504.01,-272.62"/>
<text text-anchor="middle" x="1554" y="-278" font-family="Helvetica,sans-Serif" font-size="10.00"> measure</text>
</g>
<!-- Node7 -->
<g id="node7" class="node">
<title>Node7</title>
<g id="a_node7"><a xlink:title=" ">
<polygon fill="white" stroke="#bfbfbf" points="1340.5,-218 1340.5,-248 1483.5,-248 1483.5,-218 1340.5,-218"/>
<text text-anchor="start" x="1348.5" y="-236" font-family="Helvetica,sans-Serif" font-size="10.00">std::shared_ptr&lt; Coupling</text>
<text text-anchor="middle" x="1412" y="-225" font-family="Helvetica,sans-Serif" font-size="10.00">Data &gt;</text>
</a>
</g>
</g>
<!-- Node7&#45;&gt;Node5 -->
<g id="edge6" class="edge">
<title>Node7&#45;&gt;Node5</title>
<path fill="none" stroke="#9a32cd" stroke-dasharray="5,2" d="M1493.7,-241.22C1534.42,-245.37 1583.73,-250.39 1624.74,-254.57"/>
<polygon fill="#9a32cd" stroke="#9a32cd" points="1493.84,-237.72 1483.54,-240.19 1493.13,-244.68 1493.84,-237.72"/>
<text text-anchor="middle" x="1554" y="-255" font-family="Helvetica,sans-Serif" font-size="10.00"> couplingData</text>
</g>
<!-- Node8 -->
<g id="node8" class="node">
<title>Node8</title>
<g id="a_node8"><a xlink:href="classprecice_1_1cplscheme_1_1CouplingData.html" target="_top" xlink:title=" ">
<polygon fill="white" stroke="black" points="1041.5,-218 1041.5,-248 1151.5,-248 1151.5,-218 1041.5,-218"/>
<text text-anchor="start" x="1049.5" y="-236" font-family="Helvetica,sans-Serif" font-size="10.00">precice::cplscheme</text>
<text text-anchor="middle" x="1096.5" y="-225" font-family="Helvetica,sans-Serif" font-size="10.00">::CouplingData</text>
</a>
</g>
</g>
<!-- Node8&#45;&gt;Node7 -->
<g id="edge7" class="edge">
<title>Node8&#45;&gt;Node7</title>
<path fill="none" stroke="#9a32cd" stroke-dasharray="5,2" d="M1161.85,-233C1213.79,-233 1286.8,-233 1340.36,-233"/>
<polygon fill="#9a32cd" stroke="#9a32cd" points="1161.75,-229.5 1151.75,-233 1161.75,-236.5 1161.75,-229.5"/>
<text text-anchor="middle" x="1250" y="-236" font-family="Helvetica,sans-Serif" font-size="10.00"> ptr</text>
</g>
<!-- Node9 -->
<g id="node9" class="node">
<title>Node9</title>
<g id="a_node9"><a xlink:title=" ">
<polygon fill="white" stroke="#bfbfbf" points="776.5,-261.5 776.5,-280.5 911.5,-280.5 911.5,-261.5 776.5,-261.5"/>
<text text-anchor="middle" x="844" y="-268.5" font-family="Helvetica,sans-Serif" font-size="10.00">std::shared_ptr&lt; Data &gt;</text>
</a>
</g>
</g>
<!-- Node9&#45;&gt;Node8 -->
<g id="edge8" class="edge">
<title>Node9&#45;&gt;Node8</title>
<path fill="none" stroke="#9a32cd" stroke-dasharray="5,2" d="M921.57,-260.33C948.01,-256.56 977.83,-252.2 1005,-248 1016.8,-246.17 1029.46,-244.13 1041.45,-242.15"/>
<polygon fill="#9a32cd" stroke="#9a32cd" points="921.01,-256.88 911.61,-261.75 922,-263.81 921.01,-256.88"/>
<text text-anchor="middle" x="968" y="-262" font-family="Helvetica,sans-Serif" font-size="10.00"> _data</text>
</g>
<!-- Node10 -->
<g id="node10" class="node">
<title>Node10</title>
<g id="a_node10"><a xlink:title=" ">
<polygon fill="white" stroke="#bfbfbf" points="775,-223.5 775,-242.5 913,-242.5 913,-223.5 775,-223.5"/>
<text text-anchor="middle" x="844" y="-230.5" font-family="Helvetica,sans-Serif" font-size="10.00">std::shared_ptr&lt; Mesh &gt;</text>
</a>
</g>
</g>
<!-- Node10&#45;&gt;Node8 -->
<g id="edge9" class="edge">
<title>Node10&#45;&gt;Node8</title>
<path fill="none" stroke="#9a32cd" stroke-dasharray="5,2" d="M923.22,-233C961.56,-233 1006.79,-233 1041.27,-233"/>
<polygon fill="#9a32cd" stroke="#9a32cd" points="923.12,-229.5 913.12,-233 923.12,-236.5 923.12,-229.5"/>
<text text-anchor="middle" x="968" y="-236" font-family="Helvetica,sans-Serif" font-size="10.00"> _mesh</text>
</g>
<!-- Node11 -->
<g id="node11" class="node">
<title>Node11</title>
<g id="a_node11"><a xlink:href="classprecice_1_1cplscheme_1_1impl_1_1Extrapolation.html" target="_top" xlink:title=" ">
<polygon fill="white" stroke="black" points="786,-174 786,-204 902,-204 902,-174 786,-174"/>
<text text-anchor="start" x="794" y="-192" font-family="Helvetica,sans-Serif" font-size="10.00">precice::cplscheme</text>
<text text-anchor="middle" x="844" y="-181" font-family="Helvetica,sans-Serif" font-size="10.00">::impl::Extrapolation</text>
</a>
</g>
</g>
<!-- Node11&#45;&gt;Node8 -->
<g id="edge10" class="edge">
<title>Node11&#45;&gt;Node8</title>
<path fill="none" stroke="#9a32cd" stroke-dasharray="5,2" d="M912.19,-200.8C952.58,-207.9 1003.32,-216.81 1041.17,-223.46"/>
<polygon fill="#9a32cd" stroke="#9a32cd" points="912.61,-197.32 902.16,-199.04 911.4,-204.22 912.61,-197.32"/>
<text text-anchor="middle" x="968" y="-220" font-family="Helvetica,sans-Serif" font-size="10.00"> _extrapolation</text>
</g>
<!-- Node12 -->
<g id="node12" class="node">
<title>Node12</title>
<g id="a_node12"><a xlink:href="classprecice_1_1logging_1_1Logger.html" target="_top" xlink:title="This class provides a lightweight logger.">
<polygon fill="white" stroke="black" points="582,-179.5 582,-198.5 715,-198.5 715,-179.5 582,-179.5"/>
<text text-anchor="middle" x="648.5" y="-186.5" font-family="Helvetica,sans-Serif" font-size="10.00">precice::logging::Logger</text>
</a>
</g>
</g>
<!-- Node12&#45;&gt;Node1 -->
<g id="edge32" class="edge">
<title>Node12&#45;&gt;Node1</title>
<path fill="none" stroke="#9a32cd" stroke-dasharray="5,2" d="M657.73,-170.11C679.99,-122.25 746.31,0 843,0 843,0 843,0 2394,0 2494.98,0 2558.55,-136.43 2577.23,-182.79"/>
<polygon fill="#9a32cd" stroke="#9a32cd" points="654.47,-168.81 653.54,-179.37 660.85,-171.7 654.47,-168.81"/>
<text text-anchor="middle" x="1554" y="-3" font-family="Helvetica,sans-Serif" font-size="10.00"> _log</text>
</g>
<!-- Node12&#45;&gt;Node2 -->
<g id="edge18" class="edge">
<title>Node12&#45;&gt;Node2</title>
<path fill="none" stroke="#9a32cd" stroke-dasharray="5,2" d="M664.08,-206.08C685.58,-229.86 728.3,-272.04 775,-290 936.63,-352.15 1379.83,-334 1553,-334 1553,-334 1553,-334 2079.5,-334 2166.11,-334 2265.9,-342.51 2328.95,-348.95"/>
<polygon fill="#9a32cd" stroke="#9a32cd" points="666.64,-203.68 657.39,-198.5 661.39,-208.31 666.64,-203.68"/>
<text text-anchor="middle" x="1412" y="-339" font-family="Helvetica,sans-Serif" font-size="10.00"> _log</text>
</g>
<!-- Node12&#45;&gt;Node11 -->
<g id="edge11" class="edge">
<title>Node12&#45;&gt;Node11</title>
<path fill="none" stroke="#9a32cd" stroke-dasharray="5,2" d="M725.14,-189C745.38,-189 766.92,-189 785.97,-189"/>
<polygon fill="#9a32cd" stroke="#9a32cd" points="725.01,-185.5 715.01,-189 725.01,-192.5 725.01,-185.5"/>
<text text-anchor="middle" x="745" y="-192" font-family="Helvetica,sans-Serif" font-size="10.00"> _log</text>
</g>
<!-- Node20 -->
<g id="node20" class="node">
<title>Node20</title>
<g id="a_node20"><a xlink:href="classprecice_1_1io_1_1TXTTableWriter.html" target="_top" xlink:title="File writer for table&#45;data in text&#45;format.">
<polygon fill="white" stroke="black" points="1635,-408.5 1635,-427.5 1782,-427.5 1782,-408.5 1635,-408.5"/>
<text text-anchor="middle" x="1708.5" y="-415.5" font-family="Helvetica,sans-Serif" font-size="10.00">precice::io::TXTTableWriter</text>
</a>
</g>
</g>
<!-- Node12&#45;&gt;Node20 -->
<g id="edge24" class="edge">
<title>Node12&#45;&gt;Node20</title>
<path fill="none" stroke="#9a32cd" stroke-dasharray="5,2" d="M654.62,-208.47C664.29,-241.38 688.37,-307.92 733,-344 772.59,-376.01 792.08,-376 843,-376 843,-376 843,-376 1413,-376 1504.41,-376 1610.2,-396.08 1666.79,-408.47"/>
<polygon fill="#9a32cd" stroke="#9a32cd" points="657.95,-207.38 651.89,-198.69 651.21,-209.27 657.95,-207.38"/>
<text text-anchor="middle" x="1096.5" y="-379" font-family="Helvetica,sans-Serif" font-size="10.00"> _log</text>
</g>
<!-- Node33 -->
<g id="node33" class="node">
<title>Node33</title>
<g id="a_node33"><a xlink:href="classprecice_1_1m2n_1_1M2N.html" target="_top" xlink:title="M2N communication class. This layer is necessary since communication between two participants can be ...">
<polygon fill="white" stroke="black" points="2024.5,-116.5 2024.5,-135.5 2132.5,-135.5 2132.5,-116.5 2024.5,-116.5"/>
<text text-anchor="middle" x="2078.5" y="-123.5" font-family="Helvetica,sans-Serif" font-size="10.00">precice::m2n::M2N</text>
</a>
</g>
</g>
<!-- Node12&#45;&gt;Node33 -->
<g id="edge43" class="edge">
<title>Node12&#45;&gt;Node33</title>
<path fill="none" stroke="#9a32cd" stroke-dasharray="5,2" d="M661.01,-170.47C687.63,-130.13 757.79,-38 843,-38 843,-38 843,-38 1709.5,-38 1843.18,-38 1996.87,-93.61 2054.28,-116.41"/>
<polygon fill="#9a32cd" stroke="#9a32cd" points="657.92,-168.79 655.45,-179.09 663.81,-172.58 657.92,-168.79"/>
<text text-anchor="middle" x="1250" y="-41" font-family="Helvetica,sans-Serif" font-size="10.00"> _log</text>
</g>
<!-- Node13 -->
<g id="node13" class="node">
<title>Node13</title>
<g id="a_node13"><a xlink:title=" ">
<polygon fill="white" stroke="#bfbfbf" points="345,-174 345,-204 515,-204 515,-174 345,-174"/>
<text text-anchor="start" x="353" y="-192" font-family="Helvetica,sans-Serif" font-size="10.00">std::unique_ptr&lt; precice</text>
<text text-anchor="middle" x="430" y="-181" font-family="Helvetica,sans-Serif" font-size="10.00">::logging::Logger::LoggerImpl &gt;</text>
</a>
</g>
</g>
<!-- Node13&#45;&gt;Node12 -->
<g id="edge12" class="edge">
<title>Node13&#45;&gt;Node12</title>
<path fill="none" stroke="#9a32cd" stroke-dasharray="5,2" d="M525.26,-189C544.39,-189 564.12,-189 581.99,-189"/>
<polygon fill="#9a32cd" stroke="#9a32cd" points="525.01,-185.5 515.01,-189 525.01,-192.5 525.01,-185.5"/>
<text text-anchor="middle" x="548.5" y="-192" font-family="Helvetica,sans-Serif" font-size="10.00"> _impl</text>
</g>
<!-- Node14 -->
<g id="node14" class="node">
<title>Node14</title>
<g id="a_node14"><a xlink:href="classprecice_1_1logging_1_1Logger_1_1LoggerImpl.html" target="_top" xlink:title=" ">
<polygon fill="white" stroke="black" points="159,-174 159,-204 292,-204 292,-174 159,-174"/>
<text text-anchor="start" x="167" y="-192" font-family="Helvetica,sans-Serif" font-size="10.00">precice::logging::Logger</text>
<text text-anchor="middle" x="225.5" y="-181" font-family="Helvetica,sans-Serif" font-size="10.00">::LoggerImpl</text>
</a>
</g>
</g>
<!-- Node14&#45;&gt;Node13 -->
<g id="edge13" class="edge">
<title>Node14&#45;&gt;Node13</title>
<path fill="none" stroke="#9a32cd" stroke-dasharray="5,2" d="M302.62,-189C316.37,-189 330.78,-189 344.75,-189"/>
<polygon fill="#9a32cd" stroke="#9a32cd" points="302.25,-185.5 292.25,-189 302.25,-192.5 302.25,-185.5"/>
<text text-anchor="middle" x="318.5" y="-192" font-family="Helvetica,sans-Serif" font-size="10.00"> ptr</text>
</g>
<!-- Node15 -->
<g id="node15" class="node">
<title>Node15</title>
<g id="a_node15"><a xlink:title=" ">
<polygon fill="white" stroke="#bfbfbf" points="0,-174 0,-204 122,-204 122,-174 0,-174"/>
<text text-anchor="start" x="8" y="-192" font-family="Helvetica,sans-Serif" font-size="10.00">BoostLogger&lt; Logger</text>
<text text-anchor="middle" x="61" y="-181" font-family="Helvetica,sans-Serif" font-size="10.00">::LoggerImpl &gt;</text>
</a>
</g>
</g>
<!-- Node15&#45;&gt;Node14 -->
<g id="edge14" class="edge">
<title>Node15&#45;&gt;Node14</title>
<path fill="none" stroke="midnightblue" d="M132.33,-189C141.17,-189 150.19,-189 158.96,-189"/>
<polygon fill="midnightblue" stroke="midnightblue" points="132.05,-185.5 122.05,-189 132.05,-192.5 132.05,-185.5"/>
</g>
<!-- Node16 -->
<g id="node16" class="node">
<title>Node16</title>
<g id="a_node16"><a xlink:title=" ">
<polygon fill="white" stroke="#bfbfbf" points="1188,-542.5 1188,-561.5 1312,-561.5 1312,-542.5 1188,-542.5"/>
<text text-anchor="middle" x="1250" y="-549.5" font-family="Helvetica,sans-Serif" font-size="10.00">std::set&lt; std::string &gt;</text>
</a>
</g>
</g>
<!-- Node16&#45;&gt;Node2 -->
<g id="edge15" class="edge">
<title>Node16&#45;&gt;Node2</title>
<path fill="none" stroke="#9a32cd" stroke-dasharray="5,2" d="M1322.34,-552C1383.54,-552 1474.07,-552 1553,-552 1553,-552 1553,-552 2079.5,-552 2182.05,-552 2224.44,-579.44 2308,-520 2360,-483.01 2381.97,-404.07 2389.13,-371.03"/>
<polygon fill="#9a32cd" stroke="#9a32cd" points="1322.02,-548.5 1312.02,-552 1322.02,-555.5 1322.02,-548.5"/>
<text text-anchor="middle" x="1708.5" y="-566" font-family="Helvetica,sans-Serif" font-size="10.00"> _fulfilledActions</text>
<text text-anchor="middle" x="1708.5" y="-555" font-family="Helvetica,sans-Serif" font-size="10.00">_requiredActions</text>
</g>
<!-- Node17 -->
<g id="node17" class="node">
<title>Node17</title>
<g id="a_node17"><a xlink:title="STL class.">
<polygon fill="white" stroke="#bfbfbf" points="811.5,-523.5 811.5,-542.5 876.5,-542.5 876.5,-523.5 811.5,-523.5"/>
<text text-anchor="middle" x="844" y="-530.5" font-family="Helvetica,sans-Serif" font-size="10.00">std::string</text>
</a>
</g>
</g>
<!-- Node17&#45;&gt;Node1 -->
<g id="edge33" class="edge">
<title>Node17&#45;&gt;Node1</title>
<path fill="none" stroke="#9a32cd" stroke-dasharray="5,2" d="M872.06,-547.17C917.12,-569.41 1010.94,-610 1095.5,-610 1095.5,-610 1095.5,-610 2394,-610 2572.24,-610 2583.03,-287.48 2583.15,-213.15"/>
<polygon fill="#9a32cd" stroke="#9a32cd" points="873.46,-543.96 862.96,-542.6 870.32,-550.21 873.46,-543.96"/>
<text text-anchor="middle" x="1708.5" y="-624" font-family="Helvetica,sans-Serif" font-size="10.00"> _firstParticipant</text>
<text text-anchor="middle" x="1708.5" y="-613" font-family="Helvetica,sans-Serif" font-size="10.00">_secondParticipant</text>
</g>
<!-- Node17&#45;&gt;Node2 -->
<g id="edge30" class="edge">
<title>Node17&#45;&gt;Node2</title>
<path fill="none" stroke="#9a32cd" stroke-dasharray="5,2" d="M887.13,-531.99C1051.87,-527.71 1668.13,-508.6 2172,-452 2232.85,-445.17 2252.64,-456.15 2308,-430 2337.52,-416.05 2364.47,-388.54 2379.51,-371.28"/>
<polygon fill="#9a32cd" stroke="#9a32cd" points="886.85,-528.49 876.94,-532.25 887.03,-535.49 886.85,-528.49"/>
<text text-anchor="middle" x="1554" y="-508" font-family="Helvetica,sans-Serif" font-size="10.00"> _localParticipant</text>
</g>
<!-- Node17&#45;&gt;Node16 -->
<g id="edge16" class="edge">
<title>Node17&#45;&gt;Node16</title>
<path fill="none" stroke="#9a32cd" stroke-dasharray="5,2" d="M886.69,-534.96C958.22,-538.32 1104.61,-545.21 1187.75,-549.12"/>
<polygon fill="#9a32cd" stroke="#9a32cd" points="886.85,-531.46 876.7,-534.49 886.53,-538.46 886.85,-531.46"/>
<text text-anchor="middle" x="968" y="-543" font-family="Helvetica,sans-Serif" font-size="10.00"> keys</text>
</g>
<!-- Node22 -->
<g id="node22" class="node">
<title>Node22</title>
<g id="a_node22"><a xlink:href="structprecice_1_1io_1_1TXTTableWriter_1_1Data.html" target="_top" xlink:title="Represents one data entry to be written.">
<polygon fill="white" stroke="black" points="1023,-455 1023,-485 1170,-485 1170,-455 1023,-455"/>
<text text-anchor="start" x="1031" y="-473" font-family="Helvetica,sans-Serif" font-size="10.00">precice::io::TXTTableWriter</text>
<text text-anchor="middle" x="1096.5" y="-462" font-family="Helvetica,sans-Serif" font-size="10.00">::Data</text>
</a>
</g>
</g>
<!-- Node17&#45;&gt;Node22 -->
<g id="edge23" class="edge">
<title>Node17&#45;&gt;Node22</title>
<path fill="none" stroke="#9a32cd" stroke-dasharray="5,2" d="M868.11,-518.29C884.89,-508.34 908.52,-495.81 931,-489 960.3,-480.13 993.7,-475.35 1022.7,-472.8"/>
<polygon fill="#9a32cd" stroke="#9a32cd" points="866.26,-515.31 859.53,-523.5 869.9,-521.3 866.26,-515.31"/>
<text text-anchor="middle" x="968" y="-492" font-family="Helvetica,sans-Serif" font-size="10.00"> name</text>
</g>
<!-- Node18 -->
<g id="node18" class="node">
<title>Node18</title>
<g id="a_node18"><a xlink:title="STL class.">
<polygon fill="white" stroke="#bfbfbf" points="596.5,-518 596.5,-548 700.5,-548 700.5,-518 596.5,-518"/>
<text text-anchor="start" x="604.5" y="-536" font-family="Helvetica,sans-Serif" font-size="10.00">std::basic_string&lt;</text>
<text text-anchor="middle" x="648.5" y="-525" font-family="Helvetica,sans-Serif" font-size="10.00"> char &gt;</text>
</a>
</g>
</g>
<!-- Node18&#45;&gt;Node17 -->
<g id="edge17" class="edge">
<title>Node18&#45;&gt;Node17</title>
<path fill="none" stroke="midnightblue" d="M710.74,-533C744.16,-533 784.16,-533 811.35,-533"/>
<polygon fill="midnightblue" stroke="midnightblue" points="710.59,-529.5 700.59,-533 710.59,-536.5 710.59,-529.5"/>
</g>
<!-- Node19 -->
<g id="node19" class="node">
<title>Node19</title>
<g id="a_node19"><a xlink:title=" ">
<polygon fill="white" stroke="#bfbfbf" points="2010.5,-412 2010.5,-442 2146.5,-442 2146.5,-412 2010.5,-412"/>
<text text-anchor="start" x="2018.5" y="-430" font-family="Helvetica,sans-Serif" font-size="10.00">std::shared_ptr&lt; precice</text>
<text text-anchor="middle" x="2078.5" y="-419" font-family="Helvetica,sans-Serif" font-size="10.00">::io::TXTTableWriter &gt;</text>
</a>
</g>
</g>
<!-- Node19&#45;&gt;Node2 -->
<g id="edge19" class="edge">
<title>Node19&#45;&gt;Node2</title>
<path fill="none" stroke="#9a32cd" stroke-dasharray="5,2" d="M2156.65,-412.64C2201.09,-403.99 2257.9,-392.29 2308,-380 2318.9,-377.33 2330.52,-374.19 2341.53,-371.09"/>
<polygon fill="#9a32cd" stroke="#9a32cd" points="2155.94,-409.21 2146.79,-414.54 2157.27,-416.08 2155.94,-409.21"/>
<text text-anchor="middle" x="2249" y="-418" font-family="Helvetica,sans-Serif" font-size="10.00"> _convergenceWriter</text>
<text text-anchor="middle" x="2249" y="-407" font-family="Helvetica,sans-Serif" font-size="10.00">_iterationsWriter</text>
</g>
<!-- Node20&#45;&gt;Node19 -->
<g id="edge20" class="edge">
<title>Node20&#45;&gt;Node19</title>
<path fill="none" stroke="#9a32cd" stroke-dasharray="5,2" d="M1792.54,-420.03C1858.29,-421.64 1948.95,-423.86 2010.22,-425.35"/>
<polygon fill="#9a32cd" stroke="#9a32cd" points="1792.29,-416.52 1782.2,-419.78 1792.12,-423.52 1792.29,-416.52"/>
<text text-anchor="middle" x="1894" y="-427" font-family="Helvetica,sans-Serif" font-size="10.00"> ptr</text>
</g>
<!-- Node21 -->
<g id="node21" class="node">
<title>Node21</title>
<g id="a_node21"><a xlink:title=" ">
<polygon fill="white" stroke="#bfbfbf" points="1354.5,-444.5 1354.5,-485.5 1469.5,-485.5 1469.5,-444.5 1354.5,-444.5"/>
<text text-anchor="start" x="1362.5" y="-473.5" font-family="Helvetica,sans-Serif" font-size="10.00">std::vector&lt; precice</text>
<text text-anchor="start" x="1362.5" y="-462.5" font-family="Helvetica,sans-Serif" font-size="10.00">::io::TXTTableWriter</text>
<text text-anchor="middle" x="1412" y="-451.5" font-family="Helvetica,sans-Serif" font-size="10.00">::Data &gt;</text>
</a>
</g>
</g>
<!-- Node21&#45;&gt;Node20 -->
<g id="edge21" class="edge">
<title>Node21&#45;&gt;Node20</title>
<path fill="none" stroke="#9a32cd" stroke-dasharray="5,2" d="M1479.96,-454.31C1530.49,-446.25 1599.2,-435.28 1647.86,-427.52"/>
<polygon fill="#9a32cd" stroke="#9a32cd" points="1479.11,-450.91 1469.78,-455.94 1480.21,-457.82 1479.11,-450.91"/>
<text text-anchor="middle" x="1554" y="-462" font-family="Helvetica,sans-Serif" font-size="10.00"> _writeIterator</text>
<text text-anchor="middle" x="1554" y="-451" font-family="Helvetica,sans-Serif" font-size="10.00">_data</text>
</g>
<!-- Node22&#45;&gt;Node21 -->
<g id="edge22" class="edge">
<title>Node22&#45;&gt;Node21</title>
<path fill="none" stroke="#9a32cd" stroke-dasharray="5,2" d="M1180.27,-468.68C1235.16,-467.8 1305.75,-466.68 1354.32,-465.9"/>
<polygon fill="#9a32cd" stroke="#9a32cd" points="1180.15,-465.18 1170.21,-468.84 1180.27,-472.18 1180.15,-465.18"/>
<text text-anchor="middle" x="1250" y="-471" font-family="Helvetica,sans-Serif" font-size="10.00"> elements</text>
</g>
<!-- Node23 -->
<g id="node23" class="node">
<title>Node23</title>
<g id="a_node23"><a xlink:title="STL class.">
<polygon fill="white" stroke="#bfbfbf" points="1371,-406.5 1371,-425.5 1453,-425.5 1453,-406.5 1371,-406.5"/>
<text text-anchor="middle" x="1412" y="-413.5" font-family="Helvetica,sans-Serif" font-size="10.00">std::ofstream</text>
</a>
</g>
</g>
<!-- Node23&#45;&gt;Node20 -->
<g id="edge25" class="edge">
<title>Node23&#45;&gt;Node20</title>
<path fill="none" stroke="#9a32cd" stroke-dasharray="5,2" d="M1463.31,-416.34C1510.52,-416.66 1581.65,-417.15 1634.99,-417.51"/>
<polygon fill="#9a32cd" stroke="#9a32cd" points="1463.05,-412.84 1453.02,-416.27 1463,-419.84 1463.05,-412.84"/>
<text text-anchor="middle" x="1554" y="-420" font-family="Helvetica,sans-Serif" font-size="10.00"> _outputStream</text>
</g>
<!-- Node24 -->
<g id="node24" class="node">
<title>Node24</title>
<g id="a_node24"><a xlink:title="STL class.">
<polygon fill="white" stroke="#bfbfbf" points="1040,-406 1040,-436 1153,-436 1153,-406 1040,-406"/>
<text text-anchor="start" x="1048" y="-424" font-family="Helvetica,sans-Serif" font-size="10.00">std::basic_ofstream</text>
<text text-anchor="middle" x="1096.5" y="-413" font-family="Helvetica,sans-Serif" font-size="10.00">&lt; char &gt;</text>
</a>
</g>
</g>
<!-- Node24&#45;&gt;Node23 -->
<g id="edge26" class="edge">
<title>Node24&#45;&gt;Node23</title>
<path fill="none" stroke="midnightblue" d="M1163.37,-419.95C1226.05,-418.95 1318.35,-417.48 1370.76,-416.64"/>
<polygon fill="midnightblue" stroke="midnightblue" points="1163.13,-416.45 1153.19,-420.11 1163.24,-423.45 1163.13,-416.45"/>
</g>
<!-- Node25 -->
<g id="node25" class="node">
<title>Node25</title>
<g id="a_node25"><a xlink:title="STL class.">
<polygon fill="white" stroke="#bfbfbf" points="789.5,-406 789.5,-436 898.5,-436 898.5,-406 789.5,-406"/>
<text text-anchor="start" x="797.5" y="-424" font-family="Helvetica,sans-Serif" font-size="10.00">std::basic_ostream</text>
<text text-anchor="middle" x="844" y="-413" font-family="Helvetica,sans-Serif" font-size="10.00">&lt; Char &gt;</text>
</a>
</g>
</g>
<!-- Node25&#45;&gt;Node24 -->
<g id="edge27" class="edge">
<title>Node25&#45;&gt;Node24</title>
<path fill="none" stroke="midnightblue" d="M908.75,-421C949.15,-421 1000.91,-421 1039.68,-421"/>
<polygon fill="midnightblue" stroke="midnightblue" points="908.74,-417.5 898.74,-421 908.74,-424.5 908.74,-417.5"/>
</g>
<!-- Node26 -->
<g id="node26" class="node">
<title>Node26</title>
<g id="a_node26"><a xlink:title="STL class.">
<polygon fill="white" stroke="#bfbfbf" points="584.5,-411.5 584.5,-430.5 712.5,-430.5 712.5,-411.5 584.5,-411.5"/>
<text text-anchor="middle" x="648.5" y="-418.5" font-family="Helvetica,sans-Serif" font-size="10.00">std::basic_ios&lt; Char &gt;</text>
</a>
</g>
</g>
<!-- Node26&#45;&gt;Node25 -->
<g id="edge28" class="edge">
<title>Node26&#45;&gt;Node25</title>
<path fill="none" stroke="midnightblue" d="M722.64,-421C744.82,-421 768.76,-421 789.4,-421"/>
<polygon fill="midnightblue" stroke="midnightblue" points="722.59,-417.5 712.59,-421 722.59,-424.5 722.59,-417.5"/>
</g>
<!-- Node27 -->
<g id="node27" class="node">
<title>Node27</title>
<g id="a_node27"><a xlink:title="STL class.">
<polygon fill="white" stroke="#bfbfbf" points="390,-411.5 390,-430.5 470,-430.5 470,-411.5 390,-411.5"/>
<text text-anchor="middle" x="430" y="-418.5" font-family="Helvetica,sans-Serif" font-size="10.00">std::ios_base</text>
</a>
</g>
</g>
<!-- Node27&#45;&gt;Node26 -->
<g id="edge29" class="edge">
<title>Node27&#45;&gt;Node26</title>
<path fill="none" stroke="midnightblue" d="M480.3,-421C511.15,-421 551.21,-421 584.38,-421"/>
<polygon fill="midnightblue" stroke="midnightblue" points="480.21,-417.5 470.21,-421 480.21,-424.5 480.21,-417.5"/>
</g>
<!-- Node28 -->
<g id="node28" class="node">
<title>Node28</title>
<g id="a_node28"><a xlink:title=" ">
<polygon fill="white" stroke="#bfbfbf" points="1992,-286.5 1992,-305.5 2165,-305.5 2165,-286.5 1992,-286.5"/>
<text text-anchor="middle" x="2078.5" y="-293.5" font-family="Helvetica,sans-Serif" font-size="10.00">std::shared_ptr&lt; Acceleration &gt;</text>
</a>
</g>
</g>
<!-- Node28&#45;&gt;Node2 -->
<g id="edge31" class="edge">
<title>Node28&#45;&gt;Node2</title>
<path fill="none" stroke="#9a32cd" stroke-dasharray="5,2" d="M2175.26,-291.91C2216.79,-292.56 2265.53,-296.63 2308,-309 2331.26,-315.78 2355.12,-329.96 2371.44,-340.98"/>
<polygon fill="#9a32cd" stroke="#9a32cd" points="2175.18,-288.41 2165.14,-291.82 2175.11,-295.41 2175.18,-288.41"/>
<text text-anchor="middle" x="2249" y="-312" font-family="Helvetica,sans-Serif" font-size="10.00"> _acceleration</text>
</g>
<!-- Node29 -->
<g id="node29" class="node">
<title>Node29</title>
<g id="a_node29"><a xlink:title=" ">
<polygon fill="white" stroke="#bfbfbf" points="1821,-193 1821,-223 1967,-223 1967,-193 1821,-193"/>
<text text-anchor="start" x="1829" y="-211" font-family="Helvetica,sans-Serif" font-size="10.00">std::map&lt; int, PtrCoupling</text>
<text text-anchor="middle" x="1894" y="-200" font-family="Helvetica,sans-Serif" font-size="10.00">Data &gt;</text>
</a>
</g>
</g>
<!-- Node29&#45;&gt;Node1 -->
<g id="edge34" class="edge">
<title>Node29&#45;&gt;Node1</title>
<path fill="none" stroke="#9a32cd" stroke-dasharray="5,2" d="M1977.37,-206.8C2119.11,-204.74 2405.57,-200.58 2526.79,-198.82"/>
<polygon fill="#9a32cd" stroke="#9a32cd" points="1976.95,-203.31 1967,-206.95 1977.05,-210.31 1976.95,-203.31"/>
<text text-anchor="middle" x="2249" y="-218" font-family="Helvetica,sans-Serif" font-size="10.00"> _receiveData</text>
<text text-anchor="middle" x="2249" y="-207" font-family="Helvetica,sans-Serif" font-size="10.00">_sendData</text>
</g>
<!-- Node30 -->
<g id="node30" class="node">
<title>Node30</title>
<g id="a_node30"><a xlink:title="STL class.">
<polygon fill="white" stroke="#bfbfbf" points="1353,-172.5 1353,-191.5 1471,-191.5 1471,-172.5 1353,-172.5"/>
<text text-anchor="middle" x="1412" y="-179.5" font-family="Helvetica,sans-Serif" font-size="10.00">std::shared_ptr&lt; T &gt;</text>
</a>
</g>
</g>
<!-- Node30&#45;&gt;Node29 -->
<g id="edge35" class="edge">
<title>Node30&#45;&gt;Node29</title>
<path fill="none" stroke="#9a32cd" stroke-dasharray="5,2" d="M1481.26,-189.42C1491.55,-190.39 1502.05,-191.29 1512,-192 1619.47,-199.68 1744.28,-204.06 1820.95,-206.23"/>
<polygon fill="#9a32cd" stroke="#9a32cd" points="1481.35,-185.92 1471.06,-188.44 1480.68,-192.88 1481.35,-185.92"/>
<text text-anchor="middle" x="1554" y="-201" font-family="Helvetica,sans-Serif" font-size="10.00"> elements</text>
</g>
<!-- Node36 -->
<g id="node36" class="node">
<title>Node36</title>
<g id="a_node36"><a xlink:title=" ">
<polygon fill="white" stroke="#bfbfbf" points="1619,-155 1619,-185 1798,-185 1798,-155 1619,-155"/>
<text text-anchor="start" x="1627" y="-173" font-family="Helvetica,sans-Serif" font-size="10.00">std::map&lt; int, Distributed</text>
<text text-anchor="middle" x="1708.5" y="-162" font-family="Helvetica,sans-Serif" font-size="10.00">Communication::SharedPointer &gt;</text>
</a>
</g>
</g>
<!-- Node30&#45;&gt;Node36 -->
<g id="edge42" class="edge">
<title>Node30&#45;&gt;Node36</title>
<path fill="none" stroke="#9a32cd" stroke-dasharray="5,2" d="M1481.34,-179.22C1522.31,-177.55 1574.84,-175.41 1618.97,-173.61"/>
<polygon fill="#9a32cd" stroke="#9a32cd" points="1481.03,-175.72 1471.18,-179.63 1481.32,-182.72 1481.03,-175.72"/>
<text text-anchor="middle" x="1554" y="-181" font-family="Helvetica,sans-Serif" font-size="10.00"> elements</text>
</g>
<!-- Node31 -->
<g id="node31" class="node">
<title>Node31</title>
<g id="a_node31"><a xlink:title=" ">
<polygon fill="white" stroke="#bfbfbf" points="1082,-172.5 1082,-191.5 1111,-191.5 1111,-172.5 1082,-172.5"/>
<text text-anchor="middle" x="1096.5" y="-179.5" font-family="Helvetica,sans-Serif" font-size="10.00">T</text>
</a>
</g>
</g>
<!-- Node31&#45;&gt;Node30 -->
<g id="edge36" class="edge">
<title>Node31&#45;&gt;Node30</title>
<path fill="none" stroke="#9a32cd" stroke-dasharray="5,2" d="M1121.64,-182C1170.72,-182 1283.4,-182 1352.77,-182"/>
<polygon fill="#9a32cd" stroke="#9a32cd" points="1121.38,-178.5 1111.38,-182 1121.38,-185.5 1121.38,-178.5"/>
<text text-anchor="middle" x="1250" y="-185" font-family="Helvetica,sans-Serif" font-size="10.00"> ptr</text>
</g>
<!-- Node32 -->
<g id="node32" class="node">
<title>Node32</title>
<g id="a_node32"><a xlink:title=" ">
<polygon fill="white" stroke="#bfbfbf" points="2326,-133.5 2326,-152.5 2460,-152.5 2460,-133.5 2326,-133.5"/>
<text text-anchor="middle" x="2393" y="-140.5" font-family="Helvetica,sans-Serif" font-size="10.00">std::shared_ptr&lt; M2N &gt;</text>
</a>
</g>
</g>
<!-- Node32&#45;&gt;Node1 -->
<g id="edge37" class="edge">
<title>Node32&#45;&gt;Node1</title>
<path fill="none" stroke="#9a32cd" stroke-dasharray="5,2" d="M2443.06,-154.98C2463.53,-160.2 2487.51,-166.58 2509,-173 2519.13,-176.03 2529.96,-179.53 2540.12,-182.94"/>
<polygon fill="#9a32cd" stroke="#9a32cd" points="2443.87,-151.58 2433.31,-152.52 2442.15,-158.37 2443.87,-151.58"/>
<text text-anchor="middle" x="2493.5" y="-176" font-family="Helvetica,sans-Serif" font-size="10.00"> _m2n</text>
</g>
<!-- Node33&#45;&gt;Node32 -->
<g id="edge38" class="edge">
<title>Node33&#45;&gt;Node32</title>
<path fill="none" stroke="#9a32cd" stroke-dasharray="5,2" d="M2142.51,-129.43C2195.78,-132.33 2271.83,-136.46 2325.94,-139.41"/>
<polygon fill="#9a32cd" stroke="#9a32cd" points="2142.69,-125.93 2132.51,-128.88 2142.31,-132.92 2142.69,-125.93"/>
<text text-anchor="middle" x="2249" y="-141" font-family="Helvetica,sans-Serif" font-size="10.00"> ptr</text>
</g>
<!-- Node34 -->
<g id="node34" class="node">
<title>Node34</title>
<g id="a_node34"><a xlink:title=" ">
<polygon fill="white" stroke="#bfbfbf" points="1631,-67 1631,-97 1786,-97 1786,-67 1631,-67"/>
<text text-anchor="start" x="1639" y="-85" font-family="Helvetica,sans-Serif" font-size="10.00">std::shared_ptr&lt; Distributed</text>
<text text-anchor="middle" x="1708.5" y="-74" font-family="Helvetica,sans-Serif" font-size="10.00">ComFactory &gt;</text>
</a>
</g>
</g>
<!-- Node34&#45;&gt;Node33 -->
<g id="edge39" class="edge">
<title>Node34&#45;&gt;Node33</title>
<path fill="none" stroke="#9a32cd" stroke-dasharray="5,2" d="M1796.29,-91.28C1846.25,-96.74 1910.2,-103.95 1967,-111 1985.73,-113.33 2006.22,-116.06 2024.42,-118.54"/>
<polygon fill="#9a32cd" stroke="#9a32cd" points="1796.49,-87.78 1786.17,-90.17 1795.73,-94.74 1796.49,-87.78"/>
<text text-anchor="middle" x="1894" y="-114" font-family="Helvetica,sans-Serif" font-size="10.00"> _distrFactory</text>
</g>
<!-- Node35 -->
<g id="node35" class="node">
<title>Node35</title>
<g id="a_node35"><a xlink:href="classprecice_1_1m2n_1_1DistributedComFactory.html" target="_top" xlink:title=" ">
<polygon fill="white" stroke="black" points="1342,-67 1342,-97 1482,-97 1482,-67 1342,-67"/>
<text text-anchor="start" x="1350" y="-85" font-family="Helvetica,sans-Serif" font-size="10.00">precice::m2n::Distributed</text>
<text text-anchor="middle" x="1412" y="-74" font-family="Helvetica,sans-Serif" font-size="10.00">ComFactory</text>
</a>
</g>
</g>
<!-- Node35&#45;&gt;Node34 -->
<g id="edge40" class="edge">
<title>Node35&#45;&gt;Node34</title>
<path fill="none" stroke="#9a32cd" stroke-dasharray="5,2" d="M1492.2,-82C1535.24,-82 1588.22,-82 1630.86,-82"/>
<polygon fill="#9a32cd" stroke="#9a32cd" points="1492.05,-78.5 1482.05,-82 1492.05,-85.5 1492.05,-78.5"/>
<text text-anchor="middle" x="1554" y="-85" font-family="Helvetica,sans-Serif" font-size="10.00"> ptr</text>
</g>
<!-- Node36&#45;&gt;Node33 -->
<g id="edge41" class="edge">
<title>Node36&#45;&gt;Node33</title>
<path fill="none" stroke="#9a32cd" stroke-dasharray="5,2" d="M1808.12,-159.43C1856.09,-154.15 1914.59,-147.51 1967,-141 1985.73,-138.67 2006.22,-135.94 2024.42,-133.46"/>
<polygon fill="#9a32cd" stroke="#9a32cd" points="1807.6,-155.96 1798.05,-160.53 1808.37,-162.92 1807.6,-155.96"/>
<text text-anchor="middle" x="1894" y="-161" font-family="Helvetica,sans-Serif" font-size="10.00"> _distComs</text>
</g>
<!-- Node37 -->
<g id="node37" class="node">
<title>Node37</title>
<g id="a_node37"><a xlink:title=" ">
<polygon fill="white" stroke="#bfbfbf" points="1614,-116.5 1614,-135.5 1803,-135.5 1803,-116.5 1614,-116.5"/>
<text text-anchor="middle" x="1708.5" y="-123.5" font-family="Helvetica,sans-Serif" font-size="10.00">std::shared_ptr&lt; Communication &gt;</text>
</a>
</g>
</g>
<!-- Node37&#45;&gt;Node33 -->
<g id="edge44" class="edge">
<title>Node37&#45;&gt;Node33</title>
<path fill="none" stroke="#9a32cd" stroke-dasharray="5,2" d="M1813.74,-126C1882.39,-126 1969.43,-126 2024.31,-126"/>
<polygon fill="#9a32cd" stroke="#9a32cd" points="1813.31,-122.5 1803.31,-126 1813.31,-129.5 1813.31,-122.5"/>
<text text-anchor="middle" x="1894" y="-129" font-family="Helvetica,sans-Serif" font-size="10.00"> _intraComm</text>
</g>
</g>
</svg>
