<?xml version="1.0" encoding="UTF-8" standalone="no"?>
<!DOCTYPE svg PUBLIC "-//W3C//DTD SVG 1.1//EN"
 "http://www.w3.org/Graphics/SVG/1.1/DTD/svg11.dtd">
<!-- Generated by graphviz version 2.43.0 (0)
 -->
<!-- Title: precice::time::Waveform::sample Pages: 1 -->
<!--zoomable 217 -->
<svg id="main" version="1.1" xmlns="http://www.w3.org/2000/svg" xmlns:xlink="http://www.w3.org/1999/xlink" xml:space="preserve" onload="init(evt)">
<style type="text/css"><![CDATA[
.edge:hover path { stroke: red; }
.edge:hover polygon { stroke: red; fill: red; }
]]></style>
<script type="text/javascript"><![CDATA[
var edges = document.getElementsByTagName('g');
if (edges && edges.length) {
  for (var i=0;i<edges.length;i++) {
    if (edges[i].id.substr(0,4)=='edge') {
      edges[i].setAttribute('class','edge');
    }
  }
}
]]></script>
        <defs>
                <circle id="rim" cx="0" cy="0" r="7"/>
                <circle id="rim2" cx="0" cy="0" r="3.5"/>
                <g id="zoomPlus">
                        <use xlink:href="#rim" fill="#404040">
                                <set attributeName="fill" to="#808080" begin="zoomplus.mouseover" end="zoomplus.mouseout"/>
                        </use>
                        <path d="M-4,0h8M0,-4v8" fill="none" stroke="white" stroke-width="1.5" pointer-events="none"/>
                </g>
                <g id="zoomMin">
                        <use xlink:href="#rim" fill="#404040">
                                <set attributeName="fill" to="#808080" begin="zoomminus.mouseover" end="zoomminus.mouseout"/>
                        </use>
                        <path d="M-4,0h8" fill="none" stroke="white" stroke-width="1.5" pointer-events="none"/>
                </g>
                <g id="dirArrow">
                        <path fill="none" stroke="white" stroke-width="1.5" d="M0,-3.0v7 M-2.5,-0.5L0,-3.0L2.5,-0.5"/>
                </g>
               <g id="resetDef">
                       <use xlink:href="#rim2" fill="#404040">
                               <set attributeName="fill" to="#808080" begin="reset.mouseover" end="reset.mouseout"/>
                       </use>
               </g>
        </defs>

<script type="text/javascript">
var viewWidth = 626;
var viewHeight = 217;
var sectionId = 'dynsection-2';
</script>
<script xlink:href="svgpan.js"/>
<svg id="graph" class="graph">
<g id="viewport">
<title>precice::time::Waveform::sample</title>
<polygon fill="white" stroke="transparent" points="-4,4 -4,-213 622,-213 622,4 -4,4"/>
<!-- Node1 -->
<g id="node1" class="node">
<title>Node1</title>
<g id="a_node1"><a xlink:title="Evaluate waveform at specific point in time. Uses interpolation if necessary.">
<polygon fill="#bfbfbf" stroke="black" points="0,-90.5 0,-120.5 137,-120.5 137,-90.5 0,-90.5"/>
<text text-anchor="start" x="8" y="-108.5" font-family="Helvetica,sans-Serif" font-size="10.00">precice::time::Waveform</text>
<text text-anchor="middle" x="68.5" y="-97.5" font-family="Helvetica,sans-Serif" font-size="10.00">::sample</text>
</a>
</g>
</g>
<!-- Node2 -->
<g id="node2" class="node">
<title>Node2</title>
<g id="a_node2"><a xlink:href="classprecice_1_1time_1_1Storage.html#a08c49dcc5416d1cf8dcd426fa007d5ca" target="_top" xlink:title="Need to use interpolation for the case with changing time grids.">
<polygon fill="white" stroke="black" points="173,-90.5 173,-120.5 297,-120.5 297,-90.5 173,-90.5"/>
<text text-anchor="start" x="181" y="-108.5" font-family="Helvetica,sans-Serif" font-size="10.00">precice::time::Storage</text>
<text text-anchor="middle" x="235" y="-97.5" font-family="Helvetica,sans-Serif" font-size="10.00">::sample</text>
</a>
</g>
</g>
<!-- Node1&#45;&gt;Node2 -->
<g id="edge1" class="edge">
<title>Node1&#45;&gt;Node2</title>
<path fill="none" stroke="midnightblue" d="M137.36,-105.5C145.73,-105.5 154.3,-105.5 162.72,-105.5"/>
<polygon fill="midnightblue" stroke="midnightblue" points="162.88,-109 172.88,-105.5 162.88,-102 162.88,-109"/>
</g>
<!-- Node3 -->
<g id="node3" class="node">
<title>Node3</title>
<g id="a_node3"><a xlink:href="classprecice_1_1time_1_1Storage.html#a9237f11d36d0c3d2bf425150ee9007ab" target="_top" xlink:title="Computes which degree may be used for interpolation.">
<polygon fill="white" stroke="black" points="333,-178.5 333,-208.5 458,-208.5 458,-178.5 333,-178.5"/>
<text text-anchor="start" x="341" y="-196.5" font-family="Helvetica,sans-Serif" font-size="10.00">precice::time::Storage</text>
<text text-anchor="middle" x="395.5" y="-185.5" font-family="Helvetica,sans-Serif" font-size="10.00">::computeUsedDegree</text>
</a>
</g>
</g>
<!-- Node2&#45;&gt;Node3 -->
<g id="edge2" class="edge">
<title>Node2&#45;&gt;Node3</title>
<path fill="none" stroke="midnightblue" d="M256.87,-120.72C276.05,-134.3 305.59,-154.19 333,-168.5 336.79,-170.48 340.78,-172.41 344.82,-174.27"/>
<polygon fill="midnightblue" stroke="midnightblue" points="343.74,-177.61 354.3,-178.44 346.56,-171.21 343.74,-177.61"/>
</g>
<!-- Node4 -->
<g id="node4" class="node">
<title>Node4</title>
<g id="a_node4"><a xlink:href="namespaceprecice_1_1detail.html#adede399b4b92eea01face616a0cc7051" target="_top" xlink:title=" ">
<polygon fill="white" stroke="black" points="339,-140 339,-159 452,-159 452,-140 339,-140"/>
<text text-anchor="middle" x="395.5" y="-147" font-family="Helvetica,sans-Serif" font-size="10.00">precice::detail::data</text>
</a>
</g>
</g>
<!-- Node2&#45;&gt;Node4 -->
<g id="edge3" class="edge">
<title>Node2&#45;&gt;Node4</title>
<path fill="none" stroke="midnightblue" d="M290.1,-120.52C309.72,-125.96 331.62,-132.04 350.28,-137.22"/>
<polygon fill="midnightblue" stroke="midnightblue" points="349.42,-140.62 360,-139.92 351.3,-133.87 349.42,-140.62"/>
</g>
<!-- Node5 -->
<g id="node5" class="node">
<title>Node5</title>
<g id="a_node5"><a xlink:href="classprecice_1_1time_1_1Storage.html#a1a752213ad68ee4ec271cca746741f8c" target="_top" xlink:title="Returns the Sample at time following &quot;before&quot; contained in this Storage.">
<polygon fill="white" stroke="black" points="333.5,-90.5 333.5,-120.5 457.5,-120.5 457.5,-90.5 333.5,-90.5"/>
<text text-anchor="start" x="341.5" y="-108.5" font-family="Helvetica,sans-Serif" font-size="10.00">precice::time::Storage</text>
<text text-anchor="middle" x="395.5" y="-97.5" font-family="Helvetica,sans-Serif" font-size="10.00">::getSampleAtOrAfter</text>
</a>
</g>
</g>
<!-- Node2&#45;&gt;Node5 -->
<g id="edge4" class="edge">
<title>Node2&#45;&gt;Node5</title>
<path fill="none" stroke="midnightblue" d="M297.28,-105.5C305.8,-105.5 314.6,-105.5 323.28,-105.5"/>
<polygon fill="midnightblue" stroke="midnightblue" points="323.38,-109 333.38,-105.5 323.38,-102 323.38,-109"/>
</g>
<!-- Node6 -->
<g id="node6" class="node">
<title>Node6</title>
<g id="a_node6"><a xlink:href="classprecice_1_1time_1_1Storage.html#ac6b8883c787b328e1a4114d4457c0b30" target="_top" xlink:title="Number of stored times.">
<polygon fill="white" stroke="black" points="494,-49.5 494,-79.5 618,-79.5 618,-49.5 494,-49.5"/>
<text text-anchor="start" x="502" y="-67.5" font-family="Helvetica,sans-Serif" font-size="10.00">precice::time::Storage</text>
<text text-anchor="middle" x="556" y="-56.5" font-family="Helvetica,sans-Serif" font-size="10.00">::nTimes</text>
</a>
</g>
</g>
<!-- Node2&#45;&gt;Node6 -->
<g id="edge9" class="edge">
<title>Node2&#45;&gt;Node6</title>
<path fill="none" stroke="midnightblue" d="M290.05,-90.44C303.96,-87.03 318.96,-83.76 333,-81.5 382.99,-73.46 439.95,-69.2 483.66,-66.95"/>
<polygon fill="midnightblue" stroke="midnightblue" points="484.09,-70.43 493.9,-66.45 483.74,-63.44 484.09,-70.43"/>
</g>
<!-- Node7 -->
<g id="node7" class="node">
<title>Node7</title>
<g id="a_node7"><a xlink:href="classprecice_1_1time_1_1Storage.html#a7699b242d48c467606c27cacbf1f6492" target="_top" xlink:title="Get all normalized dts and values in ascending order (with respect to normalized dts)">
<polygon fill="white" stroke="black" points="333.5,-2.5 333.5,-32.5 457.5,-32.5 457.5,-2.5 333.5,-2.5"/>
<text text-anchor="start" x="341.5" y="-20.5" font-family="Helvetica,sans-Serif" font-size="10.00">precice::time::Storage</text>
<text text-anchor="middle" x="395.5" y="-9.5" font-family="Helvetica,sans-Serif" font-size="10.00">::getTimesAndValues</text>
</a>
</g>
</g>
<!-- Node2&#45;&gt;Node7 -->
<g id="edge6" class="edge">
<title>Node2&#45;&gt;Node7</title>
<path fill="none" stroke="midnightblue" d="M259.99,-90.38C279.42,-78.32 307.64,-61.24 333,-47.5 339.46,-44 346.4,-40.44 353.19,-37.05"/>
<polygon fill="midnightblue" stroke="midnightblue" points="354.89,-40.12 362.32,-32.56 351.8,-33.83 354.89,-40.12"/>
</g>
<!-- Node5&#45;&gt;Node6 -->
<g id="edge5" class="edge">
<title>Node5&#45;&gt;Node6</title>
<path fill="none" stroke="midnightblue" d="M454.62,-90.47C465.17,-87.74 476.26,-84.87 487.07,-82.07"/>
<polygon fill="midnightblue" stroke="midnightblue" points="488.08,-85.43 496.89,-79.53 486.33,-78.65 488.08,-85.43"/>
</g>
<!-- Node7&#45;&gt;Node6 -->
<g id="edge8" class="edge">
<title>Node7&#45;&gt;Node6</title>
<path fill="none" stroke="midnightblue" d="M447.09,-32.5C462.24,-36.99 479.01,-41.97 494.73,-46.63"/>
<polygon fill="midnightblue" stroke="midnightblue" points="493.77,-49.99 504.35,-49.48 495.76,-43.28 493.77,-49.99"/>
</g>
<!-- Node8 -->
<g id="node8" class="node">
<title>Node8</title>
<g id="a_node8"><a xlink:href="classprecice_1_1time_1_1Storage.html#a5314dff98a3b6c92ef7bf48be027fa4d" target="_top" xlink:title="Number of Dofs for each values.">
<polygon fill="white" stroke="black" points="494,-0.5 494,-30.5 618,-30.5 618,-0.5 494,-0.5"/>
<text text-anchor="start" x="502" y="-18.5" font-family="Helvetica,sans-Serif" font-size="10.00">precice::time::Storage</text>
<text text-anchor="middle" x="556" y="-7.5" font-family="Helvetica,sans-Serif" font-size="10.00">::nDofs</text>
</a>
</g>
</g>
<!-- Node7&#45;&gt;Node8 -->
<g id="edge7" class="edge">
<title>Node7&#45;&gt;Node8</title>
<path fill="none" stroke="midnightblue" d="M457.78,-16.73C466.3,-16.62 475.1,-16.51 483.78,-16.4"/>
<polygon fill="midnightblue" stroke="midnightblue" points="483.93,-19.9 493.88,-16.27 483.84,-12.9 483.93,-19.9"/>
</g>
</g>
</svg>
        <g id="navigator" transform="translate(0 0)" fill="#404254">
                <rect fill="#f2f5e9" fill-opacity="0.5" stroke="#606060" stroke-width=".5" x="0" y="0" width="60" height="60"/>
                <use id="zoomplus" xlink:href="#zoomPlus" x="17" y="9" onmousedown="handleZoom(evt,'in')"/>
                <use id="zoomminus" xlink:href="#zoomMin" x="42" y="9" onmousedown="handleZoom(evt,'out')"/>
                <use id="reset" xlink:href="#resetDef" x="30" y="36" onmousedown="handleReset()"/>
                <g id="arrowUp" xlink:href="#dirArrow" transform="translate(30 24)" onmousedown="handlePan(0,-1)">
                  <use xlink:href="#rim" fill="#404040">
                        <set attributeName="fill" to="#808080" begin="arrowUp.mouseover" end="arrowUp.mouseout"/>
                  </use>
                  <path fill="none" stroke="white" stroke-width="1.5" d="M0,-3.0v7 M-2.5,-0.5L0,-3.0L2.5,-0.5"/>
                </g>
                <g id="arrowRight" xlink:href="#dirArrow" transform="rotate(90) translate(36 -43)" onmousedown="handlePan(1,0)">
                  <use xlink:href="#rim" fill="#404040">
                        <set attributeName="fill" to="#808080" begin="arrowRight.mouseover" end="arrowRight.mouseout"/>
                  </use>
                  <path fill="none" stroke="white" stroke-width="1.5" d="M0,-3.0v7 M-2.5,-0.5L0,-3.0L2.5,-0.5"/>
                </g>
                <g id="arrowDown" xlink:href="#dirArrow" transform="rotate(180) translate(-30 -48)" onmousedown="handlePan(0,1)">
                  <use xlink:href="#rim" fill="#404040">
                        <set attributeName="fill" to="#808080" begin="arrowDown.mouseover" end="arrowDown.mouseout"/>
                  </use>
                  <path fill="none" stroke="white" stroke-width="1.5" d="M0,-3.0v7 M-2.5,-0.5L0,-3.0L2.5,-0.5"/>
                </g>
                <g id="arrowLeft" xlink:href="#dirArrow" transform="rotate(270) translate(-36 17)" onmousedown="handlePan(-1,0)">
                  <use xlink:href="#rim" fill="#404040">
                        <set attributeName="fill" to="#808080" begin="arrowLeft.mouseover" end="arrowLeft.mouseout"/>
                  </use>
                  <path fill="none" stroke="white" stroke-width="1.5" d="M0,-3.0v7 M-2.5,-0.5L0,-3.0L2.5,-0.5"/>
                </g>
        </g>
        <svg viewBox="0 0 15 15" width="100%" height="30px" preserveAspectRatio="xMaxYMin meet">
         <g id="arrow_out" transform="scale(0.3 0.3)">
          <a xlink:href="classprecice_1_1time_1_1Waveform_a6fab44755424cbba866855f5e248bc20_cgraph_org.svg" target="_base">
           <rect id="button" ry="5" rx="5" y="6" x="6" height="38" width="38"
                fill="#f2f5e9" fill-opacity="0.5" stroke="#606060" stroke-width="1.0"/>
           <path id="arrow"
             d="M 11.500037,31.436501 C 11.940474,20.09759 22.043105,11.32322 32.158766,21.979434 L 37.068811,17.246167 C 37.068811,17.246167 37.088388,32 37.088388,32 L 22.160133,31.978069 C 22.160133,31.978069 26.997745,27.140456 26.997745,27.140456 C 18.528582,18.264221 13.291696,25.230495 11.500037,31.436501 z"
             style="fill:#404040;"/>
          </a>
         </g>
        </svg>
</svg>
