<?xml version="1.0" encoding="UTF-8" standalone="no"?>
<!DOCTYPE svg PUBLIC "-//W3C//DTD SVG 1.1//EN"
 "http://www.w3.org/Graphics/SVG/1.1/DTD/svg11.dtd">
<!-- Generated by graphviz version 2.43.0 (0)
 -->
<!-- Title: precice::utils::petsc::Vector::Vector Pages: 1 -->
<svg width="433pt" height="165pt"
 viewBox="0.00 0.00 433.00 165.00" xmlns="http://www.w3.org/2000/svg" xmlns:xlink="http://www.w3.org/1999/xlink">
<g id="graph0" class="graph" transform="scale(1 1) rotate(0) translate(4 161)">
<title>precice::utils::petsc::Vector::Vector</title>
<polygon fill="white" stroke="transparent" points="-4,4 -4,-161 429,-161 429,4 -4,4"/>
<!-- Node1 -->
<g id="node1" class="node">
<title>Node1</title>
<g id="a_node1"><a xlink:title="Creates a new vector on the given MPI communicator.">
<polygon fill="#bfbfbf" stroke="black" points="0,-63.5 0,-93.5 111,-93.5 111,-63.5 0,-63.5"/>
<text text-anchor="start" x="8" y="-81.5" font-family="Helvetica,sans-Serif" font-size="10.00">precice::utils::petsc</text>
<text text-anchor="middle" x="55.5" y="-70.5" font-family="Helvetica,sans-Serif" font-size="10.00">::Vector::Vector</text>
</a>
</g>
</g>
<!-- Node2 -->
<g id="node2" class="node">
<title>Node2</title>
<g id="a_node2"><a xlink:href="classprecice_1_1utils_1_1Parallel.html#a2aeadec30c9e48918e014608ede4d51d" target="_top" xlink:title="Returns an owning pointer to the current CommState.">
<polygon fill="white" stroke="black" points="147,-126.5 147,-156.5 268,-156.5 268,-126.5 147,-126.5"/>
<text text-anchor="start" x="155" y="-144.5" font-family="Helvetica,sans-Serif" font-size="10.00">precice::utils::Parallel</text>
<text text-anchor="middle" x="207.5" y="-133.5" font-family="Helvetica,sans-Serif" font-size="10.00">::current</text>
</a>
</g>
</g>
<!-- Node1&#45;&gt;Node2 -->
<g id="edge1" class="edge">
<title>Node1&#45;&gt;Node2</title>
<path fill="none" stroke="midnightblue" d="M92.43,-93.59C113.04,-102.25 139.11,-113.2 161.13,-122.44"/>
<polygon fill="midnightblue" stroke="midnightblue" points="160.03,-125.78 170.6,-126.42 162.74,-119.32 160.03,-125.78"/>
</g>
<!-- Node4 -->
<g id="node4" class="node">
<title>Node4</title>
<g id="a_node4"><a xlink:href="MPI__Mock_8hpp.html#af02c1da1e2be331e53ac3e5f8ccfedb6" target="_top" xlink:title=" ">
<polygon fill="white" stroke="black" points="159,-88 159,-107 256,-107 256,-88 159,-88"/>
<text text-anchor="middle" x="207.5" y="-95" font-family="Helvetica,sans-Serif" font-size="10.00">MPI_Comm_size</text>
</a>
</g>
</g>
<!-- Node1&#45;&gt;Node4 -->
<g id="edge3" class="edge">
<title>Node1&#45;&gt;Node4</title>
<path fill="none" stroke="midnightblue" d="M111.08,-85.41C123.25,-86.96 136.2,-88.6 148.5,-90.15"/>
<polygon fill="midnightblue" stroke="midnightblue" points="148.3,-93.66 158.66,-91.44 149.18,-86.71 148.3,-93.66"/>
</g>
<!-- Node5 -->
<g id="node5" class="node">
<title>Node5</title>
<g id="a_node5"><a xlink:href="namespaceprecice_1_1detail.html#a99f20f73c4a3c34d08429ac0fea564ef" target="_top" xlink:title=" ">
<polygon fill="white" stroke="black" points="309,-69 309,-88 420,-88 420,-69 309,-69"/>
<text text-anchor="middle" x="364.5" y="-76" font-family="Helvetica,sans-Serif" font-size="10.00">precice::detail::size</text>
</a>
</g>
</g>
<!-- Node1&#45;&gt;Node5 -->
<g id="edge6" class="edge">
<title>Node1&#45;&gt;Node5</title>
<path fill="none" stroke="midnightblue" d="M111.03,-78.5C163.59,-78.5 243.13,-78.5 298.84,-78.5"/>
<polygon fill="midnightblue" stroke="midnightblue" points="298.96,-82 308.96,-78.5 298.96,-75 298.96,-82"/>
</g>
<!-- Node6 -->
<g id="node6" class="node">
<title>Node6</title>
<g id="a_node6"><a xlink:href="namespaceprecice_1_1utils_1_1petsc.html#a521a46d3dea63d9aefc6a649bac8832b" target="_top" xlink:title=" ">
<polygon fill="white" stroke="black" points="152,-0.5 152,-30.5 263,-30.5 263,-0.5 152,-0.5"/>
<text text-anchor="start" x="160" y="-18.5" font-family="Helvetica,sans-Serif" font-size="10.00">precice::utils::petsc</text>
<text text-anchor="middle" x="207.5" y="-7.5" font-family="Helvetica,sans-Serif" font-size="10.00">::setName</text>
</a>
</g>
</g>
<!-- Node1&#45;&gt;Node6 -->
<g id="edge5" class="edge">
<title>Node1&#45;&gt;Node6</title>
<path fill="none" stroke="midnightblue" d="M92.43,-63.41C113.04,-54.75 139.11,-43.8 161.13,-34.56"/>
<polygon fill="midnightblue" stroke="midnightblue" points="162.74,-37.68 170.6,-30.58 160.03,-31.22 162.74,-37.68"/>
</g>
<!-- Node3 -->
<g id="node3" class="node">
<title>Node3</title>
<g id="a_node3"><a xlink:href="structprecice_1_1utils_1_1Parallel_1_1CommState.html#a11c87f5cfaad1fb984d9dcd80e6f2c55" target="_top" xlink:title="returns a commstate containing MPI_COMM_WORLD">
<polygon fill="white" stroke="black" points="304,-126.5 304,-156.5 425,-156.5 425,-126.5 304,-126.5"/>
<text text-anchor="start" x="312" y="-144.5" font-family="Helvetica,sans-Serif" font-size="10.00">precice::utils::Parallel</text>
<text text-anchor="middle" x="364.5" y="-133.5" font-family="Helvetica,sans-Serif" font-size="10.00">::CommState::world</text>
</a>
</g>
</g>
<!-- Node2&#45;&gt;Node3 -->
<g id="edge2" class="edge">
<title>Node2&#45;&gt;Node3</title>
<path fill="none" stroke="midnightblue" d="M268.43,-141.5C276.72,-141.5 285.31,-141.5 293.76,-141.5"/>
<polygon fill="midnightblue" stroke="midnightblue" points="293.99,-145 303.99,-141.5 293.99,-138 293.99,-145"/>
</g>
<!-- Node4&#45;&gt;Node5 -->
<g id="edge4" class="edge">
<title>Node4&#45;&gt;Node5</title>
<path fill="none" stroke="midnightblue" d="M256.27,-91.64C269.65,-90 284.43,-88.19 298.63,-86.45"/>
<polygon fill="midnightblue" stroke="midnightblue" points="299.34,-89.89 308.84,-85.2 298.49,-82.94 299.34,-89.89"/>
</g>
</g>
</svg>
