<?xml version="1.0" encoding="UTF-8" standalone="no"?>
<!DOCTYPE svg PUBLIC "-//W3C//DTD SVG 1.1//EN"
 "http://www.w3.org/Graphics/SVG/1.1/DTD/svg11.dtd">
<!-- Generated by graphviz version 2.43.0 (0)
 -->
<!-- Title: precice::cplscheme::MultiCouplingScheme Pages: 1 -->
<!--zoomable 589 -->
<svg id="main" version="1.1" xmlns="http://www.w3.org/2000/svg" xmlns:xlink="http://www.w3.org/1999/xlink" xml:space="preserve" onload="init(evt)">
<style type="text/css"><![CDATA[
.edge:hover path { stroke: red; }
.edge:hover polygon { stroke: red; fill: red; }
]]></style>
<script type="text/javascript"><![CDATA[
var edges = document.getElementsByTagName('g');
if (edges && edges.length) {
  for (var i=0;i<edges.length;i++) {
    if (edges[i].id.substr(0,4)=='edge') {
      edges[i].setAttribute('class','edge');
    }
  }
}
]]></script>
        <defs>
                <circle id="rim" cx="0" cy="0" r="7"/>
                <circle id="rim2" cx="0" cy="0" r="3.5"/>
                <g id="zoomPlus">
                        <use xlink:href="#rim" fill="#404040">
                                <set attributeName="fill" to="#808080" begin="zoomplus.mouseover" end="zoomplus.mouseout"/>
                        </use>
                        <path d="M-4,0h8M0,-4v8" fill="none" stroke="white" stroke-width="1.5" pointer-events="none"/>
                </g>
                <g id="zoomMin">
                        <use xlink:href="#rim" fill="#404040">
                                <set attributeName="fill" to="#808080" begin="zoomminus.mouseover" end="zoomminus.mouseout"/>
                        </use>
                        <path d="M-4,0h8" fill="none" stroke="white" stroke-width="1.5" pointer-events="none"/>
                </g>
                <g id="dirArrow">
                        <path fill="none" stroke="white" stroke-width="1.5" d="M0,-3.0v7 M-2.5,-0.5L0,-3.0L2.5,-0.5"/>
                </g>
               <g id="resetDef">
                       <use xlink:href="#rim2" fill="#404040">
                               <set attributeName="fill" to="#808080" begin="reset.mouseover" end="reset.mouseout"/>
                       </use>
               </g>
        </defs>

<script type="text/javascript">
var viewWidth = 2581;
var viewHeight = 589;
var sectionId = 'dynsection-1';
</script>
<script xlink:href="svgpan.js"/>
<svg id="graph" class="graph">
<g id="viewport">
<title>precice::cplscheme::MultiCouplingScheme</title>
<polygon fill="white" stroke="transparent" points="-4,4 -4,-585 2577,-585 2577,4 -4,4"/>
<!-- Node1 -->
<g id="node1" class="node">
<title>Node1</title>
<g id="a_node1"><a xlink:title="A coupling scheme with multiple participants.">
<polygon fill="#bfbfbf" stroke="black" points="2444,-123 2444,-153 2573,-153 2573,-123 2444,-123"/>
<text text-anchor="start" x="2452" y="-141" font-family="Helvetica,sans-Serif" font-size="10.00">precice::cplscheme</text>
<text text-anchor="middle" x="2508.5" y="-130" font-family="Helvetica,sans-Serif" font-size="10.00">::MultiCouplingScheme</text>
</a>
</g>
</g>
<!-- Node2 -->
<g id="node2" class="node">
<title>Node2</title>
<g id="a_node2"><a xlink:href="classprecice_1_1cplscheme_1_1BaseCouplingScheme.html" target="_top" xlink:title="Abstract base class for standard coupling schemes.">
<polygon fill="white" stroke="black" points="2279,-275 2279,-305 2407,-305 2407,-275 2279,-275"/>
<text text-anchor="start" x="2287" y="-293" font-family="Helvetica,sans-Serif" font-size="10.00">precice::cplscheme</text>
<text text-anchor="middle" x="2343" y="-282" font-family="Helvetica,sans-Serif" font-size="10.00">::BaseCouplingScheme</text>
</a>
</g>
</g>
<!-- Node2&#45;&gt;Node1 -->
<g id="edge1" class="edge">
<title>Node2&#45;&gt;Node1</title>
<path fill="none" stroke="midnightblue" d="M2367.83,-267.84C2401.56,-236.49 2462.33,-180 2491.29,-153.07"/>
<polygon fill="midnightblue" stroke="midnightblue" points="2365.22,-265.5 2360.27,-274.87 2369.98,-270.62 2365.22,-265.5"/>
</g>
<!-- Node3 -->
<g id="node3" class="node">
<title>Node3</title>
<g id="a_node3"><a xlink:href="classprecice_1_1cplscheme_1_1CouplingScheme.html" target="_top" xlink:title="Interface for all coupling schemes.">
<polygon fill="white" stroke="black" points="1976.5,-254 1976.5,-284 2086.5,-284 2086.5,-254 1976.5,-254"/>
<text text-anchor="start" x="1984.5" y="-272" font-family="Helvetica,sans-Serif" font-size="10.00">precice::cplscheme</text>
<text text-anchor="middle" x="2031.5" y="-261" font-family="Helvetica,sans-Serif" font-size="10.00">::CouplingScheme</text>
</a>
</g>
</g>
<!-- Node3&#45;&gt;Node2 -->
<g id="edge2" class="edge">
<title>Node3&#45;&gt;Node2</title>
<path fill="none" stroke="midnightblue" d="M2096.81,-273.36C2150.26,-276.99 2225.9,-282.12 2278.99,-285.72"/>
<polygon fill="midnightblue" stroke="midnightblue" points="2096.98,-269.87 2086.76,-272.68 2096.51,-276.85 2096.98,-269.87"/>
</g>
<!-- Node4 -->
<g id="node4" class="node">
<title>Node4</title>
<g id="a_node4"><a xlink:title=" ">
<polygon fill="white" stroke="#bfbfbf" points="1938,-434.5 1938,-475.5 2125,-475.5 2125,-434.5 1938,-434.5"/>
<text text-anchor="start" x="1946" y="-463.5" font-family="Helvetica,sans-Serif" font-size="10.00">std::vector&lt; precice</text>
<text text-anchor="start" x="1946" y="-452.5" font-family="Helvetica,sans-Serif" font-size="10.00">::cplscheme::BaseCouplingScheme</text>
<text text-anchor="middle" x="2031.5" y="-441.5" font-family="Helvetica,sans-Serif" font-size="10.00">::ConvergenceMeasureContext &gt;</text>
</a>
</g>
</g>
<!-- Node4&#45;&gt;Node2 -->
<g id="edge3" class="edge">
<title>Node4&#45;&gt;Node2</title>
<path fill="none" stroke="#9a32cd" stroke-dasharray="5,2" d="M2135.06,-457.51C2177.02,-454.12 2224.24,-444.23 2261,-420 2303.63,-391.9 2327.88,-332.83 2337.34,-305.04"/>
<polygon fill="#9a32cd" stroke="#9a32cd" points="2134.81,-454.02 2125.08,-458.21 2135.3,-461 2134.81,-454.02"/>
<text text-anchor="middle" x="2202" y="-459" font-family="Helvetica,sans-Serif" font-size="10.00"> _convergenceMeasures</text>
</g>
<!-- Node5 -->
<g id="node5" class="node">
<title>Node5</title>
<g id="a_node5"><a xlink:href="structprecice_1_1cplscheme_1_1BaseCouplingScheme_1_1ConvergenceMeasureContext.html" target="_top" xlink:title="Holds meta information to perform a convergence measurement.">
<polygon fill="white" stroke="black" points="1639,-434.5 1639,-475.5 1806,-475.5 1806,-434.5 1639,-434.5"/>
<text text-anchor="start" x="1647" y="-463.5" font-family="Helvetica,sans-Serif" font-size="10.00">precice::cplscheme</text>
<text text-anchor="start" x="1647" y="-452.5" font-family="Helvetica,sans-Serif" font-size="10.00">::BaseCouplingScheme</text>
<text text-anchor="middle" x="1722.5" y="-441.5" font-family="Helvetica,sans-Serif" font-size="10.00">::ConvergenceMeasureContext</text>
</a>
</g>
</g>
<!-- Node5&#45;&gt;Node4 -->
<g id="edge4" class="edge">
<title>Node5&#45;&gt;Node4</title>
<path fill="none" stroke="#9a32cd" stroke-dasharray="5,2" d="M1816.35,-455C1854.86,-455 1899.45,-455 1937.93,-455"/>
<polygon fill="#9a32cd" stroke="#9a32cd" points="1816.17,-451.5 1806.17,-455 1816.17,-458.5 1816.17,-451.5"/>
<text text-anchor="middle" x="1872" y="-458" font-family="Helvetica,sans-Serif" font-size="10.00"> elements</text>
</g>
<!-- Node6 -->
<g id="node6" class="node">
<title>Node6</title>
<g id="a_node6"><a xlink:title=" ">
<polygon fill="white" stroke="#bfbfbf" points="1355,-436 1355,-466 1519,-466 1519,-436 1355,-436"/>
<text text-anchor="start" x="1363" y="-454" font-family="Helvetica,sans-Serif" font-size="10.00">std::shared_ptr&lt; Convergence</text>
<text text-anchor="middle" x="1437" y="-443" font-family="Helvetica,sans-Serif" font-size="10.00">Measure &gt;</text>
</a>
</g>
</g>
<!-- Node6&#45;&gt;Node5 -->
<g id="edge5" class="edge">
<title>Node6&#45;&gt;Node5</title>
<path fill="none" stroke="#9a32cd" stroke-dasharray="5,2" d="M1529.5,-452.29C1564.63,-452.79 1604.5,-453.35 1638.77,-453.83"/>
<polygon fill="#9a32cd" stroke="#9a32cd" points="1529.29,-448.79 1519.24,-452.15 1529.19,-455.79 1529.29,-448.79"/>
<text text-anchor="middle" x="1579" y="-456" font-family="Helvetica,sans-Serif" font-size="10.00"> measure</text>
</g>
<!-- Node7 -->
<g id="node7" class="node">
<title>Node7</title>
<g id="a_node7"><a xlink:title=" ">
<polygon fill="white" stroke="#bfbfbf" points="1365.5,-485 1365.5,-515 1508.5,-515 1508.5,-485 1365.5,-485"/>
<text text-anchor="start" x="1373.5" y="-503" font-family="Helvetica,sans-Serif" font-size="10.00">std::shared_ptr&lt; Coupling</text>
<text text-anchor="middle" x="1437" y="-492" font-family="Helvetica,sans-Serif" font-size="10.00">Data &gt;</text>
</a>
</g>
</g>
<!-- Node7&#45;&gt;Node5 -->
<g id="edge6" class="edge">
<title>Node7&#45;&gt;Node5</title>
<path fill="none" stroke="#9a32cd" stroke-dasharray="5,2" d="M1518.7,-487.19C1556.29,-481.22 1600.95,-474.14 1638.78,-468.13"/>
<polygon fill="#9a32cd" stroke="#9a32cd" points="1518.14,-483.74 1508.81,-488.76 1519.23,-490.65 1518.14,-483.74"/>
<text text-anchor="middle" x="1579" y="-487" font-family="Helvetica,sans-Serif" font-size="10.00"> couplingData</text>
</g>
<!-- Node8 -->
<g id="node8" class="node">
<title>Node8</title>
<g id="a_node8"><a xlink:href="classprecice_1_1cplscheme_1_1CouplingData.html" target="_top" xlink:title=" ">
<polygon fill="white" stroke="black" points="1066.5,-481 1066.5,-511 1176.5,-511 1176.5,-481 1066.5,-481"/>
<text text-anchor="start" x="1074.5" y="-499" font-family="Helvetica,sans-Serif" font-size="10.00">precice::cplscheme</text>
<text text-anchor="middle" x="1121.5" y="-488" font-family="Helvetica,sans-Serif" font-size="10.00">::CouplingData</text>
</a>
</g>
</g>
<!-- Node8&#45;&gt;Node7 -->
<g id="edge7" class="edge">
<title>Node8&#45;&gt;Node7</title>
<path fill="none" stroke="#9a32cd" stroke-dasharray="5,2" d="M1186.85,-496.82C1238.79,-497.48 1311.8,-498.42 1365.36,-499.1"/>
<polygon fill="#9a32cd" stroke="#9a32cd" points="1186.79,-493.32 1176.75,-496.69 1186.7,-500.32 1186.79,-493.32"/>
<text text-anchor="middle" x="1275" y="-501" font-family="Helvetica,sans-Serif" font-size="10.00"> ptr</text>
</g>
<!-- Node9 -->
<g id="node9" class="node">
<title>Node9</title>
<g id="a_node9"><a xlink:title=" ">
<polygon fill="white" stroke="#bfbfbf" points="801.5,-522.5 801.5,-541.5 936.5,-541.5 936.5,-522.5 801.5,-522.5"/>
<text text-anchor="middle" x="869" y="-529.5" font-family="Helvetica,sans-Serif" font-size="10.00">std::shared_ptr&lt; Data &gt;</text>
</a>
</g>
</g>
<!-- Node9&#45;&gt;Node8 -->
<g id="edge8" class="edge">
<title>Node9&#45;&gt;Node8</title>
<path fill="none" stroke="#9a32cd" stroke-dasharray="5,2" d="M946.55,-521.74C973,-518.13 1002.82,-513.97 1030,-510 1041.8,-508.28 1054.45,-506.36 1066.45,-504.51"/>
<polygon fill="#9a32cd" stroke="#9a32cd" points="946.03,-518.28 936.59,-523.1 946.97,-525.22 946.03,-518.28"/>
<text text-anchor="middle" x="993" y="-522" font-family="Helvetica,sans-Serif" font-size="10.00"> _data</text>
</g>
<!-- Node10 -->
<g id="node10" class="node">
<title>Node10</title>
<g id="a_node10"><a xlink:title=" ">
<polygon fill="white" stroke="#bfbfbf" points="800,-484.5 800,-503.5 938,-503.5 938,-484.5 800,-484.5"/>
<text text-anchor="middle" x="869" y="-491.5" font-family="Helvetica,sans-Serif" font-size="10.00">std::shared_ptr&lt; Mesh &gt;</text>
</a>
</g>
</g>
<!-- Node10&#45;&gt;Node8 -->
<g id="edge9" class="edge">
<title>Node10&#45;&gt;Node8</title>
<path fill="none" stroke="#9a32cd" stroke-dasharray="5,2" d="M948.22,-494.62C986.56,-494.93 1031.79,-495.29 1066.27,-495.57"/>
<polygon fill="#9a32cd" stroke="#9a32cd" points="948.15,-491.12 938.12,-494.54 948.09,-498.12 948.15,-491.12"/>
<text text-anchor="middle" x="993" y="-498" font-family="Helvetica,sans-Serif" font-size="10.00"> _mesh</text>
</g>
<!-- Node11 -->
<g id="node11" class="node">
<title>Node11</title>
<g id="a_node11"><a xlink:href="classprecice_1_1cplscheme_1_1impl_1_1Extrapolation.html" target="_top" xlink:title=" ">
<polygon fill="white" stroke="black" points="811,-435 811,-465 927,-465 927,-435 811,-435"/>
<text text-anchor="start" x="819" y="-453" font-family="Helvetica,sans-Serif" font-size="10.00">precice::cplscheme</text>
<text text-anchor="middle" x="869" y="-442" font-family="Helvetica,sans-Serif" font-size="10.00">::impl::Extrapolation</text>
</a>
</g>
</g>
<!-- Node11&#45;&gt;Node8 -->
<g id="edge10" class="edge">
<title>Node11&#45;&gt;Node8</title>
<path fill="none" stroke="#9a32cd" stroke-dasharray="5,2" d="M936.94,-462.04C965.61,-467.21 999.45,-473.36 1030,-479 1041.79,-481.18 1054.44,-483.54 1066.43,-485.79"/>
<polygon fill="#9a32cd" stroke="#9a32cd" points="937.5,-458.58 927.04,-460.25 936.25,-465.47 937.5,-458.58"/>
<text text-anchor="middle" x="993" y="-482" font-family="Helvetica,sans-Serif" font-size="10.00"> _extrapolation</text>
</g>
<!-- Node12 -->
<g id="node12" class="node">
<title>Node12</title>
<g id="a_node12"><a xlink:href="classprecice_1_1logging_1_1Logger.html" target="_top" xlink:title="This class provides a lightweight logger.">
<polygon fill="white" stroke="black" points="582,-415.5 582,-434.5 715,-434.5 715,-415.5 582,-415.5"/>
<text text-anchor="middle" x="648.5" y="-422.5" font-family="Helvetica,sans-Serif" font-size="10.00">precice::logging::Logger</text>
</a>
</g>
</g>
<!-- Node12&#45;&gt;Node1 -->
<g id="edge37" class="edge">
<title>Node12&#45;&gt;Node1</title>
<path fill="none" stroke="#9a32cd" stroke-dasharray="5,2" d="M663.24,-442.8C694.83,-481.53 776.96,-570 868,-570 868,-570 868,-570 2344,-570 2435.12,-570 2493.3,-229.58 2505.22,-153.12"/>
<polygon fill="#9a32cd" stroke="#9a32cd" points="665.6,-440.15 656.63,-434.51 660.13,-444.52 665.6,-440.15"/>
<text text-anchor="middle" x="1579" y="-573" font-family="Helvetica,sans-Serif" font-size="10.00"> _log</text>
</g>
<!-- Node12&#45;&gt;Node2 -->
<g id="edge18" class="edge">
<title>Node12&#45;&gt;Node2</title>
<path fill="none" stroke="#9a32cd" stroke-dasharray="5,2" d="M725.49,-415.13C767.43,-410.51 820.51,-406 868,-406 868,-406 868,-406 2032.5,-406 2135.31,-406 2169.23,-416.35 2261,-370 2291.34,-354.67 2317.48,-323.83 2331.36,-305.24"/>
<polygon fill="#9a32cd" stroke="#9a32cd" points="724.89,-411.68 715.35,-416.28 725.67,-418.64 724.89,-411.68"/>
<text text-anchor="middle" x="1437" y="-409" font-family="Helvetica,sans-Serif" font-size="10.00"> _log</text>
</g>
<!-- Node12&#45;&gt;Node11 -->
<g id="edge11" class="edge">
<title>Node12&#45;&gt;Node11</title>
<path fill="none" stroke="#9a32cd" stroke-dasharray="5,2" d="M725.22,-433.66C753.24,-436.87 784.52,-440.45 810.64,-443.44"/>
<polygon fill="#9a32cd" stroke="#9a32cd" points="725.39,-430.16 715.06,-432.5 724.59,-437.11 725.39,-430.16"/>
<text text-anchor="middle" x="757.5" y="-442" font-family="Helvetica,sans-Serif" font-size="10.00"> _log</text>
</g>
<!-- Node20 -->
<g id="node20" class="node">
<title>Node20</title>
<g id="a_node20"><a xlink:href="classprecice_1_1io_1_1TXTTableWriter.html" target="_top" xlink:title="File writer for table&#45;data in text&#45;format.">
<polygon fill="white" stroke="black" points="1649,-310.5 1649,-329.5 1796,-329.5 1796,-310.5 1649,-310.5"/>
<text text-anchor="middle" x="1722.5" y="-317.5" font-family="Helvetica,sans-Serif" font-size="10.00">precice::io::TXTTableWriter</text>
</a>
</g>
</g>
<!-- Node12&#45;&gt;Node20 -->
<g id="edge24" class="edge">
<title>Node12&#45;&gt;Node20</title>
<path fill="none" stroke="#9a32cd" stroke-dasharray="5,2" d="M677.76,-411.27C693.62,-404.23 713.98,-396.26 733,-392 1118.93,-305.6 1227.75,-376.89 1621,-335 1634.77,-333.53 1649.55,-331.56 1663.41,-329.52"/>
<polygon fill="#9a32cd" stroke="#9a32cd" points="676.17,-408.15 668.53,-415.49 679.08,-414.52 676.17,-408.15"/>
<text text-anchor="middle" x="1121.5" y="-351" font-family="Helvetica,sans-Serif" font-size="10.00"> _log</text>
</g>
<!-- Node13 -->
<g id="node13" class="node">
<title>Node13</title>
<g id="a_node13"><a xlink:title=" ">
<polygon fill="white" stroke="#bfbfbf" points="345,-410 345,-440 515,-440 515,-410 345,-410"/>
<text text-anchor="start" x="353" y="-428" font-family="Helvetica,sans-Serif" font-size="10.00">std::unique_ptr&lt; precice</text>
<text text-anchor="middle" x="430" y="-417" font-family="Helvetica,sans-Serif" font-size="10.00">::logging::Logger::LoggerImpl &gt;</text>
</a>
</g>
</g>
<!-- Node13&#45;&gt;Node12 -->
<g id="edge12" class="edge">
<title>Node13&#45;&gt;Node12</title>
<path fill="none" stroke="#9a32cd" stroke-dasharray="5,2" d="M525.26,-425C544.39,-425 564.12,-425 581.99,-425"/>
<polygon fill="#9a32cd" stroke="#9a32cd" points="525.01,-421.5 515.01,-425 525.01,-428.5 525.01,-421.5"/>
<text text-anchor="middle" x="548.5" y="-428" font-family="Helvetica,sans-Serif" font-size="10.00"> _impl</text>
</g>
<!-- Node14 -->
<g id="node14" class="node">
<title>Node14</title>
<g id="a_node14"><a xlink:href="classprecice_1_1logging_1_1Logger_1_1LoggerImpl.html" target="_top" xlink:title=" ">
<polygon fill="white" stroke="black" points="159,-410 159,-440 292,-440 292,-410 159,-410"/>
<text text-anchor="start" x="167" y="-428" font-family="Helvetica,sans-Serif" font-size="10.00">precice::logging::Logger</text>
<text text-anchor="middle" x="225.5" y="-417" font-family="Helvetica,sans-Serif" font-size="10.00">::LoggerImpl</text>
</a>
</g>
</g>
<!-- Node14&#45;&gt;Node13 -->
<g id="edge13" class="edge">
<title>Node14&#45;&gt;Node13</title>
<path fill="none" stroke="#9a32cd" stroke-dasharray="5,2" d="M302.62,-425C316.37,-425 330.78,-425 344.75,-425"/>
<polygon fill="#9a32cd" stroke="#9a32cd" points="302.25,-421.5 292.25,-425 302.25,-428.5 302.25,-421.5"/>
<text text-anchor="middle" x="318.5" y="-428" font-family="Helvetica,sans-Serif" font-size="10.00"> ptr</text>
</g>
<!-- Node15 -->
<g id="node15" class="node">
<title>Node15</title>
<g id="a_node15"><a xlink:title=" ">
<polygon fill="white" stroke="#bfbfbf" points="0,-410 0,-440 122,-440 122,-410 0,-410"/>
<text text-anchor="start" x="8" y="-428" font-family="Helvetica,sans-Serif" font-size="10.00">BoostLogger&lt; Logger</text>
<text text-anchor="middle" x="61" y="-417" font-family="Helvetica,sans-Serif" font-size="10.00">::LoggerImpl &gt;</text>
</a>
</g>
</g>
<!-- Node15&#45;&gt;Node14 -->
<g id="edge14" class="edge">
<title>Node15&#45;&gt;Node14</title>
<path fill="none" stroke="midnightblue" d="M132.33,-425C141.17,-425 150.19,-425 158.96,-425"/>
<polygon fill="midnightblue" stroke="midnightblue" points="132.05,-421.5 122.05,-425 132.05,-428.5 132.05,-421.5"/>
</g>
<!-- Node16 -->
<g id="node16" class="node">
<title>Node16</title>
<g id="a_node16"><a xlink:title=" ">
<polygon fill="white" stroke="#bfbfbf" points="1213,-171.5 1213,-190.5 1337,-190.5 1337,-171.5 1213,-171.5"/>
<text text-anchor="middle" x="1275" y="-178.5" font-family="Helvetica,sans-Serif" font-size="10.00">std::set&lt; std::string &gt;</text>
</a>
</g>
</g>
<!-- Node16&#45;&gt;Node2 -->
<g id="edge15" class="edge">
<title>Node16&#45;&gt;Node2</title>
<path fill="none" stroke="#9a32cd" stroke-dasharray="5,2" d="M1347.34,-182.48C1408.53,-183.62 1499.06,-185 1578,-185 1578,-185 1578,-185 2032.5,-185 2134.66,-185 2168.75,-166.11 2261,-210 2291.88,-224.69 2318.01,-256.06 2331.71,-274.86"/>
<polygon fill="#9a32cd" stroke="#9a32cd" points="1347.08,-178.97 1337.02,-182.28 1346.95,-185.97 1347.08,-178.97"/>
<text text-anchor="middle" x="1722.5" y="-188" font-family="Helvetica,sans-Serif" font-size="10.00"> _actions</text>
</g>
<!-- Node17 -->
<g id="node17" class="node">
<title>Node17</title>
<g id="a_node17"><a xlink:title="STL class.">
<polygon fill="white" stroke="#bfbfbf" points="836.5,-147.5 836.5,-166.5 901.5,-166.5 901.5,-147.5 836.5,-147.5"/>
<text text-anchor="middle" x="869" y="-154.5" font-family="Helvetica,sans-Serif" font-size="10.00">std::string</text>
</a>
</g>
</g>
<!-- Node17&#45;&gt;Node1 -->
<g id="edge38" class="edge">
<title>Node17&#45;&gt;Node1</title>
<path fill="none" stroke="#9a32cd" stroke-dasharray="5,2" d="M911.61,-151.91C961.25,-146.28 1046.8,-138 1120.5,-138 1120.5,-138 1120.5,-138 2344,-138 2376.93,-138 2413.58,-138 2443.83,-138"/>
<polygon fill="#9a32cd" stroke="#9a32cd" points="911.11,-148.44 901.58,-153.06 911.91,-155.39 911.11,-148.44"/>
<text text-anchor="middle" x="1722.5" y="-141" font-family="Helvetica,sans-Serif" font-size="10.00"> _controller</text>
</g>
<!-- Node17&#45;&gt;Node2 -->
<g id="edge30" class="edge">
<title>Node17&#45;&gt;Node2</title>
<path fill="none" stroke="#9a32cd" stroke-dasharray="5,2" d="M907.08,-169.65C922.1,-174.28 939.71,-179.1 956,-182 1068.72,-202.1 1098.7,-193.24 1213,-200 1618.1,-223.96 1722.54,-191.98 2125,-244 2179.23,-251.01 2240.07,-264.4 2283.49,-274.93"/>
<polygon fill="#9a32cd" stroke="#9a32cd" points="907.74,-166.19 897.15,-166.5 905.62,-172.86 907.74,-166.19"/>
<text text-anchor="middle" x="1579" y="-215" font-family="Helvetica,sans-Serif" font-size="10.00"> _localParticipant</text>
</g>
<!-- Node17&#45;&gt;Node16 -->
<g id="edge16" class="edge">
<title>Node17&#45;&gt;Node16</title>
<path fill="none" stroke="#9a32cd" stroke-dasharray="5,2" d="M911.69,-159.48C983.22,-163.73 1129.61,-172.42 1212.75,-177.36"/>
<polygon fill="#9a32cd" stroke="#9a32cd" points="911.89,-155.98 901.7,-158.88 911.48,-162.97 911.89,-155.98"/>
<text text-anchor="middle" x="993" y="-170" font-family="Helvetica,sans-Serif" font-size="10.00"> keys</text>
</g>
<!-- Node22 -->
<g id="node22" class="node">
<title>Node22</title>
<g id="a_node22"><a xlink:href="structprecice_1_1io_1_1TXTTableWriter_1_1Data.html" target="_top" xlink:title="Represents one data entry to be written.">
<polygon fill="white" stroke="black" points="1048,-251 1048,-281 1195,-281 1195,-251 1048,-251"/>
<text text-anchor="start" x="1056" y="-269" font-family="Helvetica,sans-Serif" font-size="10.00">precice::io::TXTTableWriter</text>
<text text-anchor="middle" x="1121.5" y="-258" font-family="Helvetica,sans-Serif" font-size="10.00">::Data</text>
</a>
</g>
</g>
<!-- Node17&#45;&gt;Node22 -->
<g id="edge23" class="edge">
<title>Node17&#45;&gt;Node22</title>
<path fill="none" stroke="#9a32cd" stroke-dasharray="5,2" d="M884.01,-174.78C899.55,-193.18 926.36,-221.25 956,-236 984.2,-250.03 1018.05,-257.56 1047.68,-261.57"/>
<polygon fill="#9a32cd" stroke="#9a32cd" points="886.37,-172.14 877.32,-166.62 880.96,-176.58 886.37,-172.14"/>
<text text-anchor="middle" x="993" y="-262" font-family="Helvetica,sans-Serif" font-size="10.00"> name</text>
</g>
<!-- Node29 -->
<g id="node29" class="node">
<title>Node29</title>
<g id="a_node29"><a xlink:title=" ">
<polygon fill="white" stroke="#bfbfbf" points="1060.5,-78 1060.5,-108 1182.5,-108 1182.5,-78 1060.5,-78"/>
<text text-anchor="start" x="1068.5" y="-96" font-family="Helvetica,sans-Serif" font-size="10.00">std::map&lt; std::string,</text>
<text text-anchor="middle" x="1121.5" y="-85" font-family="Helvetica,sans-Serif" font-size="10.00"> DataMap &gt;</text>
</a>
</g>
</g>
<!-- Node17&#45;&gt;Node29 -->
<g id="edge36" class="edge">
<title>Node17&#45;&gt;Node29</title>
<path fill="none" stroke="#9a32cd" stroke-dasharray="5,2" d="M893.42,-142.15C910.2,-132.25 933.67,-119.83 956,-113 989.7,-102.69 1028.81,-97.67 1060.45,-95.23"/>
<polygon fill="#9a32cd" stroke="#9a32cd" points="891.59,-139.17 884.84,-147.34 895.21,-145.16 891.59,-139.17"/>
<text text-anchor="middle" x="993" y="-116" font-family="Helvetica,sans-Serif" font-size="10.00"> keys</text>
</g>
<!-- Node33 -->
<g id="node33" class="node">
<title>Node33</title>
<g id="a_node33"><a xlink:title=" ">
<polygon fill="white" stroke="#bfbfbf" points="1060.5,-29 1060.5,-59 1182.5,-59 1182.5,-29 1060.5,-29"/>
<text text-anchor="start" x="1068.5" y="-47" font-family="Helvetica,sans-Serif" font-size="10.00">std::map&lt; std::string,</text>
<text text-anchor="middle" x="1121.5" y="-36" font-family="Helvetica,sans-Serif" font-size="10.00"> m2n::PtrM2N &gt;</text>
</a>
</g>
</g>
<!-- Node17&#45;&gt;Node33 -->
<g id="edge42" class="edge">
<title>Node17&#45;&gt;Node33</title>
<path fill="none" stroke="#9a32cd" stroke-dasharray="5,2" d="M891.94,-141.1C906.31,-129.92 924.79,-113.98 938,-97 948.74,-83.2 941.59,-71.91 956,-62 986.06,-41.33 1026.78,-36.73 1060.19,-37.36"/>
<polygon fill="#9a32cd" stroke="#9a32cd" points="889.47,-138.59 883.62,-147.42 893.7,-144.16 889.47,-138.59"/>
<text text-anchor="middle" x="993" y="-65" font-family="Helvetica,sans-Serif" font-size="10.00"> keys</text>
</g>
<!-- Node18 -->
<g id="node18" class="node">
<title>Node18</title>
<g id="a_node18"><a xlink:title="STL class.">
<polygon fill="white" stroke="#bfbfbf" points="596.5,-142 596.5,-172 700.5,-172 700.5,-142 596.5,-142"/>
<text text-anchor="start" x="604.5" y="-160" font-family="Helvetica,sans-Serif" font-size="10.00">std::basic_string&lt;</text>
<text text-anchor="middle" x="648.5" y="-149" font-family="Helvetica,sans-Serif" font-size="10.00"> char &gt;</text>
</a>
</g>
</g>
<!-- Node18&#45;&gt;Node17 -->
<g id="edge17" class="edge">
<title>Node18&#45;&gt;Node17</title>
<path fill="none" stroke="midnightblue" d="M710.85,-157C751.68,-157 803.63,-157 836.36,-157"/>
<polygon fill="midnightblue" stroke="midnightblue" points="710.73,-153.5 700.73,-157 710.73,-160.5 710.73,-153.5"/>
</g>
<!-- Node19 -->
<g id="node19" class="node">
<title>Node19</title>
<g id="a_node19"><a xlink:title=" ">
<polygon fill="white" stroke="#bfbfbf" points="1963.5,-303 1963.5,-333 2099.5,-333 2099.5,-303 1963.5,-303"/>
<text text-anchor="start" x="1971.5" y="-321" font-family="Helvetica,sans-Serif" font-size="10.00">std::shared_ptr&lt; precice</text>
<text text-anchor="middle" x="2031.5" y="-310" font-family="Helvetica,sans-Serif" font-size="10.00">::io::TXTTableWriter &gt;</text>
</a>
</g>
</g>
<!-- Node19&#45;&gt;Node2 -->
<g id="edge19" class="edge">
<title>Node19&#45;&gt;Node2</title>
<path fill="none" stroke="#9a32cd" stroke-dasharray="5,2" d="M2109.87,-311C2162.05,-306.28 2230.04,-300.13 2278.93,-295.71"/>
<polygon fill="#9a32cd" stroke="#9a32cd" points="2109.3,-307.54 2099.66,-311.92 2109.93,-314.51 2109.3,-307.54"/>
<text text-anchor="middle" x="2202" y="-321" font-family="Helvetica,sans-Serif" font-size="10.00"> _convergenceWriter</text>
<text text-anchor="middle" x="2202" y="-310" font-family="Helvetica,sans-Serif" font-size="10.00">_iterationsWriter</text>
</g>
<!-- Node20&#45;&gt;Node19 -->
<g id="edge20" class="edge">
<title>Node20&#45;&gt;Node19</title>
<path fill="none" stroke="#9a32cd" stroke-dasharray="5,2" d="M1806.55,-319.46C1855.7,-319.14 1917.16,-318.74 1963.25,-318.44"/>
<polygon fill="#9a32cd" stroke="#9a32cd" points="1806.23,-315.96 1796.25,-319.53 1806.28,-322.96 1806.23,-315.96"/>
<text text-anchor="middle" x="1872" y="-322" font-family="Helvetica,sans-Serif" font-size="10.00"> ptr</text>
</g>
<!-- Node21 -->
<g id="node21" class="node">
<title>Node21</title>
<g id="a_node21"><a xlink:title=" ">
<polygon fill="white" stroke="#bfbfbf" points="1379.5,-251.5 1379.5,-292.5 1494.5,-292.5 1494.5,-251.5 1379.5,-251.5"/>
<text text-anchor="start" x="1387.5" y="-280.5" font-family="Helvetica,sans-Serif" font-size="10.00">std::vector&lt; precice</text>
<text text-anchor="start" x="1387.5" y="-269.5" font-family="Helvetica,sans-Serif" font-size="10.00">::io::TXTTableWriter</text>
<text text-anchor="middle" x="1437" y="-258.5" font-family="Helvetica,sans-Serif" font-size="10.00">::Data &gt;</text>
</a>
</g>
</g>
<!-- Node21&#45;&gt;Node20 -->
<g id="edge21" class="edge">
<title>Node21&#45;&gt;Node20</title>
<path fill="none" stroke="#9a32cd" stroke-dasharray="5,2" d="M1504.82,-277.87C1539.63,-281.47 1582.79,-286.79 1621,-294 1644.02,-298.34 1669.58,-304.98 1689.16,-310.46"/>
<polygon fill="#9a32cd" stroke="#9a32cd" points="1505.07,-274.38 1494.77,-276.85 1504.37,-281.34 1505.07,-274.38"/>
<text text-anchor="middle" x="1579" y="-308" font-family="Helvetica,sans-Serif" font-size="10.00"> _writeIterator</text>
<text text-anchor="middle" x="1579" y="-297" font-family="Helvetica,sans-Serif" font-size="10.00">_data</text>
</g>
<!-- Node22&#45;&gt;Node21 -->
<g id="edge22" class="edge">
<title>Node22&#45;&gt;Node21</title>
<path fill="none" stroke="#9a32cd" stroke-dasharray="5,2" d="M1205.27,-267.58C1260.16,-268.63 1330.75,-269.99 1379.32,-270.92"/>
<polygon fill="#9a32cd" stroke="#9a32cd" points="1205.28,-264.08 1195.21,-267.39 1205.14,-271.08 1205.28,-264.08"/>
<text text-anchor="middle" x="1275" y="-274" font-family="Helvetica,sans-Serif" font-size="10.00"> elements</text>
</g>
<!-- Node23 -->
<g id="node23" class="node">
<title>Node23</title>
<g id="a_node23"><a xlink:title="STL class.">
<polygon fill="white" stroke="#bfbfbf" points="1396,-311.5 1396,-330.5 1478,-330.5 1478,-311.5 1396,-311.5"/>
<text text-anchor="middle" x="1437" y="-318.5" font-family="Helvetica,sans-Serif" font-size="10.00">std::ofstream</text>
</a>
</g>
</g>
<!-- Node23&#45;&gt;Node20 -->
<g id="edge25" class="edge">
<title>Node23&#45;&gt;Node20</title>
<path fill="none" stroke="#9a32cd" stroke-dasharray="5,2" d="M1488.03,-320.82C1532.63,-320.67 1598.44,-320.43 1648.83,-320.26"/>
<polygon fill="#9a32cd" stroke="#9a32cd" points="1488,-317.32 1478.02,-320.86 1488.03,-324.32 1488,-317.32"/>
<text text-anchor="middle" x="1579" y="-323" font-family="Helvetica,sans-Serif" font-size="10.00"> _outputStream</text>
</g>
<!-- Node24 -->
<g id="node24" class="node">
<title>Node24</title>
<g id="a_node24"><a xlink:title="STL class.">
<polygon fill="white" stroke="#bfbfbf" points="1065,-300 1065,-330 1178,-330 1178,-300 1065,-300"/>
<text text-anchor="start" x="1073" y="-318" font-family="Helvetica,sans-Serif" font-size="10.00">std::basic_ofstream</text>
<text text-anchor="middle" x="1121.5" y="-307" font-family="Helvetica,sans-Serif" font-size="10.00">&lt; char &gt;</text>
</a>
</g>
</g>
<!-- Node24&#45;&gt;Node23 -->
<g id="edge26" class="edge">
<title>Node24&#45;&gt;Node23</title>
<path fill="none" stroke="midnightblue" d="M1188.37,-316.26C1251.05,-317.46 1343.35,-319.23 1395.76,-320.23"/>
<polygon fill="midnightblue" stroke="midnightblue" points="1188.25,-312.76 1178.19,-316.07 1188.12,-319.76 1188.25,-312.76"/>
</g>
<!-- Node25 -->
<g id="node25" class="node">
<title>Node25</title>
<g id="a_node25"><a xlink:title="STL class.">
<polygon fill="white" stroke="#bfbfbf" points="814.5,-300 814.5,-330 923.5,-330 923.5,-300 814.5,-300"/>
<text text-anchor="start" x="822.5" y="-318" font-family="Helvetica,sans-Serif" font-size="10.00">std::basic_ostream</text>
<text text-anchor="middle" x="869" y="-307" font-family="Helvetica,sans-Serif" font-size="10.00">&lt; Char &gt;</text>
</a>
</g>
</g>
<!-- Node25&#45;&gt;Node24 -->
<g id="edge27" class="edge">
<title>Node25&#45;&gt;Node24</title>
<path fill="none" stroke="midnightblue" d="M933.75,-315C974.15,-315 1025.91,-315 1064.68,-315"/>
<polygon fill="midnightblue" stroke="midnightblue" points="933.74,-311.5 923.74,-315 933.74,-318.5 933.74,-311.5"/>
</g>
<!-- Node26 -->
<g id="node26" class="node">
<title>Node26</title>
<g id="a_node26"><a xlink:title="STL class.">
<polygon fill="white" stroke="#bfbfbf" points="584.5,-305.5 584.5,-324.5 712.5,-324.5 712.5,-305.5 584.5,-305.5"/>
<text text-anchor="middle" x="648.5" y="-312.5" font-family="Helvetica,sans-Serif" font-size="10.00">std::basic_ios&lt; Char &gt;</text>
</a>
</g>
</g>
<!-- Node26&#45;&gt;Node25 -->
<g id="edge28" class="edge">
<title>Node26&#45;&gt;Node25</title>
<path fill="none" stroke="midnightblue" d="M723.07,-315C752.9,-315 786.72,-315 814.19,-315"/>
<polygon fill="midnightblue" stroke="midnightblue" points="722.7,-311.5 712.7,-315 722.7,-318.5 722.7,-311.5"/>
</g>
<!-- Node27 -->
<g id="node27" class="node">
<title>Node27</title>
<g id="a_node27"><a xlink:title="STL class.">
<polygon fill="white" stroke="#bfbfbf" points="390,-305.5 390,-324.5 470,-324.5 470,-305.5 390,-305.5"/>
<text text-anchor="middle" x="430" y="-312.5" font-family="Helvetica,sans-Serif" font-size="10.00">std::ios_base</text>
</a>
</g>
</g>
<!-- Node27&#45;&gt;Node26 -->
<g id="edge29" class="edge">
<title>Node27&#45;&gt;Node26</title>
<path fill="none" stroke="midnightblue" d="M480.3,-315C511.15,-315 551.21,-315 584.38,-315"/>
<polygon fill="midnightblue" stroke="midnightblue" points="480.21,-311.5 470.21,-315 480.21,-318.5 480.21,-311.5"/>
</g>
<!-- Node28 -->
<g id="node28" class="node">
<title>Node28</title>
<g id="a_node28"><a xlink:title=" ">
<polygon fill="white" stroke="#bfbfbf" points="1945,-352.5 1945,-371.5 2118,-371.5 2118,-352.5 1945,-352.5"/>
<text text-anchor="middle" x="2031.5" y="-359.5" font-family="Helvetica,sans-Serif" font-size="10.00">std::shared_ptr&lt; Acceleration &gt;</text>
</a>
</g>
</g>
<!-- Node28&#45;&gt;Node2 -->
<g id="edge31" class="edge">
<title>Node28&#45;&gt;Node2</title>
<path fill="none" stroke="#9a32cd" stroke-dasharray="5,2" d="M2128.3,-357.58C2169.83,-353.7 2218.57,-346.46 2261,-333 2281.64,-326.45 2303.21,-314.73 2318.9,-305.17"/>
<polygon fill="#9a32cd" stroke="#9a32cd" points="2127.83,-354.11 2118.18,-358.47 2128.45,-361.08 2127.83,-354.11"/>
<text text-anchor="middle" x="2202" y="-358" font-family="Helvetica,sans-Serif" font-size="10.00"> _acceleration</text>
</g>
<!-- Node29&#45;&gt;Node1 -->
<g id="edge32" class="edge">
<title>Node29&#45;&gt;Node1</title>
<path fill="none" stroke="#9a32cd" stroke-dasharray="5,2" d="M1192.9,-92.65C1256.44,-92.36 1352.48,-92 1436,-92 1436,-92 1436,-92 2344,-92 2390.59,-92 2441.95,-109.52 2474.45,-122.94"/>
<polygon fill="#9a32cd" stroke="#9a32cd" points="1192.58,-89.15 1182.6,-92.69 1192.62,-96.15 1192.58,-89.15"/>
<text text-anchor="middle" x="1872" y="-106" font-family="Helvetica,sans-Serif" font-size="10.00"> _sendDataVector</text>
<text text-anchor="middle" x="1872" y="-95" font-family="Helvetica,sans-Serif" font-size="10.00">_receiveDataVector</text>
</g>
<!-- Node30 -->
<g id="node30" class="node">
<title>Node30</title>
<g id="a_node30"><a xlink:title="STL class.">
<polygon fill="white" stroke="#bfbfbf" points="818.5,-68.5 818.5,-87.5 919.5,-87.5 919.5,-68.5 818.5,-68.5"/>
<text text-anchor="middle" x="869" y="-75.5" font-family="Helvetica,sans-Serif" font-size="10.00">std::map&lt; K, T &gt;</text>
</a>
</g>
</g>
<!-- Node30&#45;&gt;Node29 -->
<g id="edge33" class="edge">
<title>Node30&#45;&gt;Node29</title>
<path fill="none" stroke="#9a32cd" stroke-dasharray="5,2" d="M930.13,-76.29C960.18,-75.96 997.06,-76.36 1030,-79 1039.83,-79.79 1050.2,-81.01 1060.28,-82.42"/>
<polygon fill="#9a32cd" stroke="#9a32cd" points="929.76,-72.79 919.81,-76.43 929.86,-79.79 929.76,-72.79"/>
<text text-anchor="middle" x="993" y="-82" font-family="Helvetica,sans-Serif" font-size="10.00"> elements</text>
</g>
<!-- Node31 -->
<g id="node31" class="node">
<title>Node31</title>
<g id="a_node31"><a xlink:title=" ">
<polygon fill="white" stroke="#bfbfbf" points="634,-68.5 634,-87.5 663,-87.5 663,-68.5 634,-68.5"/>
<text text-anchor="middle" x="648.5" y="-75.5" font-family="Helvetica,sans-Serif" font-size="10.00">K</text>
</a>
</g>
</g>
<!-- Node31&#45;&gt;Node30 -->
<g id="edge34" class="edge">
<title>Node31&#45;&gt;Node30</title>
<path fill="none" stroke="#9a32cd" stroke-dasharray="5,2" d="M673.26,-78C707.82,-78 772.79,-78 818.14,-78"/>
<polygon fill="#9a32cd" stroke="#9a32cd" points="673.17,-74.5 663.17,-78 673.17,-81.5 673.17,-74.5"/>
<text text-anchor="middle" x="757.5" y="-81" font-family="Helvetica,sans-Serif" font-size="10.00"> keys</text>
</g>
<!-- Node32 -->
<g id="node32" class="node">
<title>Node32</title>
<g id="a_node32"><a xlink:title=" ">
<polygon fill="white" stroke="#bfbfbf" points="634,-15.5 634,-34.5 663,-34.5 663,-15.5 634,-15.5"/>
<text text-anchor="middle" x="648.5" y="-22.5" font-family="Helvetica,sans-Serif" font-size="10.00">T</text>
</a>
</g>
</g>
<!-- Node32&#45;&gt;Node30 -->
<g id="edge35" class="edge">
<title>Node32&#45;&gt;Node30</title>
<path fill="none" stroke="#9a32cd" stroke-dasharray="5,2" d="M673.09,-30.72C710.32,-39.75 783.1,-57.41 828.42,-68.4"/>
<polygon fill="#9a32cd" stroke="#9a32cd" points="673.71,-27.27 663.17,-28.32 672.06,-34.07 673.71,-27.27"/>
<text text-anchor="middle" x="757.5" y="-60" font-family="Helvetica,sans-Serif" font-size="10.00"> elements</text>
</g>
<!-- Node34 -->
<g id="node34" class="node">
<title>Node34</title>
<g id="a_node34"><a xlink:title="STL class.">
<polygon fill="white" stroke="#bfbfbf" points="810,-0.5 810,-19.5 928,-19.5 928,-0.5 810,-0.5"/>
<text text-anchor="middle" x="869" y="-7.5" font-family="Helvetica,sans-Serif" font-size="10.00">std::shared_ptr&lt; T &gt;</text>
</a>
</g>
</g>
<!-- Node32&#45;&gt;Node34 -->
<g id="edge41" class="edge">
<title>Node32&#45;&gt;Node34</title>
<path fill="none" stroke="#9a32cd" stroke-dasharray="5,2" d="M672.96,-20.04C689.63,-16.77 712.58,-12.78 733,-11 758.1,-8.82 785.93,-8.29 809.76,-8.42"/>
<polygon fill="#9a32cd" stroke="#9a32cd" points="672.12,-16.64 663.01,-22.05 673.51,-23.5 672.12,-16.64"/>
<text text-anchor="middle" x="757.5" y="-14" font-family="Helvetica,sans-Serif" font-size="10.00"> ptr</text>
</g>
<!-- Node33&#45;&gt;Node1 -->
<g id="edge39" class="edge">
<title>Node33&#45;&gt;Node1</title>
<path fill="none" stroke="#9a32cd" stroke-dasharray="5,2" d="M1192.9,-45.76C1256.43,-47.2 1352.47,-49 1436,-49 1436,-49 1436,-49 2344,-49 2405.08,-49 2465.09,-97.51 2492.32,-122.9"/>
<polygon fill="#9a32cd" stroke="#9a32cd" points="1192.67,-42.26 1182.6,-45.53 1192.51,-49.26 1192.67,-42.26"/>
<text text-anchor="middle" x="1872" y="-52" font-family="Helvetica,sans-Serif" font-size="10.00"> _m2ns</text>
</g>
<!-- Node34&#45;&gt;Node33 -->
<g id="edge40" class="edge">
<title>Node34&#45;&gt;Node33</title>
<path fill="none" stroke="#9a32cd" stroke-dasharray="5,2" d="M938.47,-5.3C966.98,-4.67 1000.29,-5.66 1030,-11 1049.75,-14.55 1070.87,-22.03 1087.74,-28.96"/>
<polygon fill="#9a32cd" stroke="#9a32cd" points="938.1,-1.81 928.2,-5.6 938.3,-8.81 938.1,-1.81"/>
<text text-anchor="middle" x="993" y="-14" font-family="Helvetica,sans-Serif" font-size="10.00"> elements</text>
</g>
</g>
</svg>
        <g id="navigator" transform="translate(0 0)" fill="#404254">
                <rect fill="#f2f5e9" fill-opacity="0.5" stroke="#606060" stroke-width=".5" x="0" y="0" width="60" height="60"/>
                <use id="zoomplus" xlink:href="#zoomPlus" x="17" y="9" onmousedown="handleZoom(evt,'in')"/>
                <use id="zoomminus" xlink:href="#zoomMin" x="42" y="9" onmousedown="handleZoom(evt,'out')"/>
                <use id="reset" xlink:href="#resetDef" x="30" y="36" onmousedown="handleReset()"/>
                <g id="arrowUp" xlink:href="#dirArrow" transform="translate(30 24)" onmousedown="handlePan(0,-1)">
                  <use xlink:href="#rim" fill="#404040">
                        <set attributeName="fill" to="#808080" begin="arrowUp.mouseover" end="arrowUp.mouseout"/>
                  </use>
                  <path fill="none" stroke="white" stroke-width="1.5" d="M0,-3.0v7 M-2.5,-0.5L0,-3.0L2.5,-0.5"/>
                </g>
                <g id="arrowRight" xlink:href="#dirArrow" transform="rotate(90) translate(36 -43)" onmousedown="handlePan(1,0)">
                  <use xlink:href="#rim" fill="#404040">
                        <set attributeName="fill" to="#808080" begin="arrowRight.mouseover" end="arrowRight.mouseout"/>
                  </use>
                  <path fill="none" stroke="white" stroke-width="1.5" d="M0,-3.0v7 M-2.5,-0.5L0,-3.0L2.5,-0.5"/>
                </g>
                <g id="arrowDown" xlink:href="#dirArrow" transform="rotate(180) translate(-30 -48)" onmousedown="handlePan(0,1)">
                  <use xlink:href="#rim" fill="#404040">
                        <set attributeName="fill" to="#808080" begin="arrowDown.mouseover" end="arrowDown.mouseout"/>
                  </use>
                  <path fill="none" stroke="white" stroke-width="1.5" d="M0,-3.0v7 M-2.5,-0.5L0,-3.0L2.5,-0.5"/>
                </g>
                <g id="arrowLeft" xlink:href="#dirArrow" transform="rotate(270) translate(-36 17)" onmousedown="handlePan(-1,0)">
                  <use xlink:href="#rim" fill="#404040">
                        <set attributeName="fill" to="#808080" begin="arrowLeft.mouseover" end="arrowLeft.mouseout"/>
                  </use>
                  <path fill="none" stroke="white" stroke-width="1.5" d="M0,-3.0v7 M-2.5,-0.5L0,-3.0L2.5,-0.5"/>
                </g>
        </g>
        <svg viewBox="0 0 15 15" width="100%" height="30px" preserveAspectRatio="xMaxYMin meet">
         <g id="arrow_out" transform="scale(0.3 0.3)">
          <a xlink:href="classprecice_1_1cplscheme_1_1MultiCouplingScheme__coll__graph_org.svg" target="_base">
           <rect id="button" ry="5" rx="5" y="6" x="6" height="38" width="38"
                fill="#f2f5e9" fill-opacity="0.5" stroke="#606060" stroke-width="1.0"/>
           <path id="arrow"
             d="M 11.500037,31.436501 C 11.940474,20.09759 22.043105,11.32322 32.158766,21.979434 L 37.068811,17.246167 C 37.068811,17.246167 37.088388,32 37.088388,32 L 22.160133,31.978069 C 22.160133,31.978069 26.997745,27.140456 26.997745,27.140456 C 18.528582,18.264221 13.291696,25.230495 11.500037,31.436501 z"
             style="fill:#404040;"/>
          </a>
         </g>
        </svg>
</svg>
