<?xml version="1.0" encoding="UTF-8" standalone="no"?>
<!DOCTYPE svg PUBLIC "-//W3C//DTD SVG 1.1//EN"
 "http://www.w3.org/Graphics/SVG/1.1/DTD/svg11.dtd">
<!-- Generated by graphviz version 2.43.0 (0)
 -->
<!-- Title: precice::cplscheme::SerialCouplingScheme::exchangeFirstData Pages: 1 -->
<!--zoomable 1043 -->

<svg id="main" version="1.1" xmlns="http://www.w3.org/2000/svg" xmlns:xlink="http://www.w3.org/1999/xlink" xml:space="preserve" onload="init(evt)">

<style type="text/css"><![CDATA[
.node, .edge {opacity: 0.7;}
.node.selected, .edge.selected {opacity: 1;}
.edge:hover path { stroke: red; }
.edge:hover polygon { stroke: red; fill: red; }
]]></style>

<defs>
  <circle id="rim" cx="0" cy="0" r="7"/>
  <circle id="rim2" cx="0" cy="0" r="3.5"/>
  <g id="zoomPlus">
    <use xlink:href="#rim" fill="#404040"><set attributeName="fill" to="#808080" begin="zoomplus.mouseover" end="zoomplus.mouseout"/></use>
    <path d="M-4,0h8M0,-4v8" fill="none" stroke="white" stroke-width="1.5" pointer-events="none"/>
  </g>
  <g id="zoomMin">
    <use xlink:href="#rim" fill="#404040"><set attributeName="fill" to="#808080" begin="zoomminus.mouseover" end="zoomminus.mouseout"/></use>
    <path d="M-4,0h8" fill="none" stroke="white" stroke-width="1.5" pointer-events="none"/>
  </g>
  <g id="arrowUp" transform="translate(30 24)">
    <use xlink:href="#rim"/>
    <path pointer-events="none" fill="none" stroke="white" stroke-width="1.5" d="M0,-3.0v7 M-2.5,-0.5L0,-3.0L2.5,-0.5"/>
  </g>
  <g id="arrowRight" transform="rotate(90) translate(36 -43)">
    <use xlink:href="#rim"/>
    <path pointer-events="none" fill="none" stroke="white" stroke-width="1.5" d="M0,-3.0v7 M-2.5,-0.5L0,-3.0L2.5,-0.5"/>
  </g>
  <g id="arrowDown" transform="rotate(180) translate(-30 -48)">
    <use xlink:href="#rim"/>
    <path pointer-events="none" fill="none" stroke="white" stroke-width="1.5" d="M0,-3.0v7 M-2.5,-0.5L0,-3.0L2.5,-0.5"/>
  </g>
  <g id="arrowLeft" transform="rotate(270) translate(-36 17)">
    <use xlink:href="#rim"/>
    <path pointer-events="none" fill="none" stroke="white" stroke-width="1.5" d="M0,-3.0v7 M-2.5,-0.5L0,-3.0L2.5,-0.5"/>
  </g>
  <g id="resetDef">
    <use xlink:href="#rim2" fill="#404040"><set attributeName="fill" to="#808080" begin="reset.mouseover" end="reset.mouseout"/></use>
  </g>
</defs>
<script type="application/ecmascript">
var viewWidth = 874;
var viewHeight = 1043;
var sectionId = 'dynsection-4';
</script>
<script type="application/ecmascript" xlink:href="svg.min.js"/>
<svg id="graph" class="graph">
<g id="viewport">
<title>precice::cplscheme::SerialCouplingScheme::exchangeFirstData</title>
<!-- Node1 -->
<g id="Node000001" class="node">
<title>Node1</title>
<g id="a_Node000001"><a xlink:title="Functions needed for advance()">
<polygon fill="#999999" stroke="#666666" points="132,-559 0,-559 0,-518 132,-518 132,-559"/>
<text text-anchor="start" x="8" y="-547" font-family="Helvetica,sans-Serif" font-size="10.00">precice::cplscheme</text>
<text text-anchor="start" x="8" y="-536" font-family="Helvetica,sans-Serif" font-size="10.00">::SerialCouplingScheme</text>
<text text-anchor="middle" x="66" y="-525" font-family="Helvetica,sans-Serif" font-size="10.00">::exchangeFirstData</text>
</a>
</g>
</g>
<!-- Node2 -->
<g id="Node000002" class="node">
<title>Node2</title>
<g id="a_Node000002"><a xlink:href="classprecice_1_1cplscheme_1_1BaseCouplingScheme.html#af880c679675d59efcf00b0b9fd984f6e" target="_top" xlink:title="Getter for _doesFirstStep.">
<polygon fill="white" stroke="#666666" points="702,-865 574,-865 574,-824 702,-824 702,-865"/>
<text text-anchor="start" x="582" y="-853" font-family="Helvetica,sans-Serif" font-size="10.00">precice::cplscheme</text>
<text text-anchor="start" x="582" y="-842" font-family="Helvetica,sans-Serif" font-size="10.00">::BaseCouplingScheme</text>
<text text-anchor="middle" x="638" y="-831" font-family="Helvetica,sans-Serif" font-size="10.00">::doesFirstStep</text>
</a>
</g>
</g>
<!-- Node1&#45;&gt;Node2 -->
<g id="edge1_Node000001_Node000002" class="edge">
<title>Node1&#45;&gt;Node2</title>
<g id="a_edge1_Node000001_Node000002"><a xlink:title=" ">
<path fill="none" stroke="#63b8ff" d="M72.91,-559.11C84.97,-597.9 115.75,-682.54 168,-734.5 274.04,-839.93 460.73,-851.75 563.69,-849.29"/>
<polygon fill="#63b8ff" stroke="#63b8ff" points="563.8,-852.79 573.7,-849 563.6,-845.79 563.8,-852.79"/>
</a>
</g>
</g>
<!-- Node3 -->
<g id="Node000003" class="node">
<title>Node3</title>
<g id="a_Node000003"><a xlink:href="classprecice_1_1cplscheme_1_1BaseCouplingScheme.html#a9790b690d1fd321e573b8bbbbf3f3009" target="_top" xlink:title="perform a coupling iteration">
<polygon fill="white" stroke="#666666" points="306.5,-917 178.5,-917 178.5,-876 306.5,-876 306.5,-917"/>
<text text-anchor="start" x="186.5" y="-905" font-family="Helvetica,sans-Serif" font-size="10.00">precice::cplscheme</text>
<text text-anchor="start" x="186.5" y="-894" font-family="Helvetica,sans-Serif" font-size="10.00">::BaseCouplingScheme</text>
<text text-anchor="middle" x="242.5" y="-883" font-family="Helvetica,sans-Serif" font-size="10.00">::doImplicitStep</text>
</a>
</g>
</g>
<!-- Node1&#45;&gt;Node3 -->
<g id="edge2_Node000001_Node000003" class="edge">
<title>Node1&#45;&gt;Node3</title>
<g id="a_edge2_Node000001_Node000003"><a xlink:title=" ">
<path fill="none" stroke="#63b8ff" d="M67.92,-559.37C71.45,-615.15 88.29,-769.64 168,-861.5 170.63,-864.54 173.59,-867.33 176.76,-869.9"/>
<polygon fill="#63b8ff" stroke="#63b8ff" points="174.87,-872.85 185.04,-875.82 178.95,-867.15 174.87,-872.85"/>
</a>
</g>
</g>
<!-- Node6 -->
<g id="Node000006" class="node">
<title>Node6</title>
<g id="a_Node000006"><a xlink:href="classprecice_1_1cplscheme_1_1BaseCouplingScheme.html#ac12278b409b70f27a135701e12cbcf3f" target="_top" xlink:title=" ">
<polygon fill="white" stroke="#666666" points="506.5,-819 378.5,-819 378.5,-778 506.5,-778 506.5,-819"/>
<text text-anchor="start" x="386.5" y="-807" font-family="Helvetica,sans-Serif" font-size="10.00">precice::cplscheme</text>
<text text-anchor="start" x="386.5" y="-796" font-family="Helvetica,sans-Serif" font-size="10.00">::BaseCouplingScheme</text>
<text text-anchor="middle" x="442.5" y="-785" font-family="Helvetica,sans-Serif" font-size="10.00">::getWindowEndTime</text>
</a>
</g>
</g>
<!-- Node1&#45;&gt;Node6 -->
<g id="edge16_Node000001_Node000006" class="edge">
<title>Node1&#45;&gt;Node6</title>
<g id="a_edge16_Node000001_Node000006"><a xlink:title=" ">
<path fill="none" stroke="#63b8ff" d="M77.29,-559.48C93.07,-589.79 125.9,-645.96 168,-680.5 227.36,-729.21 309.87,-761.11 368.71,-779.32"/>
<polygon fill="#63b8ff" stroke="#63b8ff" points="367.72,-782.67 378.31,-782.23 369.75,-775.98 367.72,-782.67"/>
</a>
</g>
</g>
<!-- Node8 -->
<g id="Node000008" class="node">
<title>Node8</title>
<g id="a_Node000008"><a xlink:href="namespaceprecice_1_1math.html#a0e86802cfe992deba131d789d035b5b7" target="_top" xlink:title="Compares two Eigen::MatrixBase for equality up to tolerance.">
<polygon fill="white" stroke="#666666" points="866,-390 744,-390 744,-371 866,-371 866,-390"/>
<text text-anchor="middle" x="805" y="-378" font-family="Helvetica,sans-Serif" font-size="10.00">precice::math::equals</text>
</a>
</g>
</g>
<!-- Node1&#45;&gt;Node8 -->
<g id="edge12_Node000001_Node000008" class="edge">
<title>Node1&#45;&gt;Node8</title>
<g id="a_edge12_Node000001_Node000008"><a xlink:title=" ">
<path fill="none" stroke="#63b8ff" d="M75.63,-517.81C90.01,-485.86 121.92,-424.74 168,-391.5 223.9,-351.18 256.38,-381.3 317,-348.5 335.57,-338.45 333.21,-324.85 353,-317.5 504.09,-261.41 700.52,-334.59 774.29,-366.74"/>
<polygon fill="#63b8ff" stroke="#63b8ff" points="772.9,-369.95 783.46,-370.8 775.74,-363.55 772.9,-369.95"/>
</a>
</g>
</g>
<!-- Node12 -->
<g id="Node000012" class="node">
<title>Node12</title>
<g id="a_Node000012"><a xlink:href="classprecice_1_1cplscheme_1_1BiCouplingScheme.html#ae90273efd5e7a1ba0b91b5e09fd971ac" target="_top" xlink:title=" ">
<polygon fill="white" stroke="#666666" points="502.5,-603 382.5,-603 382.5,-562 502.5,-562 502.5,-603"/>
<text text-anchor="start" x="390.5" y="-591" font-family="Helvetica,sans-Serif" font-size="10.00">precice::cplscheme</text>
<text text-anchor="start" x="390.5" y="-580" font-family="Helvetica,sans-Serif" font-size="10.00">::BiCouplingScheme::</text>
<text text-anchor="middle" x="442.5" y="-569" font-family="Helvetica,sans-Serif" font-size="10.00">getM2N</text>
</a>
</g>
</g>
<!-- Node1&#45;&gt;Node12 -->
<g id="edge13_Node000001_Node000012" class="edge">
<title>Node1&#45;&gt;Node12</title>
<g id="a_edge13_Node000001_Node000012"><a xlink:title=" ">
<path fill="none" stroke="#63b8ff" d="M132.23,-546.16C199.31,-554.04 303.38,-566.27 371.98,-574.33"/>
<polygon fill="#63b8ff" stroke="#63b8ff" points="371.92,-577.85 382.26,-575.54 372.73,-570.9 371.92,-577.85"/>
</a>
</g>
</g>
<!-- Node13 -->
<g id="Node000013" class="node">
<title>Node13</title>
<g id="a_Node000013"><a xlink:href="classprecice_1_1cplscheme_1_1BiCouplingScheme.html#a53be61eb89bfff98ada4a33c3ba00545" target="_top" xlink:title="Returns all data to be sent.">
<polygon fill="white" stroke="#666666" points="302.5,-339 182.5,-339 182.5,-298 302.5,-298 302.5,-339"/>
<text text-anchor="start" x="190.5" y="-327" font-family="Helvetica,sans-Serif" font-size="10.00">precice::cplscheme</text>
<text text-anchor="start" x="190.5" y="-316" font-family="Helvetica,sans-Serif" font-size="10.00">::BiCouplingScheme::</text>
<text text-anchor="middle" x="242.5" y="-305" font-family="Helvetica,sans-Serif" font-size="10.00">getSendData</text>
</a>
</g>
</g>
<!-- Node1&#45;&gt;Node13 -->
<g id="edge14_Node000001_Node000013" class="edge">
<title>Node1&#45;&gt;Node13</title>
<g id="a_edge14_Node000001_Node000013"><a xlink:title=" ">
<path fill="none" stroke="#63b8ff" d="M73.51,-517.77C86.16,-480.46 117.36,-401.41 168,-353.5 171.47,-350.21 175.31,-347.18 179.36,-344.4"/>
<polygon fill="#63b8ff" stroke="#63b8ff" points="181.31,-347.31 187.92,-339.03 177.59,-341.38 181.31,-347.31"/>
</a>
</g>
</g>
<!-- Node14 -->
<g id="Node000014" class="node">
<title>Node14</title>
<g id="a_Node000014"><a xlink:href="classprecice_1_1cplscheme_1_1BaseCouplingScheme.html#a9b2b8a399d66b14dd68a35db5347d308" target="_top" xlink:title="getter for _time">
<polygon fill="white" stroke="#666666" points="506.5,-367 378.5,-367 378.5,-326 506.5,-326 506.5,-367"/>
<text text-anchor="start" x="386.5" y="-355" font-family="Helvetica,sans-Serif" font-size="10.00">precice::cplscheme</text>
<text text-anchor="start" x="386.5" y="-344" font-family="Helvetica,sans-Serif" font-size="10.00">::BaseCouplingScheme</text>
<text text-anchor="middle" x="442.5" y="-333" font-family="Helvetica,sans-Serif" font-size="10.00">::getTime</text>
</a>
</g>
</g>
<!-- Node1&#45;&gt;Node14 -->
<g id="edge15_Node000001_Node000014" class="edge">
<title>Node1&#45;&gt;Node14</title>
<g id="a_edge15_Node000001_Node000014"><a xlink:title=" ">
<path fill="none" stroke="#63b8ff" d="M98.56,-517.99C150.2,-485.04 256.65,-419.65 353,-376.5 358,-374.26 363.21,-372.09 368.51,-370.01"/>
<polygon fill="#63b8ff" stroke="#63b8ff" points="369.98,-373.2 378.09,-366.37 367.5,-366.65 369.98,-373.2"/>
</a>
</g>
</g>
<!-- Node15 -->
<g id="Node000015" class="node">
<title>Node15</title>
<g id="a_Node000015"><a xlink:href="classprecice_1_1cplscheme_1_1BaseCouplingScheme.html#a38eb9e294c701da2259e803d184710ee" target="_top" xlink:title="Function to determine whether coupling scheme is an explicit coupling scheme.">
<polygon fill="white" stroke="#666666" points="317,-280 168,-280 168,-239 317,-239 317,-280"/>
<text text-anchor="start" x="176" y="-268" font-family="Helvetica,sans-Serif" font-size="10.00">precice::cplscheme</text>
<text text-anchor="start" x="176" y="-257" font-family="Helvetica,sans-Serif" font-size="10.00">::BaseCouplingScheme</text>
<text text-anchor="middle" x="242.5" y="-246" font-family="Helvetica,sans-Serif" font-size="10.00">::isExplicitCouplingScheme</text>
</a>
</g>
</g>
<!-- Node1&#45;&gt;Node15 -->
<g id="edge17_Node000001_Node000015" class="edge">
<title>Node1&#45;&gt;Node15</title>
<g id="a_edge17_Node000001_Node000015"><a xlink:title=" ">
<path fill="none" stroke="#63b8ff" d="M69.87,-517.8C77.4,-470.95 101.93,-355.71 168,-289.5 169.1,-288.4 170.24,-287.34 171.42,-286.32"/>
<polygon fill="#63b8ff" stroke="#63b8ff" points="173.81,-288.9 179.72,-280.11 169.61,-283.3 173.81,-288.9"/>
</a>
</g>
</g>
<!-- Node16 -->
<g id="Node000016" class="node">
<title>Node16</title>
<g id="a_Node000016"><a xlink:href="classprecice_1_1cplscheme_1_1BaseCouplingScheme.html#a4dcb97e3ef79b1cca6af577f9cbbec19" target="_top" xlink:title="Function to determine whether coupling scheme is an implicit coupling scheme.">
<polygon fill="white" stroke="#666666" points="517,-662 368,-662 368,-621 517,-621 517,-662"/>
<text text-anchor="start" x="376" y="-650" font-family="Helvetica,sans-Serif" font-size="10.00">precice::cplscheme</text>
<text text-anchor="start" x="376" y="-639" font-family="Helvetica,sans-Serif" font-size="10.00">::BaseCouplingScheme</text>
<text text-anchor="middle" x="442.5" y="-628" font-family="Helvetica,sans-Serif" font-size="10.00">::isImplicitCouplingScheme</text>
</a>
</g>
</g>
<!-- Node1&#45;&gt;Node16 -->
<g id="edge18_Node000001_Node000016" class="edge">
<title>Node1&#45;&gt;Node16</title>
<g id="a_edge18_Node000001_Node000016"><a xlink:title=" ">
<path fill="none" stroke="#63b8ff" d="M125.5,-559.05C139.37,-563.68 154.15,-568.43 168,-572.5 231.25,-591.09 303.61,-609.21 358.01,-622.21"/>
<polygon fill="#63b8ff" stroke="#63b8ff" points="357.41,-625.67 367.95,-624.58 359.03,-618.86 357.41,-625.67"/>
</a>
</g>
</g>
<!-- Node17 -->
<g id="Node000017" class="node">
<title>Node17</title>
<g id="a_Node000017"><a xlink:href="classprecice_1_1cplscheme_1_1BaseCouplingScheme.html#a5c334c28ef390d96c0f6d10919f8ed07" target="_top" xlink:title="sends convergence to other participant via m2n">
<polygon fill="white" stroke="#666666" points="306.5,-671 178.5,-671 178.5,-630 306.5,-630 306.5,-671"/>
<text text-anchor="start" x="186.5" y="-659" font-family="Helvetica,sans-Serif" font-size="10.00">precice::cplscheme</text>
<text text-anchor="start" x="186.5" y="-648" font-family="Helvetica,sans-Serif" font-size="10.00">::BaseCouplingScheme</text>
<text text-anchor="middle" x="242.5" y="-637" font-family="Helvetica,sans-Serif" font-size="10.00">::sendConvergence</text>
</a>
</g>
</g>
<!-- Node1&#45;&gt;Node17 -->
<g id="edge19_Node000001_Node000017" class="edge">
<title>Node1&#45;&gt;Node17</title>
<g id="a_edge19_Node000001_Node000017"><a xlink:title=" ">
<path fill="none" stroke="#63b8ff" d="M91.29,-559.31C111.14,-575.73 140.33,-598.62 168,-615.5 173.46,-618.83 179.29,-622.08 185.19,-625.17"/>
<polygon fill="#63b8ff" stroke="#63b8ff" points="183.97,-628.48 194.47,-629.89 187.14,-622.24 183.97,-628.48"/>
</a>
</g>
</g>
<!-- Node18 -->
<g id="Node000018" class="node">
<title>Node18</title>
<g id="a_Node000018"><a xlink:href="classprecice_1_1cplscheme_1_1BaseCouplingScheme.html#a3aa71af66bf740fa8d9182b47db7dac3" target="_top" xlink:title="Sends data sendDataIDs given in mapCouplingData with communication.">
<polygon fill="white" stroke="#666666" points="306.5,-203 178.5,-203 178.5,-162 306.5,-162 306.5,-203"/>
<text text-anchor="start" x="186.5" y="-191" font-family="Helvetica,sans-Serif" font-size="10.00">precice::cplscheme</text>
<text text-anchor="start" x="186.5" y="-180" font-family="Helvetica,sans-Serif" font-size="10.00">::BaseCouplingScheme</text>
<text text-anchor="middle" x="242.5" y="-169" font-family="Helvetica,sans-Serif" font-size="10.00">::sendData</text>
</a>
</g>
</g>
<!-- Node1&#45;&gt;Node18 -->
<g id="edge22_Node000001_Node000018" class="edge">
<title>Node1&#45;&gt;Node18</title>
<g id="a_edge22_Node000001_Node000018"><a xlink:title=" ">
<path fill="none" stroke="#63b8ff" d="M69.02,-517.98C75.14,-465.16 97.59,-322.24 168,-230.5 174.33,-222.25 182.5,-214.99 191.09,-208.78"/>
<polygon fill="#63b8ff" stroke="#63b8ff" points="193.09,-211.66 199.4,-203.15 189.16,-205.86 193.09,-211.66"/>
</a>
</g>
</g>
<!-- Node26 -->
<g id="Node000026" class="node">
<title>Node26</title>
<g id="a_Node000026"><a xlink:href="classprecice_1_1cplscheme_1_1SerialCouplingScheme.html#a6f25d1c766d969ff1d279b861a14f7d3" target="_top" xlink:title="Sends time window size, if this participant is the one to send.">
<polygon fill="white" stroke="#666666" points="308.5,-535 176.5,-535 176.5,-494 308.5,-494 308.5,-535"/>
<text text-anchor="start" x="184.5" y="-523" font-family="Helvetica,sans-Serif" font-size="10.00">precice::cplscheme</text>
<text text-anchor="start" x="184.5" y="-512" font-family="Helvetica,sans-Serif" font-size="10.00">::SerialCouplingScheme</text>
<text text-anchor="middle" x="242.5" y="-501" font-family="Helvetica,sans-Serif" font-size="10.00">::sendTimeWindowSize</text>
</a>
</g>
</g>
<!-- Node1&#45;&gt;Node26 -->
<g id="edge31_Node000001_Node000026" class="edge">
<title>Node1&#45;&gt;Node26</title>
<g id="a_edge31_Node000001_Node000026"><a xlink:title=" ">
<path fill="none" stroke="#63b8ff" d="M132.47,-529.5C143.43,-527.99 154.88,-526.41 166.06,-524.88"/>
<polygon fill="#63b8ff" stroke="#63b8ff" points="166.81,-528.31 176.24,-523.48 165.86,-521.37 166.81,-528.31"/>
</a>
</g>
</g>
<!-- Node4 -->
<g id="Node000004" class="node">
<title>Node4</title>
<g id="a_Node000004"><a xlink:href="classprecice_1_1cplscheme_1_1BaseCouplingScheme.html#ac216741f0993e76166ae7a610fe32fd9" target="_top" xlink:title="interface to provide accelerated data, depending on coupling scheme being used">
<polygon fill="white" stroke="#666666" points="506.5,-1035 378.5,-1035 378.5,-994 506.5,-994 506.5,-1035"/>
<text text-anchor="start" x="386.5" y="-1023" font-family="Helvetica,sans-Serif" font-size="10.00">precice::cplscheme</text>
<text text-anchor="start" x="386.5" y="-1012" font-family="Helvetica,sans-Serif" font-size="10.00">::BaseCouplingScheme</text>
<text text-anchor="middle" x="442.5" y="-1001" font-family="Helvetica,sans-Serif" font-size="10.00">::getAccelerationData</text>
</a>
</g>
</g>
<!-- Node3&#45;&gt;Node4 -->
<g id="edge3_Node000003_Node000004" class="edge">
<title>Node3&#45;&gt;Node4</title>
<g id="a_edge3_Node000003_Node000004"><a xlink:title=" ">
<path fill="none" stroke="#63b8ff" d="M264.02,-917.11C284.85,-937.03 318.81,-966.84 353,-985.5 358.09,-988.28 363.49,-990.85 369.02,-993.21"/>
<polygon fill="#63b8ff" stroke="#63b8ff" points="367.82,-996.5 378.4,-997 370.44,-990.01 367.82,-996.5"/>
</a>
</g>
</g>
<!-- Node5 -->
<g id="Node000005" class="node">
<title>Node5</title>
<g id="a_Node000005"><a xlink:href="classprecice_1_1cplscheme_1_1BaseCouplingScheme.html#aff6649147a358f135f1ca1c4711c150b" target="_top" xlink:title=" ">
<polygon fill="white" stroke="#666666" points="506.5,-721 378.5,-721 378.5,-680 506.5,-680 506.5,-721"/>
<text text-anchor="start" x="386.5" y="-709" font-family="Helvetica,sans-Serif" font-size="10.00">precice::cplscheme</text>
<text text-anchor="start" x="386.5" y="-698" font-family="Helvetica,sans-Serif" font-size="10.00">::BaseCouplingScheme</text>
<text text-anchor="middle" x="442.5" y="-687" font-family="Helvetica,sans-Serif" font-size="10.00">::getTimeWindowStart</text>
</a>
</g>
</g>
<!-- Node3&#45;&gt;Node5 -->
<g id="edge4_Node000003_Node000005" class="edge">
<title>Node3&#45;&gt;Node5</title>
<g id="a_edge4_Node000003_Node000005"><a xlink:title=" ">
<path fill="none" stroke="#63b8ff" d="M259.42,-875.6C279.77,-849.49 316.73,-804.02 353,-769.5 368.74,-754.52 387.57,-739.49 403.8,-727.3"/>
<polygon fill="#63b8ff" stroke="#63b8ff" points="406.08,-729.97 412.03,-721.2 401.91,-724.35 406.08,-729.97"/>
</a>
</g>
</g>
<!-- Node3&#45;&gt;Node6 -->
<g id="edge5_Node000003_Node000006" class="edge">
<title>Node3&#45;&gt;Node6</title>
<g id="a_edge5_Node000003_Node000006"><a xlink:title=" ">
<path fill="none" stroke="#63b8ff" d="M285.01,-875.96C315.9,-860.67 358.21,-839.72 391.05,-823.47"/>
<polygon fill="#63b8ff" stroke="#63b8ff" points="392.64,-826.59 400.05,-819.02 389.53,-820.32 392.64,-826.59"/>
</a>
</g>
</g>
<!-- Node9 -->
<g id="Node000009" class="node">
<title>Node9</title>
<g id="a_Node000009"><a xlink:href="classprecice_1_1cplscheme_1_1BaseCouplingScheme.html#af524236355c3b4a48237511b820996f2" target="_top" xlink:title="Measure whether coupling scheme has converged or not.">
<polygon fill="white" stroke="#666666" points="507,-917 378,-917 378,-876 507,-876 507,-917"/>
<text text-anchor="start" x="386" y="-905" font-family="Helvetica,sans-Serif" font-size="10.00">precice::cplscheme</text>
<text text-anchor="start" x="386" y="-894" font-family="Helvetica,sans-Serif" font-size="10.00">::BaseCouplingScheme</text>
<text text-anchor="middle" x="442.5" y="-883" font-family="Helvetica,sans-Serif" font-size="10.00">::measureConvergence</text>
</a>
</g>
</g>
<!-- Node3&#45;&gt;Node9 -->
<g id="edge8_Node000003_Node000009" class="edge">
<title>Node3&#45;&gt;Node9</title>
<g id="a_edge8_Node000003_Node000009"><a xlink:title=" ">
<path fill="none" stroke="#63b8ff" d="M306.69,-896.5C326.15,-896.5 347.75,-896.5 367.85,-896.5"/>
<polygon fill="#63b8ff" stroke="#63b8ff" points="367.89,-900 377.89,-896.5 367.89,-893 367.89,-900"/>
</a>
</g>
</g>
<!-- Node11 -->
<g id="Node000011" class="node">
<title>Node11</title>
<g id="a_Node000011"><a xlink:href="classprecice_1_1cplscheme_1_1BaseCouplingScheme.html#af285b3e6ffae9af1d4c4b89f1b66da1c" target="_top" xlink:title="Reset all convergence measurements after convergence.">
<polygon fill="white" stroke="#666666" points="532,-976 353,-976 353,-935 532,-935 532,-976"/>
<text text-anchor="start" x="361" y="-964" font-family="Helvetica,sans-Serif" font-size="10.00">precice::cplscheme</text>
<text text-anchor="start" x="361" y="-953" font-family="Helvetica,sans-Serif" font-size="10.00">::BaseCouplingScheme</text>
<text text-anchor="middle" x="442.5" y="-942" font-family="Helvetica,sans-Serif" font-size="10.00">::newConvergenceMeasurements</text>
</a>
</g>
</g>
<!-- Node3&#45;&gt;Node11 -->
<g id="edge11_Node000003_Node000011" class="edge">
<title>Node3&#45;&gt;Node11</title>
<g id="a_edge11_Node000003_Node000011"><a xlink:title=" ">
<path fill="none" stroke="#63b8ff" d="M306.69,-915.33C324.52,-920.64 344.14,-926.49 362.76,-932.04"/>
<polygon fill="#63b8ff" stroke="#63b8ff" points="361.81,-935.41 372.4,-934.91 363.81,-928.7 361.81,-935.41"/>
</a>
</g>
</g>
<!-- Node7 -->
<g id="Node000007" class="node">
<title>Node7</title>
<g id="a_Node000007"><a xlink:href="classprecice_1_1cplscheme_1_1BaseCouplingScheme.html#a073567dc3535de4121def61a3dc5215c" target="_top" xlink:title="Function to check whether time window size is defined by coupling scheme.">
<polygon fill="white" stroke="#666666" points="702,-485 574,-485 574,-444 702,-444 702,-485"/>
<text text-anchor="start" x="582" y="-473" font-family="Helvetica,sans-Serif" font-size="10.00">precice::cplscheme</text>
<text text-anchor="start" x="582" y="-462" font-family="Helvetica,sans-Serif" font-size="10.00">::BaseCouplingScheme</text>
<text text-anchor="middle" x="638" y="-451" font-family="Helvetica,sans-Serif" font-size="10.00">::hasTimeWindowSize</text>
</a>
</g>
</g>
<!-- Node6&#45;&gt;Node7 -->
<g id="edge6_Node000006_Node000007" class="edge">
<title>Node6&#45;&gt;Node7</title>
<g id="a_edge6_Node000006_Node000007"><a xlink:title=" ">
<path fill="none" stroke="#63b8ff" d="M478.73,-777.92C496.67,-765.97 517.66,-749.53 532,-730.5 588.19,-655.94 618.48,-547.39 630.61,-495.02"/>
<polygon fill="#63b8ff" stroke="#63b8ff" points="634.08,-495.55 632.86,-485.02 627.25,-494.01 634.08,-495.55"/>
</a>
</g>
</g>
<!-- Node7&#45;&gt;Node8 -->
<g id="edge7_Node000007_Node000008" class="edge">
<title>Node7&#45;&gt;Node8</title>
<g id="a_edge7_Node000007_Node000008"><a xlink:title=" ">
<path fill="none" stroke="#63b8ff" d="M679.36,-443.95C709.27,-428.72 749.28,-408.36 775.81,-394.85"/>
<polygon fill="#63b8ff" stroke="#63b8ff" points="777.61,-397.86 784.93,-390.21 774.43,-391.63 777.61,-397.86"/>
</a>
</g>
</g>
<!-- Node9&#45;&gt;Node2 -->
<g id="edge9_Node000009_Node000002" class="edge">
<title>Node9&#45;&gt;Node2</title>
<g id="a_edge9_Node000009_Node000002"><a xlink:title=" ">
<path fill="none" stroke="#63b8ff" d="M507.13,-879.4C525.42,-874.49 545.51,-869.09 564.3,-864.04"/>
<polygon fill="#63b8ff" stroke="#63b8ff" points="565.25,-867.41 573.99,-861.43 563.43,-860.65 565.25,-867.41"/>
</a>
</g>
</g>
<!-- Node10 -->
<g id="Node000010" class="node">
<title>Node10</title>
<g id="a_Node000010"><a xlink:href="classprecice_1_1utils_1_1IntraComm.html#abde303b11e46851ae65dca65ef06daad" target="_top" xlink:title="True if this process is running a secondary rank.">
<polygon fill="white" stroke="#666666" points="708,-913.5 568,-913.5 568,-883.5 708,-883.5 708,-913.5"/>
<text text-anchor="start" x="576" y="-901.5" font-family="Helvetica,sans-Serif" font-size="10.00">precice::utils::IntraComm</text>
<text text-anchor="middle" x="638" y="-890.5" font-family="Helvetica,sans-Serif" font-size="10.00">::isSecondary</text>
</a>
</g>
</g>
<!-- Node9&#45;&gt;Node10 -->
<g id="edge10_Node000009_Node000010" class="edge">
<title>Node9&#45;&gt;Node10</title>
<g id="a_edge10_Node000009_Node000010"><a xlink:title=" ">
<path fill="none" stroke="#63b8ff" d="M507.13,-897.16C523.27,-897.32 540.82,-897.51 557.64,-897.68"/>
<polygon fill="#63b8ff" stroke="#63b8ff" points="557.96,-901.18 568,-897.79 558.04,-894.18 557.96,-901.18"/>
</a>
</g>
</g>
<!-- Node17&#45;&gt;Node2 -->
<g id="edge20_Node000017_Node000002" class="edge">
<title>Node17&#45;&gt;Node2</title>
<g id="a_edge20_Node000017_Node000002"><a xlink:title=" ">
<path fill="none" stroke="#63b8ff" d="M265.64,-671.04C286.6,-689.36 319.72,-715.53 353,-730.5 427.25,-763.9 457.57,-736.49 532,-769.5 559.18,-781.55 586.4,-801.26 606.31,-817.46"/>
<polygon fill="#63b8ff" stroke="#63b8ff" points="604.17,-820.23 614.1,-823.92 608.64,-814.84 604.17,-820.23"/>
</a>
</g>
</g>
<!-- Node17&#45;&gt;Node16 -->
<g id="edge21_Node000017_Node000016" class="edge">
<title>Node17&#45;&gt;Node16</title>
<g id="a_edge21_Node000017_Node000016"><a xlink:title=" ">
<path fill="none" stroke="#63b8ff" d="M306.69,-647.63C322.97,-646.89 340.73,-646.08 357.86,-645.3"/>
<polygon fill="#63b8ff" stroke="#63b8ff" points="358.03,-648.8 367.86,-644.85 357.72,-641.8 358.03,-648.8"/>
</a>
</g>
</g>
<!-- Node18&#45;&gt;Node18 -->
<g id="edge23_Node000018_Node000018" class="edge">
<title>Node18&#45;&gt;Node18</title>
<g id="a_edge23_Node000018_Node000018"><a xlink:title=" ">
<path fill="none" stroke="#63b8ff" d="M210.15,-203.1C206.62,-212.65 217.41,-221 242.5,-221 258.18,-221 268.28,-217.74 272.78,-212.96"/>
<polygon fill="#63b8ff" stroke="#63b8ff" points="276.22,-213.6 274.85,-203.1 269.37,-212.17 276.22,-213.6"/>
</a>
</g>
</g>
<!-- Node19 -->
<g id="Node000019" class="node">
<title>Node19</title>
<g id="a_Node000019"><a xlink:href="classprecice_1_1cplscheme_1_1BaseCouplingScheme.html#a1f7b29aa49ad8ba5c652e9e452bacbb5" target="_top" xlink:title=" ">
<polygon fill="white" stroke="#666666" points="506.5,-251 378.5,-251 378.5,-210 506.5,-210 506.5,-251"/>
<text text-anchor="start" x="386.5" y="-239" font-family="Helvetica,sans-Serif" font-size="10.00">precice::cplscheme</text>
<text text-anchor="start" x="386.5" y="-228" font-family="Helvetica,sans-Serif" font-size="10.00">::BaseCouplingScheme</text>
<text text-anchor="middle" x="442.5" y="-217" font-family="Helvetica,sans-Serif" font-size="10.00">::sendTimes</text>
</a>
</g>
</g>
<!-- Node18&#45;&gt;Node19 -->
<g id="edge24_Node000018_Node000019" class="edge">
<title>Node18&#45;&gt;Node19</title>
<g id="a_edge24_Node000018_Node000019"><a xlink:title=" ">
<path fill="none" stroke="#63b8ff" d="M306.69,-197.82C326.34,-202.58 348.16,-207.87 368.42,-212.78"/>
<polygon fill="#63b8ff" stroke="#63b8ff" points="367.69,-216.21 378.23,-215.16 369.33,-209.4 367.69,-216.21"/>
</a>
</g>
</g>
<!-- Node21 -->
<g id="Node000021" class="node">
<title>Node21</title>
<g id="a_Node000021"><a xlink:href="classprecice_1_1com_1_1serialize_1_1SerializedStamples.html#a1016a4d24473c968c6cc89659e3de614" target="_top" xlink:title="Serializes a given CouplingData into SerializedStamples.">
<polygon fill="white" stroke="#666666" points="505.5,-159 379.5,-159 379.5,-118 505.5,-118 505.5,-159"/>
<text text-anchor="start" x="387.5" y="-147" font-family="Helvetica,sans-Serif" font-size="10.00">precice::com::serialize</text>
<text text-anchor="start" x="387.5" y="-136" font-family="Helvetica,sans-Serif" font-size="10.00">::SerializedStamples::</text>
<text text-anchor="middle" x="442.5" y="-125" font-family="Helvetica,sans-Serif" font-size="10.00">serialize</text>
</a>
</g>
</g>
<!-- Node18&#45;&gt;Node21 -->
<g id="edge26_Node000018_Node000021" class="edge">
<title>Node18&#45;&gt;Node21</title>
<g id="a_edge26_Node000018_Node000021"><a xlink:title=" ">
<path fill="none" stroke="#63b8ff" d="M306.69,-168.46C326.63,-164.03 348.81,-159.1 369.32,-154.54"/>
<polygon fill="#63b8ff" stroke="#63b8ff" points="370.24,-157.92 379.25,-152.33 368.72,-151.09 370.24,-157.92"/>
</a>
</g>
</g>
<!-- Node20 -->
<g id="Node000020" class="node">
<title>Node20</title>
<g id="a_Node000020"><a xlink:href="classprecice_1_1span.html#ae91f5ed50b6cbf0d15382b8e3c2a9a04" target="_top" xlink:title=" ">
<polygon fill="white" stroke="#666666" points="691.5,-255 584.5,-255 584.5,-236 691.5,-236 691.5,-255"/>
<text text-anchor="middle" x="638" y="-243" font-family="Helvetica,sans-Serif" font-size="10.00">precice::span::size</text>
</a>
</g>
</g>
<!-- Node19&#45;&gt;Node20 -->
<g id="edge25_Node000019_Node000020" class="edge">
<title>Node19&#45;&gt;Node20</title>
<g id="a_edge25_Node000019_Node000020"><a xlink:title=" ">
<path fill="none" stroke="#63b8ff" d="M506.59,-235.39C528.3,-237.07 552.59,-238.96 574.27,-240.64"/>
<polygon fill="#63b8ff" stroke="#63b8ff" points="574.11,-244.14 584.35,-241.42 574.65,-237.16 574.11,-244.14"/>
</a>
</g>
</g>
<!-- Node22 -->
<g id="Node000022" class="node">
<title>Node22</title>
<g id="a_Node000022"><a xlink:href="classprecice_1_1com_1_1serialize_1_1SerializedStamples.html#a3bd729e27395b592be2fe9a124886f3b" target="_top" xlink:title=" ">
<polygon fill="white" stroke="#666666" points="701,-218 575,-218 575,-177 701,-177 701,-218"/>
<text text-anchor="start" x="583" y="-206" font-family="Helvetica,sans-Serif" font-size="10.00">precice::com::serialize</text>
<text text-anchor="start" x="583" y="-195" font-family="Helvetica,sans-Serif" font-size="10.00">::SerializedStamples::</text>
<text text-anchor="middle" x="638" y="-184" font-family="Helvetica,sans-Serif" font-size="10.00">allocate</text>
</a>
</g>
</g>
<!-- Node21&#45;&gt;Node22 -->
<g id="edge27_Node000021_Node000022" class="edge">
<title>Node21&#45;&gt;Node22</title>
<g id="a_edge27_Node000021_Node000022"><a xlink:title=" ">
<path fill="none" stroke="#63b8ff" d="M505.52,-157.41C524.53,-163.21 545.6,-169.63 565.2,-175.61"/>
<polygon fill="#63b8ff" stroke="#63b8ff" points="564.41,-179.03 575,-178.59 566.45,-172.33 564.41,-179.03"/>
</a>
</g>
</g>
<!-- Node23 -->
<g id="Node000023" class="node">
<title>Node23</title>
<g id="a_Node000023"><a xlink:href="classprecice_1_1com_1_1serialize_1_1SerializedStamples.html#a72962498cead40c9cb5570666b2a7e98" target="_top" xlink:title=" ">
<polygon fill="white" stroke="#666666" points="701,-159 575,-159 575,-118 701,-118 701,-159"/>
<text text-anchor="start" x="583" y="-147" font-family="Helvetica,sans-Serif" font-size="10.00">precice::com::serialize</text>
<text text-anchor="start" x="583" y="-136" font-family="Helvetica,sans-Serif" font-size="10.00">::SerializedStamples::</text>
<text text-anchor="middle" x="638" y="-125" font-family="Helvetica,sans-Serif" font-size="10.00">SerializedStamples</text>
</a>
</g>
</g>
<!-- Node21&#45;&gt;Node23 -->
<g id="edge28_Node000021_Node000023" class="edge">
<title>Node21&#45;&gt;Node23</title>
<g id="a_edge28_Node000021_Node000023"><a xlink:title=" ">
<path fill="none" stroke="#63b8ff" d="M505.52,-138.5C524.44,-138.5 545.41,-138.5 564.93,-138.5"/>
<polygon fill="#63b8ff" stroke="#63b8ff" points="565,-142 575,-138.5 565,-135 565,-142"/>
</a>
</g>
</g>
<!-- Node24 -->
<g id="Node000024" class="node">
<title>Node24</title>
<g id="a_Node000024"><a xlink:href="classprecice_1_1com_1_1serialize_1_1SerializedStamples.html#abdad84a4a2921adfb761ffcdefcdc027" target="_top" xlink:title="Serialize gradients from timeStepsStorage of data into _gradients.">
<polygon fill="white" stroke="#666666" points="701,-100 575,-100 575,-59 701,-59 701,-100"/>
<text text-anchor="start" x="583" y="-88" font-family="Helvetica,sans-Serif" font-size="10.00">precice::com::serialize</text>
<text text-anchor="start" x="583" y="-77" font-family="Helvetica,sans-Serif" font-size="10.00">::SerializedStamples::</text>
<text text-anchor="middle" x="638" y="-66" font-family="Helvetica,sans-Serif" font-size="10.00">serializeGradients</text>
</a>
</g>
</g>
<!-- Node21&#45;&gt;Node24 -->
<g id="edge29_Node000021_Node000024" class="edge">
<title>Node21&#45;&gt;Node24</title>
<g id="a_edge29_Node000021_Node000024"><a xlink:title=" ">
<path fill="none" stroke="#63b8ff" d="M505.52,-119.59C524.53,-113.79 545.6,-107.37 565.2,-101.39"/>
<polygon fill="#63b8ff" stroke="#63b8ff" points="566.45,-104.67 575,-98.41 564.41,-97.97 566.45,-104.67"/>
</a>
</g>
</g>
<!-- Node25 -->
<g id="Node000025" class="node">
<title>Node25</title>
<g id="a_Node000025"><a xlink:href="classprecice_1_1com_1_1serialize_1_1SerializedStamples.html#a71a588417330365bb8cf607c352d3919" target="_top" xlink:title="Serialize values from timeStepsStorage of data into _values.">
<polygon fill="white" stroke="#666666" points="701,-41 575,-41 575,0 701,0 701,-41"/>
<text text-anchor="start" x="583" y="-29" font-family="Helvetica,sans-Serif" font-size="10.00">precice::com::serialize</text>
<text text-anchor="start" x="583" y="-18" font-family="Helvetica,sans-Serif" font-size="10.00">::SerializedStamples::</text>
<text text-anchor="middle" x="638" y="-7" font-family="Helvetica,sans-Serif" font-size="10.00">serializeValues</text>
</a>
</g>
</g>
<!-- Node21&#45;&gt;Node25 -->
<g id="edge30_Node000021_Node000025" class="edge">
<title>Node21&#45;&gt;Node25</title>
<g id="a_edge30_Node000021_Node000025"><a xlink:title=" ">
<path fill="none" stroke="#63b8ff" d="M468.62,-117.99C493,-98.7 531.58,-69.84 568,-49.5 570.36,-48.18 572.8,-46.88 575.28,-45.61"/>
<polygon fill="#63b8ff" stroke="#63b8ff" points="576.97,-48.68 584.42,-41.14 573.9,-42.39 576.97,-48.68"/>
</a>
</g>
</g>
<!-- Node26&#45;&gt;Node5 -->
<g id="edge36_Node000026_Node000005" class="edge">
<title>Node26&#45;&gt;Node5</title>
<g id="a_edge36_Node000026_Node000005"><a xlink:title=" ">
<path fill="none" stroke="#63b8ff" d="M257.74,-535.28C286.64,-577.4 349.72,-669.06 353,-671.5 357.82,-675.08 363.11,-678.24 368.62,-681.01"/>
<polygon fill="#63b8ff" stroke="#63b8ff" points="367.53,-684.36 378.08,-685.33 370.43,-677.99 367.53,-684.36"/>
</a>
</g>
</g>
<!-- Node26&#45;&gt;Node12 -->
<g id="edge32_Node000026_Node000012" class="edge">
<title>Node26&#45;&gt;Node12</title>
<g id="a_edge32_Node000026_Node000012"><a xlink:title=" ">
<path fill="none" stroke="#63b8ff" d="M300.24,-535.02C317.18,-541.06 335.81,-547.62 353,-553.5 359.37,-555.68 366.02,-557.92 372.67,-560.14"/>
<polygon fill="#63b8ff" stroke="#63b8ff" points="371.81,-563.54 382.4,-563.37 374.01,-556.89 371.81,-563.54"/>
</a>
</g>
</g>
<!-- Node26&#45;&gt;Node14 -->
<g id="edge33_Node000026_Node000014" class="edge">
<title>Node26&#45;&gt;Node14</title>
<g id="a_edge33_Node000026_Node000014"><a xlink:title=" ">
<path fill="none" stroke="#63b8ff" d="M278.47,-493.89C291.85,-484.68 306.43,-472.88 317,-459.5 341.93,-427.95 323.42,-403.74 353,-376.5 357.78,-372.1 363.22,-368.34 369.02,-365.14"/>
<polygon fill="#63b8ff" stroke="#63b8ff" points="370.93,-368.09 378.35,-360.53 367.83,-361.82 370.93,-368.09"/>
</a>
</g>
</g>
<!-- Node27 -->
<g id="Node000027" class="node">
<title>Node27</title>
<g id="a_Node000027"><a xlink:href="classprecice_1_1cplscheme_1_1BaseCouplingScheme.html#a63b909185caf2cb97411e3ed18761482" target="_top" xlink:title="Returns the time window size, if one is given by the coupling scheme.">
<polygon fill="white" stroke="#666666" points="506.5,-485 378.5,-485 378.5,-444 506.5,-444 506.5,-485"/>
<text text-anchor="start" x="386.5" y="-473" font-family="Helvetica,sans-Serif" font-size="10.00">precice::cplscheme</text>
<text text-anchor="start" x="386.5" y="-462" font-family="Helvetica,sans-Serif" font-size="10.00">::BaseCouplingScheme</text>
<text text-anchor="middle" x="442.5" y="-451" font-family="Helvetica,sans-Serif" font-size="10.00">::getTimeWindowSize</text>
</a>
</g>
</g>
<!-- Node26&#45;&gt;Node27 -->
<g id="edge34_Node000026_Node000027" class="edge">
<title>Node26&#45;&gt;Node27</title>
<g id="a_edge34_Node000026_Node000027"><a xlink:title=" ">
<path fill="none" stroke="#63b8ff" d="M308.61,-498.06C327.8,-493.21 348.92,-487.88 368.56,-482.92"/>
<polygon fill="#63b8ff" stroke="#63b8ff" points="369.54,-486.28 378.38,-480.44 367.82,-479.5 369.54,-486.28"/>
</a>
</g>
</g>
<!-- Node28 -->
<g id="Node000028" class="node">
<title>Node28</title>
<g id="a_Node000028"><a xlink:href="classprecice_1_1cplscheme_1_1BaseCouplingScheme.html#ae5884457e1339371a60deb846268fc25" target="_top" xlink:title="Setter for _nextTimeWindowSize.">
<polygon fill="white" stroke="#666666" points="515,-544 370,-544 370,-503 515,-503 515,-544"/>
<text text-anchor="start" x="378" y="-532" font-family="Helvetica,sans-Serif" font-size="10.00">precice::cplscheme</text>
<text text-anchor="start" x="378" y="-521" font-family="Helvetica,sans-Serif" font-size="10.00">::BaseCouplingScheme</text>
<text text-anchor="middle" x="442.5" y="-510" font-family="Helvetica,sans-Serif" font-size="10.00">::setNextTimeWindowSize</text>
</a>
</g>
</g>
<!-- Node26&#45;&gt;Node28 -->
<g id="edge37_Node000026_Node000028" class="edge">
<title>Node26&#45;&gt;Node28</title>
<g id="a_edge37_Node000026_Node000028"><a xlink:title=" ">
<path fill="none" stroke="#63b8ff" d="M308.61,-517.46C324.85,-518.2 342.47,-519 359.42,-519.77"/>
<polygon fill="#63b8ff" stroke="#63b8ff" points="359.71,-523.29 369.86,-520.24 360.03,-516.29 359.71,-523.29"/>
</a>
</g>
</g>
<!-- Node29 -->
<g id="Node000029" class="node">
<title>Node29</title>
<g id="a_Node000029"><a xlink:href="classprecice_1_1cplscheme_1_1BaseCouplingScheme.html#a1337cc34f923d8bf9c1d50a18f3c9207" target="_top" xlink:title="Setter for _timeWindowSize.">
<polygon fill="white" stroke="#666666" points="506.5,-426 378.5,-426 378.5,-385 506.5,-385 506.5,-426"/>
<text text-anchor="start" x="386.5" y="-414" font-family="Helvetica,sans-Serif" font-size="10.00">precice::cplscheme</text>
<text text-anchor="start" x="386.5" y="-403" font-family="Helvetica,sans-Serif" font-size="10.00">::BaseCouplingScheme</text>
<text text-anchor="middle" x="442.5" y="-392" font-family="Helvetica,sans-Serif" font-size="10.00">::setTimeWindowSize</text>
</a>
</g>
</g>
<!-- Node26&#45;&gt;Node29 -->
<g id="edge38_Node000026_Node000029" class="edge">
<title>Node26&#45;&gt;Node29</title>
<g id="a_edge38_Node000026_Node000029"><a xlink:title=" ">
<path fill="none" stroke="#63b8ff" d="M271.11,-493.92C300.62,-472.04 344.33,-439.97 353,-435.5 357.96,-432.95 363.18,-430.54 368.5,-428.28"/>
<polygon fill="#63b8ff" stroke="#63b8ff" points="370.2,-431.37 378.17,-424.38 367.58,-424.87 370.2,-431.37"/>
</a>
</g>
</g>
<!-- Node27&#45;&gt;Node7 -->
<g id="edge35_Node000027_Node000007" class="edge">
<title>Node27&#45;&gt;Node7</title>
<g id="a_edge35_Node000027_Node000007"><a xlink:title=" ">
<path fill="none" stroke="#63b8ff" d="M506.59,-464.5C524.91,-464.5 545.08,-464.5 563.96,-464.5"/>
<polygon fill="#63b8ff" stroke="#63b8ff" points="563.99,-468 573.99,-464.5 563.99,-461 563.99,-468"/>
</a>
</g>
</g>
</g>
</svg>

<g id="navigator" transform="translate(0 0)" fill="#404254">
  <rect fill="#f2f5e9" fill-opacity="0.5" stroke="#606060" stroke-width=".5" x="0" y="0" width="60" height="60"/>
  <use id="zoomplus" xlink:href="#zoomPlus" x="17" y="9" onmousedown="handleZoom(evt,'in')"/>
  <use id="zoomminus" xlink:href="#zoomMin" x="42" y="9" onmousedown="handleZoom(evt,'out')"/>
  <use id="reset" xlink:href="#resetDef" x="30" y="36" onmousedown="handleReset()"/>
   <use id="arrowup" xlink:href="#arrowUp" x="0" y="0" onmousedown="handlePan(0,-1)"/>
  <use id="arrowright" xlink:href="#arrowRight" x="0" y="0" onmousedown="handlePan(1,0)"/>
  <use id="arrowdown" xlink:href="#arrowDown" x="0" y="0" onmousedown="handlePan(0,1)"/>
  <use id="arrowleft" xlink:href="#arrowLeft" x="0" y="0" onmousedown="handlePan(-1,0)"/>
</g>
<svg viewBox="0 0 15 15" width="100%" height="30px" preserveAspectRatio="xMaxYMin meet">
 <g id="arrow_out" transform="scale(0.3 0.3)">
  <a xlink:href="classprecice_1_1cplscheme_1_1SerialCouplingScheme_a6161c77810e36eef574df9909f1c5a15_cgraph_org.svg" target="_base">
   <rect id="button" ry="5" rx="5" y="6" x="6" height="38" width="38"
        fill="#f2f5e9" fill-opacity="0.5" stroke="#606060" stroke-width="1.0"/>
   <path id="arrow"
     d="M 11.500037,31.436501 C 11.940474,20.09759 22.043105,11.32322 32.158766,21.979434 L 37.068811,17.246167 C 37.068811,17.246167 37.088388,32 37.088388,32 L 22.160133,31.978069 C 22.160133,31.978069 26.997745,27.140456 26.997745,27.140456 C 18.528582,18.264221 13.291696,25.230495 11.500037,31.436501 z"
     style="fill:#404040;"/>
  </a>
 </g>
</svg>

<style type='text/css'>
<![CDATA[
[data-mouse-over-selected='false'] { opacity: 0.7; }
[data-mouse-over-selected='true']  { opacity: 1.0; }
]]>
</style>
<script type="application/ecmascript"><![CDATA[
document.addEventListener('DOMContentLoaded', (event) => {
  highlightEdges();
  highlightAdjacentNodes();
});
]]></script>
</svg>
