<?xml version="1.0" encoding="UTF-8" standalone="no"?>
<!DOCTYPE svg PUBLIC "-//W3C//DTD SVG 1.1//EN"
 "http://www.w3.org/Graphics/SVG/1.1/DTD/svg11.dtd">
<!-- Generated by graphviz version 2.43.0 (0)
 -->
<!-- Title: precice::impl::ParticipantState::hintForMeshData Pages: 1 -->
<!--zoomable 335 -->

<svg id="main" version="1.1" xmlns="http://www.w3.org/2000/svg" xmlns:xlink="http://www.w3.org/1999/xlink" xml:space="preserve" onload="init(evt)">

<style type="text/css"><![CDATA[
.node, .edge {opacity: 0.7;}
.node.selected, .edge.selected {opacity: 1;}
.edge:hover path { stroke: red; }
.edge:hover polygon { stroke: red; fill: red; }
]]></style>

<defs>
  <circle id="rim" cx="0" cy="0" r="7"/>
  <circle id="rim2" cx="0" cy="0" r="3.5"/>
  <g id="zoomPlus">
    <use xlink:href="#rim" fill="#404040"><set attributeName="fill" to="#808080" begin="zoomplus.mouseover" end="zoomplus.mouseout"/></use>
    <path d="M-4,0h8M0,-4v8" fill="none" stroke="white" stroke-width="1.5" pointer-events="none"/>
  </g>
  <g id="zoomMin">
    <use xlink:href="#rim" fill="#404040"><set attributeName="fill" to="#808080" begin="zoomminus.mouseover" end="zoomminus.mouseout"/></use>
    <path d="M-4,0h8" fill="none" stroke="white" stroke-width="1.5" pointer-events="none"/>
  </g>
  <g id="arrowUp" transform="translate(30 24)">
    <use xlink:href="#rim"/>
    <path pointer-events="none" fill="none" stroke="white" stroke-width="1.5" d="M0,-3.0v7 M-2.5,-0.5L0,-3.0L2.5,-0.5"/>
  </g>
  <g id="arrowRight" transform="rotate(90) translate(36 -43)">
    <use xlink:href="#rim"/>
    <path pointer-events="none" fill="none" stroke="white" stroke-width="1.5" d="M0,-3.0v7 M-2.5,-0.5L0,-3.0L2.5,-0.5"/>
  </g>
  <g id="arrowDown" transform="rotate(180) translate(-30 -48)">
    <use xlink:href="#rim"/>
    <path pointer-events="none" fill="none" stroke="white" stroke-width="1.5" d="M0,-3.0v7 M-2.5,-0.5L0,-3.0L2.5,-0.5"/>
  </g>
  <g id="arrowLeft" transform="rotate(270) translate(-36 17)">
    <use xlink:href="#rim"/>
    <path pointer-events="none" fill="none" stroke="white" stroke-width="1.5" d="M0,-3.0v7 M-2.5,-0.5L0,-3.0L2.5,-0.5"/>
  </g>
  <g id="resetDef">
    <use xlink:href="#rim2" fill="#404040"><set attributeName="fill" to="#808080" begin="reset.mouseover" end="reset.mouseout"/></use>
  </g>
</defs>
<script type="application/ecmascript">
var viewWidth = 687;
var viewHeight = 335;
var sectionId = 'dynsection-22';
</script>
<script type="application/ecmascript" xlink:href="svg.min.js"/>
<svg id="graph" class="graph">
<g id="viewport">
<title>precice::impl::ParticipantState::hintForMeshData</title>
<!-- Node1 -->
<g id="Node000001" class="node">
<title>Node1</title>
<g id="a_Node000001"><a xlink:title=" ">
<polygon fill="#999999" stroke="#666666" points="137,-129 0,-129 0,-99 137,-99 137,-129"/>
<text text-anchor="start" x="8" y="-117" font-family="Helvetica,sans-Serif" font-size="10.00">precice::impl::Participant</text>
<text text-anchor="middle" x="68.5" y="-106" font-family="Helvetica,sans-Serif" font-size="10.00">State::hintForMeshData</text>
</a>
</g>
</g>
<!-- Node1&#45;&gt;Node1 -->
<g id="edge13_Node000001_Node000001" class="edge">
<title>Node1&#45;&gt;Node1</title>
<g id="a_edge13_Node000001_Node000001"><a xlink:title=" ">
<path fill="none" stroke="#63b8ff" d="M35.45,-129.28C28.11,-138.41 39.12,-147 68.5,-147 85.94,-147 96.91,-143.97 101.41,-139.6"/>
<polygon fill="#63b8ff" stroke="#63b8ff" points="104.91,-139.32 101.55,-129.28 97.91,-139.23 104.91,-139.32"/>
</a>
</g>
</g>
<!-- Node2 -->
<g id="Node000002" class="node">
<title>Node2</title>
<g id="a_Node000002"><a xlink:href="namespaceprecice_1_1utils.html#aeef1a589a6157acbe2184158fb727564" target="_top" xlink:title=" ">
<polygon fill="white" stroke="#666666" points="342,-233.5 173,-233.5 173,-214.5 342,-214.5 342,-233.5"/>
<text text-anchor="middle" x="257.5" y="-221.5" font-family="Helvetica,sans-Serif" font-size="10.00">precice::utils::computeMatches</text>
</a>
</g>
</g>
<!-- Node1&#45;&gt;Node2 -->
<g id="edge1_Node000001_Node000002" class="edge">
<title>Node1&#45;&gt;Node2</title>
<g id="a_edge1_Node000001_Node000002"><a xlink:title=" ">
<path fill="none" stroke="#63b8ff" d="M95.11,-129.06C131.01,-150.18 195.89,-188.35 231.48,-209.28"/>
<polygon fill="#63b8ff" stroke="#63b8ff" points="229.88,-212.4 240.27,-214.45 233.43,-206.37 229.88,-212.4"/>
</a>
</g>
</g>
<!-- Node10 -->
<g id="Node000010" class="node">
<title>Node10</title>
<g id="a_Node000010"><a xlink:href="classprecice_1_1impl_1_1ParticipantState.html#ac91262127a0d9126e4ad0443790c099a" target="_top" xlink:title="Is the dataID know to preCICE?">
<polygon fill="white" stroke="#666666" points="326,-162 189,-162 189,-132 326,-132 326,-162"/>
<text text-anchor="start" x="197" y="-150" font-family="Helvetica,sans-Serif" font-size="10.00">precice::impl::Participant</text>
<text text-anchor="middle" x="257.5" y="-139" font-family="Helvetica,sans-Serif" font-size="10.00">State::hasData</text>
</a>
</g>
</g>
<!-- Node1&#45;&gt;Node10 -->
<g id="edge9_Node000001_Node000010" class="edge">
<title>Node1&#45;&gt;Node10</title>
<g id="a_edge9_Node000001_Node000010"><a xlink:title=" ">
<path fill="none" stroke="#63b8ff" d="M137.01,-125.91C150.56,-128.31 164.91,-130.84 178.78,-133.28"/>
<polygon fill="#63b8ff" stroke="#63b8ff" points="178.32,-136.76 188.77,-135.05 179.53,-129.86 178.32,-136.76"/>
</a>
</g>
</g>
<!-- Node12 -->
<g id="Node000012" class="node">
<title>Node12</title>
<g id="a_Node000012"><a xlink:href="classprecice_1_1impl_1_1ParticipantState.html#aadf18825c5a543c151408b03f0bba7dd" target="_top" xlink:title="Does preCICE know a mesh with this name?">
<polygon fill="white" stroke="#666666" points="326,-96 189,-96 189,-66 326,-66 326,-96"/>
<text text-anchor="start" x="197" y="-84" font-family="Helvetica,sans-Serif" font-size="10.00">precice::impl::Participant</text>
<text text-anchor="middle" x="257.5" y="-73" font-family="Helvetica,sans-Serif" font-size="10.00">State::hasMesh</text>
</a>
</g>
</g>
<!-- Node1&#45;&gt;Node12 -->
<g id="edge11_Node000001_Node000012" class="edge">
<title>Node1&#45;&gt;Node12</title>
<g id="a_edge11_Node000001_Node000012"><a xlink:title=" ">
<path fill="none" stroke="#63b8ff" d="M137.01,-102.09C150.56,-99.69 164.91,-97.16 178.78,-94.72"/>
<polygon fill="#63b8ff" stroke="#63b8ff" points="179.53,-98.14 188.77,-92.95 178.32,-91.24 179.53,-98.14"/>
</a>
</g>
</g>
<!-- Node13 -->
<g id="Node000013" class="node">
<title>Node13</title>
<g id="a_Node000013"><a xlink:href="classprecice_1_1impl_1_1ParticipantState.html#a5224c5e031f2f7f031ac81298098cd93" target="_top" xlink:title="Mesh queries.">
<polygon fill="white" stroke="#666666" points="326,-30 189,-30 189,0 326,0 326,-30"/>
<text text-anchor="start" x="197" y="-18" font-family="Helvetica,sans-Serif" font-size="10.00">precice::impl::Participant</text>
<text text-anchor="middle" x="257.5" y="-7" font-family="Helvetica,sans-Serif" font-size="10.00">State::meshContext</text>
</a>
</g>
</g>
<!-- Node1&#45;&gt;Node13 -->
<g id="edge14_Node000001_Node000013" class="edge">
<title>Node1&#45;&gt;Node13</title>
<g id="a_edge14_Node000001_Node000013"><a xlink:title=" ">
<path fill="none" stroke="#63b8ff" d="M96.16,-98.96C116.97,-87.31 146.68,-70.86 173,-57 187.12,-49.57 202.7,-41.65 216.55,-34.71"/>
<polygon fill="#63b8ff" stroke="#63b8ff" points="218.44,-37.68 225.82,-30.09 215.31,-31.42 218.44,-37.68"/>
</a>
</g>
</g>
<!-- Node3 -->
<g id="Node000003" class="node">
<title>Node3</title>
<g id="a_Node000003"><a target="_parent" xlink:href="http://en.cppreference.com/w/cpp/container/vector/begin.html#" xlink:title=" ">
<polygon fill="white" stroke="#666666" points="501.5,-326.5 400.5,-326.5 400.5,-307.5 501.5,-307.5 501.5,-326.5"/>
<text text-anchor="middle" x="451" y="-314.5" font-family="Helvetica,sans-Serif" font-size="10.00">std::vector::begin</text>
</a>
</g>
</g>
<!-- Node2&#45;&gt;Node3 -->
<g id="edge2_Node000002_Node000003" class="edge">
<title>Node2&#45;&gt;Node3</title>
<g id="a_edge2_Node000002_Node000003"><a xlink:title=" ">
<path fill="none" stroke="#63b8ff" d="M271.02,-233.75C292,-249.64 336.09,-281.14 378,-299 382.77,-301.03 387.81,-302.87 392.93,-304.52"/>
<polygon fill="#63b8ff" stroke="#63b8ff" points="392.23,-307.97 402.82,-307.48 394.24,-301.26 392.23,-307.97"/>
</a>
</g>
</g>
<!-- Node4 -->
<g id="Node000004" class="node">
<title>Node4</title>
<g id="a_Node000004"><a xlink:href="namespaceprecice_1_1utils.html#a016a082a7d68a0f291b2cdd8cdf70beb" target="_top" xlink:title=" ">
<polygon fill="white" stroke="#666666" points="524,-289.5 378,-289.5 378,-270.5 524,-270.5 524,-289.5"/>
<text text-anchor="middle" x="451" y="-277.5" font-family="Helvetica,sans-Serif" font-size="10.00">precice::utils::editDistance</text>
</a>
</g>
</g>
<!-- Node2&#45;&gt;Node4 -->
<g id="edge3_Node000002_Node000004" class="edge">
<title>Node2&#45;&gt;Node4</title>
<g id="a_edge3_Node000002_Node000004"><a xlink:title=" ">
<path fill="none" stroke="#63b8ff" d="M286.84,-233.57C310.96,-241.57 346.58,-253.09 378,-262 385.07,-264.01 392.57,-266.01 399.95,-267.92"/>
<polygon fill="#63b8ff" stroke="#63b8ff" points="399.34,-271.38 409.89,-270.45 401.06,-264.59 399.34,-271.38"/>
</a>
</g>
</g>
<!-- Node7 -->
<g id="Node000007" class="node">
<title>Node7</title>
<g id="a_Node000007"><a target="_parent" xlink:href="http://en.cppreference.com/w/cpp/container/vector/end.html#" xlink:title=" ">
<polygon fill="white" stroke="#666666" points="497,-252.5 405,-252.5 405,-233.5 497,-233.5 497,-252.5"/>
<text text-anchor="middle" x="451" y="-240.5" font-family="Helvetica,sans-Serif" font-size="10.00">std::vector::end</text>
</a>
</g>
</g>
<!-- Node2&#45;&gt;Node7 -->
<g id="edge6_Node000002_Node000007" class="edge">
<title>Node2&#45;&gt;Node7</title>
<g id="a_edge6_Node000002_Node000007"><a xlink:title=" ">
<path fill="none" stroke="#63b8ff" d="M342.22,-232.31C360.05,-234.08 378.45,-235.9 394.89,-237.53"/>
<polygon fill="#63b8ff" stroke="#63b8ff" points="394.56,-241.02 404.85,-238.52 395.25,-234.05 394.56,-241.02"/>
</a>
</g>
</g>
<!-- Node8 -->
<g id="Node000008" class="node">
<title>Node8</title>
<g id="a_Node000008"><a target="_parent" xlink:href="http://en.cppreference.com/w/cpp/container/vector/push_back.html#" xlink:title=" ">
<polygon fill="white" stroke="#666666" points="514,-215.5 388,-215.5 388,-196.5 514,-196.5 514,-215.5"/>
<text text-anchor="middle" x="451" y="-203.5" font-family="Helvetica,sans-Serif" font-size="10.00">std::vector::push_back</text>
</a>
</g>
</g>
<!-- Node2&#45;&gt;Node8 -->
<g id="edge7_Node000002_Node000008" class="edge">
<title>Node2&#45;&gt;Node8</title>
<g id="a_edge7_Node000002_Node000008"><a xlink:title=" ">
<path fill="none" stroke="#63b8ff" d="M342.22,-216.13C354.05,-215.02 366.13,-213.88 377.72,-212.79"/>
<polygon fill="#63b8ff" stroke="#63b8ff" points="378.13,-216.27 387.76,-211.85 377.48,-209.3 378.13,-216.27"/>
</a>
</g>
</g>
<!-- Node9 -->
<g id="Node000009" class="node">
<title>Node9</title>
<g id="a_Node000009"><a target="_parent" xlink:href="http://en.cppreference.com/w/cpp/algorithm/sort.html#" xlink:title=" ">
<polygon fill="white" stroke="#666666" points="479,-178.5 423,-178.5 423,-159.5 479,-159.5 479,-178.5"/>
<text text-anchor="middle" x="451" y="-166.5" font-family="Helvetica,sans-Serif" font-size="10.00">std::sort</text>
</a>
</g>
</g>
<!-- Node2&#45;&gt;Node9 -->
<g id="edge8_Node000002_Node000009" class="edge">
<title>Node2&#45;&gt;Node9</title>
<g id="a_edge8_Node000002_Node000009"><a xlink:title=" ">
<path fill="none" stroke="#63b8ff" d="M287.83,-214.42C311.94,-206.67 347.04,-195.65 378,-187 389.31,-183.84 401.68,-180.65 412.94,-177.85"/>
<polygon fill="#63b8ff" stroke="#63b8ff" points="414.02,-181.19 422.9,-175.4 412.35,-174.39 414.02,-181.19"/>
</a>
</g>
</g>
<!-- Node5 -->
<g id="Node000005" class="node">
<title>Node5</title>
<g id="a_Node000005"><a target="_parent" xlink:href="http://en.cppreference.com/w/cpp/algorithm/min.html#" xlink:title=" ">
<polygon fill="white" stroke="#666666" points="647.5,-307.5 591.5,-307.5 591.5,-288.5 647.5,-288.5 647.5,-307.5"/>
<text text-anchor="middle" x="619.5" y="-295.5" font-family="Helvetica,sans-Serif" font-size="10.00">std::min</text>
</a>
</g>
</g>
<!-- Node4&#45;&gt;Node5 -->
<g id="edge4_Node000004_Node000005" class="edge">
<title>Node4&#45;&gt;Node5</title>
<g id="a_edge4_Node000004_Node000005"><a xlink:title=" ">
<path fill="none" stroke="#63b8ff" d="M524.06,-287.79C543.86,-289.93 564.51,-292.16 581.44,-293.99"/>
<polygon fill="#63b8ff" stroke="#63b8ff" points="581.14,-297.48 591.46,-295.08 581.89,-290.52 581.14,-297.48"/>
</a>
</g>
</g>
<!-- Node6 -->
<g id="Node000006" class="node">
<title>Node6</title>
<g id="a_Node000006"><a target="_parent" xlink:href="http://en.cppreference.com/w/cpp/string/basic_string_view/size.html#" xlink:title=" ">
<polygon fill="white" stroke="#666666" points="679,-270.5 560,-270.5 560,-251.5 679,-251.5 679,-270.5"/>
<text text-anchor="middle" x="619.5" y="-258.5" font-family="Helvetica,sans-Serif" font-size="10.00">std::string_view::size</text>
</a>
</g>
</g>
<!-- Node4&#45;&gt;Node6 -->
<g id="edge5_Node000004_Node000006" class="edge">
<title>Node4&#45;&gt;Node6</title>
<g id="a_edge5_Node000004_Node000006"><a xlink:title=" ">
<path fill="none" stroke="#63b8ff" d="M524.06,-271.78C532.56,-270.81 541.21,-269.82 549.67,-268.85"/>
<polygon fill="#63b8ff" stroke="#63b8ff" points="550.31,-272.3 559.85,-267.69 549.52,-265.35 550.31,-272.3"/>
</a>
</g>
</g>
<!-- Node11 -->
<g id="Node000011" class="node">
<title>Node11</title>
<g id="a_Node000011"><a target="_parent" xlink:href="http://en.cppreference.com/w/cpp/algorithm/all_any_none_of.html#" xlink:title=" ">
<polygon fill="white" stroke="#666666" points="486.5,-141.5 415.5,-141.5 415.5,-122.5 486.5,-122.5 486.5,-141.5"/>
<text text-anchor="middle" x="451" y="-129.5" font-family="Helvetica,sans-Serif" font-size="10.00">std::any_of</text>
</a>
</g>
</g>
<!-- Node10&#45;&gt;Node11 -->
<g id="edge10_Node000010_Node000011" class="edge">
<title>Node10&#45;&gt;Node11</title>
<g id="a_edge10_Node000010_Node000011"><a xlink:title=" ">
<path fill="none" stroke="#63b8ff" d="M326.02,-141.71C352.28,-139.65 381.66,-137.35 405.22,-135.51"/>
<polygon fill="#63b8ff" stroke="#63b8ff" points="405.58,-138.99 415.27,-134.72 405.03,-132.01 405.58,-138.99"/>
</a>
</g>
</g>
<!-- Node12&#45;&gt;Node12 -->
<g id="edge12_Node000012_Node000012" class="edge">
<title>Node12&#45;&gt;Node12</title>
<g id="a_edge12_Node000012_Node000012"><a xlink:title=" ">
<path fill="none" stroke="#63b8ff" d="M224.45,-96.28C217.11,-105.41 228.12,-114 257.5,-114 274.94,-114 285.91,-110.97 290.41,-106.6"/>
<polygon fill="#63b8ff" stroke="#63b8ff" points="293.91,-106.32 290.55,-96.28 286.91,-106.23 293.91,-106.32"/>
</a>
</g>
</g>
<!-- Node13&#45;&gt;Node13 -->
<g id="edge15_Node000013_Node000013" class="edge">
<title>Node13&#45;&gt;Node13</title>
<g id="a_edge15_Node000013_Node000013"><a xlink:title=" ">
<path fill="none" stroke="#63b8ff" d="M224.45,-30.28C217.11,-39.41 228.12,-48 257.5,-48 274.94,-48 285.91,-44.97 290.41,-40.6"/>
<polygon fill="#63b8ff" stroke="#63b8ff" points="293.91,-40.32 290.55,-30.28 286.91,-40.23 293.91,-40.32"/>
</a>
</g>
</g>
</g>
</svg>

<g id="navigator" transform="translate(0 0)" fill="#404254">
  <rect fill="#f2f5e9" fill-opacity="0.5" stroke="#606060" stroke-width=".5" x="0" y="0" width="60" height="60"/>
  <use id="zoomplus" xlink:href="#zoomPlus" x="17" y="9" onmousedown="handleZoom(evt,'in')"/>
  <use id="zoomminus" xlink:href="#zoomMin" x="42" y="9" onmousedown="handleZoom(evt,'out')"/>
  <use id="reset" xlink:href="#resetDef" x="30" y="36" onmousedown="handleReset()"/>
   <use id="arrowup" xlink:href="#arrowUp" x="0" y="0" onmousedown="handlePan(0,-1)"/>
  <use id="arrowright" xlink:href="#arrowRight" x="0" y="0" onmousedown="handlePan(1,0)"/>
  <use id="arrowdown" xlink:href="#arrowDown" x="0" y="0" onmousedown="handlePan(0,1)"/>
  <use id="arrowleft" xlink:href="#arrowLeft" x="0" y="0" onmousedown="handlePan(-1,0)"/>
</g>
<svg viewBox="0 0 15 15" width="100%" height="30px" preserveAspectRatio="xMaxYMin meet">
 <g id="arrow_out" transform="scale(0.3 0.3)">
  <a xlink:href="classprecice_1_1impl_1_1ParticipantState_a0a2e7a5b2fc95ebf8e8cdeaa168459fa_cgraph_org.svg" target="_base">
   <rect id="button" ry="5" rx="5" y="6" x="6" height="38" width="38"
        fill="#f2f5e9" fill-opacity="0.5" stroke="#606060" stroke-width="1.0"/>
   <path id="arrow"
     d="M 11.500037,31.436501 C 11.940474,20.09759 22.043105,11.32322 32.158766,21.979434 L 37.068811,17.246167 C 37.068811,17.246167 37.088388,32 37.088388,32 L 22.160133,31.978069 C 22.160133,31.978069 26.997745,27.140456 26.997745,27.140456 C 18.528582,18.264221 13.291696,25.230495 11.500037,31.436501 z"
     style="fill:#404040;"/>
  </a>
 </g>
</svg>

<style type='text/css'>
<![CDATA[
[data-mouse-over-selected='false'] { opacity: 0.7; }
[data-mouse-over-selected='true']  { opacity: 1.0; }
]]>
</style>
<script type="application/ecmascript"><![CDATA[
document.addEventListener('DOMContentLoaded', (event) => {
  highlightEdges();
  highlightAdjacentNodes();
});
]]></script>
</svg>
