<?xml version="1.0" encoding="UTF-8" standalone="no"?>
<!DOCTYPE svg PUBLIC "-//W3C//DTD SVG 1.1//EN"
 "http://www.w3.org/Graphics/SVG/1.1/DTD/svg11.dtd">
<!-- Generated by graphviz version 2.43.0 (0)
 -->
<!-- Title: precice::mapping::NearestProjectionMapping::computeMapping Pages: 1 -->
<!--zoomable 235 -->
<svg id="main" version="1.1" xmlns="http://www.w3.org/2000/svg" xmlns:xlink="http://www.w3.org/1999/xlink" xml:space="preserve" onload="init(evt)">
<style type="text/css"><![CDATA[
.edge:hover path { stroke: red; }
.edge:hover polygon { stroke: red; fill: red; }
]]></style>
<script type="text/javascript"><![CDATA[
var edges = document.getElementsByTagName('g');
if (edges && edges.length) {
  for (var i=0;i<edges.length;i++) {
    if (edges[i].id.substr(0,4)=='edge') {
      edges[i].setAttribute('class','edge');
    }
  }
}
]]></script>
        <defs>
                <circle id="rim" cx="0" cy="0" r="7"/>
                <circle id="rim2" cx="0" cy="0" r="3.5"/>
                <g id="zoomPlus">
                        <use xlink:href="#rim" fill="#404040">
                                <set attributeName="fill" to="#808080" begin="zoomplus.mouseover" end="zoomplus.mouseout"/>
                        </use>
                        <path d="M-4,0h8M0,-4v8" fill="none" stroke="white" stroke-width="1.5" pointer-events="none"/>
                </g>
                <g id="zoomMin">
                        <use xlink:href="#rim" fill="#404040">
                                <set attributeName="fill" to="#808080" begin="zoomminus.mouseover" end="zoomminus.mouseout"/>
                        </use>
                        <path d="M-4,0h8" fill="none" stroke="white" stroke-width="1.5" pointer-events="none"/>
                </g>
                <g id="dirArrow">
                        <path fill="none" stroke="white" stroke-width="1.5" d="M0,-3.0v7 M-2.5,-0.5L0,-3.0L2.5,-0.5"/>
                </g>
               <g id="resetDef">
                       <use xlink:href="#rim2" fill="#404040">
                               <set attributeName="fill" to="#808080" begin="reset.mouseover" end="reset.mouseout"/>
                       </use>
               </g>
        </defs>

<script type="text/javascript">
var viewWidth = 602;
var viewHeight = 235;
var sectionId = 'dynsection-3';
</script>
<script xlink:href="svgpan.js"/>
<svg id="graph" class="graph">
<g id="viewport">
<title>precice::mapping::NearestProjectionMapping::computeMapping</title>
<polygon fill="white" stroke="transparent" points="-4,4 -4,-231 598,-231 598,4 -4,4"/>
<!-- Node1 -->
<g id="node1" class="node">
<title>Node1</title>
<g id="a_node1"><a xlink:title="Computes the projections and interpolation relations.">
<polygon fill="#bfbfbf" stroke="black" points="0,-98.5 0,-128.5 198,-128.5 198,-98.5 0,-98.5"/>
<text text-anchor="start" x="8" y="-116.5" font-family="Helvetica,sans-Serif" font-size="10.00">precice::mapping::Nearest</text>
<text text-anchor="middle" x="99" y="-105.5" font-family="Helvetica,sans-Serif" font-size="10.00">ProjectionMapping::computeMapping</text>
</a>
</g>
</g>
<!-- Node2 -->
<g id="node2" class="node">
<title>Node2</title>
<g id="a_node2"><a xlink:href="classprecice_1_1utils_1_1statistics_1_1DistanceAccumulator.html#ab62a4d99f3b8c512aeb45a3a9ae0547b" target="_top" xlink:title="Returns count == 0.">
<polygon fill="white" stroke="black" points="234,-196.5 234,-226.5 398,-226.5 398,-196.5 234,-196.5"/>
<text text-anchor="start" x="242" y="-214.5" font-family="Helvetica,sans-Serif" font-size="10.00">precice::utils::statistics</text>
<text text-anchor="middle" x="316" y="-203.5" font-family="Helvetica,sans-Serif" font-size="10.00">::DistanceAccumulator::empty</text>
</a>
</g>
</g>
<!-- Node1&#45;&gt;Node2 -->
<g id="edge1" class="edge">
<title>Node1&#45;&gt;Node2</title>
<path fill="none" stroke="midnightblue" d="M123.9,-128.78C150.11,-145.04 193.79,-170.68 234,-187.5 238.7,-189.47 243.62,-191.34 248.6,-193.11"/>
<polygon fill="midnightblue" stroke="midnightblue" points="247.64,-196.48 258.24,-196.39 249.9,-189.86 247.64,-196.48"/>
</g>
<!-- Node4 -->
<g id="node4" class="node">
<title>Node4</title>
<g id="a_node4"><a xlink:href="classprecice_1_1mapping_1_1Mapping.html#a393912fe4919edd098e96f66ffbe0d52" target="_top" xlink:title=" ">
<polygon fill="white" stroke="black" points="241.5,-147.5 241.5,-177.5 390.5,-177.5 390.5,-147.5 241.5,-147.5"/>
<text text-anchor="start" x="249.5" y="-165.5" font-family="Helvetica,sans-Serif" font-size="10.00">precice::mapping::Mapping</text>
<text text-anchor="middle" x="316" y="-154.5" font-family="Helvetica,sans-Serif" font-size="10.00">::getDimensions</text>
</a>
</g>
</g>
<!-- Node1&#45;&gt;Node4 -->
<g id="edge3" class="edge">
<title>Node1&#45;&gt;Node4</title>
<path fill="none" stroke="midnightblue" d="M165.97,-128.53C189.19,-133.83 215.46,-139.81 239.4,-145.27"/>
<polygon fill="midnightblue" stroke="midnightblue" points="238.63,-148.68 249.16,-147.49 240.18,-141.86 238.63,-148.68"/>
</g>
<!-- Node5 -->
<g id="node5" class="node">
<title>Node5</title>
<g id="a_node5"><a xlink:href="classprecice_1_1mapping_1_1Mapping.html#aeea2d39f5e6ce0eaa97ebe436ff89991" target="_top" xlink:title="Checks whether the mapping has the given constraint or not.">
<polygon fill="white" stroke="black" points="241.5,-98.5 241.5,-128.5 390.5,-128.5 390.5,-98.5 241.5,-98.5"/>
<text text-anchor="start" x="249.5" y="-116.5" font-family="Helvetica,sans-Serif" font-size="10.00">precice::mapping::Mapping</text>
<text text-anchor="middle" x="316" y="-105.5" font-family="Helvetica,sans-Serif" font-size="10.00">::hasConstraint</text>
</a>
</g>
</g>
<!-- Node1&#45;&gt;Node5 -->
<g id="edge4" class="edge">
<title>Node1&#45;&gt;Node5</title>
<path fill="none" stroke="midnightblue" d="M198.06,-113.5C209.06,-113.5 220.18,-113.5 230.98,-113.5"/>
<polygon fill="midnightblue" stroke="midnightblue" points="231.21,-117 241.21,-113.5 231.21,-110 231.21,-117"/>
</g>
<!-- Node7 -->
<g id="node7" class="node">
<title>Node7</title>
<g id="a_node7"><a xlink:href="classprecice_1_1mapping_1_1Mapping.html#a61c3c55af467ada2bdd735efa0f960e4" target="_top" xlink:title="Returns pointer to input mesh.">
<polygon fill="white" stroke="black" points="241.5,-49.5 241.5,-79.5 390.5,-79.5 390.5,-49.5 241.5,-49.5"/>
<text text-anchor="start" x="249.5" y="-67.5" font-family="Helvetica,sans-Serif" font-size="10.00">precice::mapping::Mapping</text>
<text text-anchor="middle" x="316" y="-56.5" font-family="Helvetica,sans-Serif" font-size="10.00">::input</text>
</a>
</g>
</g>
<!-- Node1&#45;&gt;Node7 -->
<g id="edge6" class="edge">
<title>Node1&#45;&gt;Node7</title>
<path fill="none" stroke="midnightblue" d="M165.97,-98.47C189.19,-93.17 215.46,-87.19 239.4,-81.73"/>
<polygon fill="midnightblue" stroke="midnightblue" points="240.18,-85.14 249.16,-79.51 238.63,-78.32 240.18,-85.14"/>
</g>
<!-- Node8 -->
<g id="node8" class="node">
<title>Node8</title>
<g id="a_node8"><a xlink:href="classprecice_1_1mapping_1_1Mapping.html#a07a71a54b71eda6d54510c94fb188e70" target="_top" xlink:title="Returns pointer to output mesh.">
<polygon fill="white" stroke="black" points="241.5,-0.5 241.5,-30.5 390.5,-30.5 390.5,-0.5 241.5,-0.5"/>
<text text-anchor="start" x="249.5" y="-18.5" font-family="Helvetica,sans-Serif" font-size="10.00">precice::mapping::Mapping</text>
<text text-anchor="middle" x="316" y="-7.5" font-family="Helvetica,sans-Serif" font-size="10.00">::output</text>
</a>
</g>
</g>
<!-- Node1&#45;&gt;Node8 -->
<g id="edge7" class="edge">
<title>Node1&#45;&gt;Node8</title>
<path fill="none" stroke="midnightblue" d="M124.45,-98.24C150.77,-82.29 194.21,-57.28 234,-40.5 239.47,-38.19 245.23,-35.99 251.05,-33.92"/>
<polygon fill="midnightblue" stroke="midnightblue" points="252.54,-37.11 260.87,-30.56 250.27,-30.49 252.54,-37.11"/>
</g>
<!-- Node3 -->
<g id="node3" class="node">
<title>Node3</title>
<g id="a_node3"><a xlink:href="classprecice_1_1utils_1_1statistics_1_1DistanceAccumulator.html#ac9b87639f46a763b1f35cce56f78edd7" target="_top" xlink:title="Returns how many values have been accumulated.">
<polygon fill="white" stroke="black" points="434,-196.5 434,-226.5 594,-226.5 594,-196.5 434,-196.5"/>
<text text-anchor="start" x="442" y="-214.5" font-family="Helvetica,sans-Serif" font-size="10.00">precice::utils::statistics</text>
<text text-anchor="middle" x="514" y="-203.5" font-family="Helvetica,sans-Serif" font-size="10.00">::DistanceAccumulator::count</text>
</a>
</g>
</g>
<!-- Node2&#45;&gt;Node3 -->
<g id="edge2" class="edge">
<title>Node2&#45;&gt;Node3</title>
<path fill="none" stroke="midnightblue" d="M398.14,-211.5C406.52,-211.5 415.08,-211.5 423.55,-211.5"/>
<polygon fill="midnightblue" stroke="midnightblue" points="423.82,-215 433.82,-211.5 423.82,-208 423.82,-215"/>
</g>
<!-- Node6 -->
<g id="node6" class="node">
<title>Node6</title>
<g id="a_node6"><a xlink:href="classprecice_1_1mapping_1_1Mapping.html#a6afbd9aaac2ab09b078db271cfd977a1" target="_top" xlink:title="Returns the constraint (consistent/conservative) of the mapping.">
<polygon fill="white" stroke="black" points="439.5,-98.5 439.5,-128.5 588.5,-128.5 588.5,-98.5 439.5,-98.5"/>
<text text-anchor="start" x="447.5" y="-116.5" font-family="Helvetica,sans-Serif" font-size="10.00">precice::mapping::Mapping</text>
<text text-anchor="middle" x="514" y="-105.5" font-family="Helvetica,sans-Serif" font-size="10.00">::getConstraint</text>
</a>
</g>
</g>
<!-- Node5&#45;&gt;Node6 -->
<g id="edge5" class="edge">
<title>Node5&#45;&gt;Node6</title>
<path fill="none" stroke="midnightblue" d="M390.54,-113.5C403.14,-113.5 416.32,-113.5 429.16,-113.5"/>
<polygon fill="midnightblue" stroke="midnightblue" points="429.37,-117 439.37,-113.5 429.37,-110 429.37,-117"/>
</g>
</g>
</svg>
        <g id="navigator" transform="translate(0 0)" fill="#404254">
                <rect fill="#f2f5e9" fill-opacity="0.5" stroke="#606060" stroke-width=".5" x="0" y="0" width="60" height="60"/>
                <use id="zoomplus" xlink:href="#zoomPlus" x="17" y="9" onmousedown="handleZoom(evt,'in')"/>
                <use id="zoomminus" xlink:href="#zoomMin" x="42" y="9" onmousedown="handleZoom(evt,'out')"/>
                <use id="reset" xlink:href="#resetDef" x="30" y="36" onmousedown="handleReset()"/>
                <g id="arrowUp" xlink:href="#dirArrow" transform="translate(30 24)" onmousedown="handlePan(0,-1)">
                  <use xlink:href="#rim" fill="#404040">
                        <set attributeName="fill" to="#808080" begin="arrowUp.mouseover" end="arrowUp.mouseout"/>
                  </use>
                  <path fill="none" stroke="white" stroke-width="1.5" d="M0,-3.0v7 M-2.5,-0.5L0,-3.0L2.5,-0.5"/>
                </g>
                <g id="arrowRight" xlink:href="#dirArrow" transform="rotate(90) translate(36 -43)" onmousedown="handlePan(1,0)">
                  <use xlink:href="#rim" fill="#404040">
                        <set attributeName="fill" to="#808080" begin="arrowRight.mouseover" end="arrowRight.mouseout"/>
                  </use>
                  <path fill="none" stroke="white" stroke-width="1.5" d="M0,-3.0v7 M-2.5,-0.5L0,-3.0L2.5,-0.5"/>
                </g>
                <g id="arrowDown" xlink:href="#dirArrow" transform="rotate(180) translate(-30 -48)" onmousedown="handlePan(0,1)">
                  <use xlink:href="#rim" fill="#404040">
                        <set attributeName="fill" to="#808080" begin="arrowDown.mouseover" end="arrowDown.mouseout"/>
                  </use>
                  <path fill="none" stroke="white" stroke-width="1.5" d="M0,-3.0v7 M-2.5,-0.5L0,-3.0L2.5,-0.5"/>
                </g>
                <g id="arrowLeft" xlink:href="#dirArrow" transform="rotate(270) translate(-36 17)" onmousedown="handlePan(-1,0)">
                  <use xlink:href="#rim" fill="#404040">
                        <set attributeName="fill" to="#808080" begin="arrowLeft.mouseover" end="arrowLeft.mouseout"/>
                  </use>
                  <path fill="none" stroke="white" stroke-width="1.5" d="M0,-3.0v7 M-2.5,-0.5L0,-3.0L2.5,-0.5"/>
                </g>
        </g>
        <svg viewBox="0 0 15 15" width="100%" height="30px" preserveAspectRatio="xMaxYMin meet">
         <g id="arrow_out" transform="scale(0.3 0.3)">
          <a xlink:href="classprecice_1_1mapping_1_1NearestProjectionMapping_a9ebdd1c6892b7e3eceb3fdd8e963a4f7_cgraph_org.svg" target="_base">
           <rect id="button" ry="5" rx="5" y="6" x="6" height="38" width="38"
                fill="#f2f5e9" fill-opacity="0.5" stroke="#606060" stroke-width="1.0"/>
           <path id="arrow"
             d="M 11.500037,31.436501 C 11.940474,20.09759 22.043105,11.32322 32.158766,21.979434 L 37.068811,17.246167 C 37.068811,17.246167 37.088388,32 37.088388,32 L 22.160133,31.978069 C 22.160133,31.978069 26.997745,27.140456 26.997745,27.140456 C 18.528582,18.264221 13.291696,25.230495 11.500037,31.436501 z"
             style="fill:#404040;"/>
          </a>
         </g>
        </svg>
</svg>
