<?xml version="1.0" encoding="UTF-8" standalone="no"?>
<!DOCTYPE svg PUBLIC "-//W3C//DTD SVG 1.1//EN"
 "http://www.w3.org/Graphics/SVG/1.1/DTD/svg11.dtd">
<!-- Generated by graphviz version 2.43.0 (0)
 -->
<!-- Title: precice::logging::LogConfiguration::LogConfiguration Pages: 1 -->
<svg width="925pt" height="481pt"
 viewBox="0.00 0.00 925.00 481.00" xmlns="http://www.w3.org/2000/svg" xmlns:xlink="http://www.w3.org/1999/xlink">
<g id="graph0" class="graph" transform="scale(1 1) rotate(0) translate(4 477)">
<title>precice::logging::LogConfiguration::LogConfiguration</title>
<!-- Node1 -->
<g id="Node000001" class="node">
<title>Node1</title>
<g id="a_Node000001"><a xlink:title=" ">
<polygon fill="#999999" stroke="#666666" points="182,-291.5 0,-291.5 0,-261.5 182,-261.5 182,-291.5"/>
<text text-anchor="start" x="8" y="-279.5" font-family="Helvetica,sans-Serif" font-size="10.00">precice::logging::LogConfiguration</text>
<text text-anchor="middle" x="91" y="-268.5" font-family="Helvetica,sans-Serif" font-size="10.00">::LogConfiguration</text>
</a>
</g>
</g>
<!-- Node2 -->
<g id="Node000002" class="node">
<title>Node2</title>
<g id="a_Node000002"><a xlink:href="classprecice_1_1xml_1_1XMLTag.html#af81dc6eea2b9a75e14ddd6033ed9a1d4" target="_top" xlink:title="Adds an XML tag as subtag by making a copy of the given tag.">
<polygon fill="white" stroke="#666666" points="360,-419.5 241,-419.5 241,-389.5 360,-389.5 360,-419.5"/>
<text text-anchor="start" x="249" y="-407.5" font-family="Helvetica,sans-Serif" font-size="10.00">precice::xml::XMLTag</text>
<text text-anchor="middle" x="300.5" y="-396.5" font-family="Helvetica,sans-Serif" font-size="10.00">::addSubtag</text>
</a>
</g>
</g>
<!-- Node1&#45;&gt;Node2 -->
<g id="edge1_Node000001_Node000002" class="edge">
<title>Node1&#45;&gt;Node2</title>
<g id="a_edge1_Node000001_Node000002"><a xlink:title=" ">
<path fill="none" stroke="#63b8ff" d="M116.62,-291.69C153.82,-314.64 224.45,-358.21 266.21,-383.97"/>
<polygon fill="#63b8ff" stroke="#63b8ff" points="264.57,-387.06 274.91,-389.33 268.24,-381.1 264.57,-387.06"/>
</a>
</g>
</g>
<!-- Node11 -->
<g id="Node000011" class="node">
<title>Node11</title>
<g id="a_Node000011"><a xlink:href="namespaceprecice_1_1logging.html#a0b39b47931451a7576faa4e42e6c968e" target="_top" xlink:title="Configures the logging from a LoggingConfiguration.">
<polygon fill="white" stroke="#666666" points="383,-201 218,-201 218,-182 383,-182 383,-201"/>
<text text-anchor="middle" x="300.5" y="-189" font-family="Helvetica,sans-Serif" font-size="10.00">precice::logging::setupLogging</text>
</a>
</g>
</g>
<!-- Node1&#45;&gt;Node11 -->
<g id="edge10_Node000001_Node000011" class="edge">
<title>Node1&#45;&gt;Node11</title>
<g id="a_edge10_Node000001_Node000011"><a xlink:title=" ">
<path fill="none" stroke="#63b8ff" d="M128.62,-261.5C167.71,-245.49 229.08,-220.35 266.66,-204.95"/>
<polygon fill="#63b8ff" stroke="#63b8ff" points="268.2,-208.1 276.13,-201.07 265.55,-201.63 268.2,-208.1"/>
</a>
</g>
</g>
<!-- Node3 -->
<g id="Node000003" class="node">
<title>Node3</title>
<g id="a_Node000003"><a target="_parent" xlink:href="http://en.cppreference.com/w/cpp/string/basic_string/empty.html#" xlink:title=" ">
<polygon fill="white" stroke="#666666" points="544,-473 441,-473 441,-454 544,-454 544,-473"/>
<text text-anchor="middle" x="492.5" y="-461" font-family="Helvetica,sans-Serif" font-size="10.00">std::string::empty</text>
</a>
</g>
</g>
<!-- Node2&#45;&gt;Node3 -->
<g id="edge2_Node000002_Node000003" class="edge">
<title>Node2&#45;&gt;Node3</title>
<g id="a_edge2_Node000002_Node000003"><a xlink:title=" ">
<path fill="none" stroke="#63b8ff" d="M341.71,-419.57C364.27,-427.75 393.01,-437.76 419,-445.5 425.92,-447.56 433.26,-449.58 440.51,-451.47"/>
<polygon fill="#63b8ff" stroke="#63b8ff" points="439.74,-454.89 450.3,-453.97 441.47,-448.1 439.74,-454.89"/>
</a>
</g>
</g>
<!-- Node4 -->
<g id="Node000004" class="node">
<title>Node4</title>
<g id="a_Node000004"><a target="_parent" xlink:href="http://en.cppreference.com/w/cpp/memory/shared_ptr/make_shared.html#" xlink:title=" ">
<polygon fill="white" stroke="#666666" points="544,-436 441,-436 441,-417 544,-417 544,-436"/>
<text text-anchor="middle" x="492.5" y="-424" font-family="Helvetica,sans-Serif" font-size="10.00">std::make_shared</text>
</a>
</g>
</g>
<!-- Node2&#45;&gt;Node4 -->
<g id="edge3_Node000002_Node000004" class="edge">
<title>Node2&#45;&gt;Node4</title>
<g id="a_edge3_Node000002_Node000004"><a xlink:title=" ">
<path fill="none" stroke="#63b8ff" d="M360.06,-411.28C382.47,-413.88 408.06,-416.84 430.68,-419.46"/>
<polygon fill="#63b8ff" stroke="#63b8ff" points="430.5,-422.96 440.84,-420.63 431.31,-416.01 430.5,-422.96"/>
</a>
</g>
</g>
<!-- Node5 -->
<g id="Node000005" class="node">
<title>Node5</title>
<g id="a_Node000005"><a xlink:href="classprecice_1_1xml_1_1XMLTag.html#ab41dfcb33c2d54376d455e04bfbcdc4c" target="_top" xlink:title="Standard constructor.">
<polygon fill="white" stroke="#666666" points="552,-398.5 433,-398.5 433,-368.5 552,-368.5 552,-398.5"/>
<text text-anchor="start" x="441" y="-386.5" font-family="Helvetica,sans-Serif" font-size="10.00">precice::xml::XMLTag</text>
<text text-anchor="middle" x="492.5" y="-375.5" font-family="Helvetica,sans-Serif" font-size="10.00">::XMLTag</text>
</a>
</g>
</g>
<!-- Node2&#45;&gt;Node5 -->
<g id="edge4_Node000002_Node000005" class="edge">
<title>Node2&#45;&gt;Node5</title>
<g id="a_edge4_Node000002_Node000005"><a xlink:title=" ">
<path fill="none" stroke="#63b8ff" d="M360.06,-398.03C379.83,-395.84 402.09,-393.38 422.59,-391.12"/>
<polygon fill="#63b8ff" stroke="#63b8ff" points="423.25,-394.56 432.81,-389.99 422.49,-387.61 423.25,-394.56"/>
</a>
</g>
</g>
<!-- Node6 -->
<g id="Node000006" class="node">
<title>Node6</title>
<g id="a_Node000006"><a xlink:href="namespaceprecice_1_1utils.html#a00b79785686ed1cfeffb43af0b212092" target="_top" xlink:title=" ">
<polygon fill="white" stroke="#666666" points="750,-393 602,-393 602,-374 750,-374 750,-393"/>
<text text-anchor="middle" x="676" y="-381" font-family="Helvetica,sans-Serif" font-size="10.00">precice::utils::isKebabStyle</text>
</a>
</g>
</g>
<!-- Node5&#45;&gt;Node6 -->
<g id="edge5_Node000005_Node000006" class="edge">
<title>Node5&#45;&gt;Node6</title>
<g id="a_edge5_Node000005_Node000006"><a xlink:title=" ">
<path fill="none" stroke="#63b8ff" d="M552.18,-383.5C564.8,-383.5 578.38,-383.5 591.74,-383.5"/>
<polygon fill="#63b8ff" stroke="#63b8ff" points="591.9,-387 601.9,-383.5 591.9,-380 591.9,-387"/>
</a>
</g>
</g>
<!-- Node7 -->
<g id="Node000007" class="node">
<title>Node7</title>
<g id="a_Node000007"><a target="_parent" xlink:href="http://en.cppreference.com/w/cpp/string/basic_string_view/begin.html#" xlink:title=" ">
<polygon fill="white" stroke="#666666" points="914.5,-449 788.5,-449 788.5,-430 914.5,-430 914.5,-449"/>
<text text-anchor="middle" x="851.5" y="-437" font-family="Helvetica,sans-Serif" font-size="10.00">std::string_view::begin</text>
</a>
</g>
</g>
<!-- Node6&#45;&gt;Node7 -->
<g id="edge6_Node000006_Node000007" class="edge">
<title>Node6&#45;&gt;Node7</title>
<g id="a_edge6_Node000006_Node000007"><a xlink:title=" ">
<path fill="none" stroke="#63b8ff" d="M702.83,-393.02C724.82,-401.01 757.32,-412.51 786,-421.5 792.12,-423.42 798.59,-425.34 804.98,-427.19"/>
<polygon fill="#63b8ff" stroke="#63b8ff" points="804.32,-430.64 814.9,-430 806.23,-423.9 804.32,-430.64"/>
</a>
</g>
</g>
<!-- Node8 -->
<g id="Node000008" class="node">
<title>Node8</title>
<g id="a_Node000008"><a target="_parent" xlink:href="http://en.cppreference.com/w/cpp/string/basic_string_view/empty.html#" xlink:title=" ">
<polygon fill="white" stroke="#666666" points="917,-412 786,-412 786,-393 917,-393 917,-412"/>
<text text-anchor="middle" x="851.5" y="-400" font-family="Helvetica,sans-Serif" font-size="10.00">std::string_view::empty</text>
</a>
</g>
</g>
<!-- Node6&#45;&gt;Node8 -->
<g id="edge7_Node000006_Node000008" class="edge">
<title>Node6&#45;&gt;Node8</title>
<g id="a_edge7_Node000006_Node000008"><a xlink:title=" ">
<path fill="none" stroke="#63b8ff" d="M750.08,-391.5C758.5,-392.43 767.11,-393.37 775.56,-394.29"/>
<polygon fill="#63b8ff" stroke="#63b8ff" points="775.45,-397.8 785.77,-395.41 776.21,-390.84 775.45,-397.8"/>
</a>
</g>
</g>
<!-- Node9 -->
<g id="Node000009" class="node">
<title>Node9</title>
<g id="a_Node000009"><a target="_parent" xlink:href="http://en.cppreference.com/w/cpp/string/basic_string_view/end.html#" xlink:title=" ">
<polygon fill="white" stroke="#666666" points="910,-375 793,-375 793,-356 910,-356 910,-375"/>
<text text-anchor="middle" x="851.5" y="-363" font-family="Helvetica,sans-Serif" font-size="10.00">std::string_view::end</text>
</a>
</g>
</g>
<!-- Node6&#45;&gt;Node9 -->
<g id="edge8_Node000006_Node000009" class="edge">
<title>Node6&#45;&gt;Node9</title>
<g id="a_edge8_Node000006_Node000009"><a xlink:title=" ">
<path fill="none" stroke="#63b8ff" d="M750.08,-375.92C760.88,-374.8 771.98,-373.65 782.68,-372.54"/>
<polygon fill="#63b8ff" stroke="#63b8ff" points="783.2,-376 792.79,-371.49 782.48,-369.04 783.2,-376"/>
</a>
</g>
</g>
<!-- Node10 -->
<g id="Node000010" class="node">
<title>Node10</title>
<g id="a_Node000010"><a target="_parent" xlink:href="http://en.cppreference.com/w/cpp/regex/regex_match.html#" xlink:title=" ">
<polygon fill="white" stroke="#666666" points="902,-338 801,-338 801,-319 902,-319 902,-338"/>
<text text-anchor="middle" x="851.5" y="-326" font-family="Helvetica,sans-Serif" font-size="10.00">std::regex_match</text>
</a>
</g>
</g>
<!-- Node6&#45;&gt;Node10 -->
<g id="edge9_Node000006_Node000010" class="edge">
<title>Node6&#45;&gt;Node10</title>
<g id="a_edge9_Node000006_Node000010"><a xlink:title=" ">
<path fill="none" stroke="#63b8ff" d="M703.74,-373.96C725.73,-366.23 757.74,-355.23 786,-346.5 792.12,-344.61 798.6,-342.7 804.99,-340.86"/>
<polygon fill="#63b8ff" stroke="#63b8ff" points="806.24,-344.14 814.91,-338.05 804.34,-337.41 806.24,-344.14"/>
</a>
</g>
</g>
<!-- Node12 -->
<g id="Node000012" class="node">
<title>Node12</title>
<g id="a_Node000012"><a target="_parent" xlink:href="http://en.cppreference.com/w/cpp/container/vector/begin.html#" xlink:title=" ">
<polygon fill="white" stroke="#666666" points="543,-350 442,-350 442,-331 543,-331 543,-350"/>
<text text-anchor="middle" x="492.5" y="-338" font-family="Helvetica,sans-Serif" font-size="10.00">std::vector::begin</text>
</a>
</g>
</g>
<!-- Node11&#45;&gt;Node12 -->
<g id="edge11_Node000011_Node000012" class="edge">
<title>Node11&#45;&gt;Node12</title>
<g id="a_edge11_Node000011_Node000012"><a xlink:title=" ">
<path fill="none" stroke="#63b8ff" d="M307.29,-201.07C322.42,-225.23 365.7,-289.11 419,-321.5 423.16,-324.03 427.65,-326.22 432.29,-328.13"/>
<polygon fill="#63b8ff" stroke="#63b8ff" points="431.36,-331.51 441.96,-331.64 433.76,-324.94 431.36,-331.51"/>
</a>
</g>
</g>
<!-- Node13 -->
<g id="Node000013" class="node">
<title>Node13</title>
<g id="a_Node000013"><a target="_parent" xlink:href="http://en.cppreference.com/w/cpp/container/vector/clear.html#" xlink:title=" ">
<polygon fill="white" stroke="#666666" points="541.5,-313 443.5,-313 443.5,-294 541.5,-294 541.5,-313"/>
<text text-anchor="middle" x="492.5" y="-301" font-family="Helvetica,sans-Serif" font-size="10.00">std::vector::clear</text>
</a>
</g>
</g>
<!-- Node11&#45;&gt;Node13 -->
<g id="edge12_Node000011_Node000013" class="edge">
<title>Node11&#45;&gt;Node13</title>
<g id="a_edge12_Node000011_Node000013"><a xlink:title=" ">
<path fill="none" stroke="#63b8ff" d="M310.89,-201.26C329.65,-220.18 373.84,-261.96 419,-284.5 423.68,-286.84 428.68,-288.91 433.79,-290.74"/>
<polygon fill="#63b8ff" stroke="#63b8ff" points="433.08,-294.19 443.67,-293.97 435.25,-287.54 433.08,-294.19"/>
</a>
</g>
</g>
<!-- Node14 -->
<g id="Node000014" class="node">
<title>Node14</title>
<g id="a_Node000014"><a xlink:href="namespaceprecice_1_1logging.html#a68ed7252c1c07112a2ee21e0fc0b122f" target="_top" xlink:title=" ">
<polygon fill="white" stroke="#666666" points="558,-275.5 427,-275.5 427,-245.5 558,-245.5 558,-275.5"/>
<text text-anchor="start" x="435" y="-263.5" font-family="Helvetica,sans-Serif" font-size="10.00">precice::logging::create</text>
<text text-anchor="middle" x="492.5" y="-252.5" font-family="Helvetica,sans-Serif" font-size="10.00">DefaultFilter</text>
</a>
</g>
</g>
<!-- Node11&#45;&gt;Node14 -->
<g id="edge13_Node000011_Node000014" class="edge">
<title>Node11&#45;&gt;Node14</title>
<g id="a_edge13_Node000011_Node000014"><a xlink:title=" ">
<path fill="none" stroke="#63b8ff" d="M325.68,-201.14C349.35,-210.48 386.49,-224.9 419,-236.5 424.23,-238.37 429.69,-240.26 435.16,-242.13"/>
<polygon fill="#63b8ff" stroke="#63b8ff" points="434.39,-245.56 444.98,-245.45 436.63,-238.93 434.39,-245.56"/>
</a>
</g>
</g>
<!-- Node15 -->
<g id="Node000015" class="node">
<title>Node15</title>
<g id="a_Node000015"><a xlink:href="namespaceprecice_1_1logging.html#af6fe8702cb42703000c73f0cb5c6a1ef" target="_top" xlink:title=" ">
<polygon fill="white" stroke="#666666" points="558,-227.5 427,-227.5 427,-197.5 558,-197.5 558,-227.5"/>
<text text-anchor="start" x="435" y="-215.5" font-family="Helvetica,sans-Serif" font-size="10.00">precice::logging::create</text>
<text text-anchor="middle" x="492.5" y="-204.5" font-family="Helvetica,sans-Serif" font-size="10.00">DefaultFormatter</text>
</a>
</g>
</g>
<!-- Node11&#45;&gt;Node15 -->
<g id="edge14_Node000011_Node000015" class="edge">
<title>Node11&#45;&gt;Node15</title>
<g id="a_edge14_Node000011_Node000015"><a xlink:title=" ">
<path fill="none" stroke="#63b8ff" d="M383.18,-200.53C394.35,-201.76 405.76,-203.02 416.8,-204.24"/>
<polygon fill="#63b8ff" stroke="#63b8ff" points="416.48,-207.73 426.8,-205.35 417.25,-200.77 416.48,-207.73"/>
</a>
</g>
</g>
<!-- Node16 -->
<g id="Node000016" class="node">
<title>Node16</title>
<g id="a_Node000016"><a target="_parent" xlink:href="http://en.cppreference.com/w/cpp/container/vector/emplace_back.html#" xlink:title=" ">
<polygon fill="white" stroke="#666666" points="565,-179 420,-179 420,-160 565,-160 565,-179"/>
<text text-anchor="middle" x="492.5" y="-167" font-family="Helvetica,sans-Serif" font-size="10.00">std::vector::emplace_back</text>
</a>
</g>
</g>
<!-- Node11&#45;&gt;Node16 -->
<g id="edge15_Node000011_Node000016" class="edge">
<title>Node11&#45;&gt;Node16</title>
<g id="a_edge15_Node000011_Node000016"><a xlink:title=" ">
<path fill="none" stroke="#63b8ff" d="M383.18,-182.04C391.93,-181.03 400.83,-180 409.58,-178.99"/>
<polygon fill="#63b8ff" stroke="#63b8ff" points="410.23,-182.43 419.76,-177.81 409.43,-175.48 410.23,-182.43"/>
</a>
</g>
</g>
<!-- Node17 -->
<g id="Node000017" class="node">
<title>Node17</title>
<g id="a_Node000017"><a target="_parent" xlink:href="http://en.cppreference.com/w/cpp/container/vector/empty.html#" xlink:title=" ">
<polygon fill="white" stroke="#666666" points="545.5,-142 439.5,-142 439.5,-123 545.5,-123 545.5,-142"/>
<text text-anchor="middle" x="492.5" y="-130" font-family="Helvetica,sans-Serif" font-size="10.00">std::vector::empty</text>
</a>
</g>
</g>
<!-- Node11&#45;&gt;Node17 -->
<g id="edge16_Node000011_Node000017" class="edge">
<title>Node11&#45;&gt;Node17</title>
<g id="a_edge16_Node000011_Node000017"><a xlink:title=" ">
<path fill="none" stroke="#63b8ff" d="M326.95,-181.85C350.6,-173.07 386.91,-160.06 419,-150.5 425.92,-148.44 433.26,-146.42 440.51,-144.53"/>
<polygon fill="#63b8ff" stroke="#63b8ff" points="441.47,-147.9 450.3,-142.03 439.74,-141.11 441.47,-147.9"/>
</a>
</g>
</g>
<!-- Node18 -->
<g id="Node000018" class="node">
<title>Node18</title>
<g id="a_Node000018"><a target="_parent" xlink:href="http://en.cppreference.com/w/cpp/container/vector/end.html#" xlink:title=" ">
<polygon fill="white" stroke="#666666" points="538.5,-105 446.5,-105 446.5,-86 538.5,-86 538.5,-105"/>
<text text-anchor="middle" x="492.5" y="-93" font-family="Helvetica,sans-Serif" font-size="10.00">std::vector::end</text>
</a>
</g>
</g>
<!-- Node11&#45;&gt;Node18 -->
<g id="edge17_Node000011_Node000018" class="edge">
<title>Node11&#45;&gt;Node18</title>
<g id="a_edge17_Node000011_Node000018"><a xlink:title=" ">
<path fill="none" stroke="#63b8ff" d="M313.05,-181.84C333.25,-165.42 376.87,-132.05 419,-113.5 424.47,-111.09 430.33,-108.96 436.25,-107.1"/>
<polygon fill="#63b8ff" stroke="#63b8ff" points="437.6,-110.35 446.22,-104.2 435.64,-103.63 437.6,-110.35"/>
</a>
</g>
</g>
<!-- Node19 -->
<g id="Node000019" class="node">
<title>Node19</title>
<g id="a_Node000019"><a xlink:href="namespaceprecice_1_1logging.html#a90d9b50f6478a00af9aea3edd59e49cc" target="_top" xlink:title="Returns the global logging configuration.">
<polygon fill="white" stroke="#666666" points="566,-67.5 419,-67.5 419,-37.5 566,-37.5 566,-67.5"/>
<text text-anchor="start" x="427" y="-55.5" font-family="Helvetica,sans-Serif" font-size="10.00">precice::logging::getGlobal</text>
<text text-anchor="middle" x="492.5" y="-44.5" font-family="Helvetica,sans-Serif" font-size="10.00">LoggingConfig</text>
</a>
</g>
</g>
<!-- Node11&#45;&gt;Node19 -->
<g id="edge18_Node000011_Node000019" class="edge">
<title>Node11&#45;&gt;Node19</title>
<g id="a_edge18_Node000011_Node000019"><a xlink:title=" ">
<path fill="none" stroke="#63b8ff" d="M308.66,-181.99C325.51,-160.22 370,-106.35 419,-76.5 421.77,-74.81 424.68,-73.22 427.67,-71.74"/>
<polygon fill="#63b8ff" stroke="#63b8ff" points="429.18,-74.89 436.83,-67.57 426.28,-68.52 429.18,-74.89"/>
</a>
</g>
</g>
<!-- Node20 -->
<g id="Node000020" class="node">
<title>Node20</title>
<g id="a_Node000020"><a target="_parent" xlink:href="http://en.cppreference.com/w/cpp/algorithm/all_any_none_of.html#" xlink:title=" ">
<polygon fill="white" stroke="#666666" points="531,-19 454,-19 454,0 531,0 531,-19"/>
<text text-anchor="middle" x="492.5" y="-7" font-family="Helvetica,sans-Serif" font-size="10.00">std::none_of</text>
</a>
</g>
</g>
<!-- Node11&#45;&gt;Node20 -->
<g id="edge19_Node000011_Node000020" class="edge">
<title>Node11&#45;&gt;Node20</title>
<g id="a_edge19_Node000011_Node000020"><a xlink:title=" ">
<path fill="none" stroke="#63b8ff" d="M305.67,-181.62C318.22,-153.08 358.59,-69.94 419,-28.5 426.41,-23.42 435.09,-19.7 443.82,-16.97"/>
<polygon fill="#63b8ff" stroke="#63b8ff" points="444.91,-20.3 453.64,-14.3 443.07,-13.55 444.91,-20.3"/>
</a>
</g>
</g>
</g>
</svg>
