<?xml version="1.0" encoding="UTF-8" standalone="no"?>
<!DOCTYPE svg PUBLIC "-//W3C//DTD SVG 1.1//EN"
 "http://www.w3.org/Graphics/SVG/1.1/DTD/svg11.dtd">
<!-- Generated by graphviz version 2.43.0 (0)
 -->
<!-- Title: precice::com::Communication::broadcast Pages: 1 -->
<svg width="771pt" height="215pt"
 viewBox="0.00 0.00 771.00 215.00" xmlns="http://www.w3.org/2000/svg" xmlns:xlink="http://www.w3.org/1999/xlink">
<g id="graph0" class="graph" transform="scale(1 1) rotate(0) translate(4 211)">
<title>precice::com::Communication::broadcast</title>
<polygon fill="white" stroke="transparent" points="-4,4 -4,-211 767,-211 767,4 -4,4"/>
<!-- Node1 -->
<g id="node1" class="node">
<title>Node1</title>
<g id="a_node1"><a xlink:title=" ">
<polygon fill="#bfbfbf" stroke="black" points="0,-66.5 0,-96.5 162,-96.5 162,-66.5 0,-66.5"/>
<text text-anchor="start" x="8" y="-84.5" font-family="Helvetica,sans-Serif" font-size="10.00">precice::com::Communication</text>
<text text-anchor="middle" x="81" y="-73.5" font-family="Helvetica,sans-Serif" font-size="10.00">::broadcast</text>
</a>
</g>
</g>
<!-- Node2 -->
<g id="node2" class="node">
<title>Node2</title>
<g id="a_node2"><a xlink:href="classprecice_1_1com_1_1Communication.html#af30b8fdbac93d60e7a54f0e67e5aeb53" target="_top" xlink:title=" ">
<polygon fill="white" stroke="black" points="198,-88.5 198,-118.5 360,-118.5 360,-88.5 198,-88.5"/>
<text text-anchor="start" x="206" y="-106.5" font-family="Helvetica,sans-Serif" font-size="10.00">precice::com::Communication</text>
<text text-anchor="middle" x="279" y="-95.5" font-family="Helvetica,sans-Serif" font-size="10.00">::broadcast</text>
</a>
</g>
</g>
<!-- Node1&#45;&gt;Node2 -->
<g id="edge1" class="edge">
<title>Node1&#45;&gt;Node2</title>
<path fill="none" stroke="midnightblue" d="M162,-90.48C170.52,-91.44 179.23,-92.41 187.86,-93.38"/>
<polygon fill="midnightblue" stroke="midnightblue" points="187.61,-96.88 197.93,-94.51 188.39,-89.92 187.61,-96.88"/>
</g>
<!-- Node8 -->
<g id="node8" class="node">
<title>Node8</title>
<g id="a_node8"><a xlink:href="namespaceprecice_1_1detail.html#a99f20f73c4a3c34d08429ac0fea564ef" target="_top" xlink:title=" ">
<polygon fill="white" stroke="black" points="223.5,-50 223.5,-69 334.5,-69 334.5,-50 223.5,-50"/>
<text text-anchor="middle" x="279" y="-57" font-family="Helvetica,sans-Serif" font-size="10.00">precice::detail::size</text>
</a>
</g>
</g>
<!-- Node1&#45;&gt;Node8 -->
<g id="edge8" class="edge">
<title>Node1&#45;&gt;Node8</title>
<path fill="none" stroke="midnightblue" d="M162,-72.52C179.1,-70.6 196.95,-68.6 213.38,-66.75"/>
<polygon fill="midnightblue" stroke="midnightblue" points="213.85,-70.22 223.4,-65.63 213.07,-63.27 213.85,-70.22"/>
</g>
<!-- Node3 -->
<g id="node3" class="node">
<title>Node3</title>
<g id="a_node3"><a xlink:href="classprecice_1_1com_1_1Communication.html#a1c988cdf4b433bc63b4b876dba5324fb" target="_top" xlink:title=" ">
<polygon fill="white" stroke="black" points="396,-176.5 396,-206.5 558,-206.5 558,-176.5 396,-176.5"/>
<text text-anchor="start" x="404" y="-194.5" font-family="Helvetica,sans-Serif" font-size="10.00">precice::com::Communication</text>
<text text-anchor="middle" x="477" y="-183.5" font-family="Helvetica,sans-Serif" font-size="10.00">::aSend</text>
</a>
</g>
</g>
<!-- Node2&#45;&gt;Node3 -->
<g id="edge2" class="edge">
<title>Node2&#45;&gt;Node3</title>
<path fill="none" stroke="midnightblue" d="M308.21,-118.65C331.46,-130.88 365.45,-148.18 396,-161.5 404.88,-165.37 414.44,-169.22 423.75,-172.81"/>
<polygon fill="midnightblue" stroke="midnightblue" points="422.73,-176.16 433.32,-176.44 425.21,-169.62 422.73,-176.16"/>
</g>
<!-- Node4 -->
<g id="node4" class="node">
<title>Node4</title>
<g id="a_node4"><a xlink:href="classprecice_1_1com_1_1Communication.html#a5319067292ba3f7979d92a72f9298f80" target="_top" xlink:title="Returns the number of processes in the remote communicator.">
<polygon fill="white" stroke="black" points="594,-110.5 594,-140.5 763,-140.5 763,-110.5 594,-110.5"/>
<text text-anchor="start" x="602" y="-128.5" font-family="Helvetica,sans-Serif" font-size="10.00">precice::com::Communication</text>
<text text-anchor="middle" x="678.5" y="-117.5" font-family="Helvetica,sans-Serif" font-size="10.00">::getRemoteCommunicatorSize</text>
</a>
</g>
</g>
<!-- Node2&#45;&gt;Node4 -->
<g id="edge3" class="edge">
<title>Node2&#45;&gt;Node4</title>
<path fill="none" stroke="midnightblue" d="M338.03,-118.53C356.43,-122.62 376.95,-126.47 396,-128.5 458.34,-135.14 528.88,-134.37 583.75,-131.96"/>
<polygon fill="midnightblue" stroke="midnightblue" points="583.98,-135.45 593.81,-131.49 583.65,-128.46 583.98,-135.45"/>
</g>
<!-- Node5 -->
<g id="node5" class="node">
<title>Node5</title>
<g id="a_node5"><a xlink:href="classprecice_1_1com_1_1Communication.html#a31587a46cf1d04c93c3082979598276a" target="_top" xlink:title="Returns a range over all valid remote ranks.">
<polygon fill="white" stroke="black" points="396,-88.5 396,-118.5 558,-118.5 558,-88.5 396,-88.5"/>
<text text-anchor="start" x="404" y="-106.5" font-family="Helvetica,sans-Serif" font-size="10.00">precice::com::Communication</text>
<text text-anchor="middle" x="477" y="-95.5" font-family="Helvetica,sans-Serif" font-size="10.00">::remoteCommunicatorRanks</text>
</a>
</g>
</g>
<!-- Node2&#45;&gt;Node5 -->
<g id="edge4" class="edge">
<title>Node2&#45;&gt;Node5</title>
<path fill="none" stroke="midnightblue" d="M360,-103.5C368.52,-103.5 377.23,-103.5 385.86,-103.5"/>
<polygon fill="midnightblue" stroke="midnightblue" points="385.93,-107 395.93,-103.5 385.93,-100 385.93,-107"/>
</g>
<!-- Node6 -->
<g id="node6" class="node">
<title>Node6</title>
<g id="a_node6"><a xlink:href="classprecice_1_1span.html#a47dd9f5471352ea4105ab001836273ee" target="_top" xlink:title=" ">
<polygon fill="white" stroke="black" points="423.5,-50 423.5,-69 530.5,-69 530.5,-50 423.5,-50"/>
<text text-anchor="middle" x="477" y="-57" font-family="Helvetica,sans-Serif" font-size="10.00">precice::span::size</text>
</a>
</g>
</g>
<!-- Node2&#45;&gt;Node6 -->
<g id="edge6" class="edge">
<title>Node2&#45;&gt;Node6</title>
<path fill="none" stroke="midnightblue" d="M346.9,-88.48C372.04,-82.84 400.21,-76.51 423.81,-71.22"/>
<polygon fill="midnightblue" stroke="midnightblue" points="424.64,-74.62 433.63,-69.01 423.1,-67.79 424.64,-74.62"/>
</g>
<!-- Node7 -->
<g id="node7" class="node">
<title>Node7</title>
<g id="a_node7"><a xlink:href="classprecice_1_1com_1_1Request.html#ad07792939dd8a5e4e23791e21aeacff0" target="_top" xlink:title=" ">
<polygon fill="white" stroke="black" points="414.5,-0.5 414.5,-30.5 539.5,-30.5 539.5,-0.5 414.5,-0.5"/>
<text text-anchor="start" x="422.5" y="-18.5" font-family="Helvetica,sans-Serif" font-size="10.00">precice::com::Request</text>
<text text-anchor="middle" x="477" y="-7.5" font-family="Helvetica,sans-Serif" font-size="10.00">::wait</text>
</a>
</g>
</g>
<!-- Node2&#45;&gt;Node7 -->
<g id="edge7" class="edge">
<title>Node2&#45;&gt;Node7</title>
<path fill="none" stroke="midnightblue" d="M340.04,-88.47C347.01,-85.65 353.83,-82.35 360,-78.5 379.74,-66.19 376.26,-52.81 396,-40.5 399.38,-38.39 402.94,-36.45 406.62,-34.67"/>
<polygon fill="midnightblue" stroke="midnightblue" points="408.23,-37.78 415.96,-30.53 405.39,-31.38 408.23,-37.78"/>
</g>
<!-- Node5&#45;&gt;Node4 -->
<g id="edge5" class="edge">
<title>Node5&#45;&gt;Node4</title>
<path fill="none" stroke="midnightblue" d="M558.28,-112.35C566.69,-113.28 575.28,-114.23 583.82,-115.17"/>
<polygon fill="midnightblue" stroke="midnightblue" points="583.48,-118.65 593.8,-116.27 584.24,-111.69 583.48,-118.65"/>
</g>
</g>
</svg>
