<?xml version="1.0" encoding="UTF-8" standalone="no"?>
<!DOCTYPE svg PUBLIC "-//W3C//DTD SVG 1.1//EN"
 "http://www.w3.org/Graphics/SVG/1.1/DTD/svg11.dtd">
<!-- Generated by graphviz version 2.43.0 (0)
 -->
<!-- Title: precice::config::ParticipantConfiguration::xmlEndTagCallback Pages: 1 -->
<svg width="639pt" height="162pt"
 viewBox="0.00 0.00 639.00 161.50" xmlns="http://www.w3.org/2000/svg" xmlns:xlink="http://www.w3.org/1999/xlink">
<g id="graph0" class="graph" transform="scale(1 1) rotate(0) translate(4 157.5)">
<title>precice::config::ParticipantConfiguration::xmlEndTagCallback</title>
<!-- Node1 -->
<g id="Node000001" class="node">
<title>Node1</title>
<g id="a_Node000001"><a xlink:title="Callback function required for use of automatic configuration.">
<polygon fill="#999999" stroke="#666666" points="183,-61.5 0,-61.5 0,-31.5 183,-31.5 183,-61.5"/>
<text text-anchor="start" x="8" y="-49.5" font-family="Helvetica,sans-Serif" font-size="10.00">precice::config::Participant</text>
<text text-anchor="middle" x="91.5" y="-38.5" font-family="Helvetica,sans-Serif" font-size="10.00">Configuration::xmlEndTagCallback</text>
</a>
</g>
</g>
<!-- Node2 -->
<g id="Node000002" class="node">
<title>Node2</title>
<g id="a_Node000002"><a xlink:href="classprecice_1_1config_1_1ParticipantConfiguration.html#a828b0fd99d833fd25fa130a9e3cf7d7a" target="_top" xlink:title=" ">
<polygon fill="white" stroke="#666666" points="385,-94 219,-94 219,-53 385,-53 385,-94"/>
<text text-anchor="start" x="227" y="-82" font-family="Helvetica,sans-Serif" font-size="10.00">precice::config::Participant</text>
<text text-anchor="start" x="227" y="-71" font-family="Helvetica,sans-Serif" font-size="10.00">Configuration::finishParticipant</text>
<text text-anchor="middle" x="302" y="-60" font-family="Helvetica,sans-Serif" font-size="10.00">Configuration</text>
</a>
</g>
</g>
<!-- Node1&#45;&gt;Node2 -->
<g id="edge1_Node000001_Node000002" class="edge">
<title>Node1&#45;&gt;Node2</title>
<g id="a_edge1_Node000001_Node000002"><a xlink:title=" ">
<path fill="none" stroke="#63b8ff" d="M183.04,-58.22C191.57,-59.33 200.23,-60.45 208.77,-61.56"/>
<polygon fill="#63b8ff" stroke="#63b8ff" points="208.38,-65.03 218.74,-62.85 209.27,-58.09 208.38,-65.03"/>
</a>
</g>
</g>
<!-- Node7 -->
<g id="Node000007" class="node">
<title>Node7</title>
<g id="a_Node000007"><a xlink:href="classprecice_1_1xml_1_1XMLTag.html#a9212e8c59708a9e07f0ff70a997349f9" target="_top" xlink:title="Returns name (without namespace).">
<polygon fill="white" stroke="#666666" points="361.5,-34.5 242.5,-34.5 242.5,-4.5 361.5,-4.5 361.5,-34.5"/>
<text text-anchor="start" x="250.5" y="-22.5" font-family="Helvetica,sans-Serif" font-size="10.00">precice::xml::XMLTag</text>
<text text-anchor="middle" x="302" y="-11.5" font-family="Helvetica,sans-Serif" font-size="10.00">::getName</text>
</a>
</g>
</g>
<!-- Node1&#45;&gt;Node7 -->
<g id="edge6_Node000001_Node000007" class="edge">
<title>Node1&#45;&gt;Node7</title>
<g id="a_edge6_Node000001_Node000007"><a xlink:title=" ">
<path fill="none" stroke="#63b8ff" d="M183.04,-34.78C199.54,-32.64 216.5,-30.44 232.24,-28.4"/>
<polygon fill="#63b8ff" stroke="#63b8ff" points="232.92,-31.85 242.39,-27.09 232.02,-24.9 232.92,-31.85"/>
</a>
</g>
</g>
<!-- Node3 -->
<g id="Node000003" class="node">
<title>Node3</title>
<g id="a_Node000003"><a xlink:href="classprecice_1_1config_1_1ParticipantConfiguration.html#a8eaf454197a48e3325d85a8df9bf4d59" target="_top" xlink:title="Check whether a mapping to the same mesh and with similar data fields already exists.">
<polygon fill="white" stroke="#666666" points="631,-153.5 421,-153.5 421,-123.5 631,-123.5 631,-153.5"/>
<text text-anchor="start" x="429" y="-141.5" font-family="Helvetica,sans-Serif" font-size="10.00">precice::config::Participant</text>
<text text-anchor="middle" x="526" y="-130.5" font-family="Helvetica,sans-Serif" font-size="10.00">Configuration::checkIllDefinedMappings</text>
</a>
</g>
</g>
<!-- Node2&#45;&gt;Node3 -->
<g id="edge2_Node000002_Node000003" class="edge">
<title>Node2&#45;&gt;Node3</title>
<g id="a_edge2_Node000002_Node000003"><a xlink:title=" ">
<path fill="none" stroke="#63b8ff" d="M358.13,-94.03C377.82,-101 400.26,-108.52 421,-114.5 428.78,-116.74 436.94,-118.92 445.12,-120.99"/>
<polygon fill="#63b8ff" stroke="#63b8ff" points="444.54,-124.45 455.09,-123.46 446.22,-117.65 444.54,-124.45"/>
</a>
</g>
</g>
<!-- Node4 -->
<g id="Node000004" class="node">
<title>Node4</title>
<g id="a_Node000004"><a target="_parent" xlink:href="http://en.cppreference.com/w/cpp/memory/shared_ptr/get.html#" xlink:title=" ">
<polygon fill="white" stroke="#666666" points="581.5,-105 470.5,-105 470.5,-86 581.5,-86 581.5,-105"/>
<text text-anchor="middle" x="526" y="-93" font-family="Helvetica,sans-Serif" font-size="10.00">std::shared_ptr::get</text>
</a>
</g>
</g>
<!-- Node2&#45;&gt;Node4 -->
<g id="edge3_Node000002_Node000004" class="edge">
<title>Node2&#45;&gt;Node4</title>
<g id="a_edge3_Node000002_Node000004"><a xlink:title=" ">
<path fill="none" stroke="#63b8ff" d="M385.03,-81.63C409.78,-84.08 436.59,-86.74 460.06,-89.06"/>
<polygon fill="#63b8ff" stroke="#63b8ff" points="459.95,-92.57 470.25,-90.07 460.64,-85.6 459.95,-92.57"/>
</a>
</g>
</g>
<!-- Node5 -->
<g id="Node000005" class="node">
<title>Node5</title>
<g id="a_Node000005"><a xlink:href="classprecice_1_1utils_1_1IntraComm.html#ad45fca6e5adf1b476ddb74f3f53e750c" target="_top" xlink:title="Intra&#45;participant communication.">
<polygon fill="white" stroke="#666666" points="596,-67.5 456,-67.5 456,-37.5 596,-37.5 596,-67.5"/>
<text text-anchor="start" x="464" y="-55.5" font-family="Helvetica,sans-Serif" font-size="10.00">precice::utils::IntraComm</text>
<text text-anchor="middle" x="526" y="-44.5" font-family="Helvetica,sans-Serif" font-size="10.00">::getCommunication</text>
</a>
</g>
</g>
<!-- Node2&#45;&gt;Node5 -->
<g id="edge4_Node000002_Node000005" class="edge">
<title>Node2&#45;&gt;Node5</title>
<g id="a_edge4_Node000002_Node000005"><a xlink:title=" ">
<path fill="none" stroke="#63b8ff" d="M385.03,-65.74C404.81,-63.87 425.9,-61.87 445.55,-60.02"/>
<polygon fill="#63b8ff" stroke="#63b8ff" points="446.06,-63.48 455.69,-59.06 445.4,-56.51 446.06,-63.48"/>
</a>
</g>
</g>
<!-- Node6 -->
<g id="Node000006" class="node">
<title>Node6</title>
<g id="a_Node000006"><a target="_parent" xlink:href="http://en.cppreference.com/w/cpp/algorithm/max.html#" xlink:title=" ">
<polygon fill="white" stroke="#666666" points="555.5,-19 496.5,-19 496.5,0 555.5,0 555.5,-19"/>
<text text-anchor="middle" x="526" y="-7" font-family="Helvetica,sans-Serif" font-size="10.00">std::max</text>
</a>
</g>
</g>
<!-- Node2&#45;&gt;Node6 -->
<g id="edge5_Node000002_Node000006" class="edge">
<title>Node2&#45;&gt;Node6</title>
<g id="a_edge5_Node000002_Node000006"><a xlink:title=" ">
<path fill="none" stroke="#63b8ff" d="M360.47,-52.84C368.72,-49.77 377.09,-46.59 385,-43.5 401.14,-37.19 404.38,-33.42 421,-28.5 442.28,-22.2 466.66,-17.61 486.47,-14.53"/>
<polygon fill="#63b8ff" stroke="#63b8ff" points="486.99,-17.99 496.37,-13.05 485.96,-11.06 486.99,-17.99"/>
</a>
</g>
</g>
</g>
</svg>
