<?xml version="1.0" encoding="UTF-8" standalone="no"?>
<!DOCTYPE svg PUBLIC "-//W3C//DTD SVG 1.1//EN"
 "http://www.w3.org/Graphics/SVG/1.1/DTD/svg11.dtd">
<!-- Generated by graphviz version 2.43.0 (0)
 -->
<!-- Title: precice::impl::ParticipantImpl::writeData Pages: 1 -->
<!--zoomable 235 -->
<svg id="main" version="1.1" xmlns="http://www.w3.org/2000/svg" xmlns:xlink="http://www.w3.org/1999/xlink" xml:space="preserve" onload="init(evt)">
<style type="text/css"><![CDATA[
.edge:hover path { stroke: red; }
.edge:hover polygon { stroke: red; fill: red; }
]]></style>
<script type="text/javascript"><![CDATA[
var edges = document.getElementsByTagName('g');
if (edges && edges.length) {
  for (var i=0;i<edges.length;i++) {
    if (edges[i].id.substr(0,4)=='edge') {
      edges[i].setAttribute('class','edge');
    }
  }
}
]]></script>
        <defs>
                <circle id="rim" cx="0" cy="0" r="7"/>
                <circle id="rim2" cx="0" cy="0" r="3.5"/>
                <g id="zoomPlus">
                        <use xlink:href="#rim" fill="#404040">
                                <set attributeName="fill" to="#808080" begin="zoomplus.mouseover" end="zoomplus.mouseout"/>
                        </use>
                        <path d="M-4,0h8M0,-4v8" fill="none" stroke="white" stroke-width="1.5" pointer-events="none"/>
                </g>
                <g id="zoomMin">
                        <use xlink:href="#rim" fill="#404040">
                                <set attributeName="fill" to="#808080" begin="zoomminus.mouseover" end="zoomminus.mouseout"/>
                        </use>
                        <path d="M-4,0h8" fill="none" stroke="white" stroke-width="1.5" pointer-events="none"/>
                </g>
                <g id="dirArrow">
                        <path fill="none" stroke="white" stroke-width="1.5" d="M0,-3.0v7 M-2.5,-0.5L0,-3.0L2.5,-0.5"/>
                </g>
               <g id="resetDef">
                       <use xlink:href="#rim2" fill="#404040">
                               <set attributeName="fill" to="#808080" begin="reset.mouseover" end="reset.mouseout"/>
                       </use>
               </g>
        </defs>

<script type="text/javascript">
var viewWidth = 531;
var viewHeight = 235;
var sectionId = 'dynsection-32';
</script>
<script xlink:href="svgpan.js"/>
<svg id="graph" class="graph">
<g id="viewport">
<title>precice::impl::ParticipantImpl::writeData</title>
<polygon fill="white" stroke="transparent" points="-4,4 -4,-230.5 527,-230.5 527,4 -4,4"/>
<!-- Node1 -->
<g id="node1" class="node">
<title>Node1</title>
<g id="a_node1"><a xlink:title="Writes data to a mesh.">
<polygon fill="#bfbfbf" stroke="black" points="0,-119.5 0,-149.5 137,-149.5 137,-119.5 0,-119.5"/>
<text text-anchor="start" x="8" y="-137.5" font-family="Helvetica,sans-Serif" font-size="10.00">precice::impl::Participant</text>
<text text-anchor="middle" x="68.5" y="-126.5" font-family="Helvetica,sans-Serif" font-size="10.00">Impl::writeData</text>
</a>
</g>
</g>
<!-- Node2 -->
<g id="node2" class="node">
<title>Node2</title>
<g id="a_node2"><a xlink:href="classprecice_1_1span.html#a628d875cdc1751afca0bfa66213db007" target="_top" xlink:title=" ">
<polygon fill="white" stroke="black" points="391.5,-207 391.5,-226 500.5,-226 500.5,-207 391.5,-207"/>
<text text-anchor="middle" x="446" y="-214" font-family="Helvetica,sans-Serif" font-size="10.00">precice::span::data</text>
</a>
</g>
</g>
<!-- Node1&#45;&gt;Node2 -->
<g id="edge1" class="edge">
<title>Node1&#45;&gt;Node2</title>
<path fill="none" stroke="midnightblue" d="M88.82,-149.58C108.7,-164.16 141.17,-185.48 173,-195.5 241.8,-217.14 324.98,-220.47 381.1,-219.61"/>
<polygon fill="midnightblue" stroke="midnightblue" points="381.33,-223.11 391.26,-219.41 381.19,-216.11 381.33,-223.11"/>
</g>
<!-- Node3 -->
<g id="node3" class="node">
<title>Node3</title>
<g id="a_node3"><a xlink:href="classprecice_1_1span.html#a04b2be7a6e2bbfb8f3a3e8a424f1a43d" target="_top" xlink:title=" ">
<polygon fill="white" stroke="black" points="193.5,-150 193.5,-169 312.5,-169 312.5,-150 193.5,-150"/>
<text text-anchor="middle" x="253" y="-157" font-family="Helvetica,sans-Serif" font-size="10.00">precice::span::empty</text>
</a>
</g>
</g>
<!-- Node1&#45;&gt;Node3 -->
<g id="edge2" class="edge">
<title>Node1&#45;&gt;Node3</title>
<path fill="none" stroke="midnightblue" d="M137.2,-143.77C152.2,-145.83 168.11,-148.01 183.16,-150.07"/>
<polygon fill="midnightblue" stroke="midnightblue" points="183.03,-153.58 193.41,-151.47 183.98,-146.65 183.03,-153.58"/>
</g>
<!-- Node4 -->
<g id="node4" class="node">
<title>Node4</title>
<g id="a_node4"><a xlink:href="classprecice_1_1span.html#a47dd9f5471352ea4105ab001836273ee" target="_top" xlink:title=" ">
<polygon fill="white" stroke="black" points="392.5,-150 392.5,-169 499.5,-169 499.5,-150 392.5,-150"/>
<text text-anchor="middle" x="446" y="-157" font-family="Helvetica,sans-Serif" font-size="10.00">precice::span::size</text>
</a>
</g>
</g>
<!-- Node1&#45;&gt;Node4 -->
<g id="edge7" class="edge">
<title>Node1&#45;&gt;Node4</title>
<path fill="none" stroke="midnightblue" d="M96.63,-149.61C116.96,-160.03 145.83,-172.96 173,-178.5 249.2,-194.02 339.61,-181.8 394.61,-171.05"/>
<polygon fill="midnightblue" stroke="midnightblue" points="395.35,-174.47 404.46,-169.07 393.97,-167.61 395.35,-174.47"/>
</g>
<!-- Node5 -->
<g id="node5" class="node">
<title>Node5</title>
<g id="a_node5"><a xlink:href="classprecice_1_1impl_1_1DataContext.html#a947bcec25838edbba8d675527d1bb568" target="_top" xlink:title="Get the dimensions of _providedData.">
<polygon fill="white" stroke="black" points="372.5,-49.5 372.5,-79.5 519.5,-79.5 519.5,-49.5 372.5,-49.5"/>
<text text-anchor="start" x="380.5" y="-67.5" font-family="Helvetica,sans-Serif" font-size="10.00">precice::impl::DataContext</text>
<text text-anchor="middle" x="446" y="-56.5" font-family="Helvetica,sans-Serif" font-size="10.00">::getDataDimensions</text>
</a>
</g>
</g>
<!-- Node1&#45;&gt;Node5 -->
<g id="edge4" class="edge">
<title>Node1&#45;&gt;Node5</title>
<path fill="none" stroke="midnightblue" d="M91.77,-119.32C111.98,-106.44 143.11,-88.77 173,-80.5 234.78,-63.41 307.38,-59.93 362.02,-60.44"/>
<polygon fill="midnightblue" stroke="midnightblue" points="362.31,-63.95 372.36,-60.59 362.41,-56.95 362.31,-63.95"/>
</g>
<!-- Node6 -->
<g id="node6" class="node">
<title>Node6</title>
<g id="a_node6"><a xlink:href="classprecice_1_1impl_1_1DataContext.html#ab4a39a6d08a61c829681a08b61b4d004" target="_top" xlink:title=" ">
<polygon fill="white" stroke="black" points="179.5,-2.5 179.5,-32.5 326.5,-32.5 326.5,-2.5 179.5,-2.5"/>
<text text-anchor="start" x="187.5" y="-20.5" font-family="Helvetica,sans-Serif" font-size="10.00">precice::impl::DataContext</text>
<text text-anchor="middle" x="253" y="-9.5" font-family="Helvetica,sans-Serif" font-size="10.00">::locateInvalidVertexID</text>
</a>
</g>
</g>
<!-- Node1&#45;&gt;Node6 -->
<g id="edge5" class="edge">
<title>Node1&#45;&gt;Node6</title>
<path fill="none" stroke="midnightblue" d="M84.04,-119.48C103.03,-100.57 137.98,-68.06 173,-47.5 179.93,-43.43 187.5,-39.73 195.13,-36.43"/>
<polygon fill="midnightblue" stroke="midnightblue" points="196.52,-39.65 204.43,-32.6 193.85,-33.17 196.52,-39.65"/>
</g>
<!-- Node8 -->
<g id="node8" class="node">
<title>Node8</title>
<g id="a_node8"><a xlink:href="classprecice_1_1impl_1_1WriteDataContext.html#afd087b9117502d46df46494097e16f9b" target="_top" xlink:title="Store values in _writeDataBuffer.">
<polygon fill="white" stroke="black" points="173,-90 173,-131 333,-131 333,-90 173,-90"/>
<text text-anchor="start" x="181" y="-119" font-family="Helvetica,sans-Serif" font-size="10.00">precice::impl::WriteData</text>
<text text-anchor="start" x="181" y="-108" font-family="Helvetica,sans-Serif" font-size="10.00">Context::writeValuesIntoData</text>
<text text-anchor="middle" x="253" y="-97" font-family="Helvetica,sans-Serif" font-size="10.00">Buffer</text>
</a>
</g>
</g>
<!-- Node1&#45;&gt;Node8 -->
<g id="edge8" class="edge">
<title>Node1&#45;&gt;Node8</title>
<path fill="none" stroke="midnightblue" d="M137.2,-125.6C145.51,-124.5 154.1,-123.37 162.67,-122.25"/>
<polygon fill="midnightblue" stroke="midnightblue" points="163.24,-125.7 172.7,-120.93 162.33,-118.76 163.24,-125.7"/>
</g>
<!-- Node3&#45;&gt;Node4 -->
<g id="edge3" class="edge">
<title>Node3&#45;&gt;Node4</title>
<path fill="none" stroke="midnightblue" d="M312.6,-159.5C334.67,-159.5 359.83,-159.5 382.26,-159.5"/>
<polygon fill="midnightblue" stroke="midnightblue" points="382.35,-163 392.35,-159.5 382.35,-156 382.35,-163"/>
</g>
<!-- Node7 -->
<g id="node7" class="node">
<title>Node7</title>
<g id="a_node7"><a xlink:href="namespaceprecice_1_1mesh.html#a5ac143124a0e12e7fdbabc8717c9f8fe" target="_top" xlink:title=" ">
<polygon fill="white" stroke="black" points="369,-0.5 369,-30.5 523,-30.5 523,-0.5 369,-0.5"/>
<text text-anchor="start" x="377" y="-18.5" font-family="Helvetica,sans-Serif" font-size="10.00">precice::mesh::locateInvalid</text>
<text text-anchor="middle" x="446" y="-7.5" font-family="Helvetica,sans-Serif" font-size="10.00">VertexID</text>
</a>
</g>
</g>
<!-- Node6&#45;&gt;Node7 -->
<g id="edge6" class="edge">
<title>Node6&#45;&gt;Node7</title>
<path fill="none" stroke="midnightblue" d="M326.75,-16.74C337.22,-16.63 348.07,-16.51 358.77,-16.4"/>
<polygon fill="midnightblue" stroke="midnightblue" points="358.99,-19.9 368.96,-16.3 358.92,-12.9 358.99,-19.9"/>
</g>
<!-- Node8&#45;&gt;Node2 -->
<g id="edge9" class="edge">
<title>Node8&#45;&gt;Node2</title>
<path fill="none" stroke="midnightblue" d="M316.57,-131.18C322.3,-133.98 327.87,-137.08 333,-140.5 352.36,-153.4 350.31,-164.64 369,-178.5 381.9,-188.07 397.58,-196.37 411.33,-202.75"/>
<polygon fill="midnightblue" stroke="midnightblue" points="409.93,-205.96 420.49,-206.86 412.79,-199.57 409.93,-205.96"/>
</g>
<!-- Node8&#45;&gt;Node4 -->
<g id="edge12" class="edge">
<title>Node8&#45;&gt;Node4</title>
<path fill="none" stroke="midnightblue" d="M333.07,-130.78C355.09,-136.43 378.31,-142.39 397.87,-147.41"/>
<polygon fill="midnightblue" stroke="midnightblue" points="397.17,-150.84 407.73,-149.94 398.91,-144.06 397.17,-150.84"/>
</g>
<!-- Node8&#45;&gt;Node5 -->
<g id="edge10" class="edge">
<title>Node8&#45;&gt;Node5</title>
<path fill="none" stroke="midnightblue" d="M333.07,-91.46C346.23,-88.29 359.83,-85.01 372.81,-81.89"/>
<polygon fill="midnightblue" stroke="midnightblue" points="373.7,-85.27 382.61,-79.53 372.06,-78.47 373.7,-85.27"/>
</g>
<!-- Node9 -->
<g id="node9" class="node">
<title>Node9</title>
<g id="a_node9"><a xlink:href="classprecice_1_1impl_1_1DataContext.html#a219498a5341d793fa4dbcf85582205ab" target="_top" xlink:title="Get the number of vertices of mesh.">
<polygon fill="white" stroke="black" points="372.5,-98.5 372.5,-128.5 519.5,-128.5 519.5,-98.5 372.5,-98.5"/>
<text text-anchor="start" x="380.5" y="-116.5" font-family="Helvetica,sans-Serif" font-size="10.00">precice::impl::DataContext</text>
<text text-anchor="middle" x="446" y="-105.5" font-family="Helvetica,sans-Serif" font-size="10.00">::getMeshVertexCount</text>
</a>
</g>
</g>
<!-- Node8&#45;&gt;Node9 -->
<g id="edge11" class="edge">
<title>Node8&#45;&gt;Node9</title>
<path fill="none" stroke="midnightblue" d="M333.07,-111.74C342.74,-111.89 352.64,-112.05 362.37,-112.2"/>
<polygon fill="midnightblue" stroke="midnightblue" points="362.37,-115.7 372.42,-112.36 362.48,-108.7 362.37,-115.7"/>
</g>
</g>
</svg>
        <g id="navigator" transform="translate(0 0)" fill="#404254">
                <rect fill="#f2f5e9" fill-opacity="0.5" stroke="#606060" stroke-width=".5" x="0" y="0" width="60" height="60"/>
                <use id="zoomplus" xlink:href="#zoomPlus" x="17" y="9" onmousedown="handleZoom(evt,'in')"/>
                <use id="zoomminus" xlink:href="#zoomMin" x="42" y="9" onmousedown="handleZoom(evt,'out')"/>
                <use id="reset" xlink:href="#resetDef" x="30" y="36" onmousedown="handleReset()"/>
                <g id="arrowUp" xlink:href="#dirArrow" transform="translate(30 24)" onmousedown="handlePan(0,-1)">
                  <use xlink:href="#rim" fill="#404040">
                        <set attributeName="fill" to="#808080" begin="arrowUp.mouseover" end="arrowUp.mouseout"/>
                  </use>
                  <path fill="none" stroke="white" stroke-width="1.5" d="M0,-3.0v7 M-2.5,-0.5L0,-3.0L2.5,-0.5"/>
                </g>
                <g id="arrowRight" xlink:href="#dirArrow" transform="rotate(90) translate(36 -43)" onmousedown="handlePan(1,0)">
                  <use xlink:href="#rim" fill="#404040">
                        <set attributeName="fill" to="#808080" begin="arrowRight.mouseover" end="arrowRight.mouseout"/>
                  </use>
                  <path fill="none" stroke="white" stroke-width="1.5" d="M0,-3.0v7 M-2.5,-0.5L0,-3.0L2.5,-0.5"/>
                </g>
                <g id="arrowDown" xlink:href="#dirArrow" transform="rotate(180) translate(-30 -48)" onmousedown="handlePan(0,1)">
                  <use xlink:href="#rim" fill="#404040">
                        <set attributeName="fill" to="#808080" begin="arrowDown.mouseover" end="arrowDown.mouseout"/>
                  </use>
                  <path fill="none" stroke="white" stroke-width="1.5" d="M0,-3.0v7 M-2.5,-0.5L0,-3.0L2.5,-0.5"/>
                </g>
                <g id="arrowLeft" xlink:href="#dirArrow" transform="rotate(270) translate(-36 17)" onmousedown="handlePan(-1,0)">
                  <use xlink:href="#rim" fill="#404040">
                        <set attributeName="fill" to="#808080" begin="arrowLeft.mouseover" end="arrowLeft.mouseout"/>
                  </use>
                  <path fill="none" stroke="white" stroke-width="1.5" d="M0,-3.0v7 M-2.5,-0.5L0,-3.0L2.5,-0.5"/>
                </g>
        </g>
        <svg viewBox="0 0 15 15" width="100%" height="30px" preserveAspectRatio="xMaxYMin meet">
         <g id="arrow_out" transform="scale(0.3 0.3)">
          <a xlink:href="classprecice_1_1impl_1_1ParticipantImpl_a75a27e33897692d81b813f2e601275ea_cgraph_org.svg" target="_base">
           <rect id="button" ry="5" rx="5" y="6" x="6" height="38" width="38"
                fill="#f2f5e9" fill-opacity="0.5" stroke="#606060" stroke-width="1.0"/>
           <path id="arrow"
             d="M 11.500037,31.436501 C 11.940474,20.09759 22.043105,11.32322 32.158766,21.979434 L 37.068811,17.246167 C 37.068811,17.246167 37.088388,32 37.088388,32 L 22.160133,31.978069 C 22.160133,31.978069 26.997745,27.140456 26.997745,27.140456 C 18.528582,18.264221 13.291696,25.230495 11.500037,31.436501 z"
             style="fill:#404040;"/>
          </a>
         </g>
        </svg>
</svg>
