<?xml version="1.0" encoding="UTF-8" standalone="no"?>
<!DOCTYPE svg PUBLIC "-//W3C//DTD SVG 1.1//EN"
 "http://www.w3.org/Graphics/SVG/1.1/DTD/svg11.dtd">
<!-- Generated by graphviz version 2.43.0 (0)
 -->
<!-- Title: precice::com::MPISinglePortsCommunication::acceptConnectionAsServer Pages: 1 -->
<svg width="943pt" height="484pt"
 viewBox="0.00 0.00 943.00 484.00" xmlns="http://www.w3.org/2000/svg" xmlns:xlink="http://www.w3.org/1999/xlink">
<g id="graph0" class="graph" transform="scale(1 1) rotate(0) translate(4 480)">
<title>precice::com::MPISinglePortsCommunication::acceptConnectionAsServer</title>
<polygon fill="white" stroke="transparent" points="-4,4 -4,-480 939,-480 939,4 -4,4"/>
<!-- Node1 -->
<g id="node1" class="node">
<title>Node1</title>
<g id="a_node1"><a xlink:title="requesterCommunicatorSize is not used, since connection is always made on the entire communicator">
<polygon fill="#bfbfbf" stroke="black" points="0,-303 0,-344 187,-344 187,-303 0,-303"/>
<text text-anchor="start" x="8" y="-332" font-family="Helvetica,sans-Serif" font-size="10.00">precice::com::MPISinglePorts</text>
<text text-anchor="start" x="8" y="-321" font-family="Helvetica,sans-Serif" font-size="10.00">Communication::acceptConnection</text>
<text text-anchor="middle" x="93.5" y="-310" font-family="Helvetica,sans-Serif" font-size="10.00">AsServer</text>
</a>
</g>
</g>
<!-- Node2 -->
<g id="node2" class="node">
<title>Node2</title>
<g id="a_node2"><a xlink:href="classprecice_1_1utils_1_1Parallel.html#a2aeadec30c9e48918e014608ede4d51d" target="_top" xlink:title="Returns an owning pointer to the current CommState.">
<polygon fill="white" stroke="black" points="243.5,-445.5 243.5,-475.5 364.5,-475.5 364.5,-445.5 243.5,-445.5"/>
<text text-anchor="start" x="251.5" y="-463.5" font-family="Helvetica,sans-Serif" font-size="10.00">precice::utils::Parallel</text>
<text text-anchor="middle" x="304" y="-452.5" font-family="Helvetica,sans-Serif" font-size="10.00">::current</text>
</a>
</g>
</g>
<!-- Node1&#45;&gt;Node2 -->
<g id="edge1" class="edge">
<title>Node1&#45;&gt;Node2</title>
<path fill="none" stroke="midnightblue" d="M114.67,-344.05C138.67,-367.57 180.84,-405.99 223,-430.5 230.02,-434.58 237.7,-438.29 245.43,-441.6"/>
<polygon fill="midnightblue" stroke="midnightblue" points="244.26,-444.9 254.84,-445.43 246.9,-438.42 244.26,-444.9"/>
</g>
<!-- Node4 -->
<g id="node4" class="node">
<title>Node4</title>
<g id="a_node4"><a xlink:href="classprecice_1_1utils_1_1StringMaker.html#a624d5a4aecd2439f6ed9af63f5cf119f" target="_top" xlink:title=" ">
<polygon fill="white" stroke="black" points="430.5,-374.5 430.5,-404.5 573.5,-404.5 573.5,-374.5 430.5,-374.5"/>
<text text-anchor="start" x="438.5" y="-392.5" font-family="Helvetica,sans-Serif" font-size="10.00">precice::utils::StringMaker</text>
<text text-anchor="middle" x="502" y="-381.5" font-family="Helvetica,sans-Serif" font-size="10.00">::data</text>
</a>
</g>
</g>
<!-- Node1&#45;&gt;Node4 -->
<g id="edge3" class="edge">
<title>Node1&#45;&gt;Node4</title>
<path fill="none" stroke="midnightblue" d="M120.72,-344.15C145.48,-362.24 184.45,-387.19 223,-397.5 287.66,-414.79 363.81,-411.01 420.04,-403.91"/>
<polygon fill="midnightblue" stroke="midnightblue" points="420.85,-407.33 430.3,-402.55 419.93,-400.39 420.85,-407.33"/>
</g>
<!-- Node5 -->
<g id="node5" class="node">
<title>Node5</title>
<g id="a_node5"><a xlink:href="classprecice_1_1com_1_1Communication.html#a444946d1a6c67c352fe96b56cdbf1fd2" target="_top" xlink:title="Returns true, if a connection to a remote participant has been setup.">
<polygon fill="white" stroke="black" points="223,-357.5 223,-387.5 385,-387.5 385,-357.5 223,-357.5"/>
<text text-anchor="start" x="231" y="-375.5" font-family="Helvetica,sans-Serif" font-size="10.00">precice::com::Communication</text>
<text text-anchor="middle" x="304" y="-364.5" font-family="Helvetica,sans-Serif" font-size="10.00">::isConnected</text>
</a>
</g>
</g>
<!-- Node1&#45;&gt;Node5 -->
<g id="edge4" class="edge">
<title>Node1&#45;&gt;Node5</title>
<path fill="none" stroke="midnightblue" d="M182.02,-344.07C197.74,-347.76 213.99,-351.58 229.27,-355.17"/>
<polygon fill="midnightblue" stroke="midnightblue" points="228.63,-358.62 239.16,-357.5 230.23,-351.8 228.63,-358.62"/>
</g>
<!-- Node6 -->
<g id="node6" class="node">
<title>Node6</title>
<g id="a_node6"><a xlink:href="structprecice_1_1utils_1_1MPIResult.html#a4f84044cc1f4352c3cc76a50c697273f" target="_top" xlink:title=" ">
<polygon fill="white" stroke="black" points="237,-308.5 237,-338.5 371,-338.5 371,-308.5 237,-308.5"/>
<text text-anchor="start" x="245" y="-326.5" font-family="Helvetica,sans-Serif" font-size="10.00">precice::utils::MPIResult</text>
<text text-anchor="middle" x="304" y="-315.5" font-family="Helvetica,sans-Serif" font-size="10.00">::message</text>
</a>
</g>
</g>
<!-- Node1&#45;&gt;Node6 -->
<g id="edge5" class="edge">
<title>Node1&#45;&gt;Node6</title>
<path fill="none" stroke="midnightblue" d="M187.17,-323.5C200.38,-323.5 213.85,-323.5 226.7,-323.5"/>
<polygon fill="midnightblue" stroke="midnightblue" points="226.87,-327 236.87,-323.5 226.87,-320 226.87,-327"/>
</g>
<!-- Node7 -->
<g id="node7" class="node">
<title>Node7</title>
<g id="a_node7"><a xlink:href="classprecice_1_1utils_1_1StringMaker.html#ab2f01261fd2673631184d3700fe4a6a2" target="_top" xlink:title=" ">
<polygon fill="white" stroke="black" points="421,-292 421,-311 583,-311 583,-292 421,-292"/>
<text text-anchor="middle" x="502" y="-299" font-family="Helvetica,sans-Serif" font-size="10.00">precice::utils::StringMaker::str</text>
</a>
</g>
</g>
<!-- Node1&#45;&gt;Node7 -->
<g id="edge9" class="edge">
<title>Node1&#45;&gt;Node7</title>
<path fill="none" stroke="midnightblue" d="M187.21,-304.09C199.21,-302.19 211.36,-300.58 223,-299.5 294.69,-292.86 313,-298.88 385,-299.5 393.32,-299.57 401.98,-299.67 410.65,-299.79"/>
<polygon fill="midnightblue" stroke="midnightblue" points="410.77,-303.29 420.82,-299.94 410.87,-296.29 410.77,-303.29"/>
</g>
<!-- Node8 -->
<g id="node8" class="node">
<title>Node8</title>
<g id="a_node8"><a xlink:href="classprecice_1_1com_1_1MPISinglePortsCommunication.html#a437bf64e9c547e43c1139e789043082c" target="_top" xlink:title=" ">
<polygon fill="white" stroke="black" points="225,-220.5 225,-250.5 383,-250.5 383,-220.5 225,-220.5"/>
<text text-anchor="start" x="233" y="-238.5" font-family="Helvetica,sans-Serif" font-size="10.00">precice::com::MPISinglePorts</text>
<text text-anchor="middle" x="304" y="-227.5" font-family="Helvetica,sans-Serif" font-size="10.00">Communication::rank</text>
</a>
</g>
</g>
<!-- Node1&#45;&gt;Node8 -->
<g id="edge8" class="edge">
<title>Node1&#45;&gt;Node8</title>
<path fill="none" stroke="midnightblue" d="M138.2,-302.92C162.92,-291.5 194.49,-277.26 223,-265.5 232.26,-261.68 242.19,-257.79 251.81,-254.13"/>
<polygon fill="midnightblue" stroke="midnightblue" points="253.16,-257.36 261.28,-250.56 250.69,-250.81 253.16,-257.36"/>
</g>
<!-- Node9 -->
<g id="node9" class="node">
<title>Node9</title>
<g id="a_node9"><a xlink:href="classprecice_1_1com_1_1ConnectionInfoWriter.html#a7a03778a85535ca32fd7338bb1b4dd65" target="_top" xlink:title="Write the string info, e.g. IP:port to the connection info file.">
<polygon fill="white" stroke="black" points="234,-171.5 234,-201.5 374,-201.5 374,-171.5 234,-171.5"/>
<text text-anchor="start" x="242" y="-189.5" font-family="Helvetica,sans-Serif" font-size="10.00">precice::com::Connection</text>
<text text-anchor="middle" x="304" y="-178.5" font-family="Helvetica,sans-Serif" font-size="10.00">InfoWriter::write</text>
</a>
</g>
</g>
<!-- Node1&#45;&gt;Node9 -->
<g id="edge10" class="edge">
<title>Node1&#45;&gt;Node9</title>
<path fill="none" stroke="midnightblue" d="M112.49,-302.99C135.67,-277.77 178.31,-235.28 223,-210.5 226.23,-208.71 229.62,-207.03 233.09,-205.47"/>
<polygon fill="midnightblue" stroke="midnightblue" points="234.54,-208.66 242.44,-201.6 231.86,-202.19 234.54,-208.66"/>
</g>
<!-- Node3 -->
<g id="node3" class="node">
<title>Node3</title>
<g id="a_node3"><a xlink:href="structprecice_1_1utils_1_1Parallel_1_1CommState.html#a11c87f5cfaad1fb984d9dcd80e6f2c55" target="_top" xlink:title="returns a commstate containing MPI_COMM_WORLD">
<polygon fill="white" stroke="black" points="441.5,-445.5 441.5,-475.5 562.5,-475.5 562.5,-445.5 441.5,-445.5"/>
<text text-anchor="start" x="449.5" y="-463.5" font-family="Helvetica,sans-Serif" font-size="10.00">precice::utils::Parallel</text>
<text text-anchor="middle" x="502" y="-452.5" font-family="Helvetica,sans-Serif" font-size="10.00">::CommState::world</text>
</a>
</g>
</g>
<!-- Node2&#45;&gt;Node3 -->
<g id="edge2" class="edge">
<title>Node2&#45;&gt;Node3</title>
<path fill="none" stroke="midnightblue" d="M364.6,-460.5C385.61,-460.5 409.4,-460.5 431.17,-460.5"/>
<polygon fill="midnightblue" stroke="midnightblue" points="431.34,-464 441.34,-460.5 431.34,-457 431.34,-464"/>
</g>
<!-- Node6&#45;&gt;Node4 -->
<g id="edge6" class="edge">
<title>Node6&#45;&gt;Node4</title>
<path fill="none" stroke="midnightblue" d="M354.17,-338.55C364.38,-341.77 375.06,-345.19 385,-348.5 406.34,-355.6 429.74,-363.8 449.9,-370.98"/>
<polygon fill="midnightblue" stroke="midnightblue" points="448.92,-374.35 459.52,-374.42 451.28,-367.76 448.92,-374.35"/>
</g>
<!-- Node6&#45;&gt;Node7 -->
<g id="edge7" class="edge">
<title>Node6&#45;&gt;Node7</title>
<path fill="none" stroke="midnightblue" d="M371.08,-316.08C383.84,-314.65 397.4,-313.13 410.77,-311.63"/>
<polygon fill="midnightblue" stroke="midnightblue" points="411.39,-315.08 420.93,-310.49 410.61,-308.12 411.39,-315.08"/>
</g>
<!-- Node10 -->
<g id="node10" class="node">
<title>Node10</title>
<g id="a_node10"><a xlink:href="classprecice_1_1com_1_1ConnectionInfoPublisher.html#ad47065386b8767ec48429e86a5a9209b" target="_top" xlink:title="Returns the full path to the hashed filename.">
<polygon fill="white" stroke="black" points="428.5,-196.5 428.5,-226.5 575.5,-226.5 575.5,-196.5 428.5,-196.5"/>
<text text-anchor="start" x="436.5" y="-214.5" font-family="Helvetica,sans-Serif" font-size="10.00">precice::com::Connection</text>
<text text-anchor="middle" x="502" y="-203.5" font-family="Helvetica,sans-Serif" font-size="10.00">InfoPublisher::getFilename</text>
</a>
</g>
</g>
<!-- Node9&#45;&gt;Node10 -->
<g id="edge11" class="edge">
<title>Node9&#45;&gt;Node10</title>
<path fill="none" stroke="midnightblue" d="M374.1,-195.31C388.34,-197.13 403.47,-199.06 418.14,-200.93"/>
<polygon fill="midnightblue" stroke="midnightblue" points="417.84,-204.42 428.21,-202.21 418.73,-197.48 417.84,-204.42"/>
</g>
<!-- Node14 -->
<g id="node14" class="node">
<title>Node14</title>
<g id="a_node14"><a xlink:href="namespaceprecice_1_1m2n.html#ab808ce4e50980cc9ea6f0aeb928f30b3" target="_top" xlink:title=" ">
<polygon fill="white" stroke="black" points="448,-104 448,-123 556,-123 556,-104 448,-104"/>
<text text-anchor="middle" x="502" y="-111" font-family="Helvetica,sans-Serif" font-size="10.00">precice::m2n::print</text>
</a>
</g>
</g>
<!-- Node9&#45;&gt;Node14 -->
<g id="edge15" class="edge">
<title>Node9&#45;&gt;Node14</title>
<path fill="none" stroke="midnightblue" d="M345.61,-171.37C381.13,-158.15 432.17,-139.14 465.93,-126.56"/>
<polygon fill="midnightblue" stroke="midnightblue" points="467.25,-129.81 475.4,-123.04 464.8,-123.25 467.25,-129.81"/>
</g>
<!-- Node11 -->
<g id="node11" class="node">
<title>Node11</title>
<g id="a_node11"><a xlink:href="classprecice_1_1com_1_1ConnectionInfoPublisher.html#a408bedb5171e27f82c6807fbeb2941c1" target="_top" xlink:title="Returns the local directory which is used to store the hashed part.">
<polygon fill="white" stroke="black" points="619,-245.5 619,-275.5 792,-275.5 792,-245.5 619,-245.5"/>
<text text-anchor="start" x="627" y="-263.5" font-family="Helvetica,sans-Serif" font-size="10.00">precice::com::Connection</text>
<text text-anchor="middle" x="705.5" y="-252.5" font-family="Helvetica,sans-Serif" font-size="10.00">InfoPublisher::getLocalDirectory</text>
</a>
</g>
</g>
<!-- Node10&#45;&gt;Node11 -->
<g id="edge12" class="edge">
<title>Node10&#45;&gt;Node11</title>
<path fill="none" stroke="midnightblue" d="M564.83,-226.53C586.39,-231.78 610.77,-237.71 633.05,-243.13"/>
<polygon fill="midnightblue" stroke="midnightblue" points="632.25,-246.53 642.79,-245.49 633.9,-239.73 632.25,-246.53"/>
</g>
<!-- Node13 -->
<g id="node13" class="node">
<title>Node13</title>
<g id="a_node13"><a xlink:href="namespaceprecice_1_1com_1_1impl.html#a2d526a96f9baa12b19e001e0f59c6655" target="_top" xlink:title="Returns the file name for the connection information.">
<polygon fill="white" stroke="black" points="652,-196.5 652,-226.5 759,-226.5 759,-196.5 652,-196.5"/>
<text text-anchor="start" x="660" y="-214.5" font-family="Helvetica,sans-Serif" font-size="10.00">precice::com::impl</text>
<text text-anchor="middle" x="705.5" y="-203.5" font-family="Helvetica,sans-Serif" font-size="10.00">::hashedFilePath</text>
</a>
</g>
</g>
<!-- Node10&#45;&gt;Node13 -->
<g id="edge14" class="edge">
<title>Node10&#45;&gt;Node13</title>
<path fill="none" stroke="midnightblue" d="M575.75,-211.5C597.35,-211.5 620.82,-211.5 641.73,-211.5"/>
<polygon fill="midnightblue" stroke="midnightblue" points="641.77,-215 651.77,-211.5 641.77,-208 641.77,-215"/>
</g>
<!-- Node12 -->
<g id="node12" class="node">
<title>Node12</title>
<g id="a_node12"><a xlink:href="namespaceprecice_1_1com_1_1impl.html#a06941043fad1b71e4f1ac7bfd1c6775c" target="_top" xlink:title=" ">
<polygon fill="white" stroke="black" points="828,-245.5 828,-275.5 935,-275.5 935,-245.5 828,-245.5"/>
<text text-anchor="start" x="836" y="-263.5" font-family="Helvetica,sans-Serif" font-size="10.00">precice::com::impl</text>
<text text-anchor="middle" x="881.5" y="-252.5" font-family="Helvetica,sans-Serif" font-size="10.00">::localDirectory</text>
</a>
</g>
</g>
<!-- Node11&#45;&gt;Node12 -->
<g id="edge13" class="edge">
<title>Node11&#45;&gt;Node12</title>
<path fill="none" stroke="midnightblue" d="M792.23,-260.5C800.89,-260.5 809.56,-260.5 817.91,-260.5"/>
<polygon fill="midnightblue" stroke="midnightblue" points="817.91,-264 827.91,-260.5 817.91,-257 817.91,-264"/>
</g>
<!-- Node15 -->
<g id="node15" class="node">
<title>Node15</title>
<g id="a_node15"><a xlink:href="classprecice_1_1utils_1_1IntraComm.html#a557db722e7bfe5d237d0e7ed51851a44" target="_top" xlink:title="Returns an iterable range over salve ranks [1, _size)">
<polygon fill="white" stroke="black" points="635.5,-147.5 635.5,-177.5 775.5,-177.5 775.5,-147.5 635.5,-147.5"/>
<text text-anchor="start" x="643.5" y="-165.5" font-family="Helvetica,sans-Serif" font-size="10.00">precice::utils::IntraComm</text>
<text text-anchor="middle" x="705.5" y="-154.5" font-family="Helvetica,sans-Serif" font-size="10.00">::allSecondaryRanks</text>
</a>
</g>
</g>
<!-- Node14&#45;&gt;Node15 -->
<g id="edge16" class="edge">
<title>Node14&#45;&gt;Node15</title>
<path fill="none" stroke="midnightblue" d="M542.33,-123.06C568.06,-129.32 602.44,-137.68 632.92,-145.09"/>
<polygon fill="midnightblue" stroke="midnightblue" points="632.12,-148.5 642.66,-147.46 633.77,-141.7 632.12,-148.5"/>
</g>
<!-- Node16 -->
<g id="node16" class="node">
<title>Node16</title>
<g id="a_node16"><a xlink:href="classprecice_1_1utils_1_1IntraComm.html#a7daafddc884c6dc168e2add48733cde4" target="_top" xlink:title="Intra&#45;participant communication.">
<polygon fill="white" stroke="black" points="635.5,-98.5 635.5,-128.5 775.5,-128.5 775.5,-98.5 635.5,-98.5"/>
<text text-anchor="start" x="643.5" y="-116.5" font-family="Helvetica,sans-Serif" font-size="10.00">precice::utils::IntraComm</text>
<text text-anchor="middle" x="705.5" y="-105.5" font-family="Helvetica,sans-Serif" font-size="10.00">::getCommunication</text>
</a>
</g>
</g>
<!-- Node14&#45;&gt;Node16 -->
<g id="edge17" class="edge">
<title>Node14&#45;&gt;Node16</title>
<path fill="none" stroke="midnightblue" d="M556.21,-113.5C577.33,-113.5 602.08,-113.5 625.23,-113.5"/>
<polygon fill="midnightblue" stroke="midnightblue" points="625.39,-117 635.39,-113.5 625.39,-110 625.39,-117"/>
</g>
<!-- Node17 -->
<g id="node17" class="node">
<title>Node17</title>
<g id="a_node17"><a xlink:href="classprecice_1_1utils_1_1IntraComm.html#a2c2aa5e2fd6cc26797b7fdee0b0b25ac" target="_top" xlink:title="Current rank.">
<polygon fill="white" stroke="black" points="635.5,-49.5 635.5,-79.5 775.5,-79.5 775.5,-49.5 635.5,-49.5"/>
<text text-anchor="start" x="643.5" y="-67.5" font-family="Helvetica,sans-Serif" font-size="10.00">precice::utils::IntraComm</text>
<text text-anchor="middle" x="705.5" y="-56.5" font-family="Helvetica,sans-Serif" font-size="10.00">::getRank</text>
</a>
</g>
</g>
<!-- Node14&#45;&gt;Node17 -->
<g id="edge18" class="edge">
<title>Node14&#45;&gt;Node17</title>
<path fill="none" stroke="midnightblue" d="M542.33,-103.94C568.06,-97.68 602.44,-89.32 632.92,-81.91"/>
<polygon fill="midnightblue" stroke="midnightblue" points="633.77,-85.3 642.66,-79.54 632.12,-78.5 633.77,-85.3"/>
</g>
<!-- Node18 -->
<g id="node18" class="node">
<title>Node18</title>
<g id="a_node18"><a xlink:href="classprecice_1_1utils_1_1IntraComm.html#abde303b11e46851ae65dca65ef06daad" target="_top" xlink:title="True if this process is running a secondary rank.">
<polygon fill="white" stroke="black" points="635.5,-0.5 635.5,-30.5 775.5,-30.5 775.5,-0.5 635.5,-0.5"/>
<text text-anchor="start" x="643.5" y="-18.5" font-family="Helvetica,sans-Serif" font-size="10.00">precice::utils::IntraComm</text>
<text text-anchor="middle" x="705.5" y="-7.5" font-family="Helvetica,sans-Serif" font-size="10.00">::isSecondary</text>
</a>
</g>
</g>
<!-- Node14&#45;&gt;Node18 -->
<g id="edge19" class="edge">
<title>Node14&#45;&gt;Node18</title>
<path fill="none" stroke="midnightblue" d="M515.18,-104C535.59,-88.49 578.44,-57.65 619,-39.5 623.43,-37.52 628.06,-35.66 632.78,-33.93"/>
<polygon fill="midnightblue" stroke="midnightblue" points="634.24,-37.12 642.55,-30.54 631.95,-30.51 634.24,-37.12"/>
</g>
</g>
</svg>
