<?xml version="1.0" encoding="UTF-8" standalone="no"?>
<!DOCTYPE svg PUBLIC "-//W3C//DTD SVG 1.1//EN"
 "http://www.w3.org/Graphics/SVG/1.1/DTD/svg11.dtd">
<!-- Generated by graphviz version 2.43.0 (0)
 -->
<!-- Title: precice::mesh::Triangle::getEnclosingRadius Pages: 1 -->
<svg width="467pt" height="161pt"
 viewBox="0.00 0.00 467.00 161.00" xmlns="http://www.w3.org/2000/svg" xmlns:xlink="http://www.w3.org/1999/xlink">
<g id="graph0" class="graph" transform="scale(1 1) rotate(0) translate(4 157)">
<title>precice::mesh::Triangle::getEnclosingRadius</title>
<polygon fill="white" stroke="transparent" points="-4,4 -4,-157 463,-157 463,4 -4,4"/>
<!-- Node1 -->
<g id="node1" class="node">
<title>Node1</title>
<g id="a_node1"><a xlink:title="Returns the radius of the circle enclosing the triangle.">
<polygon fill="#bfbfbf" stroke="black" points="0,-73.5 0,-103.5 129,-103.5 129,-73.5 0,-73.5"/>
<text text-anchor="start" x="8" y="-91.5" font-family="Helvetica,sans-Serif" font-size="10.00">precice::mesh::Triangle</text>
<text text-anchor="middle" x="64.5" y="-80.5" font-family="Helvetica,sans-Serif" font-size="10.00">::getEnclosingRadius</text>
</a>
</g>
</g>
<!-- Node2 -->
<g id="node2" class="node">
<title>Node2</title>
<g id="a_node2"><a xlink:href="classprecice_1_1mesh_1_1Triangle.html#ae118df04a6ce11d08547611128074d73" target="_top" xlink:title="Returns the barycenter of the triangle.">
<polygon fill="white" stroke="black" points="165,-122.5 165,-152.5 294,-152.5 294,-122.5 165,-122.5"/>
<text text-anchor="start" x="173" y="-140.5" font-family="Helvetica,sans-Serif" font-size="10.00">precice::mesh::Triangle</text>
<text text-anchor="middle" x="229.5" y="-129.5" font-family="Helvetica,sans-Serif" font-size="10.00">::getCenter</text>
</a>
</g>
</g>
<!-- Node1&#45;&gt;Node2 -->
<g id="edge1" class="edge">
<title>Node1&#45;&gt;Node2</title>
<path fill="none" stroke="midnightblue" d="M115.74,-103.6C132.39,-108.61 151.1,-114.23 168.42,-119.44"/>
<polygon fill="midnightblue" stroke="midnightblue" points="167.85,-122.92 178.43,-122.45 169.86,-116.22 167.85,-122.92"/>
</g>
<!-- Node3 -->
<g id="node3" class="node">
<title>Node3</title>
<g id="a_node3"><a xlink:href="classprecice_1_1mesh_1_1Vertex.html#ad90010710b36c06a40ec09922c1b0fce" target="_top" xlink:title="Returns the coordinates of the vertex.">
<polygon fill="white" stroke="black" points="168.5,-73.5 168.5,-103.5 290.5,-103.5 290.5,-73.5 168.5,-73.5"/>
<text text-anchor="start" x="176.5" y="-91.5" font-family="Helvetica,sans-Serif" font-size="10.00">precice::mesh::Vertex</text>
<text text-anchor="middle" x="229.5" y="-80.5" font-family="Helvetica,sans-Serif" font-size="10.00">::getCoords</text>
</a>
</g>
</g>
<!-- Node1&#45;&gt;Node3 -->
<g id="edge2" class="edge">
<title>Node1&#45;&gt;Node3</title>
<path fill="none" stroke="midnightblue" d="M129.45,-88.5C138.89,-88.5 148.65,-88.5 158.2,-88.5"/>
<polygon fill="midnightblue" stroke="midnightblue" points="158.46,-92 168.46,-88.5 158.46,-85 158.46,-92"/>
</g>
<!-- Node4 -->
<g id="node4" class="node">
<title>Node4</title>
<g id="a_node4"><a xlink:href="classprecice_1_1mesh_1_1Triangle.html#ac4d5ab22ef769607eb78676efe7dd11e" target="_top" xlink:title="Returns triangle vertex with index 0, 1 or 2.">
<polygon fill="white" stroke="black" points="165,-24.5 165,-54.5 294,-54.5 294,-24.5 165,-24.5"/>
<text text-anchor="start" x="173" y="-42.5" font-family="Helvetica,sans-Serif" font-size="10.00">precice::mesh::Triangle</text>
<text text-anchor="middle" x="229.5" y="-31.5" font-family="Helvetica,sans-Serif" font-size="10.00">::vertex</text>
</a>
</g>
</g>
<!-- Node1&#45;&gt;Node4 -->
<g id="edge3" class="edge">
<title>Node1&#45;&gt;Node4</title>
<path fill="none" stroke="midnightblue" d="M115.74,-73.4C132.39,-68.39 151.1,-62.77 168.42,-57.56"/>
<polygon fill="midnightblue" stroke="midnightblue" points="169.86,-60.78 178.43,-54.55 167.85,-54.08 169.86,-60.78"/>
</g>
<!-- Node5 -->
<g id="node5" class="node">
<title>Node5</title>
<g id="a_node5"><a xlink:href="classprecice_1_1mesh_1_1Triangle.html#a0efee1f0385ffb41ce8951bf211ea26a" target="_top" xlink:title="Returns triangle edge with index 0, 1 or 2.">
<polygon fill="white" stroke="black" points="330,-49.5 330,-79.5 459,-79.5 459,-49.5 330,-49.5"/>
<text text-anchor="start" x="338" y="-67.5" font-family="Helvetica,sans-Serif" font-size="10.00">precice::mesh::Triangle</text>
<text text-anchor="middle" x="394.5" y="-56.5" font-family="Helvetica,sans-Serif" font-size="10.00">::edge</text>
</a>
</g>
</g>
<!-- Node4&#45;&gt;Node5 -->
<g id="edge4" class="edge">
<title>Node4&#45;&gt;Node5</title>
<path fill="none" stroke="midnightblue" d="M294.45,-49.31C302.85,-50.6 311.51,-51.92 320.05,-53.23"/>
<polygon fill="midnightblue" stroke="midnightblue" points="319.58,-56.7 330,-54.76 320.64,-49.78 319.58,-56.7"/>
</g>
<!-- Node6 -->
<g id="node6" class="node">
<title>Node6</title>
<g id="a_node6"><a xlink:href="classprecice_1_1mesh_1_1Edge.html#a7fc88e0289fecf4c41c230d20311dcdb" target="_top" xlink:title="Returns the edge&#39;s vertex with index 0 or 1.">
<polygon fill="white" stroke="black" points="337,-0.5 337,-30.5 452,-30.5 452,-0.5 337,-0.5"/>
<text text-anchor="start" x="345" y="-18.5" font-family="Helvetica,sans-Serif" font-size="10.00">precice::mesh::Edge</text>
<text text-anchor="middle" x="394.5" y="-7.5" font-family="Helvetica,sans-Serif" font-size="10.00">::vertex</text>
</a>
</g>
</g>
<!-- Node4&#45;&gt;Node6 -->
<g id="edge5" class="edge">
<title>Node4&#45;&gt;Node6</title>
<path fill="none" stroke="midnightblue" d="M294.45,-30.08C305.07,-28.52 316.09,-26.9 326.77,-25.32"/>
<polygon fill="midnightblue" stroke="midnightblue" points="327.49,-28.76 336.88,-23.84 326.47,-21.83 327.49,-28.76"/>
</g>
</g>
</svg>
