<?xml version="1.0" encoding="UTF-8" standalone="no"?>
<!DOCTYPE svg PUBLIC "-//W3C//DTD SVG 1.1//EN"
 "http://www.w3.org/Graphics/SVG/1.1/DTD/svg11.dtd">
<!-- Generated by graphviz version 2.43.0 (0)
 -->
<!-- Title: precice::cplscheme::impl::RelativeConvergenceMeasure::printState Pages: 1 -->
<svg width="512pt" height="133pt"
 viewBox="0.00 0.00 512.00 133.00" xmlns="http://www.w3.org/2000/svg" xmlns:xlink="http://www.w3.org/1999/xlink">
<g id="graph0" class="graph" transform="scale(1 1) rotate(0) translate(4 129)">
<title>precice::cplscheme::impl::RelativeConvergenceMeasure::printState</title>
<!-- Node1 -->
<g id="Node000001" class="node">
<title>Node1</title>
<g id="a_Node000001"><a xlink:title="Adds current convergence information to output stream.">
<polygon fill="#999999" stroke="#666666" points="155,-67 0,-67 0,-26 155,-26 155,-67"/>
<text text-anchor="start" x="8" y="-55" font-family="Helvetica,sans-Serif" font-size="10.00">precice::cplscheme</text>
<text text-anchor="start" x="8" y="-44" font-family="Helvetica,sans-Serif" font-size="10.00">::impl::RelativeConvergence</text>
<text text-anchor="middle" x="77.5" y="-33" font-family="Helvetica,sans-Serif" font-size="10.00">Measure::printState</text>
</a>
</g>
</g>
<!-- Node2 -->
<g id="Node000002" class="node">
<title>Node2</title>
<g id="a_Node000002"><a xlink:href="classprecice_1_1cplscheme_1_1impl_1_1RelativeConvergenceMeasure.html#a6f02fa9e1f5b1ae84947fcaaef7a4ef2" target="_top" xlink:title="Returns the l2&#45;norm of the coupling residuum.">
<polygon fill="white" stroke="#666666" points="346,-115 191,-115 191,-74 346,-74 346,-115"/>
<text text-anchor="start" x="199" y="-103" font-family="Helvetica,sans-Serif" font-size="10.00">precice::cplscheme</text>
<text text-anchor="start" x="199" y="-92" font-family="Helvetica,sans-Serif" font-size="10.00">::impl::RelativeConvergence</text>
<text text-anchor="middle" x="268.5" y="-81" font-family="Helvetica,sans-Serif" font-size="10.00">Measure::getNormResidual</text>
</a>
</g>
</g>
<!-- Node1&#45;&gt;Node2 -->
<g id="edge1_Node000001_Node000002" class="edge">
<title>Node1&#45;&gt;Node2</title>
<g id="a_edge1_Node000001_Node000002"><a xlink:title=" ">
<path fill="none" stroke="#63b8ff" d="M155.1,-65.95C163.65,-68.13 172.4,-70.35 181.06,-72.55"/>
<polygon fill="#63b8ff" stroke="#63b8ff" points="180.24,-75.95 190.79,-75.02 181.96,-69.16 180.24,-75.95"/>
</a>
</g>
</g>
<!-- Node5 -->
<g id="Node000005" class="node">
<title>Node5</title>
<g id="a_Node000005"><a target="_parent" xlink:href="http://en.cppreference.com/w/cpp/io/manip/fixed.html#" xlink:title=" ">
<polygon fill="white" stroke="#666666" points="309,-56 228,-56 228,-37 309,-37 309,-56"/>
<text text-anchor="middle" x="268.5" y="-44" font-family="Helvetica,sans-Serif" font-size="10.00">std::scientific</text>
</a>
</g>
</g>
<!-- Node1&#45;&gt;Node5 -->
<g id="edge4_Node000001_Node000005" class="edge">
<title>Node1&#45;&gt;Node5</title>
<g id="a_edge4_Node000001_Node000005"><a xlink:title=" ">
<path fill="none" stroke="#63b8ff" d="M155.1,-46.5C176.26,-46.5 198.67,-46.5 217.86,-46.5"/>
<polygon fill="#63b8ff" stroke="#63b8ff" points="217.87,-50 227.87,-46.5 217.87,-43 217.87,-50"/>
</a>
</g>
</g>
<!-- Node6 -->
<g id="Node000006" class="node">
<title>Node6</title>
<g id="a_Node000006"><a target="_parent" xlink:href="http://en.cppreference.com/w/cpp/io/manip/setprecision.html#" xlink:title=" ">
<polygon fill="white" stroke="#666666" points="317,-19 220,-19 220,0 317,0 317,-19"/>
<text text-anchor="middle" x="268.5" y="-7" font-family="Helvetica,sans-Serif" font-size="10.00">std::setprecision</text>
</a>
</g>
</g>
<!-- Node1&#45;&gt;Node6 -->
<g id="edge5_Node000001_Node000006" class="edge">
<title>Node1&#45;&gt;Node6</title>
<g id="a_edge5_Node000001_Node000006"><a xlink:title=" ">
<path fill="none" stroke="#63b8ff" d="M155.1,-31.5C173.41,-27.92 192.64,-24.15 209.92,-20.77"/>
<polygon fill="#63b8ff" stroke="#63b8ff" points="210.71,-24.18 219.85,-18.83 209.36,-17.32 210.71,-24.18"/>
</a>
</g>
</g>
<!-- Node3 -->
<g id="Node000003" class="node">
<title>Node3</title>
<g id="a_Node000003"><a xlink:href="namespaceprecice_1_1math.html#a0e86802cfe992deba131d789d035b5b7" target="_top" xlink:title="Compares two Eigen::MatrixBase for equality up to tolerance.">
<polygon fill="white" stroke="#666666" points="504,-125 382,-125 382,-106 504,-106 504,-125"/>
<text text-anchor="middle" x="443" y="-113" font-family="Helvetica,sans-Serif" font-size="10.00">precice::math::equals</text>
</a>
</g>
</g>
<!-- Node2&#45;&gt;Node3 -->
<g id="edge2_Node000002_Node000003" class="edge">
<title>Node2&#45;&gt;Node3</title>
<g id="a_edge2_Node000002_Node000003"><a xlink:title=" ">
<path fill="none" stroke="#63b8ff" d="M346.17,-103.83C354.67,-104.87 363.31,-105.92 371.73,-106.95"/>
<polygon fill="#63b8ff" stroke="#63b8ff" points="371.53,-110.45 381.88,-108.18 372.38,-103.5 371.53,-110.45"/>
</a>
</g>
</g>
<!-- Node4 -->
<g id="Node000004" class="node">
<title>Node4</title>
<g id="a_Node000004"><a target="_parent" xlink:href="http://en.cppreference.com/w/cpp/types/numeric_limits/infinity.html#" xlink:title=" ">
<polygon fill="white" stroke="#666666" points="498,-87.5 388,-87.5 388,-57.5 498,-57.5 498,-87.5"/>
<text text-anchor="start" x="396" y="-75.5" font-family="Helvetica,sans-Serif" font-size="10.00">std::numeric_limits</text>
<text text-anchor="middle" x="443" y="-64.5" font-family="Helvetica,sans-Serif" font-size="10.00">::infinity</text>
</a>
</g>
</g>
<!-- Node2&#45;&gt;Node4 -->
<g id="edge3_Node000002_Node000004" class="edge">
<title>Node2&#45;&gt;Node4</title>
<g id="a_edge3_Node000002_Node000004"><a xlink:title=" ">
<path fill="none" stroke="#63b8ff" d="M346.17,-84.72C356.69,-83.38 367.41,-82.01 377.69,-80.7"/>
<polygon fill="#63b8ff" stroke="#63b8ff" points="378.32,-84.15 387.79,-79.41 377.43,-77.21 378.32,-84.15"/>
</a>
</g>
</g>
</g>
</svg>
