<?xml version="1.0" encoding="UTF-8" standalone="no"?>
<!DOCTYPE svg PUBLIC "-//W3C//DTD SVG 1.1//EN"
 "http://www.w3.org/Graphics/SVG/1.1/DTD/svg11.dtd">
<!-- Generated by graphviz version 2.43.0 (0)
 -->
<!-- Title: precice::query::Index::findEdgeProjection Pages: 1 -->
<svg width="489pt" height="311pt"
 viewBox="0.00 0.00 489.00 311.00" xmlns="http://www.w3.org/2000/svg" xmlns:xlink="http://www.w3.org/1999/xlink">
<g id="graph0" class="graph" transform="scale(1 1) rotate(0) translate(4 307)">
<title>precice::query::Index::findEdgeProjection</title>
<!-- Node1 -->
<g id="Node000001" class="node">
<title>Node1</title>
<g id="a_Node000001"><a xlink:title="Find closest edge interpolation element. If cannot be found, it falls back to vertex projection.">
<polygon fill="#999999" stroke="#666666" points="118,-165.5 0,-165.5 0,-135.5 118,-135.5 118,-165.5"/>
<text text-anchor="start" x="8" y="-153.5" font-family="Helvetica,sans-Serif" font-size="10.00">precice::query::Index</text>
<text text-anchor="middle" x="59" y="-142.5" font-family="Helvetica,sans-Serif" font-size="10.00">::findEdgeProjection</text>
</a>
</g>
</g>
<!-- Node2 -->
<g id="Node000002" class="node">
<title>Node2</title>
<g id="a_Node000002"><a target="_parent" xlink:href="http://en.cppreference.com/w/cpp/container/vector/begin.html#" xlink:title=" ">
<polygon fill="white" stroke="#666666" points="277.5,-303 176.5,-303 176.5,-284 277.5,-284 277.5,-303"/>
<text text-anchor="middle" x="227" y="-291" font-family="Helvetica,sans-Serif" font-size="10.00">std::vector::begin</text>
</a>
</g>
</g>
<!-- Node1&#45;&gt;Node2 -->
<g id="edge1_Node000001_Node000002" class="edge">
<title>Node1&#45;&gt;Node2</title>
<g id="a_edge1_Node000001_Node000002"><a xlink:title=" ">
<path fill="none" stroke="#63b8ff" d="M67.23,-165.7C80.56,-192.04 111.58,-246.09 154,-274.5 158.02,-277.19 162.4,-279.5 166.95,-281.48"/>
<polygon fill="#63b8ff" stroke="#63b8ff" points="165.88,-284.82 176.47,-285.11 168.38,-278.28 165.88,-284.82"/>
</a>
</g>
</g>
<!-- Node3 -->
<g id="Node000003" class="node">
<title>Node3</title>
<g id="a_Node000003"><a xlink:href="classprecice_1_1mapping_1_1Polation.html#a90b11bfde9c3f23b27a114a923ff4685" target="_top" xlink:title="Returns the projection distance.">
<polygon fill="white" stroke="#666666" points="300,-265.5 154,-265.5 154,-235.5 300,-235.5 300,-265.5"/>
<text text-anchor="start" x="162" y="-253.5" font-family="Helvetica,sans-Serif" font-size="10.00">precice::mapping::Polation</text>
<text text-anchor="middle" x="227" y="-242.5" font-family="Helvetica,sans-Serif" font-size="10.00">::distance</text>
</a>
</g>
</g>
<!-- Node1&#45;&gt;Node3 -->
<g id="edge2_Node000001_Node000003" class="edge">
<title>Node1&#45;&gt;Node3</title>
<g id="a_edge2_Node000001_Node000003"><a xlink:title=" ">
<path fill="none" stroke="#63b8ff" d="M77.05,-165.59C95.18,-181.09 125.16,-205.18 154,-221.5 160.29,-225.06 167.1,-228.4 173.95,-231.46"/>
<polygon fill="#63b8ff" stroke="#63b8ff" points="172.68,-234.72 183.25,-235.44 175.44,-228.29 172.68,-234.72"/>
</a>
</g>
</g>
<!-- Node4 -->
<g id="Node000004" class="node">
<title>Node4</title>
<g id="a_Node000004"><a target="_parent" xlink:href="http://en.cppreference.com/w/cpp/container/vector/emplace_back.html#" xlink:title=" ">
<polygon fill="white" stroke="#666666" points="481,-158 336,-158 336,-139 481,-139 481,-158"/>
<text text-anchor="middle" x="408.5" y="-146" font-family="Helvetica,sans-Serif" font-size="10.00">std::vector::emplace_back</text>
</a>
</g>
</g>
<!-- Node1&#45;&gt;Node4 -->
<g id="edge3_Node000001_Node000004" class="edge">
<title>Node1&#45;&gt;Node4</title>
<g id="a_edge3_Node000001_Node000004"><a xlink:title=" ">
<path fill="none" stroke="#63b8ff" d="M89.16,-165.68C107.28,-174.25 131.36,-184.1 154,-188.5 217.7,-200.89 236.14,-200 300,-188.5 327.87,-183.48 357.95,-171.69 379.19,-162.21"/>
<polygon fill="#63b8ff" stroke="#63b8ff" points="380.65,-165.39 388.28,-158.04 377.73,-159.02 380.65,-165.39"/>
</a>
</g>
</g>
<!-- Node5 -->
<g id="Node000005" class="node">
<title>Node5</title>
<g id="a_Node000005"><a target="_parent" xlink:href="http://en.cppreference.com/w/cpp/container/vector/empty.html#" xlink:title=" ">
<polygon fill="white" stroke="#666666" points="280,-179 174,-179 174,-160 280,-160 280,-179"/>
<text text-anchor="middle" x="227" y="-167" font-family="Helvetica,sans-Serif" font-size="10.00">std::vector::empty</text>
</a>
</g>
</g>
<!-- Node1&#45;&gt;Node5 -->
<g id="edge4_Node000001_Node000005" class="edge">
<title>Node1&#45;&gt;Node5</title>
<g id="a_edge4_Node000001_Node000005"><a xlink:title=" ">
<path fill="none" stroke="#63b8ff" d="M118.06,-157.15C132.8,-158.83 148.69,-160.65 163.63,-162.36"/>
<polygon fill="#63b8ff" stroke="#63b8ff" points="163.46,-165.87 173.8,-163.52 164.26,-158.91 163.46,-165.87"/>
</a>
</g>
</g>
<!-- Node6 -->
<g id="Node000006" class="node">
<title>Node6</title>
<g id="a_Node000006"><a target="_parent" xlink:href="http://en.cppreference.com/w/cpp/container/vector/end.html#" xlink:title=" ">
<polygon fill="white" stroke="#666666" points="273,-142 181,-142 181,-123 273,-123 273,-142"/>
<text text-anchor="middle" x="227" y="-130" font-family="Helvetica,sans-Serif" font-size="10.00">std::vector::end</text>
</a>
</g>
</g>
<!-- Node1&#45;&gt;Node6 -->
<g id="edge5_Node000001_Node000006" class="edge">
<title>Node1&#45;&gt;Node6</title>
<g id="a_edge5_Node000001_Node000006"><a xlink:title=" ">
<path fill="none" stroke="#63b8ff" d="M118.06,-144.2C135.09,-142.36 153.67,-140.34 170.54,-138.51"/>
<polygon fill="#63b8ff" stroke="#63b8ff" points="171.23,-141.96 180.79,-137.4 170.47,-135 171.23,-141.96"/>
</a>
</g>
</g>
<!-- Node7 -->
<g id="Node000007" class="node">
<title>Node7</title>
<g id="a_Node000007"><a xlink:href="classprecice_1_1query_1_1Index.html#ad7246f8806501075e083cff367eb4813" target="_top" xlink:title="Get n number of closest edges to the given vertex.">
<polygon fill="white" stroke="#666666" points="286,-104.5 168,-104.5 168,-74.5 286,-74.5 286,-104.5"/>
<text text-anchor="start" x="176" y="-92.5" font-family="Helvetica,sans-Serif" font-size="10.00">precice::query::Index</text>
<text text-anchor="middle" x="227" y="-81.5" font-family="Helvetica,sans-Serif" font-size="10.00">::getClosestEdges</text>
</a>
</g>
</g>
<!-- Node1&#45;&gt;Node7 -->
<g id="edge6_Node000001_Node000007" class="edge">
<title>Node1&#45;&gt;Node7</title>
<g id="a_edge6_Node000001_Node000007"><a xlink:title=" ">
<path fill="none" stroke="#63b8ff" d="M98.77,-135.34C115.69,-128.8 135.78,-121.15 154,-114.5 159.87,-112.36 166.03,-110.15 172.17,-107.98"/>
<polygon fill="#63b8ff" stroke="#63b8ff" points="173.48,-111.23 181.75,-104.62 171.16,-104.63 173.48,-111.23"/>
</a>
</g>
</g>
<!-- Node8 -->
<g id="Node000008" class="node">
<title>Node8</title>
<g id="a_Node000008"><a target="_parent" xlink:href="http://en.cppreference.com/w/cpp/algorithm/min_element.html#" xlink:title=" ">
<polygon fill="white" stroke="#666666" points="278,-56 176,-56 176,-37 278,-37 278,-56"/>
<text text-anchor="middle" x="227" y="-44" font-family="Helvetica,sans-Serif" font-size="10.00">std::min_element</text>
</a>
</g>
</g>
<!-- Node1&#45;&gt;Node8 -->
<g id="edge8_Node000001_Node000008" class="edge">
<title>Node1&#45;&gt;Node8</title>
<g id="a_edge8_Node000001_Node000008"><a xlink:title=" ">
<path fill="none" stroke="#63b8ff" d="M72.68,-135.21C89.37,-116.08 120.53,-83.63 154,-65.5 158.18,-63.23 162.65,-61.22 167.24,-59.45"/>
<polygon fill="#63b8ff" stroke="#63b8ff" points="168.48,-62.72 176.76,-56.12 166.17,-56.11 168.48,-62.72"/>
</a>
</g>
</g>
<!-- Node9 -->
<g id="Node000009" class="node">
<title>Node9</title>
<g id="a_Node000009"><a target="_parent" xlink:href="http://en.cppreference.com/w/cpp/container/vector/reserve.html#" xlink:title=" ">
<polygon fill="white" stroke="#666666" points="282.5,-19 171.5,-19 171.5,0 282.5,0 282.5,-19"/>
<text text-anchor="middle" x="227" y="-7" font-family="Helvetica,sans-Serif" font-size="10.00">std::vector::reserve</text>
</a>
</g>
</g>
<!-- Node1&#45;&gt;Node9 -->
<g id="edge9_Node000001_Node000009" class="edge">
<title>Node1&#45;&gt;Node9</title>
<g id="a_edge9_Node000001_Node000009"><a xlink:title=" ">
<path fill="none" stroke="#63b8ff" d="M67.51,-135.14C81.06,-109.07 112.12,-56.31 154,-28.5 157.09,-26.45 160.39,-24.62 163.82,-22.99"/>
<polygon fill="#63b8ff" stroke="#63b8ff" points="165.24,-26.19 173.12,-19.11 162.55,-19.72 165.24,-26.19"/>
</a>
</g>
</g>
<!-- Node7&#45;&gt;Node4 -->
<g id="edge7_Node000007_Node000004" class="edge">
<title>Node7&#45;&gt;Node4</title>
<g id="a_edge7_Node000007_Node000004"><a xlink:title=" ">
<path fill="none" stroke="#63b8ff" d="M273.76,-104.54C303.09,-114.18 340.74,-126.56 368.61,-135.72"/>
<polygon fill="#63b8ff" stroke="#63b8ff" points="367.81,-139.14 378.41,-138.94 370,-132.49 367.81,-139.14"/>
</a>
</g>
</g>
</g>
</svg>
