<?xml version="1.0" encoding="UTF-8" standalone="no"?>
<!DOCTYPE svg PUBLIC "-//W3C//DTD SVG 1.1//EN"
 "http://www.w3.org/Graphics/SVG/1.1/DTD/svg11.dtd">
<!-- Generated by graphviz version 2.43.0 (0)
 -->
<!-- Title: precice::mapping::SphericalVertexCluster::SphericalVertexCluster Pages: 1 -->
<svg width="522pt" height="137pt"
 viewBox="0.00 0.00 522.00 136.50" xmlns="http://www.w3.org/2000/svg" xmlns:xlink="http://www.w3.org/1999/xlink">
<g id="graph0" class="graph" transform="scale(1 1) rotate(0) translate(4 132.5)">
<title>precice::mapping::SphericalVertexCluster::SphericalVertexCluster</title>
<!-- Node1 -->
<g id="Node000001" class="node">
<title>Node1</title>
<g id="a_Node000001"><a xlink:title=" ">
<polygon fill="#999999" stroke="#666666" points="200,-85.5 0,-85.5 0,-55.5 200,-55.5 200,-85.5"/>
<text text-anchor="start" x="8" y="-73.5" font-family="Helvetica,sans-Serif" font-size="10.00">precice::mapping::Spherical</text>
<text text-anchor="middle" x="100" y="-62.5" font-family="Helvetica,sans-Serif" font-size="10.00">VertexCluster::SphericalVertexCluster</text>
</a>
</g>
</g>
<!-- Node2 -->
<g id="Node000002" class="node">
<title>Node2</title>
<g id="a_Node000002"><a xlink:href="classprecice_1_1mapping_1_1SphericalVertexCluster.html#a63114a3344184d01047d26edf4375488" target="_top" xlink:title=" ">
<polygon fill="white" stroke="#666666" points="388,-128.5 236,-128.5 236,-98.5 388,-98.5 388,-128.5"/>
<text text-anchor="start" x="244" y="-116.5" font-family="Helvetica,sans-Serif" font-size="10.00">precice::mapping::Spherical</text>
<text text-anchor="middle" x="312" y="-105.5" font-family="Helvetica,sans-Serif" font-size="10.00">VertexCluster::empty</text>
</a>
</g>
</g>
<!-- Node1&#45;&gt;Node2 -->
<g id="edge1_Node000001_Node000002" class="edge">
<title>Node1&#45;&gt;Node2</title>
<g id="a_edge1_Node000001_Node000002"><a xlink:title=" ">
<path fill="none" stroke="#63b8ff" d="M174.45,-85.54C191.55,-89.04 209.89,-92.8 227.4,-96.38"/>
<polygon fill="#63b8ff" stroke="#63b8ff" points="227.09,-99.89 237.59,-98.47 228.5,-93.03 227.09,-99.89"/>
</a>
</g>
</g>
<!-- Node3 -->
<g id="Node000003" class="node">
<title>Node3</title>
<g id="a_Node000003"><a target="_parent" xlink:href="http://en.cppreference.com/w/cpp/memory/shared_ptr/get.html#" xlink:title=" ">
<polygon fill="white" stroke="#666666" points="367.5,-80 256.5,-80 256.5,-61 367.5,-61 367.5,-80"/>
<text text-anchor="middle" x="312" y="-68" font-family="Helvetica,sans-Serif" font-size="10.00">std::shared_ptr::get</text>
</a>
</g>
</g>
<!-- Node1&#45;&gt;Node3 -->
<g id="edge2_Node000001_Node000003" class="edge">
<title>Node1&#45;&gt;Node3</title>
<g id="a_edge2_Node000001_Node000003"><a xlink:title=" ">
<path fill="none" stroke="#63b8ff" d="M200.16,-70.5C215.71,-70.5 231.44,-70.5 245.96,-70.5"/>
<polygon fill="#63b8ff" stroke="#63b8ff" points="246.31,-74 256.31,-70.5 246.31,-67 246.31,-74"/>
</a>
</g>
</g>
<!-- Node4 -->
<g id="Node000004" class="node">
<title>Node4</title>
<g id="a_Node000004"><a xlink:href="classprecice_1_1mesh_1_1Vertex.html#ad90010710b36c06a40ec09922c1b0fce" target="_top" xlink:title="Returns the coordinates of the vertex.">
<polygon fill="white" stroke="#666666" points="373,-42.5 251,-42.5 251,-12.5 373,-12.5 373,-42.5"/>
<text text-anchor="start" x="259" y="-30.5" font-family="Helvetica,sans-Serif" font-size="10.00">precice::mesh::Vertex</text>
<text text-anchor="middle" x="312" y="-19.5" font-family="Helvetica,sans-Serif" font-size="10.00">::getCoords</text>
</a>
</g>
</g>
<!-- Node1&#45;&gt;Node4 -->
<g id="edge3_Node000001_Node000004" class="edge">
<title>Node1&#45;&gt;Node4</title>
<g id="a_edge3_Node000001_Node000004"><a xlink:title=" ">
<path fill="none" stroke="#63b8ff" d="M174.45,-55.46C195.99,-51.05 219.49,-46.24 240.83,-41.87"/>
<polygon fill="#63b8ff" stroke="#63b8ff" points="241.69,-45.27 250.78,-39.83 240.28,-38.41 241.69,-45.27"/>
</a>
</g>
</g>
<!-- Node5 -->
<g id="Node000005" class="node">
<title>Node5</title>
<g id="a_Node000005"><a target="_parent" xlink:href="http://en.cppreference.com/w/cpp/algorithm/copy_n.html#" xlink:title=" ">
<polygon fill="white" stroke="#666666" points="505,-56 433,-56 433,-37 505,-37 505,-56"/>
<text text-anchor="middle" x="469" y="-44" font-family="Helvetica,sans-Serif" font-size="10.00">std::copy_n</text>
</a>
</g>
</g>
<!-- Node4&#45;&gt;Node5 -->
<g id="edge4_Node000004_Node000005" class="edge">
<title>Node4&#45;&gt;Node5</title>
<g id="a_edge4_Node000004_Node000005"><a xlink:title=" ">
<path fill="none" stroke="#63b8ff" d="M373.37,-34.9C389.67,-36.9 407.03,-39.03 422.38,-40.91"/>
<polygon fill="#63b8ff" stroke="#63b8ff" points="422.29,-44.42 432.64,-42.17 423.14,-37.47 422.29,-44.42"/>
</a>
</g>
</g>
<!-- Node6 -->
<g id="Node000006" class="node">
<title>Node6</title>
<g id="a_Node000006"><a target="_parent" xlink:href="http://en.cppreference.com/w/cpp/container/array/data.html#" xlink:title=" ">
<polygon fill="white" stroke="#666666" points="514,-19 424,-19 424,0 514,0 514,-19"/>
<text text-anchor="middle" x="469" y="-7" font-family="Helvetica,sans-Serif" font-size="10.00">std::array::data</text>
</a>
</g>
</g>
<!-- Node4&#45;&gt;Node6 -->
<g id="edge5_Node000004_Node000006" class="edge">
<title>Node4&#45;&gt;Node6</title>
<g id="a_edge5_Node000004_Node000006"><a xlink:title=" ">
<path fill="none" stroke="#63b8ff" d="M373.37,-20.49C386.65,-18.95 400.64,-17.32 413.66,-15.81"/>
<polygon fill="#63b8ff" stroke="#63b8ff" points="414.34,-19.25 423.87,-14.62 413.53,-12.3 414.34,-19.25"/>
</a>
</g>
</g>
</g>
</svg>
