<?xml version="1.0" encoding="UTF-8" standalone="no"?>
<!DOCTYPE svg PUBLIC "-//W3C//DTD SVG 1.1//EN"
 "http://www.w3.org/Graphics/SVG/1.1/DTD/svg11.dtd">
<!-- Generated by graphviz version 2.43.0 (0)
 -->
<!-- Title: precice::cplscheme::CouplingSchemeConfiguration::createParallelExplicitCouplingScheme Pages: 1 -->
<svg width="1567pt" height="798pt"
 viewBox="0.00 0.00 1567.00 798.07" xmlns="http://www.w3.org/2000/svg" xmlns:xlink="http://www.w3.org/1999/xlink">
<g id="graph0" class="graph" transform="scale(1 1) rotate(0) translate(4 794.07)">
<title>precice::cplscheme::CouplingSchemeConfiguration::createParallelExplicitCouplingScheme</title>
<polygon fill="white" stroke="transparent" points="-4,4 -4,-794.07 1563,-794.07 1563,4 -4,4"/>
<!-- Node1 -->
<g id="node1" class="node">
<title>Node1</title>
<g id="a_node1"><a xlink:title=" ">
<polygon fill="#bfbfbf" stroke="black" points="0,-619.57 0,-660.57 207,-660.57 207,-619.57 0,-619.57"/>
<text text-anchor="start" x="8" y="-648.57" font-family="Helvetica,sans-Serif" font-size="10.00">precice::cplscheme</text>
<text text-anchor="start" x="8" y="-637.57" font-family="Helvetica,sans-Serif" font-size="10.00">::CouplingSchemeConfiguration</text>
<text text-anchor="middle" x="103.5" y="-626.57" font-family="Helvetica,sans-Serif" font-size="10.00">::createParallelExplicitCouplingScheme</text>
</a>
</g>
</g>
<!-- Node2 -->
<g id="node2" class="node">
<title>Node2</title>
<g id="a_node2"><a xlink:href="classprecice_1_1cplscheme_1_1CouplingSchemeConfiguration.html#a347f261ca80d960103fccc38ec90ef07" target="_top" xlink:title="Adds configured exchange data to be sent or received to scheme.">
<polygon fill="white" stroke="black" points="243,-619.57 243,-660.57 413,-660.57 413,-619.57 243,-619.57"/>
<text text-anchor="start" x="251" y="-648.57" font-family="Helvetica,sans-Serif" font-size="10.00">precice::cplscheme</text>
<text text-anchor="start" x="251" y="-637.57" font-family="Helvetica,sans-Serif" font-size="10.00">::CouplingSchemeConfiguration</text>
<text text-anchor="middle" x="328" y="-626.57" font-family="Helvetica,sans-Serif" font-size="10.00">::addDataToBeExchanged</text>
</a>
</g>
</g>
<!-- Node1&#45;&gt;Node2 -->
<g id="edge1" class="edge">
<title>Node1&#45;&gt;Node2</title>
<path fill="none" stroke="midnightblue" d="M207.28,-640.07C215.78,-640.07 224.35,-640.07 232.78,-640.07"/>
<polygon fill="midnightblue" stroke="midnightblue" points="232.99,-643.57 242.99,-640.07 232.99,-636.57 232.99,-643.57"/>
</g>
<!-- Node3 -->
<g id="node3" class="node">
<title>Node3</title>
<g id="a_node3"><a xlink:href="classprecice_1_1cplscheme_1_1BiCouplingScheme.html#a8ac6f555a3baa1edf67729fb41c9de25" target="_top" xlink:title="Adds data to be received on data exchange.">
<polygon fill="white" stroke="black" points="500.5,-742.57 500.5,-783.57 620.5,-783.57 620.5,-742.57 500.5,-742.57"/>
<text text-anchor="start" x="508.5" y="-771.57" font-family="Helvetica,sans-Serif" font-size="10.00">precice::cplscheme</text>
<text text-anchor="start" x="508.5" y="-760.57" font-family="Helvetica,sans-Serif" font-size="10.00">::BiCouplingScheme::</text>
<text text-anchor="middle" x="560.5" y="-749.57" font-family="Helvetica,sans-Serif" font-size="10.00">addDataToReceive</text>
</a>
</g>
</g>
<!-- Node2&#45;&gt;Node3 -->
<g id="edge2" class="edge">
<title>Node2&#45;&gt;Node3</title>
<path fill="none" stroke="midnightblue" d="M352.29,-660.76C375.42,-680.4 412.6,-709.59 449,-728.07 462.05,-734.69 476.6,-740.38 490.75,-745.12"/>
<polygon fill="midnightblue" stroke="midnightblue" points="489.86,-748.51 500.45,-748.26 492.01,-741.85 489.86,-748.51"/>
</g>
<!-- Node5 -->
<g id="node5" class="node">
<title>Node5</title>
<g id="a_node5"><a xlink:href="namespaceprecice_1_1utils.html#a434eabaa71f97a31726281a4df77bbcf" target="_top" xlink:title="Returns true, if given element is in vector, otherwise false.">
<polygon fill="white" stroke="black" points="901,-699.57 901,-718.57 1034,-718.57 1034,-699.57 901,-699.57"/>
<text text-anchor="middle" x="967.5" y="-706.57" font-family="Helvetica,sans-Serif" font-size="10.00">precice::utils::contained</text>
</a>
</g>
</g>
<!-- Node2&#45;&gt;Node5 -->
<g id="edge13" class="edge">
<title>Node2&#45;&gt;Node5</title>
<path fill="none" stroke="midnightblue" d="M403.85,-660.6C418.73,-664.17 434.29,-667.53 449,-670.07 604.37,-696.84 789.14,-705.23 890.51,-707.87"/>
<polygon fill="midnightblue" stroke="midnightblue" points="890.57,-711.37 900.66,-708.12 890.75,-704.37 890.57,-711.37"/>
</g>
<!-- Node7 -->
<g id="node7" class="node">
<title>Node7</title>
<g id="a_node7"><a xlink:href="classprecice_1_1cplscheme_1_1BiCouplingScheme.html#ad2ab2d072cce1a60cc1cdd76452e4269" target="_top" xlink:title="Adds data to be sent on data exchange and possibly be modified during coupling iterations.">
<polygon fill="white" stroke="black" points="500.5,-619.57 500.5,-660.57 620.5,-660.57 620.5,-619.57 500.5,-619.57"/>
<text text-anchor="start" x="508.5" y="-648.57" font-family="Helvetica,sans-Serif" font-size="10.00">precice::cplscheme</text>
<text text-anchor="start" x="508.5" y="-637.57" font-family="Helvetica,sans-Serif" font-size="10.00">::BiCouplingScheme::</text>
<text text-anchor="middle" x="560.5" y="-626.57" font-family="Helvetica,sans-Serif" font-size="10.00">addDataToSend</text>
</a>
</g>
</g>
<!-- Node2&#45;&gt;Node7 -->
<g id="edge8" class="edge">
<title>Node2&#45;&gt;Node7</title>
<path fill="none" stroke="midnightblue" d="M413.19,-640.07C438.51,-640.07 465.99,-640.07 490.23,-640.07"/>
<polygon fill="midnightblue" stroke="midnightblue" points="490.4,-643.57 500.4,-640.07 490.4,-636.57 490.4,-643.57"/>
</g>
<!-- Node8 -->
<g id="node8" class="node">
<title>Node8</title>
<g id="a_node8"><a xlink:href="classprecice_1_1cplscheme_1_1CouplingSchemeConfiguration.html#a47039349da4e7be869998c6948230e78" target="_top" xlink:title="Helper function to check that waveform&#45;degree and substep exchange are compatible.">
<polygon fill="white" stroke="black" points="449,-559.57 449,-600.57 672,-600.57 672,-559.57 449,-559.57"/>
<text text-anchor="start" x="457" y="-588.57" font-family="Helvetica,sans-Serif" font-size="10.00">precice::cplscheme</text>
<text text-anchor="start" x="457" y="-577.57" font-family="Helvetica,sans-Serif" font-size="10.00">::CouplingSchemeConfiguration</text>
<text text-anchor="middle" x="560.5" y="-566.57" font-family="Helvetica,sans-Serif" font-size="10.00">::checkSubstepExchangeWaveformDegree</text>
</a>
</g>
</g>
<!-- Node2&#45;&gt;Node8 -->
<g id="edge12" class="edge">
<title>Node2&#45;&gt;Node8</title>
<path fill="none" stroke="midnightblue" d="M408,-619.5C428.25,-614.23 450.17,-608.53 470.87,-603.14"/>
<polygon fill="midnightblue" stroke="midnightblue" points="471.8,-606.51 480.6,-600.61 470.04,-599.74 471.8,-606.51"/>
</g>
<!-- Node9 -->
<g id="node9" class="node">
<title>Node9</title>
<g id="a_node9"><a xlink:href="classprecice_1_1cplscheme_1_1BiCouplingScheme.html#aec47e011b61da1f854ff1992d2439506" target="_top" xlink:title="Determines which data is initialized and therefore has to be exchanged during initialize.">
<polygon fill="white" stroke="black" points="478,-418.57 478,-459.57 643,-459.57 643,-418.57 478,-418.57"/>
<text text-anchor="start" x="486" y="-447.57" font-family="Helvetica,sans-Serif" font-size="10.00">precice::cplscheme</text>
<text text-anchor="start" x="486" y="-436.57" font-family="Helvetica,sans-Serif" font-size="10.00">::BiCouplingScheme::</text>
<text text-anchor="middle" x="560.5" y="-425.57" font-family="Helvetica,sans-Serif" font-size="10.00">determineInitialDataExchange</text>
</a>
</g>
</g>
<!-- Node2&#45;&gt;Node9 -->
<g id="edge14" class="edge">
<title>Node2&#45;&gt;Node9</title>
<path fill="none" stroke="midnightblue" d="M352.8,-619.31C394.66,-582.81 481.45,-507.13 528.15,-466.41"/>
<polygon fill="midnightblue" stroke="midnightblue" points="530.59,-468.92 535.83,-459.71 525.99,-463.64 530.59,-468.92"/>
</g>
<!-- Node4 -->
<g id="node4" class="node">
<title>Node4</title>
<g id="a_node4"><a xlink:href="classprecice_1_1cplscheme_1_1BaseCouplingScheme.html#ab797535f79f36c0f75cd005c6b6143b9" target="_top" xlink:title="Adds CouplingData with given properties to this BaseCouplingScheme and returns a pointer to the Coupl...">
<polygon fill="white" stroke="black" points="714,-644.57 714,-685.57 842,-685.57 842,-644.57 714,-644.57"/>
<text text-anchor="start" x="722" y="-673.57" font-family="Helvetica,sans-Serif" font-size="10.00">precice::cplscheme</text>
<text text-anchor="start" x="722" y="-662.57" font-family="Helvetica,sans-Serif" font-size="10.00">::BaseCouplingScheme</text>
<text text-anchor="middle" x="778" y="-651.57" font-family="Helvetica,sans-Serif" font-size="10.00">::addCouplingData</text>
</a>
</g>
</g>
<!-- Node3&#45;&gt;Node4 -->
<g id="edge3" class="edge">
<title>Node3&#45;&gt;Node4</title>
<path fill="none" stroke="midnightblue" d="M606.68,-742.52C640.44,-727.17 686.74,-706.11 722.55,-689.83"/>
<polygon fill="midnightblue" stroke="midnightblue" points="724.23,-692.91 731.88,-685.59 721.33,-686.54 724.23,-692.91"/>
</g>
<!-- Node3&#45;&gt;Node5 -->
<g id="edge6" class="edge">
<title>Node3&#45;&gt;Node5</title>
<path fill="none" stroke="midnightblue" d="M620.57,-756.51C678.56,-749.91 769.48,-739.16 848,-728.07 864.74,-725.7 882.78,-722.93 899.61,-720.24"/>
<polygon fill="midnightblue" stroke="midnightblue" points="900.59,-723.63 909.91,-718.58 899.48,-716.72 900.59,-723.63"/>
</g>
<!-- Node6 -->
<g id="node6" class="node">
<title>Node6</title>
<g id="a_node6"><a xlink:href="namespaceprecice_1_1detail.html#adede399b4b92eea01face616a0cc7051" target="_top" xlink:title=" ">
<polygon fill="white" stroke="black" points="1446,-268.57 1446,-287.57 1559,-287.57 1559,-268.57 1446,-268.57"/>
<text text-anchor="middle" x="1502.5" y="-275.57" font-family="Helvetica,sans-Serif" font-size="10.00">precice::detail::data</text>
</a>
</g>
</g>
<!-- Node3&#45;&gt;Node6 -->
<g id="edge7" class="edge">
<title>Node3&#45;&gt;Node6</title>
<path fill="none" stroke="midnightblue" d="M620.78,-769.5C699.62,-777.49 843.36,-790.07 966.5,-790.07 966.5,-790.07 966.5,-790.07 1168.5,-790.07 1297.75,-790.07 1335.13,-733.42 1410,-628.07 1486.24,-520.78 1498.97,-354.61 1501.09,-297.85"/>
<polygon fill="midnightblue" stroke="midnightblue" points="1504.59,-297.83 1501.39,-287.73 1497.59,-297.62 1504.59,-297.83"/>
</g>
<!-- Node4&#45;&gt;Node5 -->
<g id="edge4" class="edge">
<title>Node4&#45;&gt;Node5</title>
<path fill="none" stroke="midnightblue" d="M842.22,-679.9C866.3,-685.55 893.39,-691.91 916.12,-697.25"/>
<polygon fill="midnightblue" stroke="midnightblue" points="915.37,-700.66 925.9,-699.54 916.97,-693.85 915.37,-700.66"/>
</g>
<!-- Node4&#45;&gt;Node6 -->
<g id="edge5" class="edge">
<title>Node4&#45;&gt;Node6</title>
<path fill="none" stroke="midnightblue" d="M842.14,-666.31C984.62,-667.79 1325.32,-663.57 1410,-592.07 1456.36,-552.93 1489.08,-360.33 1498.63,-297.75"/>
<polygon fill="midnightblue" stroke="midnightblue" points="1502.12,-298.05 1500.14,-287.64 1495.2,-297.02 1502.12,-298.05"/>
</g>
<!-- Node7&#45;&gt;Node4 -->
<g id="edge9" class="edge">
<title>Node7&#45;&gt;Node4</title>
<path fill="none" stroke="midnightblue" d="M620.67,-646.93C646.3,-649.91 676.58,-653.42 703.62,-656.56"/>
<polygon fill="midnightblue" stroke="midnightblue" points="703.48,-660.06 713.81,-657.74 704.28,-653.11 703.48,-660.06"/>
</g>
<!-- Node7&#45;&gt;Node5 -->
<g id="edge10" class="edge">
<title>Node7&#45;&gt;Node5</title>
<path fill="none" stroke="midnightblue" d="M620.7,-629.11C679.57,-620.51 771.84,-613.24 848,-635.07 887.11,-646.28 925.84,-674.57 947.9,-692.74"/>
<polygon fill="midnightblue" stroke="midnightblue" points="945.87,-695.6 955.77,-699.38 950.38,-690.26 945.87,-695.6"/>
</g>
<!-- Node7&#45;&gt;Node6 -->
<g id="edge11" class="edge">
<title>Node7&#45;&gt;Node6</title>
<path fill="none" stroke="midnightblue" d="M620.77,-625.22C699.29,-606.88 842.38,-578.07 966.5,-578.07 966.5,-578.07 966.5,-578.07 1168.5,-578.07 1211.46,-578.07 1374.62,-502.37 1410,-467.07 1459.81,-417.36 1486.53,-335.16 1496.66,-297.73"/>
<polygon fill="midnightblue" stroke="midnightblue" points="1500.15,-298.19 1499.27,-287.63 1493.38,-296.43 1500.15,-298.19"/>
</g>
<!-- Node10 -->
<g id="node10" class="node">
<title>Node10</title>
<g id="a_node10"><a xlink:href="classprecice_1_1cplscheme_1_1BaseCouplingScheme.html#a197d3c5ee0b7a593c2f71e0884eb33bf" target="_top" xlink:title="Sets _receivesInitializedData, if receiveData requires initialization.">
<polygon fill="white" stroke="black" points="708,-358.57 708,-399.57 848,-399.57 848,-358.57 708,-358.57"/>
<text text-anchor="start" x="716" y="-387.57" font-family="Helvetica,sans-Serif" font-size="10.00">precice::cplscheme</text>
<text text-anchor="start" x="716" y="-376.57" font-family="Helvetica,sans-Serif" font-size="10.00">::BaseCouplingScheme</text>
<text text-anchor="middle" x="778" y="-365.57" font-family="Helvetica,sans-Serif" font-size="10.00">::determineInitialReceive</text>
</a>
</g>
</g>
<!-- Node9&#45;&gt;Node10 -->
<g id="edge15" class="edge">
<title>Node9&#45;&gt;Node10</title>
<path fill="none" stroke="midnightblue" d="M635.36,-418.5C655.66,-412.85 677.75,-406.7 698.31,-400.98"/>
<polygon fill="midnightblue" stroke="midnightblue" points="699.26,-404.35 707.95,-398.29 697.38,-397.6 699.26,-404.35"/>
</g>
<!-- Node18 -->
<g id="node18" class="node">
<title>Node18</title>
<g id="a_node18"><a xlink:href="classprecice_1_1cplscheme_1_1BaseCouplingScheme.html#a24ea9ccdded53102a8f2b62f6736b012" target="_top" xlink:title="Sets _sendsInitializedData, if sendData requires initialization.">
<polygon fill="white" stroke="black" points="714,-276.57 714,-317.57 842,-317.57 842,-276.57 714,-276.57"/>
<text text-anchor="start" x="722" y="-305.57" font-family="Helvetica,sans-Serif" font-size="10.00">precice::cplscheme</text>
<text text-anchor="start" x="722" y="-294.57" font-family="Helvetica,sans-Serif" font-size="10.00">::BaseCouplingScheme</text>
<text text-anchor="middle" x="778" y="-283.57" font-family="Helvetica,sans-Serif" font-size="10.00">::determineInitialSend</text>
</a>
</g>
</g>
<!-- Node9&#45;&gt;Node18 -->
<g id="edge27" class="edge">
<title>Node9&#45;&gt;Node18</title>
<path fill="none" stroke="midnightblue" d="M592.84,-418.42C630.98,-393.29 695.45,-350.81 737.1,-323.36"/>
<polygon fill="midnightblue" stroke="midnightblue" points="739.2,-326.17 745.63,-317.74 735.35,-320.32 739.2,-326.17"/>
</g>
<!-- Node26 -->
<g id="node26" class="node">
<title>Node26</title>
<g id="a_node26"><a xlink:href="classprecice_1_1cplscheme_1_1BiCouplingScheme.html#ad456365f895091d95de91088195e164b" target="_top" xlink:title="Returns all data to be received.">
<polygon fill="white" stroke="black" points="718,-478.57 718,-519.57 838,-519.57 838,-478.57 718,-478.57"/>
<text text-anchor="start" x="726" y="-507.57" font-family="Helvetica,sans-Serif" font-size="10.00">precice::cplscheme</text>
<text text-anchor="start" x="726" y="-496.57" font-family="Helvetica,sans-Serif" font-size="10.00">::BiCouplingScheme::</text>
<text text-anchor="middle" x="778" y="-485.57" font-family="Helvetica,sans-Serif" font-size="10.00">getReceiveData</text>
</a>
</g>
</g>
<!-- Node9&#45;&gt;Node26 -->
<g id="edge41" class="edge">
<title>Node9&#45;&gt;Node26</title>
<path fill="none" stroke="midnightblue" d="M635.36,-459.63C658.92,-466.19 684.89,-473.42 708.09,-479.88"/>
<polygon fill="midnightblue" stroke="midnightblue" points="707.27,-483.29 717.84,-482.6 709.15,-476.54 707.27,-483.29"/>
</g>
<!-- Node27 -->
<g id="node27" class="node">
<title>Node27</title>
<g id="a_node27"><a xlink:href="classprecice_1_1cplscheme_1_1BiCouplingScheme.html#a53be61eb89bfff98ada4a33c3ba00545" target="_top" xlink:title="Returns all data to be sent.">
<polygon fill="white" stroke="black" points="718,-418.57 718,-459.57 838,-459.57 838,-418.57 718,-418.57"/>
<text text-anchor="start" x="726" y="-447.57" font-family="Helvetica,sans-Serif" font-size="10.00">precice::cplscheme</text>
<text text-anchor="start" x="726" y="-436.57" font-family="Helvetica,sans-Serif" font-size="10.00">::BiCouplingScheme::</text>
<text text-anchor="middle" x="778" y="-425.57" font-family="Helvetica,sans-Serif" font-size="10.00">getSendData</text>
</a>
</g>
</g>
<!-- Node9&#45;&gt;Node27 -->
<g id="edge42" class="edge">
<title>Node9&#45;&gt;Node27</title>
<path fill="none" stroke="midnightblue" d="M643.28,-439.07C664.47,-439.07 687.08,-439.07 707.56,-439.07"/>
<polygon fill="midnightblue" stroke="midnightblue" points="707.75,-442.57 717.75,-439.07 707.75,-435.57 707.75,-442.57"/>
</g>
<!-- Node11 -->
<g id="node11" class="node">
<title>Node11</title>
<g id="a_node11"><a xlink:href="classprecice_1_1cplscheme_1_1BaseCouplingScheme.html#a6c03bf6ae814ea06faf0ed3b2e3b846f" target="_top" xlink:title="Checks whether any CouplingData in dataMap requires initialization.">
<polygon fill="white" stroke="black" points="884,-306.57 884,-347.57 1051,-347.57 1051,-306.57 884,-306.57"/>
<text text-anchor="start" x="892" y="-335.57" font-family="Helvetica,sans-Serif" font-size="10.00">precice::cplscheme</text>
<text text-anchor="start" x="892" y="-324.57" font-family="Helvetica,sans-Serif" font-size="10.00">::BaseCouplingScheme</text>
<text text-anchor="middle" x="967.5" y="-313.57" font-family="Helvetica,sans-Serif" font-size="10.00">::anyDataRequiresInitialization</text>
</a>
</g>
</g>
<!-- Node10&#45;&gt;Node11 -->
<g id="edge16" class="edge">
<title>Node10&#45;&gt;Node11</title>
<path fill="none" stroke="midnightblue" d="M848.02,-359.93C859.28,-356.8 871.05,-353.54 882.61,-350.33"/>
<polygon fill="midnightblue" stroke="midnightblue" points="883.57,-353.7 892.27,-347.66 881.7,-346.96 883.57,-353.7"/>
</g>
<!-- Node12 -->
<g id="node12" class="node">
<title>Node12</title>
<g id="a_node12"><a xlink:href="classprecice_1_1cplscheme_1_1BaseCouplingScheme.html#af690c8d4e0f11e52fc7b9ca1fe098229" target="_top" xlink:title="Receives data receiveDataIDs given in mapCouplingData with communication.">
<polygon fill="white" stroke="black" points="903.5,-380.57 903.5,-421.57 1031.5,-421.57 1031.5,-380.57 903.5,-380.57"/>
<text text-anchor="start" x="911.5" y="-409.57" font-family="Helvetica,sans-Serif" font-size="10.00">precice::cplscheme</text>
<text text-anchor="start" x="911.5" y="-398.57" font-family="Helvetica,sans-Serif" font-size="10.00">::BaseCouplingScheme</text>
<text text-anchor="middle" x="967.5" y="-387.57" font-family="Helvetica,sans-Serif" font-size="10.00">::receiveData</text>
</a>
</g>
</g>
<!-- Node10&#45;&gt;Node12 -->
<g id="edge18" class="edge">
<title>Node10&#45;&gt;Node12</title>
<path fill="none" stroke="midnightblue" d="M848.02,-387.17C862.7,-388.89 878.24,-390.71 893.08,-392.45"/>
<polygon fill="midnightblue" stroke="midnightblue" points="892.88,-395.95 903.22,-393.64 893.69,-389 892.88,-395.95"/>
</g>
<!-- Node11&#45;&gt;Node6 -->
<g id="edge17" class="edge">
<title>Node11&#45;&gt;Node6</title>
<path fill="none" stroke="midnightblue" d="M1025.34,-306.48C1044.65,-300.38 1066.53,-294.44 1087,-291.07 1208.78,-271.02 1353.32,-271.99 1435.54,-274.82"/>
<polygon fill="midnightblue" stroke="midnightblue" points="1435.62,-278.33 1445.74,-275.19 1435.87,-271.33 1435.62,-278.33"/>
</g>
<!-- Node12&#45;&gt;Node6 -->
<g id="edge19" class="edge">
<title>Node12&#45;&gt;Node6</title>
<path fill="none" stroke="midnightblue" d="M981.09,-421.62C999.97,-450.24 1038.64,-500.86 1087,-521.07 1153.02,-548.66 1181.61,-547.75 1248,-521.07 1365.2,-473.97 1458.74,-343.94 1490.15,-296.07"/>
<polygon fill="midnightblue" stroke="midnightblue" points="1493.11,-297.94 1495.59,-287.64 1487.23,-294.14 1493.11,-297.94"/>
</g>
<!-- Node13 -->
<g id="node13" class="node">
<title>Node13</title>
<g id="a_node13"><a xlink:href="classprecice_1_1com_1_1serialize_1_1SerializedStamples.html#a914cc916961f26874b078f45ce01e6f5" target="_top" xlink:title="Create SerializedStamples with allocated buffers according to size of CouplingData.">
<polygon fill="white" stroke="black" points="1090.5,-301.07 1090.5,-331.07 1244.5,-331.07 1244.5,-301.07 1090.5,-301.07"/>
<text text-anchor="start" x="1098.5" y="-319.07" font-family="Helvetica,sans-Serif" font-size="10.00">precice::com::serialize</text>
<text text-anchor="middle" x="1167.5" y="-308.07" font-family="Helvetica,sans-Serif" font-size="10.00">::SerializedStamples::empty</text>
</a>
</g>
</g>
<!-- Node12&#45;&gt;Node13 -->
<g id="edge20" class="edge">
<title>Node12&#45;&gt;Node13</title>
<path fill="none" stroke="midnightblue" d="M1005.13,-380.55C1028.18,-368.14 1058.81,-352.55 1087,-341.07 1092.72,-338.74 1098.73,-336.49 1104.8,-334.37"/>
<polygon fill="midnightblue" stroke="midnightblue" points="1105.98,-337.66 1114.32,-331.13 1103.72,-331.04 1105.98,-337.66"/>
</g>
<!-- Node15 -->
<g id="node15" class="node">
<title>Node15</title>
<g id="a_node15"><a xlink:href="classprecice_1_1cplscheme_1_1BaseCouplingScheme.html#a6c37c619f364581226635cdca7d39e4b" target="_top" xlink:title="getter for _time">
<polygon fill="white" stroke="black" points="1103.5,-470.57 1103.5,-511.57 1231.5,-511.57 1231.5,-470.57 1103.5,-470.57"/>
<text text-anchor="start" x="1111.5" y="-499.57" font-family="Helvetica,sans-Serif" font-size="10.00">precice::cplscheme</text>
<text text-anchor="start" x="1111.5" y="-488.57" font-family="Helvetica,sans-Serif" font-size="10.00">::BaseCouplingScheme</text>
<text text-anchor="middle" x="1167.5" y="-477.57" font-family="Helvetica,sans-Serif" font-size="10.00">::getTime</text>
</a>
</g>
</g>
<!-- Node12&#45;&gt;Node15 -->
<g id="edge24" class="edge">
<title>Node12&#45;&gt;Node15</title>
<path fill="none" stroke="midnightblue" d="M1006.42,-421.59C1029.43,-433.7 1059.56,-448.99 1087,-461.07 1091.33,-462.97 1095.82,-464.87 1100.37,-466.74"/>
<polygon fill="midnightblue" stroke="midnightblue" points="1099.15,-470.02 1109.74,-470.51 1101.77,-463.53 1099.15,-470.02"/>
</g>
<!-- Node16 -->
<g id="node16" class="node">
<title>Node16</title>
<g id="a_node16"><a xlink:href="classprecice_1_1cplscheme_1_1BaseCouplingScheme.html#a83379ed90469cb7710fff88ff52269ac" target="_top" xlink:title=" ">
<polygon fill="white" stroke="black" points="1087,-410.57 1087,-451.57 1248,-451.57 1248,-410.57 1087,-410.57"/>
<text text-anchor="start" x="1095" y="-439.57" font-family="Helvetica,sans-Serif" font-size="10.00">precice::cplscheme</text>
<text text-anchor="start" x="1095" y="-428.57" font-family="Helvetica,sans-Serif" font-size="10.00">::BaseCouplingScheme</text>
<text text-anchor="middle" x="1167.5" y="-417.57" font-family="Helvetica,sans-Serif" font-size="10.00">::receiveNumberOfTimeSteps</text>
</a>
</g>
</g>
<!-- Node12&#45;&gt;Node16 -->
<g id="edge25" class="edge">
<title>Node12&#45;&gt;Node16</title>
<path fill="none" stroke="midnightblue" d="M1031.69,-410.64C1046.08,-412.82 1061.64,-415.18 1076.9,-417.49"/>
<polygon fill="midnightblue" stroke="midnightblue" points="1076.45,-420.96 1086.86,-419 1077.5,-414.04 1076.45,-420.96"/>
</g>
<!-- Node17 -->
<g id="node17" class="node">
<title>Node17</title>
<g id="a_node17"><a xlink:href="classprecice_1_1cplscheme_1_1BaseCouplingScheme.html#a700bef351e463eb84836538fd91f16b3" target="_top" xlink:title=" ">
<polygon fill="white" stroke="black" points="1103.5,-350.57 1103.5,-391.57 1231.5,-391.57 1231.5,-350.57 1103.5,-350.57"/>
<text text-anchor="start" x="1111.5" y="-379.57" font-family="Helvetica,sans-Serif" font-size="10.00">precice::cplscheme</text>
<text text-anchor="start" x="1111.5" y="-368.57" font-family="Helvetica,sans-Serif" font-size="10.00">::BaseCouplingScheme</text>
<text text-anchor="middle" x="1167.5" y="-357.57" font-family="Helvetica,sans-Serif" font-size="10.00">::receiveTimes</text>
</a>
</g>
</g>
<!-- Node12&#45;&gt;Node17 -->
<g id="edge26" class="edge">
<title>Node12&#45;&gt;Node17</title>
<path fill="none" stroke="midnightblue" d="M1031.69,-391.49C1051.25,-388.53 1072.96,-385.24 1093.15,-382.18"/>
<polygon fill="midnightblue" stroke="midnightblue" points="1093.87,-385.61 1103.23,-380.65 1092.82,-378.69 1093.87,-385.61"/>
</g>
<!-- Node13&#45;&gt;Node6 -->
<g id="edge23" class="edge">
<title>Node13&#45;&gt;Node6</title>
<path fill="none" stroke="midnightblue" d="M1244.75,-309.53C1292.34,-305.19 1354.82,-299.03 1410,-292.07 1418.37,-291.01 1427.15,-289.8 1435.82,-288.54"/>
<polygon fill="midnightblue" stroke="midnightblue" points="1436.54,-291.98 1445.92,-287.05 1435.52,-285.05 1436.54,-291.98"/>
</g>
<!-- Node14 -->
<g id="node14" class="node">
<title>Node14</title>
<g id="a_node14"><a xlink:href="classprecice_1_1com_1_1serialize_1_1SerializedStamples.html#a766834ff07b9fc24a575a98c2fc8c382" target="_top" xlink:title=" ">
<polygon fill="white" stroke="black" points="1284,-208.57 1284,-249.57 1410,-249.57 1410,-208.57 1284,-208.57"/>
<text text-anchor="start" x="1292" y="-237.57" font-family="Helvetica,sans-Serif" font-size="10.00">precice::com::serialize</text>
<text text-anchor="start" x="1292" y="-226.57" font-family="Helvetica,sans-Serif" font-size="10.00">::SerializedStamples::</text>
<text text-anchor="middle" x="1347" y="-215.57" font-family="Helvetica,sans-Serif" font-size="10.00">allocate</text>
</a>
</g>
</g>
<!-- Node13&#45;&gt;Node14 -->
<g id="edge21" class="edge">
<title>Node13&#45;&gt;Node14</title>
<path fill="none" stroke="midnightblue" d="M1199.42,-300.91C1225.7,-288.03 1263.97,-269.27 1294.82,-254.15"/>
<polygon fill="midnightblue" stroke="midnightblue" points="1296.69,-257.13 1304.13,-249.59 1293.61,-250.85 1296.69,-257.13"/>
</g>
<!-- Node14&#45;&gt;Node6 -->
<g id="edge22" class="edge">
<title>Node14&#45;&gt;Node6</title>
<path fill="none" stroke="midnightblue" d="M1410.43,-249C1427.73,-254.52 1446.03,-260.36 1461.65,-265.35"/>
<polygon fill="midnightblue" stroke="midnightblue" points="1460.9,-268.78 1471.49,-268.49 1463.03,-262.11 1460.9,-268.78"/>
</g>
<!-- Node18&#45;&gt;Node11 -->
<g id="edge28" class="edge">
<title>Node18&#45;&gt;Node11</title>
<path fill="none" stroke="midnightblue" d="M842.22,-307.18C852.47,-308.82 863.28,-310.55 874.06,-312.28"/>
<polygon fill="midnightblue" stroke="midnightblue" points="873.51,-315.73 883.93,-313.86 874.61,-308.82 873.51,-315.73"/>
</g>
<!-- Node19 -->
<g id="node19" class="node">
<title>Node19</title>
<g id="a_node19"><a xlink:href="classprecice_1_1cplscheme_1_1BaseCouplingScheme.html#a6447af4bead9f5d1be8a0a88620ddf87" target="_top" xlink:title="Sets an action required to be performed by the accessor.">
<polygon fill="white" stroke="black" points="903.5,-246.57 903.5,-287.57 1031.5,-287.57 1031.5,-246.57 903.5,-246.57"/>
<text text-anchor="start" x="911.5" y="-275.57" font-family="Helvetica,sans-Serif" font-size="10.00">precice::cplscheme</text>
<text text-anchor="start" x="911.5" y="-264.57" font-family="Helvetica,sans-Serif" font-size="10.00">::BaseCouplingScheme</text>
<text text-anchor="middle" x="967.5" y="-253.57" font-family="Helvetica,sans-Serif" font-size="10.00">::requireAction</text>
</a>
</g>
</g>
<!-- Node18&#45;&gt;Node19 -->
<g id="edge29" class="edge">
<title>Node18&#45;&gt;Node19</title>
<path fill="none" stroke="midnightblue" d="M842.22,-286.95C858.51,-284.35 876.17,-281.52 892.94,-278.84"/>
<polygon fill="midnightblue" stroke="midnightblue" points="893.92,-282.23 903.24,-277.19 892.81,-275.31 893.92,-282.23"/>
</g>
<!-- Node20 -->
<g id="node20" class="node">
<title>Node20</title>
<g id="a_node20"><a xlink:href="classprecice_1_1cplscheme_1_1BaseCouplingScheme.html#a3aa71af66bf740fa8d9182b47db7dac3" target="_top" xlink:title="Sends data sendDataIDs given in mapCouplingData with communication.">
<polygon fill="white" stroke="black" points="903.5,-142.57 903.5,-183.57 1031.5,-183.57 1031.5,-142.57 903.5,-142.57"/>
<text text-anchor="start" x="911.5" y="-171.57" font-family="Helvetica,sans-Serif" font-size="10.00">precice::cplscheme</text>
<text text-anchor="start" x="911.5" y="-160.57" font-family="Helvetica,sans-Serif" font-size="10.00">::BaseCouplingScheme</text>
<text text-anchor="middle" x="967.5" y="-149.57" font-family="Helvetica,sans-Serif" font-size="10.00">::sendData</text>
</a>
</g>
</g>
<!-- Node18&#45;&gt;Node20 -->
<g id="edge30" class="edge">
<title>Node18&#45;&gt;Node20</title>
<path fill="none" stroke="midnightblue" d="M807.89,-276.42C840.51,-253.11 893.67,-215.11 929.36,-189.61"/>
<polygon fill="midnightblue" stroke="midnightblue" points="931.48,-192.4 937.58,-183.74 927.41,-186.7 931.48,-192.4"/>
</g>
<!-- Node20&#45;&gt;Node6 -->
<g id="edge31" class="edge">
<title>Node20&#45;&gt;Node6</title>
<path fill="none" stroke="midnightblue" d="M989.14,-142.25C1011.3,-121.23 1048.54,-89.57 1087,-73.07 1219.57,-16.19 1291.03,40.53 1410,-41.07 1483.76,-91.66 1498.08,-210.8 1500.84,-258.16"/>
<polygon fill="midnightblue" stroke="midnightblue" points="1497.36,-258.5 1501.32,-268.33 1504.35,-258.18 1497.36,-258.5"/>
</g>
<!-- Node21 -->
<g id="node21" class="node">
<title>Node21</title>
<g id="a_node21"><a xlink:href="classprecice_1_1cplscheme_1_1BaseCouplingScheme.html#aab81f5f3857872a22d82f871248d4371" target="_top" xlink:title=" ">
<polygon fill="white" stroke="black" points="1093.5,-202.57 1093.5,-243.57 1241.5,-243.57 1241.5,-202.57 1093.5,-202.57"/>
<text text-anchor="start" x="1101.5" y="-231.57" font-family="Helvetica,sans-Serif" font-size="10.00">precice::cplscheme</text>
<text text-anchor="start" x="1101.5" y="-220.57" font-family="Helvetica,sans-Serif" font-size="10.00">::BaseCouplingScheme</text>
<text text-anchor="middle" x="1167.5" y="-209.57" font-family="Helvetica,sans-Serif" font-size="10.00">::sendNumberOfTimeSteps</text>
</a>
</g>
</g>
<!-- Node20&#45;&gt;Node21 -->
<g id="edge32" class="edge">
<title>Node20&#45;&gt;Node21</title>
<path fill="none" stroke="midnightblue" d="M1031.69,-182.22C1049.91,-187.74 1069.99,-193.82 1088.97,-199.57"/>
<polygon fill="midnightblue" stroke="midnightblue" points="1088.19,-203 1098.78,-202.55 1090.22,-196.3 1088.19,-203"/>
</g>
<!-- Node22 -->
<g id="node22" class="node">
<title>Node22</title>
<g id="a_node22"><a xlink:href="classprecice_1_1cplscheme_1_1BaseCouplingScheme.html#ad50465f4541de9580e627400d7e39f4f" target="_top" xlink:title=" ">
<polygon fill="white" stroke="black" points="1103.5,-142.57 1103.5,-183.57 1231.5,-183.57 1231.5,-142.57 1103.5,-142.57"/>
<text text-anchor="start" x="1111.5" y="-171.57" font-family="Helvetica,sans-Serif" font-size="10.00">precice::cplscheme</text>
<text text-anchor="start" x="1111.5" y="-160.57" font-family="Helvetica,sans-Serif" font-size="10.00">::BaseCouplingScheme</text>
<text text-anchor="middle" x="1167.5" y="-149.57" font-family="Helvetica,sans-Serif" font-size="10.00">::sendTimes</text>
</a>
</g>
</g>
<!-- Node20&#45;&gt;Node22 -->
<g id="edge33" class="edge">
<title>Node20&#45;&gt;Node22</title>
<path fill="none" stroke="midnightblue" d="M1031.69,-163.07C1051.25,-163.07 1072.96,-163.07 1093.15,-163.07"/>
<polygon fill="midnightblue" stroke="midnightblue" points="1093.23,-166.57 1103.23,-163.07 1093.23,-159.57 1093.23,-166.57"/>
</g>
<!-- Node23 -->
<g id="node23" class="node">
<title>Node23</title>
<g id="a_node23"><a xlink:href="classprecice_1_1com_1_1serialize_1_1SerializedStamples.html#acefbea8c1c6ff8ca9f647ebf37348513" target="_top" xlink:title="Serializes a given CouplingData into SerializedStamples.">
<polygon fill="white" stroke="black" points="1104.5,-82.57 1104.5,-123.57 1230.5,-123.57 1230.5,-82.57 1104.5,-82.57"/>
<text text-anchor="start" x="1112.5" y="-111.57" font-family="Helvetica,sans-Serif" font-size="10.00">precice::com::serialize</text>
<text text-anchor="start" x="1112.5" y="-100.57" font-family="Helvetica,sans-Serif" font-size="10.00">::SerializedStamples::</text>
<text text-anchor="middle" x="1167.5" y="-89.57" font-family="Helvetica,sans-Serif" font-size="10.00">serialize</text>
</a>
</g>
</g>
<!-- Node20&#45;&gt;Node23 -->
<g id="edge34" class="edge">
<title>Node20&#45;&gt;Node23</title>
<path fill="none" stroke="midnightblue" d="M1031.69,-143.92C1051.72,-137.85 1074.01,-131.1 1094.6,-124.85"/>
<polygon fill="midnightblue" stroke="midnightblue" points="1095.69,-128.18 1104.25,-121.93 1093.66,-121.48 1095.69,-128.18"/>
</g>
<!-- Node23&#45;&gt;Node6 -->
<g id="edge36" class="edge">
<title>Node23&#45;&gt;Node6</title>
<path fill="none" stroke="midnightblue" d="M1228.85,-123.63C1235.45,-126.52 1241.95,-129.68 1248,-133.07 1265.68,-142.98 1265.99,-151.76 1284,-161.07 1335.96,-187.92 1358.74,-170.89 1410,-199.07 1439.98,-215.55 1468.89,-243.08 1485.93,-260.9"/>
<polygon fill="midnightblue" stroke="midnightblue" points="1483.49,-263.42 1492.88,-268.33 1488.6,-258.64 1483.49,-263.42"/>
</g>
<!-- Node23&#45;&gt;Node14 -->
<g id="edge35" class="edge">
<title>Node23&#45;&gt;Node14</title>
<path fill="none" stroke="midnightblue" d="M1230.74,-121.69C1236.91,-124.93 1242.81,-128.7 1248,-133.07 1272.09,-153.33 1261.53,-172.02 1284,-194.07 1287.16,-197.17 1290.66,-200.09 1294.32,-202.82"/>
<polygon fill="midnightblue" stroke="midnightblue" points="1292.35,-205.71 1302.57,-208.48 1296.31,-199.93 1292.35,-205.71"/>
</g>
<!-- Node24 -->
<g id="node24" class="node">
<title>Node24</title>
<g id="a_node24"><a xlink:href="classprecice_1_1com_1_1serialize_1_1SerializedStamples.html#aa94dbbe6f68c1dc4f14fb132df8ab796" target="_top" xlink:title="Serialize gradients from timeStepsStorage of data into _gradients.">
<polygon fill="white" stroke="black" points="1284,-110.57 1284,-151.57 1410,-151.57 1410,-110.57 1284,-110.57"/>
<text text-anchor="start" x="1292" y="-139.57" font-family="Helvetica,sans-Serif" font-size="10.00">precice::com::serialize</text>
<text text-anchor="start" x="1292" y="-128.57" font-family="Helvetica,sans-Serif" font-size="10.00">::SerializedStamples::</text>
<text text-anchor="middle" x="1347" y="-117.57" font-family="Helvetica,sans-Serif" font-size="10.00">serializeGradients</text>
</a>
</g>
</g>
<!-- Node23&#45;&gt;Node24 -->
<g id="edge37" class="edge">
<title>Node23&#45;&gt;Node24</title>
<path fill="none" stroke="midnightblue" d="M1230.58,-112.86C1244.5,-115.06 1259.38,-117.4 1273.67,-119.66"/>
<polygon fill="midnightblue" stroke="midnightblue" points="1273.53,-123.18 1283.95,-121.28 1274.62,-116.27 1273.53,-123.18"/>
</g>
<!-- Node25 -->
<g id="node25" class="node">
<title>Node25</title>
<g id="a_node25"><a xlink:href="classprecice_1_1com_1_1serialize_1_1SerializedStamples.html#a51596e529ca6050a18852bf5172df2e6" target="_top" xlink:title="Serialize values from timeStepsStorage of data into _values.">
<polygon fill="white" stroke="black" points="1284,-50.57 1284,-91.57 1410,-91.57 1410,-50.57 1284,-50.57"/>
<text text-anchor="start" x="1292" y="-79.57" font-family="Helvetica,sans-Serif" font-size="10.00">precice::com::serialize</text>
<text text-anchor="start" x="1292" y="-68.57" font-family="Helvetica,sans-Serif" font-size="10.00">::SerializedStamples::</text>
<text text-anchor="middle" x="1347" y="-57.57" font-family="Helvetica,sans-Serif" font-size="10.00">serializeValues</text>
</a>
</g>
</g>
<!-- Node23&#45;&gt;Node25 -->
<g id="edge39" class="edge">
<title>Node23&#45;&gt;Node25</title>
<path fill="none" stroke="midnightblue" d="M1230.58,-91.88C1244.63,-89.34 1259.67,-86.63 1274.09,-84.03"/>
<polygon fill="midnightblue" stroke="midnightblue" points="1274.73,-87.47 1283.95,-82.25 1273.49,-80.58 1274.73,-87.47"/>
</g>
<!-- Node24&#45;&gt;Node6 -->
<g id="edge38" class="edge">
<title>Node24&#45;&gt;Node6</title>
<path fill="none" stroke="midnightblue" d="M1389.45,-151.61C1396.62,-155.94 1403.76,-160.81 1410,-166.07 1443.57,-194.34 1473.96,-236.22 1489.86,-259.94"/>
<polygon fill="midnightblue" stroke="midnightblue" points="1486.97,-261.93 1495.39,-268.36 1492.82,-258.08 1486.97,-261.93"/>
</g>
<!-- Node25&#45;&gt;Node6 -->
<g id="edge40" class="edge">
<title>Node25&#45;&gt;Node6</title>
<path fill="none" stroke="midnightblue" d="M1398.31,-91.77C1402.51,-94.55 1406.49,-97.65 1410,-101.07 1457.39,-147.22 1485.03,-223.18 1495.99,-258.67"/>
<polygon fill="midnightblue" stroke="midnightblue" points="1492.65,-259.72 1498.86,-268.3 1499.36,-257.72 1492.65,-259.72"/>
</g>
</g>
</svg>
