<?xml version="1.0" encoding="UTF-8" standalone="no"?>
<!DOCTYPE svg PUBLIC "-//W3C//DTD SVG 1.1//EN"
 "http://www.w3.org/Graphics/SVG/1.1/DTD/svg11.dtd">
<!-- Generated by graphviz version 2.43.0 (0)
 -->
<!-- Title: precice::mesh::Data::sampleAtTime Pages: 1 -->
<svg width="776pt" height="253pt"
 viewBox="0.00 0.00 776.00 253.00" xmlns="http://www.w3.org/2000/svg" xmlns:xlink="http://www.w3.org/1999/xlink">
<g id="graph0" class="graph" transform="scale(1 1) rotate(0) translate(4 249)">
<title>precice::mesh::Data::sampleAtTime</title>
<!-- Node1 -->
<g id="Node000001" class="node">
<title>Node1</title>
<g id="a_Node000001"><a xlink:title="Samples _waveform at given time.">
<polygon fill="#999999" stroke="#666666" points="114,-137 0,-137 0,-107 114,-107 114,-137"/>
<text text-anchor="start" x="8" y="-125" font-family="Helvetica,sans-Serif" font-size="10.00">precice::mesh::Data</text>
<text text-anchor="middle" x="57" y="-114" font-family="Helvetica,sans-Serif" font-size="10.00">::sampleAtTime</text>
</a>
</g>
</g>
<!-- Node2 -->
<g id="Node000002" class="node">
<title>Node2</title>
<g id="a_Node000002"><a xlink:href="classprecice_1_1time_1_1Waveform.html#ad64553184b9bc8950238c5a67ad95bec" target="_top" xlink:title="Evaluate waveform at specific point in time. Uses interpolation if necessary.">
<polygon fill="white" stroke="#666666" points="287,-137 150,-137 150,-107 287,-107 287,-137"/>
<text text-anchor="start" x="158" y="-125" font-family="Helvetica,sans-Serif" font-size="10.00">precice::time::Waveform</text>
<text text-anchor="middle" x="218.5" y="-114" font-family="Helvetica,sans-Serif" font-size="10.00">::sample</text>
</a>
</g>
</g>
<!-- Node1&#45;&gt;Node2 -->
<g id="edge1_Node000001_Node000002" class="edge">
<title>Node1&#45;&gt;Node2</title>
<g id="a_edge1_Node000001_Node000002"><a xlink:title=" ">
<path fill="none" stroke="#63b8ff" d="M114.23,-122C122.49,-122 131.11,-122 139.7,-122"/>
<polygon fill="#63b8ff" stroke="#63b8ff" points="139.74,-125.5 149.74,-122 139.74,-118.5 139.74,-125.5"/>
</a>
</g>
</g>
<!-- Node3 -->
<g id="Node000003" class="node">
<title>Node3</title>
<g id="a_Node000003"><a xlink:href="classprecice_1_1time_1_1Storage.html#a12aaa50a8e9c3f3c401999d5228b733d" target="_top" xlink:title="Need to use interpolation for the case with changing time grids.">
<polygon fill="white" stroke="#666666" points="447,-137 323,-137 323,-107 447,-107 447,-137"/>
<text text-anchor="start" x="331" y="-125" font-family="Helvetica,sans-Serif" font-size="10.00">precice::time::Storage</text>
<text text-anchor="middle" x="385" y="-114" font-family="Helvetica,sans-Serif" font-size="10.00">::sample</text>
</a>
</g>
</g>
<!-- Node2&#45;&gt;Node3 -->
<g id="edge2_Node000002_Node000003" class="edge">
<title>Node2&#45;&gt;Node3</title>
<g id="a_edge2_Node000002_Node000003"><a xlink:title=" ">
<path fill="none" stroke="#63b8ff" d="M287.36,-122C295.73,-122 304.3,-122 312.72,-122"/>
<polygon fill="#63b8ff" stroke="#63b8ff" points="312.88,-125.5 322.88,-122 312.88,-118.5 312.88,-125.5"/>
</a>
</g>
</g>
<!-- Node4 -->
<g id="Node000004" class="node">
<title>Node4</title>
<g id="a_Node000004"><a xlink:href="classprecice_1_1time_1_1Storage.html#a9237f11d36d0c3d2bf425150ee9007ab" target="_top" xlink:title="Computes which degree may be used for interpolation.">
<polygon fill="white" stroke="#666666" points="608,-245 483,-245 483,-215 608,-215 608,-245"/>
<text text-anchor="start" x="491" y="-233" font-family="Helvetica,sans-Serif" font-size="10.00">precice::time::Storage</text>
<text text-anchor="middle" x="545.5" y="-222" font-family="Helvetica,sans-Serif" font-size="10.00">::computeUsedDegree</text>
</a>
</g>
</g>
<!-- Node3&#45;&gt;Node4 -->
<g id="edge3_Node000003_Node000004" class="edge">
<title>Node3&#45;&gt;Node4</title>
<g id="a_edge3_Node000003_Node000004"><a xlink:title=" ">
<path fill="none" stroke="#63b8ff" d="M400.19,-137.12C418.06,-155.45 450.38,-186.32 483,-206 485.61,-207.58 488.35,-209.09 491.16,-210.52"/>
<polygon fill="#63b8ff" stroke="#63b8ff" points="489.75,-213.73 500.28,-214.87 492.76,-207.41 489.75,-213.73"/>
</a>
</g>
</g>
<!-- Node6 -->
<g id="Node000006" class="node">
<title>Node6</title>
<g id="a_Node000006"><a xlink:href="namespaceprecice_1_1math.html#a0e86802cfe992deba131d789d035b5b7" target="_top" xlink:title="Compares two Eigen::MatrixBase for equality up to tolerance.">
<polygon fill="white" stroke="#666666" points="606.5,-196.5 484.5,-196.5 484.5,-177.5 606.5,-177.5 606.5,-196.5"/>
<text text-anchor="middle" x="545.5" y="-184.5" font-family="Helvetica,sans-Serif" font-size="10.00">precice::math::equals</text>
</a>
</g>
</g>
<!-- Node3&#45;&gt;Node6 -->
<g id="edge5_Node000003_Node000006" class="edge">
<title>Node3&#45;&gt;Node6</title>
<g id="a_edge5_Node000003_Node000006"><a xlink:title=" ">
<path fill="none" stroke="#63b8ff" d="M415.24,-137.21C434.24,-146.76 459.73,-158.94 483,-168 488.6,-170.18 494.57,-172.29 500.5,-174.25"/>
<polygon fill="#63b8ff" stroke="#63b8ff" points="499.77,-177.69 510.37,-177.41 501.91,-171.02 499.77,-177.69"/>
</a>
</g>
</g>
<!-- Node7 -->
<g id="Node000007" class="node">
<title>Node7</title>
<g id="a_Node000007"><a xlink:href="classprecice_1_1time_1_1Storage.html#a928377dfd80e9c6c25a6a30a351c5917" target="_top" xlink:title="Returns the Sample at time following &quot;before&quot; contained in this Storage.">
<polygon fill="white" stroke="#666666" points="607.5,-159 483.5,-159 483.5,-129 607.5,-129 607.5,-159"/>
<text text-anchor="start" x="491.5" y="-147" font-family="Helvetica,sans-Serif" font-size="10.00">precice::time::Storage</text>
<text text-anchor="middle" x="545.5" y="-136" font-family="Helvetica,sans-Serif" font-size="10.00">::getSampleAtOrAfter</text>
</a>
</g>
</g>
<!-- Node3&#45;&gt;Node7 -->
<g id="edge6_Node000003_Node000007" class="edge">
<title>Node3&#45;&gt;Node7</title>
<g id="a_edge6_Node000003_Node000007"><a xlink:title=" ">
<path fill="none" stroke="#63b8ff" d="M447.28,-130.51C455.8,-131.69 464.6,-132.91 473.28,-134.11"/>
<polygon fill="#63b8ff" stroke="#63b8ff" points="473,-137.61 483.38,-135.52 473.96,-130.68 473,-137.61"/>
</a>
</g>
</g>
<!-- Node9 -->
<g id="Node000009" class="node">
<title>Node9</title>
<g id="a_Node000009"><a xlink:href="classprecice_1_1time_1_1Storage.html#ac6b8883c787b328e1a4114d4457c0b30" target="_top" xlink:title="Number of stored times.">
<polygon fill="white" stroke="#666666" points="768,-116 644,-116 644,-86 768,-86 768,-116"/>
<text text-anchor="start" x="652" y="-104" font-family="Helvetica,sans-Serif" font-size="10.00">precice::time::Storage</text>
<text text-anchor="middle" x="706" y="-93" font-family="Helvetica,sans-Serif" font-size="10.00">::nTimes</text>
</a>
</g>
</g>
<!-- Node3&#45;&gt;Node9 -->
<g id="edge14_Node000003_Node000009" class="edge">
<title>Node3&#45;&gt;Node9</title>
<g id="a_edge14_Node000003_Node000009"><a xlink:title=" ">
<path fill="none" stroke="#63b8ff" d="M447.13,-117.98C500.35,-114.47 577.55,-109.39 633.6,-105.7"/>
<polygon fill="#63b8ff" stroke="#63b8ff" points="634.06,-109.18 643.81,-105.03 633.6,-102.19 634.06,-109.18"/>
</a>
</g>
</g>
<!-- Node10 -->
<g id="Node000010" class="node">
<title>Node10</title>
<g id="a_Node000010"><a xlink:href="classprecice_1_1time_1_1Storage.html#a7699b242d48c467606c27cacbf1f6492" target="_top" xlink:title="Get all normalized dts and values in ascending order (with respect to normalized dts)">
<polygon fill="white" stroke="#666666" points="607.5,-73 483.5,-73 483.5,-43 607.5,-43 607.5,-73"/>
<text text-anchor="start" x="491.5" y="-61" font-family="Helvetica,sans-Serif" font-size="10.00">precice::time::Storage</text>
<text text-anchor="middle" x="545.5" y="-50" font-family="Helvetica,sans-Serif" font-size="10.00">::getTimesAndValues</text>
</a>
</g>
</g>
<!-- Node3&#45;&gt;Node10 -->
<g id="edge9_Node000003_Node000010" class="edge">
<title>Node3&#45;&gt;Node10</title>
<g id="a_edge9_Node000003_Node000010"><a xlink:title=" ">
<path fill="none" stroke="#63b8ff" d="M423.16,-106.99C445.44,-98 473.96,-86.48 497.76,-76.87"/>
<polygon fill="#63b8ff" stroke="#63b8ff" points="499.34,-80.01 507.3,-73.02 496.71,-73.52 499.34,-80.01"/>
</a>
</g>
</g>
<!-- Node13 -->
<g id="Node000013" class="node">
<title>Node13</title>
<g id="a_Node000013"><a xlink:href="namespaceprecice_1_1math.html#ab5fc218ddab783ccd97f7c14fc4ccab3" target="_top" xlink:title=" ">
<polygon fill="white" stroke="#666666" points="608,-24.5 483,-24.5 483,-5.5 608,-5.5 608,-24.5"/>
<text text-anchor="middle" x="545.5" y="-12.5" font-family="Helvetica,sans-Serif" font-size="10.00">precice::math::greater</text>
</a>
</g>
</g>
<!-- Node3&#45;&gt;Node13 -->
<g id="edge13_Node000003_Node000013" class="edge">
<title>Node3&#45;&gt;Node13</title>
<g id="a_edge13_Node000003_Node000013"><a xlink:title=" ">
<path fill="none" stroke="#63b8ff" d="M398.9,-106.73C416.17,-87.21 448.63,-53.6 483,-34 486.71,-31.88 490.69,-29.97 494.77,-28.26"/>
<polygon fill="#63b8ff" stroke="#63b8ff" points="496.29,-31.43 504.39,-24.6 493.8,-24.88 496.29,-31.43"/>
</a>
</g>
</g>
<!-- Node5 -->
<g id="Node000005" class="node">
<title>Node5</title>
<g id="a_Node000005"><a target="_parent" xlink:href="http://en.cppreference.com/w/cpp/algorithm/min.html#" xlink:title=" ">
<polygon fill="white" stroke="#666666" points="734,-239.5 678,-239.5 678,-220.5 734,-220.5 734,-239.5"/>
<text text-anchor="middle" x="706" y="-227.5" font-family="Helvetica,sans-Serif" font-size="10.00">std::min</text>
</a>
</g>
</g>
<!-- Node4&#45;&gt;Node5 -->
<g id="edge4_Node000004_Node000005" class="edge">
<title>Node4&#45;&gt;Node5</title>
<g id="a_edge4_Node000004_Node000005"><a xlink:title=" ">
<path fill="none" stroke="#63b8ff" d="M608.23,-230C628.25,-230 649.82,-230 667.52,-230"/>
<polygon fill="#63b8ff" stroke="#63b8ff" points="667.98,-233.5 677.98,-230 667.98,-226.5 667.98,-233.5"/>
</a>
</g>
</g>
<!-- Node8 -->
<g id="Node000008" class="node">
<title>Node8</title>
<g id="a_Node000008"><a target="_parent" xlink:href="http://en.cppreference.com/w/cpp/algorithm/find.html#" xlink:title=" ">
<polygon fill="white" stroke="#666666" points="740,-153.5 672,-153.5 672,-134.5 740,-134.5 740,-153.5"/>
<text text-anchor="middle" x="706" y="-141.5" font-family="Helvetica,sans-Serif" font-size="10.00">std::find_if</text>
</a>
</g>
</g>
<!-- Node7&#45;&gt;Node8 -->
<g id="edge7_Node000007_Node000008" class="edge">
<title>Node7&#45;&gt;Node8</title>
<g id="a_edge7_Node000007_Node000008"><a xlink:title=" ">
<path fill="none" stroke="#63b8ff" d="M607.78,-144C625.65,-144 644.8,-144 661.34,-144"/>
<polygon fill="#63b8ff" stroke="#63b8ff" points="661.79,-147.5 671.79,-144 661.79,-140.5 661.79,-147.5"/>
</a>
</g>
</g>
<!-- Node7&#45;&gt;Node9 -->
<g id="edge8_Node000007_Node000009" class="edge">
<title>Node7&#45;&gt;Node9</title>
<g id="a_edge8_Node000007_Node000009"><a xlink:title=" ">
<path fill="none" stroke="#63b8ff" d="M601.94,-128.96C614.12,-125.65 627.14,-122.12 639.67,-118.72"/>
<polygon fill="#63b8ff" stroke="#63b8ff" points="640.86,-122.03 649.6,-116.03 639.03,-115.27 640.86,-122.03"/>
</a>
</g>
</g>
<!-- Node10&#45;&gt;Node9 -->
<g id="edge12_Node000010_Node000009" class="edge">
<title>Node10&#45;&gt;Node9</title>
<g id="a_edge12_Node000010_Node000009"><a xlink:title=" ">
<path fill="none" stroke="#63b8ff" d="M601.94,-73.04C614.12,-76.35 627.14,-79.88 639.67,-83.28"/>
<polygon fill="#63b8ff" stroke="#63b8ff" points="639.03,-86.73 649.6,-85.97 640.86,-79.97 639.03,-86.73"/>
</a>
</g>
</g>
<!-- Node11 -->
<g id="Node000011" class="node">
<title>Node11</title>
<g id="a_Node000011"><a target="_parent" xlink:href="http://en.cppreference.com/w/cpp/utility/pair/make_pair.html#" xlink:title=" ">
<polygon fill="white" stroke="#666666" points="750.5,-67.5 661.5,-67.5 661.5,-48.5 750.5,-48.5 750.5,-67.5"/>
<text text-anchor="middle" x="706" y="-55.5" font-family="Helvetica,sans-Serif" font-size="10.00">std::make_pair</text>
</a>
</g>
</g>
<!-- Node10&#45;&gt;Node11 -->
<g id="edge10_Node000010_Node000011" class="edge">
<title>Node10&#45;&gt;Node11</title>
<g id="a_edge10_Node000010_Node000011"><a xlink:title=" ">
<path fill="none" stroke="#63b8ff" d="M607.78,-58C621.94,-58 636.91,-58 650.75,-58"/>
<polygon fill="#63b8ff" stroke="#63b8ff" points="651.08,-61.5 661.08,-58 651.08,-54.5 651.08,-61.5"/>
</a>
</g>
</g>
<!-- Node12 -->
<g id="Node000012" class="node">
<title>Node12</title>
<g id="a_Node000012"><a xlink:href="classprecice_1_1time_1_1Storage.html#a5314dff98a3b6c92ef7bf48be027fa4d" target="_top" xlink:title="Number of Dofs for each values.">
<polygon fill="white" stroke="#666666" points="768,-30 644,-30 644,0 768,0 768,-30"/>
<text text-anchor="start" x="652" y="-18" font-family="Helvetica,sans-Serif" font-size="10.00">precice::time::Storage</text>
<text text-anchor="middle" x="706" y="-7" font-family="Helvetica,sans-Serif" font-size="10.00">::nDofs</text>
</a>
</g>
</g>
<!-- Node10&#45;&gt;Node12 -->
<g id="edge11_Node000010_Node000012" class="edge">
<title>Node10&#45;&gt;Node12</title>
<g id="a_edge11_Node000010_Node000012"><a xlink:title=" ">
<path fill="none" stroke="#63b8ff" d="M601.94,-42.96C614.12,-39.65 627.14,-36.12 639.67,-32.72"/>
<polygon fill="#63b8ff" stroke="#63b8ff" points="640.86,-36.03 649.6,-30.03 639.03,-29.27 640.86,-36.03"/>
</a>
</g>
</g>
</g>
</svg>
