<?xml version="1.0" encoding="UTF-8" standalone="no"?>
<!DOCTYPE svg PUBLIC "-//W3C//DTD SVG 1.1//EN"
 "http://www.w3.org/Graphics/SVG/1.1/DTD/svg11.dtd">
<!-- Generated by graphviz version 2.43.0 (0)
 -->
<!-- Title: precice::cplscheme::MultiCouplingScheme::exchangeInitialData Pages: 1 -->
<!--zoomable 600 -->
<svg id="main" version="1.1" xmlns="http://www.w3.org/2000/svg" xmlns:xlink="http://www.w3.org/1999/xlink" xml:space="preserve" onload="init(evt)">
<style type="text/css"><![CDATA[
.edge:hover path { stroke: red; }
.edge:hover polygon { stroke: red; fill: red; }
]]></style>
<script type="text/javascript"><![CDATA[
var edges = document.getElementsByTagName('g');
if (edges && edges.length) {
  for (var i=0;i<edges.length;i++) {
    if (edges[i].id.substr(0,4)=='edge') {
      edges[i].setAttribute('class','edge');
    }
  }
}
]]></script>
        <defs>
                <circle id="rim" cx="0" cy="0" r="7"/>
                <circle id="rim2" cx="0" cy="0" r="3.5"/>
                <g id="zoomPlus">
                        <use xlink:href="#rim" fill="#404040">
                                <set attributeName="fill" to="#808080" begin="zoomplus.mouseover" end="zoomplus.mouseout"/>
                        </use>
                        <path d="M-4,0h8M0,-4v8" fill="none" stroke="white" stroke-width="1.5" pointer-events="none"/>
                </g>
                <g id="zoomMin">
                        <use xlink:href="#rim" fill="#404040">
                                <set attributeName="fill" to="#808080" begin="zoomminus.mouseover" end="zoomminus.mouseout"/>
                        </use>
                        <path d="M-4,0h8" fill="none" stroke="white" stroke-width="1.5" pointer-events="none"/>
                </g>
                <g id="dirArrow">
                        <path fill="none" stroke="white" stroke-width="1.5" d="M0,-3.0v7 M-2.5,-0.5L0,-3.0L2.5,-0.5"/>
                </g>
               <g id="resetDef">
                       <use xlink:href="#rim2" fill="#404040">
                               <set attributeName="fill" to="#808080" begin="reset.mouseover" end="reset.mouseout"/>
                       </use>
               </g>
        </defs>

<script type="text/javascript">
var viewWidth = 1083;
var viewHeight = 600;
var sectionId = 'dynsection-7';
</script>
<script xlink:href="svgpan.js"/>
<svg id="graph" class="graph">
<g id="viewport">
<title>precice::cplscheme::MultiCouplingScheme::exchangeInitialData</title>
<polygon fill="white" stroke="transparent" points="-4,4 -4,-596 1079,-596 1079,4 -4,4"/>
<!-- Node1 -->
<g id="node1" class="node">
<title>Node1</title>
<g id="a_node1"><a xlink:title="implements functionality for initialize in base class.">
<polygon fill="#bfbfbf" stroke="black" points="0,-313.5 0,-354.5 129,-354.5 129,-313.5 0,-313.5"/>
<text text-anchor="start" x="8" y="-342.5" font-family="Helvetica,sans-Serif" font-size="10.00">precice::cplscheme</text>
<text text-anchor="start" x="8" y="-331.5" font-family="Helvetica,sans-Serif" font-size="10.00">::MultiCouplingScheme</text>
<text text-anchor="middle" x="64.5" y="-320.5" font-family="Helvetica,sans-Serif" font-size="10.00">::exchangeInitialData</text>
</a>
</g>
</g>
<!-- Node2 -->
<g id="node2" class="node">
<title>Node2</title>
<g id="a_node2"><a xlink:href="classprecice_1_1cplscheme_1_1BaseCouplingScheme.html#a0b8be6a29082c8115db22aad3e0aa624" target="_top" xlink:title="Initializes storage in receiveData as zero.">
<polygon fill="white" stroke="black" points="165.5,-486.5 165.5,-527.5 326.5,-527.5 326.5,-486.5 165.5,-486.5"/>
<text text-anchor="start" x="173.5" y="-515.5" font-family="Helvetica,sans-Serif" font-size="10.00">precice::cplscheme</text>
<text text-anchor="start" x="173.5" y="-504.5" font-family="Helvetica,sans-Serif" font-size="10.00">::BaseCouplingScheme</text>
<text text-anchor="middle" x="246" y="-493.5" font-family="Helvetica,sans-Serif" font-size="10.00">::initializeWithZeroInitialData</text>
</a>
</g>
</g>
<!-- Node1&#45;&gt;Node2 -->
<g id="edge1" class="edge">
<title>Node1&#45;&gt;Node2</title>
<path fill="none" stroke="midnightblue" d="M79.18,-354.92C96.87,-380.93 129.63,-425.69 165,-457 174.77,-465.65 186.21,-473.76 197.34,-480.83"/>
<polygon fill="midnightblue" stroke="midnightblue" points="195.8,-484 206.15,-486.27 199.48,-478.04 195.8,-484"/>
</g>
<!-- Node7 -->
<g id="node7" class="node">
<title>Node7</title>
<g id="a_node7"><a xlink:href="classprecice_1_1cplscheme_1_1BaseCouplingScheme.html#af690c8d4e0f11e52fc7b9ca1fe098229" target="_top" xlink:title="Receives data receiveDataIDs given in mapCouplingData with communication.">
<polygon fill="white" stroke="black" points="363,-422.5 363,-463.5 491,-463.5 491,-422.5 363,-422.5"/>
<text text-anchor="start" x="371" y="-451.5" font-family="Helvetica,sans-Serif" font-size="10.00">precice::cplscheme</text>
<text text-anchor="start" x="371" y="-440.5" font-family="Helvetica,sans-Serif" font-size="10.00">::BaseCouplingScheme</text>
<text text-anchor="middle" x="427" y="-429.5" font-family="Helvetica,sans-Serif" font-size="10.00">::receiveData</text>
</a>
</g>
</g>
<!-- Node1&#45;&gt;Node7 -->
<g id="edge17" class="edge">
<title>Node1&#45;&gt;Node7</title>
<path fill="none" stroke="midnightblue" d="M81.21,-354.7C98.92,-376.27 129.88,-408.98 165,-424 224.56,-449.46 298.72,-452.46 352.76,-450.11"/>
<polygon fill="midnightblue" stroke="midnightblue" points="353.13,-453.6 362.94,-449.6 352.78,-446.61 353.13,-453.6"/>
</g>
<!-- Node12 -->
<g id="node12" class="node">
<title>Node12</title>
<g id="a_node12"><a xlink:href="classprecice_1_1cplscheme_1_1BaseCouplingScheme.html#a4dcb97e3ef79b1cca6af577f9cbbec19" target="_top" xlink:title="Function to determine whether coupling scheme is an implicit coupling scheme.">
<polygon fill="white" stroke="black" points="171.5,-373.5 171.5,-414.5 320.5,-414.5 320.5,-373.5 171.5,-373.5"/>
<text text-anchor="start" x="179.5" y="-402.5" font-family="Helvetica,sans-Serif" font-size="10.00">precice::cplscheme</text>
<text text-anchor="start" x="179.5" y="-391.5" font-family="Helvetica,sans-Serif" font-size="10.00">::BaseCouplingScheme</text>
<text text-anchor="middle" x="246" y="-380.5" font-family="Helvetica,sans-Serif" font-size="10.00">::isImplicitCouplingScheme</text>
</a>
</g>
</g>
<!-- Node1&#45;&gt;Node12 -->
<g id="edge15" class="edge">
<title>Node1&#45;&gt;Node12</title>
<path fill="none" stroke="midnightblue" d="M127.02,-354.56C142.15,-359.62 158.47,-365.08 174,-370.27"/>
<polygon fill="midnightblue" stroke="midnightblue" points="172.96,-373.61 183.56,-373.46 175.18,-366.97 172.96,-373.61"/>
</g>
<!-- Node13 -->
<g id="node13" class="node">
<title>Node13</title>
<g id="a_node13"><a xlink:href="classprecice_1_1cplscheme_1_1BaseCouplingScheme.html#a3153d22622f9abe534cef5fb0fb299dc" target="_top" xlink:title="Used to set flag after data has been received using receiveData().">
<polygon fill="white" stroke="black" points="165,-313.5 165,-354.5 327,-354.5 327,-313.5 165,-313.5"/>
<text text-anchor="start" x="173" y="-342.5" font-family="Helvetica,sans-Serif" font-size="10.00">precice::cplscheme</text>
<text text-anchor="start" x="173" y="-331.5" font-family="Helvetica,sans-Serif" font-size="10.00">::BaseCouplingScheme</text>
<text text-anchor="middle" x="246" y="-320.5" font-family="Helvetica,sans-Serif" font-size="10.00">::notifyDataHasBeenReceived</text>
</a>
</g>
</g>
<!-- Node1&#45;&gt;Node13 -->
<g id="edge16" class="edge">
<title>Node1&#45;&gt;Node13</title>
<path fill="none" stroke="midnightblue" d="M129.04,-334C137.37,-334 146.04,-334 154.71,-334"/>
<polygon fill="midnightblue" stroke="midnightblue" points="154.88,-337.5 164.88,-334 154.88,-330.5 154.88,-337.5"/>
</g>
<!-- Node14 -->
<g id="node14" class="node">
<title>Node14</title>
<g id="a_node14"><a xlink:href="classprecice_1_1cplscheme_1_1BaseCouplingScheme.html#aa1f5c8d5137b3d36fd19137195bee952" target="_top" xlink:title="Getter for _receivesInitializedData.">
<polygon fill="white" stroke="black" points="178.5,-253.5 178.5,-294.5 313.5,-294.5 313.5,-253.5 178.5,-253.5"/>
<text text-anchor="start" x="186.5" y="-282.5" font-family="Helvetica,sans-Serif" font-size="10.00">precice::cplscheme</text>
<text text-anchor="start" x="186.5" y="-271.5" font-family="Helvetica,sans-Serif" font-size="10.00">::BaseCouplingScheme</text>
<text text-anchor="middle" x="246" y="-260.5" font-family="Helvetica,sans-Serif" font-size="10.00">::receivesInitializedData</text>
</a>
</g>
</g>
<!-- Node1&#45;&gt;Node14 -->
<g id="edge18" class="edge">
<title>Node1&#45;&gt;Node14</title>
<path fill="none" stroke="midnightblue" d="M127.02,-313.44C142.15,-308.38 158.47,-302.92 174,-297.73"/>
<polygon fill="midnightblue" stroke="midnightblue" points="175.18,-301.03 183.56,-294.54 172.96,-294.39 175.18,-301.03"/>
</g>
<!-- Node15 -->
<g id="node15" class="node">
<title>Node15</title>
<g id="a_node15"><a xlink:href="classprecice_1_1cplscheme_1_1BaseCouplingScheme.html#a3aa71af66bf740fa8d9182b47db7dac3" target="_top" xlink:title="Sends data sendDataIDs given in mapCouplingData with communication.">
<polygon fill="white" stroke="black" points="363,-158.5 363,-199.5 491,-199.5 491,-158.5 363,-158.5"/>
<text text-anchor="start" x="371" y="-187.5" font-family="Helvetica,sans-Serif" font-size="10.00">precice::cplscheme</text>
<text text-anchor="start" x="371" y="-176.5" font-family="Helvetica,sans-Serif" font-size="10.00">::BaseCouplingScheme</text>
<text text-anchor="middle" x="427" y="-165.5" font-family="Helvetica,sans-Serif" font-size="10.00">::sendData</text>
</a>
</g>
</g>
<!-- Node1&#45;&gt;Node15 -->
<g id="edge19" class="edge">
<title>Node1&#45;&gt;Node15</title>
<path fill="none" stroke="midnightblue" d="M82.72,-313.21C100.99,-292.52 131.79,-261.41 165,-244 230.5,-209.66 255.31,-224.18 327,-206 335.47,-203.85 344.33,-201.54 353.11,-199.2"/>
<polygon fill="midnightblue" stroke="midnightblue" points="354.23,-202.52 362.98,-196.55 352.41,-195.76 354.23,-202.52"/>
</g>
<!-- Node21 -->
<g id="node21" class="node">
<title>Node21</title>
<g id="a_node21"><a xlink:href="classprecice_1_1cplscheme_1_1BaseCouplingScheme.html#a451d5b7ad0672e0a2a4eea89eda25e1d" target="_top" xlink:title="Getter for _sendsInitializedData.">
<polygon fill="white" stroke="black" points="182,-155.5 182,-196.5 310,-196.5 310,-155.5 182,-155.5"/>
<text text-anchor="start" x="190" y="-184.5" font-family="Helvetica,sans-Serif" font-size="10.00">precice::cplscheme</text>
<text text-anchor="start" x="190" y="-173.5" font-family="Helvetica,sans-Serif" font-size="10.00">::BaseCouplingScheme</text>
<text text-anchor="middle" x="246" y="-162.5" font-family="Helvetica,sans-Serif" font-size="10.00">::sendsInitializedData</text>
</a>
</g>
</g>
<!-- Node1&#45;&gt;Node21 -->
<g id="edge30" class="edge">
<title>Node1&#45;&gt;Node21</title>
<path fill="none" stroke="midnightblue" d="M77.89,-313.15C94.69,-286.39 127,-239.98 165,-211 169.45,-207.61 174.27,-204.47 179.27,-201.58"/>
<polygon fill="midnightblue" stroke="midnightblue" points="181.28,-204.47 188.42,-196.64 177.96,-198.31 181.28,-204.47"/>
</g>
<!-- Node3 -->
<g id="node3" class="node">
<title>Node3</title>
<g id="a_node3"><a xlink:href="namespaceprecice_1_1detail.html#adede399b4b92eea01face616a0cc7051" target="_top" xlink:title=" ">
<polygon fill="white" stroke="black" points="932,-243.5 932,-262.5 1045,-262.5 1045,-243.5 932,-243.5"/>
<text text-anchor="middle" x="988.5" y="-250.5" font-family="Helvetica,sans-Serif" font-size="10.00">precice::detail::data</text>
</a>
</g>
</g>
<!-- Node2&#45;&gt;Node3 -->
<g id="edge2" class="edge">
<title>Node2&#45;&gt;Node3</title>
<path fill="none" stroke="midnightblue" d="M326.64,-521.68C417.16,-534.92 567.91,-546.34 688,-503 820.85,-455.06 935.99,-319.35 974.12,-270.66"/>
<polygon fill="midnightblue" stroke="midnightblue" points="976.99,-272.68 980.34,-262.62 971.45,-268.39 976.99,-272.68"/>
</g>
<!-- Node4 -->
<g id="node4" class="node">
<title>Node4</title>
<g id="a_node4"><a xlink:href="classprecice_1_1cplscheme_1_1BaseCouplingScheme.html#a6c37c619f364581226635cdca7d39e4b" target="_top" xlink:title="getter for _time">
<polygon fill="white" stroke="black" points="543.5,-550.5 543.5,-591.5 671.5,-591.5 671.5,-550.5 543.5,-550.5"/>
<text text-anchor="start" x="551.5" y="-579.5" font-family="Helvetica,sans-Serif" font-size="10.00">precice::cplscheme</text>
<text text-anchor="start" x="551.5" y="-568.5" font-family="Helvetica,sans-Serif" font-size="10.00">::BaseCouplingScheme</text>
<text text-anchor="middle" x="607.5" y="-557.5" font-family="Helvetica,sans-Serif" font-size="10.00">::getTime</text>
</a>
</g>
</g>
<!-- Node2&#45;&gt;Node4 -->
<g id="edge3" class="edge">
<title>Node2&#45;&gt;Node4</title>
<path fill="none" stroke="midnightblue" d="M324.44,-527.52C337.27,-530.59 350.47,-533.54 363,-536 419.83,-547.16 484.78,-556.32 533.3,-562.46"/>
<polygon fill="midnightblue" stroke="midnightblue" points="533.03,-565.96 543.39,-563.73 533.9,-559.01 533.03,-565.96"/>
</g>
<!-- Node2&#45;&gt;Node7 -->
<g id="edge6" class="edge">
<title>Node2&#45;&gt;Node7</title>
<path fill="none" stroke="midnightblue" d="M304.62,-486.4C321.87,-480.23 340.93,-473.42 358.74,-467.05"/>
<polygon fill="midnightblue" stroke="midnightblue" points="360.25,-470.23 368.49,-463.56 357.89,-463.63 360.25,-470.23"/>
</g>
<!-- Node5 -->
<g id="node5" class="node">
<title>Node5</title>
<g id="a_node5"><a xlink:href="classprecice_1_1cplscheme_1_1impl_1_1TimeHandler.html#a98a5365f35f80c2956df85a624ca3c21" target="_top" xlink:title="Returns the current time as a double.">
<polygon fill="white" stroke="black" points="724,-556 724,-586 866,-586 866,-556 724,-556"/>
<text text-anchor="start" x="732" y="-574" font-family="Helvetica,sans-Serif" font-size="10.00">precice::cplscheme</text>
<text text-anchor="middle" x="795" y="-563" font-family="Helvetica,sans-Serif" font-size="10.00">::impl::TimeHandler::time</text>
</a>
</g>
</g>
<!-- Node4&#45;&gt;Node5 -->
<g id="edge4" class="edge">
<title>Node4&#45;&gt;Node5</title>
<path fill="none" stroke="midnightblue" d="M671.56,-571C685.08,-571 699.55,-571 713.62,-571"/>
<polygon fill="midnightblue" stroke="midnightblue" points="713.79,-574.5 723.79,-571 713.79,-567.5 713.79,-574.5"/>
</g>
<!-- Node6 -->
<g id="node6" class="node">
<title>Node6</title>
<g id="a_node6"><a xlink:href="classprecice_1_1utils_1_1DoubleAggregator.html#a75e88fc5da9f5fe87f992460f2422e9e" target="_top" xlink:title="Retrieves the corrected sum.">
<polygon fill="white" stroke="black" points="902,-556 902,-586 1075,-586 1075,-556 902,-556"/>
<text text-anchor="start" x="910" y="-574" font-family="Helvetica,sans-Serif" font-size="10.00">precice::utils::DoubleAggregator</text>
<text text-anchor="middle" x="988.5" y="-563" font-family="Helvetica,sans-Serif" font-size="10.00">::value</text>
</a>
</g>
</g>
<!-- Node5&#45;&gt;Node6 -->
<g id="edge5" class="edge">
<title>Node5&#45;&gt;Node6</title>
<path fill="none" stroke="midnightblue" d="M866.22,-571C874.58,-571 883.23,-571 891.87,-571"/>
<polygon fill="midnightblue" stroke="midnightblue" points="892,-574.5 902,-571 892,-567.5 892,-574.5"/>
</g>
<!-- Node7&#45;&gt;Node3 -->
<g id="edge7" class="edge">
<title>Node7&#45;&gt;Node3</title>
<path fill="none" stroke="midnightblue" d="M455.52,-422.28C474.6,-408.96 501.14,-392.44 527,-383 670.25,-330.71 723.28,-383.72 866,-330 905.17,-315.26 945.13,-286.82 968.05,-268.93"/>
<polygon fill="midnightblue" stroke="midnightblue" points="970.31,-271.61 975.97,-262.65 965.96,-266.12 970.31,-271.61"/>
</g>
<!-- Node7&#45;&gt;Node4 -->
<g id="edge12" class="edge">
<title>Node7&#45;&gt;Node4</title>
<path fill="none" stroke="midnightblue" d="M456.68,-463.57C487.39,-485.59 536.21,-520.59 569.72,-544.63"/>
<polygon fill="midnightblue" stroke="midnightblue" points="567.73,-547.5 577.89,-550.49 571.81,-541.81 567.73,-547.5"/>
</g>
<!-- Node8 -->
<g id="node8" class="node">
<title>Node8</title>
<g id="a_node8"><a xlink:href="classprecice_1_1com_1_1serialize_1_1SerializedStamples.html#a914cc916961f26874b078f45ce01e6f5" target="_top" xlink:title="Create SerializedStamples with allocated buffers according to size of CouplingData.">
<polygon fill="white" stroke="black" points="530.5,-305 530.5,-335 684.5,-335 684.5,-305 530.5,-305"/>
<text text-anchor="start" x="538.5" y="-323" font-family="Helvetica,sans-Serif" font-size="10.00">precice::com::serialize</text>
<text text-anchor="middle" x="607.5" y="-312" font-family="Helvetica,sans-Serif" font-size="10.00">::SerializedStamples::empty</text>
</a>
</g>
</g>
<!-- Node7&#45;&gt;Node8 -->
<g id="edge8" class="edge">
<title>Node7&#45;&gt;Node8</title>
<path fill="none" stroke="midnightblue" d="M445.47,-422.38C463.93,-401.69 494.78,-370.09 527,-350 533.6,-345.88 540.86,-342.19 548.22,-338.92"/>
<polygon fill="midnightblue" stroke="midnightblue" points="549.68,-342.1 557.55,-335.01 546.98,-335.65 549.68,-342.1"/>
</g>
<!-- Node10 -->
<g id="node10" class="node">
<title>Node10</title>
<g id="a_node10"><a xlink:href="classprecice_1_1cplscheme_1_1BaseCouplingScheme.html#a83379ed90469cb7710fff88ff52269ac" target="_top" xlink:title=" ">
<polygon fill="white" stroke="black" points="527,-452.5 527,-493.5 688,-493.5 688,-452.5 527,-452.5"/>
<text text-anchor="start" x="535" y="-481.5" font-family="Helvetica,sans-Serif" font-size="10.00">precice::cplscheme</text>
<text text-anchor="start" x="535" y="-470.5" font-family="Helvetica,sans-Serif" font-size="10.00">::BaseCouplingScheme</text>
<text text-anchor="middle" x="607.5" y="-459.5" font-family="Helvetica,sans-Serif" font-size="10.00">::receiveNumberOfTimeSteps</text>
</a>
</g>
</g>
<!-- Node7&#45;&gt;Node10 -->
<g id="edge13" class="edge">
<title>Node7&#45;&gt;Node10</title>
<path fill="none" stroke="midnightblue" d="M491.18,-453.62C499.47,-455.01 508.09,-456.46 516.72,-457.91"/>
<polygon fill="midnightblue" stroke="midnightblue" points="516.38,-461.4 526.83,-459.61 517.54,-454.5 516.38,-461.4"/>
</g>
<!-- Node11 -->
<g id="node11" class="node">
<title>Node11</title>
<g id="a_node11"><a xlink:href="classprecice_1_1cplscheme_1_1BaseCouplingScheme.html#a700bef351e463eb84836538fd91f16b3" target="_top" xlink:title=" ">
<polygon fill="white" stroke="black" points="543.5,-392.5 543.5,-433.5 671.5,-433.5 671.5,-392.5 543.5,-392.5"/>
<text text-anchor="start" x="551.5" y="-421.5" font-family="Helvetica,sans-Serif" font-size="10.00">precice::cplscheme</text>
<text text-anchor="start" x="551.5" y="-410.5" font-family="Helvetica,sans-Serif" font-size="10.00">::BaseCouplingScheme</text>
<text text-anchor="middle" x="607.5" y="-399.5" font-family="Helvetica,sans-Serif" font-size="10.00">::receiveTimes</text>
</a>
</g>
</g>
<!-- Node7&#45;&gt;Node11 -->
<g id="edge14" class="edge">
<title>Node7&#45;&gt;Node11</title>
<path fill="none" stroke="midnightblue" d="M491.18,-432.38C504.82,-430.09 519.35,-427.65 533.34,-425.3"/>
<polygon fill="midnightblue" stroke="midnightblue" points="534.12,-428.71 543.4,-423.6 532.96,-421.81 534.12,-428.71"/>
</g>
<!-- Node8&#45;&gt;Node3 -->
<g id="edge11" class="edge">
<title>Node8&#45;&gt;Node3</title>
<path fill="none" stroke="midnightblue" d="M684.74,-323.41C736.55,-323.97 806.24,-321.27 866,-307 901.08,-298.62 938.61,-280.36 962.52,-267.39"/>
<polygon fill="midnightblue" stroke="midnightblue" points="964.23,-270.45 971.28,-262.54 960.84,-264.32 964.23,-270.45"/>
</g>
<!-- Node9 -->
<g id="node9" class="node">
<title>Node9</title>
<g id="a_node9"><a xlink:href="classprecice_1_1com_1_1serialize_1_1SerializedStamples.html#a766834ff07b9fc24a575a98c2fc8c382" target="_top" xlink:title=" ">
<polygon fill="white" stroke="black" points="732,-256.5 732,-297.5 858,-297.5 858,-256.5 732,-256.5"/>
<text text-anchor="start" x="740" y="-285.5" font-family="Helvetica,sans-Serif" font-size="10.00">precice::com::serialize</text>
<text text-anchor="start" x="740" y="-274.5" font-family="Helvetica,sans-Serif" font-size="10.00">::SerializedStamples::</text>
<text text-anchor="middle" x="795" y="-263.5" font-family="Helvetica,sans-Serif" font-size="10.00">allocate</text>
</a>
</g>
</g>
<!-- Node8&#45;&gt;Node9 -->
<g id="edge9" class="edge">
<title>Node8&#45;&gt;Node9</title>
<path fill="none" stroke="midnightblue" d="M673.38,-304.96C689.13,-301.31 706.05,-297.39 722.1,-293.67"/>
<polygon fill="midnightblue" stroke="midnightblue" points="723.01,-297.05 731.97,-291.38 721.43,-290.23 723.01,-297.05"/>
</g>
<!-- Node9&#45;&gt;Node3 -->
<g id="edge10" class="edge">
<title>Node9&#45;&gt;Node3</title>
<path fill="none" stroke="midnightblue" d="M858.17,-269.21C878.54,-266.66 901.23,-263.81 921.84,-261.23"/>
<polygon fill="midnightblue" stroke="midnightblue" points="922.29,-264.7 931.78,-259.98 921.42,-257.75 922.29,-264.7"/>
</g>
<!-- Node15&#45;&gt;Node3 -->
<g id="edge20" class="edge">
<title>Node15&#45;&gt;Node3</title>
<path fill="none" stroke="midnightblue" d="M460.95,-158.44C536.58,-114.08 726.82,-18.9 866,-89 927.06,-119.76 965.1,-197.32 980.13,-233.65"/>
<polygon fill="midnightblue" stroke="midnightblue" points="976.96,-235.14 983.91,-243.13 983.46,-232.54 976.96,-235.14"/>
</g>
<!-- Node16 -->
<g id="node16" class="node">
<title>Node16</title>
<g id="a_node16"><a xlink:href="classprecice_1_1cplscheme_1_1BaseCouplingScheme.html#aab81f5f3857872a22d82f871248d4371" target="_top" xlink:title=" ">
<polygon fill="white" stroke="black" points="533.5,-0.5 533.5,-41.5 681.5,-41.5 681.5,-0.5 533.5,-0.5"/>
<text text-anchor="start" x="541.5" y="-29.5" font-family="Helvetica,sans-Serif" font-size="10.00">precice::cplscheme</text>
<text text-anchor="start" x="541.5" y="-18.5" font-family="Helvetica,sans-Serif" font-size="10.00">::BaseCouplingScheme</text>
<text text-anchor="middle" x="607.5" y="-7.5" font-family="Helvetica,sans-Serif" font-size="10.00">::sendNumberOfTimeSteps</text>
</a>
</g>
</g>
<!-- Node15&#45;&gt;Node16 -->
<g id="edge21" class="edge">
<title>Node15&#45;&gt;Node16</title>
<path fill="none" stroke="midnightblue" d="M440.31,-158.16C457.01,-131.41 489.14,-85.01 527,-56 531.41,-52.62 536.21,-49.48 541.17,-46.6"/>
<polygon fill="midnightblue" stroke="midnightblue" points="543.15,-49.51 550.27,-41.66 539.81,-43.35 543.15,-49.51"/>
</g>
<!-- Node17 -->
<g id="node17" class="node">
<title>Node17</title>
<g id="a_node17"><a xlink:href="classprecice_1_1cplscheme_1_1BaseCouplingScheme.html#ad50465f4541de9580e627400d7e39f4f" target="_top" xlink:title=" ">
<polygon fill="white" stroke="black" points="543.5,-218.5 543.5,-259.5 671.5,-259.5 671.5,-218.5 543.5,-218.5"/>
<text text-anchor="start" x="551.5" y="-247.5" font-family="Helvetica,sans-Serif" font-size="10.00">precice::cplscheme</text>
<text text-anchor="start" x="551.5" y="-236.5" font-family="Helvetica,sans-Serif" font-size="10.00">::BaseCouplingScheme</text>
<text text-anchor="middle" x="607.5" y="-225.5" font-family="Helvetica,sans-Serif" font-size="10.00">::sendTimes</text>
</a>
</g>
</g>
<!-- Node15&#45;&gt;Node17 -->
<g id="edge22" class="edge">
<title>Node15&#45;&gt;Node17</title>
<path fill="none" stroke="midnightblue" d="M489.43,-199.65C504.24,-204.63 520.18,-209.99 535.39,-215.1"/>
<polygon fill="midnightblue" stroke="midnightblue" points="534.67,-218.55 545.26,-218.42 536.9,-211.91 534.67,-218.55"/>
</g>
<!-- Node18 -->
<g id="node18" class="node">
<title>Node18</title>
<g id="a_node18"><a xlink:href="classprecice_1_1com_1_1serialize_1_1SerializedStamples.html#acefbea8c1c6ff8ca9f647ebf37348513" target="_top" xlink:title="Serializes a given CouplingData into SerializedStamples.">
<polygon fill="white" stroke="black" points="544.5,-158.5 544.5,-199.5 670.5,-199.5 670.5,-158.5 544.5,-158.5"/>
<text text-anchor="start" x="552.5" y="-187.5" font-family="Helvetica,sans-Serif" font-size="10.00">precice::com::serialize</text>
<text text-anchor="start" x="552.5" y="-176.5" font-family="Helvetica,sans-Serif" font-size="10.00">::SerializedStamples::</text>
<text text-anchor="middle" x="607.5" y="-165.5" font-family="Helvetica,sans-Serif" font-size="10.00">serialize</text>
</a>
</g>
</g>
<!-- Node15&#45;&gt;Node18 -->
<g id="edge23" class="edge">
<title>Node15&#45;&gt;Node18</title>
<path fill="none" stroke="midnightblue" d="M491.18,-179C505.06,-179 519.87,-179 534.08,-179"/>
<polygon fill="midnightblue" stroke="midnightblue" points="534.3,-182.5 544.3,-179 534.3,-175.5 534.3,-182.5"/>
</g>
<!-- Node18&#45;&gt;Node3 -->
<g id="edge25" class="edge">
<title>Node18&#45;&gt;Node3</title>
<path fill="none" stroke="midnightblue" d="M670.6,-196.21C687.82,-200.69 706.57,-205.29 724,-209 791.01,-223.27 868.43,-235.72 921.93,-243.7"/>
<polygon fill="midnightblue" stroke="midnightblue" points="921.56,-247.19 931.97,-245.19 922.59,-240.26 921.56,-247.19"/>
</g>
<!-- Node18&#45;&gt;Node9 -->
<g id="edge24" class="edge">
<title>Node18&#45;&gt;Node9</title>
<path fill="none" stroke="midnightblue" d="M670.39,-199.65C676.49,-202.48 682.47,-205.6 688,-209 706.49,-220.37 706.12,-229.69 724,-242 728.8,-245.31 733.96,-248.49 739.23,-251.49"/>
<polygon fill="midnightblue" stroke="midnightblue" points="737.69,-254.64 748.14,-256.38 741.05,-248.5 737.69,-254.64"/>
</g>
<!-- Node19 -->
<g id="node19" class="node">
<title>Node19</title>
<g id="a_node19"><a xlink:href="classprecice_1_1com_1_1serialize_1_1SerializedStamples.html#aa94dbbe6f68c1dc4f14fb132df8ab796" target="_top" xlink:title="Serialize gradients from timeStepsStorage of data into _gradients.">
<polygon fill="white" stroke="black" points="732,-158.5 732,-199.5 858,-199.5 858,-158.5 732,-158.5"/>
<text text-anchor="start" x="740" y="-187.5" font-family="Helvetica,sans-Serif" font-size="10.00">precice::com::serialize</text>
<text text-anchor="start" x="740" y="-176.5" font-family="Helvetica,sans-Serif" font-size="10.00">::SerializedStamples::</text>
<text text-anchor="middle" x="795" y="-165.5" font-family="Helvetica,sans-Serif" font-size="10.00">serializeGradients</text>
</a>
</g>
</g>
<!-- Node18&#45;&gt;Node19 -->
<g id="edge26" class="edge">
<title>Node18&#45;&gt;Node19</title>
<path fill="none" stroke="midnightblue" d="M670.53,-179C686.84,-179 704.58,-179 721.39,-179"/>
<polygon fill="midnightblue" stroke="midnightblue" points="721.72,-182.5 731.72,-179 721.72,-175.5 721.72,-182.5"/>
</g>
<!-- Node20 -->
<g id="node20" class="node">
<title>Node20</title>
<g id="a_node20"><a xlink:href="classprecice_1_1com_1_1serialize_1_1SerializedStamples.html#a51596e529ca6050a18852bf5172df2e6" target="_top" xlink:title="Serialize values from timeStepsStorage of data into _values.">
<polygon fill="white" stroke="black" points="732,-98.5 732,-139.5 858,-139.5 858,-98.5 732,-98.5"/>
<text text-anchor="start" x="740" y="-127.5" font-family="Helvetica,sans-Serif" font-size="10.00">precice::com::serialize</text>
<text text-anchor="start" x="740" y="-116.5" font-family="Helvetica,sans-Serif" font-size="10.00">::SerializedStamples::</text>
<text text-anchor="middle" x="795" y="-105.5" font-family="Helvetica,sans-Serif" font-size="10.00">serializeValues</text>
</a>
</g>
</g>
<!-- Node18&#45;&gt;Node20 -->
<g id="edge28" class="edge">
<title>Node18&#45;&gt;Node20</title>
<path fill="none" stroke="midnightblue" d="M670.53,-158.94C686.99,-153.61 704.91,-147.82 721.86,-142.33"/>
<polygon fill="midnightblue" stroke="midnightblue" points="723.28,-145.55 731.72,-139.15 721.12,-138.89 723.28,-145.55"/>
</g>
<!-- Node19&#45;&gt;Node3 -->
<g id="edge27" class="edge">
<title>Node19&#45;&gt;Node3</title>
<path fill="none" stroke="midnightblue" d="M849.09,-199.51C882.36,-212.37 924.27,-228.56 953.2,-239.75"/>
<polygon fill="midnightblue" stroke="midnightblue" points="952.27,-243.14 962.86,-243.48 954.8,-236.61 952.27,-243.14"/>
</g>
<!-- Node20&#45;&gt;Node3 -->
<g id="edge29" class="edge">
<title>Node20&#45;&gt;Node3</title>
<path fill="none" stroke="midnightblue" d="M848.87,-139.59C854.78,-142.5 860.61,-145.65 866,-149 907.16,-174.6 948.68,-213.64 970.93,-235.89"/>
<polygon fill="midnightblue" stroke="midnightblue" points="968.7,-238.62 978.22,-243.28 973.69,-233.7 968.7,-238.62"/>
</g>
</g>
</svg>
        <g id="navigator" transform="translate(0 0)" fill="#404254">
                <rect fill="#f2f5e9" fill-opacity="0.5" stroke="#606060" stroke-width=".5" x="0" y="0" width="60" height="60"/>
                <use id="zoomplus" xlink:href="#zoomPlus" x="17" y="9" onmousedown="handleZoom(evt,'in')"/>
                <use id="zoomminus" xlink:href="#zoomMin" x="42" y="9" onmousedown="handleZoom(evt,'out')"/>
                <use id="reset" xlink:href="#resetDef" x="30" y="36" onmousedown="handleReset()"/>
                <g id="arrowUp" xlink:href="#dirArrow" transform="translate(30 24)" onmousedown="handlePan(0,-1)">
                  <use xlink:href="#rim" fill="#404040">
                        <set attributeName="fill" to="#808080" begin="arrowUp.mouseover" end="arrowUp.mouseout"/>
                  </use>
                  <path fill="none" stroke="white" stroke-width="1.5" d="M0,-3.0v7 M-2.5,-0.5L0,-3.0L2.5,-0.5"/>
                </g>
                <g id="arrowRight" xlink:href="#dirArrow" transform="rotate(90) translate(36 -43)" onmousedown="handlePan(1,0)">
                  <use xlink:href="#rim" fill="#404040">
                        <set attributeName="fill" to="#808080" begin="arrowRight.mouseover" end="arrowRight.mouseout"/>
                  </use>
                  <path fill="none" stroke="white" stroke-width="1.5" d="M0,-3.0v7 M-2.5,-0.5L0,-3.0L2.5,-0.5"/>
                </g>
                <g id="arrowDown" xlink:href="#dirArrow" transform="rotate(180) translate(-30 -48)" onmousedown="handlePan(0,1)">
                  <use xlink:href="#rim" fill="#404040">
                        <set attributeName="fill" to="#808080" begin="arrowDown.mouseover" end="arrowDown.mouseout"/>
                  </use>
                  <path fill="none" stroke="white" stroke-width="1.5" d="M0,-3.0v7 M-2.5,-0.5L0,-3.0L2.5,-0.5"/>
                </g>
                <g id="arrowLeft" xlink:href="#dirArrow" transform="rotate(270) translate(-36 17)" onmousedown="handlePan(-1,0)">
                  <use xlink:href="#rim" fill="#404040">
                        <set attributeName="fill" to="#808080" begin="arrowLeft.mouseover" end="arrowLeft.mouseout"/>
                  </use>
                  <path fill="none" stroke="white" stroke-width="1.5" d="M0,-3.0v7 M-2.5,-0.5L0,-3.0L2.5,-0.5"/>
                </g>
        </g>
        <svg viewBox="0 0 15 15" width="100%" height="30px" preserveAspectRatio="xMaxYMin meet">
         <g id="arrow_out" transform="scale(0.3 0.3)">
          <a xlink:href="classprecice_1_1cplscheme_1_1MultiCouplingScheme_a8bc87877c81774d7308d210276fc779e_cgraph_org.svg" target="_base">
           <rect id="button" ry="5" rx="5" y="6" x="6" height="38" width="38"
                fill="#f2f5e9" fill-opacity="0.5" stroke="#606060" stroke-width="1.0"/>
           <path id="arrow"
             d="M 11.500037,31.436501 C 11.940474,20.09759 22.043105,11.32322 32.158766,21.979434 L 37.068811,17.246167 C 37.068811,17.246167 37.088388,32 37.088388,32 L 22.160133,31.978069 C 22.160133,31.978069 26.997745,27.140456 26.997745,27.140456 C 18.528582,18.264221 13.291696,25.230495 11.500037,31.436501 z"
             style="fill:#404040;"/>
          </a>
         </g>
        </svg>
</svg>
