<?xml version="1.0" encoding="UTF-8" standalone="no"?>
<!DOCTYPE svg PUBLIC "-//W3C//DTD SVG 1.1//EN"
 "http://www.w3.org/Graphics/SVG/1.1/DTD/svg11.dtd">
<!-- Generated by graphviz version 2.43.0 (0)
 -->
<!-- Title: precice::io::ExportXML Pages: 1 -->
<svg width="422pt" height="352pt"
 viewBox="0.00 0.00 422.00 352.00" xmlns="http://www.w3.org/2000/svg" xmlns:xlink="http://www.w3.org/1999/xlink">
<g id="graph0" class="graph" transform="scale(1 1) rotate(0) translate(4 348)">
<title>precice::io::ExportXML</title>
<polygon fill="white" stroke="transparent" points="-4,4 -4,-348 418,-348 418,4 -4,4"/>
<!-- Node1 -->
<g id="node1" class="node">
<title>Node1</title>
<g id="a_node1"><a xlink:title="Common class to generate the VTK XML&#45;based formats.">
<polygon fill="#bfbfbf" stroke="black" points="126.5,-0.5 126.5,-19.5 251.5,-19.5 251.5,-0.5 126.5,-0.5"/>
<text text-anchor="middle" x="189" y="-7.5" font-family="Helvetica,sans-Serif" font-size="10.00">precice::io::ExportXML</text>
</a>
</g>
</g>
<!-- Node2 -->
<g id="node2" class="node">
<title>Node2</title>
<g id="a_node2"><a xlink:href="classprecice_1_1io_1_1Export.html" target="_top" xlink:title="Abstract base class of all classes exporting container data structures.">
<polygon fill="white" stroke="black" points="0,-78.5 0,-97.5 104,-97.5 104,-78.5 0,-78.5"/>
<text text-anchor="middle" x="52" y="-85.5" font-family="Helvetica,sans-Serif" font-size="10.00">precice::io::Export</text>
</a>
</g>
</g>
<!-- Node2&#45;&gt;Node1 -->
<g id="edge1" class="edge">
<title>Node2&#45;&gt;Node1</title>
<path fill="none" stroke="midnightblue" d="M76.24,-73.55C104.29,-57.99 149.66,-32.82 173.4,-19.66"/>
<polygon fill="midnightblue" stroke="midnightblue" points="74.5,-70.52 67.45,-78.43 77.89,-76.64 74.5,-70.52"/>
</g>
<!-- Node3 -->
<g id="node3" class="node">
<title>Node3</title>
<g id="a_node3"><a xlink:href="classprecice_1_1logging_1_1Logger.html" target="_top" xlink:title="This class provides a lightweight logger.">
<polygon fill="white" stroke="black" points="122.5,-78.5 122.5,-97.5 255.5,-97.5 255.5,-78.5 122.5,-78.5"/>
<text text-anchor="middle" x="189" y="-85.5" font-family="Helvetica,sans-Serif" font-size="10.00">precice::logging::Logger</text>
</a>
</g>
</g>
<!-- Node3&#45;&gt;Node1 -->
<g id="edge2" class="edge">
<title>Node3&#45;&gt;Node1</title>
<path fill="none" stroke="#9a32cd" stroke-dasharray="5,2" d="M189,-68.22C189,-52.7 189,-31.36 189,-19.62"/>
<polygon fill="#9a32cd" stroke="#9a32cd" points="185.5,-68.28 189,-78.28 192.5,-68.28 185.5,-68.28"/>
<text text-anchor="middle" x="201" y="-46.5" font-family="Helvetica,sans-Serif" font-size="10.00"> _log</text>
</g>
<!-- Node4 -->
<g id="node4" class="node">
<title>Node4</title>
<g id="a_node4"><a xlink:title=" ">
<polygon fill="white" stroke="#bfbfbf" points="104,-145.5 104,-175.5 274,-175.5 274,-145.5 104,-145.5"/>
<text text-anchor="start" x="112" y="-163.5" font-family="Helvetica,sans-Serif" font-size="10.00">std::unique_ptr&lt; precice</text>
<text text-anchor="middle" x="189" y="-152.5" font-family="Helvetica,sans-Serif" font-size="10.00">::logging::Logger::LoggerImpl &gt;</text>
</a>
</g>
</g>
<!-- Node4&#45;&gt;Node3 -->
<g id="edge3" class="edge">
<title>Node4&#45;&gt;Node3</title>
<path fill="none" stroke="#9a32cd" stroke-dasharray="5,2" d="M189,-135.09C189,-122.21 189,-107.2 189,-97.89"/>
<polygon fill="#9a32cd" stroke="#9a32cd" points="185.5,-135.23 189,-145.23 192.5,-135.23 185.5,-135.23"/>
<text text-anchor="middle" x="204.5" y="-119" font-family="Helvetica,sans-Serif" font-size="10.00"> _impl</text>
</g>
<!-- Node5 -->
<g id="node5" class="node">
<title>Node5</title>
<g id="a_node5"><a xlink:href="classprecice_1_1logging_1_1Logger_1_1LoggerImpl.html" target="_top" xlink:title=" ">
<polygon fill="white" stroke="black" points="122.5,-223.5 122.5,-253.5 255.5,-253.5 255.5,-223.5 122.5,-223.5"/>
<text text-anchor="start" x="130.5" y="-241.5" font-family="Helvetica,sans-Serif" font-size="10.00">precice::logging::Logger</text>
<text text-anchor="middle" x="189" y="-230.5" font-family="Helvetica,sans-Serif" font-size="10.00">::LoggerImpl</text>
</a>
</g>
</g>
<!-- Node5&#45;&gt;Node4 -->
<g id="edge4" class="edge">
<title>Node5&#45;&gt;Node4</title>
<path fill="none" stroke="#9a32cd" stroke-dasharray="5,2" d="M189,-213.09C189,-200.76 189,-186.22 189,-175.73"/>
<polygon fill="#9a32cd" stroke="#9a32cd" points="185.5,-213.2 189,-223.2 192.5,-213.21 185.5,-213.2"/>
<text text-anchor="middle" x="197.5" y="-197" font-family="Helvetica,sans-Serif" font-size="10.00"> ptr</text>
</g>
<!-- Node6 -->
<g id="node6" class="node">
<title>Node6</title>
<g id="a_node6"><a xlink:title=" ">
<polygon fill="white" stroke="#bfbfbf" points="120.5,-291.5 120.5,-343.5 257.5,-343.5 257.5,-291.5 120.5,-291.5"/>
<text text-anchor="start" x="128.5" y="-331.5" font-family="Helvetica,sans-Serif" font-size="10.00">boost::log::sources</text>
<text text-anchor="start" x="128.5" y="-320.5" font-family="Helvetica,sans-Serif" font-size="10.00">::severity_logger&lt; boost</text>
<text text-anchor="start" x="128.5" y="-309.5" font-family="Helvetica,sans-Serif" font-size="10.00">::log::trivial::severity</text>
<text text-anchor="middle" x="189" y="-298.5" font-family="Helvetica,sans-Serif" font-size="10.00">_level &gt;</text>
</a>
</g>
</g>
<!-- Node6&#45;&gt;Node5 -->
<g id="edge5" class="edge">
<title>Node6&#45;&gt;Node5</title>
<path fill="none" stroke="midnightblue" d="M189,-281.03C189,-271.38 189,-261.47 189,-253.75"/>
<polygon fill="midnightblue" stroke="midnightblue" points="185.5,-281.29 189,-291.29 192.5,-281.29 185.5,-281.29"/>
</g>
<!-- Node7 -->
<g id="node7" class="node">
<title>Node7</title>
<g id="a_node7"><a xlink:title=" ">
<polygon fill="white" stroke="#bfbfbf" points="274,-78.5 274,-97.5 414,-97.5 414,-78.5 274,-78.5"/>
<text text-anchor="middle" x="344" y="-85.5" font-family="Helvetica,sans-Serif" font-size="10.00">std::vector&lt; std::string &gt;</text>
</a>
</g>
</g>
<!-- Node7&#45;&gt;Node1 -->
<g id="edge6" class="edge">
<title>Node7&#45;&gt;Node1</title>
<path fill="none" stroke="#9a32cd" stroke-dasharray="5,2" d="M317.4,-73.96C285.73,-58.43 233.74,-32.94 206.65,-19.66"/>
<polygon fill="#9a32cd" stroke="#9a32cd" points="316,-77.17 326.52,-78.43 319.08,-70.88 316,-77.17"/>
<text text-anchor="middle" x="333" y="-52" font-family="Helvetica,sans-Serif" font-size="10.00"> _scalarDataNames</text>
<text text-anchor="middle" x="333" y="-41" font-family="Helvetica,sans-Serif" font-size="10.00">_vectorDataNames</text>
</g>
<!-- Node8 -->
<g id="node8" class="node">
<title>Node8</title>
<g id="a_node8"><a xlink:title="STL class.">
<polygon fill="white" stroke="#bfbfbf" points="311.5,-151 311.5,-170 376.5,-170 376.5,-151 311.5,-151"/>
<text text-anchor="middle" x="344" y="-158" font-family="Helvetica,sans-Serif" font-size="10.00">std::string</text>
</a>
</g>
</g>
<!-- Node8&#45;&gt;Node7 -->
<g id="edge7" class="edge">
<title>Node8&#45;&gt;Node7</title>
<path fill="none" stroke="#9a32cd" stroke-dasharray="5,2" d="M344,-140.44C344,-126.53 344,-108.32 344,-97.72"/>
<polygon fill="#9a32cd" stroke="#9a32cd" points="340.5,-140.86 344,-150.86 347.5,-140.86 340.5,-140.86"/>
<text text-anchor="middle" x="368.5" y="-119" font-family="Helvetica,sans-Serif" font-size="10.00"> elements</text>
</g>
<!-- Node9 -->
<g id="node9" class="node">
<title>Node9</title>
<g id="a_node9"><a xlink:title="STL class.">
<polygon fill="white" stroke="#bfbfbf" points="292,-223.5 292,-253.5 396,-253.5 396,-223.5 292,-223.5"/>
<text text-anchor="start" x="300" y="-241.5" font-family="Helvetica,sans-Serif" font-size="10.00">std::basic_string&lt;</text>
<text text-anchor="middle" x="344" y="-230.5" font-family="Helvetica,sans-Serif" font-size="10.00"> char &gt;</text>
</a>
</g>
</g>
<!-- Node9&#45;&gt;Node8 -->
<g id="edge8" class="edge">
<title>Node9&#45;&gt;Node8</title>
<path fill="none" stroke="midnightblue" d="M344,-213.17C344,-198.4 344,-180.45 344,-170.06"/>
<polygon fill="midnightblue" stroke="midnightblue" points="340.5,-213.2 344,-223.2 347.5,-213.21 340.5,-213.2"/>
</g>
</g>
</svg>
