<?xml version="1.0" encoding="UTF-8" standalone="no"?>
<!DOCTYPE svg PUBLIC "-//W3C//DTD SVG 1.1//EN"
 "http://www.w3.org/Graphics/SVG/1.1/DTD/svg11.dtd">
<!-- Generated by graphviz version 2.43.0 (0)
 -->
<!-- Title: precice::mapping::AxialGeoMultiscaleMapping::tagMeshFirstRound Pages: 1 -->
<svg width="746pt" height="296pt"
 viewBox="0.00 0.00 746.00 296.00" xmlns="http://www.w3.org/2000/svg" xmlns:xlink="http://www.w3.org/1999/xlink">
<g id="graph0" class="graph" transform="scale(1 1) rotate(0) translate(4 292)">
<title>precice::mapping::AxialGeoMultiscaleMapping::tagMeshFirstRound</title>
<!-- Node1 -->
<g id="Node000001" class="node">
<title>Node1</title>
<g id="a_Node000001"><a xlink:title="Method used by partition. Tags vertices that could be owned by this rank.">
<polygon fill="#999999" stroke="#666666" points="209,-159 0,-159 0,-129 209,-129 209,-159"/>
<text text-anchor="start" x="8" y="-147" font-family="Helvetica,sans-Serif" font-size="10.00">precice::mapping::AxialGeo</text>
<text text-anchor="middle" x="104.5" y="-136" font-family="Helvetica,sans-Serif" font-size="10.00">MultiscaleMapping::tagMeshFirstRound</text>
</a>
</g>
</g>
<!-- Node2 -->
<g id="Node000002" class="node">
<title>Node2</title>
<g id="a_Node000002"><a xlink:href="classprecice_1_1mapping_1_1AxialGeoMultiscaleMapping.html#a71e82d10df58c306968c7cffbf343ed6" target="_top" xlink:title="Removes a computed mapping.">
<polygon fill="white" stroke="#666666" points="420.5,-245 269.5,-245 269.5,-215 420.5,-215 420.5,-245"/>
<text text-anchor="start" x="277.5" y="-233" font-family="Helvetica,sans-Serif" font-size="10.00">precice::mapping::AxialGeo</text>
<text text-anchor="middle" x="345" y="-222" font-family="Helvetica,sans-Serif" font-size="10.00">MultiscaleMapping::clear</text>
</a>
</g>
</g>
<!-- Node1&#45;&gt;Node2 -->
<g id="edge1_Node000001_Node000002" class="edge">
<title>Node1&#45;&gt;Node2</title>
<g id="a_edge1_Node000001_Node000002"><a xlink:title=" ">
<path fill="none" stroke="#63b8ff" d="M139.52,-159.05C167.54,-171.16 208.45,-188.22 245,-201 255.92,-204.82 267.63,-208.56 279.04,-212.01"/>
<polygon fill="#63b8ff" stroke="#63b8ff" points="278.37,-215.46 288.95,-214.97 280.37,-208.76 278.37,-215.46"/>
</a>
</g>
</g>
<!-- Node3 -->
<g id="Node000003" class="node">
<title>Node3</title>
<g id="a_Node000003"><a xlink:href="classprecice_1_1mapping_1_1AxialGeoMultiscaleMapping.html#a5ff6fb53d8cc3daa4db42555766d1973" target="_top" xlink:title="Takes care of compute&#45;heavy operations needed only once to set up the mapping.">
<polygon fill="white" stroke="#666666" points="445,-159 245,-159 245,-129 445,-129 445,-159"/>
<text text-anchor="start" x="253" y="-147" font-family="Helvetica,sans-Serif" font-size="10.00">precice::mapping::AxialGeo</text>
<text text-anchor="middle" x="345" y="-136" font-family="Helvetica,sans-Serif" font-size="10.00">MultiscaleMapping::computeMapping</text>
</a>
</g>
</g>
<!-- Node1&#45;&gt;Node3 -->
<g id="edge2_Node000001_Node000003" class="edge">
<title>Node1&#45;&gt;Node3</title>
<g id="a_edge2_Node000001_Node000003"><a xlink:title=" ">
<path fill="none" stroke="#63b8ff" d="M209.07,-144C217.47,-144 225.98,-144 234.42,-144"/>
<polygon fill="#63b8ff" stroke="#63b8ff" points="234.67,-147.5 244.67,-144 234.67,-140.5 234.67,-147.5"/>
</a>
</g>
</g>
<!-- Node5 -->
<g id="Node000005" class="node">
<title>Node5</title>
<g id="a_Node000005"><a xlink:href="classprecice_1_1mapping_1_1Mapping.html#a6afbd9aaac2ab09b078db271cfd977a1" target="_top" xlink:title="Returns the constraint (consistent/conservative) of the mapping.">
<polygon fill="white" stroke="#666666" points="630,-288 481,-288 481,-258 630,-258 630,-288"/>
<text text-anchor="start" x="489" y="-276" font-family="Helvetica,sans-Serif" font-size="10.00">precice::mapping::Mapping</text>
<text text-anchor="middle" x="555.5" y="-265" font-family="Helvetica,sans-Serif" font-size="10.00">::getConstraint</text>
</a>
</g>
</g>
<!-- Node1&#45;&gt;Node5 -->
<g id="edge11_Node000001_Node000005" class="edge">
<title>Node1&#45;&gt;Node5</title>
<g id="a_edge11_Node000001_Node000005"><a xlink:title=" ">
<path fill="none" stroke="#63b8ff" d="M191.97,-159.05C290.72,-176.35 439.48,-202.79 445,-206 466.54,-218.54 460.35,-235.04 481,-249 483.27,-250.53 485.64,-251.97 488.09,-253.33"/>
<polygon fill="#63b8ff" stroke="#63b8ff" points="486.7,-256.55 497.21,-257.86 489.81,-250.28 486.7,-256.55"/>
</a>
</g>
</g>
<!-- Node8 -->
<g id="Node000008" class="node">
<title>Node8</title>
<g id="a_Node000008"><a xlink:href="classprecice_1_1mapping_1_1Mapping.html#a61c3c55af467ada2bdd735efa0f960e4" target="_top" xlink:title="Returns pointer to input mesh.">
<polygon fill="white" stroke="#666666" points="630,-30 481,-30 481,0 630,0 630,-30"/>
<text text-anchor="start" x="489" y="-18" font-family="Helvetica,sans-Serif" font-size="10.00">precice::mapping::Mapping</text>
<text text-anchor="middle" x="555.5" y="-7" font-family="Helvetica,sans-Serif" font-size="10.00">::input</text>
</a>
</g>
</g>
<!-- Node1&#45;&gt;Node8 -->
<g id="edge12_Node000001_Node000008" class="edge">
<title>Node1&#45;&gt;Node8</title>
<g id="a_edge12_Node000001_Node000008"><a xlink:title=" ">
<path fill="none" stroke="#63b8ff" d="M190.23,-128.99C288.96,-111.39 439.43,-84.21 445,-81 466.3,-68.72 460.56,-52.66 481,-39 483.41,-37.39 485.93,-35.89 488.53,-34.47"/>
<polygon fill="#63b8ff" stroke="#63b8ff" points="490.18,-37.56 497.63,-30.03 487.11,-31.27 490.18,-37.56"/>
</a>
</g>
</g>
<!-- Node12 -->
<g id="Node000012" class="node">
<title>Node12</title>
<g id="a_Node000012"><a xlink:href="classMesh.html#a708f813fb1d2ea852818cdaf55d5b922" target="_top" xlink:title=" ">
<polygon fill="white" stroke="#666666" points="383.5,-72.5 306.5,-72.5 306.5,-53.5 383.5,-53.5 383.5,-72.5"/>
<text text-anchor="middle" x="345" y="-60.5" font-family="Helvetica,sans-Serif" font-size="10.00">Mesh::tagAll</text>
</a>
</g>
</g>
<!-- Node1&#45;&gt;Node12 -->
<g id="edge13_Node000001_Node000012" class="edge">
<title>Node1&#45;&gt;Node12</title>
<g id="a_edge13_Node000001_Node000012"><a xlink:title=" ">
<path fill="none" stroke="#63b8ff" d="M138.24,-128.99C166.19,-116.57 207.66,-99.08 245,-87 261.58,-81.64 280.07,-76.84 296.54,-72.98"/>
<polygon fill="#63b8ff" stroke="#63b8ff" points="297.53,-76.34 306.49,-70.7 295.96,-69.52 297.53,-76.34"/>
</a>
</g>
</g>
<!-- Node4 -->
<g id="Node000004" class="node">
<title>Node4</title>
<g id="a_Node000004"><a xlink:href="namespaceprecice.html#aa9d19e0a82fdcbffc72e0db264b4cceb" target="_top" xlink:title=" ">
<polygon fill="white" stroke="#666666" points="592.5,-239.5 518.5,-239.5 518.5,-220.5 592.5,-220.5 592.5,-239.5"/>
<text text-anchor="middle" x="555.5" y="-227.5" font-family="Helvetica,sans-Serif" font-size="10.00">precice::get</text>
</a>
</g>
</g>
<!-- Node3&#45;&gt;Node4 -->
<g id="edge3_Node000003_Node000004" class="edge">
<title>Node3&#45;&gt;Node4</title>
<g id="a_edge3_Node000003_Node000004"><a xlink:title=" ">
<path fill="none" stroke="#63b8ff" d="M414.85,-159.02C425.35,-162.75 435.76,-167.35 445,-173 464.85,-185.13 460.96,-199.19 481,-211 489.34,-215.92 498.95,-219.58 508.41,-222.3"/>
<polygon fill="#63b8ff" stroke="#63b8ff" points="507.6,-225.7 518.16,-224.8 509.34,-218.92 507.6,-225.7"/>
</a>
</g>
</g>
<!-- Node3&#45;&gt;Node5 -->
<g id="edge4_Node000003_Node000005" class="edge">
<title>Node3&#45;&gt;Node5</title>
<g id="a_edge4_Node000003_Node000005"><a xlink:title=" ">
<path fill="none" stroke="#63b8ff" d="M422.42,-159.04C430.58,-162.72 438.33,-167.3 445,-173 473.42,-197.27 452.95,-224.3 481,-249 482.35,-250.19 483.76,-251.32 485.22,-252.39"/>
<polygon fill="#63b8ff" stroke="#63b8ff" points="483.74,-255.6 494.07,-257.96 487.47,-249.67 483.74,-255.6"/>
</a>
</g>
</g>
<!-- Node6 -->
<g id="Node000006" class="node">
<title>Node6</title>
<g id="a_Node000006"><a xlink:href="classprecice_1_1mesh_1_1Vertex.html#ad90010710b36c06a40ec09922c1b0fce" target="_top" xlink:title="Returns the coordinates of the vertex.">
<polygon fill="white" stroke="#666666" points="616.5,-202 494.5,-202 494.5,-172 616.5,-172 616.5,-202"/>
<text text-anchor="start" x="502.5" y="-190" font-family="Helvetica,sans-Serif" font-size="10.00">precice::mesh::Vertex</text>
<text text-anchor="middle" x="555.5" y="-179" font-family="Helvetica,sans-Serif" font-size="10.00">::getCoords</text>
</a>
</g>
</g>
<!-- Node3&#45;&gt;Node6 -->
<g id="edge5_Node000003_Node000006" class="edge">
<title>Node3&#45;&gt;Node6</title>
<g id="a_edge5_Node000003_Node000006"><a xlink:title=" ">
<path fill="none" stroke="#63b8ff" d="M418.92,-159.04C440.21,-163.43 463.42,-168.22 484.53,-172.57"/>
<polygon fill="#63b8ff" stroke="#63b8ff" points="483.88,-176.01 494.38,-174.6 485.29,-169.15 483.88,-176.01"/>
</a>
</g>
</g>
<!-- Node3&#45;&gt;Node8 -->
<g id="edge7_Node000003_Node000008" class="edge">
<title>Node3&#45;&gt;Node8</title>
<g id="a_edge7_Node000003_Node000008"><a xlink:title=" ">
<path fill="none" stroke="#63b8ff" d="M422.42,-128.96C430.58,-125.28 438.33,-120.7 445,-115 473.42,-90.73 452.95,-63.7 481,-39 482.35,-37.81 483.76,-36.68 485.22,-35.61"/>
<polygon fill="#63b8ff" stroke="#63b8ff" points="487.47,-38.33 494.07,-30.04 483.74,-32.4 487.47,-38.33"/>
</a>
</g>
</g>
<!-- Node9 -->
<g id="Node000009" class="node">
<title>Node9</title>
<g id="a_Node000009"><a xlink:href="classMesh.html#a4220c9b15bb1c3dbf5c00701851f8288" target="_top" xlink:title="Returns the number of vertices.">
<polygon fill="white" stroke="#666666" points="602.5,-153.5 508.5,-153.5 508.5,-134.5 602.5,-134.5 602.5,-153.5"/>
<text text-anchor="middle" x="555.5" y="-141.5" font-family="Helvetica,sans-Serif" font-size="10.00">Mesh::nVertices</text>
</a>
</g>
</g>
<!-- Node3&#45;&gt;Node9 -->
<g id="edge8_Node000003_Node000009" class="edge">
<title>Node3&#45;&gt;Node9</title>
<g id="a_edge8_Node000003_Node000009"><a xlink:title=" ">
<path fill="none" stroke="#63b8ff" d="M445.06,-144C463.25,-144 481.64,-144 498.03,-144"/>
<polygon fill="#63b8ff" stroke="#63b8ff" points="498.49,-147.5 508.49,-144 498.49,-140.5 498.49,-147.5"/>
</a>
</g>
</g>
<!-- Node10 -->
<g id="Node000010" class="node">
<title>Node10</title>
<g id="a_Node000010"><a xlink:href="classprecice_1_1mapping_1_1Mapping.html#a07a71a54b71eda6d54510c94fb188e70" target="_top" xlink:title="Returns pointer to output mesh.">
<polygon fill="white" stroke="#666666" points="630,-116 481,-116 481,-86 630,-86 630,-116"/>
<text text-anchor="start" x="489" y="-104" font-family="Helvetica,sans-Serif" font-size="10.00">precice::mapping::Mapping</text>
<text text-anchor="middle" x="555.5" y="-93" font-family="Helvetica,sans-Serif" font-size="10.00">::output</text>
</a>
</g>
</g>
<!-- Node3&#45;&gt;Node10 -->
<g id="edge9_Node000003_Node000010" class="edge">
<title>Node3&#45;&gt;Node10</title>
<g id="a_edge9_Node000003_Node000010"><a xlink:title=" ">
<path fill="none" stroke="#63b8ff" d="M418.92,-128.96C435.91,-125.46 454.11,-121.7 471.49,-118.12"/>
<polygon fill="#63b8ff" stroke="#63b8ff" points="472.53,-121.48 481.62,-116.03 471.12,-114.62 472.53,-121.48"/>
</a>
</g>
</g>
<!-- Node11 -->
<g id="Node000011" class="node">
<title>Node11</title>
<g id="a_Node000011"><a xlink:href="classMesh.html#a61d536967e403c9c2c4dfa33ddc8a044" target="_top" xlink:title="Mutable access to a vertex by VertexID.">
<polygon fill="white" stroke="#666666" points="595.5,-67.5 515.5,-67.5 515.5,-48.5 595.5,-48.5 595.5,-67.5"/>
<text text-anchor="middle" x="555.5" y="-55.5" font-family="Helvetica,sans-Serif" font-size="10.00">Mesh::vertex</text>
</a>
</g>
</g>
<!-- Node3&#45;&gt;Node11 -->
<g id="edge10_Node000003_Node000011" class="edge">
<title>Node3&#45;&gt;Node11</title>
<g id="a_edge10_Node000003_Node000011"><a xlink:title=" ">
<path fill="none" stroke="#63b8ff" d="M414.85,-128.98C425.35,-125.25 435.76,-120.65 445,-115 464.85,-102.87 460.96,-88.81 481,-77 488.43,-72.62 496.86,-69.24 505.29,-66.63"/>
<polygon fill="#63b8ff" stroke="#63b8ff" points="506.43,-69.95 515.14,-63.91 504.56,-63.2 506.43,-69.95"/>
</a>
</g>
</g>
<!-- Node7 -->
<g id="Node000007" class="node">
<title>Node7</title>
<g id="a_Node000007"><a target="_parent" xlink:href="http://en.cppreference.com/w/cpp/algorithm/copy_n.html#" xlink:title=" ">
<polygon fill="white" stroke="#666666" points="738,-196.5 666,-196.5 666,-177.5 738,-177.5 738,-196.5"/>
<text text-anchor="middle" x="702" y="-184.5" font-family="Helvetica,sans-Serif" font-size="10.00">std::copy_n</text>
</a>
</g>
</g>
<!-- Node6&#45;&gt;Node7 -->
<g id="edge6_Node000006_Node000007" class="edge">
<title>Node6&#45;&gt;Node7</title>
<g id="a_edge6_Node000006_Node000007"><a xlink:title=" ">
<path fill="none" stroke="#63b8ff" d="M616.53,-187C629.61,-187 643.25,-187 655.65,-187"/>
<polygon fill="#63b8ff" stroke="#63b8ff" points="655.74,-190.5 665.74,-187 655.74,-183.5 655.74,-190.5"/>
</a>
</g>
</g>
</g>
</svg>
