<?xml version="1.0" encoding="UTF-8" standalone="no"?>
<!DOCTYPE svg PUBLIC "-//W3C//DTD SVG 1.1//EN"
 "http://www.w3.org/Graphics/SVG/1.1/DTD/svg11.dtd">
<!-- Generated by graphviz version 2.43.0 (0)
 -->
<!-- Title: precice::com::serialize::SerializedBoundingBox::serialize Pages: 1 -->
<svg width="334pt" height="194pt"
 viewBox="0.00 0.00 334.00 193.50" xmlns="http://www.w3.org/2000/svg" xmlns:xlink="http://www.w3.org/1999/xlink">

<svg id="main" version="1.1" xmlns="http://www.w3.org/2000/svg" xmlns:xlink="http://www.w3.org/1999/xlink" xml:space="preserve" onload="init(evt)">
<style type="text/css"><![CDATA[
.node, .edge {opacity: 0.7;}
.node.selected, .edge.selected {opacity: 1;}
.edge:hover path { stroke: red; }
.edge:hover polygon { stroke: red; fill: red; }
]]></style>
<script type="application/ecmascript" xlink:href="svg.min.js"/>
<svg id="graph" class="graph">
<g id="graph0" class="graph" transform="scale(1 1) rotate(0) translate(4 189.5)">
<title>precice::com::serialize::SerializedBoundingBox::serialize</title>
<!-- Node1 -->
<g id="Node000001" class="node">
<title>Node1</title>
<g id="a_Node000001"><a xlink:title=" ">
<polygon fill="#999999" stroke="#666666" points="135,-107.5 0,-107.5 0,-66.5 135,-66.5 135,-107.5"/>
<text text-anchor="start" x="8" y="-95.5" font-family="Helvetica,sans-Serif" font-size="10.00">precice::com::serialize</text>
<text text-anchor="start" x="8" y="-84.5" font-family="Helvetica,sans-Serif" font-size="10.00">::SerializedBoundingBox</text>
<text text-anchor="middle" x="67.5" y="-73.5" font-family="Helvetica,sans-Serif" font-size="10.00">::serialize</text>
</a>
</g>
</g>
<!-- Node2 -->
<g id="Node000002" class="node">
<title>Node2</title>
<g id="a_Node000002"><a xlink:href="classprecice_1_1com_1_1serialize_1_1SerializedBoundingBox.html#aa277540ee9df0f86e08a9567b2a7d1bc" target="_top" xlink:title="asserts the content for correctness">
<polygon fill="white" stroke="#666666" points="316,-185.5 181,-185.5 181,-144.5 316,-144.5 316,-185.5"/>
<text text-anchor="start" x="189" y="-173.5" font-family="Helvetica,sans-Serif" font-size="10.00">precice::com::serialize</text>
<text text-anchor="start" x="189" y="-162.5" font-family="Helvetica,sans-Serif" font-size="10.00">::SerializedBoundingBox</text>
<text text-anchor="middle" x="248.5" y="-151.5" font-family="Helvetica,sans-Serif" font-size="10.00">::assertValid</text>
</a>
</g>
</g>
<!-- Node1&#45;&gt;Node2 -->
<g id="edge1_Node000001_Node000002" class="edge">
<title>Node1&#45;&gt;Node2</title>
<g id="a_edge1_Node000001_Node000002"><a xlink:title=" ">
<path fill="none" stroke="#63b8ff" d="M111.11,-107.7C129.42,-116.4 151.14,-126.47 171,-135 175.36,-136.87 179.87,-138.76 184.43,-140.64"/>
<polygon fill="#63b8ff" stroke="#63b8ff" points="183.24,-143.93 193.82,-144.45 185.87,-137.45 183.24,-143.93"/>
</a>
</g>
</g>
<!-- Node3 -->
<g id="Node000003" class="node">
<title>Node3</title>
<g id="a_Node000003"><a xlink:href="classprecice_1_1mesh_1_1BoundingBox.html#ad500309dcbe440703ef71dfcc7a2a394" target="_top" xlink:title="Getter dimension of the bounding box.">
<polygon fill="white" stroke="#666666" points="326,-126 171,-126 171,-96 326,-96 326,-126"/>
<text text-anchor="start" x="179" y="-114" font-family="Helvetica,sans-Serif" font-size="10.00">precice::mesh::BoundingBox</text>
<text text-anchor="middle" x="248.5" y="-103" font-family="Helvetica,sans-Serif" font-size="10.00">::getDimension</text>
</a>
</g>
</g>
<!-- Node1&#45;&gt;Node3 -->
<g id="edge2_Node000001_Node000003" class="edge">
<title>Node1&#45;&gt;Node3</title>
<g id="a_edge2_Node000001_Node000003"><a xlink:title=" ">
<path fill="none" stroke="#63b8ff" d="M135.15,-95.94C143.51,-97.06 152.16,-98.22 160.77,-99.37"/>
<polygon fill="#63b8ff" stroke="#63b8ff" points="160.46,-102.86 170.84,-100.72 161.39,-95.92 160.46,-102.86"/>
</a>
</g>
</g>
<!-- Node4 -->
<g id="Node000004" class="node">
<title>Node4</title>
<g id="a_Node000004"><a xlink:href="classprecice_1_1mesh_1_1BoundingBox.html#a14cd5dbd1775876bf5795845699557d8" target="_top" xlink:title="the max corner of the bounding box">
<polygon fill="white" stroke="#666666" points="326,-78 171,-78 171,-48 326,-48 326,-78"/>
<text text-anchor="start" x="179" y="-66" font-family="Helvetica,sans-Serif" font-size="10.00">precice::mesh::BoundingBox</text>
<text text-anchor="middle" x="248.5" y="-55" font-family="Helvetica,sans-Serif" font-size="10.00">::maxCorner</text>
</a>
</g>
</g>
<!-- Node1&#45;&gt;Node4 -->
<g id="edge3_Node000001_Node000004" class="edge">
<title>Node1&#45;&gt;Node4</title>
<g id="a_edge3_Node000001_Node000004"><a xlink:title=" ">
<path fill="none" stroke="#63b8ff" d="M135.15,-78.06C143.51,-76.94 152.16,-75.78 160.77,-74.63"/>
<polygon fill="#63b8ff" stroke="#63b8ff" points="161.39,-78.08 170.84,-73.28 160.46,-71.14 161.39,-78.08"/>
</a>
</g>
</g>
<!-- Node5 -->
<g id="Node000005" class="node">
<title>Node5</title>
<g id="a_Node000005"><a xlink:href="classprecice_1_1mesh_1_1BoundingBox.html#a194a2fb80fd24fad4555df2a2453dac5" target="_top" xlink:title="the min corner of the bounding box">
<polygon fill="white" stroke="#666666" points="326,-30 171,-30 171,0 326,0 326,-30"/>
<text text-anchor="start" x="179" y="-18" font-family="Helvetica,sans-Serif" font-size="10.00">precice::mesh::BoundingBox</text>
<text text-anchor="middle" x="248.5" y="-7" font-family="Helvetica,sans-Serif" font-size="10.00">::minCorner</text>
</a>
</g>
</g>
<!-- Node1&#45;&gt;Node5 -->
<g id="edge4_Node000001_Node000005" class="edge">
<title>Node1&#45;&gt;Node5</title>
<g id="a_edge4_Node000001_Node000005"><a xlink:title=" ">
<path fill="none" stroke="#63b8ff" d="M109.35,-66.34C127.91,-57.35 150.31,-47.05 171,-39 176.03,-37.04 181.28,-35.13 186.59,-33.29"/>
<polygon fill="#63b8ff" stroke="#63b8ff" points="187.79,-36.58 196.14,-30.07 185.55,-29.95 187.79,-36.58"/>
</a>
</g>
</g>
</g>
</svg>
</svg>

<style type='text/css'>
<![CDATA[
[data-mouse-over-selected='false'] { opacity: 0.7; }
[data-mouse-over-selected='true']  { opacity: 1.0; }
]]>
</style>
<script type="application/ecmascript"><![CDATA[
document.addEventListener('DOMContentLoaded', (event) => {
  highlightEdges();
  highlightAdjacentNodes();
});
]]></script>
</svg>
