<?xml version="1.0" encoding="UTF-8" standalone="no"?>
<!DOCTYPE svg PUBLIC "-//W3C//DTD SVG 1.1//EN"
 "http://www.w3.org/Graphics/SVG/1.1/DTD/svg11.dtd">
<!-- Generated by graphviz version 2.43.0 (0)
 -->
<!-- Title: precice::cplscheme::BaseCouplingScheme Pages: 1 -->
<!--zoomable 529 -->
<svg id="main" version="1.1" xmlns="http://www.w3.org/2000/svg" xmlns:xlink="http://www.w3.org/1999/xlink" xml:space="preserve" onload="init(evt)">
<style type="text/css"><![CDATA[
.edge:hover path { stroke: red; }
.edge:hover polygon { stroke: red; fill: red; }
]]></style>
<script type="text/javascript"><![CDATA[
var edges = document.getElementsByTagName('g');
if (edges && edges.length) {
  for (var i=0;i<edges.length;i++) {
    if (edges[i].id.substr(0,4)=='edge') {
      edges[i].setAttribute('class','edge');
    }
  }
}
]]></script>
        <defs>
                <circle id="rim" cx="0" cy="0" r="7"/>
                <circle id="rim2" cx="0" cy="0" r="3.5"/>
                <g id="zoomPlus">
                        <use xlink:href="#rim" fill="#404040">
                                <set attributeName="fill" to="#808080" begin="zoomplus.mouseover" end="zoomplus.mouseout"/>
                        </use>
                        <path d="M-4,0h8M0,-4v8" fill="none" stroke="white" stroke-width="1.5" pointer-events="none"/>
                </g>
                <g id="zoomMin">
                        <use xlink:href="#rim" fill="#404040">
                                <set attributeName="fill" to="#808080" begin="zoomminus.mouseover" end="zoomminus.mouseout"/>
                        </use>
                        <path d="M-4,0h8" fill="none" stroke="white" stroke-width="1.5" pointer-events="none"/>
                </g>
                <g id="dirArrow">
                        <path fill="none" stroke="white" stroke-width="1.5" d="M0,-3.0v7 M-2.5,-0.5L0,-3.0L2.5,-0.5"/>
                </g>
               <g id="resetDef">
                       <use xlink:href="#rim2" fill="#404040">
                               <set attributeName="fill" to="#808080" begin="reset.mouseover" end="reset.mouseout"/>
                       </use>
               </g>
        </defs>

<script type="text/javascript">
var viewWidth = 2286;
var viewHeight = 529;
var sectionId = 'dynsection-1';
</script>
<script xlink:href="svgpan.js"/>
<svg id="graph" class="graph">
<g id="viewport">
<title>precice::cplscheme::BaseCouplingScheme</title>
<polygon fill="white" stroke="transparent" points="-4,4 -4,-525.14 2282,-525.14 2282,4 -4,4"/>
<!-- Node1 -->
<g id="node1" class="node">
<title>Node1</title>
<g id="a_node1"><a xlink:title="Abstract base class for standard coupling schemes.">
<polygon fill="#bfbfbf" stroke="black" points="2150,-148.64 2150,-178.64 2278,-178.64 2278,-148.64 2150,-148.64"/>
<text text-anchor="start" x="2158" y="-166.64" font-family="Helvetica,sans-Serif" font-size="10.00">precice::cplscheme</text>
<text text-anchor="middle" x="2214" y="-155.64" font-family="Helvetica,sans-Serif" font-size="10.00">::BaseCouplingScheme</text>
</a>
</g>
</g>
<!-- Node2 -->
<g id="node2" class="node">
<title>Node2</title>
<g id="a_node2"><a xlink:href="classprecice_1_1cplscheme_1_1CouplingScheme.html" target="_top" xlink:title="Interface for all coupling schemes.">
<polygon fill="white" stroke="black" points="1847.5,-490.64 1847.5,-520.64 1957.5,-520.64 1957.5,-490.64 1847.5,-490.64"/>
<text text-anchor="start" x="1855.5" y="-508.64" font-family="Helvetica,sans-Serif" font-size="10.00">precice::cplscheme</text>
<text text-anchor="middle" x="1902.5" y="-497.64" font-family="Helvetica,sans-Serif" font-size="10.00">::CouplingScheme</text>
</a>
</g>
</g>
<!-- Node2&#45;&gt;Node1 -->
<g id="edge1" class="edge">
<title>Node2&#45;&gt;Node1</title>
<path fill="none" stroke="midnightblue" d="M1968.17,-515.11C2018.8,-518.72 2087.82,-514.68 2132,-475.64 2177.92,-435.07 2204.55,-235.58 2211.29,-178.77"/>
<polygon fill="midnightblue" stroke="midnightblue" points="1968.23,-511.61 1957.98,-514.27 1967.66,-518.58 1968.23,-511.61"/>
</g>
<!-- Node3 -->
<g id="node3" class="node">
<title>Node3</title>
<g id="a_node3"><a xlink:title=" ">
<polygon fill="white" stroke="#bfbfbf" points="1809,-244.14 1809,-285.14 1996,-285.14 1996,-244.14 1809,-244.14"/>
<text text-anchor="start" x="1817" y="-273.14" font-family="Helvetica,sans-Serif" font-size="10.00">std::vector&lt; precice</text>
<text text-anchor="start" x="1817" y="-262.14" font-family="Helvetica,sans-Serif" font-size="10.00">::cplscheme::BaseCouplingScheme</text>
<text text-anchor="middle" x="1902.5" y="-251.14" font-family="Helvetica,sans-Serif" font-size="10.00">::ConvergenceMeasureContext &gt;</text>
</a>
</g>
</g>
<!-- Node3&#45;&gt;Node1 -->
<g id="edge2" class="edge">
<title>Node3&#45;&gt;Node1</title>
<path fill="none" stroke="#9a32cd" stroke-dasharray="5,2" d="M2001.11,-241.63C2042.04,-230.97 2089.83,-217.22 2132,-201.64 2149.63,-195.13 2168.69,-186.29 2183.89,-178.77"/>
<polygon fill="#9a32cd" stroke="#9a32cd" points="2000.21,-238.24 1991.4,-244.13 2001.96,-245.02 2000.21,-238.24"/>
<text text-anchor="middle" x="2073" y="-240.64" font-family="Helvetica,sans-Serif" font-size="10.00"> _convergenceMeasures</text>
</g>
<!-- Node4 -->
<g id="node4" class="node">
<title>Node4</title>
<g id="a_node4"><a xlink:href="structprecice_1_1cplscheme_1_1BaseCouplingScheme_1_1ConvergenceMeasureContext.html" target="_top" xlink:title="Holds meta information to perform a convergence measurement.">
<polygon fill="white" stroke="black" points="1557,-283.14 1557,-324.14 1724,-324.14 1724,-283.14 1557,-283.14"/>
<text text-anchor="start" x="1565" y="-312.14" font-family="Helvetica,sans-Serif" font-size="10.00">precice::cplscheme</text>
<text text-anchor="start" x="1565" y="-301.14" font-family="Helvetica,sans-Serif" font-size="10.00">::BaseCouplingScheme</text>
<text text-anchor="middle" x="1640.5" y="-290.14" font-family="Helvetica,sans-Serif" font-size="10.00">::ConvergenceMeasureContext</text>
</a>
</g>
</g>
<!-- Node4&#45;&gt;Node3 -->
<g id="edge3" class="edge">
<title>Node4&#45;&gt;Node3</title>
<path fill="none" stroke="#9a32cd" stroke-dasharray="5,2" d="M1734.03,-289.76C1758.28,-286.13 1784.43,-282.2 1808.7,-278.56"/>
<polygon fill="#9a32cd" stroke="#9a32cd" points="1733.49,-286.3 1724.12,-291.25 1734.53,-293.23 1733.49,-286.3"/>
<text text-anchor="middle" x="1766.5" y="-289.64" font-family="Helvetica,sans-Serif" font-size="10.00"> elements</text>
</g>
<!-- Node5 -->
<g id="node5" class="node">
<title>Node5</title>
<g id="a_node5"><a xlink:title=" ">
<polygon fill="white" stroke="#bfbfbf" points="1273,-288.64 1273,-318.64 1437,-318.64 1437,-288.64 1273,-288.64"/>
<text text-anchor="start" x="1281" y="-306.64" font-family="Helvetica,sans-Serif" font-size="10.00">std::shared_ptr&lt; Convergence</text>
<text text-anchor="middle" x="1355" y="-295.64" font-family="Helvetica,sans-Serif" font-size="10.00">Measure &gt;</text>
</a>
</g>
</g>
<!-- Node5&#45;&gt;Node4 -->
<g id="edge4" class="edge">
<title>Node5&#45;&gt;Node4</title>
<path fill="none" stroke="#9a32cd" stroke-dasharray="5,2" d="M1447.5,-303.64C1482.63,-303.64 1522.5,-303.64 1556.77,-303.64"/>
<polygon fill="#9a32cd" stroke="#9a32cd" points="1447.24,-300.14 1437.24,-303.64 1447.24,-307.14 1447.24,-300.14"/>
<text text-anchor="middle" x="1497" y="-306.64" font-family="Helvetica,sans-Serif" font-size="10.00"> measure</text>
</g>
<!-- Node6 -->
<g id="node6" class="node">
<title>Node6</title>
<g id="a_node6"><a xlink:title=" ">
<polygon fill="white" stroke="#bfbfbf" points="1283.5,-337.64 1283.5,-367.64 1426.5,-367.64 1426.5,-337.64 1283.5,-337.64"/>
<text text-anchor="start" x="1291.5" y="-355.64" font-family="Helvetica,sans-Serif" font-size="10.00">std::shared_ptr&lt; Coupling</text>
<text text-anchor="middle" x="1355" y="-344.64" font-family="Helvetica,sans-Serif" font-size="10.00">Data &gt;</text>
</a>
</g>
</g>
<!-- Node6&#45;&gt;Node4 -->
<g id="edge5" class="edge">
<title>Node6&#45;&gt;Node4</title>
<path fill="none" stroke="#9a32cd" stroke-dasharray="5,2" d="M1436.7,-338.69C1474.29,-332.2 1518.95,-324.48 1556.78,-317.94"/>
<polygon fill="#9a32cd" stroke="#9a32cd" points="1436.07,-335.25 1426.81,-340.4 1437.26,-342.15 1436.07,-335.25"/>
<text text-anchor="middle" x="1497" y="-337.64" font-family="Helvetica,sans-Serif" font-size="10.00"> couplingData</text>
</g>
<!-- Node7 -->
<g id="node7" class="node">
<title>Node7</title>
<g id="a_node7"><a xlink:href="classprecice_1_1cplscheme_1_1CouplingData.html" target="_top" xlink:title=" ">
<polygon fill="white" stroke="black" points="1059.5,-337.64 1059.5,-367.64 1169.5,-367.64 1169.5,-337.64 1059.5,-337.64"/>
<text text-anchor="start" x="1067.5" y="-355.64" font-family="Helvetica,sans-Serif" font-size="10.00">precice::cplscheme</text>
<text text-anchor="middle" x="1114.5" y="-344.64" font-family="Helvetica,sans-Serif" font-size="10.00">::CouplingData</text>
</a>
</g>
</g>
<!-- Node7&#45;&gt;Node6 -->
<g id="edge6" class="edge">
<title>Node7&#45;&gt;Node6</title>
<path fill="none" stroke="#9a32cd" stroke-dasharray="5,2" d="M1179.75,-352.64C1211.75,-352.64 1250.51,-352.64 1283.34,-352.64"/>
<polygon fill="#9a32cd" stroke="#9a32cd" points="1179.62,-349.14 1169.62,-352.64 1179.62,-356.14 1179.62,-349.14"/>
<text text-anchor="middle" x="1230.5" y="-355.64" font-family="Helvetica,sans-Serif" font-size="10.00"> ptr</text>
</g>
<!-- Node8 -->
<g id="node8" class="node">
<title>Node8</title>
<g id="a_node8"><a xlink:title=" ">
<polygon fill="white" stroke="#bfbfbf" points="776.5,-364.14 776.5,-383.14 911.5,-383.14 911.5,-364.14 776.5,-364.14"/>
<text text-anchor="middle" x="844" y="-371.14" font-family="Helvetica,sans-Serif" font-size="10.00">std::shared_ptr&lt; Data &gt;</text>
</a>
</g>
</g>
<!-- Node8&#45;&gt;Node7 -->
<g id="edge7" class="edge">
<title>Node8&#45;&gt;Node7</title>
<path fill="none" stroke="#9a32cd" stroke-dasharray="5,2" d="M921.79,-367.64C965.73,-364.2 1019.8,-359.97 1059.31,-356.88"/>
<polygon fill="#9a32cd" stroke="#9a32cd" points="921.41,-364.16 911.72,-368.43 921.96,-371.13 921.41,-364.16"/>
<text text-anchor="middle" x="977" y="-369.64" font-family="Helvetica,sans-Serif" font-size="10.00"> _data</text>
</g>
<!-- Node9 -->
<g id="node9" class="node">
<title>Node9</title>
<g id="a_node9"><a xlink:href="structprecice_1_1time_1_1Sample.html" target="_top" xlink:title="Sample containing data values.">
<polygon fill="white" stroke="black" points="782.5,-326.14 782.5,-345.14 905.5,-345.14 905.5,-326.14 782.5,-326.14"/>
<text text-anchor="middle" x="844" y="-333.14" font-family="Helvetica,sans-Serif" font-size="10.00">precice::time::Sample</text>
</a>
</g>
</g>
<!-- Node9&#45;&gt;Node7 -->
<g id="edge8" class="edge">
<title>Node9&#45;&gt;Node7</title>
<path fill="none" stroke="#9a32cd" stroke-dasharray="5,2" d="M915.99,-335.95C948.63,-336.53 987.82,-337.82 1023,-340.64 1034.69,-341.58 1047.19,-342.98 1059.04,-344.49"/>
<polygon fill="#9a32cd" stroke="#9a32cd" points="915.69,-332.45 905.64,-335.79 915.58,-339.45 915.69,-332.45"/>
<text text-anchor="middle" x="977" y="-343.64" font-family="Helvetica,sans-Serif" font-size="10.00"> _previousIteration</text>
</g>
<!-- Node10 -->
<g id="node10" class="node">
<title>Node10</title>
<g id="a_node10"><a xlink:title=" ">
<polygon fill="white" stroke="#bfbfbf" points="775,-288.14 775,-307.14 913,-307.14 913,-288.14 775,-288.14"/>
<text text-anchor="middle" x="844" y="-295.14" font-family="Helvetica,sans-Serif" font-size="10.00">std::shared_ptr&lt; Mesh &gt;</text>
</a>
</g>
</g>
<!-- Node10&#45;&gt;Node7 -->
<g id="edge9" class="edge">
<title>Node10&#45;&gt;Node7</title>
<path fill="none" stroke="#9a32cd" stroke-dasharray="5,2" d="M923.21,-304.14C954.51,-307.67 990.73,-312.94 1023,-320.64 1040.99,-324.94 1060.4,-331.52 1076.61,-337.61"/>
<polygon fill="#9a32cd" stroke="#9a32cd" points="923.55,-300.65 913.23,-303.05 922.79,-307.61 923.55,-300.65"/>
<text text-anchor="middle" x="977" y="-323.64" font-family="Helvetica,sans-Serif" font-size="10.00"> _mesh</text>
</g>
<!-- Node11 -->
<g id="node11" class="node">
<title>Node11</title>
<g id="a_node11"><a xlink:href="classprecice_1_1cplscheme_1_1impl_1_1Extrapolation.html" target="_top" xlink:title=" ">
<polygon fill="white" stroke="black" points="786,-402.64 786,-432.64 902,-432.64 902,-402.64 786,-402.64"/>
<text text-anchor="start" x="794" y="-420.64" font-family="Helvetica,sans-Serif" font-size="10.00">precice::cplscheme</text>
<text text-anchor="middle" x="844" y="-409.64" font-family="Helvetica,sans-Serif" font-size="10.00">::impl::Extrapolation</text>
</a>
</g>
</g>
<!-- Node11&#45;&gt;Node7 -->
<g id="edge10" class="edge">
<title>Node11&#45;&gt;Node7</title>
<path fill="none" stroke="#9a32cd" stroke-dasharray="5,2" d="M912.41,-405.83C945.87,-399.5 986.78,-391.08 1023,-381.64 1038.33,-377.65 1054.89,-372.57 1069.6,-367.79"/>
<polygon fill="#9a32cd" stroke="#9a32cd" points="911.47,-402.44 902.28,-407.72 912.76,-409.33 911.47,-402.44"/>
<text text-anchor="middle" x="977" y="-404.64" font-family="Helvetica,sans-Serif" font-size="10.00"> _extrapolation</text>
</g>
<!-- Node12 -->
<g id="node12" class="node">
<title>Node12</title>
<g id="a_node12"><a xlink:href="classprecice_1_1logging_1_1Logger.html" target="_top" xlink:title="This class provides a lightweight logger.">
<polygon fill="white" stroke="black" points="582,-408.14 582,-427.14 715,-427.14 715,-408.14 582,-408.14"/>
<text text-anchor="middle" x="648.5" y="-415.14" font-family="Helvetica,sans-Serif" font-size="10.00">precice::logging::Logger</text>
</a>
</g>
</g>
<!-- Node12&#45;&gt;Node1 -->
<g id="edge15" class="edge">
<title>Node12&#45;&gt;Node1</title>
<path fill="none" stroke="#9a32cd" stroke-dasharray="5,2" d="M684.4,-430.53C722.73,-443.52 786.39,-461.64 843,-461.64 843,-461.64 843,-461.64 1903.5,-461.64 2068.35,-461.64 2179.23,-239.56 2206.47,-178.83"/>
<polygon fill="#9a32cd" stroke="#9a32cd" points="685.34,-427.16 674.75,-427.19 683.05,-433.77 685.34,-427.16"/>
<text text-anchor="middle" x="1355" y="-464.64" font-family="Helvetica,sans-Serif" font-size="10.00"> _log</text>
</g>
<!-- Node12&#45;&gt;Node11 -->
<g id="edge11" class="edge">
<title>Node12&#45;&gt;Node11</title>
<path fill="none" stroke="#9a32cd" stroke-dasharray="5,2" d="M725.14,-417.64C745.38,-417.64 766.92,-417.64 785.97,-417.64"/>
<polygon fill="#9a32cd" stroke="#9a32cd" points="725.01,-414.14 715.01,-417.64 725.01,-421.14 725.01,-414.14"/>
<text text-anchor="middle" x="745" y="-420.64" font-family="Helvetica,sans-Serif" font-size="10.00"> _log</text>
</g>
<!-- Node17 -->
<g id="node17" class="node">
<title>Node17</title>
<g id="a_node17"><a xlink:href="classprecice_1_1io_1_1TXTTableWriter.html" target="_top" xlink:title="File writer for table&#45;data in text&#45;format.">
<polygon fill="white" stroke="black" points="1567,-198.14 1567,-217.14 1714,-217.14 1714,-198.14 1567,-198.14"/>
<text text-anchor="middle" x="1640.5" y="-205.14" font-family="Helvetica,sans-Serif" font-size="10.00">precice::io::TXTTableWriter</text>
</a>
</g>
</g>
<!-- Node12&#45;&gt;Node17 -->
<g id="edge22" class="edge">
<title>Node12&#45;&gt;Node17</title>
<path fill="none" stroke="#9a32cd" stroke-dasharray="5,2" d="M661.02,-399.23C680.69,-369.36 723.62,-310.46 775,-278.64 801.68,-262.12 811.62,-259.64 843,-259.64 843,-259.64 843,-259.64 1356,-259.64 1449.07,-259.64 1556.56,-232.19 1608.38,-217.18"/>
<polygon fill="#9a32cd" stroke="#9a32cd" points="657.95,-397.54 655.48,-407.84 663.83,-401.33 657.95,-397.54"/>
<text text-anchor="middle" x="1114.5" y="-262.64" font-family="Helvetica,sans-Serif" font-size="10.00"> _log</text>
</g>
<!-- Node13 -->
<g id="node13" class="node">
<title>Node13</title>
<g id="a_node13"><a xlink:title=" ">
<polygon fill="white" stroke="#bfbfbf" points="345,-402.64 345,-432.64 515,-432.64 515,-402.64 345,-402.64"/>
<text text-anchor="start" x="353" y="-420.64" font-family="Helvetica,sans-Serif" font-size="10.00">std::unique_ptr&lt; precice</text>
<text text-anchor="middle" x="430" y="-409.64" font-family="Helvetica,sans-Serif" font-size="10.00">::logging::Logger::LoggerImpl &gt;</text>
</a>
</g>
</g>
<!-- Node13&#45;&gt;Node12 -->
<g id="edge12" class="edge">
<title>Node13&#45;&gt;Node12</title>
<path fill="none" stroke="#9a32cd" stroke-dasharray="5,2" d="M525.26,-417.64C544.39,-417.64 564.12,-417.64 581.99,-417.64"/>
<polygon fill="#9a32cd" stroke="#9a32cd" points="525.01,-414.14 515.01,-417.64 525.01,-421.14 525.01,-414.14"/>
<text text-anchor="middle" x="548.5" y="-420.64" font-family="Helvetica,sans-Serif" font-size="10.00"> _impl</text>
</g>
<!-- Node14 -->
<g id="node14" class="node">
<title>Node14</title>
<g id="a_node14"><a xlink:href="classprecice_1_1logging_1_1Logger_1_1LoggerImpl.html" target="_top" xlink:title=" ">
<polygon fill="white" stroke="black" points="159,-402.64 159,-432.64 292,-432.64 292,-402.64 159,-402.64"/>
<text text-anchor="start" x="167" y="-420.64" font-family="Helvetica,sans-Serif" font-size="10.00">precice::logging::Logger</text>
<text text-anchor="middle" x="225.5" y="-409.64" font-family="Helvetica,sans-Serif" font-size="10.00">::LoggerImpl</text>
</a>
</g>
</g>
<!-- Node14&#45;&gt;Node13 -->
<g id="edge13" class="edge">
<title>Node14&#45;&gt;Node13</title>
<path fill="none" stroke="#9a32cd" stroke-dasharray="5,2" d="M302.62,-417.64C316.37,-417.64 330.78,-417.64 344.75,-417.64"/>
<polygon fill="#9a32cd" stroke="#9a32cd" points="302.25,-414.14 292.25,-417.64 302.25,-421.14 302.25,-414.14"/>
<text text-anchor="middle" x="318.5" y="-420.64" font-family="Helvetica,sans-Serif" font-size="10.00"> ptr</text>
</g>
<!-- Node15 -->
<g id="node15" class="node">
<title>Node15</title>
<g id="a_node15"><a xlink:title=" ">
<polygon fill="white" stroke="#bfbfbf" points="0,-402.64 0,-432.64 122,-432.64 122,-402.64 0,-402.64"/>
<text text-anchor="start" x="8" y="-420.64" font-family="Helvetica,sans-Serif" font-size="10.00">BoostLogger&lt; Logger</text>
<text text-anchor="middle" x="61" y="-409.64" font-family="Helvetica,sans-Serif" font-size="10.00">::LoggerImpl &gt;</text>
</a>
</g>
</g>
<!-- Node15&#45;&gt;Node14 -->
<g id="edge14" class="edge">
<title>Node15&#45;&gt;Node14</title>
<path fill="none" stroke="midnightblue" d="M132.33,-417.64C141.17,-417.64 150.19,-417.64 158.96,-417.64"/>
<polygon fill="midnightblue" stroke="midnightblue" points="132.05,-414.14 122.05,-417.64 132.05,-421.14 132.05,-414.14"/>
</g>
<!-- Node16 -->
<g id="node16" class="node">
<title>Node16</title>
<g id="a_node16"><a xlink:title=" ">
<polygon fill="white" stroke="#bfbfbf" points="1834.5,-168.64 1834.5,-198.64 1970.5,-198.64 1970.5,-168.64 1834.5,-168.64"/>
<text text-anchor="start" x="1842.5" y="-186.64" font-family="Helvetica,sans-Serif" font-size="10.00">std::shared_ptr&lt; precice</text>
<text text-anchor="middle" x="1902.5" y="-175.64" font-family="Helvetica,sans-Serif" font-size="10.00">::io::TXTTableWriter &gt;</text>
</a>
</g>
</g>
<!-- Node16&#45;&gt;Node1 -->
<g id="edge16" class="edge">
<title>Node16&#45;&gt;Node1</title>
<path fill="none" stroke="#9a32cd" stroke-dasharray="5,2" d="M1980.87,-178.64C2033.05,-175.27 2101.04,-170.88 2149.93,-167.72"/>
<polygon fill="#9a32cd" stroke="#9a32cd" points="1980.41,-175.17 1970.66,-179.3 1980.86,-182.15 1980.41,-175.17"/>
<text text-anchor="middle" x="2073" y="-189.64" font-family="Helvetica,sans-Serif" font-size="10.00"> _convergenceWriter</text>
<text text-anchor="middle" x="2073" y="-178.64" font-family="Helvetica,sans-Serif" font-size="10.00">_iterationsWriter</text>
</g>
<!-- Node17&#45;&gt;Node16 -->
<g id="edge17" class="edge">
<title>Node17&#45;&gt;Node16</title>
<path fill="none" stroke="#9a32cd" stroke-dasharray="5,2" d="M1724.57,-199.97C1759.94,-196.71 1800.65,-192.95 1834.1,-189.86"/>
<polygon fill="#9a32cd" stroke="#9a32cd" points="1723.91,-196.52 1714.27,-200.93 1724.55,-203.49 1723.91,-196.52"/>
<text text-anchor="middle" x="1766.5" y="-200.64" font-family="Helvetica,sans-Serif" font-size="10.00"> ptr</text>
</g>
<!-- Node18 -->
<g id="node18" class="node">
<title>Node18</title>
<g id="a_node18"><a xlink:title=" ">
<polygon fill="white" stroke="#bfbfbf" points="1297.5,-143.14 1297.5,-184.14 1412.5,-184.14 1412.5,-143.14 1297.5,-143.14"/>
<text text-anchor="start" x="1305.5" y="-172.14" font-family="Helvetica,sans-Serif" font-size="10.00">std::vector&lt; precice</text>
<text text-anchor="start" x="1305.5" y="-161.14" font-family="Helvetica,sans-Serif" font-size="10.00">::io::TXTTableWriter</text>
<text text-anchor="middle" x="1355" y="-150.14" font-family="Helvetica,sans-Serif" font-size="10.00">::Data &gt;</text>
</a>
</g>
</g>
<!-- Node18&#45;&gt;Node17 -->
<g id="edge18" class="edge">
<title>Node18&#45;&gt;Node17</title>
<path fill="none" stroke="#9a32cd" stroke-dasharray="5,2" d="M1422.8,-168.31C1457.61,-171.32 1500.77,-175.94 1539,-182.64 1561.67,-186.62 1586.79,-192.87 1606.25,-198.13"/>
<polygon fill="#9a32cd" stroke="#9a32cd" points="1423.01,-164.82 1412.75,-167.47 1422.43,-171.79 1423.01,-164.82"/>
<text text-anchor="middle" x="1497" y="-196.64" font-family="Helvetica,sans-Serif" font-size="10.00"> _writeIterator</text>
<text text-anchor="middle" x="1497" y="-185.64" font-family="Helvetica,sans-Serif" font-size="10.00">_data</text>
</g>
<!-- Node19 -->
<g id="node19" class="node">
<title>Node19</title>
<g id="a_node19"><a xlink:href="structprecice_1_1io_1_1TXTTableWriter_1_1Data.html" target="_top" xlink:title="Represents one data entry to be written.">
<polygon fill="white" stroke="black" points="1041,-143.64 1041,-173.64 1188,-173.64 1188,-143.64 1041,-143.64"/>
<text text-anchor="start" x="1049" y="-161.64" font-family="Helvetica,sans-Serif" font-size="10.00">precice::io::TXTTableWriter</text>
<text text-anchor="middle" x="1114.5" y="-150.64" font-family="Helvetica,sans-Serif" font-size="10.00">::Data</text>
</a>
</g>
</g>
<!-- Node19&#45;&gt;Node18 -->
<g id="edge19" class="edge">
<title>Node19&#45;&gt;Node18</title>
<path fill="none" stroke="#9a32cd" stroke-dasharray="5,2" d="M1198.05,-160.37C1230.82,-161.06 1267.67,-161.83 1297.33,-162.46"/>
<polygon fill="#9a32cd" stroke="#9a32cd" points="1198.1,-156.87 1188.03,-160.16 1197.95,-163.87 1198.1,-156.87"/>
<text text-anchor="middle" x="1230.5" y="-163.64" font-family="Helvetica,sans-Serif" font-size="10.00"> elements</text>
</g>
<!-- Node20 -->
<g id="node20" class="node">
<title>Node20</title>
<g id="a_node20"><a xlink:title="STL class.">
<polygon fill="white" stroke="#bfbfbf" points="811.5,-125.14 811.5,-144.14 876.5,-144.14 876.5,-125.14 811.5,-125.14"/>
<text text-anchor="middle" x="844" y="-132.14" font-family="Helvetica,sans-Serif" font-size="10.00">std::string</text>
</a>
</g>
</g>
<!-- Node20&#45;&gt;Node1 -->
<g id="edge29" class="edge">
<title>Node20&#45;&gt;Node1</title>
<path fill="none" stroke="#9a32cd" stroke-dasharray="5,2" d="M886.87,-134.51C963.49,-134.28 1131.42,-133.81 1273,-133.64 1345.89,-133.56 1364.12,-132.24 1437,-133.64 1702.05,-138.76 2017.73,-153.72 2149.91,-160.38"/>
<polygon fill="#9a32cd" stroke="#9a32cd" points="886.67,-131.01 876.68,-134.54 886.69,-138.01 886.67,-131.01"/>
<text text-anchor="middle" x="1497" y="-138.64" font-family="Helvetica,sans-Serif" font-size="10.00"> _localParticipant</text>
</g>
<!-- Node20&#45;&gt;Node19 -->
<g id="edge20" class="edge">
<title>Node20&#45;&gt;Node19</title>
<path fill="none" stroke="#9a32cd" stroke-dasharray="5,2" d="M886.79,-138.38C927.9,-142.05 991.51,-147.74 1040.9,-152.15"/>
<polygon fill="#9a32cd" stroke="#9a32cd" points="886.86,-134.87 876.59,-137.47 886.24,-141.84 886.86,-134.87"/>
<text text-anchor="middle" x="977" y="-152.64" font-family="Helvetica,sans-Serif" font-size="10.00"> name</text>
</g>
<!-- Node21 -->
<g id="node21" class="node">
<title>Node21</title>
<g id="a_node21"><a xlink:title="STL class.">
<polygon fill="white" stroke="#bfbfbf" points="596.5,-119.64 596.5,-149.64 700.5,-149.64 700.5,-119.64 596.5,-119.64"/>
<text text-anchor="start" x="604.5" y="-137.64" font-family="Helvetica,sans-Serif" font-size="10.00">std::basic_string&lt;</text>
<text text-anchor="middle" x="648.5" y="-126.64" font-family="Helvetica,sans-Serif" font-size="10.00"> char &gt;</text>
</a>
</g>
</g>
<!-- Node21&#45;&gt;Node20 -->
<g id="edge21" class="edge">
<title>Node21&#45;&gt;Node20</title>
<path fill="none" stroke="midnightblue" d="M710.74,-134.64C744.16,-134.64 784.16,-134.64 811.35,-134.64"/>
<polygon fill="midnightblue" stroke="midnightblue" points="710.59,-131.14 700.59,-134.64 710.59,-138.14 710.59,-131.14"/>
</g>
<!-- Node22 -->
<g id="node22" class="node">
<title>Node22</title>
<g id="a_node22"><a xlink:title="STL class.">
<polygon fill="white" stroke="#bfbfbf" points="1314,-203.14 1314,-222.14 1396,-222.14 1396,-203.14 1314,-203.14"/>
<text text-anchor="middle" x="1355" y="-210.14" font-family="Helvetica,sans-Serif" font-size="10.00">std::ofstream</text>
</a>
</g>
</g>
<!-- Node22&#45;&gt;Node17 -->
<g id="edge23" class="edge">
<title>Node22&#45;&gt;Node17</title>
<path fill="none" stroke="#9a32cd" stroke-dasharray="5,2" d="M1406.03,-211.76C1450.63,-210.97 1516.44,-209.81 1566.83,-208.92"/>
<polygon fill="#9a32cd" stroke="#9a32cd" points="1405.95,-208.26 1396.02,-211.94 1406.08,-215.26 1405.95,-208.26"/>
<text text-anchor="middle" x="1497" y="-213.64" font-family="Helvetica,sans-Serif" font-size="10.00"> _outputStream</text>
</g>
<!-- Node23 -->
<g id="node23" class="node">
<title>Node23</title>
<g id="a_node23"><a xlink:title="STL class.">
<polygon fill="white" stroke="#bfbfbf" points="1058,-192.64 1058,-222.64 1171,-222.64 1171,-192.64 1058,-192.64"/>
<text text-anchor="start" x="1066" y="-210.64" font-family="Helvetica,sans-Serif" font-size="10.00">std::basic_ofstream</text>
<text text-anchor="middle" x="1114.5" y="-199.64" font-family="Helvetica,sans-Serif" font-size="10.00">&lt; char &gt;</text>
</a>
</g>
</g>
<!-- Node23&#45;&gt;Node22 -->
<g id="edge24" class="edge">
<title>Node23&#45;&gt;Node22</title>
<path fill="none" stroke="midnightblue" d="M1181.11,-209.02C1223.67,-209.91 1277.74,-211.04 1313.98,-211.8"/>
<polygon fill="midnightblue" stroke="midnightblue" points="1181.19,-205.52 1171.12,-208.81 1181.04,-212.52 1181.19,-205.52"/>
</g>
<!-- Node24 -->
<g id="node24" class="node">
<title>Node24</title>
<g id="a_node24"><a xlink:title="STL class.">
<polygon fill="white" stroke="#bfbfbf" points="789.5,-192.64 789.5,-222.64 898.5,-222.64 898.5,-192.64 789.5,-192.64"/>
<text text-anchor="start" x="797.5" y="-210.64" font-family="Helvetica,sans-Serif" font-size="10.00">std::basic_ostream</text>
<text text-anchor="middle" x="844" y="-199.64" font-family="Helvetica,sans-Serif" font-size="10.00">&lt; Char &gt;</text>
</a>
</g>
</g>
<!-- Node24&#45;&gt;Node23 -->
<g id="edge25" class="edge">
<title>Node24&#45;&gt;Node23</title>
<path fill="none" stroke="midnightblue" d="M908.69,-207.64C953.96,-207.64 1014.18,-207.64 1057.59,-207.64"/>
<polygon fill="midnightblue" stroke="midnightblue" points="908.69,-204.14 898.69,-207.64 908.69,-211.14 908.69,-204.14"/>
</g>
<!-- Node25 -->
<g id="node25" class="node">
<title>Node25</title>
<g id="a_node25"><a xlink:title="STL class.">
<polygon fill="white" stroke="#bfbfbf" points="584.5,-198.14 584.5,-217.14 712.5,-217.14 712.5,-198.14 584.5,-198.14"/>
<text text-anchor="middle" x="648.5" y="-205.14" font-family="Helvetica,sans-Serif" font-size="10.00">std::basic_ios&lt; Char &gt;</text>
</a>
</g>
</g>
<!-- Node25&#45;&gt;Node24 -->
<g id="edge26" class="edge">
<title>Node25&#45;&gt;Node24</title>
<path fill="none" stroke="midnightblue" d="M722.64,-207.64C744.82,-207.64 768.76,-207.64 789.4,-207.64"/>
<polygon fill="midnightblue" stroke="midnightblue" points="722.59,-204.14 712.59,-207.64 722.59,-211.14 722.59,-204.14"/>
</g>
<!-- Node26 -->
<g id="node26" class="node">
<title>Node26</title>
<g id="a_node26"><a xlink:title="STL class.">
<polygon fill="white" stroke="#bfbfbf" points="390,-198.14 390,-217.14 470,-217.14 470,-198.14 390,-198.14"/>
<text text-anchor="middle" x="430" y="-205.14" font-family="Helvetica,sans-Serif" font-size="10.00">std::ios_base</text>
</a>
</g>
</g>
<!-- Node26&#45;&gt;Node25 -->
<g id="edge27" class="edge">
<title>Node26&#45;&gt;Node25</title>
<path fill="none" stroke="midnightblue" d="M480.3,-207.64C511.15,-207.64 551.21,-207.64 584.38,-207.64"/>
<polygon fill="midnightblue" stroke="midnightblue" points="480.21,-204.14 470.21,-207.64 480.21,-211.14 480.21,-204.14"/>
</g>
<!-- Node27 -->
<g id="node27" class="node">
<title>Node27</title>
<g id="a_node27"><a xlink:title=" ">
<polygon fill="white" stroke="#bfbfbf" points="1849.5,-89.14 1849.5,-108.14 1955.5,-108.14 1955.5,-89.14 1849.5,-89.14"/>
<text text-anchor="middle" x="1902.5" y="-96.14" font-family="Helvetica,sans-Serif" font-size="10.00">std::set&lt; Action &gt;</text>
</a>
</g>
</g>
<!-- Node27&#45;&gt;Node1 -->
<g id="edge28" class="edge">
<title>Node27&#45;&gt;Node1</title>
<path fill="none" stroke="#9a32cd" stroke-dasharray="5,2" d="M1965.98,-88.62C2012.97,-83.57 2078.24,-81.94 2132,-100.64 2159.43,-110.19 2184.76,-133.12 2199.56,-148.52"/>
<polygon fill="#9a32cd" stroke="#9a32cd" points="1965.47,-85.15 1955.94,-89.78 1966.27,-92.11 1965.47,-85.15"/>
<text text-anchor="middle" x="2073" y="-114.64" font-family="Helvetica,sans-Serif" font-size="10.00"> _fulfilledActions</text>
<text text-anchor="middle" x="2073" y="-103.64" font-family="Helvetica,sans-Serif" font-size="10.00">_requiredActions</text>
</g>
<!-- Node28 -->
<g id="node28" class="node">
<title>Node28</title>
<g id="a_node28"><a xlink:title=" ">
<polygon fill="white" stroke="#bfbfbf" points="1829.5,-39.64 1829.5,-69.64 1975.5,-69.64 1975.5,-39.64 1829.5,-39.64"/>
<text text-anchor="start" x="1837.5" y="-57.64" font-family="Helvetica,sans-Serif" font-size="10.00">std::map&lt; int, PtrCoupling</text>
<text text-anchor="middle" x="1902.5" y="-46.64" font-family="Helvetica,sans-Serif" font-size="10.00">Data &gt;</text>
</a>
</g>
</g>
<!-- Node28&#45;&gt;Node1 -->
<g id="edge30" class="edge">
<title>Node28&#45;&gt;Node1</title>
<path fill="none" stroke="#9a32cd" stroke-dasharray="5,2" d="M1985.78,-45.03C2031.14,-43.31 2087.18,-47.3 2132,-69.64 2166.7,-86.95 2192.65,-126.39 2205,-148.28"/>
<polygon fill="#9a32cd" stroke="#9a32cd" points="1985.5,-41.53 1975.68,-45.51 1985.83,-48.53 1985.5,-41.53"/>
<text text-anchor="middle" x="2073" y="-72.64" font-family="Helvetica,sans-Serif" font-size="10.00"> _allData</text>
</g>
<!-- Node29 -->
<g id="node29" class="node">
<title>Node29</title>
<g id="a_node29"><a xlink:title="STL class.">
<polygon fill="white" stroke="#bfbfbf" points="1581.5,-45.14 1581.5,-64.14 1699.5,-64.14 1699.5,-45.14 1581.5,-45.14"/>
<text text-anchor="middle" x="1640.5" y="-52.14" font-family="Helvetica,sans-Serif" font-size="10.00">std::shared_ptr&lt; T &gt;</text>
</a>
</g>
</g>
<!-- Node29&#45;&gt;Node28 -->
<g id="edge31" class="edge">
<title>Node29&#45;&gt;Node28</title>
<path fill="none" stroke="#9a32cd" stroke-dasharray="5,2" d="M1709.66,-54.64C1746.45,-54.64 1791.85,-54.64 1829.25,-54.64"/>
<polygon fill="#9a32cd" stroke="#9a32cd" points="1709.53,-51.14 1699.53,-54.64 1709.53,-58.14 1709.53,-51.14"/>
<text text-anchor="middle" x="1766.5" y="-57.64" font-family="Helvetica,sans-Serif" font-size="10.00"> elements</text>
</g>
<!-- Node30 -->
<g id="node30" class="node">
<title>Node30</title>
<g id="a_node30"><a xlink:title=" ">
<polygon fill="white" stroke="#bfbfbf" points="1340.5,-45.14 1340.5,-64.14 1369.5,-64.14 1369.5,-45.14 1340.5,-45.14"/>
<text text-anchor="middle" x="1355" y="-52.14" font-family="Helvetica,sans-Serif" font-size="10.00">T</text>
</a>
</g>
</g>
<!-- Node30&#45;&gt;Node29 -->
<g id="edge32" class="edge">
<title>Node30&#45;&gt;Node29</title>
<path fill="none" stroke="#9a32cd" stroke-dasharray="5,2" d="M1379.7,-54.64C1423.7,-54.64 1519.19,-54.64 1581.34,-54.64"/>
<polygon fill="#9a32cd" stroke="#9a32cd" points="1379.67,-51.14 1369.67,-54.64 1379.67,-58.14 1379.67,-51.14"/>
<text text-anchor="middle" x="1497" y="-57.64" font-family="Helvetica,sans-Serif" font-size="10.00"> ptr</text>
</g>
<!-- Node31 -->
<g id="node31" class="node">
<title>Node31</title>
<g id="a_node31"><a xlink:title=" ">
<polygon fill="white" stroke="#bfbfbf" points="1816,-1.14 1816,-20.14 1989,-20.14 1989,-1.14 1816,-1.14"/>
<text text-anchor="middle" x="1902.5" y="-8.14" font-family="Helvetica,sans-Serif" font-size="10.00">std::shared_ptr&lt; Acceleration &gt;</text>
</a>
</g>
</g>
<!-- Node31&#45;&gt;Node1 -->
<g id="edge33" class="edge">
<title>Node31&#45;&gt;Node1</title>
<path fill="none" stroke="#9a32cd" stroke-dasharray="5,2" d="M1982.65,-0.59C2029.39,1.42 2087.87,-3.25 2132,-30.64 2176.33,-58.16 2199.86,-119.78 2208.75,-148.44"/>
<polygon fill="#9a32cd" stroke="#9a32cd" points="1982.35,2.9 1972.55,-1.13 1982.73,-4.09 1982.35,2.9"/>
<text text-anchor="middle" x="2073" y="-33.64" font-family="Helvetica,sans-Serif" font-size="10.00"> _acceleration</text>
</g>
</g>
</svg>
        <g id="navigator" transform="translate(0 0)" fill="#404254">
                <rect fill="#f2f5e9" fill-opacity="0.5" stroke="#606060" stroke-width=".5" x="0" y="0" width="60" height="60"/>
                <use id="zoomplus" xlink:href="#zoomPlus" x="17" y="9" onmousedown="handleZoom(evt,'in')"/>
                <use id="zoomminus" xlink:href="#zoomMin" x="42" y="9" onmousedown="handleZoom(evt,'out')"/>
                <use id="reset" xlink:href="#resetDef" x="30" y="36" onmousedown="handleReset()"/>
                <g id="arrowUp" xlink:href="#dirArrow" transform="translate(30 24)" onmousedown="handlePan(0,-1)">
                  <use xlink:href="#rim" fill="#404040">
                        <set attributeName="fill" to="#808080" begin="arrowUp.mouseover" end="arrowUp.mouseout"/>
                  </use>
                  <path fill="none" stroke="white" stroke-width="1.5" d="M0,-3.0v7 M-2.5,-0.5L0,-3.0L2.5,-0.5"/>
                </g>
                <g id="arrowRight" xlink:href="#dirArrow" transform="rotate(90) translate(36 -43)" onmousedown="handlePan(1,0)">
                  <use xlink:href="#rim" fill="#404040">
                        <set attributeName="fill" to="#808080" begin="arrowRight.mouseover" end="arrowRight.mouseout"/>
                  </use>
                  <path fill="none" stroke="white" stroke-width="1.5" d="M0,-3.0v7 M-2.5,-0.5L0,-3.0L2.5,-0.5"/>
                </g>
                <g id="arrowDown" xlink:href="#dirArrow" transform="rotate(180) translate(-30 -48)" onmousedown="handlePan(0,1)">
                  <use xlink:href="#rim" fill="#404040">
                        <set attributeName="fill" to="#808080" begin="arrowDown.mouseover" end="arrowDown.mouseout"/>
                  </use>
                  <path fill="none" stroke="white" stroke-width="1.5" d="M0,-3.0v7 M-2.5,-0.5L0,-3.0L2.5,-0.5"/>
                </g>
                <g id="arrowLeft" xlink:href="#dirArrow" transform="rotate(270) translate(-36 17)" onmousedown="handlePan(-1,0)">
                  <use xlink:href="#rim" fill="#404040">
                        <set attributeName="fill" to="#808080" begin="arrowLeft.mouseover" end="arrowLeft.mouseout"/>
                  </use>
                  <path fill="none" stroke="white" stroke-width="1.5" d="M0,-3.0v7 M-2.5,-0.5L0,-3.0L2.5,-0.5"/>
                </g>
        </g>
        <svg viewBox="0 0 15 15" width="100%" height="30px" preserveAspectRatio="xMaxYMin meet">
         <g id="arrow_out" transform="scale(0.3 0.3)">
          <a xlink:href="classprecice_1_1cplscheme_1_1BaseCouplingScheme__coll__graph_org.svg" target="_base">
           <rect id="button" ry="5" rx="5" y="6" x="6" height="38" width="38"
                fill="#f2f5e9" fill-opacity="0.5" stroke="#606060" stroke-width="1.0"/>
           <path id="arrow"
             d="M 11.500037,31.436501 C 11.940474,20.09759 22.043105,11.32322 32.158766,21.979434 L 37.068811,17.246167 C 37.068811,17.246167 37.088388,32 37.088388,32 L 22.160133,31.978069 C 22.160133,31.978069 26.997745,27.140456 26.997745,27.140456 C 18.528582,18.264221 13.291696,25.230495 11.500037,31.436501 z"
             style="fill:#404040;"/>
          </a>
         </g>
        </svg>
</svg>
