<?xml version="1.0" encoding="UTF-8" standalone="no"?>
<!DOCTYPE svg PUBLIC "-//W3C//DTD SVG 1.1//EN"
 "http://www.w3.org/Graphics/SVG/1.1/DTD/svg11.dtd">
<!-- Generated by graphviz version 2.43.0 (0)
 -->
<!-- Title: precice::cplscheme::BaseCouplingScheme::storeIteration Pages: 1 -->
<svg width="321pt" height="145pt"
 viewBox="0.00 0.00 321.00 145.00" xmlns="http://www.w3.org/2000/svg" xmlns:xlink="http://www.w3.org/1999/xlink">
<g id="graph0" class="graph" transform="scale(1 1) rotate(0) translate(4 141)">
<title>precice::cplscheme::BaseCouplingScheme::storeIteration</title>
<!-- Node1 -->
<g id="Node000001" class="node">
<title>Node1</title>
<g id="a_Node000001"><a xlink:title="used for storing all Data at end of doImplicitStep for later reference.">
<polygon fill="#999999" stroke="#666666" points="128,-100 0,-100 0,-59 128,-59 128,-100"/>
<text text-anchor="start" x="8" y="-88" font-family="Helvetica,sans-Serif" font-size="10.00">precice::cplscheme</text>
<text text-anchor="start" x="8" y="-77" font-family="Helvetica,sans-Serif" font-size="10.00">::BaseCouplingScheme</text>
<text text-anchor="middle" x="64" y="-66" font-family="Helvetica,sans-Serif" font-size="10.00">::storeIteration</text>
</a>
</g>
</g>
<!-- Node2 -->
<g id="Node000002" class="node">
<title>Node2</title>
<g id="a_Node000002"><a target="_parent" xlink:href="http://en.cppreference.com/w/cpp/container/map/empty.html#" xlink:title=" ">
<polygon fill="white" stroke="#666666" points="287,-137 190,-137 190,-118 287,-118 287,-137"/>
<text text-anchor="middle" x="238.5" y="-125" font-family="Helvetica,sans-Serif" font-size="10.00">std::map::empty</text>
</a>
</g>
</g>
<!-- Node1&#45;&gt;Node2 -->
<g id="edge1_Node000001_Node000002" class="edge">
<title>Node1&#45;&gt;Node2</title>
<g id="a_edge1_Node000001_Node000002"><a xlink:title=" ">
<path fill="none" stroke="#63b8ff" d="M128.23,-99.22C140.08,-102.75 152.39,-106.32 164,-109.5 171.48,-111.55 179.43,-113.61 187.22,-115.57"/>
<polygon fill="#63b8ff" stroke="#63b8ff" points="186.41,-118.98 196.96,-117.99 188.1,-112.18 186.41,-118.98"/>
</a>
</g>
</g>
<!-- Node3 -->
<g id="Node000003" class="node">
<title>Node3</title>
<g id="a_Node000003"><a xlink:href="classprecice_1_1cplscheme_1_1BaseCouplingScheme.html#a4dcb97e3ef79b1cca6af577f9cbbec19" target="_top" xlink:title="Function to determine whether coupling scheme is an implicit coupling scheme.">
<polygon fill="white" stroke="#666666" points="313,-100 164,-100 164,-59 313,-59 313,-100"/>
<text text-anchor="start" x="172" y="-88" font-family="Helvetica,sans-Serif" font-size="10.00">precice::cplscheme</text>
<text text-anchor="start" x="172" y="-77" font-family="Helvetica,sans-Serif" font-size="10.00">::BaseCouplingScheme</text>
<text text-anchor="middle" x="238.5" y="-66" font-family="Helvetica,sans-Serif" font-size="10.00">::isImplicitCouplingScheme</text>
</a>
</g>
</g>
<!-- Node1&#45;&gt;Node3 -->
<g id="edge2_Node000001_Node000003" class="edge">
<title>Node1&#45;&gt;Node3</title>
<g id="a_edge2_Node000001_Node000003"><a xlink:title=" ">
<path fill="none" stroke="#63b8ff" d="M128.25,-79.5C136.55,-79.5 145.15,-79.5 153.71,-79.5"/>
<polygon fill="#63b8ff" stroke="#63b8ff" points="153.73,-83 163.73,-79.5 153.73,-76 153.73,-83"/>
</a>
</g>
</g>
<!-- Node4 -->
<g id="Node000004" class="node">
<title>Node4</title>
<g id="a_Node000004"><a xlink:href="classprecice_1_1cplscheme_1_1BaseCouplingScheme.html#addc7ba5d118bc95ea2ea6ea5f4c73a61" target="_top" xlink:title="Returns the name of the local participant.">
<polygon fill="white" stroke="#666666" points="302.5,-41 174.5,-41 174.5,0 302.5,0 302.5,-41"/>
<text text-anchor="start" x="182.5" y="-29" font-family="Helvetica,sans-Serif" font-size="10.00">precice::cplscheme</text>
<text text-anchor="start" x="182.5" y="-18" font-family="Helvetica,sans-Serif" font-size="10.00">::BaseCouplingScheme</text>
<text text-anchor="middle" x="238.5" y="-7" font-family="Helvetica,sans-Serif" font-size="10.00">::localParticipant</text>
</a>
</g>
</g>
<!-- Node1&#45;&gt;Node4 -->
<g id="edge3_Node000001_Node000004" class="edge">
<title>Node1&#45;&gt;Node4</title>
<g id="a_edge3_Node000001_Node000004"><a xlink:title=" ">
<path fill="none" stroke="#63b8ff" d="M125.33,-58.86C139.07,-54.17 153.77,-49.14 167.86,-44.32"/>
<polygon fill="#63b8ff" stroke="#63b8ff" points="169.16,-47.57 177.49,-41.02 166.9,-40.95 169.16,-47.57"/>
</a>
</g>
</g>
</g>
</svg>
