<?xml version="1.0" encoding="UTF-8" standalone="no"?>
<!DOCTYPE svg PUBLIC "-//W3C//DTD SVG 1.1//EN"
 "http://www.w3.org/Graphics/SVG/1.1/DTD/svg11.dtd">
<!-- Generated by graphviz version 2.43.0 (0)
 -->
<!-- Title: precice::mesh::Data Pages: 1 -->
<!--zoomable 256 -->

<svg id="main" version="1.1" xmlns="http://www.w3.org/2000/svg" xmlns:xlink="http://www.w3.org/1999/xlink" xml:space="preserve" onload="init(evt)">

<style type="text/css"><![CDATA[
.node, .edge {opacity: 0.7;}
.node.selected, .edge.selected {opacity: 1;}
.edge:hover path { stroke: red; }
.edge:hover polygon { stroke: red; fill: red; }
]]></style>

<defs>
  <circle id="rim" cx="0" cy="0" r="7"/>
  <circle id="rim2" cx="0" cy="0" r="3.5"/>
  <g id="zoomPlus">
    <use xlink:href="#rim" fill="#404040"><set attributeName="fill" to="#808080" begin="zoomplus.mouseover" end="zoomplus.mouseout"/></use>
    <path d="M-4,0h8M0,-4v8" fill="none" stroke="white" stroke-width="1.5" pointer-events="none"/>
  </g>
  <g id="zoomMin">
    <use xlink:href="#rim" fill="#404040"><set attributeName="fill" to="#808080" begin="zoomminus.mouseover" end="zoomminus.mouseout"/></use>
    <path d="M-4,0h8" fill="none" stroke="white" stroke-width="1.5" pointer-events="none"/>
  </g>
  <g id="arrowUp" transform="translate(30 24)">
    <use xlink:href="#rim"/>
    <path pointer-events="none" fill="none" stroke="white" stroke-width="1.5" d="M0,-3.0v7 M-2.5,-0.5L0,-3.0L2.5,-0.5"/>
  </g>
  <g id="arrowRight" transform="rotate(90) translate(36 -43)">
    <use xlink:href="#rim"/>
    <path pointer-events="none" fill="none" stroke="white" stroke-width="1.5" d="M0,-3.0v7 M-2.5,-0.5L0,-3.0L2.5,-0.5"/>
  </g>
  <g id="arrowDown" transform="rotate(180) translate(-30 -48)">
    <use xlink:href="#rim"/>
    <path pointer-events="none" fill="none" stroke="white" stroke-width="1.5" d="M0,-3.0v7 M-2.5,-0.5L0,-3.0L2.5,-0.5"/>
  </g>
  <g id="arrowLeft" transform="rotate(270) translate(-36 17)">
    <use xlink:href="#rim"/>
    <path pointer-events="none" fill="none" stroke="white" stroke-width="1.5" d="M0,-3.0v7 M-2.5,-0.5L0,-3.0L2.5,-0.5"/>
  </g>
  <g id="resetDef">
    <use xlink:href="#rim2" fill="#404040"><set attributeName="fill" to="#808080" begin="reset.mouseover" end="reset.mouseout"/></use>
  </g>
</defs>
<script type="application/ecmascript">
var viewWidth = 1243;
var viewHeight = 256;
var sectionId = 'dynsection-0';
</script>
<script type="application/ecmascript" xlink:href="svg.min.js"/>
<svg id="graph" class="graph">
<g id="viewport">
<title>precice::mesh::Data</title>
<!-- Node1 -->
<g id="Node000001" class="node">
<title>Node1</title>
<g id="a_Node000001"><a xlink:title="Describes a set of data values belonging to the vertices of a mesh.">
<polygon fill="#999999" stroke="#666666" points="1235,-106.5 1121,-106.5 1121,-87.5 1235,-87.5 1235,-106.5"/>
<text text-anchor="middle" x="1178" y="-94.5" font-family="Helvetica,sans-Serif" font-size="10.00">precice::mesh::Data</text>
</a>
</g>
</g>
<!-- Node2 -->
<g id="Node000002" class="node">
<title>Node2</title>
<g id="a_Node000002"><a xlink:href="classprecice_1_1logging_1_1Logger.html" target="_top" xlink:title="This class provides a lightweight logger.">
<polygon fill="white" stroke="#666666" points="762,-87.5 629,-87.5 629,-68.5 762,-68.5 762,-87.5"/>
<text text-anchor="middle" x="695.5" y="-75.5" font-family="Helvetica,sans-Serif" font-size="10.00">precice::logging::Logger</text>
</a>
</g>
</g>
<!-- Node2&#45;&gt;Node1 -->
<g id="edge1_Node000001_Node000002" class="edge">
<title>Node2&#45;&gt;Node1</title>
<g id="a_edge1_Node000001_Node000002"><a xlink:title=" ">
<path fill="none" stroke="#9a32cd" stroke-dasharray="5,2" d="M772.43,-80.59C838.81,-82.89 937.8,-86.45 1024,-90 1056.01,-91.32 1091.79,-92.95 1120.69,-94.3"/>
<polygon fill="#9a32cd" stroke="#9a32cd" points="772.18,-77.08 762.06,-80.23 771.93,-84.07 772.18,-77.08"/>
</a>
</g>
<text text-anchor="start" x="945.5" y="-95.5" font-family="Helvetica,sans-Serif" font-size="10.00" fill="grey">_log</text>
</g>
<!-- Node6 -->
<g id="Node000006" class="node">
<title>Node6</title>
<g id="a_Node000006"><a xlink:href="classprecice_1_1time_1_1Waveform.html" target="_top" xlink:title=" ">
<polygon fill="white" stroke="#666666" points="1024,-134.5 887,-134.5 887,-115.5 1024,-115.5 1024,-134.5"/>
<text text-anchor="middle" x="955.5" y="-122.5" font-family="Helvetica,sans-Serif" font-size="10.00">precice::time::Waveform</text>
</a>
</g>
</g>
<!-- Node2&#45;&gt;Node6 -->
<g id="edge9_Node000006_Node000002" class="edge">
<title>Node2&#45;&gt;Node6</title>
<g id="a_edge9_Node000006_Node000002"><a xlink:title=" ">
<path fill="none" stroke="#9a32cd" stroke-dasharray="5,2" d="M771.08,-89.14C801.51,-93.94 837.01,-99.85 869,-106 883.63,-108.81 899.59,-112.25 913.72,-115.43"/>
<polygon fill="#9a32cd" stroke="#9a32cd" points="771.38,-85.65 760.96,-87.56 770.3,-92.56 771.38,-85.65"/>
</a>
</g>
<text text-anchor="start" x="814.5" y="-111.5" font-family="Helvetica,sans-Serif" font-size="10.00" fill="grey">_log</text>
</g>
<!-- Node3 -->
<g id="Node000003" class="node">
<title>Node3</title>
<g id="a_Node000003"><a target="_parent" xlink:href="http://en.cppreference.com/w/cpp/memory/unique_ptr.html" xlink:title=" ">
<polygon fill="white" stroke="#666666" points="541,-93 371,-93 371,-63 541,-63 541,-93"/>
<text text-anchor="start" x="379" y="-81" font-family="Helvetica,sans-Serif" font-size="10.00">std::unique_ptr&lt; precice</text>
<text text-anchor="middle" x="456" y="-70" font-family="Helvetica,sans-Serif" font-size="10.00">::logging::Logger::LoggerImpl &gt;</text>
</a>
</g>
</g>
<!-- Node3&#45;&gt;Node2 -->
<g id="edge2_Node000002_Node000003" class="edge">
<title>Node3&#45;&gt;Node2</title>
<g id="a_edge2_Node000002_Node000003"><a xlink:title=" ">
<path fill="none" stroke="#9a32cd" stroke-dasharray="5,2" d="M551.31,-78C577.28,-78 604.88,-78 628.85,-78"/>
<polygon fill="#9a32cd" stroke="#9a32cd" points="551.07,-74.5 541.07,-78 551.07,-81.5 551.07,-74.5"/>
</a>
</g>
<text text-anchor="start" x="571" y="-83.5" font-family="Helvetica,sans-Serif" font-size="10.00" fill="grey">_impl</text>
</g>
<!-- Node4 -->
<g id="Node000004" class="node">
<title>Node4</title>
<g id="a_Node000004"><a xlink:href="classprecice_1_1logging_1_1Logger_1_1LoggerImpl.html" target="_top" xlink:title=" ">
<polygon fill="white" stroke="#666666" points="292,-93 159,-93 159,-63 292,-63 292,-93"/>
<text text-anchor="start" x="167" y="-81" font-family="Helvetica,sans-Serif" font-size="10.00">precice::logging::Logger</text>
<text text-anchor="middle" x="225.5" y="-70" font-family="Helvetica,sans-Serif" font-size="10.00">::LoggerImpl</text>
</a>
</g>
</g>
<!-- Node4&#45;&gt;Node3 -->
<g id="edge3_Node000003_Node000004" class="edge">
<title>Node4&#45;&gt;Node3</title>
<g id="a_edge3_Node000003_Node000004"><a xlink:title=" ">
<path fill="none" stroke="#9a32cd" stroke-dasharray="5,2" d="M302.53,-78C324.47,-78 348.53,-78 370.93,-78"/>
<polygon fill="#9a32cd" stroke="#9a32cd" points="302.29,-74.5 292.29,-78 302.29,-81.5 302.29,-74.5"/>
</a>
</g>
<text text-anchor="start" x="324.5" y="-83.5" font-family="Helvetica,sans-Serif" font-size="10.00" fill="grey">ptr</text>
</g>
<!-- Node5 -->
<g id="Node000005" class="node">
<title>Node5</title>
<g id="a_Node000005"><a xlink:title=" ">
<polygon fill="white" stroke="#666666" points="122,-93 0,-93 0,-63 122,-63 122,-93"/>
<text text-anchor="start" x="8" y="-81" font-family="Helvetica,sans-Serif" font-size="10.00">BoostLogger&lt; Logger</text>
<text text-anchor="middle" x="61" y="-70" font-family="Helvetica,sans-Serif" font-size="10.00">::LoggerImpl &gt;</text>
</a>
</g>
</g>
<!-- Node5&#45;&gt;Node4 -->
<g id="edge4_Node000004_Node000005" class="edge">
<title>Node5&#45;&gt;Node4</title>
<g id="a_edge4_Node000004_Node000005"><a xlink:title=" ">
<path fill="none" stroke="#63b8ff" d="M132.33,-78C141.17,-78 150.19,-78 158.96,-78"/>
<polygon fill="#63b8ff" stroke="#63b8ff" points="132.05,-74.5 122.05,-78 132.05,-81.5 132.05,-74.5"/>
</a>
</g>
</g>
<!-- Node6&#45;&gt;Node1 -->
<g id="edge5_Node000001_Node000006" class="edge">
<title>Node6&#45;&gt;Node1</title>
<g id="a_edge5_Node000001_Node000006"><a xlink:title=" ">
<path fill="none" stroke="#9a32cd" stroke-dasharray="5,2" d="M1034.13,-115.14C1062.76,-111.51 1094.61,-107.46 1120.96,-104.12"/>
<polygon fill="#9a32cd" stroke="#9a32cd" points="1033.64,-111.68 1024.16,-116.41 1034.52,-118.62 1033.64,-111.68"/>
</a>
</g>
<text text-anchor="start" x="1045.5" y="-118.5" font-family="Helvetica,sans-Serif" font-size="10.00" fill="grey">_waveform</text>
</g>
<!-- Node7 -->
<g id="Node000007" class="node">
<title>Node7</title>
<g id="a_Node000007"><a target="_parent" xlink:href="http://en.cppreference.com/w/cpp/container/vector.html" xlink:title=" ">
<polygon fill="white" stroke="#666666" points="753,-195 638,-195 638,-165 753,-165 753,-195"/>
<text text-anchor="start" x="646" y="-183" font-family="Helvetica,sans-Serif" font-size="10.00">std::vector&lt; precice</text>
<text text-anchor="middle" x="695.5" y="-172" font-family="Helvetica,sans-Serif" font-size="10.00">::time::Stample &gt;</text>
</a>
</g>
</g>
<!-- Node7&#45;&gt;Node6 -->
<g id="edge6_Node000006_Node000007" class="edge">
<title>Node7&#45;&gt;Node6</title>
<g id="a_edge6_Node000006_Node000007"><a xlink:title=" ">
<path fill="none" stroke="#9a32cd" stroke-dasharray="5,2" d="M763.32,-170.17C795.45,-164.99 834.4,-158.04 869,-150 887.83,-145.62 908.66,-139.56 925.04,-134.5"/>
<polygon fill="#9a32cd" stroke="#9a32cd" points="762.47,-166.76 753.15,-171.79 763.57,-173.68 762.47,-166.76"/>
</a>
</g>
<text text-anchor="start" x="783.5" y="-171.5" font-family="Helvetica,sans-Serif" font-size="10.00" fill="grey">_stampleStorage</text>
</g>
<!-- Node8 -->
<g id="Node000008" class="node">
<title>Node8</title>
<g id="a_Node000008"><a xlink:href="structprecice_1_1time_1_1Stample.html" target="_top" xlink:title="Stample containing timestampled Sample.">
<polygon fill="white" stroke="#666666" points="519.5,-196.5 392.5,-196.5 392.5,-177.5 519.5,-177.5 519.5,-196.5"/>
<text text-anchor="middle" x="456" y="-184.5" font-family="Helvetica,sans-Serif" font-size="10.00">precice::time::Stample</text>
</a>
</g>
</g>
<!-- Node8&#45;&gt;Node7 -->
<g id="edge7_Node000007_Node000008" class="edge">
<title>Node8&#45;&gt;Node7</title>
<g id="a_edge7_Node000007_Node000008"><a xlink:title=" ">
<path fill="none" stroke="#9a32cd" stroke-dasharray="5,2" d="M529.81,-184.85C564.58,-183.83 605.56,-182.62 637.94,-181.67"/>
<polygon fill="#9a32cd" stroke="#9a32cd" points="529.6,-181.36 519.71,-185.15 529.81,-188.36 529.6,-181.36"/>
</a>
</g>
<text text-anchor="start" x="562" y="-188.5" font-family="Helvetica,sans-Serif" font-size="10.00" fill="grey">elements</text>
</g>
<!-- Node9 -->
<g id="Node000009" class="node">
<title>Node9</title>
<g id="a_Node000009"><a xlink:href="structprecice_1_1time_1_1Sample.html" target="_top" xlink:title=" ">
<polygon fill="white" stroke="#666666" points="287,-221.5 164,-221.5 164,-202.5 287,-202.5 287,-221.5"/>
<text text-anchor="middle" x="225.5" y="-209.5" font-family="Helvetica,sans-Serif" font-size="10.00">precice::time::Sample</text>
</a>
</g>
</g>
<!-- Node9&#45;&gt;Node1 -->
<g id="edge13_Node000001_Node000009" class="edge">
<title>Node9&#45;&gt;Node1</title>
<g id="a_edge13_Node000001_Node000009"><a xlink:title=" ">
<path fill="none" stroke="#9a32cd" stroke-dasharray="5,2" d="M296.98,-220.9C342.08,-225.84 401.89,-231 455,-231 455,-231 455,-231 956.5,-231 1052.36,-231 1142.04,-137.36 1168.88,-106.64"/>
<polygon fill="#9a32cd" stroke="#9a32cd" points="297.33,-217.42 287,-219.78 296.55,-224.37 297.33,-217.42"/>
</a>
</g>
<text text-anchor="start" x="674.5" y="-236.5" font-family="Helvetica,sans-Serif" font-size="10.00" fill="grey">_sample</text>
</g>
<!-- Node9&#45;&gt;Node8 -->
<g id="edge8_Node000008_Node000009" class="edge">
<title>Node9&#45;&gt;Node8</title>
<g id="a_edge8_Node000008_Node000009"><a xlink:title=" ">
<path fill="none" stroke="#9a32cd" stroke-dasharray="5,2" d="M297.22,-201.57C301.54,-201.01 305.83,-200.49 310,-200 336.99,-196.85 366.88,-194.06 392.47,-191.87"/>
<polygon fill="#9a32cd" stroke="#9a32cd" points="296.56,-198.13 287.11,-202.9 297.48,-205.07 296.56,-198.13"/>
</a>
</g>
<text text-anchor="start" x="313.5" y="-205.5" font-family="Helvetica,sans-Serif" font-size="10.00" fill="grey">sample</text>
</g>
<!-- Node10 -->
<g id="Node000010" class="node">
<title>Node10</title>
<g id="a_Node000010"><a target="_parent" xlink:href="http://en.cppreference.com/w/cpp/utility/optional.html" xlink:title=" ">
<polygon fill="white" stroke="#666666" points="757.5,-147 633.5,-147 633.5,-117 757.5,-117 757.5,-147"/>
<text text-anchor="start" x="641.5" y="-135" font-family="Helvetica,sans-Serif" font-size="10.00">std::optional&lt; precice</text>
<text text-anchor="middle" x="695.5" y="-124" font-family="Helvetica,sans-Serif" font-size="10.00">::math::Bspline &gt;</text>
</a>
</g>
</g>
<!-- Node10&#45;&gt;Node6 -->
<g id="edge10_Node000006_Node000010" class="edge">
<title>Node10&#45;&gt;Node6</title>
<g id="a_edge10_Node000006_Node000010"><a xlink:title=" ">
<path fill="none" stroke="#9a32cd" stroke-dasharray="5,2" d="M767.91,-130.06C805.12,-129.05 850.37,-127.83 887,-126.83"/>
<polygon fill="#9a32cd" stroke="#9a32cd" points="767.54,-126.57 757.64,-130.34 767.73,-133.57 767.54,-126.57"/>
</a>
</g>
<text text-anchor="start" x="804.5" y="-134.5" font-family="Helvetica,sans-Serif" font-size="10.00" fill="grey">_bspline</text>
</g>
<!-- Node11 -->
<g id="Node000011" class="node">
<title>Node11</title>
<g id="a_Node000011"><a target="_parent" xlink:href="http://en.cppreference.com/w/cpp/string/basic_string.html" xlink:title=" ">
<polygon fill="white" stroke="#666666" points="988,-24.5 923,-24.5 923,-5.5 988,-5.5 988,-24.5"/>
<text text-anchor="middle" x="955.5" y="-12.5" font-family="Helvetica,sans-Serif" font-size="10.00">std::string</text>
</a>
</g>
</g>
<!-- Node11&#45;&gt;Node1 -->
<g id="edge11_Node000001_Node000011" class="edge">
<title>Node11&#45;&gt;Node1</title>
<g id="a_edge11_Node000001_Node000011"><a xlink:title=" ">
<path fill="none" stroke="#9a32cd" stroke-dasharray="5,2" d="M998.48,-12.49C1028.77,-12.26 1069.99,-15.3 1103,-30 1132.13,-42.97 1157.61,-71.91 1169.65,-87.16"/>
<polygon fill="#9a32cd" stroke="#9a32cd" points="998.17,-8.99 988.25,-12.69 998.31,-15.99 998.17,-8.99"/>
</a>
</g>
<text text-anchor="start" x="1055.5" y="-35.5" font-family="Helvetica,sans-Serif" font-size="10.00" fill="grey">_name</text>
</g>
<!-- Node12 -->
<g id="Node000012" class="node">
<title>Node12</title>
<g id="a_Node000012"><a target="_parent" xlink:href="http://en.cppreference.com/w/cpp/string/basic_string.html" xlink:title=" ">
<polygon fill="white" stroke="#666666" points="747.5,-30 643.5,-30 643.5,0 747.5,0 747.5,-30"/>
<text text-anchor="start" x="651.5" y="-18" font-family="Helvetica,sans-Serif" font-size="10.00">std::basic_string&lt;</text>
<text text-anchor="middle" x="695.5" y="-7" font-family="Helvetica,sans-Serif" font-size="10.00"> Char &gt;</text>
</a>
</g>
</g>
<!-- Node12&#45;&gt;Node11 -->
<g id="edge12_Node000011_Node000012" class="edge">
<title>Node12&#45;&gt;Node11</title>
<g id="a_edge12_Node000011_Node000012"><a xlink:title=" ">
<path fill="none" stroke="#63b8ff" d="M757.86,-15C809.71,-15 881.88,-15 922.82,-15"/>
<polygon fill="#63b8ff" stroke="#63b8ff" points="757.78,-11.5 747.78,-15 757.78,-18.5 757.78,-11.5"/>
</a>
</g>
</g>
</g>
</svg>

<g id="navigator" transform="translate(0 0)" fill="#404254">
  <rect fill="#f2f5e9" fill-opacity="0.5" stroke="#606060" stroke-width=".5" x="0" y="0" width="60" height="60"/>
  <use id="zoomplus" xlink:href="#zoomPlus" x="17" y="9" onmousedown="handleZoom(evt,'in')"/>
  <use id="zoomminus" xlink:href="#zoomMin" x="42" y="9" onmousedown="handleZoom(evt,'out')"/>
  <use id="reset" xlink:href="#resetDef" x="30" y="36" onmousedown="handleReset()"/>
   <use id="arrowup" xlink:href="#arrowUp" x="0" y="0" onmousedown="handlePan(0,-1)"/>
  <use id="arrowright" xlink:href="#arrowRight" x="0" y="0" onmousedown="handlePan(1,0)"/>
  <use id="arrowdown" xlink:href="#arrowDown" x="0" y="0" onmousedown="handlePan(0,1)"/>
  <use id="arrowleft" xlink:href="#arrowLeft" x="0" y="0" onmousedown="handlePan(-1,0)"/>
</g>
<svg viewBox="0 0 15 15" width="100%" height="30px" preserveAspectRatio="xMaxYMin meet">
 <g id="arrow_out" transform="scale(0.3 0.3)">
  <a xlink:href="classprecice_1_1mesh_1_1Data__coll__graph_org.svg" target="_base">
   <rect id="button" ry="5" rx="5" y="6" x="6" height="38" width="38"
        fill="#f2f5e9" fill-opacity="0.5" stroke="#606060" stroke-width="1.0"/>
   <path id="arrow"
     d="M 11.500037,31.436501 C 11.940474,20.09759 22.043105,11.32322 32.158766,21.979434 L 37.068811,17.246167 C 37.068811,17.246167 37.088388,32 37.088388,32 L 22.160133,31.978069 C 22.160133,31.978069 26.997745,27.140456 26.997745,27.140456 C 18.528582,18.264221 13.291696,25.230495 11.500037,31.436501 z"
     style="fill:#404040;"/>
  </a>
 </g>
</svg>

<style type='text/css'>
<![CDATA[
[data-mouse-over-selected='false'] { opacity: 0.7; }
[data-mouse-over-selected='true']  { opacity: 1.0; }
]]>
</style>
<script type="application/ecmascript"><![CDATA[
document.addEventListener('DOMContentLoaded', (event) => {
  highlightEdges();
  highlightAdjacentNodes();
});
]]></script>
</svg>
