<?xml version="1.0" encoding="UTF-8" standalone="no"?>
<!DOCTYPE svg PUBLIC "-//W3C//DTD SVG 1.1//EN"
 "http://www.w3.org/Graphics/SVG/1.1/DTD/svg11.dtd">
<!-- Generated by graphviz version 2.43.0 (0)
 -->
<!-- Title: precice::xml::ConfigParser::connectTags Pages: 1 -->
<!--zoomable 212 -->

<svg id="main" version="1.1" xmlns="http://www.w3.org/2000/svg" xmlns:xlink="http://www.w3.org/1999/xlink" xml:space="preserve" onload="init(evt)">
<style type="text/css"><![CDATA[
.node, .edge {opacity: 0.7;}
.node.selected, .edge.selected {opacity: 1;}
.edge:hover path { stroke: red; }
.edge:hover polygon { stroke: red; fill: red; }
]]></style>

<defs>
  <circle id="rim" cx="0" cy="0" r="7"/>
  <circle id="rim2" cx="0" cy="0" r="3.5"/>
  <g id="zoomPlus">
    <use xlink:href="#rim" fill="#404040"><set attributeName="fill" to="#808080" begin="zoomplus.mouseover" end="zoomplus.mouseout"/></use>
    <path d="M-4,0h8M0,-4v8" fill="none" stroke="white" stroke-width="1.5" pointer-events="none"/>
  </g>
  <g id="zoomMin">
    <use xlink:href="#rim" fill="#404040"><set attributeName="fill" to="#808080" begin="zoomminus.mouseover" end="zoomminus.mouseout"/></use>
    <path d="M-4,0h8" fill="none" stroke="white" stroke-width="1.5" pointer-events="none"/>
  </g>
  <g id="arrowUp" transform="translate(30 24)">
    <use xlink:href="#rim"/>
    <path pointer-events="none" fill="none" stroke="white" stroke-width="1.5" d="M0,-3.0v7 M-2.5,-0.5L0,-3.0L2.5,-0.5"/>
  </g>
  <g id="arrowRight" transform="rotate(90) translate(36 -43)">
    <use xlink:href="#rim"/>
    <path pointer-events="none" fill="none" stroke="white" stroke-width="1.5" d="M0,-3.0v7 M-2.5,-0.5L0,-3.0L2.5,-0.5"/>
  </g>
  <g id="arrowDown" transform="rotate(180) translate(-30 -48)">
    <use xlink:href="#rim"/>
    <path pointer-events="none" fill="none" stroke="white" stroke-width="1.5" d="M0,-3.0v7 M-2.5,-0.5L0,-3.0L2.5,-0.5"/>
  </g>
  <g id="arrowLeft" transform="rotate(270) translate(-36 17)">
    <use xlink:href="#rim"/>
    <path pointer-events="none" fill="none" stroke="white" stroke-width="1.5" d="M0,-3.0v7 M-2.5,-0.5L0,-3.0L2.5,-0.5"/>
  </g>
  <g id="resetDef">
    <use xlink:href="#rim2" fill="#404040"><set attributeName="fill" to="#808080" begin="reset.mouseover" end="reset.mouseout"/></use>
  </g>
</defs>
<script type="application/ecmascript">
var viewWidth = 693;
var viewHeight = 212;
var sectionId = 'dynsection-3';
</script>
<script type="application/ecmascript" xlink:href="svg.min.js"/>
<svg id="graph" class="graph">
<g id="viewport">
<title>precice::xml::ConfigParser::connectTags</title>
<!-- Node1 -->
<g id="Node000001" class="node">
<title>Node1</title>
<g id="a_Node000001"><a xlink:title="Connects the actual tags of an xml layer with the predefined tags.">
<polygon fill="#999999" stroke="#666666" points="143,-98.5 0,-98.5 0,-68.5 143,-68.5 143,-98.5"/>
<text text-anchor="start" x="8" y="-86.5" font-family="Helvetica,sans-Serif" font-size="10.00">precice::xml::ConfigParser</text>
<text text-anchor="middle" x="71.5" y="-75.5" font-family="Helvetica,sans-Serif" font-size="10.00">::connectTags</text>
</a>
</g>
</g>
<!-- Node1&#45;&gt;Node1 -->
<g id="edge10_Node000001_Node000001" class="edge">
<title>Node1&#45;&gt;Node1</title>
<g id="a_edge10_Node000001_Node000001"><a xlink:title=" ">
<path fill="none" stroke="#63b8ff" d="M37.75,-98.78C30.25,-107.91 41.5,-116.5 71.5,-116.5 89.31,-116.5 100.51,-113.47 105.11,-109.1"/>
<polygon fill="#63b8ff" stroke="#63b8ff" points="108.61,-108.82 105.25,-98.78 101.61,-108.73 108.61,-108.82"/>
</a>
</g>
</g>
<!-- Node2 -->
<g id="Node000002" class="node">
<title>Node2</title>
<g id="a_Node000002"><a target="_parent" xlink:href="http://en.cppreference.com/w/cpp/iterator/back_inserter.html#" xlink:title=" ">
<polygon fill="white" stroke="#666666" points="315.5,-167 211.5,-167 211.5,-148 315.5,-148 315.5,-167"/>
<text text-anchor="middle" x="263.5" y="-155" font-family="Helvetica,sans-Serif" font-size="10.00">std::back_inserter</text>
</a>
</g>
</g>
<!-- Node1&#45;&gt;Node2 -->
<g id="edge1_Node000001_Node000002" class="edge">
<title>Node1&#45;&gt;Node2</title>
<g id="a_edge1_Node000001_Node000002"><a xlink:title=" ">
<path fill="none" stroke="#63b8ff" d="M96.59,-98.6C117.62,-111.19 149.35,-128.74 179,-139.5 186.08,-142.07 193.63,-144.33 201.19,-146.29"/>
<polygon fill="#63b8ff" stroke="#63b8ff" points="200.55,-149.74 211.1,-148.72 202.21,-142.94 200.55,-149.74"/>
</a>
</g>
</g>
<!-- Node3 -->
<g id="Node000003" class="node">
<title>Node3</title>
<g id="a_Node000003"><a xlink:href="namespaceprecice_1_1utils.html#aeef1a589a6157acbe2184158fb727564" target="_top" xlink:title=" ">
<polygon fill="white" stroke="#666666" points="348,-130 179,-130 179,-111 348,-111 348,-130"/>
<text text-anchor="middle" x="263.5" y="-118" font-family="Helvetica,sans-Serif" font-size="10.00">precice::utils::computeMatches</text>
</a>
</g>
</g>
<!-- Node1&#45;&gt;Node3 -->
<g id="edge2_Node000001_Node000003" class="edge">
<title>Node1&#45;&gt;Node3</title>
<g id="a_edge2_Node000001_Node000003"><a xlink:title=" ">
<path fill="none" stroke="#63b8ff" d="M143.25,-97.28C163.1,-101.14 184.47,-105.31 203.56,-109.02"/>
<polygon fill="#63b8ff" stroke="#63b8ff" points="203.12,-112.5 213.61,-110.98 204.46,-105.63 203.12,-112.5"/>
</a>
</g>
</g>
<!-- Node11 -->
<g id="Node000011" class="node">
<title>Node11</title>
<g id="a_Node000011"><a target="_parent" xlink:href="http://en.cppreference.com/w/cpp/algorithm/find.html#" xlink:title=" ">
<polygon fill="white" stroke="#666666" points="297.5,-93 229.5,-93 229.5,-74 297.5,-74 297.5,-93"/>
<text text-anchor="middle" x="263.5" y="-81" font-family="Helvetica,sans-Serif" font-size="10.00">std::find_if</text>
</a>
</g>
</g>
<!-- Node1&#45;&gt;Node11 -->
<g id="edge11_Node000001_Node000011" class="edge">
<title>Node1&#45;&gt;Node11</title>
<g id="a_edge11_Node000001_Node000011"><a xlink:title=" ">
<path fill="none" stroke="#63b8ff" d="M143.25,-83.5C168.75,-83.5 196.75,-83.5 219.21,-83.5"/>
<polygon fill="#63b8ff" stroke="#63b8ff" points="219.43,-87 229.43,-83.5 219.43,-80 219.43,-87"/>
</a>
</g>
</g>
<!-- Node12 -->
<g id="Node000012" class="node">
<title>Node12</title>
<g id="a_Node000012"><a target="_parent" xlink:href="http://en.cppreference.com/w/cpp/algorithm/remove.html#" xlink:title=" ">
<polygon fill="white" stroke="#666666" points="307,-56 220,-56 220,-37 307,-37 307,-56"/>
<text text-anchor="middle" x="263.5" y="-44" font-family="Helvetica,sans-Serif" font-size="10.00">std::remove_if</text>
</a>
</g>
</g>
<!-- Node1&#45;&gt;Node12 -->
<g id="edge12_Node000001_Node000012" class="edge">
<title>Node1&#45;&gt;Node12</title>
<g id="a_edge12_Node000001_Node000012"><a xlink:title=" ">
<path fill="none" stroke="#63b8ff" d="M143.25,-69.72C165.37,-65.41 189.38,-60.74 210.01,-56.72"/>
<polygon fill="#63b8ff" stroke="#63b8ff" points="210.7,-60.15 219.85,-54.81 209.36,-53.28 210.7,-60.15"/>
</a>
</g>
</g>
<!-- Node13 -->
<g id="Node000013" class="node">
<title>Node13</title>
<g id="a_Node000013"><a target="_parent" xlink:href="http://en.cppreference.com/w/cpp/algorithm/transform.html#" xlink:title=" ">
<polygon fill="white" stroke="#666666" points="306.5,-19 220.5,-19 220.5,0 306.5,0 306.5,-19"/>
<text text-anchor="middle" x="263.5" y="-7" font-family="Helvetica,sans-Serif" font-size="10.00">std::transform</text>
</a>
</g>
</g>
<!-- Node1&#45;&gt;Node13 -->
<g id="edge13_Node000001_Node000013" class="edge">
<title>Node1&#45;&gt;Node13</title>
<g id="a_edge13_Node000001_Node000013"><a xlink:title=" ">
<path fill="none" stroke="#63b8ff" d="M96.59,-68.4C117.62,-55.81 149.35,-38.26 179,-27.5 188.93,-23.9 199.8,-20.9 210.32,-18.46"/>
<polygon fill="#63b8ff" stroke="#63b8ff" points="211.23,-21.84 220.25,-16.29 209.73,-15.01 211.23,-21.84"/>
</a>
</g>
</g>
<!-- Node4 -->
<g id="Node000004" class="node">
<title>Node4</title>
<g id="a_Node000004"><a target="_parent" xlink:href="http://en.cppreference.com/w/cpp/container/vector/begin.html#" xlink:title=" ">
<polygon fill="white" stroke="#666666" points="507.5,-204 406.5,-204 406.5,-185 507.5,-185 507.5,-204"/>
<text text-anchor="middle" x="457" y="-192" font-family="Helvetica,sans-Serif" font-size="10.00">std::vector::begin</text>
</a>
</g>
</g>
<!-- Node3&#45;&gt;Node4 -->
<g id="edge3_Node000003_Node000004" class="edge">
<title>Node3&#45;&gt;Node4</title>
<g id="a_edge3_Node000003_Node000004"><a xlink:title=" ">
<path fill="none" stroke="#63b8ff" d="M325.78,-130.12C333.52,-132.57 341.13,-135.64 348,-139.5 368.01,-150.73 364.11,-165.06 384,-176.5 387.94,-178.77 392.16,-180.75 396.51,-182.48"/>
<polygon fill="#63b8ff" stroke="#63b8ff" points="395.58,-185.87 406.17,-185.9 397.91,-179.27 395.58,-185.87"/>
</a>
</g>
</g>
<!-- Node5 -->
<g id="Node000005" class="node">
<title>Node5</title>
<g id="a_Node000005"><a xlink:href="namespaceprecice_1_1utils.html#a016a082a7d68a0f291b2cdd8cdf70beb" target="_top" xlink:title=" ">
<polygon fill="white" stroke="#666666" points="530,-167 384,-167 384,-148 530,-148 530,-167"/>
<text text-anchor="middle" x="457" y="-155" font-family="Helvetica,sans-Serif" font-size="10.00">precice::utils::editDistance</text>
</a>
</g>
</g>
<!-- Node3&#45;&gt;Node5 -->
<g id="edge4_Node000003_Node000005" class="edge">
<title>Node3&#45;&gt;Node5</title>
<g id="a_edge4_Node000003_Node000005"><a xlink:title=" ">
<path fill="none" stroke="#63b8ff" d="M313.82,-130.03C339.07,-134.91 370.01,-140.89 396.57,-146.02"/>
<polygon fill="#63b8ff" stroke="#63b8ff" points="396.04,-149.48 406.52,-147.94 397.36,-142.61 396.04,-149.48"/>
</a>
</g>
</g>
<!-- Node8 -->
<g id="Node000008" class="node">
<title>Node8</title>
<g id="a_Node000008"><a target="_parent" xlink:href="http://en.cppreference.com/w/cpp/container/vector/end.html#" xlink:title=" ">
<polygon fill="white" stroke="#666666" points="503,-130 411,-130 411,-111 503,-111 503,-130"/>
<text text-anchor="middle" x="457" y="-118" font-family="Helvetica,sans-Serif" font-size="10.00">std::vector::end</text>
</a>
</g>
</g>
<!-- Node3&#45;&gt;Node8 -->
<g id="edge7_Node000003_Node000008" class="edge">
<title>Node3&#45;&gt;Node8</title>
<g id="a_edge7_Node000003_Node000008"><a xlink:title=" ">
<path fill="none" stroke="#63b8ff" d="M348.22,-120.5C365.88,-120.5 384.11,-120.5 400.43,-120.5"/>
<polygon fill="#63b8ff" stroke="#63b8ff" points="400.85,-124 410.85,-120.5 400.85,-117 400.85,-124"/>
</a>
</g>
</g>
<!-- Node9 -->
<g id="Node000009" class="node">
<title>Node9</title>
<g id="a_Node000009"><a target="_parent" xlink:href="http://en.cppreference.com/w/cpp/container/vector/push_back.html#" xlink:title=" ">
<polygon fill="white" stroke="#666666" points="520,-93 394,-93 394,-74 520,-74 520,-93"/>
<text text-anchor="middle" x="457" y="-81" font-family="Helvetica,sans-Serif" font-size="10.00">std::vector::push_back</text>
</a>
</g>
</g>
<!-- Node3&#45;&gt;Node9 -->
<g id="edge8_Node000003_Node000009" class="edge">
<title>Node3&#45;&gt;Node9</title>
<g id="a_edge8_Node000003_Node000009"><a xlink:title=" ">
<path fill="none" stroke="#63b8ff" d="M313.82,-110.97C339.07,-106.09 370.01,-100.11 396.57,-94.98"/>
<polygon fill="#63b8ff" stroke="#63b8ff" points="397.36,-98.39 406.52,-93.06 396.04,-91.52 397.36,-98.39"/>
</a>
</g>
</g>
<!-- Node10 -->
<g id="Node000010" class="node">
<title>Node10</title>
<g id="a_Node000010"><a target="_parent" xlink:href="http://en.cppreference.com/w/cpp/algorithm/sort.html#" xlink:title=" ">
<polygon fill="white" stroke="#666666" points="485,-56 429,-56 429,-37 485,-37 485,-56"/>
<text text-anchor="middle" x="457" y="-44" font-family="Helvetica,sans-Serif" font-size="10.00">std::sort</text>
</a>
</g>
</g>
<!-- Node3&#45;&gt;Node10 -->
<g id="edge9_Node000003_Node000010" class="edge">
<title>Node3&#45;&gt;Node10</title>
<g id="a_edge9_Node000003_Node000010"><a xlink:title=" ">
<path fill="none" stroke="#63b8ff" d="M327.96,-110.99C334.95,-108.74 341.77,-105.95 348,-102.5 368.07,-91.39 364.19,-77.07 384,-65.5 394.53,-59.35 407.08,-55.15 418.73,-52.3"/>
<polygon fill="#63b8ff" stroke="#63b8ff" points="419.64,-55.69 428.67,-50.13 418.15,-48.85 419.64,-55.69"/>
</a>
</g>
</g>
<!-- Node6 -->
<g id="Node000006" class="node">
<title>Node6</title>
<g id="a_Node000006"><a target="_parent" xlink:href="http://en.cppreference.com/w/cpp/algorithm/min.html#" xlink:title=" ">
<polygon fill="white" stroke="#666666" points="653.5,-185 597.5,-185 597.5,-166 653.5,-166 653.5,-185"/>
<text text-anchor="middle" x="625.5" y="-173" font-family="Helvetica,sans-Serif" font-size="10.00">std::min</text>
</a>
</g>
</g>
<!-- Node5&#45;&gt;Node6 -->
<g id="edge5_Node000005_Node000006" class="edge">
<title>Node5&#45;&gt;Node6</title>
<g id="a_edge5_Node000005_Node000006"><a xlink:title=" ">
<path fill="none" stroke="#63b8ff" d="M530.06,-165.29C549.86,-167.43 570.51,-169.66 587.44,-171.49"/>
<polygon fill="#63b8ff" stroke="#63b8ff" points="587.14,-174.98 597.46,-172.58 587.89,-168.02 587.14,-174.98"/>
</a>
</g>
</g>
<!-- Node7 -->
<g id="Node000007" class="node">
<title>Node7</title>
<g id="a_Node000007"><a target="_parent" xlink:href="http://en.cppreference.com/w/cpp/string/basic_string_view/size.html#" xlink:title=" ">
<polygon fill="white" stroke="#666666" points="685,-148 566,-148 566,-129 685,-129 685,-148"/>
<text text-anchor="middle" x="625.5" y="-136" font-family="Helvetica,sans-Serif" font-size="10.00">std::string_view::size</text>
</a>
</g>
</g>
<!-- Node5&#45;&gt;Node7 -->
<g id="edge6_Node000005_Node000007" class="edge">
<title>Node5&#45;&gt;Node7</title>
<g id="a_edge6_Node000005_Node000007"><a xlink:title=" ">
<path fill="none" stroke="#63b8ff" d="M530.06,-149.28C538.56,-148.31 547.21,-147.32 555.67,-146.35"/>
<polygon fill="#63b8ff" stroke="#63b8ff" points="556.31,-149.8 565.85,-145.19 555.52,-142.85 556.31,-149.8"/>
</a>
</g>
</g>
</g>
</svg>

<g id="navigator" transform="translate(0 0)" fill="#404254">
  <rect fill="#f2f5e9" fill-opacity="0.5" stroke="#606060" stroke-width=".5" x="0" y="0" width="60" height="60"/>
  <use id="zoomplus" xlink:href="#zoomPlus" x="17" y="9" onmousedown="handleZoom(evt,'in')"/>
  <use id="zoomminus" xlink:href="#zoomMin" x="42" y="9" onmousedown="handleZoom(evt,'out')"/>
  <use id="reset" xlink:href="#resetDef" x="30" y="36" onmousedown="handleReset()"/>
   <use id="arrowup" xlink:href="#arrowUp" x="0" y="0" onmousedown="handlePan(0,-1)"/>
  <use id="arrowright" xlink:href="#arrowRight" x="0" y="0" onmousedown="handlePan(1,0)"/>
  <use id="arrowdown" xlink:href="#arrowDown" x="0" y="0" onmousedown="handlePan(0,1)"/>
  <use id="arrowleft" xlink:href="#arrowLeft" x="0" y="0" onmousedown="handlePan(-1,0)"/>
</g>
<svg viewBox="0 0 15 15" width="100%" height="30px" preserveAspectRatio="xMaxYMin meet">
 <g id="arrow_out" transform="scale(0.3 0.3)">
  <a xlink:href="classprecice_1_1xml_1_1ConfigParser_a7a1d88ea16f47d4c7510caaf7902456e_cgraph_org.svg" target="_base">
   <rect id="button" ry="5" rx="5" y="6" x="6" height="38" width="38"
        fill="#f2f5e9" fill-opacity="0.5" stroke="#606060" stroke-width="1.0"/>
   <path id="arrow"
     d="M 11.500037,31.436501 C 11.940474,20.09759 22.043105,11.32322 32.158766,21.979434 L 37.068811,17.246167 C 37.068811,17.246167 37.088388,32 37.088388,32 L 22.160133,31.978069 C 22.160133,31.978069 26.997745,27.140456 26.997745,27.140456 C 18.528582,18.264221 13.291696,25.230495 11.500037,31.436501 z"
     style="fill:#404040;"/>
  </a>
 </g>
</svg>

<style type='text/css'>
<![CDATA[
[data-mouse-over-selected='false'] { opacity: 0.7; }
[data-mouse-over-selected='true']  { opacity: 1.0; }
]]>
</style>
<script type="application/ecmascript"><![CDATA[
document.addEventListener('DOMContentLoaded', (event) => {
  highlightEdges();
  highlightAdjacentNodes();
});
]]></script>
</svg>
