<?xml version="1.0" encoding="UTF-8" standalone="no"?>
<!DOCTYPE svg PUBLIC "-//W3C//DTD SVG 1.1//EN"
 "http://www.w3.org/Graphics/SVG/1.1/DTD/svg11.dtd">
<!-- Generated by graphviz version 2.43.0 (0)
 -->
<!-- Title: precice::acceleration::impl::ParallelMatrixOperations::_multiplyNM_dotProduct Pages: 1 -->
<svg width="847pt" height="95pt"
 viewBox="0.00 0.00 847.00 94.50" xmlns="http://www.w3.org/2000/svg" xmlns:xlink="http://www.w3.org/1999/xlink">
<g id="graph0" class="graph" transform="scale(1 1) rotate(0) translate(4 90.5)">
<title>precice::acceleration::impl::ParallelMatrixOperations::_multiplyNM_dotProduct</title>
<!-- Node1 -->
<g id="Node000001" class="node">
<title>Node1</title>
<g id="a_Node000001"><a xlink:title=" ">
<polygon fill="#999999" stroke="#666666" points="171,-56.5 0,-56.5 0,-15.5 171,-15.5 171,-56.5"/>
<text text-anchor="start" x="8" y="-44.5" font-family="Helvetica,sans-Serif" font-size="10.00">precice::acceleration</text>
<text text-anchor="start" x="8" y="-33.5" font-family="Helvetica,sans-Serif" font-size="10.00">::impl::ParallelMatrixOperations</text>
<text text-anchor="middle" x="85.5" y="-22.5" font-family="Helvetica,sans-Serif" font-size="10.00">::_multiplyNM_dotProduct</text>
</a>
</g>
</g>
<!-- Node2 -->
<g id="Node000002" class="node">
<title>Node2</title>
<g id="a_Node000002"><a xlink:href="classprecice_1_1utils_1_1IntraComm.html#a38ad54bcb1c09b6eba4097465b80fb08" target="_top" xlink:title=" ">
<polygon fill="white" stroke="#666666" points="368,-67.5 207,-67.5 207,-48.5 368,-48.5 368,-67.5"/>
<text text-anchor="middle" x="287.5" y="-55.5" font-family="Helvetica,sans-Serif" font-size="10.00">precice::utils::IntraComm::dot</text>
</a>
</g>
</g>
<!-- Node1&#45;&gt;Node2 -->
<g id="edge1_Node000001_Node000002" class="edge">
<title>Node1&#45;&gt;Node2</title>
<g id="a_edge1_Node000001_Node000002"><a xlink:title=" ">
<path fill="none" stroke="#63b8ff" d="M171.03,-45.3C179.53,-46.23 188.19,-47.19 196.75,-48.13"/>
<polygon fill="#63b8ff" stroke="#63b8ff" points="196.41,-51.61 206.73,-49.23 197.18,-44.65 196.41,-51.61"/>
</a>
</g>
</g>
<!-- Node8 -->
<g id="Node000008" class="node">
<title>Node8</title>
<g id="a_Node000008"><a xlink:href="classprecice_1_1utils_1_1IntraComm.html#a2c2aa5e2fd6cc26797b7fdee0b0b25ac" target="_top" xlink:title="Current rank.">
<polygon fill="white" stroke="#666666" points="357.5,-30 217.5,-30 217.5,0 357.5,0 357.5,-30"/>
<text text-anchor="start" x="225.5" y="-18" font-family="Helvetica,sans-Serif" font-size="10.00">precice::utils::IntraComm</text>
<text text-anchor="middle" x="287.5" y="-7" font-family="Helvetica,sans-Serif" font-size="10.00">::getRank</text>
</a>
</g>
</g>
<!-- Node1&#45;&gt;Node8 -->
<g id="edge8_Node000001_Node000008" class="edge">
<title>Node1&#45;&gt;Node8</title>
<g id="a_edge8_Node000001_Node000008"><a xlink:title=" ">
<path fill="none" stroke="#63b8ff" d="M171.03,-27.12C182.98,-25.87 195.24,-24.58 207.1,-23.34"/>
<polygon fill="#63b8ff" stroke="#63b8ff" points="207.81,-26.78 217.39,-22.26 207.08,-19.82 207.81,-26.78"/>
</a>
</g>
</g>
<!-- Node3 -->
<g id="Node000003" class="node">
<title>Node3</title>
<g id="a_Node000003"><a xlink:href="classprecice_1_1utils_1_1IntraComm.html#a1181baf395fd7e41bb0f922e3c3334cf" target="_top" xlink:title=" ">
<polygon fill="white" stroke="#666666" points="544,-73 404,-73 404,-43 544,-43 544,-73"/>
<text text-anchor="start" x="412" y="-61" font-family="Helvetica,sans-Serif" font-size="10.00">precice::utils::IntraComm</text>
<text text-anchor="middle" x="474" y="-50" font-family="Helvetica,sans-Serif" font-size="10.00">::allreduceSum</text>
</a>
</g>
</g>
<!-- Node2&#45;&gt;Node3 -->
<g id="edge2_Node000002_Node000003" class="edge">
<title>Node2&#45;&gt;Node3</title>
<g id="a_edge2_Node000002_Node000003"><a xlink:title=" ">
<path fill="none" stroke="#63b8ff" d="M368.08,-58C376.54,-58 385.15,-58 393.6,-58"/>
<polygon fill="#63b8ff" stroke="#63b8ff" points="393.83,-61.5 403.83,-58 393.83,-54.5 393.83,-61.5"/>
</a>
</g>
</g>
<!-- Node4 -->
<g id="Node000004" class="node">
<title>Node4</title>
<g id="a_Node000004"><a xlink:href="classprecice_1_1span.html#ab25ca07a93bfa334622507c2c22b1034" target="_top" xlink:title=" ">
<polygon fill="white" stroke="#666666" points="694,-86.5 580,-86.5 580,-67.5 694,-67.5 694,-86.5"/>
<text text-anchor="middle" x="637" y="-74.5" font-family="Helvetica,sans-Serif" font-size="10.00">precice::span::begin</text>
</a>
</g>
</g>
<!-- Node3&#45;&gt;Node4 -->
<g id="edge3_Node000003_Node000004" class="edge">
<title>Node3&#45;&gt;Node4</title>
<g id="a_edge3_Node000003_Node000004"><a xlink:title=" ">
<path fill="none" stroke="#63b8ff" d="M544.21,-66.17C552.7,-67.17 561.35,-68.19 569.79,-69.19"/>
<polygon fill="#63b8ff" stroke="#63b8ff" points="569.6,-72.69 579.94,-70.38 570.42,-65.74 569.6,-72.69"/>
</a>
</g>
</g>
<!-- Node6 -->
<g id="Node000006" class="node">
<title>Node6</title>
<g id="a_Node000006"><a xlink:href="classprecice_1_1span.html#ab86c14ec7bc7475d3ddb21d400e93121" target="_top" xlink:title=" ">
<polygon fill="white" stroke="#666666" points="689.5,-49.5 584.5,-49.5 584.5,-30.5 689.5,-30.5 689.5,-49.5"/>
<text text-anchor="middle" x="637" y="-37.5" font-family="Helvetica,sans-Serif" font-size="10.00">precice::span::end</text>
</a>
</g>
</g>
<!-- Node3&#45;&gt;Node6 -->
<g id="edge5_Node000003_Node000006" class="edge">
<title>Node3&#45;&gt;Node6</title>
<g id="a_edge5_Node000003_Node000006"><a xlink:title=" ">
<path fill="none" stroke="#63b8ff" d="M544.21,-50.26C554.21,-49.14 564.44,-48 574.27,-46.9"/>
<polygon fill="#63b8ff" stroke="#63b8ff" points="574.8,-50.36 584.35,-45.77 574.03,-43.41 574.8,-50.36"/>
</a>
</g>
</g>
<!-- Node5 -->
<g id="Node000005" class="node">
<title>Node5</title>
<g id="a_Node000005"><a xlink:href="classprecice_1_1span.html#a38fb4273ab189e44dfb475c17e063a9a" target="_top" xlink:title=" ">
<polygon fill="white" stroke="#666666" points="839,-86.5 730,-86.5 730,-67.5 839,-67.5 839,-86.5"/>
<text text-anchor="middle" x="784.5" y="-74.5" font-family="Helvetica,sans-Serif" font-size="10.00">precice::span::data</text>
</a>
</g>
</g>
<!-- Node4&#45;&gt;Node5 -->
<g id="edge4_Node000004_Node000005" class="edge">
<title>Node4&#45;&gt;Node5</title>
<g id="a_edge4_Node000004_Node000005"><a xlink:title=" ">
<path fill="none" stroke="#63b8ff" d="M694.25,-77C702.55,-77 711.16,-77 719.6,-77"/>
<polygon fill="#63b8ff" stroke="#63b8ff" points="719.78,-80.5 729.78,-77 719.78,-73.5 719.78,-80.5"/>
</a>
</g>
</g>
<!-- Node6&#45;&gt;Node5 -->
<g id="edge6_Node000006_Node000005" class="edge">
<title>Node6&#45;&gt;Node5</title>
<g id="a_edge6_Node000006_Node000005"><a xlink:title=" ">
<path fill="none" stroke="#63b8ff" d="M675.47,-49.53C693.98,-54.24 716.52,-59.97 736.2,-64.97"/>
<polygon fill="#63b8ff" stroke="#63b8ff" points="735.35,-68.37 745.9,-67.44 737.08,-61.58 735.35,-68.37"/>
</a>
</g>
</g>
<!-- Node7 -->
<g id="Node000007" class="node">
<title>Node7</title>
<g id="a_Node000007"><a xlink:href="classprecice_1_1span.html#ae91f5ed50b6cbf0d15382b8e3c2a9a04" target="_top" xlink:title=" ">
<polygon fill="white" stroke="#666666" points="838,-49.5 731,-49.5 731,-30.5 838,-30.5 838,-49.5"/>
<text text-anchor="middle" x="784.5" y="-37.5" font-family="Helvetica,sans-Serif" font-size="10.00">precice::span::size</text>
</a>
</g>
</g>
<!-- Node6&#45;&gt;Node7 -->
<g id="edge7_Node000006_Node000007" class="edge">
<title>Node6&#45;&gt;Node7</title>
<g id="a_edge7_Node000006_Node000007"><a xlink:title=" ">
<path fill="none" stroke="#63b8ff" d="M689.71,-40C699.75,-40 710.39,-40 720.74,-40"/>
<polygon fill="#63b8ff" stroke="#63b8ff" points="720.98,-43.5 730.98,-40 720.98,-36.5 720.98,-43.5"/>
</a>
</g>
</g>
</g>
</svg>
