<?xml version="1.0" encoding="UTF-8" standalone="no"?>
<!DOCTYPE svg PUBLIC "-//W3C//DTD SVG 1.1//EN"
 "http://www.w3.org/Graphics/SVG/1.1/DTD/svg11.dtd">
<!-- Generated by graphviz version 2.43.0 (0)
 -->
<!-- Title: precice::cplscheme::SerialCouplingScheme::exchangeInitialData Pages: 1 -->
<!--zoomable 931 -->
<svg id="main" version="1.1" xmlns="http://www.w3.org/2000/svg" xmlns:xlink="http://www.w3.org/1999/xlink" xml:space="preserve" onload="init(evt)">
<style type="text/css"><![CDATA[
.edge:hover path { stroke: red; }
.edge:hover polygon { stroke: red; fill: red; }
]]></style>
<script type="text/javascript"><![CDATA[
var edges = document.getElementsByTagName('g');
if (edges && edges.length) {
  for (var i=0;i<edges.length;i++) {
    if (edges[i].id.substr(0,4)=='edge') {
      edges[i].setAttribute('class','edge');
    }
  }
}
]]></script>
        <defs>
                <circle id="rim" cx="0" cy="0" r="7"/>
                <circle id="rim2" cx="0" cy="0" r="3.5"/>
                <g id="zoomPlus">
                        <use xlink:href="#rim" fill="#404040">
                                <set attributeName="fill" to="#808080" begin="zoomplus.mouseover" end="zoomplus.mouseout"/>
                        </use>
                        <path d="M-4,0h8M0,-4v8" fill="none" stroke="white" stroke-width="1.5" pointer-events="none"/>
                </g>
                <g id="zoomMin">
                        <use xlink:href="#rim" fill="#404040">
                                <set attributeName="fill" to="#808080" begin="zoomminus.mouseover" end="zoomminus.mouseout"/>
                        </use>
                        <path d="M-4,0h8" fill="none" stroke="white" stroke-width="1.5" pointer-events="none"/>
                </g>
                <g id="dirArrow">
                        <path fill="none" stroke="white" stroke-width="1.5" d="M0,-3.0v7 M-2.5,-0.5L0,-3.0L2.5,-0.5"/>
                </g>
               <g id="resetDef">
                       <use xlink:href="#rim2" fill="#404040">
                               <set attributeName="fill" to="#808080" begin="reset.mouseover" end="reset.mouseout"/>
                       </use>
               </g>
        </defs>

<script type="text/javascript">
var viewWidth = 1046;
var viewHeight = 931;
var sectionId = 'dynsection-4';
</script>
<script xlink:href="svgpan.js"/>
<svg id="graph" class="graph">
<g id="viewport">
<title>precice::cplscheme::SerialCouplingScheme::exchangeInitialData</title>
<polygon fill="white" stroke="transparent" points="-4,4 -4,-927 1042,-927 1042,4 -4,4"/>
<!-- Node1 -->
<g id="node1" class="node">
<title>Node1</title>
<g id="a_node1"><a xlink:title="implements functionality for initialize in base class.">
<polygon fill="#bfbfbf" stroke="black" points="0,-376.5 0,-417.5 132,-417.5 132,-376.5 0,-376.5"/>
<text text-anchor="start" x="8" y="-405.5" font-family="Helvetica,sans-Serif" font-size="10.00">precice::cplscheme</text>
<text text-anchor="start" x="8" y="-394.5" font-family="Helvetica,sans-Serif" font-size="10.00">::SerialCouplingScheme</text>
<text text-anchor="middle" x="66" y="-383.5" font-family="Helvetica,sans-Serif" font-size="10.00">::exchangeInitialData</text>
</a>
</g>
</g>
<!-- Node2 -->
<g id="node2" class="node">
<title>Node2</title>
<g id="a_node2"><a xlink:href="classprecice_1_1cplscheme_1_1BaseCouplingScheme.html#af880c679675d59efcf00b0b9fd984f6e" target="_top" xlink:title="Getter for _doesFirstStep.">
<polygon fill="white" stroke="black" points="391.5,-881.5 391.5,-922.5 519.5,-922.5 519.5,-881.5 391.5,-881.5"/>
<text text-anchor="start" x="399.5" y="-910.5" font-family="Helvetica,sans-Serif" font-size="10.00">precice::cplscheme</text>
<text text-anchor="start" x="399.5" y="-899.5" font-family="Helvetica,sans-Serif" font-size="10.00">::BaseCouplingScheme</text>
<text text-anchor="middle" x="455.5" y="-888.5" font-family="Helvetica,sans-Serif" font-size="10.00">::doesFirstStep</text>
</a>
</g>
</g>
<!-- Node1&#45;&gt;Node2 -->
<g id="edge1" class="edge">
<title>Node1&#45;&gt;Node2</title>
<path fill="none" stroke="midnightblue" d="M66.87,-417.88C67.59,-479.23 77.64,-661.47 168,-770 222.41,-835.35 316.22,-869.99 381.62,-887.13"/>
<polygon fill="midnightblue" stroke="midnightblue" points="380.9,-890.56 391.46,-889.63 382.63,-883.77 380.9,-890.56"/>
</g>
<!-- Node3 -->
<g id="node3" class="node">
<title>Node3</title>
<g id="a_node3"><a xlink:href="classprecice_1_1cplscheme_1_1BiCouplingScheme.html#ae90273efd5e7a1ba0b91b5e09fd971ac" target="_top" xlink:title=" ">
<polygon fill="white" stroke="black" points="395.5,-821.5 395.5,-862.5 515.5,-862.5 515.5,-821.5 395.5,-821.5"/>
<text text-anchor="start" x="403.5" y="-850.5" font-family="Helvetica,sans-Serif" font-size="10.00">precice::cplscheme</text>
<text text-anchor="start" x="403.5" y="-839.5" font-family="Helvetica,sans-Serif" font-size="10.00">::BiCouplingScheme::</text>
<text text-anchor="middle" x="455.5" y="-828.5" font-family="Helvetica,sans-Serif" font-size="10.00">getM2N</text>
</a>
</g>
</g>
<!-- Node1&#45;&gt;Node3 -->
<g id="edge2" class="edge">
<title>Node1&#45;&gt;Node3</title>
<path fill="none" stroke="midnightblue" d="M68.51,-417.83C73.41,-471.37 93.21,-615.69 168,-703 224.79,-769.29 320.51,-806.69 385.54,-825.61"/>
<polygon fill="midnightblue" stroke="midnightblue" points="384.73,-829.02 395.3,-828.38 386.64,-822.29 384.73,-829.02"/>
</g>
<!-- Node4 -->
<g id="node4" class="node">
<title>Node4</title>
<g id="a_node4"><a xlink:href="classprecice_1_1cplscheme_1_1BiCouplingScheme.html#ab66e411f621d13312e3728404cc42eb8" target="_top" xlink:title="Returns all data to be received.">
<polygon fill="white" stroke="black" points="196.5,-303.5 196.5,-344.5 316.5,-344.5 316.5,-303.5 196.5,-303.5"/>
<text text-anchor="start" x="204.5" y="-332.5" font-family="Helvetica,sans-Serif" font-size="10.00">precice::cplscheme</text>
<text text-anchor="start" x="204.5" y="-321.5" font-family="Helvetica,sans-Serif" font-size="10.00">::BiCouplingScheme::</text>
<text text-anchor="middle" x="256.5" y="-310.5" font-family="Helvetica,sans-Serif" font-size="10.00">getReceiveData</text>
</a>
</g>
</g>
<!-- Node1&#45;&gt;Node4 -->
<g id="edge3" class="edge">
<title>Node1&#45;&gt;Node4</title>
<path fill="none" stroke="midnightblue" d="M120.01,-376.47C142.69,-367.69 169.34,-357.37 192.98,-348.21"/>
<polygon fill="midnightblue" stroke="midnightblue" points="194.5,-351.38 202.56,-344.5 191.97,-344.85 194.5,-351.38"/>
</g>
<!-- Node5 -->
<g id="node5" class="node">
<title>Node5</title>
<g id="a_node5"><a xlink:href="classprecice_1_1cplscheme_1_1BiCouplingScheme.html#a53be61eb89bfff98ada4a33c3ba00545" target="_top" xlink:title="Returns all data to be sent.">
<polygon fill="white" stroke="black" points="196.5,-243.5 196.5,-284.5 316.5,-284.5 316.5,-243.5 196.5,-243.5"/>
<text text-anchor="start" x="204.5" y="-272.5" font-family="Helvetica,sans-Serif" font-size="10.00">precice::cplscheme</text>
<text text-anchor="start" x="204.5" y="-261.5" font-family="Helvetica,sans-Serif" font-size="10.00">::BiCouplingScheme::</text>
<text text-anchor="middle" x="256.5" y="-250.5" font-family="Helvetica,sans-Serif" font-size="10.00">getSendData</text>
</a>
</g>
</g>
<!-- Node1&#45;&gt;Node5 -->
<g id="edge4" class="edge">
<title>Node1&#45;&gt;Node5</title>
<path fill="none" stroke="midnightblue" d="M82.31,-376.4C100.42,-353.35 132.63,-316.31 168,-294 173.84,-290.32 180.19,-287.02 186.71,-284.09"/>
<polygon fill="midnightblue" stroke="midnightblue" points="188.47,-287.15 196.34,-280.06 185.77,-280.69 188.47,-287.15"/>
</g>
<!-- Node6 -->
<g id="node6" class="node">
<title>Node6</title>
<g id="a_node6"><a xlink:href="classprecice_1_1cplscheme_1_1BaseCouplingScheme.html#a0b8be6a29082c8115db22aad3e0aa624" target="_top" xlink:title="Initializes storage in receiveData as zero.">
<polygon fill="white" stroke="black" points="176,-401.5 176,-442.5 337,-442.5 337,-401.5 176,-401.5"/>
<text text-anchor="start" x="184" y="-430.5" font-family="Helvetica,sans-Serif" font-size="10.00">precice::cplscheme</text>
<text text-anchor="start" x="184" y="-419.5" font-family="Helvetica,sans-Serif" font-size="10.00">::BaseCouplingScheme</text>
<text text-anchor="middle" x="256.5" y="-408.5" font-family="Helvetica,sans-Serif" font-size="10.00">::initializeWithZeroInitialData</text>
</a>
</g>
</g>
<!-- Node1&#45;&gt;Node6 -->
<g id="edge5" class="edge">
<title>Node1&#45;&gt;Node6</title>
<path fill="none" stroke="midnightblue" d="M132.13,-405.64C143,-407.08 154.44,-408.6 165.79,-410.1"/>
<polygon fill="midnightblue" stroke="midnightblue" points="165.35,-413.57 175.72,-411.42 166.27,-406.63 165.35,-413.57"/>
</g>
<!-- Node9 -->
<g id="node9" class="node">
<title>Node9</title>
<g id="a_node9"><a xlink:href="classprecice_1_1cplscheme_1_1BaseCouplingScheme.html#af690c8d4e0f11e52fc7b9ca1fe098229" target="_top" xlink:title="Receives data receiveDataIDs given in mapCouplingData with communication.">
<polygon fill="white" stroke="black" points="391.5,-445.5 391.5,-486.5 519.5,-486.5 519.5,-445.5 391.5,-445.5"/>
<text text-anchor="start" x="399.5" y="-474.5" font-family="Helvetica,sans-Serif" font-size="10.00">precice::cplscheme</text>
<text text-anchor="start" x="399.5" y="-463.5" font-family="Helvetica,sans-Serif" font-size="10.00">::BaseCouplingScheme</text>
<text text-anchor="middle" x="455.5" y="-452.5" font-family="Helvetica,sans-Serif" font-size="10.00">::receiveData</text>
</a>
</g>
</g>
<!-- Node1&#45;&gt;Node9 -->
<g id="edge30" class="edge">
<title>Node1&#45;&gt;Node9</title>
<path fill="none" stroke="midnightblue" d="M96.4,-417.64C115.78,-430.04 142.24,-444.77 168,-452 238.44,-471.78 322.4,-473.47 381.16,-471.31"/>
<polygon fill="midnightblue" stroke="midnightblue" points="381.61,-474.8 391.46,-470.89 381.32,-467.8 381.61,-474.8"/>
</g>
<!-- Node14 -->
<g id="node14" class="node">
<title>Node14</title>
<g id="a_node14"><a xlink:href="classprecice_1_1cplscheme_1_1BaseCouplingScheme.html#a3153d22622f9abe534cef5fb0fb299dc" target="_top" xlink:title="Used to set flag after data has been received using receiveData().">
<polygon fill="white" stroke="black" points="175.5,-183.5 175.5,-224.5 337.5,-224.5 337.5,-183.5 175.5,-183.5"/>
<text text-anchor="start" x="183.5" y="-212.5" font-family="Helvetica,sans-Serif" font-size="10.00">precice::cplscheme</text>
<text text-anchor="start" x="183.5" y="-201.5" font-family="Helvetica,sans-Serif" font-size="10.00">::BaseCouplingScheme</text>
<text text-anchor="middle" x="256.5" y="-190.5" font-family="Helvetica,sans-Serif" font-size="10.00">::notifyDataHasBeenReceived</text>
</a>
</g>
</g>
<!-- Node1&#45;&gt;Node14 -->
<g id="edge17" class="edge">
<title>Node1&#45;&gt;Node14</title>
<path fill="none" stroke="midnightblue" d="M74.45,-376.32C87.87,-341.9 119.33,-272.81 168,-234 169.79,-232.58 171.64,-231.22 173.56,-229.92"/>
<polygon fill="midnightblue" stroke="midnightblue" points="175.54,-232.81 182.28,-224.64 171.92,-226.82 175.54,-232.81"/>
</g>
<!-- Node15 -->
<g id="node15" class="node">
<title>Node15</title>
<g id="a_node15"><a xlink:href="classprecice_1_1cplscheme_1_1SerialCouplingScheme.html#a2e5a29de7a6610336338700f49f10189" target="_top" xlink:title="Receives and sets the time window size, if this participant is the one to receive.">
<polygon fill="white" stroke="black" points="168,-652.5 168,-693.5 345,-693.5 345,-652.5 168,-652.5"/>
<text text-anchor="start" x="176" y="-681.5" font-family="Helvetica,sans-Serif" font-size="10.00">precice::cplscheme</text>
<text text-anchor="start" x="176" y="-670.5" font-family="Helvetica,sans-Serif" font-size="10.00">::SerialCouplingScheme</text>
<text text-anchor="middle" x="256.5" y="-659.5" font-family="Helvetica,sans-Serif" font-size="10.00">::receiveAndSetTimeWindowSize</text>
</a>
</g>
</g>
<!-- Node1&#45;&gt;Node15 -->
<g id="edge18" class="edge">
<title>Node1&#45;&gt;Node15</title>
<path fill="none" stroke="midnightblue" d="M80.49,-417.94C99.65,-447.55 135.97,-503.27 168,-550 190.27,-582.48 216.54,-619.22 234.45,-644.02"/>
<polygon fill="midnightblue" stroke="midnightblue" points="231.72,-646.21 240.41,-652.26 237.39,-642.11 231.72,-646.21"/>
</g>
<!-- Node23 -->
<g id="node23" class="node">
<title>Node23</title>
<g id="a_node23"><a xlink:href="classprecice_1_1cplscheme_1_1BaseCouplingScheme.html#a2ecb01c18534e30572a4a3d85f9a9513" target="_top" xlink:title="Like receiveData, but temporarily sets window time to end of window.">
<polygon fill="white" stroke="black" points="179.5,-499.5 179.5,-540.5 333.5,-540.5 333.5,-499.5 179.5,-499.5"/>
<text text-anchor="start" x="187.5" y="-528.5" font-family="Helvetica,sans-Serif" font-size="10.00">precice::cplscheme</text>
<text text-anchor="start" x="187.5" y="-517.5" font-family="Helvetica,sans-Serif" font-size="10.00">::BaseCouplingScheme</text>
<text text-anchor="middle" x="256.5" y="-506.5" font-family="Helvetica,sans-Serif" font-size="10.00">::receiveDataForWindowEnd</text>
</a>
</g>
</g>
<!-- Node1&#45;&gt;Node23 -->
<g id="edge31" class="edge">
<title>Node1&#45;&gt;Node23</title>
<path fill="none" stroke="midnightblue" d="M86.65,-417.76C105.92,-437.17 136.85,-465.96 168,-485 174.05,-488.7 180.55,-492.14 187.19,-495.32"/>
<polygon fill="midnightblue" stroke="midnightblue" points="185.74,-498.5 196.29,-499.48 188.65,-492.14 185.74,-498.5"/>
</g>
<!-- Node24 -->
<g id="node24" class="node">
<title>Node24</title>
<g id="a_node24"><a xlink:href="classprecice_1_1cplscheme_1_1BaseCouplingScheme.html#aa1f5c8d5137b3d36fd19137195bee952" target="_top" xlink:title="Getter for _receivesInitializedData.">
<polygon fill="white" stroke="black" points="189,-123.5 189,-164.5 324,-164.5 324,-123.5 189,-123.5"/>
<text text-anchor="start" x="197" y="-152.5" font-family="Helvetica,sans-Serif" font-size="10.00">precice::cplscheme</text>
<text text-anchor="start" x="197" y="-141.5" font-family="Helvetica,sans-Serif" font-size="10.00">::BaseCouplingScheme</text>
<text text-anchor="middle" x="256.5" y="-130.5" font-family="Helvetica,sans-Serif" font-size="10.00">::receivesInitializedData</text>
</a>
</g>
</g>
<!-- Node1&#45;&gt;Node24 -->
<g id="edge34" class="edge">
<title>Node1&#45;&gt;Node24</title>
<path fill="none" stroke="midnightblue" d="M70.68,-376.23C79.5,-332.54 105.9,-230.47 168,-174 171.6,-170.73 175.57,-167.81 179.77,-165.21"/>
<polygon fill="midnightblue" stroke="midnightblue" points="181.62,-168.19 188.69,-160.3 178.24,-162.06 181.62,-168.19"/>
</g>
<!-- Node25 -->
<g id="node25" class="node">
<title>Node25</title>
<g id="a_node25"><a xlink:href="classprecice_1_1cplscheme_1_1BaseCouplingScheme.html#a3aa71af66bf740fa8d9182b47db7dac3" target="_top" xlink:title="Sends data sendDataIDs given in mapCouplingData with communication.">
<polygon fill="white" stroke="black" points="391.5,-109.5 391.5,-150.5 519.5,-150.5 519.5,-109.5 391.5,-109.5"/>
<text text-anchor="start" x="399.5" y="-138.5" font-family="Helvetica,sans-Serif" font-size="10.00">precice::cplscheme</text>
<text text-anchor="start" x="399.5" y="-127.5" font-family="Helvetica,sans-Serif" font-size="10.00">::BaseCouplingScheme</text>
<text text-anchor="middle" x="455.5" y="-116.5" font-family="Helvetica,sans-Serif" font-size="10.00">::sendData</text>
</a>
</g>
</g>
<!-- Node1&#45;&gt;Node25 -->
<g id="edge35" class="edge">
<title>Node1&#45;&gt;Node25</title>
<path fill="none" stroke="midnightblue" d="M132.21,-393.81C203.54,-389.15 312.12,-378.22 345,-354 353.54,-347.71 413.24,-219.64 440.72,-160.03"/>
<polygon fill="midnightblue" stroke="midnightblue" points="443.99,-161.3 444.99,-150.75 437.63,-158.37 443.99,-161.3"/>
</g>
<!-- Node31 -->
<g id="node31" class="node">
<title>Node31</title>
<g id="a_node31"><a xlink:href="classprecice_1_1cplscheme_1_1BaseCouplingScheme.html#a451d5b7ad0672e0a2a4eea89eda25e1d" target="_top" xlink:title="Getter for _sendsInitializedData.">
<polygon fill="white" stroke="black" points="192.5,-63.5 192.5,-104.5 320.5,-104.5 320.5,-63.5 192.5,-63.5"/>
<text text-anchor="start" x="200.5" y="-92.5" font-family="Helvetica,sans-Serif" font-size="10.00">precice::cplscheme</text>
<text text-anchor="start" x="200.5" y="-81.5" font-family="Helvetica,sans-Serif" font-size="10.00">::BaseCouplingScheme</text>
<text text-anchor="middle" x="256.5" y="-70.5" font-family="Helvetica,sans-Serif" font-size="10.00">::sendsInitializedData</text>
</a>
</g>
</g>
<!-- Node1&#45;&gt;Node31 -->
<g id="edge46" class="edge">
<title>Node1&#45;&gt;Node31</title>
<path fill="none" stroke="midnightblue" d="M68.4,-376.35C73.01,-324.75 92.09,-188.96 168,-114 172.5,-109.56 177.68,-105.77 183.24,-102.54"/>
<polygon fill="midnightblue" stroke="midnightblue" points="184.93,-105.61 192.22,-97.92 181.73,-99.38 184.93,-105.61"/>
</g>
<!-- Node7 -->
<g id="node7" class="node">
<title>Node7</title>
<g id="a_node7"><a xlink:href="namespaceprecice_1_1detail.html#adede399b4b92eea01face616a0cc7051" target="_top" xlink:title=" ">
<polygon fill="white" stroke="black" points="925,-297.5 925,-316.5 1038,-316.5 1038,-297.5 925,-297.5"/>
<text text-anchor="middle" x="981.5" y="-304.5" font-family="Helvetica,sans-Serif" font-size="10.00">precice::detail::data</text>
</a>
</g>
</g>
<!-- Node6&#45;&gt;Node7 -->
<g id="edge6" class="edge">
<title>Node6&#45;&gt;Node7</title>
<path fill="none" stroke="midnightblue" d="M308.74,-401.39C336.11,-390.52 366.99,-378.52 381,-374 461.84,-347.9 482.01,-338.68 566,-326 688.1,-307.57 832.53,-305.3 914.64,-305.82"/>
<polygon fill="midnightblue" stroke="midnightblue" points="914.8,-309.32 924.83,-305.9 914.86,-302.32 914.8,-309.32"/>
</g>
<!-- Node8 -->
<g id="node8" class="node">
<title>Node8</title>
<g id="a_node8"><a xlink:href="classprecice_1_1cplscheme_1_1BaseCouplingScheme.html#a6c37c619f364581226635cdca7d39e4b" target="_top" xlink:title="getter for _time">
<polygon fill="white" stroke="black" points="582.5,-335.5 582.5,-376.5 710.5,-376.5 710.5,-335.5 582.5,-335.5"/>
<text text-anchor="start" x="590.5" y="-364.5" font-family="Helvetica,sans-Serif" font-size="10.00">precice::cplscheme</text>
<text text-anchor="start" x="590.5" y="-353.5" font-family="Helvetica,sans-Serif" font-size="10.00">::BaseCouplingScheme</text>
<text text-anchor="middle" x="646.5" y="-342.5" font-family="Helvetica,sans-Serif" font-size="10.00">::getTime</text>
</a>
</g>
</g>
<!-- Node6&#45;&gt;Node8 -->
<g id="edge7" class="edge">
<title>Node6&#45;&gt;Node8</title>
<path fill="none" stroke="midnightblue" d="M337.42,-408.4C406.42,-396.67 505.28,-379.85 572.26,-368.46"/>
<polygon fill="midnightblue" stroke="midnightblue" points="573.04,-371.88 582.31,-366.75 571.87,-364.97 573.04,-371.88"/>
</g>
<!-- Node6&#45;&gt;Node9 -->
<g id="edge8" class="edge">
<title>Node6&#45;&gt;Node9</title>
<path fill="none" stroke="midnightblue" d="M337.06,-439.77C351.72,-443.04 366.97,-446.45 381.43,-449.68"/>
<polygon fill="midnightblue" stroke="midnightblue" points="380.77,-453.12 391.3,-451.88 382.3,-446.29 380.77,-453.12"/>
</g>
<!-- Node9&#45;&gt;Node7 -->
<g id="edge9" class="edge">
<title>Node9&#45;&gt;Node7</title>
<path fill="none" stroke="midnightblue" d="M516.61,-486.58C521.38,-489.37 525.92,-492.5 530,-496 553.61,-516.25 538.94,-540.68 566,-556 628.27,-591.26 657.99,-574.91 727,-556 807.72,-533.88 829.7,-519.06 889,-460 929.78,-419.38 959.6,-357.03 972.86,-325.96"/>
<polygon fill="midnightblue" stroke="midnightblue" points="976.1,-327.28 976.72,-316.7 969.64,-324.59 976.1,-327.28"/>
</g>
<!-- Node9&#45;&gt;Node8 -->
<g id="edge14" class="edge">
<title>Node9&#45;&gt;Node8</title>
<path fill="none" stroke="midnightblue" d="M480.87,-445.2C502.25,-427.71 534.73,-402.92 566,-386 569.31,-384.21 572.75,-382.48 576.26,-380.81"/>
<polygon fill="midnightblue" stroke="midnightblue" points="578,-383.87 585.67,-376.56 575.12,-377.49 578,-383.87"/>
</g>
<!-- Node10 -->
<g id="node10" class="node">
<title>Node10</title>
<g id="a_node10"><a xlink:href="classprecice_1_1com_1_1serialize_1_1SerializedStamples.html#a914cc916961f26874b078f45ce01e6f5" target="_top" xlink:title="Create SerializedStamples with allocated buffers according to size of CouplingData.">
<polygon fill="white" stroke="black" points="569.5,-516 569.5,-546 723.5,-546 723.5,-516 569.5,-516"/>
<text text-anchor="start" x="577.5" y="-534" font-family="Helvetica,sans-Serif" font-size="10.00">precice::com::serialize</text>
<text text-anchor="middle" x="646.5" y="-523" font-family="Helvetica,sans-Serif" font-size="10.00">::SerializedStamples::empty</text>
</a>
</g>
</g>
<!-- Node9&#45;&gt;Node10 -->
<g id="edge10" class="edge">
<title>Node9&#45;&gt;Node10</title>
<path fill="none" stroke="midnightblue" d="M511.19,-486.53C528.65,-492.94 548.08,-499.91 566,-506 572.54,-508.22 579.4,-510.48 586.23,-512.69"/>
<polygon fill="midnightblue" stroke="midnightblue" points="585.6,-516.16 596.19,-515.88 587.74,-509.5 585.6,-516.16"/>
</g>
<!-- Node12 -->
<g id="node12" class="node">
<title>Node12</title>
<g id="a_node12"><a xlink:href="classprecice_1_1cplscheme_1_1BaseCouplingScheme.html#a83379ed90469cb7710fff88ff52269ac" target="_top" xlink:title=" ">
<polygon fill="white" stroke="black" points="566,-455.5 566,-496.5 727,-496.5 727,-455.5 566,-455.5"/>
<text text-anchor="start" x="574" y="-484.5" font-family="Helvetica,sans-Serif" font-size="10.00">precice::cplscheme</text>
<text text-anchor="start" x="574" y="-473.5" font-family="Helvetica,sans-Serif" font-size="10.00">::BaseCouplingScheme</text>
<text text-anchor="middle" x="646.5" y="-462.5" font-family="Helvetica,sans-Serif" font-size="10.00">::receiveNumberOfTimeSteps</text>
</a>
</g>
</g>
<!-- Node9&#45;&gt;Node12 -->
<g id="edge15" class="edge">
<title>Node9&#45;&gt;Node12</title>
<path fill="none" stroke="midnightblue" d="M519.7,-469.34C531.27,-469.96 543.54,-470.61 555.71,-471.25"/>
<polygon fill="midnightblue" stroke="midnightblue" points="555.72,-474.75 565.89,-471.79 556.09,-467.76 555.72,-474.75"/>
</g>
<!-- Node13 -->
<g id="node13" class="node">
<title>Node13</title>
<g id="a_node13"><a xlink:href="classprecice_1_1cplscheme_1_1BaseCouplingScheme.html#a700bef351e463eb84836538fd91f16b3" target="_top" xlink:title=" ">
<polygon fill="white" stroke="black" points="582.5,-395.5 582.5,-436.5 710.5,-436.5 710.5,-395.5 582.5,-395.5"/>
<text text-anchor="start" x="590.5" y="-424.5" font-family="Helvetica,sans-Serif" font-size="10.00">precice::cplscheme</text>
<text text-anchor="start" x="590.5" y="-413.5" font-family="Helvetica,sans-Serif" font-size="10.00">::BaseCouplingScheme</text>
<text text-anchor="middle" x="646.5" y="-402.5" font-family="Helvetica,sans-Serif" font-size="10.00">::receiveTimes</text>
</a>
</g>
</g>
<!-- Node9&#45;&gt;Node13 -->
<g id="edge16" class="edge">
<title>Node9&#45;&gt;Node13</title>
<path fill="none" stroke="midnightblue" d="M519.7,-449.28C536.56,-444.82 554.93,-439.96 572.28,-435.37"/>
<polygon fill="midnightblue" stroke="midnightblue" points="573.59,-438.64 582.36,-432.7 571.8,-431.88 573.59,-438.64"/>
</g>
<!-- Node10&#45;&gt;Node7 -->
<g id="edge13" class="edge">
<title>Node10&#45;&gt;Node7</title>
<path fill="none" stroke="midnightblue" d="M702.08,-515.86C710.56,-512.93 719.11,-509.63 727,-506 804.08,-470.55 823.49,-458.92 889,-405 919.35,-380.02 949.48,-345.35 966.47,-324.65"/>
<polygon fill="midnightblue" stroke="midnightblue" points="969.33,-326.67 972.91,-316.7 963.89,-322.27 969.33,-326.67"/>
</g>
<!-- Node11 -->
<g id="node11" class="node">
<title>Node11</title>
<g id="a_node11"><a xlink:href="classprecice_1_1com_1_1serialize_1_1SerializedStamples.html#a766834ff07b9fc24a575a98c2fc8c382" target="_top" xlink:title=" ">
<polygon fill="white" stroke="black" points="763,-354.5 763,-395.5 889,-395.5 889,-354.5 763,-354.5"/>
<text text-anchor="start" x="771" y="-383.5" font-family="Helvetica,sans-Serif" font-size="10.00">precice::com::serialize</text>
<text text-anchor="start" x="771" y="-372.5" font-family="Helvetica,sans-Serif" font-size="10.00">::SerializedStamples::</text>
<text text-anchor="middle" x="826" y="-361.5" font-family="Helvetica,sans-Serif" font-size="10.00">allocate</text>
</a>
</g>
</g>
<!-- Node10&#45;&gt;Node11 -->
<g id="edge11" class="edge">
<title>Node10&#45;&gt;Node11</title>
<path fill="none" stroke="midnightblue" d="M709.26,-515.9C715.52,-513.12 721.57,-509.85 727,-506 737.14,-498.82 779.2,-440.25 804.81,-403.9"/>
<polygon fill="midnightblue" stroke="midnightblue" points="807.74,-405.82 810.63,-395.63 802.01,-401.8 807.74,-405.82"/>
</g>
<!-- Node11&#45;&gt;Node7 -->
<g id="edge12" class="edge">
<title>Node11&#45;&gt;Node7</title>
<path fill="none" stroke="midnightblue" d="M873.47,-354.41C898.11,-343.5 927.71,-330.39 949.53,-320.72"/>
<polygon fill="midnightblue" stroke="midnightblue" points="951.24,-323.79 958.96,-316.54 948.4,-317.39 951.24,-323.79"/>
</g>
<!-- Node15&#45;&gt;Node2 -->
<g id="edge19" class="edge">
<title>Node15&#45;&gt;Node2</title>
<path fill="none" stroke="midnightblue" d="M265.24,-693.71C281.09,-733.51 320.9,-821.23 381,-872 382.54,-873.3 384.14,-874.55 385.8,-875.75"/>
<polygon fill="midnightblue" stroke="midnightblue" points="384.15,-878.86 394.45,-881.35 387.96,-872.98 384.15,-878.86"/>
</g>
<!-- Node15&#45;&gt;Node3 -->
<g id="edge21" class="edge">
<title>Node15&#45;&gt;Node3</title>
<path fill="none" stroke="midnightblue" d="M277.32,-693.81C295.29,-712.84 322.36,-741.93 345,-768 361.57,-787.08 360.68,-796.99 381,-812 383.04,-813.5 385.16,-814.95 387.35,-816.33"/>
<polygon fill="midnightblue" stroke="midnightblue" points="385.64,-819.39 396.05,-821.37 389.15,-813.33 385.64,-819.39"/>
</g>
<!-- Node16 -->
<g id="node16" class="node">
<title>Node16</title>
<g id="a_node16"><a xlink:href="namespaceprecice_1_1math.html#a0e86802cfe992deba131d789d035b5b7" target="_top" xlink:title="Compares two Eigen::MatrixBase for equality up to tolerance.">
<polygon fill="white" stroke="black" points="765,-638.5 765,-657.5 887,-657.5 887,-638.5 765,-638.5"/>
<text text-anchor="middle" x="826" y="-645.5" font-family="Helvetica,sans-Serif" font-size="10.00">precice::math::equals</text>
</a>
</g>
</g>
<!-- Node15&#45;&gt;Node16 -->
<g id="edge20" class="edge">
<title>Node15&#45;&gt;Node16</title>
<path fill="none" stroke="midnightblue" d="M345.35,-669.99C439.7,-666.63 594,-660.76 727,-654 736,-653.54 745.46,-653.02 754.82,-652.47"/>
<polygon fill="midnightblue" stroke="midnightblue" points="755.12,-655.96 764.89,-651.88 754.7,-648.97 755.12,-655.96"/>
</g>
<!-- Node17 -->
<g id="node17" class="node">
<title>Node17</title>
<g id="a_node17"><a xlink:href="classprecice_1_1cplscheme_1_1BaseCouplingScheme.html#a7635edb3017de9279bc550173f44003f" target="_top" xlink:title="Returns the time window size, if one is given by the coupling scheme.">
<polygon fill="white" stroke="black" points="391.5,-505.5 391.5,-546.5 519.5,-546.5 519.5,-505.5 391.5,-505.5"/>
<text text-anchor="start" x="399.5" y="-534.5" font-family="Helvetica,sans-Serif" font-size="10.00">precice::cplscheme</text>
<text text-anchor="start" x="399.5" y="-523.5" font-family="Helvetica,sans-Serif" font-size="10.00">::BaseCouplingScheme</text>
<text text-anchor="middle" x="455.5" y="-512.5" font-family="Helvetica,sans-Serif" font-size="10.00">::getTimeWindowSize</text>
</a>
</g>
</g>
<!-- Node15&#45;&gt;Node17 -->
<g id="edge22" class="edge">
<title>Node15&#45;&gt;Node17</title>
<path fill="none" stroke="midnightblue" d="M274.88,-652.37C297.24,-626.89 338.31,-583.54 381,-556 383.58,-554.34 386.27,-552.73 389.03,-551.19"/>
<polygon fill="midnightblue" stroke="midnightblue" points="390.77,-554.23 398.02,-546.5 387.54,-548.02 390.77,-554.23"/>
</g>
<!-- Node18 -->
<g id="node18" class="node">
<title>Node18</title>
<g id="a_node18"><a xlink:href="classprecice_1_1cplscheme_1_1BaseCouplingScheme.html#aa1c82548c80a9c8bb129e115e0f710fe" target="_top" xlink:title="Function to check whether time window size is defined by coupling scheme.">
<polygon fill="white" stroke="black" points="582.5,-603.5 582.5,-644.5 710.5,-644.5 710.5,-603.5 582.5,-603.5"/>
<text text-anchor="start" x="590.5" y="-632.5" font-family="Helvetica,sans-Serif" font-size="10.00">precice::cplscheme</text>
<text text-anchor="start" x="590.5" y="-621.5" font-family="Helvetica,sans-Serif" font-size="10.00">::BaseCouplingScheme</text>
<text text-anchor="middle" x="646.5" y="-610.5" font-family="Helvetica,sans-Serif" font-size="10.00">::hasTimeWindowSize</text>
</a>
</g>
</g>
<!-- Node15&#45;&gt;Node18 -->
<g id="edge26" class="edge">
<title>Node15&#45;&gt;Node18</title>
<path fill="none" stroke="midnightblue" d="M345.06,-661.94C413.59,-653.29 507.78,-641.39 572.32,-633.24"/>
<polygon fill="midnightblue" stroke="midnightblue" points="572.94,-636.69 582.42,-631.97 572.06,-629.75 572.94,-636.69"/>
</g>
<!-- Node19 -->
<g id="node19" class="node">
<title>Node19</title>
<g id="a_node19"><a xlink:href="classprecice_1_1cplscheme_1_1BaseCouplingScheme.html#a71a31cd898a45b62b761f9545fce767b" target="_top" xlink:title="Checks if the implicit cplscheme has converged.">
<polygon fill="white" stroke="black" points="391.5,-565.5 391.5,-606.5 519.5,-606.5 519.5,-565.5 391.5,-565.5"/>
<text text-anchor="start" x="399.5" y="-594.5" font-family="Helvetica,sans-Serif" font-size="10.00">precice::cplscheme</text>
<text text-anchor="start" x="399.5" y="-583.5" font-family="Helvetica,sans-Serif" font-size="10.00">::BaseCouplingScheme</text>
<text text-anchor="middle" x="455.5" y="-572.5" font-family="Helvetica,sans-Serif" font-size="10.00">::hasConverged</text>
</a>
</g>
</g>
<!-- Node15&#45;&gt;Node19 -->
<g id="edge25" class="edge">
<title>Node15&#45;&gt;Node19</title>
<path fill="none" stroke="midnightblue" d="M304.19,-652.38C332.42,-639.91 368.59,-623.94 398.38,-610.78"/>
<polygon fill="midnightblue" stroke="midnightblue" points="400.07,-613.86 407.81,-606.62 397.25,-607.46 400.07,-613.86"/>
</g>
<!-- Node20 -->
<g id="node20" class="node">
<title>Node20</title>
<g id="a_node20"><a xlink:href="classprecice_1_1cplscheme_1_1BaseCouplingScheme.html#a4dcb97e3ef79b1cca6af577f9cbbec19" target="_top" xlink:title="Function to determine whether coupling scheme is an implicit coupling scheme.">
<polygon fill="white" stroke="black" points="381,-761.5 381,-802.5 530,-802.5 530,-761.5 381,-761.5"/>
<text text-anchor="start" x="389" y="-790.5" font-family="Helvetica,sans-Serif" font-size="10.00">precice::cplscheme</text>
<text text-anchor="start" x="389" y="-779.5" font-family="Helvetica,sans-Serif" font-size="10.00">::BaseCouplingScheme</text>
<text text-anchor="middle" x="455.5" y="-768.5" font-family="Helvetica,sans-Serif" font-size="10.00">::isImplicitCouplingScheme</text>
</a>
</g>
</g>
<!-- Node15&#45;&gt;Node20 -->
<g id="edge27" class="edge">
<title>Node15&#45;&gt;Node20</title>
<path fill="none" stroke="midnightblue" d="M286.54,-693.72C311.02,-710.65 347.33,-734.54 381,-752 384.48,-753.8 388.09,-755.58 391.77,-757.3"/>
<polygon fill="midnightblue" stroke="midnightblue" points="390.43,-760.54 400.99,-761.49 393.33,-754.17 390.43,-760.54"/>
</g>
<!-- Node21 -->
<g id="node21" class="node">
<title>Node21</title>
<g id="a_node21"><a xlink:href="classprecice_1_1cplscheme_1_1SerialCouplingScheme.html#a54ad452af57c6b280b0c7a5fe188936b" target="_top" xlink:title="Setter for _timeWindowSize.">
<polygon fill="white" stroke="black" points="389.5,-701.5 389.5,-742.5 521.5,-742.5 521.5,-701.5 389.5,-701.5"/>
<text text-anchor="start" x="397.5" y="-730.5" font-family="Helvetica,sans-Serif" font-size="10.00">precice::cplscheme</text>
<text text-anchor="start" x="397.5" y="-719.5" font-family="Helvetica,sans-Serif" font-size="10.00">::SerialCouplingScheme</text>
<text text-anchor="middle" x="455.5" y="-708.5" font-family="Helvetica,sans-Serif" font-size="10.00">::setTimeWindowSize</text>
</a>
</g>
</g>
<!-- Node15&#45;&gt;Node21 -->
<g id="edge28" class="edge">
<title>Node15&#45;&gt;Node21</title>
<path fill="none" stroke="midnightblue" d="M340.19,-693.57C353.28,-696.82 366.75,-700.17 379.65,-703.38"/>
<polygon fill="midnightblue" stroke="midnightblue" points="378.83,-706.79 389.38,-705.8 380.52,-699.99 378.83,-706.79"/>
</g>
<!-- Node17&#45;&gt;Node18 -->
<g id="edge23" class="edge">
<title>Node17&#45;&gt;Node18</title>
<path fill="none" stroke="midnightblue" d="M512.92,-546.59C518.84,-549.46 524.64,-552.61 530,-556 548.33,-567.62 547.82,-577.14 566,-589 571.3,-592.46 577.01,-595.73 582.84,-598.78"/>
<polygon fill="midnightblue" stroke="midnightblue" points="581.55,-602.04 592.06,-603.37 584.67,-595.78 581.55,-602.04"/>
</g>
<!-- Node18&#45;&gt;Node16 -->
<g id="edge24" class="edge">
<title>Node18&#45;&gt;Node16</title>
<path fill="none" stroke="midnightblue" d="M710.58,-632.53C724.91,-634.47 740.22,-636.54 754.82,-638.51"/>
<polygon fill="midnightblue" stroke="midnightblue" points="754.42,-641.99 764.8,-639.86 755.36,-635.05 754.42,-641.99"/>
</g>
<!-- Node22 -->
<g id="node22" class="node">
<title>Node22</title>
<g id="a_node22"><a xlink:href="classprecice_1_1cplscheme_1_1BaseCouplingScheme.html#a1337cc34f923d8bf9c1d50a18f3c9207" target="_top" xlink:title="Setter for _timeWindowSize.">
<polygon fill="white" stroke="black" points="582.5,-701.5 582.5,-742.5 710.5,-742.5 710.5,-701.5 582.5,-701.5"/>
<text text-anchor="start" x="590.5" y="-730.5" font-family="Helvetica,sans-Serif" font-size="10.00">precice::cplscheme</text>
<text text-anchor="start" x="590.5" y="-719.5" font-family="Helvetica,sans-Serif" font-size="10.00">::BaseCouplingScheme</text>
<text text-anchor="middle" x="646.5" y="-708.5" font-family="Helvetica,sans-Serif" font-size="10.00">::setTimeWindowSize</text>
</a>
</g>
</g>
<!-- Node21&#45;&gt;Node22 -->
<g id="edge29" class="edge">
<title>Node21&#45;&gt;Node22</title>
<path fill="none" stroke="midnightblue" d="M521.54,-722C537.81,-722 555.38,-722 572.03,-722"/>
<polygon fill="midnightblue" stroke="midnightblue" points="572.25,-725.5 582.25,-722 572.25,-718.5 572.25,-725.5"/>
</g>
<!-- Node23&#45;&gt;Node9 -->
<g id="edge33" class="edge">
<title>Node23&#45;&gt;Node9</title>
<path fill="none" stroke="midnightblue" d="M332.54,-499.43C348.57,-495.04 365.48,-490.4 381.43,-486.03"/>
<polygon fill="midnightblue" stroke="midnightblue" points="382.5,-489.36 391.22,-483.35 380.65,-482.61 382.5,-489.36"/>
</g>
<!-- Node23&#45;&gt;Node17 -->
<g id="edge32" class="edge">
<title>Node23&#45;&gt;Node17</title>
<path fill="none" stroke="midnightblue" d="M333.67,-522.32C349.3,-522.8 365.72,-523.3 381.25,-523.77"/>
<polygon fill="midnightblue" stroke="midnightblue" points="381.2,-527.27 391.3,-524.08 381.42,-520.27 381.2,-527.27"/>
</g>
<!-- Node25&#45;&gt;Node7 -->
<g id="edge36" class="edge">
<title>Node25&#45;&gt;Node7</title>
<path fill="none" stroke="midnightblue" d="M519.88,-125.51C624.74,-119.26 828.74,-112.48 889,-149 940.61,-180.28 966.06,-252.43 975.72,-287.35"/>
<polygon fill="midnightblue" stroke="midnightblue" points="972.4,-288.49 978.31,-297.28 979.17,-286.72 972.4,-288.49"/>
</g>
<!-- Node26 -->
<g id="node26" class="node">
<title>Node26</title>
<g id="a_node26"><a xlink:href="classprecice_1_1cplscheme_1_1BaseCouplingScheme.html#aab81f5f3857872a22d82f871248d4371" target="_top" xlink:title=" ">
<polygon fill="white" stroke="black" points="572.5,-60.5 572.5,-101.5 720.5,-101.5 720.5,-60.5 572.5,-60.5"/>
<text text-anchor="start" x="580.5" y="-89.5" font-family="Helvetica,sans-Serif" font-size="10.00">precice::cplscheme</text>
<text text-anchor="start" x="580.5" y="-78.5" font-family="Helvetica,sans-Serif" font-size="10.00">::BaseCouplingScheme</text>
<text text-anchor="middle" x="646.5" y="-67.5" font-family="Helvetica,sans-Serif" font-size="10.00">::sendNumberOfTimeSteps</text>
</a>
</g>
</g>
<!-- Node25&#45;&gt;Node26 -->
<g id="edge37" class="edge">
<title>Node25&#45;&gt;Node26</title>
<path fill="none" stroke="midnightblue" d="M519.7,-113.62C533.39,-110.07 548.06,-106.26 562.39,-102.55"/>
<polygon fill="midnightblue" stroke="midnightblue" points="563.43,-105.89 572.23,-100 561.67,-99.12 563.43,-105.89"/>
</g>
<!-- Node27 -->
<g id="node27" class="node">
<title>Node27</title>
<g id="a_node27"><a xlink:href="classprecice_1_1cplscheme_1_1BaseCouplingScheme.html#ad50465f4541de9580e627400d7e39f4f" target="_top" xlink:title=" ">
<polygon fill="white" stroke="black" points="582.5,-0.5 582.5,-41.5 710.5,-41.5 710.5,-0.5 582.5,-0.5"/>
<text text-anchor="start" x="590.5" y="-29.5" font-family="Helvetica,sans-Serif" font-size="10.00">precice::cplscheme</text>
<text text-anchor="start" x="590.5" y="-18.5" font-family="Helvetica,sans-Serif" font-size="10.00">::BaseCouplingScheme</text>
<text text-anchor="middle" x="646.5" y="-7.5" font-family="Helvetica,sans-Serif" font-size="10.00">::sendTimes</text>
</a>
</g>
</g>
<!-- Node25&#45;&gt;Node27 -->
<g id="edge38" class="edge">
<title>Node25&#45;&gt;Node27</title>
<path fill="none" stroke="midnightblue" d="M480.91,-109.49C502.32,-92.23 534.82,-67.75 566,-51 569.31,-49.22 572.76,-47.5 576.27,-45.84"/>
<polygon fill="midnightblue" stroke="midnightblue" points="578.01,-48.89 585.69,-41.6 575.14,-42.51 578.01,-48.89"/>
</g>
<!-- Node28 -->
<g id="node28" class="node">
<title>Node28</title>
<g id="a_node28"><a xlink:href="classprecice_1_1com_1_1serialize_1_1SerializedStamples.html#acefbea8c1c6ff8ca9f647ebf37348513" target="_top" xlink:title="Serializes a given CouplingData into SerializedStamples.">
<polygon fill="white" stroke="black" points="583.5,-218.5 583.5,-259.5 709.5,-259.5 709.5,-218.5 583.5,-218.5"/>
<text text-anchor="start" x="591.5" y="-247.5" font-family="Helvetica,sans-Serif" font-size="10.00">precice::com::serialize</text>
<text text-anchor="start" x="591.5" y="-236.5" font-family="Helvetica,sans-Serif" font-size="10.00">::SerializedStamples::</text>
<text text-anchor="middle" x="646.5" y="-225.5" font-family="Helvetica,sans-Serif" font-size="10.00">serialize</text>
</a>
</g>
</g>
<!-- Node25&#45;&gt;Node28 -->
<g id="edge39" class="edge">
<title>Node25&#45;&gt;Node28</title>
<path fill="none" stroke="midnightblue" d="M492.05,-150.5C522.84,-168.26 567.53,-194.03 600.75,-213.19"/>
<polygon fill="midnightblue" stroke="midnightblue" points="599.38,-216.44 609.79,-218.4 602.88,-210.38 599.38,-216.44"/>
</g>
<!-- Node28&#45;&gt;Node7 -->
<g id="edge41" class="edge">
<title>Node28&#45;&gt;Node7</title>
<path fill="none" stroke="midnightblue" d="M709.62,-256.12C726.84,-260.6 745.59,-265.22 763,-269 813.63,-279.98 871.43,-289.96 914.71,-296.93"/>
<polygon fill="midnightblue" stroke="midnightblue" points="914.41,-300.43 924.83,-298.55 915.51,-293.52 914.41,-300.43"/>
</g>
<!-- Node28&#45;&gt;Node11 -->
<g id="edge40" class="edge">
<title>Node28&#45;&gt;Node11</title>
<path fill="none" stroke="midnightblue" d="M674.46,-259.66C705.3,-283.29 755.92,-322.07 789.84,-348.06"/>
<polygon fill="midnightblue" stroke="midnightblue" points="788.01,-351.07 798.08,-354.37 792.27,-345.51 788.01,-351.07"/>
</g>
<!-- Node29 -->
<g id="node29" class="node">
<title>Node29</title>
<g id="a_node29"><a xlink:href="classprecice_1_1com_1_1serialize_1_1SerializedStamples.html#aa94dbbe6f68c1dc4f14fb132df8ab796" target="_top" xlink:title="Serialize gradients from timeStepsStorage of data into _gradients.">
<polygon fill="white" stroke="black" points="763,-218.5 763,-259.5 889,-259.5 889,-218.5 763,-218.5"/>
<text text-anchor="start" x="771" y="-247.5" font-family="Helvetica,sans-Serif" font-size="10.00">precice::com::serialize</text>
<text text-anchor="start" x="771" y="-236.5" font-family="Helvetica,sans-Serif" font-size="10.00">::SerializedStamples::</text>
<text text-anchor="middle" x="826" y="-225.5" font-family="Helvetica,sans-Serif" font-size="10.00">serializeGradients</text>
</a>
</g>
</g>
<!-- Node28&#45;&gt;Node29 -->
<g id="edge42" class="edge">
<title>Node28&#45;&gt;Node29</title>
<path fill="none" stroke="midnightblue" d="M709.58,-239C723.5,-239 738.38,-239 752.67,-239"/>
<polygon fill="midnightblue" stroke="midnightblue" points="752.95,-242.5 762.95,-239 752.95,-235.5 752.95,-242.5"/>
</g>
<!-- Node30 -->
<g id="node30" class="node">
<title>Node30</title>
<g id="a_node30"><a xlink:href="classprecice_1_1com_1_1serialize_1_1SerializedStamples.html#a51596e529ca6050a18852bf5172df2e6" target="_top" xlink:title="Serialize values from timeStepsStorage of data into _values.">
<polygon fill="white" stroke="black" points="763,-158.5 763,-199.5 889,-199.5 889,-158.5 763,-158.5"/>
<text text-anchor="start" x="771" y="-187.5" font-family="Helvetica,sans-Serif" font-size="10.00">precice::com::serialize</text>
<text text-anchor="start" x="771" y="-176.5" font-family="Helvetica,sans-Serif" font-size="10.00">::SerializedStamples::</text>
<text text-anchor="middle" x="826" y="-165.5" font-family="Helvetica,sans-Serif" font-size="10.00">serializeValues</text>
</a>
</g>
</g>
<!-- Node28&#45;&gt;Node30 -->
<g id="edge44" class="edge">
<title>Node28&#45;&gt;Node30</title>
<path fill="none" stroke="midnightblue" d="M708.59,-218.35C723.31,-213.37 739.16,-208.01 754.29,-202.9"/>
<polygon fill="midnightblue" stroke="midnightblue" points="755.75,-206.1 764.1,-199.58 753.51,-199.47 755.75,-206.1"/>
</g>
<!-- Node29&#45;&gt;Node7 -->
<g id="edge43" class="edge">
<title>Node29&#45;&gt;Node7</title>
<path fill="none" stroke="midnightblue" d="M873.47,-259.59C898.11,-270.5 927.71,-283.61 949.53,-293.28"/>
<polygon fill="midnightblue" stroke="midnightblue" points="948.4,-296.61 958.96,-297.46 951.24,-290.21 948.4,-296.61"/>
</g>
<!-- Node30&#45;&gt;Node7 -->
<g id="edge45" class="edge">
<title>Node30&#45;&gt;Node7</title>
<path fill="none" stroke="midnightblue" d="M874.45,-199.67C879.52,-202.54 884.48,-205.67 889,-209 920.81,-232.44 950.66,-267.89 967.17,-289.11"/>
<polygon fill="midnightblue" stroke="midnightblue" points="964.54,-291.43 973.4,-297.25 970.11,-287.18 964.54,-291.43"/>
</g>
</g>
</svg>
        <g id="navigator" transform="translate(0 0)" fill="#404254">
                <rect fill="#f2f5e9" fill-opacity="0.5" stroke="#606060" stroke-width=".5" x="0" y="0" width="60" height="60"/>
                <use id="zoomplus" xlink:href="#zoomPlus" x="17" y="9" onmousedown="handleZoom(evt,'in')"/>
                <use id="zoomminus" xlink:href="#zoomMin" x="42" y="9" onmousedown="handleZoom(evt,'out')"/>
                <use id="reset" xlink:href="#resetDef" x="30" y="36" onmousedown="handleReset()"/>
                <g id="arrowUp" xlink:href="#dirArrow" transform="translate(30 24)" onmousedown="handlePan(0,-1)">
                  <use xlink:href="#rim" fill="#404040">
                        <set attributeName="fill" to="#808080" begin="arrowUp.mouseover" end="arrowUp.mouseout"/>
                  </use>
                  <path fill="none" stroke="white" stroke-width="1.5" d="M0,-3.0v7 M-2.5,-0.5L0,-3.0L2.5,-0.5"/>
                </g>
                <g id="arrowRight" xlink:href="#dirArrow" transform="rotate(90) translate(36 -43)" onmousedown="handlePan(1,0)">
                  <use xlink:href="#rim" fill="#404040">
                        <set attributeName="fill" to="#808080" begin="arrowRight.mouseover" end="arrowRight.mouseout"/>
                  </use>
                  <path fill="none" stroke="white" stroke-width="1.5" d="M0,-3.0v7 M-2.5,-0.5L0,-3.0L2.5,-0.5"/>
                </g>
                <g id="arrowDown" xlink:href="#dirArrow" transform="rotate(180) translate(-30 -48)" onmousedown="handlePan(0,1)">
                  <use xlink:href="#rim" fill="#404040">
                        <set attributeName="fill" to="#808080" begin="arrowDown.mouseover" end="arrowDown.mouseout"/>
                  </use>
                  <path fill="none" stroke="white" stroke-width="1.5" d="M0,-3.0v7 M-2.5,-0.5L0,-3.0L2.5,-0.5"/>
                </g>
                <g id="arrowLeft" xlink:href="#dirArrow" transform="rotate(270) translate(-36 17)" onmousedown="handlePan(-1,0)">
                  <use xlink:href="#rim" fill="#404040">
                        <set attributeName="fill" to="#808080" begin="arrowLeft.mouseover" end="arrowLeft.mouseout"/>
                  </use>
                  <path fill="none" stroke="white" stroke-width="1.5" d="M0,-3.0v7 M-2.5,-0.5L0,-3.0L2.5,-0.5"/>
                </g>
        </g>
        <svg viewBox="0 0 15 15" width="100%" height="30px" preserveAspectRatio="xMaxYMin meet">
         <g id="arrow_out" transform="scale(0.3 0.3)">
          <a xlink:href="classprecice_1_1cplscheme_1_1SerialCouplingScheme_a8c0ab3744a0d9e1fd303cbec74fe3f05_cgraph_org.svg" target="_base">
           <rect id="button" ry="5" rx="5" y="6" x="6" height="38" width="38"
                fill="#f2f5e9" fill-opacity="0.5" stroke="#606060" stroke-width="1.0"/>
           <path id="arrow"
             d="M 11.500037,31.436501 C 11.940474,20.09759 22.043105,11.32322 32.158766,21.979434 L 37.068811,17.246167 C 37.068811,17.246167 37.088388,32 37.088388,32 L 22.160133,31.978069 C 22.160133,31.978069 26.997745,27.140456 26.997745,27.140456 C 18.528582,18.264221 13.291696,25.230495 11.500037,31.436501 z"
             style="fill:#404040;"/>
          </a>
         </g>
        </svg>
</svg>
