<?xml version="1.0" encoding="UTF-8" standalone="no"?>
<!DOCTYPE svg PUBLIC "-//W3C//DTD SVG 1.1//EN"
 "http://www.w3.org/Graphics/SVG/1.1/DTD/svg11.dtd">
<!-- Generated by graphviz version 2.43.0 (0)
 -->
<!-- Title: precice::cplscheme::CouplingData::storeIteration Pages: 1 -->
<svg width="563pt" height="110pt"
 viewBox="0.00 0.00 563.00 110.00" xmlns="http://www.w3.org/2000/svg" xmlns:xlink="http://www.w3.org/1999/xlink">
<g id="graph0" class="graph" transform="scale(1 1) rotate(0) translate(4 106)">
<title>precice::cplscheme::CouplingData::storeIteration</title>
<!-- Node1 -->
<g id="Node000001" class="node">
<title>Node1</title>
<g id="a_Node000001"><a xlink:title="store _data&#45;&gt;values() in read&#45;only variable _previousIteration for convergence checks etc.">
<polygon fill="#999999" stroke="#666666" points="161,-78 0,-78 0,-48 161,-48 161,-78"/>
<text text-anchor="start" x="8" y="-66" font-family="Helvetica,sans-Serif" font-size="10.00">precice::cplscheme</text>
<text text-anchor="middle" x="80.5" y="-55" font-family="Helvetica,sans-Serif" font-size="10.00">::CouplingData::storeIteration</text>
</a>
</g>
</g>
<!-- Node2 -->
<g id="Node000002" class="node">
<title>Node2</title>
<g id="a_Node000002"><a xlink:href="classprecice_1_1cplscheme_1_1CouplingData.html#abaf28d8f21edab0bc860f621f7cd6fae" target="_top" xlink:title="Returns a reference to the gradient data Sample.">
<polygon fill="white" stroke="#666666" points="332.5,-102 201.5,-102 201.5,-72 332.5,-72 332.5,-102"/>
<text text-anchor="start" x="209.5" y="-90" font-family="Helvetica,sans-Serif" font-size="10.00">precice::cplscheme</text>
<text text-anchor="middle" x="267" y="-79" font-family="Helvetica,sans-Serif" font-size="10.00">::CouplingData::sample</text>
</a>
</g>
</g>
<!-- Node1&#45;&gt;Node2 -->
<g id="edge1_Node000001_Node000002" class="edge">
<title>Node1&#45;&gt;Node2</title>
<g id="a_edge1_Node000001_Node000002"><a xlink:title=" ">
<path fill="none" stroke="#63b8ff" d="M161.08,-73.35C171.07,-74.65 181.26,-75.98 191.18,-77.27"/>
<polygon fill="#63b8ff" stroke="#63b8ff" points="191.02,-80.78 201.38,-78.59 191.92,-73.83 191.02,-80.78"/>
</a>
</g>
</g>
<!-- Node3 -->
<g id="Node000003" class="node">
<title>Node3</title>
<g id="a_Node000003"><a xlink:href="classprecice_1_1cplscheme_1_1CouplingData.html#a4ad63ed49784e3083cf549768c7ed3a0" target="_top" xlink:title="Returns the stamples in _timeStepsStorage.">
<polygon fill="white" stroke="#666666" points="337,-54 197,-54 197,-24 337,-24 337,-54"/>
<text text-anchor="start" x="205" y="-42" font-family="Helvetica,sans-Serif" font-size="10.00">precice::cplscheme</text>
<text text-anchor="middle" x="267" y="-31" font-family="Helvetica,sans-Serif" font-size="10.00">::CouplingData::stamples</text>
</a>
</g>
</g>
<!-- Node1&#45;&gt;Node3 -->
<g id="edge2_Node000001_Node000003" class="edge">
<title>Node1&#45;&gt;Node3</title>
<g id="a_edge2_Node000001_Node000003"><a xlink:title=" ">
<path fill="none" stroke="#63b8ff" d="M161.08,-52.65C169.64,-51.54 178.34,-50.4 186.88,-49.29"/>
<polygon fill="#63b8ff" stroke="#63b8ff" points="187.36,-52.76 196.83,-48 186.46,-45.82 187.36,-52.76"/>
</a>
</g>
</g>
<!-- Node4 -->
<g id="Node000004" class="node">
<title>Node4</title>
<g id="a_Node000004"><a xlink:href="classprecice_1_1time_1_1Storage.html#a1e1a91e37f95f2d55ae43c2cb0e93157" target="_top" xlink:title="Get the stamples.">
<polygon fill="white" stroke="#666666" points="526,-78 402,-78 402,-48 526,-48 526,-78"/>
<text text-anchor="start" x="410" y="-66" font-family="Helvetica,sans-Serif" font-size="10.00">precice::time::Storage</text>
<text text-anchor="middle" x="464" y="-55" font-family="Helvetica,sans-Serif" font-size="10.00">::stamples</text>
</a>
</g>
</g>
<!-- Node3&#45;&gt;Node4 -->
<g id="edge3_Node000003_Node000004" class="edge">
<title>Node3&#45;&gt;Node4</title>
<g id="a_edge3_Node000003_Node000004"><a xlink:title=" ">
<path fill="none" stroke="#63b8ff" d="M337.02,-47.5C354.7,-49.67 373.75,-52.01 391.54,-54.21"/>
<polygon fill="#63b8ff" stroke="#63b8ff" points="391.5,-57.73 401.86,-55.47 392.36,-50.78 391.5,-57.73"/>
</a>
</g>
</g>
<!-- Node5 -->
<g id="Node000005" class="node">
<title>Node5</title>
<g id="a_Node000005"><a xlink:href="classprecice_1_1cplscheme_1_1CouplingData.html#a3abf76eac9932c4572c528c26db235c7" target="_top" xlink:title="Returns a reference to the time step storage of the data.">
<polygon fill="white" stroke="#666666" points="555,-30 373,-30 373,0 555,0 555,-30"/>
<text text-anchor="start" x="381" y="-18" font-family="Helvetica,sans-Serif" font-size="10.00">precice::cplscheme</text>
<text text-anchor="middle" x="464" y="-7" font-family="Helvetica,sans-Serif" font-size="10.00">::CouplingData::timeStepsStorage</text>
</a>
</g>
</g>
<!-- Node3&#45;&gt;Node5 -->
<g id="edge4_Node000003_Node000005" class="edge">
<title>Node3&#45;&gt;Node5</title>
<g id="a_edge4_Node000003_Node000005"><a xlink:title=" ">
<path fill="none" stroke="#63b8ff" d="M337.02,-30.5C345.37,-29.48 354.02,-28.41 362.71,-27.34"/>
<polygon fill="#63b8ff" stroke="#63b8ff" points="363.4,-30.79 372.89,-26.09 362.54,-23.84 363.4,-30.79"/>
</a>
</g>
</g>
</g>
</svg>
