<?xml version="1.0" encoding="UTF-8" standalone="no"?>
<!DOCTYPE svg PUBLIC "-//W3C//DTD SVG 1.1//EN"
 "http://www.w3.org/Graphics/SVG/1.1/DTD/svg11.dtd">
<!-- Generated by graphviz version 2.43.0 (0)
 -->
<!-- Title: precice::cplscheme::BaseCouplingScheme::receiveDataForWindowEnd Pages: 1 -->
<svg width="834pt" height="258pt"
 viewBox="0.00 0.00 834.00 258.00" xmlns="http://www.w3.org/2000/svg" xmlns:xlink="http://www.w3.org/1999/xlink">
<g id="graph0" class="graph" transform="scale(1 1) rotate(0) translate(4 254)">
<title>precice::cplscheme::BaseCouplingScheme::receiveDataForWindowEnd</title>
<polygon fill="white" stroke="transparent" points="-4,4 -4,-254 830,-254 830,4 -4,4"/>
<!-- Node1 -->
<g id="node1" class="node">
<title>Node1</title>
<g id="a_node1"><a xlink:title="Like receiveData, but temporarily sets window time to end of window.">
<polygon fill="#bfbfbf" stroke="black" points="0,-161.5 0,-202.5 154,-202.5 154,-161.5 0,-161.5"/>
<text text-anchor="start" x="8" y="-190.5" font-family="Helvetica,sans-Serif" font-size="10.00">precice::cplscheme</text>
<text text-anchor="start" x="8" y="-179.5" font-family="Helvetica,sans-Serif" font-size="10.00">::BaseCouplingScheme</text>
<text text-anchor="middle" x="77" y="-168.5" font-family="Helvetica,sans-Serif" font-size="10.00">::receiveDataForWindowEnd</text>
</a>
</g>
</g>
<!-- Node2 -->
<g id="node2" class="node">
<title>Node2</title>
<g id="a_node2"><a xlink:href="classprecice_1_1cplscheme_1_1BaseCouplingScheme.html#a6c37c619f364581226635cdca7d39e4b" target="_top" xlink:title="getter for _time">
<polygon fill="white" stroke="black" points="370.5,-208.5 370.5,-249.5 498.5,-249.5 498.5,-208.5 370.5,-208.5"/>
<text text-anchor="start" x="378.5" y="-237.5" font-family="Helvetica,sans-Serif" font-size="10.00">precice::cplscheme</text>
<text text-anchor="start" x="378.5" y="-226.5" font-family="Helvetica,sans-Serif" font-size="10.00">::BaseCouplingScheme</text>
<text text-anchor="middle" x="434.5" y="-215.5" font-family="Helvetica,sans-Serif" font-size="10.00">::getTime</text>
</a>
</g>
</g>
<!-- Node1&#45;&gt;Node2 -->
<g id="edge1" class="edge">
<title>Node1&#45;&gt;Node2</title>
<path fill="none" stroke="midnightblue" d="M154.26,-192.08C215.21,-200.14 300.09,-211.36 360.23,-219.31"/>
<polygon fill="midnightblue" stroke="midnightblue" points="360.04,-222.82 370.41,-220.66 360.96,-215.88 360.04,-222.82"/>
</g>
<!-- Node3 -->
<g id="node3" class="node">
<title>Node3</title>
<g id="a_node3"><a xlink:href="classprecice_1_1cplscheme_1_1BaseCouplingScheme.html#af690c8d4e0f11e52fc7b9ca1fe098229" target="_top" xlink:title="Receives data receiveDataIDs given in mapCouplingData with communication.">
<polygon fill="white" stroke="black" points="190,-137.5 190,-178.5 318,-178.5 318,-137.5 190,-137.5"/>
<text text-anchor="start" x="198" y="-166.5" font-family="Helvetica,sans-Serif" font-size="10.00">precice::cplscheme</text>
<text text-anchor="start" x="198" y="-155.5" font-family="Helvetica,sans-Serif" font-size="10.00">::BaseCouplingScheme</text>
<text text-anchor="middle" x="254" y="-144.5" font-family="Helvetica,sans-Serif" font-size="10.00">::receiveData</text>
</a>
</g>
</g>
<!-- Node1&#45;&gt;Node3 -->
<g id="edge2" class="edge">
<title>Node1&#45;&gt;Node3</title>
<path fill="none" stroke="midnightblue" d="M154.25,-171.54C162.7,-170.38 171.29,-169.21 179.69,-168.05"/>
<polygon fill="midnightblue" stroke="midnightblue" points="180.41,-171.49 189.84,-166.66 179.46,-164.55 180.41,-171.49"/>
</g>
<!-- Node3&#45;&gt;Node2 -->
<g id="edge8" class="edge">
<title>Node3&#45;&gt;Node2</title>
<path fill="none" stroke="midnightblue" d="M306.63,-178.54C327.17,-186.71 350.96,-196.17 372.36,-204.68"/>
<polygon fill="midnightblue" stroke="midnightblue" points="371.09,-207.94 381.68,-208.39 373.68,-201.44 371.09,-207.94"/>
</g>
<!-- Node4 -->
<g id="node4" class="node">
<title>Node4</title>
<g id="a_node4"><a xlink:href="namespaceprecice_1_1detail.html#adede399b4b92eea01face616a0cc7051" target="_top" xlink:title=" ">
<polygon fill="white" stroke="black" points="713,-132.5 713,-151.5 826,-151.5 826,-132.5 713,-132.5"/>
<text text-anchor="middle" x="769.5" y="-139.5" font-family="Helvetica,sans-Serif" font-size="10.00">precice::detail::data</text>
</a>
</g>
</g>
<!-- Node3&#45;&gt;Node4 -->
<g id="edge3" class="edge">
<title>Node3&#45;&gt;Node4</title>
<path fill="none" stroke="midnightblue" d="M318.1,-160.2C330.03,-160.53 342.39,-160.82 354,-161 497.57,-163.17 533.95,-166.45 677,-154 685.37,-153.27 694.16,-152.34 702.84,-151.31"/>
<polygon fill="midnightblue" stroke="midnightblue" points="703.44,-154.76 712.94,-150.07 702.59,-147.82 703.44,-154.76"/>
</g>
<!-- Node5 -->
<g id="node5" class="node">
<title>Node5</title>
<g id="a_node5"><a xlink:href="classprecice_1_1com_1_1serialize_1_1SerializedStamples.html#a914cc916961f26874b078f45ce01e6f5" target="_top" xlink:title="Create SerializedStamples with allocated buffers according to size of CouplingData.">
<polygon fill="white" stroke="black" points="357.5,-121 357.5,-151 511.5,-151 511.5,-121 357.5,-121"/>
<text text-anchor="start" x="365.5" y="-139" font-family="Helvetica,sans-Serif" font-size="10.00">precice::com::serialize</text>
<text text-anchor="middle" x="434.5" y="-128" font-family="Helvetica,sans-Serif" font-size="10.00">::SerializedStamples::empty</text>
</a>
</g>
</g>
<!-- Node3&#45;&gt;Node5 -->
<g id="edge4" class="edge">
<title>Node3&#45;&gt;Node5</title>
<path fill="none" stroke="midnightblue" d="M318.18,-150.21C327.56,-149.06 337.36,-147.85 347.12,-146.65"/>
<polygon fill="midnightblue" stroke="midnightblue" points="347.75,-150.1 357.24,-145.4 346.89,-143.15 347.75,-150.1"/>
</g>
<!-- Node7 -->
<g id="node7" class="node">
<title>Node7</title>
<g id="a_node7"><a xlink:href="classprecice_1_1cplscheme_1_1BaseCouplingScheme.html#a83379ed90469cb7710fff88ff52269ac" target="_top" xlink:title=" ">
<polygon fill="white" stroke="black" points="354,-60.5 354,-101.5 515,-101.5 515,-60.5 354,-60.5"/>
<text text-anchor="start" x="362" y="-89.5" font-family="Helvetica,sans-Serif" font-size="10.00">precice::cplscheme</text>
<text text-anchor="start" x="362" y="-78.5" font-family="Helvetica,sans-Serif" font-size="10.00">::BaseCouplingScheme</text>
<text text-anchor="middle" x="434.5" y="-67.5" font-family="Helvetica,sans-Serif" font-size="10.00">::receiveNumberOfTimeSteps</text>
</a>
</g>
</g>
<!-- Node3&#45;&gt;Node7 -->
<g id="edge9" class="edge">
<title>Node3&#45;&gt;Node7</title>
<path fill="none" stroke="midnightblue" d="M296.56,-137.33C314.13,-128.84 334.92,-119.11 354,-111 358.43,-109.11 363.03,-107.22 367.67,-105.36"/>
<polygon fill="midnightblue" stroke="midnightblue" points="369.23,-108.5 377.24,-101.57 366.65,-102 369.23,-108.5"/>
</g>
<!-- Node8 -->
<g id="node8" class="node">
<title>Node8</title>
<g id="a_node8"><a xlink:href="classprecice_1_1cplscheme_1_1BaseCouplingScheme.html#a700bef351e463eb84836538fd91f16b3" target="_top" xlink:title=" ">
<polygon fill="white" stroke="black" points="370.5,-0.5 370.5,-41.5 498.5,-41.5 498.5,-0.5 370.5,-0.5"/>
<text text-anchor="start" x="378.5" y="-29.5" font-family="Helvetica,sans-Serif" font-size="10.00">precice::cplscheme</text>
<text text-anchor="start" x="378.5" y="-18.5" font-family="Helvetica,sans-Serif" font-size="10.00">::BaseCouplingScheme</text>
<text text-anchor="middle" x="434.5" y="-7.5" font-family="Helvetica,sans-Serif" font-size="10.00">::receiveTimes</text>
</a>
</g>
</g>
<!-- Node3&#45;&gt;Node8 -->
<g id="edge10" class="edge">
<title>Node3&#45;&gt;Node8</title>
<path fill="none" stroke="midnightblue" d="M269.55,-137.18C287.12,-113.41 318.73,-74.74 354,-51 356.41,-49.38 358.92,-47.83 361.5,-46.35"/>
<polygon fill="midnightblue" stroke="midnightblue" points="363.29,-49.36 370.49,-41.59 360.02,-43.17 363.29,-49.36"/>
</g>
<!-- Node5&#45;&gt;Node4 -->
<g id="edge7" class="edge">
<title>Node5&#45;&gt;Node4</title>
<path fill="none" stroke="midnightblue" d="M511.9,-137.38C569.53,-138.41 647.78,-139.82 702.66,-140.81"/>
<polygon fill="midnightblue" stroke="midnightblue" points="702.91,-144.32 712.97,-141 703.04,-137.32 702.91,-144.32"/>
</g>
<!-- Node6 -->
<g id="node6" class="node">
<title>Node6</title>
<g id="a_node6"><a xlink:href="classprecice_1_1com_1_1serialize_1_1SerializedStamples.html#a766834ff07b9fc24a575a98c2fc8c382" target="_top" xlink:title=" ">
<polygon fill="white" stroke="black" points="551,-72.5 551,-113.5 677,-113.5 677,-72.5 551,-72.5"/>
<text text-anchor="start" x="559" y="-101.5" font-family="Helvetica,sans-Serif" font-size="10.00">precice::com::serialize</text>
<text text-anchor="start" x="559" y="-90.5" font-family="Helvetica,sans-Serif" font-size="10.00">::SerializedStamples::</text>
<text text-anchor="middle" x="614" y="-79.5" font-family="Helvetica,sans-Serif" font-size="10.00">allocate</text>
</a>
</g>
</g>
<!-- Node5&#45;&gt;Node6 -->
<g id="edge5" class="edge">
<title>Node5&#45;&gt;Node6</title>
<path fill="none" stroke="midnightblue" d="M497.58,-120.96C511.63,-117.56 526.67,-113.91 541.09,-110.42"/>
<polygon fill="midnightblue" stroke="midnightblue" points="542.06,-113.79 550.95,-108.03 540.41,-106.98 542.06,-113.79"/>
</g>
<!-- Node6&#45;&gt;Node4 -->
<g id="edge6" class="edge">
<title>Node6&#45;&gt;Node4</title>
<path fill="none" stroke="midnightblue" d="M677.43,-112.93C694.73,-118.45 713.03,-124.29 728.65,-129.28"/>
<polygon fill="midnightblue" stroke="midnightblue" points="727.9,-132.71 738.49,-132.42 730.03,-126.05 727.9,-132.71"/>
</g>
</g>
</svg>
