<?xml version="1.0" encoding="UTF-8" standalone="no"?>
<!DOCTYPE svg PUBLIC "-//W3C//DTD SVG 1.1//EN"
 "http://www.w3.org/Graphics/SVG/1.1/DTD/svg11.dtd">
<!-- Generated by graphviz version 2.43.0 (0)
 -->
<!-- Title: precice::cplscheme::BaseCouplingScheme::getNextTimeStepMaxSize Pages: 1 -->
<!--zoomable 219 -->
<svg id="main" version="1.1" xmlns="http://www.w3.org/2000/svg" xmlns:xlink="http://www.w3.org/1999/xlink" xml:space="preserve" onload="init(evt)">
<style type="text/css"><![CDATA[
.edge:hover path { stroke: red; }
.edge:hover polygon { stroke: red; fill: red; }
]]></style>
<script type="text/javascript"><![CDATA[
var edges = document.getElementsByTagName('g');
if (edges && edges.length) {
  for (var i=0;i<edges.length;i++) {
    if (edges[i].id.substr(0,4)=='edge') {
      edges[i].setAttribute('class','edge');
    }
  }
}
]]></script>
        <defs>
                <circle id="rim" cx="0" cy="0" r="7"/>
                <circle id="rim2" cx="0" cy="0" r="3.5"/>
                <g id="zoomPlus">
                        <use xlink:href="#rim" fill="#404040">
                                <set attributeName="fill" to="#808080" begin="zoomplus.mouseover" end="zoomplus.mouseout"/>
                        </use>
                        <path d="M-4,0h8M0,-4v8" fill="none" stroke="white" stroke-width="1.5" pointer-events="none"/>
                </g>
                <g id="zoomMin">
                        <use xlink:href="#rim" fill="#404040">
                                <set attributeName="fill" to="#808080" begin="zoomminus.mouseover" end="zoomminus.mouseout"/>
                        </use>
                        <path d="M-4,0h8" fill="none" stroke="white" stroke-width="1.5" pointer-events="none"/>
                </g>
                <g id="dirArrow">
                        <path fill="none" stroke="white" stroke-width="1.5" d="M0,-3.0v7 M-2.5,-0.5L0,-3.0L2.5,-0.5"/>
                </g>
               <g id="resetDef">
                       <use xlink:href="#rim2" fill="#404040">
                               <set attributeName="fill" to="#808080" begin="reset.mouseover" end="reset.mouseout"/>
                       </use>
               </g>
        </defs>

<script type="text/javascript">
var viewWidth = 628;
var viewHeight = 219;
var sectionId = 'dynsection-13';
</script>
<script xlink:href="svgpan.js"/>
<svg id="graph" class="graph">
<g id="viewport">
<title>precice::cplscheme::BaseCouplingScheme::getNextTimeStepMaxSize</title>
<polygon fill="white" stroke="transparent" points="-4,4 -4,-215 624,-215 624,4 -4,4"/>
<!-- Node1 -->
<g id="node1" class="node">
<title>Node1</title>
<g id="a_node1"><a xlink:title="Returns the maximal size of the next time step to be computed.">
<polygon fill="#bfbfbf" stroke="black" points="0,-84.5 0,-125.5 149,-125.5 149,-84.5 0,-84.5"/>
<text text-anchor="start" x="8" y="-113.5" font-family="Helvetica,sans-Serif" font-size="10.00">precice::cplscheme</text>
<text text-anchor="start" x="8" y="-102.5" font-family="Helvetica,sans-Serif" font-size="10.00">::BaseCouplingScheme</text>
<text text-anchor="middle" x="74.5" y="-91.5" font-family="Helvetica,sans-Serif" font-size="10.00">::getNextTimeStepMaxSize</text>
</a>
</g>
</g>
<!-- Node2 -->
<g id="node2" class="node">
<title>Node2</title>
<g id="a_node2"><a xlink:href="classprecice_1_1cplscheme_1_1BaseCouplingScheme.html#aa1c82548c80a9c8bb129e115e0f710fe" target="_top" xlink:title="Function to check whether time window size is defined by coupling scheme.">
<polygon fill="white" stroke="black" points="185,-169.5 185,-210.5 313,-210.5 313,-169.5 185,-169.5"/>
<text text-anchor="start" x="193" y="-198.5" font-family="Helvetica,sans-Serif" font-size="10.00">precice::cplscheme</text>
<text text-anchor="start" x="193" y="-187.5" font-family="Helvetica,sans-Serif" font-size="10.00">::BaseCouplingScheme</text>
<text text-anchor="middle" x="249" y="-176.5" font-family="Helvetica,sans-Serif" font-size="10.00">::hasTimeWindowSize</text>
</a>
</g>
</g>
<!-- Node1&#45;&gt;Node2 -->
<g id="edge1" class="edge">
<title>Node1&#45;&gt;Node2</title>
<path fill="none" stroke="midnightblue" d="M115.96,-125.58C136.57,-136 162.07,-148.78 185,-160 188.35,-161.64 191.81,-163.32 195.3,-165.01"/>
<polygon fill="midnightblue" stroke="midnightblue" points="194.03,-168.28 204.56,-169.46 197.07,-161.97 194.03,-168.28"/>
</g>
<!-- Node4 -->
<g id="node4" class="node">
<title>Node4</title>
<g id="a_node4"><a xlink:href="classprecice_1_1cplscheme_1_1BaseCouplingScheme.html#a69facd34bc23797fe69daab51df26b8c" target="_top" xlink:title="Returns true, when the coupled simulation is still ongoing.">
<polygon fill="white" stroke="black" points="185,-109.5 185,-150.5 313,-150.5 313,-109.5 185,-109.5"/>
<text text-anchor="start" x="193" y="-138.5" font-family="Helvetica,sans-Serif" font-size="10.00">precice::cplscheme</text>
<text text-anchor="start" x="193" y="-127.5" font-family="Helvetica,sans-Serif" font-size="10.00">::BaseCouplingScheme</text>
<text text-anchor="middle" x="249" y="-116.5" font-family="Helvetica,sans-Serif" font-size="10.00">::isCouplingOngoing</text>
</a>
</g>
</g>
<!-- Node1&#45;&gt;Node4 -->
<g id="edge3" class="edge">
<title>Node1&#45;&gt;Node4</title>
<path fill="none" stroke="midnightblue" d="M149.16,-115.67C157.71,-116.91 166.44,-118.18 174.99,-119.42"/>
<polygon fill="midnightblue" stroke="midnightblue" points="174.52,-122.89 184.92,-120.86 175.52,-115.96 174.52,-122.89"/>
</g>
<!-- Node7 -->
<g id="node7" class="node">
<title>Node7</title>
<g id="a_node7"><a xlink:href="classprecice_1_1cplscheme_1_1impl_1_1TimeHandler.html#a1691b3de3f4d4c668b7389132d34268a" target="_top" xlink:title=" ">
<polygon fill="white" stroke="black" points="349,-60.5 349,-101.5 462,-101.5 462,-60.5 349,-60.5"/>
<text text-anchor="start" x="357" y="-89.5" font-family="Helvetica,sans-Serif" font-size="10.00">precice::cplscheme</text>
<text text-anchor="start" x="357" y="-78.5" font-family="Helvetica,sans-Serif" font-size="10.00">::impl::TimeHandler</text>
<text text-anchor="middle" x="405.5" y="-67.5" font-family="Helvetica,sans-Serif" font-size="10.00">::untilEnd</text>
</a>
</g>
</g>
<!-- Node1&#45;&gt;Node7 -->
<g id="edge7" class="edge">
<title>Node1&#45;&gt;Node7</title>
<path fill="none" stroke="midnightblue" d="M149.33,-99.61C206.11,-95.47 283.84,-89.8 338.55,-85.81"/>
<polygon fill="midnightblue" stroke="midnightblue" points="339.11,-89.28 348.82,-85.06 338.6,-82.3 339.11,-89.28"/>
</g>
<!-- Node8 -->
<g id="node8" class="node">
<title>Node8</title>
<g id="a_node8"><a xlink:href="classprecice_1_1cplscheme_1_1impl_1_1TimeHandler.html#aa1f9e5b3ad17a5ed37693674f245a15b" target="_top" xlink:title="Returns the time distance to the possibly truncated end of the current time window.">
<polygon fill="white" stroke="black" points="192.5,-11.5 192.5,-52.5 305.5,-52.5 305.5,-11.5 192.5,-11.5"/>
<text text-anchor="start" x="200.5" y="-40.5" font-family="Helvetica,sans-Serif" font-size="10.00">precice::cplscheme</text>
<text text-anchor="start" x="200.5" y="-29.5" font-family="Helvetica,sans-Serif" font-size="10.00">::impl::TimeHandler</text>
<text text-anchor="middle" x="249" y="-18.5" font-family="Helvetica,sans-Serif" font-size="10.00">::untilWindowEnd</text>
</a>
</g>
</g>
<!-- Node1&#45;&gt;Node8 -->
<g id="edge9" class="edge">
<title>Node1&#45;&gt;Node8</title>
<path fill="none" stroke="midnightblue" d="M124.01,-84.47C144.58,-75.76 168.72,-65.55 190.21,-56.46"/>
<polygon fill="midnightblue" stroke="midnightblue" points="191.71,-59.62 199.56,-52.5 188.98,-53.18 191.71,-59.62"/>
</g>
<!-- Node3 -->
<g id="node3" class="node">
<title>Node3</title>
<g id="a_node3"><a xlink:href="namespaceprecice_1_1math.html#a0e86802cfe992deba131d789d035b5b7" target="_top" xlink:title="Compares two Eigen::MatrixBase for equality up to tolerance.">
<polygon fill="white" stroke="black" points="498,-155.5 498,-174.5 620,-174.5 620,-155.5 498,-155.5"/>
<text text-anchor="middle" x="559" y="-162.5" font-family="Helvetica,sans-Serif" font-size="10.00">precice::math::equals</text>
</a>
</g>
</g>
<!-- Node2&#45;&gt;Node3 -->
<g id="edge2" class="edge">
<title>Node2&#45;&gt;Node3</title>
<path fill="none" stroke="midnightblue" d="M313.07,-184.88C363.81,-180.76 435.06,-174.98 487.64,-170.71"/>
<polygon fill="midnightblue" stroke="midnightblue" points="488.21,-174.18 497.89,-169.88 487.64,-167.2 488.21,-174.18"/>
</g>
<!-- Node5 -->
<g id="node5" class="node">
<title>Node5</title>
<g id="a_node5"><a xlink:href="classprecice_1_1cplscheme_1_1impl_1_1TimeHandler.html#acf44ef74e3031f7fcdf1edf9f4a24f4d" target="_top" xlink:title=" ">
<polygon fill="white" stroke="black" points="349,-120.5 349,-161.5 462,-161.5 462,-120.5 349,-120.5"/>
<text text-anchor="start" x="357" y="-149.5" font-family="Helvetica,sans-Serif" font-size="10.00">precice::cplscheme</text>
<text text-anchor="start" x="357" y="-138.5" font-family="Helvetica,sans-Serif" font-size="10.00">::impl::TimeHandler</text>
<text text-anchor="middle" x="405.5" y="-127.5" font-family="Helvetica,sans-Serif" font-size="10.00">::reachedEnd</text>
</a>
</g>
</g>
<!-- Node4&#45;&gt;Node5 -->
<g id="edge4" class="edge">
<title>Node4&#45;&gt;Node5</title>
<path fill="none" stroke="midnightblue" d="M313.29,-134.51C321.7,-135.1 330.34,-135.72 338.79,-136.32"/>
<polygon fill="midnightblue" stroke="midnightblue" points="338.76,-139.83 348.98,-137.05 339.26,-132.85 338.76,-139.83"/>
</g>
<!-- Node5&#45;&gt;Node3 -->
<g id="edge5" class="edge">
<title>Node5&#45;&gt;Node3</title>
<path fill="none" stroke="midnightblue" d="M462.05,-149.8C470.43,-151.13 479.16,-152.51 487.8,-153.88"/>
<polygon fill="midnightblue" stroke="midnightblue" points="487.44,-157.37 497.86,-155.47 488.53,-150.45 487.44,-157.37"/>
</g>
<!-- Node6 -->
<g id="node6" class="node">
<title>Node6</title>
<g id="a_node6"><a xlink:href="classprecice_1_1cplscheme_1_1impl_1_1TimeHandler.html#a3d2757a3ef13e33b3bb1881f7dde353c" target="_top" xlink:title="Returns the time difference until the overall time reaches the given time.">
<polygon fill="white" stroke="black" points="502.5,-90.5 502.5,-131.5 615.5,-131.5 615.5,-90.5 502.5,-90.5"/>
<text text-anchor="start" x="510.5" y="-119.5" font-family="Helvetica,sans-Serif" font-size="10.00">precice::cplscheme</text>
<text text-anchor="start" x="510.5" y="-108.5" font-family="Helvetica,sans-Serif" font-size="10.00">::impl::TimeHandler</text>
<text text-anchor="middle" x="559" y="-97.5" font-family="Helvetica,sans-Serif" font-size="10.00">::untilTime</text>
</a>
</g>
</g>
<!-- Node5&#45;&gt;Node6 -->
<g id="edge6" class="edge">
<title>Node5&#45;&gt;Node6</title>
<path fill="none" stroke="midnightblue" d="M462.05,-130C471.93,-128.04 482.31,-125.99 492.44,-123.98"/>
<polygon fill="midnightblue" stroke="midnightblue" points="493.32,-127.38 502.45,-122 491.96,-120.51 493.32,-127.38"/>
</g>
<!-- Node7&#45;&gt;Node6 -->
<g id="edge8" class="edge">
<title>Node7&#45;&gt;Node6</title>
<path fill="none" stroke="midnightblue" d="M462.05,-92C471.93,-93.96 482.31,-96.01 492.44,-98.02"/>
<polygon fill="midnightblue" stroke="midnightblue" points="491.96,-101.49 502.45,-100 493.32,-94.62 491.96,-101.49"/>
</g>
<!-- Node8&#45;&gt;Node7 -->
<g id="edge10" class="edge">
<title>Node8&#45;&gt;Node7</title>
<path fill="none" stroke="midnightblue" d="M305.78,-49.69C316.61,-53.12 328.05,-56.75 339.16,-60.28"/>
<polygon fill="midnightblue" stroke="midnightblue" points="338.21,-63.65 348.8,-63.34 340.33,-56.98 338.21,-63.65"/>
</g>
<!-- Node9 -->
<g id="node9" class="node">
<title>Node9</title>
<g id="a_node9"><a xlink:href="classprecice_1_1cplscheme_1_1impl_1_1TimeHandler.html#a97233c5f75ef847589a9bf7b94a0f5c4" target="_top" xlink:title=" ">
<polygon fill="white" stroke="black" points="349,-0.5 349,-41.5 462,-41.5 462,-0.5 349,-0.5"/>
<text text-anchor="start" x="357" y="-29.5" font-family="Helvetica,sans-Serif" font-size="10.00">precice::cplscheme</text>
<text text-anchor="start" x="357" y="-18.5" font-family="Helvetica,sans-Serif" font-size="10.00">::impl::TimeHandler</text>
<text text-anchor="middle" x="405.5" y="-7.5" font-family="Helvetica,sans-Serif" font-size="10.00">::untilProgress</text>
</a>
</g>
</g>
<!-- Node8&#45;&gt;Node9 -->
<g id="edge11" class="edge">
<title>Node8&#45;&gt;Node9</title>
<path fill="none" stroke="midnightblue" d="M305.78,-28.03C316.5,-27.27 327.82,-26.46 338.82,-25.68"/>
<polygon fill="midnightblue" stroke="midnightblue" points="339.08,-29.17 348.8,-24.97 338.58,-22.18 339.08,-29.17"/>
</g>
</g>
</svg>
        <g id="navigator" transform="translate(0 0)" fill="#404254">
                <rect fill="#f2f5e9" fill-opacity="0.5" stroke="#606060" stroke-width=".5" x="0" y="0" width="60" height="60"/>
                <use id="zoomplus" xlink:href="#zoomPlus" x="17" y="9" onmousedown="handleZoom(evt,'in')"/>
                <use id="zoomminus" xlink:href="#zoomMin" x="42" y="9" onmousedown="handleZoom(evt,'out')"/>
                <use id="reset" xlink:href="#resetDef" x="30" y="36" onmousedown="handleReset()"/>
                <g id="arrowUp" xlink:href="#dirArrow" transform="translate(30 24)" onmousedown="handlePan(0,-1)">
                  <use xlink:href="#rim" fill="#404040">
                        <set attributeName="fill" to="#808080" begin="arrowUp.mouseover" end="arrowUp.mouseout"/>
                  </use>
                  <path fill="none" stroke="white" stroke-width="1.5" d="M0,-3.0v7 M-2.5,-0.5L0,-3.0L2.5,-0.5"/>
                </g>
                <g id="arrowRight" xlink:href="#dirArrow" transform="rotate(90) translate(36 -43)" onmousedown="handlePan(1,0)">
                  <use xlink:href="#rim" fill="#404040">
                        <set attributeName="fill" to="#808080" begin="arrowRight.mouseover" end="arrowRight.mouseout"/>
                  </use>
                  <path fill="none" stroke="white" stroke-width="1.5" d="M0,-3.0v7 M-2.5,-0.5L0,-3.0L2.5,-0.5"/>
                </g>
                <g id="arrowDown" xlink:href="#dirArrow" transform="rotate(180) translate(-30 -48)" onmousedown="handlePan(0,1)">
                  <use xlink:href="#rim" fill="#404040">
                        <set attributeName="fill" to="#808080" begin="arrowDown.mouseover" end="arrowDown.mouseout"/>
                  </use>
                  <path fill="none" stroke="white" stroke-width="1.5" d="M0,-3.0v7 M-2.5,-0.5L0,-3.0L2.5,-0.5"/>
                </g>
                <g id="arrowLeft" xlink:href="#dirArrow" transform="rotate(270) translate(-36 17)" onmousedown="handlePan(-1,0)">
                  <use xlink:href="#rim" fill="#404040">
                        <set attributeName="fill" to="#808080" begin="arrowLeft.mouseover" end="arrowLeft.mouseout"/>
                  </use>
                  <path fill="none" stroke="white" stroke-width="1.5" d="M0,-3.0v7 M-2.5,-0.5L0,-3.0L2.5,-0.5"/>
                </g>
        </g>
        <svg viewBox="0 0 15 15" width="100%" height="30px" preserveAspectRatio="xMaxYMin meet">
         <g id="arrow_out" transform="scale(0.3 0.3)">
          <a xlink:href="classprecice_1_1cplscheme_1_1BaseCouplingScheme_a9981e805fe1fcdea567cf0b4dd20348a_cgraph_org.svg" target="_base">
           <rect id="button" ry="5" rx="5" y="6" x="6" height="38" width="38"
                fill="#f2f5e9" fill-opacity="0.5" stroke="#606060" stroke-width="1.0"/>
           <path id="arrow"
             d="M 11.500037,31.436501 C 11.940474,20.09759 22.043105,11.32322 32.158766,21.979434 L 37.068811,17.246167 C 37.068811,17.246167 37.088388,32 37.088388,32 L 22.160133,31.978069 C 22.160133,31.978069 26.997745,27.140456 26.997745,27.140456 C 18.528582,18.264221 13.291696,25.230495 11.500037,31.436501 z"
             style="fill:#404040;"/>
          </a>
         </g>
        </svg>
</svg>
