<?xml version="1.0" encoding="UTF-8" standalone="no"?>
<!DOCTYPE svg PUBLIC "-//W3C//DTD SVG 1.1//EN"
 "http://www.w3.org/Graphics/SVG/1.1/DTD/svg11.dtd">
<!-- Generated by graphviz version 2.43.0 (0)
 -->
<!-- Title: precice::impl::ParticipantImpl::configure Pages: 1 -->
<svg width="727pt" height="783pt"
 viewBox="0.00 0.00 727.00 782.50" xmlns="http://www.w3.org/2000/svg" xmlns:xlink="http://www.w3.org/1999/xlink">
<g id="graph0" class="graph" transform="scale(1 1) rotate(0) translate(4 778.5)">
<title>precice::impl::ParticipantImpl::configure</title>
<polygon fill="white" stroke="transparent" points="-4,4 -4,-778.5 723,-778.5 723,4 -4,4"/>
<!-- Node1 -->
<g id="node1" class="node">
<title>Node1</title>
<g id="a_node1"><a xlink:title="Configures the coupling interface from the given xml file.">
<polygon fill="#bfbfbf" stroke="black" points="0,-372.5 0,-402.5 137,-402.5 137,-372.5 0,-372.5"/>
<text text-anchor="start" x="8" y="-390.5" font-family="Helvetica,sans-Serif" font-size="10.00">precice::impl::Participant</text>
<text text-anchor="middle" x="68.5" y="-379.5" font-family="Helvetica,sans-Serif" font-size="10.00">Impl::configure</text>
</a>
</g>
</g>
<!-- Node2 -->
<g id="node2" class="node">
<title>Node2</title>
<g id="a_node2"><a xlink:href="classprecice_1_1utils_1_1MultiLock.html#a415e337940b62537c14f073c8819e5a1" target="_top" xlink:title="Adds a lock with a given state.">
<polygon fill="white" stroke="black" points="192.5,-755 192.5,-774 348.5,-774 348.5,-755 192.5,-755"/>
<text text-anchor="middle" x="270.5" y="-762" font-family="Helvetica,sans-Serif" font-size="10.00">precice::utils::MultiLock::add</text>
</a>
</g>
</g>
<!-- Node1&#45;&gt;Node2 -->
<g id="edge1" class="edge">
<title>Node1&#45;&gt;Node2</title>
<path fill="none" stroke="midnightblue" d="M71.75,-402.62C81.28,-464.44 120.18,-697.09 173,-745.5 176.19,-748.42 179.69,-750.95 183.41,-753.13"/>
<polygon fill="midnightblue" stroke="midnightblue" points="181.93,-756.31 192.44,-757.64 185.05,-750.04 181.93,-756.31"/>
</g>
<!-- Node3 -->
<g id="node3" class="node">
<title>Node3</title>
<g id="a_node3"><a xlink:href="classprecice_1_1config_1_1Configuration.html#ab6650a6b6d61c8a895bce73ee10cb06c" target="_top" xlink:title="Returns whether experimental features are allowed or not.">
<polygon fill="white" stroke="black" points="191.5,-705.5 191.5,-735.5 349.5,-735.5 349.5,-705.5 191.5,-705.5"/>
<text text-anchor="start" x="199.5" y="-723.5" font-family="Helvetica,sans-Serif" font-size="10.00">precice::config::Configuration</text>
<text text-anchor="middle" x="270.5" y="-712.5" font-family="Helvetica,sans-Serif" font-size="10.00">::allowsExperimental</text>
</a>
</g>
</g>
<!-- Node1&#45;&gt;Node3 -->
<g id="edge2" class="edge">
<title>Node1&#45;&gt;Node3</title>
<path fill="none" stroke="midnightblue" d="M69.75,-402.74C71.43,-452.87 83.85,-614.17 173,-696.5 175.83,-699.11 178.9,-701.45 182.15,-703.55"/>
<polygon fill="midnightblue" stroke="midnightblue" points="180.67,-706.73 191.11,-708.54 184.07,-700.62 180.67,-706.73"/>
</g>
<!-- Node4 -->
<g id="node4" class="node">
<title>Node4</title>
<g id="a_node4"><a xlink:href="classprecice_1_1utils_1_1MultiLock.html#a6d9b317fc87682f53f6eccc316551fc1" target="_top" xlink:title="Removes all known locks.">
<polygon fill="white" stroke="black" points="204.5,-656.5 204.5,-686.5 336.5,-686.5 336.5,-656.5 204.5,-656.5"/>
<text text-anchor="start" x="212.5" y="-674.5" font-family="Helvetica,sans-Serif" font-size="10.00">precice::utils::MultiLock</text>
<text text-anchor="middle" x="270.5" y="-663.5" font-family="Helvetica,sans-Serif" font-size="10.00">::clear</text>
</a>
</g>
</g>
<!-- Node1&#45;&gt;Node4 -->
<g id="edge3" class="edge">
<title>Node1&#45;&gt;Node4</title>
<path fill="none" stroke="midnightblue" d="M70.81,-402.53C75.54,-447.17 95.79,-580.07 173,-647.5 179.4,-653.09 186.91,-657.42 194.86,-660.76"/>
<polygon fill="midnightblue" stroke="midnightblue" points="193.77,-664.09 204.36,-664.25 196.19,-657.52 193.77,-664.09"/>
</g>
<!-- Node5 -->
<g id="node5" class="node">
<title>Node5</title>
<g id="a_node5"><a xlink:href="classprecice_1_1utils_1_1IntraComm.html#ad8494d9e3d57e0f5944d826585b3f4ad" target="_top" xlink:title="Configures the intra&#45;participant communication.">
<polygon fill="white" stroke="black" points="200.5,-607.5 200.5,-637.5 340.5,-637.5 340.5,-607.5 200.5,-607.5"/>
<text text-anchor="start" x="208.5" y="-625.5" font-family="Helvetica,sans-Serif" font-size="10.00">precice::utils::IntraComm</text>
<text text-anchor="middle" x="270.5" y="-614.5" font-family="Helvetica,sans-Serif" font-size="10.00">::configure</text>
</a>
</g>
</g>
<!-- Node1&#45;&gt;Node5 -->
<g id="edge4" class="edge">
<title>Node1&#45;&gt;Node5</title>
<path fill="none" stroke="midnightblue" d="M72.43,-402.64C80.75,-441.38 108.22,-544.77 173,-597.5 178.32,-601.83 184.31,-605.42 190.63,-608.39"/>
<polygon fill="midnightblue" stroke="midnightblue" points="189.51,-611.72 200.08,-612.32 192.19,-605.25 189.51,-611.72"/>
</g>
<!-- Node7 -->
<g id="node7" class="node">
<title>Node7</title>
<g id="a_node7"><a xlink:href="namespaceprecice_1_1xml.html#af9f808fbdf078c4e28e4f5ea71b14788" target="_top" xlink:title="Configures the given configuration from file configurationFilename.">
<polygon fill="white" stroke="black" points="206.5,-569 206.5,-588 334.5,-588 334.5,-569 206.5,-569"/>
<text text-anchor="middle" x="270.5" y="-576" font-family="Helvetica,sans-Serif" font-size="10.00">precice::xml::configure</text>
</a>
</g>
</g>
<!-- Node1&#45;&gt;Node7 -->
<g id="edge6" class="edge">
<title>Node1&#45;&gt;Node7</title>
<path fill="none" stroke="midnightblue" d="M73.92,-402.59C84.71,-436.59 115.8,-519.37 173,-559.5 180.16,-564.52 188.32,-568.3 196.79,-571.12"/>
<polygon fill="midnightblue" stroke="midnightblue" points="195.87,-574.5 206.45,-573.92 197.82,-567.77 195.87,-574.5"/>
</g>
<!-- Node10 -->
<g id="node10" class="node">
<title>Node10</title>
<g id="a_node10"><a xlink:href="classprecice_1_1impl_1_1ParticipantImpl.html#aaae2be4bacb5d03517e5da0b01434130" target="_top" xlink:title=" ">
<polygon fill="white" stroke="black" points="202,-519.5 202,-549.5 339,-549.5 339,-519.5 202,-519.5"/>
<text text-anchor="start" x="210" y="-537.5" font-family="Helvetica,sans-Serif" font-size="10.00">precice::impl::Participant</text>
<text text-anchor="middle" x="270.5" y="-526.5" font-family="Helvetica,sans-Serif" font-size="10.00">Impl::configureM2Ns</text>
</a>
</g>
</g>
<!-- Node1&#45;&gt;Node10 -->
<g id="edge9" class="edge">
<title>Node1&#45;&gt;Node10</title>
<path fill="none" stroke="midnightblue" d="M77.86,-402.63C93.16,-428.85 128.24,-482.59 173,-510.5 178.91,-514.18 185.34,-517.3 192,-519.94"/>
<polygon fill="midnightblue" stroke="midnightblue" points="191.28,-523.4 201.88,-523.47 193.64,-516.81 191.28,-523.4"/>
</g>
<!-- Node12 -->
<g id="node12" class="node">
<title>Node12</title>
<g id="a_node12"><a xlink:href="classprecice_1_1impl_1_1ParticipantImpl.html#a4109986c65ce15c24f2b86ef331598c7" target="_top" xlink:title="Determines participants providing meshes to other participants.">
<polygon fill="white" stroke="black" points="202,-470.5 202,-500.5 339,-500.5 339,-470.5 202,-470.5"/>
<text text-anchor="start" x="210" y="-488.5" font-family="Helvetica,sans-Serif" font-size="10.00">precice::impl::Participant</text>
<text text-anchor="middle" x="270.5" y="-477.5" font-family="Helvetica,sans-Serif" font-size="10.00">Impl::configurePartitions</text>
</a>
</g>
</g>
<!-- Node1&#45;&gt;Node12 -->
<g id="edge11" class="edge">
<title>Node1&#45;&gt;Node12</title>
<path fill="none" stroke="midnightblue" d="M86.18,-402.51C105.67,-419.26 139.5,-446.05 173,-461.5 179.11,-464.32 185.59,-466.83 192.2,-469.08"/>
<polygon fill="midnightblue" stroke="midnightblue" points="191.34,-472.48 201.93,-472.17 193.46,-465.8 191.34,-472.48"/>
</g>
<!-- Node13 -->
<g id="node13" class="node">
<title>Node13</title>
<g id="a_node13"><a xlink:href="classprecice_1_1utils_1_1Parallel.html#a2aeadec30c9e48918e014608ede4d51d" target="_top" xlink:title="Returns an owning pointer to the current CommState.">
<polygon fill="white" stroke="black" points="210,-421.5 210,-451.5 331,-451.5 331,-421.5 210,-421.5"/>
<text text-anchor="start" x="218" y="-439.5" font-family="Helvetica,sans-Serif" font-size="10.00">precice::utils::Parallel</text>
<text text-anchor="middle" x="270.5" y="-428.5" font-family="Helvetica,sans-Serif" font-size="10.00">::current</text>
</a>
</g>
</g>
<!-- Node1&#45;&gt;Node13 -->
<g id="edge12" class="edge">
<title>Node1&#45;&gt;Node13</title>
<path fill="none" stroke="midnightblue" d="M130.87,-402.53C152.77,-407.9 177.6,-413.98 200.13,-419.5"/>
<polygon fill="midnightblue" stroke="midnightblue" points="199.42,-422.93 209.97,-421.91 201.09,-416.13 199.42,-422.93"/>
</g>
<!-- Node15 -->
<g id="node15" class="node">
<title>Node15</title>
<g id="a_node15"><a xlink:href="classprecice_1_1impl_1_1ParticipantImpl.html#a1c4ca0f77fcc82c4903b3547ebf9fc99" target="_top" xlink:title="Determines participant accessing this interface from the configuration.">
<polygon fill="white" stroke="black" points="173,-372.5 173,-402.5 368,-402.5 368,-372.5 173,-372.5"/>
<text text-anchor="start" x="181" y="-390.5" font-family="Helvetica,sans-Serif" font-size="10.00">precice::impl::Participant</text>
<text text-anchor="middle" x="270.5" y="-379.5" font-family="Helvetica,sans-Serif" font-size="10.00">Impl::determineAccessingParticipant</text>
</a>
</g>
</g>
<!-- Node1&#45;&gt;Node15 -->
<g id="edge14" class="edge">
<title>Node1&#45;&gt;Node15</title>
<path fill="none" stroke="midnightblue" d="M137.21,-387.5C145.44,-387.5 153.99,-387.5 162.61,-387.5"/>
<polygon fill="midnightblue" stroke="midnightblue" points="162.75,-391 172.75,-387.5 162.75,-384 162.75,-391"/>
</g>
<!-- Node16 -->
<g id="node16" class="node">
<title>Node16</title>
<g id="a_node16"><a xlink:href="classprecice_1_1config_1_1Configuration.html#a03ec883eb5625791146e9de26da9ed1b" target="_top" xlink:title=" ">
<polygon fill="white" stroke="black" points="404,-350.5 404,-380.5 562,-380.5 562,-350.5 404,-350.5"/>
<text text-anchor="start" x="412" y="-368.5" font-family="Helvetica,sans-Serif" font-size="10.00">precice::config::Configuration</text>
<text text-anchor="middle" x="483" y="-357.5" font-family="Helvetica,sans-Serif" font-size="10.00">::getParticipantConfiguration</text>
</a>
</g>
</g>
<!-- Node1&#45;&gt;Node16 -->
<g id="edge19" class="edge">
<title>Node1&#45;&gt;Node16</title>
<path fill="none" stroke="midnightblue" d="M123.88,-372.44C139.6,-368.76 156.87,-365.35 173,-363.5 247.09,-355.02 331.83,-356.34 393.81,-359.32"/>
<polygon fill="midnightblue" stroke="midnightblue" points="393.78,-362.82 403.94,-359.83 394.13,-355.83 393.78,-362.82"/>
</g>
<!-- Node17 -->
<g id="node17" class="node">
<title>Node17</title>
<g id="a_node17"><a xlink:href="classprecice_1_1config_1_1Configuration.html#a6af9a0382ef6ce5390398dea077b2497" target="_top" xlink:title=" ">
<polygon fill="white" stroke="black" points="178,-284.5 178,-314.5 363,-314.5 363,-284.5 178,-284.5"/>
<text text-anchor="start" x="186" y="-302.5" font-family="Helvetica,sans-Serif" font-size="10.00">precice::config::Configuration</text>
<text text-anchor="middle" x="270.5" y="-291.5" font-family="Helvetica,sans-Serif" font-size="10.00">::getCouplingSchemeConfiguration</text>
</a>
</g>
</g>
<!-- Node1&#45;&gt;Node17 -->
<g id="edge16" class="edge">
<title>Node1&#45;&gt;Node17</title>
<path fill="none" stroke="midnightblue" d="M93.03,-372.43C113.55,-359.76 144.43,-341.79 173,-329.5 183,-325.2 193.81,-321.23 204.46,-317.67"/>
<polygon fill="midnightblue" stroke="midnightblue" points="205.74,-320.93 214.17,-314.52 203.58,-314.28 205.74,-320.93"/>
</g>
<!-- Node18 -->
<g id="node18" class="node">
<title>Node18</title>
<g id="a_node18"><a xlink:href="classprecice_1_1config_1_1Configuration.html#a3a2e6bf6cd99cc67a8754ccdcf986aec" target="_top" xlink:title=" ">
<polygon fill="white" stroke="black" points="191.5,-235.5 191.5,-265.5 349.5,-265.5 349.5,-235.5 191.5,-235.5"/>
<text text-anchor="start" x="199.5" y="-253.5" font-family="Helvetica,sans-Serif" font-size="10.00">precice::config::Configuration</text>
<text text-anchor="middle" x="270.5" y="-242.5" font-family="Helvetica,sans-Serif" font-size="10.00">::getM2NConfiguration</text>
</a>
</g>
</g>
<!-- Node1&#45;&gt;Node18 -->
<g id="edge17" class="edge">
<title>Node1&#45;&gt;Node18</title>
<path fill="none" stroke="midnightblue" d="M79.27,-372.24C95.63,-347.94 130.97,-300.65 173,-275.5 176.59,-273.35 180.37,-271.38 184.26,-269.59"/>
<polygon fill="midnightblue" stroke="midnightblue" points="185.66,-272.79 193.52,-265.69 182.94,-266.34 185.66,-272.79"/>
</g>
<!-- Node19 -->
<g id="node19" class="node">
<title>Node19</title>
<g id="a_node19"><a xlink:href="classprecice_1_1config_1_1Configuration.html#a2afa3747d55f2b6cc8e47cc69cd4d4ae" target="_top" xlink:title=" ">
<polygon fill="white" stroke="black" points="191.5,-186.5 191.5,-216.5 349.5,-216.5 349.5,-186.5 191.5,-186.5"/>
<text text-anchor="start" x="199.5" y="-204.5" font-family="Helvetica,sans-Serif" font-size="10.00">precice::config::Configuration</text>
<text text-anchor="middle" x="270.5" y="-193.5" font-family="Helvetica,sans-Serif" font-size="10.00">::getMeshConfiguration</text>
</a>
</g>
</g>
<!-- Node1&#45;&gt;Node19 -->
<g id="edge18" class="edge">
<title>Node1&#45;&gt;Node19</title>
<path fill="none" stroke="midnightblue" d="M74.82,-372.39C86.93,-340.29 119.7,-265.07 173,-226.5 175.89,-224.41 178.94,-222.49 182.11,-220.73"/>
<polygon fill="midnightblue" stroke="midnightblue" points="183.89,-223.76 191.31,-216.19 180.79,-217.48 183.89,-223.76"/>
</g>
<!-- Node20 -->
<g id="node20" class="node">
<title>Node20</title>
<g id="a_node20"><a xlink:href="classprecice_1_1config_1_1Configuration.html#ad42572ff4995a1dbbe8a182ad4196bfc" target="_top" xlink:title="Returns root xml tag to start the automatic configuration process.">
<polygon fill="white" stroke="black" points="191.5,-137.5 191.5,-167.5 349.5,-167.5 349.5,-137.5 191.5,-137.5"/>
<text text-anchor="start" x="199.5" y="-155.5" font-family="Helvetica,sans-Serif" font-size="10.00">precice::config::Configuration</text>
<text text-anchor="middle" x="270.5" y="-144.5" font-family="Helvetica,sans-Serif" font-size="10.00">::getXMLTag</text>
</a>
</g>
</g>
<!-- Node1&#45;&gt;Node20 -->
<g id="edge20" class="edge">
<title>Node1&#45;&gt;Node20</title>
<path fill="none" stroke="midnightblue" d="M72.43,-372.36C80.75,-333.62 108.22,-230.23 173,-177.5 175.92,-175.12 179.05,-172.96 182.32,-171.01"/>
<polygon fill="midnightblue" stroke="midnightblue" points="184.05,-174.05 191.28,-166.3 180.8,-167.86 184.05,-174.05"/>
</g>
<!-- Node21 -->
<g id="node21" class="node">
<title>Node21</title>
<g id="a_node21"><a xlink:href="classprecice_1_1utils_1_1Parallel.html#a399392a36670bc84a604771cb199c17c" target="_top" xlink:title="Initializes the MPI environment and manages it.">
<polygon fill="white" stroke="black" points="206.5,-88.5 206.5,-118.5 334.5,-118.5 334.5,-88.5 206.5,-88.5"/>
<text text-anchor="start" x="214.5" y="-106.5" font-family="Helvetica,sans-Serif" font-size="10.00">precice::utils::Parallel</text>
<text text-anchor="middle" x="270.5" y="-95.5" font-family="Helvetica,sans-Serif" font-size="10.00">::initializeManagedMPI</text>
</a>
</g>
</g>
<!-- Node1&#45;&gt;Node21 -->
<g id="edge21" class="edge">
<title>Node1&#45;&gt;Node21</title>
<path fill="none" stroke="midnightblue" d="M70.9,-372.25C75.83,-327.56 96.51,-195.87 173,-128.5 179.91,-122.41 188.13,-117.77 196.8,-114.24"/>
<polygon fill="midnightblue" stroke="midnightblue" points="198.11,-117.49 206.35,-110.84 195.75,-110.9 198.11,-117.49"/>
</g>
<!-- Node24 -->
<g id="node24" class="node">
<title>Node24</title>
<g id="a_node24"><a xlink:href="namespaceprecice_1_1logging.html#a33f23997f82442b8a7f097ec2e5d87c8" target="_top" xlink:title=" ">
<polygon fill="white" stroke="black" points="191.5,-50 191.5,-69 349.5,-69 349.5,-50 191.5,-50"/>
<text text-anchor="middle" x="270.5" y="-57" font-family="Helvetica,sans-Serif" font-size="10.00">precice::logging::setMPIRank</text>
</a>
</g>
</g>
<!-- Node1&#45;&gt;Node24 -->
<g id="edge25" class="edge">
<title>Node1&#45;&gt;Node24</title>
<path fill="none" stroke="midnightblue" d="M69.58,-372.44C70.73,-322.17 81.63,-158.8 173,-78.5 175.86,-75.98 178.96,-73.76 182.23,-71.8"/>
<polygon fill="midnightblue" stroke="midnightblue" points="183.92,-74.87 191.23,-67.21 180.73,-68.64 183.92,-74.87"/>
</g>
<!-- Node26 -->
<g id="node26" class="node">
<title>Node26</title>
<g id="a_node26"><a xlink:href="classprecice_1_1config_1_1Configuration.html#a3d5956facc6bea1c40a1e20299d77165" target="_top" xlink:title="Returns whether participants wait for each other in finalize.">
<polygon fill="white" stroke="black" points="191.5,-0.5 191.5,-30.5 349.5,-30.5 349.5,-0.5 191.5,-0.5"/>
<text text-anchor="start" x="199.5" y="-18.5" font-family="Helvetica,sans-Serif" font-size="10.00">precice::config::Configuration</text>
<text text-anchor="middle" x="270.5" y="-7.5" font-family="Helvetica,sans-Serif" font-size="10.00">::waitInFinalize</text>
</a>
</g>
</g>
<!-- Node1&#45;&gt;Node26 -->
<g id="edge27" class="edge">
<title>Node1&#45;&gt;Node26</title>
<path fill="none" stroke="midnightblue" d="M69.14,-372.39C68.71,-318.68 74.8,-135.19 173,-40.5 175.93,-37.68 179.14,-35.16 182.54,-32.92"/>
<polygon fill="midnightblue" stroke="midnightblue" points="184.41,-35.88 191.38,-27.89 180.96,-29.79 184.41,-35.88"/>
</g>
<!-- Node6 -->
<g id="node6" class="node">
<title>Node6</title>
<g id="a_node6"><a xlink:href="namespaceprecice_1_1detail.html#a99f20f73c4a3c34d08429ac0fea564ef" target="_top" xlink:title=" ">
<polygon fill="white" stroke="black" points="427.5,-637 427.5,-656 538.5,-656 538.5,-637 427.5,-637"/>
<text text-anchor="middle" x="483" y="-644" font-family="Helvetica,sans-Serif" font-size="10.00">precice::detail::size</text>
</a>
</g>
</g>
<!-- Node5&#45;&gt;Node6 -->
<g id="edge5" class="edge">
<title>Node5&#45;&gt;Node6</title>
<path fill="none" stroke="midnightblue" d="M340.72,-630.39C365.36,-633.2 392.99,-636.35 417.25,-639.12"/>
<polygon fill="midnightblue" stroke="midnightblue" points="417.08,-642.62 427.41,-640.28 417.87,-635.67 417.08,-642.62"/>
</g>
<!-- Node8 -->
<g id="node8" class="node">
<title>Node8</title>
<g id="a_node8"><a xlink:href="classprecice_1_1xml_1_1XMLTag.html#af81dc6eea2b9a75e14ddd6033ed9a1d4" target="_top" xlink:title="Adds an XML tag as subtag by making a copy of the given tag.">
<polygon fill="white" stroke="black" points="423.5,-587.5 423.5,-617.5 542.5,-617.5 542.5,-587.5 423.5,-587.5"/>
<text text-anchor="start" x="431.5" y="-605.5" font-family="Helvetica,sans-Serif" font-size="10.00">precice::xml::XMLTag</text>
<text text-anchor="middle" x="483" y="-594.5" font-family="Helvetica,sans-Serif" font-size="10.00">::addSubtag</text>
</a>
</g>
</g>
<!-- Node7&#45;&gt;Node8 -->
<g id="edge7" class="edge">
<title>Node7&#45;&gt;Node8</title>
<path fill="none" stroke="midnightblue" d="M334.66,-585.7C359.35,-588.52 387.74,-591.75 412.98,-594.63"/>
<polygon fill="midnightblue" stroke="midnightblue" points="412.87,-598.14 423.21,-595.8 413.67,-591.19 412.87,-598.14"/>
</g>
<!-- Node9 -->
<g id="node9" class="node">
<title>Node9</title>
<g id="a_node9"><a xlink:href="classprecice_1_1xml_1_1XMLTag.html#aa90f7a05aeab6f674ee1499a84a8bb2e" target="_top" xlink:title="Returns full name consisting of xml namespace + &quot;:&quot; + name.">
<polygon fill="white" stroke="black" points="423.5,-538.5 423.5,-568.5 542.5,-568.5 542.5,-538.5 423.5,-538.5"/>
<text text-anchor="start" x="431.5" y="-556.5" font-family="Helvetica,sans-Serif" font-size="10.00">precice::xml::XMLTag</text>
<text text-anchor="middle" x="483" y="-545.5" font-family="Helvetica,sans-Serif" font-size="10.00">::getFullName</text>
</a>
</g>
</g>
<!-- Node7&#45;&gt;Node9 -->
<g id="edge8" class="edge">
<title>Node7&#45;&gt;Node9</title>
<path fill="none" stroke="midnightblue" d="M334.66,-571C359.35,-568.07 387.74,-564.69 412.98,-561.7"/>
<polygon fill="midnightblue" stroke="midnightblue" points="413.69,-565.14 423.21,-560.48 412.86,-558.19 413.69,-565.14"/>
</g>
<!-- Node11 -->
<g id="node11" class="node">
<title>Node11</title>
<g id="a_node11"><a xlink:href="namespaceprecice_1_1utils.html#a434eabaa71f97a31726281a4df77bbcf" target="_top" xlink:title="Returns true, if given element is in vector, otherwise false.">
<polygon fill="white" stroke="black" points="416.5,-500 416.5,-519 549.5,-519 549.5,-500 416.5,-500"/>
<text text-anchor="middle" x="483" y="-507" font-family="Helvetica,sans-Serif" font-size="10.00">precice::utils::contained</text>
</a>
</g>
</g>
<!-- Node10&#45;&gt;Node11 -->
<g id="edge10" class="edge">
<title>Node10&#45;&gt;Node11</title>
<path fill="none" stroke="midnightblue" d="M339.26,-526.45C360.53,-523.93 384.15,-521.12 405.96,-518.53"/>
<polygon fill="midnightblue" stroke="midnightblue" points="406.64,-521.97 416.16,-517.32 405.82,-515.02 406.64,-521.97"/>
</g>
<!-- Node14 -->
<g id="node14" class="node">
<title>Node14</title>
<g id="a_node14"><a xlink:href="structprecice_1_1utils_1_1Parallel_1_1CommState.html#a11c87f5cfaad1fb984d9dcd80e6f2c55" target="_top" xlink:title="returns a commstate containing MPI_COMM_WORLD">
<polygon fill="white" stroke="black" points="422.5,-421.5 422.5,-451.5 543.5,-451.5 543.5,-421.5 422.5,-421.5"/>
<text text-anchor="start" x="430.5" y="-439.5" font-family="Helvetica,sans-Serif" font-size="10.00">precice::utils::Parallel</text>
<text text-anchor="middle" x="483" y="-428.5" font-family="Helvetica,sans-Serif" font-size="10.00">::CommState::world</text>
</a>
</g>
</g>
<!-- Node13&#45;&gt;Node14 -->
<g id="edge13" class="edge">
<title>Node13&#45;&gt;Node14</title>
<path fill="none" stroke="midnightblue" d="M331.26,-436.5C356.47,-436.5 386.01,-436.5 412.21,-436.5"/>
<polygon fill="midnightblue" stroke="midnightblue" points="412.46,-440 422.46,-436.5 412.46,-433 412.46,-440"/>
</g>
<!-- Node15&#45;&gt;Node16 -->
<g id="edge15" class="edge">
<title>Node15&#45;&gt;Node16</title>
<path fill="none" stroke="midnightblue" d="M368.12,-377.4C376.65,-376.51 385.26,-375.61 393.71,-374.73"/>
<polygon fill="midnightblue" stroke="midnightblue" points="394.36,-378.18 403.94,-373.66 393.63,-371.22 394.36,-378.18"/>
</g>
<!-- Node22 -->
<g id="node22" class="node">
<title>Node22</title>
<g id="a_node22"><a xlink:href="classprecice_1_1utils_1_1Parallel.html#a06b41a771f12a96c3c22b21d40f532b6" target="_top" xlink:title="Unconditionally initializes the MPI environment.">
<polygon fill="white" stroke="black" points="422.5,-132.5 422.5,-162.5 543.5,-162.5 543.5,-132.5 422.5,-132.5"/>
<text text-anchor="start" x="430.5" y="-150.5" font-family="Helvetica,sans-Serif" font-size="10.00">precice::utils::Parallel</text>
<text text-anchor="middle" x="483" y="-139.5" font-family="Helvetica,sans-Serif" font-size="10.00">::initializeMPI</text>
</a>
</g>
</g>
<!-- Node21&#45;&gt;Node22 -->
<g id="edge22" class="edge">
<title>Node21&#45;&gt;Node22</title>
<path fill="none" stroke="midnightblue" d="M334.66,-116.7C359.25,-121.84 387.51,-127.75 412.66,-133.01"/>
<polygon fill="midnightblue" stroke="midnightblue" points="411.99,-136.44 422.49,-135.06 413.42,-129.59 411.99,-136.44"/>
</g>
<!-- Node23 -->
<g id="node23" class="node">
<title>Node23</title>
<g id="a_node23"><a xlink:href="classprecice_1_1utils_1_1Parallel.html#a0025ca7ace4e2f78d1d8ba228890e0e5" target="_top" xlink:title="Return true if MPI is initialized.">
<polygon fill="white" stroke="black" points="598,-110.5 598,-140.5 719,-140.5 719,-110.5 598,-110.5"/>
<text text-anchor="start" x="606" y="-128.5" font-family="Helvetica,sans-Serif" font-size="10.00">precice::utils::Parallel</text>
<text text-anchor="middle" x="658.5" y="-117.5" font-family="Helvetica,sans-Serif" font-size="10.00">::isMPIInitialized</text>
</a>
</g>
</g>
<!-- Node21&#45;&gt;Node23 -->
<g id="edge24" class="edge">
<title>Node21&#45;&gt;Node23</title>
<path fill="none" stroke="midnightblue" d="M334.81,-107.11C404.32,-111.07 515.62,-117.41 587.63,-121.52"/>
<polygon fill="midnightblue" stroke="midnightblue" points="587.78,-125.03 597.97,-122.11 588.18,-118.04 587.78,-125.03"/>
</g>
<!-- Node22&#45;&gt;Node23 -->
<g id="edge23" class="edge">
<title>Node22&#45;&gt;Node23</title>
<path fill="none" stroke="midnightblue" d="M543.71,-139.93C557.96,-138.12 573.3,-136.18 587.96,-134.32"/>
<polygon fill="midnightblue" stroke="midnightblue" points="588.49,-137.78 597.98,-133.05 587.61,-130.83 588.49,-137.78"/>
</g>
<!-- Node25 -->
<g id="node25" class="node">
<title>Node25</title>
<g id="a_node25"><a xlink:href="namespaceprecice_1_1logging.html#a90d9b50f6478a00af9aea3edd59e49cc" target="_top" xlink:title="Returns the global logging configuration.">
<polygon fill="white" stroke="black" points="409.5,-44.5 409.5,-74.5 556.5,-74.5 556.5,-44.5 409.5,-44.5"/>
<text text-anchor="start" x="417.5" y="-62.5" font-family="Helvetica,sans-Serif" font-size="10.00">precice::logging::getGlobal</text>
<text text-anchor="middle" x="483" y="-51.5" font-family="Helvetica,sans-Serif" font-size="10.00">LoggingConfig</text>
</a>
</g>
</g>
<!-- Node24&#45;&gt;Node25 -->
<g id="edge26" class="edge">
<title>Node24&#45;&gt;Node25</title>
<path fill="none" stroke="midnightblue" d="M349.58,-59.5C365.76,-59.5 382.87,-59.5 399.21,-59.5"/>
<polygon fill="midnightblue" stroke="midnightblue" points="399.27,-63 409.27,-59.5 399.27,-56 399.27,-63"/>
</g>
</g>
</svg>
