<?xml version="1.0" encoding="UTF-8" standalone="no"?>
<!DOCTYPE svg PUBLIC "-//W3C//DTD SVG 1.1//EN"
 "http://www.w3.org/Graphics/SVG/1.1/DTD/svg11.dtd">
<!-- Generated by graphviz version 2.43.0 (0)
 -->
<!-- Title: precice::mesh::DataConfiguration Pages: 1 -->
<!--zoomable 176 -->
<svg id="main" version="1.1" xmlns="http://www.w3.org/2000/svg" xmlns:xlink="http://www.w3.org/1999/xlink" xml:space="preserve" onload="init(evt)">
<style type="text/css"><![CDATA[
.edge:hover path { stroke: red; }
.edge:hover polygon { stroke: red; fill: red; }
]]></style>
<script type="text/javascript"><![CDATA[
var edges = document.getElementsByTagName('g');
if (edges && edges.length) {
  for (var i=0;i<edges.length;i++) {
    if (edges[i].id.substr(0,4)=='edge') {
      edges[i].setAttribute('class','edge');
    }
  }
}
]]></script>
        <defs>
                <circle id="rim" cx="0" cy="0" r="7"/>
                <circle id="rim2" cx="0" cy="0" r="3.5"/>
                <g id="zoomPlus">
                        <use xlink:href="#rim" fill="#404040">
                                <set attributeName="fill" to="#808080" begin="zoomplus.mouseover" end="zoomplus.mouseout"/>
                        </use>
                        <path d="M-4,0h8M0,-4v8" fill="none" stroke="white" stroke-width="1.5" pointer-events="none"/>
                </g>
                <g id="zoomMin">
                        <use xlink:href="#rim" fill="#404040">
                                <set attributeName="fill" to="#808080" begin="zoomminus.mouseover" end="zoomminus.mouseout"/>
                        </use>
                        <path d="M-4,0h8" fill="none" stroke="white" stroke-width="1.5" pointer-events="none"/>
                </g>
                <g id="dirArrow">
                        <path fill="none" stroke="white" stroke-width="1.5" d="M0,-3.0v7 M-2.5,-0.5L0,-3.0L2.5,-0.5"/>
                </g>
               <g id="resetDef">
                       <use xlink:href="#rim2" fill="#404040">
                               <set attributeName="fill" to="#808080" begin="reset.mouseover" end="reset.mouseout"/>
                       </use>
               </g>
        </defs>

<script type="text/javascript">
var viewWidth = 1049;
var viewHeight = 176;
var sectionId = 'dynsection-1';
</script>
<script xlink:href="svgpan.js"/>
<svg id="graph" class="graph">
<g id="viewport">
<title>precice::mesh::DataConfiguration</title>
<polygon fill="white" stroke="transparent" points="-4,4 -4,-171.5 1045,-171.5 1045,4 -4,4"/>
<!-- Node1 -->
<g id="node1" class="node">
<title>Node1</title>
<g id="a_node1"><a xlink:title="Performs and provides configuration for Data objects from XML files.">
<polygon fill="#bfbfbf" stroke="black" points="862,-79.5 862,-98.5 1041,-98.5 1041,-79.5 862,-79.5"/>
<text text-anchor="middle" x="951.5" y="-86.5" font-family="Helvetica,sans-Serif" font-size="10.00">precice::mesh::DataConfiguration</text>
</a>
</g>
</g>
<!-- Node2 -->
<g id="node2" class="node">
<title>Node2</title>
<g id="a_node2"><a xlink:href="structprecice_1_1xml_1_1XMLTag_1_1Listener.html" target="_top" xlink:title="Callback interface for configuration classes using XMLTag.">
<polygon fill="white" stroke="black" points="663.5,-137 663.5,-167 782.5,-167 782.5,-137 663.5,-137"/>
<text text-anchor="start" x="671.5" y="-155" font-family="Helvetica,sans-Serif" font-size="10.00">precice::xml::XMLTag</text>
<text text-anchor="middle" x="723" y="-144" font-family="Helvetica,sans-Serif" font-size="10.00">::Listener</text>
</a>
</g>
</g>
<!-- Node2&#45;&gt;Node1 -->
<g id="edge1" class="edge">
<title>Node2&#45;&gt;Node1</title>
<path fill="none" stroke="midnightblue" d="M787.77,-134.26C829.48,-122.66 882.34,-107.96 916.3,-98.51"/>
<polygon fill="midnightblue" stroke="midnightblue" points="786.66,-130.94 777.96,-136.99 788.54,-137.68 786.66,-130.94"/>
</g>
<!-- Node3 -->
<g id="node3" class="node">
<title>Node3</title>
<g id="a_node3"><a xlink:href="classprecice_1_1logging_1_1Logger.html" target="_top" xlink:title="This class provides a lightweight logger.">
<polygon fill="white" stroke="black" points="656.5,-98.5 656.5,-117.5 789.5,-117.5 789.5,-98.5 656.5,-98.5"/>
<text text-anchor="middle" x="723" y="-105.5" font-family="Helvetica,sans-Serif" font-size="10.00">precice::logging::Logger</text>
</a>
</g>
</g>
<!-- Node3&#45;&gt;Node1 -->
<g id="edge2" class="edge">
<title>Node3&#45;&gt;Node1</title>
<path fill="none" stroke="#9a32cd" stroke-dasharray="5,2" d="M799.49,-101.67C819.51,-99.99 841.31,-98.16 861.96,-96.43"/>
<polygon fill="#9a32cd" stroke="#9a32cd" points="799.19,-98.18 789.51,-102.5 799.77,-105.16 799.19,-98.18"/>
<text text-anchor="middle" x="828.5" y="-103" font-family="Helvetica,sans-Serif" font-size="10.00"> _log</text>
</g>
<!-- Node4 -->
<g id="node4" class="node">
<title>Node4</title>
<g id="a_node4"><a xlink:title=" ">
<polygon fill="white" stroke="#bfbfbf" points="363.5,-133 363.5,-163 533.5,-163 533.5,-133 363.5,-133"/>
<text text-anchor="start" x="371.5" y="-151" font-family="Helvetica,sans-Serif" font-size="10.00">std::unique_ptr&lt; precice</text>
<text text-anchor="middle" x="448.5" y="-140" font-family="Helvetica,sans-Serif" font-size="10.00">::logging::Logger::LoggerImpl &gt;</text>
</a>
</g>
</g>
<!-- Node4&#45;&gt;Node3 -->
<g id="edge3" class="edge">
<title>Node4&#45;&gt;Node3</title>
<path fill="none" stroke="#9a32cd" stroke-dasharray="5,2" d="M543.77,-138.17C572.48,-134.78 604.1,-130.65 633,-126 647.79,-123.62 663.85,-120.53 678.22,-117.58"/>
<polygon fill="#9a32cd" stroke="#9a32cd" points="543.27,-134.7 533.74,-139.34 544.08,-141.65 543.27,-134.7"/>
<text text-anchor="middle" x="594.5" y="-139" font-family="Helvetica,sans-Serif" font-size="10.00"> _impl</text>
</g>
<!-- Node5 -->
<g id="node5" class="node">
<title>Node5</title>
<g id="a_node5"><a xlink:href="classprecice_1_1logging_1_1Logger_1_1LoggerImpl.html" target="_top" xlink:title=" ">
<polygon fill="white" stroke="black" points="159,-133 159,-163 292,-163 292,-133 159,-133"/>
<text text-anchor="start" x="167" y="-151" font-family="Helvetica,sans-Serif" font-size="10.00">precice::logging::Logger</text>
<text text-anchor="middle" x="225.5" y="-140" font-family="Helvetica,sans-Serif" font-size="10.00">::LoggerImpl</text>
</a>
</g>
</g>
<!-- Node5&#45;&gt;Node4 -->
<g id="edge4" class="edge">
<title>Node5&#45;&gt;Node4</title>
<path fill="none" stroke="#9a32cd" stroke-dasharray="5,2" d="M302.3,-148C321.92,-148 343.15,-148 363.17,-148"/>
<polygon fill="#9a32cd" stroke="#9a32cd" points="302.21,-144.5 292.21,-148 302.21,-151.5 302.21,-144.5"/>
<text text-anchor="middle" x="325.5" y="-151" font-family="Helvetica,sans-Serif" font-size="10.00"> ptr</text>
</g>
<!-- Node6 -->
<g id="node6" class="node">
<title>Node6</title>
<g id="a_node6"><a xlink:title=" ">
<polygon fill="white" stroke="#bfbfbf" points="0,-133 0,-163 122,-163 122,-133 0,-133"/>
<text text-anchor="start" x="8" y="-151" font-family="Helvetica,sans-Serif" font-size="10.00">BoostLogger&lt; Logger</text>
<text text-anchor="middle" x="61" y="-140" font-family="Helvetica,sans-Serif" font-size="10.00">::LoggerImpl &gt;</text>
</a>
</g>
</g>
<!-- Node6&#45;&gt;Node5 -->
<g id="edge5" class="edge">
<title>Node6&#45;&gt;Node5</title>
<path fill="none" stroke="midnightblue" d="M132.33,-148C141.17,-148 150.19,-148 158.96,-148"/>
<polygon fill="midnightblue" stroke="midnightblue" points="132.05,-144.5 122.05,-148 132.05,-151.5 132.05,-144.5"/>
</g>
<!-- Node7 -->
<g id="node7" class="node">
<title>Node7</title>
<g id="a_node7"><a xlink:title="STL class.">
<polygon fill="white" stroke="#bfbfbf" points="193,-38.5 193,-57.5 258,-57.5 258,-38.5 193,-38.5"/>
<text text-anchor="middle" x="225.5" y="-45.5" font-family="Helvetica,sans-Serif" font-size="10.00">std::string</text>
</a>
</g>
</g>
<!-- Node7&#45;&gt;Node1 -->
<g id="edge6" class="edge">
<title>Node7&#45;&gt;Node1</title>
<path fill="none" stroke="#9a32cd" stroke-dasharray="5,2" d="M268.48,-51.9C281.75,-53.03 296.48,-54.18 310,-55 453.39,-63.67 489.55,-59.37 633,-67 710.38,-71.12 798.27,-77.33 861.93,-82.1"/>
<polygon fill="#9a32cd" stroke="#9a32cd" points="268.46,-48.39 258.2,-51.01 267.85,-55.36 268.46,-48.39"/>
<text text-anchor="middle" x="594.5" y="-114" font-family="Helvetica,sans-Serif" font-size="10.00"> ATTR_NAME</text>
<text text-anchor="middle" x="594.5" y="-103" font-family="Helvetica,sans-Serif" font-size="10.00">ATTR_DEGREE</text>
<text text-anchor="middle" x="594.5" y="-92" font-family="Helvetica,sans-Serif" font-size="10.00">TAG</text>
<text text-anchor="middle" x="594.5" y="-81" font-family="Helvetica,sans-Serif" font-size="10.00">VALUE_VECTOR</text>
<text text-anchor="middle" x="594.5" y="-70" font-family="Helvetica,sans-Serif" font-size="10.00">VALUE_SCALAR</text>
</g>
<!-- Node10 -->
<g id="node10" class="node">
<title>Node10</title>
<g id="a_node10"><a xlink:href="structprecice_1_1mesh_1_1DataConfiguration_1_1ConfiguredData.html" target="_top" xlink:title=" ">
<polygon fill="white" stroke="black" points="359,-10 359,-40 538,-40 538,-10 359,-10"/>
<text text-anchor="start" x="367" y="-28" font-family="Helvetica,sans-Serif" font-size="10.00">precice::mesh::DataConfiguration</text>
<text text-anchor="middle" x="448.5" y="-17" font-family="Helvetica,sans-Serif" font-size="10.00">::ConfiguredData</text>
</a>
</g>
</g>
<!-- Node7&#45;&gt;Node10 -->
<g id="edge10" class="edge">
<title>Node7&#45;&gt;Node10</title>
<path fill="none" stroke="#9a32cd" stroke-dasharray="5,2" d="M268.22,-43.66C293.74,-41 327.38,-37.5 358.62,-34.25"/>
<polygon fill="#9a32cd" stroke="#9a32cd" points="267.75,-40.19 258.16,-44.7 268.47,-47.15 267.75,-40.19"/>
<text text-anchor="middle" x="325.5" y="-43" font-family="Helvetica,sans-Serif" font-size="10.00"> name</text>
</g>
<!-- Node8 -->
<g id="node8" class="node">
<title>Node8</title>
<g id="a_node8"><a xlink:title="STL class.">
<polygon fill="white" stroke="#bfbfbf" points="9,-33 9,-63 113,-63 113,-33 9,-33"/>
<text text-anchor="start" x="17" y="-51" font-family="Helvetica,sans-Serif" font-size="10.00">std::basic_string&lt;</text>
<text text-anchor="middle" x="61" y="-40" font-family="Helvetica,sans-Serif" font-size="10.00"> char &gt;</text>
</a>
</g>
</g>
<!-- Node8&#45;&gt;Node7 -->
<g id="edge7" class="edge">
<title>Node8&#45;&gt;Node7</title>
<path fill="none" stroke="midnightblue" d="M123.69,-48C147.25,-48 173.14,-48 192.78,-48"/>
<polygon fill="midnightblue" stroke="midnightblue" points="123.42,-44.5 113.42,-48 123.42,-51.5 123.42,-44.5"/>
</g>
<!-- Node9 -->
<g id="node9" class="node">
<title>Node9</title>
<g id="a_node9"><a xlink:title=" ">
<polygon fill="white" stroke="#bfbfbf" points="651,-0.5 651,-41.5 795,-41.5 795,-0.5 651,-0.5"/>
<text text-anchor="start" x="659" y="-29.5" font-family="Helvetica,sans-Serif" font-size="10.00">std::vector&lt; precice</text>
<text text-anchor="start" x="659" y="-18.5" font-family="Helvetica,sans-Serif" font-size="10.00">::mesh::DataConfiguration</text>
<text text-anchor="middle" x="723" y="-7.5" font-family="Helvetica,sans-Serif" font-size="10.00">::ConfiguredData &gt;</text>
</a>
</g>
</g>
<!-- Node9&#45;&gt;Node1 -->
<g id="edge8" class="edge">
<title>Node9&#45;&gt;Node1</title>
<path fill="none" stroke="#9a32cd" stroke-dasharray="5,2" d="M804.99,-34.96C818.14,-37.87 831.53,-41.21 844,-45 875.01,-54.41 909.42,-69.53 930.51,-79.37"/>
<polygon fill="#9a32cd" stroke="#9a32cd" points="805.51,-31.49 795,-32.83 804.05,-38.34 805.51,-31.49"/>
<text text-anchor="middle" x="828.5" y="-48" font-family="Helvetica,sans-Serif" font-size="10.00"> _data</text>
</g>
<!-- Node10&#45;&gt;Node9 -->
<g id="edge9" class="edge">
<title>Node10&#45;&gt;Node9</title>
<path fill="none" stroke="#9a32cd" stroke-dasharray="5,2" d="M548.74,-23.54C582.6,-23.05 619.76,-22.5 650.95,-22.04"/>
<polygon fill="#9a32cd" stroke="#9a32cd" points="548.3,-20.05 538.35,-23.7 548.4,-27.05 548.3,-20.05"/>
<text text-anchor="middle" x="594.5" y="-27" font-family="Helvetica,sans-Serif" font-size="10.00"> elements</text>
</g>
</g>
</svg>
        <g id="navigator" transform="translate(0 0)" fill="#404254">
                <rect fill="#f2f5e9" fill-opacity="0.5" stroke="#606060" stroke-width=".5" x="0" y="0" width="60" height="60"/>
                <use id="zoomplus" xlink:href="#zoomPlus" x="17" y="9" onmousedown="handleZoom(evt,'in')"/>
                <use id="zoomminus" xlink:href="#zoomMin" x="42" y="9" onmousedown="handleZoom(evt,'out')"/>
                <use id="reset" xlink:href="#resetDef" x="30" y="36" onmousedown="handleReset()"/>
                <g id="arrowUp" xlink:href="#dirArrow" transform="translate(30 24)" onmousedown="handlePan(0,-1)">
                  <use xlink:href="#rim" fill="#404040">
                        <set attributeName="fill" to="#808080" begin="arrowUp.mouseover" end="arrowUp.mouseout"/>
                  </use>
                  <path fill="none" stroke="white" stroke-width="1.5" d="M0,-3.0v7 M-2.5,-0.5L0,-3.0L2.5,-0.5"/>
                </g>
                <g id="arrowRight" xlink:href="#dirArrow" transform="rotate(90) translate(36 -43)" onmousedown="handlePan(1,0)">
                  <use xlink:href="#rim" fill="#404040">
                        <set attributeName="fill" to="#808080" begin="arrowRight.mouseover" end="arrowRight.mouseout"/>
                  </use>
                  <path fill="none" stroke="white" stroke-width="1.5" d="M0,-3.0v7 M-2.5,-0.5L0,-3.0L2.5,-0.5"/>
                </g>
                <g id="arrowDown" xlink:href="#dirArrow" transform="rotate(180) translate(-30 -48)" onmousedown="handlePan(0,1)">
                  <use xlink:href="#rim" fill="#404040">
                        <set attributeName="fill" to="#808080" begin="arrowDown.mouseover" end="arrowDown.mouseout"/>
                  </use>
                  <path fill="none" stroke="white" stroke-width="1.5" d="M0,-3.0v7 M-2.5,-0.5L0,-3.0L2.5,-0.5"/>
                </g>
                <g id="arrowLeft" xlink:href="#dirArrow" transform="rotate(270) translate(-36 17)" onmousedown="handlePan(-1,0)">
                  <use xlink:href="#rim" fill="#404040">
                        <set attributeName="fill" to="#808080" begin="arrowLeft.mouseover" end="arrowLeft.mouseout"/>
                  </use>
                  <path fill="none" stroke="white" stroke-width="1.5" d="M0,-3.0v7 M-2.5,-0.5L0,-3.0L2.5,-0.5"/>
                </g>
        </g>
        <svg viewBox="0 0 15 15" width="100%" height="30px" preserveAspectRatio="xMaxYMin meet">
         <g id="arrow_out" transform="scale(0.3 0.3)">
          <a xlink:href="classprecice_1_1mesh_1_1DataConfiguration__coll__graph_org.svg" target="_base">
           <rect id="button" ry="5" rx="5" y="6" x="6" height="38" width="38"
                fill="#f2f5e9" fill-opacity="0.5" stroke="#606060" stroke-width="1.0"/>
           <path id="arrow"
             d="M 11.500037,31.436501 C 11.940474,20.09759 22.043105,11.32322 32.158766,21.979434 L 37.068811,17.246167 C 37.068811,17.246167 37.088388,32 37.088388,32 L 22.160133,31.978069 C 22.160133,31.978069 26.997745,27.140456 26.997745,27.140456 C 18.528582,18.264221 13.291696,25.230495 11.500037,31.436501 z"
             style="fill:#404040;"/>
          </a>
         </g>
        </svg>
</svg>
