<?xml version="1.0" encoding="UTF-8" standalone="no"?>
<!DOCTYPE svg PUBLIC "-//W3C//DTD SVG 1.1//EN"
 "http://www.w3.org/Graphics/SVG/1.1/DTD/svg11.dtd">
<!-- Generated by graphviz version 2.43.0 (0)
 -->
<!-- Title: precice::acceleration::AccelerationConfiguration::addTypeSpecificSubtags Pages: 1 -->
<svg width="708pt" height="264pt"
 viewBox="0.00 0.00 708.00 264.00" xmlns="http://www.w3.org/2000/svg" xmlns:xlink="http://www.w3.org/1999/xlink">
<g id="graph0" class="graph" transform="scale(1 1) rotate(0) translate(4 260)">
<title>precice::acceleration::AccelerationConfiguration::addTypeSpecificSubtags</title>
<!-- Node1 -->
<g id="Node000001" class="node">
<title>Node1</title>
<g id="a_Node000001"><a xlink:title=" ">
<polygon fill="#999999" stroke="#666666" points="149,-116.5 0,-116.5 0,-75.5 149,-75.5 149,-116.5"/>
<text text-anchor="start" x="8" y="-104.5" font-family="Helvetica,sans-Serif" font-size="10.00">precice::acceleration</text>
<text text-anchor="start" x="8" y="-93.5" font-family="Helvetica,sans-Serif" font-size="10.00">::AccelerationConfiguration</text>
<text text-anchor="middle" x="74.5" y="-82.5" font-family="Helvetica,sans-Serif" font-size="10.00">::addTypeSpecificSubtags</text>
</a>
</g>
</g>
<!-- Node2 -->
<g id="Node000002" class="node">
<title>Node2</title>
<g id="a_Node000002"><a xlink:href="classprecice_1_1acceleration_1_1AccelerationConfiguration.html#a19e005b170732e6e995f332f96f4bfb9" target="_top" xlink:title=" ">
<polygon fill="white" stroke="#666666" points="334,-165.5 185,-165.5 185,-124.5 334,-124.5 334,-165.5"/>
<text text-anchor="start" x="193" y="-153.5" font-family="Helvetica,sans-Serif" font-size="10.00">precice::acceleration</text>
<text text-anchor="start" x="193" y="-142.5" font-family="Helvetica,sans-Serif" font-size="10.00">::AccelerationConfiguration</text>
<text text-anchor="middle" x="259.5" y="-131.5" font-family="Helvetica,sans-Serif" font-size="10.00">::addCommonIQNSubtags</text>
</a>
</g>
</g>
<!-- Node1&#45;&gt;Node2 -->
<g id="edge1_Node000001_Node000002" class="edge">
<title>Node1&#45;&gt;Node2</title>
<g id="a_edge1_Node000001_Node000002"><a xlink:title=" ">
<path fill="none" stroke="#63b8ff" d="M149.14,-115.72C157.66,-118 166.39,-120.34 175.02,-122.65"/>
<polygon fill="#63b8ff" stroke="#63b8ff" points="174.15,-126.04 184.71,-125.24 175.96,-119.27 174.15,-126.04"/>
</a>
</g>
</g>
<!-- Node5 -->
<g id="Node000005" class="node">
<title>Node5</title>
<g id="a_Node000005"><a xlink:href="classprecice_1_1xml_1_1XMLTag.html#af81dc6eea2b9a75e14ddd6033ed9a1d4" target="_top" xlink:title="Adds an XML tag as subtag by making a copy of the given tag.">
<polygon fill="white" stroke="#666666" points="503,-256 384,-256 384,-226 503,-226 503,-256"/>
<text text-anchor="start" x="392" y="-244" font-family="Helvetica,sans-Serif" font-size="10.00">precice::xml::XMLTag</text>
<text text-anchor="middle" x="443.5" y="-233" font-family="Helvetica,sans-Serif" font-size="10.00">::addSubtag</text>
</a>
</g>
</g>
<!-- Node1&#45;&gt;Node5 -->
<g id="edge8_Node000001_Node000005" class="edge">
<title>Node1&#45;&gt;Node5</title>
<g id="a_edge8_Node000001_Node000005"><a xlink:title=" ">
<path fill="none" stroke="#63b8ff" d="M98.64,-116.69C119.75,-134.54 152.52,-159.79 185,-175 245.76,-203.45 320.55,-220.87 373.85,-230.62"/>
<polygon fill="#63b8ff" stroke="#63b8ff" points="373.41,-234.1 383.87,-232.41 374.64,-227.2 373.41,-234.1"/>
</a>
</g>
</g>
<!-- Node7 -->
<g id="Node000007" class="node">
<title>Node7</title>
<g id="a_Node000007"><a xlink:href="classprecice_1_1xml_1_1XMLAttribute.html#ae336b527b63afb29a0860ced596535e6" target="_top" xlink:title="Sets a documentation string for the attribute.">
<polygon fill="white" stroke="#666666" points="517,-112 370,-112 370,-82 517,-82 517,-112"/>
<text text-anchor="start" x="378" y="-100" font-family="Helvetica,sans-Serif" font-size="10.00">precice::xml::XMLAttribute</text>
<text text-anchor="middle" x="443.5" y="-89" font-family="Helvetica,sans-Serif" font-size="10.00">::setDocumentation</text>
</a>
</g>
</g>
<!-- Node1&#45;&gt;Node7 -->
<g id="edge10_Node000001_Node000007" class="edge">
<title>Node1&#45;&gt;Node7</title>
<g id="a_edge10_Node000001_Node000007"><a xlink:title=" ">
<path fill="none" stroke="#63b8ff" d="M149.33,-96.2C210.1,-96.37 296.22,-96.6 359.4,-96.77"/>
<polygon fill="#63b8ff" stroke="#63b8ff" points="359.72,-100.27 369.73,-96.8 359.74,-93.27 359.72,-100.27"/>
</a>
</g>
</g>
<!-- Node8 -->
<g id="Node000008" class="node">
<title>Node8</title>
<g id="a_Node000008"><a xlink:href="classprecice_1_1xml_1_1XMLAttribute.html#a9608183a6d0b563b6d48154857c284d4" target="_top" xlink:title=" ">
<polygon fill="white" stroke="#666666" points="517,-64 370,-64 370,-34 517,-34 517,-64"/>
<text text-anchor="start" x="378" y="-52" font-family="Helvetica,sans-Serif" font-size="10.00">precice::xml::XMLAttribute</text>
<text text-anchor="middle" x="443.5" y="-41" font-family="Helvetica,sans-Serif" font-size="10.00">::setOptions</text>
</a>
</g>
</g>
<!-- Node1&#45;&gt;Node8 -->
<g id="edge11_Node000001_Node000008" class="edge">
<title>Node1&#45;&gt;Node8</title>
<g id="a_edge11_Node000001_Node000008"><a xlink:title=" ">
<path fill="none" stroke="#63b8ff" d="M149.33,-86.55C210.22,-78.75 296.58,-67.69 359.79,-59.59"/>
<polygon fill="#63b8ff" stroke="#63b8ff" points="360.26,-63.06 369.73,-58.32 359.37,-56.12 360.26,-63.06"/>
</a>
</g>
</g>
<!-- Node9 -->
<g id="Node000009" class="node">
<title>Node9</title>
<g id="a_Node000009"><a xlink:href="classprecice_1_1xml_1_1XMLTag.html#a9212e8c59708a9e07f0ff70a997349f9" target="_top" xlink:title="Returns name (without namespace).">
<polygon fill="white" stroke="#666666" points="319,-30 200,-30 200,0 319,0 319,-30"/>
<text text-anchor="start" x="208" y="-18" font-family="Helvetica,sans-Serif" font-size="10.00">precice::xml::XMLTag</text>
<text text-anchor="middle" x="259.5" y="-7" font-family="Helvetica,sans-Serif" font-size="10.00">::getName</text>
</a>
</g>
</g>
<!-- Node1&#45;&gt;Node9 -->
<g id="edge9_Node000001_Node000009" class="edge">
<title>Node1&#45;&gt;Node9</title>
<g id="a_edge9_Node000001_Node000009"><a xlink:title=" ">
<path fill="none" stroke="#63b8ff" d="M117.05,-75.45C137.39,-65.61 162.32,-53.85 185,-44 192.87,-40.58 201.28,-37.11 209.5,-33.8"/>
<polygon fill="#63b8ff" stroke="#63b8ff" points="211.01,-36.96 219.01,-30.01 208.42,-30.46 211.01,-36.96"/>
</a>
</g>
</g>
<!-- Node3 -->
<g id="Node000003" class="node">
<title>Node3</title>
<g id="a_Node000003"><a xlink:href="classprecice_1_1xml_1_1XMLTag.html#af1e842f982d0efa6f85412a23a110529" target="_top" xlink:title="Removes the XML subtag with given name.">
<polygon fill="white" stroke="#666666" points="503,-160 384,-160 384,-130 503,-130 503,-160"/>
<text text-anchor="start" x="392" y="-148" font-family="Helvetica,sans-Serif" font-size="10.00">precice::xml::XMLTag</text>
<text text-anchor="middle" x="443.5" y="-137" font-family="Helvetica,sans-Serif" font-size="10.00">::addAttribute</text>
</a>
</g>
</g>
<!-- Node2&#45;&gt;Node3 -->
<g id="edge2_Node000002_Node000003" class="edge">
<title>Node2&#45;&gt;Node3</title>
<g id="a_edge2_Node000002_Node000003"><a xlink:title=" ">
<path fill="none" stroke="#63b8ff" d="M334,-145C347.08,-145 360.66,-145 373.6,-145"/>
<polygon fill="#63b8ff" stroke="#63b8ff" points="373.83,-148.5 383.83,-145 373.83,-141.5 373.83,-148.5"/>
</a>
</g>
</g>
<!-- Node2&#45;&gt;Node5 -->
<g id="edge4_Node000002_Node000005" class="edge">
<title>Node2&#45;&gt;Node5</title>
<g id="a_edge4_Node000002_Node000005"><a xlink:title=" ">
<path fill="none" stroke="#63b8ff" d="M287.66,-165.77C309.12,-181.44 340.3,-202.63 370,-217 373.76,-218.82 377.69,-220.55 381.7,-222.2"/>
<polygon fill="#63b8ff" stroke="#63b8ff" points="380.54,-225.5 391.13,-225.86 383.08,-218.98 380.54,-225.5"/>
</a>
</g>
</g>
<!-- Node6 -->
<g id="Node000006" class="node">
<title>Node6</title>
<g id="a_Node000006"><a xlink:href="classprecice_1_1xml_1_1XMLTag.html#a41d7876b31d73a23ed8d04b996d45279" target="_top" xlink:title="Adds a description of the purpose of this XML tag.">
<polygon fill="white" stroke="#666666" points="503,-208 384,-208 384,-178 503,-178 503,-208"/>
<text text-anchor="start" x="392" y="-196" font-family="Helvetica,sans-Serif" font-size="10.00">precice::xml::XMLTag</text>
<text text-anchor="middle" x="443.5" y="-185" font-family="Helvetica,sans-Serif" font-size="10.00">::setDocumentation</text>
</a>
</g>
</g>
<!-- Node2&#45;&gt;Node6 -->
<g id="edge5_Node000002_Node000006" class="edge">
<title>Node2&#45;&gt;Node6</title>
<g id="a_edge5_Node000002_Node000006"><a xlink:title=" ">
<path fill="none" stroke="#63b8ff" d="M334,-164.39C347.82,-168.03 362.19,-171.82 375.78,-175.4"/>
<polygon fill="#63b8ff" stroke="#63b8ff" points="374.96,-178.81 385.52,-177.97 376.74,-172.04 374.96,-178.81"/>
</a>
</g>
</g>
<!-- Node2&#45;&gt;Node7 -->
<g id="edge6_Node000002_Node000007" class="edge">
<title>Node2&#45;&gt;Node7</title>
<g id="a_edge6_Node000002_Node000007"><a xlink:title=" ">
<path fill="none" stroke="#63b8ff" d="M334,-125.61C347.82,-121.97 362.19,-118.18 375.78,-114.6"/>
<polygon fill="#63b8ff" stroke="#63b8ff" points="376.74,-117.96 385.52,-112.03 374.96,-111.19 376.74,-117.96"/>
</a>
</g>
</g>
<!-- Node2&#45;&gt;Node8 -->
<g id="edge7_Node000002_Node000008" class="edge">
<title>Node2&#45;&gt;Node8</title>
<g id="a_edge7_Node000002_Node000008"><a xlink:title=" ">
<path fill="none" stroke="#63b8ff" d="M287.66,-124.23C309.12,-108.56 340.3,-87.37 370,-73 373.76,-71.18 377.69,-69.45 381.7,-67.8"/>
<polygon fill="#63b8ff" stroke="#63b8ff" points="383.08,-71.02 391.13,-64.14 380.54,-64.5 383.08,-71.02"/>
</a>
</g>
</g>
<!-- Node4 -->
<g id="Node000004" class="node">
<title>Node4</title>
<g id="a_Node000004"><a xlink:href="classprecice_1_1xml_1_1XMLAttribute.html#aa00da780a944ba7db691f02b569b61d2" target="_top" xlink:title=" ">
<polygon fill="white" stroke="#666666" points="700,-160 553,-160 553,-130 700,-130 700,-160"/>
<text text-anchor="start" x="561" y="-148" font-family="Helvetica,sans-Serif" font-size="10.00">precice::xml::XMLAttribute</text>
<text text-anchor="middle" x="626.5" y="-137" font-family="Helvetica,sans-Serif" font-size="10.00">::getName</text>
</a>
</g>
</g>
<!-- Node3&#45;&gt;Node4 -->
<g id="edge3_Node000003_Node000004" class="edge">
<title>Node3&#45;&gt;Node4</title>
<g id="a_edge3_Node000003_Node000004"><a xlink:title=" ">
<path fill="none" stroke="#63b8ff" d="M503.27,-145C515.85,-145 529.37,-145 542.67,-145"/>
<polygon fill="#63b8ff" stroke="#63b8ff" points="542.78,-148.5 552.78,-145 542.78,-141.5 542.78,-148.5"/>
</a>
</g>
</g>
</g>
</svg>
