<?xml version="1.0" encoding="UTF-8" standalone="no"?>
<!DOCTYPE svg PUBLIC "-//W3C//DTD SVG 1.1//EN"
 "http://www.w3.org/Graphics/SVG/1.1/DTD/svg11.dtd">
<!-- Generated by graphviz version 2.43.0 (0)
 -->
<!-- Title: precice::cplscheme::BaseCouplingScheme::printBasicState Pages: 1 -->
<svg width="643pt" height="164pt"
 viewBox="0.00 0.00 643.00 164.00" xmlns="http://www.w3.org/2000/svg" xmlns:xlink="http://www.w3.org/1999/xlink">
<g id="graph0" class="graph" transform="scale(1 1) rotate(0) translate(4 160)">
<title>precice::cplscheme::BaseCouplingScheme::printBasicState</title>
<!-- Node1 -->
<g id="Node000001" class="node">
<title>Node1</title>
<g id="a_Node000001"><a xlink:title="Prints the coupling state.">
<polygon fill="#999999" stroke="#666666" points="128,-92 0,-92 0,-51 128,-51 128,-92"/>
<text text-anchor="start" x="8" y="-80" font-family="Helvetica,sans-Serif" font-size="10.00">precice::cplscheme</text>
<text text-anchor="start" x="8" y="-69" font-family="Helvetica,sans-Serif" font-size="10.00">::BaseCouplingScheme</text>
<text text-anchor="middle" x="64" y="-58" font-family="Helvetica,sans-Serif" font-size="10.00">::printBasicState</text>
</a>
</g>
</g>
<!-- Node2 -->
<g id="Node000002" class="node">
<title>Node2</title>
<g id="a_Node000002"><a xlink:href="classprecice_1_1cplscheme_1_1BaseCouplingScheme.html#a231c0f2d24c3ec3af6b81c5599908052" target="_top" xlink:title="Returns the maximal size of the next time step to be computed.">
<polygon fill="white" stroke="#666666" points="313,-117 164,-117 164,-76 313,-76 313,-117"/>
<text text-anchor="start" x="172" y="-105" font-family="Helvetica,sans-Serif" font-size="10.00">precice::cplscheme</text>
<text text-anchor="start" x="172" y="-94" font-family="Helvetica,sans-Serif" font-size="10.00">::BaseCouplingScheme</text>
<text text-anchor="middle" x="238.5" y="-83" font-family="Helvetica,sans-Serif" font-size="10.00">::getNextTimeStepMaxSize</text>
</a>
</g>
</g>
<!-- Node1&#45;&gt;Node2 -->
<g id="edge1_Node000001_Node000002" class="edge">
<title>Node1&#45;&gt;Node2</title>
<g id="a_edge1_Node000001_Node000002"><a xlink:title=" ">
<path fill="none" stroke="#63b8ff" d="M128.25,-80.67C136.55,-81.87 145.15,-83.12 153.71,-84.36"/>
<polygon fill="#63b8ff" stroke="#63b8ff" points="153.34,-87.84 163.73,-85.81 154.34,-80.91 153.34,-87.84"/>
</a>
</g>
</g>
<!-- Node3 -->
<g id="Node000003" class="node">
<title>Node3</title>
<g id="a_Node000003"><a xlink:href="classprecice_1_1cplscheme_1_1BaseCouplingScheme.html#a073567dc3535de4121def61a3dc5215c" target="_top" xlink:title="Function to check whether time window size is defined by coupling scheme.">
<polygon fill="white" stroke="#666666" points="477,-156 349,-156 349,-115 477,-115 477,-156"/>
<text text-anchor="start" x="357" y="-144" font-family="Helvetica,sans-Serif" font-size="10.00">precice::cplscheme</text>
<text text-anchor="start" x="357" y="-133" font-family="Helvetica,sans-Serif" font-size="10.00">::BaseCouplingScheme</text>
<text text-anchor="middle" x="413" y="-122" font-family="Helvetica,sans-Serif" font-size="10.00">::hasTimeWindowSize</text>
</a>
</g>
</g>
<!-- Node1&#45;&gt;Node3 -->
<g id="edge5_Node000001_Node000003" class="edge">
<title>Node1&#45;&gt;Node3</title>
<g id="a_edge5_Node000001_Node000003"><a xlink:title=" ">
<path fill="none" stroke="#63b8ff" d="M93.73,-92.25C112.68,-104.69 138.62,-119.43 164,-126.5 221.18,-142.43 288.63,-143.82 338.75,-141.71"/>
<polygon fill="#63b8ff" stroke="#63b8ff" points="339.03,-145.2 348.85,-141.22 338.69,-138.21 339.03,-145.2"/>
</a>
</g>
</g>
<!-- Node5 -->
<g id="Node000005" class="node">
<title>Node5</title>
<g id="a_Node000005"><a xlink:href="classprecice_1_1cplscheme_1_1BaseCouplingScheme.html#a0f21dae30a9253a435a98434c016d2a4" target="_top" xlink:title="Returns true, when the coupled simulation is still ongoing.">
<polygon fill="white" stroke="#666666" points="477,-87 349,-87 349,-46 477,-46 477,-87"/>
<text text-anchor="start" x="357" y="-75" font-family="Helvetica,sans-Serif" font-size="10.00">precice::cplscheme</text>
<text text-anchor="start" x="357" y="-64" font-family="Helvetica,sans-Serif" font-size="10.00">::BaseCouplingScheme</text>
<text text-anchor="middle" x="413" y="-53" font-family="Helvetica,sans-Serif" font-size="10.00">::isCouplingOngoing</text>
</a>
</g>
</g>
<!-- Node1&#45;&gt;Node5 -->
<g id="edge6_Node000001_Node000005" class="edge">
<title>Node1&#45;&gt;Node5</title>
<g id="a_edge6_Node000001_Node000005"><a xlink:title=" ">
<path fill="none" stroke="#63b8ff" d="M128.09,-67.84C140.02,-67.28 152.39,-66.79 164,-66.5 222.67,-65.02 289.17,-65.12 338.53,-65.53"/>
<polygon fill="#63b8ff" stroke="#63b8ff" points="338.76,-69.03 348.79,-65.62 338.82,-62.03 338.76,-69.03"/>
</a>
</g>
</g>
<!-- Node6 -->
<g id="Node000006" class="node">
<title>Node6</title>
<g id="a_Node000006"><a target="_parent" xlink:href="http://en.cppreference.com/w/cpp/io/basic_ostringstream/str.html#" xlink:title=" ">
<polygon fill="white" stroke="#666666" points="301,-19 176,-19 176,0 301,0 301,-19"/>
<text text-anchor="middle" x="238.5" y="-7" font-family="Helvetica,sans-Serif" font-size="10.00">std::ostringstream::str</text>
</a>
</g>
</g>
<!-- Node1&#45;&gt;Node6 -->
<g id="edge7_Node000001_Node000006" class="edge">
<title>Node1&#45;&gt;Node6</title>
<g id="a_edge7_Node000001_Node000006"><a xlink:title=" ">
<path fill="none" stroke="#63b8ff" d="M116.97,-50.98C132.08,-45.17 148.65,-38.95 164,-33.5 174.75,-29.68 186.46,-25.76 197.32,-22.21"/>
<polygon fill="#63b8ff" stroke="#63b8ff" points="198.55,-25.49 206.99,-19.08 196.39,-18.83 198.55,-25.49"/>
</a>
</g>
</g>
<!-- Node2&#45;&gt;Node3 -->
<g id="edge2_Node000002_Node000003" class="edge">
<title>Node2&#45;&gt;Node3</title>
<g id="a_edge2_Node000002_Node000003"><a xlink:title=" ">
<path fill="none" stroke="#63b8ff" d="M313.16,-113.15C321.71,-115.09 330.44,-117.06 338.99,-118.99"/>
<polygon fill="#63b8ff" stroke="#63b8ff" points="338.39,-122.45 348.92,-121.24 339.93,-115.62 338.39,-122.45"/>
</a>
</g>
</g>
<!-- Node2&#45;&gt;Node5 -->
<g id="edge4_Node000002_Node000005" class="edge">
<title>Node2&#45;&gt;Node5</title>
<g id="a_edge4_Node000002_Node000005"><a xlink:title=" ">
<path fill="none" stroke="#63b8ff" d="M313.16,-83.69C321.71,-82.2 330.44,-80.68 338.99,-79.2"/>
<polygon fill="#63b8ff" stroke="#63b8ff" points="339.66,-82.63 348.92,-77.47 338.47,-75.74 339.66,-82.63"/>
</a>
</g>
</g>
<!-- Node4 -->
<g id="Node000004" class="node">
<title>Node4</title>
<g id="a_Node000004"><a xlink:href="namespaceprecice_1_1math.html#a0e86802cfe992deba131d789d035b5b7" target="_top" xlink:title="Compares two Eigen::MatrixBase for equality up to tolerance.">
<polygon fill="white" stroke="#666666" points="635,-145 513,-145 513,-126 635,-126 635,-145"/>
<text text-anchor="middle" x="574" y="-133" font-family="Helvetica,sans-Serif" font-size="10.00">precice::math::equals</text>
</a>
</g>
</g>
<!-- Node3&#45;&gt;Node4 -->
<g id="edge3_Node000003_Node000004" class="edge">
<title>Node3&#45;&gt;Node4</title>
<g id="a_edge3_Node000003_Node000004"><a xlink:title=" ">
<path fill="none" stroke="#63b8ff" d="M477.3,-135.5C485.61,-135.5 494.17,-135.5 502.59,-135.5"/>
<polygon fill="#63b8ff" stroke="#63b8ff" points="502.77,-139 512.77,-135.5 502.77,-132 502.77,-139"/>
</a>
</g>
</g>
</g>
</svg>
