<?xml version="1.0" encoding="UTF-8" standalone="no"?>
<!DOCTYPE svg PUBLIC "-//W3C//DTD SVG 1.1//EN"
 "http://www.w3.org/Graphics/SVG/1.1/DTD/svg11.dtd">
<!-- Generated by graphviz version 2.43.0 (0)
 -->
<!-- Title: precice::cplscheme::impl::AbsoluteConvergenceMeasure::measure Pages: 1 -->
<svg width="812pt" height="66pt"
 viewBox="0.00 0.00 812.00 66.00" xmlns="http://www.w3.org/2000/svg" xmlns:xlink="http://www.w3.org/1999/xlink">
<g id="graph0" class="graph" transform="scale(1 1) rotate(0) translate(4 62)">
<title>precice::cplscheme::impl::AbsoluteConvergenceMeasure::measure</title>
<polygon fill="white" stroke="transparent" points="-4,4 -4,-62 808,-62 808,4 -4,4"/>
<!-- Node1 -->
<g id="node1" class="node">
<title>Node1</title>
<g id="a_node1"><a xlink:title="Performs convergence measurement.">
<polygon fill="#bfbfbf" stroke="black" points="0,-8.5 0,-49.5 157,-49.5 157,-8.5 0,-8.5"/>
<text text-anchor="start" x="8" y="-37.5" font-family="Helvetica,sans-Serif" font-size="10.00">precice::cplscheme</text>
<text text-anchor="start" x="8" y="-26.5" font-family="Helvetica,sans-Serif" font-size="10.00">::impl::AbsoluteConvergence</text>
<text text-anchor="middle" x="78.5" y="-15.5" font-family="Helvetica,sans-Serif" font-size="10.00">Measure::measure</text>
</a>
</g>
</g>
<!-- Node2 -->
<g id="node2" class="node">
<title>Node2</title>
<g id="a_node2"><a xlink:href="classprecice_1_1utils_1_1IntraComm.html#a2b6ac8a54b0f96edb2e3fe47d3a52d62" target="_top" xlink:title="The l2 norm of a vector is calculated on distributed data.">
<polygon fill="white" stroke="black" points="193,-14 193,-44 333,-44 333,-14 193,-14"/>
<text text-anchor="start" x="201" y="-32" font-family="Helvetica,sans-Serif" font-size="10.00">precice::utils::IntraComm</text>
<text text-anchor="middle" x="263" y="-21" font-family="Helvetica,sans-Serif" font-size="10.00">::l2norm</text>
</a>
</g>
</g>
<!-- Node1&#45;&gt;Node2 -->
<g id="edge1" class="edge">
<title>Node1&#45;&gt;Node2</title>
<path fill="none" stroke="midnightblue" d="M157.16,-29C165.58,-29 174.15,-29 182.58,-29"/>
<polygon fill="midnightblue" stroke="midnightblue" points="182.78,-32.5 192.78,-29 182.78,-25.5 182.78,-32.5"/>
</g>
<!-- Node3 -->
<g id="node3" class="node">
<title>Node3</title>
<g id="a_node3"><a xlink:href="classprecice_1_1utils_1_1IntraComm.html#a1181baf395fd7e41bb0f922e3c3334cf" target="_top" xlink:title=" ">
<polygon fill="white" stroke="black" points="369,-14 369,-44 509,-44 509,-14 369,-14"/>
<text text-anchor="start" x="377" y="-32" font-family="Helvetica,sans-Serif" font-size="10.00">precice::utils::IntraComm</text>
<text text-anchor="middle" x="439" y="-21" font-family="Helvetica,sans-Serif" font-size="10.00">::allreduceSum</text>
</a>
</g>
</g>
<!-- Node2&#45;&gt;Node3 -->
<g id="edge2" class="edge">
<title>Node2&#45;&gt;Node3</title>
<path fill="none" stroke="midnightblue" d="M333.02,-29C341.48,-29 350.17,-29 358.76,-29"/>
<polygon fill="midnightblue" stroke="midnightblue" points="358.78,-32.5 368.78,-29 358.78,-25.5 358.78,-32.5"/>
</g>
<!-- Node4 -->
<g id="node4" class="node">
<title>Node4</title>
<g id="a_node4"><a xlink:href="classprecice_1_1span.html#af931d3b40d7ea2cf93ca672c20637c98" target="_top" xlink:title=" ">
<polygon fill="white" stroke="black" points="545,-38.5 545,-57.5 659,-57.5 659,-38.5 545,-38.5"/>
<text text-anchor="middle" x="602" y="-45.5" font-family="Helvetica,sans-Serif" font-size="10.00">precice::span::begin</text>
</a>
</g>
</g>
<!-- Node3&#45;&gt;Node4 -->
<g id="edge3" class="edge">
<title>Node3&#45;&gt;Node4</title>
<path fill="none" stroke="midnightblue" d="M509.21,-37.17C517.7,-38.17 526.35,-39.19 534.79,-40.19"/>
<polygon fill="midnightblue" stroke="midnightblue" points="534.6,-43.69 544.94,-41.38 535.42,-36.74 534.6,-43.69"/>
</g>
<!-- Node6 -->
<g id="node6" class="node">
<title>Node6</title>
<g id="a_node6"><a xlink:href="classprecice_1_1span.html#a4053b668c9fea03f015cc68d3e014105" target="_top" xlink:title=" ">
<polygon fill="white" stroke="black" points="549.5,-0.5 549.5,-19.5 654.5,-19.5 654.5,-0.5 549.5,-0.5"/>
<text text-anchor="middle" x="602" y="-7.5" font-family="Helvetica,sans-Serif" font-size="10.00">precice::span::end</text>
</a>
</g>
</g>
<!-- Node3&#45;&gt;Node6 -->
<g id="edge5" class="edge">
<title>Node3&#45;&gt;Node6</title>
<path fill="none" stroke="midnightblue" d="M509.21,-20.83C519.21,-19.65 529.44,-18.45 539.27,-17.28"/>
<polygon fill="midnightblue" stroke="midnightblue" points="539.83,-20.74 549.35,-16.1 539.01,-13.79 539.83,-20.74"/>
</g>
<!-- Node5 -->
<g id="node5" class="node">
<title>Node5</title>
<g id="a_node5"><a xlink:href="classprecice_1_1span.html#a628d875cdc1751afca0bfa66213db007" target="_top" xlink:title=" ">
<polygon fill="white" stroke="black" points="695,-38.5 695,-57.5 804,-57.5 804,-38.5 695,-38.5"/>
<text text-anchor="middle" x="749.5" y="-45.5" font-family="Helvetica,sans-Serif" font-size="10.00">precice::span::data</text>
</a>
</g>
</g>
<!-- Node4&#45;&gt;Node5 -->
<g id="edge4" class="edge">
<title>Node4&#45;&gt;Node5</title>
<path fill="none" stroke="midnightblue" d="M659.25,-48C667.55,-48 676.16,-48 684.6,-48"/>
<polygon fill="midnightblue" stroke="midnightblue" points="684.78,-51.5 694.78,-48 684.78,-44.5 684.78,-51.5"/>
</g>
<!-- Node6&#45;&gt;Node5 -->
<g id="edge6" class="edge">
<title>Node6&#45;&gt;Node5</title>
<path fill="none" stroke="midnightblue" d="M639.72,-19.59C658.66,-24.54 681.96,-30.62 702.13,-35.89"/>
<polygon fill="midnightblue" stroke="midnightblue" points="701.49,-39.34 712.05,-38.48 703.26,-32.57 701.49,-39.34"/>
</g>
<!-- Node7 -->
<g id="node7" class="node">
<title>Node7</title>
<g id="a_node7"><a xlink:href="classprecice_1_1span.html#a47dd9f5471352ea4105ab001836273ee" target="_top" xlink:title=" ">
<polygon fill="white" stroke="black" points="696,-0.5 696,-19.5 803,-19.5 803,-0.5 696,-0.5"/>
<text text-anchor="middle" x="749.5" y="-7.5" font-family="Helvetica,sans-Serif" font-size="10.00">precice::span::size</text>
</a>
</g>
</g>
<!-- Node6&#45;&gt;Node7 -->
<g id="edge7" class="edge">
<title>Node6&#45;&gt;Node7</title>
<path fill="none" stroke="midnightblue" d="M654.71,-10C664.75,-10 675.39,-10 685.74,-10"/>
<polygon fill="midnightblue" stroke="midnightblue" points="685.98,-13.5 695.98,-10 685.98,-6.5 685.98,-13.5"/>
</g>
</g>
</svg>
