<?xml version="1.0" encoding="UTF-8" standalone="no"?>
<!DOCTYPE svg PUBLIC "-//W3C//DTD SVG 1.1//EN"
 "http://www.w3.org/Graphics/SVG/1.1/DTD/svg11.dtd">
<!-- Generated by graphviz version 2.43.0 (0)
 -->
<!-- Title: precice::mapping::PetRadialBasisFctMapping::loadInitialGuessForDim Pages: 1 -->
<!--zoomable 246 -->
<svg id="main" version="1.1" xmlns="http://www.w3.org/2000/svg" xmlns:xlink="http://www.w3.org/1999/xlink" xml:space="preserve" onload="init(evt)">
<style type="text/css"><![CDATA[
.edge:hover path { stroke: red; }
.edge:hover polygon { stroke: red; fill: red; }
]]></style>
<script type="text/javascript"><![CDATA[
var edges = document.getElementsByTagName('g');
if (edges && edges.length) {
  for (var i=0;i<edges.length;i++) {
    if (edges[i].id.substr(0,4)=='edge') {
      edges[i].setAttribute('class','edge');
    }
  }
}
]]></script>
        <defs>
                <circle id="rim" cx="0" cy="0" r="7"/>
                <circle id="rim2" cx="0" cy="0" r="3.5"/>
                <g id="zoomPlus">
                        <use xlink:href="#rim" fill="#404040">
                                <set attributeName="fill" to="#808080" begin="zoomplus.mouseover" end="zoomplus.mouseout"/>
                        </use>
                        <path d="M-4,0h8M0,-4v8" fill="none" stroke="white" stroke-width="1.5" pointer-events="none"/>
                </g>
                <g id="zoomMin">
                        <use xlink:href="#rim" fill="#404040">
                                <set attributeName="fill" to="#808080" begin="zoomminus.mouseover" end="zoomminus.mouseout"/>
                        </use>
                        <path d="M-4,0h8" fill="none" stroke="white" stroke-width="1.5" pointer-events="none"/>
                </g>
                <g id="dirArrow">
                        <path fill="none" stroke="white" stroke-width="1.5" d="M0,-3.0v7 M-2.5,-0.5L0,-3.0L2.5,-0.5"/>
                </g>
               <g id="resetDef">
                       <use xlink:href="#rim2" fill="#404040">
                               <set attributeName="fill" to="#808080" begin="reset.mouseover" end="reset.mouseout"/>
                       </use>
               </g>
        </defs>

<script type="text/javascript">
var viewWidth = 644;
var viewHeight = 246;
var sectionId = 'dynsection-8';
</script>
<script xlink:href="svgpan.js"/>
<svg id="graph" class="graph">
<g id="viewport">
<title>precice::mapping::PetRadialBasisFctMapping::loadInitialGuessForDim</title>
<polygon fill="white" stroke="transparent" points="-4,4 -4,-242 640,-242 640,4 -4,4"/>
<!-- Node1 -->
<g id="node1" class="node">
<title>Node1</title>
<g id="a_node1"><a xlink:title=" ">
<polygon fill="#bfbfbf" stroke="black" points="0,-71.5 0,-112.5 185,-112.5 185,-71.5 0,-71.5"/>
<text text-anchor="start" x="8" y="-100.5" font-family="Helvetica,sans-Serif" font-size="10.00">precice::mapping::PetRadial</text>
<text text-anchor="start" x="8" y="-89.5" font-family="Helvetica,sans-Serif" font-size="10.00">BasisFctMapping::loadInitialGuess</text>
<text text-anchor="middle" x="92.5" y="-78.5" font-family="Helvetica,sans-Serif" font-size="10.00">ForDim</text>
</a>
</g>
</g>
<!-- Node2 -->
<g id="node2" class="node">
<title>Node2</title>
<g id="a_node2"><a xlink:href="classprecice_1_1utils_1_1petsc_1_1Vector.html#a6d80b2921a108061db3f28d5e7a18502" target="_top" xlink:title=" ">
<polygon fill="white" stroke="black" points="221,-99 221,-129 332,-129 332,-99 221,-99"/>
<text text-anchor="start" x="229" y="-117" font-family="Helvetica,sans-Serif" font-size="10.00">precice::utils::petsc</text>
<text text-anchor="middle" x="276.5" y="-106" font-family="Helvetica,sans-Serif" font-size="10.00">::Vector::copyFrom</text>
</a>
</g>
</g>
<!-- Node1&#45;&gt;Node2 -->
<g id="edge1" class="edge">
<title>Node1&#45;&gt;Node2</title>
<path fill="none" stroke="midnightblue" d="M185.03,-103.06C193.72,-104.11 202.4,-105.16 210.75,-106.17"/>
<polygon fill="midnightblue" stroke="midnightblue" points="210.41,-109.66 220.76,-107.38 211.25,-102.71 210.41,-109.66"/>
</g>
<!-- Node5 -->
<g id="node5" class="node">
<title>Node5</title>
<g id="a_node5"><a xlink:href="namespaceprecice_1_1detail.html#adede399b4b92eea01face616a0cc7051" target="_top" xlink:title=" ">
<polygon fill="white" stroke="black" points="372,-218.5 372,-237.5 485,-237.5 485,-218.5 372,-218.5"/>
<text text-anchor="middle" x="428.5" y="-225.5" font-family="Helvetica,sans-Serif" font-size="10.00">precice::detail::data</text>
</a>
</g>
</g>
<!-- Node1&#45;&gt;Node5 -->
<g id="edge13" class="edge">
<title>Node1&#45;&gt;Node5</title>
<path fill="none" stroke="midnightblue" d="M138.15,-112.56C192.04,-137.03 285.7,-178.4 368,-209 373.87,-211.18 380.12,-213.35 386.28,-215.39"/>
<polygon fill="midnightblue" stroke="midnightblue" points="385.22,-218.73 395.81,-218.49 387.38,-212.07 385.22,-218.73"/>
</g>
<!-- Node9 -->
<g id="node9" class="node">
<title>Node9</title>
<g id="a_node9"><a xlink:href="classprecice_1_1utils_1_1petsc_1_1Vector.html#a3e619152f474f89899e0fa58ea3bfb9b" target="_top" xlink:title=" ">
<polygon fill="white" stroke="black" points="368,-17 368,-47 489,-47 489,-17 368,-17"/>
<text text-anchor="start" x="376" y="-35" font-family="Helvetica,sans-Serif" font-size="10.00">precice::utils::petsc</text>
<text text-anchor="middle" x="428.5" y="-24" font-family="Helvetica,sans-Serif" font-size="10.00">::Vector::getLocalSize</text>
</a>
</g>
</g>
<!-- Node1&#45;&gt;Node9 -->
<g id="edge14" class="edge">
<title>Node1&#45;&gt;Node9</title>
<path fill="none" stroke="midnightblue" d="M185.21,-75.53C239.68,-65.74 307.67,-53.53 357.75,-44.53"/>
<polygon fill="midnightblue" stroke="midnightblue" points="358.61,-47.93 367.84,-42.72 357.38,-41.04 358.61,-47.93"/>
</g>
<!-- Node10 -->
<g id="node10" class="node">
<title>Node10</title>
<g id="a_node10"><a xlink:href="namespaceprecice_1_1detail.html#a99f20f73c4a3c34d08429ac0fea564ef" target="_top" xlink:title=" ">
<polygon fill="white" stroke="black" points="525,-0.5 525,-19.5 636,-19.5 636,-0.5 525,-0.5"/>
<text text-anchor="middle" x="580.5" y="-7.5" font-family="Helvetica,sans-Serif" font-size="10.00">precice::detail::size</text>
</a>
</g>
</g>
<!-- Node1&#45;&gt;Node10 -->
<g id="edge15" class="edge">
<title>Node1&#45;&gt;Node10</title>
<path fill="none" stroke="midnightblue" d="M145.49,-71.41C168.44,-62.69 195.87,-52.77 221,-45 285.36,-25.1 301.14,-16.29 368,-8 421.37,-1.39 435.23,-7.41 489,-8 497.36,-8.09 506.15,-8.23 514.83,-8.4"/>
<polygon fill="midnightblue" stroke="midnightblue" points="514.88,-11.9 524.95,-8.6 515.02,-4.9 514.88,-11.9"/>
</g>
<!-- Node3 -->
<g id="node3" class="node">
<title>Node3</title>
<g id="a_node3"><a xlink:href="classprecice_1_1span.html#af931d3b40d7ea2cf93ca672c20637c98" target="_top" xlink:title=" ">
<polygon fill="white" stroke="black" points="371.5,-180.5 371.5,-199.5 485.5,-199.5 485.5,-180.5 371.5,-180.5"/>
<text text-anchor="middle" x="428.5" y="-187.5" font-family="Helvetica,sans-Serif" font-size="10.00">precice::span::begin</text>
</a>
</g>
</g>
<!-- Node2&#45;&gt;Node3 -->
<g id="edge2" class="edge">
<title>Node2&#45;&gt;Node3</title>
<path fill="none" stroke="midnightblue" d="M298.21,-129.18C316.02,-141.7 342.75,-159.25 368,-171 372.73,-173.2 377.79,-175.25 382.88,-177.12"/>
<polygon fill="midnightblue" stroke="midnightblue" points="382.05,-180.53 392.64,-180.5 384.33,-173.92 382.05,-180.53"/>
</g>
<!-- Node2&#45;&gt;Node5 -->
<g id="edge4" class="edge">
<title>Node2&#45;&gt;Node5</title>
<path fill="none" stroke="midnightblue" d="M290.4,-129.29C310.83,-153.19 350.14,-197.82 368,-209 371.32,-211.08 374.88,-212.95 378.56,-214.62"/>
<polygon fill="midnightblue" stroke="midnightblue" points="377.27,-217.88 387.85,-218.41 379.91,-211.4 377.27,-217.88"/>
</g>
<!-- Node6 -->
<g id="node6" class="node">
<title>Node6</title>
<g id="a_node6"><a xlink:href="classprecice_1_1span.html#a04b2be7a6e2bbfb8f3a3e8a424f1a43d" target="_top" xlink:title=" ">
<polygon fill="white" stroke="black" points="369,-104.5 369,-123.5 488,-123.5 488,-104.5 369,-104.5"/>
<text text-anchor="middle" x="428.5" y="-111.5" font-family="Helvetica,sans-Serif" font-size="10.00">precice::span::empty</text>
</a>
</g>
</g>
<!-- Node2&#45;&gt;Node6 -->
<g id="edge5" class="edge">
<title>Node2&#45;&gt;Node6</title>
<path fill="none" stroke="midnightblue" d="M332.08,-114C340.78,-114 349.88,-114 358.86,-114"/>
<polygon fill="midnightblue" stroke="midnightblue" points="358.92,-117.5 368.92,-114 358.92,-110.5 358.92,-117.5"/>
</g>
<!-- Node7 -->
<g id="node7" class="node">
<title>Node7</title>
<g id="a_node7"><a xlink:href="classprecice_1_1span.html#a47dd9f5471352ea4105ab001836273ee" target="_top" xlink:title=" ">
<polygon fill="white" stroke="black" points="527,-104.5 527,-123.5 634,-123.5 634,-104.5 527,-104.5"/>
<text text-anchor="middle" x="580.5" y="-111.5" font-family="Helvetica,sans-Serif" font-size="10.00">precice::span::size</text>
</a>
</g>
</g>
<!-- Node2&#45;&gt;Node7 -->
<g id="edge12" class="edge">
<title>Node2&#45;&gt;Node7</title>
<path fill="none" stroke="midnightblue" d="M332.25,-100.61C343.98,-98.28 356.34,-96.21 368,-95 421.49,-89.45 435.51,-89.45 489,-95 503.39,-96.49 518.87,-99.29 532.88,-102.29"/>
<polygon fill="midnightblue" stroke="midnightblue" points="532.27,-105.74 542.79,-104.49 533.78,-98.9 532.27,-105.74"/>
</g>
<!-- Node8 -->
<g id="node8" class="node">
<title>Node8</title>
<g id="a_node8"><a xlink:href="classprecice_1_1span.html#a4053b668c9fea03f015cc68d3e014105" target="_top" xlink:title=" ">
<polygon fill="white" stroke="black" points="376,-142.5 376,-161.5 481,-161.5 481,-142.5 376,-142.5"/>
<text text-anchor="middle" x="428.5" y="-149.5" font-family="Helvetica,sans-Serif" font-size="10.00">precice::span::end</text>
</a>
</g>
</g>
<!-- Node2&#45;&gt;Node8 -->
<g id="edge7" class="edge">
<title>Node2&#45;&gt;Node8</title>
<path fill="none" stroke="midnightblue" d="M332.08,-127.83C347.74,-131.8 364.7,-136.09 379.91,-139.94"/>
<polygon fill="midnightblue" stroke="midnightblue" points="379.07,-143.34 389.62,-142.4 380.79,-136.56 379.07,-143.34"/>
</g>
<!-- Node2&#45;&gt;Node9 -->
<g id="edge10" class="edge">
<title>Node2&#45;&gt;Node9</title>
<path fill="none" stroke="midnightblue" d="M303.04,-98.83C321.05,-88.25 345.83,-73.95 368,-62 374.37,-58.57 381.18,-55.02 387.84,-51.62"/>
<polygon fill="midnightblue" stroke="midnightblue" points="389.42,-54.74 396.76,-47.1 386.26,-48.5 389.42,-54.74"/>
</g>
<!-- Node4 -->
<g id="node4" class="node">
<title>Node4</title>
<g id="a_node4"><a xlink:href="classprecice_1_1span.html#a628d875cdc1751afca0bfa66213db007" target="_top" xlink:title=" ">
<polygon fill="white" stroke="black" points="526,-161.5 526,-180.5 635,-180.5 635,-161.5 526,-161.5"/>
<text text-anchor="middle" x="580.5" y="-168.5" font-family="Helvetica,sans-Serif" font-size="10.00">precice::span::data</text>
</a>
</g>
</g>
<!-- Node3&#45;&gt;Node4 -->
<g id="edge3" class="edge">
<title>Node3&#45;&gt;Node4</title>
<path fill="none" stroke="midnightblue" d="M485.78,-182.87C495.53,-181.64 505.73,-180.34 515.66,-179.09"/>
<polygon fill="midnightblue" stroke="midnightblue" points="516.4,-182.52 525.88,-177.79 515.52,-175.58 516.4,-182.52"/>
</g>
<!-- Node6&#45;&gt;Node7 -->
<g id="edge6" class="edge">
<title>Node6&#45;&gt;Node7</title>
<path fill="none" stroke="midnightblue" d="M488.35,-114C497.64,-114 507.26,-114 516.63,-114"/>
<polygon fill="midnightblue" stroke="midnightblue" points="516.67,-117.5 526.67,-114 516.67,-110.5 516.67,-117.5"/>
</g>
<!-- Node8&#45;&gt;Node4 -->
<g id="edge8" class="edge">
<title>Node8&#45;&gt;Node4</title>
<path fill="none" stroke="midnightblue" d="M481.12,-158.54C492.33,-159.96 504.31,-161.48 515.92,-162.95"/>
<polygon fill="midnightblue" stroke="midnightblue" points="515.64,-166.44 526,-164.22 516.52,-159.49 515.64,-166.44"/>
</g>
<!-- Node8&#45;&gt;Node7 -->
<g id="edge9" class="edge">
<title>Node8&#45;&gt;Node7</title>
<path fill="none" stroke="midnightblue" d="M467.35,-142.41C486.97,-137.44 511.12,-131.32 531.98,-126.04"/>
<polygon fill="midnightblue" stroke="midnightblue" points="533.09,-129.37 541.92,-123.52 531.37,-122.58 533.09,-129.37"/>
</g>
<!-- Node9&#45;&gt;Node10 -->
<g id="edge11" class="edge">
<title>Node9&#45;&gt;Node10</title>
<path fill="none" stroke="midnightblue" d="M489.21,-23.24C497.67,-22 506.4,-20.72 514.94,-19.47"/>
<polygon fill="midnightblue" stroke="midnightblue" points="515.47,-22.93 524.86,-18.01 514.45,-16 515.47,-22.93"/>
</g>
</g>
</svg>
        <g id="navigator" transform="translate(0 0)" fill="#404254">
                <rect fill="#f2f5e9" fill-opacity="0.5" stroke="#606060" stroke-width=".5" x="0" y="0" width="60" height="60"/>
                <use id="zoomplus" xlink:href="#zoomPlus" x="17" y="9" onmousedown="handleZoom(evt,'in')"/>
                <use id="zoomminus" xlink:href="#zoomMin" x="42" y="9" onmousedown="handleZoom(evt,'out')"/>
                <use id="reset" xlink:href="#resetDef" x="30" y="36" onmousedown="handleReset()"/>
                <g id="arrowUp" xlink:href="#dirArrow" transform="translate(30 24)" onmousedown="handlePan(0,-1)">
                  <use xlink:href="#rim" fill="#404040">
                        <set attributeName="fill" to="#808080" begin="arrowUp.mouseover" end="arrowUp.mouseout"/>
                  </use>
                  <path fill="none" stroke="white" stroke-width="1.5" d="M0,-3.0v7 M-2.5,-0.5L0,-3.0L2.5,-0.5"/>
                </g>
                <g id="arrowRight" xlink:href="#dirArrow" transform="rotate(90) translate(36 -43)" onmousedown="handlePan(1,0)">
                  <use xlink:href="#rim" fill="#404040">
                        <set attributeName="fill" to="#808080" begin="arrowRight.mouseover" end="arrowRight.mouseout"/>
                  </use>
                  <path fill="none" stroke="white" stroke-width="1.5" d="M0,-3.0v7 M-2.5,-0.5L0,-3.0L2.5,-0.5"/>
                </g>
                <g id="arrowDown" xlink:href="#dirArrow" transform="rotate(180) translate(-30 -48)" onmousedown="handlePan(0,1)">
                  <use xlink:href="#rim" fill="#404040">
                        <set attributeName="fill" to="#808080" begin="arrowDown.mouseover" end="arrowDown.mouseout"/>
                  </use>
                  <path fill="none" stroke="white" stroke-width="1.5" d="M0,-3.0v7 M-2.5,-0.5L0,-3.0L2.5,-0.5"/>
                </g>
                <g id="arrowLeft" xlink:href="#dirArrow" transform="rotate(270) translate(-36 17)" onmousedown="handlePan(-1,0)">
                  <use xlink:href="#rim" fill="#404040">
                        <set attributeName="fill" to="#808080" begin="arrowLeft.mouseover" end="arrowLeft.mouseout"/>
                  </use>
                  <path fill="none" stroke="white" stroke-width="1.5" d="M0,-3.0v7 M-2.5,-0.5L0,-3.0L2.5,-0.5"/>
                </g>
        </g>
        <svg viewBox="0 0 15 15" width="100%" height="30px" preserveAspectRatio="xMaxYMin meet">
         <g id="arrow_out" transform="scale(0.3 0.3)">
          <a xlink:href="classprecice_1_1mapping_1_1PetRadialBasisFctMapping_a8fa3dcbff27705a4d99b49a80179e9a2_cgraph_org.svg" target="_base">
           <rect id="button" ry="5" rx="5" y="6" x="6" height="38" width="38"
                fill="#f2f5e9" fill-opacity="0.5" stroke="#606060" stroke-width="1.0"/>
           <path id="arrow"
             d="M 11.500037,31.436501 C 11.940474,20.09759 22.043105,11.32322 32.158766,21.979434 L 37.068811,17.246167 C 37.068811,17.246167 37.088388,32 37.088388,32 L 22.160133,31.978069 C 22.160133,31.978069 26.997745,27.140456 26.997745,27.140456 C 18.528582,18.264221 13.291696,25.230495 11.500037,31.436501 z"
             style="fill:#404040;"/>
          </a>
         </g>
        </svg>
</svg>
