<?xml version="1.0" encoding="UTF-8" standalone="no"?>
<!DOCTYPE svg PUBLIC "-//W3C//DTD SVG 1.1//EN"
 "http://www.w3.org/Graphics/SVG/1.1/DTD/svg11.dtd">
<!-- Generated by graphviz version 2.43.0 (0)
 -->
<!-- Title: precice::com::MPISinglePortsCommunication::acceptConnectionAsServer Pages: 1 -->
<svg width="1143pt" height="581pt"
 viewBox="0.00 0.00 1143.00 580.50" xmlns="http://www.w3.org/2000/svg" xmlns:xlink="http://www.w3.org/1999/xlink">
<g id="graph0" class="graph" transform="scale(1 1) rotate(0) translate(4 576.5)">
<title>precice::com::MPISinglePortsCommunication::acceptConnectionAsServer</title>
<!-- Node1 -->
<g id="Node000001" class="node">
<title>Node1</title>
<g id="a_Node000001"><a xlink:title="requesterCommunicatorSize is not used, since connection is always made on the entire communicator">
<polygon fill="#999999" stroke="#666666" points="187,-444 0,-444 0,-403 187,-403 187,-444"/>
<text text-anchor="start" x="8" y="-432" font-family="Helvetica,sans-Serif" font-size="10.00">precice::com::MPISinglePorts</text>
<text text-anchor="start" x="8" y="-421" font-family="Helvetica,sans-Serif" font-size="10.00">Communication::acceptConnection</text>
<text text-anchor="middle" x="93.5" y="-410" font-family="Helvetica,sans-Serif" font-size="10.00">AsServer</text>
</a>
</g>
</g>
<!-- Node2 -->
<g id="Node000002" class="node">
<title>Node2</title>
<g id="a_Node000002"><a xlink:href="classprecice_1_1utils_1_1Parallel.html#a2aeadec30c9e48918e014608ede4d51d" target="_top" xlink:title="Returns an owning pointer to the current CommState.">
<polygon fill="white" stroke="#666666" points="364.5,-572.5 243.5,-572.5 243.5,-542.5 364.5,-542.5 364.5,-572.5"/>
<text text-anchor="start" x="251.5" y="-560.5" font-family="Helvetica,sans-Serif" font-size="10.00">precice::utils::Parallel</text>
<text text-anchor="middle" x="304" y="-549.5" font-family="Helvetica,sans-Serif" font-size="10.00">::current</text>
</a>
</g>
</g>
<!-- Node1&#45;&gt;Node2 -->
<g id="edge1_Node000001_Node000002" class="edge">
<title>Node1&#45;&gt;Node2</title>
<g id="a_edge1_Node000001_Node000002"><a xlink:title=" ">
<path fill="none" stroke="#63b8ff" d="M115.12,-444.13C139.23,-467.3 181.16,-504.74 223,-528.5 229.45,-532.16 236.44,-535.5 243.52,-538.51"/>
<polygon fill="#63b8ff" stroke="#63b8ff" points="242.6,-541.91 253.18,-542.39 245.21,-535.41 242.6,-541.91"/>
</a>
</g>
</g>
<!-- Node7 -->
<g id="Node000007" class="node">
<title>Node7</title>
<g id="a_Node000007"><a xlink:href="classprecice_1_1utils_1_1StringMaker.html#a37e4a01acab39ccf701a34330938971f" target="_top" xlink:title=" ">
<polygon fill="white" stroke="#666666" points="573.5,-503.5 430.5,-503.5 430.5,-473.5 573.5,-473.5 573.5,-503.5"/>
<text text-anchor="start" x="438.5" y="-491.5" font-family="Helvetica,sans-Serif" font-size="10.00">precice::utils::StringMaker</text>
<text text-anchor="middle" x="502" y="-480.5" font-family="Helvetica,sans-Serif" font-size="10.00">::data</text>
</a>
</g>
</g>
<!-- Node1&#45;&gt;Node7 -->
<g id="edge7_Node000001_Node000007" class="edge">
<title>Node1&#45;&gt;Node7</title>
<g id="a_edge7_Node000001_Node000007"><a xlink:title=" ">
<path fill="none" stroke="#63b8ff" d="M121.78,-444.29C146.64,-461.83 185.14,-485.62 223,-495.5 287.76,-512.41 363.9,-508.95 420.1,-502.23"/>
<polygon fill="#63b8ff" stroke="#63b8ff" points="420.87,-505.66 430.36,-500.94 420,-498.71 420.87,-505.66"/>
</a>
</g>
</g>
<!-- Node8 -->
<g id="Node000008" class="node">
<title>Node8</title>
<g id="a_Node000008"><a xlink:href="classprecice_1_1com_1_1Communication.html#a444946d1a6c67c352fe96b56cdbf1fd2" target="_top" xlink:title="Returns true, if a connection to a remote participant has been setup.">
<polygon fill="white" stroke="#666666" points="385,-486.5 223,-486.5 223,-456.5 385,-456.5 385,-486.5"/>
<text text-anchor="start" x="231" y="-474.5" font-family="Helvetica,sans-Serif" font-size="10.00">precice::com::Communication</text>
<text text-anchor="middle" x="304" y="-463.5" font-family="Helvetica,sans-Serif" font-size="10.00">::isConnected</text>
</a>
</g>
</g>
<!-- Node1&#45;&gt;Node8 -->
<g id="edge8_Node000001_Node000008" class="edge">
<title>Node1&#45;&gt;Node8</title>
<g id="a_edge8_Node000001_Node000008"><a xlink:title=" ">
<path fill="none" stroke="#63b8ff" d="M183.83,-444.07C198.56,-447.46 213.69,-450.94 228.02,-454.24"/>
<polygon fill="#63b8ff" stroke="#63b8ff" points="227.27,-457.66 237.8,-456.49 228.84,-450.84 227.27,-457.66"/>
</a>
</g>
</g>
<!-- Node9 -->
<g id="Node000009" class="node">
<title>Node9</title>
<g id="a_Node000009"><a xlink:href="structprecice_1_1utils_1_1MPIResult.html#a4f84044cc1f4352c3cc76a50c697273f" target="_top" xlink:title=" ">
<polygon fill="white" stroke="#666666" points="371,-438.5 237,-438.5 237,-408.5 371,-408.5 371,-438.5"/>
<text text-anchor="start" x="245" y="-426.5" font-family="Helvetica,sans-Serif" font-size="10.00">precice::utils::MPIResult</text>
<text text-anchor="middle" x="304" y="-415.5" font-family="Helvetica,sans-Serif" font-size="10.00">::message</text>
</a>
</g>
</g>
<!-- Node1&#45;&gt;Node9 -->
<g id="edge9_Node000001_Node000009" class="edge">
<title>Node1&#45;&gt;Node9</title>
<g id="a_edge9_Node000001_Node000009"><a xlink:title=" ">
<path fill="none" stroke="#63b8ff" d="M187.17,-423.5C200.38,-423.5 213.85,-423.5 226.7,-423.5"/>
<polygon fill="#63b8ff" stroke="#63b8ff" points="226.87,-427 236.87,-423.5 226.87,-420 226.87,-427"/>
</a>
</g>
</g>
<!-- Node10 -->
<g id="Node000010" class="node">
<title>Node10</title>
<g id="a_Node000010"><a xlink:href="classprecice_1_1utils_1_1StringMaker.html#ab2f01261fd2673631184d3700fe4a6a2" target="_top" xlink:title=" ">
<polygon fill="white" stroke="#666666" points="583,-431 421,-431 421,-412 583,-412 583,-431"/>
<text text-anchor="middle" x="502" y="-419" font-family="Helvetica,sans-Serif" font-size="10.00">precice::utils::StringMaker::str</text>
</a>
</g>
</g>
<!-- Node1&#45;&gt;Node10 -->
<g id="edge14_Node000001_Node000010" class="edge">
<title>Node1&#45;&gt;Node10</title>
<g id="a_edge14_Node000001_Node000010"><a xlink:title=" ">
<path fill="none" stroke="#63b8ff" d="M187.21,-404.09C199.21,-402.19 211.36,-400.58 223,-399.5 294.69,-392.86 313.32,-392.76 385,-399.5 406.82,-401.55 430.65,-405.73 451.01,-409.9"/>
<polygon fill="#63b8ff" stroke="#63b8ff" points="450.49,-413.36 461,-412 451.94,-406.51 450.49,-413.36"/>
</a>
</g>
</g>
<!-- Node11 -->
<g id="Node000011" class="node">
<title>Node11</title>
<g id="a_Node000011"><a xlink:href="classprecice_1_1com_1_1MPISinglePortsCommunication.html#a437bf64e9c547e43c1139e789043082c" target="_top" xlink:title=" ">
<polygon fill="white" stroke="#666666" points="383,-334.5 225,-334.5 225,-304.5 383,-304.5 383,-334.5"/>
<text text-anchor="start" x="233" y="-322.5" font-family="Helvetica,sans-Serif" font-size="10.00">precice::com::MPISinglePorts</text>
<text text-anchor="middle" x="304" y="-311.5" font-family="Helvetica,sans-Serif" font-size="10.00">Communication::rank</text>
</a>
</g>
</g>
<!-- Node1&#45;&gt;Node11 -->
<g id="edge12_Node000001_Node000011" class="edge">
<title>Node1&#45;&gt;Node11</title>
<g id="a_edge12_Node000001_Node000011"><a xlink:title=" ">
<path fill="none" stroke="#63b8ff" d="M135.69,-402.95C172.73,-384.48 226.79,-357.52 263.35,-339.28"/>
<polygon fill="#63b8ff" stroke="#63b8ff" points="265.32,-342.21 272.7,-334.61 262.19,-335.94 265.32,-342.21"/>
</a>
</g>
</g>
<!-- Node12 -->
<g id="Node000012" class="node">
<title>Node12</title>
<g id="a_Node000012"><a xlink:href="classprecice_1_1com_1_1ConnectionInfoWriter.html#a1a21b9b9acd72a731f71d8f6af39513b" target="_top" xlink:title="Write the string info, e.g. IP:port to the connection info file.">
<polygon fill="white" stroke="#666666" points="374,-286.5 234,-286.5 234,-256.5 374,-256.5 374,-286.5"/>
<text text-anchor="start" x="242" y="-274.5" font-family="Helvetica,sans-Serif" font-size="10.00">precice::com::Connection</text>
<text text-anchor="middle" x="304" y="-263.5" font-family="Helvetica,sans-Serif" font-size="10.00">InfoWriter::write</text>
</a>
</g>
</g>
<!-- Node1&#45;&gt;Node12 -->
<g id="edge15_Node000001_Node000012" class="edge">
<title>Node1&#45;&gt;Node12</title>
<g id="a_edge15_Node000001_Node000012"><a xlink:title=" ">
<path fill="none" stroke="#63b8ff" d="M109.98,-402.61C132.02,-374.3 175.12,-324.03 223,-295.5 225.86,-293.79 228.86,-292.2 231.94,-290.71"/>
<polygon fill="#63b8ff" stroke="#63b8ff" points="233.64,-293.79 241.39,-286.56 230.82,-287.38 233.64,-293.79"/>
</a>
</g>
</g>
<!-- Node3 -->
<g id="Node000003" class="node">
<title>Node3</title>
<g id="a_Node000003"><a xlink:href="structprecice_1_1utils_1_1Parallel_1_1CommState.html#a11c87f5cfaad1fb984d9dcd80e6f2c55" target="_top" xlink:title="returns a commstate containing MPI_COMM_WORLD">
<polygon fill="white" stroke="#666666" points="562.5,-572.5 441.5,-572.5 441.5,-542.5 562.5,-542.5 562.5,-572.5"/>
<text text-anchor="start" x="449.5" y="-560.5" font-family="Helvetica,sans-Serif" font-size="10.00">precice::utils::Parallel</text>
<text text-anchor="middle" x="502" y="-549.5" font-family="Helvetica,sans-Serif" font-size="10.00">::CommState::world</text>
</a>
</g>
</g>
<!-- Node2&#45;&gt;Node3 -->
<g id="edge2_Node000002_Node000003" class="edge">
<title>Node2&#45;&gt;Node3</title>
<g id="a_edge2_Node000002_Node000003"><a xlink:title=" ">
<path fill="none" stroke="#63b8ff" d="M364.6,-557.5C385.61,-557.5 409.4,-557.5 431.17,-557.5"/>
<polygon fill="#63b8ff" stroke="#63b8ff" points="431.34,-561 441.34,-557.5 431.34,-554 431.34,-561"/>
</a>
</g>
</g>
<!-- Node4 -->
<g id="Node000004" class="node">
<title>Node4</title>
<g id="a_Node000004"><a xlink:href="structprecice_1_1utils_1_1Parallel_1_1CommState.html#a440432f97f08c595678e1102edb43b9f" target="_top" xlink:title="returns the commstate representing comm">
<polygon fill="white" stroke="#666666" points="776.5,-550.5 634.5,-550.5 634.5,-520.5 776.5,-520.5 776.5,-550.5"/>
<text text-anchor="start" x="642.5" y="-538.5" font-family="Helvetica,sans-Serif" font-size="10.00">precice::utils::Parallel</text>
<text text-anchor="middle" x="705.5" y="-527.5" font-family="Helvetica,sans-Serif" font-size="10.00">::CommState::fromComm</text>
</a>
</g>
</g>
<!-- Node3&#45;&gt;Node4 -->
<g id="edge3_Node000003_Node000004" class="edge">
<title>Node3&#45;&gt;Node4</title>
<g id="a_edge3_Node000003_Node000004"><a xlink:title=" ">
<path fill="none" stroke="#63b8ff" d="M562.64,-550.99C581.99,-548.88 603.78,-546.5 624.36,-544.25"/>
<polygon fill="#63b8ff" stroke="#63b8ff" points="624.8,-547.72 634.36,-543.16 624.04,-540.76 624.8,-547.72"/>
</a>
</g>
</g>
<!-- Node5 -->
<g id="Node000005" class="node">
<title>Node5</title>
<g id="a_Node000005"><a xlink:href="structprecice_1_1utils_1_1Parallel_1_1CommState.html#a5e3626f4c22a0aa7ac05cd740dda95ca" target="_top" xlink:title="returns an blank commstate representing MPI_COMM_NULL">
<polygon fill="white" stroke="#666666" points="961,-572.5 840,-572.5 840,-542.5 961,-542.5 961,-572.5"/>
<text text-anchor="start" x="848" y="-560.5" font-family="Helvetica,sans-Serif" font-size="10.00">precice::utils::Parallel</text>
<text text-anchor="middle" x="900.5" y="-549.5" font-family="Helvetica,sans-Serif" font-size="10.00">::CommState::null</text>
</a>
</g>
</g>
<!-- Node3&#45;&gt;Node5 -->
<g id="edge6_Node000003_Node000005" class="edge">
<title>Node3&#45;&gt;Node5</title>
<g id="a_edge6_Node000003_Node000005"><a xlink:title=" ">
<path fill="none" stroke="#63b8ff" d="M562.61,-558.72C580.72,-559.04 600.67,-559.34 619,-559.5 695.89,-560.16 715.11,-560.22 792,-559.5 804.1,-559.39 816.97,-559.2 829.44,-558.99"/>
<polygon fill="#63b8ff" stroke="#63b8ff" points="829.86,-562.48 839.8,-558.81 829.74,-555.49 829.86,-562.48"/>
</a>
</g>
</g>
<!-- Node4&#45;&gt;Node5 -->
<g id="edge4_Node000004_Node000005" class="edge">
<title>Node4&#45;&gt;Node5</title>
<g id="a_edge4_Node000004_Node000005"><a xlink:title=" ">
<path fill="none" stroke="#63b8ff" d="M776.72,-543.5C794.02,-545.48 812.54,-547.59 829.81,-549.56"/>
<polygon fill="#63b8ff" stroke="#63b8ff" points="829.49,-553.04 839.82,-550.7 830.28,-546.09 829.49,-553.04"/>
</a>
</g>
</g>
<!-- Node6 -->
<g id="Node000006" class="node">
<title>Node6</title>
<g id="a_Node000006"><a target="_parent" xlink:href="http://en.cppreference.com/w/cpp/memory/shared_ptr/make_shared.html#" xlink:title=" ">
<polygon fill="white" stroke="#666666" points="1123.5,-567 1020.5,-567 1020.5,-548 1123.5,-548 1123.5,-567"/>
<text text-anchor="middle" x="1072" y="-555" font-family="Helvetica,sans-Serif" font-size="10.00">std::make_shared</text>
</a>
</g>
</g>
<!-- Node5&#45;&gt;Node6 -->
<g id="edge5_Node000005_Node000006" class="edge">
<title>Node5&#45;&gt;Node6</title>
<g id="a_edge5_Node000005_Node000006"><a xlink:title=" ">
<path fill="none" stroke="#63b8ff" d="M961.26,-557.5C977.13,-557.5 994.29,-557.5 1010.21,-557.5"/>
<polygon fill="#63b8ff" stroke="#63b8ff" points="1010.48,-561 1020.48,-557.5 1010.48,-554 1010.48,-561"/>
</a>
</g>
</g>
<!-- Node9&#45;&gt;Node7 -->
<g id="edge10_Node000009_Node000007" class="edge">
<title>Node9&#45;&gt;Node7</title>
<g id="a_edge10_Node000009_Node000007"><a xlink:title=" ">
<path fill="none" stroke="#63b8ff" d="M356.76,-438.63C366.18,-441.5 375.9,-444.53 385,-447.5 406.55,-454.54 430.17,-462.79 450.44,-470.03"/>
<polygon fill="#63b8ff" stroke="#63b8ff" points="449.5,-473.41 460.1,-473.5 451.87,-466.83 449.5,-473.41"/>
</a>
</g>
</g>
<!-- Node9&#45;&gt;Node10 -->
<g id="edge11_Node000009_Node000010" class="edge">
<title>Node9&#45;&gt;Node10</title>
<g id="a_edge11_Node000009_Node000010"><a xlink:title=" ">
<path fill="none" stroke="#63b8ff" d="M371.08,-422.83C383.84,-422.7 397.4,-422.56 410.77,-422.42"/>
<polygon fill="#63b8ff" stroke="#63b8ff" points="410.97,-425.92 420.93,-422.32 410.9,-418.92 410.97,-425.92"/>
</a>
</g>
</g>
<!-- Node11&#45;&gt;Node11 -->
<g id="edge13_Node000011_Node000011" class="edge">
<title>Node11&#45;&gt;Node11</title>
<g id="a_edge13_Node000011_Node000011"><a xlink:title=" ">
<path fill="none" stroke="#63b8ff" d="M269.2,-334.78C261.46,-343.91 273.06,-352.5 304,-352.5 322.37,-352.5 333.92,-349.47 338.66,-345.1"/>
<polygon fill="#63b8ff" stroke="#63b8ff" points="342.16,-344.82 338.8,-334.78 335.16,-344.72 342.16,-344.82"/>
</a>
</g>
</g>
<!-- Node13 -->
<g id="Node000013" class="node">
<title>Node13</title>
<g id="a_Node000013"><a target="_parent" xlink:href="http://en.cppreference.com/w/cpp/io/basic_ios/clear.html#" xlink:title=" ">
<polygon fill="white" stroke="#666666" points="558,-281 446,-281 446,-262 558,-262 558,-281"/>
<text text-anchor="middle" x="502" y="-269" font-family="Helvetica,sans-Serif" font-size="10.00">std::ofstream::clear</text>
</a>
</g>
</g>
<!-- Node12&#45;&gt;Node13 -->
<g id="edge16_Node000012_Node000013" class="edge">
<title>Node12&#45;&gt;Node13</title>
<g id="a_edge16_Node000012_Node000013"><a xlink:title=" ">
<path fill="none" stroke="#63b8ff" d="M374.1,-271.5C394.09,-271.5 415.85,-271.5 435.6,-271.5"/>
<polygon fill="#63b8ff" stroke="#63b8ff" points="435.73,-275 445.73,-271.5 435.73,-268 435.73,-275"/>
</a>
</g>
</g>
<!-- Node14 -->
<g id="Node000014" class="node">
<title>Node14</title>
<g id="a_Node000014"><a target="_parent" xlink:href="http://en.cppreference.com/w/cpp/filesystem/create_directory.html#" xlink:title=" ">
<polygon fill="white" stroke="#666666" points="564.5,-243.5 439.5,-243.5 439.5,-213.5 564.5,-213.5 564.5,-243.5"/>
<text text-anchor="start" x="447.5" y="-231.5" font-family="Helvetica,sans-Serif" font-size="10.00">std::filesystem::create</text>
<text text-anchor="middle" x="502" y="-220.5" font-family="Helvetica,sans-Serif" font-size="10.00">_directories</text>
</a>
</g>
</g>
<!-- Node12&#45;&gt;Node14 -->
<g id="edge17_Node000012_Node000014" class="edge">
<title>Node12&#45;&gt;Node14</title>
<g id="a_edge17_Node000012_Node000014"><a xlink:title=" ">
<path fill="none" stroke="#63b8ff" d="M373.55,-256.46C391.62,-252.5 411.16,-248.21 429.39,-244.21"/>
<polygon fill="#63b8ff" stroke="#63b8ff" points="430.34,-247.58 439.36,-242.02 428.84,-240.75 430.34,-247.58"/>
</a>
</g>
</g>
<!-- Node15 -->
<g id="Node000015" class="node">
<title>Node15</title>
<g id="a_Node000015"><a target="_parent" xlink:href="http://en.cppreference.com/w/cpp/filesystem/exists.html#" xlink:title=" ">
<polygon fill="white" stroke="#666666" points="564,-195 440,-195 440,-176 564,-176 564,-195"/>
<text text-anchor="middle" x="502" y="-183" font-family="Helvetica,sans-Serif" font-size="10.00">std::filesystem::exists</text>
</a>
</g>
</g>
<!-- Node12&#45;&gt;Node15 -->
<g id="edge18_Node000012_Node000015" class="edge">
<title>Node12&#45;&gt;Node15</title>
<g id="a_edge18_Node000012_Node000015"><a xlink:title=" ">
<path fill="none" stroke="#63b8ff" d="M326.69,-256.38C349.3,-241.27 386.21,-218.34 421,-204.5 427.33,-201.98 434.08,-199.75 440.87,-197.77"/>
<polygon fill="#63b8ff" stroke="#63b8ff" points="442.08,-201.07 450.8,-195.06 440.23,-194.31 442.08,-201.07"/>
</a>
</g>
</g>
<!-- Node16 -->
<g id="Node000016" class="node">
<title>Node16</title>
<g id="a_Node000016"><a xlink:href="classprecice_1_1com_1_1ConnectionInfoPublisher.html#ad47065386b8767ec48429e86a5a9209b" target="_top" xlink:title="Returns the full path to the hashed filename.">
<polygon fill="white" stroke="#666666" points="575.5,-157.5 428.5,-157.5 428.5,-127.5 575.5,-127.5 575.5,-157.5"/>
<text text-anchor="start" x="436.5" y="-145.5" font-family="Helvetica,sans-Serif" font-size="10.00">precice::com::Connection</text>
<text text-anchor="middle" x="502" y="-134.5" font-family="Helvetica,sans-Serif" font-size="10.00">InfoPublisher::getFilename</text>
</a>
</g>
</g>
<!-- Node12&#45;&gt;Node16 -->
<g id="edge19_Node000012_Node000016" class="edge">
<title>Node12&#45;&gt;Node16</title>
<g id="a_edge19_Node000012_Node000016"><a xlink:title=" ">
<path fill="none" stroke="#63b8ff" d="M317.68,-256.34C337.48,-233.61 377.94,-190.79 421,-166.5 424.22,-164.68 427.59,-162.99 431.06,-161.41"/>
<polygon fill="#63b8ff" stroke="#63b8ff" points="432.51,-164.6 440.39,-157.51 429.81,-158.14 432.51,-164.6"/>
</a>
</g>
</g>
<!-- Node33 -->
<g id="Node000033" class="node">
<title>Node33</title>
<g id="a_Node000033"><a target="_parent" xlink:href="http://en.cppreference.com/w/cpp/io/basic_ofstream/open.html#" xlink:title=" ">
<polygon fill="white" stroke="#666666" points="558,-392 446,-392 446,-373 558,-373 558,-392"/>
<text text-anchor="middle" x="502" y="-380" font-family="Helvetica,sans-Serif" font-size="10.00">std::ofstream::open</text>
</a>
</g>
</g>
<!-- Node12&#45;&gt;Node33 -->
<g id="edge37_Node000012_Node000033" class="edge">
<title>Node12&#45;&gt;Node33</title>
<g id="a_edge37_Node000012_Node000033"><a xlink:title=" ">
<path fill="none" stroke="#63b8ff" d="M371.39,-286.64C376.25,-289.15 380.86,-292.08 385,-295.5 411.66,-317.54 393.58,-343.41 421,-364.5 425.63,-368.06 430.82,-370.94 436.29,-373.27"/>
<polygon fill="#63b8ff" stroke="#63b8ff" points="435.09,-376.56 445.69,-376.69 437.49,-369.98 435.09,-376.56"/>
</a>
</g>
</g>
<!-- Node34 -->
<g id="Node000034" class="node">
<title>Node34</title>
<g id="a_Node000034"><a target="_parent" xlink:href="http://en.cppreference.com/w/cpp/filesystem/rename.html#" xlink:title=" ">
<polygon fill="white" stroke="#666666" points="568,-355 436,-355 436,-336 568,-336 568,-355"/>
<text text-anchor="middle" x="502" y="-343" font-family="Helvetica,sans-Serif" font-size="10.00">std::filesystem::rename</text>
</a>
</g>
</g>
<!-- Node12&#45;&gt;Node34 -->
<g id="edge38_Node000012_Node000034" class="edge">
<title>Node12&#45;&gt;Node34</title>
<g id="a_edge38_Node000012_Node000034"><a xlink:title=" ">
<path fill="none" stroke="#63b8ff" d="M365.58,-286.57C372.31,-289.14 378.92,-292.11 385,-295.5 403.69,-305.93 401.95,-317.73 421,-327.5 424.78,-329.44 428.76,-331.17 432.85,-332.71"/>
<polygon fill="#63b8ff" stroke="#63b8ff" points="431.94,-336.1 442.53,-335.99 434.18,-329.47 431.94,-336.1"/>
</a>
</g>
</g>
<!-- Node35 -->
<g id="Node000035" class="node">
<title>Node35</title>
<g id="a_Node000035"><a target="_parent" xlink:href="http://en.cppreference.com/w/cpp/thread/sleep_for.html#" xlink:title=" ">
<polygon fill="white" stroke="#666666" points="573.5,-318 430.5,-318 430.5,-299 573.5,-299 573.5,-318"/>
<text text-anchor="middle" x="502" y="-306" font-family="Helvetica,sans-Serif" font-size="10.00">std::this_thread::sleep_for</text>
</a>
</g>
</g>
<!-- Node12&#45;&gt;Node35 -->
<g id="edge39_Node000012_Node000035" class="edge">
<title>Node12&#45;&gt;Node35</title>
<g id="a_edge39_Node000012_Node000035"><a xlink:title=" ">
<path fill="none" stroke="#63b8ff" d="M374.1,-284.54C395.7,-288.62 419.35,-293.09 440.32,-297.04"/>
<polygon fill="#63b8ff" stroke="#63b8ff" points="439.9,-300.53 450.38,-298.94 441.2,-293.65 439.9,-300.53"/>
</a>
</g>
</g>
<!-- Node17 -->
<g id="Node000017" class="node">
<title>Node17</title>
<g id="a_Node000017"><a xlink:href="classprecice_1_1com_1_1ConnectionInfoPublisher.html#a408bedb5171e27f82c6807fbeb2941c1" target="_top" xlink:title="Returns the local directory which is used to store the hashed part.">
<polygon fill="white" stroke="#666666" points="792,-105.5 619,-105.5 619,-75.5 792,-75.5 792,-105.5"/>
<text text-anchor="start" x="627" y="-93.5" font-family="Helvetica,sans-Serif" font-size="10.00">precice::com::Connection</text>
<text text-anchor="middle" x="705.5" y="-82.5" font-family="Helvetica,sans-Serif" font-size="10.00">InfoPublisher::getLocalDirectory</text>
</a>
</g>
</g>
<!-- Node16&#45;&gt;Node17 -->
<g id="edge20_Node000016_Node000017" class="edge">
<title>Node16&#45;&gt;Node17</title>
<g id="a_edge20_Node000016_Node000017"><a xlink:title=" ">
<path fill="none" stroke="#63b8ff" d="M561.28,-127.46C584.78,-121.4 612.05,-114.36 636.44,-108.06"/>
<polygon fill="#63b8ff" stroke="#63b8ff" points="637.54,-111.39 646.35,-105.51 635.79,-104.62 637.54,-111.39"/>
</a>
</g>
</g>
<!-- Node23 -->
<g id="Node000023" class="node">
<title>Node23</title>
<g id="a_Node000023"><a xlink:href="namespaceprecice_1_1com_1_1impl.html#a88c8f15e467055956cae71c3732b611c" target="_top" xlink:title="Returns the file name for the connection information.">
<polygon fill="white" stroke="#666666" points="759,-209.5 652,-209.5 652,-179.5 759,-179.5 759,-209.5"/>
<text text-anchor="start" x="660" y="-197.5" font-family="Helvetica,sans-Serif" font-size="10.00">precice::com::impl</text>
<text text-anchor="middle" x="705.5" y="-186.5" font-family="Helvetica,sans-Serif" font-size="10.00">::hashedFilePath</text>
</a>
</g>
</g>
<!-- Node16&#45;&gt;Node23 -->
<g id="edge26_Node000016_Node000023" class="edge">
<title>Node16&#45;&gt;Node23</title>
<g id="a_edge26_Node000016_Node000023"><a xlink:title=" ">
<path fill="none" stroke="#63b8ff" d="M561.28,-157.54C586.52,-164.05 616.12,-171.69 641.83,-178.33"/>
<polygon fill="#63b8ff" stroke="#63b8ff" points="641.29,-181.8 651.85,-180.91 643.04,-175.03 641.29,-181.8"/>
</a>
</g>
</g>
<!-- Node32 -->
<g id="Node000032" class="node">
<title>Node32</title>
<g id="a_Node000032"><a target="_parent" xlink:href="http://en.cppreference.com/w/cpp/filesystem/path/string.html#" xlink:title=" ">
<polygon fill="white" stroke="#666666" points="763.5,-157.5 647.5,-157.5 647.5,-127.5 763.5,-127.5 763.5,-157.5"/>
<text text-anchor="start" x="655.5" y="-145.5" font-family="Helvetica,sans-Serif" font-size="10.00">std::filesystem::path</text>
<text text-anchor="middle" x="705.5" y="-134.5" font-family="Helvetica,sans-Serif" font-size="10.00">::string</text>
</a>
</g>
</g>
<!-- Node16&#45;&gt;Node32 -->
<g id="edge36_Node000016_Node000032" class="edge">
<title>Node16&#45;&gt;Node32</title>
<g id="a_edge36_Node000016_Node000032"><a xlink:title=" ">
<path fill="none" stroke="#63b8ff" d="M575.75,-142.5C595.81,-142.5 617.48,-142.5 637.22,-142.5"/>
<polygon fill="#63b8ff" stroke="#63b8ff" points="637.35,-146 647.35,-142.5 637.35,-139 637.35,-146"/>
</a>
</g>
</g>
<!-- Node18 -->
<g id="Node000018" class="node">
<title>Node18</title>
<g id="a_Node000018"><a xlink:href="namespaceprecice_1_1com_1_1impl.html#ad96d80317c7e789ea818fb7d0cfb2c8c" target="_top" xlink:title=" ">
<polygon fill="white" stroke="#666666" points="954,-98.5 847,-98.5 847,-68.5 954,-68.5 954,-98.5"/>
<text text-anchor="start" x="855" y="-86.5" font-family="Helvetica,sans-Serif" font-size="10.00">precice::com::impl</text>
<text text-anchor="middle" x="900.5" y="-75.5" font-family="Helvetica,sans-Serif" font-size="10.00">::localDirectory</text>
</a>
</g>
</g>
<!-- Node17&#45;&gt;Node18 -->
<g id="edge21_Node000017_Node000018" class="edge">
<title>Node17&#45;&gt;Node18</title>
<g id="a_edge21_Node000017_Node000018"><a xlink:title=" ">
<path fill="none" stroke="#63b8ff" d="M792.28,-87.39C807.26,-86.85 822.6,-86.29 836.82,-85.77"/>
<polygon fill="#63b8ff" stroke="#63b8ff" points="837.08,-89.27 846.95,-85.41 836.83,-82.27 837.08,-89.27"/>
</a>
</g>
</g>
<!-- Node19 -->
<g id="Node000019" class="node">
<title>Node19</title>
<g id="a_Node000019"><a target="_parent" xlink:href="http://en.cppreference.com/w/cpp/string/basic_string/append.html#" xlink:title=" ">
<polygon fill="white" stroke="#666666" points="1125.5,-130 1018.5,-130 1018.5,-111 1125.5,-111 1125.5,-130"/>
<text text-anchor="middle" x="1072" y="-118" font-family="Helvetica,sans-Serif" font-size="10.00">std::string::append</text>
</a>
</g>
</g>
<!-- Node18&#45;&gt;Node19 -->
<g id="edge22_Node000018_Node000019" class="edge">
<title>Node18&#45;&gt;Node19</title>
<g id="a_edge22_Node000018_Node000019"><a xlink:title=" ">
<path fill="none" stroke="#63b8ff" d="M954.2,-95C974.32,-99.4 997.27,-104.4 1017.46,-108.81"/>
<polygon fill="#63b8ff" stroke="#63b8ff" points="1016.92,-112.28 1027.44,-110.99 1018.41,-105.44 1016.92,-112.28"/>
</a>
</g>
</g>
<!-- Node20 -->
<g id="Node000020" class="node">
<title>Node20</title>
<g id="a_Node000020"><a target="_parent" xlink:href="http://en.cppreference.com/w/cpp/string/basic_string_view/begin.html#" xlink:title=" ">
<polygon fill="white" stroke="#666666" points="1135,-19 1009,-19 1009,0 1135,0 1135,-19"/>
<text text-anchor="middle" x="1072" y="-7" font-family="Helvetica,sans-Serif" font-size="10.00">std::string_view::begin</text>
</a>
</g>
</g>
<!-- Node18&#45;&gt;Node20 -->
<g id="edge23_Node000018_Node000020" class="edge">
<title>Node18&#45;&gt;Node20</title>
<g id="a_edge23_Node000018_Node000020"><a xlink:title=" ">
<path fill="none" stroke="#63b8ff" d="M926.89,-68.45C948.26,-56.23 979.9,-39.17 1009,-27.5 1013.75,-25.59 1018.79,-23.79 1023.85,-22.12"/>
<polygon fill="#63b8ff" stroke="#63b8ff" points="1025.06,-25.41 1033.55,-19.08 1022.96,-18.73 1025.06,-25.41"/>
</a>
</g>
</g>
<!-- Node21 -->
<g id="Node000021" class="node">
<title>Node21</title>
<g id="a_Node000021"><a target="_parent" xlink:href="http://en.cppreference.com/w/cpp/string/basic_string_view/end.html#" xlink:title=" ">
<polygon fill="white" stroke="#666666" points="1130.5,-93 1013.5,-93 1013.5,-74 1130.5,-74 1130.5,-93"/>
<text text-anchor="middle" x="1072" y="-81" font-family="Helvetica,sans-Serif" font-size="10.00">std::string_view::end</text>
</a>
</g>
</g>
<!-- Node18&#45;&gt;Node21 -->
<g id="edge24_Node000018_Node000021" class="edge">
<title>Node18&#45;&gt;Node21</title>
<g id="a_edge24_Node000018_Node000021"><a xlink:title=" ">
<path fill="none" stroke="#63b8ff" d="M954.2,-83.5C969.73,-83.5 986.95,-83.5 1003.29,-83.5"/>
<polygon fill="#63b8ff" stroke="#63b8ff" points="1003.32,-87 1013.32,-83.5 1003.32,-80 1003.32,-87"/>
</a>
</g>
</g>
<!-- Node22 -->
<g id="Node000022" class="node">
<title>Node22</title>
<g id="a_Node000022"><a target="_parent" xlink:href="http://en.cppreference.com/w/cpp/string/basic_string/basic_string.html#" xlink:title=" ">
<polygon fill="white" stroke="#666666" points="1121.5,-56 1022.5,-56 1022.5,-37 1121.5,-37 1121.5,-56"/>
<text text-anchor="middle" x="1072" y="-44" font-family="Helvetica,sans-Serif" font-size="10.00">std::string::string</text>
</a>
</g>
</g>
<!-- Node18&#45;&gt;Node22 -->
<g id="edge25_Node000018_Node000022" class="edge">
<title>Node18&#45;&gt;Node22</title>
<g id="a_edge25_Node000018_Node000022"><a xlink:title=" ">
<path fill="none" stroke="#63b8ff" d="M954.2,-72C974.32,-67.6 997.27,-62.6 1017.46,-58.19"/>
<polygon fill="#63b8ff" stroke="#63b8ff" points="1018.41,-61.56 1027.44,-56.01 1016.92,-54.72 1018.41,-61.56"/>
</a>
</g>
</g>
<!-- Node23&#45;&gt;Node19 -->
<g id="edge27_Node000023_Node000019" class="edge">
<title>Node23&#45;&gt;Node19</title>
<g id="a_edge27_Node000023_Node000019"><a xlink:title=" ">
<path fill="none" stroke="#63b8ff" d="M759.11,-183.82C826.95,-170.05 944.46,-146.19 1014.25,-132.02"/>
<polygon fill="#63b8ff" stroke="#63b8ff" points="1015.09,-135.42 1024.19,-130 1013.69,-128.56 1015.09,-135.42"/>
</a>
</g>
</g>
<!-- Node24 -->
<g id="Node000024" class="node">
<title>Node24</title>
<g id="a_Node000024"><a xlink:href="namespaceprecice_1_1utils.html#abaf4f17929f6282f43af2fab8b45e049" target="_top" xlink:title="creates a portable hash of the given input">
<polygon fill="white" stroke="#666666" points="973,-204 828,-204 828,-185 973,-185 973,-204"/>
<text text-anchor="middle" x="900.5" y="-192" font-family="Helvetica,sans-Serif" font-size="10.00">precice::utils::preciceHash</text>
</a>
</g>
</g>
<!-- Node23&#45;&gt;Node24 -->
<g id="edge28_Node000023_Node000024" class="edge">
<title>Node23&#45;&gt;Node24</title>
<g id="a_edge28_Node000023_Node000024"><a xlink:title=" ">
<path fill="none" stroke="#63b8ff" d="M759.24,-194.5C777.2,-194.5 797.73,-194.5 817.44,-194.5"/>
<polygon fill="#63b8ff" stroke="#63b8ff" points="817.65,-198 827.65,-194.5 817.65,-191 817.65,-198"/>
</a>
</g>
</g>
<!-- Node30 -->
<g id="Node000030" class="node">
<title>Node30</title>
<g id="a_Node000030"><a target="_parent" xlink:href="http://en.cppreference.com/w/cpp/string/basic_string/substr.html#" xlink:title=" ">
<polygon fill="white" stroke="#666666" points="951,-278 850,-278 850,-259 951,-259 951,-278"/>
<text text-anchor="middle" x="900.5" y="-266" font-family="Helvetica,sans-Serif" font-size="10.00">std::string::substr</text>
</a>
</g>
</g>
<!-- Node23&#45;&gt;Node30 -->
<g id="edge34_Node000023_Node000030" class="edge">
<title>Node23&#45;&gt;Node30</title>
<g id="a_edge34_Node000023_Node000030"><a xlink:title=" ">
<path fill="none" stroke="#63b8ff" d="M735.33,-209.64C759.56,-221.9 795.37,-238.98 828,-250.5 833.86,-252.57 840.07,-254.5 846.29,-256.27"/>
<polygon fill="#63b8ff" stroke="#63b8ff" points="845.44,-259.67 856.01,-258.92 847.29,-252.92 845.44,-259.67"/>
</a>
</g>
</g>
<!-- Node31 -->
<g id="Node000031" class="node">
<title>Node31</title>
<g id="a_Node000031"><a target="_parent" xlink:href="http://en.cppreference.com/w/cpp/string/basic_string/to_string.html#" xlink:title=" ">
<polygon fill="white" stroke="#666666" points="940.5,-241 860.5,-241 860.5,-222 940.5,-222 940.5,-241"/>
<text text-anchor="middle" x="900.5" y="-229" font-family="Helvetica,sans-Serif" font-size="10.00">std::to_string</text>
</a>
</g>
</g>
<!-- Node23&#45;&gt;Node31 -->
<g id="edge35_Node000023_Node000031" class="edge">
<title>Node23&#45;&gt;Node31</title>
<g id="a_edge35_Node000023_Node000031"><a xlink:title=" ">
<path fill="none" stroke="#63b8ff" d="M759.24,-204.61C787.67,-210.06 822.52,-216.74 850.38,-222.08"/>
<polygon fill="#63b8ff" stroke="#63b8ff" points="849.82,-225.54 860.3,-223.98 851.14,-218.66 849.82,-225.54"/>
</a>
</g>
</g>
<!-- Node25 -->
<g id="Node000025" class="node">
<title>Node25</title>
<g id="a_Node000025"><a target="_parent" xlink:href="http://en.cppreference.com/w/cpp/string/basic_string/begin.html#" xlink:title=" ">
<polygon fill="white" stroke="#666666" points="1121,-167 1023,-167 1023,-148 1121,-148 1121,-167"/>
<text text-anchor="middle" x="1072" y="-155" font-family="Helvetica,sans-Serif" font-size="10.00">std::string::begin</text>
</a>
</g>
</g>
<!-- Node24&#45;&gt;Node25 -->
<g id="edge29_Node000024_Node000025" class="edge">
<title>Node24&#45;&gt;Node25</title>
<g id="a_edge29_Node000024_Node000025"><a xlink:title=" ">
<path fill="none" stroke="#63b8ff" d="M945.15,-184.97C967.11,-180.18 993.93,-174.32 1017.15,-169.25"/>
<polygon fill="#63b8ff" stroke="#63b8ff" points="1018.18,-172.61 1027.2,-167.06 1016.69,-165.77 1018.18,-172.61"/>
</a>
</g>
</g>
<!-- Node26 -->
<g id="Node000026" class="node">
<title>Node26</title>
<g id="a_Node000026"><a target="_parent" xlink:href="http://en.cppreference.com/w/cpp/string/basic_string_view/data.html#" xlink:title=" ">
<polygon fill="white" stroke="#666666" points="1132.5,-315 1011.5,-315 1011.5,-296 1132.5,-296 1132.5,-315"/>
<text text-anchor="middle" x="1072" y="-303" font-family="Helvetica,sans-Serif" font-size="10.00">std::string_view::data</text>
</a>
</g>
</g>
<!-- Node24&#45;&gt;Node26 -->
<g id="edge30_Node000024_Node000026" class="edge">
<title>Node24&#45;&gt;Node26</title>
<g id="a_edge30_Node000024_Node000026"><a xlink:title=" ">
<path fill="none" stroke="#63b8ff" d="M957.34,-204.14C962.98,-206.59 968.34,-209.66 973,-213.5 1001.23,-236.75 981.03,-263.93 1009,-287.5 1010.51,-288.77 1012.11,-289.96 1013.77,-291.06"/>
<polygon fill="#63b8ff" stroke="#63b8ff" points="1012.11,-294.14 1022.56,-295.89 1015.48,-288 1012.11,-294.14"/>
</a>
</g>
</g>
<!-- Node27 -->
<g id="Node000027" class="node">
<title>Node27</title>
<g id="a_Node000027"><a target="_parent" xlink:href="http://en.cppreference.com/w/cpp/string/basic_string/end.html#" xlink:title=" ">
<polygon fill="white" stroke="#666666" points="1116.5,-278 1027.5,-278 1027.5,-259 1116.5,-259 1116.5,-278"/>
<text text-anchor="middle" x="1072" y="-266" font-family="Helvetica,sans-Serif" font-size="10.00">std::string::end</text>
</a>
</g>
</g>
<!-- Node24&#45;&gt;Node27 -->
<g id="edge31_Node000024_Node000027" class="edge">
<title>Node24&#45;&gt;Node27</title>
<g id="a_edge31_Node000024_Node000027"><a xlink:title=" ">
<path fill="none" stroke="#63b8ff" d="M951.36,-204.01C958.89,-206.5 966.35,-209.61 973,-213.5 992.8,-225.09 989.33,-238.69 1009,-250.5 1011.83,-252.2 1014.84,-253.75 1017.94,-255.16"/>
<polygon fill="#63b8ff" stroke="#63b8ff" points="1016.85,-258.49 1027.43,-258.98 1019.46,-252 1016.85,-258.49"/>
</a>
</g>
</g>
<!-- Node28 -->
<g id="Node000028" class="node">
<title>Node28</title>
<g id="a_Node000028"><a target="_parent" xlink:href="http://en.cppreference.com/w/cpp/string/basic_string/erase.html#" xlink:title=" ">
<polygon fill="white" stroke="#666666" points="1121,-241 1023,-241 1023,-222 1121,-222 1121,-241"/>
<text text-anchor="middle" x="1072" y="-229" font-family="Helvetica,sans-Serif" font-size="10.00">std::string::erase</text>
</a>
</g>
</g>
<!-- Node24&#45;&gt;Node28 -->
<g id="edge32_Node000024_Node000028" class="edge">
<title>Node24&#45;&gt;Node28</title>
<g id="a_edge32_Node000024_Node000028"><a xlink:title=" ">
<path fill="none" stroke="#63b8ff" d="M945.15,-204.03C967.11,-208.82 993.93,-214.68 1017.15,-219.75"/>
<polygon fill="#63b8ff" stroke="#63b8ff" points="1016.69,-223.23 1027.2,-221.94 1018.18,-216.39 1016.69,-223.23"/>
</a>
</g>
</g>
<!-- Node29 -->
<g id="Node000029" class="node">
<title>Node29</title>
<g id="a_Node000029"><a target="_parent" xlink:href="http://en.cppreference.com/w/cpp/string/basic_string_view/size.html#" xlink:title=" ">
<polygon fill="white" stroke="#666666" points="1131.5,-204 1012.5,-204 1012.5,-185 1131.5,-185 1131.5,-204"/>
<text text-anchor="middle" x="1072" y="-192" font-family="Helvetica,sans-Serif" font-size="10.00">std::string_view::size</text>
</a>
</g>
</g>
<!-- Node24&#45;&gt;Node29 -->
<g id="edge33_Node000024_Node000029" class="edge">
<title>Node24&#45;&gt;Node29</title>
<g id="a_edge33_Node000024_Node000029"><a xlink:title=" ">
<path fill="none" stroke="#63b8ff" d="M973.38,-194.5C982.92,-194.5 992.69,-194.5 1002.18,-194.5"/>
<polygon fill="#63b8ff" stroke="#63b8ff" points="1002.34,-198 1012.34,-194.5 1002.34,-191 1002.34,-198"/>
</a>
</g>
</g>
</g>
</svg>
