<?xml version="1.0" encoding="UTF-8" standalone="no"?>
<!DOCTYPE svg PUBLIC "-//W3C//DTD SVG 1.1//EN"
 "http://www.w3.org/Graphics/SVG/1.1/DTD/svg11.dtd">
<!-- Generated by graphviz version 2.43.0 (0)
 -->
<!-- Title: precice::mapping::MappingConfiguration Pages: 1 -->
<!--zoomable 363 -->
<svg id="main" version="1.1" xmlns="http://www.w3.org/2000/svg" xmlns:xlink="http://www.w3.org/1999/xlink" xml:space="preserve" onload="init(evt)">
<style type="text/css"><![CDATA[
.edge:hover path { stroke: red; }
.edge:hover polygon { stroke: red; fill: red; }
]]></style>
<script type="text/javascript"><![CDATA[
var edges = document.getElementsByTagName('g');
if (edges && edges.length) {
  for (var i=0;i<edges.length;i++) {
    if (edges[i].id.substr(0,4)=='edge') {
      edges[i].setAttribute('class','edge');
    }
  }
}
]]></script>
        <defs>
                <circle id="rim" cx="0" cy="0" r="7"/>
                <circle id="rim2" cx="0" cy="0" r="3.5"/>
                <g id="zoomPlus">
                        <use xlink:href="#rim" fill="#404040">
                                <set attributeName="fill" to="#808080" begin="zoomplus.mouseover" end="zoomplus.mouseout"/>
                        </use>
                        <path d="M-4,0h8M0,-4v8" fill="none" stroke="white" stroke-width="1.5" pointer-events="none"/>
                </g>
                <g id="zoomMin">
                        <use xlink:href="#rim" fill="#404040">
                                <set attributeName="fill" to="#808080" begin="zoomminus.mouseover" end="zoomminus.mouseout"/>
                        </use>
                        <path d="M-4,0h8" fill="none" stroke="white" stroke-width="1.5" pointer-events="none"/>
                </g>
                <g id="dirArrow">
                        <path fill="none" stroke="white" stroke-width="1.5" d="M0,-3.0v7 M-2.5,-0.5L0,-3.0L2.5,-0.5"/>
                </g>
               <g id="resetDef">
                       <use xlink:href="#rim2" fill="#404040">
                               <set attributeName="fill" to="#808080" begin="reset.mouseover" end="reset.mouseout"/>
                       </use>
               </g>
        </defs>

<script type="text/javascript">
var viewWidth = 1210;
var viewHeight = 363;
var sectionId = 'dynsection-1';
</script>
<script xlink:href="svgpan.js"/>
<svg id="graph" class="graph">
<g id="viewport">
<title>precice::mapping::MappingConfiguration</title>
<polygon fill="white" stroke="transparent" points="-4,4 -4,-359.44 1206,-359.44 1206,4 -4,4"/>
<!-- Node1 -->
<g id="node1" class="node">
<title>Node1</title>
<g id="a_node1"><a xlink:title="Performs XML configuration and holds configured mappings.">
<polygon fill="#bfbfbf" stroke="black" points="1053,-97 1053,-127 1202,-127 1202,-97 1053,-97"/>
<text text-anchor="start" x="1061" y="-115" font-family="Helvetica,sans-Serif" font-size="10.00">precice::mapping::Mapping</text>
<text text-anchor="middle" x="1127.5" y="-104" font-family="Helvetica,sans-Serif" font-size="10.00">Configuration</text>
</a>
</g>
</g>
<!-- Node2 -->
<g id="node2" class="node">
<title>Node2</title>
<g id="a_node2"><a xlink:href="structprecice_1_1xml_1_1XMLTag_1_1Listener.html" target="_top" xlink:title="Callback interface for configuration classes using XMLTag.">
<polygon fill="white" stroke="black" points="708,-320 708,-350 827,-350 827,-320 708,-320"/>
<text text-anchor="start" x="716" y="-338" font-family="Helvetica,sans-Serif" font-size="10.00">precice::xml::XMLTag</text>
<text text-anchor="middle" x="767.5" y="-327" font-family="Helvetica,sans-Serif" font-size="10.00">::Listener</text>
</a>
</g>
</g>
<!-- Node2&#45;&gt;Node1 -->
<g id="edge1" class="edge">
<title>Node2&#45;&gt;Node1</title>
<path fill="none" stroke="midnightblue" d="M837.26,-349.97C895.16,-358.53 977.49,-360.79 1035,-321 1102.26,-274.46 1120.55,-167.01 1125.1,-127.2"/>
<polygon fill="midnightblue" stroke="midnightblue" points="837.53,-346.47 827.11,-348.37 836.44,-353.38 837.53,-346.47"/>
</g>
<!-- Node3 -->
<g id="node3" class="node">
<title>Node3</title>
<g id="a_node3"><a xlink:href="classprecice_1_1logging_1_1Logger.html" target="_top" xlink:title="This class provides a lightweight logger.">
<polygon fill="white" stroke="black" points="701,-281.5 701,-300.5 834,-300.5 834,-281.5 701,-281.5"/>
<text text-anchor="middle" x="767.5" y="-288.5" font-family="Helvetica,sans-Serif" font-size="10.00">precice::logging::Logger</text>
</a>
</g>
</g>
<!-- Node3&#45;&gt;Node1 -->
<g id="edge2" class="edge">
<title>Node3&#45;&gt;Node1</title>
<path fill="none" stroke="#9a32cd" stroke-dasharray="5,2" d="M819.45,-302.32C876.51,-312.05 969.57,-318.83 1035,-278 1090.98,-243.07 1115.4,-161.03 1123.36,-127.1"/>
<polygon fill="#9a32cd" stroke="#9a32cd" points="820.03,-298.86 809.57,-300.54 818.8,-305.75 820.03,-298.86"/>
<text text-anchor="middle" x="961" y="-312" font-family="Helvetica,sans-Serif" font-size="10.00"> _log</text>
</g>
<!-- Node4 -->
<g id="node4" class="node">
<title>Node4</title>
<g id="a_node4"><a xlink:title=" ">
<polygon fill="white" stroke="#bfbfbf" points="405,-276 405,-306 575,-306 575,-276 405,-276"/>
<text text-anchor="start" x="413" y="-294" font-family="Helvetica,sans-Serif" font-size="10.00">std::unique_ptr&lt; precice</text>
<text text-anchor="middle" x="490" y="-283" font-family="Helvetica,sans-Serif" font-size="10.00">::logging::Logger::LoggerImpl &gt;</text>
</a>
</g>
</g>
<!-- Node4&#45;&gt;Node3 -->
<g id="edge3" class="edge">
<title>Node4&#45;&gt;Node3</title>
<path fill="none" stroke="#9a32cd" stroke-dasharray="5,2" d="M585.22,-291C623.25,-291 666.22,-291 700.77,-291"/>
<polygon fill="#9a32cd" stroke="#9a32cd" points="585.16,-287.5 575.16,-291 585.16,-294.5 585.16,-287.5"/>
<text text-anchor="middle" x="623.5" y="-294" font-family="Helvetica,sans-Serif" font-size="10.00"> _impl</text>
</g>
<!-- Node5 -->
<g id="node5" class="node">
<title>Node5</title>
<g id="a_node5"><a xlink:href="classprecice_1_1logging_1_1Logger_1_1LoggerImpl.html" target="_top" xlink:title=" ">
<polygon fill="white" stroke="black" points="169.5,-276 169.5,-306 302.5,-306 302.5,-276 169.5,-276"/>
<text text-anchor="start" x="177.5" y="-294" font-family="Helvetica,sans-Serif" font-size="10.00">precice::logging::Logger</text>
<text text-anchor="middle" x="236" y="-283" font-family="Helvetica,sans-Serif" font-size="10.00">::LoggerImpl</text>
</a>
</g>
</g>
<!-- Node5&#45;&gt;Node4 -->
<g id="edge4" class="edge">
<title>Node5&#45;&gt;Node4</title>
<path fill="none" stroke="#9a32cd" stroke-dasharray="5,2" d="M312.63,-291C341.66,-291 374.97,-291 404.76,-291"/>
<polygon fill="#9a32cd" stroke="#9a32cd" points="312.55,-287.5 302.55,-291 312.55,-294.5 312.55,-287.5"/>
<text text-anchor="middle" x="356" y="-294" font-family="Helvetica,sans-Serif" font-size="10.00"> ptr</text>
</g>
<!-- Node6 -->
<g id="node6" class="node">
<title>Node6</title>
<g id="a_node6"><a xlink:title=" ">
<polygon fill="white" stroke="#bfbfbf" points="0,-276 0,-306 122,-306 122,-276 0,-276"/>
<text text-anchor="start" x="8" y="-294" font-family="Helvetica,sans-Serif" font-size="10.00">BoostLogger&lt; Logger</text>
<text text-anchor="middle" x="61" y="-283" font-family="Helvetica,sans-Serif" font-size="10.00">::LoggerImpl &gt;</text>
</a>
</g>
</g>
<!-- Node6&#45;&gt;Node5 -->
<g id="edge5" class="edge">
<title>Node6&#45;&gt;Node5</title>
<path fill="none" stroke="midnightblue" d="M132.23,-291C144.54,-291 157.3,-291 169.47,-291"/>
<polygon fill="midnightblue" stroke="midnightblue" points="132.02,-287.5 122.02,-291 132.02,-294.5 132.02,-287.5"/>
</g>
<!-- Node7 -->
<g id="node7" class="node">
<title>Node7</title>
<g id="a_node7"><a xlink:title="STL class.">
<polygon fill="white" stroke="#bfbfbf" points="735,-106.5 735,-125.5 800,-125.5 800,-106.5 735,-106.5"/>
<text text-anchor="middle" x="767.5" y="-113.5" font-family="Helvetica,sans-Serif" font-size="10.00">std::string</text>
</a>
</g>
</g>
<!-- Node7&#45;&gt;Node1 -->
<g id="edge6" class="edge">
<title>Node7&#45;&gt;Node1</title>
<path fill="none" stroke="#9a32cd" stroke-dasharray="5,2" d="M810.48,-114.72C833.14,-114.09 861.6,-113.37 887,-113 942.61,-112.18 1005.48,-111.94 1052.86,-111.91"/>
<polygon fill="#9a32cd" stroke="#9a32cd" points="810.08,-111.23 800.18,-115.02 810.28,-118.23 810.08,-111.23"/>
<text text-anchor="start" x="887" y="-270" font-family="Helvetica,sans-Serif" font-size="10.00"> VALUE_RBF_CPOLYNOMIAL</text>
<text text-anchor="middle" x="961" y="-259" font-family="Helvetica,sans-Serif" font-size="10.00">_C6</text>
<text text-anchor="start" x="887" y="-248" font-family="Helvetica,sans-Serif" font-size="10.00">VALUE_SCALED_CONSISTENT</text>
<text text-anchor="middle" x="961" y="-237" font-family="Helvetica,sans-Serif" font-size="10.00">_VOLUME</text>
<text text-anchor="middle" x="961" y="-226" font-family="Helvetica,sans-Serif" font-size="10.00">VALUE_RBF_MULTIQUADRICS</text>
<text text-anchor="middle" x="961" y="-215" font-family="Helvetica,sans-Serif" font-size="10.00">VALUE_WRITE</text>
<text text-anchor="start" x="887" y="-204" font-family="Helvetica,sans-Serif" font-size="10.00">VALUE_LINEAR_CELL</text>
<text text-anchor="middle" x="961" y="-193" font-family="Helvetica,sans-Serif" font-size="10.00">_INTERPOLATION</text>
<text text-anchor="middle" x="961" y="-182" font-family="Helvetica,sans-Serif" font-size="10.00">VALUE_CONSISTENT</text>
<text text-anchor="middle" x="961" y="-171" font-family="Helvetica,sans-Serif" font-size="10.00">VALUE_READ</text>
<text text-anchor="start" x="887" y="-160" font-family="Helvetica,sans-Serif" font-size="10.00">VALUE_RBF_VOLUME</text>
<text text-anchor="middle" x="961" y="-149" font-family="Helvetica,sans-Serif" font-size="10.00">_SPLINES</text>
<text text-anchor="middle" x="961" y="-138" font-family="Helvetica,sans-Serif" font-size="10.00">VALUE_NEAREST_PROJECTION</text>
<text text-anchor="middle" x="961" y="-127" font-family="Helvetica,sans-Serif" font-size="10.00">ATTR_Z_DEAD</text>
<text text-anchor="middle" x="961" y="-116" font-family="Helvetica,sans-Serif" font-size="10.00">...</text>
</g>
<!-- Node8 -->
<g id="node8" class="node">
<title>Node8</title>
<g id="a_node8"><a xlink:title="STL class.">
<polygon fill="white" stroke="#bfbfbf" points="438,-101 438,-131 542,-131 542,-101 438,-101"/>
<text text-anchor="start" x="446" y="-119" font-family="Helvetica,sans-Serif" font-size="10.00">std::basic_string&lt;</text>
<text text-anchor="middle" x="490" y="-108" font-family="Helvetica,sans-Serif" font-size="10.00"> char &gt;</text>
</a>
</g>
</g>
<!-- Node8&#45;&gt;Node7 -->
<g id="edge7" class="edge">
<title>Node8&#45;&gt;Node7</title>
<path fill="none" stroke="midnightblue" d="M552.42,-116C608.96,-116 690.57,-116 734.91,-116"/>
<polygon fill="midnightblue" stroke="midnightblue" points="552.17,-112.5 542.17,-116 552.17,-119.5 552.17,-112.5"/>
</g>
<!-- Node9 -->
<g id="node9" class="node">
<title>Node9</title>
<g id="a_node9"><a xlink:title=" ">
<polygon fill="white" stroke="#bfbfbf" points="666,-68.5 666,-87.5 869,-87.5 869,-68.5 666,-68.5"/>
<text text-anchor="middle" x="767.5" y="-75.5" font-family="Helvetica,sans-Serif" font-size="10.00">std::shared_ptr&lt; MeshConfiguration &gt;</text>
</a>
</g>
</g>
<!-- Node9&#45;&gt;Node1 -->
<g id="edge8" class="edge">
<title>Node9&#45;&gt;Node1</title>
<path fill="none" stroke="#9a32cd" stroke-dasharray="5,2" d="M879.13,-82.85C927.15,-85.63 983.96,-89.83 1035,-96 1040.76,-96.7 1046.72,-97.51 1052.69,-98.4"/>
<polygon fill="#9a32cd" stroke="#9a32cd" points="879.21,-79.35 869.03,-82.28 878.81,-86.34 879.21,-79.35"/>
<text text-anchor="middle" x="961" y="-99" font-family="Helvetica,sans-Serif" font-size="10.00"> _meshConfig</text>
</g>
<!-- Node10 -->
<g id="node10" class="node">
<title>Node10</title>
<g id="a_node10"><a xlink:title=" ">
<polygon fill="white" stroke="#bfbfbf" points="678,-8.5 678,-49.5 857,-49.5 857,-8.5 678,-8.5"/>
<text text-anchor="start" x="686" y="-37.5" font-family="Helvetica,sans-Serif" font-size="10.00">std::vector&lt; precice</text>
<text text-anchor="start" x="686" y="-26.5" font-family="Helvetica,sans-Serif" font-size="10.00">::mapping::MappingConfiguration</text>
<text text-anchor="middle" x="767.5" y="-15.5" font-family="Helvetica,sans-Serif" font-size="10.00">::ConfiguredMapping &gt;</text>
</a>
</g>
</g>
<!-- Node10&#45;&gt;Node1 -->
<g id="edge9" class="edge">
<title>Node10&#45;&gt;Node1</title>
<path fill="none" stroke="#9a32cd" stroke-dasharray="5,2" d="M867.31,-36.27C918.22,-41.81 980.82,-51.43 1035,-68 1058.09,-75.06 1082.67,-87.17 1100.54,-96.89"/>
<polygon fill="#9a32cd" stroke="#9a32cd" points="867.61,-32.78 857.29,-35.22 866.87,-39.74 867.61,-32.78"/>
<text text-anchor="middle" x="961" y="-71" font-family="Helvetica,sans-Serif" font-size="10.00"> _mappings</text>
</g>
<!-- Node11 -->
<g id="node11" class="node">
<title>Node11</title>
<g id="a_node11"><a xlink:href="structprecice_1_1mapping_1_1MappingConfiguration_1_1ConfiguredMapping.html" target="_top" xlink:title="Configuration data for one mapping.">
<polygon fill="white" stroke="black" points="399,-14 399,-44 581,-44 581,-14 399,-14"/>
<text text-anchor="start" x="407" y="-32" font-family="Helvetica,sans-Serif" font-size="10.00">precice::mapping::Mapping</text>
<text text-anchor="middle" x="490" y="-21" font-family="Helvetica,sans-Serif" font-size="10.00">Configuration::ConfiguredMapping</text>
</a>
</g>
</g>
<!-- Node11&#45;&gt;Node10 -->
<g id="edge10" class="edge">
<title>Node11&#45;&gt;Node10</title>
<path fill="none" stroke="#9a32cd" stroke-dasharray="5,2" d="M591.53,-29C619.84,-29 650.41,-29 677.97,-29"/>
<polygon fill="#9a32cd" stroke="#9a32cd" points="591.21,-25.5 581.21,-29 591.21,-32.5 591.21,-25.5"/>
<text text-anchor="middle" x="623.5" y="-32" font-family="Helvetica,sans-Serif" font-size="10.00"> elements</text>
</g>
<!-- Node12 -->
<g id="node12" class="node">
<title>Node12</title>
<g id="a_node12"><a xlink:title=" ">
<polygon fill="white" stroke="#bfbfbf" points="167,-38.5 167,-57.5 305,-57.5 305,-38.5 167,-38.5"/>
<text text-anchor="middle" x="236" y="-45.5" font-family="Helvetica,sans-Serif" font-size="10.00">std::shared_ptr&lt; Mesh &gt;</text>
</a>
</g>
</g>
<!-- Node12&#45;&gt;Node11 -->
<g id="edge11" class="edge">
<title>Node12&#45;&gt;Node11</title>
<path fill="none" stroke="#9a32cd" stroke-dasharray="5,2" d="M315.19,-42.1C341.72,-40.1 371.58,-37.85 398.96,-35.79"/>
<polygon fill="#9a32cd" stroke="#9a32cd" points="314.9,-38.62 305.19,-42.86 315.43,-45.6 314.9,-38.62"/>
<text text-anchor="middle" x="356" y="-55" font-family="Helvetica,sans-Serif" font-size="10.00"> toMesh</text>
<text text-anchor="middle" x="356" y="-44" font-family="Helvetica,sans-Serif" font-size="10.00">fromMesh</text>
</g>
<!-- Node13 -->
<g id="node13" class="node">
<title>Node13</title>
<g id="a_node13"><a xlink:title=" ">
<polygon fill="white" stroke="#bfbfbf" points="159,-0.5 159,-19.5 313,-19.5 313,-0.5 159,-0.5"/>
<text text-anchor="middle" x="236" y="-7.5" font-family="Helvetica,sans-Serif" font-size="10.00">std::shared_ptr&lt; Mapping &gt;</text>
</a>
</g>
</g>
<!-- Node13&#45;&gt;Node11 -->
<g id="edge12" class="edge">
<title>Node13&#45;&gt;Node11</title>
<path fill="none" stroke="#9a32cd" stroke-dasharray="5,2" d="M323.55,-16.53C347.84,-18.36 374.29,-20.35 398.78,-22.2"/>
<polygon fill="#9a32cd" stroke="#9a32cd" points="323.53,-13.01 313.29,-15.75 323,-19.99 323.53,-13.01"/>
<text text-anchor="middle" x="356" y="-24" font-family="Helvetica,sans-Serif" font-size="10.00"> mapping</text>
</g>
</g>
</svg>
        <g id="navigator" transform="translate(0 0)" fill="#404254">
                <rect fill="#f2f5e9" fill-opacity="0.5" stroke="#606060" stroke-width=".5" x="0" y="0" width="60" height="60"/>
                <use id="zoomplus" xlink:href="#zoomPlus" x="17" y="9" onmousedown="handleZoom(evt,'in')"/>
                <use id="zoomminus" xlink:href="#zoomMin" x="42" y="9" onmousedown="handleZoom(evt,'out')"/>
                <use id="reset" xlink:href="#resetDef" x="30" y="36" onmousedown="handleReset()"/>
                <g id="arrowUp" xlink:href="#dirArrow" transform="translate(30 24)" onmousedown="handlePan(0,-1)">
                  <use xlink:href="#rim" fill="#404040">
                        <set attributeName="fill" to="#808080" begin="arrowUp.mouseover" end="arrowUp.mouseout"/>
                  </use>
                  <path fill="none" stroke="white" stroke-width="1.5" d="M0,-3.0v7 M-2.5,-0.5L0,-3.0L2.5,-0.5"/>
                </g>
                <g id="arrowRight" xlink:href="#dirArrow" transform="rotate(90) translate(36 -43)" onmousedown="handlePan(1,0)">
                  <use xlink:href="#rim" fill="#404040">
                        <set attributeName="fill" to="#808080" begin="arrowRight.mouseover" end="arrowRight.mouseout"/>
                  </use>
                  <path fill="none" stroke="white" stroke-width="1.5" d="M0,-3.0v7 M-2.5,-0.5L0,-3.0L2.5,-0.5"/>
                </g>
                <g id="arrowDown" xlink:href="#dirArrow" transform="rotate(180) translate(-30 -48)" onmousedown="handlePan(0,1)">
                  <use xlink:href="#rim" fill="#404040">
                        <set attributeName="fill" to="#808080" begin="arrowDown.mouseover" end="arrowDown.mouseout"/>
                  </use>
                  <path fill="none" stroke="white" stroke-width="1.5" d="M0,-3.0v7 M-2.5,-0.5L0,-3.0L2.5,-0.5"/>
                </g>
                <g id="arrowLeft" xlink:href="#dirArrow" transform="rotate(270) translate(-36 17)" onmousedown="handlePan(-1,0)">
                  <use xlink:href="#rim" fill="#404040">
                        <set attributeName="fill" to="#808080" begin="arrowLeft.mouseover" end="arrowLeft.mouseout"/>
                  </use>
                  <path fill="none" stroke="white" stroke-width="1.5" d="M0,-3.0v7 M-2.5,-0.5L0,-3.0L2.5,-0.5"/>
                </g>
        </g>
        <svg viewBox="0 0 15 15" width="100%" height="30px" preserveAspectRatio="xMaxYMin meet">
         <g id="arrow_out" transform="scale(0.3 0.3)">
          <a xlink:href="classprecice_1_1mapping_1_1MappingConfiguration__coll__graph_org.svg" target="_base">
           <rect id="button" ry="5" rx="5" y="6" x="6" height="38" width="38"
                fill="#f2f5e9" fill-opacity="0.5" stroke="#606060" stroke-width="1.0"/>
           <path id="arrow"
             d="M 11.500037,31.436501 C 11.940474,20.09759 22.043105,11.32322 32.158766,21.979434 L 37.068811,17.246167 C 37.068811,17.246167 37.088388,32 37.088388,32 L 22.160133,31.978069 C 22.160133,31.978069 26.997745,27.140456 26.997745,27.140456 C 18.528582,18.264221 13.291696,25.230495 11.500037,31.436501 z"
             style="fill:#404040;"/>
          </a>
         </g>
        </svg>
</svg>
