<?xml version="1.0" encoding="UTF-8" standalone="no"?>
<!DOCTYPE svg PUBLIC "-//W3C//DTD SVG 1.1//EN"
 "http://www.w3.org/Graphics/SVG/1.1/DTD/svg11.dtd">
<!-- Generated by graphviz version 2.43.0 (0)
 -->
<!-- Title: precice::mapping::PartitionOfUnityMapping::computeMapping Pages: 1 -->
<!--zoomable 615 -->
<svg id="main" version="1.1" xmlns="http://www.w3.org/2000/svg" xmlns:xlink="http://www.w3.org/1999/xlink" xml:space="preserve" onload="init(evt)">
<style type="text/css"><![CDATA[
.edge:hover path { stroke: red; }
.edge:hover polygon { stroke: red; fill: red; }
]]></style>
<script type="text/javascript"><![CDATA[
var edges = document.getElementsByTagName('g');
if (edges && edges.length) {
  for (var i=0;i<edges.length;i++) {
    if (edges[i].id.substr(0,4)=='edge') {
      edges[i].setAttribute('class','edge');
    }
  }
}
]]></script>
        <defs>
                <circle id="rim" cx="0" cy="0" r="7"/>
                <circle id="rim2" cx="0" cy="0" r="3.5"/>
                <g id="zoomPlus">
                        <use xlink:href="#rim" fill="#404040">
                                <set attributeName="fill" to="#808080" begin="zoomplus.mouseover" end="zoomplus.mouseout"/>
                        </use>
                        <path d="M-4,0h8M0,-4v8" fill="none" stroke="white" stroke-width="1.5" pointer-events="none"/>
                </g>
                <g id="zoomMin">
                        <use xlink:href="#rim" fill="#404040">
                                <set attributeName="fill" to="#808080" begin="zoomminus.mouseover" end="zoomminus.mouseout"/>
                        </use>
                        <path d="M-4,0h8" fill="none" stroke="white" stroke-width="1.5" pointer-events="none"/>
                </g>
                <g id="dirArrow">
                        <path fill="none" stroke="white" stroke-width="1.5" d="M0,-3.0v7 M-2.5,-0.5L0,-3.0L2.5,-0.5"/>
                </g>
               <g id="resetDef">
                       <use xlink:href="#rim2" fill="#404040">
                               <set attributeName="fill" to="#808080" begin="reset.mouseover" end="reset.mouseout"/>
                       </use>
               </g>
        </defs>

<script type="text/javascript">
var viewWidth = 956;
var viewHeight = 615;
var sectionId = 'dynsection-3';
</script>
<script xlink:href="svgpan.js"/>
<svg id="graph" class="graph">
<g id="viewport">
<title>precice::mapping::PartitionOfUnityMapping::computeMapping</title>
<polygon fill="white" stroke="transparent" points="-4,4 -4,-611 952,-611 952,4 -4,4"/>
<!-- Node1 -->
<g id="node1" class="node">
<title>Node1</title>
<g id="a_node1"><a xlink:title=" ">
<polygon fill="#bfbfbf" stroke="black" points="0,-243.5 0,-273.5 187,-273.5 187,-243.5 0,-243.5"/>
<text text-anchor="start" x="8" y="-261.5" font-family="Helvetica,sans-Serif" font-size="10.00">precice::mapping::Partition</text>
<text text-anchor="middle" x="93.5" y="-250.5" font-family="Helvetica,sans-Serif" font-size="10.00">OfUnityMapping::computeMapping</text>
</a>
</g>
</g>
<!-- Node2 -->
<g id="node2" class="node">
<title>Node2</title>
<g id="a_node2"><a xlink:href="classprecice_1_1profiling_1_1Event.html#ad2acc4896e1fc5cc57a06b07ccd3da1d" target="_top" xlink:title="Adds named integer data, associated to an event.">
<polygon fill="white" stroke="black" points="250,-527.5 250,-557.5 348,-557.5 348,-527.5 250,-527.5"/>
<text text-anchor="start" x="258" y="-545.5" font-family="Helvetica,sans-Serif" font-size="10.00">precice::profiling</text>
<text text-anchor="middle" x="299" y="-534.5" font-family="Helvetica,sans-Serif" font-size="10.00">::Event::addData</text>
</a>
</g>
</g>
<!-- Node1&#45;&gt;Node2 -->
<g id="edge1" class="edge">
<title>Node1&#45;&gt;Node2</title>
<path fill="none" stroke="midnightblue" d="M97.62,-273.67C107.56,-318.13 142.67,-449.35 223,-518.5 228.15,-522.93 234.13,-526.55 240.42,-529.5"/>
<polygon fill="midnightblue" stroke="midnightblue" points="239.22,-532.79 249.8,-533.36 241.89,-526.32 239.22,-532.79"/>
</g>
<!-- Node5 -->
<g id="node5" class="node">
<title>Node5</title>
<g id="a_node5"><a xlink:href="classprecice_1_1mesh_1_1Mesh.html#a988baa22e8e6fcaa9efc64e7943cb2fc" target="_top" xlink:title="Computes the boundingBox for the vertices.">
<polygon fill="white" stroke="black" points="234,-390.5 234,-420.5 364,-420.5 364,-390.5 234,-390.5"/>
<text text-anchor="start" x="242" y="-408.5" font-family="Helvetica,sans-Serif" font-size="10.00">precice::mesh::Mesh</text>
<text text-anchor="middle" x="299" y="-397.5" font-family="Helvetica,sans-Serif" font-size="10.00">::computeBoundingBox</text>
</a>
</g>
</g>
<!-- Node1&#45;&gt;Node5 -->
<g id="edge4" class="edge">
<title>Node1&#45;&gt;Node5</title>
<path fill="none" stroke="midnightblue" d="M106.32,-273.64C127.19,-299.4 173.1,-351.82 223,-381.5 225.82,-383.18 228.77,-384.75 231.8,-386.23"/>
<polygon fill="midnightblue" stroke="midnightblue" points="230.53,-389.49 241.09,-390.36 233.38,-383.1 230.53,-389.49"/>
</g>
<!-- Node9 -->
<g id="node9" class="node">
<title>Node9</title>
<g id="a_node9"><a xlink:href="namespaceprecice_1_1mapping_1_1impl.html#aa72bfa1b2fbe35a502f820d5da353800" target="_top" xlink:title="Creates a clustering as a collection of Vertices (representing the cluster centers) and a cluster rad...">
<polygon fill="white" stroke="black" points="235,-341.5 235,-371.5 363,-371.5 363,-341.5 235,-341.5"/>
<text text-anchor="start" x="243" y="-359.5" font-family="Helvetica,sans-Serif" font-size="10.00">precice::mapping::impl</text>
<text text-anchor="middle" x="299" y="-348.5" font-family="Helvetica,sans-Serif" font-size="10.00">::createClustering</text>
</a>
</g>
</g>
<!-- Node1&#45;&gt;Node9 -->
<g id="edge8" class="edge">
<title>Node1&#45;&gt;Node9</title>
<path fill="none" stroke="midnightblue" d="M117.4,-273.69C142.51,-289.86 184.38,-315.43 223,-332.5 227.31,-334.4 231.81,-336.23 236.38,-337.96"/>
<polygon fill="midnightblue" stroke="midnightblue" points="235.23,-341.27 245.82,-341.39 237.62,-334.69 235.23,-341.27"/>
</g>
<!-- Node17 -->
<g id="node17" class="node">
<title>Node17</title>
<g id="a_node17"><a xlink:href="classprecice_1_1mapping_1_1SphericalVertexCluster.html#a63114a3344184d01047d26edf4375488" target="_top" xlink:title=" ">
<polygon fill="white" stroke="black" points="223,-292.5 223,-322.5 375,-322.5 375,-292.5 223,-292.5"/>
<text text-anchor="start" x="231" y="-310.5" font-family="Helvetica,sans-Serif" font-size="10.00">precice::mapping::Spherical</text>
<text text-anchor="middle" x="299" y="-299.5" font-family="Helvetica,sans-Serif" font-size="10.00">VertexCluster::empty</text>
</a>
</g>
</g>
<!-- Node1&#45;&gt;Node17 -->
<g id="edge20" class="edge">
<title>Node1&#45;&gt;Node17</title>
<path fill="none" stroke="midnightblue" d="M156.94,-273.53C178.72,-278.78 203.34,-284.71 225.84,-290.13"/>
<polygon fill="midnightblue" stroke="midnightblue" points="225.14,-293.56 235.68,-292.49 226.78,-286.75 225.14,-293.56"/>
</g>
<!-- Node18 -->
<g id="node18" class="node">
<title>Node18</title>
<g id="a_node18"><a xlink:href="classprecice_1_1mesh_1_1Mesh.html#ad74be4ce192152dbb4ac6df72320091d" target="_top" xlink:title="Returns the bounding box of the mesh.">
<polygon fill="white" stroke="black" points="240.5,-243.5 240.5,-273.5 357.5,-273.5 357.5,-243.5 240.5,-243.5"/>
<text text-anchor="start" x="248.5" y="-261.5" font-family="Helvetica,sans-Serif" font-size="10.00">precice::mesh::Mesh</text>
<text text-anchor="middle" x="299" y="-250.5" font-family="Helvetica,sans-Serif" font-size="10.00">::getBoundingBox</text>
</a>
</g>
</g>
<!-- Node1&#45;&gt;Node18 -->
<g id="edge21" class="edge">
<title>Node1&#45;&gt;Node18</title>
<path fill="none" stroke="midnightblue" d="M187.02,-258.5C201.49,-258.5 216.22,-258.5 230.01,-258.5"/>
<polygon fill="midnightblue" stroke="midnightblue" points="230.36,-262 240.36,-258.5 230.36,-255 230.36,-262"/>
</g>
<!-- Node19 -->
<g id="node19" class="node">
<title>Node19</title>
<g id="a_node19"><a xlink:href="classprecice_1_1mesh_1_1Vertex.html#a2f62d7ef09981e963638cb3f2f6a9603" target="_top" xlink:title="Returns the unique (among vertices of one mesh on one processor) ID of the vertex.">
<polygon fill="white" stroke="black" points="238,-194.5 238,-224.5 360,-224.5 360,-194.5 238,-194.5"/>
<text text-anchor="start" x="246" y="-212.5" font-family="Helvetica,sans-Serif" font-size="10.00">precice::mesh::Vertex</text>
<text text-anchor="middle" x="299" y="-201.5" font-family="Helvetica,sans-Serif" font-size="10.00">::getID</text>
</a>
</g>
</g>
<!-- Node1&#45;&gt;Node19 -->
<g id="edge22" class="edge">
<title>Node1&#45;&gt;Node19</title>
<path fill="none" stroke="midnightblue" d="M156.94,-243.47C179.43,-238.05 204.95,-231.91 228.04,-226.35"/>
<polygon fill="midnightblue" stroke="midnightblue" points="228.87,-229.75 237.77,-224 227.23,-222.94 228.87,-229.75"/>
</g>
<!-- Node20 -->
<g id="node20" class="node">
<title>Node20</title>
<g id="a_node20"><a xlink:href="namespaceprecice_1_1utils_1_1petsc.html#a931b5a402aa2dec020afa7af6167d67e" target="_top" xlink:title=" ">
<polygon fill="white" stroke="black" points="243.5,-145.5 243.5,-175.5 354.5,-175.5 354.5,-145.5 243.5,-145.5"/>
<text text-anchor="start" x="251.5" y="-163.5" font-family="Helvetica,sans-Serif" font-size="10.00">precice::utils::petsc</text>
<text text-anchor="middle" x="299" y="-152.5" font-family="Helvetica,sans-Serif" font-size="10.00">::getName</text>
</a>
</g>
</g>
<!-- Node1&#45;&gt;Node20 -->
<g id="edge23" class="edge">
<title>Node1&#45;&gt;Node20</title>
<path fill="none" stroke="midnightblue" d="M117.93,-243.34C143.15,-227.46 184.8,-202.52 223,-185.5 228.01,-183.27 233.29,-181.12 238.63,-179.09"/>
<polygon fill="midnightblue" stroke="midnightblue" points="240.07,-182.29 248.26,-175.56 237.66,-175.71 240.07,-182.29"/>
</g>
<!-- Node21 -->
<g id="node21" class="node">
<title>Node21</title>
<g id="a_node21"><a xlink:href="classprecice_1_1utils_1_1IntraComm.html#a2c2aa5e2fd6cc26797b7fdee0b0b25ac" target="_top" xlink:title="Current rank.">
<polygon fill="white" stroke="black" points="229,-96.5 229,-126.5 369,-126.5 369,-96.5 229,-96.5"/>
<text text-anchor="start" x="237" y="-114.5" font-family="Helvetica,sans-Serif" font-size="10.00">precice::utils::IntraComm</text>
<text text-anchor="middle" x="299" y="-103.5" font-family="Helvetica,sans-Serif" font-size="10.00">::getRank</text>
</a>
</g>
</g>
<!-- Node1&#45;&gt;Node21 -->
<g id="edge24" class="edge">
<title>Node1&#45;&gt;Node21</title>
<path fill="none" stroke="midnightblue" d="M106.72,-243.14C127.85,-217.56 173.68,-166.11 223,-136.5 226.57,-134.35 230.36,-132.37 234.25,-130.53"/>
<polygon fill="midnightblue" stroke="midnightblue" points="235.7,-133.71 243.47,-126.51 232.91,-127.29 235.7,-133.71"/>
</g>
<!-- Node22 -->
<g id="node22" class="node">
<title>Node22</title>
<g id="a_node22"><a xlink:href="classprecice_1_1query_1_1Index.html#a7ed592d7ca6c6a1e2bb7bd33f8f6f76d" target="_top" xlink:title="Return all the vertices inside the box formed by vertex and radius (boundary exclusive)">
<polygon fill="white" stroke="black" points="236.5,-47.5 236.5,-77.5 361.5,-77.5 361.5,-47.5 236.5,-47.5"/>
<text text-anchor="start" x="244.5" y="-65.5" font-family="Helvetica,sans-Serif" font-size="10.00">precice::query::Index</text>
<text text-anchor="middle" x="299" y="-54.5" font-family="Helvetica,sans-Serif" font-size="10.00">::getVerticesInsideBox</text>
</a>
</g>
</g>
<!-- Node1&#45;&gt;Node22 -->
<g id="edge25" class="edge">
<title>Node1&#45;&gt;Node22</title>
<path fill="none" stroke="midnightblue" d="M101.86,-243.27C118.65,-210.06 163.03,-130.68 223,-87.5 225.67,-85.58 228.5,-83.79 231.44,-82.14"/>
<polygon fill="midnightblue" stroke="midnightblue" points="233.15,-85.19 240.51,-77.57 230,-78.94 233.15,-85.19"/>
</g>
<!-- Node25 -->
<g id="node25" class="node">
<title>Node25</title>
<g id="a_node25"><a xlink:href="classprecice_1_1mesh_1_1Mesh.html#a70d28ab188762edbe9a7b5b8439e9906" target="_top" xlink:title="Returns modifieable container holding all vertices.">
<polygon fill="white" stroke="black" points="430,-0.5 430,-30.5 547,-30.5 547,-0.5 430,-0.5"/>
<text text-anchor="start" x="438" y="-18.5" font-family="Helvetica,sans-Serif" font-size="10.00">precice::mesh::Mesh</text>
<text text-anchor="middle" x="488.5" y="-7.5" font-family="Helvetica,sans-Serif" font-size="10.00">::vertices</text>
</a>
</g>
</g>
<!-- Node1&#45;&gt;Node25 -->
<g id="edge33" class="edge">
<title>Node1&#45;&gt;Node25</title>
<path fill="none" stroke="midnightblue" d="M98.13,-243.31C108.9,-201.89 144.96,-86.81 223,-37.5 281.7,-0.4 362.95,0.64 419.86,-4.78"/>
<polygon fill="midnightblue" stroke="midnightblue" points="419.53,-8.26 429.84,-5.82 420.25,-1.3 419.53,-8.26"/>
</g>
<!-- Node26 -->
<g id="node26" class="node">
<title>Node26</title>
<g id="a_node26"><a xlink:href="classprecice_1_1profiling_1_1Event.html#a4218cc284dfa09a754f4bf510e574066" target="_top" xlink:title="Stops a running event.">
<polygon fill="white" stroke="black" points="250,-478.5 250,-508.5 348,-508.5 348,-478.5 250,-478.5"/>
<text text-anchor="start" x="258" y="-496.5" font-family="Helvetica,sans-Serif" font-size="10.00">precice::profiling</text>
<text text-anchor="middle" x="299" y="-485.5" font-family="Helvetica,sans-Serif" font-size="10.00">::Event::stop</text>
</a>
</g>
</g>
<!-- Node1&#45;&gt;Node26 -->
<g id="edge29" class="edge">
<title>Node1&#45;&gt;Node26</title>
<path fill="none" stroke="midnightblue" d="M104.1,-273.66C124.16,-304.78 172.83,-377.39 223,-430.5 237.15,-445.48 254.72,-460.4 269.29,-471.96"/>
<polygon fill="midnightblue" stroke="midnightblue" points="267.44,-474.95 277.48,-478.35 271.75,-469.44 267.44,-474.95"/>
</g>
<!-- Node3 -->
<g id="node3" class="node">
<title>Node3</title>
<g id="a_node3"><a xlink:href="classprecice_1_1profiling_1_1EventRegistry.html#a0a1555e6211794ef23fcaf7a4f41950d" target="_top" xlink:title="Returns the only instance (singleton) of the EventRegistry class.">
<polygon fill="white" stroke="black" points="420,-527.5 420,-557.5 557,-557.5 557,-527.5 420,-527.5"/>
<text text-anchor="start" x="428" y="-545.5" font-family="Helvetica,sans-Serif" font-size="10.00">precice::profiling</text>
<text text-anchor="middle" x="488.5" y="-534.5" font-family="Helvetica,sans-Serif" font-size="10.00">::EventRegistry::instance</text>
</a>
</g>
</g>
<!-- Node2&#45;&gt;Node3 -->
<g id="edge2" class="edge">
<title>Node2&#45;&gt;Node3</title>
<path fill="none" stroke="midnightblue" d="M348.29,-542.5C367.03,-542.5 388.97,-542.5 409.82,-542.5"/>
<polygon fill="midnightblue" stroke="midnightblue" points="409.95,-546 419.95,-542.5 409.95,-539 409.95,-546"/>
</g>
<!-- Node4 -->
<g id="node4" class="node">
<title>Node4</title>
<g id="a_node4"><a xlink:href="namespaceprecice_1_1profiling.html#a48977ee19475dd567366722467c67aae" target="_top" xlink:title=" ">
<polygon fill="white" stroke="black" points="439.5,-576.5 439.5,-606.5 537.5,-606.5 537.5,-576.5 439.5,-576.5"/>
<text text-anchor="start" x="447.5" y="-594.5" font-family="Helvetica,sans-Serif" font-size="10.00">precice::profiling</text>
<text text-anchor="middle" x="488.5" y="-583.5" font-family="Helvetica,sans-Serif" font-size="10.00">::toEventClass</text>
</a>
</g>
</g>
<!-- Node2&#45;&gt;Node4 -->
<g id="edge3" class="edge">
<title>Node2&#45;&gt;Node4</title>
<path fill="none" stroke="midnightblue" d="M348.29,-555.12C373.11,-561.61 403.54,-569.56 429.62,-576.37"/>
<polygon fill="midnightblue" stroke="midnightblue" points="428.82,-579.78 439.38,-578.92 430.59,-573.01 428.82,-579.78"/>
</g>
<!-- Node6 -->
<g id="node6" class="node">
<title>Node6</title>
<g id="a_node6"><a xlink:href="classprecice_1_1mesh_1_1BoundingBox.html#a7aeb328ca8291253c4fd22d0d4cb0a18" target="_top" xlink:title="Expand bounding box using another bounding box.">
<polygon fill="white" stroke="black" points="411,-390.5 411,-420.5 566,-420.5 566,-390.5 411,-390.5"/>
<text text-anchor="start" x="419" y="-408.5" font-family="Helvetica,sans-Serif" font-size="10.00">precice::mesh::BoundingBox</text>
<text text-anchor="middle" x="488.5" y="-397.5" font-family="Helvetica,sans-Serif" font-size="10.00">::expandBy</text>
</a>
</g>
</g>
<!-- Node5&#45;&gt;Node6 -->
<g id="edge5" class="edge">
<title>Node5&#45;&gt;Node6</title>
<path fill="none" stroke="midnightblue" d="M364,-405.5C375.77,-405.5 388.24,-405.5 400.55,-405.5"/>
<polygon fill="midnightblue" stroke="midnightblue" points="400.83,-409 410.83,-405.5 400.83,-402 400.83,-409"/>
</g>
<!-- Node8 -->
<g id="node8" class="node">
<title>Node8</title>
<g id="a_node8"><a xlink:href="classprecice_1_1mesh_1_1BoundingBox.html#a93ebcb8b5754683c5042d63ce9042e9d" target="_top" xlink:title=" ">
<polygon fill="white" stroke="black" points="793,-341.5 793,-371.5 948,-371.5 948,-341.5 793,-341.5"/>
<text text-anchor="start" x="801" y="-359.5" font-family="Helvetica,sans-Serif" font-size="10.00">precice::mesh::BoundingBox</text>
<text text-anchor="middle" x="870.5" y="-348.5" font-family="Helvetica,sans-Serif" font-size="10.00">::isDefault</text>
</a>
</g>
</g>
<!-- Node5&#45;&gt;Node8 -->
<g id="edge7" class="edge">
<title>Node5&#45;&gt;Node8</title>
<path fill="none" stroke="midnightblue" d="M355.95,-420.53C443.55,-441.43 617.51,-472.26 757,-430.5 790.96,-420.33 824.16,-396.25 845.58,-378.3"/>
<polygon fill="midnightblue" stroke="midnightblue" points="847.89,-380.93 853.19,-371.76 843.33,-375.62 847.89,-380.93"/>
</g>
<!-- Node7 -->
<g id="node7" class="node">
<title>Node7</title>
<g id="a_node7"><a xlink:href="classprecice_1_1mesh_1_1BoundingBox.html#ad500309dcbe440703ef71dfcc7a2a394" target="_top" xlink:title="Getter dimension of the bounding box.">
<polygon fill="white" stroke="black" points="602,-390.5 602,-420.5 757,-420.5 757,-390.5 602,-390.5"/>
<text text-anchor="start" x="610" y="-408.5" font-family="Helvetica,sans-Serif" font-size="10.00">precice::mesh::BoundingBox</text>
<text text-anchor="middle" x="679.5" y="-397.5" font-family="Helvetica,sans-Serif" font-size="10.00">::getDimension</text>
</a>
</g>
</g>
<!-- Node6&#45;&gt;Node7 -->
<g id="edge6" class="edge">
<title>Node6&#45;&gt;Node7</title>
<path fill="none" stroke="midnightblue" d="M566.1,-405.5C574.56,-405.5 583.22,-405.5 591.79,-405.5"/>
<polygon fill="midnightblue" stroke="midnightblue" points="591.79,-409 601.79,-405.5 591.79,-402 591.79,-409"/>
</g>
<!-- Node9&#45;&gt;Node6 -->
<g id="edge16" class="edge">
<title>Node9&#45;&gt;Node6</title>
<path fill="none" stroke="midnightblue" d="M357.53,-371.53C377.33,-376.71 399.67,-382.55 420.18,-387.91"/>
<polygon fill="midnightblue" stroke="midnightblue" points="419.52,-391.35 430.08,-390.49 421.29,-384.58 419.52,-391.35"/>
</g>
<!-- Node10 -->
<g id="node10" class="node">
<title>Node10</title>
<g id="a_node10"><a xlink:href="classprecice_1_1mesh_1_1BoundingBox.html#ae2336cadbb2424c27b1bdb36f343e12b" target="_top" xlink:title="Returns the Center Of Gravity of the mesh.">
<polygon fill="white" stroke="black" points="602,-243.5 602,-273.5 757,-273.5 757,-243.5 602,-243.5"/>
<text text-anchor="start" x="610" y="-261.5" font-family="Helvetica,sans-Serif" font-size="10.00">precice::mesh::BoundingBox</text>
<text text-anchor="middle" x="679.5" y="-250.5" font-family="Helvetica,sans-Serif" font-size="10.00">::center</text>
</a>
</g>
</g>
<!-- Node9&#45;&gt;Node10 -->
<g id="edge9" class="edge">
<title>Node9&#45;&gt;Node10</title>
<path fill="none" stroke="midnightblue" d="M363.18,-341.98C367.53,-339.33 371.55,-336.2 375,-332.5 420.88,-283.31 358.08,-227.02 411,-185.5 465.2,-142.97 499.94,-165.95 566,-185.5 599.7,-195.48 632.78,-219.07 654.24,-236.75"/>
<polygon fill="midnightblue" stroke="midnightblue" points="652.26,-239.66 662.15,-243.44 656.78,-234.31 652.26,-239.66"/>
</g>
<!-- Node11 -->
<g id="node11" class="node">
<title>Node11</title>
<g id="a_node11"><a xlink:href="namespaceprecice_1_1mapping_1_1impl.html#a7ccf242183b04a7f69c3bd8cd2d5f5eb" target="_top" xlink:title="Computes an estimate for the cluster radius, which results in approximately verticesPerCluster vertic...">
<polygon fill="white" stroke="black" points="421.5,-341.5 421.5,-371.5 555.5,-371.5 555.5,-341.5 421.5,-341.5"/>
<text text-anchor="start" x="429.5" y="-359.5" font-family="Helvetica,sans-Serif" font-size="10.00">precice::mapping::impl</text>
<text text-anchor="middle" x="488.5" y="-348.5" font-family="Helvetica,sans-Serif" font-size="10.00">::estimateClusterRadius</text>
</a>
</g>
</g>
<!-- Node9&#45;&gt;Node11 -->
<g id="edge11" class="edge">
<title>Node9&#45;&gt;Node11</title>
<path fill="none" stroke="midnightblue" d="M363.22,-356.5C378.57,-356.5 395.14,-356.5 411.03,-356.5"/>
<polygon fill="midnightblue" stroke="midnightblue" points="411.35,-360 421.35,-356.5 411.35,-353 411.35,-360"/>
</g>
<!-- Node14 -->
<g id="node14" class="node">
<title>Node14</title>
<g id="a_node14"><a xlink:href="classprecice_1_1mesh_1_1BoundingBox.html#a600045b8e5d29f1e07af653e25881a7d" target="_top" xlink:title="returns the maximum length of the bounding box in any dimension">
<polygon fill="white" stroke="black" points="411,-292.5 411,-322.5 566,-322.5 566,-292.5 411,-292.5"/>
<text text-anchor="start" x="419" y="-310.5" font-family="Helvetica,sans-Serif" font-size="10.00">precice::mesh::BoundingBox</text>
<text text-anchor="middle" x="488.5" y="-299.5" font-family="Helvetica,sans-Serif" font-size="10.00">::longestEdgeLength</text>
</a>
</g>
</g>
<!-- Node9&#45;&gt;Node14 -->
<g id="edge17" class="edge">
<title>Node9&#45;&gt;Node14</title>
<path fill="none" stroke="midnightblue" d="M357.53,-341.47C377.33,-336.29 399.67,-330.45 420.18,-325.09"/>
<polygon fill="midnightblue" stroke="midnightblue" points="421.29,-328.42 430.08,-322.51 419.52,-321.65 421.29,-328.42"/>
</g>
<!-- Node15 -->
<g id="node15" class="node">
<title>Node15</title>
<g id="a_node15"><a xlink:href="classprecice_1_1mesh_1_1BoundingBox.html#a14cd5dbd1775876bf5795845699557d8" target="_top" xlink:title="the max corner of the bounding box">
<polygon fill="white" stroke="black" points="411,-243.5 411,-273.5 566,-273.5 566,-243.5 411,-243.5"/>
<text text-anchor="start" x="419" y="-261.5" font-family="Helvetica,sans-Serif" font-size="10.00">precice::mesh::BoundingBox</text>
<text text-anchor="middle" x="488.5" y="-250.5" font-family="Helvetica,sans-Serif" font-size="10.00">::maxCorner</text>
</a>
</g>
</g>
<!-- Node9&#45;&gt;Node15 -->
<g id="edge18" class="edge">
<title>Node9&#45;&gt;Node15</title>
<path fill="none" stroke="midnightblue" d="M359.45,-341.43C364.94,-338.89 370.23,-335.93 375,-332.5 396.94,-316.72 389.11,-299.34 411,-283.5 413.66,-281.57 416.48,-279.79 419.4,-278.14"/>
<polygon fill="midnightblue" stroke="midnightblue" points="421.08,-281.22 428.43,-273.58 417.92,-274.97 421.08,-281.22"/>
</g>
<!-- Node16 -->
<g id="node16" class="node">
<title>Node16</title>
<g id="a_node16"><a xlink:href="classprecice_1_1mesh_1_1BoundingBox.html#a194a2fb80fd24fad4555df2a2453dac5" target="_top" xlink:title="the min corner of the bounding box">
<polygon fill="white" stroke="black" points="411,-194.5 411,-224.5 566,-224.5 566,-194.5 411,-194.5"/>
<text text-anchor="start" x="419" y="-212.5" font-family="Helvetica,sans-Serif" font-size="10.00">precice::mesh::BoundingBox</text>
<text text-anchor="middle" x="488.5" y="-201.5" font-family="Helvetica,sans-Serif" font-size="10.00">::minCorner</text>
</a>
</g>
</g>
<!-- Node9&#45;&gt;Node16 -->
<g id="edge19" class="edge">
<title>Node9&#45;&gt;Node16</title>
<path fill="none" stroke="midnightblue" d="M363.1,-341.34C367.41,-338.83 371.45,-335.91 375,-332.5 408.5,-300.39 377.6,-266.71 411,-234.5 412.63,-232.92 414.37,-231.45 416.19,-230.06"/>
<polygon fill="midnightblue" stroke="midnightblue" points="418.14,-232.97 424.61,-224.57 414.32,-227.1 418.14,-232.97"/>
</g>
<!-- Node10&#45;&gt;Node8 -->
<g id="edge10" class="edge">
<title>Node10&#45;&gt;Node8</title>
<path fill="none" stroke="midnightblue" d="M732.65,-273.52C740.94,-276.48 749.31,-279.83 757,-283.5 787.42,-298.03 819.41,-319.48 841.47,-335.37"/>
<polygon fill="midnightblue" stroke="midnightblue" points="839.56,-338.31 849.7,-341.37 843.69,-332.65 839.56,-338.31"/>
</g>
<!-- Node11&#45;&gt;Node10 -->
<g id="edge12" class="edge">
<title>Node11&#45;&gt;Node10</title>
<path fill="none" stroke="midnightblue" d="M550.53,-341.35C555.99,-338.83 561.24,-335.9 566,-332.5 587.98,-316.79 580.11,-299.34 602,-283.5 604.66,-281.57 607.48,-279.79 610.4,-278.14"/>
<polygon fill="midnightblue" stroke="midnightblue" points="612.08,-281.22 619.43,-273.58 608.92,-274.97 612.08,-281.22"/>
</g>
<!-- Node12 -->
<g id="node12" class="node">
<title>Node12</title>
<g id="a_node12"><a xlink:href="classprecice_1_1mesh_1_1BoundingBox.html#a47cc0759796a01675620119783a11d8d" target="_top" xlink:title="Check if every dimension&#39;s length is equal to zero.">
<polygon fill="white" stroke="black" points="602,-341.5 602,-371.5 757,-371.5 757,-341.5 602,-341.5"/>
<text text-anchor="start" x="610" y="-359.5" font-family="Helvetica,sans-Serif" font-size="10.00">precice::mesh::BoundingBox</text>
<text text-anchor="middle" x="679.5" y="-348.5" font-family="Helvetica,sans-Serif" font-size="10.00">::empty</text>
</a>
</g>
</g>
<!-- Node11&#45;&gt;Node12 -->
<g id="edge13" class="edge">
<title>Node11&#45;&gt;Node12</title>
<path fill="none" stroke="midnightblue" d="M555.6,-356.5C567.25,-356.5 579.52,-356.5 591.63,-356.5"/>
<polygon fill="midnightblue" stroke="midnightblue" points="591.75,-360 601.75,-356.5 591.75,-353 591.75,-360"/>
</g>
<!-- Node13 -->
<g id="node13" class="node">
<title>Node13</title>
<g id="a_node13"><a xlink:href="classprecice_1_1mesh_1_1BoundingBox.html#afe975ebb34d491fc30bc9bce4ca2ed5f" target="_top" xlink:title="returns the edge length of a specific axis">
<polygon fill="white" stroke="black" points="602,-292.5 602,-322.5 757,-322.5 757,-292.5 602,-292.5"/>
<text text-anchor="start" x="610" y="-310.5" font-family="Helvetica,sans-Serif" font-size="10.00">precice::mesh::BoundingBox</text>
<text text-anchor="middle" x="679.5" y="-299.5" font-family="Helvetica,sans-Serif" font-size="10.00">::getEdgeLength</text>
</a>
</g>
</g>
<!-- Node11&#45;&gt;Node13 -->
<g id="edge15" class="edge">
<title>Node11&#45;&gt;Node13</title>
<path fill="none" stroke="midnightblue" d="M547.49,-341.47C567.54,-336.27 590.17,-330.4 610.92,-325.02"/>
<polygon fill="midnightblue" stroke="midnightblue" points="611.82,-328.4 620.62,-322.51 610.06,-321.63 611.82,-328.4"/>
</g>
<!-- Node12&#45;&gt;Node8 -->
<g id="edge14" class="edge">
<title>Node12&#45;&gt;Node8</title>
<path fill="none" stroke="midnightblue" d="M757.1,-356.5C765.56,-356.5 774.22,-356.5 782.79,-356.5"/>
<polygon fill="midnightblue" stroke="midnightblue" points="782.79,-360 792.79,-356.5 782.79,-353 782.79,-360"/>
</g>
<!-- Node23 -->
<g id="node23" class="node">
<title>Node23</title>
<g id="a_node23"><a xlink:href="classprecice_1_1mesh_1_1Vertex.html#ad90010710b36c06a40ec09922c1b0fce" target="_top" xlink:title="Returns the coordinates of the vertex.">
<polygon fill="white" stroke="black" points="427.5,-49.5 427.5,-79.5 549.5,-79.5 549.5,-49.5 427.5,-49.5"/>
<text text-anchor="start" x="435.5" y="-67.5" font-family="Helvetica,sans-Serif" font-size="10.00">precice::mesh::Vertex</text>
<text text-anchor="middle" x="488.5" y="-56.5" font-family="Helvetica,sans-Serif" font-size="10.00">::getCoords</text>
</a>
</g>
</g>
<!-- Node22&#45;&gt;Node23 -->
<g id="edge26" class="edge">
<title>Node22&#45;&gt;Node23</title>
<path fill="none" stroke="midnightblue" d="M361.65,-63.16C379.49,-63.35 399.08,-63.56 417.39,-63.75"/>
<polygon fill="midnightblue" stroke="midnightblue" points="417.37,-67.25 427.41,-63.86 417.44,-60.25 417.37,-67.25"/>
</g>
<!-- Node24 -->
<g id="node24" class="node">
<title>Node24</title>
<g id="a_node24"><a xlink:href="namespaceprecice_1_1query.html#a4f32eb2f416d0e754bb33cc90a52d199" target="_top" xlink:title=" ">
<polygon fill="white" stroke="black" points="420,-99 420,-118 557,-118 557,-99 420,-99"/>
<text text-anchor="middle" x="488.5" y="-106" font-family="Helvetica,sans-Serif" font-size="10.00">precice::query::makeBox</text>
</a>
</g>
</g>
<!-- Node22&#45;&gt;Node24 -->
<g id="edge27" class="edge">
<title>Node22&#45;&gt;Node24</title>
<path fill="none" stroke="midnightblue" d="M361.39,-77.56C386.53,-83.73 415.21,-90.76 438.86,-96.57"/>
<polygon fill="midnightblue" stroke="midnightblue" points="438.11,-99.99 448.66,-98.97 439.78,-93.19 438.11,-99.99"/>
</g>
<!-- Node22&#45;&gt;Node25 -->
<g id="edge28" class="edge">
<title>Node22&#45;&gt;Node25</title>
<path fill="none" stroke="midnightblue" d="M359.84,-47.5C379,-42.7 400.35,-37.35 420.02,-32.42"/>
<polygon fill="midnightblue" stroke="midnightblue" points="420.98,-35.78 429.82,-29.96 419.27,-28.99 420.98,-35.78"/>
</g>
<!-- Node26&#45;&gt;Node3 -->
<g id="edge30" class="edge">
<title>Node26&#45;&gt;Node3</title>
<path fill="none" stroke="midnightblue" d="M348.29,-506.12C370.22,-511.85 396.54,-518.73 420.35,-524.95"/>
<polygon fill="midnightblue" stroke="midnightblue" points="419.48,-528.34 430.04,-527.48 421.25,-521.57 419.48,-528.34"/>
</g>
<!-- Node26&#45;&gt;Node4 -->
<g id="edge32" class="edge">
<title>Node26&#45;&gt;Node4</title>
<path fill="none" stroke="midnightblue" d="M348.16,-504.66C357.58,-508.16 367.01,-512.68 375,-518.5 396.84,-534.41 389.02,-551.79 411,-567.5 416.63,-571.52 422.96,-574.89 429.5,-577.7"/>
<polygon fill="midnightblue" stroke="midnightblue" points="428.6,-581.11 439.19,-581.44 431.12,-574.57 428.6,-581.11"/>
</g>
<!-- Node27 -->
<g id="node27" class="node">
<title>Node27</title>
<g id="a_node27"><a xlink:href="classprecice_1_1profiling_1_1EventRegistry.html#a753aa85b27412998730b0837b601cf23" target="_top" xlink:title="Records an event.">
<polygon fill="white" stroke="black" points="432.5,-478.5 432.5,-508.5 544.5,-508.5 544.5,-478.5 432.5,-478.5"/>
<text text-anchor="start" x="440.5" y="-496.5" font-family="Helvetica,sans-Serif" font-size="10.00">precice::profiling</text>
<text text-anchor="middle" x="488.5" y="-485.5" font-family="Helvetica,sans-Serif" font-size="10.00">::EventRegistry::put</text>
</a>
</g>
</g>
<!-- Node26&#45;&gt;Node27 -->
<g id="edge31" class="edge">
<title>Node26&#45;&gt;Node27</title>
<path fill="none" stroke="midnightblue" d="M348.29,-493.5C370.79,-493.5 397.9,-493.5 422.2,-493.5"/>
<polygon fill="midnightblue" stroke="midnightblue" points="422.41,-497 432.41,-493.5 422.41,-490 422.41,-497"/>
</g>
</g>
</svg>
        <g id="navigator" transform="translate(0 0)" fill="#404254">
                <rect fill="#f2f5e9" fill-opacity="0.5" stroke="#606060" stroke-width=".5" x="0" y="0" width="60" height="60"/>
                <use id="zoomplus" xlink:href="#zoomPlus" x="17" y="9" onmousedown="handleZoom(evt,'in')"/>
                <use id="zoomminus" xlink:href="#zoomMin" x="42" y="9" onmousedown="handleZoom(evt,'out')"/>
                <use id="reset" xlink:href="#resetDef" x="30" y="36" onmousedown="handleReset()"/>
                <g id="arrowUp" xlink:href="#dirArrow" transform="translate(30 24)" onmousedown="handlePan(0,-1)">
                  <use xlink:href="#rim" fill="#404040">
                        <set attributeName="fill" to="#808080" begin="arrowUp.mouseover" end="arrowUp.mouseout"/>
                  </use>
                  <path fill="none" stroke="white" stroke-width="1.5" d="M0,-3.0v7 M-2.5,-0.5L0,-3.0L2.5,-0.5"/>
                </g>
                <g id="arrowRight" xlink:href="#dirArrow" transform="rotate(90) translate(36 -43)" onmousedown="handlePan(1,0)">
                  <use xlink:href="#rim" fill="#404040">
                        <set attributeName="fill" to="#808080" begin="arrowRight.mouseover" end="arrowRight.mouseout"/>
                  </use>
                  <path fill="none" stroke="white" stroke-width="1.5" d="M0,-3.0v7 M-2.5,-0.5L0,-3.0L2.5,-0.5"/>
                </g>
                <g id="arrowDown" xlink:href="#dirArrow" transform="rotate(180) translate(-30 -48)" onmousedown="handlePan(0,1)">
                  <use xlink:href="#rim" fill="#404040">
                        <set attributeName="fill" to="#808080" begin="arrowDown.mouseover" end="arrowDown.mouseout"/>
                  </use>
                  <path fill="none" stroke="white" stroke-width="1.5" d="M0,-3.0v7 M-2.5,-0.5L0,-3.0L2.5,-0.5"/>
                </g>
                <g id="arrowLeft" xlink:href="#dirArrow" transform="rotate(270) translate(-36 17)" onmousedown="handlePan(-1,0)">
                  <use xlink:href="#rim" fill="#404040">
                        <set attributeName="fill" to="#808080" begin="arrowLeft.mouseover" end="arrowLeft.mouseout"/>
                  </use>
                  <path fill="none" stroke="white" stroke-width="1.5" d="M0,-3.0v7 M-2.5,-0.5L0,-3.0L2.5,-0.5"/>
                </g>
        </g>
        <svg viewBox="0 0 15 15" width="100%" height="30px" preserveAspectRatio="xMaxYMin meet">
         <g id="arrow_out" transform="scale(0.3 0.3)">
          <a xlink:href="classprecice_1_1mapping_1_1PartitionOfUnityMapping_af18b0eb5b2fbe71a0a64230ea609a5f8_cgraph_org.svg" target="_base">
           <rect id="button" ry="5" rx="5" y="6" x="6" height="38" width="38"
                fill="#f2f5e9" fill-opacity="0.5" stroke="#606060" stroke-width="1.0"/>
           <path id="arrow"
             d="M 11.500037,31.436501 C 11.940474,20.09759 22.043105,11.32322 32.158766,21.979434 L 37.068811,17.246167 C 37.068811,17.246167 37.088388,32 37.088388,32 L 22.160133,31.978069 C 22.160133,31.978069 26.997745,27.140456 26.997745,27.140456 C 18.528582,18.264221 13.291696,25.230495 11.500037,31.436501 z"
             style="fill:#404040;"/>
          </a>
         </g>
        </svg>
</svg>
