<?xml version="1.0" encoding="UTF-8" standalone="no"?>
<!DOCTYPE svg PUBLIC "-//W3C//DTD SVG 1.1//EN"
 "http://www.w3.org/Graphics/SVG/1.1/DTD/svg11.dtd">
<!-- Generated by graphviz version 2.43.0 (0)
 -->
<!-- Title: precice::com::serialize::SerializedMesh::receive Pages: 1 -->
<svg width="543pt" height="86pt"
 viewBox="0.00 0.00 543.00 86.00" xmlns="http://www.w3.org/2000/svg" xmlns:xlink="http://www.w3.org/1999/xlink">
<g id="graph0" class="graph" transform="scale(1 1) rotate(0) translate(4 82)">
<title>precice::com::serialize::SerializedMesh::receive</title>
<!-- Node1 -->
<g id="Node000001" class="node">
<title>Node1</title>
<g id="a_Node000001"><a xlink:title="receives a SerializedMesh and calls assertValid before returning">
<polygon fill="#999999" stroke="#666666" points="139,-54 0,-54 0,-24 139,-24 139,-54"/>
<text text-anchor="start" x="8" y="-42" font-family="Helvetica,sans-Serif" font-size="10.00">precice::com::serialize</text>
<text text-anchor="middle" x="69.5" y="-31" font-family="Helvetica,sans-Serif" font-size="10.00">::SerializedMesh::receive</text>
</a>
</g>
</g>
<!-- Node2 -->
<g id="Node000002" class="node">
<title>Node2</title>
<g id="a_Node000002"><a xlink:href="classprecice_1_1com_1_1serialize_1_1SerializedMesh.html#aed26fa2da0465bbd683b12ed302928fe" target="_top" xlink:title="asserts the content for correctness">
<polygon fill="white" stroke="#666666" points="334.5,-78 177.5,-78 177.5,-48 334.5,-48 334.5,-78"/>
<text text-anchor="start" x="185.5" y="-66" font-family="Helvetica,sans-Serif" font-size="10.00">precice::com::serialize</text>
<text text-anchor="middle" x="256" y="-55" font-family="Helvetica,sans-Serif" font-size="10.00">::SerializedMesh::assertValid</text>
</a>
</g>
</g>
<!-- Node1&#45;&gt;Node2 -->
<g id="edge1_Node000001_Node000002" class="edge">
<title>Node1&#45;&gt;Node2</title>
<g id="a_edge1_Node000001_Node000002"><a xlink:title=" ">
<path fill="none" stroke="#63b8ff" d="M139.2,-47.94C148.3,-49.12 157.74,-50.35 167.11,-51.57"/>
<polygon fill="#63b8ff" stroke="#63b8ff" points="166.87,-55.07 177.24,-52.88 167.77,-48.12 166.87,-55.07"/>
</a>
</g>
</g>
<!-- Node3 -->
<g id="Node000003" class="node">
<title>Node3</title>
<g id="a_Node000003"><a xlink:href="classprecice_1_1com_1_1Communication.html#a2f98f94294a6100d0cd9e21c49fc3967" target="_top" xlink:title="Receives a range of ints as a vector&lt;int&gt;">
<polygon fill="white" stroke="#666666" points="337,-30 175,-30 175,0 337,0 337,-30"/>
<text text-anchor="start" x="183" y="-18" font-family="Helvetica,sans-Serif" font-size="10.00">precice::com::Communication</text>
<text text-anchor="middle" x="256" y="-7" font-family="Helvetica,sans-Serif" font-size="10.00">::receiveRange</text>
</a>
</g>
</g>
<!-- Node1&#45;&gt;Node3 -->
<g id="edge2_Node000001_Node000003" class="edge">
<title>Node1&#45;&gt;Node3</title>
<g id="a_edge2_Node000001_Node000003"><a xlink:title=" ">
<path fill="none" stroke="#63b8ff" d="M139.2,-30.06C147.52,-28.98 156.12,-27.86 164.69,-26.75"/>
<polygon fill="#63b8ff" stroke="#63b8ff" points="165.26,-30.2 174.73,-25.44 164.36,-23.26 165.26,-30.2"/>
</a>
</g>
</g>
<!-- Node4 -->
<g id="Node000004" class="node">
<title>Node4</title>
<g id="a_Node000004"><a xlink:href="classprecice_1_1com_1_1Communication.html#a1dba8319f7bd90aecb30efba944f3bc9" target="_top" xlink:title="Receives a std::string from process with given rank.">
<polygon fill="white" stroke="#666666" points="535,-30 373,-30 373,0 535,0 535,-30"/>
<text text-anchor="start" x="381" y="-18" font-family="Helvetica,sans-Serif" font-size="10.00">precice::com::Communication</text>
<text text-anchor="middle" x="454" y="-7" font-family="Helvetica,sans-Serif" font-size="10.00">::receive</text>
</a>
</g>
</g>
<!-- Node3&#45;&gt;Node4 -->
<g id="edge3_Node000003_Node000004" class="edge">
<title>Node3&#45;&gt;Node4</title>
<g id="a_edge3_Node000003_Node000004"><a xlink:title=" ">
<path fill="none" stroke="#63b8ff" d="M337,-15C345.52,-15 354.23,-15 362.86,-15"/>
<polygon fill="#63b8ff" stroke="#63b8ff" points="362.93,-18.5 372.93,-15 362.93,-11.5 362.93,-18.5"/>
</a>
</g>
</g>
</g>
</svg>
