<?xml version="1.0" encoding="UTF-8" standalone="no"?>
<!DOCTYPE svg PUBLIC "-//W3C//DTD SVG 1.1//EN"
 "http://www.w3.org/Graphics/SVG/1.1/DTD/svg11.dtd">
<!-- Generated by graphviz version 2.43.0 (0)
 -->
<!-- Title: precice::cplscheme::SerialCouplingScheme::exchangeFirstData Pages: 1 -->
<svg width="1050pt" height="992pt"
 viewBox="0.00 0.00 1050.00 992.40" xmlns="http://www.w3.org/2000/svg" xmlns:xlink="http://www.w3.org/1999/xlink">
<g id="graph0" class="graph" transform="scale(1 1) rotate(0) translate(4 988.4)">
<title>precice::cplscheme::SerialCouplingScheme::exchangeFirstData</title>
<!-- Node1 -->
<g id="Node000001" class="node">
<title>Node1</title>
<g id="a_Node000001"><a xlink:title="Functions needed for advance()">
<polygon fill="#999999" stroke="#666666" points="132,-540 0,-540 0,-499 132,-499 132,-540"/>
<text text-anchor="start" x="8" y="-528" font-family="Helvetica,sans-Serif" font-size="10.00">precice::cplscheme</text>
<text text-anchor="start" x="8" y="-517" font-family="Helvetica,sans-Serif" font-size="10.00">::SerialCouplingScheme</text>
<text text-anchor="middle" x="66" y="-506" font-family="Helvetica,sans-Serif" font-size="10.00">::exchangeFirstData</text>
</a>
</g>
</g>
<!-- Node2 -->
<g id="Node000002" class="node">
<title>Node2</title>
<g id="a_Node000002"><a xlink:href="classprecice_1_1cplscheme_1_1BaseCouplingScheme.html#af880c679675d59efcf00b0b9fd984f6e" target="_top" xlink:title="Getter for _doesFirstStep.">
<polygon fill="white" stroke="#666666" points="703,-957 575,-957 575,-916 703,-916 703,-957"/>
<text text-anchor="start" x="583" y="-945" font-family="Helvetica,sans-Serif" font-size="10.00">precice::cplscheme</text>
<text text-anchor="start" x="583" y="-934" font-family="Helvetica,sans-Serif" font-size="10.00">::BaseCouplingScheme</text>
<text text-anchor="middle" x="639" y="-923" font-family="Helvetica,sans-Serif" font-size="10.00">::doesFirstStep</text>
</a>
</g>
</g>
<!-- Node1&#45;&gt;Node2 -->
<g id="edge1_Node000001_Node000002" class="edge">
<title>Node1&#45;&gt;Node2</title>
<g id="a_edge1_Node000001_Node000002"><a xlink:title=" ">
<path fill="none" stroke="#63b8ff" d="M69.18,-540.07C77.49,-614.25 109.67,-866.3 168,-917.5 277.59,-1013.68 462.95,-984.94 565.07,-958.74"/>
<polygon fill="#63b8ff" stroke="#63b8ff" points="566.21,-962.06 574.99,-956.14 564.43,-955.29 566.21,-962.06"/>
</a>
</g>
</g>
<!-- Node3 -->
<g id="Node000003" class="node">
<title>Node3</title>
<g id="a_Node000003"><a xlink:href="classprecice_1_1cplscheme_1_1BaseCouplingScheme.html#a9790b690d1fd321e573b8bbbbf3f3009" target="_top" xlink:title="perform a coupling iteration">
<polygon fill="white" stroke="#666666" points="306.5,-672 178.5,-672 178.5,-631 306.5,-631 306.5,-672"/>
<text text-anchor="start" x="186.5" y="-660" font-family="Helvetica,sans-Serif" font-size="10.00">precice::cplscheme</text>
<text text-anchor="start" x="186.5" y="-649" font-family="Helvetica,sans-Serif" font-size="10.00">::BaseCouplingScheme</text>
<text text-anchor="middle" x="242.5" y="-638" font-family="Helvetica,sans-Serif" font-size="10.00">::doImplicitStep</text>
</a>
</g>
</g>
<!-- Node1&#45;&gt;Node3 -->
<g id="edge2_Node000001_Node000003" class="edge">
<title>Node1&#45;&gt;Node3</title>
<g id="a_edge2_Node000001_Node000003"><a xlink:title=" ">
<path fill="none" stroke="#63b8ff" d="M89,-540.28C108.9,-558.63 139.39,-585.63 168,-606.5 176.98,-613.05 186.93,-619.58 196.54,-625.56"/>
<polygon fill="#63b8ff" stroke="#63b8ff" points="194.87,-628.65 205.23,-630.88 198.53,-622.68 194.87,-628.65"/>
</a>
</g>
</g>
<!-- Node5 -->
<g id="Node000005" class="node">
<title>Node5</title>
<g id="a_Node000005"><a xlink:href="classprecice_1_1cplscheme_1_1BaseCouplingScheme.html#a6c37c619f364581226635cdca7d39e4b" target="_top" xlink:title="getter for _time">
<polygon fill="white" stroke="#666666" points="506.5,-613 378.5,-613 378.5,-572 506.5,-572 506.5,-613"/>
<text text-anchor="start" x="386.5" y="-601" font-family="Helvetica,sans-Serif" font-size="10.00">precice::cplscheme</text>
<text text-anchor="start" x="386.5" y="-590" font-family="Helvetica,sans-Serif" font-size="10.00">::BaseCouplingScheme</text>
<text text-anchor="middle" x="442.5" y="-579" font-family="Helvetica,sans-Serif" font-size="10.00">::getTime</text>
</a>
</g>
</g>
<!-- Node1&#45;&gt;Node5 -->
<g id="edge26_Node000001_Node000005" class="edge">
<title>Node1&#45;&gt;Node5</title>
<g id="a_edge26_Node000001_Node000005"><a xlink:title=" ">
<path fill="none" stroke="#63b8ff" d="M132.23,-532.22C198.15,-545.06 299.79,-564.88 368.39,-578.25"/>
<polygon fill="#63b8ff" stroke="#63b8ff" points="367.78,-581.7 378.26,-580.17 369.12,-574.82 367.78,-581.7"/>
</a>
</g>
</g>
<!-- Node9 -->
<g id="Node000009" class="node">
<title>Node9</title>
<g id="a_Node000009"><a xlink:href="classprecice_1_1cplscheme_1_1BaseCouplingScheme.html#ac12278b409b70f27a135701e12cbcf3f" target="_top" xlink:title=" ">
<polygon fill="white" stroke="#666666" points="506.5,-672 378.5,-672 378.5,-631 506.5,-631 506.5,-672"/>
<text text-anchor="start" x="386.5" y="-660" font-family="Helvetica,sans-Serif" font-size="10.00">precice::cplscheme</text>
<text text-anchor="start" x="386.5" y="-649" font-family="Helvetica,sans-Serif" font-size="10.00">::BaseCouplingScheme</text>
<text text-anchor="middle" x="442.5" y="-638" font-family="Helvetica,sans-Serif" font-size="10.00">::getWindowEndTime</text>
</a>
</g>
</g>
<!-- Node1&#45;&gt;Node9 -->
<g id="edge27_Node000001_Node000009" class="edge">
<title>Node1&#45;&gt;Node9</title>
<g id="a_edge27_Node000001_Node000009"><a xlink:title=" ">
<path fill="none" stroke="#63b8ff" d="M106.71,-540.02C125.09,-549.08 147.37,-559.48 168,-567.5 234.71,-593.44 312.98,-616.79 368.65,-632.25"/>
<polygon fill="#63b8ff" stroke="#63b8ff" points="367.86,-635.66 378.43,-634.95 369.72,-628.91 367.86,-635.66"/>
</a>
</g>
</g>
<!-- Node11 -->
<g id="Node000011" class="node">
<title>Node11</title>
<g id="a_Node000011"><a xlink:href="namespaceprecice_1_1math.html#a0e86802cfe992deba131d789d035b5b7" target="_top" xlink:title="Compares two Eigen::MatrixBase for equality up to tolerance.">
<polygon fill="white" stroke="#666666" points="868,-373 746,-373 746,-354 868,-354 868,-373"/>
<text text-anchor="middle" x="807" y="-361" font-family="Helvetica,sans-Serif" font-size="10.00">precice::math::equals</text>
</a>
</g>
</g>
<!-- Node1&#45;&gt;Node11 -->
<g id="edge23_Node000001_Node000011" class="edge">
<title>Node1&#45;&gt;Node11</title>
<g id="a_edge23_Node000001_Node000011"><a xlink:title=" ">
<path fill="none" stroke="#63b8ff" d="M73.65,-498.93C86.16,-463.69 116.64,-392.04 168,-355.5 223.27,-316.18 261.03,-360.82 317,-322.5 340.8,-306.2 327.57,-282.11 353,-268.5 502.54,-188.47 713.44,-304.99 782.86,-348.35"/>
<polygon fill="#63b8ff" stroke="#63b8ff" points="781.37,-351.56 791.69,-353.96 785.12,-345.65 781.37,-351.56"/>
</a>
</g>
</g>
<!-- Node21 -->
<g id="Node000021" class="node">
<title>Node21</title>
<g id="a_Node000021"><a xlink:href="classprecice_1_1cplscheme_1_1BiCouplingScheme.html#ae90273efd5e7a1ba0b91b5e09fd971ac" target="_top" xlink:title=" ">
<polygon fill="white" stroke="#666666" points="502.5,-318 382.5,-318 382.5,-277 502.5,-277 502.5,-318"/>
<text text-anchor="start" x="390.5" y="-306" font-family="Helvetica,sans-Serif" font-size="10.00">precice::cplscheme</text>
<text text-anchor="start" x="390.5" y="-295" font-family="Helvetica,sans-Serif" font-size="10.00">::BiCouplingScheme::</text>
<text text-anchor="middle" x="442.5" y="-284" font-family="Helvetica,sans-Serif" font-size="10.00">getM2N</text>
</a>
</g>
</g>
<!-- Node1&#45;&gt;Node21 -->
<g id="edge24_Node000001_Node000021" class="edge">
<title>Node1&#45;&gt;Node21</title>
<g id="a_edge24_Node000001_Node000021"><a xlink:title=" ">
<path fill="none" stroke="#63b8ff" d="M93.97,-498.73C114.05,-483.51 142.31,-462.62 168,-445.5 232.38,-402.6 253.24,-399.32 317,-355.5 333.7,-344.02 335.15,-337.11 353,-327.5 359.29,-324.12 366.02,-321.01 372.88,-318.18"/>
<polygon fill="#63b8ff" stroke="#63b8ff" points="374.22,-321.41 382.26,-314.51 371.67,-314.9 374.22,-321.41"/>
</a>
</g>
</g>
<!-- Node22 -->
<g id="Node000022" class="node">
<title>Node22</title>
<g id="a_Node000022"><a xlink:href="classprecice_1_1cplscheme_1_1BiCouplingScheme.html#a53be61eb89bfff98ada4a33c3ba00545" target="_top" xlink:title="Returns all data to be sent.">
<polygon fill="white" stroke="#666666" points="302.5,-313 182.5,-313 182.5,-272 302.5,-272 302.5,-313"/>
<text text-anchor="start" x="190.5" y="-301" font-family="Helvetica,sans-Serif" font-size="10.00">precice::cplscheme</text>
<text text-anchor="start" x="190.5" y="-290" font-family="Helvetica,sans-Serif" font-size="10.00">::BiCouplingScheme::</text>
<text text-anchor="middle" x="242.5" y="-279" font-family="Helvetica,sans-Serif" font-size="10.00">getSendData</text>
</a>
</g>
</g>
<!-- Node1&#45;&gt;Node22 -->
<g id="edge25_Node000001_Node000022" class="edge">
<title>Node1&#45;&gt;Node22</title>
<g id="a_edge25_Node000001_Node000022"><a xlink:title=" ">
<path fill="none" stroke="#63b8ff" d="M73,-498.89C85.12,-460.55 115.86,-377.61 168,-327.5 171.3,-324.33 174.94,-321.4 178.78,-318.7"/>
<polygon fill="#63b8ff" stroke="#63b8ff" points="180.91,-321.5 187.46,-313.17 177.15,-315.59 180.91,-321.5"/>
</a>
</g>
</g>
<!-- Node23 -->
<g id="Node000023" class="node">
<title>Node23</title>
<g id="a_Node000023"><a xlink:href="classprecice_1_1cplscheme_1_1BaseCouplingScheme.html#a38eb9e294c701da2259e803d184710ee" target="_top" xlink:title="Function to determine whether coupling scheme is an explicit coupling scheme.">
<polygon fill="white" stroke="#666666" points="317,-254 168,-254 168,-213 317,-213 317,-254"/>
<text text-anchor="start" x="176" y="-242" font-family="Helvetica,sans-Serif" font-size="10.00">precice::cplscheme</text>
<text text-anchor="start" x="176" y="-231" font-family="Helvetica,sans-Serif" font-size="10.00">::BaseCouplingScheme</text>
<text text-anchor="middle" x="242.5" y="-220" font-family="Helvetica,sans-Serif" font-size="10.00">::isExplicitCouplingScheme</text>
</a>
</g>
</g>
<!-- Node1&#45;&gt;Node23 -->
<g id="edge28_Node000001_Node000023" class="edge">
<title>Node1&#45;&gt;Node23</title>
<g id="a_edge28_Node000001_Node000023"><a xlink:title=" ">
<path fill="none" stroke="#63b8ff" d="M69.58,-498.94C76.61,-451.26 100.33,-331.97 168,-263.5 169.09,-262.4 170.23,-261.33 171.4,-260.31"/>
<polygon fill="#63b8ff" stroke="#63b8ff" points="173.8,-262.88 179.68,-254.07 169.59,-257.29 173.8,-262.88"/>
</a>
</g>
</g>
<!-- Node24 -->
<g id="Node000024" class="node">
<title>Node24</title>
<g id="a_Node000024"><a xlink:href="classprecice_1_1cplscheme_1_1BaseCouplingScheme.html#a4dcb97e3ef79b1cca6af577f9cbbec19" target="_top" xlink:title="Function to determine whether coupling scheme is an implicit coupling scheme.">
<polygon fill="white" stroke="#666666" points="517,-908 368,-908 368,-867 517,-867 517,-908"/>
<text text-anchor="start" x="376" y="-896" font-family="Helvetica,sans-Serif" font-size="10.00">precice::cplscheme</text>
<text text-anchor="start" x="376" y="-885" font-family="Helvetica,sans-Serif" font-size="10.00">::BaseCouplingScheme</text>
<text text-anchor="middle" x="442.5" y="-874" font-family="Helvetica,sans-Serif" font-size="10.00">::isImplicitCouplingScheme</text>
</a>
</g>
</g>
<!-- Node1&#45;&gt;Node24 -->
<g id="edge29_Node000001_Node000024" class="edge">
<title>Node1&#45;&gt;Node24</title>
<g id="a_edge29_Node000001_Node000024"><a xlink:title=" ">
<path fill="none" stroke="#63b8ff" d="M77.62,-540.02C94.57,-571.88 129.74,-634.43 168,-681.5 239.77,-769.8 255.4,-800 353,-858.5 355.33,-859.89 357.73,-861.23 360.18,-862.51"/>
<polygon fill="#63b8ff" stroke="#63b8ff" points="358.75,-865.7 369.28,-866.89 361.79,-859.4 358.75,-865.7"/>
</a>
</g>
</g>
<!-- Node25 -->
<g id="Node000025" class="node">
<title>Node25</title>
<g id="a_Node000025"><a xlink:href="classprecice_1_1cplscheme_1_1BaseCouplingScheme.html#a5c334c28ef390d96c0f6d10919f8ed07" target="_top" xlink:title="sends convergence to other participant via m2n">
<polygon fill="white" stroke="#666666" points="306.5,-908 178.5,-908 178.5,-867 306.5,-867 306.5,-908"/>
<text text-anchor="start" x="186.5" y="-896" font-family="Helvetica,sans-Serif" font-size="10.00">precice::cplscheme</text>
<text text-anchor="start" x="186.5" y="-885" font-family="Helvetica,sans-Serif" font-size="10.00">::BaseCouplingScheme</text>
<text text-anchor="middle" x="242.5" y="-874" font-family="Helvetica,sans-Serif" font-size="10.00">::sendConvergence</text>
</a>
</g>
</g>
<!-- Node1&#45;&gt;Node25 -->
<g id="edge30_Node000001_Node000025" class="edge">
<title>Node1&#45;&gt;Node25</title>
<g id="a_edge30_Node000001_Node000025"><a xlink:title=" ">
<path fill="none" stroke="#63b8ff" d="M72.95,-540.12C86.49,-585.61 122.01,-697.35 168,-783.5 182.46,-810.59 202.86,-838.89 218.5,-859.12"/>
<polygon fill="#63b8ff" stroke="#63b8ff" points="215.75,-861.28 224.67,-866.99 221.26,-856.96 215.75,-861.28"/>
</a>
</g>
</g>
<!-- Node26 -->
<g id="Node000026" class="node">
<title>Node26</title>
<g id="a_Node000026"><a xlink:href="classprecice_1_1cplscheme_1_1BaseCouplingScheme.html#a3aa71af66bf740fa8d9182b47db7dac3" target="_top" xlink:title="Sends data sendDataIDs given in mapCouplingData with communication.">
<polygon fill="white" stroke="#666666" points="306.5,-177 178.5,-177 178.5,-136 306.5,-136 306.5,-177"/>
<text text-anchor="start" x="186.5" y="-165" font-family="Helvetica,sans-Serif" font-size="10.00">precice::cplscheme</text>
<text text-anchor="start" x="186.5" y="-154" font-family="Helvetica,sans-Serif" font-size="10.00">::BaseCouplingScheme</text>
<text text-anchor="middle" x="242.5" y="-143" font-family="Helvetica,sans-Serif" font-size="10.00">::sendData</text>
</a>
</g>
</g>
<!-- Node1&#45;&gt;Node26 -->
<g id="edge33_Node000001_Node000026" class="edge">
<title>Node1&#45;&gt;Node26</title>
<g id="a_edge33_Node000001_Node000026"><a xlink:title=" ">
<path fill="none" stroke="#63b8ff" d="M68.85,-498.91C74.59,-445.22 96.28,-298.59 168,-204.5 174.3,-196.23 182.46,-188.96 191.04,-182.75"/>
<polygon fill="#63b8ff" stroke="#63b8ff" points="193.04,-185.62 199.35,-177.11 189.11,-179.83 193.04,-185.62"/>
</a>
</g>
</g>
<!-- Node34 -->
<g id="Node000034" class="node">
<title>Node34</title>
<g id="a_Node000034"><a xlink:href="classprecice_1_1cplscheme_1_1SerialCouplingScheme.html#a6f25d1c766d969ff1d279b861a14f7d3" target="_top" xlink:title="Sends time window size, if this participant is the one to send.">
<polygon fill="white" stroke="#666666" points="308.5,-495 176.5,-495 176.5,-454 308.5,-454 308.5,-495"/>
<text text-anchor="start" x="184.5" y="-483" font-family="Helvetica,sans-Serif" font-size="10.00">precice::cplscheme</text>
<text text-anchor="start" x="184.5" y="-472" font-family="Helvetica,sans-Serif" font-size="10.00">::SerialCouplingScheme</text>
<text text-anchor="middle" x="242.5" y="-461" font-family="Helvetica,sans-Serif" font-size="10.00">::sendTimeWindowSize</text>
</a>
</g>
</g>
<!-- Node1&#45;&gt;Node34 -->
<g id="edge42_Node000001_Node000034" class="edge">
<title>Node1&#45;&gt;Node34</title>
<g id="a_edge42_Node000001_Node000034"><a xlink:title=" ">
<path fill="none" stroke="#63b8ff" d="M132.47,-502.62C143.54,-499.76 155.11,-496.78 166.41,-493.87"/>
<polygon fill="#63b8ff" stroke="#63b8ff" points="167.43,-497.22 176.24,-491.33 165.68,-490.44 167.43,-497.22"/>
</a>
</g>
</g>
<!-- Node4 -->
<g id="Node000004" class="node">
<title>Node4</title>
<g id="a_Node000004"><a xlink:href="classprecice_1_1cplscheme_1_1BaseCouplingScheme.html#ac216741f0993e76166ae7a610fe32fd9" target="_top" xlink:title="interface to provide accelerated data, depending on coupling scheme being used">
<polygon fill="white" stroke="#666666" points="506.5,-790 378.5,-790 378.5,-749 506.5,-749 506.5,-790"/>
<text text-anchor="start" x="386.5" y="-778" font-family="Helvetica,sans-Serif" font-size="10.00">precice::cplscheme</text>
<text text-anchor="start" x="386.5" y="-767" font-family="Helvetica,sans-Serif" font-size="10.00">::BaseCouplingScheme</text>
<text text-anchor="middle" x="442.5" y="-756" font-family="Helvetica,sans-Serif" font-size="10.00">::getAccelerationData</text>
</a>
</g>
</g>
<!-- Node3&#45;&gt;Node4 -->
<g id="edge3_Node000003_Node000004" class="edge">
<title>Node3&#45;&gt;Node4</title>
<g id="a_edge3_Node000003_Node000004"><a xlink:title=" ">
<path fill="none" stroke="#63b8ff" d="M264.02,-672.11C284.85,-692.03 318.81,-721.84 353,-740.5 358.09,-743.28 363.49,-745.85 369.02,-748.21"/>
<polygon fill="#63b8ff" stroke="#63b8ff" points="367.82,-751.5 378.4,-752 370.44,-745.01 367.82,-751.5"/>
</a>
</g>
</g>
<!-- Node3&#45;&gt;Node5 -->
<g id="edge4_Node000003_Node000005" class="edge">
<title>Node3&#45;&gt;Node5</title>
<g id="a_edge4_Node000003_Node000005"><a xlink:title=" ">
<path fill="none" stroke="#63b8ff" d="M306.69,-632.67C326.34,-626.82 348.16,-620.31 368.42,-614.28"/>
<polygon fill="#63b8ff" stroke="#63b8ff" points="369.64,-617.56 378.23,-611.35 367.65,-610.86 369.64,-617.56"/>
</a>
</g>
</g>
<!-- Node7 -->
<g id="Node000007" class="node">
<title>Node7</title>
<g id="a_Node000007"><a xlink:href="classprecice_1_1cplscheme_1_1BaseCouplingScheme.html#a7895277c68853fcbdd8d169691c56042" target="_top" xlink:title=" ">
<polygon fill="white" stroke="#666666" points="506.5,-554 378.5,-554 378.5,-513 506.5,-513 506.5,-554"/>
<text text-anchor="start" x="386.5" y="-542" font-family="Helvetica,sans-Serif" font-size="10.00">precice::cplscheme</text>
<text text-anchor="start" x="386.5" y="-531" font-family="Helvetica,sans-Serif" font-size="10.00">::BaseCouplingScheme</text>
<text text-anchor="middle" x="442.5" y="-520" font-family="Helvetica,sans-Serif" font-size="10.00">::getTimeWindowStart</text>
</a>
</g>
</g>
<!-- Node3&#45;&gt;Node7 -->
<g id="edge6_Node000003_Node000007" class="edge">
<title>Node3&#45;&gt;Node7</title>
<g id="a_edge6_Node000003_Node000007"><a xlink:title=" ">
<path fill="none" stroke="#63b8ff" d="M264.5,-630.84C285.43,-611.21 319.22,-582.04 353,-563.5 358.1,-560.7 363.51,-558.1 369.04,-555.69"/>
<polygon fill="#63b8ff" stroke="#63b8ff" points="370.52,-558.86 378.44,-551.82 367.86,-552.39 370.52,-558.86"/>
</a>
</g>
</g>
<!-- Node3&#45;&gt;Node9 -->
<g id="edge8_Node000003_Node000009" class="edge">
<title>Node3&#45;&gt;Node9</title>
<g id="a_edge8_Node000003_Node000009"><a xlink:title=" ">
<path fill="none" stroke="#63b8ff" d="M306.69,-651.5C326.25,-651.5 347.96,-651.5 368.15,-651.5"/>
<polygon fill="#63b8ff" stroke="#63b8ff" points="368.23,-655 378.23,-651.5 368.23,-648 368.23,-655"/>
</a>
</g>
</g>
<!-- Node18 -->
<g id="Node000018" class="node">
<title>Node18</title>
<g id="a_Node000018"><a xlink:href="classprecice_1_1cplscheme_1_1BaseCouplingScheme.html#af524236355c3b4a48237511b820996f2" target="_top" xlink:title="Measure whether coupling scheme has converged or not.">
<polygon fill="white" stroke="#666666" points="507,-849 378,-849 378,-808 507,-808 507,-849"/>
<text text-anchor="start" x="386" y="-837" font-family="Helvetica,sans-Serif" font-size="10.00">precice::cplscheme</text>
<text text-anchor="start" x="386" y="-826" font-family="Helvetica,sans-Serif" font-size="10.00">::BaseCouplingScheme</text>
<text text-anchor="middle" x="442.5" y="-815" font-family="Helvetica,sans-Serif" font-size="10.00">::measureConvergence</text>
</a>
</g>
</g>
<!-- Node3&#45;&gt;Node18 -->
<g id="edge19_Node000003_Node000018" class="edge">
<title>Node3&#45;&gt;Node18</title>
<g id="a_edge19_Node000003_Node000018"><a xlink:title=" ">
<path fill="none" stroke="#63b8ff" d="M257.65,-672.04C284.32,-710.53 340.46,-790.45 353,-799.5 357.79,-802.96 363.01,-806.02 368.44,-808.72"/>
<polygon fill="#63b8ff" stroke="#63b8ff" points="367.2,-812 377.75,-812.95 370.1,-805.63 367.2,-812"/>
</a>
</g>
</g>
<!-- Node20 -->
<g id="Node000020" class="node">
<title>Node20</title>
<g id="a_Node000020"><a xlink:href="classprecice_1_1cplscheme_1_1BaseCouplingScheme.html#af285b3e6ffae9af1d4c4b89f1b66da1c" target="_top" xlink:title="Reset all convergence measurements after convergence.">
<polygon fill="white" stroke="#666666" points="532,-731 353,-731 353,-690 532,-690 532,-731"/>
<text text-anchor="start" x="361" y="-719" font-family="Helvetica,sans-Serif" font-size="10.00">precice::cplscheme</text>
<text text-anchor="start" x="361" y="-708" font-family="Helvetica,sans-Serif" font-size="10.00">::BaseCouplingScheme</text>
<text text-anchor="middle" x="442.5" y="-697" font-family="Helvetica,sans-Serif" font-size="10.00">::newConvergenceMeasurements</text>
</a>
</g>
</g>
<!-- Node3&#45;&gt;Node20 -->
<g id="edge22_Node000003_Node000020" class="edge">
<title>Node3&#45;&gt;Node20</title>
<g id="a_edge22_Node000003_Node000020"><a xlink:title=" ">
<path fill="none" stroke="#63b8ff" d="M306.69,-670.33C324.52,-675.64 344.14,-681.49 362.76,-687.04"/>
<polygon fill="#63b8ff" stroke="#63b8ff" points="361.81,-690.41 372.4,-689.91 363.81,-683.7 361.81,-690.41"/>
</a>
</g>
</g>
<!-- Node6 -->
<g id="Node000006" class="node">
<title>Node6</title>
<g id="a_Node000006"><a xlink:href="classprecice_1_1cplscheme_1_1impl_1_1TimeHandler.html#a98a5365f35f80c2956df85a624ca3c21" target="_top" xlink:title="Returns the current time as a double.">
<polygon fill="white" stroke="#666666" points="710,-608.5 568,-608.5 568,-578.5 710,-578.5 710,-608.5"/>
<text text-anchor="start" x="576" y="-596.5" font-family="Helvetica,sans-Serif" font-size="10.00">precice::cplscheme</text>
<text text-anchor="middle" x="639" y="-585.5" font-family="Helvetica,sans-Serif" font-size="10.00">::impl::TimeHandler::time</text>
</a>
</g>
</g>
<!-- Node5&#45;&gt;Node6 -->
<g id="edge5_Node000005_Node000006" class="edge">
<title>Node5&#45;&gt;Node6</title>
<g id="a_edge5_Node000005_Node000006"><a xlink:title=" ">
<path fill="none" stroke="#63b8ff" d="M506.65,-592.82C522.82,-592.91 540.42,-593 557.34,-593.09"/>
<polygon fill="#63b8ff" stroke="#63b8ff" points="557.75,-596.59 567.76,-593.14 557.78,-589.59 557.75,-596.59"/>
</a>
</g>
</g>
<!-- Node8 -->
<g id="Node000008" class="node">
<title>Node8</title>
<g id="a_Node000008"><a xlink:href="classprecice_1_1cplscheme_1_1impl_1_1TimeHandler.html#ae1636c4404225ab8378471c9276c4392" target="_top" xlink:title="Returns the window start as a double.">
<polygon fill="white" stroke="#666666" points="695.5,-440 582.5,-440 582.5,-399 695.5,-399 695.5,-440"/>
<text text-anchor="start" x="590.5" y="-428" font-family="Helvetica,sans-Serif" font-size="10.00">precice::cplscheme</text>
<text text-anchor="start" x="590.5" y="-417" font-family="Helvetica,sans-Serif" font-size="10.00">::impl::TimeHandler</text>
<text text-anchor="middle" x="639" y="-406" font-family="Helvetica,sans-Serif" font-size="10.00">::windowStart</text>
</a>
</g>
</g>
<!-- Node7&#45;&gt;Node8 -->
<g id="edge7_Node000007_Node000008" class="edge">
<title>Node7&#45;&gt;Node8</title>
<g id="a_edge7_Node000007_Node000008"><a xlink:title=" ">
<path fill="none" stroke="#63b8ff" d="M506.61,-518.72C515.65,-514.97 524.43,-510.3 532,-504.5 555.19,-486.73 545.62,-468.28 568,-449.5 569.77,-448.02 571.62,-446.59 573.54,-445.23"/>
<polygon fill="#63b8ff" stroke="#63b8ff" points="575.75,-447.98 582.31,-439.66 571.99,-442.07 575.75,-447.98"/>
</a>
</g>
</g>
<!-- Node9&#45;&gt;Node6 -->
<g id="edge11_Node000009_Node000006" class="edge">
<title>Node9&#45;&gt;Node6</title>
<g id="a_edge11_Node000009_Node000006"><a xlink:title=" ">
<path fill="none" stroke="#63b8ff" d="M506.65,-632.67C529.45,-625.87 555.12,-618.21 577.67,-611.49"/>
<polygon fill="#63b8ff" stroke="#63b8ff" points="578.88,-614.78 587.46,-608.57 576.88,-608.07 578.88,-614.78"/>
</a>
</g>
</g>
<!-- Node10 -->
<g id="Node000010" class="node">
<title>Node10</title>
<g id="a_Node000010"><a xlink:href="classprecice_1_1cplscheme_1_1BaseCouplingScheme.html#aa1c82548c80a9c8bb129e115e0f710fe" target="_top" xlink:title="Function to check whether time window size is defined by coupling scheme.">
<polygon fill="white" stroke="#666666" points="703,-499 575,-499 575,-458 703,-458 703,-499"/>
<text text-anchor="start" x="583" y="-487" font-family="Helvetica,sans-Serif" font-size="10.00">precice::cplscheme</text>
<text text-anchor="start" x="583" y="-476" font-family="Helvetica,sans-Serif" font-size="10.00">::BaseCouplingScheme</text>
<text text-anchor="middle" x="639" y="-465" font-family="Helvetica,sans-Serif" font-size="10.00">::hasTimeWindowSize</text>
</a>
</g>
</g>
<!-- Node9&#45;&gt;Node10 -->
<g id="edge9_Node000009_Node000010" class="edge">
<title>Node9&#45;&gt;Node10</title>
<g id="a_edge9_Node000009_Node000010"><a xlink:title=" ">
<path fill="none" stroke="#63b8ff" d="M506.53,-636.6C515.57,-632.87 524.38,-628.24 532,-622.5 554.75,-605.37 551.31,-592.57 568,-569.5 583.26,-548.4 601.17,-525.14 615.06,-507.42"/>
<polygon fill="#63b8ff" stroke="#63b8ff" points="618.09,-509.22 621.52,-499.2 612.59,-504.9 618.09,-509.22"/>
</a>
</g>
</g>
<!-- Node12 -->
<g id="Node000012" class="node">
<title>Node12</title>
<g id="a_Node000012"><a xlink:href="classprecice_1_1cplscheme_1_1impl_1_1TimeHandler.html#a1691b3de3f4d4c668b7389132d34268a" target="_top" xlink:title=" ">
<polygon fill="white" stroke="#666666" points="863.5,-718 750.5,-718 750.5,-677 863.5,-677 863.5,-718"/>
<text text-anchor="start" x="758.5" y="-706" font-family="Helvetica,sans-Serif" font-size="10.00">precice::cplscheme</text>
<text text-anchor="start" x="758.5" y="-695" font-family="Helvetica,sans-Serif" font-size="10.00">::impl::TimeHandler</text>
<text text-anchor="middle" x="807" y="-684" font-family="Helvetica,sans-Serif" font-size="10.00">::untilEnd</text>
</a>
</g>
</g>
<!-- Node9&#45;&gt;Node12 -->
<g id="edge12_Node000009_Node000012" class="edge">
<title>Node9&#45;&gt;Node12</title>
<g id="a_edge12_Node000009_Node000012"><a xlink:title=" ">
<path fill="none" stroke="#63b8ff" d="M506.5,-667.54C526.09,-672.02 547.84,-676.49 568,-679.5 625.84,-688.14 692.25,-692.73 740.2,-695.1"/>
<polygon fill="#63b8ff" stroke="#63b8ff" points="740.29,-698.61 750.44,-695.59 740.62,-691.62 740.29,-698.61"/>
</a>
</g>
</g>
<!-- Node15 -->
<g id="Node000015" class="node">
<title>Node15</title>
<g id="a_Node000015"><a xlink:href="classprecice_1_1cplscheme_1_1impl_1_1TimeHandler.html#aa1f9e5b3ad17a5ed37693674f245a15b" target="_top" xlink:title="Returns the time distance to the possibly truncated end of the current time window.">
<polygon fill="white" stroke="#666666" points="695.5,-670 582.5,-670 582.5,-629 695.5,-629 695.5,-670"/>
<text text-anchor="start" x="590.5" y="-658" font-family="Helvetica,sans-Serif" font-size="10.00">precice::cplscheme</text>
<text text-anchor="start" x="590.5" y="-647" font-family="Helvetica,sans-Serif" font-size="10.00">::impl::TimeHandler</text>
<text text-anchor="middle" x="639" y="-636" font-family="Helvetica,sans-Serif" font-size="10.00">::untilWindowEnd</text>
</a>
</g>
</g>
<!-- Node9&#45;&gt;Node15 -->
<g id="edge15_Node000009_Node000015" class="edge">
<title>Node9&#45;&gt;Node15</title>
<g id="a_edge15_Node000009_Node000015"><a xlink:title=" ">
<path fill="none" stroke="#63b8ff" d="M506.65,-650.85C527.62,-650.64 551.01,-650.39 572.18,-650.18"/>
<polygon fill="#63b8ff" stroke="#63b8ff" points="572.41,-653.67 582.37,-650.07 572.34,-646.68 572.41,-653.67"/>
</a>
</g>
</g>
<!-- Node10&#45;&gt;Node11 -->
<g id="edge10_Node000010_Node000011" class="edge">
<title>Node10&#45;&gt;Node11</title>
<g id="a_edge10_Node000010_Node000011"><a xlink:title=" ">
<path fill="none" stroke="#63b8ff" d="M694.8,-457.94C700.06,-455.33 705.21,-452.51 710,-449.5 741.49,-429.69 772.56,-399.34 790.49,-380.49"/>
<polygon fill="#63b8ff" stroke="#63b8ff" points="793.05,-382.88 797.32,-373.19 787.93,-378.1 793.05,-382.88"/>
</a>
</g>
</g>
<!-- Node13 -->
<g id="Node000013" class="node">
<title>Node13</title>
<g id="a_Node000013"><a target="_parent" xlink:href="http://en.cppreference.com/w/cpp/types/numeric_limits/max.html#" xlink:title=" ">
<polygon fill="white" stroke="#666666" points="1042,-731 904,-731 904,-712 1042,-712 1042,-731"/>
<text text-anchor="middle" x="973" y="-719" font-family="Helvetica,sans-Serif" font-size="10.00">std::numeric_limits::max</text>
</a>
</g>
</g>
<!-- Node12&#45;&gt;Node13 -->
<g id="edge13_Node000012_Node000013" class="edge">
<title>Node12&#45;&gt;Node13</title>
<g id="a_edge13_Node000012_Node000013"><a xlink:title=" ">
<path fill="none" stroke="#63b8ff" d="M863.52,-705.63C874.19,-707.19 885.54,-708.85 896.71,-710.48"/>
<polygon fill="#63b8ff" stroke="#63b8ff" points="896.5,-713.99 906.9,-711.97 897.52,-707.06 896.5,-713.99"/>
</a>
</g>
</g>
<!-- Node14 -->
<g id="Node000014" class="node">
<title>Node14</title>
<g id="a_Node000014"><a xlink:href="classprecice_1_1cplscheme_1_1impl_1_1TimeHandler.html#a3d2757a3ef13e33b3bb1881f7dde353c" target="_top" xlink:title="Returns the time difference until the overall time reaches the given time.">
<polygon fill="white" stroke="#666666" points="1029.5,-694 916.5,-694 916.5,-653 1029.5,-653 1029.5,-694"/>
<text text-anchor="start" x="924.5" y="-682" font-family="Helvetica,sans-Serif" font-size="10.00">precice::cplscheme</text>
<text text-anchor="start" x="924.5" y="-671" font-family="Helvetica,sans-Serif" font-size="10.00">::impl::TimeHandler</text>
<text text-anchor="middle" x="973" y="-660" font-family="Helvetica,sans-Serif" font-size="10.00">::untilTime</text>
</a>
</g>
</g>
<!-- Node12&#45;&gt;Node14 -->
<g id="edge14_Node000012_Node000014" class="edge">
<title>Node12&#45;&gt;Node14</title>
<g id="a_edge14_Node000012_Node000014"><a xlink:title=" ">
<path fill="none" stroke="#63b8ff" d="M863.52,-689.37C877.21,-687.37 891.99,-685.21 906.11,-683.14"/>
<polygon fill="#63b8ff" stroke="#63b8ff" points="906.87,-686.57 916.26,-681.66 905.85,-679.64 906.87,-686.57"/>
</a>
</g>
</g>
<!-- Node15&#45;&gt;Node12 -->
<g id="edge17_Node000015_Node000012" class="edge">
<title>Node15&#45;&gt;Node12</title>
<g id="a_edge17_Node000015_Node000012"><a xlink:title=" ">
<path fill="none" stroke="#63b8ff" d="M695.74,-665.62C710.19,-669.79 725.87,-674.33 740.76,-678.64"/>
<polygon fill="#63b8ff" stroke="#63b8ff" points="739.83,-682.01 750.41,-681.43 741.78,-675.29 739.83,-682.01"/>
</a>
</g>
</g>
<!-- Node16 -->
<g id="Node000016" class="node">
<title>Node16</title>
<g id="a_Node000016"><a target="_parent" xlink:href="http://en.cppreference.com/w/cpp/algorithm/min.html#" xlink:title=" ">
<polygon fill="white" stroke="#666666" points="835,-659 779,-659 779,-640 835,-640 835,-659"/>
<text text-anchor="middle" x="807" y="-647" font-family="Helvetica,sans-Serif" font-size="10.00">std::min</text>
</a>
</g>
</g>
<!-- Node15&#45;&gt;Node16 -->
<g id="edge16_Node000015_Node000016" class="edge">
<title>Node15&#45;&gt;Node16</title>
<g id="a_edge16_Node000015_Node000016"><a xlink:title=" ">
<path fill="none" stroke="#63b8ff" d="M695.74,-649.5C719.7,-649.5 747.07,-649.5 768.54,-649.5"/>
<polygon fill="#63b8ff" stroke="#63b8ff" points="768.57,-653 778.57,-649.5 768.57,-646 768.57,-653"/>
</a>
</g>
</g>
<!-- Node17 -->
<g id="Node000017" class="node">
<title>Node17</title>
<g id="a_Node000017"><a xlink:href="classprecice_1_1cplscheme_1_1impl_1_1TimeHandler.html#a97233c5f75ef847589a9bf7b94a0f5c4" target="_top" xlink:title=" ">
<polygon fill="white" stroke="#666666" points="863.5,-622 750.5,-622 750.5,-581 863.5,-581 863.5,-622"/>
<text text-anchor="start" x="758.5" y="-610" font-family="Helvetica,sans-Serif" font-size="10.00">precice::cplscheme</text>
<text text-anchor="start" x="758.5" y="-599" font-family="Helvetica,sans-Serif" font-size="10.00">::impl::TimeHandler</text>
<text text-anchor="middle" x="807" y="-588" font-family="Helvetica,sans-Serif" font-size="10.00">::untilProgress</text>
</a>
</g>
</g>
<!-- Node15&#45;&gt;Node17 -->
<g id="edge18_Node000015_Node000017" class="edge">
<title>Node15&#45;&gt;Node17</title>
<g id="a_edge18_Node000015_Node000017"><a xlink:title=" ">
<path fill="none" stroke="#63b8ff" d="M695.74,-633.38C710.19,-629.21 725.87,-624.67 740.76,-620.36"/>
<polygon fill="#63b8ff" stroke="#63b8ff" points="741.78,-623.71 750.41,-617.57 739.83,-616.99 741.78,-623.71"/>
</a>
</g>
</g>
<!-- Node18&#45;&gt;Node2 -->
<g id="edge20_Node000018_Node000002" class="edge">
<title>Node18&#45;&gt;Node2</title>
<g id="a_edge20_Node000018_Node000002"><a xlink:title=" ">
<path fill="none" stroke="#63b8ff" d="M507.34,-847.49C515.8,-850.77 524.23,-854.45 532,-858.5 558.89,-872.52 586.39,-892.97 606.63,-909.41"/>
<polygon fill="#63b8ff" stroke="#63b8ff" points="604.63,-912.29 614.57,-915.95 609.08,-906.89 604.63,-912.29"/>
</a>
</g>
</g>
<!-- Node19 -->
<g id="Node000019" class="node">
<title>Node19</title>
<g id="a_Node000019"><a xlink:href="classprecice_1_1utils_1_1IntraComm.html#abde303b11e46851ae65dca65ef06daad" target="_top" xlink:title="True if this process is running a secondary rank.">
<polygon fill="white" stroke="#666666" points="709,-843.5 569,-843.5 569,-813.5 709,-813.5 709,-843.5"/>
<text text-anchor="start" x="577" y="-831.5" font-family="Helvetica,sans-Serif" font-size="10.00">precice::utils::IntraComm</text>
<text text-anchor="middle" x="639" y="-820.5" font-family="Helvetica,sans-Serif" font-size="10.00">::isSecondary</text>
</a>
</g>
</g>
<!-- Node18&#45;&gt;Node19 -->
<g id="edge21_Node000018_Node000019" class="edge">
<title>Node18&#45;&gt;Node19</title>
<g id="a_edge21_Node000018_Node000019"><a xlink:title=" ">
<path fill="none" stroke="#63b8ff" d="M507.19,-828.5C523.67,-828.5 541.62,-828.5 558.8,-828.5"/>
<polygon fill="#63b8ff" stroke="#63b8ff" points="558.8,-832 568.8,-828.5 558.8,-825 558.8,-832"/>
</a>
</g>
</g>
<!-- Node25&#45;&gt;Node2 -->
<g id="edge31_Node000025_Node000002" class="edge">
<title>Node25&#45;&gt;Node2</title>
<g id="a_edge31_Node000025_Node000002"><a xlink:title=" ">
<path fill="none" stroke="#63b8ff" d="M306.71,-907.14C321.75,-911.16 337.84,-914.94 353,-917.5 424.27,-929.51 506.77,-934.01 564.61,-935.65"/>
<polygon fill="#63b8ff" stroke="#63b8ff" points="564.66,-939.15 574.75,-935.91 564.84,-932.15 564.66,-939.15"/>
</a>
</g>
</g>
<!-- Node25&#45;&gt;Node24 -->
<g id="edge32_Node000025_Node000024" class="edge">
<title>Node25&#45;&gt;Node24</title>
<g id="a_edge32_Node000025_Node000024"><a xlink:title=" ">
<path fill="none" stroke="#63b8ff" d="M306.69,-887.5C322.81,-887.5 340.4,-887.5 357.38,-887.5"/>
<polygon fill="#63b8ff" stroke="#63b8ff" points="357.86,-891 367.86,-887.5 357.86,-884 357.86,-891"/>
</a>
</g>
</g>
<!-- Node26&#45;&gt;Node26 -->
<g id="edge35_Node000026_Node000026" class="edge">
<title>Node26&#45;&gt;Node26</title>
<g id="a_edge35_Node000026_Node000026"><a xlink:title=" ">
<path fill="none" stroke="#63b8ff" d="M210.15,-177.1C206.62,-186.65 217.41,-195 242.5,-195 258.18,-195 268.28,-191.74 272.78,-186.96"/>
<polygon fill="#63b8ff" stroke="#63b8ff" points="276.22,-187.6 274.85,-177.1 269.37,-186.17 276.22,-187.6"/>
</a>
</g>
</g>
<!-- Node27 -->
<g id="Node000027" class="node">
<title>Node27</title>
<g id="a_Node000027"><a target="_parent" xlink:href="http://en.cppreference.com/w/cpp/memory/shared_ptr/get.html#" xlink:title=" ">
<polygon fill="white" stroke="#666666" points="498,-214 387,-214 387,-195 498,-195 498,-214"/>
<text text-anchor="middle" x="442.5" y="-202" font-family="Helvetica,sans-Serif" font-size="10.00">std::shared_ptr::get</text>
</a>
</g>
</g>
<!-- Node26&#45;&gt;Node27 -->
<g id="edge34_Node000026_Node000027" class="edge">
<title>Node26&#45;&gt;Node27</title>
<g id="a_edge34_Node000026_Node000027"><a xlink:title=" ">
<path fill="none" stroke="#63b8ff" d="M306.72,-174.59C321.83,-178.7 337.95,-182.91 353,-186.5 362.28,-188.71 372.15,-190.89 381.81,-192.93"/>
<polygon fill="#63b8ff" stroke="#63b8ff" points="381.25,-196.39 391.76,-194.99 382.68,-189.53 381.25,-196.39"/>
</a>
</g>
</g>
<!-- Node28 -->
<g id="Node000028" class="node">
<title>Node28</title>
<g id="a_Node000028"><a xlink:href="classprecice_1_1cplscheme_1_1BaseCouplingScheme.html#a1f7b29aa49ad8ba5c652e9e452bacbb5" target="_top" xlink:title=" ">
<polygon fill="white" stroke="#666666" points="506.5,-177 378.5,-177 378.5,-136 506.5,-136 506.5,-177"/>
<text text-anchor="start" x="386.5" y="-165" font-family="Helvetica,sans-Serif" font-size="10.00">precice::cplscheme</text>
<text text-anchor="start" x="386.5" y="-154" font-family="Helvetica,sans-Serif" font-size="10.00">::BaseCouplingScheme</text>
<text text-anchor="middle" x="442.5" y="-143" font-family="Helvetica,sans-Serif" font-size="10.00">::sendTimes</text>
</a>
</g>
</g>
<!-- Node26&#45;&gt;Node28 -->
<g id="edge36_Node000026_Node000028" class="edge">
<title>Node26&#45;&gt;Node28</title>
<g id="a_edge36_Node000026_Node000028"><a xlink:title=" ">
<path fill="none" stroke="#63b8ff" d="M306.69,-156.5C326.25,-156.5 347.96,-156.5 368.15,-156.5"/>
<polygon fill="#63b8ff" stroke="#63b8ff" points="368.23,-160 378.23,-156.5 368.23,-153 368.23,-160"/>
</a>
</g>
</g>
<!-- Node30 -->
<g id="Node000030" class="node">
<title>Node30</title>
<g id="a_Node000030"><a xlink:href="classprecice_1_1com_1_1serialize_1_1SerializedStamples.html#acefbea8c1c6ff8ca9f647ebf37348513" target="_top" xlink:title="Serializes a given CouplingData into SerializedStamples.">
<polygon fill="white" stroke="#666666" points="505.5,-106 379.5,-106 379.5,-65 505.5,-65 505.5,-106"/>
<text text-anchor="start" x="387.5" y="-94" font-family="Helvetica,sans-Serif" font-size="10.00">precice::com::serialize</text>
<text text-anchor="start" x="387.5" y="-83" font-family="Helvetica,sans-Serif" font-size="10.00">::SerializedStamples::</text>
<text text-anchor="middle" x="442.5" y="-72" font-family="Helvetica,sans-Serif" font-size="10.00">serialize</text>
</a>
</g>
</g>
<!-- Node26&#45;&gt;Node30 -->
<g id="edge38_Node000026_Node000030" class="edge">
<title>Node26&#45;&gt;Node30</title>
<g id="a_edge38_Node000026_Node000030"><a xlink:title=" ">
<path fill="none" stroke="#63b8ff" d="M300.77,-135.96C323.76,-127.72 350.42,-118.16 374.31,-109.59"/>
<polygon fill="#63b8ff" stroke="#63b8ff" points="375.78,-112.78 384.02,-106.11 373.42,-106.19 375.78,-112.78"/>
</a>
</g>
</g>
<!-- Node29 -->
<g id="Node000029" class="node">
<title>Node29</title>
<g id="a_Node000029"><a xlink:href="classprecice_1_1span.html#ae91f5ed50b6cbf0d15382b8e3c2a9a04" target="_top" xlink:title=" ">
<polygon fill="white" stroke="#666666" points="692.5,-196 585.5,-196 585.5,-177 692.5,-177 692.5,-196"/>
<text text-anchor="middle" x="639" y="-184" font-family="Helvetica,sans-Serif" font-size="10.00">precice::span::size</text>
</a>
</g>
</g>
<!-- Node28&#45;&gt;Node29 -->
<g id="edge37_Node000028_Node000029" class="edge">
<title>Node28&#45;&gt;Node29</title>
<g id="a_edge37_Node000028_Node000029"><a xlink:title=" ">
<path fill="none" stroke="#63b8ff" d="M506.65,-166.24C528.68,-169.64 553.38,-173.45 575.36,-176.84"/>
<polygon fill="#63b8ff" stroke="#63b8ff" points="574.84,-180.3 585.25,-178.36 575.9,-173.38 574.84,-180.3"/>
</a>
</g>
</g>
<!-- Node31 -->
<g id="Node000031" class="node">
<title>Node31</title>
<g id="a_Node000031"><a xlink:href="classprecice_1_1com_1_1serialize_1_1SerializedStamples.html#a766834ff07b9fc24a575a98c2fc8c382" target="_top" xlink:title=" ">
<polygon fill="white" stroke="#666666" points="702,-41 576,-41 576,0 702,0 702,-41"/>
<text text-anchor="start" x="584" y="-29" font-family="Helvetica,sans-Serif" font-size="10.00">precice::com::serialize</text>
<text text-anchor="start" x="584" y="-18" font-family="Helvetica,sans-Serif" font-size="10.00">::SerializedStamples::</text>
<text text-anchor="middle" x="639" y="-7" font-family="Helvetica,sans-Serif" font-size="10.00">allocate</text>
</a>
</g>
</g>
<!-- Node30&#45;&gt;Node31 -->
<g id="edge39_Node000030_Node000031" class="edge">
<title>Node30&#45;&gt;Node31</title>
<g id="a_edge39_Node000030_Node000031"><a xlink:title=" ">
<path fill="none" stroke="#63b8ff" d="M505.04,-64.93C524.74,-58.35 546.7,-51.01 567.01,-44.22"/>
<polygon fill="#63b8ff" stroke="#63b8ff" points="568.15,-47.53 576.53,-41.04 565.93,-40.89 568.15,-47.53"/>
</a>
</g>
</g>
<!-- Node32 -->
<g id="Node000032" class="node">
<title>Node32</title>
<g id="a_Node000032"><a xlink:href="classprecice_1_1com_1_1serialize_1_1SerializedStamples.html#aa94dbbe6f68c1dc4f14fb132df8ab796" target="_top" xlink:title="Serialize gradients from timeStepsStorage of data into _gradients.">
<polygon fill="white" stroke="#666666" points="702,-159 576,-159 576,-118 702,-118 702,-159"/>
<text text-anchor="start" x="584" y="-147" font-family="Helvetica,sans-Serif" font-size="10.00">precice::com::serialize</text>
<text text-anchor="start" x="584" y="-136" font-family="Helvetica,sans-Serif" font-size="10.00">::SerializedStamples::</text>
<text text-anchor="middle" x="639" y="-125" font-family="Helvetica,sans-Serif" font-size="10.00">serializeGradients</text>
</a>
</g>
</g>
<!-- Node30&#45;&gt;Node32 -->
<g id="edge40_Node000030_Node000032" class="edge">
<title>Node30&#45;&gt;Node32</title>
<g id="a_edge40_Node000030_Node000032"><a xlink:title=" ">
<path fill="none" stroke="#63b8ff" d="M505.58,-102.42C524.79,-107.65 546.12,-113.46 565.94,-118.86"/>
<polygon fill="#63b8ff" stroke="#63b8ff" points="565.28,-122.31 575.85,-121.56 567.12,-115.56 565.28,-122.31"/>
</a>
</g>
</g>
<!-- Node33 -->
<g id="Node000033" class="node">
<title>Node33</title>
<g id="a_Node000033"><a xlink:href="classprecice_1_1com_1_1serialize_1_1SerializedStamples.html#a51596e529ca6050a18852bf5172df2e6" target="_top" xlink:title="Serialize values from timeStepsStorage of data into _values.">
<polygon fill="white" stroke="#666666" points="702,-100 576,-100 576,-59 702,-59 702,-100"/>
<text text-anchor="start" x="584" y="-88" font-family="Helvetica,sans-Serif" font-size="10.00">precice::com::serialize</text>
<text text-anchor="start" x="584" y="-77" font-family="Helvetica,sans-Serif" font-size="10.00">::SerializedStamples::</text>
<text text-anchor="middle" x="639" y="-66" font-family="Helvetica,sans-Serif" font-size="10.00">serializeValues</text>
</a>
</g>
</g>
<!-- Node30&#45;&gt;Node33 -->
<g id="edge41_Node000030_Node000033" class="edge">
<title>Node30&#45;&gt;Node33</title>
<g id="a_edge41_Node000030_Node000033"><a xlink:title=" ">
<path fill="none" stroke="#63b8ff" d="M505.58,-83.59C524.7,-83 545.92,-82.34 565.67,-81.73"/>
<polygon fill="#63b8ff" stroke="#63b8ff" points="565.96,-85.22 575.85,-81.42 565.74,-78.23 565.96,-85.22"/>
</a>
</g>
</g>
<!-- Node34&#45;&gt;Node5 -->
<g id="edge44_Node000034_Node000005" class="edge">
<title>Node34&#45;&gt;Node5</title>
<g id="a_edge44_Node000034_Node000005"><a xlink:title=" ">
<path fill="none" stroke="#63b8ff" d="M281.35,-495.05C293.31,-502.35 306.22,-511.11 317,-520.5 335.8,-536.87 332.36,-549.53 353,-563.5 357.89,-566.81 363.18,-569.77 368.67,-572.4"/>
<polygon fill="#63b8ff" stroke="#63b8ff" points="367.48,-575.7 378.04,-576.54 370.31,-569.3 367.48,-575.7"/>
</a>
</g>
</g>
<!-- Node34&#45;&gt;Node7 -->
<g id="edge47_Node000034_Node000007" class="edge">
<title>Node34&#45;&gt;Node7</title>
<g id="a_edge47_Node000034_Node000007"><a xlink:title=" ">
<path fill="none" stroke="#63b8ff" d="M308.61,-493.9C327.8,-499.62 348.92,-505.91 368.56,-511.77"/>
<polygon fill="#63b8ff" stroke="#63b8ff" points="367.79,-515.19 378.38,-514.69 369.79,-508.48 367.79,-515.19"/>
</a>
</g>
</g>
<!-- Node34&#45;&gt;Node21 -->
<g id="edge43_Node000034_Node000021" class="edge">
<title>Node34&#45;&gt;Node21</title>
<g id="a_edge43_Node000034_Node000021"><a xlink:title=" ">
<path fill="none" stroke="#63b8ff" d="M279.09,-453.82C292.41,-444.68 306.77,-432.94 317,-419.5 343.6,-384.56 321.24,-357.82 353,-327.5 358.78,-321.99 365.6,-317.48 372.86,-313.81"/>
<polygon fill="#63b8ff" stroke="#63b8ff" points="374.56,-316.88 382.24,-309.58 371.68,-310.5 374.56,-316.88"/>
</a>
</g>
</g>
<!-- Node35 -->
<g id="Node000035" class="node">
<title>Node35</title>
<g id="a_Node000035"><a xlink:href="classprecice_1_1cplscheme_1_1BaseCouplingScheme.html#a7635edb3017de9279bc550173f44003f" target="_top" xlink:title="Returns the time window size, if one is given by the coupling scheme.">
<polygon fill="white" stroke="#666666" points="506.5,-436 378.5,-436 378.5,-395 506.5,-395 506.5,-436"/>
<text text-anchor="start" x="386.5" y="-424" font-family="Helvetica,sans-Serif" font-size="10.00">precice::cplscheme</text>
<text text-anchor="start" x="386.5" y="-413" font-family="Helvetica,sans-Serif" font-size="10.00">::BaseCouplingScheme</text>
<text text-anchor="middle" x="442.5" y="-402" font-family="Helvetica,sans-Serif" font-size="10.00">::getTimeWindowSize</text>
</a>
</g>
</g>
<!-- Node34&#45;&gt;Node35 -->
<g id="edge45_Node000034_Node000035" class="edge">
<title>Node34&#45;&gt;Node35</title>
<g id="a_edge45_Node000034_Node000035"><a xlink:title=" ">
<path fill="none" stroke="#63b8ff" d="M308.61,-455.1C327.8,-449.38 348.92,-443.09 368.56,-437.23"/>
<polygon fill="#63b8ff" stroke="#63b8ff" points="369.79,-440.52 378.38,-434.31 367.79,-433.81 369.79,-440.52"/>
</a>
</g>
</g>
<!-- Node36 -->
<g id="Node000036" class="node">
<title>Node36</title>
<g id="a_Node000036"><a xlink:href="classprecice_1_1cplscheme_1_1BaseCouplingScheme.html#ae5884457e1339371a60deb846268fc25" target="_top" xlink:title="Setter for _nextTimeWindowSize.">
<polygon fill="white" stroke="#666666" points="515,-495 370,-495 370,-454 515,-454 515,-495"/>
<text text-anchor="start" x="378" y="-483" font-family="Helvetica,sans-Serif" font-size="10.00">precice::cplscheme</text>
<text text-anchor="start" x="378" y="-472" font-family="Helvetica,sans-Serif" font-size="10.00">::BaseCouplingScheme</text>
<text text-anchor="middle" x="442.5" y="-461" font-family="Helvetica,sans-Serif" font-size="10.00">::setNextTimeWindowSize</text>
</a>
</g>
</g>
<!-- Node34&#45;&gt;Node36 -->
<g id="edge48_Node000034_Node000036" class="edge">
<title>Node34&#45;&gt;Node36</title>
<g id="a_edge48_Node000034_Node000036"><a xlink:title=" ">
<path fill="none" stroke="#63b8ff" d="M308.61,-474.5C324.85,-474.5 342.47,-474.5 359.42,-474.5"/>
<polygon fill="#63b8ff" stroke="#63b8ff" points="359.86,-478 369.86,-474.5 359.86,-471 359.86,-478"/>
</a>
</g>
</g>
<!-- Node37 -->
<g id="Node000037" class="node">
<title>Node37</title>
<g id="a_Node000037"><a xlink:href="classprecice_1_1cplscheme_1_1BaseCouplingScheme.html#a1337cc34f923d8bf9c1d50a18f3c9207" target="_top" xlink:title="Setter for _timeWindowSize.">
<polygon fill="white" stroke="#666666" points="506.5,-377 378.5,-377 378.5,-336 506.5,-336 506.5,-377"/>
<text text-anchor="start" x="386.5" y="-365" font-family="Helvetica,sans-Serif" font-size="10.00">precice::cplscheme</text>
<text text-anchor="start" x="386.5" y="-354" font-family="Helvetica,sans-Serif" font-size="10.00">::BaseCouplingScheme</text>
<text text-anchor="middle" x="442.5" y="-343" font-family="Helvetica,sans-Serif" font-size="10.00">::setTimeWindowSize</text>
</a>
</g>
</g>
<!-- Node34&#45;&gt;Node37 -->
<g id="edge49_Node000034_Node000037" class="edge">
<title>Node34&#45;&gt;Node37</title>
<g id="a_edge49_Node000034_Node000037"><a xlink:title=" ">
<path fill="none" stroke="#63b8ff" d="M272.28,-453.99C286.06,-443.91 302.64,-431.4 317,-419.5 333.71,-405.65 334.32,-397.55 353,-386.5 358.01,-383.54 363.35,-380.81 368.84,-378.32"/>
<polygon fill="#63b8ff" stroke="#63b8ff" points="370.34,-381.49 378.17,-374.35 367.6,-375.05 370.34,-381.49"/>
</a>
</g>
</g>
<!-- Node35&#45;&gt;Node10 -->
<g id="edge46_Node000035_Node000010" class="edge">
<title>Node35&#45;&gt;Node10</title>
<g id="a_edge46_Node000035_Node000010"><a xlink:title=" ">
<path fill="none" stroke="#63b8ff" d="M506.65,-435.95C525.34,-442.01 545.96,-448.69 565.21,-454.92"/>
<polygon fill="#63b8ff" stroke="#63b8ff" points="564.24,-458.29 574.84,-458.04 566.4,-451.63 564.24,-458.29"/>
</a>
</g>
</g>
</g>
</svg>
