<?xml version="1.0" encoding="UTF-8" standalone="no"?>
<!DOCTYPE svg PUBLIC "-//W3C//DTD SVG 1.1//EN"
 "http://www.w3.org/Graphics/SVG/1.1/DTD/svg11.dtd">
<!-- Generated by graphviz version 2.43.0 (0)
 -->
<!-- Title: precice::mapping::Mapping Pages: 1 -->
<!--zoomable 361 -->

<svg id="main" version="1.1" xmlns="http://www.w3.org/2000/svg" xmlns:xlink="http://www.w3.org/1999/xlink" xml:space="preserve" onload="init(evt)">
<style type="text/css"><![CDATA[
.node, .edge {opacity: 0.7;}
.node.selected, .edge.selected {opacity: 1;}
.edge:hover path { stroke: red; }
.edge:hover polygon { stroke: red; fill: red; }
]]></style>

<defs>
  <circle id="rim" cx="0" cy="0" r="7"/>
  <circle id="rim2" cx="0" cy="0" r="3.5"/>
  <g id="zoomPlus">
    <use xlink:href="#rim" fill="#404040"><set attributeName="fill" to="#808080" begin="zoomplus.mouseover" end="zoomplus.mouseout"/></use>
    <path d="M-4,0h8M0,-4v8" fill="none" stroke="white" stroke-width="1.5" pointer-events="none"/>
  </g>
  <g id="zoomMin">
    <use xlink:href="#rim" fill="#404040"><set attributeName="fill" to="#808080" begin="zoomminus.mouseover" end="zoomminus.mouseout"/></use>
    <path d="M-4,0h8" fill="none" stroke="white" stroke-width="1.5" pointer-events="none"/>
  </g>
  <g id="arrowUp" transform="translate(30 24)">
    <use xlink:href="#rim"/>
    <path pointer-events="none" fill="none" stroke="white" stroke-width="1.5" d="M0,-3.0v7 M-2.5,-0.5L0,-3.0L2.5,-0.5"/>
  </g>
  <g id="arrowRight" transform="rotate(90) translate(36 -43)">
    <use xlink:href="#rim"/>
    <path pointer-events="none" fill="none" stroke="white" stroke-width="1.5" d="M0,-3.0v7 M-2.5,-0.5L0,-3.0L2.5,-0.5"/>
  </g>
  <g id="arrowDown" transform="rotate(180) translate(-30 -48)">
    <use xlink:href="#rim"/>
    <path pointer-events="none" fill="none" stroke="white" stroke-width="1.5" d="M0,-3.0v7 M-2.5,-0.5L0,-3.0L2.5,-0.5"/>
  </g>
  <g id="arrowLeft" transform="rotate(270) translate(-36 17)">
    <use xlink:href="#rim"/>
    <path pointer-events="none" fill="none" stroke="white" stroke-width="1.5" d="M0,-3.0v7 M-2.5,-0.5L0,-3.0L2.5,-0.5"/>
  </g>
  <g id="resetDef">
    <use xlink:href="#rim2" fill="#404040"><set attributeName="fill" to="#808080" begin="reset.mouseover" end="reset.mouseout"/></use>
  </g>
</defs>
<script type="application/ecmascript">
var viewWidth = 559;
var viewHeight = 361;
var sectionId = 'dynsection-0';
</script>
<script type="application/ecmascript" xlink:href="svg.min.js"/>
<svg id="graph" class="graph">
<g id="viewport">
<title>precice::mapping::Mapping</title>
<!-- Node1 -->
<g id="Node000001" class="node">
<title>Node1</title>
<g id="a_Node000001"><a xlink:title="Abstract base class for mapping of data from one mesh to another.">
<polygon fill="#999999" stroke="#666666" points="149,-191.5 0,-191.5 0,-172.5 149,-172.5 149,-191.5"/>
<text text-anchor="middle" x="74.5" y="-179.5" font-family="Helvetica,sans-Serif" font-size="10.00">precice::mapping::Mapping</text>
</a>
</g>
</g>
<!-- Node2 -->
<g id="Node000002" class="node">
<title>Node2</title>
<g id="a_Node000002"><a xlink:href="classprecice_1_1mapping_1_1RadialBasisFctBaseMapping.html" target="_top" xlink:title=" ">
<polygon fill="white" stroke="#666666" points="360,-352.5 187,-352.5 187,-311.5 360,-311.5 360,-352.5"/>
<text text-anchor="start" x="195" y="-340.5" font-family="Helvetica,sans-Serif" font-size="10.00">precice::mapping::Radial</text>
<text text-anchor="start" x="195" y="-329.5" font-family="Helvetica,sans-Serif" font-size="10.00">BasisFctBaseMapping&lt; SOLVER</text>
<text text-anchor="middle" x="273.5" y="-318.5" font-family="Helvetica,sans-Serif" font-size="10.00">_T::BASIS_FUNCTION_T &gt;</text>
</a>
</g>
</g>
<!-- Node1&#45;&gt;Node2 -->
<g id="edge1_Node000001_Node000002" class="edge">
<title>Node1&#45;&gt;Node2</title>
<g id="a_edge1_Node000001_Node000002"><a xlink:title=" ">
<path fill="none" stroke="#63b8ff" d="M87.53,-200.13C105.7,-226.19 142.58,-274.16 185,-302 190.37,-305.52 196.2,-308.68 202.21,-311.49"/>
<polygon fill="#63b8ff" stroke="#63b8ff" points="90.23,-197.88 81.7,-191.59 84.45,-201.83 90.23,-197.88"/>
</a>
</g>
</g>
<!-- Node4 -->
<g id="Node000004" class="node">
<title>Node4</title>
<g id="a_Node000004"><a xlink:href="classprecice_1_1mapping_1_1AxialGeoMultiscaleMapping.html" target="_top" xlink:title="Geometric multiscale mapping in axial direction.">
<polygon fill="white" stroke="#666666" points="349,-293 198,-293 198,-263 349,-263 349,-293"/>
<text text-anchor="start" x="206" y="-281" font-family="Helvetica,sans-Serif" font-size="10.00">precice::mapping::AxialGeo</text>
<text text-anchor="middle" x="273.5" y="-270" font-family="Helvetica,sans-Serif" font-size="10.00">MultiscaleMapping</text>
</a>
</g>
</g>
<!-- Node1&#45;&gt;Node4 -->
<g id="edge3_Node000001_Node000004" class="edge">
<title>Node1&#45;&gt;Node4</title>
<g id="a_edge3_Node000001_Node000004"><a xlink:title=" ">
<path fill="none" stroke="#63b8ff" d="M95.41,-197.89C116.54,-214.05 151.44,-238.83 185,-254 192.46,-257.37 200.51,-260.37 208.58,-263"/>
<polygon fill="#63b8ff" stroke="#63b8ff" points="97.29,-194.91 87.25,-191.54 92.99,-200.44 97.29,-194.91"/>
</a>
</g>
</g>
<!-- Node5 -->
<g id="Node000005" class="node">
<title>Node5</title>
<g id="a_Node000005"><a xlink:href="classprecice_1_1mapping_1_1BarycentricBaseMapping.html" target="_top" xlink:title="Base class for interpolation based mappings, where mapping is done using a geometry&#45;based linear comb...">
<polygon fill="white" stroke="#666666" points="354.5,-245 192.5,-245 192.5,-215 354.5,-215 354.5,-245"/>
<text text-anchor="start" x="200.5" y="-233" font-family="Helvetica,sans-Serif" font-size="10.00">precice::mapping::Barycentric</text>
<text text-anchor="middle" x="273.5" y="-222" font-family="Helvetica,sans-Serif" font-size="10.00">BaseMapping</text>
</a>
</g>
</g>
<!-- Node1&#45;&gt;Node5 -->
<g id="edge4_Node000001_Node000005" class="edge">
<title>Node1&#45;&gt;Node5</title>
<g id="a_edge4_Node000001_Node000005"><a xlink:title=" ">
<path fill="none" stroke="#63b8ff" d="M124.9,-194.04C150.9,-200.37 183.04,-208.2 210.68,-214.94"/>
<polygon fill="#63b8ff" stroke="#63b8ff" points="125.44,-190.57 114.89,-191.6 123.78,-197.37 125.44,-190.57"/>
</a>
</g>
</g>
<!-- Node8 -->
<g id="Node000008" class="node">
<title>Node8</title>
<g id="a_Node000008"><a xlink:href="classprecice_1_1mapping_1_1NearestNeighborBaseMapping.html" target="_top" xlink:title=" ">
<polygon fill="white" stroke="#666666" points="346,-197 201,-197 201,-167 346,-167 346,-197"/>
<text text-anchor="start" x="209" y="-185" font-family="Helvetica,sans-Serif" font-size="10.00">precice::mapping::Nearest</text>
<text text-anchor="middle" x="273.5" y="-174" font-family="Helvetica,sans-Serif" font-size="10.00">NeighborBaseMapping</text>
</a>
</g>
</g>
<!-- Node1&#45;&gt;Node8 -->
<g id="edge7_Node000001_Node000008" class="edge">
<title>Node1&#45;&gt;Node8</title>
<g id="a_edge7_Node000001_Node000008"><a xlink:title=" ">
<path fill="none" stroke="#63b8ff" d="M159.16,-182C173.06,-182 187.36,-182 200.92,-182"/>
<polygon fill="#63b8ff" stroke="#63b8ff" points="159.14,-178.5 149.14,-182 159.14,-185.5 159.14,-178.5"/>
</a>
</g>
</g>
<!-- Node11 -->
<g id="Node000011" class="node">
<title>Node11</title>
<g id="a_Node000011"><a xlink:href="classprecice_1_1mapping_1_1PartitionOfUnityMapping.html" target="_top" xlink:title=" ">
<polygon fill="white" stroke="#666666" points="362,-148.5 185,-148.5 185,-107.5 362,-107.5 362,-148.5"/>
<text text-anchor="start" x="193" y="-136.5" font-family="Helvetica,sans-Serif" font-size="10.00">precice::mapping::Partition</text>
<text text-anchor="start" x="193" y="-125.5" font-family="Helvetica,sans-Serif" font-size="10.00">OfUnityMapping&lt; RADIAL_BASIS</text>
<text text-anchor="middle" x="273.5" y="-114.5" font-family="Helvetica,sans-Serif" font-size="10.00">_FUNCTION_T &gt;</text>
</a>
</g>
</g>
<!-- Node1&#45;&gt;Node11 -->
<g id="edge10_Node000001_Node000011" class="edge">
<title>Node1&#45;&gt;Node11</title>
<g id="a_edge10_Node000001_Node000011"><a xlink:title=" ">
<path fill="none" stroke="#63b8ff" d="M120.04,-169.79C142.96,-163.51 171.51,-155.68 197.69,-148.51"/>
<polygon fill="#63b8ff" stroke="#63b8ff" points="118.99,-166.45 110.27,-172.47 120.84,-173.2 118.99,-166.45"/>
</a>
</g>
</g>
<!-- Node12 -->
<g id="Node000012" class="node">
<title>Node12</title>
<g id="a_Node000012"><a xlink:href="classprecice_1_1mapping_1_1RadialBasisFctBaseMapping.html" target="_top" xlink:title="Mapping with radial basis functions.">
<polygon fill="white" stroke="#666666" points="359,-89.5 188,-89.5 188,-48.5 359,-48.5 359,-89.5"/>
<text text-anchor="start" x="196" y="-77.5" font-family="Helvetica,sans-Serif" font-size="10.00">precice::mapping::Radial</text>
<text text-anchor="start" x="196" y="-66.5" font-family="Helvetica,sans-Serif" font-size="10.00">BasisFctBaseMapping&lt; RADIAL</text>
<text text-anchor="middle" x="273.5" y="-55.5" font-family="Helvetica,sans-Serif" font-size="10.00">_BASIS_FUNCTION_T &gt;</text>
</a>
</g>
</g>
<!-- Node1&#45;&gt;Node12 -->
<g id="edge11_Node000001_Node000012" class="edge">
<title>Node1&#45;&gt;Node12</title>
<g id="a_edge11_Node000001_Node000012"><a xlink:title=" ">
<path fill="none" stroke="#63b8ff" d="M93.18,-165.39C113.82,-146.77 149.64,-116.73 185,-98 190.8,-94.93 196.98,-92.1 203.28,-89.51"/>
<polygon fill="#63b8ff" stroke="#63b8ff" points="90.57,-163.04 85.56,-172.38 95.3,-168.2 90.57,-163.04"/>
</a>
</g>
</g>
<!-- Node14 -->
<g id="Node000014" class="node">
<title>Node14</title>
<g id="a_Node000014"><a xlink:href="classprecice_1_1mapping_1_1RadialGeoMultiscaleMapping.html" target="_top" xlink:title="Geometric multiscale mapping in radial direction.">
<polygon fill="white" stroke="#666666" points="342,-30 205,-30 205,0 342,0 342,-30"/>
<text text-anchor="start" x="213" y="-18" font-family="Helvetica,sans-Serif" font-size="10.00">precice::mapping::Radial</text>
<text text-anchor="middle" x="273.5" y="-7" font-family="Helvetica,sans-Serif" font-size="10.00">GeoMultiscaleMapping</text>
</a>
</g>
</g>
<!-- Node1&#45;&gt;Node14 -->
<g id="edge13_Node000001_Node000014" class="edge">
<title>Node1&#45;&gt;Node14</title>
<g id="a_edge13_Node000001_Node000014"><a xlink:title=" ">
<path fill="none" stroke="#63b8ff" d="M84.77,-163.05C100.82,-132.24 136.76,-71.47 185,-39 191.01,-34.95 197.69,-31.59 204.59,-28.79"/>
<polygon fill="#63b8ff" stroke="#63b8ff" points="81.5,-161.76 80.1,-172.26 87.74,-164.92 81.5,-161.76"/>
</a>
</g>
</g>
<!-- Node3 -->
<g id="Node000003" class="node">
<title>Node3</title>
<g id="a_Node000003"><a xlink:href="classprecice_1_1mapping_1_1RadialBasisFctMapping.html" target="_top" xlink:title="Mapping with radial basis functions.">
<polygon fill="white" stroke="#666666" points="549,-352.5 400,-352.5 400,-311.5 549,-311.5 549,-352.5"/>
<text text-anchor="start" x="408" y="-340.5" font-family="Helvetica,sans-Serif" font-size="10.00">precice::mapping::Radial</text>
<text text-anchor="start" x="408" y="-329.5" font-family="Helvetica,sans-Serif" font-size="10.00">BasisFctMapping&lt; SOLVER</text>
<text text-anchor="middle" x="474.5" y="-318.5" font-family="Helvetica,sans-Serif" font-size="10.00">_T, Args &gt;</text>
</a>
</g>
</g>
<!-- Node2&#45;&gt;Node3 -->
<g id="edge2_Node000002_Node000003" class="edge">
<title>Node2&#45;&gt;Node3</title>
<g id="a_edge2_Node000002_Node000003"><a xlink:title=" ">
<path fill="none" stroke="#63b8ff" d="M370.05,-332C380.09,-332 390.18,-332 399.91,-332"/>
<polygon fill="#63b8ff" stroke="#63b8ff" points="370.05,-328.5 360.05,-332 370.05,-335.5 370.05,-328.5"/>
</a>
</g>
</g>
<!-- Node6 -->
<g id="Node000006" class="node">
<title>Node6</title>
<g id="a_Node000006"><a xlink:href="classprecice_1_1mapping_1_1LinearCellInterpolationMapping.html" target="_top" xlink:title="Mapping using orthogonal projection to nearest triangle/edge/vertex and linear interpolation from pro...">
<polygon fill="white" stroke="#666666" points="544.5,-293 404.5,-293 404.5,-263 544.5,-263 544.5,-293"/>
<text text-anchor="start" x="412.5" y="-281" font-family="Helvetica,sans-Serif" font-size="10.00">precice::mapping::Linear</text>
<text text-anchor="middle" x="474.5" y="-270" font-family="Helvetica,sans-Serif" font-size="10.00">CellInterpolationMapping</text>
</a>
</g>
</g>
<!-- Node5&#45;&gt;Node6 -->
<g id="edge5_Node000005_Node000006" class="edge">
<title>Node5&#45;&gt;Node6</title>
<g id="a_edge5_Node000005_Node000006"><a xlink:title=" ">
<path fill="none" stroke="#63b8ff" d="M346.81,-247.44C367.95,-252.54 390.85,-258.07 411.3,-263"/>
<polygon fill="#63b8ff" stroke="#63b8ff" points="347.46,-244 336.92,-245.06 345.82,-250.8 347.46,-244"/>
</a>
</g>
</g>
<!-- Node7 -->
<g id="Node000007" class="node">
<title>Node7</title>
<g id="a_Node000007"><a xlink:href="classprecice_1_1mapping_1_1NearestProjectionMapping.html" target="_top" xlink:title="Mapping using orthogonal projection to nearest triangle/edge/vertex and linear interpolation from pro...">
<polygon fill="white" stroke="#666666" points="547,-245 402,-245 402,-215 547,-215 547,-245"/>
<text text-anchor="start" x="410" y="-233" font-family="Helvetica,sans-Serif" font-size="10.00">precice::mapping::Nearest</text>
<text text-anchor="middle" x="474.5" y="-222" font-family="Helvetica,sans-Serif" font-size="10.00">ProjectionMapping</text>
</a>
</g>
</g>
<!-- Node5&#45;&gt;Node7 -->
<g id="edge6_Node000005_Node000007" class="edge">
<title>Node5&#45;&gt;Node7</title>
<g id="a_edge6_Node000005_Node000007"><a xlink:title=" ">
<path fill="none" stroke="#63b8ff" d="M364.94,-230C377.34,-230 389.93,-230 401.93,-230"/>
<polygon fill="#63b8ff" stroke="#63b8ff" points="364.58,-226.5 354.58,-230 364.58,-233.5 364.58,-226.5"/>
</a>
</g>
</g>
<!-- Node9 -->
<g id="Node000009" class="node">
<title>Node9</title>
<g id="a_Node000009"><a xlink:href="classprecice_1_1mapping_1_1NearestNeighborGradientMapping.html" target="_top" xlink:title="Mapping using nearest neighboring vertices and their local gradient values.">
<polygon fill="white" stroke="#666666" points="547,-197 402,-197 402,-167 547,-167 547,-197"/>
<text text-anchor="start" x="410" y="-185" font-family="Helvetica,sans-Serif" font-size="10.00">precice::mapping::Nearest</text>
<text text-anchor="middle" x="474.5" y="-174" font-family="Helvetica,sans-Serif" font-size="10.00">NeighborGradientMapping</text>
</a>
</g>
</g>
<!-- Node8&#45;&gt;Node9 -->
<g id="edge8_Node000008_Node000009" class="edge">
<title>Node8&#45;&gt;Node9</title>
<g id="a_edge8_Node000008_Node000009"><a xlink:title=" ">
<path fill="none" stroke="#63b8ff" d="M356.4,-182C371.5,-182 387.15,-182 401.9,-182"/>
<polygon fill="#63b8ff" stroke="#63b8ff" points="356.06,-178.5 346.06,-182 356.06,-185.5 356.06,-178.5"/>
</a>
</g>
</g>
<!-- Node10 -->
<g id="Node000010" class="node">
<title>Node10</title>
<g id="a_Node000010"><a xlink:href="classprecice_1_1mapping_1_1NearestNeighborMapping.html" target="_top" xlink:title="Mapping using nearest neighboring vertices.">
<polygon fill="white" stroke="#666666" points="547,-149 402,-149 402,-119 547,-119 547,-149"/>
<text text-anchor="start" x="410" y="-137" font-family="Helvetica,sans-Serif" font-size="10.00">precice::mapping::Nearest</text>
<text text-anchor="middle" x="474.5" y="-126" font-family="Helvetica,sans-Serif" font-size="10.00">NeighborMapping</text>
</a>
</g>
</g>
<!-- Node8&#45;&gt;Node10 -->
<g id="edge9_Node000008_Node000010" class="edge">
<title>Node8&#45;&gt;Node10</title>
<g id="a_edge9_Node000008_Node000010"><a xlink:title=" ">
<path fill="none" stroke="#63b8ff" d="M346.81,-164.56C367.95,-159.46 390.85,-153.93 411.3,-149"/>
<polygon fill="#63b8ff" stroke="#63b8ff" points="345.82,-161.2 336.92,-166.94 347.46,-168 345.82,-161.2"/>
</a>
</g>
</g>
<!-- Node13 -->
<g id="Node000013" class="node">
<title>Node13</title>
<g id="a_Node000013"><a xlink:href="classprecice_1_1mapping_1_1PetRadialBasisFctMapping.html" target="_top" xlink:title="Mapping with radial basis functions using the Petsc library to solve the resulting system.">
<polygon fill="white" stroke="#666666" points="551,-89.5 398,-89.5 398,-48.5 551,-48.5 551,-89.5"/>
<text text-anchor="start" x="406" y="-77.5" font-family="Helvetica,sans-Serif" font-size="10.00">precice::mapping::PetRadial</text>
<text text-anchor="start" x="406" y="-66.5" font-family="Helvetica,sans-Serif" font-size="10.00">BasisFctMapping&lt; RADIAL</text>
<text text-anchor="middle" x="474.5" y="-55.5" font-family="Helvetica,sans-Serif" font-size="10.00">_BASIS_FUNCTION_T &gt;</text>
</a>
</g>
</g>
<!-- Node12&#45;&gt;Node13 -->
<g id="edge12_Node000012_Node000013" class="edge">
<title>Node12&#45;&gt;Node13</title>
<g id="a_edge12_Node000012_Node000013"><a xlink:title=" ">
<path fill="none" stroke="#63b8ff" d="M369.44,-69C378.92,-69 388.46,-69 397.71,-69"/>
<polygon fill="#63b8ff" stroke="#63b8ff" points="369.18,-65.5 359.18,-69 369.18,-72.5 369.18,-65.5"/>
</a>
</g>
</g>
</g>
</svg>

<g id="navigator" transform="translate(0 0)" fill="#404254">
  <rect fill="#f2f5e9" fill-opacity="0.5" stroke="#606060" stroke-width=".5" x="0" y="0" width="60" height="60"/>
  <use id="zoomplus" xlink:href="#zoomPlus" x="17" y="9" onmousedown="handleZoom(evt,'in')"/>
  <use id="zoomminus" xlink:href="#zoomMin" x="42" y="9" onmousedown="handleZoom(evt,'out')"/>
  <use id="reset" xlink:href="#resetDef" x="30" y="36" onmousedown="handleReset()"/>
   <use id="arrowup" xlink:href="#arrowUp" x="0" y="0" onmousedown="handlePan(0,-1)"/>
  <use id="arrowright" xlink:href="#arrowRight" x="0" y="0" onmousedown="handlePan(1,0)"/>
  <use id="arrowdown" xlink:href="#arrowDown" x="0" y="0" onmousedown="handlePan(0,1)"/>
  <use id="arrowleft" xlink:href="#arrowLeft" x="0" y="0" onmousedown="handlePan(-1,0)"/>
</g>
<svg viewBox="0 0 15 15" width="100%" height="30px" preserveAspectRatio="xMaxYMin meet">
 <g id="arrow_out" transform="scale(0.3 0.3)">
  <a xlink:href="classprecice_1_1mapping_1_1Mapping__inherit__graph_org.svg" target="_base">
   <rect id="button" ry="5" rx="5" y="6" x="6" height="38" width="38"
        fill="#f2f5e9" fill-opacity="0.5" stroke="#606060" stroke-width="1.0"/>
   <path id="arrow"
     d="M 11.500037,31.436501 C 11.940474,20.09759 22.043105,11.32322 32.158766,21.979434 L 37.068811,17.246167 C 37.068811,17.246167 37.088388,32 37.088388,32 L 22.160133,31.978069 C 22.160133,31.978069 26.997745,27.140456 26.997745,27.140456 C 18.528582,18.264221 13.291696,25.230495 11.500037,31.436501 z"
     style="fill:#404040;"/>
  </a>
 </g>
</svg>

<style type='text/css'>
<![CDATA[
[data-mouse-over-selected='false'] { opacity: 0.7; }
[data-mouse-over-selected='true']  { opacity: 1.0; }
]]>
</style>
<script type="application/ecmascript"><![CDATA[
document.addEventListener('DOMContentLoaded', (event) => {
  highlightEdges();
  highlightAdjacentNodes();
});
]]></script>
</svg>
