<?xml version="1.0" encoding="UTF-8" standalone="no"?>
<!DOCTYPE svg PUBLIC "-//W3C//DTD SVG 1.1//EN"
 "http://www.w3.org/Graphics/SVG/1.1/DTD/svg11.dtd">
<!-- Generated by graphviz version 2.43.0 (0)
 -->
<!-- Title: precice::time::Waveform::sample Pages: 1 -->
<svg width="518pt" height="351pt"
 viewBox="0.00 0.00 518.00 351.00" xmlns="http://www.w3.org/2000/svg" xmlns:xlink="http://www.w3.org/1999/xlink">
<g id="graph0" class="graph" transform="scale(1 1) rotate(0) translate(4 347)">
<title>precice::time::Waveform::sample</title>
<polygon fill="white" stroke="transparent" points="-4,4 -4,-347 514,-347 514,4 -4,4"/>
<!-- Node1 -->
<g id="node1" class="node">
<title>Node1</title>
<g id="a_node1"><a xlink:title="Evaluate waveform at specific point in time. Uses interpolation if necessary.">
<polygon fill="#bfbfbf" stroke="black" points="0,-164.5 0,-194.5 137,-194.5 137,-164.5 0,-164.5"/>
<text text-anchor="start" x="8" y="-182.5" font-family="Helvetica,sans-Serif" font-size="10.00">precice::time::Waveform</text>
<text text-anchor="middle" x="68.5" y="-171.5" font-family="Helvetica,sans-Serif" font-size="10.00">::sample</text>
</a>
</g>
</g>
<!-- Node2 -->
<g id="node2" class="node">
<title>Node2</title>
<g id="a_node2"><a xlink:href="classprecice_1_1time_1_1Waveform.html#ab432661dd5328b9fe7825752ccbf4301" target="_top" xlink:title="Computes which degree may be used for interpolation.">
<polygon fill="white" stroke="black" points="176,-312.5 176,-342.5 313,-342.5 313,-312.5 176,-312.5"/>
<text text-anchor="start" x="184" y="-330.5" font-family="Helvetica,sans-Serif" font-size="10.00">precice::time::Waveform</text>
<text text-anchor="middle" x="244.5" y="-319.5" font-family="Helvetica,sans-Serif" font-size="10.00">::computeUsedDegree</text>
</a>
</g>
</g>
<!-- Node1&#45;&gt;Node2 -->
<g id="edge1" class="edge">
<title>Node1&#45;&gt;Node2</title>
<path fill="none" stroke="midnightblue" d="M78.4,-194.6C94.27,-220.29 129.88,-272.61 173,-302.5 175.72,-304.39 178.6,-306.14 181.58,-307.78"/>
<polygon fill="midnightblue" stroke="midnightblue" points="180.24,-311.02 190.75,-312.34 183.35,-304.76 180.24,-311.02"/>
</g>
<!-- Node3 -->
<g id="node3" class="node">
<title>Node3</title>
<g id="a_node3"><a xlink:href="namespaceprecice_1_1detail.html#adede399b4b92eea01face616a0cc7051" target="_top" xlink:title=" ">
<polygon fill="white" stroke="black" points="188,-274 188,-293 301,-293 301,-274 188,-274"/>
<text text-anchor="middle" x="244.5" y="-281" font-family="Helvetica,sans-Serif" font-size="10.00">precice::detail::data</text>
</a>
</g>
</g>
<!-- Node1&#45;&gt;Node3 -->
<g id="edge2" class="edge">
<title>Node1&#45;&gt;Node3</title>
<path fill="none" stroke="midnightblue" d="M83.81,-194.71C102.54,-213.74 137.24,-246.09 173,-264.5 177.53,-266.83 182.38,-268.9 187.33,-270.73"/>
<polygon fill="midnightblue" stroke="midnightblue" points="186.34,-274.09 196.93,-273.97 188.57,-267.46 186.34,-274.09"/>
</g>
<!-- Node4 -->
<g id="node4" class="node">
<title>Node4</title>
<g id="a_node4"><a xlink:href="namespaceprecice_1_1math.html#a0e86802cfe992deba131d789d035b5b7" target="_top" xlink:title="Compares two Eigen::MatrixBase for equality up to tolerance.">
<polygon fill="white" stroke="black" points="183.5,-236 183.5,-255 305.5,-255 305.5,-236 183.5,-236"/>
<text text-anchor="middle" x="244.5" y="-243" font-family="Helvetica,sans-Serif" font-size="10.00">precice::math::equals</text>
</a>
</g>
</g>
<!-- Node1&#45;&gt;Node4 -->
<g id="edge3" class="edge">
<title>Node1&#45;&gt;Node4</title>
<path fill="none" stroke="midnightblue" d="M99.31,-194.6C119.7,-204.54 147.55,-217.36 173,-226.5 179.57,-228.86 186.58,-231.08 193.53,-233.12"/>
<polygon fill="midnightblue" stroke="midnightblue" points="193.05,-236.62 203.62,-235.97 194.95,-229.88 193.05,-236.62"/>
</g>
<!-- Node5 -->
<g id="node5" class="node">
<title>Node5</title>
<g id="a_node5"><a xlink:href="classprecice_1_1time_1_1Storage.html#a7699b242d48c467606c27cacbf1f6492" target="_top" xlink:title="Get all normalized dts and values in ascending order (with respect to normalized dts)">
<polygon fill="white" stroke="black" points="182.5,-186.5 182.5,-216.5 306.5,-216.5 306.5,-186.5 182.5,-186.5"/>
<text text-anchor="start" x="190.5" y="-204.5" font-family="Helvetica,sans-Serif" font-size="10.00">precice::time::Storage</text>
<text text-anchor="middle" x="244.5" y="-193.5" font-family="Helvetica,sans-Serif" font-size="10.00">::getTimesAndValues</text>
</a>
</g>
</g>
<!-- Node1&#45;&gt;Node5 -->
<g id="edge4" class="edge">
<title>Node1&#45;&gt;Node5</title>
<path fill="none" stroke="midnightblue" d="M137.27,-188.07C148.78,-189.52 160.77,-191.04 172.37,-192.51"/>
<polygon fill="midnightblue" stroke="midnightblue" points="172.08,-196 182.44,-193.78 172.96,-189.05 172.08,-196"/>
</g>
<!-- Node7 -->
<g id="node7" class="node">
<title>Node7</title>
<g id="a_node7"><a xlink:href="classprecice_1_1time_1_1Storage.html#ac6b8883c787b328e1a4114d4457c0b30" target="_top" xlink:title="Number of stored times.">
<polygon fill="white" stroke="black" points="369,-142.5 369,-172.5 493,-172.5 493,-142.5 369,-142.5"/>
<text text-anchor="start" x="377" y="-160.5" font-family="Helvetica,sans-Serif" font-size="10.00">precice::time::Storage</text>
<text text-anchor="middle" x="431" y="-149.5" font-family="Helvetica,sans-Serif" font-size="10.00">::nTimes</text>
</a>
</g>
</g>
<!-- Node1&#45;&gt;Node7 -->
<g id="edge12" class="edge">
<title>Node1&#45;&gt;Node7</title>
<path fill="none" stroke="midnightblue" d="M137.31,-175.36C200.52,-171.5 294.45,-165.77 358.75,-161.85"/>
<polygon fill="midnightblue" stroke="midnightblue" points="359.03,-165.34 368.8,-161.23 358.61,-158.35 359.03,-165.34"/>
</g>
<!-- Node8 -->
<g id="node8" class="node">
<title>Node8</title>
<g id="a_node8"><a xlink:href="classprecice_1_1time_1_1Storage.html#aa849687d3952aaeb8efb114153743767" target="_top" xlink:title="Returns the values at time following &quot;before&quot; contained in this Storage.">
<polygon fill="white" stroke="black" points="182.5,-98.5 182.5,-128.5 306.5,-128.5 306.5,-98.5 182.5,-98.5"/>
<text text-anchor="start" x="190.5" y="-116.5" font-family="Helvetica,sans-Serif" font-size="10.00">precice::time::Storage</text>
<text text-anchor="middle" x="244.5" y="-105.5" font-family="Helvetica,sans-Serif" font-size="10.00">::getValuesAtOrAfter</text>
</a>
</g>
</g>
<!-- Node1&#45;&gt;Node8 -->
<g id="edge7" class="edge">
<title>Node1&#45;&gt;Node8</title>
<path fill="none" stroke="midnightblue" d="M109.42,-164.36C134.62,-154.8 167.36,-142.38 194.18,-132.21"/>
<polygon fill="midnightblue" stroke="midnightblue" points="195.66,-135.39 203.77,-128.57 193.18,-128.85 195.66,-135.39"/>
</g>
<!-- Node9 -->
<g id="node9" class="node">
<title>Node9</title>
<g id="a_node9"><a xlink:href="namespaceprecice_1_1math_1_1bspline.html#a164179f14178b5f1ebcb5ca46764e1f9" target="_top" xlink:title=" ">
<polygon fill="white" stroke="black" points="182,-49.5 182,-79.5 307,-79.5 307,-49.5 182,-49.5"/>
<text text-anchor="start" x="190" y="-67.5" font-family="Helvetica,sans-Serif" font-size="10.00">precice::math::bspline</text>
<text text-anchor="middle" x="244.5" y="-56.5" font-family="Helvetica,sans-Serif" font-size="10.00">::interpolateAt</text>
</a>
</g>
</g>
<!-- Node1&#45;&gt;Node9 -->
<g id="edge8" class="edge">
<title>Node1&#45;&gt;Node9</title>
<path fill="none" stroke="midnightblue" d="M83.22,-164.48C101.86,-144.85 137.01,-110.5 173,-89.5 176.6,-87.4 180.4,-85.44 184.3,-83.6"/>
<polygon fill="midnightblue" stroke="midnightblue" points="185.76,-86.78 193.52,-79.57 182.95,-80.37 185.76,-86.78"/>
</g>
<!-- Node12 -->
<g id="node12" class="node">
<title>Node12</title>
<g id="a_node12"><a xlink:href="classprecice_1_1time_1_1Storage.html#a4685b028851d8b729fca86cdb02503b2" target="_top" xlink:title="Get maximum normalized dt that is stored in this Storage.">
<polygon fill="white" stroke="black" points="173,-0.5 173,-30.5 316,-30.5 316,-0.5 173,-0.5"/>
<text text-anchor="start" x="181" y="-18.5" font-family="Helvetica,sans-Serif" font-size="10.00">precice::time::Storage</text>
<text text-anchor="middle" x="244.5" y="-7.5" font-family="Helvetica,sans-Serif" font-size="10.00">::maxStoredNormalizedDt</text>
</a>
</g>
</g>
<!-- Node1&#45;&gt;Node12 -->
<g id="edge11" class="edge">
<title>Node1&#45;&gt;Node12</title>
<path fill="none" stroke="midnightblue" d="M76.66,-164.49C90.99,-136.02 125.9,-73.92 173,-39.5 175.06,-38 177.21,-36.59 179.44,-35.26"/>
<polygon fill="midnightblue" stroke="midnightblue" points="181.15,-38.31 188.34,-30.54 177.87,-32.13 181.15,-38.31"/>
</g>
<!-- Node6 -->
<g id="node6" class="node">
<title>Node6</title>
<g id="a_node6"><a xlink:href="classprecice_1_1time_1_1Storage.html#a5314dff98a3b6c92ef7bf48be027fa4d" target="_top" xlink:title="Number of Dofs for each values.">
<polygon fill="white" stroke="black" points="369,-191.5 369,-221.5 493,-221.5 493,-191.5 369,-191.5"/>
<text text-anchor="start" x="377" y="-209.5" font-family="Helvetica,sans-Serif" font-size="10.00">precice::time::Storage</text>
<text text-anchor="middle" x="431" y="-198.5" font-family="Helvetica,sans-Serif" font-size="10.00">::nDofs</text>
</a>
</g>
</g>
<!-- Node5&#45;&gt;Node6 -->
<g id="edge5" class="edge">
<title>Node5&#45;&gt;Node6</title>
<path fill="none" stroke="midnightblue" d="M306.68,-203.16C323.43,-203.61 341.72,-204.11 358.97,-204.58"/>
<polygon fill="midnightblue" stroke="midnightblue" points="358.89,-208.07 368.99,-204.85 359.08,-201.08 358.89,-208.07"/>
</g>
<!-- Node5&#45;&gt;Node7 -->
<g id="edge6" class="edge">
<title>Node5&#45;&gt;Node7</title>
<path fill="none" stroke="midnightblue" d="M306.68,-186.91C323.43,-182.92 341.72,-178.55 358.97,-174.44"/>
<polygon fill="midnightblue" stroke="midnightblue" points="360.07,-177.78 368.99,-172.05 358.45,-170.97 360.07,-177.78"/>
</g>
<!-- Node10 -->
<g id="node10" class="node">
<title>Node10</title>
<g id="a_node10"><a xlink:href="namespaceprecice_1_1math.html#a8226f8d65e2358c744f70758921f5d52" target="_top" xlink:title=" ">
<polygon fill="white" stroke="black" points="352.5,-74 352.5,-93 509.5,-93 509.5,-74 352.5,-74"/>
<text text-anchor="middle" x="431" y="-81" font-family="Helvetica,sans-Serif" font-size="10.00">precice::math::greaterEquals</text>
</a>
</g>
</g>
<!-- Node9&#45;&gt;Node10 -->
<g id="edge9" class="edge">
<title>Node9&#45;&gt;Node10</title>
<path fill="none" stroke="midnightblue" d="M307.19,-70.85C318.37,-72 330.23,-73.23 341.99,-74.44"/>
<polygon fill="midnightblue" stroke="midnightblue" points="341.98,-77.95 352.29,-75.5 342.7,-70.99 341.98,-77.95"/>
</g>
<!-- Node11 -->
<g id="node11" class="node">
<title>Node11</title>
<g id="a_node11"><a xlink:href="namespaceprecice_1_1math.html#a9885a93970db6840d33a76782ae9d4c7" target="_top" xlink:title=" ">
<polygon fill="white" stroke="black" points="352,-36 352,-55 510,-55 510,-36 352,-36"/>
<text text-anchor="middle" x="431" y="-43" font-family="Helvetica,sans-Serif" font-size="10.00">precice::math::smallerEquals</text>
</a>
</g>
</g>
<!-- Node9&#45;&gt;Node11 -->
<g id="edge10" class="edge">
<title>Node9&#45;&gt;Node11</title>
<path fill="none" stroke="midnightblue" d="M307.19,-58.15C318.29,-57 330.06,-55.79 341.74,-54.59"/>
<polygon fill="midnightblue" stroke="midnightblue" points="342.37,-58.04 351.96,-53.54 341.66,-51.08 342.37,-58.04"/>
</g>
</g>
</svg>
