<?xml version="1.0" encoding="UTF-8" standalone="no"?>
<!DOCTYPE svg PUBLIC "-//W3C//DTD SVG 1.1//EN"
 "http://www.w3.org/Graphics/SVG/1.1/DTD/svg11.dtd">
<!-- Generated by graphviz version 2.43.0 (0)
 -->
<!-- Title: precice::cplscheme::CompositionalCouplingScheme::isInitialized Pages: 1 -->
<!--zoomable 317 -->

<svg id="main" version="1.1" xmlns="http://www.w3.org/2000/svg" xmlns:xlink="http://www.w3.org/1999/xlink" xml:space="preserve" onload="init(evt)">
<style type="text/css"><![CDATA[
.node, .edge {opacity: 0.7;}
.node.selected, .edge.selected {opacity: 1;}
.edge:hover path { stroke: red; }
.edge:hover polygon { stroke: red; fill: red; }
]]></style>

<defs>
  <circle id="rim" cx="0" cy="0" r="7"/>
  <circle id="rim2" cx="0" cy="0" r="3.5"/>
  <g id="zoomPlus">
    <use xlink:href="#rim" fill="#404040"><set attributeName="fill" to="#808080" begin="zoomplus.mouseover" end="zoomplus.mouseout"/></use>
    <path d="M-4,0h8M0,-4v8" fill="none" stroke="white" stroke-width="1.5" pointer-events="none"/>
  </g>
  <g id="zoomMin">
    <use xlink:href="#rim" fill="#404040"><set attributeName="fill" to="#808080" begin="zoomminus.mouseover" end="zoomminus.mouseout"/></use>
    <path d="M-4,0h8" fill="none" stroke="white" stroke-width="1.5" pointer-events="none"/>
  </g>
  <g id="arrowUp" transform="translate(30 24)">
    <use xlink:href="#rim"/>
    <path pointer-events="none" fill="none" stroke="white" stroke-width="1.5" d="M0,-3.0v7 M-2.5,-0.5L0,-3.0L2.5,-0.5"/>
  </g>
  <g id="arrowRight" transform="rotate(90) translate(36 -43)">
    <use xlink:href="#rim"/>
    <path pointer-events="none" fill="none" stroke="white" stroke-width="1.5" d="M0,-3.0v7 M-2.5,-0.5L0,-3.0L2.5,-0.5"/>
  </g>
  <g id="arrowDown" transform="rotate(180) translate(-30 -48)">
    <use xlink:href="#rim"/>
    <path pointer-events="none" fill="none" stroke="white" stroke-width="1.5" d="M0,-3.0v7 M-2.5,-0.5L0,-3.0L2.5,-0.5"/>
  </g>
  <g id="arrowLeft" transform="rotate(270) translate(-36 17)">
    <use xlink:href="#rim"/>
    <path pointer-events="none" fill="none" stroke="white" stroke-width="1.5" d="M0,-3.0v7 M-2.5,-0.5L0,-3.0L2.5,-0.5"/>
  </g>
  <g id="resetDef">
    <use xlink:href="#rim2" fill="#404040"><set attributeName="fill" to="#808080" begin="reset.mouseover" end="reset.mouseout"/></use>
  </g>
</defs>
<script type="application/ecmascript">
var viewWidth = 573;
var viewHeight = 317;
var sectionId = 'dynsection-17';
</script>
<script type="application/ecmascript" xlink:href="svg.min.js"/>
<svg id="graph" class="graph">
<g id="viewport">
<title>precice::cplscheme::CompositionalCouplingScheme::isInitialized</title>
<!-- Node1 -->
<g id="Node000001" class="node">
<title>Node1</title>
<g id="a_Node000001"><a xlink:title="Returns true, if initialize has been called.">
<polygon fill="#999999" stroke="#666666" points="175,-97.5 0,-97.5 0,-56.5 175,-56.5 175,-97.5"/>
<text text-anchor="start" x="8" y="-85.5" font-family="Helvetica,sans-Serif" font-size="10.00">precice::cplscheme</text>
<text text-anchor="start" x="8" y="-74.5" font-family="Helvetica,sans-Serif" font-size="10.00">::CompositionalCouplingScheme</text>
<text text-anchor="middle" x="87.5" y="-63.5" font-family="Helvetica,sans-Serif" font-size="10.00">::isInitialized</text>
</a>
</g>
</g>
<!-- Node1&#45;&gt;Node1 -->
<g id="edge12_Node000001_Node000001" class="edge">
<title>Node1&#45;&gt;Node1</title>
<g id="a_edge12_Node000001_Node000001"><a xlink:title=" ">
<path fill="none" stroke="#63b8ff" d="M48.9,-97.6C44.69,-107.15 57.56,-115.5 87.5,-115.5 106.21,-115.5 118.26,-112.24 123.63,-107.46"/>
<polygon fill="#63b8ff" stroke="#63b8ff" points="127.07,-108.15 126.1,-97.6 120.27,-106.45 127.07,-108.15"/>
</a>
</g>
</g>
<!-- Node2 -->
<g id="Node000002" class="node">
<title>Node2</title>
<g id="a_Node000002"><a xlink:href="classprecice_1_1cplscheme_1_1CompositionalCouplingScheme.html#a29b650838cc28c815e5b704ecb317aa6" target="_top" xlink:title="Returns all schemes in execution order, explicit as well as implicit.">
<polygon fill="white" stroke="#666666" points="386,-196.5 211,-196.5 211,-155.5 386,-155.5 386,-196.5"/>
<text text-anchor="start" x="219" y="-184.5" font-family="Helvetica,sans-Serif" font-size="10.00">precice::cplscheme</text>
<text text-anchor="start" x="219" y="-173.5" font-family="Helvetica,sans-Serif" font-size="10.00">::CompositionalCouplingScheme</text>
<text text-anchor="middle" x="298.5" y="-162.5" font-family="Helvetica,sans-Serif" font-size="10.00">::allSchemes</text>
</a>
</g>
</g>
<!-- Node1&#45;&gt;Node2 -->
<g id="edge1_Node000001_Node000002" class="edge">
<title>Node1&#45;&gt;Node2</title>
<g id="a_edge1_Node000001_Node000002"><a xlink:title=" ">
<path fill="none" stroke="#63b8ff" d="M131.8,-97.51C164.62,-113.06 209.87,-134.49 244.79,-151.03"/>
<polygon fill="#63b8ff" stroke="#63b8ff" points="243.36,-154.23 253.89,-155.34 246.35,-147.9 243.36,-154.23"/>
</a>
</g>
</g>
<!-- Node6 -->
<g id="Node000006" class="node">
<title>Node6</title>
<g id="a_Node000006"><a target="_parent" xlink:href="http://en.cppreference.com/w/cpp/utility/functional/mem_fn.html#" xlink:title=" ">
<polygon fill="white" stroke="#666666" points="532.5,-74.5 454.5,-74.5 454.5,-55.5 532.5,-55.5 532.5,-74.5"/>
<text text-anchor="middle" x="493.5" y="-62.5" font-family="Helvetica,sans-Serif" font-size="10.00">std::mem_fn</text>
</a>
</g>
</g>
<!-- Node1&#45;&gt;Node6 -->
<g id="edge13_Node000001_Node000006" class="edge">
<title>Node1&#45;&gt;Node6</title>
<g id="a_edge13_Node000001_Node000006"><a xlink:title=" ">
<path fill="none" stroke="#63b8ff" d="M175.13,-78.98C234.52,-79.78 315.08,-79.77 386,-76 405.02,-74.99 425.87,-73.02 444.05,-71.03"/>
<polygon fill="#63b8ff" stroke="#63b8ff" points="444.58,-74.5 454.12,-69.9 443.79,-67.54 444.58,-74.5"/>
</a>
</g>
</g>
<!-- Node10 -->
<g id="Node000010" class="node">
<title>Node10</title>
<g id="a_Node000010"><a target="_parent" xlink:href="http://en.cppreference.com/w/cpp/algorithm/all_any_none_of.html#" xlink:title=" ">
<polygon fill="white" stroke="#666666" points="334,-67.5 263,-67.5 263,-48.5 334,-48.5 334,-67.5"/>
<text text-anchor="middle" x="298.5" y="-55.5" font-family="Helvetica,sans-Serif" font-size="10.00">std::any_of</text>
</a>
</g>
</g>
<!-- Node1&#45;&gt;Node10 -->
<g id="edge10_Node000001_Node000010" class="edge">
<title>Node1&#45;&gt;Node10</title>
<g id="a_edge10_Node000001_Node000010"><a xlink:title=" ">
<path fill="none" stroke="#63b8ff" d="M175.02,-69.13C201.8,-66.7 230.2,-64.12 252.91,-62.05"/>
<polygon fill="#63b8ff" stroke="#63b8ff" points="253.27,-65.54 262.92,-61.14 252.64,-58.56 253.27,-65.54"/>
</a>
</g>
</g>
<!-- Node11 -->
<g id="Node000011" class="node">
<title>Node11</title>
<g id="a_Node000011"><a xlink:href="classprecice_1_1cplscheme_1_1CouplingScheme.html#a7b0e0cab054fe7e87a091e81ee79e32a" target="_top" xlink:title="Returns true, if initialize has been called.">
<polygon fill="white" stroke="#666666" points="382,-30 215,-30 215,0 382,0 382,-30"/>
<text text-anchor="start" x="223" y="-18" font-family="Helvetica,sans-Serif" font-size="10.00">precice::cplscheme</text>
<text text-anchor="middle" x="298.5" y="-7" font-family="Helvetica,sans-Serif" font-size="10.00">::CouplingScheme::isInitialized</text>
</a>
</g>
</g>
<!-- Node1&#45;&gt;Node11 -->
<g id="edge11_Node000001_Node000011" class="edge">
<title>Node1&#45;&gt;Node11</title>
<g id="a_edge11_Node000001_Node000011"><a xlink:title=" ">
<path fill="none" stroke="#63b8ff" d="M153.55,-56.42C172.08,-50.67 192.31,-44.49 211,-39 217.89,-36.98 225.1,-34.9 232.29,-32.87"/>
<polygon fill="#63b8ff" stroke="#63b8ff" points="233.38,-36.2 242.06,-30.12 231.48,-29.46 233.38,-36.2"/>
</a>
</g>
</g>
<!-- Node3 -->
<g id="Node000003" class="node">
<title>Node3</title>
<g id="a_Node000003"><a target="_parent" xlink:href="http://en.cppreference.com/w/cpp/container/vector/begin.html#" xlink:title=" ">
<polygon fill="white" stroke="#666666" points="544,-308.5 443,-308.5 443,-289.5 544,-289.5 544,-308.5"/>
<text text-anchor="middle" x="493.5" y="-296.5" font-family="Helvetica,sans-Serif" font-size="10.00">std::vector::begin</text>
</a>
</g>
</g>
<!-- Node2&#45;&gt;Node3 -->
<g id="edge2_Node000002_Node000003" class="edge">
<title>Node2&#45;&gt;Node3</title>
<g id="a_edge2_Node000002_Node000003"><a xlink:title=" ">
<path fill="none" stroke="#63b8ff" d="M317.77,-196.57C340.06,-220.4 380,-259.17 422,-281 425.56,-282.85 429.31,-284.51 433.17,-286.02"/>
<polygon fill="#63b8ff" stroke="#63b8ff" points="432.29,-289.42 442.88,-289.42 434.6,-282.81 432.29,-289.42"/>
</a>
</g>
</g>
<!-- Node4 -->
<g id="Node000004" class="node">
<title>Node4</title>
<g id="a_Node000004"><a target="_parent" xlink:href="http://en.cppreference.com/w/cpp/container/vector/end.html#" xlink:title=" ">
<polygon fill="white" stroke="#666666" points="539.5,-271.5 447.5,-271.5 447.5,-252.5 539.5,-252.5 539.5,-271.5"/>
<text text-anchor="middle" x="493.5" y="-259.5" font-family="Helvetica,sans-Serif" font-size="10.00">std::vector::end</text>
</a>
</g>
</g>
<!-- Node2&#45;&gt;Node4 -->
<g id="edge3_Node000002_Node000004" class="edge">
<title>Node2&#45;&gt;Node4</title>
<g id="a_edge3_Node000002_Node000004"><a xlink:title=" ">
<path fill="none" stroke="#63b8ff" d="M331.99,-196.55C356.1,-211.1 390.17,-230.22 422,-243 427.94,-245.39 434.29,-247.57 440.64,-249.54"/>
<polygon fill="#63b8ff" stroke="#63b8ff" points="440,-253 450.58,-252.46 441.97,-246.28 440,-253"/>
</a>
</g>
</g>
<!-- Node5 -->
<g id="Node000005" class="node">
<title>Node5</title>
<g id="a_Node000005"><a target="_parent" xlink:href="http://en.cppreference.com/w/cpp/memory/shared_ptr/get.html#" xlink:title=" ">
<polygon fill="white" stroke="#666666" points="565,-234 422,-234 422,-204 565,-204 565,-234"/>
<text text-anchor="start" x="430" y="-222" font-family="Helvetica,sans-Serif" font-size="10.00">std::shared_ptr&lt; Coupling</text>
<text text-anchor="middle" x="493.5" y="-211" font-family="Helvetica,sans-Serif" font-size="10.00">Scheme &gt;::get</text>
</a>
</g>
</g>
<!-- Node2&#45;&gt;Node5 -->
<g id="edge4_Node000002_Node000005" class="edge">
<title>Node2&#45;&gt;Node5</title>
<g id="a_edge4_Node000002_Node000005"><a xlink:title=" ">
<path fill="none" stroke="#63b8ff" d="M386.12,-188.58C404.63,-192.58 423.62,-197.03 440.35,-201.31"/>
<polygon fill="#63b8ff" stroke="#63b8ff" points="439.88,-204.8 450.44,-203.94 441.65,-198.03 439.88,-204.8"/>
</a>
</g>
</g>
<!-- Node2&#45;&gt;Node5 -->
<g id="edge5_Node000002_Node000005" class="edge">
<title>Node2&#45;&gt;Node5</title>
<g id="a_edge5_Node000002_Node000005"><a xlink:title=" ">
<path fill="none" stroke="#63b8ff" d="M362.96,-196.52C378.61,-200.37 395.58,-204.24 411.92,-207.71"/>
<polygon fill="#63b8ff" stroke="#63b8ff" points="411.49,-211.2 422,-209.82 412.92,-204.35 411.49,-211.2"/>
</a>
</g>
</g>
<!-- Node2&#45;&gt;Node6 -->
<g id="edge6_Node000002_Node000006" class="edge">
<title>Node2&#45;&gt;Node6</title>
<g id="a_edge6_Node000002_Node000006"><a xlink:title=" ">
<path fill="none" stroke="#63b8ff" d="M326.62,-155.31C362.29,-128.1 420.67,-83.64 422,-83 429.04,-79.6 436.79,-76.8 444.51,-74.49"/>
<polygon fill="#63b8ff" stroke="#63b8ff" points="445.48,-77.86 454.2,-71.84 443.63,-71.1 445.48,-77.86"/>
</a>
</g>
</g>
<!-- Node7 -->
<g id="Node000007" class="node">
<title>Node7</title>
<g id="a_Node000007"><a target="_parent" xlink:href="http://en.cppreference.com/w/cpp/container/vector/push_back.html#" xlink:title=" ">
<polygon fill="white" stroke="#666666" points="556.5,-185.5 430.5,-185.5 430.5,-166.5 556.5,-166.5 556.5,-185.5"/>
<text text-anchor="middle" x="493.5" y="-173.5" font-family="Helvetica,sans-Serif" font-size="10.00">std::vector::push_back</text>
</a>
</g>
</g>
<!-- Node2&#45;&gt;Node7 -->
<g id="edge7_Node000002_Node000007" class="edge">
<title>Node2&#45;&gt;Node7</title>
<g id="a_edge7_Node000002_Node000007"><a xlink:title=" ">
<path fill="none" stroke="#63b8ff" d="M386.12,-176C397.55,-176 409.17,-176 420.33,-176"/>
<polygon fill="#63b8ff" stroke="#63b8ff" points="420.42,-179.5 430.42,-176 420.42,-172.5 420.42,-179.5"/>
</a>
</g>
</g>
<!-- Node8 -->
<g id="Node000008" class="node">
<title>Node8</title>
<g id="a_Node000008"><a target="_parent" xlink:href="http://en.cppreference.com/w/cpp/container/vector/size.html#" xlink:title=" ">
<polygon fill="white" stroke="#666666" points="540.5,-148.5 446.5,-148.5 446.5,-129.5 540.5,-129.5 540.5,-148.5"/>
<text text-anchor="middle" x="493.5" y="-136.5" font-family="Helvetica,sans-Serif" font-size="10.00">std::vector::size</text>
</a>
</g>
</g>
<!-- Node2&#45;&gt;Node8 -->
<g id="edge8_Node000002_Node000008" class="edge">
<title>Node2&#45;&gt;Node8</title>
<g id="a_edge8_Node000002_Node000008"><a xlink:title=" ">
<path fill="none" stroke="#63b8ff" d="M386.12,-159.39C403.14,-156.13 420.57,-152.79 436.26,-149.78"/>
<polygon fill="#63b8ff" stroke="#63b8ff" points="437.15,-153.18 446.31,-147.86 435.83,-146.3 437.15,-153.18"/>
</a>
</g>
</g>
<!-- Node9 -->
<g id="Node000009" class="node">
<title>Node9</title>
<g id="a_Node000009"><a target="_parent" xlink:href="http://en.cppreference.com/w/cpp/algorithm/transform.html#" xlink:title=" ">
<polygon fill="white" stroke="#666666" points="536.5,-111.5 450.5,-111.5 450.5,-92.5 536.5,-92.5 536.5,-111.5"/>
<text text-anchor="middle" x="493.5" y="-99.5" font-family="Helvetica,sans-Serif" font-size="10.00">std::transform</text>
</a>
</g>
</g>
<!-- Node2&#45;&gt;Node9 -->
<g id="edge9_Node000002_Node000009" class="edge">
<title>Node2&#45;&gt;Node9</title>
<g id="a_edge9_Node000002_Node000009"><a xlink:title=" ">
<path fill="none" stroke="#63b8ff" d="M340.78,-155.49C364.23,-144.35 394.33,-130.87 422,-121 428.58,-118.65 435.59,-116.44 442.54,-114.4"/>
<polygon fill="#63b8ff" stroke="#63b8ff" points="443.96,-117.64 452.63,-111.56 442.06,-110.9 443.96,-117.64"/>
</a>
</g>
</g>
</g>
</svg>

<g id="navigator" transform="translate(0 0)" fill="#404254">
  <rect fill="#f2f5e9" fill-opacity="0.5" stroke="#606060" stroke-width=".5" x="0" y="0" width="60" height="60"/>
  <use id="zoomplus" xlink:href="#zoomPlus" x="17" y="9" onmousedown="handleZoom(evt,'in')"/>
  <use id="zoomminus" xlink:href="#zoomMin" x="42" y="9" onmousedown="handleZoom(evt,'out')"/>
  <use id="reset" xlink:href="#resetDef" x="30" y="36" onmousedown="handleReset()"/>
   <use id="arrowup" xlink:href="#arrowUp" x="0" y="0" onmousedown="handlePan(0,-1)"/>
  <use id="arrowright" xlink:href="#arrowRight" x="0" y="0" onmousedown="handlePan(1,0)"/>
  <use id="arrowdown" xlink:href="#arrowDown" x="0" y="0" onmousedown="handlePan(0,1)"/>
  <use id="arrowleft" xlink:href="#arrowLeft" x="0" y="0" onmousedown="handlePan(-1,0)"/>
</g>
<svg viewBox="0 0 15 15" width="100%" height="30px" preserveAspectRatio="xMaxYMin meet">
 <g id="arrow_out" transform="scale(0.3 0.3)">
  <a xlink:href="classprecice_1_1cplscheme_1_1CompositionalCouplingScheme_aab443a333ffcb2ae467a5dfb5ca5ad28_cgraph_org.svg" target="_base">
   <rect id="button" ry="5" rx="5" y="6" x="6" height="38" width="38"
        fill="#f2f5e9" fill-opacity="0.5" stroke="#606060" stroke-width="1.0"/>
   <path id="arrow"
     d="M 11.500037,31.436501 C 11.940474,20.09759 22.043105,11.32322 32.158766,21.979434 L 37.068811,17.246167 C 37.068811,17.246167 37.088388,32 37.088388,32 L 22.160133,31.978069 C 22.160133,31.978069 26.997745,27.140456 26.997745,27.140456 C 18.528582,18.264221 13.291696,25.230495 11.500037,31.436501 z"
     style="fill:#404040;"/>
  </a>
 </g>
</svg>

<style type='text/css'>
<![CDATA[
[data-mouse-over-selected='false'] { opacity: 0.7; }
[data-mouse-over-selected='true']  { opacity: 1.0; }
]]>
</style>
<script type="application/ecmascript"><![CDATA[
document.addEventListener('DOMContentLoaded', (event) => {
  highlightEdges();
  highlightAdjacentNodes();
});
]]></script>
</svg>
