<?xml version="1.0" encoding="UTF-8" standalone="no"?>
<!DOCTYPE svg PUBLIC "-//W3C//DTD SVG 1.1//EN"
 "http://www.w3.org/Graphics/SVG/1.1/DTD/svg11.dtd">
<!-- Generated by graphviz version 2.43.0 (0)
 -->
<!-- Title: precice::com::serialize::SerializedConnectionMap::broadcastReceive Pages: 1 -->
<svg width="755pt" height="225pt"
 viewBox="0.00 0.00 755.00 225.00" xmlns="http://www.w3.org/2000/svg" xmlns:xlink="http://www.w3.org/1999/xlink">
<g id="graph0" class="graph" transform="scale(1 1) rotate(0) translate(4 221)">
<title>precice::com::serialize::SerializedConnectionMap::broadcastReceive</title>
<polygon fill="white" stroke="transparent" points="-4,4 -4,-221 751,-221 751,4 -4,4"/>
<!-- Node1 -->
<g id="node1" class="node">
<title>Node1</title>
<g id="a_node1"><a xlink:title="receives a SerializedConnectionMap and calls assertValid before returning">
<polygon fill="#bfbfbf" stroke="black" points="0,-115 0,-156 146,-156 146,-115 0,-115"/>
<text text-anchor="start" x="8" y="-144" font-family="Helvetica,sans-Serif" font-size="10.00">precice::com::serialize</text>
<text text-anchor="start" x="8" y="-133" font-family="Helvetica,sans-Serif" font-size="10.00">::SerializedConnectionMap</text>
<text text-anchor="middle" x="73" y="-122" font-family="Helvetica,sans-Serif" font-size="10.00">::broadcastReceive</text>
</a>
</g>
</g>
<!-- Node2 -->
<g id="node2" class="node">
<title>Node2</title>
<g id="a_node2"><a xlink:href="classprecice_1_1com_1_1serialize_1_1SerializedConnectionMap.html#ac371682a00038cb21f3da4012831be73" target="_top" xlink:title="asserts the content for correctness">
<polygon fill="white" stroke="black" points="190,-162 190,-203 336,-203 336,-162 190,-162"/>
<text text-anchor="start" x="198" y="-191" font-family="Helvetica,sans-Serif" font-size="10.00">precice::com::serialize</text>
<text text-anchor="start" x="198" y="-180" font-family="Helvetica,sans-Serif" font-size="10.00">::SerializedConnectionMap</text>
<text text-anchor="middle" x="263" y="-169" font-family="Helvetica,sans-Serif" font-size="10.00">::assertValid</text>
</a>
</g>
</g>
<!-- Node1&#45;&gt;Node2 -->
<g id="edge1" class="edge">
<title>Node1&#45;&gt;Node2</title>
<path fill="none" stroke="midnightblue" d="M146.15,-153.54C157.2,-156.3 168.68,-159.17 179.93,-161.98"/>
<polygon fill="midnightblue" stroke="midnightblue" points="179.18,-165.4 189.73,-164.43 180.88,-158.61 179.18,-165.4"/>
</g>
<!-- Node4 -->
<g id="node4" class="node">
<title>Node4</title>
<g id="a_node4"><a xlink:href="classprecice_1_1com_1_1Communication.html#af30b8fdbac93d60e7a54f0e67e5aeb53" target="_top" xlink:title=" ">
<polygon fill="white" stroke="black" points="182,-93.5 182,-123.5 344,-123.5 344,-93.5 182,-93.5"/>
<text text-anchor="start" x="190" y="-111.5" font-family="Helvetica,sans-Serif" font-size="10.00">precice::com::Communication</text>
<text text-anchor="middle" x="263" y="-100.5" font-family="Helvetica,sans-Serif" font-size="10.00">::broadcast</text>
</a>
</g>
</g>
<!-- Node1&#45;&gt;Node4 -->
<g id="edge3" class="edge">
<title>Node1&#45;&gt;Node4</title>
<path fill="none" stroke="midnightblue" d="M146.15,-125.14C154.56,-123.93 163.22,-122.69 171.83,-121.45"/>
<polygon fill="midnightblue" stroke="midnightblue" points="172.5,-124.89 181.9,-120 171.51,-117.96 172.5,-124.89"/>
</g>
<!-- Node3 -->
<g id="node3" class="node">
<title>Node3</title>
<g id="a_node3"><a xlink:href="namespaceTCB__SPAN__NAMESPACE__NAME_1_1detail.html#a876af6f91231ae4e7e7316f5402682dc" target="_top" xlink:title=" ">
<polygon fill="white" stroke="black" points="395.5,-186.5 395.5,-216.5 526.5,-216.5 526.5,-186.5 395.5,-186.5"/>
<text text-anchor="start" x="403.5" y="-204.5" font-family="Helvetica,sans-Serif" font-size="10.00">TCB_SPAN_NAMESPACE</text>
<text text-anchor="middle" x="461" y="-193.5" font-family="Helvetica,sans-Serif" font-size="10.00">_NAME::detail::size</text>
</a>
</g>
</g>
<!-- Node2&#45;&gt;Node3 -->
<g id="edge2" class="edge">
<title>Node2&#45;&gt;Node3</title>
<path fill="none" stroke="midnightblue" d="M336.15,-189.49C352.09,-191.04 369.01,-192.68 385.05,-194.23"/>
<polygon fill="midnightblue" stroke="midnightblue" points="385.16,-197.76 395.45,-195.24 385.84,-190.79 385.16,-197.76"/>
</g>
<!-- Node5 -->
<g id="node5" class="node">
<title>Node5</title>
<g id="a_node5"><a xlink:href="classprecice_1_1com_1_1Communication.html#a1c988cdf4b433bc63b4b876dba5324fb" target="_top" xlink:title=" ">
<polygon fill="white" stroke="black" points="380,-137.5 380,-167.5 542,-167.5 542,-137.5 380,-137.5"/>
<text text-anchor="start" x="388" y="-155.5" font-family="Helvetica,sans-Serif" font-size="10.00">precice::com::Communication</text>
<text text-anchor="middle" x="461" y="-144.5" font-family="Helvetica,sans-Serif" font-size="10.00">::aSend</text>
</a>
</g>
</g>
<!-- Node4&#45;&gt;Node5 -->
<g id="edge4" class="edge">
<title>Node4&#45;&gt;Node5</title>
<path fill="none" stroke="midnightblue" d="M330.9,-123.52C347.68,-127.29 365.82,-131.36 383.05,-135.22"/>
<polygon fill="midnightblue" stroke="midnightblue" points="382.54,-138.7 393.07,-137.47 384.07,-131.87 382.54,-138.7"/>
</g>
<!-- Node6 -->
<g id="node6" class="node">
<title>Node6</title>
<g id="a_node6"><a xlink:href="classprecice_1_1com_1_1Communication.html#a5319067292ba3f7979d92a72f9298f80" target="_top" xlink:title="Returns the number of processes in the remote communicator.">
<polygon fill="white" stroke="black" points="578,-71.5 578,-101.5 747,-101.5 747,-71.5 578,-71.5"/>
<text text-anchor="start" x="586" y="-89.5" font-family="Helvetica,sans-Serif" font-size="10.00">precice::com::Communication</text>
<text text-anchor="middle" x="662.5" y="-78.5" font-family="Helvetica,sans-Serif" font-size="10.00">::getRemoteCommunicatorSize</text>
</a>
</g>
</g>
<!-- Node4&#45;&gt;Node6 -->
<g id="edge5" class="edge">
<title>Node4&#45;&gt;Node6</title>
<path fill="none" stroke="midnightblue" d="M344.44,-104.05C408.96,-100.48 499.63,-95.46 567.49,-91.7"/>
<polygon fill="midnightblue" stroke="midnightblue" points="567.96,-95.18 577.75,-91.13 567.58,-88.19 567.96,-95.18"/>
</g>
<!-- Node7 -->
<g id="node7" class="node">
<title>Node7</title>
<g id="a_node7"><a xlink:href="classprecice_1_1com_1_1Communication.html#a31587a46cf1d04c93c3082979598276a" target="_top" xlink:title="Returns a range over all valid remote ranks.">
<polygon fill="white" stroke="black" points="380,-49.5 380,-79.5 542,-79.5 542,-49.5 380,-49.5"/>
<text text-anchor="start" x="388" y="-67.5" font-family="Helvetica,sans-Serif" font-size="10.00">precice::com::Communication</text>
<text text-anchor="middle" x="461" y="-56.5" font-family="Helvetica,sans-Serif" font-size="10.00">::remoteCommunicatorRanks</text>
</a>
</g>
</g>
<!-- Node4&#45;&gt;Node7 -->
<g id="edge6" class="edge">
<title>Node4&#45;&gt;Node7</title>
<path fill="none" stroke="midnightblue" d="M330.9,-93.48C347.68,-89.71 365.82,-85.64 383.05,-81.78"/>
<polygon fill="midnightblue" stroke="midnightblue" points="384.07,-85.13 393.07,-79.53 382.54,-78.3 384.07,-85.13"/>
</g>
<!-- Node8 -->
<g id="node8" class="node">
<title>Node8</title>
<g id="a_node8"><a xlink:href="classprecice_1_1com_1_1Request.html#ad07792939dd8a5e4e23791e21aeacff0" target="_top" xlink:title=" ">
<polygon fill="white" stroke="black" points="398.5,-0.5 398.5,-30.5 523.5,-30.5 523.5,-0.5 398.5,-0.5"/>
<text text-anchor="start" x="406.5" y="-18.5" font-family="Helvetica,sans-Serif" font-size="10.00">precice::com::Request</text>
<text text-anchor="middle" x="461" y="-7.5" font-family="Helvetica,sans-Serif" font-size="10.00">::wait</text>
</a>
</g>
</g>
<!-- Node4&#45;&gt;Node8 -->
<g id="edge8" class="edge">
<title>Node4&#45;&gt;Node8</title>
<path fill="none" stroke="midnightblue" d="M286.29,-93.36C309.07,-78.4 345.84,-55.61 380,-40.5 385.29,-38.16 390.86,-35.95 396.5,-33.87"/>
<polygon fill="midnightblue" stroke="midnightblue" points="397.75,-37.14 406.02,-30.52 395.42,-30.54 397.75,-37.14"/>
</g>
<!-- Node7&#45;&gt;Node6 -->
<g id="edge7" class="edge">
<title>Node7&#45;&gt;Node6</title>
<path fill="none" stroke="midnightblue" d="M542.28,-73.35C550.69,-74.28 559.28,-75.23 567.82,-76.17"/>
<polygon fill="midnightblue" stroke="midnightblue" points="567.48,-79.65 577.8,-77.27 568.24,-72.69 567.48,-79.65"/>
</g>
</g>
</svg>
