<?xml version="1.0" encoding="UTF-8" standalone="no"?>
<!DOCTYPE svg PUBLIC "-//W3C//DTD SVG 1.1//EN"
 "http://www.w3.org/Graphics/SVG/1.1/DTD/svg11.dtd">
<!-- Generated by graphviz version 2.43.0 (0)
 -->
<!-- Title: precice::cplscheme::BaseCouplingScheme::getNextTimeStepMaxSize Pages: 1 -->
<svg width="479pt" height="74pt"
 viewBox="0.00 0.00 479.00 74.00" xmlns="http://www.w3.org/2000/svg" xmlns:xlink="http://www.w3.org/1999/xlink">
<g id="graph0" class="graph" transform="scale(1 1) rotate(0) translate(4 70)">
<title>precice::cplscheme::BaseCouplingScheme::getNextTimeStepMaxSize</title>
<polygon fill="white" stroke="transparent" points="-4,4 -4,-70 475,-70 475,4 -4,4"/>
<!-- Node1 -->
<g id="node1" class="node">
<title>Node1</title>
<g id="a_node1"><a xlink:title="Returns the maximal size of the next time step to be computed.">
<polygon fill="#bfbfbf" stroke="black" points="0,-24.5 0,-65.5 149,-65.5 149,-24.5 0,-24.5"/>
<text text-anchor="start" x="8" y="-53.5" font-family="Helvetica,sans-Serif" font-size="10.00">precice::cplscheme</text>
<text text-anchor="start" x="8" y="-42.5" font-family="Helvetica,sans-Serif" font-size="10.00">::BaseCouplingScheme</text>
<text text-anchor="middle" x="74.5" y="-31.5" font-family="Helvetica,sans-Serif" font-size="10.00">::getNextTimeStepMaxSize</text>
</a>
</g>
</g>
<!-- Node2 -->
<g id="node2" class="node">
<title>Node2</title>
<g id="a_node2"><a xlink:href="namespaceprecice_1_1math.html#a0e86802cfe992deba131d789d035b5b7" target="_top" xlink:title="Compares two Eigen::MatrixBase for equality up to tolerance.">
<polygon fill="white" stroke="black" points="349,-35.5 349,-54.5 471,-54.5 471,-35.5 349,-35.5"/>
<text text-anchor="middle" x="410" y="-42.5" font-family="Helvetica,sans-Serif" font-size="10.00">precice::math::equals</text>
</a>
</g>
</g>
<!-- Node1&#45;&gt;Node2 -->
<g id="edge1" class="edge">
<title>Node1&#45;&gt;Node2</title>
<path fill="none" stroke="midnightblue" d="M149.1,-49.59C161.1,-50.18 173.39,-50.68 185,-51 241.87,-52.56 256.14,-52.78 313,-51 321.34,-50.74 330.08,-50.35 338.74,-49.9"/>
<polygon fill="midnightblue" stroke="midnightblue" points="339.06,-53.39 348.85,-49.34 338.68,-46.4 339.06,-53.39"/>
</g>
<!-- Node3 -->
<g id="node3" class="node">
<title>Node3</title>
<g id="a_node3"><a xlink:href="classprecice_1_1cplscheme_1_1BaseCouplingScheme.html#aa1c82548c80a9c8bb129e115e0f710fe" target="_top" xlink:title="Function to check whether time window size is defined by coupling scheme.">
<polygon fill="white" stroke="black" points="185,-0.5 185,-41.5 313,-41.5 313,-0.5 185,-0.5"/>
<text text-anchor="start" x="193" y="-29.5" font-family="Helvetica,sans-Serif" font-size="10.00">precice::cplscheme</text>
<text text-anchor="start" x="193" y="-18.5" font-family="Helvetica,sans-Serif" font-size="10.00">::BaseCouplingScheme</text>
<text text-anchor="middle" x="249" y="-7.5" font-family="Helvetica,sans-Serif" font-size="10.00">::hasTimeWindowSize</text>
</a>
</g>
</g>
<!-- Node1&#45;&gt;Node3 -->
<g id="edge2" class="edge">
<title>Node1&#45;&gt;Node3</title>
<path fill="none" stroke="midnightblue" d="M149.16,-34.75C157.71,-33.56 166.44,-32.35 174.99,-31.16"/>
<polygon fill="midnightblue" stroke="midnightblue" points="175.49,-34.62 184.92,-29.78 174.53,-27.69 175.49,-34.62"/>
</g>
<!-- Node3&#45;&gt;Node2 -->
<g id="edge3" class="edge">
<title>Node3&#45;&gt;Node2</title>
<path fill="none" stroke="midnightblue" d="M313.3,-30.55C321.7,-31.82 330.36,-33.13 338.87,-34.41"/>
<polygon fill="midnightblue" stroke="midnightblue" points="338.36,-37.88 348.77,-35.91 339.4,-30.95 338.36,-37.88"/>
</g>
</g>
</svg>
