<?xml version="1.0" encoding="UTF-8" standalone="no"?>
<!DOCTYPE svg PUBLIC "-//W3C//DTD SVG 1.1//EN"
 "http://www.w3.org/Graphics/SVG/1.1/DTD/svg11.dtd">
<!-- Generated by graphviz version 2.43.0 (0)
 -->
<!-- Title: precice::time::Storage::move Pages: 1 -->
<svg width="452pt" height="60pt"
 viewBox="0.00 0.00 452.00 60.00" xmlns="http://www.w3.org/2000/svg" xmlns:xlink="http://www.w3.org/1999/xlink">

<svg id="main" version="1.1" xmlns="http://www.w3.org/2000/svg" xmlns:xlink="http://www.w3.org/1999/xlink" xml:space="preserve">

<style type="text/css"><![CDATA[
.node, .edge {opacity: 0.7;}
.node.selected, .edge.selected {opacity: 1;}
.edge:hover path { stroke: red; }
.edge:hover polygon { stroke: red; fill: red; }
]]></style>
<script type="application/ecmascript" xlink:href="svg.min.js"/>
<svg id="graph" class="graph">
<g id="graph0" class="graph" transform="scale(1 1) rotate(0) translate(4 56)">
<title>precice::time::Storage::move</title>
<!-- Node1 -->
<g id="Node000001" class="node">
<title>Node1</title>
<g id="a_Node000001"><a xlink:title="Move this Storage by deleting all stamples except the one at the end of the window.">
<polygon fill="#999999" stroke="#666666" points="124,-30 0,-30 0,0 124,0 124,-30"/>
<text text-anchor="start" x="8" y="-18" font-family="Helvetica,sans-Serif" font-size="10.00">precice::time::Storage</text>
<text text-anchor="middle" x="62" y="-7" font-family="Helvetica,sans-Serif" font-size="10.00">::move</text>
</a>
</g>
</g>
<!-- Node2 -->
<g id="Node000002" class="node">
<title>Node2</title>
<g id="a_Node000002"><a xlink:href="classprecice_1_1time_1_1Storage.html#adf640d866003df4782cf61fd50f497cb" target="_top" xlink:title="Get all normalized dts stored in this Storage sorted ascending.">
<polygon fill="white" stroke="#666666" points="284,-52 160,-52 160,-22 284,-22 284,-52"/>
<text text-anchor="start" x="168" y="-40" font-family="Helvetica,sans-Serif" font-size="10.00">precice::time::Storage</text>
<text text-anchor="middle" x="222" y="-29" font-family="Helvetica,sans-Serif" font-size="10.00">::getTimes</text>
</a>
</g>
</g>
<!-- Node1&#45;&gt;Node2 -->
<g id="edge1_Node000001_Node000002" class="edge">
<title>Node1&#45;&gt;Node2</title>
<g id="a_edge1_Node000001_Node000002"><a xlink:title=" ">
<path fill="none" stroke="#63b8ff" d="M124.09,-23.51C132.51,-24.68 141.23,-25.89 149.81,-27.09"/>
<polygon fill="#63b8ff" stroke="#63b8ff" points="149.43,-30.57 159.82,-28.48 150.39,-23.63 149.43,-30.57"/>
</a>
</g>
</g>
<!-- Node3 -->
<g id="Node000003" class="node">
<title>Node3</title>
<g id="a_Node000003"><a xlink:href="classprecice_1_1time_1_1Storage.html#ac6b8883c787b328e1a4114d4457c0b30" target="_top" xlink:title="Number of stored times.">
<polygon fill="white" stroke="#666666" points="444,-30 320,-30 320,0 444,0 444,-30"/>
<text text-anchor="start" x="328" y="-18" font-family="Helvetica,sans-Serif" font-size="10.00">precice::time::Storage</text>
<text text-anchor="middle" x="382" y="-7" font-family="Helvetica,sans-Serif" font-size="10.00">::nTimes</text>
</a>
</g>
</g>
<!-- Node1&#45;&gt;Node3 -->
<g id="edge3_Node000001_Node000003" class="edge">
<title>Node1&#45;&gt;Node3</title>
<g id="a_edge3_Node000001_Node000003"><a xlink:title=" ">
<path fill="none" stroke="#63b8ff" d="M124.05,-13.55C135.97,-13.32 148.38,-13.12 160,-13 215.11,-12.43 228.89,-12.43 284,-13 292.35,-13.09 301.11,-13.21 309.8,-13.36"/>
<polygon fill="#63b8ff" stroke="#63b8ff" points="309.88,-16.87 319.95,-13.55 310.01,-9.87 309.88,-16.87"/>
</a>
</g>
</g>
<!-- Node2&#45;&gt;Node3 -->
<g id="edge2_Node000002_Node000003" class="edge">
<title>Node2&#45;&gt;Node3</title>
<g id="a_edge2_Node000002_Node000003"><a xlink:title=" ">
<path fill="none" stroke="#63b8ff" d="M284.09,-28.49C292.51,-27.32 301.23,-26.11 309.81,-24.91"/>
<polygon fill="#63b8ff" stroke="#63b8ff" points="310.39,-28.37 319.82,-23.52 309.43,-21.43 310.39,-28.37"/>
</a>
</g>
</g>
</g>
</svg>
</svg>

<style type='text/css'>
<![CDATA[
[data-mouse-over-selected='false'] { opacity: 0.7; }
[data-mouse-over-selected='true']  { opacity: 1.0; }
]]>
</style>
<script type="application/ecmascript"><![CDATA[
document.addEventListener('DOMContentLoaded', (event) => {
  highlightEdges();
  highlightAdjacentNodes();
});
]]></script>
</svg>
