<?xml version="1.0" encoding="UTF-8" standalone="no"?>
<!DOCTYPE svg PUBLIC "-//W3C//DTD SVG 1.1//EN"
 "http://www.w3.org/Graphics/SVG/1.1/DTD/svg11.dtd">
<!-- Generated by graphviz version 2.43.0 (0)
 -->
<!-- Title: precice::com::SocketCommunication::~SocketCommunication Pages: 1 -->
<svg width="630pt" height="76pt"
 viewBox="0.00 0.00 630.00 75.50" xmlns="http://www.w3.org/2000/svg" xmlns:xlink="http://www.w3.org/1999/xlink">
<g id="graph0" class="graph" transform="scale(1 1) rotate(0) translate(4 71.5)">
<title>precice::com::SocketCommunication::~SocketCommunication</title>
<!-- Node1 -->
<g id="Node000001" class="node">
<title>Node1</title>
<g id="a_Node000001"><a xlink:title=" ">
<polygon fill="#999999" stroke="#666666" points="194,-45.5 0,-45.5 0,-15.5 194,-15.5 194,-45.5"/>
<text text-anchor="start" x="8" y="-33.5" font-family="Helvetica,sans-Serif" font-size="10.00">precice::com::SocketCommunication</text>
<text text-anchor="middle" x="97" y="-22.5" font-family="Helvetica,sans-Serif" font-size="10.00">::~SocketCommunication</text>
</a>
</g>
</g>
<!-- Node2 -->
<g id="Node000002" class="node">
<title>Node2</title>
<g id="a_Node000002"><a xlink:href="classprecice_1_1com_1_1SocketCommunication.html#a8ebaed06ffe94d3390544c0ff7f4d4f2" target="_top" xlink:title="Disconnects from communication space, i.e. participant.">
<polygon fill="white" stroke="#666666" points="424,-45.5 230,-45.5 230,-15.5 424,-15.5 424,-45.5"/>
<text text-anchor="start" x="238" y="-33.5" font-family="Helvetica,sans-Serif" font-size="10.00">precice::com::SocketCommunication</text>
<text text-anchor="middle" x="327" y="-22.5" font-family="Helvetica,sans-Serif" font-size="10.00">::closeConnection</text>
</a>
</g>
</g>
<!-- Node1&#45;&gt;Node2 -->
<g id="edge1_Node000001_Node000002" class="edge">
<title>Node1&#45;&gt;Node2</title>
<g id="a_edge1_Node000001_Node000002"><a xlink:title=" ">
<path fill="none" stroke="#63b8ff" d="M194.03,-30.5C202.52,-30.5 211.14,-30.5 219.7,-30.5"/>
<polygon fill="#63b8ff" stroke="#63b8ff" points="219.71,-34 229.71,-30.5 219.71,-27 219.71,-34"/>
</a>
</g>
</g>
<!-- Node3 -->
<g id="Node000003" class="node">
<title>Node3</title>
<g id="a_Node000003"><a xlink:href="classprecice_1_1com_1_1Communication.html#a444946d1a6c67c352fe96b56cdbf1fd2" target="_top" xlink:title="Returns true, if a connection to a remote participant has been setup.">
<polygon fill="white" stroke="#666666" points="622,-67.5 460,-67.5 460,-37.5 622,-37.5 622,-67.5"/>
<text text-anchor="start" x="468" y="-55.5" font-family="Helvetica,sans-Serif" font-size="10.00">precice::com::Communication</text>
<text text-anchor="middle" x="541" y="-44.5" font-family="Helvetica,sans-Serif" font-size="10.00">::isConnected</text>
</a>
</g>
</g>
<!-- Node2&#45;&gt;Node3 -->
<g id="edge2_Node000002_Node000003" class="edge">
<title>Node2&#45;&gt;Node3</title>
<g id="a_edge2_Node000002_Node000003"><a xlink:title=" ">
<path fill="none" stroke="#63b8ff" d="M424.08,-40.47C432.57,-41.35 441.14,-42.24 449.58,-43.12"/>
<polygon fill="#63b8ff" stroke="#63b8ff" points="449.49,-46.63 459.8,-44.18 450.21,-39.66 449.49,-46.63"/>
</a>
</g>
</g>
<!-- Node4 -->
<g id="Node000004" class="node">
<title>Node4</title>
<g id="a_Node000004"><a target="_parent" xlink:href="http://en.cppreference.com/w/cpp/error/exception/what.html#" xlink:title=" ">
<polygon fill="white" stroke="#666666" points="599,-19 483,-19 483,0 599,0 599,-19"/>
<text text-anchor="middle" x="541" y="-7" font-family="Helvetica,sans-Serif" font-size="10.00">std::exception::what</text>
</a>
</g>
</g>
<!-- Node2&#45;&gt;Node4 -->
<g id="edge3_Node000002_Node000004" class="edge">
<title>Node2&#45;&gt;Node4</title>
<g id="a_edge3_Node000002_Node000004"><a xlink:title=" ">
<path fill="none" stroke="#63b8ff" d="M424.08,-20.98C440.52,-19.35 457.29,-17.69 472.78,-16.16"/>
<polygon fill="#63b8ff" stroke="#63b8ff" points="473.15,-19.64 482.75,-15.17 472.46,-12.67 473.15,-19.64"/>
</a>
</g>
</g>
</g>
</svg>
