<?xml version="1.0" encoding="UTF-8" standalone="no"?>
<!DOCTYPE svg PUBLIC "-//W3C//DTD SVG 1.1//EN"
 "http://www.w3.org/Graphics/SVG/1.1/DTD/svg11.dtd">
<!-- Generated by graphviz version 2.43.0 (0)
 -->
<!-- Title: precice::impl::WriteDataContext Pages: 1 -->
<!--zoomable 405 -->

<svg id="main" version="1.1" xmlns="http://www.w3.org/2000/svg" xmlns:xlink="http://www.w3.org/1999/xlink" xml:space="preserve" onload="init(evt)">
<style type="text/css"><![CDATA[
.node, .edge {opacity: 0.7;}
.node.selected, .edge.selected {opacity: 1;}
.edge:hover path { stroke: red; }
.edge:hover polygon { stroke: red; fill: red; }
]]></style>

<defs>
  <circle id="rim" cx="0" cy="0" r="7"/>
  <circle id="rim2" cx="0" cy="0" r="3.5"/>
  <g id="zoomPlus">
    <use xlink:href="#rim" fill="#404040"><set attributeName="fill" to="#808080" begin="zoomplus.mouseover" end="zoomplus.mouseout"/></use>
    <path d="M-4,0h8M0,-4v8" fill="none" stroke="white" stroke-width="1.5" pointer-events="none"/>
  </g>
  <g id="zoomMin">
    <use xlink:href="#rim" fill="#404040"><set attributeName="fill" to="#808080" begin="zoomminus.mouseover" end="zoomminus.mouseout"/></use>
    <path d="M-4,0h8" fill="none" stroke="white" stroke-width="1.5" pointer-events="none"/>
  </g>
  <g id="arrowUp" transform="translate(30 24)">
    <use xlink:href="#rim"/>
    <path pointer-events="none" fill="none" stroke="white" stroke-width="1.5" d="M0,-3.0v7 M-2.5,-0.5L0,-3.0L2.5,-0.5"/>
  </g>
  <g id="arrowRight" transform="rotate(90) translate(36 -43)">
    <use xlink:href="#rim"/>
    <path pointer-events="none" fill="none" stroke="white" stroke-width="1.5" d="M0,-3.0v7 M-2.5,-0.5L0,-3.0L2.5,-0.5"/>
  </g>
  <g id="arrowDown" transform="rotate(180) translate(-30 -48)">
    <use xlink:href="#rim"/>
    <path pointer-events="none" fill="none" stroke="white" stroke-width="1.5" d="M0,-3.0v7 M-2.5,-0.5L0,-3.0L2.5,-0.5"/>
  </g>
  <g id="arrowLeft" transform="rotate(270) translate(-36 17)">
    <use xlink:href="#rim"/>
    <path pointer-events="none" fill="none" stroke="white" stroke-width="1.5" d="M0,-3.0v7 M-2.5,-0.5L0,-3.0L2.5,-0.5"/>
  </g>
  <g id="resetDef">
    <use xlink:href="#rim2" fill="#404040"><set attributeName="fill" to="#808080" begin="reset.mouseover" end="reset.mouseout"/></use>
  </g>
</defs>
<script type="application/ecmascript">
var viewWidth = 1477;
var viewHeight = 405;
var sectionId = 'dynsection-1';
</script>
<script type="application/ecmascript" xlink:href="svg.min.js"/>
<svg id="graph" class="graph">
<g id="viewport">
<title>precice::impl::WriteDataContext</title>
<!-- Node1 -->
<g id="Node000001" class="node">
<title>Node1</title>
<g id="a_Node000001"><a xlink:title="Stores one Data object with related mesh. Context stores data to be written to and potentially provid...">
<polygon fill="#999999" stroke="#666666" points="1469,-200 1334,-200 1334,-170 1469,-170 1469,-200"/>
<text text-anchor="start" x="1342" y="-188" font-family="Helvetica,sans-Serif" font-size="10.00">precice::impl::WriteData</text>
<text text-anchor="middle" x="1401.5" y="-177" font-family="Helvetica,sans-Serif" font-size="10.00">Context</text>
</a>
</g>
</g>
<!-- Node2 -->
<g id="Node000002" class="node">
<title>Node2</title>
<g id="a_Node000002"><a xlink:href="classprecice_1_1impl_1_1DataContext.html" target="_top" xlink:title="Stores one Data object with related mesh.">
<polygon fill="white" stroke="#666666" points="1297,-194.5 1150,-194.5 1150,-175.5 1297,-175.5 1297,-194.5"/>
<text text-anchor="middle" x="1223.5" y="-182.5" font-family="Helvetica,sans-Serif" font-size="10.00">precice::impl::DataContext</text>
</a>
</g>
</g>
<!-- Node2&#45;&gt;Node1 -->
<g id="edge1_Node000001_Node000002" class="edge">
<title>Node2&#45;&gt;Node1</title>
<g id="a_edge1_Node000001_Node000002"><a xlink:title=" ">
<path fill="none" stroke="#63b8ff" d="M1307.19,-185C1316.18,-185 1325.24,-185 1333.99,-185"/>
<polygon fill="#63b8ff" stroke="#63b8ff" points="1307.1,-181.5 1297.1,-185 1307.1,-188.5 1307.1,-181.5"/>
</a>
</g>
</g>
<!-- Node3 -->
<g id="Node000003" class="node">
<title>Node3</title>
<g id="a_Node000003"><a target="_parent" xlink:href="http://en.cppreference.com/w/cpp/container/vector.html" xlink:title=" ">
<polygon fill="white" stroke="#666666" points="987,-114 845,-114 845,-84 987,-84 987,-114"/>
<text text-anchor="start" x="853" y="-102" font-family="Helvetica,sans-Serif" font-size="10.00">std::vector&lt; precice</text>
<text text-anchor="middle" x="916" y="-91" font-family="Helvetica,sans-Serif" font-size="10.00">::impl::MappingContext &gt;</text>
</a>
</g>
</g>
<!-- Node3&#45;&gt;Node2 -->
<g id="edge2_Node000002_Node000003" class="edge">
<title>Node3&#45;&gt;Node2</title>
<g id="a_edge2_Node000002_Node000003"><a xlink:title=" ">
<path fill="none" stroke="#9a32cd" stroke-dasharray="5,2" d="M997.48,-95.27C1038.9,-95.92 1089.48,-100.8 1132,-117 1166.16,-130.01 1198.46,-160.01 1213.56,-175.45"/>
<polygon fill="#9a32cd" stroke="#9a32cd" points="997.46,-91.77 987.43,-95.19 997.4,-98.77 997.46,-91.77"/>
</a>
</g>
<text text-anchor="middle" x="1084.5" y="-120" font-family="Helvetica,sans-Serif" font-size="10.00" fill="grey"> _mappingContexts</text>
</g>
<!-- Node4 -->
<g id="Node000004" class="node">
<title>Node4</title>
<g id="a_Node000004"><a xlink:href="structprecice_1_1impl_1_1MappingContext.html" target="_top" xlink:title="Holds a data mapping and related information.">
<polygon fill="white" stroke="#666666" points="678,-108.5 512,-108.5 512,-89.5 678,-89.5 678,-108.5"/>
<text text-anchor="middle" x="595" y="-96.5" font-family="Helvetica,sans-Serif" font-size="10.00">precice::impl::MappingContext</text>
</a>
</g>
</g>
<!-- Node4&#45;&gt;Node3 -->
<g id="edge3_Node000003_Node000004" class="edge">
<title>Node4&#45;&gt;Node3</title>
<g id="a_edge3_Node000003_Node000004"><a xlink:title=" ">
<path fill="none" stroke="#9a32cd" stroke-dasharray="5,2" d="M688.3,-99C738.17,-99 798.76,-99 844.76,-99"/>
<polygon fill="#9a32cd" stroke="#9a32cd" points="688.15,-95.5 678.15,-99 688.15,-102.5 688.15,-95.5"/>
</a>
</g>
<text text-anchor="middle" x="746.5" y="-102" font-family="Helvetica,sans-Serif" font-size="10.00" fill="grey"> elements</text>
</g>
<!-- Node5 -->
<g id="Node000005" class="node">
<title>Node5</title>
<g id="a_Node000005"><a target="_parent" xlink:href="http://en.cppreference.com/w/cpp/memory/shared_ptr.html" xlink:title=" ">
<polygon fill="white" stroke="#666666" points="353,-136.5 199,-136.5 199,-117.5 353,-117.5 353,-136.5"/>
<text text-anchor="middle" x="276" y="-124.5" font-family="Helvetica,sans-Serif" font-size="10.00">std::shared_ptr&lt; Mapping &gt;</text>
</a>
</g>
</g>
<!-- Node5&#45;&gt;Node2 -->
<g id="edge12_Node000002_Node000005" class="edge">
<title>Node5&#45;&gt;Node2</title>
<g id="a_edge12_Node000002_Node000005"><a xlink:title=" ">
<path fill="none" stroke="#9a32cd" stroke-dasharray="5,2" d="M363.35,-128.95C501.86,-132.53 782.17,-141.63 1019,-161 1063.5,-164.64 1113.27,-170.48 1152.46,-175.49"/>
<polygon fill="#9a32cd" stroke="#9a32cd" points="363.31,-125.45 353.22,-128.69 363.13,-132.45 363.31,-125.45"/>
</a>
</g>
<text text-anchor="middle" x="746.5" y="-149" font-family="Helvetica,sans-Serif" font-size="10.00" fill="grey"> justInTimeMapping</text>
</g>
<!-- Node5&#45;&gt;Node4 -->
<g id="edge4_Node000004_Node000005" class="edge">
<title>Node5&#45;&gt;Node4</title>
<g id="a_edge4_Node000004_Node000005"><a xlink:title=" ">
<path fill="none" stroke="#9a32cd" stroke-dasharray="5,2" d="M363.29,-117.73C365.89,-117.48 368.46,-117.24 371,-117 417.6,-112.64 469.74,-108.4 511.88,-105.13"/>
<polygon fill="#9a32cd" stroke="#9a32cd" points="362.78,-114.27 353.17,-118.73 363.46,-121.23 362.78,-114.27"/>
</a>
</g>
<text text-anchor="middle" x="431.5" y="-120" font-family="Helvetica,sans-Serif" font-size="10.00" fill="grey"> mapping</text>
</g>
<!-- Node6 -->
<g id="Node000006" class="node">
<title>Node6</title>
<g id="a_Node000006"><a target="_parent" xlink:href="http://en.cppreference.com/w/cpp/memory/shared_ptr.html" xlink:title=" ">
<polygon fill="white" stroke="#666666" points="343.5,-64.5 208.5,-64.5 208.5,-45.5 343.5,-45.5 343.5,-64.5"/>
<text text-anchor="middle" x="276" y="-52.5" font-family="Helvetica,sans-Serif" font-size="10.00">std::shared_ptr&lt; Data &gt;</text>
</a>
</g>
</g>
<!-- Node6&#45;&gt;Node2 -->
<g id="edge6_Node000002_Node000006" class="edge">
<title>Node6&#45;&gt;Node2</title>
<g id="a_edge6_Node000002_Node000006"><a xlink:title=" ">
<path fill="none" stroke="#9a32cd" stroke-dasharray="5,2" d="M353.94,-53.55C488.94,-51.78 777.11,-51.52 1019,-75 1069.69,-79.92 1086.77,-70.6 1132,-94 1170.59,-113.96 1202.9,-156.31 1216.11,-175.36"/>
<polygon fill="#9a32cd" stroke="#9a32cd" points="353.66,-50.05 343.71,-53.69 353.75,-57.05 353.66,-50.05"/>
</a>
</g>
<text text-anchor="middle" x="746.5" y="-63" font-family="Helvetica,sans-Serif" font-size="10.00" fill="grey"> _providedData</text>
</g>
<!-- Node6&#45;&gt;Node4 -->
<g id="edge5_Node000004_Node000006" class="edge">
<title>Node6&#45;&gt;Node4</title>
<g id="a_edge5_Node000004_Node000006"><a xlink:title=" ">
<path fill="none" stroke="#9a32cd" stroke-dasharray="5,2" d="M353.85,-63.89C394.9,-68.83 446.26,-75.32 492,-82 507.37,-84.24 523.99,-86.91 539.28,-89.46"/>
<polygon fill="#9a32cd" stroke="#9a32cd" points="354.26,-60.42 343.92,-62.7 353.43,-67.37 354.26,-60.42"/>
</a>
</g>
<text text-anchor="middle" x="431.5" y="-96" font-family="Helvetica,sans-Serif" font-size="10.00" fill="grey"> fromData</text>
<text text-anchor="middle" x="431.5" y="-85" font-family="Helvetica,sans-Serif" font-size="10.00" fill="grey">toData</text>
</g>
<!-- Node7 -->
<g id="Node000007" class="node">
<title>Node7</title>
<g id="a_Node000007"><a target="_parent" xlink:href="http://en.cppreference.com/w/cpp/memory/unique_ptr.html" xlink:title=" ">
<polygon fill="white" stroke="#666666" points="1019,-248 813,-248 813,-218 1019,-218 1019,-248"/>
<text text-anchor="start" x="821" y="-236" font-family="Helvetica,sans-Serif" font-size="10.00">std::unique_ptr&lt; precice</text>
<text text-anchor="middle" x="916" y="-225" font-family="Helvetica,sans-Serif" font-size="10.00">::mapping::impl::MappingDataCache &gt;</text>
</a>
</g>
</g>
<!-- Node7&#45;&gt;Node2 -->
<g id="edge7_Node000002_Node000007" class="edge">
<title>Node7&#45;&gt;Node2</title>
<g id="a_edge7_Node000002_Node000007"><a xlink:title=" ">
<path fill="none" stroke="#9a32cd" stroke-dasharray="5,2" d="M1026.5,-216.45C1060.34,-211.27 1097.72,-205.47 1132,-200 1142.85,-198.27 1154.43,-196.38 1165.55,-194.55"/>
<polygon fill="#9a32cd" stroke="#9a32cd" points="1025.94,-213 1016.59,-217.97 1027,-219.92 1025.94,-213"/>
</a>
</g>
<text text-anchor="middle" x="1084.5" y="-218" font-family="Helvetica,sans-Serif" font-size="10.00" fill="grey"> mappingCache</text>
</g>
<!-- Node8 -->
<g id="Node000008" class="node">
<title>Node8</title>
<g id="a_Node000008"><a xlink:href="structprecice_1_1mapping_1_1impl_1_1MappingDataCache.html" target="_top" xlink:title=" ">
<polygon fill="white" stroke="#666666" points="659,-306 531,-306 531,-276 659,-276 659,-306"/>
<text text-anchor="start" x="539" y="-294" font-family="Helvetica,sans-Serif" font-size="10.00">precice::mapping::impl</text>
<text text-anchor="middle" x="595" y="-283" font-family="Helvetica,sans-Serif" font-size="10.00">::MappingDataCache</text>
</a>
</g>
</g>
<!-- Node8&#45;&gt;Node7 -->
<g id="edge8_Node000007_Node000008" class="edge">
<title>Node8&#45;&gt;Node7</title>
<g id="a_edge8_Node000007_Node000008"><a xlink:title=" ">
<path fill="none" stroke="#9a32cd" stroke-dasharray="5,2" d="M668.87,-277.75C717.6,-268.89 781.82,-257.21 832.44,-248.01"/>
<polygon fill="#9a32cd" stroke="#9a32cd" points="668.24,-274.31 659.02,-279.54 669.49,-281.2 668.24,-274.31"/>
</a>
</g>
<text text-anchor="middle" x="746.5" y="-275" font-family="Helvetica,sans-Serif" font-size="10.00" fill="grey"> ptr</text>
</g>
<!-- Node9 -->
<g id="Node000009" class="node">
<title>Node9</title>
<g id="a_Node000009"><a xlink:href="structprecice_1_1time_1_1Stample.html" target="_top" xlink:title="Stample containing timestampled Sample.">
<polygon fill="white" stroke="#666666" points="339.5,-300.5 212.5,-300.5 212.5,-281.5 339.5,-281.5 339.5,-300.5"/>
<text text-anchor="middle" x="276" y="-288.5" font-family="Helvetica,sans-Serif" font-size="10.00">precice::time::Stample</text>
</a>
</g>
</g>
<!-- Node9&#45;&gt;Node8 -->
<g id="edge9_Node000008_Node000009" class="edge">
<title>Node9&#45;&gt;Node8</title>
<g id="a_edge9_Node000008_Node000009"><a xlink:title=" ">
<path fill="none" stroke="#9a32cd" stroke-dasharray="5,2" d="M349.95,-291C404.67,-291 478.8,-291 530.96,-291"/>
<polygon fill="#9a32cd" stroke="#9a32cd" points="349.63,-287.5 339.63,-291 349.63,-294.5 349.63,-287.5"/>
</a>
</g>
<text text-anchor="middle" x="431.5" y="-294" font-family="Helvetica,sans-Serif" font-size="10.00" fill="grey"> inData</text>
</g>
<!-- Node10 -->
<g id="Node000010" class="node">
<title>Node10</title>
<g id="a_Node000010"><a xlink:href="structprecice_1_1time_1_1Sample.html" target="_top" xlink:title=" ">
<polygon fill="white" stroke="#666666" points="123,-90.5 0,-90.5 0,-71.5 123,-71.5 123,-90.5"/>
<text text-anchor="middle" x="61.5" y="-78.5" font-family="Helvetica,sans-Serif" font-size="10.00">precice::time::Sample</text>
</a>
</g>
</g>
<!-- Node10&#45;&gt;Node1 -->
<g id="edge24_Node000001_Node000010" class="edge">
<title>Node10&#45;&gt;Node1</title>
<g id="a_edge24_Node000001_Node000010"><a xlink:title=" ">
<path fill="none" stroke="#9a32cd" stroke-dasharray="5,2" d="M85.43,-65.88C123.26,-42.44 201.84,0 275,0 275,0 275,0 1224.5,0 1318.04,0 1376.95,-125.68 1394.77,-169.86"/>
<polygon fill="#9a32cd" stroke="#9a32cd" points="83.3,-63.08 76.72,-71.39 87.04,-69 83.3,-63.08"/>
</a>
</g>
<text text-anchor="middle" x="746.5" y="-3" font-family="Helvetica,sans-Serif" font-size="10.00" fill="grey"> _writeDataBuffer</text>
</g>
<!-- Node10&#45;&gt;Node9 -->
<g id="edge10_Node000009_Node000010" class="edge">
<title>Node10&#45;&gt;Node9</title>
<g id="a_edge10_Node000009_Node000010"><a xlink:title=" ">
<path fill="none" stroke="#9a32cd" stroke-dasharray="5,2" d="M70.4,-100.05C87.62,-139.06 132.36,-228.12 199,-273 204.06,-276.41 209.69,-279.17 215.53,-281.42"/>
<polygon fill="#9a32cd" stroke="#9a32cd" points="73.62,-98.67 66.45,-90.86 67.19,-101.43 73.62,-98.67"/>
</a>
</g>
<text text-anchor="middle" x="161" y="-260" font-family="Helvetica,sans-Serif" font-size="10.00" fill="grey"> sample</text>
</g>
<!-- Node11 -->
<g id="Node000011" class="node">
<title>Node11</title>
<g id="a_Node000011"><a target="_parent" xlink:href="http://en.cppreference.com/w/cpp/container/vector.html" xlink:title=" ">
<polygon fill="white" stroke="#666666" points="329.5,-349 222.5,-349 222.5,-319 329.5,-319 329.5,-349"/>
<text text-anchor="start" x="230.5" y="-337" font-family="Helvetica,sans-Serif" font-size="10.00">std::vector&lt; Eigen</text>
<text text-anchor="middle" x="276" y="-326" font-family="Helvetica,sans-Serif" font-size="10.00">::MatrixXd &gt;</text>
</a>
</g>
</g>
<!-- Node11&#45;&gt;Node8 -->
<g id="edge11_Node000008_Node000011" class="edge">
<title>Node11&#45;&gt;Node8</title>
<g id="a_edge11_Node000008_Node000011"><a xlink:title=" ">
<path fill="none" stroke="#9a32cd" stroke-dasharray="5,2" d="M339.62,-326.12C382.53,-320.66 440.74,-313.11 492,-306 504.59,-304.25 518.04,-302.32 530.91,-300.44"/>
<polygon fill="#9a32cd" stroke="#9a32cd" points="339.08,-322.66 329.61,-327.4 339.97,-329.61 339.08,-322.66"/>
</a>
</g>
<text text-anchor="middle" x="431.5" y="-335" font-family="Helvetica,sans-Serif" font-size="10.00" fill="grey"> p</text>
<text text-anchor="middle" x="431.5" y="-324" font-family="Helvetica,sans-Serif" font-size="10.00" fill="grey">polynomialContributions</text>
</g>
<!-- Node12 -->
<g id="Node000012" class="node">
<title>Node12</title>
<g id="a_Node000012"><a target="_parent" xlink:href="http://en.cppreference.com/w/cpp/memory/shared_ptr.html" xlink:title=" ">
<polygon fill="white" stroke="#666666" points="985,-285.5 847,-285.5 847,-266.5 985,-266.5 985,-285.5"/>
<text text-anchor="middle" x="916" y="-273.5" font-family="Helvetica,sans-Serif" font-size="10.00">std::shared_ptr&lt; Mesh &gt;</text>
</a>
</g>
</g>
<!-- Node12&#45;&gt;Node2 -->
<g id="edge13_Node000002_Node000012" class="edge">
<title>Node12&#45;&gt;Node2</title>
<g id="a_edge13_Node000002_Node000012"><a xlink:title=" ">
<path fill="none" stroke="#9a32cd" stroke-dasharray="5,2" d="M994.72,-264.68C1036.23,-257.32 1087.74,-246.05 1132,-230 1158.89,-220.25 1188.22,-204.67 1205.99,-194.64"/>
<polygon fill="#9a32cd" stroke="#9a32cd" points="993.92,-261.26 984.67,-266.42 995.12,-268.16 993.92,-261.26"/>
</a>
</g>
<text text-anchor="middle" x="1084.5" y="-258" font-family="Helvetica,sans-Serif" font-size="10.00" fill="grey"> _mesh</text>
</g>
<!-- Node13 -->
<g id="Node000013" class="node">
<title>Node13</title>
<g id="a_Node000013"><a xlink:href="classprecice_1_1logging_1_1Logger.html" target="_top" xlink:title="This class provides a lightweight logger.">
<polygon fill="white" stroke="#666666" points="982.5,-337.5 849.5,-337.5 849.5,-318.5 982.5,-318.5 982.5,-337.5"/>
<text text-anchor="middle" x="916" y="-325.5" font-family="Helvetica,sans-Serif" font-size="10.00">precice::logging::Logger</text>
</a>
</g>
</g>
<!-- Node13&#45;&gt;Node1 -->
<g id="edge23_Node000001_Node000013" class="edge">
<title>Node13&#45;&gt;Node1</title>
<g id="a_edge23_Node000001_Node000013"><a xlink:title=" ">
<path fill="none" stroke="#9a32cd" stroke-dasharray="5,2" d="M993.03,-330.07C1034.69,-329.46 1086.87,-325.83 1132,-314 1228.3,-288.75 1331.59,-228.53 1376.91,-200.21"/>
<polygon fill="#9a32cd" stroke="#9a32cd" points="992.92,-326.57 982.95,-330.16 992.98,-333.57 992.92,-326.57"/>
</a>
</g>
<text text-anchor="middle" x="1223.5" y="-311" font-family="Helvetica,sans-Serif" font-size="10.00" fill="grey"> _log</text>
</g>
<!-- Node13&#45;&gt;Node2 -->
<g id="edge14_Node000002_Node000013" class="edge">
<title>Node13&#45;&gt;Node2</title>
<g id="a_edge14_Node000002_Node000013"><a xlink:title=" ">
<path fill="none" stroke="#9a32cd" stroke-dasharray="5,2" d="M972.17,-316.33C1026.35,-304.3 1104.74,-285.2 1132,-270 1168.14,-249.84 1200.98,-212.11 1215.14,-194.5"/>
<polygon fill="#9a32cd" stroke="#9a32cd" points="971.36,-312.92 962.35,-318.49 972.87,-319.76 971.36,-312.92"/>
</a>
</g>
<text text-anchor="middle" x="1084.5" y="-303" font-family="Helvetica,sans-Serif" font-size="10.00" fill="grey"> _log</text>
</g>
<!-- Node14 -->
<g id="Node000014" class="node">
<title>Node14</title>
<g id="a_Node000014"><a target="_parent" xlink:href="http://en.cppreference.com/w/cpp/memory/unique_ptr.html" xlink:title=" ">
<polygon fill="white" stroke="#666666" points="680,-375 510,-375 510,-345 680,-345 680,-375"/>
<text text-anchor="start" x="518" y="-363" font-family="Helvetica,sans-Serif" font-size="10.00">std::unique_ptr&lt; precice</text>
<text text-anchor="middle" x="595" y="-352" font-family="Helvetica,sans-Serif" font-size="10.00">::logging::Logger::LoggerImpl &gt;</text>
</a>
</g>
</g>
<!-- Node14&#45;&gt;Node13 -->
<g id="edge15_Node000013_Node000014" class="edge">
<title>Node14&#45;&gt;Node13</title>
<g id="a_edge15_Node000013_Node000014"><a xlink:title=" ">
<path fill="none" stroke="#9a32cd" stroke-dasharray="5,2" d="M690.31,-350.54C741.45,-345.41 803.38,-339.2 849.27,-334.59"/>
<polygon fill="#9a32cd" stroke="#9a32cd" points="689.83,-347.07 680.23,-351.55 690.53,-354.03 689.83,-347.07"/>
</a>
</g>
<text text-anchor="middle" x="746.5" y="-352" font-family="Helvetica,sans-Serif" font-size="10.00" fill="grey"> _impl</text>
</g>
<!-- Node15 -->
<g id="Node000015" class="node">
<title>Node15</title>
<g id="a_Node000015"><a xlink:href="classprecice_1_1logging_1_1Logger_1_1LoggerImpl.html" target="_top" xlink:title=" ">
<polygon fill="white" stroke="#666666" points="342.5,-397 209.5,-397 209.5,-367 342.5,-367 342.5,-397"/>
<text text-anchor="start" x="217.5" y="-385" font-family="Helvetica,sans-Serif" font-size="10.00">precice::logging::Logger</text>
<text text-anchor="middle" x="276" y="-374" font-family="Helvetica,sans-Serif" font-size="10.00">::LoggerImpl</text>
</a>
</g>
</g>
<!-- Node15&#45;&gt;Node14 -->
<g id="edge16_Node000014_Node000015" class="edge">
<title>Node15&#45;&gt;Node14</title>
<g id="a_edge16_Node000014_Node000015"><a xlink:title=" ">
<path fill="none" stroke="#9a32cd" stroke-dasharray="5,2" d="M352.87,-376.73C400.21,-373.45 461.2,-369.22 509.99,-365.83"/>
<polygon fill="#9a32cd" stroke="#9a32cd" points="352.42,-373.26 342.68,-377.44 352.9,-380.24 352.42,-373.26"/>
</a>
</g>
<text text-anchor="middle" x="431.5" y="-377" font-family="Helvetica,sans-Serif" font-size="10.00" fill="grey"> ptr</text>
</g>
<!-- Node16 -->
<g id="Node000016" class="node">
<title>Node16</title>
<g id="a_Node000016"><a xlink:title=" ">
<polygon fill="white" stroke="#666666" points="122.5,-397 0.5,-397 0.5,-367 122.5,-367 122.5,-397"/>
<text text-anchor="start" x="8.5" y="-385" font-family="Helvetica,sans-Serif" font-size="10.00">BoostLogger&lt; Logger</text>
<text text-anchor="middle" x="61.5" y="-374" font-family="Helvetica,sans-Serif" font-size="10.00">::LoggerImpl &gt;</text>
</a>
</g>
</g>
<!-- Node16&#45;&gt;Node15 -->
<g id="edge17_Node000015_Node000016" class="edge">
<title>Node16&#45;&gt;Node15</title>
<g id="a_edge17_Node000015_Node000016"><a xlink:title=" ">
<path fill="none" stroke="#63b8ff" d="M132.55,-382C157.22,-382 184.84,-382 209.14,-382"/>
<polygon fill="#63b8ff" stroke="#63b8ff" points="132.54,-378.5 122.54,-382 132.54,-385.5 132.54,-378.5"/>
</a>
</g>
</g>
<!-- Node17 -->
<g id="Node000017" class="node">
<title>Node17</title>
<g id="a_Node000017"><a target="_parent" xlink:href="http://en.cppreference.com/w/cpp/container/map.html" xlink:title=" ">
<polygon fill="white" stroke="#666666" points="972.5,-200 859.5,-200 859.5,-170 972.5,-170 972.5,-200"/>
<text text-anchor="start" x="867.5" y="-188" font-family="Helvetica,sans-Serif" font-size="10.00">std::map&lt; std::pair,</text>
<text text-anchor="middle" x="916" y="-177" font-family="Helvetica,sans-Serif" font-size="10.00"> Eigen::VectorXd &gt;</text>
</a>
</g>
</g>
<!-- Node17&#45;&gt;Node2 -->
<g id="edge18_Node000002_Node000017" class="edge">
<title>Node17&#45;&gt;Node2</title>
<g id="a_edge18_Node000002_Node000017"><a xlink:title=" ">
<path fill="none" stroke="#9a32cd" stroke-dasharray="5,2" d="M982.88,-185C1032.05,-185 1099.21,-185 1149.91,-185"/>
<polygon fill="#9a32cd" stroke="#9a32cd" points="982.68,-181.5 972.68,-185 982.68,-188.5 982.68,-181.5"/>
</a>
</g>
<text text-anchor="middle" x="1084.5" y="-188" font-family="Helvetica,sans-Serif" font-size="10.00" fill="grey"> _initialGuesses</text>
</g>
<!-- Node18 -->
<g id="Node000018" class="node">
<title>Node18</title>
<g id="a_Node000018"><a target="_parent" xlink:href="http://en.cppreference.com/w/cpp/utility/pair.html" xlink:title=" ">
<polygon fill="white" stroke="#666666" points="649.5,-220.5 540.5,-220.5 540.5,-201.5 649.5,-201.5 649.5,-220.5"/>
<text text-anchor="middle" x="595" y="-208.5" font-family="Helvetica,sans-Serif" font-size="10.00">std::pair&lt; T1, T2 &gt;</text>
</a>
</g>
</g>
<!-- Node18&#45;&gt;Node17 -->
<g id="edge19_Node000017_Node000018" class="edge">
<title>Node18&#45;&gt;Node17</title>
<g id="a_edge19_Node000017_Node000018"><a xlink:title=" ">
<path fill="none" stroke="#9a32cd" stroke-dasharray="5,2" d="M659.97,-205.79C718.36,-201.03 803.81,-194.06 859.42,-189.53"/>
<polygon fill="#9a32cd" stroke="#9a32cd" points="659.44,-202.32 649.75,-206.62 660,-209.29 659.44,-202.32"/>
</a>
</g>
<text text-anchor="middle" x="746.5" y="-206" font-family="Helvetica,sans-Serif" font-size="10.00" fill="grey"> keys</text>
</g>
<!-- Node19 -->
<g id="Node000019" class="node">
<title>Node19</title>
<g id="a_Node000019"><a xlink:title=" ">
<polygon fill="white" stroke="#666666" points="290.5,-184.5 261.5,-184.5 261.5,-165.5 290.5,-165.5 290.5,-184.5"/>
<text text-anchor="middle" x="276" y="-172.5" font-family="Helvetica,sans-Serif" font-size="10.00">T</text>
</a>
</g>
</g>
<!-- Node19&#45;&gt;Node18 -->
<g id="edge20_Node000018_Node000019" class="edge">
<title>Node19&#45;&gt;Node18</title>
<g id="a_edge20_Node000018_Node000019"><a xlink:title=" ">
<path fill="none" stroke="#9a32cd" stroke-dasharray="5,2" d="M300.7,-174.97C340.45,-175.22 423.01,-177.04 492,-187 515.05,-190.33 540.55,-196.33 560.28,-201.5"/>
<polygon fill="#9a32cd" stroke="#9a32cd" points="300.68,-171.47 290.67,-174.93 300.65,-178.47 300.68,-171.47"/>
</a>
</g>
<text text-anchor="middle" x="431.5" y="-201" font-family="Helvetica,sans-Serif" font-size="10.00" fill="grey"> first</text>
<text text-anchor="middle" x="431.5" y="-190" font-family="Helvetica,sans-Serif" font-size="10.00" fill="grey">second</text>
</g>
<!-- Node20 -->
<g id="Node000020" class="node">
<title>Node20</title>
<g id="a_Node000020"><a xlink:title=" ">
<polygon fill="white" stroke="#666666" points="290.5,-263.5 261.5,-263.5 261.5,-244.5 290.5,-244.5 290.5,-263.5"/>
<text text-anchor="middle" x="276" y="-251.5" font-family="Helvetica,sans-Serif" font-size="10.00">T1</text>
</a>
</g>
</g>
<!-- Node20&#45;&gt;Node18 -->
<g id="edge21_Node000018_Node000020" class="edge">
<title>Node20&#45;&gt;Node18</title>
<g id="a_edge21_Node000018_Node000020"><a xlink:title=" ">
<path fill="none" stroke="#9a32cd" stroke-dasharray="5,2" d="M300.65,-252.15C340.33,-248.89 422.79,-241.47 492,-231 511.09,-228.11 532.04,-224.15 549.96,-220.5"/>
<polygon fill="#9a32cd" stroke="#9a32cd" points="300.32,-248.66 290.64,-252.96 300.89,-255.64 300.32,-248.66"/>
</a>
</g>
<text text-anchor="middle" x="431.5" y="-248" font-family="Helvetica,sans-Serif" font-size="10.00" fill="grey"> first_type</text>
</g>
<!-- Node21 -->
<g id="Node000021" class="node">
<title>Node21</title>
<g id="a_Node000021"><a xlink:title=" ">
<polygon fill="white" stroke="#666666" points="290.5,-226.5 261.5,-226.5 261.5,-207.5 290.5,-207.5 290.5,-226.5"/>
<text text-anchor="middle" x="276" y="-214.5" font-family="Helvetica,sans-Serif" font-size="10.00">T2</text>
</a>
</g>
</g>
<!-- Node21&#45;&gt;Node18 -->
<g id="edge22_Node000018_Node000021" class="edge">
<title>Node21&#45;&gt;Node18</title>
<g id="a_edge22_Node000018_Node000021"><a xlink:title=" ">
<path fill="none" stroke="#9a32cd" stroke-dasharray="5,2" d="M300.87,-216.55C351.45,-215.59 470.48,-213.34 540.31,-212.02"/>
<polygon fill="#9a32cd" stroke="#9a32cd" points="300.55,-213.05 290.62,-216.74 300.69,-220.05 300.55,-213.05"/>
</a>
</g>
<text text-anchor="middle" x="431.5" y="-219" font-family="Helvetica,sans-Serif" font-size="10.00" fill="grey"> second_type</text>
</g>
</g>
</svg>

<g id="navigator" transform="translate(0 0)" fill="#404254">
  <rect fill="#f2f5e9" fill-opacity="0.5" stroke="#606060" stroke-width=".5" x="0" y="0" width="60" height="60"/>
  <use id="zoomplus" xlink:href="#zoomPlus" x="17" y="9" onmousedown="handleZoom(evt,'in')"/>
  <use id="zoomminus" xlink:href="#zoomMin" x="42" y="9" onmousedown="handleZoom(evt,'out')"/>
  <use id="reset" xlink:href="#resetDef" x="30" y="36" onmousedown="handleReset()"/>
   <use id="arrowup" xlink:href="#arrowUp" x="0" y="0" onmousedown="handlePan(0,-1)"/>
  <use id="arrowright" xlink:href="#arrowRight" x="0" y="0" onmousedown="handlePan(1,0)"/>
  <use id="arrowdown" xlink:href="#arrowDown" x="0" y="0" onmousedown="handlePan(0,1)"/>
  <use id="arrowleft" xlink:href="#arrowLeft" x="0" y="0" onmousedown="handlePan(-1,0)"/>
</g>
<svg viewBox="0 0 15 15" width="100%" height="30px" preserveAspectRatio="xMaxYMin meet">
 <g id="arrow_out" transform="scale(0.3 0.3)">
  <a xlink:href="classprecice_1_1impl_1_1WriteDataContext__coll__graph_org.svg" target="_base">
   <rect id="button" ry="5" rx="5" y="6" x="6" height="38" width="38"
        fill="#f2f5e9" fill-opacity="0.5" stroke="#606060" stroke-width="1.0"/>
   <path id="arrow"
     d="M 11.500037,31.436501 C 11.940474,20.09759 22.043105,11.32322 32.158766,21.979434 L 37.068811,17.246167 C 37.068811,17.246167 37.088388,32 37.088388,32 L 22.160133,31.978069 C 22.160133,31.978069 26.997745,27.140456 26.997745,27.140456 C 18.528582,18.264221 13.291696,25.230495 11.500037,31.436501 z"
     style="fill:#404040;"/>
  </a>
 </g>
</svg>

<style type='text/css'>
<![CDATA[
[data-mouse-over-selected='false'] { opacity: 0.7; }
[data-mouse-over-selected='true']  { opacity: 1.0; }
]]>
</style>
<script type="application/ecmascript"><![CDATA[
document.addEventListener('DOMContentLoaded', (event) => {
  highlightEdges();
  highlightAdjacentNodes();
});
]]></script>
</svg>
