<?xml version="1.0" encoding="UTF-8" standalone="no"?>
<!DOCTYPE svg PUBLIC "-//W3C//DTD SVG 1.1//EN"
 "http://www.w3.org/Graphics/SVG/1.1/DTD/svg11.dtd">
<!-- Generated by graphviz version 2.43.0 (0)
 -->
<!-- Title: precice::cplscheme::BaseCouplingScheme::addComputedTime Pages: 1 -->
<svg width="963pt" height="371pt"
 viewBox="0.00 0.00 963.00 371.00" xmlns="http://www.w3.org/2000/svg" xmlns:xlink="http://www.w3.org/1999/xlink">
<g id="graph0" class="graph" transform="scale(1 1) rotate(0) translate(4 367)">
<title>precice::cplscheme::BaseCouplingScheme::addComputedTime</title>
<!-- Node1 -->
<g id="Node000001" class="node">
<title>Node1</title>
<g id="a_Node000001"><a xlink:title="Adds newly computed time. Has to be called before every advance.">
<polygon fill="#999999" stroke="#666666" points="128,-166 0,-166 0,-125 128,-125 128,-166"/>
<text text-anchor="start" x="8" y="-154" font-family="Helvetica,sans-Serif" font-size="10.00">precice::cplscheme</text>
<text text-anchor="start" x="8" y="-143" font-family="Helvetica,sans-Serif" font-size="10.00">::BaseCouplingScheme</text>
<text text-anchor="middle" x="64" y="-132" font-family="Helvetica,sans-Serif" font-size="10.00">::addComputedTime</text>
</a>
</g>
</g>
<!-- Node2 -->
<g id="Node000002" class="node">
<title>Node2</title>
<g id="a_Node000002"><a xlink:href="classprecice_1_1cplscheme_1_1BaseCouplingScheme.html#a9981e805fe1fcdea567cf0b4dd20348a" target="_top" xlink:title="Returns the maximal size of the next time step to be computed.">
<polygon fill="white" stroke="#666666" points="317,-196 168,-196 168,-155 317,-155 317,-196"/>
<text text-anchor="start" x="176" y="-184" font-family="Helvetica,sans-Serif" font-size="10.00">precice::cplscheme</text>
<text text-anchor="start" x="176" y="-173" font-family="Helvetica,sans-Serif" font-size="10.00">::BaseCouplingScheme</text>
<text text-anchor="middle" x="242.5" y="-162" font-family="Helvetica,sans-Serif" font-size="10.00">::getNextTimeStepMaxSize</text>
</a>
</g>
</g>
<!-- Node1&#45;&gt;Node2 -->
<g id="edge1_Node000001_Node000002" class="edge">
<title>Node1&#45;&gt;Node2</title>
<g id="a_edge1_Node000001_Node000002"><a xlink:title=" ">
<path fill="none" stroke="#63b8ff" d="M128.22,-156.25C137.87,-157.89 147.95,-159.6 157.94,-161.3"/>
<polygon fill="#63b8ff" stroke="#63b8ff" points="157.45,-164.76 167.9,-162.99 158.62,-157.86 157.45,-164.76"/>
</a>
</g>
</g>
<!-- Node5 -->
<g id="Node000005" class="node">
<title>Node5</title>
<g id="a_Node000005"><a xlink:href="classprecice_1_1cplscheme_1_1BaseCouplingScheme.html#a69facd34bc23797fe69daab51df26b8c" target="_top" xlink:title="Returns true, when the coupled simulation is still ongoing.">
<polygon fill="white" stroke="#666666" points="492,-245 364,-245 364,-204 492,-204 492,-245"/>
<text text-anchor="start" x="372" y="-233" font-family="Helvetica,sans-Serif" font-size="10.00">precice::cplscheme</text>
<text text-anchor="start" x="372" y="-222" font-family="Helvetica,sans-Serif" font-size="10.00">::BaseCouplingScheme</text>
<text text-anchor="middle" x="428" y="-211" font-family="Helvetica,sans-Serif" font-size="10.00">::isCouplingOngoing</text>
</a>
</g>
</g>
<!-- Node1&#45;&gt;Node5 -->
<g id="edge16_Node000001_Node000005" class="edge">
<title>Node1&#45;&gt;Node5</title>
<g id="a_edge16_Node000001_Node000005"><a xlink:title=" ">
<path fill="none" stroke="#63b8ff" d="M91.05,-166.03C110.1,-179.81 137.19,-196.96 164,-205.5 225.87,-225.22 299.93,-228.92 353.67,-228.3"/>
<polygon fill="#63b8ff" stroke="#63b8ff" points="353.86,-231.79 363.8,-228.13 353.74,-224.79 353.86,-231.79"/>
</a>
</g>
</g>
<!-- Node11 -->
<g id="Node000011" class="node">
<title>Node11</title>
<g id="a_Node000011"><a xlink:href="classprecice_1_1cplscheme_1_1BaseCouplingScheme.html#a6c37c619f364581226635cdca7d39e4b" target="_top" xlink:title="getter for _time">
<polygon fill="white" stroke="#666666" points="306.5,-137 178.5,-137 178.5,-96 306.5,-96 306.5,-137"/>
<text text-anchor="start" x="186.5" y="-125" font-family="Helvetica,sans-Serif" font-size="10.00">precice::cplscheme</text>
<text text-anchor="start" x="186.5" y="-114" font-family="Helvetica,sans-Serif" font-size="10.00">::BaseCouplingScheme</text>
<text text-anchor="middle" x="242.5" y="-103" font-family="Helvetica,sans-Serif" font-size="10.00">::getTime</text>
</a>
</g>
</g>
<!-- Node1&#45;&gt;Node11 -->
<g id="edge13_Node000001_Node000011" class="edge">
<title>Node1&#45;&gt;Node11</title>
<g id="a_edge13_Node000001_Node000011"><a xlink:title=" ">
<path fill="none" stroke="#63b8ff" d="M128.22,-135.11C141.23,-132.98 155.02,-130.71 168.35,-128.52"/>
<polygon fill="#63b8ff" stroke="#63b8ff" points="169.12,-131.94 178.42,-126.86 167.99,-125.03 169.12,-131.94"/>
</a>
</g>
</g>
<!-- Node13 -->
<g id="Node000013" class="node">
<title>Node13</title>
<g id="a_Node000013"><a xlink:href="namespaceprecice_1_1math.html#a7c89628af2152c671582049853513b34" target="_top" xlink:title=" ">
<polygon fill="white" stroke="#666666" points="321,-78 164,-78 164,-59 321,-59 321,-78"/>
<text text-anchor="middle" x="242.5" y="-66" font-family="Helvetica,sans-Serif" font-size="10.00">precice::math::greaterEquals</text>
</a>
</g>
</g>
<!-- Node1&#45;&gt;Node13 -->
<g id="edge15_Node000001_Node000013" class="edge">
<title>Node1&#45;&gt;Node13</title>
<g id="a_edge15_Node000001_Node000013"><a xlink:title=" ">
<path fill="none" stroke="#63b8ff" d="M94.08,-124.9C113.17,-112.21 139.13,-96.52 164,-86.5 169.34,-84.35 174.99,-82.43 180.71,-80.71"/>
<polygon fill="#63b8ff" stroke="#63b8ff" points="181.67,-84.07 190.36,-78.01 179.79,-77.33 181.67,-84.07"/>
</a>
</g>
</g>
<!-- Node14 -->
<g id="Node000014" class="node">
<title>Node14</title>
<g id="a_Node000014"><a xlink:href="classprecice_1_1cplscheme_1_1impl_1_1TimeHandler.html#af2ecc09bc9e7fcbfc184aa17cdfcbed4" target="_top" xlink:title="Progress the time window by the given amount.">
<polygon fill="white" stroke="#666666" points="299,-41 186,-41 186,0 299,0 299,-41"/>
<text text-anchor="start" x="194" y="-29" font-family="Helvetica,sans-Serif" font-size="10.00">precice::cplscheme</text>
<text text-anchor="start" x="194" y="-18" font-family="Helvetica,sans-Serif" font-size="10.00">::impl::TimeHandler</text>
<text text-anchor="middle" x="242.5" y="-7" font-family="Helvetica,sans-Serif" font-size="10.00">::progressBy</text>
</a>
</g>
</g>
<!-- Node1&#45;&gt;Node14 -->
<g id="edge17_Node000001_Node000014" class="edge">
<title>Node1&#45;&gt;Node14</title>
<g id="a_edge17_Node000001_Node000014"><a xlink:title=" ">
<path fill="none" stroke="#63b8ff" d="M81.65,-124.96C99.9,-103.58 131.02,-70.36 164,-49.5 168.04,-46.95 172.33,-44.57 176.75,-42.36"/>
<polygon fill="#63b8ff" stroke="#63b8ff" points="178.37,-45.47 185.95,-38.07 175.41,-39.12 178.37,-45.47"/>
</a>
</g>
</g>
<!-- Node15 -->
<g id="Node000015" class="node">
<title>Node15</title>
<g id="a_Node000015"><a xlink:href="classprecice_1_1cplscheme_1_1BaseCouplingScheme.html#a832f4c52f3563470b428583ba96f4534" target="_top" xlink:title="Function to check whether end of time window is reached. Does not check for convergence.">
<polygon fill="white" stroke="#666666" points="320,-304 165,-304 165,-263 320,-263 320,-304"/>
<text text-anchor="start" x="173" y="-292" font-family="Helvetica,sans-Serif" font-size="10.00">precice::cplscheme</text>
<text text-anchor="start" x="173" y="-281" font-family="Helvetica,sans-Serif" font-size="10.00">::BaseCouplingScheme</text>
<text text-anchor="middle" x="242.5" y="-270" font-family="Helvetica,sans-Serif" font-size="10.00">::reachedEndOfTimeWindow</text>
</a>
</g>
</g>
<!-- Node1&#45;&gt;Node15 -->
<g id="edge18_Node000001_Node000015" class="edge">
<title>Node1&#45;&gt;Node15</title>
<g id="a_edge18_Node000001_Node000015"><a xlink:title=" ">
<path fill="none" stroke="#63b8ff" d="M84.28,-166.17C103.41,-186.04 134.12,-216.25 164,-238.5 173.17,-245.33 183.46,-251.94 193.47,-257.91"/>
<polygon fill="#63b8ff" stroke="#63b8ff" points="191.76,-260.96 202.16,-262.97 195.28,-254.91 191.76,-260.96"/>
</a>
</g>
</g>
<!-- Node3 -->
<g id="Node000003" class="node">
<title>Node3</title>
<g id="a_Node000003"><a xlink:href="classprecice_1_1cplscheme_1_1BaseCouplingScheme.html#aa1c82548c80a9c8bb129e115e0f710fe" target="_top" xlink:title="Function to check whether time window size is defined by coupling scheme.">
<polygon fill="white" stroke="#666666" points="492,-304 364,-304 364,-263 492,-263 492,-304"/>
<text text-anchor="start" x="372" y="-292" font-family="Helvetica,sans-Serif" font-size="10.00">precice::cplscheme</text>
<text text-anchor="start" x="372" y="-281" font-family="Helvetica,sans-Serif" font-size="10.00">::BaseCouplingScheme</text>
<text text-anchor="middle" x="428" y="-270" font-family="Helvetica,sans-Serif" font-size="10.00">::hasTimeWindowSize</text>
</a>
</g>
</g>
<!-- Node2&#45;&gt;Node3 -->
<g id="edge2_Node000002_Node000003" class="edge">
<title>Node2&#45;&gt;Node3</title>
<g id="a_edge2_Node000002_Node000003"><a xlink:title=" ">
<path fill="none" stroke="#63b8ff" d="M269.51,-196.03C291.87,-213.07 325.4,-237.22 357,-254.5 359.49,-255.86 362.05,-257.2 364.67,-258.51"/>
<polygon fill="#63b8ff" stroke="#63b8ff" points="363.16,-261.66 373.69,-262.83 366.18,-255.35 363.16,-261.66"/>
</a>
</g>
</g>
<!-- Node2&#45;&gt;Node5 -->
<g id="edge4_Node000002_Node000005" class="edge">
<title>Node2&#45;&gt;Node5</title>
<g id="a_edge4_Node000002_Node000005"><a xlink:title=" ">
<path fill="none" stroke="#63b8ff" d="M317.08,-195.15C329.15,-198.37 341.66,-201.71 353.73,-204.94"/>
<polygon fill="#63b8ff" stroke="#63b8ff" points="353.18,-208.41 363.74,-207.61 354.98,-201.65 353.18,-208.41"/>
</a>
</g>
</g>
<!-- Node8 -->
<g id="Node000008" class="node">
<title>Node8</title>
<g id="a_Node000008"><a xlink:href="classprecice_1_1cplscheme_1_1impl_1_1TimeHandler.html#a1691b3de3f4d4c668b7389132d34268a" target="_top" xlink:title=" ">
<polygon fill="white" stroke="#666666" points="801.5,-158 688.5,-158 688.5,-117 801.5,-117 801.5,-158"/>
<text text-anchor="start" x="696.5" y="-146" font-family="Helvetica,sans-Serif" font-size="10.00">precice::cplscheme</text>
<text text-anchor="start" x="696.5" y="-135" font-family="Helvetica,sans-Serif" font-size="10.00">::impl::TimeHandler</text>
<text text-anchor="middle" x="745" y="-124" font-family="Helvetica,sans-Serif" font-size="10.00">::untilEnd</text>
</a>
</g>
</g>
<!-- Node2&#45;&gt;Node8 -->
<g id="edge8_Node000002_Node000008" class="edge">
<title>Node2&#45;&gt;Node8</title>
<g id="a_edge8_Node000002_Node000008"><a xlink:title=" ">
<path fill="none" stroke="#63b8ff" d="M317.08,-169.91C414.51,-162.52 584.85,-149.58 678.2,-142.5"/>
<polygon fill="#63b8ff" stroke="#63b8ff" points="678.66,-145.97 688.37,-141.72 678.13,-138.99 678.66,-145.97"/>
</a>
</g>
</g>
<!-- Node9 -->
<g id="Node000009" class="node">
<title>Node9</title>
<g id="a_Node000009"><a xlink:href="classprecice_1_1cplscheme_1_1impl_1_1TimeHandler.html#aa1f9e5b3ad17a5ed37693674f245a15b" target="_top" xlink:title="Returns the time distance to the possibly truncated end of the current time window.">
<polygon fill="white" stroke="#666666" points="648,-207 535,-207 535,-166 648,-166 648,-207"/>
<text text-anchor="start" x="543" y="-195" font-family="Helvetica,sans-Serif" font-size="10.00">precice::cplscheme</text>
<text text-anchor="start" x="543" y="-184" font-family="Helvetica,sans-Serif" font-size="10.00">::impl::TimeHandler</text>
<text text-anchor="middle" x="591.5" y="-173" font-family="Helvetica,sans-Serif" font-size="10.00">::untilWindowEnd</text>
</a>
</g>
</g>
<!-- Node2&#45;&gt;Node9 -->
<g id="edge10_Node000002_Node000009" class="edge">
<title>Node2&#45;&gt;Node9</title>
<g id="a_edge10_Node000002_Node000009"><a xlink:title=" ">
<path fill="none" stroke="#63b8ff" d="M317.09,-177.83C378.55,-179.78 465.39,-182.53 524.6,-184.41"/>
<polygon fill="#63b8ff" stroke="#63b8ff" points="524.85,-187.92 534.96,-184.74 525.07,-180.92 524.85,-187.92"/>
</a>
</g>
</g>
<!-- Node4 -->
<g id="Node000004" class="node">
<title>Node4</title>
<g id="a_Node000004"><a xlink:href="namespaceprecice_1_1math.html#a0e86802cfe992deba131d789d035b5b7" target="_top" xlink:title="Compares two Eigen::MatrixBase for equality up to tolerance.">
<polygon fill="white" stroke="#666666" points="806,-304 684,-304 684,-285 806,-285 806,-304"/>
<text text-anchor="middle" x="745" y="-292" font-family="Helvetica,sans-Serif" font-size="10.00">precice::math::equals</text>
</a>
</g>
</g>
<!-- Node3&#45;&gt;Node4 -->
<g id="edge3_Node000003_Node000004" class="edge">
<title>Node3&#45;&gt;Node4</title>
<g id="a_edge3_Node000003_Node000004"><a xlink:title=" ">
<path fill="none" stroke="#63b8ff" d="M492.37,-285.71C544.86,-287.55 619.38,-290.15 673.7,-292.05"/>
<polygon fill="#63b8ff" stroke="#63b8ff" points="673.82,-295.55 683.94,-292.4 674.07,-288.56 673.82,-295.55"/>
</a>
</g>
</g>
<!-- Node6 -->
<g id="Node000006" class="node">
<title>Node6</title>
<g id="a_Node000006"><a xlink:href="classprecice_1_1cplscheme_1_1impl_1_1TimeHandler.html#acf44ef74e3031f7fcdf1edf9f4a24f4d" target="_top" xlink:title=" ">
<polygon fill="white" stroke="#666666" points="648,-266 535,-266 535,-225 648,-225 648,-266"/>
<text text-anchor="start" x="543" y="-254" font-family="Helvetica,sans-Serif" font-size="10.00">precice::cplscheme</text>
<text text-anchor="start" x="543" y="-243" font-family="Helvetica,sans-Serif" font-size="10.00">::impl::TimeHandler</text>
<text text-anchor="middle" x="591.5" y="-232" font-family="Helvetica,sans-Serif" font-size="10.00">::reachedEnd</text>
</a>
</g>
</g>
<!-- Node5&#45;&gt;Node6 -->
<g id="edge5_Node000005_Node000006" class="edge">
<title>Node5&#45;&gt;Node6</title>
<g id="a_edge5_Node000005_Node000006"><a xlink:title=" ">
<path fill="none" stroke="#63b8ff" d="M492.37,-232.74C503.01,-234.12 514.08,-235.56 524.79,-236.96"/>
<polygon fill="#63b8ff" stroke="#63b8ff" points="524.55,-240.45 534.92,-238.27 525.45,-233.51 524.55,-240.45"/>
</a>
</g>
</g>
<!-- Node6&#45;&gt;Node4 -->
<g id="edge6_Node000006_Node000004" class="edge">
<title>Node6&#45;&gt;Node4</title>
<g id="a_edge6_Node000006_Node000004"><a xlink:title=" ">
<path fill="none" stroke="#63b8ff" d="M648.05,-263.47C666.83,-269.54 687.4,-276.19 704.65,-281.77"/>
<polygon fill="#63b8ff" stroke="#63b8ff" points="703.8,-285.18 714.39,-284.92 705.96,-278.52 703.8,-285.18"/>
</a>
</g>
</g>
<!-- Node7 -->
<g id="Node000007" class="node">
<title>Node7</title>
<g id="a_Node000007"><a xlink:href="classprecice_1_1cplscheme_1_1impl_1_1TimeHandler.html#a3d2757a3ef13e33b3bb1881f7dde353c" target="_top" xlink:title="Returns the time difference until the overall time reaches the given time.">
<polygon fill="white" stroke="#666666" points="955,-212 842,-212 842,-171 955,-171 955,-212"/>
<text text-anchor="start" x="850" y="-200" font-family="Helvetica,sans-Serif" font-size="10.00">precice::cplscheme</text>
<text text-anchor="start" x="850" y="-189" font-family="Helvetica,sans-Serif" font-size="10.00">::impl::TimeHandler</text>
<text text-anchor="middle" x="898.5" y="-178" font-family="Helvetica,sans-Serif" font-size="10.00">::untilTime</text>
</a>
</g>
</g>
<!-- Node6&#45;&gt;Node7 -->
<g id="edge7_Node000006_Node000007" class="edge">
<title>Node6&#45;&gt;Node7</title>
<g id="a_edge7_Node000006_Node000007"><a xlink:title=" ">
<path fill="none" stroke="#63b8ff" d="M648.01,-244.75C691.49,-243.16 753.25,-238.69 806,-226.5 817.78,-223.78 830.08,-219.87 841.69,-215.64"/>
<polygon fill="#63b8ff" stroke="#63b8ff" points="843.14,-218.84 851.26,-212.03 840.67,-212.29 843.14,-218.84"/>
</a>
</g>
</g>
<!-- Node8&#45;&gt;Node7 -->
<g id="edge9_Node000008_Node000007" class="edge">
<title>Node8&#45;&gt;Node7</title>
<g id="a_edge9_Node000008_Node000007"><a xlink:title=" ">
<path fill="none" stroke="#63b8ff" d="M801.55,-157.3C811.54,-160.86 822.02,-164.6 832.25,-168.24"/>
<polygon fill="#63b8ff" stroke="#63b8ff" points="831.36,-171.64 841.95,-171.7 833.71,-165.05 831.36,-171.64"/>
</a>
</g>
</g>
<!-- Node9&#45;&gt;Node8 -->
<g id="edge11_Node000009_Node000008" class="edge">
<title>Node9&#45;&gt;Node8</title>
<g id="a_edge11_Node000009_Node000008"><a xlink:title=" ">
<path fill="none" stroke="#63b8ff" d="M648.05,-168.53C658.04,-165.3 668.52,-161.91 678.75,-158.6"/>
<polygon fill="#63b8ff" stroke="#63b8ff" points="680.02,-161.87 688.45,-155.47 677.86,-155.21 680.02,-161.87"/>
</a>
</g>
</g>
<!-- Node10 -->
<g id="Node000010" class="node">
<title>Node10</title>
<g id="a_Node000010"><a xlink:href="classprecice_1_1cplscheme_1_1impl_1_1TimeHandler.html#a97233c5f75ef847589a9bf7b94a0f5c4" target="_top" xlink:title=" ">
<polygon fill="white" stroke="#666666" points="801.5,-217 688.5,-217 688.5,-176 801.5,-176 801.5,-217"/>
<text text-anchor="start" x="696.5" y="-205" font-family="Helvetica,sans-Serif" font-size="10.00">precice::cplscheme</text>
<text text-anchor="start" x="696.5" y="-194" font-family="Helvetica,sans-Serif" font-size="10.00">::impl::TimeHandler</text>
<text text-anchor="middle" x="745" y="-183" font-family="Helvetica,sans-Serif" font-size="10.00">::untilProgress</text>
</a>
</g>
</g>
<!-- Node9&#45;&gt;Node10 -->
<g id="edge12_Node000009_Node000010" class="edge">
<title>Node9&#45;&gt;Node10</title>
<g id="a_edge12_Node000009_Node000010"><a xlink:title=" ">
<path fill="none" stroke="#63b8ff" d="M648.05,-190.17C657.93,-190.82 668.31,-191.5 678.44,-192.17"/>
<polygon fill="#63b8ff" stroke="#63b8ff" points="678.25,-195.67 688.45,-192.83 678.71,-188.68 678.25,-195.67"/>
</a>
</g>
</g>
<!-- Node12 -->
<g id="Node000012" class="node">
<title>Node12</title>
<g id="a_Node000012"><a xlink:href="classprecice_1_1cplscheme_1_1impl_1_1TimeHandler.html#a98a5365f35f80c2956df85a624ca3c21" target="_top" xlink:title="Returns the current time as a double.">
<polygon fill="white" stroke="#666666" points="499,-109.5 357,-109.5 357,-79.5 499,-79.5 499,-109.5"/>
<text text-anchor="start" x="365" y="-97.5" font-family="Helvetica,sans-Serif" font-size="10.00">precice::cplscheme</text>
<text text-anchor="middle" x="428" y="-86.5" font-family="Helvetica,sans-Serif" font-size="10.00">::impl::TimeHandler::time</text>
</a>
</g>
</g>
<!-- Node11&#45;&gt;Node12 -->
<g id="edge14_Node000011_Node000012" class="edge">
<title>Node11&#45;&gt;Node12</title>
<g id="a_edge14_Node000011_Node000012"><a xlink:title=" ">
<path fill="none" stroke="#63b8ff" d="M306.65,-108.93C319.54,-107.38 333.26,-105.74 346.66,-104.13"/>
<polygon fill="#63b8ff" stroke="#63b8ff" points="347.3,-107.58 356.82,-102.91 346.47,-100.63 347.3,-107.58"/>
</a>
</g>
</g>
<!-- Node15&#45;&gt;Node3 -->
<g id="edge19_Node000015_Node000003" class="edge">
<title>Node15&#45;&gt;Node3</title>
<g id="a_edge19_Node000015_Node000003"><a xlink:title=" ">
<path fill="none" stroke="#63b8ff" d="M320.26,-283.5C331.39,-283.5 342.82,-283.5 353.87,-283.5"/>
<polygon fill="#63b8ff" stroke="#63b8ff" points="353.9,-287 363.9,-283.5 353.9,-280 353.9,-287"/>
</a>
</g>
</g>
<!-- Node16 -->
<g id="Node000016" class="node">
<title>Node16</title>
<g id="a_Node000016"><a xlink:href="classprecice_1_1cplscheme_1_1impl_1_1TimeHandler.html#a7a5d13e5b7a4f78ddde948221dc0d1e7" target="_top" xlink:title=" ">
<polygon fill="white" stroke="#666666" points="493,-363 363,-363 363,-322 493,-322 493,-363"/>
<text text-anchor="start" x="371" y="-351" font-family="Helvetica,sans-Serif" font-size="10.00">precice::cplscheme</text>
<text text-anchor="start" x="371" y="-340" font-family="Helvetica,sans-Serif" font-size="10.00">::impl::TimeHandler</text>
<text text-anchor="middle" x="428" y="-329" font-family="Helvetica,sans-Serif" font-size="10.00">::reachedEndOfWindow</text>
</a>
</g>
</g>
<!-- Node15&#45;&gt;Node16 -->
<g id="edge20_Node000015_Node000016" class="edge">
<title>Node15&#45;&gt;Node16</title>
<g id="a_edge20_Node000015_Node000016"><a xlink:title=" ">
<path fill="none" stroke="#63b8ff" d="M307.42,-304.05C322.19,-308.8 338.01,-313.89 353.16,-318.76"/>
<polygon fill="#63b8ff" stroke="#63b8ff" points="352.41,-322.19 363,-321.92 354.55,-315.53 352.41,-322.19"/>
</a>
</g>
</g>
<!-- Node16&#45;&gt;Node4 -->
<g id="edge21_Node000016_Node000004" class="edge">
<title>Node16&#45;&gt;Node4</title>
<g id="a_edge21_Node000016_Node000004"><a xlink:title=" ">
<path fill="none" stroke="#63b8ff" d="M493.12,-332.73C545.6,-324.73 619.71,-313.44 673.77,-305.2"/>
<polygon fill="#63b8ff" stroke="#63b8ff" points="674.61,-308.61 683.97,-303.65 673.55,-301.69 674.61,-308.61"/>
</a>
</g>
</g>
<!-- Node16&#45;&gt;Node9 -->
<g id="edge22_Node000016_Node000009" class="edge">
<title>Node16&#45;&gt;Node9</title>
<g id="a_edge22_Node000016_Node000009"><a xlink:title=" ">
<path fill="none" stroke="#63b8ff" d="M488.95,-321.94C492.59,-319.43 495.99,-316.63 499,-313.5 530.9,-280.38 504.84,-251.21 535,-216.5 535.85,-215.52 536.74,-214.57 537.66,-213.65"/>
<polygon fill="#63b8ff" stroke="#63b8ff" points="540.02,-216.24 545.32,-207.06 535.45,-210.93 540.02,-216.24"/>
</a>
</g>
</g>
</g>
</svg>
