<?xml version="1.0" encoding="UTF-8" standalone="no"?>
<!DOCTYPE svg PUBLIC "-//W3C//DTD SVG 1.1//EN"
 "http://www.w3.org/Graphics/SVG/1.1/DTD/svg11.dtd">
<!-- Generated by graphviz version 2.43.0 (0)
 -->
<!-- Title: precice::mapping::PetRadialBasisFctMapping::computePreallocationMatrixC Pages: 1 -->
<svg width="540pt" height="137pt"
 viewBox="0.00 0.00 540.00 137.00" xmlns="http://www.w3.org/2000/svg" xmlns:xlink="http://www.w3.org/1999/xlink">
<g id="graph0" class="graph" transform="scale(1 1) rotate(0) translate(4 133)">
<title>precice::mapping::PetRadialBasisFctMapping::computePreallocationMatrixC</title>
<polygon fill="white" stroke="transparent" points="-4,4 -4,-133 536,-133 536,4 -4,4"/>
<!-- Node1 -->
<g id="node1" class="node">
<title>Node1</title>
<g id="a_node1"><a xlink:title="Preallocate matrix C by only deriving the preallocation pattern.">
<polygon fill="#bfbfbf" stroke="black" points="0,-68 0,-109 212,-109 212,-68 0,-68"/>
<text text-anchor="start" x="8" y="-97" font-family="Helvetica,sans-Serif" font-size="10.00">precice::mapping::PetRadial</text>
<text text-anchor="start" x="8" y="-86" font-family="Helvetica,sans-Serif" font-size="10.00">BasisFctMapping::computePreallocation</text>
<text text-anchor="middle" x="106" y="-75" font-family="Helvetica,sans-Serif" font-size="10.00">MatrixC</text>
</a>
</g>
</g>
<!-- Node2 -->
<g id="node2" class="node">
<title>Node2</title>
<g id="a_node2"><a xlink:href="namespaceprecice_1_1utils_1_1petsc.html#a931b5a402aa2dec020afa7af6167d67e" target="_top" xlink:title=" ">
<polygon fill="white" stroke="black" points="248,-98.5 248,-128.5 359,-128.5 359,-98.5 248,-98.5"/>
<text text-anchor="start" x="256" y="-116.5" font-family="Helvetica,sans-Serif" font-size="10.00">precice::utils::petsc</text>
<text text-anchor="middle" x="303.5" y="-105.5" font-family="Helvetica,sans-Serif" font-size="10.00">::getName</text>
</a>
</g>
</g>
<!-- Node1&#45;&gt;Node2 -->
<g id="edge1" class="edge">
<title>Node1&#45;&gt;Node2</title>
<path fill="none" stroke="midnightblue" d="M212.19,-101.95C220.93,-103.07 229.59,-104.18 237.88,-105.24"/>
<polygon fill="midnightblue" stroke="midnightblue" points="237.44,-108.71 247.81,-106.51 238.33,-101.77 237.44,-108.71"/>
</g>
<!-- Node3 -->
<g id="node3" class="node">
<title>Node3</title>
<g id="a_node3"><a xlink:href="classprecice_1_1profiling_1_1Event.html#a4218cc284dfa09a754f4bf510e574066" target="_top" xlink:title="Stops a running event.">
<polygon fill="white" stroke="black" points="254.5,-49.5 254.5,-79.5 352.5,-79.5 352.5,-49.5 254.5,-49.5"/>
<text text-anchor="start" x="262.5" y="-67.5" font-family="Helvetica,sans-Serif" font-size="10.00">precice::profiling</text>
<text text-anchor="middle" x="303.5" y="-56.5" font-family="Helvetica,sans-Serif" font-size="10.00">::Event::stop</text>
</a>
</g>
</g>
<!-- Node1&#45;&gt;Node3 -->
<g id="edge2" class="edge">
<title>Node1&#45;&gt;Node3</title>
<path fill="none" stroke="midnightblue" d="M212.19,-75.59C223.06,-74.25 233.8,-72.93 243.88,-71.7"/>
<polygon fill="midnightblue" stroke="midnightblue" points="244.62,-75.13 254.12,-70.44 243.77,-68.18 244.62,-75.13"/>
</g>
<!-- Node4 -->
<g id="node4" class="node">
<title>Node4</title>
<g id="a_node4"><a xlink:href="classprecice_1_1profiling_1_1EventRegistry.html#a0a1555e6211794ef23fcaf7a4f41950d" target="_top" xlink:title="Returns the only instance (singleton) of the EventRegistry class.">
<polygon fill="white" stroke="black" points="395,-98.5 395,-128.5 532,-128.5 532,-98.5 395,-98.5"/>
<text text-anchor="start" x="403" y="-116.5" font-family="Helvetica,sans-Serif" font-size="10.00">precice::profiling</text>
<text text-anchor="middle" x="463.5" y="-105.5" font-family="Helvetica,sans-Serif" font-size="10.00">::EventRegistry::instance</text>
</a>
</g>
</g>
<!-- Node3&#45;&gt;Node4 -->
<g id="edge3" class="edge">
<title>Node3&#45;&gt;Node4</title>
<path fill="none" stroke="midnightblue" d="M352.76,-79.47C369,-84.5 387.28,-90.17 404.21,-95.42"/>
<polygon fill="midnightblue" stroke="midnightblue" points="403.4,-98.84 413.99,-98.45 405.47,-92.15 403.4,-98.84"/>
</g>
<!-- Node5 -->
<g id="node5" class="node">
<title>Node5</title>
<g id="a_node5"><a xlink:href="classprecice_1_1profiling_1_1EventRegistry.html#a753aa85b27412998730b0837b601cf23" target="_top" xlink:title="Records an event.">
<polygon fill="white" stroke="black" points="407.5,-49.5 407.5,-79.5 519.5,-79.5 519.5,-49.5 407.5,-49.5"/>
<text text-anchor="start" x="415.5" y="-67.5" font-family="Helvetica,sans-Serif" font-size="10.00">precice::profiling</text>
<text text-anchor="middle" x="463.5" y="-56.5" font-family="Helvetica,sans-Serif" font-size="10.00">::EventRegistry::put</text>
</a>
</g>
</g>
<!-- Node3&#45;&gt;Node5 -->
<g id="edge4" class="edge">
<title>Node3&#45;&gt;Node5</title>
<path fill="none" stroke="midnightblue" d="M352.76,-64.5C366.77,-64.5 382.31,-64.5 397.18,-64.5"/>
<polygon fill="midnightblue" stroke="midnightblue" points="397.34,-68 407.34,-64.5 397.34,-61 397.34,-68"/>
</g>
<!-- Node6 -->
<g id="node6" class="node">
<title>Node6</title>
<g id="a_node6"><a xlink:href="namespaceprecice_1_1profiling.html#a48977ee19475dd567366722467c67aae" target="_top" xlink:title=" ">
<polygon fill="white" stroke="black" points="414.5,-0.5 414.5,-30.5 512.5,-30.5 512.5,-0.5 414.5,-0.5"/>
<text text-anchor="start" x="422.5" y="-18.5" font-family="Helvetica,sans-Serif" font-size="10.00">precice::profiling</text>
<text text-anchor="middle" x="463.5" y="-7.5" font-family="Helvetica,sans-Serif" font-size="10.00">::toEventClass</text>
</a>
</g>
</g>
<!-- Node3&#45;&gt;Node6 -->
<g id="edge5" class="edge">
<title>Node3&#45;&gt;Node6</title>
<path fill="none" stroke="midnightblue" d="M352.76,-49.53C369.07,-44.47 387.46,-38.77 404.44,-33.5"/>
<polygon fill="midnightblue" stroke="midnightblue" points="405.75,-36.77 414.26,-30.46 403.67,-30.08 405.75,-36.77"/>
</g>
</g>
</svg>
