<?xml version="1.0" encoding="UTF-8" standalone="no"?>
<!DOCTYPE svg PUBLIC "-//W3C//DTD SVG 1.1//EN"
 "http://www.w3.org/Graphics/SVG/1.1/DTD/svg11.dtd">
<!-- Generated by graphviz version 2.43.0 (0)
 -->
<!-- Title: precice::acceleration::IQNIMVJAcceleration::initialize Pages: 1 -->
<svg width="848pt" height="1154pt"
 viewBox="0.00 0.00 848.00 1154.32" xmlns="http://www.w3.org/2000/svg" xmlns:xlink="http://www.w3.org/1999/xlink">
<g id="graph0" class="graph" transform="scale(1 1) rotate(0) translate(4 1150.32)">
<title>precice::acceleration::IQNIMVJAcceleration::initialize</title>
<!-- Node1 -->
<g id="Node000001" class="node">
<title>Node1</title>
<g id="a_Node000001"><a xlink:title="Initializes the acceleration.">
<polygon fill="#999999" stroke="#666666" points="123,-493 0,-493 0,-452 123,-452 123,-493"/>
<text text-anchor="start" x="8" y="-481" font-family="Helvetica,sans-Serif" font-size="10.00">precice::acceleration</text>
<text text-anchor="start" x="8" y="-470" font-family="Helvetica,sans-Serif" font-size="10.00">::IQNIMVJAcceleration</text>
<text text-anchor="middle" x="61.5" y="-459" font-family="Helvetica,sans-Serif" font-size="10.00">::initialize</text>
</a>
</g>
</g>
<!-- Node2 -->
<g id="Node000002" class="node">
<title>Node2</title>
<g id="a_Node000002"><a target="_parent" xlink:href="http://en.cppreference.com/w/cpp/container/vector/back.html#" xlink:title=" ">
<polygon fill="white" stroke="#666666" points="661,-1075 563,-1075 563,-1056 661,-1056 661,-1075"/>
<text text-anchor="middle" x="612" y="-1063" font-family="Helvetica,sans-Serif" font-size="10.00">std::vector::back</text>
</a>
</g>
</g>
<!-- Node1&#45;&gt;Node2 -->
<g id="edge1_Node000001_Node000002" class="edge">
<title>Node1&#45;&gt;Node2</title>
<g id="a_edge1_Node000001_Node000002"><a xlink:title=" ">
<path fill="none" stroke="#63b8ff" d="M63.09,-493.1C66.21,-587.1 83.49,-974.52 159,-1063.5 254.17,-1175.65 341.02,-1150.56 485,-1120.5 521.92,-1112.79 561.27,-1093.64 585.98,-1080.12"/>
<polygon fill="#63b8ff" stroke="#63b8ff" points="587.99,-1083 595.01,-1075.06 584.57,-1076.89 587.99,-1083"/>
</a>
</g>
</g>
<!-- Node3 -->
<g id="Node000003" class="node">
<title>Node3</title>
<g id="a_Node000003"><a xlink:href="classprecice_1_1acceleration_1_1BaseQNAcceleration.html#a619e8998fd765613100c5753380753b2" target="_top" xlink:title=" ">
<polygon fill="white" stroke="#666666" points="467.5,-1111 345.5,-1111 345.5,-1070 467.5,-1070 467.5,-1111"/>
<text text-anchor="start" x="353.5" y="-1099" font-family="Helvetica,sans-Serif" font-size="10.00">precice::acceleration</text>
<text text-anchor="start" x="353.5" y="-1088" font-family="Helvetica,sans-Serif" font-size="10.00">::BaseQNAcceleration</text>
<text text-anchor="middle" x="406.5" y="-1077" font-family="Helvetica,sans-Serif" font-size="10.00">::getLSSystemRows</text>
</a>
</g>
</g>
<!-- Node1&#45;&gt;Node3 -->
<g id="edge2_Node000001_Node000003" class="edge">
<title>Node1&#45;&gt;Node3</title>
<g id="a_edge2_Node000001_Node000003"><a xlink:title=" ">
<path fill="none" stroke="#63b8ff" d="M63.33,-493.05C67.33,-582.56 87.55,-937.51 159,-1017.5 203.23,-1067.01 279.27,-1083.63 335.24,-1088.87"/>
<polygon fill="#63b8ff" stroke="#63b8ff" points="335.18,-1092.38 345.44,-1089.72 335.77,-1085.4 335.18,-1092.38"/>
</a>
</g>
</g>
<!-- Node4 -->
<g id="Node000004" class="node">
<title>Node4</title>
<g id="a_Node000004"><a xlink:href="classprecice_1_1utils_1_1IntraComm.html#a946589c66048ff3058ffa078d54b6073" target="_top" xlink:title="True if this process is running in parallel.">
<polygon fill="white" stroke="#666666" points="682,-993.5 542,-993.5 542,-963.5 682,-963.5 682,-993.5"/>
<text text-anchor="start" x="550" y="-981.5" font-family="Helvetica,sans-Serif" font-size="10.00">precice::utils::IntraComm</text>
<text text-anchor="middle" x="612" y="-970.5" font-family="Helvetica,sans-Serif" font-size="10.00">::isParallel</text>
</a>
</g>
</g>
<!-- Node1&#45;&gt;Node4 -->
<g id="edge41_Node000001_Node000004" class="edge">
<title>Node1&#45;&gt;Node4</title>
<g id="a_edge41_Node000001_Node000004"><a xlink:title=" ">
<path fill="none" stroke="#63b8ff" d="M65.61,-493.24C78.98,-574.19 139.77,-870.07 328,-984.5 397.31,-1026.64 494.9,-1011.94 555.48,-996.18"/>
<polygon fill="#63b8ff" stroke="#63b8ff" points="556.5,-999.54 565.24,-993.55 554.67,-992.78 556.5,-999.54"/>
</a>
</g>
</g>
<!-- Node5 -->
<g id="Node000005" class="node">
<title>Node5</title>
<g id="a_Node000005"><a xlink:href="classprecice_1_1acceleration_1_1impl_1_1SVDFactorization.html#a480e6088ab95c7615d3c8353b3b344da" target="_top" xlink:title=": returns the truncation threshold for the SVD">
<polygon fill="white" stroke="#666666" points="292,-382 159,-382 159,-341 292,-341 292,-382"/>
<text text-anchor="start" x="167" y="-370" font-family="Helvetica,sans-Serif" font-size="10.00">precice::acceleration</text>
<text text-anchor="start" x="167" y="-359" font-family="Helvetica,sans-Serif" font-size="10.00">::impl::SVDFactorization</text>
<text text-anchor="middle" x="225.5" y="-348" font-family="Helvetica,sans-Serif" font-size="10.00">::getThreshold</text>
</a>
</g>
</g>
<!-- Node1&#45;&gt;Node5 -->
<g id="edge5_Node000001_Node000005" class="edge">
<title>Node1&#45;&gt;Node5</title>
<g id="a_edge5_Node000001_Node000005"><a xlink:title=" ">
<path fill="none" stroke="#63b8ff" d="M86.2,-451.9C105.22,-435.86 132.94,-413.53 159,-396.5 163.91,-393.29 169.14,-390.12 174.43,-387.07"/>
<polygon fill="#63b8ff" stroke="#63b8ff" points="176.32,-390.02 183.32,-382.07 172.89,-383.92 176.32,-390.02"/>
</a>
</g>
</g>
<!-- Node6 -->
<g id="Node000006" class="node">
<title>Node6</title>
<g id="a_Node000006"><a xlink:href="classprecice_1_1acceleration_1_1BaseQNAcceleration.html#a9a175b133c22571e072eb0264e13932c" target="_top" xlink:title="Initializes the acceleration.">
<polygon fill="white" stroke="#666666" points="286.5,-518 164.5,-518 164.5,-477 286.5,-477 286.5,-518"/>
<text text-anchor="start" x="172.5" y="-506" font-family="Helvetica,sans-Serif" font-size="10.00">precice::acceleration</text>
<text text-anchor="start" x="172.5" y="-495" font-family="Helvetica,sans-Serif" font-size="10.00">::BaseQNAcceleration</text>
<text text-anchor="middle" x="225.5" y="-484" font-family="Helvetica,sans-Serif" font-size="10.00">::initialize</text>
</a>
</g>
</g>
<!-- Node1&#45;&gt;Node6 -->
<g id="edge6_Node000001_Node000006" class="edge">
<title>Node1&#45;&gt;Node6</title>
<g id="a_edge6_Node000001_Node000006"><a xlink:title=" ">
<path fill="none" stroke="#63b8ff" d="M123.28,-481.88C133.49,-483.46 144.15,-485.1 154.57,-486.71"/>
<polygon fill="#63b8ff" stroke="#63b8ff" points="154.04,-490.17 164.45,-488.23 155.1,-483.25 154.04,-490.17"/>
</a>
</g>
</g>
<!-- Node23 -->
<g id="Node000023" class="node">
<title>Node23</title>
<g id="a_Node000023"><a xlink:href="classprecice_1_1utils_1_1IntraComm.html#a3e69605ac1a3f9f8c82471ba52624f5d" target="_top" xlink:title="True if this process is running the primary rank.">
<polygon fill="white" stroke="#666666" points="476.5,-67.5 336.5,-67.5 336.5,-37.5 476.5,-37.5 476.5,-67.5"/>
<text text-anchor="start" x="344.5" y="-55.5" font-family="Helvetica,sans-Serif" font-size="10.00">precice::utils::IntraComm</text>
<text text-anchor="middle" x="406.5" y="-44.5" font-family="Helvetica,sans-Serif" font-size="10.00">::isPrimary</text>
</a>
</g>
</g>
<!-- Node1&#45;&gt;Node23 -->
<g id="edge42_Node000001_Node000023" class="edge">
<title>Node1&#45;&gt;Node23</title>
<g id="a_edge42_Node000001_Node000023"><a xlink:title=" ">
<path fill="none" stroke="#63b8ff" d="M123.12,-467.8C183.35,-461.78 269.85,-449.06 292,-424.5 396.14,-309.03 229.41,-196.74 328,-76.5 328.61,-75.76 329.23,-75.05 329.88,-74.35"/>
<polygon fill="#63b8ff" stroke="#63b8ff" points="332.29,-76.9 337.55,-67.7 327.7,-71.61 332.29,-76.9"/>
</a>
</g>
</g>
<!-- Node25 -->
<g id="Node000025" class="node">
<title>Node25</title>
<g id="a_Node000025"><a target="_parent" xlink:href="http://en.cppreference.com/w/cpp/container/deque/push_front.html#" xlink:title=" ">
<polygon fill="white" stroke="#666666" points="469,-19 344,-19 344,0 469,0 469,-19"/>
<text text-anchor="middle" x="406.5" y="-7" font-family="Helvetica,sans-Serif" font-size="10.00">std::deque::push_front</text>
</a>
</g>
</g>
<!-- Node1&#45;&gt;Node25 -->
<g id="edge43_Node000001_Node000025" class="edge">
<title>Node1&#45;&gt;Node25</title>
<g id="a_edge43_Node000001_Node000025"><a xlink:title=" ">
<path fill="none" stroke="#63b8ff" d="M99.26,-451.92C116.93,-442.63 138.65,-432.06 159,-424.5 216.19,-403.24 252.24,-436.78 292,-390.5 397.37,-267.87 222.03,-150.61 328,-28.5 330.04,-26.15 332.33,-24.06 334.79,-22.21"/>
<polygon fill="#63b8ff" stroke="#63b8ff" points="337.02,-24.95 343.78,-16.8 333.41,-18.96 337.02,-24.95"/>
</a>
</g>
</g>
<!-- Node31 -->
<g id="Node000031" class="node">
<title>Node31</title>
<g id="a_Node000031"><a xlink:href="classprecice_1_1acceleration_1_1impl_1_1SVDFactorization.html#a40ba118eed3cf9db0b1d271d2867ba34" target="_top" xlink:title=": initializes the updated SVD factorization, i.e., sets the object for parallel matrix&#45;matrix operati...">
<polygon fill="white" stroke="#666666" points="292,-323 159,-323 159,-282 292,-282 292,-323"/>
<text text-anchor="start" x="167" y="-311" font-family="Helvetica,sans-Serif" font-size="10.00">precice::acceleration</text>
<text text-anchor="start" x="167" y="-300" font-family="Helvetica,sans-Serif" font-size="10.00">::impl::SVDFactorization</text>
<text text-anchor="middle" x="225.5" y="-289" font-family="Helvetica,sans-Serif" font-size="10.00">::initialize</text>
</a>
</g>
</g>
<!-- Node1&#45;&gt;Node31 -->
<g id="edge40_Node000001_Node000031" class="edge">
<title>Node1&#45;&gt;Node31</title>
<g id="a_edge40_Node000001_Node000031"><a xlink:title=" ">
<path fill="none" stroke="#63b8ff" d="M72.11,-451.62C86.92,-421.48 117.95,-365.64 159,-331.5 160.17,-330.53 161.37,-329.59 162.6,-328.67"/>
<polygon fill="#63b8ff" stroke="#63b8ff" points="164.74,-331.45 171.14,-323 160.87,-325.62 164.74,-331.45"/>
</a>
</g>
</g>
<!-- Node3&#45;&gt;Node2 -->
<g id="edge3_Node000003_Node000002" class="edge">
<title>Node3&#45;&gt;Node2</title>
<g id="a_edge3_Node000003_Node000002"><a xlink:title=" ">
<path fill="none" stroke="#63b8ff" d="M467.73,-1083.1C494.65,-1079.79 526.24,-1075.91 552.9,-1072.64"/>
<polygon fill="#63b8ff" stroke="#63b8ff" points="553.36,-1076.11 562.86,-1071.41 552.51,-1069.16 553.36,-1076.11"/>
</a>
</g>
</g>
<!-- Node3&#45;&gt;Node4 -->
<g id="edge4_Node000003_Node000004" class="edge">
<title>Node3&#45;&gt;Node4</title>
<g id="a_edge4_Node000003_Node000004"><a xlink:title=" ">
<path fill="none" stroke="#63b8ff" d="M444.83,-1069.96C481.85,-1049.58 538.2,-1018.57 574.82,-998.41"/>
<polygon fill="#63b8ff" stroke="#63b8ff" points="576.61,-1001.42 583.68,-993.54 573.23,-995.29 576.61,-1001.42"/>
</a>
</g>
</g>
<!-- Node6&#45;&gt;Node2 -->
<g id="edge10_Node000006_Node000002" class="edge">
<title>Node6&#45;&gt;Node2</title>
<g id="a_edge10_Node000006_Node000002"><a xlink:title=" ">
<path fill="none" stroke="#63b8ff" d="M228.01,-518.12C234.53,-601.74 262.96,-914.51 328,-984.5 385.95,-1046.86 488.32,-1062.36 552.76,-1065.58"/>
<polygon fill="#63b8ff" stroke="#63b8ff" points="552.62,-1069.08 562.76,-1066 552.91,-1062.09 552.62,-1069.08"/>
</a>
</g>
</g>
<!-- Node6&#45;&gt;Node4 -->
<g id="edge31_Node000006_Node000004" class="edge">
<title>Node6&#45;&gt;Node4</title>
<g id="a_edge31_Node000006_Node000004"><a xlink:title=" ">
<path fill="none" stroke="#63b8ff" d="M229.26,-518.31C239.24,-590.45 275.61,-828.33 328,-881.5 378.86,-933.12 416.58,-901.63 485,-925.5 513.48,-935.44 544.75,-948.58 569.01,-959.28"/>
<polygon fill="#63b8ff" stroke="#63b8ff" points="567.72,-962.54 578.28,-963.41 570.56,-956.14 567.72,-962.54"/>
</a>
</g>
</g>
<!-- Node7 -->
<g id="Node000007" class="node">
<title>Node7</title>
<g id="a_Node000007"><a target="_parent" xlink:href="http://en.cppreference.com/w/cpp/algorithm/accumulate.html#" xlink:title=" ">
<polygon fill="white" stroke="#666666" points="454,-216 359,-216 359,-197 454,-197 454,-216"/>
<text text-anchor="middle" x="406.5" y="-204" font-family="Helvetica,sans-Serif" font-size="10.00">std::accumulate</text>
</a>
</g>
</g>
<!-- Node6&#45;&gt;Node7 -->
<g id="edge7_Node000006_Node000007" class="edge">
<title>Node6&#45;&gt;Node7</title>
<g id="a_edge7_Node000006_Node000007"><a xlink:title=" ">
<path fill="none" stroke="#63b8ff" d="M277.3,-476.91C282.94,-472.85 288.06,-468.08 292,-462.5 353.73,-375.13 255.36,-303.04 328,-224.5 333.67,-218.37 340.98,-214.13 348.84,-211.24"/>
<polygon fill="#63b8ff" stroke="#63b8ff" points="350.04,-214.53 358.63,-208.33 348.05,-207.82 350.04,-214.53"/>
</a>
</g>
</g>
<!-- Node8 -->
<g id="Node000008" class="node">
<title>Node8</title>
<g id="a_Node000008"><a target="_parent" xlink:href="http://en.cppreference.com/w/cpp/algorithm/all_any_none_of.html#" xlink:title=" ">
<polygon fill="white" stroke="#666666" points="442,-179 371,-179 371,-160 442,-160 442,-179"/>
<text text-anchor="middle" x="406.5" y="-167" font-family="Helvetica,sans-Serif" font-size="10.00">std::any_of</text>
</a>
</g>
</g>
<!-- Node6&#45;&gt;Node8 -->
<g id="edge8_Node000006_Node000008" class="edge">
<title>Node6&#45;&gt;Node8</title>
<g id="a_edge8_Node000006_Node000008"><a xlink:title=" ">
<path fill="none" stroke="#63b8ff" d="M277.41,-476.98C283.03,-472.91 288.11,-468.12 292,-462.5 362.12,-361.12 245.21,-278.83 328,-187.5 336.41,-178.23 348.57,-173.26 360.79,-170.72"/>
<polygon fill="#63b8ff" stroke="#63b8ff" points="361.64,-174.13 370.97,-169.11 360.55,-167.21 361.64,-174.13"/>
</a>
</g>
</g>
<!-- Node9 -->
<g id="Node000009" class="node">
<title>Node9</title>
<g id="a_Node000009"><a target="_parent" xlink:href="http://en.cppreference.com/w/cpp/container/map/at.html#" xlink:title=" ">
<polygon fill="white" stroke="#666666" points="444,-142 369,-142 369,-123 444,-123 444,-142"/>
<text text-anchor="middle" x="406.5" y="-130" font-family="Helvetica,sans-Serif" font-size="10.00">std::map::at</text>
</a>
</g>
</g>
<!-- Node6&#45;&gt;Node9 -->
<g id="edge9_Node000006_Node000009" class="edge">
<title>Node6&#45;&gt;Node9</title>
<g id="a_edge9_Node000006_Node000009"><a xlink:title=" ">
<path fill="none" stroke="#63b8ff" d="M277.81,-476.81C283.29,-472.78 288.23,-468.04 292,-462.5 370.52,-347.09 235.05,-254.63 328,-150.5 335.9,-141.65 347.21,-136.72 358.77,-134.06"/>
<polygon fill="#63b8ff" stroke="#63b8ff" points="359.66,-137.46 368.9,-132.27 358.45,-130.56 359.66,-137.46"/>
</a>
</g>
</g>
<!-- Node10 -->
<g id="Node000010" class="node">
<title>Node10</title>
<g id="a_Node000010"><a target="_parent" xlink:href="http://en.cppreference.com/w/cpp/iterator/back_inserter.html#" xlink:title=" ">
<polygon fill="white" stroke="#666666" points="458.5,-105 354.5,-105 354.5,-86 458.5,-86 458.5,-105"/>
<text text-anchor="middle" x="406.5" y="-93" font-family="Helvetica,sans-Serif" font-size="10.00">std::back_inserter</text>
</a>
</g>
</g>
<!-- Node6&#45;&gt;Node10 -->
<g id="edge11_Node000006_Node000010" class="edge">
<title>Node6&#45;&gt;Node10</title>
<g id="a_edge11_Node000006_Node000010"><a xlink:title=" ">
<path fill="none" stroke="#63b8ff" d="M277.87,-476.85C283.34,-472.81 288.26,-468.07 292,-462.5 335.47,-397.78 276.43,-171.98 328,-113.5 332.6,-108.28 338.4,-104.42 344.74,-101.58"/>
<polygon fill="#63b8ff" stroke="#63b8ff" points="346.11,-104.8 354.33,-98.12 343.74,-98.22 346.11,-104.8"/>
</a>
</g>
</g>
<!-- Node11 -->
<g id="Node000011" class="node">
<title>Node11</title>
<g id="a_Node000011"><a target="_parent" xlink:href="http://en.cppreference.com/w/cpp/container/vector/begin.html#" xlink:title=" ">
<polygon fill="white" stroke="#666666" points="840,-868 739,-868 739,-849 840,-849 840,-868"/>
<text text-anchor="middle" x="789.5" y="-856" font-family="Helvetica,sans-Serif" font-size="10.00">std::vector::begin</text>
</a>
</g>
</g>
<!-- Node6&#45;&gt;Node11 -->
<g id="edge12_Node000006_Node000011" class="edge">
<title>Node6&#45;&gt;Node11</title>
<g id="a_edge12_Node000006_Node000011"><a xlink:title=" ">
<path fill="none" stroke="#63b8ff" d="M225.58,-518.37C224.82,-576.7 232.54,-740.7 328,-816.5 388.35,-864.42 617.87,-858.97 728.36,-857.1"/>
<polygon fill="#63b8ff" stroke="#63b8ff" points="728.73,-860.6 738.67,-856.94 728.61,-853.6 728.73,-860.6"/>
</a>
</g>
</g>
<!-- Node6&#45;&gt;Node11 -->
<g id="edge14_Node000006_Node000011" class="edge">
<title>Node6&#45;&gt;Node11</title>
<g id="a_edge14_Node000006_Node000011"><a xlink:title=" ">
<path fill="none" stroke="#63b8ff" d="M225.74,-518C224.28,-578.45 227.87,-754.99 328,-834.5 388.41,-882.47 618.33,-876.96 728.69,-867.45"/>
<polygon fill="#63b8ff" stroke="#63b8ff" points="729.02,-870.93 738.67,-866.54 728.39,-863.96 729.02,-870.93"/>
</a>
</g>
</g>
<!-- Node12 -->
<g id="Node000012" class="node">
<title>Node12</title>
<g id="a_Node000012"><a target="_parent" xlink:href="http://en.cppreference.com/w/cpp/container/map/begin.html#" xlink:title=" ">
<polygon fill="white" stroke="#666666" points="455.5,-735 357.5,-735 357.5,-716 455.5,-716 455.5,-735"/>
<text text-anchor="middle" x="406.5" y="-723" font-family="Helvetica,sans-Serif" font-size="10.00">std::map::cbegin</text>
</a>
</g>
</g>
<!-- Node6&#45;&gt;Node12 -->
<g id="edge13_Node000006_Node000012" class="edge">
<title>Node6&#45;&gt;Node12</title>
<g id="a_edge13_Node000006_Node000012"><a xlink:title=" ">
<path fill="none" stroke="#63b8ff" d="M230.41,-518.05C239.54,-560.21 266.35,-656.69 328,-706.5 333.78,-711.17 340.54,-714.72 347.61,-717.4"/>
<polygon fill="#63b8ff" stroke="#63b8ff" points="346.8,-720.82 357.39,-720.57 348.95,-714.16 346.8,-720.82"/>
</a>
</g>
</g>
<!-- Node13 -->
<g id="Node000013" class="node">
<title>Node13</title>
<g id="a_Node000013"><a target="_parent" xlink:href="http://en.cppreference.com/w/cpp/container/map/end.html#" xlink:title=" ">
<polygon fill="white" stroke="#666666" points="451,-698 362,-698 362,-679 451,-679 451,-698"/>
<text text-anchor="middle" x="406.5" y="-686" font-family="Helvetica,sans-Serif" font-size="10.00">std::map::cend</text>
</a>
</g>
</g>
<!-- Node6&#45;&gt;Node13 -->
<g id="edge15_Node000006_Node000013" class="edge">
<title>Node6&#45;&gt;Node13</title>
<g id="a_edge15_Node000006_Node000013"><a xlink:title=" ">
<path fill="none" stroke="#63b8ff" d="M232.72,-518.07C244.82,-554.5 275.12,-630.21 328,-669.5 335.11,-674.78 343.5,-678.61 352.09,-681.38"/>
<polygon fill="#63b8ff" stroke="#63b8ff" points="351.25,-684.78 361.82,-684.09 353.12,-678.04 351.25,-684.78"/>
</a>
</g>
</g>
<!-- Node14 -->
<g id="Node000014" class="node">
<title>Node14</title>
<g id="a_Node000014"><a target="_parent" xlink:href="http://en.cppreference.com/w/cpp/container/vector/end.html#" xlink:title=" ">
<polygon fill="white" stroke="#666666" points="838.5,-507 740.5,-507 740.5,-488 838.5,-488 838.5,-507"/>
<text text-anchor="middle" x="789.5" y="-495" font-family="Helvetica,sans-Serif" font-size="10.00">std::vector::cend</text>
</a>
</g>
</g>
<!-- Node6&#45;&gt;Node14 -->
<g id="edge16_Node000006_Node000014" class="edge">
<title>Node6&#45;&gt;Node14</title>
<g id="a_edge16_Node000006_Node000014"><a xlink:title=" ">
<path fill="none" stroke="#63b8ff" d="M286.64,-493.13C395.27,-489.94 622.86,-489.96 730.16,-493.18"/>
<polygon fill="#63b8ff" stroke="#63b8ff" points="730.05,-496.68 740.16,-493.51 730.28,-489.69 730.05,-496.68"/>
</a>
</g>
</g>
<!-- Node6&#45;&gt;Node14 -->
<g id="edge24_Node000006_Node000014" class="edge">
<title>Node6&#45;&gt;Node14</title>
<g id="a_edge24_Node000006_Node000014"><a xlink:title=" ">
<path fill="none" stroke="#63b8ff" d="M286.64,-501.87C395.27,-505.06 622.86,-505.04 730.16,-501.82"/>
<polygon fill="#63b8ff" stroke="#63b8ff" points="730.28,-505.31 740.16,-501.49 730.05,-498.32 730.28,-505.31"/>
</a>
</g>
</g>
<!-- Node15 -->
<g id="Node000015" class="node">
<title>Node15</title>
<g id="a_Node000015"><a xlink:href="classprecice_1_1acceleration_1_1Acceleration.html#a141786be729bae2aeba7760629f4e634" target="_top" xlink:title="Checks if all dataIDs are contained in cplData.">
<polygon fill="white" stroke="#666666" points="485,-783.5 328,-783.5 328,-753.5 485,-753.5 485,-783.5"/>
<text text-anchor="start" x="336" y="-771.5" font-family="Helvetica,sans-Serif" font-size="10.00">precice::acceleration</text>
<text text-anchor="middle" x="406.5" y="-760.5" font-family="Helvetica,sans-Serif" font-size="10.00">::Acceleration::checkDataIDs</text>
</a>
</g>
</g>
<!-- Node6&#45;&gt;Node15 -->
<g id="edge17_Node000006_Node000015" class="edge">
<title>Node6&#45;&gt;Node15</title>
<g id="a_edge17_Node000006_Node000015"><a xlink:title=" ">
<path fill="none" stroke="#63b8ff" d="M229.15,-518.31C236.24,-565.35 259.95,-680.65 328,-743.5 329.69,-745.06 331.47,-746.52 333.34,-747.89"/>
<polygon fill="#63b8ff" stroke="#63b8ff" points="331.63,-750.95 341.96,-753.34 335.37,-745.04 331.63,-750.95"/>
</a>
</g>
</g>
<!-- Node16 -->
<g id="Node000016" class="node">
<title>Node16</title>
<g id="a_Node000016"><a xlink:href="namespaceprecice_1_1utils.html#a434eabaa71f97a31726281a4df77bbcf" target="_top" xlink:title="Returns true, if given element is in vector, otherwise false.">
<polygon fill="white" stroke="#666666" points="678.5,-821 545.5,-821 545.5,-802 678.5,-802 678.5,-821"/>
<text text-anchor="middle" x="612" y="-809" font-family="Helvetica,sans-Serif" font-size="10.00">precice::utils::contained</text>
</a>
</g>
</g>
<!-- Node6&#45;&gt;Node16 -->
<g id="edge23_Node000006_Node000016" class="edge">
<title>Node6&#45;&gt;Node16</title>
<g id="a_edge23_Node000006_Node000016"><a xlink:title=" ">
<path fill="none" stroke="#63b8ff" d="M226.45,-518.3C227.55,-573.54 238.97,-724.36 328,-792.5 395.83,-844.41 501.68,-834.7 562.87,-823.04"/>
<polygon fill="#63b8ff" stroke="#63b8ff" points="563.91,-826.4 573.03,-821.01 562.54,-819.53 563.91,-826.4"/>
</a>
</g>
</g>
<!-- Node19 -->
<g id="Node000019" class="node">
<title>Node19</title>
<g id="a_Node000019"><a xlink:href="classprecice_1_1utils_1_1IntraComm.html#ad45fca6e5adf1b476ddb74f3f53e750c" target="_top" xlink:title="Intra&#45;participant communication.">
<polygon fill="white" stroke="#666666" points="476.5,-660.5 336.5,-660.5 336.5,-630.5 476.5,-630.5 476.5,-660.5"/>
<text text-anchor="start" x="344.5" y="-648.5" font-family="Helvetica,sans-Serif" font-size="10.00">precice::utils::IntraComm</text>
<text text-anchor="middle" x="406.5" y="-637.5" font-family="Helvetica,sans-Serif" font-size="10.00">::getCommunication</text>
</a>
</g>
</g>
<!-- Node6&#45;&gt;Node19 -->
<g id="edge25_Node000006_Node000019" class="edge">
<title>Node6&#45;&gt;Node19</title>
<g id="a_edge25_Node000006_Node000019"><a xlink:title=" ">
<path fill="none" stroke="#63b8ff" d="M238.14,-518.25C254.64,-545.8 287.38,-594.15 328,-621.5 330.28,-623.03 332.66,-624.47 335.11,-625.82"/>
<polygon fill="#63b8ff" stroke="#63b8ff" points="333.74,-629.05 344.26,-630.33 336.84,-622.77 333.74,-629.05"/>
</a>
</g>
</g>
<!-- Node20 -->
<g id="Node000020" class="node">
<title>Node20</title>
<g id="a_Node000020"><a xlink:href="classprecice_1_1acceleration_1_1BaseQNAcceleration.html#a086b3c4288fb1438a7172ef24d20fff0" target="_top" xlink:title=" ">
<polygon fill="white" stroke="#666666" points="482,-975 331,-975 331,-934 482,-934 482,-975"/>
<text text-anchor="start" x="339" y="-963" font-family="Helvetica,sans-Serif" font-size="10.00">precice::acceleration</text>
<text text-anchor="start" x="339" y="-952" font-family="Helvetica,sans-Serif" font-size="10.00">::BaseQNAcceleration</text>
<text text-anchor="middle" x="406.5" y="-941" font-family="Helvetica,sans-Serif" font-size="10.00">::getPrimaryLSSystemRows</text>
</a>
</g>
</g>
<!-- Node6&#45;&gt;Node20 -->
<g id="edge26_Node000006_Node000020" class="edge">
<title>Node6&#45;&gt;Node20</title>
<g id="a_edge26_Node000006_Node000020"><a xlink:title=" ">
<path fill="none" stroke="#63b8ff" d="M229.05,-518.19C238.77,-594.1 275.57,-856.15 328,-919.5 330.45,-922.46 333.2,-925.18 336.17,-927.68"/>
<polygon fill="#63b8ff" stroke="#63b8ff" points="334.35,-930.68 344.48,-933.79 338.5,-925.04 334.35,-930.68"/>
</a>
</g>
</g>
<!-- Node21 -->
<g id="Node000021" class="node">
<title>Node21</title>
<g id="a_Node000021"><a xlink:href="classprecice_1_1utils_1_1IntraComm.html#a2c2aa5e2fd6cc26797b7fdee0b0b25ac" target="_top" xlink:title="Current rank.">
<polygon fill="white" stroke="#666666" points="476.5,-612.5 336.5,-612.5 336.5,-582.5 476.5,-582.5 476.5,-612.5"/>
<text text-anchor="start" x="344.5" y="-600.5" font-family="Helvetica,sans-Serif" font-size="10.00">precice::utils::IntraComm</text>
<text text-anchor="middle" x="406.5" y="-589.5" font-family="Helvetica,sans-Serif" font-size="10.00">::getRank</text>
</a>
</g>
</g>
<!-- Node6&#45;&gt;Node21 -->
<g id="edge29_Node000006_Node000021" class="edge">
<title>Node6&#45;&gt;Node21</title>
<g id="a_edge29_Node000006_Node000021"><a xlink:title=" ">
<path fill="none" stroke="#63b8ff" d="M249.16,-518.08C268.79,-534.99 298.58,-558.5 328,-573.5 331.57,-575.32 335.3,-577.03 339.12,-578.64"/>
<polygon fill="#63b8ff" stroke="#63b8ff" points="338.14,-582.01 348.72,-582.41 340.69,-575.5 338.14,-582.01"/>
</a>
</g>
</g>
<!-- Node22 -->
<g id="Node000022" class="node">
<title>Node22</title>
<g id="a_Node000022"><a xlink:href="classprecice_1_1utils_1_1IntraComm.html#a288038e87868e4078aed49436aa20264" target="_top" xlink:title="Number of ranks. This includes ranks from both participants, e.g. minimal size is 2.">
<polygon fill="white" stroke="#666666" points="476.5,-564.5 336.5,-564.5 336.5,-534.5 476.5,-534.5 476.5,-564.5"/>
<text text-anchor="start" x="344.5" y="-552.5" font-family="Helvetica,sans-Serif" font-size="10.00">precice::utils::IntraComm</text>
<text text-anchor="middle" x="406.5" y="-541.5" font-family="Helvetica,sans-Serif" font-size="10.00">::getSize</text>
</a>
</g>
</g>
<!-- Node6&#45;&gt;Node22 -->
<g id="edge30_Node000006_Node000022" class="edge">
<title>Node6&#45;&gt;Node22</title>
<g id="a_edge30_Node000006_Node000022"><a xlink:title=" ">
<path fill="none" stroke="#63b8ff" d="M286.6,-514.96C305.03,-520.31 325.32,-526.21 343.85,-531.59"/>
<polygon fill="#63b8ff" stroke="#63b8ff" points="343.06,-535.01 353.64,-534.43 345.01,-528.28 343.06,-535.01"/>
</a>
</g>
</g>
<!-- Node6&#45;&gt;Node23 -->
<g id="edge32_Node000006_Node000023" class="edge">
<title>Node6&#45;&gt;Node23</title>
<g id="a_edge32_Node000006_Node000023"><a xlink:title=" ">
<path fill="none" stroke="#63b8ff" d="M277.92,-476.88C283.38,-472.84 288.29,-468.08 292,-462.5 339.68,-390.75 273.71,-143.39 328,-76.5 328.6,-75.76 329.23,-75.04 329.87,-74.34"/>
<polygon fill="#63b8ff" stroke="#63b8ff" points="332.28,-76.89 337.51,-67.67 327.68,-71.61 332.28,-76.89"/>
</a>
</g>
</g>
<!-- Node24 -->
<g id="Node000024" class="node">
<title>Node24</title>
<g id="a_Node000024"><a target="_parent" xlink:href="http://en.cppreference.com/w/cpp/container/vector/push_back.html#" xlink:title=" ">
<polygon fill="white" stroke="#666666" points="469.5,-460 343.5,-460 343.5,-441 469.5,-441 469.5,-460"/>
<text text-anchor="middle" x="406.5" y="-448" font-family="Helvetica,sans-Serif" font-size="10.00">std::vector::push_back</text>
</a>
</g>
</g>
<!-- Node6&#45;&gt;Node24 -->
<g id="edge33_Node000006_Node000024" class="edge">
<title>Node6&#45;&gt;Node24</title>
<g id="a_edge33_Node000006_Node000024"><a xlink:title=" ">
<path fill="none" stroke="#63b8ff" d="M286.6,-481.72C310.38,-475.47 337.28,-468.41 359.47,-462.59"/>
<polygon fill="#63b8ff" stroke="#63b8ff" points="360.52,-465.93 369.3,-460 358.74,-459.16 360.52,-465.93"/>
</a>
</g>
</g>
<!-- Node6&#45;&gt;Node25 -->
<g id="edge34_Node000006_Node000025" class="edge">
<title>Node6&#45;&gt;Node25</title>
<g id="a_edge34_Node000006_Node000025"><a xlink:title=" ">
<path fill="none" stroke="#63b8ff" d="M251.72,-476.91C266.15,-463.58 283.09,-444.95 292,-424.5 327.3,-343.5 270.37,-95.48 328,-28.5 330.03,-26.14 332.31,-24.04 334.76,-22.19"/>
<polygon fill="#63b8ff" stroke="#63b8ff" points="336.99,-24.93 343.74,-16.76 333.37,-18.94 336.99,-24.93"/>
</a>
</g>
</g>
<!-- Node26 -->
<g id="Node000026" class="node">
<title>Node26</title>
<g id="a_Node000026"><a target="_parent" xlink:href="http://en.cppreference.com/w/cpp/container/vector/resize.html#" xlink:title=" ">
<polygon fill="white" stroke="#666666" points="458.5,-423 354.5,-423 354.5,-404 458.5,-404 458.5,-423"/>
<text text-anchor="middle" x="406.5" y="-411" font-family="Helvetica,sans-Serif" font-size="10.00">std::vector::resize</text>
</a>
</g>
</g>
<!-- Node6&#45;&gt;Node26 -->
<g id="edge35_Node000006_Node000026" class="edge">
<title>Node6&#45;&gt;Node26</title>
<g id="a_edge35_Node000006_Node000026"><a xlink:title=" ">
<path fill="none" stroke="#63b8ff" d="M268.2,-477C276.28,-472.53 284.56,-467.6 292,-462.5 309.42,-450.56 309.17,-441.05 328,-431.5 333.21,-428.86 338.81,-426.6 344.53,-424.66"/>
<polygon fill="#63b8ff" stroke="#63b8ff" points="345.69,-427.97 354.23,-421.71 343.65,-421.28 345.69,-427.97"/>
</a>
</g>
</g>
<!-- Node27 -->
<g id="Node000027" class="node">
<title>Node27</title>
<g id="a_Node000027"><a xlink:href="classprecice_1_1acceleration_1_1impl_1_1QRFactorization.html#a13169fb9aa29fb2493c5dab787246054" target="_top" xlink:title=" ">
<polygon fill="white" stroke="#666666" points="470,-386 343,-386 343,-345 470,-345 470,-386"/>
<text text-anchor="start" x="351" y="-374" font-family="Helvetica,sans-Serif" font-size="10.00">precice::acceleration</text>
<text text-anchor="start" x="351" y="-363" font-family="Helvetica,sans-Serif" font-size="10.00">::impl::QRFactorization</text>
<text text-anchor="middle" x="406.5" y="-352" font-family="Helvetica,sans-Serif" font-size="10.00">::setGlobalRows</text>
</a>
</g>
</g>
<!-- Node6&#45;&gt;Node27 -->
<g id="edge36_Node000006_Node000027" class="edge">
<title>Node6&#45;&gt;Node27</title>
<g id="a_edge36_Node000006_Node000027"><a xlink:title=" ">
<path fill="none" stroke="#63b8ff" d="M273.63,-476.79C280.26,-472.65 286.63,-467.89 292,-462.5 316.13,-438.27 302.31,-417.07 328,-394.5 329.94,-392.8 331.98,-391.19 334.11,-389.68"/>
<polygon fill="#63b8ff" stroke="#63b8ff" points="336.09,-392.57 342.69,-384.28 332.36,-386.64 336.09,-392.57"/>
</a>
</g>
</g>
<!-- Node28 -->
<g id="Node000028" class="node">
<title>Node28</title>
<g id="a_Node000028"><a target="_parent" xlink:href="http://en.cppreference.com/w/cpp/container/map/size.html#" xlink:title=" ">
<polygon fill="white" stroke="#666666" points="449,-327 364,-327 364,-308 449,-308 449,-327"/>
<text text-anchor="middle" x="406.5" y="-315" font-family="Helvetica,sans-Serif" font-size="10.00">std::map::size</text>
</a>
</g>
</g>
<!-- Node6&#45;&gt;Node28 -->
<g id="edge37_Node000006_Node000028" class="edge">
<title>Node6&#45;&gt;Node28</title>
<g id="a_edge37_Node000006_Node000028"><a xlink:title=" ">
<path fill="none" stroke="#63b8ff" d="M276,-476.87C281.99,-472.79 287.55,-468.02 292,-462.5 328.81,-416.81 285.53,-375.98 328,-335.5 335.12,-328.71 344.29,-324.31 353.8,-321.48"/>
<polygon fill="#63b8ff" stroke="#63b8ff" points="354.87,-324.83 363.77,-319.08 353.23,-318.02 354.87,-324.83"/>
</a>
</g>
</g>
<!-- Node29 -->
<g id="Node000029" class="node">
<title>Node29</title>
<g id="a_Node000029"><a target="_parent" xlink:href="http://en.cppreference.com/w/cpp/container/vector/size.html#" xlink:title=" ">
<polygon fill="white" stroke="#666666" points="453.5,-290 359.5,-290 359.5,-271 453.5,-271 453.5,-290"/>
<text text-anchor="middle" x="406.5" y="-278" font-family="Helvetica,sans-Serif" font-size="10.00">std::vector::size</text>
</a>
</g>
</g>
<!-- Node6&#45;&gt;Node29 -->
<g id="edge38_Node000006_Node000029" class="edge">
<title>Node6&#45;&gt;Node29</title>
<g id="a_edge38_Node000006_Node000029"><a xlink:title=" ">
<path fill="none" stroke="#63b8ff" d="M276.64,-476.88C282.45,-472.82 287.8,-468.05 292,-462.5 337.05,-403.01 275.55,-351.59 328,-298.5 334,-292.43 341.62,-288.24 349.73,-285.37"/>
<polygon fill="#63b8ff" stroke="#63b8ff" points="350.76,-288.72 359.41,-282.59 348.83,-281.99 350.76,-288.72"/>
</a>
</g>
</g>
<!-- Node30 -->
<g id="Node000030" class="node">
<title>Node30</title>
<g id="a_Node000030"><a target="_parent" xlink:href="http://en.cppreference.com/w/cpp/algorithm/transform.html#" xlink:title=" ">
<polygon fill="white" stroke="#666666" points="449.5,-253 363.5,-253 363.5,-234 449.5,-234 449.5,-253"/>
<text text-anchor="middle" x="406.5" y="-241" font-family="Helvetica,sans-Serif" font-size="10.00">std::transform</text>
</a>
</g>
</g>
<!-- Node6&#45;&gt;Node30 -->
<g id="edge39_Node000006_Node000030" class="edge">
<title>Node6&#45;&gt;Node30</title>
<g id="a_edge39_Node000006_Node000030"><a xlink:title=" ">
<path fill="none" stroke="#63b8ff" d="M277.16,-476.81C282.82,-472.77 287.98,-468.03 292,-462.5 345.37,-389.09 265.48,-327.29 328,-261.5 334.78,-254.37 343.79,-249.81 353.26,-246.95"/>
<polygon fill="#63b8ff" stroke="#63b8ff" points="354.33,-250.29 363.23,-244.54 352.68,-243.48 354.33,-250.29"/>
</a>
</g>
</g>
<!-- Node15&#45;&gt;Node16 -->
<g id="edge18_Node000015_Node000016" class="edge">
<title>Node15&#45;&gt;Node16</title>
<g id="a_edge18_Node000015_Node000016"><a xlink:title=" ">
<path fill="none" stroke="#63b8ff" d="M478.64,-783.55C492.68,-786.52 507.3,-789.61 521,-792.5 532.24,-794.87 544.27,-797.41 555.75,-799.84"/>
<polygon fill="#63b8ff" stroke="#63b8ff" points="555.17,-803.29 565.68,-801.93 556.61,-796.44 555.17,-803.29"/>
</a>
</g>
</g>
<!-- Node18 -->
<g id="Node000018" class="node">
<title>Node18</title>
<g id="a_Node000018"><a xlink:href="classprecice_1_1acceleration_1_1Acceleration.html#a08262c833ce0dd114d6f8c9e4ab42a31" target="_top" xlink:title=" ">
<polygon fill="white" stroke="#666666" points="703,-783.5 521,-783.5 521,-753.5 703,-753.5 703,-783.5"/>
<text text-anchor="start" x="529" y="-771.5" font-family="Helvetica,sans-Serif" font-size="10.00">precice::acceleration</text>
<text text-anchor="middle" x="612" y="-760.5" font-family="Helvetica,sans-Serif" font-size="10.00">::Acceleration::getPrimaryDataIDs</text>
</a>
</g>
</g>
<!-- Node15&#45;&gt;Node18 -->
<g id="edge22_Node000015_Node000018" class="edge">
<title>Node15&#45;&gt;Node18</title>
<g id="a_edge22_Node000015_Node000018"><a xlink:title=" ">
<path fill="none" stroke="#63b8ff" d="M485.02,-768.5C493.41,-768.5 502.04,-768.5 510.66,-768.5"/>
<polygon fill="#63b8ff" stroke="#63b8ff" points="510.75,-772 520.75,-768.5 510.75,-765 510.75,-772"/>
</a>
</g>
</g>
<!-- Node16&#45;&gt;Node11 -->
<g id="edge19_Node000016_Node000011" class="edge">
<title>Node16&#45;&gt;Node11</title>
<g id="a_edge19_Node000016_Node000011"><a xlink:title=" ">
<path fill="none" stroke="#63b8ff" d="M648.92,-821.06C665.4,-825.45 685.19,-830.73 703,-835.5 716.13,-839.02 730.4,-842.85 743.45,-846.36"/>
<polygon fill="#63b8ff" stroke="#63b8ff" points="742.58,-849.75 753.15,-848.97 744.4,-842.99 742.58,-849.75"/>
</a>
</g>
</g>
<!-- Node16&#45;&gt;Node14 -->
<g id="edge20_Node000016_Node000014" class="edge">
<title>Node16&#45;&gt;Node14</title>
<g id="a_edge20_Node000016_Node000014"><a xlink:title=" ">
<path fill="none" stroke="#63b8ff" d="M678.6,-806.45C687.59,-803.38 696.1,-798.91 703,-792.5 784,-717.29 789.88,-570.46 789.19,-517.31"/>
<polygon fill="#63b8ff" stroke="#63b8ff" points="792.69,-517.1 788.96,-507.19 785.69,-517.26 792.69,-517.1"/>
</a>
</g>
</g>
<!-- Node17 -->
<g id="Node000017" class="node">
<title>Node17</title>
<g id="a_Node000017"><a target="_parent" xlink:href="http://en.cppreference.com/w/cpp/algorithm/find.html#" xlink:title=" ">
<polygon fill="white" stroke="#666666" points="817.5,-821 761.5,-821 761.5,-802 817.5,-802 817.5,-821"/>
<text text-anchor="middle" x="789.5" y="-809" font-family="Helvetica,sans-Serif" font-size="10.00">std::find</text>
</a>
</g>
</g>
<!-- Node16&#45;&gt;Node17 -->
<g id="edge21_Node000016_Node000017" class="edge">
<title>Node16&#45;&gt;Node17</title>
<g id="a_edge21_Node000016_Node000017"><a xlink:title=" ">
<path fill="none" stroke="#63b8ff" d="M678.85,-811.5C703.31,-811.5 730.2,-811.5 751.23,-811.5"/>
<polygon fill="#63b8ff" stroke="#63b8ff" points="751.34,-815 761.34,-811.5 751.34,-808 751.34,-815"/>
</a>
</g>
</g>
<!-- Node20&#45;&gt;Node2 -->
<g id="edge27_Node000020_Node000002" class="edge">
<title>Node20&#45;&gt;Node2</title>
<g id="a_edge27_Node000020_Node000002"><a xlink:title=" ">
<path fill="none" stroke="#63b8ff" d="M445.3,-975.12C485.82,-997.22 549.09,-1031.73 584.57,-1051.09"/>
<polygon fill="#63b8ff" stroke="#63b8ff" points="582.93,-1054.18 593.39,-1055.89 586.28,-1048.03 582.93,-1054.18"/>
</a>
</g>
</g>
<!-- Node20&#45;&gt;Node4 -->
<g id="edge28_Node000020_Node000004" class="edge">
<title>Node20&#45;&gt;Node4</title>
<g id="a_edge28_Node000020_Node000004"><a xlink:title=" ">
<path fill="none" stroke="#63b8ff" d="M482.12,-963.3C498.28,-965.21 515.42,-967.23 531.75,-969.15"/>
<polygon fill="#63b8ff" stroke="#63b8ff" points="531.45,-972.64 541.79,-970.34 532.27,-965.69 531.45,-972.64"/>
</a>
</g>
</g>
</g>
</svg>
