<?xml version="1.0" encoding="UTF-8" standalone="no"?>
<!DOCTYPE svg PUBLIC "-//W3C//DTD SVG 1.1//EN"
 "http://www.w3.org/Graphics/SVG/1.1/DTD/svg11.dtd">
<!-- Generated by graphviz version 2.43.0 (0)
 -->
<!-- Title: src/acceleration/ConstantRelaxationAcceleration.hpp Pages: 1 -->
<svg width="692pt" height="117pt"
 viewBox="0.00 0.00 692.00 117.00" xmlns="http://www.w3.org/2000/svg" xmlns:xlink="http://www.w3.org/1999/xlink">
<g id="graph0" class="graph" transform="scale(1 1) rotate(0) translate(4 113)">
<title>src/acceleration/ConstantRelaxationAcceleration.hpp</title>
<polygon fill="white" stroke="transparent" points="-4,4 -4,-113 688,-113 688,4 -4,4"/>
<!-- Node1 -->
<g id="node1" class="node">
<title>Node1</title>
<g id="a_node1"><a xlink:title=" ">
<polygon fill="#bfbfbf" stroke="black" points="266.5,-78.5 266.5,-108.5 417.5,-108.5 417.5,-78.5 266.5,-78.5"/>
<text text-anchor="start" x="274.5" y="-96.5" font-family="Helvetica,sans-Serif" font-size="10.00">src/acceleration/Constant</text>
<text text-anchor="middle" x="342" y="-85.5" font-family="Helvetica,sans-Serif" font-size="10.00">RelaxationAcceleration.hpp</text>
</a>
</g>
</g>
<!-- Node2 -->
<g id="node2" class="node">
<title>Node2</title>
<g id="a_node2"><a xlink:href="AccelerationConfiguration_8cpp.html" target="_top" xlink:title=" ">
<polygon fill="white" stroke="black" points="0,-6 0,-36 166,-36 166,-6 0,-6"/>
<text text-anchor="start" x="8" y="-24" font-family="Helvetica,sans-Serif" font-size="10.00">src/acceleration/config</text>
<text text-anchor="middle" x="83" y="-13" font-family="Helvetica,sans-Serif" font-size="10.00">/AccelerationConfiguration.cpp</text>
</a>
</g>
</g>
<!-- Node1&#45;&gt;Node2 -->
<g id="edge1" class="edge">
<title>Node1&#45;&gt;Node2</title>
<path fill="none" stroke="midnightblue" d="M280.71,-75.82C236.29,-63.73 176.89,-47.56 134.83,-36.11"/>
<polygon fill="midnightblue" stroke="midnightblue" points="279.95,-79.24 290.52,-78.49 281.79,-72.48 279.95,-79.24"/>
</g>
<!-- Node3 -->
<g id="node3" class="node">
<title>Node3</title>
<g id="a_node3"><a xlink:href="ConstantRelaxationAcceleration_8cpp.html" target="_top" xlink:title=" ">
<polygon fill="white" stroke="black" points="184,-6 184,-36 334,-36 334,-6 184,-6"/>
<text text-anchor="start" x="192" y="-24" font-family="Helvetica,sans-Serif" font-size="10.00">src/acceleration/Constant</text>
<text text-anchor="middle" x="259" y="-13" font-family="Helvetica,sans-Serif" font-size="10.00">RelaxationAcceleration.cpp</text>
</a>
</g>
</g>
<!-- Node1&#45;&gt;Node3 -->
<g id="edge2" class="edge">
<title>Node1&#45;&gt;Node3</title>
<path fill="none" stroke="midnightblue" d="M317.23,-71.46C303.74,-60 287.42,-46.14 275.49,-36"/>
<polygon fill="midnightblue" stroke="midnightblue" points="315.32,-74.43 325.2,-78.23 319.85,-69.09 315.32,-74.43"/>
</g>
<!-- Node4 -->
<g id="node4" class="node">
<title>Node4</title>
<g id="a_node4"><a xlink:href="AccelerationSerialTest_8cpp.html" target="_top" xlink:title=" ">
<polygon fill="white" stroke="black" points="352,-6 352,-36 500,-36 500,-6 352,-6"/>
<text text-anchor="start" x="360" y="-24" font-family="Helvetica,sans-Serif" font-size="10.00">src/acceleration/test</text>
<text text-anchor="middle" x="426" y="-13" font-family="Helvetica,sans-Serif" font-size="10.00">/AccelerationSerialTest.cpp</text>
</a>
</g>
</g>
<!-- Node1&#45;&gt;Node4 -->
<g id="edge3" class="edge">
<title>Node1&#45;&gt;Node4</title>
<path fill="none" stroke="midnightblue" d="M366.68,-71.79C380.41,-60.27 397.13,-46.23 409.31,-36"/>
<polygon fill="midnightblue" stroke="midnightblue" points="364.41,-69.12 359,-78.23 368.91,-74.49 364.41,-69.12"/>
</g>
<!-- Node5 -->
<g id="node5" class="node">
<title>Node5</title>
<g id="a_node5"><a xlink:href="SerialImplicitCouplingSchemeTest_8cpp.html" target="_top" xlink:title=" ">
<polygon fill="white" stroke="black" points="518,-0.5 518,-41.5 684,-41.5 684,-0.5 518,-0.5"/>
<text text-anchor="start" x="526" y="-29.5" font-family="Helvetica,sans-Serif" font-size="10.00">src/cplscheme/tests</text>
<text text-anchor="start" x="526" y="-18.5" font-family="Helvetica,sans-Serif" font-size="10.00">/SerialImplicitCouplingScheme</text>
<text text-anchor="middle" x="601" y="-7.5" font-family="Helvetica,sans-Serif" font-size="10.00">Test.cpp</text>
</a>
</g>
</g>
<!-- Node1&#45;&gt;Node5 -->
<g id="edge4" class="edge">
<title>Node1&#45;&gt;Node5</title>
<path fill="none" stroke="midnightblue" d="M403.31,-75.81C441.02,-65.55 489.51,-52.35 529.02,-41.59"/>
<polygon fill="midnightblue" stroke="midnightblue" points="402.21,-72.48 393.48,-78.49 404.05,-79.24 402.21,-72.48"/>
</g>
</g>
</svg>
