<?xml version="1.0" encoding="UTF-8" standalone="no"?>
<!DOCTYPE svg PUBLIC "-//W3C//DTD SVG 1.1//EN"
 "http://www.w3.org/Graphics/SVG/1.1/DTD/svg11.dtd">
<!-- Generated by graphviz version 2.43.0 (0)
 -->
<!-- Title: src/precice/impl/DataContext.hpp Pages: 1 -->
<!--zoomable 374 -->
<svg id="main" version="1.1" xmlns="http://www.w3.org/2000/svg" xmlns:xlink="http://www.w3.org/1999/xlink" xml:space="preserve" onload="init(evt)">
<style type="text/css"><![CDATA[
.edge:hover path { stroke: red; }
.edge:hover polygon { stroke: red; fill: red; }
]]></style>
<script type="text/javascript"><![CDATA[
var edges = document.getElementsByTagName('g');
if (edges && edges.length) {
  for (var i=0;i<edges.length;i++) {
    if (edges[i].id.substr(0,4)=='edge') {
      edges[i].setAttribute('class','edge');
    }
  }
}
]]></script>
        <defs>
                <circle id="rim" cx="0" cy="0" r="7"/>
                <circle id="rim2" cx="0" cy="0" r="3.5"/>
                <g id="zoomPlus">
                        <use xlink:href="#rim" fill="#404040">
                                <set attributeName="fill" to="#808080" begin="zoomplus.mouseover" end="zoomplus.mouseout"/>
                        </use>
                        <path d="M-4,0h8M0,-4v8" fill="none" stroke="white" stroke-width="1.5" pointer-events="none"/>
                </g>
                <g id="zoomMin">
                        <use xlink:href="#rim" fill="#404040">
                                <set attributeName="fill" to="#808080" begin="zoomminus.mouseover" end="zoomminus.mouseout"/>
                        </use>
                        <path d="M-4,0h8" fill="none" stroke="white" stroke-width="1.5" pointer-events="none"/>
                </g>
                <g id="dirArrow">
                        <path fill="none" stroke="white" stroke-width="1.5" d="M0,-3.0v7 M-2.5,-0.5L0,-3.0L2.5,-0.5"/>
                </g>
               <g id="resetDef">
                       <use xlink:href="#rim2" fill="#404040">
                               <set attributeName="fill" to="#808080" begin="reset.mouseover" end="reset.mouseout"/>
                       </use>
               </g>
        </defs>

<script type="text/javascript">
var viewWidth = 2298;
var viewHeight = 374;
var sectionId = 'dynsection-1';
</script>
<script xlink:href="svgpan.js"/>
<svg id="graph" class="graph">
<g id="viewport">
<title>src/precice/impl/DataContext.hpp</title>
<polygon fill="white" stroke="transparent" points="-4,4 -4,-370 2294,-370 2294,4 -4,4"/>
<!-- Node1 -->
<g id="node1" class="node">
<title>Node1</title>
<g id="a_node1"><a xlink:title=" ">
<polygon fill="#bfbfbf" stroke="black" points="790,-346.5 790,-365.5 969,-365.5 969,-346.5 790,-346.5"/>
<text text-anchor="middle" x="879.5" y="-353.5" font-family="Helvetica,sans-Serif" font-size="10.00">src/precice/impl/DataContext.hpp</text>
</a>
</g>
</g>
<!-- Node2 -->
<g id="node2" class="node">
<title>Node2</title>
<g id="a_node2"><a xlink:href="DataContext_8cpp.html" target="_top" xlink:title=" ">
<polygon fill="white" stroke="black" points="470,-285 470,-304 649,-304 649,-285 470,-285"/>
<text text-anchor="middle" x="559.5" y="-292" font-family="Helvetica,sans-Serif" font-size="10.00">src/precice/impl/DataContext.cpp</text>
</a>
</g>
</g>
<!-- Node1&#45;&gt;Node2 -->
<g id="edge1" class="edge">
<title>Node1&#45;&gt;Node2</title>
<path fill="none" stroke="midnightblue" d="M823.66,-344.62C761.69,-333.09 662.85,-314.72 605.26,-304.01"/>
<polygon fill="midnightblue" stroke="midnightblue" points="823.18,-348.09 833.65,-346.48 824.46,-341.21 823.18,-348.09"/>
</g>
<!-- Node3 -->
<g id="node3" class="node">
<title>Node3</title>
<g id="a_node3"><a xlink:href="ReadDataContext_8hpp.html" target="_top" xlink:title=" ">
<polygon fill="white" stroke="black" points="807,-279.5 807,-309.5 952,-309.5 952,-279.5 807,-279.5"/>
<text text-anchor="start" x="815" y="-297.5" font-family="Helvetica,sans-Serif" font-size="10.00">src/precice/impl/ReadData</text>
<text text-anchor="middle" x="879.5" y="-286.5" font-family="Helvetica,sans-Serif" font-size="10.00">Context.hpp</text>
</a>
</g>
</g>
<!-- Node1&#45;&gt;Node3 -->
<g id="edge2" class="edge">
<title>Node1&#45;&gt;Node3</title>
<path fill="none" stroke="midnightblue" d="M879.5,-336.23C879.5,-327.59 879.5,-317.5 879.5,-309.52"/>
<polygon fill="midnightblue" stroke="midnightblue" points="876,-336.48 879.5,-346.48 883,-336.48 876,-336.48"/>
</g>
<!-- Node23 -->
<g id="node23" class="node">
<title>Node23</title>
<g id="a_node23"><a xlink:href="SolverInterfaceImpl_8hpp.html" target="_top" xlink:title=" ">
<polygon fill="white" stroke="black" points="592,-78.5 592,-108.5 763,-108.5 763,-78.5 592,-78.5"/>
<text text-anchor="start" x="600" y="-96.5" font-family="Helvetica,sans-Serif" font-size="10.00">src/precice/impl/SolverInterface</text>
<text text-anchor="middle" x="677.5" y="-85.5" font-family="Helvetica,sans-Serif" font-size="10.00">Impl.hpp</text>
</a>
</g>
</g>
<!-- Node1&#45;&gt;Node23 -->
<g id="edge30" class="edge">
<title>Node1&#45;&gt;Node23</title>
<path fill="none" stroke="midnightblue" d="M840.79,-343.08C797.58,-327.57 729.43,-295.97 696.5,-243 669.88,-200.18 672.69,-136.98 675.62,-108.88"/>
<polygon fill="midnightblue" stroke="midnightblue" points="839.8,-346.45 850.4,-346.42 842.1,-339.84 839.8,-346.45"/>
</g>
<!-- Node25 -->
<g id="node25" class="node">
<title>Node25</title>
<g id="a_node25"><a xlink:href="WriteDataContext_8hpp.html" target="_top" xlink:title=" ">
<polygon fill="white" stroke="black" points="970.5,-279.5 970.5,-309.5 1116.5,-309.5 1116.5,-279.5 970.5,-279.5"/>
<text text-anchor="start" x="978.5" y="-297.5" font-family="Helvetica,sans-Serif" font-size="10.00">src/precice/impl/WriteData</text>
<text text-anchor="middle" x="1043.5" y="-286.5" font-family="Helvetica,sans-Serif" font-size="10.00">Context.hpp</text>
</a>
</g>
</g>
<!-- Node1&#45;&gt;Node25 -->
<g id="edge34" class="edge">
<title>Node1&#45;&gt;Node25</title>
<path fill="none" stroke="midnightblue" d="M912.64,-342.98C939.31,-333.3 976.82,-319.69 1004.85,-309.52"/>
<polygon fill="midnightblue" stroke="midnightblue" points="911.2,-339.77 903,-346.48 913.59,-346.35 911.2,-339.77"/>
</g>
<!-- Node27 -->
<g id="node27" class="node">
<title>Node27</title>
<g id="a_node27"><a xlink:href="DataContextFixture_8hpp.html" target="_top" xlink:title=" ">
<polygon fill="white" stroke="black" points="1135,-285 1135,-304 1322,-304 1322,-285 1135,-285"/>
<text text-anchor="middle" x="1228.5" y="-292" font-family="Helvetica,sans-Serif" font-size="10.00">src/testing/DataContextFixture.hpp</text>
</a>
</g>
</g>
<!-- Node1&#45;&gt;Node27 -->
<g id="edge39" class="edge">
<title>Node1&#45;&gt;Node27</title>
<path fill="none" stroke="midnightblue" d="M939.57,-344.76C1007.1,-333.25 1115.53,-314.76 1178.59,-304.01"/>
<polygon fill="midnightblue" stroke="midnightblue" points="938.77,-341.34 929.5,-346.48 939.95,-348.24 938.77,-341.34"/>
</g>
<!-- Node4 -->
<g id="node4" class="node">
<title>Node4</title>
<g id="a_node4"><a xlink:href="ParticipantState_8hpp.html" target="_top" xlink:title=" ">
<polygon fill="white" stroke="black" points="969,-212.5 969,-242.5 1118,-242.5 1118,-212.5 969,-212.5"/>
<text text-anchor="start" x="977" y="-230.5" font-family="Helvetica,sans-Serif" font-size="10.00">src/precice/impl/Participant</text>
<text text-anchor="middle" x="1043.5" y="-219.5" font-family="Helvetica,sans-Serif" font-size="10.00">State.hpp</text>
</a>
</g>
</g>
<!-- Node3&#45;&gt;Node4 -->
<g id="edge3" class="edge">
<title>Node3&#45;&gt;Node4</title>
<path fill="none" stroke="midnightblue" d="M924.46,-275.68C950.76,-265.26 983.5,-252.28 1007.98,-242.58"/>
<polygon fill="midnightblue" stroke="midnightblue" points="923.09,-272.46 915.09,-279.4 925.67,-278.97 923.09,-272.46"/>
</g>
<!-- Node13 -->
<g id="node13" class="node">
<title>Node13</title>
<g id="a_node13"><a xlink:href="SolverInterfaceImpl_8cpp.html" target="_top" xlink:title=" ">
<polygon fill="white" stroke="black" points="779,-6 779,-36 950,-36 950,-6 779,-6"/>
<text text-anchor="start" x="787" y="-24" font-family="Helvetica,sans-Serif" font-size="10.00">src/precice/impl/SolverInterface</text>
<text text-anchor="middle" x="864.5" y="-13" font-family="Helvetica,sans-Serif" font-size="10.00">Impl.cpp</text>
</a>
</g>
</g>
<!-- Node3&#45;&gt;Node13 -->
<g id="edge28" class="edge">
<title>Node3&#45;&gt;Node13</title>
<path fill="none" stroke="midnightblue" d="M878.15,-268.99C875.08,-213.51 867.69,-79.77 865.28,-36.07"/>
<polygon fill="midnightblue" stroke="midnightblue" points="874.67,-269.49 878.71,-279.29 881.66,-269.11 874.67,-269.49"/>
</g>
<!-- Node21 -->
<g id="node21" class="node">
<title>Node21</title>
<g id="a_node21"><a xlink:href="ReadDataContext_8cpp.html" target="_top" xlink:title=" ">
<polygon fill="white" stroke="black" points="706,-212.5 706,-242.5 851,-242.5 851,-212.5 706,-212.5"/>
<text text-anchor="start" x="714" y="-230.5" font-family="Helvetica,sans-Serif" font-size="10.00">src/precice/impl/ReadData</text>
<text text-anchor="middle" x="778.5" y="-219.5" font-family="Helvetica,sans-Serif" font-size="10.00">Context.cpp</text>
</a>
</g>
</g>
<!-- Node3&#45;&gt;Node21 -->
<g id="edge27" class="edge">
<title>Node3&#45;&gt;Node21</title>
<path fill="none" stroke="midnightblue" d="M848.79,-273.73C833.16,-263.68 814.53,-251.68 800.37,-242.58"/>
<polygon fill="midnightblue" stroke="midnightblue" points="847.28,-276.93 857.58,-279.4 851.07,-271.04 847.28,-276.93"/>
</g>
<!-- Node22 -->
<g id="node22" class="node">
<title>Node22</title>
<g id="a_node22"><a xlink:href="DataContextTest_8cpp.html" target="_top" xlink:title=" ">
<polygon fill="white" stroke="black" points="1136,-212.5 1136,-242.5 1297,-242.5 1297,-212.5 1136,-212.5"/>
<text text-anchor="start" x="1144" y="-230.5" font-family="Helvetica,sans-Serif" font-size="10.00">src/precice/tests/DataContext</text>
<text text-anchor="middle" x="1216.5" y="-219.5" font-family="Helvetica,sans-Serif" font-size="10.00">Test.cpp</text>
</a>
</g>
</g>
<!-- Node3&#45;&gt;Node22 -->
<g id="edge29" class="edge">
<title>Node3&#45;&gt;Node22</title>
<path fill="none" stroke="midnightblue" d="M962.37,-277.52C1017.89,-266.81 1090.31,-252.84 1143.63,-242.55"/>
<polygon fill="midnightblue" stroke="midnightblue" points="961.37,-274.15 952.21,-279.48 962.69,-281.02 961.37,-274.15"/>
</g>
<!-- Node5 -->
<g id="node5" class="node">
<title>Node5</title>
<g id="a_node5"><a xlink:href="ParticipantConfiguration_8hpp.html" target="_top" xlink:title=" ">
<polygon fill="white" stroke="black" points="1341.5,-78.5 1341.5,-108.5 1499.5,-108.5 1499.5,-78.5 1341.5,-78.5"/>
<text text-anchor="start" x="1349.5" y="-96.5" font-family="Helvetica,sans-Serif" font-size="10.00">src/precice/config</text>
<text text-anchor="middle" x="1420.5" y="-85.5" font-family="Helvetica,sans-Serif" font-size="10.00">/ParticipantConfiguration.hpp</text>
</a>
</g>
</g>
<!-- Node4&#45;&gt;Node5 -->
<g id="edge4" class="edge">
<title>Node4&#45;&gt;Node5</title>
<path fill="none" stroke="midnightblue" d="M1128.18,-211.81C1223.38,-197.28 1257.08,-218.69 1339.5,-176 1370.68,-159.85 1397.27,-127.39 1410.85,-108.67"/>
<polygon fill="midnightblue" stroke="midnightblue" points="1127.46,-208.38 1118.15,-213.44 1128.58,-215.29 1127.46,-208.38"/>
</g>
<!-- Node11 -->
<g id="node11" class="node">
<title>Node11</title>
<g id="a_node11"><a xlink:href="ParticipantConfiguration_8cpp.html" target="_top" xlink:title=" ">
<polygon fill="white" stroke="black" points="2133,-6 2133,-36 2290,-36 2290,-6 2133,-6"/>
<text text-anchor="start" x="2141" y="-24" font-family="Helvetica,sans-Serif" font-size="10.00">src/precice/config</text>
<text text-anchor="middle" x="2211.5" y="-13" font-family="Helvetica,sans-Serif" font-size="10.00">/ParticipantConfiguration.cpp</text>
</a>
</g>
</g>
<!-- Node4&#45;&gt;Node11 -->
<g id="edge13" class="edge">
<title>Node4&#45;&gt;Node11</title>
<path fill="none" stroke="midnightblue" d="M1128.35,-211.8C1274.34,-191.6 1313.97,-198.03 1456.5,-176 1717.94,-135.6 2025.98,-65.72 2152.63,-36.02"/>
<polygon fill="midnightblue" stroke="midnightblue" points="1127.54,-208.38 1118.12,-213.23 1128.51,-215.31 1127.54,-208.38"/>
</g>
<!-- Node12 -->
<g id="node12" class="node">
<title>Node12</title>
<g id="a_node12"><a xlink:href="SolverInterfaceConfiguration_8cpp.html" target="_top" xlink:title=" ">
<polygon fill="white" stroke="black" points="1936,-6 1936,-36 2115,-36 2115,-6 1936,-6"/>
<text text-anchor="start" x="1944" y="-24" font-family="Helvetica,sans-Serif" font-size="10.00">src/precice/config</text>
<text text-anchor="middle" x="2025.5" y="-13" font-family="Helvetica,sans-Serif" font-size="10.00">/SolverInterfaceConfiguration.cpp</text>
</a>
</g>
</g>
<!-- Node4&#45;&gt;Node12 -->
<g id="edge24" class="edge">
<title>Node4&#45;&gt;Node12</title>
<path fill="none" stroke="midnightblue" d="M1128.24,-211.75C1237.33,-194.6 1267.14,-196.09 1372.5,-176 1597.61,-133.07 1862.41,-65.16 1972.93,-36.03"/>
<polygon fill="midnightblue" stroke="midnightblue" points="1127.47,-208.33 1118.14,-213.36 1128.57,-215.25 1127.47,-208.33"/>
</g>
<!-- Node4&#45;&gt;Node13 -->
<g id="edge26" class="edge">
<title>Node4&#45;&gt;Node13</title>
<path fill="none" stroke="midnightblue" d="M1008.72,-206.86C996.37,-198.57 983.15,-188.05 973.5,-176 943.87,-139.02 959.79,-116.02 931.5,-78 919.01,-61.22 900.52,-46.25 886.12,-36.03"/>
<polygon fill="midnightblue" stroke="midnightblue" points="1007.19,-210.03 1017.49,-212.48 1010.96,-204.14 1007.19,-210.03"/>
</g>
<!-- Node14 -->
<g id="node14" class="node">
<title>Node14</title>
<g id="a_node14"><a xlink:href="SolverInterfaceConfiguration_8hpp.html" target="_top" xlink:title=" ">
<polygon fill="white" stroke="black" points="1150.5,-145.5 1150.5,-175.5 1330.5,-175.5 1330.5,-145.5 1150.5,-145.5"/>
<text text-anchor="start" x="1158.5" y="-163.5" font-family="Helvetica,sans-Serif" font-size="10.00">src/precice/config</text>
<text text-anchor="middle" x="1240.5" y="-152.5" font-family="Helvetica,sans-Serif" font-size="10.00">/SolverInterfaceConfiguration.hpp</text>
</a>
</g>
</g>
<!-- Node4&#45;&gt;Node14 -->
<g id="edge14" class="edge">
<title>Node4&#45;&gt;Node14</title>
<path fill="none" stroke="midnightblue" d="M1095.85,-209.23C1127.72,-198.71 1167.91,-185.45 1197.84,-175.58"/>
<polygon fill="midnightblue" stroke="midnightblue" points="1094.65,-205.94 1086.25,-212.4 1096.84,-212.59 1094.65,-205.94"/>
</g>
<!-- Node20 -->
<g id="node20" class="node">
<title>Node20</title>
<g id="a_node20"><a xlink:href="ParticipantState_8cpp.html" target="_top" xlink:title=" ">
<polygon fill="white" stroke="black" points="983,-145.5 983,-175.5 1132,-175.5 1132,-145.5 983,-145.5"/>
<text text-anchor="start" x="991" y="-163.5" font-family="Helvetica,sans-Serif" font-size="10.00">src/precice/impl/Participant</text>
<text text-anchor="middle" x="1057.5" y="-152.5" font-family="Helvetica,sans-Serif" font-size="10.00">State.cpp</text>
</a>
</g>
</g>
<!-- Node4&#45;&gt;Node20 -->
<g id="edge25" class="edge">
<title>Node4&#45;&gt;Node20</title>
<path fill="none" stroke="midnightblue" d="M1048.69,-202.4C1050.64,-193.37 1052.78,-183.41 1054.47,-175.58"/>
<polygon fill="midnightblue" stroke="midnightblue" points="1045.22,-201.88 1046.54,-212.4 1052.06,-203.36 1045.22,-201.88"/>
</g>
<!-- Node6 -->
<g id="node6" class="node">
<title>Node6</title>
<g id="a_node6"><a xlink:href="CouplingSchemeConfiguration_8cpp.html" target="_top" xlink:title=" ">
<polygon fill="white" stroke="black" points="1731,-6 1731,-36 1918,-36 1918,-6 1731,-6"/>
<text text-anchor="start" x="1739" y="-24" font-family="Helvetica,sans-Serif" font-size="10.00">src/cplscheme/config</text>
<text text-anchor="middle" x="1824.5" y="-13" font-family="Helvetica,sans-Serif" font-size="10.00">/CouplingSchemeConfiguration.cpp</text>
</a>
</g>
</g>
<!-- Node5&#45;&gt;Node6 -->
<g id="edge5" class="edge">
<title>Node5&#45;&gt;Node6</title>
<path fill="none" stroke="midnightblue" d="M1510,-78.1C1569.92,-68.31 1650.52,-54.84 1721.5,-42 1731.9,-40.12 1742.87,-38.06 1753.62,-36.01"/>
<polygon fill="midnightblue" stroke="midnightblue" points="1509.12,-74.7 1499.81,-79.76 1510.25,-81.6 1509.12,-74.7"/>
</g>
<!-- Node7 -->
<g id="node7" class="node">
<title>Node7</title>
<g id="a_node7"><a xlink:href="CompositionalCouplingSchemeTest_8cpp.html" target="_top" xlink:title=" ">
<polygon fill="white" stroke="black" points="968.5,-0.5 968.5,-41.5 1140.5,-41.5 1140.5,-0.5 968.5,-0.5"/>
<text text-anchor="start" x="976.5" y="-29.5" font-family="Helvetica,sans-Serif" font-size="10.00">src/cplscheme/tests</text>
<text text-anchor="start" x="976.5" y="-18.5" font-family="Helvetica,sans-Serif" font-size="10.00">/CompositionalCouplingScheme</text>
<text text-anchor="middle" x="1054.5" y="-7.5" font-family="Helvetica,sans-Serif" font-size="10.00">Test.cpp</text>
</a>
</g>
</g>
<!-- Node5&#45;&gt;Node7 -->
<g id="edge6" class="edge">
<title>Node5&#45;&gt;Node7</title>
<path fill="none" stroke="midnightblue" d="M1333.29,-76.66C1280.36,-66.93 1211.48,-54.05 1150.5,-42 1147.24,-41.36 1143.93,-40.69 1140.58,-40.02"/>
<polygon fill="midnightblue" stroke="midnightblue" points="1332.85,-80.13 1343.32,-78.5 1334.11,-73.25 1332.85,-80.13"/>
</g>
<!-- Node8 -->
<g id="node8" class="node">
<title>Node8</title>
<g id="a_node8"><a xlink:href="ExplicitCouplingSchemeTest_8cpp.html" target="_top" xlink:title=" ">
<polygon fill="white" stroke="black" points="1159,-6 1159,-36 1336,-36 1336,-6 1159,-6"/>
<text text-anchor="start" x="1167" y="-24" font-family="Helvetica,sans-Serif" font-size="10.00">src/cplscheme/tests</text>
<text text-anchor="middle" x="1247.5" y="-13" font-family="Helvetica,sans-Serif" font-size="10.00">/ExplicitCouplingSchemeTest.cpp</text>
</a>
</g>
</g>
<!-- Node5&#45;&gt;Node8 -->
<g id="edge7" class="edge">
<title>Node5&#45;&gt;Node8</title>
<path fill="none" stroke="midnightblue" d="M1376.33,-74.5C1347.03,-62.56 1309.13,-47.11 1282.03,-36.07"/>
<polygon fill="midnightblue" stroke="midnightblue" points="1375.33,-77.87 1385.91,-78.4 1377.97,-71.39 1375.33,-77.87"/>
</g>
<!-- Node9 -->
<g id="node9" class="node">
<title>Node9</title>
<g id="a_node9"><a xlink:href="ParallelImplicitCouplingSchemeTest_8cpp.html" target="_top" xlink:title=" ">
<polygon fill="white" stroke="black" points="1354.5,-0.5 1354.5,-41.5 1528.5,-41.5 1528.5,-0.5 1354.5,-0.5"/>
<text text-anchor="start" x="1362.5" y="-29.5" font-family="Helvetica,sans-Serif" font-size="10.00">src/cplscheme/tests</text>
<text text-anchor="start" x="1362.5" y="-18.5" font-family="Helvetica,sans-Serif" font-size="10.00">/ParallelImplicitCouplingScheme</text>
<text text-anchor="middle" x="1441.5" y="-7.5" font-family="Helvetica,sans-Serif" font-size="10.00">Test.cpp</text>
</a>
</g>
</g>
<!-- Node5&#45;&gt;Node9 -->
<g id="edge8" class="edge">
<title>Node5&#45;&gt;Node9</title>
<path fill="none" stroke="midnightblue" d="M1427.63,-68.56C1430.25,-59.77 1433.18,-49.94 1435.67,-41.59"/>
<polygon fill="midnightblue" stroke="midnightblue" points="1424.25,-67.65 1424.75,-78.23 1430.96,-69.65 1424.25,-67.65"/>
</g>
<!-- Node10 -->
<g id="node10" class="node">
<title>Node10</title>
<g id="a_node10"><a xlink:href="SerialImplicitCouplingSchemeTest_8cpp.html" target="_top" xlink:title=" ">
<polygon fill="white" stroke="black" points="1546.5,-0.5 1546.5,-41.5 1712.5,-41.5 1712.5,-0.5 1546.5,-0.5"/>
<text text-anchor="start" x="1554.5" y="-29.5" font-family="Helvetica,sans-Serif" font-size="10.00">src/cplscheme/tests</text>
<text text-anchor="start" x="1554.5" y="-18.5" font-family="Helvetica,sans-Serif" font-size="10.00">/SerialImplicitCouplingScheme</text>
<text text-anchor="middle" x="1629.5" y="-7.5" font-family="Helvetica,sans-Serif" font-size="10.00">Test.cpp</text>
</a>
</g>
</g>
<!-- Node5&#45;&gt;Node10 -->
<g id="edge9" class="edge">
<title>Node5&#45;&gt;Node10</title>
<path fill="none" stroke="midnightblue" d="M1471.54,-75.28C1501.73,-65.1 1540.07,-52.17 1571.42,-41.59"/>
<polygon fill="midnightblue" stroke="midnightblue" points="1470.4,-71.97 1462.04,-78.49 1472.64,-78.61 1470.4,-71.97"/>
</g>
<!-- Node5&#45;&gt;Node11 -->
<g id="edge10" class="edge">
<title>Node5&#45;&gt;Node11</title>
<path fill="none" stroke="midnightblue" d="M1509.82,-90.5C1643.96,-86.51 1905.12,-74.88 2124.5,-42 2134.77,-40.46 2145.62,-38.36 2156.05,-36.09"/>
<polygon fill="midnightblue" stroke="midnightblue" points="1509.49,-87.01 1499.59,-90.8 1509.69,-94.01 1509.49,-87.01"/>
</g>
<!-- Node5&#45;&gt;Node12 -->
<g id="edge11" class="edge">
<title>Node5&#45;&gt;Node12</title>
<path fill="none" stroke="midnightblue" d="M1510.07,-86.36C1611.65,-78.74 1782.06,-64.02 1927.5,-42 1938.57,-40.32 1950.29,-38.22 1961.62,-36.02"/>
<polygon fill="midnightblue" stroke="midnightblue" points="1509.56,-82.88 1499.85,-87.11 1510.08,-89.86 1509.56,-82.88"/>
</g>
<!-- Node5&#45;&gt;Node13 -->
<g id="edge12" class="edge">
<title>Node5&#45;&gt;Node13</title>
<path fill="none" stroke="midnightblue" d="M1331.24,-85.34C1238.12,-77.27 1088.05,-62.52 959.5,-42 948.85,-40.3 937.58,-38.2 926.68,-36.01"/>
<polygon fill="midnightblue" stroke="midnightblue" points="1331.21,-88.85 1341.47,-86.22 1331.81,-81.88 1331.21,-88.85"/>
</g>
<!-- Node14&#45;&gt;Node5 -->
<g id="edge21" class="edge">
<title>Node14&#45;&gt;Node5</title>
<path fill="none" stroke="midnightblue" d="M1289.09,-141.96C1318.08,-131.48 1354.41,-118.37 1381.52,-108.58"/>
<polygon fill="midnightblue" stroke="midnightblue" points="1287.77,-138.71 1279.56,-145.4 1290.15,-145.29 1287.77,-138.71"/>
</g>
<!-- Node14&#45;&gt;Node12 -->
<g id="edge22" class="edge">
<title>Node14&#45;&gt;Node12</title>
<path fill="none" stroke="midnightblue" d="M1338.15,-143.81C1471.51,-122.14 1717.99,-81.28 1927.5,-42 1937.48,-40.13 1948.02,-38.07 1958.34,-36"/>
<polygon fill="midnightblue" stroke="midnightblue" points="1337.27,-140.4 1327.96,-145.46 1338.39,-147.31 1337.27,-140.4"/>
</g>
<!-- Node14&#45;&gt;Node13 -->
<g id="edge23" class="edge">
<title>Node14&#45;&gt;Node13</title>
<path fill="none" stroke="midnightblue" d="M1192.28,-141.87C1116.72,-114.24 971.93,-61.29 902.92,-36.05"/>
<polygon fill="midnightblue" stroke="midnightblue" points="1191.43,-145.28 1202.03,-145.43 1193.84,-138.71 1191.43,-145.28"/>
</g>
<!-- Node15 -->
<g id="node15" class="node">
<title>Node15</title>
<g id="a_node15"><a xlink:href="Configuration_8hpp.html" target="_top" xlink:title=" ">
<polygon fill="white" stroke="black" points="386.5,-78.5 386.5,-108.5 492.5,-108.5 492.5,-78.5 386.5,-78.5"/>
<text text-anchor="start" x="394.5" y="-96.5" font-family="Helvetica,sans-Serif" font-size="10.00">src/precice/config</text>
<text text-anchor="middle" x="439.5" y="-85.5" font-family="Helvetica,sans-Serif" font-size="10.00">/Configuration.hpp</text>
</a>
</g>
</g>
<!-- Node14&#45;&gt;Node15 -->
<g id="edge15" class="edge">
<title>Node14&#45;&gt;Node15</title>
<path fill="none" stroke="midnightblue" d="M1140.26,-145.04C891.64,-119.42 826.9,-129.27 582.5,-109 552.78,-106.54 519.65,-103.21 492.76,-100.37"/>
<polygon fill="midnightblue" stroke="midnightblue" points="1140.02,-148.54 1150.33,-146.09 1140.74,-141.57 1140.02,-148.54"/>
</g>
<!-- Node15&#45;&gt;Node13 -->
<g id="edge17" class="edge">
<title>Node15&#45;&gt;Node13</title>
<path fill="none" stroke="midnightblue" d="M502.43,-83.93C568.96,-74.63 676.88,-58.82 769.5,-42 779.45,-40.19 789.95,-38.13 800.21,-36.04"/>
<polygon fill="midnightblue" stroke="midnightblue" points="501.94,-80.47 492.52,-85.31 502.91,-87.4 501.94,-80.47"/>
</g>
<!-- Node16 -->
<g id="node16" class="node">
<title>Node16</title>
<g id="a_node16"><a xlink:href="Configuration_8cpp.html" target="_top" xlink:title=" ">
<polygon fill="white" stroke="black" points="318,-6 318,-36 423,-36 423,-6 318,-6"/>
<text text-anchor="start" x="326" y="-24" font-family="Helvetica,sans-Serif" font-size="10.00">src/precice/config</text>
<text text-anchor="middle" x="370.5" y="-13" font-family="Helvetica,sans-Serif" font-size="10.00">/Configuration.cpp</text>
</a>
</g>
</g>
<!-- Node15&#45;&gt;Node16 -->
<g id="edge16" class="edge">
<title>Node15&#45;&gt;Node16</title>
<path fill="none" stroke="midnightblue" d="M418.32,-70.86C407.31,-59.61 394.16,-46.18 384.44,-36.25"/>
<polygon fill="midnightblue" stroke="midnightblue" points="416.04,-73.53 425.54,-78.23 421.04,-68.64 416.04,-73.53"/>
</g>
<!-- Node17 -->
<g id="node17" class="node">
<title>Node17</title>
<g id="a_node17"><a xlink:href="ParallelTests_8cpp.html" target="_top" xlink:title=" ">
<polygon fill="white" stroke="black" points="441,-6 441,-36 576,-36 576,-6 441,-6"/>
<text text-anchor="start" x="449" y="-24" font-family="Helvetica,sans-Serif" font-size="10.00">src/precice/tests/Parallel</text>
<text text-anchor="middle" x="508.5" y="-13" font-family="Helvetica,sans-Serif" font-size="10.00">Tests.cpp</text>
</a>
</g>
</g>
<!-- Node15&#45;&gt;Node17 -->
<g id="edge18" class="edge">
<title>Node15&#45;&gt;Node17</title>
<path fill="none" stroke="midnightblue" d="M460.68,-70.86C471.69,-59.61 484.84,-46.18 494.56,-36.25"/>
<polygon fill="midnightblue" stroke="midnightblue" points="457.96,-68.64 453.46,-78.23 462.96,-73.53 457.96,-68.64"/>
</g>
<!-- Node18 -->
<g id="node18" class="node">
<title>Node18</title>
<g id="a_node18"><a xlink:href="Tooling_8cpp.html" target="_top" xlink:title=" ">
<polygon fill="white" stroke="black" points="0,-11.5 0,-30.5 127,-30.5 127,-11.5 0,-11.5"/>
<text text-anchor="middle" x="63.5" y="-18.5" font-family="Helvetica,sans-Serif" font-size="10.00">src/precice/Tooling.cpp</text>
</a>
</g>
</g>
<!-- Node15&#45;&gt;Node18 -->
<g id="edge19" class="edge">
<title>Node15&#45;&gt;Node18</title>
<path fill="none" stroke="midnightblue" d="M376.47,-84.03C314.73,-75.26 218.14,-60.29 135.5,-42 120.93,-38.78 104.92,-34.41 91.71,-30.58"/>
<polygon fill="midnightblue" stroke="midnightblue" points="376.06,-87.5 386.45,-85.43 377.04,-80.57 376.06,-87.5"/>
</g>
<!-- Node19 -->
<g id="node19" class="node">
<title>Node19</title>
<g id="a_node19"><a xlink:href="PrinterTest_8cpp.html" target="_top" xlink:title=" ">
<polygon fill="white" stroke="black" points="145,-11.5 145,-30.5 300,-30.5 300,-11.5 145,-11.5"/>
<text text-anchor="middle" x="222.5" y="-18.5" font-family="Helvetica,sans-Serif" font-size="10.00">src/xml/tests/PrinterTest.cpp</text>
</a>
</g>
</g>
<!-- Node15&#45;&gt;Node19 -->
<g id="edge20" class="edge">
<title>Node15&#45;&gt;Node19</title>
<path fill="none" stroke="midnightblue" d="M386.77,-75.37C343.11,-61.19 282.92,-41.63 248.83,-30.55"/>
<polygon fill="midnightblue" stroke="midnightblue" points="385.78,-78.73 396.37,-78.49 387.94,-72.07 385.78,-78.73"/>
</g>
<!-- Node23&#45;&gt;Node13 -->
<g id="edge31" class="edge">
<title>Node23&#45;&gt;Node13</title>
<path fill="none" stroke="midnightblue" d="M724.42,-74.81C756.21,-62.83 797.63,-47.21 827.17,-36.07"/>
<polygon fill="midnightblue" stroke="midnightblue" points="723.02,-71.6 714.89,-78.4 725.48,-78.15 723.02,-71.6"/>
</g>
<!-- Node23&#45;&gt;Node17 -->
<g id="edge33" class="edge">
<title>Node23&#45;&gt;Node17</title>
<path fill="none" stroke="midnightblue" d="M634.35,-74.5C605.73,-62.56 568.7,-47.11 542.23,-36.07"/>
<polygon fill="midnightblue" stroke="midnightblue" points="633.13,-77.78 643.71,-78.4 635.82,-71.32 633.13,-77.78"/>
</g>
<!-- Node24 -->
<g id="node24" class="node">
<title>Node24</title>
<g id="a_node24"><a xlink:href="SolverInterface_8cpp.html" target="_top" xlink:title=" ">
<polygon fill="white" stroke="black" points="594,-11.5 594,-30.5 761,-30.5 761,-11.5 594,-11.5"/>
<text text-anchor="middle" x="677.5" y="-18.5" font-family="Helvetica,sans-Serif" font-size="10.00">src/precice/SolverInterface.cpp</text>
</a>
</g>
</g>
<!-- Node23&#45;&gt;Node24 -->
<g id="edge32" class="edge">
<title>Node23&#45;&gt;Node24</title>
<path fill="none" stroke="midnightblue" d="M677.5,-68.09C677.5,-55.21 677.5,-40.2 677.5,-30.89"/>
<polygon fill="midnightblue" stroke="midnightblue" points="674,-68.23 677.5,-78.23 681,-68.23 674,-68.23"/>
</g>
<!-- Node25&#45;&gt;Node4 -->
<g id="edge35" class="edge">
<title>Node25&#45;&gt;Node4</title>
<path fill="none" stroke="midnightblue" d="M1043.5,-269.11C1043.5,-260.15 1043.5,-250.32 1043.5,-242.58"/>
<polygon fill="midnightblue" stroke="midnightblue" points="1040,-269.4 1043.5,-279.4 1047,-269.4 1040,-269.4"/>
</g>
<!-- Node25&#45;&gt;Node13 -->
<g id="edge36" class="edge">
<title>Node25&#45;&gt;Node13</title>
<path fill="none" stroke="midnightblue" d="M1000.85,-274.62C986.27,-266.54 970.81,-255.95 959.5,-243 930.32,-209.57 884.12,-79.36 869.27,-36.08"/>
<polygon fill="midnightblue" stroke="midnightblue" points="999.29,-277.76 1009.77,-279.33 1002.56,-271.57 999.29,-277.76"/>
</g>
<!-- Node25&#45;&gt;Node22 -->
<g id="edge38" class="edge">
<title>Node25&#45;&gt;Node22</title>
<path fill="none" stroke="midnightblue" d="M1090.56,-275.82C1118.37,-265.37 1153.09,-252.32 1179.03,-242.58"/>
<polygon fill="midnightblue" stroke="midnightblue" points="1089.17,-272.6 1081.04,-279.4 1091.63,-279.16 1089.17,-272.6"/>
</g>
<!-- Node26 -->
<g id="node26" class="node">
<title>Node26</title>
<g id="a_node26"><a xlink:href="WriteDataContext_8cpp.html" target="_top" xlink:title=" ">
<polygon fill="white" stroke="black" points="1315.5,-212.5 1315.5,-242.5 1461.5,-242.5 1461.5,-212.5 1315.5,-212.5"/>
<text text-anchor="start" x="1323.5" y="-230.5" font-family="Helvetica,sans-Serif" font-size="10.00">src/precice/impl/WriteData</text>
<text text-anchor="middle" x="1388.5" y="-219.5" font-family="Helvetica,sans-Serif" font-size="10.00">Context.cpp</text>
</a>
</g>
</g>
<!-- Node25&#45;&gt;Node26 -->
<g id="edge37" class="edge">
<title>Node25&#45;&gt;Node26</title>
<path fill="none" stroke="midnightblue" d="M1126.83,-277.8C1184.39,-266.95 1260.23,-252.67 1315.44,-242.26"/>
<polygon fill="midnightblue" stroke="midnightblue" points="1125.84,-274.42 1116.67,-279.72 1127.14,-281.3 1125.84,-274.42"/>
</g>
<!-- Node27&#45;&gt;Node22 -->
<g id="edge40" class="edge">
<title>Node27&#45;&gt;Node22</title>
<path fill="none" stroke="midnightblue" d="M1225.04,-274.74C1223.14,-264.49 1220.84,-252 1219.1,-242.59"/>
<polygon fill="midnightblue" stroke="midnightblue" points="1221.62,-275.54 1226.88,-284.73 1228.51,-274.26 1221.62,-275.54"/>
</g>
<!-- Node28 -->
<g id="node28" class="node">
<title>Node28</title>
<g id="a_node28"><a xlink:href="DataContextFixture_8cpp.html" target="_top" xlink:title=" ">
<polygon fill="white" stroke="black" points="1479.5,-218 1479.5,-237 1665.5,-237 1665.5,-218 1479.5,-218"/>
<text text-anchor="middle" x="1572.5" y="-225" font-family="Helvetica,sans-Serif" font-size="10.00">src/testing/DataContextFixture.cpp</text>
</a>
</g>
</g>
<!-- Node27&#45;&gt;Node28 -->
<g id="edge41" class="edge">
<title>Node27&#45;&gt;Node28</title>
<path fill="none" stroke="midnightblue" d="M1283.87,-283.04C1351.53,-270.25 1464.71,-248.87 1527.35,-237.03"/>
<polygon fill="midnightblue" stroke="midnightblue" points="1283,-279.64 1273.83,-284.94 1284.3,-286.52 1283,-279.64"/>
</g>
</g>
</svg>
        <g id="navigator" transform="translate(0 0)" fill="#404254">
                <rect fill="#f2f5e9" fill-opacity="0.5" stroke="#606060" stroke-width=".5" x="0" y="0" width="60" height="60"/>
                <use id="zoomplus" xlink:href="#zoomPlus" x="17" y="9" onmousedown="handleZoom(evt,'in')"/>
                <use id="zoomminus" xlink:href="#zoomMin" x="42" y="9" onmousedown="handleZoom(evt,'out')"/>
                <use id="reset" xlink:href="#resetDef" x="30" y="36" onmousedown="handleReset()"/>
                <g id="arrowUp" xlink:href="#dirArrow" transform="translate(30 24)" onmousedown="handlePan(0,-1)">
                  <use xlink:href="#rim" fill="#404040">
                        <set attributeName="fill" to="#808080" begin="arrowUp.mouseover" end="arrowUp.mouseout"/>
                  </use>
                  <path fill="none" stroke="white" stroke-width="1.5" d="M0,-3.0v7 M-2.5,-0.5L0,-3.0L2.5,-0.5"/>
                </g>
                <g id="arrowRight" xlink:href="#dirArrow" transform="rotate(90) translate(36 -43)" onmousedown="handlePan(1,0)">
                  <use xlink:href="#rim" fill="#404040">
                        <set attributeName="fill" to="#808080" begin="arrowRight.mouseover" end="arrowRight.mouseout"/>
                  </use>
                  <path fill="none" stroke="white" stroke-width="1.5" d="M0,-3.0v7 M-2.5,-0.5L0,-3.0L2.5,-0.5"/>
                </g>
                <g id="arrowDown" xlink:href="#dirArrow" transform="rotate(180) translate(-30 -48)" onmousedown="handlePan(0,1)">
                  <use xlink:href="#rim" fill="#404040">
                        <set attributeName="fill" to="#808080" begin="arrowDown.mouseover" end="arrowDown.mouseout"/>
                  </use>
                  <path fill="none" stroke="white" stroke-width="1.5" d="M0,-3.0v7 M-2.5,-0.5L0,-3.0L2.5,-0.5"/>
                </g>
                <g id="arrowLeft" xlink:href="#dirArrow" transform="rotate(270) translate(-36 17)" onmousedown="handlePan(-1,0)">
                  <use xlink:href="#rim" fill="#404040">
                        <set attributeName="fill" to="#808080" begin="arrowLeft.mouseover" end="arrowLeft.mouseout"/>
                  </use>
                  <path fill="none" stroke="white" stroke-width="1.5" d="M0,-3.0v7 M-2.5,-0.5L0,-3.0L2.5,-0.5"/>
                </g>
        </g>
        <svg viewBox="0 0 15 15" width="100%" height="30px" preserveAspectRatio="xMaxYMin meet">
         <g id="arrow_out" transform="scale(0.3 0.3)">
          <a xlink:href="DataContext_8hpp__dep__incl_org.svg" target="_base">
           <rect id="button" ry="5" rx="5" y="6" x="6" height="38" width="38"
                fill="#f2f5e9" fill-opacity="0.5" stroke="#606060" stroke-width="1.0"/>
           <path id="arrow"
             d="M 11.500037,31.436501 C 11.940474,20.09759 22.043105,11.32322 32.158766,21.979434 L 37.068811,17.246167 C 37.068811,17.246167 37.088388,32 37.088388,32 L 22.160133,31.978069 C 22.160133,31.978069 26.997745,27.140456 26.997745,27.140456 C 18.528582,18.264221 13.291696,25.230495 11.500037,31.436501 z"
             style="fill:#404040;"/>
          </a>
         </g>
        </svg>
</svg>
