<?xml version="1.0" encoding="UTF-8" standalone="no"?>
<!DOCTYPE svg PUBLIC "-//W3C//DTD SVG 1.1//EN"
 "http://www.w3.org/Graphics/SVG/1.1/DTD/svg11.dtd">
<!-- Generated by graphviz version 2.43.0 (0)
 -->
<!-- Title: src/time Pages: 1 -->
<svg width="400pt" height="411pt"
 viewBox="0.00 0.00 400.26 411.00" xmlns="http://www.w3.org/2000/svg" xmlns:xlink="http://www.w3.org/1999/xlink">
<g id="graph0" class="graph" transform="scale(1 1) rotate(0) translate(4 407)">
<title>src/time</title>
<polygon fill="white" stroke="transparent" points="-4,4 -4,-407 396.26,-407 396.26,4 -4,4"/>
<g id="clust1" class="cluster">
<title>clusterdir_68267d1309a1af8e8297ef4c3efbcdba</title>
<g id="a_clust1"><a xlink:href="dir_68267d1309a1af8e8297ef4c3efbcdba.html" target="_top" xlink:title="src">
<polygon fill="#ddddee" stroke="black" points="94,-272 94,-359 252,-359 252,-272 94,-272"/>
<text text-anchor="middle" x="173" y="-347" font-family="Helvetica,sans-Serif" font-size="10.00">src</text>
</a>
</g>
</g>
<g id="clust2" class="cluster">
<title>clusterdir_798ee6f4f5cd9c6410c07a649b7662ec</title>
<g id="a_clust2"><a xlink:href="dir_798ee6f4f5cd9c6410c07a649b7662ec.html" target="_top">
<polygon fill="#eeeeff" stroke="black" points="102,-280 102,-332 244,-332 244,-280 102,-280"/>
</a>
</g>
</g>
<!-- dir_798ee6f4f5cd9c6410c07a649b7662ec -->
<g id="node1" class="node">
<title>dir_798ee6f4f5cd9c6410c07a649b7662ec</title>
<text text-anchor="middle" x="137" y="-303.5" font-family="Helvetica,sans-Serif" font-size="10.00">time</text>
</g>
<!-- dir_7be0d8c199b9408ae01f5d77515b8def -->
<g id="node3" class="node">
<title>dir_7be0d8c199b9408ae01f5d77515b8def</title>
<g id="a_node3"><a xlink:href="dir_7be0d8c199b9408ae01f5d77515b8def.html" target="_top" xlink:title="mesh">
<polygon fill="white" stroke="red" points="306,-403 252,-403 252,-367 306,-367 306,-403"/>
<text text-anchor="middle" x="279" y="-382.5" font-family="Helvetica,sans-Serif" font-size="10.00">mesh</text>
</a>
</g>
</g>
<!-- dir_798ee6f4f5cd9c6410c07a649b7662ec&#45;&gt;dir_7be0d8c199b9408ae01f5d77515b8def -->
<g id="edge5" class="edge">
<title>dir_798ee6f4f5cd9c6410c07a649b7662ec&#45;&gt;dir_7be0d8c199b9408ae01f5d77515b8def</title>
<path fill="none" stroke="black" d="M144.65,-324.02C150.72,-335.6 160.3,-350.34 173,-359 193.14,-372.73 219.87,-378.97 241.45,-381.79"/>
<polygon fill="black" stroke="black" points="241.26,-385.29 251.58,-382.91 242.03,-378.33 241.26,-385.29"/>
<g id="a_edge5&#45;headlabel"><a xlink:href="dir_000059_000023.html" target="_top" xlink:title="2">
<text text-anchor="middle" x="237.37" y="-385.21" font-family="Helvetica,sans-Serif" font-size="10.00">2</text>
</a>
</g>
</g>
<!-- dir_6388f8d38e684c824d834ee4f0e80a83 -->
<g id="node4" class="node">
<title>dir_6388f8d38e684c824d834ee4f0e80a83</title>
<g id="a_node4"><a xlink:href="dir_6388f8d38e684c824d834ee4f0e80a83.html" target="_top" xlink:title="cplscheme">
<polygon fill="white" stroke="red" points="148.5,-180 79.5,-180 79.5,-144 148.5,-144 148.5,-180"/>
<text text-anchor="middle" x="114" y="-159.5" font-family="Helvetica,sans-Serif" font-size="10.00">cplscheme</text>
</a>
</g>
</g>
<!-- dir_798ee6f4f5cd9c6410c07a649b7662ec&#45;&gt;dir_6388f8d38e684c824d834ee4f0e80a83 -->
<g id="edge6" class="edge">
<title>dir_798ee6f4f5cd9c6410c07a649b7662ec&#45;&gt;dir_6388f8d38e684c824d834ee4f0e80a83</title>
<path fill="none" stroke="black" d="M134.23,-287.87C130.31,-263.67 123.1,-219.21 118.44,-190.39"/>
<polygon fill="black" stroke="black" points="121.84,-189.5 116.78,-180.19 114.93,-190.62 121.84,-189.5"/>
<g id="a_edge6&#45;headlabel"><a xlink:href="dir_000059_000018.html" target="_top" xlink:title="2">
<text text-anchor="middle" x="125.22" y="-190.1" font-family="Helvetica,sans-Serif" font-size="10.00">2</text>
</a>
</g>
</g>
<!-- dir_ae9a93452e2a84339148a16bcf2eb561 -->
<g id="node5" class="node">
<title>dir_ae9a93452e2a84339148a16bcf2eb561</title>
<g id="a_node5"><a xlink:href="dir_ae9a93452e2a84339148a16bcf2eb561.html" target="_top" xlink:title="math">
<polygon fill="white" stroke="red" points="370,-324 316,-324 316,-288 370,-288 370,-324"/>
<text text-anchor="middle" x="343" y="-303.5" font-family="Helvetica,sans-Serif" font-size="10.00">math</text>
</a>
</g>
</g>
<!-- dir_798ee6f4f5cd9c6410c07a649b7662ec&#45;&gt;dir_ae9a93452e2a84339148a16bcf2eb561 -->
<g id="edge7" class="edge">
<title>dir_798ee6f4f5cd9c6410c07a649b7662ec&#45;&gt;dir_ae9a93452e2a84339148a16bcf2eb561</title>
<path fill="none" stroke="black" d="M145.94,-324.13C152.24,-335.37 161.56,-349.44 173,-359 176.36,-361.81 177.72,-362.09 182,-363 206.78,-368.26 214.22,-368.26 239,-363 265.14,-357.45 291.51,-342.88 311.15,-329.86"/>
<polygon fill="black" stroke="black" points="313.13,-332.74 319.41,-324.21 309.18,-326.97 313.13,-332.74"/>
<g id="a_edge7&#45;headlabel"><a xlink:href="dir_000059_000047.html" target="_top" xlink:title="4">
<text text-anchor="middle" x="311.77" y="-334.62" font-family="Helvetica,sans-Serif" font-size="10.00">4</text>
</a>
</g>
</g>
<!-- dir_b3320b59a4aa4a7431bc8488b87009bf -->
<g id="node7" class="node">
<title>dir_b3320b59a4aa4a7431bc8488b87009bf</title>
<g id="a_node7"><a xlink:href="dir_b3320b59a4aa4a7431bc8488b87009bf.html" target="_top" xlink:title="logging">
<polygon fill="white" stroke="red" points="204,-36 150,-36 150,0 204,0 204,-36"/>
<text text-anchor="middle" x="177" y="-15.5" font-family="Helvetica,sans-Serif" font-size="10.00">logging</text>
</a>
</g>
</g>
<!-- dir_798ee6f4f5cd9c6410c07a649b7662ec&#45;&gt;dir_b3320b59a4aa4a7431bc8488b87009bf -->
<g id="edge8" class="edge">
<title>dir_798ee6f4f5cd9c6410c07a649b7662ec&#45;&gt;dir_b3320b59a4aa4a7431bc8488b87009bf</title>
<path fill="none" stroke="black" d="M120.74,-287.79C95.17,-258.53 50.38,-197.1 70,-144 85.35,-102.48 121.32,-65.42 147.33,-42.64"/>
<polygon fill="black" stroke="black" points="149.72,-45.2 155.05,-36.04 145.17,-39.88 149.72,-45.2"/>
<g id="a_edge8&#45;headlabel"><a xlink:href="dir_000059_000039.html" target="_top" xlink:title="3">
<text text-anchor="middle" x="148.83" y="-47.19" font-family="Helvetica,sans-Serif" font-size="10.00">3</text>
</a>
</g>
</g>
<!-- dir_313caf1132e152dd9b58bea13a4052ca -->
<g id="node8" class="node">
<title>dir_313caf1132e152dd9b58bea13a4052ca</title>
<g id="a_node8"><a xlink:href="dir_313caf1132e152dd9b58bea13a4052ca.html" target="_top" xlink:title="utils">
<polygon fill="white" stroke="red" points="289,-108 235,-108 235,-72 289,-72 289,-108"/>
<text text-anchor="middle" x="262" y="-87.5" font-family="Helvetica,sans-Serif" font-size="10.00">utils</text>
</a>
</g>
</g>
<!-- dir_798ee6f4f5cd9c6410c07a649b7662ec&#45;&gt;dir_313caf1132e152dd9b58bea13a4052ca -->
<g id="edge9" class="edge">
<title>dir_798ee6f4f5cd9c6410c07a649b7662ec&#45;&gt;dir_313caf1132e152dd9b58bea13a4052ca</title>
<path fill="none" stroke="black" d="M147.02,-287.85C168.87,-250.44 220.92,-161.32 246.82,-116.98"/>
<polygon fill="black" stroke="black" points="249.91,-118.63 251.93,-108.23 243.87,-115.1 249.91,-118.63"/>
<g id="a_edge9&#45;headlabel"><a xlink:href="dir_000059_000061.html" target="_top" xlink:title="1">
<text text-anchor="middle" x="250.55" y="-120.67" font-family="Helvetica,sans-Serif" font-size="10.00">1</text>
</a>
</g>
</g>
<!-- dir_4f255895abca0178b81a2f1d9f954adc -->
<g id="node2" class="node">
<title>dir_4f255895abca0178b81a2f1d9f954adc</title>
<g id="a_node2"><a xlink:href="dir_4f255895abca0178b81a2f1d9f954adc.html" target="_top" xlink:title="tests">
<polygon fill="white" stroke="black" points="236,-324 182,-324 182,-288 236,-288 236,-324"/>
<text text-anchor="middle" x="209" y="-303.5" font-family="Helvetica,sans-Serif" font-size="10.00">tests</text>
</a>
</g>
</g>
<!-- dir_3513c77e68d0de165c8b48f945306dcb -->
<g id="node6" class="node">
<title>dir_3513c77e68d0de165c8b48f945306dcb</title>
<g id="a_node6"><a xlink:href="dir_3513c77e68d0de165c8b48f945306dcb.html" target="_top" xlink:title="testing">
<polygon fill="white" stroke="red" points="272,-252 218,-252 218,-216 272,-216 272,-252"/>
<text text-anchor="middle" x="245" y="-231.5" font-family="Helvetica,sans-Serif" font-size="10.00">testing</text>
</a>
</g>
</g>
<!-- dir_4f255895abca0178b81a2f1d9f954adc&#45;&gt;dir_3513c77e68d0de165c8b48f945306dcb -->
<g id="edge25" class="edge">
<title>dir_4f255895abca0178b81a2f1d9f954adc&#45;&gt;dir_3513c77e68d0de165c8b48f945306dcb</title>
<path fill="none" stroke="black" d="M217.9,-287.7C222,-279.73 226.95,-270.1 231.49,-261.26"/>
<polygon fill="black" stroke="black" points="234.74,-262.6 236.2,-252.1 228.52,-259.4 234.74,-262.6"/>
<g id="a_edge25&#45;headlabel"><a xlink:href="dir_000060_000036.html" target="_top" xlink:title="5">
<text text-anchor="middle" x="235.62" y="-264.59" font-family="Helvetica,sans-Serif" font-size="10.00">5</text>
</a>
</g>
</g>
<!-- dir_7be0d8c199b9408ae01f5d77515b8def&#45;&gt;dir_ae9a93452e2a84339148a16bcf2eb561 -->
<g id="edge1" class="edge">
<title>dir_7be0d8c199b9408ae01f5d77515b8def&#45;&gt;dir_ae9a93452e2a84339148a16bcf2eb561</title>
<path fill="none" stroke="black" d="M295.01,-366.94C297.39,-364.31 299.78,-361.6 302,-359 309.35,-350.38 317.11,-340.69 323.88,-332.04"/>
<polygon fill="black" stroke="black" points="326.66,-334.17 330.02,-324.12 321.13,-329.88 326.66,-334.17"/>
<g id="a_edge1&#45;headlabel"><a xlink:href="dir_000023_000047.html" target="_top" xlink:title="10">
<text text-anchor="middle" x="326.7" y="-336.25" font-family="Helvetica,sans-Serif" font-size="10.00">10</text>
</a>
</g>
</g>
<!-- dir_7be0d8c199b9408ae01f5d77515b8def&#45;&gt;dir_3513c77e68d0de165c8b48f945306dcb -->
<g id="edge2" class="edge">
<title>dir_7be0d8c199b9408ae01f5d77515b8def&#45;&gt;dir_3513c77e68d0de165c8b48f945306dcb</title>
<path fill="none" stroke="black" d="M270.61,-366.91C262.09,-341.33 250.74,-292.86 245.87,-262.33"/>
<polygon fill="black" stroke="black" points="249.33,-261.75 244.44,-252.35 242.4,-262.75 249.33,-261.75"/>
<g id="a_edge2&#45;headlabel"><a xlink:href="dir_000023_000036.html" target="_top" xlink:title="17">
<text text-anchor="middle" x="252.65" y="-262.41" font-family="Helvetica,sans-Serif" font-size="10.00">17</text>
</a>
</g>
</g>
<!-- dir_7be0d8c199b9408ae01f5d77515b8def&#45;&gt;dir_b3320b59a4aa4a7431bc8488b87009bf -->
<g id="edge3" class="edge">
<title>dir_7be0d8c199b9408ae01f5d77515b8def&#45;&gt;dir_b3320b59a4aa4a7431bc8488b87009bf</title>
<path fill="none" stroke="black" d="M251.85,-383.64C202.81,-382.51 101.86,-377.9 73,-359 19.5,-323.97 0,-298.95 0,-235 0,-235 0,-235 0,-161 0,-89.75 88.33,-48.31 140.19,-30.11"/>
<polygon fill="black" stroke="black" points="141.38,-33.4 149.73,-26.88 139.14,-26.77 141.38,-33.4"/>
<g id="a_edge3&#45;headlabel"><a xlink:href="dir_000023_000039.html" target="_top" xlink:title="18">
<text text-anchor="middle" x="138.89" y="-34.74" font-family="Helvetica,sans-Serif" font-size="10.00">18</text>
</a>
</g>
</g>
<!-- dir_7be0d8c199b9408ae01f5d77515b8def&#45;&gt;dir_313caf1132e152dd9b58bea13a4052ca -->
<g id="edge4" class="edge">
<title>dir_7be0d8c199b9408ae01f5d77515b8def&#45;&gt;dir_313caf1132e152dd9b58bea13a4052ca</title>
<path fill="none" stroke="black" d="M306.43,-380.92C332.87,-377.32 370.13,-370.35 379,-359 402.8,-328.52 388.12,-309.58 379,-272 363.91,-209.8 350.25,-196.05 313,-144 305.87,-134.04 296.93,-124.1 288.53,-115.57"/>
<polygon fill="black" stroke="black" points="290.92,-113.01 281.35,-108.47 286,-117.99 290.92,-113.01"/>
<g id="a_edge4&#45;headlabel"><a xlink:href="dir_000023_000061.html" target="_top" xlink:title="23">
<text text-anchor="middle" x="295.47" y="-111.02" font-family="Helvetica,sans-Serif" font-size="10.00">23</text>
</a>
</g>
</g>
<!-- dir_6388f8d38e684c824d834ee4f0e80a83&#45;&gt;dir_798ee6f4f5cd9c6410c07a649b7662ec -->
<g id="edge11" class="edge">
<title>dir_6388f8d38e684c824d834ee4f0e80a83&#45;&gt;dir_798ee6f4f5cd9c6410c07a649b7662ec</title>
<path fill="none" stroke="black" d="M123.95,-180.02C129.27,-190.11 135.27,-203.36 138,-216 142.39,-236.36 141.88,-259.95 140.42,-277.73"/>
<polygon fill="black" stroke="black" points="136.93,-277.42 139.44,-287.71 143.9,-278.1 136.93,-277.42"/>
<g id="a_edge11&#45;headlabel"><a xlink:href="dir_000018_000059.html" target="_top" xlink:title="1">
<text text-anchor="middle" x="134.45" y="-271.06" font-family="Helvetica,sans-Serif" font-size="10.00">1</text>
</a>
</g>
</g>
<!-- dir_6388f8d38e684c824d834ee4f0e80a83&#45;&gt;dir_7be0d8c199b9408ae01f5d77515b8def -->
<g id="edge10" class="edge">
<title>dir_6388f8d38e684c824d834ee4f0e80a83&#45;&gt;dir_7be0d8c199b9408ae01f5d77515b8def</title>
<path fill="none" stroke="black" d="M105.34,-180.21C87.79,-217.75 53.37,-307.78 98,-359 116.26,-379.96 194.34,-383.94 241.78,-384.36"/>
<polygon fill="black" stroke="black" points="241.97,-387.86 251.98,-384.4 242,-380.86 241.97,-387.86"/>
<g id="a_edge10&#45;headlabel"><a xlink:href="dir_000018_000023.html" target="_top" xlink:title="37">
<text text-anchor="middle" x="238.36" y="-388.19" font-family="Helvetica,sans-Serif" font-size="10.00">37</text>
</a>
</g>
</g>
<!-- dir_6388f8d38e684c824d834ee4f0e80a83&#45;&gt;dir_ae9a93452e2a84339148a16bcf2eb561 -->
<g id="edge12" class="edge">
<title>dir_6388f8d38e684c824d834ee4f0e80a83&#45;&gt;dir_ae9a93452e2a84339148a16bcf2eb561</title>
<path fill="none" stroke="black" d="M148.63,-167.31C184.64,-173.23 241.2,-186.69 281,-216 303.02,-232.22 320.01,-258.68 330.59,-278.54"/>
<polygon fill="black" stroke="black" points="327.6,-280.38 335.26,-287.69 333.83,-277.19 327.6,-280.38"/>
<g id="a_edge12&#45;headlabel"><a xlink:href="dir_000018_000047.html" target="_top" xlink:title="12">
<text text-anchor="middle" x="323.43" y="-275.97" font-family="Helvetica,sans-Serif" font-size="10.00">12</text>
</a>
</g>
</g>
<!-- dir_6388f8d38e684c824d834ee4f0e80a83&#45;&gt;dir_3513c77e68d0de165c8b48f945306dcb -->
<g id="edge13" class="edge">
<title>dir_6388f8d38e684c824d834ee4f0e80a83&#45;&gt;dir_3513c77e68d0de165c8b48f945306dcb</title>
<path fill="none" stroke="black" d="M148.75,-178.51C167.68,-188.02 190.95,-200.35 209.92,-210.88"/>
<polygon fill="black" stroke="black" points="208.42,-214.04 218.85,-215.88 211.84,-207.94 208.42,-214.04"/>
<g id="a_edge13&#45;headlabel"><a xlink:href="dir_000018_000036.html" target="_top" xlink:title="18">
<text text-anchor="middle" x="203.89" y="-212.26" font-family="Helvetica,sans-Serif" font-size="10.00">18</text>
</a>
</g>
</g>
<!-- dir_6388f8d38e684c824d834ee4f0e80a83&#45;&gt;dir_b3320b59a4aa4a7431bc8488b87009bf -->
<g id="edge14" class="edge">
<title>dir_6388f8d38e684c824d834ee4f0e80a83&#45;&gt;dir_b3320b59a4aa4a7431bc8488b87009bf</title>
<path fill="none" stroke="black" d="M121.6,-143.87C132.43,-119.46 152.41,-74.43 165.18,-45.64"/>
<polygon fill="black" stroke="black" points="168.52,-46.75 169.37,-36.19 162.12,-43.91 168.52,-46.75"/>
<g id="a_edge14&#45;headlabel"><a xlink:href="dir_000018_000039.html" target="_top" xlink:title="26">
<text text-anchor="middle" x="169.66" y="-48.69" font-family="Helvetica,sans-Serif" font-size="10.00">26</text>
</a>
</g>
</g>
<!-- dir_6388f8d38e684c824d834ee4f0e80a83&#45;&gt;dir_313caf1132e152dd9b58bea13a4052ca -->
<g id="edge15" class="edge">
<title>dir_6388f8d38e684c824d834ee4f0e80a83&#45;&gt;dir_313caf1132e152dd9b58bea13a4052ca</title>
<path fill="none" stroke="black" d="M148.7,-144.59C171.83,-133.65 202.17,-119.3 225.64,-108.2"/>
<polygon fill="black" stroke="black" points="227.36,-111.25 234.91,-103.81 224.37,-104.93 227.36,-111.25"/>
<g id="a_edge15&#45;headlabel"><a xlink:href="dir_000018_000061.html" target="_top" xlink:title="21">
<text text-anchor="middle" x="225.33" y="-112.86" font-family="Helvetica,sans-Serif" font-size="10.00">21</text>
</a>
</g>
</g>
<!-- dir_ae9a93452e2a84339148a16bcf2eb561&#45;&gt;dir_3513c77e68d0de165c8b48f945306dcb -->
<g id="edge16" class="edge">
<title>dir_ae9a93452e2a84339148a16bcf2eb561&#45;&gt;dir_3513c77e68d0de165c8b48f945306dcb</title>
<path fill="none" stroke="black" d="M315.66,-289.14C308.28,-283.57 300.4,-277.36 293,-272 286.42,-267.23 279.25,-262.35 272.46,-257.76"/>
<polygon fill="black" stroke="black" points="274.38,-254.84 264.14,-252.14 270.46,-260.64 274.38,-254.84"/>
<g id="a_edge16&#45;headlabel"><a xlink:href="dir_000047_000036.html" target="_top" xlink:title="10">
<text text-anchor="middle" x="278.95" y="-252" font-family="Helvetica,sans-Serif" font-size="10.00">10</text>
</a>
</g>
</g>
<!-- dir_ae9a93452e2a84339148a16bcf2eb561&#45;&gt;dir_b3320b59a4aa4a7431bc8488b87009bf -->
<g id="edge17" class="edge">
<title>dir_ae9a93452e2a84339148a16bcf2eb561&#45;&gt;dir_b3320b59a4aa4a7431bc8488b87009bf</title>
<path fill="none" stroke="black" d="M345.05,-287.88C349.11,-245.61 353.47,-135.14 298,-72 276.26,-47.25 240.82,-33.59 213.9,-26.36"/>
<polygon fill="black" stroke="black" points="214.59,-22.93 204.04,-23.9 212.9,-29.72 214.59,-22.93"/>
<g id="a_edge17&#45;headlabel"><a xlink:href="dir_000047_000039.html" target="_top" xlink:title="6">
<text text-anchor="middle" x="218.77" y="-18.55" font-family="Helvetica,sans-Serif" font-size="10.00">6</text>
</a>
</g>
</g>
<!-- dir_ae9a93452e2a84339148a16bcf2eb561&#45;&gt;dir_313caf1132e152dd9b58bea13a4052ca -->
<g id="edge18" class="edge">
<title>dir_ae9a93452e2a84339148a16bcf2eb561&#45;&gt;dir_313caf1132e152dd9b58bea13a4052ca</title>
<path fill="none" stroke="black" d="M330.29,-287.89C321.68,-269.93 311.35,-240.9 302,-216 289.25,-182.06 273.9,-143.21 265.84,-117.95"/>
<polygon fill="black" stroke="black" points="269.18,-116.9 262.95,-108.33 262.47,-118.91 269.18,-116.9"/>
<g id="a_edge18&#45;headlabel"><a xlink:href="dir_000047_000061.html" target="_top" xlink:title="8">
<text text-anchor="middle" x="272.93" y="-117.03" font-family="Helvetica,sans-Serif" font-size="10.00">8</text>
</a>
</g>
</g>
<!-- dir_3513c77e68d0de165c8b48f945306dcb&#45;&gt;dir_798ee6f4f5cd9c6410c07a649b7662ec -->
<g id="edge20" class="edge">
<title>dir_3513c77e68d0de165c8b48f945306dcb&#45;&gt;dir_798ee6f4f5cd9c6410c07a649b7662ec</title>
<path fill="none" stroke="black" d="M217.69,-246.91C203.8,-253.48 186.95,-262.28 173,-272 169.03,-274.76 165.05,-277.93 161.25,-281.19"/>
<polygon fill="black" stroke="black" points="158.88,-278.61 153.78,-287.89 163.56,-283.82 158.88,-278.61"/>
<g id="a_edge20&#45;headlabel"><a xlink:href="dir_000036_000059.html" target="_top" xlink:title="1">
<text text-anchor="middle" x="159.66" y="-271.59" font-family="Helvetica,sans-Serif" font-size="10.00">1</text>
</a>
</g>
</g>
<!-- dir_3513c77e68d0de165c8b48f945306dcb&#45;&gt;dir_7be0d8c199b9408ae01f5d77515b8def -->
<g id="edge19" class="edge">
<title>dir_3513c77e68d0de165c8b48f945306dcb&#45;&gt;dir_7be0d8c199b9408ae01f5d77515b8def</title>
<path fill="none" stroke="black" d="M253.48,-252.35C262.02,-278.08 273.36,-326.57 278.18,-356.97"/>
<polygon fill="black" stroke="black" points="274.72,-357.5 279.59,-366.91 281.65,-356.51 274.72,-357.5"/>
<g id="a_edge19&#45;headlabel"><a xlink:href="dir_000036_000023.html" target="_top" xlink:title="2">
<text text-anchor="middle" x="271.4" y="-351.85" font-family="Helvetica,sans-Serif" font-size="10.00">2</text>
</a>
</g>
</g>
<!-- dir_3513c77e68d0de165c8b48f945306dcb&#45;&gt;dir_6388f8d38e684c824d834ee4f0e80a83 -->
<g id="edge21" class="edge">
<title>dir_3513c77e68d0de165c8b48f945306dcb&#45;&gt;dir_6388f8d38e684c824d834ee4f0e80a83</title>
<path fill="none" stroke="black" d="M217.88,-221.28C197.81,-211.41 170.48,-197 148.83,-184.99"/>
<polygon fill="black" stroke="black" points="150.37,-181.84 139.94,-180 146.95,-187.95 150.37,-181.84"/>
<g id="a_edge21&#45;headlabel"><a xlink:href="dir_000036_000018.html" target="_top" xlink:title="2">
<text text-anchor="middle" x="154.9" y="-178.62" font-family="Helvetica,sans-Serif" font-size="10.00">2</text>
</a>
</g>
</g>
<!-- dir_3513c77e68d0de165c8b48f945306dcb&#45;&gt;dir_ae9a93452e2a84339148a16bcf2eb561 -->
<g id="edge22" class="edge">
<title>dir_3513c77e68d0de165c8b48f945306dcb&#45;&gt;dir_ae9a93452e2a84339148a16bcf2eb561</title>
<path fill="none" stroke="black" d="M272.2,-246.86C284.52,-253.89 298.77,-263.14 311,-272 315.04,-274.93 319.23,-278.11 323.22,-281.3"/>
<polygon fill="black" stroke="black" points="321.11,-284.1 331.04,-287.79 325.58,-278.71 321.11,-284.1"/>
<g id="a_edge22&#45;headlabel"><a xlink:href="dir_000036_000047.html" target="_top" xlink:title="3">
<text text-anchor="middle" x="316.53" y="-281.49" font-family="Helvetica,sans-Serif" font-size="10.00">3</text>
</a>
</g>
</g>
<!-- dir_3513c77e68d0de165c8b48f945306dcb&#45;&gt;dir_b3320b59a4aa4a7431bc8488b87009bf -->
<g id="edge23" class="edge">
<title>dir_3513c77e68d0de165c8b48f945306dcb&#45;&gt;dir_b3320b59a4aa4a7431bc8488b87009bf</title>
<path fill="none" stroke="black" d="M239.55,-215.85C227.74,-178.68 199.7,-90.44 185.52,-45.82"/>
<polygon fill="black" stroke="black" points="188.84,-44.7 182.48,-36.23 182.17,-46.82 188.84,-44.7"/>
<g id="a_edge23&#45;headlabel"><a xlink:href="dir_000036_000039.html" target="_top" xlink:title="5">
<text text-anchor="middle" x="192.63" y="-44.77" font-family="Helvetica,sans-Serif" font-size="10.00">5</text>
</a>
</g>
</g>
<!-- dir_3513c77e68d0de165c8b48f945306dcb&#45;&gt;dir_313caf1132e152dd9b58bea13a4052ca -->
<g id="edge24" class="edge">
<title>dir_3513c77e68d0de165c8b48f945306dcb&#45;&gt;dir_313caf1132e152dd9b58bea13a4052ca</title>
<path fill="none" stroke="black" d="M242.47,-215.87C242.81,-191.56 247.88,-146.82 253.33,-118.01"/>
<polygon fill="black" stroke="black" points="256.77,-118.69 255.35,-108.19 249.91,-117.28 256.77,-118.69"/>
<g id="a_edge24&#45;headlabel"><a xlink:href="dir_000036_000061.html" target="_top" xlink:title="11">
<text text-anchor="middle" x="258.83" y="-120.28" font-family="Helvetica,sans-Serif" font-size="10.00">11</text>
</a>
</g>
</g>
<!-- dir_b3320b59a4aa4a7431bc8488b87009bf&#45;&gt;dir_313caf1132e152dd9b58bea13a4052ca -->
<g id="edge26" class="edge">
<title>dir_b3320b59a4aa4a7431bc8488b87009bf&#45;&gt;dir_313caf1132e152dd9b58bea13a4052ca</title>
<path fill="none" stroke="black" d="M203.66,-36.1C215.14,-44.8 228.34,-55.52 239.34,-65.03"/>
<polygon fill="black" stroke="black" points="237.09,-67.71 246.9,-71.7 241.71,-62.46 237.09,-67.71"/>
<g id="a_edge26&#45;headlabel"><a xlink:href="dir_000039_000061.html" target="_top" xlink:title="5">
<text text-anchor="middle" x="232.51" y="-64.97" font-family="Helvetica,sans-Serif" font-size="10.00">5</text>
</a>
</g>
</g>
<!-- dir_313caf1132e152dd9b58bea13a4052ca&#45;&gt;dir_ae9a93452e2a84339148a16bcf2eb561 -->
<g id="edge27" class="edge">
<title>dir_313caf1132e152dd9b58bea13a4052ca&#45;&gt;dir_ae9a93452e2a84339148a16bcf2eb561</title>
<path fill="none" stroke="black" d="M275,-108.33C287.62,-132.41 305.49,-177.38 320,-216 327.75,-236.62 336.16,-260.07 341.12,-277.72"/>
<polygon fill="black" stroke="black" points="337.85,-279.07 343.73,-287.89 344.64,-277.33 337.85,-279.07"/>
<g id="a_edge27&#45;headlabel"><a xlink:href="dir_000061_000047.html" target="_top" xlink:title="7">
<text text-anchor="middle" x="334.21" y="-273.79" font-family="Helvetica,sans-Serif" font-size="10.00">7</text>
</a>
</g>
</g>
<!-- dir_313caf1132e152dd9b58bea13a4052ca&#45;&gt;dir_3513c77e68d0de165c8b48f945306dcb -->
<g id="edge28" class="edge">
<title>dir_313caf1132e152dd9b58bea13a4052ca&#45;&gt;dir_3513c77e68d0de165c8b48f945306dcb</title>
<path fill="none" stroke="black" d="M264.53,-108.19C264.18,-132.53 259.11,-177.28 253.65,-206.06"/>
<polygon fill="black" stroke="black" points="250.22,-205.37 251.64,-215.87 257.08,-206.78 250.22,-205.37"/>
<g id="a_edge28&#45;headlabel"><a xlink:href="dir_000061_000036.html" target="_top" xlink:title="17">
<text text-anchor="middle" x="248.16" y="-198.78" font-family="Helvetica,sans-Serif" font-size="10.00">17</text>
</a>
</g>
</g>
<!-- dir_313caf1132e152dd9b58bea13a4052ca&#45;&gt;dir_b3320b59a4aa4a7431bc8488b87009bf -->
<g id="edge29" class="edge">
<title>dir_313caf1132e152dd9b58bea13a4052ca&#45;&gt;dir_b3320b59a4aa4a7431bc8488b87009bf</title>
<path fill="none" stroke="black" d="M235.07,-71.7C223.57,-62.97 210.38,-52.24 199.41,-42.75"/>
<polygon fill="black" stroke="black" points="201.69,-40.09 191.87,-36.1 197.06,-45.34 201.69,-40.09"/>
<g id="a_edge29&#45;headlabel"><a xlink:href="dir_000061_000039.html" target="_top" xlink:title="9">
<text text-anchor="middle" x="206.26" y="-37.84" font-family="Helvetica,sans-Serif" font-size="10.00">9</text>
</a>
</g>
</g>
</g>
</svg>
