<?xml version="1.0" encoding="UTF-8" standalone="no"?>
<!DOCTYPE svg PUBLIC "-//W3C//DTD SVG 1.1//EN"
 "http://www.w3.org/Graphics/SVG/1.1/DTD/svg11.dtd">
<!-- Generated by graphviz version 2.43.0 (0)
 -->
<!-- Title: src/profiling/EventUtils.cpp Pages: 1 -->
<svg width="2552pt" height="386pt"
 viewBox="0.00 0.00 2551.50 386.00" xmlns="http://www.w3.org/2000/svg" xmlns:xlink="http://www.w3.org/1999/xlink">
<g id="graph0" class="graph" transform="scale(1 1) rotate(0) translate(4 382)">
<title>src/profiling/EventUtils.cpp</title>
<polygon fill="white" stroke="transparent" points="-4,4 -4,-382 2547.5,-382 2547.5,4 -4,4"/>
<!-- Node1 -->
<g id="node1" class="node">
<title>Node1</title>
<g id="a_node1"><a xlink:title=" ">
<polygon fill="#bfbfbf" stroke="black" points="1730.5,-358.5 1730.5,-377.5 1877.5,-377.5 1877.5,-358.5 1730.5,-358.5"/>
<text text-anchor="middle" x="1804" y="-365.5" font-family="Helvetica,sans-Serif" font-size="10.00">src/profiling/EventUtils.cpp</text>
</a>
</g>
</g>
<!-- Node2 -->
<g id="node2" class="node">
<title>Node2</title>
<g id="a_node2"><a xlink:title=" ">
<polygon fill="white" stroke="#bfbfbf" points="0,-0.5 0,-19.5 64,-19.5 64,-0.5 0,-0.5"/>
<text text-anchor="middle" x="32" y="-7.5" font-family="Helvetica,sans-Serif" font-size="10.00">algorithm</text>
</a>
</g>
</g>
<!-- Node1&#45;&gt;Node2 -->
<g id="edge1" class="edge">
<title>Node1&#45;&gt;Node2</title>
<path fill="none" stroke="midnightblue" d="M1730.08,-366.23C1437.27,-363 367.44,-349.42 218,-322 131.46,-306.12 31,-344.99 31,-257 31,-257 31,-257 31,-126.5 31,-92.36 31.44,-52.55 31.74,-29.71"/>
<polygon fill="midnightblue" stroke="midnightblue" points="35.24,-29.74 31.87,-19.69 28.24,-29.65 35.24,-29.74"/>
</g>
<!-- Node3 -->
<g id="node3" class="node">
<title>Node3</title>
<g id="a_node3"><a xlink:title=" ">
<polygon fill="white" stroke="#bfbfbf" points="390,-0.5 390,-19.5 432,-19.5 432,-0.5 390,-0.5"/>
<text text-anchor="middle" x="411" y="-7.5" font-family="Helvetica,sans-Serif" font-size="10.00">array</text>
</a>
</g>
</g>
<!-- Node1&#45;&gt;Node3 -->
<g id="edge2" class="edge">
<title>Node1&#45;&gt;Node3</title>
<path fill="none" stroke="midnightblue" d="M1730.5,-367.31C1445.53,-368.16 422.63,-367.97 285,-322 237.51,-306.14 193,-307.06 193,-257 193,-257 193,-257 193,-126.5 193,-94.05 188.44,-78.31 212,-56 265.78,-5.08 304.02,-36.62 379.9,-20.19"/>
<polygon fill="midnightblue" stroke="midnightblue" points="380.93,-23.55 389.84,-17.81 379.3,-16.74 380.93,-23.55"/>
</g>
<!-- Node4 -->
<g id="node4" class="node">
<title>Node4</title>
<g id="a_node4"><a xlink:title=" ">
<polygon fill="white" stroke="#bfbfbf" points="1955.5,-302.5 1955.5,-321.5 2128.5,-321.5 2128.5,-302.5 1955.5,-302.5"/>
<text text-anchor="middle" x="2042" y="-309.5" font-family="Helvetica,sans-Serif" font-size="10.00">boost/filesystem/operations.hpp</text>
</a>
</g>
</g>
<!-- Node1&#45;&gt;Node4 -->
<g id="edge3" class="edge">
<title>Node1&#45;&gt;Node4</title>
<path fill="none" stroke="midnightblue" d="M1841.71,-358.44C1883.14,-349.04 1949.76,-333.93 1994.67,-323.74"/>
<polygon fill="midnightblue" stroke="midnightblue" points="1995.49,-327.14 2004.46,-321.52 1993.94,-320.32 1995.49,-327.14"/>
</g>
<!-- Node5 -->
<g id="node5" class="node">
<title>Node5</title>
<g id="a_node5"><a xlink:title=" ">
<polygon fill="white" stroke="#bfbfbf" points="1624,-185 1624,-204 1676,-204 1676,-185 1624,-185"/>
<text text-anchor="middle" x="1650" y="-192" font-family="Helvetica,sans-Serif" font-size="10.00">cassert</text>
</a>
</g>
</g>
<!-- Node1&#45;&gt;Node5 -->
<g id="edge4" class="edge">
<title>Node1&#45;&gt;Node5</title>
<path fill="none" stroke="midnightblue" d="M1745.23,-358.48C1656.53,-344.23 1495.35,-312.5 1463,-266 1408.12,-187.12 1399.37,-273.77 1610,-210 1612.63,-209.2 1615.33,-208.33 1618.04,-207.43"/>
<polygon fill="midnightblue" stroke="midnightblue" points="1619.43,-210.65 1627.72,-204.06 1617.12,-204.04 1619.43,-210.65"/>
</g>
<!-- Node6 -->
<g id="node6" class="node">
<title>Node6</title>
<g id="a_node6"><a xlink:title=" ">
<polygon fill="white" stroke="#bfbfbf" points="2147,-302.5 2147,-321.5 2191,-321.5 2191,-302.5 2147,-302.5"/>
<text text-anchor="middle" x="2169" y="-309.5" font-family="Helvetica,sans-Serif" font-size="10.00">ctime</text>
</a>
</g>
</g>
<!-- Node1&#45;&gt;Node6 -->
<g id="edge5" class="edge">
<title>Node1&#45;&gt;Node6</title>
<path fill="none" stroke="midnightblue" d="M1877.51,-360.27C1943.22,-353.53 2042.22,-341.6 2136.73,-322"/>
<polygon fill="midnightblue" stroke="midnightblue" points="2137.69,-325.38 2146.75,-319.89 2136.24,-318.53 2137.69,-325.38"/>
</g>
<!-- Node7 -->
<g id="node7" class="node">
<title>Node7</title>
<g id="a_node7"><a xlink:title=" ">
<polygon fill="white" stroke="#bfbfbf" points="1471.5,-246.5 1471.5,-265.5 1526.5,-265.5 1526.5,-246.5 1471.5,-246.5"/>
<text text-anchor="middle" x="1499" y="-253.5" font-family="Helvetica,sans-Serif" font-size="10.00">fstream</text>
</a>
</g>
</g>
<!-- Node1&#45;&gt;Node7 -->
<g id="edge6" class="edge">
<title>Node1&#45;&gt;Node7</title>
<path fill="none" stroke="midnightblue" d="M1777.45,-358.43C1750.34,-349.59 1707.09,-335.27 1670,-322 1620.87,-304.42 1564.38,-282.64 1530.2,-269.28"/>
<polygon fill="midnightblue" stroke="midnightblue" points="1531.35,-265.97 1520.76,-265.59 1528.8,-272.49 1531.35,-265.97"/>
</g>
<!-- Node8 -->
<g id="node8" class="node">
<title>Node8</title>
<g id="a_node8"><a xlink:title=" ">
<polygon fill="white" stroke="#bfbfbf" points="2209,-302.5 2209,-321.5 2265,-321.5 2265,-302.5 2209,-302.5"/>
<text text-anchor="middle" x="2237" y="-309.5" font-family="Helvetica,sans-Serif" font-size="10.00">iomanip</text>
</a>
</g>
</g>
<!-- Node1&#45;&gt;Node8 -->
<g id="edge7" class="edge">
<title>Node1&#45;&gt;Node8</title>
<path fill="none" stroke="midnightblue" d="M1877.75,-361.4C1955.4,-354.88 2081.33,-342.52 2198.9,-322"/>
<polygon fill="midnightblue" stroke="midnightblue" points="2199.56,-325.44 2208.8,-320.25 2198.34,-318.54 2199.56,-325.44"/>
</g>
<!-- Node9 -->
<g id="node9" class="node">
<title>Node9</title>
<g id="a_node9"><a xlink:title=" ">
<polygon fill="white" stroke="#bfbfbf" points="2283.5,-302.5 2283.5,-321.5 2336.5,-321.5 2336.5,-302.5 2283.5,-302.5"/>
<text text-anchor="middle" x="2310" y="-309.5" font-family="Helvetica,sans-Serif" font-size="10.00">iterator</text>
</a>
</g>
</g>
<!-- Node1&#45;&gt;Node9 -->
<g id="edge8" class="edge">
<title>Node1&#45;&gt;Node9</title>
<path fill="none" stroke="midnightblue" d="M1877.72,-363.36C1968.56,-358.11 2127.7,-346.42 2273.34,-321.85"/>
<polygon fill="midnightblue" stroke="midnightblue" points="2274.09,-325.27 2283.36,-320.13 2272.91,-318.37 2274.09,-325.27"/>
</g>
<!-- Node10 -->
<g id="node10" class="node">
<title>Node10</title>
<g id="a_node10"><a xlink:title=" ">
<polygon fill="white" stroke="#bfbfbf" points="1242,-56.5 1242,-75.5 1300,-75.5 1300,-56.5 1242,-56.5"/>
<text text-anchor="middle" x="1271" y="-63.5" font-family="Helvetica,sans-Serif" font-size="10.00">memory</text>
</a>
</g>
</g>
<!-- Node1&#45;&gt;Node10 -->
<g id="edge9" class="edge">
<title>Node1&#45;&gt;Node10</title>
<path fill="none" stroke="midnightblue" d="M1730.2,-367.77C1538.19,-368.32 1008.15,-360.41 580,-266 466.41,-240.95 393.91,-250.29 349,-143 343.68,-130.29 339.5,-121.98 349,-112 379.89,-79.57 1060.02,-69.46 1231.85,-67.42"/>
<polygon fill="midnightblue" stroke="midnightblue" points="1232,-70.92 1241.96,-67.3 1231.92,-63.92 1232,-70.92"/>
</g>
<!-- Node11 -->
<g id="node11" class="node">
<title>Node11</title>
<g id="a_node11"><a xlink:title=" ">
<polygon fill="white" stroke="#bfbfbf" points="2002,-246.5 2002,-265.5 2058,-265.5 2058,-246.5 2002,-246.5"/>
<text text-anchor="middle" x="2030" y="-253.5" font-family="Helvetica,sans-Serif" font-size="10.00">optional</text>
</a>
</g>
</g>
<!-- Node1&#45;&gt;Node11 -->
<g id="edge10" class="edge">
<title>Node1&#45;&gt;Node11</title>
<path fill="none" stroke="midnightblue" d="M1810.94,-358.49C1822.7,-344.64 1847.9,-317.23 1875,-302 1895.01,-290.75 1952.91,-275.47 1991.99,-265.92"/>
<polygon fill="midnightblue" stroke="midnightblue" points="1993.08,-269.26 2001.98,-263.51 1991.44,-262.46 1993.08,-269.26"/>
</g>
<!-- Node12 -->
<g id="node12" class="node">
<title>Node12</title>
<g id="a_node12"><a xlink:title=" ">
<polygon fill="white" stroke="#bfbfbf" points="2354.5,-302.5 2354.5,-321.5 2393.5,-321.5 2393.5,-302.5 2354.5,-302.5"/>
<text text-anchor="middle" x="2374" y="-309.5" font-family="Helvetica,sans-Serif" font-size="10.00">ratio</text>
</a>
</g>
</g>
<!-- Node1&#45;&gt;Node12 -->
<g id="edge11" class="edge">
<title>Node1&#45;&gt;Node12</title>
<path fill="none" stroke="midnightblue" d="M1877.5,-366.19C1980.42,-363.89 2173.2,-355.31 2344.32,-321.93"/>
<polygon fill="midnightblue" stroke="midnightblue" points="2345.13,-325.34 2354.26,-319.96 2343.77,-318.47 2345.13,-325.34"/>
</g>
<!-- Node13 -->
<g id="node13" class="node">
<title>Node13</title>
<g id="a_node13"><a xlink:title=" ">
<polygon fill="white" stroke="#bfbfbf" points="1723,-56.5 1723,-75.5 1767,-75.5 1767,-56.5 1723,-56.5"/>
<text text-anchor="middle" x="1745" y="-63.5" font-family="Helvetica,sans-Serif" font-size="10.00">string</text>
</a>
</g>
</g>
<!-- Node1&#45;&gt;Node13 -->
<g id="edge12" class="edge">
<title>Node1&#45;&gt;Node13</title>
<path fill="none" stroke="midnightblue" d="M1825.54,-358.36C1846.92,-349.64 1880.53,-335.57 1909,-322 1926.23,-313.79 1929,-308.34 1947,-302 2027.62,-273.59 2174.59,-319.53 2131,-246 2054.37,-116.74 1855.78,-79.88 1777.45,-70.19"/>
<polygon fill="midnightblue" stroke="midnightblue" points="1777.56,-66.68 1767.22,-69 1776.75,-73.63 1777.56,-66.68"/>
</g>
<!-- Node14 -->
<g id="node14" class="node">
<title>Node14</title>
<g id="a_node14"><a xlink:title=" ">
<polygon fill="white" stroke="#bfbfbf" points="2412,-302.5 2412,-321.5 2484,-321.5 2484,-302.5 2412,-302.5"/>
<text text-anchor="middle" x="2448" y="-309.5" font-family="Helvetica,sans-Serif" font-size="10.00">sys/types.h</text>
</a>
</g>
</g>
<!-- Node1&#45;&gt;Node14 -->
<g id="edge13" class="edge">
<title>Node1&#45;&gt;Node14</title>
<path fill="none" stroke="midnightblue" d="M1877.61,-364.37C1988.98,-359.76 2207.08,-348.21 2401.59,-322.03"/>
<polygon fill="midnightblue" stroke="midnightblue" points="2402.28,-325.47 2411.72,-320.65 2401.33,-318.53 2402.28,-325.47"/>
</g>
<!-- Node15 -->
<g id="node15" class="node">
<title>Node15</title>
<g id="a_node15"><a xlink:title=" ">
<polygon fill="white" stroke="#bfbfbf" points="2502.5,-302.5 2502.5,-321.5 2543.5,-321.5 2543.5,-302.5 2502.5,-302.5"/>
<text text-anchor="middle" x="2523" y="-309.5" font-family="Helvetica,sans-Serif" font-size="10.00">tuple</text>
</a>
</g>
</g>
<!-- Node1&#45;&gt;Node15 -->
<g id="edge14" class="edge">
<title>Node1&#45;&gt;Node15</title>
<path fill="none" stroke="midnightblue" d="M1877.57,-367.62C2002.45,-367.49 2263.71,-362.09 2492.32,-321.65"/>
<polygon fill="midnightblue" stroke="midnightblue" points="2493.27,-325.03 2502.49,-319.82 2492.03,-318.14 2493.27,-325.03"/>
</g>
<!-- Node16 -->
<g id="node16" class="node">
<title>Node16</title>
<g id="a_node16"><a xlink:title=" ">
<polygon fill="white" stroke="#bfbfbf" points="2076.5,-246.5 2076.5,-265.5 2121.5,-265.5 2121.5,-246.5 2076.5,-246.5"/>
<text text-anchor="middle" x="2099" y="-253.5" font-family="Helvetica,sans-Serif" font-size="10.00">utility</text>
</a>
</g>
</g>
<!-- Node1&#45;&gt;Node16 -->
<g id="edge15" class="edge">
<title>Node1&#45;&gt;Node16</title>
<path fill="none" stroke="midnightblue" d="M1817.35,-358.33C1841.88,-342.52 1893.39,-309.92 1913,-302 1975.25,-276.87 1996.97,-282.88 2066.21,-266.05"/>
<polygon fill="midnightblue" stroke="midnightblue" points="2067.46,-269.35 2076.31,-263.52 2065.76,-262.56 2067.46,-269.35"/>
</g>
<!-- Node17 -->
<g id="node17" class="node">
<title>Node17</title>
<g id="a_node17"><a xlink:href="LogMacros_8hpp.html" target="_top" xlink:title=" ">
<polygon fill="white" stroke="black" points="588.5,-246.5 588.5,-265.5 717.5,-265.5 717.5,-246.5 588.5,-246.5"/>
<text text-anchor="middle" x="653" y="-253.5" font-family="Helvetica,sans-Serif" font-size="10.00">logging/LogMacros.hpp</text>
</a>
</g>
</g>
<!-- Node1&#45;&gt;Node17 -->
<g id="edge16" class="edge">
<title>Node1&#45;&gt;Node17</title>
<path fill="none" stroke="midnightblue" d="M1730.25,-359.95C1523,-340.15 936.93,-284.14 728.08,-264.18"/>
<polygon fill="midnightblue" stroke="midnightblue" points="728.11,-260.66 717.83,-263.2 727.45,-267.63 728.11,-260.66"/>
</g>
<!-- Node18 -->
<g id="node18" class="node">
<title>Node18</title>
<g id="a_node18"><a xlink:href="fmt_8hpp.html" target="_top" xlink:title=" ">
<polygon fill="white" stroke="black" points="221.5,-118 221.5,-137 300.5,-137 300.5,-118 221.5,-118"/>
<text text-anchor="middle" x="261" y="-125" font-family="Helvetica,sans-Serif" font-size="10.00">utils/fmt.hpp</text>
</a>
</g>
</g>
<!-- Node1&#45;&gt;Node18 -->
<g id="edge80" class="edge">
<title>Node1&#45;&gt;Node18</title>
<path fill="none" stroke="midnightblue" d="M1730.33,-367.25C1436.66,-367.94 362.65,-367.35 307,-322 254.13,-278.92 255.46,-187.14 258.83,-147.44"/>
<polygon fill="midnightblue" stroke="midnightblue" points="262.33,-147.61 259.83,-137.31 255.36,-146.91 262.33,-147.61"/>
</g>
<!-- Node38 -->
<g id="node34" class="node">
<title>Node38</title>
<g id="a_node34"><a xlink:href="Event_8hpp.html" target="_top" xlink:title=" ">
<polygon fill="white" stroke="black" points="1621,-246.5 1621,-265.5 1729,-265.5 1729,-246.5 1621,-246.5"/>
<text text-anchor="middle" x="1675" y="-253.5" font-family="Helvetica,sans-Serif" font-size="10.00">profiling/Event.hpp</text>
</a>
</g>
</g>
<!-- Node1&#45;&gt;Node38 -->
<g id="edge42" class="edge">
<title>Node1&#45;&gt;Node38</title>
<path fill="none" stroke="midnightblue" d="M1745.11,-358.49C1722.33,-352.17 1698.14,-341.17 1683,-322 1672.77,-309.05 1671.57,-289.88 1672.45,-275.71"/>
<polygon fill="midnightblue" stroke="midnightblue" points="1675.94,-275.94 1673.47,-265.64 1668.98,-275.23 1675.94,-275.94"/>
</g>
<!-- Node41 -->
<g id="node37" class="node">
<title>Node41</title>
<g id="a_node37"><a xlink:href="EventUtils_8hpp.html" target="_top" xlink:title=" ">
<polygon fill="white" stroke="black" points="1691.5,-302.5 1691.5,-321.5 1822.5,-321.5 1822.5,-302.5 1691.5,-302.5"/>
<text text-anchor="middle" x="1757" y="-309.5" font-family="Helvetica,sans-Serif" font-size="10.00">profiling/EventUtils.hpp</text>
</a>
</g>
</g>
<!-- Node1&#45;&gt;Node41 -->
<g id="edge46" class="edge">
<title>Node1&#45;&gt;Node41</title>
<path fill="none" stroke="midnightblue" d="M1796.24,-358.08C1789.46,-350.3 1779.46,-338.8 1771.24,-329.37"/>
<polygon fill="midnightblue" stroke="midnightblue" points="1773.82,-327 1764.62,-321.75 1768.54,-331.59 1773.82,-327"/>
</g>
<!-- Node45 -->
<g id="node41" class="node">
<title>Node45</title>
<g id="a_node41"><a xlink:href="assertion_8hpp.html" target="_top" xlink:title=" ">
<polygon fill="white" stroke="black" points="1127.5,-246.5 1127.5,-265.5 1234.5,-265.5 1234.5,-246.5 1127.5,-246.5"/>
<text text-anchor="middle" x="1181" y="-253.5" font-family="Helvetica,sans-Serif" font-size="10.00">utils/assertion.hpp</text>
</a>
</g>
</g>
<!-- Node1&#45;&gt;Node45 -->
<g id="edge79" class="edge">
<title>Node1&#45;&gt;Node45</title>
<path fill="none" stroke="midnightblue" d="M1730.25,-361.15C1654.29,-354.43 1532.71,-341.72 1429,-322 1353.27,-307.6 1266.51,-282.94 1218.3,-268.49"/>
<polygon fill="midnightblue" stroke="midnightblue" points="1219.2,-265.1 1208.61,-265.57 1217.17,-271.8 1219.2,-265.1"/>
</g>
<!-- Node17&#45;&gt;Node18 -->
<g id="edge17" class="edge">
<title>Node17&#45;&gt;Node18</title>
<path fill="none" stroke="midnightblue" d="M588.5,-251.9C532.48,-247.44 450.05,-236.55 383,-210 342.05,-193.78 300.76,-162.29 278.27,-143.56"/>
<polygon fill="midnightblue" stroke="midnightblue" points="280.5,-140.86 270.61,-137.06 275.97,-146.2 280.5,-140.86"/>
</g>
<!-- Node30 -->
<g id="node26" class="node">
<title>Node30</title>
<g id="a_node26"><a xlink:href="ArgumentFormatter_8hpp.html" target="_top" xlink:title=" ">
<polygon fill="white" stroke="black" points="425.5,-185 425.5,-204 582.5,-204 582.5,-185 425.5,-185"/>
<text text-anchor="middle" x="504" y="-192" font-family="Helvetica,sans-Serif" font-size="10.00">utils/ArgumentFormatter.hpp</text>
</a>
</g>
</g>
<!-- Node17&#45;&gt;Node30 -->
<g id="edge30" class="edge">
<title>Node17&#45;&gt;Node30</title>
<path fill="none" stroke="midnightblue" d="M631.65,-246.48C606.31,-236.36 563.86,-219.4 534.93,-207.85"/>
<polygon fill="midnightblue" stroke="midnightblue" points="535.89,-204.47 525.31,-204.01 533.3,-210.97 535.89,-204.47"/>
</g>
<!-- Node36 -->
<g id="node32" class="node">
<title>Node36</title>
<g id="a_node32"><a xlink:href="Tracer_8hpp.html" target="_top" xlink:title=" ">
<polygon fill="white" stroke="black" points="600.5,-185 600.5,-204 705.5,-204 705.5,-185 600.5,-185"/>
<text text-anchor="middle" x="653" y="-192" font-family="Helvetica,sans-Serif" font-size="10.00">logging/Tracer.hpp</text>
</a>
</g>
</g>
<!-- Node17&#45;&gt;Node36 -->
<g id="edge37" class="edge">
<title>Node17&#45;&gt;Node36</title>
<path fill="none" stroke="midnightblue" d="M653,-246.48C653,-238.08 653,-224.98 653,-214.16"/>
<polygon fill="midnightblue" stroke="midnightblue" points="656.5,-214.01 653,-204.01 649.5,-214.01 656.5,-214.01"/>
</g>
<!-- Node18&#45;&gt;Node13 -->
<g id="edge18" class="edge">
<title>Node18&#45;&gt;Node13</title>
<path fill="none" stroke="midnightblue" d="M300.72,-118.82C315.78,-116.21 333.13,-113.56 349,-112 488.59,-98.31 1516.21,-72.61 1712.61,-67.79"/>
<polygon fill="midnightblue" stroke="midnightblue" points="1712.94,-71.28 1722.85,-67.54 1712.76,-64.28 1712.94,-71.28"/>
</g>
<!-- Node19 -->
<g id="node19" class="node">
<title>Node19</title>
<g id="a_node19"><a xlink:title=" ">
<polygon fill="white" stroke="#bfbfbf" points="293.5,-0.5 293.5,-19.5 372.5,-19.5 372.5,-0.5 293.5,-0.5"/>
<text text-anchor="middle" x="333" y="-7.5" font-family="Helvetica,sans-Serif" font-size="10.00">fmt/format.h</text>
</a>
</g>
</g>
<!-- Node18&#45;&gt;Node19 -->
<g id="edge19" class="edge">
<title>Node18&#45;&gt;Node19</title>
<path fill="none" stroke="midnightblue" d="M274.36,-117.68C286.96,-108.67 305.44,-93.55 316,-76 324.55,-61.79 328.85,-43.31 330.98,-29.69"/>
<polygon fill="midnightblue" stroke="midnightblue" points="334.47,-29.96 332.3,-19.59 327.53,-29.05 334.47,-29.96"/>
</g>
<!-- Node20 -->
<g id="node20" class="node">
<title>Node20</title>
<g id="a_node20"><a xlink:title=" ">
<polygon fill="white" stroke="#bfbfbf" points="221,-56.5 221,-75.5 307,-75.5 307,-56.5 221,-56.5"/>
<text text-anchor="middle" x="264" y="-63.5" font-family="Helvetica,sans-Serif" font-size="10.00">fmt/ostream.h</text>
</a>
</g>
</g>
<!-- Node18&#45;&gt;Node20 -->
<g id="edge20" class="edge">
<title>Node18&#45;&gt;Node20</title>
<path fill="none" stroke="midnightblue" d="M261.43,-117.98C261.85,-109.58 262.51,-96.48 263.06,-85.66"/>
<polygon fill="midnightblue" stroke="midnightblue" points="266.56,-85.67 263.57,-75.51 259.57,-85.32 266.56,-85.67"/>
</g>
<!-- Node21 -->
<g id="node21" class="node">
<title>Node21</title>
<g id="a_node21"><a xlink:href="fmtEigen_8hpp.html" target="_top" xlink:title=" ">
<polygon fill="white" stroke="red" points="59,-56.5 59,-75.5 165,-75.5 165,-56.5 59,-56.5"/>
<text text-anchor="middle" x="112" y="-63.5" font-family="Helvetica,sans-Serif" font-size="10.00">utils/fmtEigen.hpp</text>
</a>
</g>
</g>
<!-- Node18&#45;&gt;Node21 -->
<g id="edge21" class="edge">
<title>Node18&#45;&gt;Node21</title>
<path fill="none" stroke="midnightblue" d="M239.65,-117.98C214.31,-107.86 171.86,-90.9 142.93,-79.35"/>
<polygon fill="midnightblue" stroke="midnightblue" points="143.89,-75.97 133.31,-75.51 141.3,-82.47 143.89,-75.97"/>
</g>
<!-- Node25 -->
<g id="node24" class="node">
<title>Node25</title>
<g id="a_node24"><a xlink:href="fmtSTL_8hpp.html" target="_top" xlink:title=" ">
<polygon fill="white" stroke="red" points="363,-56.5 363,-75.5 459,-75.5 459,-56.5 363,-56.5"/>
<text text-anchor="middle" x="411" y="-63.5" font-family="Helvetica,sans-Serif" font-size="10.00">utils/fmtSTL.hpp</text>
</a>
</g>
</g>
<!-- Node18&#45;&gt;Node25 -->
<g id="edge26" class="edge">
<title>Node18&#45;&gt;Node25</title>
<path fill="none" stroke="midnightblue" d="M282.49,-117.98C308.11,-107.81 351.11,-90.76 380.24,-79.2"/>
<polygon fill="midnightblue" stroke="midnightblue" points="381.54,-82.45 389.55,-75.51 378.96,-75.94 381.54,-82.45"/>
</g>
<!-- Node21&#45;&gt;Node2 -->
<g id="edge23" class="edge">
<title>Node21&#45;&gt;Node2</title>
<path fill="none" stroke="midnightblue" d="M99.15,-56.32C86.78,-47.98 67.87,-35.21 53.26,-25.35"/>
<polygon fill="midnightblue" stroke="midnightblue" points="55.07,-22.35 44.82,-19.65 51.15,-28.15 55.07,-22.35"/>
</g>
<!-- Node21&#45;&gt;Node19 -->
<g id="edge24" class="edge">
<title>Node21&#45;&gt;Node19</title>
<path fill="none" stroke="midnightblue" d="M147.02,-56.44C185.25,-47.1 246.57,-32.12 288.26,-21.93"/>
<polygon fill="midnightblue" stroke="midnightblue" points="289.26,-25.29 298.15,-19.52 287.6,-18.49 289.26,-25.29"/>
</g>
<!-- Node22 -->
<g id="node22" class="node">
<title>Node22</title>
<g id="a_node22"><a xlink:title=" ">
<polygon fill="white" stroke="#bfbfbf" points="157.5,-0.5 157.5,-19.5 226.5,-19.5 226.5,-0.5 157.5,-0.5"/>
<text text-anchor="middle" x="192" y="-7.5" font-family="Helvetica,sans-Serif" font-size="10.00">Eigen/Core</text>
</a>
</g>
</g>
<!-- Node21&#45;&gt;Node22 -->
<g id="edge22" class="edge">
<title>Node21&#45;&gt;Node22</title>
<path fill="none" stroke="midnightblue" d="M124.85,-56.32C137.22,-47.98 156.13,-35.21 170.74,-25.35"/>
<polygon fill="midnightblue" stroke="midnightblue" points="172.85,-28.15 179.18,-19.65 168.93,-22.35 172.85,-28.15"/>
</g>
<!-- Node23 -->
<g id="node23" class="node">
<title>Node23</title>
<g id="a_node23"><a xlink:title=" ">
<polygon fill="white" stroke="#bfbfbf" points="83,-0.5 83,-19.5 139,-19.5 139,-0.5 83,-0.5"/>
<text text-anchor="middle" x="111" y="-7.5" font-family="Helvetica,sans-Serif" font-size="10.00">sstream</text>
</a>
</g>
</g>
<!-- Node21&#45;&gt;Node23 -->
<g id="edge25" class="edge">
<title>Node21&#45;&gt;Node23</title>
<path fill="none" stroke="midnightblue" d="M111.83,-56.08C111.7,-49.01 111.52,-38.86 111.35,-29.99"/>
<polygon fill="midnightblue" stroke="midnightblue" points="114.85,-29.68 111.16,-19.75 107.85,-29.81 114.85,-29.68"/>
</g>
<!-- Node25&#45;&gt;Node3 -->
<g id="edge27" class="edge">
<title>Node25&#45;&gt;Node3</title>
<path fill="none" stroke="midnightblue" d="M411,-56.08C411,-49.01 411,-38.86 411,-29.99"/>
<polygon fill="midnightblue" stroke="midnightblue" points="414.5,-29.75 411,-19.75 407.5,-29.75 414.5,-29.75"/>
</g>
<!-- Node25&#45;&gt;Node19 -->
<g id="edge28" class="edge">
<title>Node25&#45;&gt;Node19</title>
<path fill="none" stroke="midnightblue" d="M398.47,-56.32C386.41,-47.98 367.97,-35.21 353.73,-25.35"/>
<polygon fill="midnightblue" stroke="midnightblue" points="355.72,-22.47 345.5,-19.65 351.73,-28.22 355.72,-22.47"/>
</g>
<!-- Node29 -->
<g id="node25" class="node">
<title>Node29</title>
<g id="a_node25"><a xlink:title=" ">
<polygon fill="white" stroke="#bfbfbf" points="1348.5,-0.5 1348.5,-19.5 1395.5,-19.5 1395.5,-0.5 1348.5,-0.5"/>
<text text-anchor="middle" x="1372" y="-7.5" font-family="Helvetica,sans-Serif" font-size="10.00">vector</text>
</a>
</g>
</g>
<!-- Node25&#45;&gt;Node29 -->
<g id="edge29" class="edge">
<title>Node25&#45;&gt;Node29</title>
<path fill="none" stroke="midnightblue" d="M459.31,-62.29C628.82,-52.76 1193.99,-21 1338.25,-12.9"/>
<polygon fill="midnightblue" stroke="midnightblue" points="1338.49,-16.39 1348.28,-12.33 1338.1,-9.4 1338.49,-16.39"/>
</g>
<!-- Node30&#45;&gt;Node18 -->
<g id="edge36" class="edge">
<title>Node30&#45;&gt;Node18</title>
<path fill="none" stroke="midnightblue" d="M471.98,-184.94C428.55,-173.32 350.88,-152.54 302.86,-139.7"/>
<polygon fill="midnightblue" stroke="midnightblue" points="303.65,-136.29 293.09,-137.08 301.84,-143.05 303.65,-136.29"/>
</g>
<!-- Node31 -->
<g id="node27" class="node">
<title>Node31</title>
<g id="a_node27"><a xlink:title=" ">
<polygon fill="white" stroke="#bfbfbf" points="775,-112.5 775,-142.5 885,-142.5 885,-112.5 775,-112.5"/>
<text text-anchor="start" x="783" y="-130.5" font-family="Helvetica,sans-Serif" font-size="10.00">boost/preprocessor</text>
<text text-anchor="middle" x="830" y="-119.5" font-family="Helvetica,sans-Serif" font-size="10.00">/control/if.hpp</text>
</a>
</g>
</g>
<!-- Node30&#45;&gt;Node31 -->
<g id="edge31" class="edge">
<title>Node30&#45;&gt;Node31</title>
<path fill="none" stroke="midnightblue" d="M550.95,-184.93C601.4,-175.6 684.18,-160.01 765.02,-143.17"/>
<polygon fill="midnightblue" stroke="midnightblue" points="765.79,-146.58 774.87,-141.11 764.36,-139.73 765.79,-146.58"/>
</g>
<!-- Node32 -->
<g id="node28" class="node">
<title>Node32</title>
<g id="a_node28"><a xlink:title=" ">
<polygon fill="white" stroke="#bfbfbf" points="645.5,-112.5 645.5,-142.5 756.5,-142.5 756.5,-112.5 645.5,-112.5"/>
<text text-anchor="start" x="653.5" y="-130.5" font-family="Helvetica,sans-Serif" font-size="10.00">boost/preprocessor</text>
<text text-anchor="middle" x="701" y="-119.5" font-family="Helvetica,sans-Serif" font-size="10.00">/seq/for_each_i.hpp</text>
</a>
</g>
</g>
<!-- Node30&#45;&gt;Node32 -->
<g id="edge32" class="edge">
<title>Node30&#45;&gt;Node32</title>
<path fill="none" stroke="midnightblue" d="M530.16,-184.87C560.23,-174.95 610.35,-158.41 648.55,-145.81"/>
<polygon fill="midnightblue" stroke="midnightblue" points="650.08,-148.99 658.48,-142.53 647.89,-142.34 650.08,-148.99"/>
</g>
<!-- Node33 -->
<g id="node29" class="node">
<title>Node33</title>
<g id="a_node29"><a xlink:title=" ">
<polygon fill="white" stroke="#bfbfbf" points="903,-112.5 903,-142.5 1013,-142.5 1013,-112.5 903,-112.5"/>
<text text-anchor="start" x="911" y="-130.5" font-family="Helvetica,sans-Serif" font-size="10.00">boost/preprocessor</text>
<text text-anchor="middle" x="958" y="-119.5" font-family="Helvetica,sans-Serif" font-size="10.00">/stringize.hpp</text>
</a>
</g>
</g>
<!-- Node30&#45;&gt;Node33 -->
<g id="edge33" class="edge">
<title>Node30&#45;&gt;Node33</title>
<path fill="none" stroke="midnightblue" d="M553.28,-184.98C565.88,-182.91 579.43,-180.78 592,-179 722.56,-160.47 759.03,-165.69 892.69,-143.11"/>
<polygon fill="midnightblue" stroke="midnightblue" points="893.65,-146.5 902.92,-141.36 892.47,-139.6 893.65,-146.5"/>
</g>
<!-- Node34 -->
<g id="node30" class="node">
<title>Node34</title>
<g id="a_node30"><a xlink:title=" ">
<polygon fill="white" stroke="#bfbfbf" points="357.5,-112.5 357.5,-142.5 472.5,-142.5 472.5,-112.5 357.5,-112.5"/>
<text text-anchor="start" x="365.5" y="-130.5" font-family="Helvetica,sans-Serif" font-size="10.00">boost/preprocessor</text>
<text text-anchor="middle" x="415" y="-119.5" font-family="Helvetica,sans-Serif" font-size="10.00">/variadic/to_seq.hpp</text>
</a>
</g>
</g>
<!-- Node30&#45;&gt;Node34 -->
<g id="edge34" class="edge">
<title>Node30&#45;&gt;Node34</title>
<path fill="none" stroke="midnightblue" d="M492,-184.73C479.39,-175.53 459.13,-160.73 442.56,-148.63"/>
<polygon fill="midnightblue" stroke="midnightblue" points="444.43,-145.66 434.29,-142.59 440.3,-151.31 444.43,-145.66"/>
</g>
<!-- Node35 -->
<g id="node31" class="node">
<title>Node35</title>
<g id="a_node31"><a xlink:title=" ">
<polygon fill="white" stroke="#bfbfbf" points="491,-118 491,-137 627,-137 627,-118 491,-118"/>
<text text-anchor="middle" x="559" y="-125" font-family="Helvetica,sans-Serif" font-size="10.00">boost/vmd/is_empty.hpp</text>
</a>
</g>
</g>
<!-- Node30&#45;&gt;Node35 -->
<g id="edge35" class="edge">
<title>Node30&#45;&gt;Node35</title>
<path fill="none" stroke="midnightblue" d="M511.42,-184.73C519.99,-174.6 534.3,-157.69 544.99,-145.06"/>
<polygon fill="midnightblue" stroke="midnightblue" points="547.91,-147.02 551.7,-137.13 542.57,-142.5 547.91,-147.02"/>
</g>
<!-- Node37 -->
<g id="node33" class="node">
<title>Node37</title>
<g id="a_node33"><a xlink:href="Logger_8hpp.html" target="_top" xlink:title=" ">
<polygon fill="white" stroke="black" points="1236,-118 1236,-137 1306,-137 1306,-118 1236,-118"/>
<text text-anchor="middle" x="1271" y="-125" font-family="Helvetica,sans-Serif" font-size="10.00">Logger.hpp</text>
</a>
</g>
</g>
<!-- Node36&#45;&gt;Node37 -->
<g id="edge38" class="edge">
<title>Node36&#45;&gt;Node37</title>
<path fill="none" stroke="midnightblue" d="M688.66,-184.94C698.75,-182.75 709.77,-180.57 720,-179 906.47,-150.39 1131.11,-135.95 1225.62,-130.78"/>
<polygon fill="midnightblue" stroke="midnightblue" points="1225.89,-134.28 1235.69,-130.24 1225.51,-127.29 1225.89,-134.28"/>
</g>
<!-- Node37&#45;&gt;Node10 -->
<g id="edge39" class="edge">
<title>Node37&#45;&gt;Node10</title>
<path fill="none" stroke="midnightblue" d="M1271,-117.98C1271,-109.58 1271,-96.48 1271,-85.66"/>
<polygon fill="midnightblue" stroke="midnightblue" points="1274.5,-85.51 1271,-75.51 1267.5,-85.51 1274.5,-85.51"/>
</g>
<!-- Node37&#45;&gt;Node13 -->
<g id="edge40" class="edge">
<title>Node37&#45;&gt;Node13</title>
<path fill="none" stroke="midnightblue" d="M1306.24,-122.08C1395.02,-110.93 1626.89,-81.83 1712.57,-71.07"/>
<polygon fill="midnightblue" stroke="midnightblue" points="1713.25,-74.51 1722.74,-69.79 1712.38,-67.57 1713.25,-74.51"/>
</g>
<!-- Node37&#45;&gt;Node17 -->
<g id="edge41" class="edge">
<title>Node37&#45;&gt;Node17</title>
<path fill="none" stroke="midnightblue" d="M1235.77,-129.07C1160.17,-131.05 977.28,-139.85 830,-179 773.23,-194.09 711.03,-224.25 677.58,-241.7"/>
<polygon fill="midnightblue" stroke="midnightblue" points="675.76,-238.71 668.55,-246.47 679.03,-244.9 675.76,-238.71"/>
</g>
<!-- Node38&#45;&gt;Node13 -->
<g id="edge44" class="edge">
<title>Node38&#45;&gt;Node13</title>
<path fill="none" stroke="midnightblue" d="M1729.02,-251.85C1758.36,-247.05 1792.36,-235.8 1811,-210 1836.51,-174.69 1831.35,-150.51 1811,-112 1803.52,-97.85 1789.38,-87.32 1776.1,-80.01"/>
<polygon fill="midnightblue" stroke="midnightblue" points="1777.64,-76.87 1767.13,-75.47 1774.47,-83.11 1777.64,-76.87"/>
</g>
<!-- Node39 -->
<g id="node35" class="node">
<title>Node39</title>
<g id="a_node35"><a xlink:title=" ">
<polygon fill="white" stroke="#bfbfbf" points="1858,-185 1858,-204 1908,-204 1908,-185 1858,-185"/>
<text text-anchor="middle" x="1883" y="-192" font-family="Helvetica,sans-Serif" font-size="10.00">chrono</text>
</a>
</g>
</g>
<!-- Node38&#45;&gt;Node39 -->
<g id="edge43" class="edge">
<title>Node38&#45;&gt;Node39</title>
<path fill="none" stroke="midnightblue" d="M1711.22,-246.42C1745.64,-238.02 1798.72,-224.41 1844,-210 1846.56,-209.19 1849.19,-208.3 1851.83,-207.39"/>
<polygon fill="midnightblue" stroke="midnightblue" points="1853.04,-210.68 1861.26,-204 1850.67,-204.09 1853.04,-210.68"/>
</g>
<!-- Node40 -->
<g id="node36" class="node">
<title>Node40</title>
<g id="a_node36"><a xlink:title=" ">
<polygon fill="white" stroke="#bfbfbf" points="1732.5,-185 1732.5,-204 1801.5,-204 1801.5,-185 1732.5,-185"/>
<text text-anchor="middle" x="1767" y="-192" font-family="Helvetica,sans-Serif" font-size="10.00">type_traits</text>
</a>
</g>
</g>
<!-- Node38&#45;&gt;Node40 -->
<g id="edge45" class="edge">
<title>Node38&#45;&gt;Node40</title>
<path fill="none" stroke="midnightblue" d="M1688.18,-246.48C1703.07,-236.84 1727.54,-221.02 1745.27,-209.55"/>
<polygon fill="midnightblue" stroke="midnightblue" points="1747.35,-212.38 1753.84,-204.01 1743.55,-206.5 1747.35,-212.38"/>
</g>
<!-- Node41&#45;&gt;Node7 -->
<g id="edge49" class="edge">
<title>Node41&#45;&gt;Node7</title>
<path fill="none" stroke="midnightblue" d="M1715.58,-302.44C1672.08,-293.44 1601.71,-278.83 1541,-266 1539.54,-265.69 1538.05,-265.38 1536.55,-265.06"/>
<polygon fill="midnightblue" stroke="midnightblue" points="1537.07,-261.59 1526.56,-262.93 1535.61,-268.44 1537.07,-261.59"/>
</g>
<!-- Node41&#45;&gt;Node11 -->
<g id="edge51" class="edge">
<title>Node41&#45;&gt;Node11</title>
<path fill="none" stroke="midnightblue" d="M1802.2,-302.45C1848.8,-293.58 1923.55,-279.18 1988,-266 1989.23,-265.75 1990.49,-265.49 1991.75,-265.23"/>
<polygon fill="midnightblue" stroke="midnightblue" points="1992.48,-268.65 2001.55,-263.17 1991.04,-261.8 1992.48,-268.65"/>
</g>
<!-- Node41&#45;&gt;Node13 -->
<g id="edge52" class="edge">
<title>Node41&#45;&gt;Node13</title>
<path fill="none" stroke="midnightblue" d="M1813.61,-302.44C1854.37,-294.98 1904.32,-282.73 1917,-266 1940.35,-235.18 1933.97,-213.74 1917,-179 1889.47,-122.65 1818.5,-90.85 1776.83,-76.47"/>
<polygon fill="midnightblue" stroke="midnightblue" points="1777.76,-73.09 1767.17,-73.27 1775.56,-79.73 1777.76,-73.09"/>
</g>
<!-- Node41&#45;&gt;Node16 -->
<g id="edge53" class="edge">
<title>Node41&#45;&gt;Node16</title>
<path fill="none" stroke="midnightblue" d="M1822.75,-303.97C1883.59,-296.89 1976.65,-284.63 2066.55,-265.84"/>
<polygon fill="midnightblue" stroke="midnightblue" points="2067.31,-269.26 2076.36,-263.76 2065.86,-262.41 2067.31,-269.26"/>
</g>
<!-- Node41&#45;&gt;Node29 -->
<g id="edge55" class="edge">
<title>Node41&#45;&gt;Node29</title>
<path fill="none" stroke="midnightblue" d="M1822.51,-302.92C1867.57,-295.88 1921.75,-283.94 1936,-266 1980.75,-209.65 1941.25,-158.11 1886,-112 1843.88,-76.85 1828.55,-71.74 1776,-56 1643.21,-16.24 1476.36,-11 1405.89,-10.72"/>
<polygon fill="midnightblue" stroke="midnightblue" points="1405.82,-7.22 1395.81,-10.71 1405.81,-14.22 1405.82,-7.22"/>
</g>
<!-- Node41&#45;&gt;Node37 -->
<g id="edge56" class="edge">
<title>Node41&#45;&gt;Node37</title>
<path fill="none" stroke="midnightblue" d="M1723.83,-302.46C1692.05,-294.04 1642.86,-280.37 1601,-266 1537.62,-244.24 1518.74,-244.02 1461,-210 1442.22,-198.94 1442.12,-189.46 1423,-179 1377.86,-154.33 1361.76,-159.39 1313,-143 1310.42,-142.13 1307.74,-141.23 1305.06,-140.31"/>
<polygon fill="midnightblue" stroke="midnightblue" points="1306,-136.93 1295.41,-137 1303.73,-143.56 1306,-136.93"/>
</g>
<!-- Node41&#45;&gt;Node38 -->
<g id="edge57" class="edge">
<title>Node41&#45;&gt;Node38</title>
<path fill="none" stroke="midnightblue" d="M1743.83,-302.32C1731.15,-293.98 1711.77,-281.21 1696.79,-271.35"/>
<polygon fill="midnightblue" stroke="midnightblue" points="1698.42,-268.23 1688.14,-265.65 1694.57,-274.08 1698.42,-268.23"/>
</g>
<!-- Node41&#45;&gt;Node39 -->
<g id="edge47" class="edge">
<title>Node41&#45;&gt;Node39</title>
<path fill="none" stroke="midnightblue" d="M1757.49,-302.37C1758.68,-288.83 1762.8,-262.44 1777,-246 1787.15,-234.25 1822.74,-218.61 1849.9,-207.86"/>
<polygon fill="midnightblue" stroke="midnightblue" points="1851.42,-211.03 1859.47,-204.14 1848.88,-204.51 1851.42,-211.03"/>
</g>
<!-- Node42 -->
<g id="node38" class="node">
<title>Node42</title>
<g id="a_node38"><a xlink:title=" ">
<polygon fill="white" stroke="#bfbfbf" points="1854.5,-246.5 1854.5,-265.5 1907.5,-265.5 1907.5,-246.5 1854.5,-246.5"/>
<text text-anchor="middle" x="1881" y="-253.5" font-family="Helvetica,sans-Serif" font-size="10.00">cstddef</text>
</a>
</g>
</g>
<!-- Node41&#45;&gt;Node42 -->
<g id="edge48" class="edge">
<title>Node41&#45;&gt;Node42</title>
<path fill="none" stroke="midnightblue" d="M1776.65,-302.44C1796.96,-293.6 1828.9,-279.69 1852.1,-269.59"/>
<polygon fill="midnightblue" stroke="midnightblue" points="1853.67,-272.72 1861.44,-265.52 1850.88,-266.3 1853.67,-272.72"/>
</g>
<!-- Node43 -->
<g id="node39" class="node">
<title>Node43</title>
<g id="a_node39"><a xlink:title=" ">
<polygon fill="white" stroke="#bfbfbf" points="1622,-118 1622,-137 1670,-137 1670,-118 1622,-118"/>
<text text-anchor="middle" x="1646" y="-125" font-family="Helvetica,sans-Serif" font-size="10.00">iosfwd</text>
</a>
</g>
</g>
<!-- Node41&#45;&gt;Node43 -->
<g id="edge50" class="edge">
<title>Node41&#45;&gt;Node43</title>
<path fill="none" stroke="midnightblue" d="M1691.36,-307.57C1662.15,-302.36 1630.29,-290.83 1612,-266 1581.08,-224.03 1664.47,-243.01 1685,-210 1698.45,-188.36 1679.14,-161.38 1663.22,-144.54"/>
<polygon fill="midnightblue" stroke="midnightblue" points="1665.38,-141.75 1655.83,-137.15 1660.43,-146.7 1665.38,-141.75"/>
</g>
<!-- Node44 -->
<g id="node40" class="node">
<title>Node44</title>
<g id="a_node40"><a xlink:title=" ">
<polygon fill="white" stroke="#bfbfbf" points="1785.5,-246.5 1785.5,-265.5 1836.5,-265.5 1836.5,-246.5 1785.5,-246.5"/>
<text text-anchor="middle" x="1811" y="-253.5" font-family="Helvetica,sans-Serif" font-size="10.00">variant</text>
</a>
</g>
</g>
<!-- Node41&#45;&gt;Node44 -->
<g id="edge54" class="edge">
<title>Node41&#45;&gt;Node44</title>
<path fill="none" stroke="midnightblue" d="M1765.92,-302.08C1773.78,-294.22 1785.43,-282.57 1794.92,-273.08"/>
<polygon fill="midnightblue" stroke="midnightblue" points="1797.65,-275.3 1802.25,-265.75 1792.7,-270.35 1797.65,-275.3"/>
</g>
<!-- Node41&#45;&gt;Node45 -->
<g id="edge58" class="edge">
<title>Node41&#45;&gt;Node45</title>
<path fill="none" stroke="midnightblue" d="M1691.49,-304.86C1579.97,-294.4 1354.67,-273.28 1244.52,-262.96"/>
<polygon fill="midnightblue" stroke="midnightblue" points="1244.84,-259.47 1234.55,-262.02 1244.18,-266.44 1244.84,-259.47"/>
</g>
<!-- Node45&#45;&gt;Node5 -->
<g id="edge78" class="edge">
<title>Node45&#45;&gt;Node5</title>
<path fill="none" stroke="midnightblue" d="M1234.52,-253.55C1316.38,-250.41 1477.17,-240.56 1610,-210 1613.24,-209.25 1616.58,-208.32 1619.88,-207.29"/>
<polygon fill="midnightblue" stroke="midnightblue" points="1621.19,-210.54 1629.53,-204 1618.93,-203.92 1621.19,-210.54"/>
</g>
<!-- Node45&#45;&gt;Node18 -->
<g id="edge61" class="edge">
<title>Node45&#45;&gt;Node18</title>
<path fill="none" stroke="midnightblue" d="M1127.28,-253.39C964.55,-248.3 484.07,-231.59 417,-210 392.47,-202.1 390.58,-191.41 368,-179 342.4,-164.93 312.22,-150.91 290.45,-141.22"/>
<polygon fill="midnightblue" stroke="midnightblue" points="291.65,-137.92 281.09,-137.09 288.82,-144.33 291.65,-137.92"/>
</g>
<!-- Node45&#45;&gt;Node30 -->
<g id="edge67" class="edge">
<title>Node45&#45;&gt;Node30</title>
<path fill="none" stroke="midnightblue" d="M1127.25,-252.46C1023.49,-247.22 788.51,-233.65 592,-210 581.97,-208.79 571.33,-207.26 561.06,-205.64"/>
<polygon fill="midnightblue" stroke="midnightblue" points="561.36,-202.15 550.93,-204.01 560.25,-209.06 561.36,-202.15"/>
</g>
<!-- Node45&#45;&gt;Node31 -->
<g id="edge64" class="edge">
<title>Node45&#45;&gt;Node31</title>
<path fill="none" stroke="midnightblue" d="M1127.32,-252.21C1031.27,-246.66 838.13,-232.78 818,-210 804.18,-194.36 810.02,-170.06 817.59,-152.06"/>
<polygon fill="midnightblue" stroke="midnightblue" points="820.85,-153.35 821.87,-142.8 814.5,-150.41 820.85,-153.35"/>
</g>
<!-- Node45&#45;&gt;Node33 -->
<g id="edge65" class="edge">
<title>Node45&#45;&gt;Node33</title>
<path fill="none" stroke="midnightblue" d="M1127.25,-251.96C1033.77,-246.12 849.3,-231.94 830,-210 804.68,-181.22 849.49,-158.83 892.89,-144.86"/>
<polygon fill="midnightblue" stroke="midnightblue" points="894.16,-148.13 902.68,-141.84 892.09,-141.44 894.16,-148.13"/>
</g>
<!-- Node46 -->
<g id="node42" class="node">
<title>Node46</title>
<g id="a_node42"><a xlink:title=" ">
<polygon fill="white" stroke="#bfbfbf" points="1120.5,-185 1120.5,-204 1169.5,-204 1169.5,-185 1120.5,-185"/>
<text text-anchor="middle" x="1145" y="-192" font-family="Helvetica,sans-Serif" font-size="10.00">cstdlib</text>
</a>
</g>
</g>
<!-- Node45&#45;&gt;Node46 -->
<g id="edge59" class="edge">
<title>Node45&#45;&gt;Node46</title>
<path fill="none" stroke="midnightblue" d="M1175.84,-246.48C1170.55,-237.73 1162.16,-223.87 1155.47,-212.81"/>
<polygon fill="midnightblue" stroke="midnightblue" points="1158.32,-210.75 1150.15,-204.01 1152.33,-214.38 1158.32,-210.75"/>
</g>
<!-- Node47 -->
<g id="node43" class="node">
<title>Node47</title>
<g id="a_node43"><a xlink:title=" ">
<polygon fill="white" stroke="#bfbfbf" points="1188,-185 1188,-204 1248,-204 1248,-185 1188,-185"/>
<text text-anchor="middle" x="1218" y="-192" font-family="Helvetica,sans-Serif" font-size="10.00">iostream</text>
</a>
</g>
</g>
<!-- Node45&#45;&gt;Node47 -->
<g id="edge60" class="edge">
<title>Node45&#45;&gt;Node47</title>
<path fill="none" stroke="midnightblue" d="M1186.3,-246.48C1191.74,-237.73 1200.36,-223.87 1207.24,-212.81"/>
<polygon fill="midnightblue" stroke="midnightblue" points="1210.4,-214.35 1212.71,-204.01 1204.46,-210.65 1210.4,-214.35"/>
</g>
<!-- Node48 -->
<g id="node44" class="node">
<title>Node48</title>
<g id="a_node44"><a xlink:title=" ">
<polygon fill="white" stroke="#bfbfbf" points="1266.5,-185 1266.5,-204 1413.5,-204 1413.5,-185 1266.5,-185"/>
<text text-anchor="middle" x="1340" y="-192" font-family="Helvetica,sans-Serif" font-size="10.00">boost/current_function.hpp</text>
</a>
</g>
</g>
<!-- Node45&#45;&gt;Node48 -->
<g id="edge62" class="edge">
<title>Node45&#45;&gt;Node48</title>
<path fill="none" stroke="midnightblue" d="M1203.78,-246.48C1231.05,-236.27 1276.91,-219.11 1307.8,-207.55"/>
<polygon fill="midnightblue" stroke="midnightblue" points="1309.12,-210.79 1317.26,-204.01 1306.67,-204.24 1309.12,-210.79"/>
</g>
<!-- Node49 -->
<g id="node45" class="node">
<title>Node49</title>
<g id="a_node45"><a xlink:title=" ">
<polygon fill="white" stroke="#bfbfbf" points="838.5,-179.5 838.5,-209.5 973.5,-209.5 973.5,-179.5 838.5,-179.5"/>
<text text-anchor="start" x="846.5" y="-197.5" font-family="Helvetica,sans-Serif" font-size="10.00">boost/preprocessor</text>
<text text-anchor="middle" x="906" y="-186.5" font-family="Helvetica,sans-Serif" font-size="10.00">/comparison/greater.hpp</text>
</a>
</g>
</g>
<!-- Node45&#45;&gt;Node49 -->
<g id="edge63" class="edge">
<title>Node45&#45;&gt;Node49</title>
<path fill="none" stroke="midnightblue" d="M1141.6,-246.48C1099.74,-237.42 1032.58,-222.89 980.65,-211.65"/>
<polygon fill="midnightblue" stroke="midnightblue" points="981.33,-208.22 970.81,-209.52 979.85,-215.06 981.33,-208.22"/>
</g>
<!-- Node50 -->
<g id="node46" class="node">
<title>Node50</title>
<g id="a_node46"><a xlink:title=" ">
<polygon fill="white" stroke="#bfbfbf" points="992,-179.5 992,-209.5 1102,-209.5 1102,-179.5 992,-179.5"/>
<text text-anchor="start" x="1000" y="-197.5" font-family="Helvetica,sans-Serif" font-size="10.00">boost/preprocessor</text>
<text text-anchor="middle" x="1047" y="-186.5" font-family="Helvetica,sans-Serif" font-size="10.00">/variadic/size.hpp</text>
</a>
</g>
</g>
<!-- Node45&#45;&gt;Node50 -->
<g id="edge66" class="edge">
<title>Node45&#45;&gt;Node50</title>
<path fill="none" stroke="midnightblue" d="M1161.8,-246.48C1142.63,-237.96 1112.58,-224.62 1088.03,-213.72"/>
<polygon fill="midnightblue" stroke="midnightblue" points="1089.14,-210.38 1078.58,-209.52 1086.3,-216.78 1089.14,-210.38"/>
</g>
<!-- Node51 -->
<g id="node47" class="node">
<title>Node51</title>
<g id="a_node47"><a xlink:href="Parallel_8hpp.html" target="_top" xlink:title=" ">
<polygon fill="white" stroke="black" points="1470,-185 1470,-204 1568,-204 1568,-185 1470,-185"/>
<text text-anchor="middle" x="1519" y="-192" font-family="Helvetica,sans-Serif" font-size="10.00">utils/Parallel.hpp</text>
</a>
</g>
</g>
<!-- Node45&#45;&gt;Node51 -->
<g id="edge68" class="edge">
<title>Node45&#45;&gt;Node51</title>
<path fill="none" stroke="midnightblue" d="M1229.43,-246.48C1290.42,-235.74 1395.13,-217.31 1460.52,-205.79"/>
<polygon fill="midnightblue" stroke="midnightblue" points="1461.42,-209.19 1470.66,-204.01 1460.21,-202.3 1461.42,-209.19"/>
</g>
<!-- Node54 -->
<g id="node50" class="node">
<title>Node54</title>
<g id="a_node50"><a xlink:href="stacktrace_8hpp.html" target="_top" xlink:title=" ">
<polygon fill="white" stroke="black" points="1688.5,-118 1688.5,-137 1801.5,-137 1801.5,-118 1688.5,-118"/>
<text text-anchor="middle" x="1745" y="-125" font-family="Helvetica,sans-Serif" font-size="10.00">utils/stacktrace.hpp</text>
</a>
</g>
</g>
<!-- Node45&#45;&gt;Node54 -->
<g id="edge76" class="edge">
<title>Node45&#45;&gt;Node54</title>
<path fill="none" stroke="midnightblue" d="M1234.68,-252.64C1328.13,-247.91 1516.5,-235.49 1577,-210 1597.09,-201.54 1596.17,-189.97 1615,-179 1643.76,-162.25 1679.11,-148.93 1705.68,-140.18"/>
<polygon fill="midnightblue" stroke="midnightblue" points="1706.96,-143.45 1715.4,-137.06 1704.81,-136.79 1706.96,-143.45"/>
</g>
<!-- Node51&#45;&gt;Node10 -->
<g id="edge70" class="edge">
<title>Node51&#45;&gt;Node10</title>
<path fill="none" stroke="midnightblue" d="M1486.17,-184.92C1445.86,-174.1 1380.1,-155.39 1358,-143 1329.29,-126.9 1301.63,-100.2 1285.47,-83.12"/>
<polygon fill="midnightblue" stroke="midnightblue" points="1287.87,-80.55 1278.52,-75.59 1282.73,-85.31 1287.87,-80.55"/>
</g>
<!-- Node51&#45;&gt;Node13 -->
<g id="edge71" class="edge">
<title>Node51&#45;&gt;Node13</title>
<path fill="none" stroke="midnightblue" d="M1528.52,-184.88C1550.48,-165.04 1603.54,-117.43 1613,-112 1644.83,-93.71 1685.27,-81.3 1712.94,-74.22"/>
<polygon fill="midnightblue" stroke="midnightblue" points="1714.01,-77.56 1722.88,-71.77 1712.33,-70.77 1714.01,-77.56"/>
</g>
<!-- Node51&#45;&gt;Node29 -->
<g id="edge72" class="edge">
<title>Node51&#45;&gt;Node29</title>
<path fill="none" stroke="midnightblue" d="M1487.79,-184.97C1454.31,-175.18 1404.29,-158.47 1392,-143 1365.77,-109.98 1366.72,-57.23 1369.47,-29.46"/>
<polygon fill="midnightblue" stroke="midnightblue" points="1372.94,-29.87 1370.64,-19.53 1365.99,-29.05 1372.94,-29.87"/>
</g>
<!-- Node51&#45;&gt;Node37 -->
<g id="edge73" class="edge">
<title>Node51&#45;&gt;Node37</title>
<path fill="none" stroke="midnightblue" d="M1483.66,-184.98C1443.79,-175.26 1377.05,-158.67 1320,-143 1316.41,-142.01 1312.68,-140.96 1308.95,-139.89"/>
<polygon fill="midnightblue" stroke="midnightblue" points="1309.77,-136.48 1299.19,-137.05 1307.81,-143.2 1309.77,-136.48"/>
</g>
<!-- Node51&#45;&gt;Node43 -->
<g id="edge69" class="edge">
<title>Node51&#45;&gt;Node43</title>
<path fill="none" stroke="midnightblue" d="M1535.86,-184.87C1557.4,-173.84 1594.9,-154.66 1620.08,-141.77"/>
<polygon fill="midnightblue" stroke="midnightblue" points="1621.76,-144.84 1629.07,-137.17 1618.57,-138.61 1621.76,-144.84"/>
</g>
<!-- Node52 -->
<g id="node48" class="node">
<title>Node52</title>
<g id="a_node48"><a xlink:href="types_8hpp.html" target="_top" xlink:title=" ">
<polygon fill="white" stroke="black" points="1400.5,-118 1400.5,-137 1503.5,-137 1503.5,-118 1400.5,-118"/>
<text text-anchor="middle" x="1452" y="-125" font-family="Helvetica,sans-Serif" font-size="10.00">precice/types.hpp</text>
</a>
</g>
</g>
<!-- Node51&#45;&gt;Node52 -->
<g id="edge74" class="edge">
<title>Node51&#45;&gt;Node52</title>
<path fill="none" stroke="midnightblue" d="M1509.96,-184.73C1499.32,-174.4 1481.42,-157.04 1468.32,-144.33"/>
<polygon fill="midnightblue" stroke="midnightblue" points="1470.51,-141.58 1460.89,-137.13 1465.63,-146.6 1470.51,-141.58"/>
</g>
<!-- Node53 -->
<g id="node49" class="node">
<title>Node53</title>
<g id="a_node49"><a xlink:title=" ">
<polygon fill="white" stroke="#bfbfbf" points="1522,-118 1522,-137 1566,-137 1566,-118 1522,-118"/>
<text text-anchor="middle" x="1544" y="-125" font-family="Helvetica,sans-Serif" font-size="10.00">mpi.h</text>
</a>
</g>
</g>
<!-- Node51&#45;&gt;Node53 -->
<g id="edge75" class="edge">
<title>Node51&#45;&gt;Node53</title>
<path fill="none" stroke="midnightblue" d="M1522.37,-184.73C1526.12,-174.99 1532.28,-158.98 1537.06,-146.53"/>
<polygon fill="midnightblue" stroke="midnightblue" points="1540.36,-147.72 1540.68,-137.13 1533.83,-145.2 1540.36,-147.72"/>
</g>
<!-- Node54&#45;&gt;Node13 -->
<g id="edge77" class="edge">
<title>Node54&#45;&gt;Node13</title>
<path fill="none" stroke="midnightblue" d="M1745,-117.98C1745,-109.58 1745,-96.48 1745,-85.66"/>
<polygon fill="midnightblue" stroke="midnightblue" points="1748.5,-85.51 1745,-75.51 1741.5,-85.51 1748.5,-85.51"/>
</g>
</g>
</svg>
