<?xml version="1.0" encoding="UTF-8" standalone="no"?>
<!DOCTYPE svg PUBLIC "-//W3C//DTD SVG 1.1//EN"
 "http://www.w3.org/Graphics/SVG/1.1/DTD/svg11.dtd">
<!-- Generated by graphviz version 2.43.0 (0)
 -->
<!-- Title: BOOST_AUTO_TEST_CASE Pages: 1 -->
<!--zoomable 1070 -->
<svg id="main" version="1.1" xmlns="http://www.w3.org/2000/svg" xmlns:xlink="http://www.w3.org/1999/xlink" xml:space="preserve" onload="init(evt)">
<style type="text/css"><![CDATA[
.edge:hover path { stroke: red; }
.edge:hover polygon { stroke: red; fill: red; }
]]></style>
<script type="text/javascript"><![CDATA[
var edges = document.getElementsByTagName('g');
if (edges && edges.length) {
  for (var i=0;i<edges.length;i++) {
    if (edges[i].id.substr(0,4)=='edge') {
      edges[i].setAttribute('class','edge');
    }
  }
}
]]></script>
        <defs>
                <circle id="rim" cx="0" cy="0" r="7"/>
                <circle id="rim2" cx="0" cy="0" r="3.5"/>
                <g id="zoomPlus">
                        <use xlink:href="#rim" fill="#404040">
                                <set attributeName="fill" to="#808080" begin="zoomplus.mouseover" end="zoomplus.mouseout"/>
                        </use>
                        <path d="M-4,0h8M0,-4v8" fill="none" stroke="white" stroke-width="1.5" pointer-events="none"/>
                </g>
                <g id="zoomMin">
                        <use xlink:href="#rim" fill="#404040">
                                <set attributeName="fill" to="#808080" begin="zoomminus.mouseover" end="zoomminus.mouseout"/>
                        </use>
                        <path d="M-4,0h8" fill="none" stroke="white" stroke-width="1.5" pointer-events="none"/>
                </g>
                <g id="dirArrow">
                        <path fill="none" stroke="white" stroke-width="1.5" d="M0,-3.0v7 M-2.5,-0.5L0,-3.0L2.5,-0.5"/>
                </g>
               <g id="resetDef">
                       <use xlink:href="#rim2" fill="#404040">
                               <set attributeName="fill" to="#808080" begin="reset.mouseover" end="reset.mouseout"/>
                       </use>
               </g>
        </defs>

<script type="text/javascript">
var viewWidth = 790;
var viewHeight = 1070;
var sectionId = 'dynsection-1';
</script>
<script xlink:href="svgpan.js"/>
<svg id="graph" class="graph">
<g id="viewport">
<title>BOOST_AUTO_TEST_CASE</title>
<polygon fill="white" stroke="transparent" points="-4,4 -4,-1066 786,-1066 786,4 -4,4"/>
<!-- Node1 -->
<g id="node1" class="node">
<title>Node1</title>
<g id="a_node1"><a xlink:title="Test that runs on 2 processors.">
<polygon fill="#bfbfbf" stroke="black" points="0,-915 0,-934 143,-934 143,-915 0,-915"/>
<text text-anchor="middle" x="71.5" y="-922" font-family="Helvetica,sans-Serif" font-size="10.00">BOOST_AUTO_TEST_CASE</text>
</a>
</g>
</g>
<!-- Node2 -->
<g id="node2" class="node">
<title>Node2</title>
<g id="a_node2"><a xlink:href="namespaceprecice_1_1xml.html#af9f808fbdf078c4e28e4f5ea71b14788" target="_top" xlink:title="Configures the given configuration from file configurationFilename.">
<polygon fill="white" stroke="black" points="208,-989 208,-1008 336,-1008 336,-989 208,-989"/>
<text text-anchor="middle" x="272" y="-996" font-family="Helvetica,sans-Serif" font-size="10.00">precice::xml::configure</text>
</a>
</g>
</g>
<!-- Node1&#45;&gt;Node2 -->
<g id="edge1" class="edge">
<title>Node1&#45;&gt;Node2</title>
<path fill="none" stroke="midnightblue" d="M87.77,-934.1C107.93,-946.35 144.87,-967.42 179,-979.5 186.54,-982.17 194.57,-984.51 202.63,-986.56"/>
<polygon fill="midnightblue" stroke="midnightblue" points="201.89,-989.98 212.43,-988.91 203.52,-983.17 201.89,-989.98"/>
</g>
<!-- Node5 -->
<g id="node5" class="node">
<title>Node5</title>
<g id="a_node5"><a xlink:href="classprecice_1_1cplscheme_1_1CouplingSchemeConfiguration.html#a0ed3c97d33c092d6c81f0840895207f5" target="_top" xlink:title="Returns the configured coupling scheme.">
<polygon fill="white" stroke="black" points="187,-929 187,-970 357,-970 357,-929 187,-929"/>
<text text-anchor="start" x="195" y="-958" font-family="Helvetica,sans-Serif" font-size="10.00">precice::cplscheme</text>
<text text-anchor="start" x="195" y="-947" font-family="Helvetica,sans-Serif" font-size="10.00">::CouplingSchemeConfiguration</text>
<text text-anchor="middle" x="272" y="-936" font-family="Helvetica,sans-Serif" font-size="10.00">::getCouplingScheme</text>
</a>
</g>
</g>
<!-- Node1&#45;&gt;Node5 -->
<g id="edge4" class="edge">
<title>Node1&#45;&gt;Node5</title>
<path fill="none" stroke="midnightblue" d="M143.04,-933.38C153.99,-934.76 165.44,-936.21 176.81,-937.64"/>
<polygon fill="midnightblue" stroke="midnightblue" points="176.4,-941.11 186.76,-938.89 177.28,-934.17 176.4,-941.11"/>
</g>
<!-- Node7 -->
<g id="node7" class="node">
<title>Node7</title>
<g id="a_node7"><a xlink:href="namespaceprecice_1_1xml.html#a44dd973bd070a46334fae66b7f392264" target="_top" xlink:title="Returns an XMLTag::Listener that does nothing on callbacks.">
<polygon fill="white" stroke="black" points="203.5,-891 203.5,-910 340.5,-910 340.5,-891 203.5,-891"/>
<text text-anchor="middle" x="272" y="-898" font-family="Helvetica,sans-Serif" font-size="10.00">precice::xml::getRootTag</text>
</a>
</g>
</g>
<!-- Node1&#45;&gt;Node7 -->
<g id="edge6" class="edge">
<title>Node1&#45;&gt;Node7</title>
<path fill="none" stroke="midnightblue" d="M143.04,-915.97C159.28,-914.01 176.65,-911.91 193.18,-909.91"/>
<polygon fill="midnightblue" stroke="midnightblue" points="193.84,-913.35 203.35,-908.68 193,-906.41 193.84,-913.35"/>
</g>
<!-- Node8 -->
<g id="node8" class="node">
<title>Node8</title>
<g id="a_node8"><a xlink:href="ExplicitCouplingSchemeTest_8cpp.html#af5729a1c00d22bebcd88ac47cc1c0724" target="_top" xlink:title=" ">
<polygon fill="white" stroke="black" points="179,-493 179,-512 365,-512 365,-493 179,-493"/>
<text text-anchor="middle" x="272" y="-500" font-family="Helvetica,sans-Serif" font-size="10.00">runExplicitCouplingWithSubcycling</text>
</a>
</g>
</g>
<!-- Node1&#45;&gt;Node8 -->
<g id="edge7" class="edge">
<title>Node1&#45;&gt;Node8</title>
<path fill="none" stroke="midnightblue" d="M77.02,-914.89C102.38,-860.99 227.07,-595.88 261.93,-521.78"/>
<polygon fill="midnightblue" stroke="midnightblue" points="265.31,-522.82 266.4,-512.28 258.98,-519.84 265.31,-522.82"/>
</g>
<!-- Node3 -->
<g id="node3" class="node">
<title>Node3</title>
<g id="a_node3"><a xlink:href="classprecice_1_1xml_1_1XMLTag.html#af81dc6eea2b9a75e14ddd6033ed9a1d4" target="_top" xlink:title="Adds an XML tag as subtag by making a copy of the given tag.">
<polygon fill="white" stroke="black" points="453,-1031.5 453,-1061.5 572,-1061.5 572,-1031.5 453,-1031.5"/>
<text text-anchor="start" x="461" y="-1049.5" font-family="Helvetica,sans-Serif" font-size="10.00">precice::xml::XMLTag</text>
<text text-anchor="middle" x="512.5" y="-1038.5" font-family="Helvetica,sans-Serif" font-size="10.00">::addSubtag</text>
</a>
</g>
</g>
<!-- Node2&#45;&gt;Node3 -->
<g id="edge2" class="edge">
<title>Node2&#45;&gt;Node3</title>
<path fill="none" stroke="midnightblue" d="M320.41,-1008.04C355.4,-1015.08 403.55,-1024.77 442.76,-1032.66"/>
<polygon fill="midnightblue" stroke="midnightblue" points="442.29,-1036.14 452.78,-1034.68 443.67,-1029.28 442.29,-1036.14"/>
</g>
<!-- Node4 -->
<g id="node4" class="node">
<title>Node4</title>
<g id="a_node4"><a xlink:href="classprecice_1_1xml_1_1XMLTag.html#aa90f7a05aeab6f674ee1499a84a8bb2e" target="_top" xlink:title="Returns full name consisting of xml namespace + &quot;:&quot; + name.">
<polygon fill="white" stroke="black" points="453,-982.5 453,-1012.5 572,-1012.5 572,-982.5 453,-982.5"/>
<text text-anchor="start" x="461" y="-1000.5" font-family="Helvetica,sans-Serif" font-size="10.00">precice::xml::XMLTag</text>
<text text-anchor="middle" x="512.5" y="-989.5" font-family="Helvetica,sans-Serif" font-size="10.00">::getFullName</text>
</a>
</g>
</g>
<!-- Node2&#45;&gt;Node4 -->
<g id="edge3" class="edge">
<title>Node2&#45;&gt;Node4</title>
<path fill="none" stroke="midnightblue" d="M336.29,-998.23C369.05,-998.1 409.11,-997.93 442.65,-997.79"/>
<polygon fill="midnightblue" stroke="midnightblue" points="442.85,-1001.29 452.83,-997.75 442.82,-994.29 442.85,-1001.29"/>
</g>
<!-- Node6 -->
<g id="node6" class="node">
<title>Node6</title>
<g id="a_node6"><a xlink:href="namespaceprecice_1_1utils.html#a434eabaa71f97a31726281a4df77bbcf" target="_top" xlink:title="Returns true, if given element is in vector, otherwise false.">
<polygon fill="white" stroke="black" points="446,-942 446,-961 579,-961 579,-942 446,-942"/>
<text text-anchor="middle" x="512.5" y="-949" font-family="Helvetica,sans-Serif" font-size="10.00">precice::utils::contained</text>
</a>
</g>
</g>
<!-- Node5&#45;&gt;Node6 -->
<g id="edge5" class="edge">
<title>Node5&#45;&gt;Node6</title>
<path fill="none" stroke="midnightblue" d="M357.09,-950.21C382.66,-950.42 410.61,-950.65 435.62,-950.86"/>
<polygon fill="midnightblue" stroke="midnightblue" points="435.74,-954.36 445.77,-950.95 435.8,-947.36 435.74,-954.36"/>
</g>
<!-- Node9 -->
<g id="node9" class="node">
<title>Node9</title>
<g id="a_node9"><a xlink:href="classprecice_1_1cplscheme_1_1CouplingScheme.html#a3d4ee03296627ef95f1dc27cc3381bd2" target="_top" xlink:title="Adds newly computed time. Has to be called before every advance.">
<polygon fill="white" stroke="black" points="411,-892.5 411,-922.5 614,-922.5 614,-892.5 411,-892.5"/>
<text text-anchor="start" x="419" y="-910.5" font-family="Helvetica,sans-Serif" font-size="10.00">precice::cplscheme</text>
<text text-anchor="middle" x="512.5" y="-899.5" font-family="Helvetica,sans-Serif" font-size="10.00">::CouplingScheme::addComputedTime</text>
</a>
</g>
</g>
<!-- Node8&#45;&gt;Node9 -->
<g id="edge8" class="edge">
<title>Node8&#45;&gt;Node9</title>
<path fill="none" stroke="midnightblue" d="M273.04,-512.27C273.82,-560.69 283.95,-776.86 401,-882.5 402.72,-884.05 404.52,-885.52 406.38,-886.89"/>
<polygon fill="midnightblue" stroke="midnightblue" points="404.62,-889.92 414.92,-892.4 408.42,-884.04 404.62,-889.92"/>
</g>
<!-- Node10 -->
<g id="node10" class="node">
<title>Node10</title>
<g id="a_node10"><a xlink:href="namespaceprecice_1_1testing.html#a6a116337529290bbb1bf2545b5fb315a" target="_top" xlink:title="equals to be used in tests. Compares two matrices using a given tolerance. Prints both operands on fa...">
<polygon fill="white" stroke="black" points="447.5,-854 447.5,-873 577.5,-873 577.5,-854 447.5,-854"/>
<text text-anchor="middle" x="512.5" y="-861" font-family="Helvetica,sans-Serif" font-size="10.00">precice::testing::equals</text>
</a>
</g>
</g>
<!-- Node8&#45;&gt;Node10 -->
<g id="edge9" class="edge">
<title>Node8&#45;&gt;Node10</title>
<path fill="none" stroke="midnightblue" d="M273.33,-512.02C275.44,-557.42 290.88,-753.34 401,-844.5 411.34,-853.06 424.12,-858.38 437.28,-861.6"/>
<polygon fill="midnightblue" stroke="midnightblue" points="436.88,-865.09 447.38,-863.66 438.28,-858.23 436.88,-865.09"/>
</g>
<!-- Node12 -->
<g id="node12" class="node">
<title>Node12</title>
<g id="a_node12"><a xlink:href="classprecice_1_1cplscheme_1_1CouplingScheme.html#ab71e795a9c658831be3b8543e61d918c" target="_top" xlink:title="Finalizes the coupling and disconnects communication.">
<polygon fill="white" stroke="black" points="439.5,-804.5 439.5,-834.5 585.5,-834.5 585.5,-804.5 439.5,-804.5"/>
<text text-anchor="start" x="447.5" y="-822.5" font-family="Helvetica,sans-Serif" font-size="10.00">precice::cplscheme</text>
<text text-anchor="middle" x="512.5" y="-811.5" font-family="Helvetica,sans-Serif" font-size="10.00">::CouplingScheme::finalize</text>
</a>
</g>
</g>
<!-- Node8&#45;&gt;Node12 -->
<g id="edge11" class="edge">
<title>Node8&#45;&gt;Node12</title>
<path fill="none" stroke="midnightblue" d="M274.09,-512.22C279.3,-553.68 305.46,-717.22 401,-795.5 409.37,-802.36 419.26,-807.38 429.63,-811.03"/>
<polygon fill="midnightblue" stroke="midnightblue" points="428.66,-814.39 439.25,-814.01 430.73,-807.71 428.66,-814.39"/>
</g>
<!-- Node13 -->
<g id="node13" class="node">
<title>Node13</title>
<g id="a_node13"><a xlink:href="classprecice_1_1cplscheme_1_1CouplingScheme.html#af74a2b9365bee03ecbed38a76cfca247" target="_top" xlink:title=" ">
<polygon fill="white" stroke="black" points="424.5,-755.5 424.5,-785.5 600.5,-785.5 600.5,-755.5 424.5,-755.5"/>
<text text-anchor="start" x="432.5" y="-773.5" font-family="Helvetica,sans-Serif" font-size="10.00">precice::cplscheme</text>
<text text-anchor="middle" x="512.5" y="-762.5" font-family="Helvetica,sans-Serif" font-size="10.00">::CouplingScheme::firstExchange</text>
</a>
</g>
</g>
<!-- Node8&#45;&gt;Node13 -->
<g id="edge12" class="edge">
<title>Node8&#45;&gt;Node13</title>
<path fill="none" stroke="midnightblue" d="M274.97,-512.09C283.08,-548.98 317.46,-682.89 401,-746.5 405.39,-749.84 410.15,-752.74 415.15,-755.26"/>
<polygon fill="midnightblue" stroke="midnightblue" points="413.81,-758.49 424.37,-759.37 416.66,-752.1 413.81,-758.49"/>
</g>
<!-- Node14 -->
<g id="node14" class="node">
<title>Node14</title>
<g id="a_node14"><a xlink:href="classprecice_1_1cplscheme_1_1CouplingScheme.html#a2190876ae6da23385329bab2ecd8dcb4" target="_top" xlink:title=" ">
<polygon fill="white" stroke="black" points="409,-706.5 409,-736.5 616,-736.5 616,-706.5 409,-706.5"/>
<text text-anchor="start" x="417" y="-724.5" font-family="Helvetica,sans-Serif" font-size="10.00">precice::cplscheme</text>
<text text-anchor="middle" x="512.5" y="-713.5" font-family="Helvetica,sans-Serif" font-size="10.00">::CouplingScheme::firstSynchronization</text>
</a>
</g>
</g>
<!-- Node8&#45;&gt;Node14 -->
<g id="edge13" class="edge">
<title>Node8&#45;&gt;Node14</title>
<path fill="none" stroke="midnightblue" d="M276.28,-512.11C287.73,-544.17 329.23,-648.2 401,-697.5 403.27,-699.06 405.63,-700.52 408.05,-701.89"/>
<polygon fill="midnightblue" stroke="midnightblue" points="406.59,-705.07 417.09,-706.46 409.74,-698.83 406.59,-705.07"/>
</g>
<!-- Node15 -->
<g id="node15" class="node">
<title>Node15</title>
<g id="a_node15"><a xlink:href="classprecice_1_1mesh_1_1Vertex.html#a2f62d7ef09981e963638cb3f2f6a9603" target="_top" xlink:title="Returns the unique (among vertices of one mesh on one processor) ID of the vertex.">
<polygon fill="white" stroke="black" points="451.5,-657.5 451.5,-687.5 573.5,-687.5 573.5,-657.5 451.5,-657.5"/>
<text text-anchor="start" x="459.5" y="-675.5" font-family="Helvetica,sans-Serif" font-size="10.00">precice::mesh::Vertex</text>
<text text-anchor="middle" x="512.5" y="-664.5" font-family="Helvetica,sans-Serif" font-size="10.00">::getID</text>
</a>
</g>
</g>
<!-- Node8&#45;&gt;Node15 -->
<g id="edge14" class="edge">
<title>Node8&#45;&gt;Node15</title>
<path fill="none" stroke="midnightblue" d="M278.48,-512.13C293.97,-538.42 340.92,-611.89 401,-647.5 413.19,-654.72 427.26,-659.86 441.2,-663.51"/>
<polygon fill="midnightblue" stroke="midnightblue" points="440.75,-667.01 451.29,-665.92 442.38,-660.2 440.75,-667.01"/>
</g>
<!-- Node16 -->
<g id="node16" class="node">
<title>Node16</title>
<g id="a_node16"><a xlink:href="classprecice_1_1cplscheme_1_1CouplingScheme.html#a7fc26387d7769bf47d522666627e11da" target="_top" xlink:title="Returns the maximal size of the next time step to be computed.">
<polygon fill="white" stroke="black" points="425.5,-597 425.5,-638 599.5,-638 599.5,-597 425.5,-597"/>
<text text-anchor="start" x="433.5" y="-626" font-family="Helvetica,sans-Serif" font-size="10.00">precice::cplscheme</text>
<text text-anchor="start" x="433.5" y="-615" font-family="Helvetica,sans-Serif" font-size="10.00">::CouplingScheme::getNextTime</text>
<text text-anchor="middle" x="512.5" y="-604" font-family="Helvetica,sans-Serif" font-size="10.00">StepMaxSize</text>
</a>
</g>
</g>
<!-- Node8&#45;&gt;Node16 -->
<g id="edge15" class="edge">
<title>Node8&#45;&gt;Node16</title>
<path fill="none" stroke="midnightblue" d="M284.59,-512.09C306.18,-529.5 354.6,-566.46 401,-587.5 405.74,-589.65 410.67,-591.68 415.7,-593.58"/>
<polygon fill="midnightblue" stroke="midnightblue" points="414.88,-597 425.47,-597.08 417.24,-590.41 414.88,-597"/>
</g>
<!-- Node17 -->
<g id="node17" class="node">
<title>Node17</title>
<g id="a_node17"><a xlink:href="classprecice_1_1cplscheme_1_1CouplingScheme.html#a16c7b21a6f1b45e62c9c914e4b75f289" target="_top" xlink:title="Returns the normalized time within the current time window.">
<polygon fill="white" stroke="black" points="421.5,-537 421.5,-578 603.5,-578 603.5,-537 421.5,-537"/>
<text text-anchor="start" x="429.5" y="-566" font-family="Helvetica,sans-Serif" font-size="10.00">precice::cplscheme</text>
<text text-anchor="start" x="429.5" y="-555" font-family="Helvetica,sans-Serif" font-size="10.00">::CouplingScheme::getNormalized</text>
<text text-anchor="middle" x="512.5" y="-544" font-family="Helvetica,sans-Serif" font-size="10.00">WindowTime</text>
</a>
</g>
</g>
<!-- Node8&#45;&gt;Node17 -->
<g id="edge16" class="edge">
<title>Node8&#45;&gt;Node17</title>
<path fill="none" stroke="midnightblue" d="M314.27,-512.02C341.33,-518.26 377.93,-526.7 412.25,-534.61"/>
<polygon fill="midnightblue" stroke="midnightblue" points="411.81,-538.1 422.34,-536.94 413.38,-531.28 411.81,-538.1"/>
</g>
<!-- Node18 -->
<g id="node18" class="node">
<title>Node18</title>
<g id="a_node18"><a xlink:href="classprecice_1_1cplscheme_1_1CouplingScheme.html#a3e92e879eb086f6b514f496d61db45bb" target="_top" xlink:title="Returns the currently computed time of the coupling scheme.">
<polygon fill="white" stroke="black" points="437,-487.5 437,-517.5 588,-517.5 588,-487.5 437,-487.5"/>
<text text-anchor="start" x="445" y="-505.5" font-family="Helvetica,sans-Serif" font-size="10.00">precice::cplscheme</text>
<text text-anchor="middle" x="512.5" y="-494.5" font-family="Helvetica,sans-Serif" font-size="10.00">::CouplingScheme::getTime</text>
</a>
</g>
</g>
<!-- Node8&#45;&gt;Node18 -->
<g id="edge17" class="edge">
<title>Node8&#45;&gt;Node18</title>
<path fill="none" stroke="midnightblue" d="M365.21,-502.5C385.41,-502.5 406.71,-502.5 426.61,-502.5"/>
<polygon fill="midnightblue" stroke="midnightblue" points="426.88,-506 436.88,-502.5 426.88,-499 426.88,-506"/>
</g>
<!-- Node19 -->
<g id="node19" class="node">
<title>Node19</title>
<g id="a_node19"><a xlink:href="classprecice_1_1cplscheme_1_1CouplingScheme.html#ac72e5ebd5f6202d5d5ffffbee94e2f9d" target="_top" xlink:title="Returns the currently computed time windows of the coupling scheme.">
<polygon fill="white" stroke="black" points="415,-438.5 415,-468.5 610,-468.5 610,-438.5 415,-438.5"/>
<text text-anchor="start" x="423" y="-456.5" font-family="Helvetica,sans-Serif" font-size="10.00">precice::cplscheme</text>
<text text-anchor="middle" x="512.5" y="-445.5" font-family="Helvetica,sans-Serif" font-size="10.00">::CouplingScheme::getTimeWindows</text>
</a>
</g>
</g>
<!-- Node8&#45;&gt;Node19 -->
<g id="edge18" class="edge">
<title>Node8&#45;&gt;Node19</title>
<path fill="none" stroke="midnightblue" d="M319.27,-492.99C350.1,-486.66 391.51,-478.15 427.99,-470.66"/>
<polygon fill="midnightblue" stroke="midnightblue" points="429.05,-474.01 438.14,-468.57 427.64,-467.16 429.05,-474.01"/>
</g>
<!-- Node20 -->
<g id="node20" class="node">
<title>Node20</title>
<g id="a_node20"><a xlink:href="classprecice_1_1cplscheme_1_1CouplingScheme.html#ae91c824606fdbe167f8d62bd0371b465" target="_top" xlink:title="Returns true, if data has been exchanged in last call of advance().">
<polygon fill="white" stroke="black" points="424.5,-378 424.5,-419 600.5,-419 600.5,-378 424.5,-378"/>
<text text-anchor="start" x="432.5" y="-407" font-family="Helvetica,sans-Serif" font-size="10.00">precice::cplscheme</text>
<text text-anchor="start" x="432.5" y="-396" font-family="Helvetica,sans-Serif" font-size="10.00">::CouplingScheme::hasDataBeen</text>
<text text-anchor="middle" x="512.5" y="-385" font-family="Helvetica,sans-Serif" font-size="10.00">Received</text>
</a>
</g>
</g>
<!-- Node8&#45;&gt;Node20 -->
<g id="edge19" class="edge">
<title>Node8&#45;&gt;Node20</title>
<path fill="none" stroke="midnightblue" d="M287,-492.98C309.93,-477.75 357.33,-447.75 401,-429.5 407.11,-426.94 413.5,-424.53 420,-422.26"/>
<polygon fill="midnightblue" stroke="midnightblue" points="421.2,-425.55 429.56,-419.05 418.97,-418.92 421.2,-425.55"/>
</g>
<!-- Node21 -->
<g id="node21" class="node">
<title>Node21</title>
<g id="a_node21"><a xlink:href="classprecice_1_1cplscheme_1_1CouplingScheme.html#a469efed8d5f823e56fd9d167a1945f73" target="_top" xlink:title="Initializes the coupling scheme and establishes a communication connection to the coupling partner....">
<polygon fill="white" stroke="black" points="436.5,-328.5 436.5,-358.5 588.5,-358.5 588.5,-328.5 436.5,-328.5"/>
<text text-anchor="start" x="444.5" y="-346.5" font-family="Helvetica,sans-Serif" font-size="10.00">precice::cplscheme</text>
<text text-anchor="middle" x="512.5" y="-335.5" font-family="Helvetica,sans-Serif" font-size="10.00">::CouplingScheme::initialize</text>
</a>
</g>
</g>
<!-- Node8&#45;&gt;Node21 -->
<g id="edge20" class="edge">
<title>Node8&#45;&gt;Node21</title>
<path fill="none" stroke="midnightblue" d="M279.14,-492.9C295.59,-468.03 343.33,-401.17 401,-368.5 408.98,-363.98 417.72,-360.28 426.68,-357.24"/>
<polygon fill="midnightblue" stroke="midnightblue" points="427.94,-360.51 436.46,-354.21 425.87,-353.83 427.94,-360.51"/>
</g>
<!-- Node22 -->
<g id="node22" class="node">
<title>Node22</title>
<g id="a_node22"><a xlink:href="classprecice_1_1cplscheme_1_1CouplingScheme.html#ad0134c559546cf8457d7763b0828b148" target="_top" xlink:title="Returns true, if the given action has to be performed by the accessor.">
<polygon fill="white" stroke="black" points="438,-268 438,-309 587,-309 587,-268 438,-268"/>
<text text-anchor="start" x="446" y="-297" font-family="Helvetica,sans-Serif" font-size="10.00">precice::cplscheme</text>
<text text-anchor="start" x="446" y="-286" font-family="Helvetica,sans-Serif" font-size="10.00">::CouplingScheme::isAction</text>
<text text-anchor="middle" x="512.5" y="-275" font-family="Helvetica,sans-Serif" font-size="10.00">Required</text>
</a>
</g>
</g>
<!-- Node8&#45;&gt;Node22 -->
<g id="edge21" class="edge">
<title>Node8&#45;&gt;Node22</title>
<path fill="none" stroke="midnightblue" d="M276.92,-492.79C289.76,-462.24 333.64,-367.28 401,-319.5 409.31,-313.6 418.72,-308.83 428.44,-304.95"/>
<polygon fill="midnightblue" stroke="midnightblue" points="429.65,-308.24 437.84,-301.51 427.24,-301.67 429.65,-308.24"/>
</g>
<!-- Node23 -->
<g id="node23" class="node">
<title>Node23</title>
<g id="a_node23"><a xlink:href="classprecice_1_1cplscheme_1_1CouplingScheme.html#abd0fe5ee6f1dea703c45660113b973d9" target="_top" xlink:title="Returns true, when the coupled simulation is still ongoing.">
<polygon fill="white" stroke="black" points="432,-208 432,-249 593,-249 593,-208 432,-208"/>
<text text-anchor="start" x="440" y="-237" font-family="Helvetica,sans-Serif" font-size="10.00">precice::cplscheme</text>
<text text-anchor="start" x="440" y="-226" font-family="Helvetica,sans-Serif" font-size="10.00">::CouplingScheme::isCoupling</text>
<text text-anchor="middle" x="512.5" y="-215" font-family="Helvetica,sans-Serif" font-size="10.00">Ongoing</text>
</a>
</g>
</g>
<!-- Node8&#45;&gt;Node23 -->
<g id="edge22" class="edge">
<title>Node8&#45;&gt;Node23</title>
<path fill="none" stroke="midnightblue" d="M275.13,-492.79C283.71,-456.02 319.3,-324.08 401,-258.5 407.52,-253.27 414.88,-248.95 422.62,-245.37"/>
<polygon fill="midnightblue" stroke="midnightblue" points="423.98,-248.6 431.87,-241.52 421.29,-242.14 423.98,-248.6"/>
</g>
<!-- Node24 -->
<g id="node24" class="node">
<title>Node24</title>
<g id="a_node24"><a xlink:href="classprecice_1_1cplscheme_1_1CouplingScheme.html#a99ff31bc6f1b8dd46254aac2361109af" target="_top" xlink:title="Returns true, when the accessor can advance to the next time window.">
<polygon fill="white" stroke="black" points="421.5,-148 421.5,-189 603.5,-189 603.5,-148 421.5,-148"/>
<text text-anchor="start" x="429.5" y="-177" font-family="Helvetica,sans-Serif" font-size="10.00">precice::cplscheme</text>
<text text-anchor="start" x="429.5" y="-166" font-family="Helvetica,sans-Serif" font-size="10.00">::CouplingScheme::isTimeWindow</text>
<text text-anchor="middle" x="512.5" y="-155" font-family="Helvetica,sans-Serif" font-size="10.00">Complete</text>
</a>
</g>
</g>
<!-- Node8&#45;&gt;Node24 -->
<g id="edge23" class="edge">
<title>Node8&#45;&gt;Node24</title>
<path fill="none" stroke="midnightblue" d="M274.04,-492.84C279.09,-450.85 304.88,-282.58 401,-198.5 404.5,-195.44 408.29,-192.68 412.28,-190.2"/>
<polygon fill="midnightblue" stroke="midnightblue" points="414.24,-193.12 421.3,-185.22 410.86,-186.99 414.24,-193.12"/>
</g>
<!-- Node25 -->
<g id="node25" class="node">
<title>Node25</title>
<g id="a_node25"><a xlink:href="classprecice_1_1mesh_1_1MeshConfiguration.html#a3e631b8068465702cf621b9c75953196" target="_top" xlink:title="Returns all configured meshes.">
<polygon fill="white" stroke="black" points="421.5,-98.5 421.5,-128.5 603.5,-128.5 603.5,-98.5 421.5,-98.5"/>
<text text-anchor="start" x="429.5" y="-116.5" font-family="Helvetica,sans-Serif" font-size="10.00">precice::mesh::MeshConfiguration</text>
<text text-anchor="middle" x="512.5" y="-105.5" font-family="Helvetica,sans-Serif" font-size="10.00">::meshes</text>
</a>
</g>
</g>
<!-- Node8&#45;&gt;Node25 -->
<g id="edge24" class="edge">
<title>Node8&#45;&gt;Node25</title>
<path fill="none" stroke="midnightblue" d="M273.2,-492.82C274.74,-445.78 287.94,-239.19 401,-138.5 404.48,-135.4 408.27,-132.66 412.27,-130.24"/>
<polygon fill="midnightblue" stroke="midnightblue" points="414.14,-133.21 421.34,-125.43 410.86,-127.02 414.14,-133.21"/>
</g>
<!-- Node26 -->
<g id="node26" class="node">
<title>Node26</title>
<g id="a_node26"><a xlink:href="classprecice_1_1cplscheme_1_1CouplingScheme.html#a5f93e060c476732defbe5822be8a64b4" target="_top" xlink:title=" ">
<polygon fill="white" stroke="black" points="416.5,-49.5 416.5,-79.5 608.5,-79.5 608.5,-49.5 416.5,-49.5"/>
<text text-anchor="start" x="424.5" y="-67.5" font-family="Helvetica,sans-Serif" font-size="10.00">precice::cplscheme</text>
<text text-anchor="middle" x="512.5" y="-56.5" font-family="Helvetica,sans-Serif" font-size="10.00">::CouplingScheme::secondExchange</text>
</a>
</g>
</g>
<!-- Node8&#45;&gt;Node26 -->
<g id="edge25" class="edge">
<title>Node8&#45;&gt;Node26</title>
<path fill="none" stroke="midnightblue" d="M272.75,-492.93C271.98,-442.52 275.35,-205.71 401,-89.5 403.17,-87.5 405.46,-85.64 407.85,-83.93"/>
<polygon fill="midnightblue" stroke="midnightblue" points="409.74,-86.88 416.36,-78.61 406.03,-80.94 409.74,-86.88"/>
</g>
<!-- Node27 -->
<g id="node27" class="node">
<title>Node27</title>
<g id="a_node27"><a xlink:href="classprecice_1_1cplscheme_1_1CouplingScheme.html#a48d046338c57b12c4e53d08c54c1d2ee" target="_top" xlink:title=" ">
<polygon fill="white" stroke="black" points="401,-0.5 401,-30.5 624,-30.5 624,-0.5 401,-0.5"/>
<text text-anchor="start" x="409" y="-18.5" font-family="Helvetica,sans-Serif" font-size="10.00">precice::cplscheme</text>
<text text-anchor="middle" x="512.5" y="-7.5" font-family="Helvetica,sans-Serif" font-size="10.00">::CouplingScheme::secondSynchronization</text>
</a>
</g>
</g>
<!-- Node8&#45;&gt;Node27 -->
<g id="edge26" class="edge">
<title>Node8&#45;&gt;Node27</title>
<path fill="none" stroke="midnightblue" d="M274.32,-492.84C282.77,-432.43 331.12,-107.12 401,-40.5 402.49,-39.07 404.05,-37.72 405.67,-36.45"/>
<polygon fill="midnightblue" stroke="midnightblue" points="407.89,-39.16 414.16,-30.63 403.93,-33.39 407.89,-39.16"/>
</g>
<!-- Node11 -->
<g id="node11" class="node">
<title>Node11</title>
<g id="a_node11"><a xlink:href="namespaceprecice_1_1math.html#a0e86802cfe992deba131d789d035b5b7" target="_top" xlink:title="Compares two Eigen::MatrixBase for equality up to tolerance.">
<polygon fill="white" stroke="black" points="660,-854 660,-873 782,-873 782,-854 660,-854"/>
<text text-anchor="middle" x="721" y="-861" font-family="Helvetica,sans-Serif" font-size="10.00">precice::math::equals</text>
</a>
</g>
</g>
<!-- Node10&#45;&gt;Node11 -->
<g id="edge10" class="edge">
<title>Node10&#45;&gt;Node11</title>
<path fill="none" stroke="midnightblue" d="M577.71,-863.5C600.5,-863.5 626.27,-863.5 649.55,-863.5"/>
<polygon fill="midnightblue" stroke="midnightblue" points="649.71,-867 659.71,-863.5 649.71,-860 649.71,-867"/>
</g>
</g>
</svg>
        <g id="navigator" transform="translate(0 0)" fill="#404254">
                <rect fill="#f2f5e9" fill-opacity="0.5" stroke="#606060" stroke-width=".5" x="0" y="0" width="60" height="60"/>
                <use id="zoomplus" xlink:href="#zoomPlus" x="17" y="9" onmousedown="handleZoom(evt,'in')"/>
                <use id="zoomminus" xlink:href="#zoomMin" x="42" y="9" onmousedown="handleZoom(evt,'out')"/>
                <use id="reset" xlink:href="#resetDef" x="30" y="36" onmousedown="handleReset()"/>
                <g id="arrowUp" xlink:href="#dirArrow" transform="translate(30 24)" onmousedown="handlePan(0,-1)">
                  <use xlink:href="#rim" fill="#404040">
                        <set attributeName="fill" to="#808080" begin="arrowUp.mouseover" end="arrowUp.mouseout"/>
                  </use>
                  <path fill="none" stroke="white" stroke-width="1.5" d="M0,-3.0v7 M-2.5,-0.5L0,-3.0L2.5,-0.5"/>
                </g>
                <g id="arrowRight" xlink:href="#dirArrow" transform="rotate(90) translate(36 -43)" onmousedown="handlePan(1,0)">
                  <use xlink:href="#rim" fill="#404040">
                        <set attributeName="fill" to="#808080" begin="arrowRight.mouseover" end="arrowRight.mouseout"/>
                  </use>
                  <path fill="none" stroke="white" stroke-width="1.5" d="M0,-3.0v7 M-2.5,-0.5L0,-3.0L2.5,-0.5"/>
                </g>
                <g id="arrowDown" xlink:href="#dirArrow" transform="rotate(180) translate(-30 -48)" onmousedown="handlePan(0,1)">
                  <use xlink:href="#rim" fill="#404040">
                        <set attributeName="fill" to="#808080" begin="arrowDown.mouseover" end="arrowDown.mouseout"/>
                  </use>
                  <path fill="none" stroke="white" stroke-width="1.5" d="M0,-3.0v7 M-2.5,-0.5L0,-3.0L2.5,-0.5"/>
                </g>
                <g id="arrowLeft" xlink:href="#dirArrow" transform="rotate(270) translate(-36 17)" onmousedown="handlePan(-1,0)">
                  <use xlink:href="#rim" fill="#404040">
                        <set attributeName="fill" to="#808080" begin="arrowLeft.mouseover" end="arrowLeft.mouseout"/>
                  </use>
                  <path fill="none" stroke="white" stroke-width="1.5" d="M0,-3.0v7 M-2.5,-0.5L0,-3.0L2.5,-0.5"/>
                </g>
        </g>
        <svg viewBox="0 0 15 15" width="100%" height="30px" preserveAspectRatio="xMaxYMin meet">
         <g id="arrow_out" transform="scale(0.3 0.3)">
          <a xlink:href="ExplicitCouplingSchemeTest_8cpp_a07f6513e94156c1820ce45a46659b585_cgraph_org.svg" target="_base">
           <rect id="button" ry="5" rx="5" y="6" x="6" height="38" width="38"
                fill="#f2f5e9" fill-opacity="0.5" stroke="#606060" stroke-width="1.0"/>
           <path id="arrow"
             d="M 11.500037,31.436501 C 11.940474,20.09759 22.043105,11.32322 32.158766,21.979434 L 37.068811,17.246167 C 37.068811,17.246167 37.088388,32 37.088388,32 L 22.160133,31.978069 C 22.160133,31.978069 26.997745,27.140456 26.997745,27.140456 C 18.528582,18.264221 13.291696,25.230495 11.500037,31.436501 z"
             style="fill:#404040;"/>
          </a>
         </g>
        </svg>
</svg>
