<?xml version="1.0" encoding="UTF-8" standalone="no"?>
<!DOCTYPE svg PUBLIC "-//W3C//DTD SVG 1.1//EN"
 "http://www.w3.org/Graphics/SVG/1.1/DTD/svg11.dtd">
<!-- Generated by graphviz version 2.43.0 (0)
 -->
<!-- Title: BOOST_AUTO_TEST_CASE Pages: 1 -->
<!--zoomable 460 -->

<svg id="main" version="1.1" xmlns="http://www.w3.org/2000/svg" xmlns:xlink="http://www.w3.org/1999/xlink" xml:space="preserve" onload="init(evt)">
<style type="text/css"><![CDATA[
.node, .edge {opacity: 0.7;}
.node.selected, .edge.selected {opacity: 1;}
.edge:hover path { stroke: red; }
.edge:hover polygon { stroke: red; fill: red; }
]]></style>

<defs>
  <circle id="rim" cx="0" cy="0" r="7"/>
  <circle id="rim2" cx="0" cy="0" r="3.5"/>
  <g id="zoomPlus">
    <use xlink:href="#rim" fill="#404040"><set attributeName="fill" to="#808080" begin="zoomplus.mouseover" end="zoomplus.mouseout"/></use>
    <path d="M-4,0h8M0,-4v8" fill="none" stroke="white" stroke-width="1.5" pointer-events="none"/>
  </g>
  <g id="zoomMin">
    <use xlink:href="#rim" fill="#404040"><set attributeName="fill" to="#808080" begin="zoomminus.mouseover" end="zoomminus.mouseout"/></use>
    <path d="M-4,0h8" fill="none" stroke="white" stroke-width="1.5" pointer-events="none"/>
  </g>
  <g id="arrowUp" transform="translate(30 24)">
    <use xlink:href="#rim"/>
    <path pointer-events="none" fill="none" stroke="white" stroke-width="1.5" d="M0,-3.0v7 M-2.5,-0.5L0,-3.0L2.5,-0.5"/>
  </g>
  <g id="arrowRight" transform="rotate(90) translate(36 -43)">
    <use xlink:href="#rim"/>
    <path pointer-events="none" fill="none" stroke="white" stroke-width="1.5" d="M0,-3.0v7 M-2.5,-0.5L0,-3.0L2.5,-0.5"/>
  </g>
  <g id="arrowDown" transform="rotate(180) translate(-30 -48)">
    <use xlink:href="#rim"/>
    <path pointer-events="none" fill="none" stroke="white" stroke-width="1.5" d="M0,-3.0v7 M-2.5,-0.5L0,-3.0L2.5,-0.5"/>
  </g>
  <g id="arrowLeft" transform="rotate(270) translate(-36 17)">
    <use xlink:href="#rim"/>
    <path pointer-events="none" fill="none" stroke="white" stroke-width="1.5" d="M0,-3.0v7 M-2.5,-0.5L0,-3.0L2.5,-0.5"/>
  </g>
  <g id="resetDef">
    <use xlink:href="#rim2" fill="#404040"><set attributeName="fill" to="#808080" begin="reset.mouseover" end="reset.mouseout"/></use>
  </g>
</defs>
<script type="application/ecmascript">
var viewWidth = 843;
var viewHeight = 460;
var sectionId = 'dynsection-4';
</script>
<script type="application/ecmascript" xlink:href="svg.min.js"/>
<svg id="graph" class="graph">
<g id="viewport">
<title>BOOST_AUTO_TEST_CASE</title>
<!-- Node1 -->
<g id="Node000001" class="node">
<title>Node1</title>
<g id="a_Node000001"><a xlink:title=" ">
<polygon fill="#999999" stroke="#666666" points="143,-254.5 0,-254.5 0,-235.5 143,-235.5 143,-254.5"/>
<text text-anchor="middle" x="71.5" y="-242.5" font-family="Helvetica,sans-Serif" font-size="10.00">BOOST_AUTO_TEST_CASE</text>
</a>
</g>
</g>
<!-- Node2 -->
<g id="Node000002" class="node">
<title>Node2</title>
<g id="a_Node000002"><a xlink:href="classprecice_1_1mesh_1_1Mesh.html#ae05c5234aa9adc6f47a814622039c28e" target="_top" xlink:title="Creates and initializes an Edge object.">
<polygon fill="white" stroke="#666666" points="315.5,-380 198.5,-380 198.5,-350 315.5,-350 315.5,-380"/>
<text text-anchor="start" x="206.5" y="-368" font-family="Helvetica,sans-Serif" font-size="10.00">precice::mesh::Mesh</text>
<text text-anchor="middle" x="257" y="-357" font-family="Helvetica,sans-Serif" font-size="10.00">::createEdge</text>
</a>
</g>
</g>
<!-- Node1&#45;&gt;Node2 -->
<g id="edge1_Node000001_Node000002" class="edge">
<title>Node1&#45;&gt;Node2</title>
<g id="a_edge1_Node000001_Node000002"><a xlink:title=" ">
<path fill="none" stroke="#63b8ff" d="M80.57,-254.66C97.11,-273.85 136.82,-316.97 179,-341 182.23,-342.84 185.62,-344.56 189.1,-346.16"/>
<polygon fill="#63b8ff" stroke="#63b8ff" points="187.91,-349.45 198.48,-350.12 190.63,-343.01 187.91,-349.45"/>
</a>
</g>
</g>
<!-- Node3 -->
<g id="Node000003" class="node">
<title>Node3</title>
<g id="a_Node000003"><a xlink:href="classprecice_1_1mesh_1_1Mesh.html#a00c3db2576c63d8c6f351175ddc0a4d0" target="_top" xlink:title="Creates and initializes a Triangle object.">
<polygon fill="white" stroke="#666666" points="315.5,-332 198.5,-332 198.5,-302 315.5,-302 315.5,-332"/>
<text text-anchor="start" x="206.5" y="-320" font-family="Helvetica,sans-Serif" font-size="10.00">precice::mesh::Mesh</text>
<text text-anchor="middle" x="257" y="-309" font-family="Helvetica,sans-Serif" font-size="10.00">::createTriangle</text>
</a>
</g>
</g>
<!-- Node1&#45;&gt;Node3 -->
<g id="edge2_Node000001_Node000003" class="edge">
<title>Node1&#45;&gt;Node3</title>
<g id="a_edge2_Node000001_Node000003"><a xlink:title=" ">
<path fill="none" stroke="#63b8ff" d="M91.83,-254.57C112.94,-264.82 147.9,-281.2 179,-293 184.15,-294.96 189.55,-296.88 194.98,-298.73"/>
<polygon fill="#63b8ff" stroke="#63b8ff" points="194.16,-302.15 204.76,-301.98 196.37,-295.51 194.16,-302.15"/>
</a>
</g>
</g>
<!-- Node5 -->
<g id="Node000005" class="node">
<title>Node5</title>
<g id="a_Node000005"><a xlink:href="classprecice_1_1mesh_1_1Mesh.html#af6e6d684553dc5d0f0a23cacb77b3fc7" target="_top" xlink:title="Creates and initializes a Vertex object.">
<polygon fill="white" stroke="#666666" points="315.5,-284 198.5,-284 198.5,-254 315.5,-254 315.5,-284"/>
<text text-anchor="start" x="206.5" y="-272" font-family="Helvetica,sans-Serif" font-size="10.00">precice::mesh::Mesh</text>
<text text-anchor="middle" x="257" y="-261" font-family="Helvetica,sans-Serif" font-size="10.00">::createVertex</text>
</a>
</g>
</g>
<!-- Node1&#45;&gt;Node5 -->
<g id="edge4_Node000001_Node000005" class="edge">
<title>Node1&#45;&gt;Node5</title>
<g id="a_edge4_Node000001_Node000005"><a xlink:title=" ">
<path fill="none" stroke="#63b8ff" d="M143.18,-254.24C158.03,-256.19 173.66,-258.23 188.39,-260.16"/>
<polygon fill="#63b8ff" stroke="#63b8ff" points="188.06,-263.64 198.42,-261.47 188.96,-256.7 188.06,-263.64"/>
</a>
</g>
</g>
<!-- Node6 -->
<g id="Node000006" class="node">
<title>Node6</title>
<g id="a_Node000006"><a xlink:href="classprecice_1_1io_1_1ExportCSV.html#a5166efad3d17ae511e6577f4c0f75148" target="_top" xlink:title="Does export. Has to be implemented in subclass.">
<polygon fill="white" stroke="#666666" points="319,-236 195,-236 195,-206 319,-206 319,-236"/>
<text text-anchor="start" x="203" y="-224" font-family="Helvetica,sans-Serif" font-size="10.00">precice::io::ExportCSV</text>
<text text-anchor="middle" x="257" y="-213" font-family="Helvetica,sans-Serif" font-size="10.00">::doExport</text>
</a>
</g>
</g>
<!-- Node1&#45;&gt;Node6 -->
<g id="edge5_Node000001_Node000006" class="edge">
<title>Node1&#45;&gt;Node6</title>
<g id="a_edge5_Node000001_Node000006"><a xlink:title=" ">
<path fill="none" stroke="#63b8ff" d="M143.18,-235.76C156.78,-233.98 171.03,-232.11 184.65,-230.33"/>
<polygon fill="#63b8ff" stroke="#63b8ff" points="185.45,-233.76 194.92,-228.99 184.55,-226.82 185.45,-233.76"/>
</a>
</g>
</g>
<!-- Node16 -->
<g id="Node000016" class="node">
<title>Node16</title>
<g id="a_Node000016"><a xlink:href="namespaceprecice_1_1testing.html#a08533fd83bad3d7f27ea7f4a35a14aa4" target="_top" xlink:title=" ">
<polygon fill="white" stroke="#666666" points="335,-187.5 179,-187.5 179,-168.5 335,-168.5 335,-187.5"/>
<text text-anchor="middle" x="257" y="-175.5" font-family="Helvetica,sans-Serif" font-size="10.00">precice::testing::nextMeshID</text>
</a>
</g>
</g>
<!-- Node1&#45;&gt;Node16 -->
<g id="edge17_Node000001_Node000016" class="edge">
<title>Node1&#45;&gt;Node16</title>
<g id="a_edge17_Node000001_Node000016"><a xlink:title=" ">
<path fill="none" stroke="#63b8ff" d="M90.94,-235.45C111.85,-224.91 147.18,-207.99 179,-197 186.15,-194.53 193.77,-192.25 201.34,-190.18"/>
<polygon fill="#63b8ff" stroke="#63b8ff" points="202.43,-193.51 211.22,-187.59 200.66,-186.74 202.43,-193.51"/>
</a>
</g>
</g>
<!-- Node18 -->
<g id="Node000018" class="node">
<title>Node18</title>
<g id="a_Node000018"><a xlink:href="classprecice_1_1mesh_1_1Mesh.html#abdf4a4b1e248f1ec2323c62f08ba0a24" target="_top" xlink:title="Only used for tests.">
<polygon fill="white" stroke="#666666" points="315.5,-150 198.5,-150 198.5,-120 315.5,-120 315.5,-150"/>
<text text-anchor="start" x="206.5" y="-138" font-family="Helvetica,sans-Serif" font-size="10.00">precice::mesh::Mesh</text>
<text text-anchor="middle" x="257" y="-127" font-family="Helvetica,sans-Serif" font-size="10.00">::setVertexOffsets</text>
</a>
</g>
</g>
<!-- Node1&#45;&gt;Node18 -->
<g id="edge19_Node000001_Node000018" class="edge">
<title>Node1&#45;&gt;Node18</title>
<g id="a_edge19_Node000001_Node000018"><a xlink:title=" ">
<path fill="none" stroke="#63b8ff" d="M81.92,-235.49C99.51,-218.19 139.21,-181.41 179,-160 183.01,-157.84 187.23,-155.83 191.56,-153.96"/>
<polygon fill="#63b8ff" stroke="#63b8ff" points="193.17,-157.09 201.13,-150.1 190.55,-150.6 193.17,-157.09"/>
</a>
</g>
</g>
<!-- Node4 -->
<g id="Node000004" class="node">
<title>Node4</title>
<g id="a_Node000004"><a xlink:href="classprecice_1_1mesh_1_1Edge.html#af27f4bd02d0b67cc5c3d04e2cf1ddee7" target="_top" xlink:title="Checks whether both edges share a vertex.">
<polygon fill="white" stroke="#666666" points="507.5,-452 392.5,-452 392.5,-422 507.5,-422 507.5,-452"/>
<text text-anchor="start" x="400.5" y="-440" font-family="Helvetica,sans-Serif" font-size="10.00">precice::mesh::Edge</text>
<text text-anchor="middle" x="450" y="-429" font-family="Helvetica,sans-Serif" font-size="10.00">::connectedTo</text>
</a>
</g>
</g>
<!-- Node3&#45;&gt;Node4 -->
<g id="edge3_Node000003_Node000004" class="edge">
<title>Node3&#45;&gt;Node4</title>
<g id="a_edge3_Node000003_Node000004"><a xlink:title=" ">
<path fill="none" stroke="#63b8ff" d="M315.8,-329.27C322.73,-332.35 329.35,-336.19 335,-341 362.26,-364.18 343.7,-389.87 371,-413 374.72,-416.15 378.86,-418.89 383.22,-421.27"/>
<polygon fill="#63b8ff" stroke="#63b8ff" points="381.92,-424.53 392.45,-425.67 384.93,-418.21 381.92,-424.53"/>
</a>
</g>
</g>
<!-- Node7 -->
<g id="Node000007" class="node">
<title>Node7</title>
<g id="a_Node000007"><a xlink:href="classprecice_1_1mesh_1_1Mesh.html#aceb3eabb4f8e40a44d5d1c2822ba7b56" target="_top" xlink:title="Allows access to all data.">
<polygon fill="white" stroke="#666666" points="508.5,-404 391.5,-404 391.5,-374 508.5,-374 508.5,-404"/>
<text text-anchor="start" x="399.5" y="-392" font-family="Helvetica,sans-Serif" font-size="10.00">precice::mesh::Mesh</text>
<text text-anchor="middle" x="450" y="-381" font-family="Helvetica,sans-Serif" font-size="10.00">::data</text>
</a>
</g>
</g>
<!-- Node6&#45;&gt;Node7 -->
<g id="edge6_Node000006_Node000007" class="edge">
<title>Node6&#45;&gt;Node7</title>
<g id="a_edge6_Node000006_Node000007"><a xlink:title=" ">
<path fill="none" stroke="#63b8ff" d="M319.29,-233.71C325.08,-236.71 330.47,-240.42 335,-245 374.16,-284.58 331.77,-325.49 371,-365 374.29,-368.31 378.02,-371.17 382.04,-373.64"/>
<polygon fill="#63b8ff" stroke="#63b8ff" points="380.71,-376.89 391.19,-378.43 383.96,-370.69 380.71,-376.89"/>
</a>
</g>
</g>
<!-- Node8 -->
<g id="Node000008" class="node">
<title>Node8</title>
<g id="a_Node000008"><a xlink:href="classprecice_1_1mesh_1_1Mesh.html#a81b21c3d6f589494c843e2a2ff65da43" target="_top" xlink:title="Does the mesh contain any vertices?">
<polygon fill="white" stroke="#666666" points="508.5,-356 391.5,-356 391.5,-326 508.5,-326 508.5,-356"/>
<text text-anchor="start" x="399.5" y="-344" font-family="Helvetica,sans-Serif" font-size="10.00">precice::mesh::Mesh</text>
<text text-anchor="middle" x="450" y="-333" font-family="Helvetica,sans-Serif" font-size="10.00">::empty</text>
</a>
</g>
</g>
<!-- Node6&#45;&gt;Node8 -->
<g id="edge7_Node000006_Node000008" class="edge">
<title>Node6&#45;&gt;Node8</title>
<g id="a_edge7_Node000006_Node000008"><a xlink:title=" ">
<path fill="none" stroke="#63b8ff" d="M319.3,-234.91C324.95,-237.68 330.31,-241.01 335,-245 362.26,-268.18 343.7,-293.87 371,-317 374.44,-319.91 378.22,-322.47 382.22,-324.72"/>
<polygon fill="#63b8ff" stroke="#63b8ff" points="380.73,-327.89 391.25,-329.16 383.82,-321.61 380.73,-327.89"/>
</a>
</g>
</g>
<!-- Node9 -->
<g id="Node000009" class="node">
<title>Node9</title>
<g id="a_Node000009"><a xlink:href="classprecice_1_1mesh_1_1Mesh.html#a136f6b4ce235025e418fab0ca5f350ff" target="_top" xlink:title=" ">
<polygon fill="white" stroke="#666666" points="508.5,-308 391.5,-308 391.5,-278 508.5,-278 508.5,-308"/>
<text text-anchor="start" x="399.5" y="-296" font-family="Helvetica,sans-Serif" font-size="10.00">precice::mesh::Mesh</text>
<text text-anchor="middle" x="450" y="-285" font-family="Helvetica,sans-Serif" font-size="10.00">::getDimensions</text>
</a>
</g>
</g>
<!-- Node6&#45;&gt;Node9 -->
<g id="edge8_Node000006_Node000009" class="edge">
<title>Node6&#45;&gt;Node9</title>
<g id="a_edge8_Node000006_Node000009"><a xlink:title=" ">
<path fill="none" stroke="#63b8ff" d="M313.01,-236.02C320.53,-238.69 328.05,-241.68 335,-245 352.36,-253.28 353.63,-260.75 371,-269 375,-270.9 379.18,-272.69 383.44,-274.37"/>
<polygon fill="#63b8ff" stroke="#63b8ff" points="382.26,-277.67 392.86,-277.88 384.71,-271.11 382.26,-277.67"/>
</a>
</g>
</g>
<!-- Node10 -->
<g id="Node000010" class="node">
<title>Node10</title>
<g id="a_Node000010"><a xlink:href="classprecice_1_1mesh_1_1Mesh.html#a3185fe962ba3e8fe0b3cf451681e6a48" target="_top" xlink:title="Returns the name of the mesh, as set in the config file.">
<polygon fill="white" stroke="#666666" points="508.5,-260 391.5,-260 391.5,-230 508.5,-230 508.5,-260"/>
<text text-anchor="start" x="399.5" y="-248" font-family="Helvetica,sans-Serif" font-size="10.00">precice::mesh::Mesh</text>
<text text-anchor="middle" x="450" y="-237" font-family="Helvetica,sans-Serif" font-size="10.00">::getName</text>
</a>
</g>
</g>
<!-- Node6&#45;&gt;Node10 -->
<g id="edge9_Node000006_Node000010" class="edge">
<title>Node6&#45;&gt;Node10</title>
<g id="a_edge9_Node000006_Node000010"><a xlink:title=" ">
<path fill="none" stroke="#63b8ff" d="M319.22,-228.69C339.01,-231.18 361.06,-233.95 381.29,-236.49"/>
<polygon fill="#63b8ff" stroke="#63b8ff" points="381.01,-239.98 391.37,-237.76 381.89,-233.04 381.01,-239.98"/>
</a>
</g>
</g>
<!-- Node11 -->
<g id="Node000011" class="node">
<title>Node11</title>
<g id="a_Node000011"><a xlink:href="classprecice_1_1utils_1_1IntraComm.html#a2c2aa5e2fd6cc26797b7fdee0b0b25ac" target="_top" xlink:title="Current rank.">
<polygon fill="white" stroke="#666666" points="520,-212 380,-212 380,-182 520,-182 520,-212"/>
<text text-anchor="start" x="388" y="-200" font-family="Helvetica,sans-Serif" font-size="10.00">precice::utils::IntraComm</text>
<text text-anchor="middle" x="450" y="-189" font-family="Helvetica,sans-Serif" font-size="10.00">::getRank</text>
</a>
</g>
</g>
<!-- Node6&#45;&gt;Node11 -->
<g id="edge10_Node000006_Node000011" class="edge">
<title>Node6&#45;&gt;Node11</title>
<g id="a_edge10_Node000006_Node000011"><a xlink:title=" ">
<path fill="none" stroke="#63b8ff" d="M319.22,-213.31C335.22,-211.3 352.69,-209.1 369.48,-206.99"/>
<polygon fill="#63b8ff" stroke="#63b8ff" points="370.35,-210.41 379.83,-205.69 369.47,-203.47 370.35,-210.41"/>
</a>
</g>
</g>
<!-- Node12 -->
<g id="Node000012" class="node">
<title>Node12</title>
<g id="a_Node000012"><a xlink:href="classprecice_1_1utils_1_1IntraComm.html#a946589c66048ff3058ffa078d54b6073" target="_top" xlink:title="True if this process is running in parallel.">
<polygon fill="white" stroke="#666666" points="520,-164 380,-164 380,-134 520,-134 520,-164"/>
<text text-anchor="start" x="388" y="-152" font-family="Helvetica,sans-Serif" font-size="10.00">precice::utils::IntraComm</text>
<text text-anchor="middle" x="450" y="-141" font-family="Helvetica,sans-Serif" font-size="10.00">::isParallel</text>
</a>
</g>
</g>
<!-- Node6&#45;&gt;Node12 -->
<g id="edge11_Node000006_Node000012" class="edge">
<title>Node6&#45;&gt;Node12</title>
<g id="a_edge11_Node000006_Node000012"><a xlink:title=" ">
<path fill="none" stroke="#63b8ff" d="M313.01,-205.98C320.53,-203.31 328.05,-200.32 335,-197 352.36,-188.72 353.63,-181.25 371,-173 375,-171.1 379.18,-169.31 383.44,-167.63"/>
<polygon fill="#63b8ff" stroke="#63b8ff" points="384.71,-170.89 392.86,-164.12 382.26,-164.33 384.71,-170.89"/>
</a>
</g>
</g>
<!-- Node13 -->
<g id="Node000013" class="node">
<title>Node13</title>
<g id="a_Node000013"><a xlink:href="classprecice_1_1mesh_1_1Mesh.html#a4220c9b15bb1c3dbf5c00701851f8288" target="_top" xlink:title="Returns the number of vertices.">
<polygon fill="white" stroke="#666666" points="835,-83 718,-83 718,-53 835,-53 835,-83"/>
<text text-anchor="start" x="726" y="-71" font-family="Helvetica,sans-Serif" font-size="10.00">precice::mesh::Mesh</text>
<text text-anchor="middle" x="776.5" y="-60" font-family="Helvetica,sans-Serif" font-size="10.00">::nVertices</text>
</a>
</g>
</g>
<!-- Node6&#45;&gt;Node13 -->
<g id="edge12_Node000006_Node000013" class="edge">
<title>Node6&#45;&gt;Node13</title>
<g id="a_edge12_Node000006_Node000013"><a xlink:title=" ">
<path fill="none" stroke="#63b8ff" d="M319.3,-207.09C324.95,-204.32 330.31,-200.99 335,-197 362.26,-173.82 341.96,-145.89 371,-125 377.79,-120.11 594.58,-91.43 707.92,-76.71"/>
<polygon fill="#63b8ff" stroke="#63b8ff" points="708.43,-80.17 717.89,-75.42 707.53,-73.23 708.43,-80.17"/>
</a>
</g>
</g>
<!-- Node14 -->
<g id="Node000014" class="node">
<title>Node14</title>
<g id="a_Node000014"><a xlink:href="classprecice_1_1mesh_1_1Mesh.html#a61d536967e403c9c2c4dfa33ddc8a044" target="_top" xlink:title="Mutable access to a vertex by VertexID.">
<polygon fill="white" stroke="#666666" points="508.5,-78 391.5,-78 391.5,-48 508.5,-48 508.5,-78"/>
<text text-anchor="start" x="399.5" y="-66" font-family="Helvetica,sans-Serif" font-size="10.00">precice::mesh::Mesh</text>
<text text-anchor="middle" x="450" y="-55" font-family="Helvetica,sans-Serif" font-size="10.00">::vertex</text>
</a>
</g>
</g>
<!-- Node6&#45;&gt;Node14 -->
<g id="edge13_Node000006_Node000014" class="edge">
<title>Node6&#45;&gt;Node14</title>
<g id="a_edge13_Node000006_Node000014"><a xlink:title=" ">
<path fill="none" stroke="#63b8ff" d="M319.11,-208.11C324.94,-205.14 330.38,-201.49 335,-197 370.37,-162.61 336.57,-127.33 371,-92 374.41,-88.5 378.29,-85.42 382.44,-82.7"/>
<polygon fill="#63b8ff" stroke="#63b8ff" points="384.36,-85.64 391.3,-77.64 380.88,-79.56 384.36,-85.64"/>
</a>
</g>
</g>
<!-- Node14&#45;&gt;Node13 -->
<g id="edge16_Node000014_Node000013" class="edge">
<title>Node14&#45;&gt;Node13</title>
<g id="a_edge16_Node000014_Node000013"><a xlink:title=" ">
<path fill="none" stroke="#63b8ff" d="M508.64,-63.89C564.31,-64.75 648.61,-66.04 707.53,-66.95"/>
<polygon fill="#63b8ff" stroke="#63b8ff" points="707.8,-70.46 717.85,-67.11 707.91,-63.46 707.8,-70.46"/>
</a>
</g>
</g>
<!-- Node15 -->
<g id="Node000015" class="node">
<title>Node15</title>
<g id="a_Node000015"><a xlink:href="classprecice_1_1mesh_1_1Mesh.html#ac21407160a09623491d9f6364c0a7e43" target="_top" xlink:title="Returns true if the given vertexID is valid.">
<polygon fill="white" stroke="#666666" points="682,-40 565,-40 565,-10 682,-10 682,-40"/>
<text text-anchor="start" x="573" y="-28" font-family="Helvetica,sans-Serif" font-size="10.00">precice::mesh::Mesh</text>
<text text-anchor="middle" x="623.5" y="-17" font-family="Helvetica,sans-Serif" font-size="10.00">::isValidVertexID</text>
</a>
</g>
</g>
<!-- Node14&#45;&gt;Node15 -->
<g id="edge14_Node000014_Node000015" class="edge">
<title>Node14&#45;&gt;Node15</title>
<g id="a_edge14_Node000014_Node000015"><a xlink:title=" ">
<path fill="none" stroke="#63b8ff" d="M508.58,-50.24C523.43,-46.95 539.55,-43.38 554.85,-39.99"/>
<polygon fill="#63b8ff" stroke="#63b8ff" points="555.77,-43.37 564.78,-37.79 554.26,-36.54 555.77,-43.37"/>
</a>
</g>
</g>
<!-- Node15&#45;&gt;Node13 -->
<g id="edge15_Node000015_Node000013" class="edge">
<title>Node15&#45;&gt;Node13</title>
<g id="a_edge15_Node000015_Node000013"><a xlink:title=" ">
<path fill="none" stroke="#63b8ff" d="M677.31,-40.04C688.81,-43.31 701.08,-46.81 712.91,-50.18"/>
<polygon fill="#63b8ff" stroke="#63b8ff" points="712.14,-53.6 722.72,-52.97 714.06,-46.86 712.14,-53.6"/>
</a>
</g>
</g>
<!-- Node17 -->
<g id="Node000017" class="node">
<title>Node17</title>
<g id="a_Node000017"><a xlink:href="classprecice_1_1utils_1_1ManageUniqueIDs.html#a02be264c279698ae293587b6576088b5" target="_top" xlink:title=" ">
<polygon fill="white" stroke="#666666" points="529,-30 371,-30 371,0 529,0 529,-30"/>
<text text-anchor="start" x="379" y="-18" font-family="Helvetica,sans-Serif" font-size="10.00">precice::utils::ManageUnique</text>
<text text-anchor="middle" x="450" y="-7" font-family="Helvetica,sans-Serif" font-size="10.00">IDs::getFreeID</text>
</a>
</g>
</g>
<!-- Node16&#45;&gt;Node17 -->
<g id="edge18_Node000016_Node000017" class="edge">
<title>Node16&#45;&gt;Node17</title>
<g id="a_edge18_Node000016_Node000017"><a xlink:title=" ">
<path fill="none" stroke="#63b8ff" d="M321.43,-168.36C326.39,-165.87 331.01,-162.8 335,-159 375.34,-120.61 331.77,-78.51 371,-39 371.95,-38.04 372.95,-37.12 373.97,-36.23"/>
<polygon fill="#63b8ff" stroke="#63b8ff" points="376.36,-38.82 382.42,-30.13 372.26,-33.15 376.36,-38.82"/>
</a>
</g>
</g>
</g>
</svg>

<g id="navigator" transform="translate(0 0)" fill="#404254">
  <rect fill="#f2f5e9" fill-opacity="0.5" stroke="#606060" stroke-width=".5" x="0" y="0" width="60" height="60"/>
  <use id="zoomplus" xlink:href="#zoomPlus" x="17" y="9" onmousedown="handleZoom(evt,'in')"/>
  <use id="zoomminus" xlink:href="#zoomMin" x="42" y="9" onmousedown="handleZoom(evt,'out')"/>
  <use id="reset" xlink:href="#resetDef" x="30" y="36" onmousedown="handleReset()"/>
   <use id="arrowup" xlink:href="#arrowUp" x="0" y="0" onmousedown="handlePan(0,-1)"/>
  <use id="arrowright" xlink:href="#arrowRight" x="0" y="0" onmousedown="handlePan(1,0)"/>
  <use id="arrowdown" xlink:href="#arrowDown" x="0" y="0" onmousedown="handlePan(0,1)"/>
  <use id="arrowleft" xlink:href="#arrowLeft" x="0" y="0" onmousedown="handlePan(-1,0)"/>
</g>
<svg viewBox="0 0 15 15" width="100%" height="30px" preserveAspectRatio="xMaxYMin meet">
 <g id="arrow_out" transform="scale(0.3 0.3)">
  <a xlink:href="ExportCSVTest_8cpp_ac0dfa8e7ddd4340d229b341912aa9599_cgraph_org.svg" target="_base">
   <rect id="button" ry="5" rx="5" y="6" x="6" height="38" width="38"
        fill="#f2f5e9" fill-opacity="0.5" stroke="#606060" stroke-width="1.0"/>
   <path id="arrow"
     d="M 11.500037,31.436501 C 11.940474,20.09759 22.043105,11.32322 32.158766,21.979434 L 37.068811,17.246167 C 37.068811,17.246167 37.088388,32 37.088388,32 L 22.160133,31.978069 C 22.160133,31.978069 26.997745,27.140456 26.997745,27.140456 C 18.528582,18.264221 13.291696,25.230495 11.500037,31.436501 z"
     style="fill:#404040;"/>
  </a>
 </g>
</svg>

<style type='text/css'>
<![CDATA[
[data-mouse-over-selected='false'] { opacity: 0.7; }
[data-mouse-over-selected='true']  { opacity: 1.0; }
]]>
</style>
<script type="application/ecmascript"><![CDATA[
document.addEventListener('DOMContentLoaded', (event) => {
  highlightEdges();
  highlightAdjacentNodes();
});
]]></script>
</svg>
