<?xml version="1.0" encoding="UTF-8" standalone="no"?>
<!DOCTYPE svg PUBLIC "-//W3C//DTD SVG 1.1//EN"
 "http://www.w3.org/Graphics/SVG/1.1/DTD/svg11.dtd">
<!-- Generated by graphviz version 2.43.0 (0)
 -->
<!-- Title: BOOST_AUTO_TEST_CASE Pages: 1 -->
<!--zoomable 666 -->
<svg id="main" version="1.1" xmlns="http://www.w3.org/2000/svg" xmlns:xlink="http://www.w3.org/1999/xlink" xml:space="preserve" onload="init(evt)">
<style type="text/css"><![CDATA[
.edge:hover path { stroke: red; }
.edge:hover polygon { stroke: red; fill: red; }
]]></style>
<script type="text/javascript"><![CDATA[
var edges = document.getElementsByTagName('g');
if (edges && edges.length) {
  for (var i=0;i<edges.length;i++) {
    if (edges[i].id.substr(0,4)=='edge') {
      edges[i].setAttribute('class','edge');
    }
  }
}
]]></script>
        <defs>
                <circle id="rim" cx="0" cy="0" r="7"/>
                <circle id="rim2" cx="0" cy="0" r="3.5"/>
                <g id="zoomPlus">
                        <use xlink:href="#rim" fill="#404040">
                                <set attributeName="fill" to="#808080" begin="zoomplus.mouseover" end="zoomplus.mouseout"/>
                        </use>
                        <path d="M-4,0h8M0,-4v8" fill="none" stroke="white" stroke-width="1.5" pointer-events="none"/>
                </g>
                <g id="zoomMin">
                        <use xlink:href="#rim" fill="#404040">
                                <set attributeName="fill" to="#808080" begin="zoomminus.mouseover" end="zoomminus.mouseout"/>
                        </use>
                        <path d="M-4,0h8" fill="none" stroke="white" stroke-width="1.5" pointer-events="none"/>
                </g>
                <g id="dirArrow">
                        <path fill="none" stroke="white" stroke-width="1.5" d="M0,-3.0v7 M-2.5,-0.5L0,-3.0L2.5,-0.5"/>
                </g>
               <g id="resetDef">
                       <use xlink:href="#rim2" fill="#404040">
                               <set attributeName="fill" to="#808080" begin="reset.mouseover" end="reset.mouseout"/>
                       </use>
               </g>
        </defs>

<script type="text/javascript">
var viewWidth = 697;
var viewHeight = 666;
var sectionId = 'dynsection-3';
</script>
<script xlink:href="svgpan.js"/>
<svg id="graph" class="graph">
<g id="viewport">
<title>BOOST_AUTO_TEST_CASE</title>
<polygon fill="white" stroke="transparent" points="-4,4 -4,-662 693,-662 693,4 -4,4"/>
<!-- Node1 -->
<g id="node1" class="node">
<title>Node1</title>
<g id="a_node1"><a xlink:title=" ">
<polygon fill="#bfbfbf" stroke="black" points="0,-485 0,-504 143,-504 143,-485 0,-485"/>
<text text-anchor="middle" x="71.5" y="-492" font-family="Helvetica,sans-Serif" font-size="10.00">BOOST_AUTO_TEST_CASE</text>
</a>
</g>
</g>
<!-- Node2 -->
<g id="node2" class="node">
<title>Node2</title>
<g id="a_node2"><a xlink:href="classprecice_1_1mesh_1_1Mesh.html#ab5414039a184e349718371361d6e7777" target="_top" xlink:title="Creates and initializes a Tetrahedron object.">
<polygon fill="white" stroke="black" points="198.5,-553.5 198.5,-583.5 315.5,-583.5 315.5,-553.5 198.5,-553.5"/>
<text text-anchor="start" x="206.5" y="-571.5" font-family="Helvetica,sans-Serif" font-size="10.00">precice::mesh::Mesh</text>
<text text-anchor="middle" x="257" y="-560.5" font-family="Helvetica,sans-Serif" font-size="10.00">::createTetrahedron</text>
</a>
</g>
</g>
<!-- Node1&#45;&gt;Node2 -->
<g id="edge1" class="edge">
<title>Node1&#45;&gt;Node2</title>
<path fill="none" stroke="midnightblue" d="M91.01,-504.14C112,-514.84 147.39,-532.22 179,-544.5 184.06,-546.46 189.35,-548.38 194.69,-550.23"/>
<polygon fill="midnightblue" stroke="midnightblue" points="193.71,-553.59 204.3,-553.46 195.94,-546.96 193.71,-553.59"/>
</g>
<!-- Node3 -->
<g id="node3" class="node">
<title>Node3</title>
<g id="a_node3"><a xlink:href="classprecice_1_1mesh_1_1Mesh.html#af6e6d684553dc5d0f0a23cacb77b3fc7" target="_top" xlink:title="Creates and initializes a Vertex object.">
<polygon fill="white" stroke="black" points="198.5,-504.5 198.5,-534.5 315.5,-534.5 315.5,-504.5 198.5,-504.5"/>
<text text-anchor="start" x="206.5" y="-522.5" font-family="Helvetica,sans-Serif" font-size="10.00">precice::mesh::Mesh</text>
<text text-anchor="middle" x="257" y="-511.5" font-family="Helvetica,sans-Serif" font-size="10.00">::createVertex</text>
</a>
</g>
</g>
<!-- Node1&#45;&gt;Node3 -->
<g id="edge2" class="edge">
<title>Node1&#45;&gt;Node3</title>
<path fill="none" stroke="midnightblue" d="M142.4,-504.02C157.37,-506.06 173.18,-508.22 188.08,-510.25"/>
<polygon fill="midnightblue" stroke="midnightblue" points="187.85,-513.75 198.23,-511.63 188.79,-506.81 187.85,-513.75"/>
</g>
<!-- Node4 -->
<g id="node4" class="node">
<title>Node4</title>
<g id="a_node4"><a xlink:href="classprecice_1_1io_1_1ExportVTK.html#ad5ac77cae274433043e8d64b6a98c8e0" target="_top" xlink:title="Perform writing to VTK file.">
<polygon fill="white" stroke="black" points="195,-455.5 195,-485.5 319,-485.5 319,-455.5 195,-455.5"/>
<text text-anchor="start" x="203" y="-473.5" font-family="Helvetica,sans-Serif" font-size="10.00">precice::io::ExportVTK</text>
<text text-anchor="middle" x="257" y="-462.5" font-family="Helvetica,sans-Serif" font-size="10.00">::doExport</text>
</a>
</g>
</g>
<!-- Node1&#45;&gt;Node4 -->
<g id="edge3" class="edge">
<title>Node1&#45;&gt;Node4</title>
<path fill="none" stroke="midnightblue" d="M143.18,-485.26C156.78,-483.48 171.03,-481.61 184.65,-479.83"/>
<polygon fill="midnightblue" stroke="midnightblue" points="185.45,-483.26 194.92,-478.49 184.55,-476.32 185.45,-483.26"/>
</g>
<!-- Node24 -->
<g id="node24" class="node">
<title>Node24</title>
<g id="a_node24"><a xlink:href="namespaceprecice_1_1testing.html#a08533fd83bad3d7f27ea7f4a35a14aa4" target="_top" xlink:title=" ">
<polygon fill="white" stroke="black" points="179,-346 179,-365 335,-365 335,-346 179,-346"/>
<text text-anchor="middle" x="257" y="-353" font-family="Helvetica,sans-Serif" font-size="10.00">precice::testing::nextMeshID</text>
</a>
</g>
</g>
<!-- Node1&#45;&gt;Node24 -->
<g id="edge28" class="edge">
<title>Node1&#45;&gt;Node24</title>
<path fill="none" stroke="midnightblue" d="M85.11,-484.95C116.15,-461.44 196.48,-400.59 234.91,-371.47"/>
<polygon fill="midnightblue" stroke="midnightblue" points="237.44,-373.95 243.3,-365.12 233.21,-368.37 237.44,-373.95"/>
</g>
<!-- Node5 -->
<g id="node5" class="node">
<title>Node5</title>
<g id="a_node5"><a xlink:href="classprecice_1_1io_1_1ExportVTK.html#a059f840aae386d0aceef44b4776a4841" target="_top" xlink:title=" ">
<polygon fill="white" stroke="black" points="388,-431.5 388,-461.5 512,-461.5 512,-431.5 388,-431.5"/>
<text text-anchor="start" x="396" y="-449.5" font-family="Helvetica,sans-Serif" font-size="10.00">precice::io::ExportVTK</text>
<text text-anchor="middle" x="450" y="-438.5" font-family="Helvetica,sans-Serif" font-size="10.00">::exportData</text>
</a>
</g>
</g>
<!-- Node4&#45;&gt;Node5 -->
<g id="edge4" class="edge">
<title>Node4&#45;&gt;Node5</title>
<path fill="none" stroke="midnightblue" d="M319.22,-462.81C337.9,-460.46 358.59,-457.86 377.87,-455.44"/>
<polygon fill="midnightblue" stroke="midnightblue" points="378.31,-458.91 387.8,-454.19 377.44,-451.96 378.31,-458.91"/>
</g>
<!-- Node9 -->
<g id="node9" class="node">
<title>Node9</title>
<g id="a_node9"><a xlink:href="classprecice_1_1io_1_1ExportVTK.html#afe67b3e2730e44111fdba15d8ac53c1a" target="_top" xlink:title=" ">
<polygon fill="white" stroke="black" points="388,-480.5 388,-510.5 512,-510.5 512,-480.5 388,-480.5"/>
<text text-anchor="start" x="396" y="-498.5" font-family="Helvetica,sans-Serif" font-size="10.00">precice::io::ExportVTK</text>
<text text-anchor="middle" x="450" y="-487.5" font-family="Helvetica,sans-Serif" font-size="10.00">::exportGradient</text>
</a>
</g>
</g>
<!-- Node4&#45;&gt;Node9 -->
<g id="edge8" class="edge">
<title>Node4&#45;&gt;Node9</title>
<path fill="none" stroke="midnightblue" d="M319.22,-478.51C337.9,-480.96 358.59,-483.67 377.87,-486.19"/>
<polygon fill="midnightblue" stroke="midnightblue" points="377.43,-489.66 387.8,-487.49 378.34,-482.72 377.43,-489.66"/>
</g>
<!-- Node11 -->
<g id="node11" class="node">
<title>Node11</title>
<g id="a_node11"><a xlink:href="classprecice_1_1io_1_1ExportVTK.html#aba316940c3b78a5f6b47cd769e1d70c5" target="_top" xlink:title=" ">
<polygon fill="white" stroke="black" points="388,-294.5 388,-324.5 512,-324.5 512,-294.5 388,-294.5"/>
<text text-anchor="start" x="396" y="-312.5" font-family="Helvetica,sans-Serif" font-size="10.00">precice::io::ExportVTK</text>
<text text-anchor="middle" x="450" y="-301.5" font-family="Helvetica,sans-Serif" font-size="10.00">::exportMesh</text>
</a>
</g>
</g>
<!-- Node4&#45;&gt;Node11 -->
<g id="edge12" class="edge">
<title>Node4&#45;&gt;Node11</title>
<path fill="none" stroke="midnightblue" d="M275.97,-455.35C309.95,-426.71 383.76,-364.49 423.1,-331.34"/>
<polygon fill="midnightblue" stroke="midnightblue" points="425.55,-333.84 430.94,-324.72 421.04,-328.49 425.55,-333.84"/>
</g>
<!-- Node13 -->
<g id="node13" class="node">
<title>Node13</title>
<g id="a_node13"><a xlink:href="classprecice_1_1mesh_1_1Mesh.html#a3185fe962ba3e8fe0b3cf451681e6a48" target="_top" xlink:title="Returns the name of the mesh, as set in the config file.">
<polygon fill="white" stroke="black" points="568.5,-382.5 568.5,-412.5 685.5,-412.5 685.5,-382.5 568.5,-382.5"/>
<text text-anchor="start" x="576.5" y="-400.5" font-family="Helvetica,sans-Serif" font-size="10.00">precice::mesh::Mesh</text>
<text text-anchor="middle" x="627" y="-389.5" font-family="Helvetica,sans-Serif" font-size="10.00">::getName</text>
</a>
</g>
</g>
<!-- Node4&#45;&gt;Node13 -->
<g id="edge24" class="edge">
<title>Node4&#45;&gt;Node13</title>
<path fill="none" stroke="midnightblue" d="M286.88,-455.33C309.22,-444.32 341.26,-430.08 371,-422.5 433.23,-406.63 506.37,-400.71 558.33,-398.56"/>
<polygon fill="midnightblue" stroke="midnightblue" points="558.57,-402.06 568.43,-398.18 558.3,-395.06 558.57,-402.06"/>
</g>
<!-- Node21 -->
<g id="node21" class="node">
<title>Node21</title>
<g id="a_node21"><a xlink:href="classprecice_1_1io_1_1ExportVTK.html#a49609d2a00aee1bb2775c513c2c0da5a" target="_top" xlink:title=" ">
<polygon fill="white" stroke="black" points="388,-627.5 388,-657.5 512,-657.5 512,-627.5 388,-627.5"/>
<text text-anchor="start" x="396" y="-645.5" font-family="Helvetica,sans-Serif" font-size="10.00">precice::io::ExportVTK</text>
<text text-anchor="middle" x="450" y="-634.5" font-family="Helvetica,sans-Serif" font-size="10.00">::initializeWriting</text>
</a>
</g>
</g>
<!-- Node4&#45;&gt;Node21 -->
<g id="edge25" class="edge">
<title>Node4&#45;&gt;Node21</title>
<path fill="none" stroke="midnightblue" d="M319.34,-484.01C325.12,-487.08 330.5,-490.86 335,-495.5 374.68,-536.36 331,-577.95 371,-618.5 373.39,-620.92 376.01,-623.1 378.81,-625.06"/>
<polygon fill="midnightblue" stroke="midnightblue" points="377.27,-628.21 387.66,-630.3 380.84,-622.19 377.27,-628.21"/>
</g>
<!-- Node22 -->
<g id="node22" class="node">
<title>Node22</title>
<g id="a_node22"><a xlink:href="classprecice_1_1utils_1_1IntraComm.html#a946589c66048ff3058ffa078d54b6073" target="_top" xlink:title="True if this process is running in parallel.">
<polygon fill="white" stroke="black" points="380,-578.5 380,-608.5 520,-608.5 520,-578.5 380,-578.5"/>
<text text-anchor="start" x="388" y="-596.5" font-family="Helvetica,sans-Serif" font-size="10.00">precice::utils::IntraComm</text>
<text text-anchor="middle" x="450" y="-585.5" font-family="Helvetica,sans-Serif" font-size="10.00">::isParallel</text>
</a>
</g>
</g>
<!-- Node4&#45;&gt;Node22 -->
<g id="edge26" class="edge">
<title>Node4&#45;&gt;Node22</title>
<path fill="none" stroke="midnightblue" d="M319.36,-485.19C325,-488.04 330.33,-491.44 335,-495.5 362.59,-519.51 343.22,-545.71 371,-569.5 372.37,-570.67 373.79,-571.79 375.27,-572.85"/>
<polygon fill="midnightblue" stroke="midnightblue" points="373.81,-576.06 384.16,-578.35 377.49,-570.11 373.81,-576.06"/>
</g>
<!-- Node23 -->
<g id="node23" class="node">
<title>Node23</title>
<g id="a_node23"><a xlink:href="classprecice_1_1io_1_1ExportVTK.html#a2774522fb358345188e85245cc48a0b6" target="_top" xlink:title=" ">
<polygon fill="white" stroke="black" points="388,-529.5 388,-559.5 512,-559.5 512,-529.5 388,-529.5"/>
<text text-anchor="start" x="396" y="-547.5" font-family="Helvetica,sans-Serif" font-size="10.00">precice::io::ExportVTK</text>
<text text-anchor="middle" x="450" y="-536.5" font-family="Helvetica,sans-Serif" font-size="10.00">::writeHeader</text>
</a>
</g>
</g>
<!-- Node4&#45;&gt;Node23 -->
<g id="edge27" class="edge">
<title>Node4&#45;&gt;Node23</title>
<path fill="none" stroke="midnightblue" d="M311.42,-485.58C319.48,-488.5 327.57,-491.82 335,-495.5 352.45,-504.16 353.48,-511.98 371,-520.5 374.8,-522.35 378.77,-524.09 382.82,-525.73"/>
<polygon fill="midnightblue" stroke="midnightblue" points="381.79,-529.08 392.38,-529.36 384.28,-522.54 381.79,-529.08"/>
</g>
<!-- Node6 -->
<g id="node6" class="node">
<title>Node6</title>
<g id="a_node6"><a xlink:href="classprecice_1_1mesh_1_1Mesh.html#aceb3eabb4f8e40a44d5d1c2822ba7b56" target="_top" xlink:title="Allows access to all data.">
<polygon fill="white" stroke="black" points="568.5,-529.5 568.5,-559.5 685.5,-559.5 685.5,-529.5 568.5,-529.5"/>
<text text-anchor="start" x="576.5" y="-547.5" font-family="Helvetica,sans-Serif" font-size="10.00">precice::mesh::Mesh</text>
<text text-anchor="middle" x="627" y="-536.5" font-family="Helvetica,sans-Serif" font-size="10.00">::data</text>
</a>
</g>
</g>
<!-- Node5&#45;&gt;Node6 -->
<g id="edge5" class="edge">
<title>Node5&#45;&gt;Node6</title>
<path fill="none" stroke="midnightblue" d="M511.63,-461.66C517.77,-464.43 523.69,-467.68 529,-471.5 550.94,-487.28 543.59,-504.02 565,-520.5 566.8,-521.88 568.68,-523.19 570.63,-524.44"/>
<polygon fill="midnightblue" stroke="midnightblue" points="569.09,-527.59 579.52,-529.47 572.54,-521.5 569.09,-527.59"/>
</g>
<!-- Node7 -->
<g id="node7" class="node">
<title>Node7</title>
<g id="a_node7"><a xlink:href="namespaceprecice_1_1detail.html#adede399b4b92eea01face616a0cc7051" target="_top" xlink:title=" ">
<polygon fill="white" stroke="black" points="570.5,-579 570.5,-598 683.5,-598 683.5,-579 570.5,-579"/>
<text text-anchor="middle" x="627" y="-586" font-family="Helvetica,sans-Serif" font-size="10.00">precice::detail::data</text>
</a>
</g>
</g>
<!-- Node5&#45;&gt;Node7 -->
<g id="edge6" class="edge">
<title>Node5&#45;&gt;Node7</title>
<path fill="none" stroke="midnightblue" d="M512.04,-459.84C518.25,-462.94 524.07,-466.78 529,-471.5 562.49,-503.62 531.38,-537.52 565,-569.5 566.67,-571.08 568.46,-572.54 570.35,-573.87"/>
<polygon fill="midnightblue" stroke="midnightblue" points="568.77,-577 579.18,-578.96 572.27,-570.93 568.77,-577"/>
</g>
<!-- Node8 -->
<g id="node8" class="node">
<title>Node8</title>
<g id="a_node8"><a xlink:href="classprecice_1_1mesh_1_1Mesh.html#a70d28ab188762edbe9a7b5b8439e9906" target="_top" xlink:title="Returns modifieable container holding all vertices.">
<polygon fill="white" stroke="black" points="568.5,-431.5 568.5,-461.5 685.5,-461.5 685.5,-431.5 568.5,-431.5"/>
<text text-anchor="start" x="576.5" y="-449.5" font-family="Helvetica,sans-Serif" font-size="10.00">precice::mesh::Mesh</text>
<text text-anchor="middle" x="627" y="-438.5" font-family="Helvetica,sans-Serif" font-size="10.00">::vertices</text>
</a>
</g>
</g>
<!-- Node5&#45;&gt;Node8 -->
<g id="edge7" class="edge">
<title>Node5&#45;&gt;Node8</title>
<path fill="none" stroke="midnightblue" d="M512.21,-446.5C527.02,-446.5 542.95,-446.5 558.05,-446.5"/>
<polygon fill="midnightblue" stroke="midnightblue" points="558.35,-450 568.35,-446.5 558.35,-443 558.35,-450"/>
</g>
<!-- Node9&#45;&gt;Node6 -->
<g id="edge9" class="edge">
<title>Node9&#45;&gt;Node6</title>
<path fill="none" stroke="midnightblue" d="M504.93,-510.6C523.15,-515.7 543.65,-521.44 562.54,-526.73"/>
<polygon fill="midnightblue" stroke="midnightblue" points="561.67,-530.12 572.24,-529.45 563.56,-523.38 561.67,-530.12"/>
</g>
<!-- Node9&#45;&gt;Node7 -->
<g id="edge10" class="edge">
<title>Node9&#45;&gt;Node7</title>
<path fill="none" stroke="midnightblue" d="M511.63,-510.66C517.77,-513.43 523.69,-516.68 529,-520.5 550.94,-536.28 543,-553.81 565,-569.5 567.71,-571.43 570.62,-573.17 573.65,-574.74"/>
<polygon fill="midnightblue" stroke="midnightblue" points="572.45,-578.04 583.01,-578.94 575.32,-571.65 572.45,-578.04"/>
</g>
<!-- Node10 -->
<g id="node10" class="node">
<title>Node10</title>
<g id="a_node10"><a xlink:href="classprecice_1_1mesh_1_1Mesh.html#a136f6b4ce235025e418fab0ca5f350ff" target="_top" xlink:title=" ">
<polygon fill="white" stroke="black" points="568.5,-480.5 568.5,-510.5 685.5,-510.5 685.5,-480.5 568.5,-480.5"/>
<text text-anchor="start" x="576.5" y="-498.5" font-family="Helvetica,sans-Serif" font-size="10.00">precice::mesh::Mesh</text>
<text text-anchor="middle" x="627" y="-487.5" font-family="Helvetica,sans-Serif" font-size="10.00">::getDimensions</text>
</a>
</g>
</g>
<!-- Node9&#45;&gt;Node10 -->
<g id="edge11" class="edge">
<title>Node9&#45;&gt;Node10</title>
<path fill="none" stroke="midnightblue" d="M512.21,-495.5C527.02,-495.5 542.95,-495.5 558.05,-495.5"/>
<polygon fill="midnightblue" stroke="midnightblue" points="558.35,-499 568.35,-495.5 558.35,-492 558.35,-499"/>
</g>
<!-- Node11&#45;&gt;Node8 -->
<g id="edge19" class="edge">
<title>Node11&#45;&gt;Node8</title>
<path fill="none" stroke="midnightblue" d="M462.79,-324.64C481.95,-348.37 522.05,-394.49 565,-422.5 567.29,-423.99 569.69,-425.42 572.15,-426.77"/>
<polygon fill="midnightblue" stroke="midnightblue" points="570.79,-430 581.29,-431.38 573.93,-423.75 570.79,-430"/>
</g>
<!-- Node11&#45;&gt;Node10 -->
<g id="edge14" class="edge">
<title>Node11&#45;&gt;Node10</title>
<path fill="none" stroke="midnightblue" d="M461.55,-324.73C489.13,-364.53 561.5,-468.75 565,-471.5 566.61,-472.77 568.3,-473.97 570.04,-475.12"/>
<polygon fill="midnightblue" stroke="midnightblue" points="568.73,-478.41 579.13,-480.4 572.24,-472.35 568.73,-478.41"/>
</g>
<!-- Node12 -->
<g id="node12" class="node">
<title>Node12</title>
<g id="a_node12"><a xlink:href="classprecice_1_1mesh_1_1Mesh.html#a1208772095354f328cae1b087e64642e" target="_top" xlink:title="Returns modifiable container holding all edges.">
<polygon fill="white" stroke="black" points="568.5,-0.5 568.5,-30.5 685.5,-30.5 685.5,-0.5 568.5,-0.5"/>
<text text-anchor="start" x="576.5" y="-18.5" font-family="Helvetica,sans-Serif" font-size="10.00">precice::mesh::Mesh</text>
<text text-anchor="middle" x="627" y="-7.5" font-family="Helvetica,sans-Serif" font-size="10.00">::edges</text>
</a>
</g>
</g>
<!-- Node11&#45;&gt;Node12 -->
<g id="edge13" class="edge">
<title>Node11&#45;&gt;Node12</title>
<path fill="none" stroke="midnightblue" d="M512.3,-297.52C518.62,-294.18 524.4,-289.92 529,-284.5 600.18,-200.55 496.58,-125.7 565,-39.5 565.6,-38.74 566.23,-38 566.89,-37.29"/>
<polygon fill="midnightblue" stroke="midnightblue" points="569.47,-39.68 574.76,-30.51 564.9,-34.38 569.47,-39.68"/>
</g>
<!-- Node11&#45;&gt;Node13 -->
<g id="edge15" class="edge">
<title>Node11&#45;&gt;Node13</title>
<path fill="none" stroke="midnightblue" d="M476.36,-324.63C499.17,-337.96 533.8,-357.55 565,-372.5 569.12,-374.47 573.43,-376.44 577.78,-378.35"/>
<polygon fill="midnightblue" stroke="midnightblue" points="576.74,-381.71 587.31,-382.43 579.49,-375.28 576.74,-381.71"/>
</g>
<!-- Node14 -->
<g id="node14" class="node">
<title>Node14</title>
<g id="a_node14"><a xlink:href="namespaceprecice_1_1detail.html#a99f20f73c4a3c34d08429ac0fea564ef" target="_top" xlink:title=" ">
<polygon fill="white" stroke="black" points="571.5,-344 571.5,-363 682.5,-363 682.5,-344 571.5,-344"/>
<text text-anchor="middle" x="627" y="-351" font-family="Helvetica,sans-Serif" font-size="10.00">precice::detail::size</text>
</a>
</g>
</g>
<!-- Node11&#45;&gt;Node14 -->
<g id="edge16" class="edge">
<title>Node11&#45;&gt;Node14</title>
<path fill="none" stroke="midnightblue" d="M510.74,-324.52C532.77,-330.06 557.43,-336.26 578.27,-341.5"/>
<polygon fill="midnightblue" stroke="midnightblue" points="577.61,-344.94 588.17,-343.99 579.32,-338.15 577.61,-344.94"/>
</g>
<!-- Node15 -->
<g id="node15" class="node">
<title>Node15</title>
<g id="a_node15"><a xlink:href="classprecice_1_1mesh_1_1Mesh.html#a479bf9583fd5a233f8ed1c8b9b3fe5c4" target="_top" xlink:title="Returns modifiable container holding all tetrahedra.">
<polygon fill="white" stroke="black" points="568.5,-294.5 568.5,-324.5 685.5,-324.5 685.5,-294.5 568.5,-294.5"/>
<text text-anchor="start" x="576.5" y="-312.5" font-family="Helvetica,sans-Serif" font-size="10.00">precice::mesh::Mesh</text>
<text text-anchor="middle" x="627" y="-301.5" font-family="Helvetica,sans-Serif" font-size="10.00">::tetrahedra</text>
</a>
</g>
</g>
<!-- Node11&#45;&gt;Node15 -->
<g id="edge17" class="edge">
<title>Node11&#45;&gt;Node15</title>
<path fill="none" stroke="midnightblue" d="M512.21,-309.5C527.02,-309.5 542.95,-309.5 558.05,-309.5"/>
<polygon fill="midnightblue" stroke="midnightblue" points="558.35,-313 568.35,-309.5 558.35,-306 558.35,-313"/>
</g>
<!-- Node16 -->
<g id="node16" class="node">
<title>Node16</title>
<g id="a_node16"><a xlink:href="classprecice_1_1mesh_1_1Mesh.html#ad74df9a7f4cb96c251d32c3159d67352" target="_top" xlink:title="Returns modifiable container holding all triangles.">
<polygon fill="white" stroke="black" points="568.5,-245.5 568.5,-275.5 685.5,-275.5 685.5,-245.5 568.5,-245.5"/>
<text text-anchor="start" x="576.5" y="-263.5" font-family="Helvetica,sans-Serif" font-size="10.00">precice::mesh::Mesh</text>
<text text-anchor="middle" x="627" y="-252.5" font-family="Helvetica,sans-Serif" font-size="10.00">::triangles</text>
</a>
</g>
</g>
<!-- Node11&#45;&gt;Node16 -->
<g id="edge18" class="edge">
<title>Node11&#45;&gt;Node16</title>
<path fill="none" stroke="midnightblue" d="M504.93,-294.4C523.15,-289.3 543.65,-283.56 562.54,-278.27"/>
<polygon fill="midnightblue" stroke="midnightblue" points="563.56,-281.62 572.24,-275.55 561.67,-274.88 563.56,-281.62"/>
</g>
<!-- Node17 -->
<g id="node17" class="node">
<title>Node17</title>
<g id="a_node17"><a xlink:href="classprecice_1_1io_1_1ExportVTK.html#a36a5ee193ff949d9bc9b0979c27e2aea" target="_top" xlink:title=" ">
<polygon fill="white" stroke="black" points="565,-196.5 565,-226.5 689,-226.5 689,-196.5 565,-196.5"/>
<text text-anchor="start" x="573" y="-214.5" font-family="Helvetica,sans-Serif" font-size="10.00">precice::io::ExportVTK</text>
<text text-anchor="middle" x="627" y="-203.5" font-family="Helvetica,sans-Serif" font-size="10.00">::writeLine</text>
</a>
</g>
</g>
<!-- Node11&#45;&gt;Node17 -->
<g id="edge20" class="edge">
<title>Node11&#45;&gt;Node17</title>
<path fill="none" stroke="midnightblue" d="M511.63,-294.34C517.77,-291.57 523.69,-288.32 529,-284.5 550.94,-268.72 543.59,-251.98 565,-235.5 566.8,-234.12 568.68,-232.81 570.63,-231.56"/>
<polygon fill="midnightblue" stroke="midnightblue" points="572.54,-234.5 579.52,-226.53 569.09,-228.41 572.54,-234.5"/>
</g>
<!-- Node18 -->
<g id="node18" class="node">
<title>Node18</title>
<g id="a_node18"><a xlink:href="classprecice_1_1io_1_1ExportVTK.html#a56ad08c92bff7213cd0508ab23d0d67b" target="_top" xlink:title=" ">
<polygon fill="white" stroke="black" points="565,-147.5 565,-177.5 689,-177.5 689,-147.5 565,-147.5"/>
<text text-anchor="start" x="573" y="-165.5" font-family="Helvetica,sans-Serif" font-size="10.00">precice::io::ExportVTK</text>
<text text-anchor="middle" x="627" y="-154.5" font-family="Helvetica,sans-Serif" font-size="10.00">::writeTetrahedron</text>
</a>
</g>
</g>
<!-- Node11&#45;&gt;Node18 -->
<g id="edge21" class="edge">
<title>Node11&#45;&gt;Node18</title>
<path fill="none" stroke="midnightblue" d="M512.04,-296.16C518.25,-293.06 524.07,-289.22 529,-284.5 562.49,-252.38 532.57,-219.68 565,-186.5 565.94,-185.54 566.92,-184.61 567.94,-183.73"/>
<polygon fill="midnightblue" stroke="midnightblue" points="570.35,-186.31 576.39,-177.61 566.24,-180.64 570.35,-186.31"/>
</g>
<!-- Node19 -->
<g id="node19" class="node">
<title>Node19</title>
<g id="a_node19"><a xlink:href="classprecice_1_1io_1_1ExportVTK.html#ad61070a5ab935aab087ff8865a21d2b5" target="_top" xlink:title=" ">
<polygon fill="white" stroke="black" points="565,-98.5 565,-128.5 689,-128.5 689,-98.5 565,-98.5"/>
<text text-anchor="start" x="573" y="-116.5" font-family="Helvetica,sans-Serif" font-size="10.00">precice::io::ExportVTK</text>
<text text-anchor="middle" x="627" y="-105.5" font-family="Helvetica,sans-Serif" font-size="10.00">::writeTriangle</text>
</a>
</g>
</g>
<!-- Node11&#45;&gt;Node19 -->
<g id="edge22" class="edge">
<title>Node11&#45;&gt;Node19</title>
<path fill="none" stroke="midnightblue" d="M512.2,-296.89C518.46,-293.66 524.25,-289.6 529,-284.5 574.87,-235.3 520.75,-188.16 565,-137.5 565.75,-136.64 566.53,-135.82 567.35,-135.02"/>
<polygon fill="midnightblue" stroke="midnightblue" points="569.76,-137.57 575.4,-128.6 565.4,-132.1 569.76,-137.57"/>
</g>
<!-- Node20 -->
<g id="node20" class="node">
<title>Node20</title>
<g id="a_node20"><a xlink:href="classprecice_1_1io_1_1ExportVTK.html#a274ab69f114b930ee6a43f1660fc1d68" target="_top" xlink:title=" ">
<polygon fill="white" stroke="black" points="565,-49.5 565,-79.5 689,-79.5 689,-49.5 565,-49.5"/>
<text text-anchor="start" x="573" y="-67.5" font-family="Helvetica,sans-Serif" font-size="10.00">precice::io::ExportVTK</text>
<text text-anchor="middle" x="627" y="-56.5" font-family="Helvetica,sans-Serif" font-size="10.00">::writeVertex</text>
</a>
</g>
</g>
<!-- Node11&#45;&gt;Node20 -->
<g id="edge23" class="edge">
<title>Node11&#45;&gt;Node20</title>
<path fill="none" stroke="midnightblue" d="M512.12,-297.36C518.47,-294.05 524.31,-289.84 529,-284.5 587.48,-217.98 508.7,-156.88 565,-88.5 565.71,-87.64 566.45,-86.82 567.22,-86.02"/>
<polygon fill="midnightblue" stroke="midnightblue" points="569.46,-88.71 574.9,-79.61 564.98,-83.33 569.46,-88.71"/>
</g>
<!-- Node25 -->
<g id="node25" class="node">
<title>Node25</title>
<g id="a_node25"><a xlink:href="classprecice_1_1utils_1_1ManageUniqueIDs.html#a02be264c279698ae293587b6576088b5" target="_top" xlink:title=" ">
<polygon fill="white" stroke="black" points="371,-245.5 371,-275.5 529,-275.5 529,-245.5 371,-245.5"/>
<text text-anchor="start" x="379" y="-263.5" font-family="Helvetica,sans-Serif" font-size="10.00">precice::utils::ManageUnique</text>
<text text-anchor="middle" x="450" y="-252.5" font-family="Helvetica,sans-Serif" font-size="10.00">IDs::getFreeID</text>
</a>
</g>
</g>
<!-- Node24&#45;&gt;Node25 -->
<g id="edge29" class="edge">
<title>Node24&#45;&gt;Node25</title>
<path fill="none" stroke="midnightblue" d="M270.92,-345.78C291.27,-330.86 332.46,-302.17 371,-284.5 375.28,-282.54 379.77,-280.68 384.33,-278.93"/>
<polygon fill="midnightblue" stroke="midnightblue" points="385.57,-282.21 393.77,-275.5 383.18,-275.63 385.57,-282.21"/>
</g>
</g>
</svg>
        <g id="navigator" transform="translate(0 0)" fill="#404254">
                <rect fill="#f2f5e9" fill-opacity="0.5" stroke="#606060" stroke-width=".5" x="0" y="0" width="60" height="60"/>
                <use id="zoomplus" xlink:href="#zoomPlus" x="17" y="9" onmousedown="handleZoom(evt,'in')"/>
                <use id="zoomminus" xlink:href="#zoomMin" x="42" y="9" onmousedown="handleZoom(evt,'out')"/>
                <use id="reset" xlink:href="#resetDef" x="30" y="36" onmousedown="handleReset()"/>
                <g id="arrowUp" xlink:href="#dirArrow" transform="translate(30 24)" onmousedown="handlePan(0,-1)">
                  <use xlink:href="#rim" fill="#404040">
                        <set attributeName="fill" to="#808080" begin="arrowUp.mouseover" end="arrowUp.mouseout"/>
                  </use>
                  <path fill="none" stroke="white" stroke-width="1.5" d="M0,-3.0v7 M-2.5,-0.5L0,-3.0L2.5,-0.5"/>
                </g>
                <g id="arrowRight" xlink:href="#dirArrow" transform="rotate(90) translate(36 -43)" onmousedown="handlePan(1,0)">
                  <use xlink:href="#rim" fill="#404040">
                        <set attributeName="fill" to="#808080" begin="arrowRight.mouseover" end="arrowRight.mouseout"/>
                  </use>
                  <path fill="none" stroke="white" stroke-width="1.5" d="M0,-3.0v7 M-2.5,-0.5L0,-3.0L2.5,-0.5"/>
                </g>
                <g id="arrowDown" xlink:href="#dirArrow" transform="rotate(180) translate(-30 -48)" onmousedown="handlePan(0,1)">
                  <use xlink:href="#rim" fill="#404040">
                        <set attributeName="fill" to="#808080" begin="arrowDown.mouseover" end="arrowDown.mouseout"/>
                  </use>
                  <path fill="none" stroke="white" stroke-width="1.5" d="M0,-3.0v7 M-2.5,-0.5L0,-3.0L2.5,-0.5"/>
                </g>
                <g id="arrowLeft" xlink:href="#dirArrow" transform="rotate(270) translate(-36 17)" onmousedown="handlePan(-1,0)">
                  <use xlink:href="#rim" fill="#404040">
                        <set attributeName="fill" to="#808080" begin="arrowLeft.mouseover" end="arrowLeft.mouseout"/>
                  </use>
                  <path fill="none" stroke="white" stroke-width="1.5" d="M0,-3.0v7 M-2.5,-0.5L0,-3.0L2.5,-0.5"/>
                </g>
        </g>
        <svg viewBox="0 0 15 15" width="100%" height="30px" preserveAspectRatio="xMaxYMin meet">
         <g id="arrow_out" transform="scale(0.3 0.3)">
          <a xlink:href="ExportVTKTest_8cpp_a81c76cdbfed25cb420b388970cf8c4c9_cgraph_org.svg" target="_base">
           <rect id="button" ry="5" rx="5" y="6" x="6" height="38" width="38"
                fill="#f2f5e9" fill-opacity="0.5" stroke="#606060" stroke-width="1.0"/>
           <path id="arrow"
             d="M 11.500037,31.436501 C 11.940474,20.09759 22.043105,11.32322 32.158766,21.979434 L 37.068811,17.246167 C 37.068811,17.246167 37.088388,32 37.088388,32 L 22.160133,31.978069 C 22.160133,31.978069 26.997745,27.140456 26.997745,27.140456 C 18.528582,18.264221 13.291696,25.230495 11.500037,31.436501 z"
             style="fill:#404040;"/>
          </a>
         </g>
        </svg>
</svg>
