<?xml version="1.0" encoding="UTF-8" standalone="no"?>
<!DOCTYPE svg PUBLIC "-//W3C//DTD SVG 1.1//EN"
 "http://www.w3.org/Graphics/SVG/1.1/DTD/svg11.dtd">
<!-- Generated by graphviz version 2.43.0 (0)
 -->
<!-- Title: BOOST_AUTO_TEST_CASE Pages: 1 -->
<svg width="704pt" height="684pt"
 viewBox="0.00 0.00 704.00 684.00" xmlns="http://www.w3.org/2000/svg" xmlns:xlink="http://www.w3.org/1999/xlink">
<g id="graph0" class="graph" transform="scale(1 1) rotate(0) translate(4 680)">
<title>BOOST_AUTO_TEST_CASE</title>
<polygon fill="white" stroke="transparent" points="-4,4 -4,-680 700,-680 700,4 -4,4"/>
<!-- Node1 -->
<g id="node1" class="node">
<title>Node1</title>
<g id="a_node1"><a xlink:title=" ">
<polygon fill="#bfbfbf" stroke="black" points="0,-398 0,-417 143,-417 143,-398 0,-398"/>
<text text-anchor="middle" x="71.5" y="-405" font-family="Helvetica,sans-Serif" font-size="10.00">BOOST_AUTO_TEST_CASE</text>
</a>
</g>
</g>
<!-- Node2 -->
<g id="node2" class="node">
<title>Node2</title>
<g id="a_node2"><a xlink:href="classprecice_1_1mesh_1_1Mesh.html#afa920f8d8d32076837ae5e3dc28b0eea" target="_top" xlink:title="Allocates memory for the vertex data values and corresponding gradient values.">
<polygon fill="white" stroke="black" points="198.5,-583.5 198.5,-613.5 315.5,-613.5 315.5,-583.5 198.5,-583.5"/>
<text text-anchor="start" x="206.5" y="-601.5" font-family="Helvetica,sans-Serif" font-size="10.00">precice::mesh::Mesh</text>
<text text-anchor="middle" x="257" y="-590.5" font-family="Helvetica,sans-Serif" font-size="10.00">::allocateDataValues</text>
</a>
</g>
</g>
<!-- Node1&#45;&gt;Node2 -->
<g id="edge1" class="edge">
<title>Node1&#45;&gt;Node2</title>
<path fill="none" stroke="midnightblue" d="M81.85,-417.23C109.98,-446.52 194.35,-534.33 234.42,-576.03"/>
<polygon fill="midnightblue" stroke="midnightblue" points="232.13,-578.71 241.58,-583.5 237.18,-573.86 232.13,-578.71"/>
</g>
<!-- Node5 -->
<g id="node5" class="node">
<title>Node5</title>
<g id="a_node5"><a xlink:href="classprecice_1_1mesh_1_1Mesh.html#aeed628dbad9a68c3dde65c50979fd143" target="_top" xlink:title="Create only data for vertex.">
<polygon fill="white" stroke="black" points="198.5,-645.5 198.5,-675.5 315.5,-675.5 315.5,-645.5 198.5,-645.5"/>
<text text-anchor="start" x="206.5" y="-663.5" font-family="Helvetica,sans-Serif" font-size="10.00">precice::mesh::Mesh</text>
<text text-anchor="middle" x="257" y="-652.5" font-family="Helvetica,sans-Serif" font-size="10.00">::createData</text>
</a>
</g>
</g>
<!-- Node1&#45;&gt;Node5 -->
<g id="edge4" class="edge">
<title>Node1&#45;&gt;Node5</title>
<path fill="none" stroke="midnightblue" d="M74.79,-417.02C83.12,-449.87 114.82,-559.97 179,-623.5 185.88,-630.31 194.27,-636.06 202.94,-640.84"/>
<polygon fill="midnightblue" stroke="midnightblue" points="201.53,-644.05 212.02,-645.47 204.71,-637.81 201.53,-644.05"/>
</g>
<!-- Node6 -->
<g id="node6" class="node">
<title>Node6</title>
<g id="a_node6"><a xlink:href="classprecice_1_1mesh_1_1Mesh.html#af6e6d684553dc5d0f0a23cacb77b3fc7" target="_top" xlink:title="Creates and initializes a Vertex object.">
<polygon fill="white" stroke="black" points="198.5,-343.5 198.5,-373.5 315.5,-373.5 315.5,-343.5 198.5,-343.5"/>
<text text-anchor="start" x="206.5" y="-361.5" font-family="Helvetica,sans-Serif" font-size="10.00">precice::mesh::Mesh</text>
<text text-anchor="middle" x="257" y="-350.5" font-family="Helvetica,sans-Serif" font-size="10.00">::createVertex</text>
</a>
</g>
</g>
<!-- Node1&#45;&gt;Node6 -->
<g id="edge6" class="edge">
<title>Node1&#45;&gt;Node6</title>
<path fill="none" stroke="midnightblue" d="M108.32,-397.94C131.45,-391.76 162.25,-383.54 189.73,-376.2"/>
<polygon fill="midnightblue" stroke="midnightblue" points="190.93,-379.5 199.69,-373.54 189.12,-372.74 190.93,-379.5"/>
</g>
<!-- Node7 -->
<g id="node7" class="node">
<title>Node7</title>
<g id="a_node7"><a xlink:href="classprecice_1_1io_1_1ExportVTK.html#ad5ac77cae274433043e8d64b6a98c8e0" target="_top" xlink:title="Perform writing to VTK file.">
<polygon fill="white" stroke="black" points="195,-392.5 195,-422.5 319,-422.5 319,-392.5 195,-392.5"/>
<text text-anchor="start" x="203" y="-410.5" font-family="Helvetica,sans-Serif" font-size="10.00">precice::io::ExportVTK</text>
<text text-anchor="middle" x="257" y="-399.5" font-family="Helvetica,sans-Serif" font-size="10.00">::doExport</text>
</a>
</g>
</g>
<!-- Node1&#45;&gt;Node7 -->
<g id="edge7" class="edge">
<title>Node1&#45;&gt;Node7</title>
<path fill="none" stroke="midnightblue" d="M143.18,-407.5C156.78,-407.5 171.03,-407.5 184.65,-407.5"/>
<polygon fill="midnightblue" stroke="midnightblue" points="184.92,-411 194.92,-407.5 184.92,-404 184.92,-411"/>
</g>
<!-- Node26 -->
<g id="node26" class="node">
<title>Node26</title>
<g id="a_node26"><a xlink:href="namespaceprecice_1_1testing.html#a08533fd83bad3d7f27ea7f4a35a14aa4" target="_top" xlink:title=" ">
<polygon fill="white" stroke="black" points="179,-259 179,-278 335,-278 335,-259 179,-259"/>
<text text-anchor="middle" x="257" y="-266" font-family="Helvetica,sans-Serif" font-size="10.00">precice::testing::nextMeshID</text>
</a>
</g>
</g>
<!-- Node1&#45;&gt;Node26 -->
<g id="edge32" class="edge">
<title>Node1&#45;&gt;Node26</title>
<path fill="none" stroke="midnightblue" d="M85.11,-397.95C116.15,-374.44 196.48,-313.59 234.91,-284.47"/>
<polygon fill="midnightblue" stroke="midnightblue" points="237.44,-286.95 243.3,-278.12 233.21,-281.37 237.44,-286.95"/>
</g>
<!-- Node3 -->
<g id="node3" class="node">
<title>Node3</title>
<g id="a_node3"><a xlink:href="namespaceprecice_1_1utils.html#a70a03ea1367189736d49351c6385c8c9" target="_top" xlink:title=" ">
<polygon fill="white" stroke="black" points="389.5,-627 389.5,-646 510.5,-646 510.5,-627 389.5,-627"/>
<text text-anchor="middle" x="450" y="-634" font-family="Helvetica,sans-Serif" font-size="10.00">precice::utils::append</text>
</a>
</g>
</g>
<!-- Node2&#45;&gt;Node3 -->
<g id="edge2" class="edge">
<title>Node2&#45;&gt;Node3</title>
<path fill="none" stroke="midnightblue" d="M315.57,-609.95C339.5,-614.71 367.22,-620.23 391.18,-625"/>
<polygon fill="midnightblue" stroke="midnightblue" points="390.71,-628.47 401.2,-626.99 392.07,-621.61 390.71,-628.47"/>
</g>
<!-- Node4 -->
<g id="node4" class="node">
<title>Node4</title>
<g id="a_node4"><a xlink:href="classprecice_1_1mesh_1_1Mesh.html#aceb3eabb4f8e40a44d5d1c2822ba7b56" target="_top" xlink:title="Allows access to all data.">
<polygon fill="white" stroke="black" points="572,-588.5 572,-618.5 689,-618.5 689,-588.5 572,-588.5"/>
<text text-anchor="start" x="580" y="-606.5" font-family="Helvetica,sans-Serif" font-size="10.00">precice::mesh::Mesh</text>
<text text-anchor="middle" x="630.5" y="-595.5" font-family="Helvetica,sans-Serif" font-size="10.00">::data</text>
</a>
</g>
</g>
<!-- Node2&#45;&gt;Node4 -->
<g id="edge3" class="edge">
<title>Node2&#45;&gt;Node4</title>
<path fill="none" stroke="midnightblue" d="M315.64,-599.28C382.07,-600.17 491.13,-601.64 561.62,-602.59"/>
<polygon fill="midnightblue" stroke="midnightblue" points="561.68,-606.09 571.73,-602.72 561.77,-599.09 561.68,-606.09"/>
</g>
<!-- Node5&#45;&gt;Node4 -->
<g id="edge5" class="edge">
<title>Node5&#45;&gt;Node4</title>
<path fill="none" stroke="midnightblue" d="M315.58,-666.93C371.13,-671.39 457.15,-673.69 529,-655.5 553.99,-649.17 579.77,-635.67 598.96,-624.01"/>
<polygon fill="midnightblue" stroke="midnightblue" points="600.92,-626.91 607.55,-618.64 597.21,-620.97 600.92,-626.91"/>
</g>
<!-- Node8 -->
<g id="node8" class="node">
<title>Node8</title>
<g id="a_node8"><a xlink:href="classprecice_1_1io_1_1ExportVTK.html#a059f840aae386d0aceef44b4776a4841" target="_top" xlink:title=" ">
<polygon fill="white" stroke="black" points="388,-441.5 388,-471.5 512,-471.5 512,-441.5 388,-441.5"/>
<text text-anchor="start" x="396" y="-459.5" font-family="Helvetica,sans-Serif" font-size="10.00">precice::io::ExportVTK</text>
<text text-anchor="middle" x="450" y="-448.5" font-family="Helvetica,sans-Serif" font-size="10.00">::exportData</text>
</a>
</g>
</g>
<!-- Node7&#45;&gt;Node8 -->
<g id="edge8" class="edge">
<title>Node7&#45;&gt;Node8</title>
<path fill="none" stroke="midnightblue" d="M316.6,-422.53C336.86,-427.73 359.74,-433.6 380.71,-438.98"/>
<polygon fill="midnightblue" stroke="midnightblue" points="379.95,-442.4 390.51,-441.49 381.69,-435.62 379.95,-442.4"/>
</g>
<!-- Node11 -->
<g id="node11" class="node">
<title>Node11</title>
<g id="a_node11"><a xlink:href="classprecice_1_1io_1_1ExportVTK.html#afe67b3e2730e44111fdba15d8ac53c1a" target="_top" xlink:title=" ">
<polygon fill="white" stroke="black" points="388,-490.5 388,-520.5 512,-520.5 512,-490.5 388,-490.5"/>
<text text-anchor="start" x="396" y="-508.5" font-family="Helvetica,sans-Serif" font-size="10.00">precice::io::ExportVTK</text>
<text text-anchor="middle" x="450" y="-497.5" font-family="Helvetica,sans-Serif" font-size="10.00">::exportGradient</text>
</a>
</g>
</g>
<!-- Node7&#45;&gt;Node11 -->
<g id="edge12" class="edge">
<title>Node7&#45;&gt;Node11</title>
<path fill="none" stroke="midnightblue" d="M277.41,-422.67C299.16,-439.06 335.98,-465.05 371,-481.5 375.08,-483.42 379.35,-485.23 383.69,-486.93"/>
<polygon fill="midnightblue" stroke="midnightblue" points="382.7,-490.29 393.3,-490.47 385.13,-483.73 382.7,-490.29"/>
</g>
<!-- Node13 -->
<g id="node13" class="node">
<title>Node13</title>
<g id="a_node13"><a xlink:href="classprecice_1_1io_1_1ExportVTK.html#aba316940c3b78a5f6b47cd769e1d70c5" target="_top" xlink:title=" ">
<polygon fill="white" stroke="black" points="388,-343.5 388,-373.5 512,-373.5 512,-343.5 388,-343.5"/>
<text text-anchor="start" x="396" y="-361.5" font-family="Helvetica,sans-Serif" font-size="10.00">precice::io::ExportVTK</text>
<text text-anchor="middle" x="450" y="-350.5" font-family="Helvetica,sans-Serif" font-size="10.00">::exportMesh</text>
</a>
</g>
</g>
<!-- Node7&#45;&gt;Node13 -->
<g id="edge16" class="edge">
<title>Node7&#45;&gt;Node13</title>
<path fill="none" stroke="midnightblue" d="M316.6,-392.47C336.86,-387.27 359.74,-381.4 380.71,-376.02"/>
<polygon fill="midnightblue" stroke="midnightblue" points="381.69,-379.38 390.51,-373.51 379.95,-372.6 381.69,-379.38"/>
</g>
<!-- Node15 -->
<g id="node15" class="node">
<title>Node15</title>
<g id="a_node15"><a xlink:href="classprecice_1_1mesh_1_1Mesh.html#a3185fe962ba3e8fe0b3cf451681e6a48" target="_top" xlink:title="Returns the name of the mesh, as set in the config file.">
<polygon fill="white" stroke="black" points="572,-0.5 572,-30.5 689,-30.5 689,-0.5 572,-0.5"/>
<text text-anchor="start" x="580" y="-18.5" font-family="Helvetica,sans-Serif" font-size="10.00">precice::mesh::Mesh</text>
<text text-anchor="middle" x="630.5" y="-7.5" font-family="Helvetica,sans-Serif" font-size="10.00">::getName</text>
</a>
</g>
</g>
<!-- Node7&#45;&gt;Node15 -->
<g id="edge28" class="edge">
<title>Node7&#45;&gt;Node15</title>
<path fill="none" stroke="midnightblue" d="M319.03,-392.57C324.67,-390 330.1,-387 335,-383.5 357,-367.81 348.54,-349.53 371,-334.5 431.12,-294.28 480.54,-349.19 529,-295.5 605.98,-210.21 493.01,-129.05 565,-39.5 565.61,-38.75 566.24,-38.02 566.89,-37.31"/>
<polygon fill="midnightblue" stroke="midnightblue" points="569.43,-39.75 574.73,-30.58 564.87,-34.44 569.43,-39.75"/>
</g>
<!-- Node23 -->
<g id="node23" class="node">
<title>Node23</title>
<g id="a_node23"><a xlink:href="classprecice_1_1io_1_1ExportVTK.html#a49609d2a00aee1bb2775c513c2c0da5a" target="_top" xlink:title=" ">
<polygon fill="white" stroke="black" points="388,-255.5 388,-285.5 512,-285.5 512,-255.5 388,-255.5"/>
<text text-anchor="start" x="396" y="-273.5" font-family="Helvetica,sans-Serif" font-size="10.00">precice::io::ExportVTK</text>
<text text-anchor="middle" x="450" y="-262.5" font-family="Helvetica,sans-Serif" font-size="10.00">::initializeWriting</text>
</a>
</g>
</g>
<!-- Node7&#45;&gt;Node23 -->
<g id="edge29" class="edge">
<title>Node7&#45;&gt;Node23</title>
<path fill="none" stroke="midnightblue" d="M319.15,-394.05C324.89,-391.18 330.31,-387.71 335,-383.5 364.91,-356.63 341.98,-328.33 371,-300.5 374.99,-296.67 379.53,-293.32 384.35,-290.38"/>
<polygon fill="midnightblue" stroke="midnightblue" points="386.17,-293.38 393.3,-285.54 382.84,-287.22 386.17,-293.38"/>
</g>
<!-- Node24 -->
<g id="node24" class="node">
<title>Node24</title>
<g id="a_node24"><a xlink:href="classprecice_1_1utils_1_1IntraComm.html#a946589c66048ff3058ffa078d54b6073" target="_top" xlink:title="True if this process is running in parallel.">
<polygon fill="white" stroke="black" points="380,-206.5 380,-236.5 520,-236.5 520,-206.5 380,-206.5"/>
<text text-anchor="start" x="388" y="-224.5" font-family="Helvetica,sans-Serif" font-size="10.00">precice::utils::IntraComm</text>
<text text-anchor="middle" x="450" y="-213.5" font-family="Helvetica,sans-Serif" font-size="10.00">::isParallel</text>
</a>
</g>
</g>
<!-- Node7&#45;&gt;Node24 -->
<g id="edge30" class="edge">
<title>Node7&#45;&gt;Node24</title>
<path fill="none" stroke="midnightblue" d="M319.08,-395.15C324.99,-392.08 330.46,-388.26 335,-383.5 378.76,-337.64 327.16,-291.28 371,-245.5 371.91,-244.55 372.86,-243.64 373.83,-242.76"/>
<polygon fill="midnightblue" stroke="midnightblue" points="376,-245.51 381.92,-236.72 371.81,-239.9 376,-245.51"/>
</g>
<!-- Node25 -->
<g id="node25" class="node">
<title>Node25</title>
<g id="a_node25"><a xlink:href="classprecice_1_1io_1_1ExportVTK.html#a2774522fb358345188e85245cc48a0b6" target="_top" xlink:title=" ">
<polygon fill="white" stroke="black" points="388,-539.5 388,-569.5 512,-569.5 512,-539.5 388,-539.5"/>
<text text-anchor="start" x="396" y="-557.5" font-family="Helvetica,sans-Serif" font-size="10.00">precice::io::ExportVTK</text>
<text text-anchor="middle" x="450" y="-546.5" font-family="Helvetica,sans-Serif" font-size="10.00">::writeHeader</text>
</a>
</g>
</g>
<!-- Node7&#45;&gt;Node25 -->
<g id="edge31" class="edge">
<title>Node7&#45;&gt;Node25</title>
<path fill="none" stroke="midnightblue" d="M267.93,-422.76C285.57,-448.7 324.9,-501.4 371,-530.5 373.61,-532.15 376.34,-533.69 379.16,-535.13"/>
<polygon fill="midnightblue" stroke="midnightblue" points="377.83,-538.37 388.37,-539.4 380.77,-532.02 377.83,-538.37"/>
</g>
<!-- Node8&#45;&gt;Node4 -->
<g id="edge9" class="edge">
<title>Node8&#45;&gt;Node4</title>
<path fill="none" stroke="midnightblue" d="M512.04,-469.84C518.25,-472.94 524.07,-476.78 529,-481.5 562.49,-513.62 532.26,-546.62 565,-579.5 566.08,-580.58 567.21,-581.62 568.39,-582.61"/>
<polygon fill="midnightblue" stroke="midnightblue" points="566.56,-585.6 576.75,-588.49 570.59,-579.88 566.56,-585.6"/>
</g>
<!-- Node9 -->
<g id="node9" class="node">
<title>Node9</title>
<g id="a_node9"><a xlink:href="namespaceTCB__SPAN__NAMESPACE__NAME_1_1detail.html#ada90c89c458a0d53c483e767de7b7701" target="_top" xlink:title=" ">
<polygon fill="white" stroke="black" points="565,-539.5 565,-569.5 696,-569.5 696,-539.5 565,-539.5"/>
<text text-anchor="start" x="573" y="-557.5" font-family="Helvetica,sans-Serif" font-size="10.00">TCB_SPAN_NAMESPACE</text>
<text text-anchor="middle" x="630.5" y="-546.5" font-family="Helvetica,sans-Serif" font-size="10.00">_NAME::detail::data</text>
</a>
</g>
</g>
<!-- Node8&#45;&gt;Node9 -->
<g id="edge10" class="edge">
<title>Node8&#45;&gt;Node9</title>
<path fill="none" stroke="midnightblue" d="M511.63,-471.66C517.77,-474.43 523.69,-477.68 529,-481.5 550.94,-497.28 543.43,-514.22 565,-530.5 566.82,-531.87 568.73,-533.18 570.7,-534.41"/>
<polygon fill="midnightblue" stroke="midnightblue" points="569.24,-537.61 579.69,-539.4 572.64,-531.48 569.24,-537.61"/>
</g>
<!-- Node10 -->
<g id="node10" class="node">
<title>Node10</title>
<g id="a_node10"><a xlink:href="classprecice_1_1mesh_1_1Mesh.html#a70d28ab188762edbe9a7b5b8439e9906" target="_top" xlink:title="Returns modifieable container holding all vertices.">
<polygon fill="white" stroke="black" points="572,-441.5 572,-471.5 689,-471.5 689,-441.5 572,-441.5"/>
<text text-anchor="start" x="580" y="-459.5" font-family="Helvetica,sans-Serif" font-size="10.00">precice::mesh::Mesh</text>
<text text-anchor="middle" x="630.5" y="-448.5" font-family="Helvetica,sans-Serif" font-size="10.00">::vertices</text>
</a>
</g>
</g>
<!-- Node8&#45;&gt;Node10 -->
<g id="edge11" class="edge">
<title>Node8&#45;&gt;Node10</title>
<path fill="none" stroke="midnightblue" d="M512.43,-456.5C528.23,-456.5 545.32,-456.5 561.44,-456.5"/>
<polygon fill="midnightblue" stroke="midnightblue" points="561.86,-460 571.86,-456.5 561.86,-453 561.86,-460"/>
</g>
<!-- Node11&#45;&gt;Node4 -->
<g id="edge13" class="edge">
<title>Node11&#45;&gt;Node4</title>
<path fill="none" stroke="midnightblue" d="M511.63,-520.66C517.77,-523.43 523.69,-526.68 529,-530.5 550.94,-546.28 543.43,-563.22 565,-579.5 566.82,-580.87 568.73,-582.18 570.7,-583.41"/>
<polygon fill="midnightblue" stroke="midnightblue" points="569.24,-586.61 579.69,-588.4 572.64,-580.48 569.24,-586.61"/>
</g>
<!-- Node11&#45;&gt;Node9 -->
<g id="edge14" class="edge">
<title>Node11&#45;&gt;Node9</title>
<path fill="none" stroke="midnightblue" d="M506.01,-520.6C524.59,-525.7 545.51,-531.44 564.77,-536.73"/>
<polygon fill="midnightblue" stroke="midnightblue" points="564.1,-540.18 574.67,-539.45 565.95,-533.43 564.1,-540.18"/>
</g>
<!-- Node12 -->
<g id="node12" class="node">
<title>Node12</title>
<g id="a_node12"><a xlink:href="classprecice_1_1mesh_1_1Mesh.html#a136f6b4ce235025e418fab0ca5f350ff" target="_top" xlink:title=" ">
<polygon fill="white" stroke="black" points="572,-490.5 572,-520.5 689,-520.5 689,-490.5 572,-490.5"/>
<text text-anchor="start" x="580" y="-508.5" font-family="Helvetica,sans-Serif" font-size="10.00">precice::mesh::Mesh</text>
<text text-anchor="middle" x="630.5" y="-497.5" font-family="Helvetica,sans-Serif" font-size="10.00">::getDimensions</text>
</a>
</g>
</g>
<!-- Node11&#45;&gt;Node12 -->
<g id="edge15" class="edge">
<title>Node11&#45;&gt;Node12</title>
<path fill="none" stroke="midnightblue" d="M512.43,-505.5C528.23,-505.5 545.32,-505.5 561.44,-505.5"/>
<polygon fill="midnightblue" stroke="midnightblue" points="561.86,-509 571.86,-505.5 561.86,-502 561.86,-509"/>
</g>
<!-- Node13&#45;&gt;Node10 -->
<g id="edge23" class="edge">
<title>Node13&#45;&gt;Node10</title>
<path fill="none" stroke="midnightblue" d="M471.19,-373.57C493.37,-389.63 530.43,-415.11 565,-432.5 568.35,-434.18 571.84,-435.81 575.39,-437.38"/>
<polygon fill="midnightblue" stroke="midnightblue" points="574.31,-440.72 584.89,-441.36 577.02,-434.27 574.31,-440.72"/>
</g>
<!-- Node13&#45;&gt;Node12 -->
<g id="edge18" class="edge">
<title>Node13&#45;&gt;Node12</title>
<path fill="none" stroke="midnightblue" d="M468.59,-373.56C484.99,-387.96 509.74,-410.66 529,-432.5 546.87,-452.77 543.43,-465.22 565,-481.5 566.82,-482.87 568.73,-484.18 570.7,-485.41"/>
<polygon fill="midnightblue" stroke="midnightblue" points="569.24,-488.61 579.69,-490.4 572.64,-482.48 569.24,-488.61"/>
</g>
<!-- Node14 -->
<g id="node14" class="node">
<title>Node14</title>
<g id="a_node14"><a xlink:href="classprecice_1_1mesh_1_1Mesh.html#a1208772095354f328cae1b087e64642e" target="_top" xlink:title="Returns modifiable container holding all edges.">
<polygon fill="white" stroke="black" points="572,-98.5 572,-128.5 689,-128.5 689,-98.5 572,-98.5"/>
<text text-anchor="start" x="580" y="-116.5" font-family="Helvetica,sans-Serif" font-size="10.00">precice::mesh::Mesh</text>
<text text-anchor="middle" x="630.5" y="-105.5" font-family="Helvetica,sans-Serif" font-size="10.00">::edges</text>
</a>
</g>
</g>
<!-- Node13&#45;&gt;Node14 -->
<g id="edge17" class="edge">
<title>Node13&#45;&gt;Node14</title>
<path fill="none" stroke="midnightblue" d="M510.3,-343.39C517.38,-339.51 523.89,-334.63 529,-328.5 584.32,-262.15 509.32,-203.55 565,-137.5 565.73,-136.63 566.5,-135.8 567.29,-134.99"/>
<polygon fill="midnightblue" stroke="midnightblue" points="569.68,-137.56 575.21,-128.52 565.25,-132.14 569.68,-137.56"/>
</g>
<!-- Node13&#45;&gt;Node15 -->
<g id="edge19" class="edge">
<title>Node13&#45;&gt;Node15</title>
<path fill="none" stroke="midnightblue" d="M511.04,-343.47C517.91,-339.57 524.17,-334.67 529,-328.5 608.75,-226.55 484.7,-141.02 565,-39.5 565.6,-38.74 566.23,-38.01 566.88,-37.3"/>
<polygon fill="midnightblue" stroke="midnightblue" points="569.42,-39.73 574.67,-30.53 564.83,-34.44 569.42,-39.73"/>
</g>
<!-- Node16 -->
<g id="node16" class="node">
<title>Node16</title>
<g id="a_node16"><a xlink:href="namespaceTCB__SPAN__NAMESPACE__NAME_1_1detail.html#a876af6f91231ae4e7e7316f5402682dc" target="_top" xlink:title=" ">
<polygon fill="white" stroke="black" points="565,-49.5 565,-79.5 696,-79.5 696,-49.5 565,-49.5"/>
<text text-anchor="start" x="573" y="-67.5" font-family="Helvetica,sans-Serif" font-size="10.00">TCB_SPAN_NAMESPACE</text>
<text text-anchor="middle" x="630.5" y="-56.5" font-family="Helvetica,sans-Serif" font-size="10.00">_NAME::detail::size</text>
</a>
</g>
</g>
<!-- Node13&#45;&gt;Node16 -->
<g id="edge20" class="edge">
<title>Node13&#45;&gt;Node16</title>
<path fill="none" stroke="midnightblue" d="M510.89,-343.35C517.79,-339.48 524.1,-334.61 529,-328.5 596.51,-244.38 497.03,-172.25 565,-88.5 565.61,-87.75 566.24,-87.02 566.9,-86.32"/>
<polygon fill="midnightblue" stroke="midnightblue" points="569.43,-88.76 574.77,-79.6 564.89,-83.43 569.43,-88.76"/>
</g>
<!-- Node17 -->
<g id="node17" class="node">
<title>Node17</title>
<g id="a_node17"><a xlink:href="classprecice_1_1mesh_1_1Mesh.html#a479bf9583fd5a233f8ed1c8b9b3fe5c4" target="_top" xlink:title="Returns modifiable container holding all tetrahedra.">
<polygon fill="white" stroke="black" points="572,-392.5 572,-422.5 689,-422.5 689,-392.5 572,-392.5"/>
<text text-anchor="start" x="580" y="-410.5" font-family="Helvetica,sans-Serif" font-size="10.00">precice::mesh::Mesh</text>
<text text-anchor="middle" x="630.5" y="-399.5" font-family="Helvetica,sans-Serif" font-size="10.00">::tetrahedra</text>
</a>
</g>
</g>
<!-- Node13&#45;&gt;Node17 -->
<g id="edge21" class="edge">
<title>Node13&#45;&gt;Node17</title>
<path fill="none" stroke="midnightblue" d="M506.01,-373.6C524.59,-378.7 545.51,-384.44 564.77,-389.73"/>
<polygon fill="midnightblue" stroke="midnightblue" points="564.1,-393.18 574.67,-392.45 565.95,-386.43 564.1,-393.18"/>
</g>
<!-- Node18 -->
<g id="node18" class="node">
<title>Node18</title>
<g id="a_node18"><a xlink:href="classprecice_1_1mesh_1_1Mesh.html#ad74df9a7f4cb96c251d32c3159d67352" target="_top" xlink:title="Returns modifiable container holding all triangles.">
<polygon fill="white" stroke="black" points="572,-343.5 572,-373.5 689,-373.5 689,-343.5 572,-343.5"/>
<text text-anchor="start" x="580" y="-361.5" font-family="Helvetica,sans-Serif" font-size="10.00">precice::mesh::Mesh</text>
<text text-anchor="middle" x="630.5" y="-350.5" font-family="Helvetica,sans-Serif" font-size="10.00">::triangles</text>
</a>
</g>
</g>
<!-- Node13&#45;&gt;Node18 -->
<g id="edge22" class="edge">
<title>Node13&#45;&gt;Node18</title>
<path fill="none" stroke="midnightblue" d="M512.43,-358.5C528.23,-358.5 545.32,-358.5 561.44,-358.5"/>
<polygon fill="midnightblue" stroke="midnightblue" points="561.86,-362 571.86,-358.5 561.86,-355 561.86,-362"/>
</g>
<!-- Node19 -->
<g id="node19" class="node">
<title>Node19</title>
<g id="a_node19"><a xlink:href="classprecice_1_1io_1_1ExportVTK.html#a36a5ee193ff949d9bc9b0979c27e2aea" target="_top" xlink:title=" ">
<polygon fill="white" stroke="black" points="568.5,-294.5 568.5,-324.5 692.5,-324.5 692.5,-294.5 568.5,-294.5"/>
<text text-anchor="start" x="576.5" y="-312.5" font-family="Helvetica,sans-Serif" font-size="10.00">precice::io::ExportVTK</text>
<text text-anchor="middle" x="630.5" y="-301.5" font-family="Helvetica,sans-Serif" font-size="10.00">::writeLine</text>
</a>
</g>
</g>
<!-- Node13&#45;&gt;Node19 -->
<g id="edge24" class="edge">
<title>Node13&#45;&gt;Node19</title>
<path fill="none" stroke="midnightblue" d="M506.01,-343.4C524.59,-338.3 545.51,-332.56 564.77,-327.27"/>
<polygon fill="midnightblue" stroke="midnightblue" points="565.95,-330.57 574.67,-324.55 564.1,-323.82 565.95,-330.57"/>
</g>
<!-- Node20 -->
<g id="node20" class="node">
<title>Node20</title>
<g id="a_node20"><a xlink:href="classprecice_1_1io_1_1ExportVTK.html#a56ad08c92bff7213cd0508ab23d0d67b" target="_top" xlink:title=" ">
<polygon fill="white" stroke="black" points="568.5,-245.5 568.5,-275.5 692.5,-275.5 692.5,-245.5 568.5,-245.5"/>
<text text-anchor="start" x="576.5" y="-263.5" font-family="Helvetica,sans-Serif" font-size="10.00">precice::io::ExportVTK</text>
<text text-anchor="middle" x="630.5" y="-252.5" font-family="Helvetica,sans-Serif" font-size="10.00">::writeTetrahedron</text>
</a>
</g>
</g>
<!-- Node13&#45;&gt;Node20 -->
<g id="edge25" class="edge">
<title>Node13&#45;&gt;Node20</title>
<path fill="none" stroke="midnightblue" d="M501.61,-343.35C511.16,-339.32 520.74,-334.4 529,-328.5 549.28,-314.01 544.74,-300.02 565,-285.5 567.64,-283.61 570.43,-281.84 573.33,-280.19"/>
<polygon fill="midnightblue" stroke="midnightblue" points="574.97,-283.28 582.25,-275.58 571.76,-277.06 574.97,-283.28"/>
</g>
<!-- Node21 -->
<g id="node21" class="node">
<title>Node21</title>
<g id="a_node21"><a xlink:href="classprecice_1_1io_1_1ExportVTK.html#ad61070a5ab935aab087ff8865a21d2b5" target="_top" xlink:title=" ">
<polygon fill="white" stroke="black" points="568.5,-196.5 568.5,-226.5 692.5,-226.5 692.5,-196.5 568.5,-196.5"/>
<text text-anchor="start" x="576.5" y="-214.5" font-family="Helvetica,sans-Serif" font-size="10.00">precice::io::ExportVTK</text>
<text text-anchor="middle" x="630.5" y="-203.5" font-family="Helvetica,sans-Serif" font-size="10.00">::writeTriangle</text>
</a>
</g>
</g>
<!-- Node13&#45;&gt;Node21 -->
<g id="edge26" class="edge">
<title>Node13&#45;&gt;Node21</title>
<path fill="none" stroke="midnightblue" d="M507.32,-343.48C515.28,-339.56 522.84,-334.65 529,-328.5 560.37,-297.19 533.45,-266.63 565,-235.5 566.09,-234.42 567.23,-233.4 568.42,-232.41"/>
<polygon fill="midnightblue" stroke="midnightblue" points="570.61,-235.16 576.81,-226.57 566.6,-229.41 570.61,-235.16"/>
</g>
<!-- Node22 -->
<g id="node22" class="node">
<title>Node22</title>
<g id="a_node22"><a xlink:href="classprecice_1_1io_1_1ExportVTK.html#a274ab69f114b930ee6a43f1660fc1d68" target="_top" xlink:title=" ">
<polygon fill="white" stroke="black" points="568.5,-147.5 568.5,-177.5 692.5,-177.5 692.5,-147.5 568.5,-147.5"/>
<text text-anchor="start" x="576.5" y="-165.5" font-family="Helvetica,sans-Serif" font-size="10.00">precice::io::ExportVTK</text>
<text text-anchor="middle" x="630.5" y="-154.5" font-family="Helvetica,sans-Serif" font-size="10.00">::writeVertex</text>
</a>
</g>
</g>
<!-- Node13&#45;&gt;Node22 -->
<g id="edge27" class="edge">
<title>Node13&#45;&gt;Node22</title>
<path fill="none" stroke="midnightblue" d="M509.56,-343.3C516.84,-339.43 523.61,-334.58 529,-328.5 572.22,-279.81 521.51,-234.95 565,-186.5 565.88,-185.52 566.79,-184.59 567.75,-183.69"/>
<polygon fill="midnightblue" stroke="midnightblue" points="569.96,-186.4 575.74,-177.52 565.69,-180.86 569.96,-186.4"/>
</g>
<!-- Node27 -->
<g id="node27" class="node">
<title>Node27</title>
<g id="a_node27"><a xlink:href="classprecice_1_1utils_1_1ManageUniqueIDs.html#a02be264c279698ae293587b6576088b5" target="_top" xlink:title=" ">
<polygon fill="white" stroke="black" points="371,-157.5 371,-187.5 529,-187.5 529,-157.5 371,-157.5"/>
<text text-anchor="start" x="379" y="-175.5" font-family="Helvetica,sans-Serif" font-size="10.00">precice::utils::ManageUnique</text>
<text text-anchor="middle" x="450" y="-164.5" font-family="Helvetica,sans-Serif" font-size="10.00">IDs::getFreeID</text>
</a>
</g>
</g>
<!-- Node26&#45;&gt;Node27 -->
<g id="edge33" class="edge">
<title>Node26&#45;&gt;Node27</title>
<path fill="none" stroke="midnightblue" d="M270.57,-258.88C290.77,-243.8 332.15,-214.46 371,-196.5 375.09,-194.61 379.37,-192.82 383.72,-191.13"/>
<polygon fill="midnightblue" stroke="midnightblue" points="385.15,-194.34 393.34,-187.61 382.74,-187.76 385.15,-194.34"/>
</g>
</g>
</svg>
