<?xml version="1.0" encoding="UTF-8" standalone="no"?>
<!DOCTYPE svg PUBLIC "-//W3C//DTD SVG 1.1//EN"
 "http://www.w3.org/Graphics/SVG/1.1/DTD/svg11.dtd">
<!-- Generated by graphviz version 2.43.0 (0)
 -->
<!-- Title: BOOST_AUTO_TEST_CASE Pages: 1 -->
<svg width="688pt" height="764pt"
 viewBox="0.00 0.00 688.00 764.00" xmlns="http://www.w3.org/2000/svg" xmlns:xlink="http://www.w3.org/1999/xlink">
<g id="graph0" class="graph" transform="scale(1 1) rotate(0) translate(4 760)">
<title>BOOST_AUTO_TEST_CASE</title>
<polygon fill="white" stroke="transparent" points="-4,4 -4,-760 684,-760 684,4 -4,4"/>
<!-- Node1 -->
<g id="node1" class="node">
<title>Node1</title>
<g id="a_node1"><a xlink:title=" ">
<polygon fill="#bfbfbf" stroke="black" points="0,-441 0,-460 143,-460 143,-441 0,-441"/>
<text text-anchor="middle" x="71.5" y="-448" font-family="Helvetica,sans-Serif" font-size="10.00">BOOST_AUTO_TEST_CASE</text>
</a>
</g>
</g>
<!-- Node2 -->
<g id="node2" class="node">
<title>Node2</title>
<g id="a_node2"><a xlink:href="classprecice_1_1mesh_1_1Mesh.html#a00c3db2576c63d8c6f351175ddc0a4d0" target="_top" xlink:title="Creates and initializes a Triangle object.">
<polygon fill="white" stroke="black" points="391.5,-725.5 391.5,-755.5 508.5,-755.5 508.5,-725.5 391.5,-725.5"/>
<text text-anchor="start" x="399.5" y="-743.5" font-family="Helvetica,sans-Serif" font-size="10.00">precice::mesh::Mesh</text>
<text text-anchor="middle" x="450" y="-732.5" font-family="Helvetica,sans-Serif" font-size="10.00">::createTriangle</text>
</a>
</g>
</g>
<!-- Node1&#45;&gt;Node2 -->
<g id="edge1" class="edge">
<title>Node1&#45;&gt;Node2</title>
<path fill="none" stroke="midnightblue" d="M77.05,-460.01C89.91,-486.15 128.91,-560.2 179,-606.5 251.22,-673.25 280.78,-677.35 371,-716.5 375.4,-718.41 380,-720.23 384.67,-721.96"/>
<polygon fill="midnightblue" stroke="midnightblue" points="383.71,-725.33 394.31,-725.37 386.05,-718.73 383.71,-725.33"/>
</g>
<!-- Node4 -->
<g id="node4" class="node">
<title>Node4</title>
<g id="a_node4"><a xlink:href="classprecice_1_1mesh_1_1Mesh.html#af6e6d684553dc5d0f0a23cacb77b3fc7" target="_top" xlink:title="Creates and initializes a Vertex object.">
<polygon fill="white" stroke="black" points="391.5,-676.5 391.5,-706.5 508.5,-706.5 508.5,-676.5 391.5,-676.5"/>
<text text-anchor="start" x="399.5" y="-694.5" font-family="Helvetica,sans-Serif" font-size="10.00">precice::mesh::Mesh</text>
<text text-anchor="middle" x="450" y="-683.5" font-family="Helvetica,sans-Serif" font-size="10.00">::createVertex</text>
</a>
</g>
</g>
<!-- Node1&#45;&gt;Node4 -->
<g id="edge3" class="edge">
<title>Node1&#45;&gt;Node4</title>
<path fill="none" stroke="midnightblue" d="M83.02,-460.21C119.81,-493.68 247.21,-605.62 371,-667.5 374.78,-669.39 378.73,-671.16 382.78,-672.82"/>
<polygon fill="midnightblue" stroke="midnightblue" points="381.73,-676.17 392.32,-676.49 384.24,-669.64 381.73,-676.17"/>
</g>
<!-- Node5 -->
<g id="node5" class="node">
<title>Node5</title>
<g id="a_node5"><a xlink:href="namespaceprecice_1_1mesh.html#a4d9cfe7beb5bbe90d58d5705abdde19d" target="_top" xlink:title=" ">
<polygon fill="white" stroke="black" points="187,-422 187,-441 327,-441 327,-422 187,-422"/>
<text text-anchor="middle" x="257" y="-429" font-family="Helvetica,sans-Serif" font-size="10.00">precice::mesh::filterMesh</text>
</a>
</g>
</g>
<!-- Node1&#45;&gt;Node5 -->
<g id="edge4" class="edge">
<title>Node1&#45;&gt;Node5</title>
<path fill="none" stroke="midnightblue" d="M143.18,-443.18C154.16,-442.04 165.56,-440.86 176.71,-439.71"/>
<polygon fill="midnightblue" stroke="midnightblue" points="177.28,-443.17 186.86,-438.66 176.56,-436.21 177.28,-443.17"/>
</g>
<!-- Node19 -->
<g id="node19" class="node">
<title>Node19</title>
<g id="a_node19"><a xlink:href="namespaceprecice_1_1testing.html#a08533fd83bad3d7f27ea7f4a35a14aa4" target="_top" xlink:title=" ">
<polygon fill="white" stroke="black" points="179,-207 179,-226 335,-226 335,-207 179,-207"/>
<text text-anchor="middle" x="257" y="-214" font-family="Helvetica,sans-Serif" font-size="10.00">precice::testing::nextMeshID</text>
</a>
</g>
</g>
<!-- Node1&#45;&gt;Node19 -->
<g id="edge20" class="edge">
<title>Node1&#45;&gt;Node19</title>
<path fill="none" stroke="midnightblue" d="M80.15,-440.74C108.25,-404.91 206.02,-280.24 242.3,-233.97"/>
<polygon fill="midnightblue" stroke="midnightblue" points="245.1,-236.07 248.52,-226.04 239.59,-231.75 245.1,-236.07"/>
</g>
<!-- Node3 -->
<g id="node3" class="node">
<title>Node3</title>
<g id="a_node3"><a xlink:href="classprecice_1_1mesh_1_1Edge.html#af27f4bd02d0b67cc5c3d04e2cf1ddee7" target="_top" xlink:title="Checks whether both edges share a vertex.">
<polygon fill="white" stroke="black" points="565,-725.5 565,-755.5 680,-755.5 680,-725.5 565,-725.5"/>
<text text-anchor="start" x="573" y="-743.5" font-family="Helvetica,sans-Serif" font-size="10.00">precice::mesh::Edge</text>
<text text-anchor="middle" x="622.5" y="-732.5" font-family="Helvetica,sans-Serif" font-size="10.00">::connectedTo</text>
</a>
</g>
</g>
<!-- Node2&#45;&gt;Node3 -->
<g id="edge2" class="edge">
<title>Node2&#45;&gt;Node3</title>
<path fill="none" stroke="midnightblue" d="M508.72,-740.5C523.48,-740.5 539.47,-740.5 554.64,-740.5"/>
<polygon fill="midnightblue" stroke="midnightblue" points="554.99,-744 564.99,-740.5 554.99,-737 554.99,-744"/>
</g>
<!-- Node5&#45;&gt;Node2 -->
<g id="edge7" class="edge">
<title>Node5&#45;&gt;Node2</title>
<path fill="none" stroke="midnightblue" d="M258.86,-441C262.97,-480.88 284.21,-636.31 371,-716.5 374.37,-719.61 378.13,-722.32 382.14,-724.68"/>
<polygon fill="midnightblue" stroke="midnightblue" points="380.73,-727.89 391.23,-729.3 383.91,-721.65 380.73,-727.89"/>
</g>
<!-- Node5&#45;&gt;Node4 -->
<g id="edge8" class="edge">
<title>Node5&#45;&gt;Node4</title>
<path fill="none" stroke="midnightblue" d="M263.57,-441.31C276.75,-464.69 310.56,-525.69 335,-578.5 352.92,-617.22 339.56,-638.65 371,-667.5 374.38,-670.6 378.15,-673.3 382.16,-675.65"/>
<polygon fill="midnightblue" stroke="midnightblue" points="380.77,-678.87 391.27,-680.27 383.93,-672.62 380.77,-678.87"/>
</g>
<!-- Node6 -->
<g id="node6" class="node">
<title>Node6</title>
<g id="a_node6"><a xlink:href="classprecice_1_1mesh_1_1Mesh.html#ae05c5234aa9adc6f47a814622039c28e" target="_top" xlink:title="Creates and initializes an Edge object.">
<polygon fill="white" stroke="black" points="391.5,-196.5 391.5,-226.5 508.5,-226.5 508.5,-196.5 391.5,-196.5"/>
<text text-anchor="start" x="399.5" y="-214.5" font-family="Helvetica,sans-Serif" font-size="10.00">precice::mesh::Mesh</text>
<text text-anchor="middle" x="450" y="-203.5" font-family="Helvetica,sans-Serif" font-size="10.00">::createEdge</text>
</a>
</g>
</g>
<!-- Node5&#45;&gt;Node6 -->
<g id="edge5" class="edge">
<title>Node5&#45;&gt;Node6</title>
<path fill="none" stroke="midnightblue" d="M260.86,-421.72C270.64,-390 305.78,-289.01 371,-236.5 374.36,-233.79 378.03,-231.37 381.87,-229.22"/>
<polygon fill="midnightblue" stroke="midnightblue" points="383.71,-232.21 391.12,-224.64 380.6,-225.94 383.71,-232.21"/>
</g>
<!-- Node7 -->
<g id="node7" class="node">
<title>Node7</title>
<g id="a_node7"><a xlink:href="classprecice_1_1mesh_1_1Mesh.html#ab5414039a184e349718371361d6e7777" target="_top" xlink:title="Creates and initializes a Tetrahedron object.">
<polygon fill="white" stroke="black" points="391.5,-147.5 391.5,-177.5 508.5,-177.5 508.5,-147.5 391.5,-147.5"/>
<text text-anchor="start" x="399.5" y="-165.5" font-family="Helvetica,sans-Serif" font-size="10.00">precice::mesh::Mesh</text>
<text text-anchor="middle" x="450" y="-154.5" font-family="Helvetica,sans-Serif" font-size="10.00">::createTetrahedron</text>
</a>
</g>
</g>
<!-- Node5&#45;&gt;Node7 -->
<g id="edge6" class="edge">
<title>Node5&#45;&gt;Node7</title>
<path fill="none" stroke="midnightblue" d="M261.3,-421.83C275.45,-380.82 332.08,-221.89 371,-187.5 374.45,-184.45 378.28,-181.77 382.32,-179.42"/>
<polygon fill="midnightblue" stroke="midnightblue" points="384.15,-182.42 391.49,-174.78 380.99,-176.18 384.15,-182.42"/>
</g>
<!-- Node8 -->
<g id="node8" class="node">
<title>Node8</title>
<g id="a_node8"><a xlink:href="classprecice_1_1mesh_1_1Mesh.html#a1208772095354f328cae1b087e64642e" target="_top" xlink:title="Returns modifiable container holding all edges.">
<polygon fill="white" stroke="black" points="391.5,-98.5 391.5,-128.5 508.5,-128.5 508.5,-98.5 391.5,-98.5"/>
<text text-anchor="start" x="399.5" y="-116.5" font-family="Helvetica,sans-Serif" font-size="10.00">precice::mesh::Mesh</text>
<text text-anchor="middle" x="450" y="-105.5" font-family="Helvetica,sans-Serif" font-size="10.00">::edges</text>
</a>
</g>
</g>
<!-- Node5&#45;&gt;Node8 -->
<g id="edge9" class="edge">
<title>Node5&#45;&gt;Node8</title>
<path fill="none" stroke="midnightblue" d="M261.91,-421.74C273.34,-393.17 307.61,-307.22 335,-235.5 351.41,-192.54 337.76,-170.27 371,-138.5 374.33,-135.32 378.06,-132.54 382.05,-130.12"/>
<polygon fill="midnightblue" stroke="midnightblue" points="383.88,-133.11 391.11,-125.36 380.62,-126.91 383.88,-133.11"/>
</g>
<!-- Node9 -->
<g id="node9" class="node">
<title>Node9</title>
<g id="a_node9"><a xlink:href="classprecice_1_1mesh_1_1Vertex.html#a2f62d7ef09981e963638cb3f2f6a9603" target="_top" xlink:title="Returns the unique (among vertices of one mesh on one processor) ID of the vertex.">
<polygon fill="white" stroke="black" points="389,-49.5 389,-79.5 511,-79.5 511,-49.5 389,-49.5"/>
<text text-anchor="start" x="397" y="-67.5" font-family="Helvetica,sans-Serif" font-size="10.00">precice::mesh::Vertex</text>
<text text-anchor="middle" x="450" y="-56.5" font-family="Helvetica,sans-Serif" font-size="10.00">::getID</text>
</a>
</g>
</g>
<!-- Node5&#45;&gt;Node9 -->
<g id="edge10" class="edge">
<title>Node5&#45;&gt;Node9</title>
<path fill="none" stroke="midnightblue" d="M262.31,-421.88C274.82,-393.68 311.72,-308.66 335,-235.5 355.26,-171.81 325.39,-138.35 371,-89.5 373.76,-86.54 376.87,-83.94 380.22,-81.64"/>
<polygon fill="midnightblue" stroke="midnightblue" points="382.09,-84.59 388.96,-76.53 378.56,-78.55 382.09,-84.59"/>
</g>
<!-- Node10 -->
<g id="node10" class="node">
<title>Node10</title>
<g id="a_node10"><a xlink:href="classprecice_1_1mesh_1_1Mesh.html#a4220c9b15bb1c3dbf5c00701851f8288" target="_top" xlink:title="Returns the number of vertices.">
<polygon fill="white" stroke="black" points="391.5,-627.5 391.5,-657.5 508.5,-657.5 508.5,-627.5 391.5,-627.5"/>
<text text-anchor="start" x="399.5" y="-645.5" font-family="Helvetica,sans-Serif" font-size="10.00">precice::mesh::Mesh</text>
<text text-anchor="middle" x="450" y="-634.5" font-family="Helvetica,sans-Serif" font-size="10.00">::nVertices</text>
</a>
</g>
</g>
<!-- Node5&#45;&gt;Node10 -->
<g id="edge11" class="edge">
<title>Node5&#45;&gt;Node10</title>
<path fill="none" stroke="midnightblue" d="M262.81,-441.43C279.92,-476.42 338.56,-593.17 371,-618.5 374.39,-621.15 378.08,-623.51 381.94,-625.6"/>
<polygon fill="midnightblue" stroke="midnightblue" points="380.68,-628.88 391.21,-630.05 383.71,-622.57 380.68,-628.88"/>
</g>
<!-- Node11 -->
<g id="node11" class="node">
<title>Node11</title>
<g id="a_node11"><a xlink:href="classprecice_1_1mesh_1_1Vertex.html#a94c37cf5c30d40459a3afa2f2aabe8f4" target="_top" xlink:title=" ">
<polygon fill="white" stroke="black" points="389,-578.5 389,-608.5 511,-608.5 511,-578.5 389,-578.5"/>
<text text-anchor="start" x="397" y="-596.5" font-family="Helvetica,sans-Serif" font-size="10.00">precice::mesh::Vertex</text>
<text text-anchor="middle" x="450" y="-585.5" font-family="Helvetica,sans-Serif" font-size="10.00">::setGlobalIndex</text>
</a>
</g>
</g>
<!-- Node5&#45;&gt;Node11 -->
<g id="edge12" class="edge">
<title>Node5&#45;&gt;Node11</title>
<path fill="none" stroke="midnightblue" d="M263.19,-441.17C277.15,-466.25 318.05,-533.93 371,-569.5 373.76,-571.36 376.68,-573.07 379.69,-574.66"/>
<polygon fill="midnightblue" stroke="midnightblue" points="378.44,-577.94 388.97,-579.06 381.43,-571.62 378.44,-577.94"/>
</g>
<!-- Node12 -->
<g id="node12" class="node">
<title>Node12</title>
<g id="a_node12"><a xlink:href="classprecice_1_1mesh_1_1Vertex.html#aa06ca0490b8a690055001524232ebc81" target="_top" xlink:title=" ">
<polygon fill="white" stroke="black" points="389,-529.5 389,-559.5 511,-559.5 511,-529.5 389,-529.5"/>
<text text-anchor="start" x="397" y="-547.5" font-family="Helvetica,sans-Serif" font-size="10.00">precice::mesh::Vertex</text>
<text text-anchor="middle" x="450" y="-536.5" font-family="Helvetica,sans-Serif" font-size="10.00">::setOwner</text>
</a>
</g>
</g>
<!-- Node5&#45;&gt;Node12 -->
<g id="edge13" class="edge">
<title>Node5&#45;&gt;Node12</title>
<path fill="none" stroke="midnightblue" d="M267.74,-441.07C286.33,-458.85 328.78,-497.2 371,-519.5 375.18,-521.71 379.59,-523.76 384.1,-525.67"/>
<polygon fill="midnightblue" stroke="midnightblue" points="382.87,-528.95 393.46,-529.38 385.45,-522.44 382.87,-528.95"/>
</g>
<!-- Node13 -->
<g id="node13" class="node">
<title>Node13</title>
<g id="a_node13"><a xlink:href="classprecice_1_1mesh_1_1Vertex.html#a8849612f86b9793b3caef4daca461fbc" target="_top" xlink:title=" ">
<polygon fill="white" stroke="black" points="378,-491 378,-510 522,-510 522,-491 378,-491"/>
<text text-anchor="middle" x="450" y="-498" font-family="Helvetica,sans-Serif" font-size="10.00">precice::mesh::Vertex::tag</text>
</a>
</g>
</g>
<!-- Node5&#45;&gt;Node13 -->
<g id="edge14" class="edge">
<title>Node5&#45;&gt;Node13</title>
<path fill="none" stroke="midnightblue" d="M276.78,-441.05C298.88,-451.99 336.88,-469.9 371,-481.5 378.42,-484.02 386.35,-486.36 394.2,-488.46"/>
<polygon fill="midnightblue" stroke="midnightblue" points="393.5,-491.89 404.06,-491 395.25,-485.11 393.5,-491.89"/>
</g>
<!-- Node14 -->
<g id="node14" class="node">
<title>Node14</title>
<g id="a_node14"><a xlink:href="classprecice_1_1mesh_1_1Mesh.html#a479bf9583fd5a233f8ed1c8b9b3fe5c4" target="_top" xlink:title="Returns modifiable container holding all tetrahedra.">
<polygon fill="white" stroke="black" points="391.5,-441.5 391.5,-471.5 508.5,-471.5 508.5,-441.5 391.5,-441.5"/>
<text text-anchor="start" x="399.5" y="-459.5" font-family="Helvetica,sans-Serif" font-size="10.00">precice::mesh::Mesh</text>
<text text-anchor="middle" x="450" y="-448.5" font-family="Helvetica,sans-Serif" font-size="10.00">::tetrahedra</text>
</a>
</g>
</g>
<!-- Node5&#45;&gt;Node14 -->
<g id="edge15" class="edge">
<title>Node5&#45;&gt;Node14</title>
<path fill="none" stroke="midnightblue" d="M327.23,-440.56C344.81,-442.86 363.68,-445.33 381.19,-447.62"/>
<polygon fill="midnightblue" stroke="midnightblue" points="380.95,-451.12 391.32,-448.95 381.86,-444.18 380.95,-451.12"/>
</g>
<!-- Node15 -->
<g id="node15" class="node">
<title>Node15</title>
<g id="a_node15"><a xlink:href="classprecice_1_1mesh_1_1Mesh.html#ad74df9a7f4cb96c251d32c3159d67352" target="_top" xlink:title="Returns modifiable container holding all triangles.">
<polygon fill="white" stroke="black" points="391.5,-392.5 391.5,-422.5 508.5,-422.5 508.5,-392.5 391.5,-392.5"/>
<text text-anchor="start" x="399.5" y="-410.5" font-family="Helvetica,sans-Serif" font-size="10.00">precice::mesh::Mesh</text>
<text text-anchor="middle" x="450" y="-399.5" font-family="Helvetica,sans-Serif" font-size="10.00">::triangles</text>
</a>
</g>
</g>
<!-- Node5&#45;&gt;Node15 -->
<g id="edge16" class="edge">
<title>Node5&#45;&gt;Node15</title>
<path fill="none" stroke="midnightblue" d="M327.23,-422.8C344.81,-420.59 363.68,-418.22 381.19,-416.02"/>
<polygon fill="midnightblue" stroke="midnightblue" points="381.83,-419.47 391.32,-414.75 380.96,-412.52 381.83,-419.47"/>
</g>
<!-- Node16 -->
<g id="node16" class="node">
<title>Node16</title>
<g id="a_node16"><a xlink:href="classprecice_1_1mesh_1_1Edge.html#a7fc88e0289fecf4c41c230d20311dcdb" target="_top" xlink:title="Returns the edge&#39;s vertex with index 0 or 1.">
<polygon fill="white" stroke="black" points="392.5,-343.5 392.5,-373.5 507.5,-373.5 507.5,-343.5 392.5,-343.5"/>
<text text-anchor="start" x="400.5" y="-361.5" font-family="Helvetica,sans-Serif" font-size="10.00">precice::mesh::Edge</text>
<text text-anchor="middle" x="450" y="-350.5" font-family="Helvetica,sans-Serif" font-size="10.00">::vertex</text>
</a>
</g>
</g>
<!-- Node5&#45;&gt;Node16 -->
<g id="edge17" class="edge">
<title>Node5&#45;&gt;Node16</title>
<path fill="none" stroke="midnightblue" d="M279.01,-421.89C301.53,-411.76 338.43,-395.61 371,-383.5 377.04,-381.26 383.38,-379.02 389.73,-376.87"/>
<polygon fill="midnightblue" stroke="midnightblue" points="391.29,-380.04 399.67,-373.56 389.07,-373.4 391.29,-380.04"/>
</g>
<!-- Node17 -->
<g id="node17" class="node">
<title>Node17</title>
<g id="a_node17"><a xlink:href="classprecice_1_1mesh_1_1Triangle.html#ac4d5ab22ef769607eb78676efe7dd11e" target="_top" xlink:title="Returns triangle vertex with index 0, 1 or 2.">
<polygon fill="white" stroke="black" points="385.5,-294.5 385.5,-324.5 514.5,-324.5 514.5,-294.5 385.5,-294.5"/>
<text text-anchor="start" x="393.5" y="-312.5" font-family="Helvetica,sans-Serif" font-size="10.00">precice::mesh::Triangle</text>
<text text-anchor="middle" x="450" y="-301.5" font-family="Helvetica,sans-Serif" font-size="10.00">::vertex</text>
</a>
</g>
</g>
<!-- Node5&#45;&gt;Node17 -->
<g id="edge18" class="edge">
<title>Node5&#45;&gt;Node17</title>
<path fill="none" stroke="midnightblue" d="M266.69,-421.79C284.46,-402.51 326.99,-359.1 371,-334.5 374.87,-332.33 378.96,-330.32 383.16,-328.46"/>
<polygon fill="midnightblue" stroke="midnightblue" points="384.55,-331.68 392.47,-324.63 381.89,-325.2 384.55,-331.68"/>
</g>
<!-- Node18 -->
<g id="node18" class="node">
<title>Node18</title>
<g id="a_node18"><a xlink:href="classprecice_1_1mesh_1_1Mesh.html#a70d28ab188762edbe9a7b5b8439e9906" target="_top" xlink:title="Returns modifieable container holding all vertices.">
<polygon fill="white" stroke="black" points="391.5,-245.5 391.5,-275.5 508.5,-275.5 508.5,-245.5 391.5,-245.5"/>
<text text-anchor="start" x="399.5" y="-263.5" font-family="Helvetica,sans-Serif" font-size="10.00">precice::mesh::Mesh</text>
<text text-anchor="middle" x="450" y="-252.5" font-family="Helvetica,sans-Serif" font-size="10.00">::vertices</text>
</a>
</g>
</g>
<!-- Node5&#45;&gt;Node18 -->
<g id="edge19" class="edge">
<title>Node5&#45;&gt;Node18</title>
<path fill="none" stroke="midnightblue" d="M262.86,-421.69C276.32,-395.53 316.66,-323.57 371,-285.5 374.47,-283.07 378.19,-280.86 382.06,-278.86"/>
<polygon fill="midnightblue" stroke="midnightblue" points="383.7,-281.96 391.29,-274.57 380.75,-275.62 383.7,-281.96"/>
</g>
<!-- Node20 -->
<g id="node20" class="node">
<title>Node20</title>
<g id="a_node20"><a xlink:href="classprecice_1_1utils_1_1ManageUniqueIDs.html#a02be264c279698ae293587b6576088b5" target="_top" xlink:title=" ">
<polygon fill="white" stroke="black" points="371,-0.5 371,-30.5 529,-30.5 529,-0.5 371,-0.5"/>
<text text-anchor="start" x="379" y="-18.5" font-family="Helvetica,sans-Serif" font-size="10.00">precice::utils::ManageUnique</text>
<text text-anchor="middle" x="450" y="-7.5" font-family="Helvetica,sans-Serif" font-size="10.00">IDs::getFreeID</text>
</a>
</g>
</g>
<!-- Node19&#45;&gt;Node20 -->
<g id="edge21" class="edge">
<title>Node19&#45;&gt;Node20</title>
<path fill="none" stroke="midnightblue" d="M261.42,-206.76C272.36,-176.98 309.5,-86.31 371,-39.5 372.83,-38.11 374.75,-36.79 376.72,-35.55"/>
<polygon fill="midnightblue" stroke="midnightblue" points="378.67,-38.48 385.75,-30.59 375.3,-32.34 378.67,-38.48"/>
</g>
</g>
</svg>
