<?xml version="1.0" encoding="UTF-8" standalone="no"?>
<!DOCTYPE svg PUBLIC "-//W3C//DTD SVG 1.1//EN"
 "http://www.w3.org/Graphics/SVG/1.1/DTD/svg11.dtd">
<!-- Generated by graphviz version 2.43.0 (0)
 -->
<!-- Title: Graphical Class Hierarchy Pages: 1 -->
<svg width="389pt" height="124pt"
 viewBox="0.00 0.00 389.00 124.00" xmlns="http://www.w3.org/2000/svg" xmlns:xlink="http://www.w3.org/1999/xlink">
<g id="graph0" class="graph" transform="scale(1 1) rotate(0) translate(4 120)">
<title>Graphical Class Hierarchy</title>
<!-- Node0 -->
<g id="Node000000" class="node">
<title>Node0</title>
<g id="a_Node000000"><a xlink:href="structprecice_1_1m2n_1_1WhiteboxAccessor.html" target="_top" xlink:title="struct giving access _useOnlyPrimaryCom">
<polygon fill="white" stroke="#666666" points="176,-67.5 0,-67.5 0,-48.5 176,-48.5 176,-67.5"/>
<text text-anchor="middle" x="88" y="-55.5" font-family="Helvetica,sans-Serif" font-size="10.00">precice::m2n::WhiteboxAccessor</text>
</a>
</g>
</g>
<!-- Node1 -->
<g id="Node000001" class="node">
<title>Node1</title>
<g id="a_Node000001"><a xlink:href="structCompositionalCouplingSchemeFixture.html" target="_top" xlink:title=" ">
<polygon fill="white" stroke="#666666" points="381,-116 212,-116 212,-86 381,-86 381,-116"/>
<text text-anchor="start" x="220" y="-104" font-family="Helvetica,sans-Serif" font-size="10.00">CompositionalCouplingScheme</text>
<text text-anchor="middle" x="296.5" y="-93" font-family="Helvetica,sans-Serif" font-size="10.00">Fixture</text>
</a>
</g>
</g>
<!-- Node0&#45;&gt;Node1 -->
<g id="edge99_Node000000_Node000001" class="edge">
<title>Node0&#45;&gt;Node1</title>
<g id="a_edge99_Node000000_Node000001"><a xlink:title=" ">
<path fill="none" stroke="#63b8ff" d="M144.9,-69.64C169.08,-74.68 197.69,-80.63 223.43,-85.99"/>
<polygon fill="#63b8ff" stroke="#63b8ff" points="145.33,-66.16 134.83,-67.54 143.91,-73.01 145.33,-66.16"/>
</a>
</g>
</g>
<!-- Node2 -->
<g id="Node000002" class="node">
<title>Node2</title>
<g id="a_Node000002"><a xlink:href="structExplicitCouplingSchemeFixture.html" target="_top" xlink:title=" ">
<polygon fill="white" stroke="#666666" points="380.5,-67.5 212.5,-67.5 212.5,-48.5 380.5,-48.5 380.5,-67.5"/>
<text text-anchor="middle" x="296.5" y="-55.5" font-family="Helvetica,sans-Serif" font-size="10.00">ExplicitCouplingSchemeFixture</text>
</a>
</g>
</g>
<!-- Node0&#45;&gt;Node2 -->
<g id="edge100_Node000000_Node000002" class="edge">
<title>Node0&#45;&gt;Node2</title>
<g id="a_edge100_Node000000_Node000002"><a xlink:title=" ">
<path fill="none" stroke="#63b8ff" d="M186.45,-58C195.16,-58 203.92,-58 212.49,-58"/>
<polygon fill="#63b8ff" stroke="#63b8ff" points="186.28,-54.5 176.28,-58 186.28,-61.5 186.28,-54.5"/>
</a>
</g>
</g>
<!-- Node3 -->
<g id="Node000003" class="node">
<title>Node3</title>
<g id="a_Node000003"><a xlink:href="structSerialImplicitCouplingSchemeFixture.html" target="_top" xlink:title=" ">
<polygon fill="white" stroke="#666666" points="378,-30 215,-30 215,0 378,0 378,-30"/>
<text text-anchor="start" x="223" y="-18" font-family="Helvetica,sans-Serif" font-size="10.00">SerialImplicitCouplingScheme</text>
<text text-anchor="middle" x="296.5" y="-7" font-family="Helvetica,sans-Serif" font-size="10.00">Fixture</text>
</a>
</g>
</g>
<!-- Node0&#45;&gt;Node3 -->
<g id="edge101_Node000000_Node000003" class="edge">
<title>Node0&#45;&gt;Node3</title>
<g id="a_edge101_Node000000_Node000003"><a xlink:title=" ">
<path fill="none" stroke="#63b8ff" d="M144.9,-46.36C169.08,-41.32 197.69,-35.37 223.43,-30.01"/>
<polygon fill="#63b8ff" stroke="#63b8ff" points="143.91,-42.99 134.83,-48.46 145.33,-49.84 143.91,-42.99"/>
</a>
</g>
</g>
</g>
</svg>
