<?xml version="1.0" encoding="UTF-8" standalone="no"?>
<!DOCTYPE svg PUBLIC "-//W3C//DTD SVG 1.1//EN"
 "http://www.w3.org/Graphics/SVG/1.1/DTD/svg11.dtd">
<!-- Generated by graphviz version 2.43.0 (0)
 -->
<!-- Title: BOOST_AUTO_TEST_CASE Pages: 1 -->
<svg width="819pt" height="138pt"
 viewBox="0.00 0.00 819.00 138.00" xmlns="http://www.w3.org/2000/svg" xmlns:xlink="http://www.w3.org/1999/xlink">
<g id="graph0" class="graph" transform="scale(1 1) rotate(0) translate(4 134)">
<title>BOOST_AUTO_TEST_CASE</title>
<!-- Node1 -->
<g id="Node000001" class="node">
<title>Node1</title>
<g id="a_Node000001"><a xlink:title=" ">
<polygon fill="#999999" stroke="#666666" points="143,-40 0,-40 0,-21 143,-21 143,-40"/>
<text text-anchor="middle" x="71.5" y="-28" font-family="Helvetica,sans-Serif" font-size="10.00">BOOST_AUTO_TEST_CASE</text>
</a>
</g>
</g>
<!-- Node2 -->
<g id="Node000002" class="node">
<title>Node2</title>
<g id="a_Node000002"><a xlink:href="classprecice_1_1utils_1_1IntraComm.html#a38ad54bcb1c09b6eba4097465b80fb08" target="_top" xlink:title=" ">
<polygon fill="white" stroke="#666666" points="340,-40 179,-40 179,-21 340,-21 340,-40"/>
<text text-anchor="middle" x="259.5" y="-28" font-family="Helvetica,sans-Serif" font-size="10.00">precice::utils::IntraComm::dot</text>
</a>
</g>
</g>
<!-- Node1&#45;&gt;Node2 -->
<g id="edge1_Node000001_Node000002" class="edge">
<title>Node1&#45;&gt;Node2</title>
<g id="a_edge1_Node000001_Node000002"><a xlink:title=" ">
<path fill="none" stroke="#63b8ff" d="M143.08,-30.5C151.5,-30.5 160.19,-30.5 168.83,-30.5"/>
<polygon fill="#63b8ff" stroke="#63b8ff" points="168.94,-34 178.94,-30.5 168.94,-27 168.94,-34"/>
</a>
</g>
</g>
<!-- Node3 -->
<g id="Node000003" class="node">
<title>Node3</title>
<g id="a_Node000003"><a xlink:href="classprecice_1_1utils_1_1IntraComm.html#a1181baf395fd7e41bb0f922e3c3334cf" target="_top" xlink:title=" ">
<polygon fill="white" stroke="#666666" points="516,-67.5 376,-67.5 376,-37.5 516,-37.5 516,-67.5"/>
<text text-anchor="start" x="384" y="-55.5" font-family="Helvetica,sans-Serif" font-size="10.00">precice::utils::IntraComm</text>
<text text-anchor="middle" x="446" y="-44.5" font-family="Helvetica,sans-Serif" font-size="10.00">::allreduceSum</text>
</a>
</g>
</g>
<!-- Node2&#45;&gt;Node3 -->
<g id="edge2_Node000002_Node000003" class="edge">
<title>Node2&#45;&gt;Node3</title>
<g id="a_edge2_Node000002_Node000003"><a xlink:title=" ">
<path fill="none" stroke="#63b8ff" d="M340.08,-39.99C348.64,-41.01 357.34,-42.05 365.88,-43.07"/>
<polygon fill="#63b8ff" stroke="#63b8ff" points="365.48,-46.54 375.83,-44.25 366.31,-39.59 365.48,-46.54"/>
</a>
</g>
</g>
<!-- Node9 -->
<g id="Node000009" class="node">
<title>Node9</title>
<g id="a_Node000009"><a target="_parent" xlink:href="http://en.cppreference.com/w/cpp/memory/shared_ptr/get.html#" xlink:title=" ">
<polygon fill="white" stroke="#666666" points="664.5,-19 553.5,-19 553.5,0 664.5,0 664.5,-19"/>
<text text-anchor="middle" x="609" y="-7" font-family="Helvetica,sans-Serif" font-size="10.00">std::shared_ptr::get</text>
</a>
</g>
</g>
<!-- Node2&#45;&gt;Node9 -->
<g id="edge10_Node000002_Node000009" class="edge">
<title>Node2&#45;&gt;Node9</title>
<g id="a_edge10_Node000002_Node000009"><a xlink:title=" ">
<path fill="none" stroke="#63b8ff" d="M340.22,-25.68C401.75,-21.96 485.79,-16.89 543.21,-13.42"/>
<polygon fill="#63b8ff" stroke="#63b8ff" points="543.49,-16.91 553.26,-12.81 543.06,-9.92 543.49,-16.91"/>
</a>
</g>
</g>
<!-- Node4 -->
<g id="Node000004" class="node">
<title>Node4</title>
<g id="a_Node000004"><a xlink:href="classprecice_1_1span.html#ab25ca07a93bfa334622507c2c22b1034" target="_top" xlink:title=" ">
<polygon fill="white" stroke="#666666" points="666,-130 552,-130 552,-111 666,-111 666,-130"/>
<text text-anchor="middle" x="609" y="-118" font-family="Helvetica,sans-Serif" font-size="10.00">precice::span::begin</text>
</a>
</g>
</g>
<!-- Node3&#45;&gt;Node4 -->
<g id="edge3_Node000003_Node000004" class="edge">
<title>Node3&#45;&gt;Node4</title>
<g id="a_edge3_Node000003_Node000004"><a xlink:title=" ">
<path fill="none" stroke="#63b8ff" d="M475.95,-67.57C496.79,-78.1 525.73,-92.08 552,-102.5 556.51,-104.29 561.27,-106.03 566.04,-107.69"/>
<polygon fill="#63b8ff" stroke="#63b8ff" points="565.16,-111.09 575.76,-110.95 567.39,-104.45 565.16,-111.09"/>
</a>
</g>
</g>
<!-- Node6 -->
<g id="Node000006" class="node">
<title>Node6</title>
<g id="a_Node000006"><a target="_parent" xlink:href="http://en.cppreference.com/w/cpp/algorithm/copy.html#" xlink:title=" ">
<polygon fill="white" stroke="#666666" points="639.5,-93 578.5,-93 578.5,-74 639.5,-74 639.5,-93"/>
<text text-anchor="middle" x="609" y="-81" font-family="Helvetica,sans-Serif" font-size="10.00">std::copy</text>
</a>
</g>
</g>
<!-- Node3&#45;&gt;Node6 -->
<g id="edge5_Node000003_Node000006" class="edge">
<title>Node3&#45;&gt;Node6</title>
<g id="a_edge5_Node000003_Node000006"><a xlink:title=" ">
<path fill="none" stroke="#63b8ff" d="M516.21,-65.83C534.11,-69.27 552.77,-72.87 568.55,-75.9"/>
<polygon fill="#63b8ff" stroke="#63b8ff" points="567.99,-79.36 578.47,-77.81 569.31,-72.49 567.99,-79.36"/>
</a>
</g>
</g>
<!-- Node7 -->
<g id="Node000007" class="node">
<title>Node7</title>
<g id="a_Node000007"><a xlink:href="classprecice_1_1span.html#ab86c14ec7bc7475d3ddb21d400e93121" target="_top" xlink:title=" ">
<polygon fill="white" stroke="#666666" points="661.5,-56 556.5,-56 556.5,-37 661.5,-37 661.5,-56"/>
<text text-anchor="middle" x="609" y="-44" font-family="Helvetica,sans-Serif" font-size="10.00">precice::span::end</text>
</a>
</g>
</g>
<!-- Node3&#45;&gt;Node7 -->
<g id="edge6_Node000003_Node000007" class="edge">
<title>Node3&#45;&gt;Node7</title>
<g id="a_edge6_Node000003_Node000007"><a xlink:title=" ">
<path fill="none" stroke="#63b8ff" d="M516.21,-49.92C526.21,-49.55 536.44,-49.17 546.27,-48.8"/>
<polygon fill="#63b8ff" stroke="#63b8ff" points="546.49,-52.29 556.35,-48.42 546.23,-45.3 546.49,-52.29"/>
</a>
</g>
</g>
<!-- Node3&#45;&gt;Node9 -->
<g id="edge9_Node000003_Node000009" class="edge">
<title>Node3&#45;&gt;Node9</title>
<g id="a_edge9_Node000003_Node000009"><a xlink:title=" ">
<path fill="none" stroke="#63b8ff" d="M503.31,-37.46C522.59,-32.31 543.91,-26.62 562.25,-21.72"/>
<polygon fill="#63b8ff" stroke="#63b8ff" points="563.35,-25.05 572.11,-19.09 561.54,-18.29 563.35,-25.05"/>
</a>
</g>
</g>
<!-- Node5 -->
<g id="Node000005" class="node">
<title>Node5</title>
<g id="a_Node000005"><a xlink:href="classprecice_1_1span.html#a38fb4273ab189e44dfb475c17e063a9a" target="_top" xlink:title=" ">
<polygon fill="white" stroke="#666666" points="811,-111 702,-111 702,-92 811,-92 811,-111"/>
<text text-anchor="middle" x="756.5" y="-99" font-family="Helvetica,sans-Serif" font-size="10.00">precice::span::data</text>
</a>
</g>
</g>
<!-- Node4&#45;&gt;Node5 -->
<g id="edge4_Node000004_Node000005" class="edge">
<title>Node4&#45;&gt;Node5</title>
<g id="a_edge4_Node000004_Node000005"><a xlink:title=" ">
<path fill="none" stroke="#63b8ff" d="M666.25,-113.15C674.55,-112.07 683.16,-110.95 691.6,-109.84"/>
<polygon fill="#63b8ff" stroke="#63b8ff" points="692.32,-113.28 701.78,-108.51 691.42,-106.34 692.32,-113.28"/>
</a>
</g>
</g>
<!-- Node7&#45;&gt;Node5 -->
<g id="edge7_Node000007_Node000005" class="edge">
<title>Node7&#45;&gt;Node5</title>
<g id="a_edge7_Node000007_Node000005"><a xlink:title=" ">
<path fill="none" stroke="#63b8ff" d="M639.17,-56.06C647.84,-58.99 657.34,-62.29 666,-65.5 685.17,-72.6 706.4,-81.11 723.37,-88.08"/>
<polygon fill="#63b8ff" stroke="#63b8ff" points="722.25,-91.4 732.83,-91.98 724.92,-84.93 722.25,-91.4"/>
</a>
</g>
</g>
<!-- Node8 -->
<g id="Node000008" class="node">
<title>Node8</title>
<g id="a_Node000008"><a xlink:href="classprecice_1_1span.html#ae91f5ed50b6cbf0d15382b8e3c2a9a04" target="_top" xlink:title=" ">
<polygon fill="white" stroke="#666666" points="810,-56 703,-56 703,-37 810,-37 810,-56"/>
<text text-anchor="middle" x="756.5" y="-44" font-family="Helvetica,sans-Serif" font-size="10.00">precice::span::size</text>
</a>
</g>
</g>
<!-- Node7&#45;&gt;Node8 -->
<g id="edge8_Node000007_Node000008" class="edge">
<title>Node7&#45;&gt;Node8</title>
<g id="a_edge8_Node000007_Node000008"><a xlink:title=" ">
<path fill="none" stroke="#63b8ff" d="M661.71,-46.5C671.75,-46.5 682.39,-46.5 692.74,-46.5"/>
<polygon fill="#63b8ff" stroke="#63b8ff" points="692.98,-50 702.98,-46.5 692.98,-43 692.98,-50"/>
</a>
</g>
</g>
</g>
</svg>
