<?xml version="1.0" encoding="UTF-8" standalone="no"?>
<!DOCTYPE svg PUBLIC "-//W3C//DTD SVG 1.1//EN"
 "http://www.w3.org/Graphics/SVG/1.1/DTD/svg11.dtd">
<!-- Generated by graphviz version 2.43.0 (0)
 -->
<!-- Title: validate Pages: 1 -->
<svg width="377pt" height="116pt"
 viewBox="0.00 0.00 377.00 116.00" xmlns="http://www.w3.org/2000/svg" xmlns:xlink="http://www.w3.org/1999/xlink">
<g id="graph0" class="graph" transform="scale(1 1) rotate(0) translate(4 112)">
<title>validate</title>
<polygon fill="white" stroke="transparent" points="-4,4 -4,-112 373,-112 373,4 -4,4"/>
<!-- Node1 -->
<g id="node1" class="node">
<title>Node1</title>
<g id="a_node1"><a xlink:title=" ">
<polygon fill="#bfbfbf" stroke="black" points="0,-66.5 0,-85.5 56,-85.5 56,-66.5 0,-66.5"/>
<text text-anchor="middle" x="28" y="-73.5" font-family="Helvetica,sans-Serif" font-size="10.00">validate</text>
</a>
</g>
</g>
<!-- Node2 -->
<g id="node2" class="node">
<title>Node2</title>
<g id="a_node2"><a xlink:href="namespaceprecice_1_1detail.html#adede399b4b92eea01face616a0cc7051" target="_top" xlink:title=" ">
<polygon fill="white" stroke="black" points="242.5,-88.5 242.5,-107.5 355.5,-107.5 355.5,-88.5 242.5,-88.5"/>
<text text-anchor="middle" x="299" y="-95.5" font-family="Helvetica,sans-Serif" font-size="10.00">precice::detail::data</text>
</a>
</g>
</g>
<!-- Node1&#45;&gt;Node2 -->
<g id="edge1" class="edge">
<title>Node1&#45;&gt;Node2</title>
<path fill="none" stroke="midnightblue" d="M56.02,-78.21C96.85,-81.55 175.48,-87.98 232.04,-92.61"/>
<polygon fill="midnightblue" stroke="midnightblue" points="232.08,-96.12 242.33,-93.45 232.65,-89.14 232.08,-96.12"/>
</g>
<!-- Node3 -->
<g id="node3" class="node">
<title>Node3</title>
<g id="a_node3"><a xlink:href="mainB_8cpp.html#a00f8645681c3fc8d51f1e0e5975fecd8" target="_top" xlink:title=" ">
<polygon fill="white" stroke="black" points="92,-47.5 92,-66.5 193,-66.5 193,-47.5 92,-47.5"/>
<text text-anchor="middle" x="142.5" y="-54.5" font-family="Helvetica,sans-Serif" font-size="10.00">getExpectedData</text>
</a>
</g>
</g>
<!-- Node1&#45;&gt;Node3 -->
<g id="edge2" class="edge">
<title>Node1&#45;&gt;Node3</title>
<path fill="none" stroke="midnightblue" d="M56.23,-71.4C63.98,-70.09 72.74,-68.61 81.62,-67.11"/>
<polygon fill="midnightblue" stroke="midnightblue" points="82.38,-70.53 91.65,-65.42 81.21,-63.63 82.38,-70.53"/>
</g>
<!-- Node3&#45;&gt;Node2 -->
<g id="edge3" class="edge">
<title>Node3&#45;&gt;Node2</title>
<path fill="none" stroke="midnightblue" d="M179.33,-66.51C201.1,-72.28 229.08,-79.71 252.41,-85.9"/>
<polygon fill="midnightblue" stroke="midnightblue" points="251.53,-89.29 262.09,-88.47 253.33,-82.52 251.53,-89.29"/>
</g>
<!-- Node4 -->
<g id="node4" class="node">
<title>Node4</title>
<g id="a_node4"><a xlink:href="classprecice_1_1utils_1_1IntraComm.html#a2c2aa5e2fd6cc26797b7fdee0b0b25ac" target="_top" xlink:title="Current rank.">
<polygon fill="white" stroke="black" points="229,-39 229,-69 369,-69 369,-39 229,-39"/>
<text text-anchor="start" x="237" y="-57" font-family="Helvetica,sans-Serif" font-size="10.00">precice::utils::IntraComm</text>
<text text-anchor="middle" x="299" y="-46" font-family="Helvetica,sans-Serif" font-size="10.00">::getRank</text>
</a>
</g>
</g>
<!-- Node3&#45;&gt;Node4 -->
<g id="edge4" class="edge">
<title>Node3&#45;&gt;Node4</title>
<path fill="none" stroke="midnightblue" d="M193.24,-56.03C201.41,-55.88 210.07,-55.71 218.75,-55.54"/>
<polygon fill="midnightblue" stroke="midnightblue" points="219.01,-59.03 228.94,-55.34 218.87,-52.04 219.01,-59.03"/>
</g>
<!-- Node5 -->
<g id="node5" class="node">
<title>Node5</title>
<g id="a_node5"><a xlink:href="namespaceprecice_1_1detail.html#a99f20f73c4a3c34d08429ac0fea564ef" target="_top" xlink:title=" ">
<polygon fill="white" stroke="black" points="243.5,-0.5 243.5,-19.5 354.5,-19.5 354.5,-0.5 243.5,-0.5"/>
<text text-anchor="middle" x="299" y="-7.5" font-family="Helvetica,sans-Serif" font-size="10.00">precice::detail::size</text>
</a>
</g>
</g>
<!-- Node3&#45;&gt;Node5 -->
<g id="edge5" class="edge">
<title>Node3&#45;&gt;Node5</title>
<path fill="none" stroke="midnightblue" d="M171.5,-47.45C188.15,-41.88 209.71,-34.81 229,-29 236.53,-26.73 244.55,-24.42 252.36,-22.24"/>
<polygon fill="midnightblue" stroke="midnightblue" points="253.39,-25.58 262.09,-19.54 251.52,-18.84 253.39,-25.58"/>
</g>
</g>
</svg>
