<?xml version="1.0" encoding="UTF-8" standalone="no"?>
<!DOCTYPE svg PUBLIC "-//W3C//DTD SVG 1.1//EN"
 "http://www.w3.org/Graphics/SVG/1.1/DTD/svg11.dtd">
<!-- Generated by graphviz version 2.43.0 (0)
 -->
<!-- Title: BOOST_AUTO_TEST_CASE Pages: 1 -->
<svg width="666pt" height="552pt"
 viewBox="0.00 0.00 666.00 551.50" xmlns="http://www.w3.org/2000/svg" xmlns:xlink="http://www.w3.org/1999/xlink">
<g id="graph0" class="graph" transform="scale(1 1) rotate(0) translate(4 547.5)">
<title>BOOST_AUTO_TEST_CASE</title>
<!-- Node1 -->
<g id="Node000001" class="node">
<title>Node1</title>
<g id="a_Node000001"><a xlink:title=" ">
<polygon fill="#999999" stroke="#666666" points="143,-348.5 0,-348.5 0,-329.5 143,-329.5 143,-348.5"/>
<text text-anchor="middle" x="71.5" y="-336.5" font-family="Helvetica,sans-Serif" font-size="10.00">BOOST_AUTO_TEST_CASE</text>
</a>
</g>
</g>
<!-- Node2 -->
<g id="Node000002" class="node">
<title>Node2</title>
<g id="a_Node000002"><a xlink:href="classprecice_1_1mesh_1_1Mesh.html#afa920f8d8d32076837ae5e3dc28b0eea" target="_top" xlink:title="Allocates memory for the vertex data values and corresponding gradient values.">
<polygon fill="white" stroke="#666666" points="315.5,-426 198.5,-426 198.5,-396 315.5,-396 315.5,-426"/>
<text text-anchor="start" x="206.5" y="-414" font-family="Helvetica,sans-Serif" font-size="10.00">precice::mesh::Mesh</text>
<text text-anchor="middle" x="257" y="-403" font-family="Helvetica,sans-Serif" font-size="10.00">::allocateDataValues</text>
</a>
</g>
</g>
<!-- Node1&#45;&gt;Node2 -->
<g id="edge1_Node000001_Node000002" class="edge">
<title>Node1&#45;&gt;Node2</title>
<g id="a_edge1_Node000001_Node000002"><a xlink:title=" ">
<path fill="none" stroke="#63b8ff" d="M91.83,-348.57C112.94,-358.82 147.9,-375.2 179,-387 184.15,-388.96 189.55,-390.88 194.98,-392.73"/>
<polygon fill="#63b8ff" stroke="#63b8ff" points="194.16,-396.15 204.76,-395.98 196.37,-389.51 194.16,-396.15"/>
</a>
</g>
</g>
<!-- Node3 -->
<g id="Node000003" class="node">
<title>Node3</title>
<g id="a_Node000003"><a xlink:href="classprecice_1_1mesh_1_1Mesh.html#aceb3eabb4f8e40a44d5d1c2822ba7b56" target="_top" xlink:title="Allows access to all data.">
<polygon fill="white" stroke="#666666" points="508.5,-469 391.5,-469 391.5,-439 508.5,-439 508.5,-469"/>
<text text-anchor="start" x="399.5" y="-457" font-family="Helvetica,sans-Serif" font-size="10.00">precice::mesh::Mesh</text>
<text text-anchor="middle" x="450" y="-446" font-family="Helvetica,sans-Serif" font-size="10.00">::data</text>
</a>
</g>
</g>
<!-- Node1&#45;&gt;Node3 -->
<g id="edge19_Node000001_Node000003" class="edge">
<title>Node1&#45;&gt;Node3</title>
<g id="a_edge19_Node000001_Node000003"><a xlink:title=" ">
<path fill="none" stroke="#63b8ff" d="M79.44,-348.58C94.74,-368.84 133.64,-415.72 179,-435 243.63,-462.47 324.82,-464.34 381.2,-461.14"/>
<polygon fill="#63b8ff" stroke="#63b8ff" points="381.68,-464.62 391.43,-460.49 381.23,-457.63 381.68,-464.62"/>
</a>
</g>
</g>
<!-- Node5 -->
<g id="Node000005" class="node">
<title>Node5</title>
<g id="a_Node000005"><a xlink:href="classprecice_1_1mesh_1_1Mesh.html#a6e3fec22b430b35daccd92ef560d2c87" target="_top" xlink:title="Create only data for vertex.">
<polygon fill="white" stroke="#666666" points="315.5,-512 198.5,-512 198.5,-482 315.5,-482 315.5,-512"/>
<text text-anchor="start" x="206.5" y="-500" font-family="Helvetica,sans-Serif" font-size="10.00">precice::mesh::Mesh</text>
<text text-anchor="middle" x="257" y="-489" font-family="Helvetica,sans-Serif" font-size="10.00">::createData</text>
</a>
</g>
</g>
<!-- Node1&#45;&gt;Node5 -->
<g id="edge4_Node000001_Node000005" class="edge">
<title>Node1&#45;&gt;Node5</title>
<g id="a_edge4_Node000001_Node000005"><a xlink:title=" ">
<path fill="none" stroke="#63b8ff" d="M77.93,-348.54C91.79,-372.09 130.8,-433.56 179,-468 184.03,-471.6 189.57,-474.81 195.29,-477.66"/>
<polygon fill="#63b8ff" stroke="#63b8ff" points="193.84,-480.84 204.39,-481.85 196.77,-474.49 193.84,-480.84"/>
</a>
</g>
</g>
<!-- Node8 -->
<g id="Node000008" class="node">
<title>Node8</title>
<g id="a_Node000008"><a xlink:href="classprecice_1_1mesh_1_1Mesh.html#ae05c5234aa9adc6f47a814622039c28e" target="_top" xlink:title="Creates and initializes an Edge object.">
<polygon fill="white" stroke="#666666" points="315.5,-330 198.5,-330 198.5,-300 315.5,-300 315.5,-330"/>
<text text-anchor="start" x="206.5" y="-318" font-family="Helvetica,sans-Serif" font-size="10.00">precice::mesh::Mesh</text>
<text text-anchor="middle" x="257" y="-307" font-family="Helvetica,sans-Serif" font-size="10.00">::createEdge</text>
</a>
</g>
</g>
<!-- Node1&#45;&gt;Node8 -->
<g id="edge8_Node000001_Node000008" class="edge">
<title>Node1&#45;&gt;Node8</title>
<g id="a_edge8_Node000001_Node000008"><a xlink:title=" ">
<path fill="none" stroke="#63b8ff" d="M143.18,-329.76C158.03,-327.81 173.66,-325.77 188.39,-323.84"/>
<polygon fill="#63b8ff" stroke="#63b8ff" points="188.96,-327.3 198.42,-322.53 188.06,-320.36 188.96,-327.3"/>
</a>
</g>
</g>
<!-- Node11 -->
<g id="Node000011" class="node">
<title>Node11</title>
<g id="a_Node000011"><a xlink:href="classprecice_1_1mesh_1_1Mesh.html#a00c3db2576c63d8c6f351175ddc0a4d0" target="_top" xlink:title="Creates and initializes a Triangle object.">
<polygon fill="white" stroke="#666666" points="315.5,-378 198.5,-378 198.5,-348 315.5,-348 315.5,-378"/>
<text text-anchor="start" x="206.5" y="-366" font-family="Helvetica,sans-Serif" font-size="10.00">precice::mesh::Mesh</text>
<text text-anchor="middle" x="257" y="-355" font-family="Helvetica,sans-Serif" font-size="10.00">::createTriangle</text>
</a>
</g>
</g>
<!-- Node1&#45;&gt;Node11 -->
<g id="edge11_Node000001_Node000011" class="edge">
<title>Node1&#45;&gt;Node11</title>
<g id="a_edge11_Node000001_Node000011"><a xlink:title=" ">
<path fill="none" stroke="#63b8ff" d="M143.18,-348.24C158.03,-350.19 173.66,-352.23 188.39,-354.16"/>
<polygon fill="#63b8ff" stroke="#63b8ff" points="188.06,-357.64 198.42,-355.47 188.96,-350.7 188.06,-357.64"/>
</a>
</g>
</g>
<!-- Node13 -->
<g id="Node000013" class="node">
<title>Node13</title>
<g id="a_Node000013"><a xlink:href="classprecice_1_1mesh_1_1Mesh.html#ae9d36ab0ee34fa88e978b413f91eaabf" target="_top" xlink:title="Creates and initializes a Vertex object.">
<polygon fill="white" stroke="#666666" points="315.5,-282 198.5,-282 198.5,-252 315.5,-252 315.5,-282"/>
<text text-anchor="start" x="206.5" y="-270" font-family="Helvetica,sans-Serif" font-size="10.00">precice::mesh::Mesh</text>
<text text-anchor="middle" x="257" y="-259" font-family="Helvetica,sans-Serif" font-size="10.00">::createVertex</text>
</a>
</g>
</g>
<!-- Node1&#45;&gt;Node13 -->
<g id="edge15_Node000001_Node000013" class="edge">
<title>Node1&#45;&gt;Node13</title>
<g id="a_edge15_Node000001_Node000013"><a xlink:title=" ">
<path fill="none" stroke="#63b8ff" d="M91.83,-329.43C112.94,-319.18 147.9,-302.8 179,-291 184.15,-289.04 189.55,-287.12 194.98,-285.27"/>
<polygon fill="#63b8ff" stroke="#63b8ff" points="196.37,-288.49 204.76,-282.02 194.16,-281.85 196.37,-288.49"/>
</a>
</g>
</g>
<!-- Node14 -->
<g id="Node000014" class="node">
<title>Node14</title>
<g id="a_Node000014"><a xlink:href="namespaceprecice_1_1mesh.html#a162b2fb3f2b688033cc4363e5cc8b06d" target="_top" xlink:title="Given the data and the mesh, this function returns the surface integral. Assumes no overlap exists fo...">
<polygon fill="white" stroke="#666666" points="324.5,-174 189.5,-174 189.5,-144 324.5,-144 324.5,-174"/>
<text text-anchor="start" x="197.5" y="-162" font-family="Helvetica,sans-Serif" font-size="10.00">precice::mesh::integrate</text>
<text text-anchor="middle" x="257" y="-151" font-family="Helvetica,sans-Serif" font-size="10.00">Surface</text>
</a>
</g>
</g>
<!-- Node1&#45;&gt;Node14 -->
<g id="edge20_Node000001_Node000014" class="edge">
<title>Node1&#45;&gt;Node14</title>
<g id="a_edge20_Node000001_Node000014"><a xlink:title=" ">
<path fill="none" stroke="#63b8ff" d="M82.37,-329.32C110.7,-301.53 192.87,-220.93 233.17,-181.4"/>
<polygon fill="#63b8ff" stroke="#63b8ff" points="235.95,-183.57 240.64,-174.07 231.05,-178.57 235.95,-183.57"/>
</a>
</g>
</g>
<!-- Node19 -->
<g id="Node000019" class="node">
<title>Node19</title>
<g id="a_Node000019"><a xlink:href="namespaceprecice_1_1testing.html#a08533fd83bad3d7f27ea7f4a35a14aa4" target="_top" xlink:title=" ">
<polygon fill="white" stroke="#666666" points="335,-75.5 179,-75.5 179,-56.5 335,-56.5 335,-75.5"/>
<text text-anchor="middle" x="257" y="-63.5" font-family="Helvetica,sans-Serif" font-size="10.00">precice::testing::nextMeshID</text>
</a>
</g>
</g>
<!-- Node1&#45;&gt;Node19 -->
<g id="edge26_Node000001_Node000019" class="edge">
<title>Node1&#45;&gt;Node19</title>
<g id="a_edge26_Node000001_Node000019"><a xlink:title=" ">
<path fill="none" stroke="#63b8ff" d="M76.09,-329.35C87.73,-298.8 126.78,-202.19 179,-135 195.13,-114.24 218.01,-94.65 234.63,-81.68"/>
<polygon fill="#63b8ff" stroke="#63b8ff" points="236.86,-84.39 242.69,-75.54 232.62,-78.82 236.86,-84.39"/>
</a>
</g>
</g>
<!-- Node2&#45;&gt;Node3 -->
<g id="edge2_Node000002_Node000003" class="edge">
<title>Node2&#45;&gt;Node3</title>
<g id="a_edge2_Node000002_Node000003"><a xlink:title=" ">
<path fill="none" stroke="#63b8ff" d="M315.57,-423.96C336.24,-428.61 359.74,-433.9 381.2,-438.74"/>
<polygon fill="#63b8ff" stroke="#63b8ff" points="380.7,-442.21 391.22,-440.99 382.24,-435.38 380.7,-442.21"/>
</a>
</g>
</g>
<!-- Node4 -->
<g id="Node000004" class="node">
<title>Node4</title>
<g id="a_Node000004"><a target="_parent" xlink:href="http://en.cppreference.com/w/cpp/container/deque/size.html#" xlink:title=" ">
<polygon fill="white" stroke="#666666" points="658,-259.5 565,-259.5 565,-240.5 658,-240.5 658,-259.5"/>
<text text-anchor="middle" x="611.5" y="-247.5" font-family="Helvetica,sans-Serif" font-size="10.00">std::deque::size</text>
</a>
</g>
</g>
<!-- Node2&#45;&gt;Node4 -->
<g id="edge3_Node000002_Node000004" class="edge">
<title>Node2&#45;&gt;Node4</title>
<g id="a_edge3_Node000002_Node000004"><a xlink:title=" ">
<path fill="none" stroke="#63b8ff" d="M315.68,-421.75C374.06,-429.45 464.66,-432.33 529,-392 573.81,-363.91 596.54,-301.64 605.61,-269.71"/>
<polygon fill="#63b8ff" stroke="#63b8ff" points="609.06,-270.36 608.26,-259.79 602.3,-268.55 609.06,-270.36"/>
</a>
</g>
</g>
<!-- Node5&#45;&gt;Node3 -->
<g id="edge6_Node000005_Node000003" class="edge">
<title>Node5&#45;&gt;Node3</title>
<g id="a_edge6_Node000005_Node000003"><a xlink:title=" ">
<path fill="none" stroke="#63b8ff" d="M315.57,-484.04C336.24,-479.39 359.74,-474.1 381.2,-469.26"/>
<polygon fill="#63b8ff" stroke="#63b8ff" points="382.24,-472.62 391.22,-467.01 380.7,-465.79 382.24,-472.62"/>
</a>
</g>
</g>
<!-- Node6 -->
<g id="Node000006" class="node">
<title>Node6</title>
<g id="a_Node000006"><a target="_parent" xlink:href="http://en.cppreference.com/w/cpp/container/vector/back.html#" xlink:title=" ">
<polygon fill="white" stroke="#666666" points="499,-506.5 401,-506.5 401,-487.5 499,-487.5 499,-506.5"/>
<text text-anchor="middle" x="450" y="-494.5" font-family="Helvetica,sans-Serif" font-size="10.00">std::vector::back</text>
</a>
</g>
</g>
<!-- Node5&#45;&gt;Node6 -->
<g id="edge5_Node000005_Node000006" class="edge">
<title>Node5&#45;&gt;Node6</title>
<g id="a_edge5_Node000005_Node000006"><a xlink:title=" ">
<path fill="none" stroke="#63b8ff" d="M315.57,-497C339.29,-497 366.75,-497 390.57,-497"/>
<polygon fill="#63b8ff" stroke="#63b8ff" points="390.88,-500.5 400.88,-497 390.88,-493.5 390.88,-500.5"/>
</a>
</g>
</g>
<!-- Node7 -->
<g id="Node000007" class="node">
<title>Node7</title>
<g id="a_Node000007"><a target="_parent" xlink:href="http://en.cppreference.com/w/cpp/container/vector/push_back.html#" xlink:title=" ">
<polygon fill="white" stroke="#666666" points="513,-543.5 387,-543.5 387,-524.5 513,-524.5 513,-543.5"/>
<text text-anchor="middle" x="450" y="-531.5" font-family="Helvetica,sans-Serif" font-size="10.00">std::vector::push_back</text>
</a>
</g>
</g>
<!-- Node5&#45;&gt;Node7 -->
<g id="edge7_Node000005_Node000007" class="edge">
<title>Node5&#45;&gt;Node7</title>
<g id="a_edge7_Node000005_Node000007"><a xlink:title=" ">
<path fill="none" stroke="#63b8ff" d="M315.57,-508.15C339.11,-512.71 366.33,-517.99 390.02,-522.58"/>
<polygon fill="#63b8ff" stroke="#63b8ff" points="389.46,-526.03 399.94,-524.5 390.79,-519.16 389.46,-526.03"/>
</a>
</g>
</g>
<!-- Node9 -->
<g id="Node000009" class="node">
<title>Node9</title>
<g id="a_Node000009"><a target="_parent" xlink:href="http://en.cppreference.com/w/cpp/container/deque/back.html#" xlink:title=" ">
<polygon fill="white" stroke="#666666" points="498.5,-334.5 401.5,-334.5 401.5,-315.5 498.5,-315.5 498.5,-334.5"/>
<text text-anchor="middle" x="450" y="-322.5" font-family="Helvetica,sans-Serif" font-size="10.00">std::deque::back</text>
</a>
</g>
</g>
<!-- Node8&#45;&gt;Node9 -->
<g id="edge9_Node000008_Node000009" class="edge">
<title>Node8&#45;&gt;Node9</title>
<g id="a_edge9_Node000008_Node000009"><a xlink:title=" ">
<path fill="none" stroke="#63b8ff" d="M315.57,-318.01C339.5,-319.27 367.22,-320.72 391.18,-321.97"/>
<polygon fill="#63b8ff" stroke="#63b8ff" points="391.03,-325.47 401.2,-322.5 391.39,-318.48 391.03,-325.47"/>
</a>
</g>
</g>
<!-- Node10 -->
<g id="Node000010" class="node">
<title>Node10</title>
<g id="a_Node000010"><a target="_parent" xlink:href="http://en.cppreference.com/w/cpp/container/deque/emplace_back.html#" xlink:title=" ">
<polygon fill="white" stroke="#666666" points="522,-297.5 378,-297.5 378,-278.5 522,-278.5 522,-297.5"/>
<text text-anchor="middle" x="450" y="-285.5" font-family="Helvetica,sans-Serif" font-size="10.00">std::deque::emplace_back</text>
</a>
</g>
</g>
<!-- Node8&#45;&gt;Node10 -->
<g id="edge10_Node000008_Node000010" class="edge">
<title>Node8&#45;&gt;Node10</title>
<g id="a_edge10_Node000008_Node000010"><a xlink:title=" ">
<path fill="none" stroke="#63b8ff" d="M315.57,-306.86C333.16,-304.37 352.81,-301.6 371.51,-298.95"/>
<polygon fill="#63b8ff" stroke="#63b8ff" points="372.06,-302.41 381.48,-297.55 371.08,-295.48 372.06,-302.41"/>
</a>
</g>
</g>
<!-- Node11&#45;&gt;Node9 -->
<g id="edge12_Node000011_Node000009" class="edge">
<title>Node11&#45;&gt;Node9</title>
<g id="a_edge12_Node000011_Node000009"><a xlink:title=" ">
<path fill="none" stroke="#63b8ff" d="M315.57,-351.55C339.5,-346.79 367.22,-341.27 391.18,-336.5"/>
<polygon fill="#63b8ff" stroke="#63b8ff" points="392.07,-339.89 401.2,-334.51 390.71,-333.03 392.07,-339.89"/>
</a>
</g>
</g>
<!-- Node11&#45;&gt;Node10 -->
<g id="edge14_Node000011_Node000010" class="edge">
<title>Node11&#45;&gt;Node10</title>
<g id="a_edge14_Node000011_Node000010"><a xlink:title=" ">
<path fill="none" stroke="#63b8ff" d="M315.9,-347.92C322.52,-345.34 329.03,-342.38 335,-339 353.64,-328.47 352.04,-316.94 371,-307 375.51,-304.63 380.33,-302.56 385.27,-300.73"/>
<polygon fill="#63b8ff" stroke="#63b8ff" points="386.49,-304.01 394.87,-297.53 384.28,-297.37 386.49,-304.01"/>
</a>
</g>
</g>
<!-- Node12 -->
<g id="Node000012" class="node">
<title>Node12</title>
<g id="a_Node000012"><a xlink:href="classprecice_1_1mesh_1_1Edge.html#af27f4bd02d0b67cc5c3d04e2cf1ddee7" target="_top" xlink:title="Checks whether both edges share a vertex.">
<polygon fill="white" stroke="#666666" points="507.5,-383 392.5,-383 392.5,-353 507.5,-353 507.5,-383"/>
<text text-anchor="start" x="400.5" y="-371" font-family="Helvetica,sans-Serif" font-size="10.00">precice::mesh::Edge</text>
<text text-anchor="middle" x="450" y="-360" font-family="Helvetica,sans-Serif" font-size="10.00">::connectedTo</text>
</a>
</g>
</g>
<!-- Node11&#45;&gt;Node12 -->
<g id="edge13_Node000011_Node000012" class="edge">
<title>Node11&#45;&gt;Node12</title>
<g id="a_edge13_Node000011_Node000012"><a xlink:title=" ">
<path fill="none" stroke="#63b8ff" d="M315.57,-364.51C336.52,-365.06 360.39,-365.68 382.08,-366.25"/>
<polygon fill="#63b8ff" stroke="#63b8ff" points="382.12,-369.75 392.21,-366.51 382.31,-362.75 382.12,-369.75"/>
</a>
</g>
</g>
<!-- Node13&#45;&gt;Node4 -->
<g id="edge18_Node000013_Node000004" class="edge">
<title>Node13&#45;&gt;Node4</title>
<g id="a_edge18_Node000013_Node000004"><a xlink:title=" ">
<path fill="none" stroke="#63b8ff" d="M315.81,-264.21C381.91,-261.02 489.36,-255.84 554.63,-252.69"/>
<polygon fill="#63b8ff" stroke="#63b8ff" points="554.91,-256.18 564.73,-252.21 554.58,-249.19 554.91,-256.18"/>
</a>
</g>
</g>
<!-- Node13&#45;&gt;Node9 -->
<g id="edge16_Node000013_Node000009" class="edge">
<title>Node13&#45;&gt;Node9</title>
<g id="a_edge16_Node000013_Node000009"><a xlink:title=" ">
<path fill="none" stroke="#63b8ff" d="M309.23,-282.05C317.89,-284.86 326.74,-287.89 335,-291 351.39,-297.17 354.39,-301.45 371,-307 377.46,-309.16 384.32,-311.15 391.17,-312.96"/>
<polygon fill="#63b8ff" stroke="#63b8ff" points="390.61,-316.43 401.16,-315.49 392.32,-309.65 390.61,-316.43"/>
</a>
</g>
</g>
<!-- Node13&#45;&gt;Node10 -->
<g id="edge17_Node000013_Node000010" class="edge">
<title>Node13&#45;&gt;Node10</title>
<g id="a_edge17_Node000013_Node000010"><a xlink:title=" ">
<path fill="none" stroke="#63b8ff" d="M315.57,-273.33C331.91,-275.13 350.02,-277.12 367.5,-279.04"/>
<polygon fill="#63b8ff" stroke="#63b8ff" points="367.37,-282.55 377.7,-280.16 368.14,-275.59 367.37,-282.55"/>
</a>
</g>
</g>
<!-- Node15 -->
<g id="Node000015" class="node">
<title>Node15</title>
<g id="a_Node000015"><a xlink:href="classprecice_1_1mesh_1_1Mesh.html#aec6f303d7791f8a64e2b78180531c89e" target="_top" xlink:title="Returns modifiable container holding all edges.">
<polygon fill="white" stroke="#666666" points="508.5,-174 391.5,-174 391.5,-144 508.5,-144 508.5,-174"/>
<text text-anchor="start" x="399.5" y="-162" font-family="Helvetica,sans-Serif" font-size="10.00">precice::mesh::Mesh</text>
<text text-anchor="middle" x="450" y="-151" font-family="Helvetica,sans-Serif" font-size="10.00">::edges</text>
</a>
</g>
</g>
<!-- Node14&#45;&gt;Node15 -->
<g id="edge21_Node000014_Node000015" class="edge">
<title>Node14&#45;&gt;Node15</title>
<g id="a_edge21_Node000014_Node000015"><a xlink:title=" ">
<path fill="none" stroke="#63b8ff" d="M324.53,-159C342.88,-159 362.81,-159 381.23,-159"/>
<polygon fill="#63b8ff" stroke="#63b8ff" points="381.29,-162.5 391.29,-159 381.29,-155.5 381.29,-162.5"/>
</a>
</g>
</g>
<!-- Node16 -->
<g id="Node000016" class="node">
<title>Node16</title>
<g id="a_Node000016"><a xlink:href="classprecice_1_1mesh_1_1Mesh.html#a136f6b4ce235025e418fab0ca5f350ff" target="_top" xlink:title=" ">
<polygon fill="white" stroke="#666666" points="508.5,-126 391.5,-126 391.5,-96 508.5,-96 508.5,-126"/>
<text text-anchor="start" x="399.5" y="-114" font-family="Helvetica,sans-Serif" font-size="10.00">precice::mesh::Mesh</text>
<text text-anchor="middle" x="450" y="-103" font-family="Helvetica,sans-Serif" font-size="10.00">::getDimensions</text>
</a>
</g>
</g>
<!-- Node14&#45;&gt;Node16 -->
<g id="edge22_Node000014_Node000016" class="edge">
<title>Node14&#45;&gt;Node16</title>
<g id="a_edge22_Node000014_Node000016"><a xlink:title=" ">
<path fill="none" stroke="#63b8ff" d="M317.91,-143.94C338.03,-138.89 360.61,-133.21 381.28,-128.02"/>
<polygon fill="#63b8ff" stroke="#63b8ff" points="382.42,-131.34 391.26,-125.51 380.71,-124.55 382.42,-131.34"/>
</a>
</g>
</g>
<!-- Node17 -->
<g id="Node000017" class="node">
<title>Node17</title>
<g id="a_Node000017"><a xlink:href="classprecice_1_1mesh_1_1Mesh.html#a4220c9b15bb1c3dbf5c00701851f8288" target="_top" xlink:title="Returns the number of vertices.">
<polygon fill="white" stroke="#666666" points="508.5,-222 391.5,-222 391.5,-192 508.5,-192 508.5,-222"/>
<text text-anchor="start" x="399.5" y="-210" font-family="Helvetica,sans-Serif" font-size="10.00">precice::mesh::Mesh</text>
<text text-anchor="middle" x="450" y="-199" font-family="Helvetica,sans-Serif" font-size="10.00">::nVertices</text>
</a>
</g>
</g>
<!-- Node14&#45;&gt;Node17 -->
<g id="edge23_Node000014_Node000017" class="edge">
<title>Node14&#45;&gt;Node17</title>
<g id="a_edge23_Node000014_Node000017"><a xlink:title=" ">
<path fill="none" stroke="#63b8ff" d="M317.91,-174.06C338.03,-179.11 360.61,-184.79 381.28,-189.98"/>
<polygon fill="#63b8ff" stroke="#63b8ff" points="380.71,-193.45 391.26,-192.49 382.42,-186.66 380.71,-193.45"/>
</a>
</g>
</g>
<!-- Node18 -->
<g id="Node000018" class="node">
<title>Node18</title>
<g id="a_Node000018"><a xlink:href="classprecice_1_1mesh_1_1Mesh.html#ad24f3877f1ea7cd5cd5f93a6f2e4d3f9" target="_top" xlink:title="Returns modifiable container holding all triangles.">
<polygon fill="white" stroke="#666666" points="508.5,-78 391.5,-78 391.5,-48 508.5,-48 508.5,-78"/>
<text text-anchor="start" x="399.5" y="-66" font-family="Helvetica,sans-Serif" font-size="10.00">precice::mesh::Mesh</text>
<text text-anchor="middle" x="450" y="-55" font-family="Helvetica,sans-Serif" font-size="10.00">::triangles</text>
</a>
</g>
</g>
<!-- Node14&#45;&gt;Node18 -->
<g id="edge25_Node000014_Node000018" class="edge">
<title>Node14&#45;&gt;Node18</title>
<g id="a_edge25_Node000014_Node000018"><a xlink:title=" ">
<path fill="none" stroke="#63b8ff" d="M277.87,-143.99C299.73,-128.05 336.37,-103 371,-87 375.09,-85.11 379.37,-83.32 383.72,-81.63"/>
<polygon fill="#63b8ff" stroke="#63b8ff" points="385.15,-84.84 393.34,-78.11 382.74,-78.26 385.15,-84.84"/>
</a>
</g>
</g>
<!-- Node17&#45;&gt;Node4 -->
<g id="edge24_Node000017_Node000004" class="edge">
<title>Node17&#45;&gt;Node4</title>
<g id="a_edge24_Node000017_Node000004"><a xlink:title=" ">
<path fill="none" stroke="#63b8ff" d="M506.79,-222.04C525.89,-227.19 547.01,-232.88 565.18,-237.78"/>
<polygon fill="#63b8ff" stroke="#63b8ff" points="564.37,-241.19 574.94,-240.41 566.2,-234.43 564.37,-241.19"/>
</a>
</g>
</g>
<!-- Node20 -->
<g id="Node000020" class="node">
<title>Node20</title>
<g id="a_Node000020"><a xlink:href="classprecice_1_1utils_1_1ManageUniqueIDs.html#a02be264c279698ae293587b6576088b5" target="_top" xlink:title=" ">
<polygon fill="white" stroke="#666666" points="529,-30 371,-30 371,0 529,0 529,-30"/>
<text text-anchor="start" x="379" y="-18" font-family="Helvetica,sans-Serif" font-size="10.00">precice::utils::ManageUnique</text>
<text text-anchor="middle" x="450" y="-7" font-family="Helvetica,sans-Serif" font-size="10.00">IDs::getFreeID</text>
</a>
</g>
</g>
<!-- Node19&#45;&gt;Node20 -->
<g id="edge27_Node000019_Node000020" class="edge">
<title>Node19&#45;&gt;Node20</title>
<g id="a_edge27_Node000019_Node000020"><a xlink:title=" ">
<path fill="none" stroke="#63b8ff" d="M293.93,-56.41C318.88,-49.74 352.86,-40.67 382.66,-32.71"/>
<polygon fill="#63b8ff" stroke="#63b8ff" points="383.83,-36.03 392.58,-30.06 382.02,-29.26 383.83,-36.03"/>
</a>
</g>
</g>
</g>
</svg>
