<?xml version="1.0" encoding="UTF-8" standalone="no"?>
<!DOCTYPE svg PUBLIC "-//W3C//DTD SVG 1.1//EN"
 "http://www.w3.org/Graphics/SVG/1.1/DTD/svg11.dtd">
<!-- Generated by graphviz version 2.43.0 (0)
 -->
<!-- Title: BOOST_AUTO_TEST_CASE Pages: 1 -->
<svg width="537pt" height="88pt"
 viewBox="0.00 0.00 537.00 88.00" xmlns="http://www.w3.org/2000/svg" xmlns:xlink="http://www.w3.org/1999/xlink">
<g id="graph0" class="graph" transform="scale(1 1) rotate(0) translate(4 84)">
<title>BOOST_AUTO_TEST_CASE</title>
<polygon fill="white" stroke="transparent" points="-4,4 -4,-84 533,-84 533,4 -4,4"/>
<!-- Node1 -->
<g id="node1" class="node">
<title>Node1</title>
<g id="a_node1"><a xlink:title=" ">
<polygon fill="#bfbfbf" stroke="black" points="0,-30 0,-49 143,-49 143,-30 0,-30"/>
<text text-anchor="middle" x="71.5" y="-37" font-family="Helvetica,sans-Serif" font-size="10.00">BOOST_AUTO_TEST_CASE</text>
</a>
</g>
</g>
<!-- Node2 -->
<g id="node2" class="node">
<title>Node2</title>
<g id="a_node2"><a xlink:href="namespaceprecice_1_1mesh.html#af945026d91b87d6b51fddc0debbb2c42" target="_top" xlink:title="Given the data and the mesh, this function returns the surface integral. Assumes no overlap exists fo...">
<polygon fill="white" stroke="black" points="189.5,-47.5 189.5,-77.5 324.5,-77.5 324.5,-47.5 189.5,-47.5"/>
<text text-anchor="start" x="197.5" y="-65.5" font-family="Helvetica,sans-Serif" font-size="10.00">precice::mesh::integrate</text>
<text text-anchor="middle" x="257" y="-54.5" font-family="Helvetica,sans-Serif" font-size="10.00">Surface</text>
</a>
</g>
</g>
<!-- Node1&#45;&gt;Node2 -->
<g id="edge1" class="edge">
<title>Node1&#45;&gt;Node2</title>
<path fill="none" stroke="midnightblue" d="M143.18,-48.36C155.01,-49.84 167.34,-51.39 179.31,-52.89"/>
<polygon fill="midnightblue" stroke="midnightblue" points="178.91,-56.37 189.27,-54.14 179.78,-49.42 178.91,-56.37"/>
</g>
<!-- Node4 -->
<g id="node4" class="node">
<title>Node4</title>
<g id="a_node4"><a xlink:href="namespaceprecice_1_1testing.html#a08533fd83bad3d7f27ea7f4a35a14aa4" target="_top" xlink:title=" ">
<polygon fill="white" stroke="black" points="179,-8 179,-27 335,-27 335,-8 179,-8"/>
<text text-anchor="middle" x="257" y="-15" font-family="Helvetica,sans-Serif" font-size="10.00">precice::testing::nextMeshID</text>
</a>
</g>
</g>
<!-- Node1&#45;&gt;Node4 -->
<g id="edge3" class="edge">
<title>Node1&#45;&gt;Node4</title>
<path fill="none" stroke="midnightblue" d="M143.18,-31.03C151.6,-30.02 160.27,-28.98 168.88,-27.94"/>
<polygon fill="midnightblue" stroke="midnightblue" points="169.44,-31.4 178.95,-26.74 168.6,-24.45 169.44,-31.4"/>
</g>
<!-- Node3 -->
<g id="node3" class="node">
<title>Node3</title>
<g id="a_node3"><a xlink:href="namespaceTCB__SPAN__NAMESPACE__NAME_1_1detail.html#ada90c89c458a0d53c483e767de7b7701" target="_top" xlink:title=" ">
<polygon fill="white" stroke="black" points="384.5,-49.5 384.5,-79.5 515.5,-79.5 515.5,-49.5 384.5,-49.5"/>
<text text-anchor="start" x="392.5" y="-67.5" font-family="Helvetica,sans-Serif" font-size="10.00">TCB_SPAN_NAMESPACE</text>
<text text-anchor="middle" x="450" y="-56.5" font-family="Helvetica,sans-Serif" font-size="10.00">_NAME::detail::data</text>
</a>
</g>
</g>
<!-- Node2&#45;&gt;Node3 -->
<g id="edge2" class="edge">
<title>Node2&#45;&gt;Node3</title>
<path fill="none" stroke="midnightblue" d="M324.53,-63.2C340.58,-63.36 357.84,-63.55 374.23,-63.72"/>
<polygon fill="midnightblue" stroke="midnightblue" points="374.28,-67.22 384.31,-63.82 374.35,-60.22 374.28,-67.22"/>
</g>
<!-- Node5 -->
<g id="node5" class="node">
<title>Node5</title>
<g id="a_node5"><a xlink:href="classprecice_1_1utils_1_1ManageUniqueIDs.html#a02be264c279698ae293587b6576088b5" target="_top" xlink:title=" ">
<polygon fill="white" stroke="black" points="371,-0.5 371,-30.5 529,-30.5 529,-0.5 371,-0.5"/>
<text text-anchor="start" x="379" y="-18.5" font-family="Helvetica,sans-Serif" font-size="10.00">precice::utils::ManageUnique</text>
<text text-anchor="middle" x="450" y="-7.5" font-family="Helvetica,sans-Serif" font-size="10.00">IDs::getFreeID</text>
</a>
</g>
</g>
<!-- Node4&#45;&gt;Node5 -->
<g id="edge4" class="edge">
<title>Node4&#45;&gt;Node5</title>
<path fill="none" stroke="midnightblue" d="M335.14,-16.69C343.62,-16.6 352.3,-16.51 360.91,-16.42"/>
<polygon fill="midnightblue" stroke="midnightblue" points="360.99,-19.92 370.95,-16.32 360.92,-12.92 360.99,-19.92"/>
</g>
</g>
</svg>
