<?xml version="1.0" encoding="UTF-8" standalone="no"?>
<!DOCTYPE svg PUBLIC "-//W3C//DTD SVG 1.1//EN"
 "http://www.w3.org/Graphics/SVG/1.1/DTD/svg11.dtd">
<!-- Generated by graphviz version 2.43.0 (0)
 -->
<!-- Title: BOOST_FIXTURE_TEST_CASE Pages: 1 -->
<svg width="681pt" height="542pt"
 viewBox="0.00 0.00 681.00 541.50" xmlns="http://www.w3.org/2000/svg" xmlns:xlink="http://www.w3.org/1999/xlink">
<g id="graph0" class="graph" transform="scale(1 1) rotate(0) translate(4 537.5)">
<title>BOOST_FIXTURE_TEST_CASE</title>
<!-- Node1 -->
<g id="Node000001" class="node">
<title>Node1</title>
<g id="a_Node000001"><a xlink:title=" ">
<polygon fill="#999999" stroke="#666666" points="158,-280.5 0,-280.5 0,-261.5 158,-261.5 158,-280.5"/>
<text text-anchor="middle" x="79" y="-268.5" font-family="Helvetica,sans-Serif" font-size="10.00">BOOST_FIXTURE_TEST_CASE</text>
</a>
</g>
</g>
<!-- Node2 -->
<g id="Node000002" class="node">
<title>Node2</title>
<g id="a_Node000002"><a xlink:href="classprecice_1_1mesh_1_1Mesh.html#afa920f8d8d32076837ae5e3dc28b0eea" target="_top" xlink:title="Allocates memory for the vertex data values and corresponding gradient values.">
<polygon fill="white" stroke="#666666" points="330.5,-416 213.5,-416 213.5,-386 330.5,-386 330.5,-416"/>
<text text-anchor="start" x="221.5" y="-404" font-family="Helvetica,sans-Serif" font-size="10.00">precice::mesh::Mesh</text>
<text text-anchor="middle" x="272" y="-393" font-family="Helvetica,sans-Serif" font-size="10.00">::allocateDataValues</text>
</a>
</g>
</g>
<!-- Node1&#45;&gt;Node2 -->
<g id="edge1_Node000001_Node000002" class="edge">
<title>Node1&#45;&gt;Node2</title>
<g id="a_edge1_Node000001_Node000002"><a xlink:title=" ">
<path fill="none" stroke="#63b8ff" d="M90.01,-280.76C109.06,-298.97 152.36,-338.69 194,-365 203.55,-371.03 214.28,-376.68 224.62,-381.63"/>
<polygon fill="#63b8ff" stroke="#63b8ff" points="223.42,-384.93 233.97,-385.97 226.37,-378.58 223.42,-384.93"/>
</a>
</g>
</g>
<!-- Node3 -->
<g id="Node000003" class="node">
<title>Node3</title>
<g id="a_Node000003"><a xlink:href="classprecice_1_1mesh_1_1Mesh.html#aceb3eabb4f8e40a44d5d1c2822ba7b56" target="_top" xlink:title="Allows access to all data.">
<polygon fill="white" stroke="#666666" points="523.5,-459 406.5,-459 406.5,-429 523.5,-429 523.5,-459"/>
<text text-anchor="start" x="414.5" y="-447" font-family="Helvetica,sans-Serif" font-size="10.00">precice::mesh::Mesh</text>
<text text-anchor="middle" x="465" y="-436" font-family="Helvetica,sans-Serif" font-size="10.00">::data</text>
</a>
</g>
</g>
<!-- Node1&#45;&gt;Node3 -->
<g id="edge15_Node000001_Node000003" class="edge">
<title>Node1&#45;&gt;Node3</title>
<g id="a_edge15_Node000001_Node000003"><a xlink:title=" ">
<path fill="none" stroke="#63b8ff" d="M83.79,-280.87C95.28,-309.29 132.76,-391.39 194,-425 256.18,-459.12 338.9,-459.61 396.32,-454.27"/>
<polygon fill="#63b8ff" stroke="#63b8ff" points="396.78,-457.74 406.38,-453.25 396.08,-450.77 396.78,-457.74"/>
</a>
</g>
</g>
<!-- Node4 -->
<g id="Node000004" class="node">
<title>Node4</title>
<g id="a_Node000004"><a target="_parent" xlink:href="http://en.cppreference.com/w/cpp/container/deque/size.html#" xlink:title=" ">
<polygon fill="white" stroke="#666666" points="673,-278.5 580,-278.5 580,-259.5 673,-259.5 673,-278.5"/>
<text text-anchor="middle" x="626.5" y="-266.5" font-family="Helvetica,sans-Serif" font-size="10.00">std::deque::size</text>
</a>
</g>
</g>
<!-- Node1&#45;&gt;Node4 -->
<g id="edge25_Node000001_Node000004" class="edge">
<title>Node1&#45;&gt;Node4</title>
<g id="a_edge25_Node000001_Node000004"><a xlink:title=" ">
<path fill="none" stroke="#63b8ff" d="M158.19,-269.45C170.18,-269.26 182.42,-269.1 194,-269 328.88,-267.82 487.47,-268.3 569.71,-268.69"/>
<polygon fill="#63b8ff" stroke="#63b8ff" points="569.82,-272.19 579.83,-268.74 569.85,-265.19 569.82,-272.19"/>
</a>
</g>
</g>
<!-- Node5 -->
<g id="Node000005" class="node">
<title>Node5</title>
<g id="a_Node000005"><a xlink:href="classprecice_1_1mesh_1_1Mesh.html#a6e3fec22b430b35daccd92ef560d2c87" target="_top" xlink:title="Create only data for vertex.">
<polygon fill="white" stroke="#666666" points="330.5,-502 213.5,-502 213.5,-472 330.5,-472 330.5,-502"/>
<text text-anchor="start" x="221.5" y="-490" font-family="Helvetica,sans-Serif" font-size="10.00">precice::mesh::Mesh</text>
<text text-anchor="middle" x="272" y="-479" font-family="Helvetica,sans-Serif" font-size="10.00">::createData</text>
</a>
</g>
</g>
<!-- Node1&#45;&gt;Node5 -->
<g id="edge4_Node000001_Node000005" class="edge">
<title>Node1&#45;&gt;Node5</title>
<g id="a_edge4_Node000001_Node000005"><a xlink:title=" ">
<path fill="none" stroke="#63b8ff" d="M83.29,-280.68C94.13,-311.19 131.63,-406.34 194,-458 198.19,-461.47 202.85,-464.56 207.73,-467.29"/>
<polygon fill="#63b8ff" stroke="#63b8ff" points="206.21,-470.44 216.71,-471.83 209.37,-464.19 206.21,-470.44"/>
</a>
</g>
</g>
<!-- Node8 -->
<g id="Node000008" class="node">
<title>Node8</title>
<g id="a_Node000008"><a xlink:href="classprecice_1_1mesh_1_1Mesh.html#ab5414039a184e349718371361d6e7777" target="_top" xlink:title="Creates and initializes a Tetrahedron object.">
<polygon fill="white" stroke="#666666" points="330.5,-356 213.5,-356 213.5,-326 330.5,-326 330.5,-356"/>
<text text-anchor="start" x="221.5" y="-344" font-family="Helvetica,sans-Serif" font-size="10.00">precice::mesh::Mesh</text>
<text text-anchor="middle" x="272" y="-333" font-family="Helvetica,sans-Serif" font-size="10.00">::createTetrahedron</text>
</a>
</g>
</g>
<!-- Node1&#45;&gt;Node8 -->
<g id="edge8_Node000001_Node000008" class="edge">
<title>Node1&#45;&gt;Node8</title>
<g id="a_edge8_Node000001_Node000008"><a xlink:title=" ">
<path fill="none" stroke="#63b8ff" d="M102.08,-280.53C124.89,-290.23 161.64,-305.45 194,-317 199.49,-318.96 205.23,-320.92 211,-322.82"/>
<polygon fill="#63b8ff" stroke="#63b8ff" points="210.09,-326.21 220.69,-325.97 212.26,-319.55 210.09,-326.21"/>
</a>
</g>
</g>
<!-- Node11 -->
<g id="Node000011" class="node">
<title>Node11</title>
<g id="a_Node000011"><a xlink:href="classprecice_1_1mesh_1_1Mesh.html#ae9d36ab0ee34fa88e978b413f91eaabf" target="_top" xlink:title="Creates and initializes a Vertex object.">
<polygon fill="white" stroke="#666666" points="330.5,-308 213.5,-308 213.5,-278 330.5,-278 330.5,-308"/>
<text text-anchor="start" x="221.5" y="-296" font-family="Helvetica,sans-Serif" font-size="10.00">precice::mesh::Mesh</text>
<text text-anchor="middle" x="272" y="-285" font-family="Helvetica,sans-Serif" font-size="10.00">::createVertex</text>
</a>
</g>
</g>
<!-- Node1&#45;&gt;Node11 -->
<g id="edge11_Node000001_Node000011" class="edge">
<title>Node1&#45;&gt;Node11</title>
<g id="a_edge11_Node000001_Node000011"><a xlink:title=" ">
<path fill="none" stroke="#63b8ff" d="M158.24,-280.01C173.22,-281.74 188.79,-283.53 203.4,-285.21"/>
<polygon fill="#63b8ff" stroke="#63b8ff" points="203.02,-288.69 213.35,-286.36 203.82,-281.74 203.02,-288.69"/>
</a>
</g>
</g>
<!-- Node12 -->
<g id="Node000012" class="node">
<title>Node12</title>
<g id="a_Node000012"><a xlink:href="namespaceprecice_1_1mesh.html#a27bca58154223d9708c9634163026578" target="_top" xlink:title="Given the data and the mesh, this function returns the volume integral. Assumes no overlap exists for...">
<polygon fill="white" stroke="#666666" points="339.5,-204 204.5,-204 204.5,-174 339.5,-174 339.5,-204"/>
<text text-anchor="start" x="212.5" y="-192" font-family="Helvetica,sans-Serif" font-size="10.00">precice::mesh::integrate</text>
<text text-anchor="middle" x="272" y="-181" font-family="Helvetica,sans-Serif" font-size="10.00">Volume</text>
</a>
</g>
</g>
<!-- Node1&#45;&gt;Node12 -->
<g id="edge16_Node000001_Node000012" class="edge">
<title>Node1&#45;&gt;Node12</title>
<g id="a_edge16_Node000001_Node000012"><a xlink:title=" ">
<path fill="none" stroke="#63b8ff" d="M102.28,-261.43C132.58,-248.42 187.46,-224.87 226.39,-208.15"/>
<polygon fill="#63b8ff" stroke="#63b8ff" points="228.11,-211.22 235.92,-204.06 225.35,-204.79 228.11,-211.22"/>
</a>
</g>
</g>
<!-- Node15 -->
<g id="Node000015" class="node">
<title>Node15</title>
<g id="a_Node000015"><a xlink:href="classprecice_1_1mesh_1_1Mesh.html#a479bf9583fd5a233f8ed1c8b9b3fe5c4" target="_top" xlink:title="Returns modifiable container holding all tetrahedra.">
<polygon fill="white" stroke="#666666" points="523.5,-78 406.5,-78 406.5,-48 523.5,-48 523.5,-78"/>
<text text-anchor="start" x="414.5" y="-66" font-family="Helvetica,sans-Serif" font-size="10.00">precice::mesh::Mesh</text>
<text text-anchor="middle" x="465" y="-55" font-family="Helvetica,sans-Serif" font-size="10.00">::tetrahedra</text>
</a>
</g>
</g>
<!-- Node1&#45;&gt;Node15 -->
<g id="edge26_Node000001_Node000015" class="edge">
<title>Node1&#45;&gt;Node15</title>
<g id="a_edge26_Node000001_Node000015"><a xlink:title=" ">
<path fill="none" stroke="#63b8ff" d="M87.4,-261.37C104.03,-240.41 146.65,-190.5 194,-165 256.83,-131.16 288.74,-163.59 350,-127 370.53,-114.73 365.84,-99.87 386,-87 389.4,-84.83 393,-82.85 396.72,-81.04"/>
<polygon fill="#63b8ff" stroke="#63b8ff" points="398.43,-84.11 406.18,-76.88 395.61,-77.7 398.43,-84.11"/>
</a>
</g>
</g>
<!-- Node17 -->
<g id="Node000017" class="node">
<title>Node17</title>
<g id="a_Node000017"><a target="_parent" xlink:href="http://en.cppreference.com/w/cpp/memory/unique_ptr/make_unique.html#" xlink:title=" ">
<polygon fill="white" stroke="#666666" points="323.5,-117.5 220.5,-117.5 220.5,-98.5 323.5,-98.5 323.5,-117.5"/>
<text text-anchor="middle" x="272" y="-105.5" font-family="Helvetica,sans-Serif" font-size="10.00">std::make_unique</text>
</a>
</g>
</g>
<!-- Node1&#45;&gt;Node17 -->
<g id="edge22_Node000001_Node000017" class="edge">
<title>Node1&#45;&gt;Node17</title>
<g id="a_edge22_Node000001_Node000017"><a xlink:title=" ">
<path fill="none" stroke="#63b8ff" d="M85.25,-261.28C99.36,-236.04 140.68,-167.93 194,-132 200.53,-127.6 207.91,-123.97 215.45,-120.99"/>
<polygon fill="#63b8ff" stroke="#63b8ff" points="216.8,-124.23 225.03,-117.56 214.44,-117.64 216.8,-124.23"/>
</a>
</g>
</g>
<!-- Node18 -->
<g id="Node000018" class="node">
<title>Node18</title>
<g id="a_Node000018"><a xlink:href="namespaceprecice_1_1testing.html#a08533fd83bad3d7f27ea7f4a35a14aa4" target="_top" xlink:title=" ">
<polygon fill="white" stroke="#666666" points="350,-43.5 194,-43.5 194,-24.5 350,-24.5 350,-43.5"/>
<text text-anchor="middle" x="272" y="-31.5" font-family="Helvetica,sans-Serif" font-size="10.00">precice::testing::nextMeshID</text>
</a>
</g>
</g>
<!-- Node1&#45;&gt;Node18 -->
<g id="edge23_Node000001_Node000018" class="edge">
<title>Node1&#45;&gt;Node18</title>
<g id="a_edge23_Node000001_Node000018"><a xlink:title=" ">
<path fill="none" stroke="#63b8ff" d="M84.37,-261.49C97.74,-233.08 140.47,-147.23 194,-90 209.1,-73.85 229.44,-59.29 245.42,-49.07"/>
<polygon fill="#63b8ff" stroke="#63b8ff" points="247.62,-51.83 254.26,-43.57 243.92,-45.88 247.62,-51.83"/>
</a>
</g>
</g>
<!-- Node2&#45;&gt;Node3 -->
<g id="edge2_Node000002_Node000003" class="edge">
<title>Node2&#45;&gt;Node3</title>
<g id="a_edge2_Node000002_Node000003"><a xlink:title=" ">
<path fill="none" stroke="#63b8ff" d="M330.57,-413.96C351.24,-418.61 374.74,-423.9 396.2,-428.74"/>
<polygon fill="#63b8ff" stroke="#63b8ff" points="395.7,-432.21 406.22,-430.99 397.24,-425.38 395.7,-432.21"/>
</a>
</g>
</g>
<!-- Node2&#45;&gt;Node4 -->
<g id="edge3_Node000002_Node000004" class="edge">
<title>Node2&#45;&gt;Node4</title>
<g id="a_edge3_Node000002_Node000004"><a xlink:title=" ">
<path fill="none" stroke="#63b8ff" d="M330.66,-410.44C388.41,-416.95 477.96,-418.76 544,-382 581.69,-361.02 606.42,-314.44 617.95,-288.1"/>
<polygon fill="#63b8ff" stroke="#63b8ff" points="621.22,-289.37 621.85,-278.79 614.76,-286.66 621.22,-289.37"/>
</a>
</g>
</g>
<!-- Node5&#45;&gt;Node3 -->
<g id="edge6_Node000005_Node000003" class="edge">
<title>Node5&#45;&gt;Node3</title>
<g id="a_edge6_Node000005_Node000003"><a xlink:title=" ">
<path fill="none" stroke="#63b8ff" d="M330.57,-474.04C351.24,-469.39 374.74,-464.1 396.2,-459.26"/>
<polygon fill="#63b8ff" stroke="#63b8ff" points="397.24,-462.62 406.22,-457.01 395.7,-455.79 397.24,-462.62"/>
</a>
</g>
</g>
<!-- Node6 -->
<g id="Node000006" class="node">
<title>Node6</title>
<g id="a_Node000006"><a target="_parent" xlink:href="http://en.cppreference.com/w/cpp/container/vector/back.html#" xlink:title=" ">
<polygon fill="white" stroke="#666666" points="514,-496.5 416,-496.5 416,-477.5 514,-477.5 514,-496.5"/>
<text text-anchor="middle" x="465" y="-484.5" font-family="Helvetica,sans-Serif" font-size="10.00">std::vector::back</text>
</a>
</g>
</g>
<!-- Node5&#45;&gt;Node6 -->
<g id="edge5_Node000005_Node000006" class="edge">
<title>Node5&#45;&gt;Node6</title>
<g id="a_edge5_Node000005_Node000006"><a xlink:title=" ">
<path fill="none" stroke="#63b8ff" d="M330.57,-487C354.29,-487 381.75,-487 405.57,-487"/>
<polygon fill="#63b8ff" stroke="#63b8ff" points="405.88,-490.5 415.88,-487 405.88,-483.5 405.88,-490.5"/>
</a>
</g>
</g>
<!-- Node7 -->
<g id="Node000007" class="node">
<title>Node7</title>
<g id="a_Node000007"><a target="_parent" xlink:href="http://en.cppreference.com/w/cpp/container/vector/push_back.html#" xlink:title=" ">
<polygon fill="white" stroke="#666666" points="528,-533.5 402,-533.5 402,-514.5 528,-514.5 528,-533.5"/>
<text text-anchor="middle" x="465" y="-521.5" font-family="Helvetica,sans-Serif" font-size="10.00">std::vector::push_back</text>
</a>
</g>
</g>
<!-- Node5&#45;&gt;Node7 -->
<g id="edge7_Node000005_Node000007" class="edge">
<title>Node5&#45;&gt;Node7</title>
<g id="a_edge7_Node000005_Node000007"><a xlink:title=" ">
<path fill="none" stroke="#63b8ff" d="M330.57,-498.15C354.11,-502.71 381.33,-507.99 405.02,-512.58"/>
<polygon fill="#63b8ff" stroke="#63b8ff" points="404.46,-516.03 414.94,-514.5 405.79,-509.16 404.46,-516.03"/>
</a>
</g>
</g>
<!-- Node9 -->
<g id="Node000009" class="node">
<title>Node9</title>
<g id="a_Node000009"><a target="_parent" xlink:href="http://en.cppreference.com/w/cpp/container/deque/back.html#" xlink:title=" ">
<polygon fill="white" stroke="#666666" points="513.5,-372.5 416.5,-372.5 416.5,-353.5 513.5,-353.5 513.5,-372.5"/>
<text text-anchor="middle" x="465" y="-360.5" font-family="Helvetica,sans-Serif" font-size="10.00">std::deque::back</text>
</a>
</g>
</g>
<!-- Node8&#45;&gt;Node9 -->
<g id="edge9_Node000008_Node000009" class="edge">
<title>Node8&#45;&gt;Node9</title>
<g id="a_edge9_Node000008_Node000009"><a xlink:title=" ">
<path fill="none" stroke="#63b8ff" d="M330.57,-347.63C354.5,-350.39 382.22,-353.58 406.18,-356.34"/>
<polygon fill="#63b8ff" stroke="#63b8ff" points="405.86,-359.83 416.2,-357.49 406.66,-352.87 405.86,-359.83"/>
</a>
</g>
</g>
<!-- Node10 -->
<g id="Node000010" class="node">
<title>Node10</title>
<g id="a_Node000010"><a target="_parent" xlink:href="http://en.cppreference.com/w/cpp/container/deque/emplace_back.html#" xlink:title=" ">
<polygon fill="white" stroke="#666666" points="537,-335.5 393,-335.5 393,-316.5 537,-316.5 537,-335.5"/>
<text text-anchor="middle" x="465" y="-323.5" font-family="Helvetica,sans-Serif" font-size="10.00">std::deque::emplace_back</text>
</a>
</g>
</g>
<!-- Node8&#45;&gt;Node10 -->
<g id="edge10_Node000008_Node000010" class="edge">
<title>Node8&#45;&gt;Node10</title>
<g id="a_edge10_Node000008_Node000010"><a xlink:title=" ">
<path fill="none" stroke="#63b8ff" d="M330.57,-336.48C346.91,-335.2 365.02,-333.77 382.5,-332.4"/>
<polygon fill="#63b8ff" stroke="#63b8ff" points="383,-335.87 392.7,-331.6 382.45,-328.89 383,-335.87"/>
</a>
</g>
</g>
<!-- Node11&#45;&gt;Node4 -->
<g id="edge14_Node000011_Node000004" class="edge">
<title>Node11&#45;&gt;Node4</title>
<g id="a_edge14_Node000011_Node000004"><a xlink:title=" ">
<path fill="none" stroke="#63b8ff" d="M330.81,-289.06C396.91,-284.56 504.36,-277.25 569.63,-272.8"/>
<polygon fill="#63b8ff" stroke="#63b8ff" points="569.99,-276.29 579.73,-272.12 569.52,-269.3 569.99,-276.29"/>
</a>
</g>
</g>
<!-- Node11&#45;&gt;Node9 -->
<g id="edge12_Node000011_Node000009" class="edge">
<title>Node11&#45;&gt;Node9</title>
<g id="a_edge12_Node000011_Node000009"><a xlink:title=" ">
<path fill="none" stroke="#63b8ff" d="M329.47,-308.01C336.54,-310.63 343.55,-313.63 350,-317 367.96,-326.39 367.69,-336.29 386,-345 392.47,-348.08 399.5,-350.65 406.6,-352.78"/>
<polygon fill="#63b8ff" stroke="#63b8ff" points="405.71,-356.17 416.28,-355.44 407.56,-349.42 405.71,-356.17"/>
</a>
</g>
</g>
<!-- Node11&#45;&gt;Node10 -->
<g id="edge13_Node000011_Node000010" class="edge">
<title>Node11&#45;&gt;Node10</title>
<g id="a_edge13_Node000011_Node000010"><a xlink:title=" ">
<path fill="none" stroke="#63b8ff" d="M330.57,-302.95C352.09,-306.67 376.69,-310.92 398.85,-314.74"/>
<polygon fill="#63b8ff" stroke="#63b8ff" points="398.4,-318.22 408.85,-316.47 399.59,-311.32 398.4,-318.22"/>
</a>
</g>
</g>
<!-- Node13 -->
<g id="Node000013" class="node">
<title>Node13</title>
<g id="a_Node000013"><a xlink:href="classprecice_1_1mesh_1_1Mesh.html#a136f6b4ce235025e418fab0ca5f350ff" target="_top" xlink:title=" ">
<polygon fill="white" stroke="#666666" points="523.5,-126 406.5,-126 406.5,-96 523.5,-96 523.5,-126"/>
<text text-anchor="start" x="414.5" y="-114" font-family="Helvetica,sans-Serif" font-size="10.00">precice::mesh::Mesh</text>
<text text-anchor="middle" x="465" y="-103" font-family="Helvetica,sans-Serif" font-size="10.00">::getDimensions</text>
</a>
</g>
</g>
<!-- Node12&#45;&gt;Node13 -->
<g id="edge17_Node000012_Node000013" class="edge">
<title>Node12&#45;&gt;Node13</title>
<g id="a_edge17_Node000012_Node000013"><a xlink:title=" ">
<path fill="none" stroke="#63b8ff" d="M318.6,-173.95C329.13,-169.9 340.14,-165.18 350,-160 367.25,-150.94 368.48,-143.52 386,-135 389.8,-133.15 393.77,-131.41 397.82,-129.77"/>
<polygon fill="#63b8ff" stroke="#63b8ff" points="399.28,-132.96 407.38,-126.14 396.79,-126.42 399.28,-132.96"/>
</a>
</g>
</g>
<!-- Node14 -->
<g id="Node000014" class="node">
<title>Node14</title>
<g id="a_Node000014"><a xlink:href="classprecice_1_1mesh_1_1Mesh.html#a4220c9b15bb1c3dbf5c00701851f8288" target="_top" xlink:title="Returns the number of vertices.">
<polygon fill="white" stroke="#666666" points="523.5,-222 406.5,-222 406.5,-192 523.5,-192 523.5,-222"/>
<text text-anchor="start" x="414.5" y="-210" font-family="Helvetica,sans-Serif" font-size="10.00">precice::mesh::Mesh</text>
<text text-anchor="middle" x="465" y="-199" font-family="Helvetica,sans-Serif" font-size="10.00">::nVertices</text>
</a>
</g>
</g>
<!-- Node12&#45;&gt;Node14 -->
<g id="edge18_Node000012_Node000014" class="edge">
<title>Node12&#45;&gt;Node14</title>
<g id="a_edge18_Node000012_Node000014"><a xlink:title=" ">
<path fill="none" stroke="#63b8ff" d="M339.53,-195.27C357.88,-197 377.81,-198.88 396.23,-200.61"/>
<polygon fill="#63b8ff" stroke="#63b8ff" points="396,-204.11 406.29,-201.56 396.66,-197.14 396,-204.11"/>
</a>
</g>
</g>
<!-- Node12&#45;&gt;Node15 -->
<g id="edge20_Node000012_Node000015" class="edge">
<title>Node12&#45;&gt;Node15</title>
<g id="a_edge20_Node000012_Node000015"><a xlink:title=" ">
<path fill="none" stroke="#63b8ff" d="M328.52,-173.97C336.3,-170.25 343.76,-165.66 350,-160 376.8,-135.7 358.46,-110.46 386,-87 389.43,-84.08 393.21,-81.51 397.2,-79.26"/>
<polygon fill="#63b8ff" stroke="#63b8ff" points="398.81,-82.37 406.22,-74.81 395.71,-76.09 398.81,-82.37"/>
</a>
</g>
</g>
<!-- Node16 -->
<g id="Node000016" class="node">
<title>Node16</title>
<g id="a_Node000016"><a xlink:href="classprecice_1_1mesh_1_1Mesh.html#ad24f3877f1ea7cd5cd5f93a6f2e4d3f9" target="_top" xlink:title="Returns modifiable container holding all triangles.">
<polygon fill="white" stroke="#666666" points="523.5,-174 406.5,-174 406.5,-144 523.5,-144 523.5,-174"/>
<text text-anchor="start" x="414.5" y="-162" font-family="Helvetica,sans-Serif" font-size="10.00">precice::mesh::Mesh</text>
<text text-anchor="middle" x="465" y="-151" font-family="Helvetica,sans-Serif" font-size="10.00">::triangles</text>
</a>
</g>
</g>
<!-- Node12&#45;&gt;Node16 -->
<g id="edge21_Node000012_Node000016" class="edge">
<title>Node12&#45;&gt;Node16</title>
<g id="a_edge21_Node000012_Node000016"><a xlink:title=" ">
<path fill="none" stroke="#63b8ff" d="M339.53,-178.55C357.88,-175.67 377.81,-172.54 396.23,-169.64"/>
<polygon fill="#63b8ff" stroke="#63b8ff" points="396.95,-173.07 406.29,-168.07 395.86,-166.16 396.95,-173.07"/>
</a>
</g>
</g>
<!-- Node14&#45;&gt;Node4 -->
<g id="edge19_Node000014_Node000004" class="edge">
<title>Node14&#45;&gt;Node4</title>
<g id="a_edge19_Node000014_Node000004"><a xlink:title=" ">
<path fill="none" stroke="#63b8ff" d="M507.37,-222.13C519.23,-226.53 532.15,-231.4 544,-236 560.23,-242.3 578.17,-249.53 593.07,-255.62"/>
<polygon fill="#63b8ff" stroke="#63b8ff" points="591.8,-258.88 602.38,-259.43 594.46,-252.41 591.8,-258.88"/>
</a>
</g>
</g>
<!-- Node19 -->
<g id="Node000019" class="node">
<title>Node19</title>
<g id="a_Node000019"><a xlink:href="classprecice_1_1utils_1_1ManageUniqueIDs.html#a02be264c279698ae293587b6576088b5" target="_top" xlink:title=" ">
<polygon fill="white" stroke="#666666" points="544,-30 386,-30 386,0 544,0 544,-30"/>
<text text-anchor="start" x="394" y="-18" font-family="Helvetica,sans-Serif" font-size="10.00">precice::utils::ManageUnique</text>
<text text-anchor="middle" x="465" y="-7" font-family="Helvetica,sans-Serif" font-size="10.00">IDs::getFreeID</text>
</a>
</g>
</g>
<!-- Node18&#45;&gt;Node19 -->
<g id="edge24_Node000018_Node000019" class="edge">
<title>Node18&#45;&gt;Node19</title>
<g id="a_edge24_Node000018_Node000019"><a xlink:title=" ">
<path fill="none" stroke="#63b8ff" d="M350.14,-26.33C358.62,-25.48 367.3,-24.62 375.91,-23.76"/>
<polygon fill="#63b8ff" stroke="#63b8ff" points="376.35,-27.24 385.95,-22.76 375.66,-20.27 376.35,-27.24"/>
</a>
</g>
</g>
</g>
</svg>
