<?xml version="1.0" encoding="UTF-8" standalone="no"?>
<!DOCTYPE svg PUBLIC "-//W3C//DTD SVG 1.1//EN"
 "http://www.w3.org/Graphics/SVG/1.1/DTD/svg11.dtd">
<!-- Generated by graphviz version 2.43.0 (0)
 -->
<!-- Title: precice::xml::configure Pages: 1 -->
<svg width="821pt" height="223pt"
 viewBox="0.00 0.00 821.00 222.50" xmlns="http://www.w3.org/2000/svg" xmlns:xlink="http://www.w3.org/1999/xlink">
<g id="graph0" class="graph" transform="scale(1 1) rotate(0) translate(4 218.5)">
<title>precice::xml::configure</title>
<!-- Node1 -->
<g id="Node000001" class="node">
<title>Node1</title>
<g id="a_Node000001"><a xlink:title="Configures the given configuration from file configurationFilename.">
<polygon fill="#999999" stroke="#666666" points="128,-93.5 0,-93.5 0,-74.5 128,-74.5 128,-93.5"/>
<text text-anchor="middle" x="64" y="-81.5" font-family="Helvetica,sans-Serif" font-size="10.00">precice::xml::configure</text>
</a>
</g>
</g>
<!-- Node2 -->
<g id="Node000002" class="node">
<title>Node2</title>
<g id="a_Node000002"><a xlink:href="classprecice_1_1xml_1_1XMLTag.html#af81dc6eea2b9a75e14ddd6033ed9a1d4" target="_top" xlink:title="Adds an XML tag as subtag by making a copy of the given tag.">
<polygon fill="white" stroke="#666666" points="295,-164 176,-164 176,-134 295,-134 295,-164"/>
<text text-anchor="start" x="184" y="-152" font-family="Helvetica,sans-Serif" font-size="10.00">precice::xml::XMLTag</text>
<text text-anchor="middle" x="235.5" y="-141" font-family="Helvetica,sans-Serif" font-size="10.00">::addSubtag</text>
</a>
</g>
</g>
<!-- Node1&#45;&gt;Node2 -->
<g id="edge1_Node000001_Node000002" class="edge">
<title>Node1&#45;&gt;Node2</title>
<g id="a_edge1_Node000001_Node000002"><a xlink:title=" ">
<path fill="none" stroke="#63b8ff" d="M90.01,-93.59C115.13,-103.22 154.5,-118.32 185.8,-130.32"/>
<polygon fill="#63b8ff" stroke="#63b8ff" points="184.64,-133.63 195.23,-133.94 187.15,-127.09 184.64,-133.63"/>
</a>
</g>
</g>
<!-- Node4 -->
<g id="Node000004" class="node">
<title>Node4</title>
<g id="a_Node000004"><a target="_parent" xlink:href="http://en.cppreference.com/w/cpp/memory/shared_ptr/make_shared.html#" xlink:title=" ">
<polygon fill="white" stroke="#666666" points="454,-115.5 351,-115.5 351,-96.5 454,-96.5 454,-115.5"/>
<text text-anchor="middle" x="402.5" y="-103.5" font-family="Helvetica,sans-Serif" font-size="10.00">std::make_shared</text>
</a>
</g>
</g>
<!-- Node1&#45;&gt;Node4 -->
<g id="edge12_Node000001_Node000004" class="edge">
<title>Node1&#45;&gt;Node4</title>
<g id="a_edge12_Node000001_Node000004"><a xlink:title=" ">
<path fill="none" stroke="#63b8ff" d="M128.29,-88.14C189.21,-92.12 280.7,-98.1 340.75,-102.03"/>
<polygon fill="#63b8ff" stroke="#63b8ff" points="340.64,-105.53 350.85,-102.69 341.09,-98.54 340.64,-105.53"/>
</a>
</g>
</g>
<!-- Node11 -->
<g id="Node000011" class="node">
<title>Node11</title>
<g id="a_Node000011"><a xlink:href="classprecice_1_1xml_1_1XMLTag.html#aa8e8dd146d8ade43e1656618dbad79b8" target="_top" xlink:title="Returns full name consisting of xml namespace + &quot;:&quot; + name.">
<polygon fill="white" stroke="#666666" points="295,-78 176,-78 176,-48 295,-48 295,-78"/>
<text text-anchor="start" x="184" y="-66" font-family="Helvetica,sans-Serif" font-size="10.00">precice::xml::XMLTag</text>
<text text-anchor="middle" x="235.5" y="-55" font-family="Helvetica,sans-Serif" font-size="10.00">::getFullName</text>
</a>
</g>
</g>
<!-- Node1&#45;&gt;Node11 -->
<g id="edge10_Node000001_Node000011" class="edge">
<title>Node1&#45;&gt;Node11</title>
<g id="a_edge10_Node000001_Node000011"><a xlink:title=" ">
<path fill="none" stroke="#63b8ff" d="M128.12,-76.18C140.32,-74.67 153.17,-73.08 165.55,-71.54"/>
<polygon fill="#63b8ff" stroke="#63b8ff" points="166.33,-74.97 175.82,-70.27 165.46,-68.03 166.33,-74.97"/>
</a>
</g>
</g>
<!-- Node12 -->
<g id="Node000012" class="node">
<title>Node12</title>
<g id="a_Node000012"><a xlink:href="classprecice_1_1xml_1_1ConfigParser.html#a8e85237eadc627ba6d3571a86be519cd" target="_top" xlink:title="returns the hash of the processed XML file">
<polygon fill="white" stroke="#666666" points="307,-30 164,-30 164,0 307,0 307,-30"/>
<text text-anchor="start" x="172" y="-18" font-family="Helvetica,sans-Serif" font-size="10.00">precice::xml::ConfigParser</text>
<text text-anchor="middle" x="235.5" y="-7" font-family="Helvetica,sans-Serif" font-size="10.00">::hash</text>
</a>
</g>
</g>
<!-- Node1&#45;&gt;Node12 -->
<g id="edge11_Node000001_Node000012" class="edge">
<title>Node1&#45;&gt;Node12</title>
<g id="a_edge11_Node000001_Node000012"><a xlink:title=" ">
<path fill="none" stroke="#63b8ff" d="M84.48,-74.46C104.27,-64.93 135.92,-50.13 164,-39 168.69,-37.14 173.58,-35.29 178.51,-33.49"/>
<polygon fill="#63b8ff" stroke="#63b8ff" points="179.76,-36.77 188,-30.1 177.4,-30.17 179.76,-36.77"/>
</a>
</g>
</g>
<!-- Node3 -->
<g id="Node000003" class="node">
<title>Node3</title>
<g id="a_Node000003"><a target="_parent" xlink:href="http://en.cppreference.com/w/cpp/string/basic_string/empty.html#" xlink:title=" ">
<polygon fill="white" stroke="#666666" points="454,-201.5 351,-201.5 351,-182.5 454,-182.5 454,-201.5"/>
<text text-anchor="middle" x="402.5" y="-189.5" font-family="Helvetica,sans-Serif" font-size="10.00">std::string::empty</text>
</a>
</g>
</g>
<!-- Node2&#45;&gt;Node3 -->
<g id="edge2_Node000002_Node000003" class="edge">
<title>Node2&#45;&gt;Node3</title>
<g id="a_edge2_Node000002_Node000003"><a xlink:title=" ">
<path fill="none" stroke="#63b8ff" d="M294.21,-164.04C314.06,-169.21 336.02,-174.94 354.88,-179.85"/>
<polygon fill="#63b8ff" stroke="#63b8ff" points="354.16,-183.28 364.71,-182.41 355.92,-176.5 354.16,-183.28"/>
</a>
</g>
</g>
<!-- Node2&#45;&gt;Node4 -->
<g id="edge3_Node000002_Node000004" class="edge">
<title>Node2&#45;&gt;Node4</title>
<g id="a_edge3_Node000002_Node000004"><a xlink:title=" ">
<path fill="none" stroke="#63b8ff" d="M294.21,-133.96C314.06,-128.79 336.02,-123.06 354.88,-118.15"/>
<polygon fill="#63b8ff" stroke="#63b8ff" points="355.92,-121.5 364.71,-115.59 354.16,-114.72 355.92,-121.5"/>
</a>
</g>
</g>
<!-- Node5 -->
<g id="Node000005" class="node">
<title>Node5</title>
<g id="a_Node000005"><a xlink:href="classprecice_1_1xml_1_1XMLTag.html#ab41dfcb33c2d54376d455e04bfbcdc4c" target="_top" xlink:title="Standard constructor.">
<polygon fill="white" stroke="#666666" points="462,-164 343,-164 343,-134 462,-134 462,-164"/>
<text text-anchor="start" x="351" y="-152" font-family="Helvetica,sans-Serif" font-size="10.00">precice::xml::XMLTag</text>
<text text-anchor="middle" x="402.5" y="-141" font-family="Helvetica,sans-Serif" font-size="10.00">::XMLTag</text>
</a>
</g>
</g>
<!-- Node2&#45;&gt;Node5 -->
<g id="edge4_Node000002_Node000005" class="edge">
<title>Node2&#45;&gt;Node5</title>
<g id="a_edge4_Node000002_Node000005"><a xlink:title=" ">
<path fill="none" stroke="#63b8ff" d="M295.14,-149C307.22,-149 320.06,-149 332.47,-149"/>
<polygon fill="#63b8ff" stroke="#63b8ff" points="332.77,-152.5 342.77,-149 332.77,-145.5 332.77,-152.5"/>
</a>
</g>
</g>
<!-- Node6 -->
<g id="Node000006" class="node">
<title>Node6</title>
<g id="a_Node000006"><a xlink:href="namespaceprecice_1_1utils.html#a00b79785686ed1cfeffb43af0b212092" target="_top" xlink:title=" ">
<polygon fill="white" stroke="#666666" points="646,-158.5 498,-158.5 498,-139.5 646,-139.5 646,-158.5"/>
<text text-anchor="middle" x="572" y="-146.5" font-family="Helvetica,sans-Serif" font-size="10.00">precice::utils::isKebabStyle</text>
</a>
</g>
</g>
<!-- Node5&#45;&gt;Node6 -->
<g id="edge5_Node000005_Node000006" class="edge">
<title>Node5&#45;&gt;Node6</title>
<g id="a_edge5_Node000005_Node000006"><a xlink:title=" ">
<path fill="none" stroke="#63b8ff" d="M462.08,-149C470.36,-149 478.99,-149 487.62,-149"/>
<polygon fill="#63b8ff" stroke="#63b8ff" points="487.72,-152.5 497.72,-149 487.72,-145.5 487.72,-152.5"/>
</a>
</g>
</g>
<!-- Node7 -->
<g id="Node000007" class="node">
<title>Node7</title>
<g id="a_Node000007"><a target="_parent" xlink:href="http://en.cppreference.com/w/cpp/string/basic_string_view/begin.html#" xlink:title=" ">
<polygon fill="white" stroke="#666666" points="810.5,-214.5 684.5,-214.5 684.5,-195.5 810.5,-195.5 810.5,-214.5"/>
<text text-anchor="middle" x="747.5" y="-202.5" font-family="Helvetica,sans-Serif" font-size="10.00">std::string_view::begin</text>
</a>
</g>
</g>
<!-- Node6&#45;&gt;Node7 -->
<g id="edge6_Node000006_Node000007" class="edge">
<title>Node6&#45;&gt;Node7</title>
<g id="a_edge6_Node000006_Node000007"><a xlink:title=" ">
<path fill="none" stroke="#63b8ff" d="M598.83,-158.52C620.82,-166.51 653.32,-178.01 682,-187 688.12,-188.92 694.59,-190.84 700.98,-192.69"/>
<polygon fill="#63b8ff" stroke="#63b8ff" points="700.32,-196.14 710.9,-195.5 702.23,-189.4 700.32,-196.14"/>
</a>
</g>
</g>
<!-- Node8 -->
<g id="Node000008" class="node">
<title>Node8</title>
<g id="a_Node000008"><a target="_parent" xlink:href="http://en.cppreference.com/w/cpp/string/basic_string_view/empty.html#" xlink:title=" ">
<polygon fill="white" stroke="#666666" points="813,-177.5 682,-177.5 682,-158.5 813,-158.5 813,-177.5"/>
<text text-anchor="middle" x="747.5" y="-165.5" font-family="Helvetica,sans-Serif" font-size="10.00">std::string_view::empty</text>
</a>
</g>
</g>
<!-- Node6&#45;&gt;Node8 -->
<g id="edge7_Node000006_Node000008" class="edge">
<title>Node6&#45;&gt;Node8</title>
<g id="a_edge7_Node000006_Node000008"><a xlink:title=" ">
<path fill="none" stroke="#63b8ff" d="M646.08,-157C654.5,-157.93 663.11,-158.87 671.56,-159.79"/>
<polygon fill="#63b8ff" stroke="#63b8ff" points="671.45,-163.3 681.77,-160.91 672.21,-156.34 671.45,-163.3"/>
</a>
</g>
</g>
<!-- Node9 -->
<g id="Node000009" class="node">
<title>Node9</title>
<g id="a_Node000009"><a target="_parent" xlink:href="http://en.cppreference.com/w/cpp/string/basic_string_view/end.html#" xlink:title=" ">
<polygon fill="white" stroke="#666666" points="806,-140.5 689,-140.5 689,-121.5 806,-121.5 806,-140.5"/>
<text text-anchor="middle" x="747.5" y="-128.5" font-family="Helvetica,sans-Serif" font-size="10.00">std::string_view::end</text>
</a>
</g>
</g>
<!-- Node6&#45;&gt;Node9 -->
<g id="edge8_Node000006_Node000009" class="edge">
<title>Node6&#45;&gt;Node9</title>
<g id="a_edge8_Node000006_Node000009"><a xlink:title=" ">
<path fill="none" stroke="#63b8ff" d="M646.08,-141.42C656.88,-140.3 667.98,-139.15 678.68,-138.04"/>
<polygon fill="#63b8ff" stroke="#63b8ff" points="679.2,-141.5 688.79,-136.99 678.48,-134.54 679.2,-141.5"/>
</a>
</g>
</g>
<!-- Node10 -->
<g id="Node000010" class="node">
<title>Node10</title>
<g id="a_Node000010"><a target="_parent" xlink:href="http://en.cppreference.com/w/cpp/regex/regex_match.html#" xlink:title=" ">
<polygon fill="white" stroke="#666666" points="798,-103.5 697,-103.5 697,-84.5 798,-84.5 798,-103.5"/>
<text text-anchor="middle" x="747.5" y="-91.5" font-family="Helvetica,sans-Serif" font-size="10.00">std::regex_match</text>
</a>
</g>
</g>
<!-- Node6&#45;&gt;Node10 -->
<g id="edge9_Node000006_Node000010" class="edge">
<title>Node6&#45;&gt;Node10</title>
<g id="a_edge9_Node000006_Node000010"><a xlink:title=" ">
<path fill="none" stroke="#63b8ff" d="M601.15,-139.42C623.11,-132.02 654.42,-121.62 682,-113 688.97,-110.82 696.39,-108.57 703.61,-106.42"/>
<polygon fill="#63b8ff" stroke="#63b8ff" points="704.7,-109.75 713.29,-103.56 702.71,-103.04 704.7,-109.75"/>
</a>
</g>
</g>
</g>
</svg>
