<?xml version="1.0" encoding="UTF-8" standalone="no"?>
<!DOCTYPE svg PUBLIC "-//W3C//DTD SVG 1.1//EN"
 "http://www.w3.org/Graphics/SVG/1.1/DTD/svg11.dtd">
<!-- Generated by graphviz version 2.43.0 (0)
 -->
<!-- Title: precice::math::geometry::segmentPlaneIntersection Pages: 1 -->
<svg width="319pt" height="101pt"
 viewBox="0.00 0.00 319.00 101.00" xmlns="http://www.w3.org/2000/svg" xmlns:xlink="http://www.w3.org/1999/xlink">
<g id="graph0" class="graph" transform="scale(1 1) rotate(0) translate(4 97)">
<title>precice::math::geometry::segmentPlaneIntersection</title>
<!-- Node1 -->
<g id="Node000001" class="node">
<title>Node1</title>
<g id="a_Node000001"><a xlink:title="Determines the intersection point of a segment with a plane in 3D.">
<polygon fill="#999999" stroke="#666666" points="150,-61.5 0,-61.5 0,-31.5 150,-31.5 150,-61.5"/>
<text text-anchor="start" x="8" y="-49.5" font-family="Helvetica,sans-Serif" font-size="10.00">precice::math::geometry</text>
<text text-anchor="middle" x="75" y="-38.5" font-family="Helvetica,sans-Serif" font-size="10.00">::segmentPlaneIntersection</text>
</a>
</g>
</g>
<!-- Node2 -->
<g id="Node000002" class="node">
<title>Node2</title>
<g id="a_Node000002"><a xlink:href="namespaceprecice_1_1math.html#a0e86802cfe992deba131d789d035b5b7" target="_top" xlink:title="Compares two Eigen::MatrixBase for equality up to tolerance.">
<polygon fill="white" stroke="#666666" points="309.5,-93 187.5,-93 187.5,-74 309.5,-74 309.5,-93"/>
<text text-anchor="middle" x="248.5" y="-81" font-family="Helvetica,sans-Serif" font-size="10.00">precice::math::equals</text>
</a>
</g>
</g>
<!-- Node1&#45;&gt;Node2 -->
<g id="edge1_Node000001_Node000002" class="edge">
<title>Node1&#45;&gt;Node2</title>
<g id="a_edge1_Node000001_Node000002"><a xlink:title=" ">
<path fill="none" stroke="#63b8ff" d="M145.76,-61.55C161.58,-64.96 178.15,-68.54 193.23,-71.79"/>
<polygon fill="#63b8ff" stroke="#63b8ff" points="192.88,-75.3 203.39,-73.98 194.35,-68.45 192.88,-75.3"/>
</a>
</g>
</g>
<!-- Node3 -->
<g id="Node000003" class="node">
<title>Node3</title>
<g id="a_Node000003"><a xlink:href="namespaceprecice_1_1math.html#a73daaa90eb9e7287b46895339ec50236" target="_top" xlink:title=" ">
<polygon fill="white" stroke="#666666" points="311,-56 186,-56 186,-37 311,-37 311,-56"/>
<text text-anchor="middle" x="248.5" y="-44" font-family="Helvetica,sans-Serif" font-size="10.00">precice::math::greater</text>
</a>
</g>
</g>
<!-- Node1&#45;&gt;Node3 -->
<g id="edge2_Node000001_Node000003" class="edge">
<title>Node1&#45;&gt;Node3</title>
<g id="a_edge2_Node000001_Node000003"><a xlink:title=" ">
<path fill="none" stroke="#63b8ff" d="M150.22,-46.5C158.66,-46.5 167.24,-46.5 175.64,-46.5"/>
<polygon fill="#63b8ff" stroke="#63b8ff" points="175.77,-50 185.77,-46.5 175.77,-43 175.77,-50"/>
</a>
</g>
</g>
<!-- Node4 -->
<g id="Node000004" class="node">
<title>Node4</title>
<g id="a_Node000004"><a xlink:href="namespaceprecice_1_1math.html#a779b734c79a50c1c749c86d4d3047d29" target="_top" xlink:title=" ">
<polygon fill="white" stroke="#666666" points="308.5,-19 188.5,-19 188.5,0 308.5,0 308.5,-19"/>
<text text-anchor="middle" x="248.5" y="-7" font-family="Helvetica,sans-Serif" font-size="10.00">precice::math::isZero</text>
</a>
</g>
</g>
<!-- Node1&#45;&gt;Node4 -->
<g id="edge3_Node000001_Node000004" class="edge">
<title>Node1&#45;&gt;Node4</title>
<g id="a_edge3_Node000001_Node000004"><a xlink:title=" ">
<path fill="none" stroke="#63b8ff" d="M145.76,-31.45C161.58,-28.04 178.15,-24.46 193.23,-21.21"/>
<polygon fill="#63b8ff" stroke="#63b8ff" points="194.35,-24.55 203.39,-19.02 192.88,-17.7 194.35,-24.55"/>
</a>
</g>
</g>
</g>
</svg>
