<?xml version="1.0" encoding="UTF-8" standalone="no"?>
<!DOCTYPE svg PUBLIC "-//W3C//DTD SVG 1.1//EN"
 "http://www.w3.org/Graphics/SVG/1.1/DTD/svg11.dtd">
<!-- Generated by graphviz version 2.43.0 (0)
 -->
<!-- Title: precice::mapping::buildMatrixA Pages: 1 -->
<!--zoomable 172 -->

<svg id="main" version="1.1" xmlns="http://www.w3.org/2000/svg" xmlns:xlink="http://www.w3.org/1999/xlink" xml:space="preserve" onload="init(evt)">
<style type="text/css"><![CDATA[
.node, .edge {opacity: 0.7;}
.node.selected, .edge.selected {opacity: 1;}
.edge:hover path { stroke: red; }
.edge:hover polygon { stroke: red; fill: red; }
]]></style>

<defs>
  <circle id="rim" cx="0" cy="0" r="7"/>
  <circle id="rim2" cx="0" cy="0" r="3.5"/>
  <g id="zoomPlus">
    <use xlink:href="#rim" fill="#404040"><set attributeName="fill" to="#808080" begin="zoomplus.mouseover" end="zoomplus.mouseout"/></use>
    <path d="M-4,0h8M0,-4v8" fill="none" stroke="white" stroke-width="1.5" pointer-events="none"/>
  </g>
  <g id="zoomMin">
    <use xlink:href="#rim" fill="#404040"><set attributeName="fill" to="#808080" begin="zoomminus.mouseover" end="zoomminus.mouseout"/></use>
    <path d="M-4,0h8" fill="none" stroke="white" stroke-width="1.5" pointer-events="none"/>
  </g>
  <g id="arrowUp" transform="translate(30 24)">
    <use xlink:href="#rim"/>
    <path pointer-events="none" fill="none" stroke="white" stroke-width="1.5" d="M0,-3.0v7 M-2.5,-0.5L0,-3.0L2.5,-0.5"/>
  </g>
  <g id="arrowRight" transform="rotate(90) translate(36 -43)">
    <use xlink:href="#rim"/>
    <path pointer-events="none" fill="none" stroke="white" stroke-width="1.5" d="M0,-3.0v7 M-2.5,-0.5L0,-3.0L2.5,-0.5"/>
  </g>
  <g id="arrowDown" transform="rotate(180) translate(-30 -48)">
    <use xlink:href="#rim"/>
    <path pointer-events="none" fill="none" stroke="white" stroke-width="1.5" d="M0,-3.0v7 M-2.5,-0.5L0,-3.0L2.5,-0.5"/>
  </g>
  <g id="arrowLeft" transform="rotate(270) translate(-36 17)">
    <use xlink:href="#rim"/>
    <path pointer-events="none" fill="none" stroke="white" stroke-width="1.5" d="M0,-3.0v7 M-2.5,-0.5L0,-3.0L2.5,-0.5"/>
  </g>
  <g id="resetDef">
    <use xlink:href="#rim2" fill="#404040"><set attributeName="fill" to="#808080" begin="reset.mouseover" end="reset.mouseout"/></use>
  </g>
</defs>
<script type="application/ecmascript">
var viewWidth = 850;
var viewHeight = 172;
var sectionId = 'dynsection-0';
</script>
<script type="application/ecmascript" xlink:href="svg.min.js"/>
<svg id="graph" class="graph">
<g id="viewport">
<title>precice::mapping::buildMatrixA</title>
<!-- Node1 -->
<g id="Node000001" class="node">
<title>Node1</title>
<g id="a_Node000001"><a xlink:title=" ">
<polygon fill="#999999" stroke="#666666" points="169,-88.5 0,-88.5 0,-69.5 169,-69.5 169,-88.5"/>
<text text-anchor="middle" x="84.5" y="-76.5" font-family="Helvetica,sans-Serif" font-size="10.00">precice::mapping::buildMatrixA</text>
</a>
</g>
</g>
<!-- Node2 -->
<g id="Node000002" class="node">
<title>Node2</title>
<g id="a_Node000002"><a xlink:href="namespaceprecice_1_1mapping.html#a8e50570bef6a89ba9016bf31fadd83f1" target="_top" xlink:title="Deletes all dead directions from fullVector and returns a vector of reduced dimensionality.">
<polygon fill="white" stroke="#666666" points="366,-164 217,-164 217,-134 366,-134 366,-164"/>
<text text-anchor="start" x="225" y="-152" font-family="Helvetica,sans-Serif" font-size="10.00">precice::mapping::compute</text>
<text text-anchor="middle" x="291.5" y="-141" font-family="Helvetica,sans-Serif" font-size="10.00">SquaredDifference</text>
</a>
</g>
</g>
<!-- Node1&#45;&gt;Node2 -->
<g id="edge1_Node000001_Node000002" class="edge">
<title>Node1&#45;&gt;Node2</title>
<g id="a_edge1_Node000001_Node000002"><a xlink:title=" ">
<path fill="none" stroke="#63b8ff" d="M108.62,-88.64C132.52,-98.44 171.03,-113.72 205,-125 211.29,-127.09 217.88,-129.15 224.49,-131.14"/>
<polygon fill="#63b8ff" stroke="#63b8ff" points="223.58,-134.52 234.16,-134 225.56,-127.81 223.58,-134.52"/>
</a>
</g>
</g>
<!-- Node3 -->
<g id="Node000003" class="node">
<title>Node3</title>
<g id="a_Node000003"><a xlink:href="namespaceprecice_1_1mapping.html#acb5af976a940daac3500bf78be6adb74" target="_top" xlink:title=" ">
<polygon fill="white" stroke="#666666" points="378,-116 205,-116 205,-86 378,-86 378,-116"/>
<text text-anchor="start" x="213" y="-104" font-family="Helvetica,sans-Serif" font-size="10.00">precice::mapping::fillPolynomial</text>
<text text-anchor="middle" x="291.5" y="-93" font-family="Helvetica,sans-Serif" font-size="10.00">Entries</text>
</a>
</g>
</g>
<!-- Node1&#45;&gt;Node3 -->
<g id="edge2_Node000001_Node000003" class="edge">
<title>Node1&#45;&gt;Node3</title>
<g id="a_edge2_Node000001_Node000003"><a xlink:title=" ">
<path fill="none" stroke="#63b8ff" d="M169.18,-87.98C177.61,-88.89 186.22,-89.81 194.77,-90.73"/>
<polygon fill="#63b8ff" stroke="#63b8ff" points="194.45,-94.21 204.76,-91.8 195.19,-87.25 194.45,-94.21"/>
</a>
</g>
</g>
<!-- Node5 -->
<g id="Node000005" class="node">
<title>Node5</title>
<g id="a_Node000005"><a xlink:href="classprecice_1_1mesh_1_1Mesh.html#a61d536967e403c9c2c4dfa33ddc8a044" target="_top" xlink:title="Mutable access to a vertex by VertexID.">
<polygon fill="white" stroke="#666666" points="533.5,-73 416.5,-73 416.5,-43 533.5,-43 533.5,-73"/>
<text text-anchor="start" x="424.5" y="-61" font-family="Helvetica,sans-Serif" font-size="10.00">precice::mesh::Mesh</text>
<text text-anchor="middle" x="475" y="-50" font-family="Helvetica,sans-Serif" font-size="10.00">::vertex</text>
</a>
</g>
</g>
<!-- Node1&#45;&gt;Node5 -->
<g id="edge9_Node000001_Node000005" class="edge">
<title>Node1&#45;&gt;Node5</title>
<g id="a_edge9_Node000001_Node000005"><a xlink:title=" ">
<path fill="none" stroke="#63b8ff" d="M169.32,-74.47C240.15,-70.64 340.3,-65.23 406.17,-61.67"/>
<polygon fill="#63b8ff" stroke="#63b8ff" points="406.64,-65.15 416.44,-61.11 406.26,-58.16 406.64,-65.15"/>
</a>
</g>
</g>
<!-- Node8 -->
<g id="Node000008" class="node">
<title>Node8</title>
<g id="a_Node000008"><a xlink:href="classprecice_1_1mesh_1_1Mesh.html#a136f6b4ce235025e418fab0ca5f350ff" target="_top" xlink:title=" ">
<polygon fill="white" stroke="#666666" points="350,-30 233,-30 233,0 350,0 350,-30"/>
<text text-anchor="start" x="241" y="-18" font-family="Helvetica,sans-Serif" font-size="10.00">precice::mesh::Mesh</text>
<text text-anchor="middle" x="291.5" y="-7" font-family="Helvetica,sans-Serif" font-size="10.00">::getDimensions</text>
</a>
</g>
</g>
<!-- Node1&#45;&gt;Node8 -->
<g id="edge8_Node000001_Node000008" class="edge">
<title>Node1&#45;&gt;Node8</title>
<g id="a_edge8_Node000001_Node000008"><a xlink:title=" ">
<path fill="none" stroke="#63b8ff" d="M116.19,-69.42C146.85,-59.85 194.73,-44.9 232.56,-33.09"/>
<polygon fill="#63b8ff" stroke="#63b8ff" points="233.94,-36.33 242.44,-30 231.85,-29.64 233.94,-36.33"/>
</a>
</g>
</g>
<!-- Node4 -->
<g id="Node000004" class="node">
<title>Node4</title>
<g id="a_Node000004"><a xlink:href="classprecice_1_1mesh_1_1Vertex.html#a466a76f85b9dfd00a70c8b1f23add780" target="_top" xlink:title="Direct access to the coordinates.">
<polygon fill="white" stroke="#666666" points="536,-121 414,-121 414,-91 536,-91 536,-121"/>
<text text-anchor="start" x="422" y="-109" font-family="Helvetica,sans-Serif" font-size="10.00">precice::mesh::Vertex</text>
<text text-anchor="middle" x="475" y="-98" font-family="Helvetica,sans-Serif" font-size="10.00">::rawCoords</text>
</a>
</g>
</g>
<!-- Node3&#45;&gt;Node4 -->
<g id="edge3_Node000003_Node000004" class="edge">
<title>Node3&#45;&gt;Node4</title>
<g id="a_edge3_Node000003_Node000004"><a xlink:title=" ">
<path fill="none" stroke="#63b8ff" d="M378.2,-103.36C386.75,-103.6 395.36,-103.83 403.72,-104.06"/>
<polygon fill="#63b8ff" stroke="#63b8ff" points="403.69,-107.56 413.78,-104.34 403.88,-100.57 403.69,-107.56"/>
</a>
</g>
</g>
<!-- Node3&#45;&gt;Node5 -->
<g id="edge4_Node000003_Node000005" class="edge">
<title>Node3&#45;&gt;Node5</title>
<g id="a_edge4_Node000003_Node000005"><a xlink:title=" ">
<path fill="none" stroke="#63b8ff" d="M355.98,-85.96C372.23,-82.11 389.77,-77.95 406.23,-74.05"/>
<polygon fill="#63b8ff" stroke="#63b8ff" points="407.4,-77.38 416.32,-71.66 405.79,-70.56 407.4,-77.38"/>
</a>
</g>
</g>
<!-- Node6 -->
<g id="Node000006" class="node">
<title>Node6</title>
<g id="a_Node000006"><a xlink:href="classprecice_1_1mesh_1_1Mesh.html#ac21407160a09623491d9f6364c0a7e43" target="_top" xlink:title="Returns true if the given vertexID is valid.">
<polygon fill="white" stroke="#666666" points="689,-95 572,-95 572,-65 689,-65 689,-95"/>
<text text-anchor="start" x="580" y="-83" font-family="Helvetica,sans-Serif" font-size="10.00">precice::mesh::Mesh</text>
<text text-anchor="middle" x="630.5" y="-72" font-family="Helvetica,sans-Serif" font-size="10.00">::isValidVertexID</text>
</a>
</g>
</g>
<!-- Node5&#45;&gt;Node6 -->
<g id="edge5_Node000005_Node000006" class="edge">
<title>Node5&#45;&gt;Node6</title>
<g id="a_edge5_Node000005_Node000006"><a xlink:title=" ">
<path fill="none" stroke="#63b8ff" d="M533.59,-66.25C542.78,-67.57 552.35,-68.94 561.75,-70.29"/>
<polygon fill="#63b8ff" stroke="#63b8ff" points="561.44,-73.78 571.84,-71.74 562.44,-66.85 561.44,-73.78"/>
</a>
</g>
</g>
<!-- Node7 -->
<g id="Node000007" class="node">
<title>Node7</title>
<g id="a_Node000007"><a xlink:href="classprecice_1_1mesh_1_1Mesh.html#a4220c9b15bb1c3dbf5c00701851f8288" target="_top" xlink:title="Returns the number of vertices.">
<polygon fill="white" stroke="#666666" points="842,-73 725,-73 725,-43 842,-43 842,-73"/>
<text text-anchor="start" x="733" y="-61" font-family="Helvetica,sans-Serif" font-size="10.00">precice::mesh::Mesh</text>
<text text-anchor="middle" x="783.5" y="-50" font-family="Helvetica,sans-Serif" font-size="10.00">::nVertices</text>
</a>
</g>
</g>
<!-- Node5&#45;&gt;Node7 -->
<g id="edge7_Node000005_Node000007" class="edge">
<title>Node5&#45;&gt;Node7</title>
<g id="a_edge7_Node000005_Node000007"><a xlink:title=" ">
<path fill="none" stroke="#63b8ff" d="M533.61,-56.6C546.26,-56.35 559.58,-56.13 572,-56 624,-55.46 637,-55.44 689,-56 697.29,-56.09 705.98,-56.22 714.6,-56.38"/>
<polygon fill="#63b8ff" stroke="#63b8ff" points="714.58,-59.88 724.65,-56.57 714.71,-52.88 714.58,-59.88"/>
</a>
</g>
</g>
<!-- Node6&#45;&gt;Node7 -->
<g id="edge6_Node000006_Node000007" class="edge">
<title>Node6&#45;&gt;Node7</title>
<g id="a_edge6_Node000006_Node000007"><a xlink:title=" ">
<path fill="none" stroke="#63b8ff" d="M689.02,-71.62C697.46,-70.39 706.23,-69.11 714.86,-67.86"/>
<polygon fill="#63b8ff" stroke="#63b8ff" points="715.5,-71.3 724.89,-66.39 714.49,-64.37 715.5,-71.3"/>
</a>
</g>
</g>
</g>
</svg>

<g id="navigator" transform="translate(0 0)" fill="#404254">
  <rect fill="#f2f5e9" fill-opacity="0.5" stroke="#606060" stroke-width=".5" x="0" y="0" width="60" height="60"/>
  <use id="zoomplus" xlink:href="#zoomPlus" x="17" y="9" onmousedown="handleZoom(evt,'in')"/>
  <use id="zoomminus" xlink:href="#zoomMin" x="42" y="9" onmousedown="handleZoom(evt,'out')"/>
  <use id="reset" xlink:href="#resetDef" x="30" y="36" onmousedown="handleReset()"/>
   <use id="arrowup" xlink:href="#arrowUp" x="0" y="0" onmousedown="handlePan(0,-1)"/>
  <use id="arrowright" xlink:href="#arrowRight" x="0" y="0" onmousedown="handlePan(1,0)"/>
  <use id="arrowdown" xlink:href="#arrowDown" x="0" y="0" onmousedown="handlePan(0,1)"/>
  <use id="arrowleft" xlink:href="#arrowLeft" x="0" y="0" onmousedown="handlePan(-1,0)"/>
</g>
<svg viewBox="0 0 15 15" width="100%" height="30px" preserveAspectRatio="xMaxYMin meet">
 <g id="arrow_out" transform="scale(0.3 0.3)">
  <a xlink:href="namespaceprecice_1_1mapping_af2e0c6affb9843e516b73b82d707cc71_cgraph_org.svg" target="_base">
   <rect id="button" ry="5" rx="5" y="6" x="6" height="38" width="38"
        fill="#f2f5e9" fill-opacity="0.5" stroke="#606060" stroke-width="1.0"/>
   <path id="arrow"
     d="M 11.500037,31.436501 C 11.940474,20.09759 22.043105,11.32322 32.158766,21.979434 L 37.068811,17.246167 C 37.068811,17.246167 37.088388,32 37.088388,32 L 22.160133,31.978069 C 22.160133,31.978069 26.997745,27.140456 26.997745,27.140456 C 18.528582,18.264221 13.291696,25.230495 11.500037,31.436501 z"
     style="fill:#404040;"/>
  </a>
 </g>
</svg>

<style type='text/css'>
<![CDATA[
[data-mouse-over-selected='false'] { opacity: 0.7; }
[data-mouse-over-selected='true']  { opacity: 1.0; }
]]>
</style>
<script type="application/ecmascript"><![CDATA[
document.addEventListener('DOMContentLoaded', (event) => {
  highlightEdges();
  highlightAdjacentNodes();
});
]]></script>
</svg>
