<?xml version="1.0" encoding="UTF-8" standalone="no"?>
<!DOCTYPE svg PUBLIC "-//W3C//DTD SVG 1.1//EN"
 "http://www.w3.org/Graphics/SVG/1.1/DTD/svg11.dtd">
<!-- Generated by graphviz version 2.43.0 (0)
 -->
<!-- Title: precice::com::sendBoundingBox Pages: 1 -->
<svg width="777pt" height="291pt"
 viewBox="0.00 0.00 777.00 291.00" xmlns="http://www.w3.org/2000/svg" xmlns:xlink="http://www.w3.org/1999/xlink">
<g id="graph0" class="graph" transform="scale(1 1) rotate(0) translate(4 287)">
<title>precice::com::sendBoundingBox</title>
<polygon fill="white" stroke="transparent" points="-4,4 -4,-287 773,-287 773,4 -4,4"/>
<!-- Node1 -->
<g id="node1" class="node">
<title>Node1</title>
<g id="a_node1"><a xlink:title=" ">
<polygon fill="#bfbfbf" stroke="black" points="0,-131 0,-150 173,-150 173,-131 0,-131"/>
<text text-anchor="middle" x="86.5" y="-138" font-family="Helvetica,sans-Serif" font-size="10.00">precice::com::sendBoundingBox</text>
</a>
</g>
</g>
<!-- Node2 -->
<g id="node2" class="node">
<title>Node2</title>
<g id="a_node2"><a xlink:href="classprecice_1_1com_1_1serialize_1_1SerializedBoundingBox.html#a74021b702b540db41355b46f0347b99e" target="_top" xlink:title=" ">
<polygon fill="white" stroke="black" points="209,-180.5 209,-210.5 373,-210.5 373,-180.5 209,-180.5"/>
<text text-anchor="start" x="217" y="-198.5" font-family="Helvetica,sans-Serif" font-size="10.00">precice::com::serialize</text>
<text text-anchor="middle" x="291" y="-187.5" font-family="Helvetica,sans-Serif" font-size="10.00">::SerializedBoundingBox::send</text>
</a>
</g>
</g>
<!-- Node1&#45;&gt;Node2 -->
<g id="edge1" class="edge">
<title>Node1&#45;&gt;Node2</title>
<path fill="none" stroke="midnightblue" d="M122.77,-150.08C150.83,-157.7 190.85,-168.57 224.7,-177.77"/>
<polygon fill="midnightblue" stroke="midnightblue" points="223.96,-181.19 234.53,-180.43 225.8,-174.44 223.96,-181.19"/>
</g>
<!-- Node7 -->
<g id="node7" class="node">
<title>Node7</title>
<g id="a_node7"><a xlink:href="classprecice_1_1com_1_1serialize_1_1SerializedBoundingBox.html#a0b301cdb22b0d8decc55eea3b1a2a7e8" target="_top" xlink:title=" ">
<polygon fill="white" stroke="black" points="223.5,-93 223.5,-134 358.5,-134 358.5,-93 223.5,-93"/>
<text text-anchor="start" x="231.5" y="-122" font-family="Helvetica,sans-Serif" font-size="10.00">precice::com::serialize</text>
<text text-anchor="start" x="231.5" y="-111" font-family="Helvetica,sans-Serif" font-size="10.00">::SerializedBoundingBox</text>
<text text-anchor="middle" x="291" y="-100" font-family="Helvetica,sans-Serif" font-size="10.00">::serialize</text>
</a>
</g>
</g>
<!-- Node1&#45;&gt;Node7 -->
<g id="edge6" class="edge">
<title>Node1&#45;&gt;Node7</title>
<path fill="none" stroke="midnightblue" d="M158.89,-130.98C176.41,-128.65 195.23,-126.14 213,-123.77"/>
<polygon fill="midnightblue" stroke="midnightblue" points="213.87,-127.18 223.32,-122.39 212.94,-120.24 213.87,-127.18"/>
</g>
<!-- Node3 -->
<g id="node3" class="node">
<title>Node3</title>
<g id="a_node3"><a xlink:href="classprecice_1_1com_1_1Communication.html#a8caa1032e130719ef235553313b59a3b" target="_top" xlink:title="Sends a range of doubles (size + content)">
<polygon fill="white" stroke="black" points="409,-208.5 409,-238.5 571,-238.5 571,-208.5 409,-208.5"/>
<text text-anchor="start" x="417" y="-226.5" font-family="Helvetica,sans-Serif" font-size="10.00">precice::com::Communication</text>
<text text-anchor="middle" x="490" y="-215.5" font-family="Helvetica,sans-Serif" font-size="10.00">::sendRange</text>
</a>
</g>
</g>
<!-- Node2&#45;&gt;Node3 -->
<g id="edge2" class="edge">
<title>Node2&#45;&gt;Node3</title>
<path fill="none" stroke="midnightblue" d="M373.26,-207.05C381.72,-208.25 390.35,-209.48 398.9,-210.69"/>
<polygon fill="midnightblue" stroke="midnightblue" points="398.48,-214.17 408.87,-212.11 399.47,-207.24 398.48,-214.17"/>
</g>
<!-- Node4 -->
<g id="node4" class="node">
<title>Node4</title>
<g id="a_node4"><a xlink:href="classprecice_1_1com_1_1Communication.html#ac95d9a27ce66edc756c96176d2e9d916" target="_top" xlink:title="Sends a std::string to process with given rank.">
<polygon fill="white" stroke="black" points="607,-252.5 607,-282.5 769,-282.5 769,-252.5 607,-252.5"/>
<text text-anchor="start" x="615" y="-270.5" font-family="Helvetica,sans-Serif" font-size="10.00">precice::com::Communication</text>
<text text-anchor="middle" x="688" y="-259.5" font-family="Helvetica,sans-Serif" font-size="10.00">::send</text>
</a>
</g>
</g>
<!-- Node3&#45;&gt;Node4 -->
<g id="edge3" class="edge">
<title>Node3&#45;&gt;Node4</title>
<path fill="none" stroke="midnightblue" d="M557.9,-238.52C574.68,-242.29 592.82,-246.36 610.05,-250.22"/>
<polygon fill="midnightblue" stroke="midnightblue" points="609.54,-253.7 620.07,-252.47 611.07,-246.87 609.54,-253.7"/>
</g>
<!-- Node5 -->
<g id="node5" class="node">
<title>Node5</title>
<g id="a_node5"><a xlink:href="namespaceprecice_1_1detail.html#a99f20f73c4a3c34d08429ac0fea564ef" target="_top" xlink:title=" ">
<polygon fill="white" stroke="black" points="632.5,-214 632.5,-233 743.5,-233 743.5,-214 632.5,-214"/>
<text text-anchor="middle" x="688" y="-221" font-family="Helvetica,sans-Serif" font-size="10.00">precice::detail::size</text>
</a>
</g>
</g>
<!-- Node3&#45;&gt;Node5 -->
<g id="edge4" class="edge">
<title>Node3&#45;&gt;Node5</title>
<path fill="none" stroke="midnightblue" d="M571,-223.5C588.1,-223.5 605.95,-223.5 622.38,-223.5"/>
<polygon fill="midnightblue" stroke="midnightblue" points="622.4,-227 632.4,-223.5 622.4,-220 622.4,-227"/>
</g>
<!-- Node6 -->
<g id="node6" class="node">
<title>Node6</title>
<g id="a_node6"><a xlink:href="classprecice_1_1span.html#a47dd9f5471352ea4105ab001836273ee" target="_top" xlink:title=" ">
<polygon fill="white" stroke="black" points="634.5,-176 634.5,-195 741.5,-195 741.5,-176 634.5,-176"/>
<text text-anchor="middle" x="688" y="-183" font-family="Helvetica,sans-Serif" font-size="10.00">precice::span::size</text>
</a>
</g>
</g>
<!-- Node3&#45;&gt;Node6 -->
<g id="edge5" class="edge">
<title>Node3&#45;&gt;Node6</title>
<path fill="none" stroke="midnightblue" d="M568.46,-208.48C588.33,-204.63 609.37,-200.55 628.12,-196.91"/>
<polygon fill="midnightblue" stroke="midnightblue" points="628.84,-200.34 638,-195 627.51,-193.47 628.84,-200.34"/>
</g>
<!-- Node8 -->
<g id="node8" class="node">
<title>Node8</title>
<g id="a_node8"><a xlink:href="classprecice_1_1com_1_1serialize_1_1SerializedBoundingBox.html#aa277540ee9df0f86e08a9567b2a7d1bc" target="_top" xlink:title="asserts the content for correctness">
<polygon fill="white" stroke="black" points="422.5,-148 422.5,-189 557.5,-189 557.5,-148 422.5,-148"/>
<text text-anchor="start" x="430.5" y="-177" font-family="Helvetica,sans-Serif" font-size="10.00">precice::com::serialize</text>
<text text-anchor="start" x="430.5" y="-166" font-family="Helvetica,sans-Serif" font-size="10.00">::SerializedBoundingBox</text>
<text text-anchor="middle" x="490" y="-155" font-family="Helvetica,sans-Serif" font-size="10.00">::assertValid</text>
</a>
</g>
</g>
<!-- Node7&#45;&gt;Node8 -->
<g id="edge7" class="edge">
<title>Node7&#45;&gt;Node8</title>
<path fill="none" stroke="midnightblue" d="M358.7,-132.12C376.02,-136.96 394.83,-142.21 412.61,-147.17"/>
<polygon fill="midnightblue" stroke="midnightblue" points="411.8,-150.58 422.37,-149.9 413.68,-143.84 411.8,-150.58"/>
</g>
<!-- Node9 -->
<g id="node9" class="node">
<title>Node9</title>
<g id="a_node9"><a xlink:href="classprecice_1_1mesh_1_1BoundingBox.html#ad500309dcbe440703ef71dfcc7a2a394" target="_top" xlink:title="Getter dimension of the bounding box.">
<polygon fill="white" stroke="black" points="412.5,-98.5 412.5,-128.5 567.5,-128.5 567.5,-98.5 412.5,-98.5"/>
<text text-anchor="start" x="420.5" y="-116.5" font-family="Helvetica,sans-Serif" font-size="10.00">precice::mesh::BoundingBox</text>
<text text-anchor="middle" x="490" y="-105.5" font-family="Helvetica,sans-Serif" font-size="10.00">::getDimension</text>
</a>
</g>
</g>
<!-- Node7&#45;&gt;Node9 -->
<g id="edge8" class="edge">
<title>Node7&#45;&gt;Node9</title>
<path fill="none" stroke="midnightblue" d="M358.7,-113.5C372.66,-113.5 387.58,-113.5 402.16,-113.5"/>
<polygon fill="midnightblue" stroke="midnightblue" points="402.18,-117 412.18,-113.5 402.18,-110 402.18,-117"/>
</g>
<!-- Node10 -->
<g id="node10" class="node">
<title>Node10</title>
<g id="a_node10"><a xlink:href="classprecice_1_1mesh_1_1BoundingBox.html#a14cd5dbd1775876bf5795845699557d8" target="_top" xlink:title="the max corner of the bounding box">
<polygon fill="white" stroke="black" points="412.5,-49.5 412.5,-79.5 567.5,-79.5 567.5,-49.5 412.5,-49.5"/>
<text text-anchor="start" x="420.5" y="-67.5" font-family="Helvetica,sans-Serif" font-size="10.00">precice::mesh::BoundingBox</text>
<text text-anchor="middle" x="490" y="-56.5" font-family="Helvetica,sans-Serif" font-size="10.00">::maxCorner</text>
</a>
</g>
</g>
<!-- Node7&#45;&gt;Node10 -->
<g id="edge9" class="edge">
<title>Node7&#45;&gt;Node10</title>
<path fill="none" stroke="midnightblue" d="M358.7,-96.91C378.08,-92.09 399.31,-86.81 418.89,-81.94"/>
<polygon fill="midnightblue" stroke="midnightblue" points="419.8,-85.32 428.66,-79.51 418.11,-78.52 419.8,-85.32"/>
</g>
<!-- Node11 -->
<g id="node11" class="node">
<title>Node11</title>
<g id="a_node11"><a xlink:href="classprecice_1_1mesh_1_1BoundingBox.html#a194a2fb80fd24fad4555df2a2453dac5" target="_top" xlink:title="the min corner of the bounding box">
<polygon fill="white" stroke="black" points="412.5,-0.5 412.5,-30.5 567.5,-30.5 567.5,-0.5 412.5,-0.5"/>
<text text-anchor="start" x="420.5" y="-18.5" font-family="Helvetica,sans-Serif" font-size="10.00">precice::mesh::BoundingBox</text>
<text text-anchor="middle" x="490" y="-7.5" font-family="Helvetica,sans-Serif" font-size="10.00">::minCorner</text>
</a>
</g>
</g>
<!-- Node7&#45;&gt;Node11 -->
<g id="edge10" class="edge">
<title>Node7&#45;&gt;Node11</title>
<path fill="none" stroke="midnightblue" d="M319.62,-92.98C342.59,-76.68 376.63,-54.25 409,-39.5 413.31,-37.54 417.82,-35.68 422.41,-33.94"/>
<polygon fill="midnightblue" stroke="midnightblue" points="423.68,-37.21 431.91,-30.53 421.32,-30.62 423.68,-37.21"/>
</g>
</g>
</svg>
