<?xml version="1.0" encoding="UTF-8" standalone="no"?>
<!DOCTYPE svg PUBLIC "-//W3C//DTD SVG 1.1//EN"
 "http://www.w3.org/Graphics/SVG/1.1/DTD/svg11.dtd">
<!-- Generated by graphviz version 2.43.0 (0)
 -->
<!-- Title: precice::mesh::operator&lt;&lt; Pages: 1 -->
<svg width="342pt" height="127pt"
 viewBox="0.00 0.00 342.00 126.50" xmlns="http://www.w3.org/2000/svg" xmlns:xlink="http://www.w3.org/1999/xlink">
<g id="graph0" class="graph" transform="scale(1 1) rotate(0) translate(4 122.5)">
<title>precice::mesh::operator&lt;&lt;</title>
<polygon fill="white" stroke="transparent" points="-4,4 -4,-122.5 338,-122.5 338,4 -4,4"/>
<!-- Node1 -->
<g id="node1" class="node">
<title>Node1</title>
<g id="a_node1"><a xlink:title=" ">
<polygon fill="#bfbfbf" stroke="black" points="0,-44.5 0,-63.5 149,-63.5 149,-44.5 0,-44.5"/>
<text text-anchor="middle" x="74.5" y="-51.5" font-family="Helvetica,sans-Serif" font-size="10.00">precice::mesh::operator&lt;&lt;</text>
</a>
</g>
</g>
<!-- Node2 -->
<g id="node2" class="node">
<title>Node2</title>
<g id="a_node2"><a xlink:href="classprecice_1_1mesh_1_1Vertex.html#ad90010710b36c06a40ec09922c1b0fce" target="_top" xlink:title="Returns the coordinates of the vertex.">
<polygon fill="white" stroke="black" points="198.5,-88 198.5,-118 320.5,-118 320.5,-88 198.5,-88"/>
<text text-anchor="start" x="206.5" y="-106" font-family="Helvetica,sans-Serif" font-size="10.00">precice::mesh::Vertex</text>
<text text-anchor="middle" x="259.5" y="-95" font-family="Helvetica,sans-Serif" font-size="10.00">::getCoords</text>
</a>
</g>
</g>
<!-- Node1&#45;&gt;Node2 -->
<g id="edge1" class="edge">
<title>Node1&#45;&gt;Node2</title>
<path fill="none" stroke="midnightblue" d="M111.22,-63.56C134.29,-69.74 165,-77.96 192.41,-85.3"/>
<polygon fill="midnightblue" stroke="midnightblue" points="191.78,-88.76 202.34,-87.96 193.59,-82 191.78,-88.76"/>
</g>
<!-- Node3 -->
<g id="node3" class="node">
<title>Node3</title>
<g id="a_node3"><a xlink:href="classprecice_1_1mesh_1_1Tetrahedron.html#a02f8e04a6e36150e1ec799f2999c05e7" target="_top" xlink:title="Returns tetrahedron vertex with index 0, 1, 2 or 3.">
<polygon fill="white" stroke="black" points="185,-39 185,-69 334,-69 334,-39 185,-39"/>
<text text-anchor="start" x="193" y="-57" font-family="Helvetica,sans-Serif" font-size="10.00">precice::mesh::Tetrahedron</text>
<text text-anchor="middle" x="259.5" y="-46" font-family="Helvetica,sans-Serif" font-size="10.00">::vertex</text>
</a>
</g>
</g>
<!-- Node1&#45;&gt;Node3 -->
<g id="edge2" class="edge">
<title>Node1&#45;&gt;Node3</title>
<path fill="none" stroke="midnightblue" d="M149.14,-54C157.47,-54 166.01,-54 174.46,-54"/>
<polygon fill="midnightblue" stroke="midnightblue" points="174.71,-57.5 184.71,-54 174.71,-50.5 174.71,-57.5"/>
</g>
<!-- Node4 -->
<g id="node4" class="node">
<title>Node4</title>
<g id="a_node4"><a xlink:href="namespaceprecice_1_1utils_1_1eigenio.html#a4687bb08f3f46818e4b7265d51053840" target="_top" xlink:title=" ">
<polygon fill="white" stroke="black" points="187,-0.5 187,-19.5 332,-19.5 332,-0.5 187,-0.5"/>
<text text-anchor="middle" x="259.5" y="-7.5" font-family="Helvetica,sans-Serif" font-size="10.00">precice::utils::eigenio::wkt</text>
</a>
</g>
</g>
<!-- Node1&#45;&gt;Node4 -->
<g id="edge3" class="edge">
<title>Node1&#45;&gt;Node4</title>
<path fill="none" stroke="midnightblue" d="M115.21,-44.45C142.67,-37.85 179.4,-29.02 208.8,-21.95"/>
<polygon fill="midnightblue" stroke="midnightblue" points="209.96,-25.27 218.87,-19.53 208.33,-18.46 209.96,-25.27"/>
</g>
</g>
</svg>
