<?xml version="1.0" encoding="UTF-8" standalone="no"?>
<!DOCTYPE svg PUBLIC "-//W3C//DTD SVG 1.1//EN"
 "http://www.w3.org/Graphics/SVG/1.1/DTD/svg11.dtd">
<!-- Generated by graphviz version 2.43.0 (0)
 -->
<!-- Title: BOOST_AUTO_TEST_CASE Pages: 1 -->
<svg width="1221pt" height="795pt"
 viewBox="0.00 0.00 1221.00 795.00" xmlns="http://www.w3.org/2000/svg" xmlns:xlink="http://www.w3.org/1999/xlink">
<g id="graph0" class="graph" transform="scale(1 1) rotate(0) translate(4 791)">
<title>BOOST_AUTO_TEST_CASE</title>
<polygon fill="white" stroke="transparent" points="-4,4 -4,-791 1217,-791 1217,4 -4,4"/>
<!-- Node1 -->
<g id="node1" class="node">
<title>Node1</title>
<g id="a_node1"><a xlink:title=" ">
<polygon fill="#bfbfbf" stroke="black" points="0,-209 0,-228 143,-228 143,-209 0,-209"/>
<text text-anchor="middle" x="71.5" y="-216" font-family="Helvetica,sans-Serif" font-size="10.00">BOOST_AUTO_TEST_CASE</text>
</a>
</g>
</g>
<!-- Node2 -->
<g id="node2" class="node">
<title>Node2</title>
<g id="a_node2"><a xlink:href="classprecice_1_1mapping_1_1NearestNeighborBaseMapping.html#ab7b41fe767e36b9140c0c3a074e5b54c" target="_top" xlink:title="Computes the mapping coefficients from the in&#45; and output mesh.">
<polygon fill="white" stroke="black" points="391,-646.5 391,-676.5 609,-676.5 609,-646.5 391,-646.5"/>
<text text-anchor="start" x="399" y="-664.5" font-family="Helvetica,sans-Serif" font-size="10.00">precice::mapping::Nearest</text>
<text text-anchor="middle" x="500" y="-653.5" font-family="Helvetica,sans-Serif" font-size="10.00">NeighborBaseMapping::computeMapping</text>
</a>
</g>
</g>
<!-- Node1&#45;&gt;Node2 -->
<g id="edge1" class="edge">
<title>Node1&#45;&gt;Node2</title>
<path fill="none" stroke="midnightblue" d="M74.9,-228.11C83.81,-262.39 117.73,-380.84 179,-458.5 252.45,-551.6 287.37,-562.85 391,-620.5 406.53,-629.14 424.25,-636.71 440.78,-642.92"/>
<polygon fill="midnightblue" stroke="midnightblue" points="439.76,-646.27 450.35,-646.41 442.16,-639.69 439.76,-646.27"/>
</g>
<!-- Node12 -->
<g id="node12" class="node">
<title>Node12</title>
<g id="a_node12"><a xlink:href="classprecice_1_1mapping_1_1Mapping.html#ad4c975ae2b8f1125a6707ab7857018f6" target="_top" xlink:title="Returns true, if the mapping has been computed.">
<polygon fill="white" stroke="black" points="192.5,-44.5 192.5,-74.5 341.5,-74.5 341.5,-44.5 192.5,-44.5"/>
<text text-anchor="start" x="200.5" y="-62.5" font-family="Helvetica,sans-Serif" font-size="10.00">precice::mapping::Mapping</text>
<text text-anchor="middle" x="267" y="-51.5" font-family="Helvetica,sans-Serif" font-size="10.00">::hasComputedMapping</text>
</a>
</g>
</g>
<!-- Node1&#45;&gt;Node12 -->
<g id="edge11" class="edge">
<title>Node1&#45;&gt;Node12</title>
<path fill="none" stroke="midnightblue" d="M77.87,-208.87C91.59,-185.13 130.32,-123.26 179,-89.5 184.96,-85.37 191.54,-81.76 198.33,-78.62"/>
<polygon fill="midnightblue" stroke="midnightblue" points="199.87,-81.77 207.69,-74.62 197.11,-75.33 199.87,-81.77"/>
</g>
<!-- Node13 -->
<g id="node13" class="node">
<title>Node13</title>
<g id="a_node13"><a xlink:href="namespaceprecice_1_1mesh.html#af945026d91b87d6b51fddc0debbb2c42" target="_top" xlink:title="Given the data and the mesh, this function returns the surface integral. Assumes no overlap exists fo...">
<polygon fill="white" stroke="black" points="671,-83.5 671,-113.5 806,-113.5 806,-83.5 671,-83.5"/>
<text text-anchor="start" x="679" y="-101.5" font-family="Helvetica,sans-Serif" font-size="10.00">precice::mesh::integrate</text>
<text text-anchor="middle" x="738.5" y="-90.5" font-family="Helvetica,sans-Serif" font-size="10.00">Surface</text>
</a>
</g>
</g>
<!-- Node1&#45;&gt;Node13 -->
<g id="edge12" class="edge">
<title>Node1&#45;&gt;Node13</title>
<path fill="none" stroke="midnightblue" d="M97.22,-208.97C150.15,-189.02 278.8,-143.03 391,-122.5 482.73,-105.72 590.08,-100.45 660.7,-98.92"/>
<polygon fill="midnightblue" stroke="midnightblue" points="660.92,-102.41 670.85,-98.71 660.78,-95.41 660.92,-102.41"/>
</g>
<!-- Node15 -->
<g id="node15" class="node">
<title>Node15</title>
<g id="a_node15"><a xlink:href="classprecice_1_1mapping_1_1Mapping.html#adac09460b4983629f85cec2a9f1fe75c" target="_top" xlink:title="Maps input data to output data from input mesh to output mesh.">
<polygon fill="white" stroke="black" points="179,-346 179,-365 355,-365 355,-346 179,-346"/>
<text text-anchor="middle" x="267" y="-353" font-family="Helvetica,sans-Serif" font-size="10.00">precice::mapping::Mapping::map</text>
</a>
</g>
</g>
<!-- Node1&#45;&gt;Node15 -->
<g id="edge14" class="edge">
<title>Node1&#45;&gt;Node15</title>
<path fill="none" stroke="midnightblue" d="M86.11,-228.13C119.14,-251.52 203.8,-311.46 244.07,-339.98"/>
<polygon fill="midnightblue" stroke="midnightblue" points="242.22,-342.96 252.41,-345.88 246.27,-337.24 242.22,-342.96"/>
</g>
<!-- Node24 -->
<g id="node24" class="node">
<title>Node24</title>
<g id="a_node24"><a xlink:href="namespaceprecice_1_1testing.html#a08533fd83bad3d7f27ea7f4a35a14aa4" target="_top" xlink:title=" ">
<polygon fill="white" stroke="black" points="189,-6 189,-25 345,-25 345,-6 189,-6"/>
<text text-anchor="middle" x="267" y="-13" font-family="Helvetica,sans-Serif" font-size="10.00">precice::testing::nextMeshID</text>
</a>
</g>
</g>
<!-- Node1&#45;&gt;Node24 -->
<g id="edge37" class="edge">
<title>Node1&#45;&gt;Node24</title>
<path fill="none" stroke="midnightblue" d="M75.13,-208.59C83.94,-177.45 115.5,-80.85 179,-34.5 181.54,-32.65 184.23,-30.97 187.02,-29.44"/>
<polygon fill="midnightblue" stroke="midnightblue" points="188.69,-32.53 196.25,-25.11 185.71,-26.19 188.69,-32.53"/>
</g>
<!-- Node26 -->
<g id="node26" class="node">
<title>Node26</title>
<g id="a_node26"><a xlink:href="classprecice_1_1mapping_1_1Mapping.html#a5bf2ecf9adb1ae66977c1223f841a61f" target="_top" xlink:title="Sets input and output meshes carrying data to be mapped.">
<polygon fill="white" stroke="black" points="425.5,-558.5 425.5,-588.5 574.5,-588.5 574.5,-558.5 425.5,-558.5"/>
<text text-anchor="start" x="433.5" y="-576.5" font-family="Helvetica,sans-Serif" font-size="10.00">precice::mapping::Mapping</text>
<text text-anchor="middle" x="500" y="-565.5" font-family="Helvetica,sans-Serif" font-size="10.00">::setMeshes</text>
</a>
</g>
</g>
<!-- Node1&#45;&gt;Node26 -->
<g id="edge39" class="edge">
<title>Node1&#45;&gt;Node26</title>
<path fill="none" stroke="midnightblue" d="M77.57,-228.05C91.46,-253.67 132.23,-325.3 179,-374.5 260.52,-460.25 286.83,-479.41 391,-535.5 405.07,-543.08 420.95,-549.64 436.12,-555.08"/>
<polygon fill="midnightblue" stroke="midnightblue" points="435.37,-558.52 445.96,-558.5 437.66,-551.91 435.37,-558.52"/>
</g>
<!-- Node3 -->
<g id="node3" class="node">
<title>Node3</title>
<g id="a_node3"><a xlink:href="classprecice_1_1utils_1_1statistics_1_1DistanceAccumulator.html#ab62a4d99f3b8c512aeb45a3a9ae0547b" target="_top" xlink:title="Returns count == 0.">
<polygon fill="white" stroke="black" points="656.5,-756.5 656.5,-786.5 820.5,-786.5 820.5,-756.5 656.5,-756.5"/>
<text text-anchor="start" x="664.5" y="-774.5" font-family="Helvetica,sans-Serif" font-size="10.00">precice::utils::statistics</text>
<text text-anchor="middle" x="738.5" y="-763.5" font-family="Helvetica,sans-Serif" font-size="10.00">::DistanceAccumulator::empty</text>
</a>
</g>
</g>
<!-- Node2&#45;&gt;Node3 -->
<g id="edge2" class="edge">
<title>Node2&#45;&gt;Node3</title>
<path fill="none" stroke="midnightblue" d="M522.47,-676.69C549.8,-695.41 598.98,-727.12 645,-746.5 650.84,-748.96 656.98,-751.24 663.21,-753.34"/>
<polygon fill="midnightblue" stroke="midnightblue" points="662.46,-756.77 673.05,-756.49 664.6,-750.1 662.46,-756.77"/>
</g>
<!-- Node5 -->
<g id="node5" class="node">
<title>Node5</title>
<g id="a_node5"><a xlink:href="namespaceprecice.html#aa9d19e0a82fdcbffc72e0db264b4cceb" target="_top" xlink:title=" ">
<polygon fill="white" stroke="black" points="701.5,-658 701.5,-677 775.5,-677 775.5,-658 701.5,-658"/>
<text text-anchor="middle" x="738.5" y="-665" font-family="Helvetica,sans-Serif" font-size="10.00">precice::get</text>
</a>
</g>
</g>
<!-- Node2&#45;&gt;Node5 -->
<g id="edge4" class="edge">
<title>Node2&#45;&gt;Node5</title>
<path fill="none" stroke="midnightblue" d="M609.21,-664.25C638.14,-664.98 667.87,-665.73 691.42,-666.33"/>
<polygon fill="midnightblue" stroke="midnightblue" points="691.36,-669.83 701.44,-666.59 691.53,-662.83 691.36,-669.83"/>
</g>
<!-- Node6 -->
<g id="node6" class="node">
<title>Node6</title>
<g id="a_node6"><a xlink:href="classprecice_1_1mapping_1_1Mapping.html#aeea2d39f5e6ce0eaa97ebe436ff89991" target="_top" xlink:title="Checks whether the mapping has the given constraint or not.">
<polygon fill="white" stroke="black" points="873.5,-395.5 873.5,-425.5 1022.5,-425.5 1022.5,-395.5 873.5,-395.5"/>
<text text-anchor="start" x="881.5" y="-413.5" font-family="Helvetica,sans-Serif" font-size="10.00">precice::mapping::Mapping</text>
<text text-anchor="middle" x="948" y="-402.5" font-family="Helvetica,sans-Serif" font-size="10.00">::hasConstraint</text>
</a>
</g>
</g>
<!-- Node2&#45;&gt;Node6 -->
<g id="edge5" class="edge">
<title>Node2&#45;&gt;Node6</title>
<path fill="none" stroke="midnightblue" d="M609.28,-649.53C698.63,-638.89 813.63,-623.09 832,-610.5 894.57,-567.61 927.5,-478.72 940.4,-435.37"/>
<polygon fill="midnightblue" stroke="midnightblue" points="943.8,-436.2 943.19,-425.62 937.07,-434.27 943.8,-436.2"/>
</g>
<!-- Node8 -->
<g id="node8" class="node">
<title>Node8</title>
<g id="a_node8"><a xlink:href="classprecice_1_1mapping_1_1Mapping.html#a61c3c55af467ada2bdd735efa0f960e4" target="_top" xlink:title="Returns pointer to input mesh.">
<polygon fill="white" stroke="black" points="664,-532.5 664,-562.5 813,-562.5 813,-532.5 664,-532.5"/>
<text text-anchor="start" x="672" y="-550.5" font-family="Helvetica,sans-Serif" font-size="10.00">precice::mapping::Mapping</text>
<text text-anchor="middle" x="738.5" y="-539.5" font-family="Helvetica,sans-Serif" font-size="10.00">::input</text>
</a>
</g>
</g>
<!-- Node2&#45;&gt;Node8 -->
<g id="edge7" class="edge">
<title>Node2&#45;&gt;Node8</title>
<path fill="none" stroke="midnightblue" d="M528.52,-646.43C550.61,-634.09 582.25,-615.9 609,-598.5 625.54,-587.74 627.18,-580.99 645,-572.5 649.97,-570.13 655.21,-567.95 660.56,-565.96"/>
<polygon fill="midnightblue" stroke="midnightblue" points="661.98,-569.17 670.27,-562.57 659.67,-562.56 661.98,-569.17"/>
</g>
<!-- Node9 -->
<g id="node9" class="node">
<title>Node9</title>
<g id="a_node9"><a xlink:href="classprecice_1_1mapping_1_1NearestNeighborBaseMapping.html#a3605e46cc2fa329c8ae2125197369150" target="_top" xlink:title=" ">
<polygon fill="white" stroke="black" points="645,-696 645,-737 832,-737 832,-696 645,-696"/>
<text text-anchor="start" x="653" y="-725" font-family="Helvetica,sans-Serif" font-size="10.00">precice::mapping::Nearest</text>
<text text-anchor="start" x="653" y="-714" font-family="Helvetica,sans-Serif" font-size="10.00">NeighborBaseMapping::onMapping</text>
<text text-anchor="middle" x="738.5" y="-703" font-family="Helvetica,sans-Serif" font-size="10.00">Computed</text>
</a>
</g>
</g>
<!-- Node2&#45;&gt;Node9 -->
<g id="edge8" class="edge">
<title>Node2&#45;&gt;Node9</title>
<path fill="none" stroke="midnightblue" d="M565.62,-676.53C588.32,-681.81 614.37,-687.86 639.2,-693.64"/>
<polygon fill="midnightblue" stroke="midnightblue" points="638.48,-697.07 649.02,-695.92 640.07,-690.25 638.48,-697.07"/>
</g>
<!-- Node10 -->
<g id="node10" class="node">
<title>Node10</title>
<g id="a_node10"><a xlink:href="classprecice_1_1mapping_1_1Mapping.html#a07a71a54b71eda6d54510c94fb188e70" target="_top" xlink:title="Returns pointer to output mesh.">
<polygon fill="white" stroke="black" points="664,-483.5 664,-513.5 813,-513.5 813,-483.5 664,-483.5"/>
<text text-anchor="start" x="672" y="-501.5" font-family="Helvetica,sans-Serif" font-size="10.00">precice::mapping::Mapping</text>
<text text-anchor="middle" x="738.5" y="-490.5" font-family="Helvetica,sans-Serif" font-size="10.00">::output</text>
</a>
</g>
</g>
<!-- Node2&#45;&gt;Node10 -->
<g id="edge9" class="edge">
<title>Node2&#45;&gt;Node10</title>
<path fill="none" stroke="midnightblue" d="M538.58,-646.46C561.3,-635.82 589.55,-619.69 609,-598.5 634.27,-570.96 616.2,-546.32 645,-522.5 648.08,-519.96 651.39,-517.68 654.87,-515.64"/>
<polygon fill="midnightblue" stroke="midnightblue" points="656.53,-518.72 663.83,-511.04 653.34,-512.49 656.53,-518.72"/>
</g>
<!-- Node11 -->
<g id="node11" class="node">
<title>Node11</title>
<g id="a_node11"><a xlink:href="namespaceprecice_1_1detail.html#a99f20f73c4a3c34d08429ac0fea564ef" target="_top" xlink:title=" ">
<polygon fill="white" stroke="black" points="683,-582 683,-601 794,-601 794,-582 683,-582"/>
<text text-anchor="middle" x="738.5" y="-589" font-family="Helvetica,sans-Serif" font-size="10.00">precice::detail::size</text>
</a>
</g>
</g>
<!-- Node2&#45;&gt;Node11 -->
<g id="edge10" class="edge">
<title>Node2&#45;&gt;Node11</title>
<path fill="none" stroke="midnightblue" d="M561.19,-646.47C576.9,-642.09 593.71,-636.99 609,-631.5 625.48,-625.59 628.47,-621.27 645,-615.5 657.73,-611.05 671.7,-607.01 684.84,-603.56"/>
<polygon fill="midnightblue" stroke="midnightblue" points="685.87,-606.91 694.7,-601.05 684.14,-600.13 685.87,-606.91"/>
</g>
<!-- Node4 -->
<g id="node4" class="node">
<title>Node4</title>
<g id="a_node4"><a xlink:href="classprecice_1_1utils_1_1statistics_1_1DistanceAccumulator.html#ac9b87639f46a763b1f35cce56f78edd7" target="_top" xlink:title="Returns how many values have been accumulated.">
<polygon fill="white" stroke="black" points="868,-756.5 868,-786.5 1028,-786.5 1028,-756.5 868,-756.5"/>
<text text-anchor="start" x="876" y="-774.5" font-family="Helvetica,sans-Serif" font-size="10.00">precice::utils::statistics</text>
<text text-anchor="middle" x="948" y="-763.5" font-family="Helvetica,sans-Serif" font-size="10.00">::DistanceAccumulator::count</text>
</a>
</g>
</g>
<!-- Node3&#45;&gt;Node4 -->
<g id="edge3" class="edge">
<title>Node3&#45;&gt;Node4</title>
<path fill="none" stroke="midnightblue" d="M820.62,-771.5C832.78,-771.5 845.38,-771.5 857.71,-771.5"/>
<polygon fill="midnightblue" stroke="midnightblue" points="857.98,-775 867.98,-771.5 857.98,-768 857.98,-775"/>
</g>
<!-- Node7 -->
<g id="node7" class="node">
<title>Node7</title>
<g id="a_node7"><a xlink:href="classprecice_1_1mapping_1_1Mapping.html#a6afbd9aaac2ab09b078db271cfd977a1" target="_top" xlink:title="Returns the constraint (consistent/conservative) of the mapping.">
<polygon fill="white" stroke="black" points="1064,-417.5 1064,-447.5 1213,-447.5 1213,-417.5 1064,-417.5"/>
<text text-anchor="start" x="1072" y="-435.5" font-family="Helvetica,sans-Serif" font-size="10.00">precice::mapping::Mapping</text>
<text text-anchor="middle" x="1138.5" y="-424.5" font-family="Helvetica,sans-Serif" font-size="10.00">::getConstraint</text>
</a>
</g>
</g>
<!-- Node6&#45;&gt;Node7 -->
<g id="edge6" class="edge">
<title>Node6&#45;&gt;Node7</title>
<path fill="none" stroke="midnightblue" d="M1022.69,-419.1C1032.83,-420.28 1043.31,-421.51 1053.63,-422.71"/>
<polygon fill="midnightblue" stroke="midnightblue" points="1053.52,-426.22 1063.86,-423.91 1054.34,-419.27 1053.52,-426.22"/>
</g>
<!-- Node14 -->
<g id="node14" class="node">
<title>Node14</title>
<g id="a_node14"><a xlink:href="namespaceprecice_1_1detail.html#adede399b4b92eea01face616a0cc7051" target="_top" xlink:title=" ">
<polygon fill="white" stroke="black" points="891.5,-111 891.5,-130 1004.5,-130 1004.5,-111 891.5,-111"/>
<text text-anchor="middle" x="948" y="-118" font-family="Helvetica,sans-Serif" font-size="10.00">precice::detail::data</text>
</a>
</g>
</g>
<!-- Node13&#45;&gt;Node14 -->
<g id="edge13" class="edge">
<title>Node13&#45;&gt;Node14</title>
<path fill="none" stroke="midnightblue" d="M806.01,-105.55C830.07,-108.1 857.22,-110.98 881.22,-113.53"/>
<polygon fill="midnightblue" stroke="midnightblue" points="880.98,-117.02 891.3,-114.59 881.72,-110.06 880.98,-117.02"/>
</g>
<!-- Node15&#45;&gt;Node6 -->
<g id="edge18" class="edge">
<title>Node15&#45;&gt;Node6</title>
<path fill="none" stroke="midnightblue" d="M325.63,-365.04C335.45,-366.77 345.53,-368.63 355,-370.5 371.08,-373.67 374.78,-376.14 391,-378.5 557.14,-402.71 753.71,-408.8 862.99,-410.21"/>
<polygon fill="midnightblue" stroke="midnightblue" points="863.24,-413.72 873.29,-410.34 863.33,-406.72 863.24,-413.72"/>
</g>
<!-- Node15&#45;&gt;Node7 -->
<g id="edge16" class="edge">
<title>Node15&#45;&gt;Node7</title>
<path fill="none" stroke="midnightblue" d="M341.6,-365.04C346.23,-366.6 350.73,-368.41 355,-370.5 374.48,-380.06 371.05,-394.96 391,-403.5 614.57,-499.18 911.1,-470.26 1053.78,-447.93"/>
<polygon fill="midnightblue" stroke="midnightblue" points="1054.46,-451.37 1063.78,-446.34 1053.36,-444.46 1054.46,-451.37"/>
</g>
<!-- Node15&#45;&gt;Node8 -->
<g id="edge19" class="edge">
<title>Node15&#45;&gt;Node8</title>
<path fill="none" stroke="midnightblue" d="M272.77,-365.09C286.71,-391.96 330.25,-468.21 391,-501.5 434.83,-525.52 565.72,-537.68 653.49,-543.29"/>
<polygon fill="midnightblue" stroke="midnightblue" points="653.5,-546.8 663.7,-543.92 653.94,-539.81 653.5,-546.8"/>
</g>
<!-- Node15&#45;&gt;Node10 -->
<g id="edge24" class="edge">
<title>Node15&#45;&gt;Node10</title>
<path fill="none" stroke="midnightblue" d="M274.98,-365.22C291.88,-387.87 337.59,-444.04 391,-467.5 474.97,-504.39 581.25,-508.42 653.82,-505.6"/>
<polygon fill="midnightblue" stroke="midnightblue" points="653.99,-509.09 663.83,-505.16 653.68,-502.1 653.99,-509.09"/>
</g>
<!-- Node15&#45;&gt;Node11 -->
<g id="edge36" class="edge">
<title>Node15&#45;&gt;Node11</title>
<path fill="none" stroke="midnightblue" d="M269.32,-365.07C275.11,-403.08 302.18,-543.91 391,-598.5 436.55,-626.5 585.84,-612.25 672.89,-600.92"/>
<polygon fill="midnightblue" stroke="midnightblue" points="673.47,-604.37 682.92,-599.59 672.55,-597.43 673.47,-604.37"/>
</g>
<!-- Node15&#45;&gt;Node14 -->
<g id="edge15" class="edge">
<title>Node15&#45;&gt;Node14</title>
<path fill="none" stroke="midnightblue" d="M277.11,-345.72C296.17,-325.92 342.52,-281.14 391,-259.5 480.88,-219.38 537.24,-287.87 609,-220.5 658.04,-174.46 592.08,-115.02 645,-73.5 728.86,-7.7 867.06,-74.1 922.69,-105.75"/>
<polygon fill="midnightblue" stroke="midnightblue" points="921.08,-108.86 931.49,-110.86 924.6,-102.81 921.08,-108.86"/>
</g>
<!-- Node16 -->
<g id="node16" class="node">
<title>Node16</title>
<g id="a_node16"><a xlink:href="classprecice_1_1mapping_1_1Mapping.html#a393912fe4919edd098e96f66ffbe0d52" target="_top" xlink:title=" ">
<polygon fill="white" stroke="black" points="425.5,-181.5 425.5,-211.5 574.5,-211.5 574.5,-181.5 425.5,-181.5"/>
<text text-anchor="start" x="433.5" y="-199.5" font-family="Helvetica,sans-Serif" font-size="10.00">precice::mapping::Mapping</text>
<text text-anchor="middle" x="500" y="-188.5" font-family="Helvetica,sans-Serif" font-size="10.00">::getDimensions</text>
</a>
</g>
</g>
<!-- Node15&#45;&gt;Node16 -->
<g id="edge17" class="edge">
<title>Node15&#45;&gt;Node16</title>
<path fill="none" stroke="midnightblue" d="M274.46,-345.71C290.9,-321.6 336.86,-258.96 391,-226.5 398.72,-221.87 407.18,-217.93 415.86,-214.59"/>
<polygon fill="midnightblue" stroke="midnightblue" points="417.1,-217.86 425.33,-211.19 414.74,-211.28 417.1,-217.86"/>
</g>
<!-- Node17 -->
<g id="node17" class="node">
<title>Node17</title>
<g id="a_node17"><a xlink:href="classprecice_1_1mapping_1_1Mapping.html#a6d9b8f1628e20e7f9e6d3834d7a992e3" target="_top" xlink:title="Returns true if mapping is a form of scaled consistent mapping.">
<polygon fill="white" stroke="black" points="664,-357.5 664,-387.5 813,-387.5 813,-357.5 664,-357.5"/>
<text text-anchor="start" x="672" y="-375.5" font-family="Helvetica,sans-Serif" font-size="10.00">precice::mapping::Mapping</text>
<text text-anchor="middle" x="738.5" y="-364.5" font-family="Helvetica,sans-Serif" font-size="10.00">::isScaledConsistent</text>
</a>
</g>
</g>
<!-- Node15&#45;&gt;Node17 -->
<g id="edge20" class="edge">
<title>Node15&#45;&gt;Node17</title>
<path fill="none" stroke="midnightblue" d="M355.21,-358.66C440.58,-361.75 569.72,-366.42 653.85,-369.47"/>
<polygon fill="midnightblue" stroke="midnightblue" points="653.76,-372.97 663.88,-369.83 654.01,-365.97 653.76,-372.97"/>
</g>
<!-- Node18 -->
<g id="node18" class="node">
<title>Node18</title>
<g id="a_node18"><a xlink:href="classprecice_1_1mapping_1_1Mapping.html#a3feec7b663fb9a32c806e49f0449c24a" target="_top" xlink:title="Maps data using a conservative constraint.">
<polygon fill="white" stroke="black" points="425.5,-132.5 425.5,-162.5 574.5,-162.5 574.5,-132.5 425.5,-132.5"/>
<text text-anchor="start" x="433.5" y="-150.5" font-family="Helvetica,sans-Serif" font-size="10.00">precice::mapping::Mapping</text>
<text text-anchor="middle" x="500" y="-139.5" font-family="Helvetica,sans-Serif" font-size="10.00">::mapConservative</text>
</a>
</g>
</g>
<!-- Node15&#45;&gt;Node18 -->
<g id="edge22" class="edge">
<title>Node15&#45;&gt;Node18</title>
<path fill="none" stroke="midnightblue" d="M271.53,-345.58C283.16,-314.41 323.46,-217.72 391,-171.5 398.51,-166.36 406.94,-162.3 415.68,-159.1"/>
<polygon fill="midnightblue" stroke="midnightblue" points="416.87,-162.4 425.28,-155.95 414.68,-155.75 416.87,-162.4"/>
</g>
<!-- Node19 -->
<g id="node19" class="node">
<title>Node19</title>
<g id="a_node19"><a xlink:href="classprecice_1_1mapping_1_1Mapping.html#a777be849afae4995ed530961c64cd40d" target="_top" xlink:title="Maps data using a consistent constraint.">
<polygon fill="white" stroke="black" points="425.5,-318.5 425.5,-348.5 574.5,-348.5 574.5,-318.5 425.5,-318.5"/>
<text text-anchor="start" x="433.5" y="-336.5" font-family="Helvetica,sans-Serif" font-size="10.00">precice::mapping::Mapping</text>
<text text-anchor="middle" x="500" y="-325.5" font-family="Helvetica,sans-Serif" font-size="10.00">::mapConsistent</text>
</a>
</g>
</g>
<!-- Node15&#45;&gt;Node19 -->
<g id="edge23" class="edge">
<title>Node15&#45;&gt;Node19</title>
<path fill="none" stroke="midnightblue" d="M355,-347.21C374.71,-345.34 395.61,-343.35 415.19,-341.48"/>
<polygon fill="midnightblue" stroke="midnightblue" points="415.67,-344.95 425.29,-340.52 415,-337.98 415.67,-344.95"/>
</g>
<!-- Node20 -->
<g id="node20" class="node">
<title>Node20</title>
<g id="a_node20"><a xlink:href="classprecice_1_1mapping_1_1Mapping.html#af5e507ecc8122e20403beecf634eaa42" target="_top" xlink:title="Scales the consistently mapped output data such that the surface integral of the values on input mesh...">
<polygon fill="white" stroke="black" points="425.5,-269.5 425.5,-299.5 574.5,-299.5 574.5,-269.5 425.5,-269.5"/>
<text text-anchor="start" x="433.5" y="-287.5" font-family="Helvetica,sans-Serif" font-size="10.00">precice::mapping::Mapping</text>
<text text-anchor="middle" x="500" y="-276.5" font-family="Helvetica,sans-Serif" font-size="10.00">::scaleConsistentMapping</text>
</a>
</g>
</g>
<!-- Node15&#45;&gt;Node20 -->
<g id="edge25" class="edge">
<title>Node15&#45;&gt;Node20</title>
<path fill="none" stroke="midnightblue" d="M290.33,-345.83C314.71,-335.54 355.09,-319.29 391,-308.5 398.93,-306.12 407.26,-303.86 415.62,-301.74"/>
<polygon fill="midnightblue" stroke="midnightblue" points="416.55,-305.12 425.43,-299.33 414.88,-298.32 416.55,-305.12"/>
</g>
<!-- Node17&#45;&gt;Node6 -->
<g id="edge21" class="edge">
<title>Node17&#45;&gt;Node6</title>
<path fill="none" stroke="midnightblue" d="M813.24,-386C829.45,-388.97 846.72,-392.14 863.29,-395.17"/>
<polygon fill="midnightblue" stroke="midnightblue" points="863.03,-398.68 873.5,-397.04 864.29,-391.79 863.03,-398.68"/>
</g>
<!-- Node20&#45;&gt;Node6 -->
<g id="edge27" class="edge">
<title>Node20&#45;&gt;Node6</title>
<path fill="none" stroke="midnightblue" d="M574.53,-297.24C664.57,-313.04 808.12,-338.93 832,-347.5 861.94,-358.25 893.46,-376.03 915.92,-389.97"/>
<polygon fill="midnightblue" stroke="midnightblue" points="914.33,-393.11 924.65,-395.49 918.06,-387.19 914.33,-393.11"/>
</g>
<!-- Node20&#45;&gt;Node8 -->
<g id="edge28" class="edge">
<title>Node20&#45;&gt;Node8</title>
<path fill="none" stroke="midnightblue" d="M574.53,-288.66C587.47,-292.54 599.74,-298.75 609,-308.5 675.4,-378.45 580.2,-451.07 645,-522.5 647.95,-525.76 651.29,-528.61 654.88,-531.1"/>
<polygon fill="midnightblue" stroke="midnightblue" points="653.32,-534.24 663.71,-536.3 656.87,-528.21 653.32,-534.24"/>
</g>
<!-- Node20&#45;&gt;Node10 -->
<g id="edge35" class="edge">
<title>Node20&#45;&gt;Node10</title>
<path fill="none" stroke="midnightblue" d="M574.59,-290.86C587.08,-294.61 599.16,-300.2 609,-308.5 641.3,-335.74 622.47,-360.75 645,-396.5 664.22,-426.98 692.87,-456.93 713.19,-476.41"/>
<polygon fill="midnightblue" stroke="midnightblue" points="710.86,-479.02 720.53,-483.34 715.66,-473.93 710.86,-479.02"/>
</g>
<!-- Node20&#45;&gt;Node13 -->
<g id="edge29" class="edge">
<title>Node20&#45;&gt;Node13</title>
<path fill="none" stroke="midnightblue" d="M574.72,-274.91C587.41,-270.4 599.54,-263.89 609,-254.5 650.33,-213.47 604.55,-170.4 645,-128.5 649.81,-123.52 655.44,-119.37 661.52,-115.9"/>
<polygon fill="midnightblue" stroke="midnightblue" points="663.33,-118.91 670.7,-111.3 660.19,-112.66 663.33,-118.91"/>
</g>
<!-- Node20&#45;&gt;Node14 -->
<g id="edge26" class="edge">
<title>Node20&#45;&gt;Node14</title>
<path fill="none" stroke="midnightblue" d="M574.6,-274C587.16,-269.57 599.27,-263.32 609,-254.5 641.84,-224.74 610.21,-188.96 645,-161.5 680.52,-133.46 803.43,-124.59 881.07,-121.78"/>
<polygon fill="midnightblue" stroke="midnightblue" points="881.36,-125.28 891.24,-121.44 881.13,-118.28 881.36,-125.28"/>
</g>
<!-- Node20&#45;&gt;Node17 -->
<g id="edge33" class="edge">
<title>Node20&#45;&gt;Node17</title>
<path fill="none" stroke="midnightblue" d="M574.66,-295.26C586.53,-298.56 598.4,-302.87 609,-308.5 628.44,-318.81 626.07,-331.28 645,-342.5 652.2,-346.77 660.08,-350.51 668.11,-353.77"/>
<polygon fill="midnightblue" stroke="midnightblue" points="666.99,-357.08 677.58,-357.37 669.48,-350.54 666.99,-357.08"/>
</g>
<!-- Node21 -->
<g id="node21" class="node">
<title>Node21</title>
<g id="a_node21"><a xlink:href="namespaceprecice_1_1mesh.html#a9a609bf70347f75933f422fdef0e191d" target="_top" xlink:title="Given the data and the mesh, this function returns the volume integral. Assumes no overlap exists for...">
<polygon fill="white" stroke="black" points="671,-269.5 671,-299.5 806,-299.5 806,-269.5 671,-269.5"/>
<text text-anchor="start" x="679" y="-287.5" font-family="Helvetica,sans-Serif" font-size="10.00">precice::mesh::integrate</text>
<text text-anchor="middle" x="738.5" y="-276.5" font-family="Helvetica,sans-Serif" font-size="10.00">Volume</text>
</a>
</g>
</g>
<!-- Node20&#45;&gt;Node21 -->
<g id="edge30" class="edge">
<title>Node20&#45;&gt;Node21</title>
<path fill="none" stroke="midnightblue" d="M574.53,-284.5C601.95,-284.5 633.12,-284.5 660.81,-284.5"/>
<polygon fill="midnightblue" stroke="midnightblue" points="660.84,-288 670.84,-284.5 660.84,-281 660.84,-288"/>
</g>
<!-- Node22 -->
<g id="node22" class="node">
<title>Node22</title>
<g id="a_node22"><a xlink:href="classprecice_1_1utils_1_1IntraComm.html#a3e69605ac1a3f9f8c82471ba52624f5d" target="_top" xlink:title="True if this process is running the primary rank.">
<polygon fill="white" stroke="black" points="668.5,-220.5 668.5,-250.5 808.5,-250.5 808.5,-220.5 668.5,-220.5"/>
<text text-anchor="start" x="676.5" y="-238.5" font-family="Helvetica,sans-Serif" font-size="10.00">precice::utils::IntraComm</text>
<text text-anchor="middle" x="738.5" y="-227.5" font-family="Helvetica,sans-Serif" font-size="10.00">::isPrimary</text>
</a>
</g>
</g>
<!-- Node20&#45;&gt;Node22 -->
<g id="edge32" class="edge">
<title>Node20&#45;&gt;Node22</title>
<path fill="none" stroke="midnightblue" d="M573.57,-269.47C600.41,-263.9 630.97,-257.57 658.37,-251.89"/>
<polygon fill="midnightblue" stroke="midnightblue" points="659.23,-255.29 668.31,-249.84 657.81,-248.44 659.23,-255.29"/>
</g>
<!-- Node23 -->
<g id="node23" class="node">
<title>Node23</title>
<g id="a_node23"><a xlink:href="classprecice_1_1utils_1_1IntraComm.html#abde303b11e46851ae65dca65ef06daad" target="_top" xlink:title="True if this process is running a secondary rank.">
<polygon fill="white" stroke="black" points="668.5,-171.5 668.5,-201.5 808.5,-201.5 808.5,-171.5 668.5,-171.5"/>
<text text-anchor="start" x="676.5" y="-189.5" font-family="Helvetica,sans-Serif" font-size="10.00">precice::utils::IntraComm</text>
<text text-anchor="middle" x="738.5" y="-178.5" font-family="Helvetica,sans-Serif" font-size="10.00">::isSecondary</text>
</a>
</g>
</g>
<!-- Node20&#45;&gt;Node23 -->
<g id="edge34" class="edge">
<title>Node20&#45;&gt;Node23</title>
<path fill="none" stroke="midnightblue" d="M574.52,-270.67C586.6,-266.58 598.57,-261.3 609,-254.5 630.16,-240.7 623.72,-224.12 645,-210.5 649.34,-207.72 653.99,-205.26 658.81,-203.09"/>
<polygon fill="midnightblue" stroke="midnightblue" points="660.31,-206.26 668.26,-199.25 657.68,-199.77 660.31,-206.26"/>
</g>
<!-- Node21&#45;&gt;Node14 -->
<g id="edge31" class="edge">
<title>Node21&#45;&gt;Node14</title>
<path fill="none" stroke="midnightblue" d="M806.31,-271.8C815.33,-268.57 824.17,-264.54 832,-259.5 880.75,-228.13 919.12,-169.47 936.64,-139.37"/>
<polygon fill="midnightblue" stroke="midnightblue" points="939.87,-140.76 941.76,-130.34 933.78,-137.31 939.87,-140.76"/>
</g>
<!-- Node25 -->
<g id="node25" class="node">
<title>Node25</title>
<g id="a_node25"><a xlink:href="classprecice_1_1utils_1_1ManageUniqueIDs.html#a02be264c279698ae293587b6576088b5" target="_top" xlink:title=" ">
<polygon fill="white" stroke="black" points="421,-0.5 421,-30.5 579,-30.5 579,-0.5 421,-0.5"/>
<text text-anchor="start" x="429" y="-18.5" font-family="Helvetica,sans-Serif" font-size="10.00">precice::utils::ManageUnique</text>
<text text-anchor="middle" x="500" y="-7.5" font-family="Helvetica,sans-Serif" font-size="10.00">IDs::getFreeID</text>
</a>
</g>
</g>
<!-- Node24&#45;&gt;Node25 -->
<g id="edge38" class="edge">
<title>Node24&#45;&gt;Node25</title>
<path fill="none" stroke="midnightblue" d="M345.24,-15.5C366.19,-15.5 389.03,-15.5 410.54,-15.5"/>
<polygon fill="midnightblue" stroke="midnightblue" points="410.65,-19 420.65,-15.5 410.65,-12 410.65,-19"/>
</g>
<!-- Node26&#45;&gt;Node8 -->
<g id="edge40" class="edge">
<title>Node26&#45;&gt;Node8</title>
<path fill="none" stroke="midnightblue" d="M574.53,-565.42C599.55,-562.67 627.7,-559.57 653.48,-556.74"/>
<polygon fill="midnightblue" stroke="midnightblue" points="654.05,-560.2 663.6,-555.62 653.28,-553.24 654.05,-560.2"/>
</g>
<!-- Node26&#45;&gt;Node10 -->
<g id="edge41" class="edge">
<title>Node26&#45;&gt;Node10</title>
<path fill="none" stroke="midnightblue" d="M540.42,-558.5C569.19,-547.81 609.24,-533.45 645,-522.5 651.98,-520.36 659.29,-518.25 666.62,-516.22"/>
<polygon fill="midnightblue" stroke="midnightblue" points="667.86,-519.51 676.59,-513.5 666.02,-512.76 667.86,-519.51"/>
</g>
</g>
</svg>
