<?xml version="1.0" encoding="UTF-8" standalone="no"?>
<!DOCTYPE svg PUBLIC "-//W3C//DTD SVG 1.1//EN"
 "http://www.w3.org/Graphics/SVG/1.1/DTD/svg11.dtd">
<!-- Generated by graphviz version 2.43.0 (0)
 -->
<!-- Title: BOOST_AUTO_TEST_CASE Pages: 1 -->
<!--zoomable 227 -->
<svg id="main" version="1.1" xmlns="http://www.w3.org/2000/svg" xmlns:xlink="http://www.w3.org/1999/xlink" xml:space="preserve" onload="init(evt)">
<style type="text/css"><![CDATA[
.edge:hover path { stroke: red; }
.edge:hover polygon { stroke: red; fill: red; }
]]></style>
<script type="text/javascript"><![CDATA[
var edges = document.getElementsByTagName('g');
if (edges && edges.length) {
  for (var i=0;i<edges.length;i++) {
    if (edges[i].id.substr(0,4)=='edge') {
      edges[i].setAttribute('class','edge');
    }
  }
}
]]></script>
        <defs>
                <circle id="rim" cx="0" cy="0" r="7"/>
                <circle id="rim2" cx="0" cy="0" r="3.5"/>
                <g id="zoomPlus">
                        <use xlink:href="#rim" fill="#404040">
                                <set attributeName="fill" to="#808080" begin="zoomplus.mouseover" end="zoomplus.mouseout"/>
                        </use>
                        <path d="M-4,0h8M0,-4v8" fill="none" stroke="white" stroke-width="1.5" pointer-events="none"/>
                </g>
                <g id="zoomMin">
                        <use xlink:href="#rim" fill="#404040">
                                <set attributeName="fill" to="#808080" begin="zoomminus.mouseover" end="zoomminus.mouseout"/>
                        </use>
                        <path d="M-4,0h8" fill="none" stroke="white" stroke-width="1.5" pointer-events="none"/>
                </g>
                <g id="dirArrow">
                        <path fill="none" stroke="white" stroke-width="1.5" d="M0,-3.0v7 M-2.5,-0.5L0,-3.0L2.5,-0.5"/>
                </g>
               <g id="resetDef">
                       <use xlink:href="#rim2" fill="#404040">
                               <set attributeName="fill" to="#808080" begin="reset.mouseover" end="reset.mouseout"/>
                       </use>
               </g>
        </defs>

<script type="text/javascript">
var viewWidth = 819;
var viewHeight = 227;
var sectionId = 'dynsection-2';
</script>
<script xlink:href="svgpan.js"/>
<svg id="graph" class="graph">
<g id="viewport">
<title>BOOST_AUTO_TEST_CASE</title>
<polygon fill="white" stroke="transparent" points="-4,4 -4,-222.8 815,-222.8 815,4 -4,4"/>
<!-- Node1 -->
<g id="node1" class="node">
<title>Node1</title>
<g id="a_node1"><a xlink:title=" ">
<polygon fill="#bfbfbf" stroke="black" points="0,-110 0,-129 143,-129 143,-110 0,-110"/>
<text text-anchor="middle" x="71.5" y="-117" font-family="Helvetica,sans-Serif" font-size="10.00">BOOST_AUTO_TEST_CASE</text>
</a>
</g>
</g>
<!-- Node2 -->
<g id="node2" class="node">
<title>Node2</title>
<g id="a_node2"><a xlink:href="classprecice_1_1utils_1_1IntraComm.html#a1181baf395fd7e41bb0f922e3c3334cf" target="_top" xlink:title=" ">
<polygon fill="white" stroke="black" points="376,-150.5 376,-180.5 516,-180.5 516,-150.5 376,-150.5"/>
<text text-anchor="start" x="384" y="-168.5" font-family="Helvetica,sans-Serif" font-size="10.00">precice::utils::IntraComm</text>
<text text-anchor="middle" x="446" y="-157.5" font-family="Helvetica,sans-Serif" font-size="10.00">::allreduceSum</text>
</a>
</g>
</g>
<!-- Node1&#45;&gt;Node2 -->
<g id="edge1" class="edge">
<title>Node1&#45;&gt;Node2</title>
<path fill="none" stroke="midnightblue" d="M80.34,-129.08C96.46,-147.92 135.46,-189.26 179,-204.5 246.54,-228.15 269.57,-217.16 340,-204.5 361.78,-200.59 384.94,-192.45 403.95,-184.61"/>
<polygon fill="midnightblue" stroke="midnightblue" points="405.36,-187.82 413.2,-180.69 402.63,-181.37 405.36,-187.82"/>
</g>
<!-- Node7 -->
<g id="node7" class="node">
<title>Node7</title>
<g id="a_node7"><a xlink:href="classprecice_1_1utils_1_1IntraComm.html#a38ad54bcb1c09b6eba4097465b80fb08" target="_top" xlink:title=" ">
<polygon fill="white" stroke="black" points="179,-176 179,-195 340,-195 340,-176 179,-176"/>
<text text-anchor="middle" x="259.5" y="-183" font-family="Helvetica,sans-Serif" font-size="10.00">precice::utils::IntraComm::dot</text>
</a>
</g>
</g>
<!-- Node1&#45;&gt;Node7 -->
<g id="edge7" class="edge">
<title>Node1&#45;&gt;Node7</title>
<path fill="none" stroke="midnightblue" d="M91.33,-129.06C112.29,-139.4 147.4,-155.85 179,-166.5 186.47,-169.02 194.44,-171.34 202.34,-173.43"/>
<polygon fill="midnightblue" stroke="midnightblue" points="201.72,-176.88 212.28,-175.95 203.44,-170.09 201.72,-176.88"/>
</g>
<!-- Node8 -->
<g id="node8" class="node">
<title>Node8</title>
<g id="a_node8"><a xlink:href="namespaceprecice_1_1testing.html#a0819eba8ac83ede1db16e724dd4f5458" target="_top" xlink:title="equals to be used in tests. Compares two std::vectors using a given tolerance. Prints both operands o...">
<polygon fill="white" stroke="black" points="194.5,-50 194.5,-69 324.5,-69 324.5,-50 194.5,-50"/>
<text text-anchor="middle" x="259.5" y="-57" font-family="Helvetica,sans-Serif" font-size="10.00">precice::testing::equals</text>
</a>
</g>
</g>
<!-- Node1&#45;&gt;Node8 -->
<g id="edge9" class="edge">
<title>Node1&#45;&gt;Node8</title>
<path fill="none" stroke="midnightblue" d="M100,-109.93C121.46,-102.53 152.05,-92.12 179,-83.5 191.02,-79.66 204.1,-75.64 216.13,-72.01"/>
<polygon fill="midnightblue" stroke="midnightblue" points="217.36,-75.29 225.93,-69.07 215.35,-68.59 217.36,-75.29"/>
</g>
<!-- Node9 -->
<g id="node9" class="node">
<title>Node9</title>
<g id="a_node9"><a xlink:href="classprecice_1_1utils_1_1IntraComm.html#a3e69605ac1a3f9f8c82471ba52624f5d" target="_top" xlink:title="True if this process is running the primary rank.">
<polygon fill="white" stroke="black" points="189.5,-0.5 189.5,-30.5 329.5,-30.5 329.5,-0.5 189.5,-0.5"/>
<text text-anchor="start" x="197.5" y="-18.5" font-family="Helvetica,sans-Serif" font-size="10.00">precice::utils::IntraComm</text>
<text text-anchor="middle" x="259.5" y="-7.5" font-family="Helvetica,sans-Serif" font-size="10.00">::isPrimary</text>
</a>
</g>
</g>
<!-- Node1&#45;&gt;Node9 -->
<g id="edge10" class="edge">
<title>Node1&#45;&gt;Node9</title>
<path fill="none" stroke="midnightblue" d="M82.89,-109.9C101.08,-93.55 140.44,-60.16 179,-40.5 183.48,-38.22 188.2,-36.09 193.03,-34.13"/>
<polygon fill="midnightblue" stroke="midnightblue" points="194.3,-37.39 202.39,-30.54 191.8,-30.85 194.3,-37.39"/>
</g>
<!-- Node10 -->
<g id="node10" class="node">
<title>Node10</title>
<g id="a_node10"><a xlink:href="classprecice_1_1utils_1_1IntraComm.html#a2b6ac8a54b0f96edb2e3fe47d3a52d62" target="_top" xlink:title="The l2 norm of a vector is calculated on distributed data.">
<polygon fill="white" stroke="black" points="189.5,-126.5 189.5,-156.5 329.5,-156.5 329.5,-126.5 189.5,-126.5"/>
<text text-anchor="start" x="197.5" y="-144.5" font-family="Helvetica,sans-Serif" font-size="10.00">precice::utils::IntraComm</text>
<text text-anchor="middle" x="259.5" y="-133.5" font-family="Helvetica,sans-Serif" font-size="10.00">::l2norm</text>
</a>
</g>
</g>
<!-- Node1&#45;&gt;Node10 -->
<g id="edge11" class="edge">
<title>Node1&#45;&gt;Node10</title>
<path fill="none" stroke="midnightblue" d="M143.08,-127.85C154.89,-129.24 167.2,-130.7 179.2,-132.12"/>
<polygon fill="midnightblue" stroke="midnightblue" points="178.85,-135.6 189.2,-133.3 179.68,-128.65 178.85,-135.6"/>
</g>
<!-- Node11 -->
<g id="node11" class="node">
<title>Node11</title>
<g id="a_node11"><a xlink:href="classprecice_1_1utils_1_1IntraComm.html#ae428ead3ae2209f974fdc35d5d7d41c4" target="_top" xlink:title=" ">
<polygon fill="white" stroke="black" points="376,-101.5 376,-131.5 516,-131.5 516,-101.5 376,-101.5"/>
<text text-anchor="start" x="384" y="-119.5" font-family="Helvetica,sans-Serif" font-size="10.00">precice::utils::IntraComm</text>
<text text-anchor="middle" x="446" y="-108.5" font-family="Helvetica,sans-Serif" font-size="10.00">::reduceSum</text>
</a>
</g>
</g>
<!-- Node1&#45;&gt;Node11 -->
<g id="edge13" class="edge">
<title>Node1&#45;&gt;Node11</title>
<path fill="none" stroke="midnightblue" d="M143.24,-117.23C155.18,-116.92 167.44,-116.66 179,-116.5 241.66,-115.62 312.64,-115.67 365.5,-115.92"/>
<polygon fill="midnightblue" stroke="midnightblue" points="365.81,-119.42 375.83,-115.97 365.84,-112.42 365.81,-119.42"/>
</g>
<!-- Node3 -->
<g id="node3" class="node">
<title>Node3</title>
<g id="a_node3"><a xlink:href="classprecice_1_1span.html#af931d3b40d7ea2cf93ca672c20637c98" target="_top" xlink:title=" ">
<polygon fill="white" stroke="black" points="552,-150 552,-169 666,-169 666,-150 552,-150"/>
<text text-anchor="middle" x="609" y="-157" font-family="Helvetica,sans-Serif" font-size="10.00">precice::span::begin</text>
</a>
</g>
</g>
<!-- Node2&#45;&gt;Node3 -->
<g id="edge2" class="edge">
<title>Node2&#45;&gt;Node3</title>
<path fill="none" stroke="midnightblue" d="M516.21,-162.92C524.7,-162.6 533.35,-162.28 541.79,-161.97"/>
<polygon fill="midnightblue" stroke="midnightblue" points="542.08,-165.46 551.94,-161.59 541.82,-158.46 542.08,-165.46"/>
</g>
<!-- Node5 -->
<g id="node5" class="node">
<title>Node5</title>
<g id="a_node5"><a xlink:href="classprecice_1_1span.html#a4053b668c9fea03f015cc68d3e014105" target="_top" xlink:title=" ">
<polygon fill="white" stroke="black" points="556.5,-112 556.5,-131 661.5,-131 661.5,-112 556.5,-112"/>
<text text-anchor="middle" x="609" y="-119" font-family="Helvetica,sans-Serif" font-size="10.00">precice::span::end</text>
</a>
</g>
</g>
<!-- Node2&#45;&gt;Node5 -->
<g id="edge4" class="edge">
<title>Node2&#45;&gt;Node5</title>
<path fill="none" stroke="midnightblue" d="M501.96,-150.48C521.88,-145.04 544.13,-138.96 563.08,-133.78"/>
<polygon fill="midnightblue" stroke="midnightblue" points="564.23,-137.09 572.95,-131.08 562.38,-130.34 564.23,-137.09"/>
</g>
<!-- Node4 -->
<g id="node4" class="node">
<title>Node4</title>
<g id="a_node4"><a xlink:href="classprecice_1_1span.html#a628d875cdc1751afca0bfa66213db007" target="_top" xlink:title=" ">
<polygon fill="white" stroke="black" points="702,-150 702,-169 811,-169 811,-150 702,-150"/>
<text text-anchor="middle" x="756.5" y="-157" font-family="Helvetica,sans-Serif" font-size="10.00">precice::span::data</text>
</a>
</g>
</g>
<!-- Node3&#45;&gt;Node4 -->
<g id="edge3" class="edge">
<title>Node3&#45;&gt;Node4</title>
<path fill="none" stroke="midnightblue" d="M666.25,-159.5C674.55,-159.5 683.16,-159.5 691.6,-159.5"/>
<polygon fill="midnightblue" stroke="midnightblue" points="691.78,-163 701.78,-159.5 691.78,-156 691.78,-163"/>
</g>
<!-- Node5&#45;&gt;Node4 -->
<g id="edge5" class="edge">
<title>Node5&#45;&gt;Node4</title>
<path fill="none" stroke="midnightblue" d="M646.72,-131.09C665.66,-136.04 688.96,-142.12 709.13,-147.39"/>
<polygon fill="midnightblue" stroke="midnightblue" points="708.49,-150.84 719.05,-149.98 710.26,-144.07 708.49,-150.84"/>
</g>
<!-- Node6 -->
<g id="node6" class="node">
<title>Node6</title>
<g id="a_node6"><a xlink:href="classprecice_1_1span.html#a47dd9f5471352ea4105ab001836273ee" target="_top" xlink:title=" ">
<polygon fill="white" stroke="black" points="703,-112 703,-131 810,-131 810,-112 703,-112"/>
<text text-anchor="middle" x="756.5" y="-119" font-family="Helvetica,sans-Serif" font-size="10.00">precice::span::size</text>
</a>
</g>
</g>
<!-- Node5&#45;&gt;Node6 -->
<g id="edge6" class="edge">
<title>Node5&#45;&gt;Node6</title>
<path fill="none" stroke="midnightblue" d="M661.71,-121.5C671.75,-121.5 682.39,-121.5 692.74,-121.5"/>
<polygon fill="midnightblue" stroke="midnightblue" points="692.98,-125 702.98,-121.5 692.98,-118 692.98,-125"/>
</g>
<!-- Node7&#45;&gt;Node2 -->
<g id="edge8" class="edge">
<title>Node7&#45;&gt;Node2</title>
<path fill="none" stroke="midnightblue" d="M340.08,-176.87C348.64,-175.95 357.34,-175 365.88,-174.08"/>
<polygon fill="midnightblue" stroke="midnightblue" points="366.26,-177.56 375.83,-173 365.51,-170.6 366.26,-177.56"/>
</g>
<!-- Node10&#45;&gt;Node2 -->
<g id="edge12" class="edge">
<title>Node10&#45;&gt;Node2</title>
<path fill="none" stroke="midnightblue" d="M329.73,-150.5C341.55,-152.04 353.91,-153.65 365.96,-155.22"/>
<polygon fill="midnightblue" stroke="midnightblue" points="365.63,-158.71 376,-156.52 366.53,-151.76 365.63,-158.71"/>
</g>
<!-- Node11&#45;&gt;Node3 -->
<g id="edge14" class="edge">
<title>Node11&#45;&gt;Node3</title>
<path fill="none" stroke="midnightblue" d="M503.31,-131.54C522.59,-136.69 543.91,-142.38 562.25,-147.28"/>
<polygon fill="midnightblue" stroke="midnightblue" points="561.54,-150.71 572.11,-149.91 563.35,-143.95 561.54,-150.71"/>
</g>
<!-- Node11&#45;&gt;Node5 -->
<g id="edge15" class="edge">
<title>Node11&#45;&gt;Node5</title>
<path fill="none" stroke="midnightblue" d="M516.21,-118.65C526.21,-118.96 536.44,-119.28 546.27,-119.58"/>
<polygon fill="midnightblue" stroke="midnightblue" points="546.25,-123.08 556.35,-119.9 546.47,-116.09 546.25,-123.08"/>
</g>
</g>
</svg>
        <g id="navigator" transform="translate(0 0)" fill="#404254">
                <rect fill="#f2f5e9" fill-opacity="0.5" stroke="#606060" stroke-width=".5" x="0" y="0" width="60" height="60"/>
                <use id="zoomplus" xlink:href="#zoomPlus" x="17" y="9" onmousedown="handleZoom(evt,'in')"/>
                <use id="zoomminus" xlink:href="#zoomMin" x="42" y="9" onmousedown="handleZoom(evt,'out')"/>
                <use id="reset" xlink:href="#resetDef" x="30" y="36" onmousedown="handleReset()"/>
                <g id="arrowUp" xlink:href="#dirArrow" transform="translate(30 24)" onmousedown="handlePan(0,-1)">
                  <use xlink:href="#rim" fill="#404040">
                        <set attributeName="fill" to="#808080" begin="arrowUp.mouseover" end="arrowUp.mouseout"/>
                  </use>
                  <path fill="none" stroke="white" stroke-width="1.5" d="M0,-3.0v7 M-2.5,-0.5L0,-3.0L2.5,-0.5"/>
                </g>
                <g id="arrowRight" xlink:href="#dirArrow" transform="rotate(90) translate(36 -43)" onmousedown="handlePan(1,0)">
                  <use xlink:href="#rim" fill="#404040">
                        <set attributeName="fill" to="#808080" begin="arrowRight.mouseover" end="arrowRight.mouseout"/>
                  </use>
                  <path fill="none" stroke="white" stroke-width="1.5" d="M0,-3.0v7 M-2.5,-0.5L0,-3.0L2.5,-0.5"/>
                </g>
                <g id="arrowDown" xlink:href="#dirArrow" transform="rotate(180) translate(-30 -48)" onmousedown="handlePan(0,1)">
                  <use xlink:href="#rim" fill="#404040">
                        <set attributeName="fill" to="#808080" begin="arrowDown.mouseover" end="arrowDown.mouseout"/>
                  </use>
                  <path fill="none" stroke="white" stroke-width="1.5" d="M0,-3.0v7 M-2.5,-0.5L0,-3.0L2.5,-0.5"/>
                </g>
                <g id="arrowLeft" xlink:href="#dirArrow" transform="rotate(270) translate(-36 17)" onmousedown="handlePan(-1,0)">
                  <use xlink:href="#rim" fill="#404040">
                        <set attributeName="fill" to="#808080" begin="arrowLeft.mouseover" end="arrowLeft.mouseout"/>
                  </use>
                  <path fill="none" stroke="white" stroke-width="1.5" d="M0,-3.0v7 M-2.5,-0.5L0,-3.0L2.5,-0.5"/>
                </g>
        </g>
        <svg viewBox="0 0 15 15" width="100%" height="30px" preserveAspectRatio="xMaxYMin meet">
         <g id="arrow_out" transform="scale(0.3 0.3)">
          <a xlink:href="ParallelMatrixOperationsTest_8cpp_a1a97c2b6486684fef1d86eb401ed73b4_cgraph_org.svg" target="_base">
           <rect id="button" ry="5" rx="5" y="6" x="6" height="38" width="38"
                fill="#f2f5e9" fill-opacity="0.5" stroke="#606060" stroke-width="1.0"/>
           <path id="arrow"
             d="M 11.500037,31.436501 C 11.940474,20.09759 22.043105,11.32322 32.158766,21.979434 L 37.068811,17.246167 C 37.068811,17.246167 37.088388,32 37.088388,32 L 22.160133,31.978069 C 22.160133,31.978069 26.997745,27.140456 26.997745,27.140456 C 18.528582,18.264221 13.291696,25.230495 11.500037,31.436501 z"
             style="fill:#404040;"/>
          </a>
         </g>
        </svg>
</svg>
