<?xml version="1.0" encoding="UTF-8" standalone="no"?>
<!DOCTYPE svg PUBLIC "-//W3C//DTD SVG 1.1//EN"
 "http://www.w3.org/Graphics/SVG/1.1/DTD/svg11.dtd">
<!-- Generated by graphviz version 2.43.0 (0)
 -->
<!-- Title: BOOST_AUTO_TEST_CASE Pages: 1 -->
<!--zoomable 612 -->

<svg id="main" version="1.1" xmlns="http://www.w3.org/2000/svg" xmlns:xlink="http://www.w3.org/1999/xlink" xml:space="preserve" onload="init(evt)">
<style type="text/css"><![CDATA[
.node, .edge {opacity: 0.7;}
.node.selected, .edge.selected {opacity: 1;}
.edge:hover path { stroke: red; }
.edge:hover polygon { stroke: red; fill: red; }
]]></style>

<defs>
  <circle id="rim" cx="0" cy="0" r="7"/>
  <circle id="rim2" cx="0" cy="0" r="3.5"/>
  <g id="zoomPlus">
    <use xlink:href="#rim" fill="#404040"><set attributeName="fill" to="#808080" begin="zoomplus.mouseover" end="zoomplus.mouseout"/></use>
    <path d="M-4,0h8M0,-4v8" fill="none" stroke="white" stroke-width="1.5" pointer-events="none"/>
  </g>
  <g id="zoomMin">
    <use xlink:href="#rim" fill="#404040"><set attributeName="fill" to="#808080" begin="zoomminus.mouseover" end="zoomminus.mouseout"/></use>
    <path d="M-4,0h8" fill="none" stroke="white" stroke-width="1.5" pointer-events="none"/>
  </g>
  <g id="arrowUp" transform="translate(30 24)">
    <use xlink:href="#rim"/>
    <path pointer-events="none" fill="none" stroke="white" stroke-width="1.5" d="M0,-3.0v7 M-2.5,-0.5L0,-3.0L2.5,-0.5"/>
  </g>
  <g id="arrowRight" transform="rotate(90) translate(36 -43)">
    <use xlink:href="#rim"/>
    <path pointer-events="none" fill="none" stroke="white" stroke-width="1.5" d="M0,-3.0v7 M-2.5,-0.5L0,-3.0L2.5,-0.5"/>
  </g>
  <g id="arrowDown" transform="rotate(180) translate(-30 -48)">
    <use xlink:href="#rim"/>
    <path pointer-events="none" fill="none" stroke="white" stroke-width="1.5" d="M0,-3.0v7 M-2.5,-0.5L0,-3.0L2.5,-0.5"/>
  </g>
  <g id="arrowLeft" transform="rotate(270) translate(-36 17)">
    <use xlink:href="#rim"/>
    <path pointer-events="none" fill="none" stroke="white" stroke-width="1.5" d="M0,-3.0v7 M-2.5,-0.5L0,-3.0L2.5,-0.5"/>
  </g>
  <g id="resetDef">
    <use xlink:href="#rim2" fill="#404040"><set attributeName="fill" to="#808080" begin="reset.mouseover" end="reset.mouseout"/></use>
  </g>
</defs>
<script type="application/ecmascript">
var viewWidth = 862;
var viewHeight = 612;
var sectionId = 'dynsection-3';
</script>
<script type="application/ecmascript" xlink:href="svg.min.js"/>
<svg id="graph" class="graph">
<g id="viewport">
<title>BOOST_AUTO_TEST_CASE</title>
<!-- Node1 -->
<g id="Node000001" class="node">
<title>Node1</title>
<g id="a_Node000001"><a xlink:title=" ">
<polygon fill="#999999" stroke="#666666" points="143,-245.5 0,-245.5 0,-226.5 143,-226.5 143,-245.5"/>
<text text-anchor="middle" x="71.5" y="-233.5" font-family="Helvetica,sans-Serif" font-size="10.00">BOOST_AUTO_TEST_CASE</text>
</a>
</g>
</g>
<!-- Node2 -->
<g id="Node000002" class="node">
<title>Node2</title>
<g id="a_Node000002"><a target="_parent" xlink:href="http://en.cppreference.com/w/cpp/container/vector/at.html#" xlink:title=" ">
<polygon fill="white" stroke="#666666" points="265.5,-264.5 181.5,-264.5 181.5,-245.5 265.5,-245.5 265.5,-264.5"/>
<text text-anchor="middle" x="223.5" y="-252.5" font-family="Helvetica,sans-Serif" font-size="10.00">std::vector::at</text>
</a>
</g>
</g>
<!-- Node1&#45;&gt;Node2 -->
<g id="edge1_Node000001_Node000002" class="edge">
<title>Node1&#45;&gt;Node2</title>
<g id="a_edge1_Node000001_Node000002"><a xlink:title=" ">
<path fill="none" stroke="#63b8ff" d="M143.11,-244.94C152.6,-246.15 162.19,-247.36 171.27,-248.51"/>
<polygon fill="#63b8ff" stroke="#63b8ff" points="170.9,-251.99 181.26,-249.78 171.78,-245.05 170.9,-251.99"/>
</a>
</g>
</g>
<!-- Node3 -->
<g id="Node000003" class="node">
<title>Node3</title>
<g id="a_Node000003"><a xlink:href="PartitionOfUnityMappingTest_8cpp.html#a572fa5dd506a874a14b92de3e4a28d8e" target="_top" xlink:title=" ">
<polygon fill="white" stroke="#666666" points="268,-227.5 179,-227.5 179,-208.5 268,-208.5 268,-227.5"/>
<text text-anchor="middle" x="223.5" y="-215.5" font-family="Helvetica,sans-Serif" font-size="10.00">testDistributed</text>
</a>
</g>
</g>
<!-- Node1&#45;&gt;Node3 -->
<g id="edge2_Node000001_Node000003" class="edge">
<title>Node1&#45;&gt;Node3</title>
<g id="a_edge2_Node000001_Node000003"><a xlink:title=" ">
<path fill="none" stroke="#63b8ff" d="M143.11,-227.53C151.75,-226.49 160.47,-225.44 168.81,-224.44"/>
<polygon fill="#63b8ff" stroke="#63b8ff" points="169.25,-227.92 178.76,-223.25 168.42,-220.97 169.25,-227.92"/>
</a>
</g>
</g>
<!-- Node4 -->
<g id="Node000004" class="node">
<title>Node4</title>
<g id="a_Node000004"><a xlink:href="classprecice_1_1mapping_1_1Mapping.html#abf2679ec4bbb86bd2380b088528cc1ff" target="_top" xlink:title="Computes the mapping coefficients from the in&#45; and output mesh.">
<polygon fill="white" stroke="#666666" points="466.5,-581 317.5,-581 317.5,-551 466.5,-551 466.5,-581"/>
<text text-anchor="start" x="325.5" y="-569" font-family="Helvetica,sans-Serif" font-size="10.00">precice::mapping::Mapping</text>
<text text-anchor="middle" x="392" y="-558" font-family="Helvetica,sans-Serif" font-size="10.00">::computeMapping</text>
</a>
</g>
</g>
<!-- Node3&#45;&gt;Node4 -->
<g id="edge3_Node000003_Node000004" class="edge">
<title>Node3&#45;&gt;Node4</title>
<g id="a_edge3_Node000003_Node000004"><a xlink:title=" ">
<path fill="none" stroke="#63b8ff" d="M257.2,-227.63C261.36,-230.09 265.15,-233.16 268,-237 349.32,-346.63 215.07,-438.45 304,-542 305.53,-543.79 307.19,-545.45 308.94,-546.99"/>
<polygon fill="#63b8ff" stroke="#63b8ff" points="307.07,-549.96 317.22,-553.02 311.2,-544.3 307.07,-549.96"/>
</a>
</g>
</g>
<!-- Node5 -->
<g id="Node000005" class="node">
<title>Node5</title>
<g id="a_Node000005"><a xlink:href="classprecice_1_1mesh_1_1Mesh.html#a6e3fec22b430b35daccd92ef560d2c87" target="_top" xlink:title="Create only data for vertex.">
<polygon fill="white" stroke="#666666" points="450.5,-533 333.5,-533 333.5,-503 450.5,-503 450.5,-533"/>
<text text-anchor="start" x="341.5" y="-521" font-family="Helvetica,sans-Serif" font-size="10.00">precice::mesh::Mesh</text>
<text text-anchor="middle" x="392" y="-510" font-family="Helvetica,sans-Serif" font-size="10.00">::createData</text>
</a>
</g>
</g>
<!-- Node3&#45;&gt;Node5 -->
<g id="edge4_Node000003_Node000005" class="edge">
<title>Node3&#45;&gt;Node5</title>
<g id="a_edge4_Node000003_Node000005"><a xlink:title=" ">
<path fill="none" stroke="#63b8ff" d="M255.8,-227.56C260.36,-230.05 264.64,-233.15 268,-237 306.81,-281.56 281.23,-310.47 304,-365 324.08,-413.09 356.02,-465.01 375.1,-494.31"/>
<polygon fill="#63b8ff" stroke="#63b8ff" points="372.4,-496.56 380.81,-503 378.24,-492.72 372.4,-496.56"/>
</a>
</g>
</g>
<!-- Node9 -->
<g id="Node000009" class="node">
<title>Node9</title>
<g id="a_Node000009"><a xlink:href="PartitionOfUnityMappingTest_8cpp.html#acab76e6e014dd25e845f97554d1ac77f" target="_top" xlink:title=" ">
<polygon fill="white" stroke="#666666" points="448.5,-355.5 335.5,-355.5 335.5,-336.5 448.5,-336.5 448.5,-355.5"/>
<text text-anchor="middle" x="392" y="-343.5" font-family="Helvetica,sans-Serif" font-size="10.00">getDistributedMesh</text>
</a>
</g>
</g>
<!-- Node3&#45;&gt;Node9 -->
<g id="edge8_Node000003_Node000009" class="edge">
<title>Node3&#45;&gt;Node9</title>
<g id="a_edge8_Node000003_Node000009"><a xlink:title=" ">
<path fill="none" stroke="#63b8ff" d="M252.99,-227.68C258.3,-230.22 263.56,-233.31 268,-237 289.91,-255.19 283.62,-270.12 304,-290 321.3,-306.88 344.45,-321.48 362.52,-331.54"/>
<polygon fill="#63b8ff" stroke="#63b8ff" points="360.98,-334.69 371.44,-336.38 364.32,-328.54 360.98,-334.69"/>
</a>
</g>
</g>
<!-- Node18 -->
<g id="Node000018" class="node">
<title>Node18</title>
<g id="a_Node000018"><a xlink:href="classprecice_1_1mesh_1_1Data.html#aac567292457ed1e5bb4f8014e1542f0a" target="_top" xlink:title="Returns the ID of the data set (supposed to be unique).">
<polygon fill="white" stroke="#666666" points="449,-281 335,-281 335,-251 449,-251 449,-281"/>
<text text-anchor="start" x="343" y="-269" font-family="Helvetica,sans-Serif" font-size="10.00">precice::mesh::Data</text>
<text text-anchor="middle" x="392" y="-258" font-family="Helvetica,sans-Serif" font-size="10.00">::getID</text>
</a>
</g>
</g>
<!-- Node3&#45;&gt;Node18 -->
<g id="edge20_Node000003_Node000018" class="edge">
<title>Node3&#45;&gt;Node18</title>
<g id="a_edge20_Node000003_Node000018"><a xlink:title=" ">
<path fill="none" stroke="#63b8ff" d="M255.41,-227.52C270.1,-232 287.93,-237.36 304,-242 311.12,-244.06 318.57,-246.17 326,-248.25"/>
<polygon fill="#63b8ff" stroke="#63b8ff" points="325.14,-251.65 335.72,-250.96 327.02,-244.9 325.14,-251.65"/>
</a>
</g>
</g>
<!-- Node19 -->
<g id="Node000019" class="node">
<title>Node19</title>
<g id="a_Node000019"><a xlink:href="classprecice_1_1mapping_1_1Mapping.html#ad4c975ae2b8f1125a6707ab7857018f6" target="_top" xlink:title="Returns true, if the mapping has been computed.">
<polygon fill="white" stroke="#666666" points="466.5,-233 317.5,-233 317.5,-203 466.5,-203 466.5,-233"/>
<text text-anchor="start" x="325.5" y="-221" font-family="Helvetica,sans-Serif" font-size="10.00">precice::mapping::Mapping</text>
<text text-anchor="middle" x="392" y="-210" font-family="Helvetica,sans-Serif" font-size="10.00">::hasComputedMapping</text>
</a>
</g>
</g>
<!-- Node3&#45;&gt;Node19 -->
<g id="edge21_Node000003_Node000019" class="edge">
<title>Node3&#45;&gt;Node19</title>
<g id="a_edge21_Node000003_Node000019"><a xlink:title=" ">
<path fill="none" stroke="#63b8ff" d="M268.25,-218C280.22,-218 293.62,-218 307.04,-218"/>
<polygon fill="#63b8ff" stroke="#63b8ff" points="307.29,-221.5 317.29,-218 307.29,-214.5 307.29,-221.5"/>
</a>
</g>
</g>
<!-- Node20 -->
<g id="Node000020" class="node">
<title>Node20</title>
<g id="a_Node000020"><a xlink:href="classprecice_1_1mapping_1_1Mapping.html#adac09460b4983629f85cec2a9f1fe75c" target="_top" xlink:title=" ">
<polygon fill="white" stroke="#666666" points="480,-166.5 304,-166.5 304,-147.5 480,-147.5 480,-166.5"/>
<text text-anchor="middle" x="392" y="-154.5" font-family="Helvetica,sans-Serif" font-size="10.00">precice::mapping::Mapping::map</text>
</a>
</g>
</g>
<!-- Node3&#45;&gt;Node20 -->
<g id="edge22_Node000003_Node000020" class="edge">
<title>Node3&#45;&gt;Node20</title>
<g id="a_edge22_Node000003_Node000020"><a xlink:title=" ">
<path fill="none" stroke="#63b8ff" d="M250.52,-208.47C278.66,-198.16 323.71,-181.65 355.19,-170.12"/>
<polygon fill="#63b8ff" stroke="#63b8ff" points="356.71,-173.29 364.89,-166.56 354.3,-166.72 356.71,-173.29"/>
</a>
</g>
</g>
<!-- Node25 -->
<g id="Node000025" class="node">
<title>Node25</title>
<g id="a_Node000025"><a xlink:href="namespaceprecice_1_1testing.html#a08533fd83bad3d7f27ea7f4a35a14aa4" target="_top" xlink:title=" ">
<polygon fill="white" stroke="#666666" points="470,-78.5 314,-78.5 314,-59.5 470,-59.5 470,-78.5"/>
<text text-anchor="middle" x="392" y="-66.5" font-family="Helvetica,sans-Serif" font-size="10.00">precice::testing::nextMeshID</text>
</a>
</g>
</g>
<!-- Node3&#45;&gt;Node25 -->
<g id="edge28_Node000003_Node000025" class="edge">
<title>Node3&#45;&gt;Node25</title>
<g id="a_edge28_Node000003_Node000025"><a xlink:title=" ">
<path fill="none" stroke="#63b8ff" d="M227.45,-208.32C235.41,-183.89 259.81,-119.44 304,-88 306.71,-86.07 309.58,-84.34 312.56,-82.77"/>
<polygon fill="#63b8ff" stroke="#63b8ff" points="314.14,-85.9 321.79,-78.57 311.24,-79.52 314.14,-85.9"/>
</a>
</g>
</g>
<!-- Node27 -->
<g id="Node000027" class="node">
<title>Node27</title>
<g id="a_Node000027"><a xlink:href="classprecice_1_1mapping_1_1Mapping.html#a5bf2ecf9adb1ae66977c1223f841a61f" target="_top" xlink:title="Sets input and output meshes carrying data to be mapped.">
<polygon fill="white" stroke="#666666" points="466.5,-127 317.5,-127 317.5,-97 466.5,-97 466.5,-127"/>
<text text-anchor="start" x="325.5" y="-115" font-family="Helvetica,sans-Serif" font-size="10.00">precice::mapping::Mapping</text>
<text text-anchor="middle" x="392" y="-104" font-family="Helvetica,sans-Serif" font-size="10.00">::setMeshes</text>
</a>
</g>
</g>
<!-- Node3&#45;&gt;Node27 -->
<g id="edge30_Node000003_Node000027" class="edge">
<title>Node3&#45;&gt;Node27</title>
<g id="a_edge30_Node000003_Node000027"><a xlink:title=" ">
<path fill="none" stroke="#63b8ff" d="M231.51,-208.49C244.17,-191.98 272.49,-157.96 304,-139 308.95,-136.02 314.26,-133.35 319.72,-130.94"/>
<polygon fill="#63b8ff" stroke="#63b8ff" points="321.08,-134.17 329.02,-127.16 318.44,-127.69 321.08,-134.17"/>
</a>
</g>
</g>
<!-- Node28 -->
<g id="Node000028" class="node">
<title>Node28</title>
<g id="a_Node000028"><a xlink:href="classprecice_1_1mesh_1_1Data.html#abbb07782ab096a0560666638a618fb17" target="_top" xlink:title="Returns a reference to the data values.">
<polygon fill="white" stroke="#666666" points="449,-41 335,-41 335,-11 449,-11 449,-41"/>
<text text-anchor="start" x="343" y="-29" font-family="Helvetica,sans-Serif" font-size="10.00">precice::mesh::Data</text>
<text text-anchor="middle" x="392" y="-18" font-family="Helvetica,sans-Serif" font-size="10.00">::values</text>
</a>
</g>
</g>
<!-- Node3&#45;&gt;Node28 -->
<g id="edge33_Node000003_Node000028" class="edge">
<title>Node3&#45;&gt;Node28</title>
<g id="a_edge33_Node000003_Node000028"><a xlink:title=" ">
<path fill="none" stroke="#63b8ff" d="M226.17,-208.31C231.67,-179.53 251.88,-93.81 304,-50 310.22,-44.77 317.5,-40.67 325.15,-37.46"/>
<polygon fill="#63b8ff" stroke="#63b8ff" points="326.44,-40.72 334.61,-33.98 324.02,-34.15 326.44,-40.72"/>
</a>
</g>
</g>
<!-- Node6 -->
<g id="Node000006" class="node">
<title>Node6</title>
<g id="a_Node000006"><a target="_parent" xlink:href="http://en.cppreference.com/w/cpp/container/vector/back.html#" xlink:title=" ">
<polygon fill="white" stroke="#666666" points="644,-603.5 546,-603.5 546,-584.5 644,-584.5 644,-603.5"/>
<text text-anchor="middle" x="595" y="-591.5" font-family="Helvetica,sans-Serif" font-size="10.00">std::vector::back</text>
</a>
</g>
</g>
<!-- Node5&#45;&gt;Node6 -->
<g id="edge5_Node000005_Node000006" class="edge">
<title>Node5&#45;&gt;Node6</title>
<g id="a_edge5_Node000005_Node000006"><a xlink:title=" ">
<path fill="none" stroke="#63b8ff" d="M450.82,-530.52C460.81,-533.64 470.9,-537.43 480,-542 498.12,-551.09 498.02,-560.64 516,-570 524.58,-574.47 534.14,-578.26 543.53,-581.41"/>
<polygon fill="#63b8ff" stroke="#63b8ff" points="542.63,-584.8 553.22,-584.48 544.74,-578.13 542.63,-584.8"/>
</a>
</g>
</g>
<!-- Node7 -->
<g id="Node000007" class="node">
<title>Node7</title>
<g id="a_Node000007"><a xlink:href="classprecice_1_1mesh_1_1Mesh.html#aceb3eabb4f8e40a44d5d1c2822ba7b56" target="_top" xlink:title="Allows access to all data.">
<polygon fill="white" stroke="#666666" points="840.5,-549 723.5,-549 723.5,-519 840.5,-519 840.5,-549"/>
<text text-anchor="start" x="731.5" y="-537" font-family="Helvetica,sans-Serif" font-size="10.00">precice::mesh::Mesh</text>
<text text-anchor="middle" x="782" y="-526" font-family="Helvetica,sans-Serif" font-size="10.00">::data</text>
</a>
</g>
</g>
<!-- Node5&#45;&gt;Node7 -->
<g id="edge6_Node000005_Node000007" class="edge">
<title>Node5&#45;&gt;Node7</title>
<g id="a_edge6_Node000005_Node000007"><a xlink:title=" ">
<path fill="none" stroke="#63b8ff" d="M450.67,-528.78C471.21,-532.12 494.56,-535.35 516,-537 586.02,-542.38 603.78,-537.98 674,-537 686.61,-536.82 700.05,-536.53 713,-536.19"/>
<polygon fill="#63b8ff" stroke="#63b8ff" points="713.35,-539.68 723.25,-535.92 713.16,-532.69 713.35,-539.68"/>
</a>
</g>
</g>
<!-- Node8 -->
<g id="Node000008" class="node">
<title>Node8</title>
<g id="a_Node000008"><a target="_parent" xlink:href="http://en.cppreference.com/w/cpp/container/vector/push_back.html#" xlink:title=" ">
<polygon fill="white" stroke="#666666" points="658,-527.5 532,-527.5 532,-508.5 658,-508.5 658,-527.5"/>
<text text-anchor="middle" x="595" y="-515.5" font-family="Helvetica,sans-Serif" font-size="10.00">std::vector::push_back</text>
</a>
</g>
</g>
<!-- Node5&#45;&gt;Node8 -->
<g id="edge7_Node000005_Node000008" class="edge">
<title>Node5&#45;&gt;Node8</title>
<g id="a_edge7_Node000005_Node000008"><a xlink:title=" ">
<path fill="none" stroke="#63b8ff" d="M450.6,-518C472.73,-518 498.28,-518 521.62,-518"/>
<polygon fill="#63b8ff" stroke="#63b8ff" points="521.82,-521.5 531.82,-518 521.82,-514.5 521.82,-521.5"/>
</a>
</g>
</g>
<!-- Node10 -->
<g id="Node000010" class="node">
<title>Node10</title>
<g id="a_Node000010"><a xlink:href="PartitionOfUnityMappingTest_8cpp.html#a091feb1893c75899e59fa939e678debe" target="_top" xlink:title=" ">
<polygon fill="white" stroke="#666666" points="641.5,-355.5 548.5,-355.5 548.5,-336.5 641.5,-336.5 641.5,-355.5"/>
<text text-anchor="middle" x="595" y="-343.5" font-family="Helvetica,sans-Serif" font-size="10.00">addGlobalIndex</text>
</a>
</g>
</g>
<!-- Node9&#45;&gt;Node10 -->
<g id="edge9_Node000009_Node000010" class="edge">
<title>Node9&#45;&gt;Node10</title>
<g id="a_edge9_Node000009_Node000010"><a xlink:title=" ">
<path fill="none" stroke="#63b8ff" d="M448.72,-346C476.66,-346 510.4,-346 538.33,-346"/>
<polygon fill="#63b8ff" stroke="#63b8ff" points="538.34,-349.5 548.34,-346 538.34,-342.5 538.34,-349.5"/>
</a>
</g>
</g>
<!-- Node11 -->
<g id="Node000011" class="node">
<title>Node11</title>
<g id="a_Node000011"><a xlink:href="classprecice_1_1mesh_1_1Mesh.html#afa920f8d8d32076837ae5e3dc28b0eea" target="_top" xlink:title="Allocates memory for the vertex data values and corresponding gradient values.">
<polygon fill="white" stroke="#666666" points="653.5,-490 536.5,-490 536.5,-460 653.5,-460 653.5,-490"/>
<text text-anchor="start" x="544.5" y="-478" font-family="Helvetica,sans-Serif" font-size="10.00">precice::mesh::Mesh</text>
<text text-anchor="middle" x="595" y="-467" font-family="Helvetica,sans-Serif" font-size="10.00">::allocateDataValues</text>
</a>
</g>
</g>
<!-- Node9&#45;&gt;Node11 -->
<g id="edge10_Node000009_Node000011" class="edge">
<title>Node9&#45;&gt;Node11</title>
<g id="a_edge10_Node000009_Node000011"><a xlink:title=" ">
<path fill="none" stroke="#63b8ff" d="M401.58,-355.6C420.35,-376.06 467.28,-424.22 516,-451 519.46,-452.9 523.1,-454.68 526.82,-456.33"/>
<polygon fill="#63b8ff" stroke="#63b8ff" points="525.65,-459.63 536.24,-460.17 528.3,-453.15 525.65,-459.63"/>
</a>
</g>
</g>
<!-- Node13 -->
<g id="Node000013" class="node">
<title>Node13</title>
<g id="a_Node000013"><a target="_parent" xlink:href="http://en.cppreference.com/w/cpp/container/deque/back.html#" xlink:title=" ">
<polygon fill="white" stroke="#666666" points="830.5,-396.5 733.5,-396.5 733.5,-377.5 830.5,-377.5 830.5,-396.5"/>
<text text-anchor="middle" x="782" y="-384.5" font-family="Helvetica,sans-Serif" font-size="10.00">std::deque::back</text>
</a>
</g>
</g>
<!-- Node9&#45;&gt;Node13 -->
<g id="edge13_Node000009_Node000013" class="edge">
<title>Node9&#45;&gt;Node13</title>
<g id="a_edge13_Node000009_Node000013"><a xlink:title=" ">
<path fill="none" stroke="#63b8ff" d="M448.61,-355.44C469.67,-358.79 493.9,-362.38 516,-365 587.06,-373.43 669.23,-379.72 722.99,-383.36"/>
<polygon fill="#63b8ff" stroke="#63b8ff" points="722.81,-386.86 733.03,-384.04 723.28,-379.88 722.81,-386.86"/>
</a>
</g>
</g>
<!-- Node14 -->
<g id="Node000014" class="node">
<title>Node14</title>
<g id="a_Node000014"><a xlink:href="classprecice_1_1mesh_1_1Mesh.html#ae9d36ab0ee34fa88e978b413f91eaabf" target="_top" xlink:title="Creates and initializes a Vertex object.">
<polygon fill="white" stroke="#666666" points="653.5,-442 536.5,-442 536.5,-412 653.5,-412 653.5,-442"/>
<text text-anchor="start" x="544.5" y="-430" font-family="Helvetica,sans-Serif" font-size="10.00">precice::mesh::Mesh</text>
<text text-anchor="middle" x="595" y="-419" font-family="Helvetica,sans-Serif" font-size="10.00">::createVertex</text>
</a>
</g>
</g>
<!-- Node9&#45;&gt;Node14 -->
<g id="edge14_Node000009_Node000014" class="edge">
<title>Node9&#45;&gt;Node14</title>
<g id="a_edge14_Node000009_Node000014"><a xlink:title=" ">
<path fill="none" stroke="#63b8ff" d="M415.1,-355.69C439.63,-366.36 480.45,-383.88 516,-398 524.68,-401.45 533.94,-405 542.95,-408.39"/>
<polygon fill="#63b8ff" stroke="#63b8ff" points="541.99,-411.76 552.58,-411.99 544.44,-405.21 541.99,-411.76"/>
</a>
</g>
</g>
<!-- Node16 -->
<g id="Node000016" class="node">
<title>Node16</title>
<g id="a_Node000016"><a xlink:href="classprecice_1_1mesh_1_1Vertex.html#aa06ca0490b8a690055001524232ebc81" target="_top" xlink:title=" ">
<polygon fill="white" stroke="#666666" points="656,-318 534,-318 534,-288 656,-288 656,-318"/>
<text text-anchor="start" x="542" y="-306" font-family="Helvetica,sans-Serif" font-size="10.00">precice::mesh::Vertex</text>
<text text-anchor="middle" x="595" y="-295" font-family="Helvetica,sans-Serif" font-size="10.00">::setOwner</text>
</a>
</g>
</g>
<!-- Node9&#45;&gt;Node16 -->
<g id="edge18_Node000009_Node000016" class="edge">
<title>Node9&#45;&gt;Node16</title>
<g id="a_edge18_Node000009_Node000016"><a xlink:title=" ">
<path fill="none" stroke="#63b8ff" d="M437.61,-336.46C462.96,-331.03 495.26,-324.12 523.92,-317.99"/>
<polygon fill="#63b8ff" stroke="#63b8ff" points="524.84,-321.38 533.88,-315.86 523.37,-314.53 524.84,-321.38"/>
</a>
</g>
</g>
<!-- Node17 -->
<g id="Node000017" class="node">
<title>Node17</title>
<g id="a_Node000017"><a xlink:href="classprecice_1_1mesh_1_1Mesh.html#a13faa9b03e5d20918ed6528db1415fa3" target="_top" xlink:title="Returns modifieable container holding all vertices.">
<polygon fill="white" stroke="#666666" points="653.5,-270 536.5,-270 536.5,-240 653.5,-240 653.5,-270"/>
<text text-anchor="start" x="544.5" y="-258" font-family="Helvetica,sans-Serif" font-size="10.00">precice::mesh::Mesh</text>
<text text-anchor="middle" x="595" y="-247" font-family="Helvetica,sans-Serif" font-size="10.00">::vertices</text>
</a>
</g>
</g>
<!-- Node9&#45;&gt;Node17 -->
<g id="edge19_Node000009_Node000017" class="edge">
<title>Node9&#45;&gt;Node17</title>
<g id="a_edge19_Node000009_Node000017"><a xlink:title=" ">
<path fill="none" stroke="#63b8ff" d="M408.42,-336.28C431.24,-322.21 475.66,-295.99 516,-279 520.61,-277.06 525.44,-275.19 530.34,-273.42"/>
<polygon fill="#63b8ff" stroke="#63b8ff" points="531.49,-276.73 539.79,-270.14 529.19,-270.11 531.49,-276.73"/>
</a>
</g>
</g>
<!-- Node11&#45;&gt;Node7 -->
<g id="edge11_Node000011_Node000007" class="edge">
<title>Node11&#45;&gt;Node7</title>
<g id="a_edge11_Node000011_Node000007"><a xlink:title=" ">
<path fill="none" stroke="#63b8ff" d="M643.16,-490.04C667.84,-497.91 698.24,-507.61 724.21,-515.89"/>
<polygon fill="#63b8ff" stroke="#63b8ff" points="723.33,-519.28 733.92,-518.99 725.46,-512.61 723.33,-519.28"/>
</a>
</g>
</g>
<!-- Node12 -->
<g id="Node000012" class="node">
<title>Node12</title>
<g id="a_Node000012"><a target="_parent" xlink:href="http://en.cppreference.com/w/cpp/container/deque/size.html#" xlink:title=" ">
<polygon fill="white" stroke="#666666" points="828.5,-478.5 735.5,-478.5 735.5,-459.5 828.5,-459.5 828.5,-478.5"/>
<text text-anchor="middle" x="782" y="-466.5" font-family="Helvetica,sans-Serif" font-size="10.00">std::deque::size</text>
</a>
</g>
</g>
<!-- Node11&#45;&gt;Node12 -->
<g id="edge12_Node000011_Node000012" class="edge">
<title>Node11&#45;&gt;Node12</title>
<g id="a_edge12_Node000011_Node000012"><a xlink:title=" ">
<path fill="none" stroke="#63b8ff" d="M653.52,-473.13C676.33,-472.39 702.47,-471.55 725.12,-470.81"/>
<polygon fill="#63b8ff" stroke="#63b8ff" points="725.37,-474.31 735.25,-470.48 725.15,-467.31 725.37,-474.31"/>
</a>
</g>
</g>
<!-- Node14&#45;&gt;Node12 -->
<g id="edge17_Node000014_Node000012" class="edge">
<title>Node14&#45;&gt;Node12</title>
<g id="a_edge17_Node000014_Node000012"><a xlink:title=" ">
<path fill="none" stroke="#63b8ff" d="M653.52,-440.06C677.74,-445.56 705.72,-451.91 729.28,-457.26"/>
<polygon fill="#63b8ff" stroke="#63b8ff" points="728.56,-460.68 739.09,-459.48 730.11,-453.86 728.56,-460.68"/>
</a>
</g>
</g>
<!-- Node14&#45;&gt;Node13 -->
<g id="edge15_Node000014_Node000013" class="edge">
<title>Node14&#45;&gt;Node13</title>
<g id="a_edge15_Node000014_Node000013"><a xlink:title=" ">
<path fill="none" stroke="#63b8ff" d="M653.52,-414.56C676.99,-409.49 703.98,-403.65 727.07,-398.66"/>
<polygon fill="#63b8ff" stroke="#63b8ff" points="728,-402.04 737.04,-396.51 726.52,-395.2 728,-402.04"/>
</a>
</g>
</g>
<!-- Node15 -->
<g id="Node000015" class="node">
<title>Node15</title>
<g id="a_Node000015"><a target="_parent" xlink:href="http://en.cppreference.com/w/cpp/container/deque/emplace_back.html#" xlink:title=" ">
<polygon fill="white" stroke="#666666" points="854,-436.5 710,-436.5 710,-417.5 854,-417.5 854,-436.5"/>
<text text-anchor="middle" x="782" y="-424.5" font-family="Helvetica,sans-Serif" font-size="10.00">std::deque::emplace_back</text>
</a>
</g>
</g>
<!-- Node14&#45;&gt;Node15 -->
<g id="edge16_Node000014_Node000015" class="edge">
<title>Node14&#45;&gt;Node15</title>
<g id="a_edge16_Node000014_Node000015"><a xlink:title=" ">
<path fill="none" stroke="#63b8ff" d="M653.52,-427C668.14,-427 684.12,-427 699.68,-427"/>
<polygon fill="#63b8ff" stroke="#63b8ff" points="699.82,-430.5 709.82,-427 699.82,-423.5 699.82,-430.5"/>
</a>
</g>
</g>
<!-- Node20&#45;&gt;Node20 -->
<g id="edge25_Node000020_Node000020" class="edge">
<title>Node20&#45;&gt;Node20</title>
<g id="a_edge25_Node000020_Node000020"><a xlink:title=" ">
<path fill="none" stroke="#63b8ff" d="M366.11,-166.58C353.51,-175.23 362.14,-184.5 392,-184.5 412.06,-184.5 422.54,-180.32 423.44,-174.95"/>
<polygon fill="#63b8ff" stroke="#63b8ff" points="426.34,-172.99 417.89,-166.58 420.5,-176.85 426.34,-172.99"/>
</a>
</g>
</g>
<!-- Node21 -->
<g id="Node000021" class="node">
<title>Node21</title>
<g id="a_Node000021"><a xlink:href="classprecice_1_1mapping_1_1Mapping.html#a393912fe4919edd098e96f66ffbe0d52" target="_top" xlink:title=" ">
<polygon fill="white" stroke="#666666" points="669.5,-222 520.5,-222 520.5,-192 669.5,-192 669.5,-222"/>
<text text-anchor="start" x="528.5" y="-210" font-family="Helvetica,sans-Serif" font-size="10.00">precice::mapping::Mapping</text>
<text text-anchor="middle" x="595" y="-199" font-family="Helvetica,sans-Serif" font-size="10.00">::getDimensions</text>
</a>
</g>
</g>
<!-- Node20&#45;&gt;Node21 -->
<g id="edge23_Node000020_Node000021" class="edge">
<title>Node20&#45;&gt;Node21</title>
<g id="a_edge23_Node000020_Node000021"><a xlink:title=" ">
<path fill="none" stroke="#63b8ff" d="M431.28,-166.52C457.28,-172.99 492.45,-181.74 523.44,-189.45"/>
<polygon fill="#63b8ff" stroke="#63b8ff" points="522.78,-192.89 533.33,-191.91 524.47,-186.1 522.78,-192.89"/>
</a>
</g>
</g>
<!-- Node22 -->
<g id="Node000022" class="node">
<title>Node22</title>
<g id="a_Node000022"><a xlink:href="classprecice_1_1mapping_1_1Mapping.html#a61c3c55af467ada2bdd735efa0f960e4" target="_top" xlink:title="Returns pointer to input mesh.">
<polygon fill="white" stroke="#666666" points="669.5,-126 520.5,-126 520.5,-96 669.5,-96 669.5,-126"/>
<text text-anchor="start" x="528.5" y="-114" font-family="Helvetica,sans-Serif" font-size="10.00">precice::mapping::Mapping</text>
<text text-anchor="middle" x="595" y="-103" font-family="Helvetica,sans-Serif" font-size="10.00">::input</text>
</a>
</g>
</g>
<!-- Node20&#45;&gt;Node22 -->
<g id="edge24_Node000020_Node000022" class="edge">
<title>Node20&#45;&gt;Node22</title>
<g id="a_edge24_Node000020_Node000022"><a xlink:title=" ">
<path fill="none" stroke="#63b8ff" d="M434.65,-147.47C458.82,-141.94 490.01,-134.8 518.37,-128.31"/>
<polygon fill="#63b8ff" stroke="#63b8ff" points="519.3,-131.69 528.27,-126.04 517.74,-124.86 519.3,-131.69"/>
</a>
</g>
</g>
<!-- Node23 -->
<g id="Node000023" class="node">
<title>Node23</title>
<g id="a_Node000023"><a xlink:href="classprecice_1_1mapping_1_1Mapping.html#a07a71a54b71eda6d54510c94fb188e70" target="_top" xlink:title="Returns pointer to output mesh.">
<polygon fill="white" stroke="#666666" points="669.5,-78 520.5,-78 520.5,-48 669.5,-48 669.5,-78"/>
<text text-anchor="start" x="528.5" y="-66" font-family="Helvetica,sans-Serif" font-size="10.00">precice::mapping::Mapping</text>
<text text-anchor="middle" x="595" y="-55" font-family="Helvetica,sans-Serif" font-size="10.00">::output</text>
</a>
</g>
</g>
<!-- Node20&#45;&gt;Node23 -->
<g id="edge26_Node000020_Node000023" class="edge">
<title>Node20&#45;&gt;Node23</title>
<g id="a_edge26_Node000020_Node000023"><a xlink:title=" ">
<path fill="none" stroke="#63b8ff" d="M456.07,-147.4C464.52,-144.54 472.76,-140.82 480,-136 502.5,-121.03 493.97,-102.65 516,-87 518.12,-85.49 520.34,-84.08 522.63,-82.75"/>
<polygon fill="#63b8ff" stroke="#63b8ff" points="524.48,-85.73 531.78,-78.05 521.28,-79.51 524.48,-85.73"/>
</a>
</g>
</g>
<!-- Node24 -->
<g id="Node000024" class="node">
<title>Node24</title>
<g id="a_Node000024"><a xlink:href="classprecice_1_1mapping_1_1Mapping.html#a06a1bad07e3562ca32581e412769b2e9" target="_top" xlink:title="Return true if the mapping requires an initial guess.">
<polygon fill="white" stroke="#666666" points="669.5,-174 520.5,-174 520.5,-144 669.5,-144 669.5,-174"/>
<text text-anchor="start" x="528.5" y="-162" font-family="Helvetica,sans-Serif" font-size="10.00">precice::mapping::Mapping</text>
<text text-anchor="middle" x="595" y="-151" font-family="Helvetica,sans-Serif" font-size="10.00">::requiresInitialGuess</text>
</a>
</g>
</g>
<!-- Node20&#45;&gt;Node24 -->
<g id="edge27_Node000020_Node000024" class="edge">
<title>Node20&#45;&gt;Node24</title>
<g id="a_edge27_Node000020_Node000024"><a xlink:title=" ">
<path fill="none" stroke="#63b8ff" d="M480.28,-157.87C490.19,-157.97 500.27,-158.07 510.14,-158.17"/>
<polygon fill="#63b8ff" stroke="#63b8ff" points="510.28,-161.67 520.32,-158.27 510.35,-154.67 510.28,-161.67"/>
</a>
</g>
</g>
<!-- Node26 -->
<g id="Node000026" class="node">
<title>Node26</title>
<g id="a_Node000026"><a xlink:href="classprecice_1_1utils_1_1ManageUniqueIDs.html#a02be264c279698ae293587b6576088b5" target="_top" xlink:title=" ">
<polygon fill="white" stroke="#666666" points="674,-30 516,-30 516,0 674,0 674,-30"/>
<text text-anchor="start" x="524" y="-18" font-family="Helvetica,sans-Serif" font-size="10.00">precice::utils::ManageUnique</text>
<text text-anchor="middle" x="595" y="-7" font-family="Helvetica,sans-Serif" font-size="10.00">IDs::getFreeID</text>
</a>
</g>
</g>
<!-- Node25&#45;&gt;Node26 -->
<g id="edge29_Node000025_Node000026" class="edge">
<title>Node25&#45;&gt;Node26</title>
<g id="a_edge29_Node000025_Node000026"><a xlink:title=" ">
<path fill="none" stroke="#63b8ff" d="M440.13,-59.45C453.1,-56.62 467.14,-53.37 480,-50 480.78,-49.8 507.89,-41.47 535.47,-33"/>
<polygon fill="#63b8ff" stroke="#63b8ff" points="536.67,-36.29 545.2,-30.01 534.62,-29.6 536.67,-36.29"/>
</a>
</g>
</g>
<!-- Node27&#45;&gt;Node22 -->
<g id="edge31_Node000027_Node000022" class="edge">
<title>Node27&#45;&gt;Node22</title>
<g id="a_edge31_Node000027_Node000022"><a xlink:title=" ">
<path fill="none" stroke="#63b8ff" d="M466.7,-111.63C480.77,-111.56 495.59,-111.49 509.95,-111.42"/>
<polygon fill="#63b8ff" stroke="#63b8ff" points="510.32,-114.92 520.31,-111.37 510.29,-107.92 510.32,-114.92"/>
</a>
</g>
</g>
<!-- Node27&#45;&gt;Node23 -->
<g id="edge32_Node000027_Node000023" class="edge">
<title>Node27&#45;&gt;Node23</title>
<g id="a_edge32_Node000027_Node000023"><a xlink:title=" ">
<path fill="none" stroke="#63b8ff" d="M454.67,-96.97C476.09,-91.74 500.28,-85.85 522.43,-80.45"/>
<polygon fill="#63b8ff" stroke="#63b8ff" points="523.56,-83.78 532.44,-78.01 521.9,-76.97 523.56,-83.78"/>
</a>
</g>
</g>
</g>
</svg>

<g id="navigator" transform="translate(0 0)" fill="#404254">
  <rect fill="#f2f5e9" fill-opacity="0.5" stroke="#606060" stroke-width=".5" x="0" y="0" width="60" height="60"/>
  <use id="zoomplus" xlink:href="#zoomPlus" x="17" y="9" onmousedown="handleZoom(evt,'in')"/>
  <use id="zoomminus" xlink:href="#zoomMin" x="42" y="9" onmousedown="handleZoom(evt,'out')"/>
  <use id="reset" xlink:href="#resetDef" x="30" y="36" onmousedown="handleReset()"/>
   <use id="arrowup" xlink:href="#arrowUp" x="0" y="0" onmousedown="handlePan(0,-1)"/>
  <use id="arrowright" xlink:href="#arrowRight" x="0" y="0" onmousedown="handlePan(1,0)"/>
  <use id="arrowdown" xlink:href="#arrowDown" x="0" y="0" onmousedown="handlePan(0,1)"/>
  <use id="arrowleft" xlink:href="#arrowLeft" x="0" y="0" onmousedown="handlePan(-1,0)"/>
</g>
<svg viewBox="0 0 15 15" width="100%" height="30px" preserveAspectRatio="xMaxYMin meet">
 <g id="arrow_out" transform="scale(0.3 0.3)">
  <a xlink:href="PartitionOfUnityMappingTest_8cpp_ae4f1a4c71a6f4dd4d5cc8ad8bc172bdb_cgraph_org.svg" target="_base">
   <rect id="button" ry="5" rx="5" y="6" x="6" height="38" width="38"
        fill="#f2f5e9" fill-opacity="0.5" stroke="#606060" stroke-width="1.0"/>
   <path id="arrow"
     d="M 11.500037,31.436501 C 11.940474,20.09759 22.043105,11.32322 32.158766,21.979434 L 37.068811,17.246167 C 37.068811,17.246167 37.088388,32 37.088388,32 L 22.160133,31.978069 C 22.160133,31.978069 26.997745,27.140456 26.997745,27.140456 C 18.528582,18.264221 13.291696,25.230495 11.500037,31.436501 z"
     style="fill:#404040;"/>
  </a>
 </g>
</svg>

<style type='text/css'>
<![CDATA[
[data-mouse-over-selected='false'] { opacity: 0.7; }
[data-mouse-over-selected='true']  { opacity: 1.0; }
]]>
</style>
<script type="application/ecmascript"><![CDATA[
document.addEventListener('DOMContentLoaded', (event) => {
  highlightEdges();
  highlightAdjacentNodes();
});
]]></script>
</svg>
