<?xml version="1.0" encoding="UTF-8" standalone="no"?>
<!DOCTYPE svg PUBLIC "-//W3C//DTD SVG 1.1//EN"
 "http://www.w3.org/Graphics/SVG/1.1/DTD/svg11.dtd">
<!-- Generated by graphviz version 2.43.0 (0)
 -->
<!-- Title: BOOST_AUTO_TEST_CASE Pages: 1 -->
<!--zoomable 652 -->
<svg id="main" version="1.1" xmlns="http://www.w3.org/2000/svg" xmlns:xlink="http://www.w3.org/1999/xlink" xml:space="preserve" onload="init(evt)">
<style type="text/css"><![CDATA[
.edge:hover path { stroke: red; }
.edge:hover polygon { stroke: red; fill: red; }
]]></style>
<script type="text/javascript"><![CDATA[
var edges = document.getElementsByTagName('g');
if (edges && edges.length) {
  for (var i=0;i<edges.length;i++) {
    if (edges[i].id.substr(0,4)=='edge') {
      edges[i].setAttribute('class','edge');
    }
  }
}
]]></script>
        <defs>
                <circle id="rim" cx="0" cy="0" r="7"/>
                <circle id="rim2" cx="0" cy="0" r="3.5"/>
                <g id="zoomPlus">
                        <use xlink:href="#rim" fill="#404040">
                                <set attributeName="fill" to="#808080" begin="zoomplus.mouseover" end="zoomplus.mouseout"/>
                        </use>
                        <path d="M-4,0h8M0,-4v8" fill="none" stroke="white" stroke-width="1.5" pointer-events="none"/>
                </g>
                <g id="zoomMin">
                        <use xlink:href="#rim" fill="#404040">
                                <set attributeName="fill" to="#808080" begin="zoomminus.mouseover" end="zoomminus.mouseout"/>
                        </use>
                        <path d="M-4,0h8" fill="none" stroke="white" stroke-width="1.5" pointer-events="none"/>
                </g>
                <g id="dirArrow">
                        <path fill="none" stroke="white" stroke-width="1.5" d="M0,-3.0v7 M-2.5,-0.5L0,-3.0L2.5,-0.5"/>
                </g>
               <g id="resetDef">
                       <use xlink:href="#rim2" fill="#404040">
                               <set attributeName="fill" to="#808080" begin="reset.mouseover" end="reset.mouseout"/>
                       </use>
               </g>
        </defs>

<script type="text/javascript">
var viewWidth = 1237;
var viewHeight = 652;
var sectionId = 'dynsection-3';
</script>
<script xlink:href="svgpan.js"/>
<svg id="graph" class="graph">
<g id="viewport">
<title>BOOST_AUTO_TEST_CASE</title>
<polygon fill="white" stroke="transparent" points="-4,4 -4,-647.5 1233,-647.5 1233,4 -4,4"/>
<!-- Node1 -->
<g id="node1" class="node">
<title>Node1</title>
<g id="a_node1"><a xlink:title=" ">
<polygon fill="#bfbfbf" stroke="black" points="0,-342 0,-361 143,-361 143,-342 0,-342"/>
<text text-anchor="middle" x="71.5" y="-349" font-family="Helvetica,sans-Serif" font-size="10.00">BOOST_AUTO_TEST_CASE</text>
</a>
</g>
</g>
<!-- Node2 -->
<g id="node2" class="node">
<title>Node2</title>
<g id="a_node2"><a xlink:href="PartitionOfUnityMappingTest_8cpp.html#a572fa5dd506a874a14b92de3e4a28d8e" target="_top" xlink:title=" ">
<polygon fill="white" stroke="black" points="179,-342 179,-361 268,-361 268,-342 179,-342"/>
<text text-anchor="middle" x="223.5" y="-349" font-family="Helvetica,sans-Serif" font-size="10.00">testDistributed</text>
</a>
</g>
</g>
<!-- Node1&#45;&gt;Node2 -->
<g id="edge1" class="edge">
<title>Node1&#45;&gt;Node2</title>
<path fill="none" stroke="midnightblue" d="M143.11,-351.5C151.66,-351.5 160.28,-351.5 168.54,-351.5"/>
<polygon fill="midnightblue" stroke="midnightblue" points="168.76,-355 178.76,-351.5 168.76,-348 168.76,-355"/>
</g>
<!-- Node3 -->
<g id="node3" class="node">
<title>Node3</title>
<g id="a_node3"><a xlink:href="classprecice_1_1mapping_1_1Mapping.html#abf2679ec4bbb86bd2380b088528cc1ff" target="_top" xlink:title="Computes the mapping coefficients from the in&#45; and output mesh.">
<polygon fill="white" stroke="black" points="317.5,-554.5 317.5,-584.5 466.5,-584.5 466.5,-554.5 317.5,-554.5"/>
<text text-anchor="start" x="325.5" y="-572.5" font-family="Helvetica,sans-Serif" font-size="10.00">precice::mapping::Mapping</text>
<text text-anchor="middle" x="392" y="-561.5" font-family="Helvetica,sans-Serif" font-size="10.00">::computeMapping</text>
</a>
</g>
</g>
<!-- Node2&#45;&gt;Node3 -->
<g id="edge2" class="edge">
<title>Node2&#45;&gt;Node3</title>
<path fill="none" stroke="midnightblue" d="M225.55,-361.2C229.48,-392.67 246.21,-492.79 304,-544.5 305.76,-546.08 307.61,-547.55 309.54,-548.94"/>
<polygon fill="midnightblue" stroke="midnightblue" points="308.09,-552.15 318.44,-554.43 311.77,-546.2 308.09,-552.15"/>
</g>
<!-- Node4 -->
<g id="node4" class="node">
<title>Node4</title>
<g id="a_node4"><a xlink:href="PartitionOfUnityMappingTest_8cpp.html#acab76e6e014dd25e845f97554d1ac77f" target="_top" xlink:title=" ">
<polygon fill="white" stroke="black" points="335.5,-516 335.5,-535 448.5,-535 448.5,-516 335.5,-516"/>
<text text-anchor="middle" x="392" y="-523" font-family="Helvetica,sans-Serif" font-size="10.00">getDistributedMesh</text>
</a>
</g>
</g>
<!-- Node2&#45;&gt;Node4 -->
<g id="edge3" class="edge">
<title>Node2&#45;&gt;Node4</title>
<path fill="none" stroke="midnightblue" d="M233.69,-361.1C260.69,-389.32 340.04,-472.25 374.6,-508.37"/>
<polygon fill="midnightblue" stroke="midnightblue" points="372.19,-510.91 381.63,-515.71 377.25,-506.07 372.19,-510.91"/>
</g>
<!-- Node7 -->
<g id="node7" class="node">
<title>Node7</title>
<g id="a_node7"><a xlink:href="classprecice_1_1mapping_1_1Mapping.html#ad4c975ae2b8f1125a6707ab7857018f6" target="_top" xlink:title="Returns true, if the mapping has been computed.">
<polygon fill="white" stroke="black" points="317.5,-273.5 317.5,-303.5 466.5,-303.5 466.5,-273.5 317.5,-273.5"/>
<text text-anchor="start" x="325.5" y="-291.5" font-family="Helvetica,sans-Serif" font-size="10.00">precice::mapping::Mapping</text>
<text text-anchor="middle" x="392" y="-280.5" font-family="Helvetica,sans-Serif" font-size="10.00">::hasComputedMapping</text>
</a>
</g>
</g>
<!-- Node2&#45;&gt;Node7 -->
<g id="edge6" class="edge">
<title>Node2&#45;&gt;Node7</title>
<path fill="none" stroke="midnightblue" d="M242.44,-341.87C258.31,-333.6 282.26,-321.75 304,-313.5 310.32,-311.1 316.97,-308.8 323.66,-306.64"/>
<polygon fill="midnightblue" stroke="midnightblue" points="324.96,-309.9 333.46,-303.57 322.87,-303.22 324.96,-309.9"/>
</g>
<!-- Node8 -->
<g id="node8" class="node">
<title>Node8</title>
<g id="a_node8"><a xlink:href="classprecice_1_1mapping_1_1Mapping.html#adac09460b4983629f85cec2a9f1fe75c" target="_top" xlink:title="Maps input data to output data from input mesh to output mesh.">
<polygon fill="white" stroke="black" points="304,-323 304,-342 480,-342 480,-323 304,-323"/>
<text text-anchor="middle" x="392" y="-330" font-family="Helvetica,sans-Serif" font-size="10.00">precice::mapping::Mapping::map</text>
</a>
</g>
</g>
<!-- Node2&#45;&gt;Node8 -->
<g id="edge7" class="edge">
<title>Node2&#45;&gt;Node8</title>
<path fill="none" stroke="midnightblue" d="M268.25,-346.51C277.35,-345.47 287.28,-344.34 297.41,-343.18"/>
<polygon fill="midnightblue" stroke="midnightblue" points="298.05,-346.63 307.59,-342.02 297.26,-339.67 298.05,-346.63"/>
</g>
<!-- Node23 -->
<g id="node23" class="node">
<title>Node23</title>
<g id="a_node23"><a xlink:href="namespaceprecice_1_1testing.html#a08533fd83bad3d7f27ea7f4a35a14aa4" target="_top" xlink:title=" ">
<polygon fill="white" stroke="black" points="314,-121 314,-140 470,-140 470,-121 314,-121"/>
<text text-anchor="middle" x="392" y="-128" font-family="Helvetica,sans-Serif" font-size="10.00">precice::testing::nextMeshID</text>
</a>
</g>
</g>
<!-- Node2&#45;&gt;Node23 -->
<g id="edge32" class="edge">
<title>Node2&#45;&gt;Node23</title>
<path fill="none" stroke="midnightblue" d="M231.87,-341.72C257.66,-307.49 344.1,-192.76 377.59,-148.31"/>
<polygon fill="midnightblue" stroke="midnightblue" points="380.49,-150.26 383.72,-140.17 374.9,-146.05 380.49,-150.26"/>
</g>
<!-- Node25 -->
<g id="node25" class="node">
<title>Node25</title>
<g id="a_node25"><a xlink:href="classprecice_1_1mapping_1_1Mapping.html#a5bf2ecf9adb1ae66977c1223f841a61f" target="_top" xlink:title="Sets input and output meshes carrying data to be mapped.">
<polygon fill="white" stroke="black" points="520.5,-449.5 520.5,-479.5 669.5,-479.5 669.5,-449.5 520.5,-449.5"/>
<text text-anchor="start" x="528.5" y="-467.5" font-family="Helvetica,sans-Serif" font-size="10.00">precice::mapping::Mapping</text>
<text text-anchor="middle" x="595" y="-456.5" font-family="Helvetica,sans-Serif" font-size="10.00">::setMeshes</text>
</a>
</g>
</g>
<!-- Node2&#45;&gt;Node25 -->
<g id="edge34" class="edge">
<title>Node2&#45;&gt;Node25</title>
<path fill="none" stroke="midnightblue" d="M255.68,-361.04C317.34,-379.89 455.7,-422.2 535.06,-446.47"/>
<polygon fill="midnightblue" stroke="midnightblue" points="534.32,-449.91 544.91,-449.49 536.37,-443.22 534.32,-449.91"/>
</g>
<!-- Node5 -->
<g id="node5" class="node">
<title>Node5</title>
<g id="a_node5"><a xlink:href="PartitionOfUnityMappingTest_8cpp.html#a091feb1893c75899e59fa939e678debe" target="_top" xlink:title=" ">
<polygon fill="white" stroke="black" points="548.5,-624 548.5,-643 641.5,-643 641.5,-624 548.5,-624"/>
<text text-anchor="middle" x="595" y="-631" font-family="Helvetica,sans-Serif" font-size="10.00">addGlobalIndex</text>
</a>
</g>
</g>
<!-- Node4&#45;&gt;Node5 -->
<g id="edge4" class="edge">
<title>Node4&#45;&gt;Node5</title>
<path fill="none" stroke="midnightblue" d="M448.92,-531.16C459.97,-534.19 470.94,-538.72 480,-545.5 506.13,-565.05 490.59,-589.02 516,-609.5 522.66,-614.87 530.52,-619.04 538.64,-622.28"/>
<polygon fill="midnightblue" stroke="midnightblue" points="537.64,-625.64 548.23,-625.67 539.97,-619.04 537.64,-625.64"/>
</g>
<!-- Node6 -->
<g id="node6" class="node">
<title>Node6</title>
<g id="a_node6"><a xlink:href="namespaceprecice_1_1detail.html#adede399b4b92eea01face616a0cc7051" target="_top" xlink:title=" ">
<polygon fill="white" stroke="black" points="913,-411 913,-430 1026,-430 1026,-411 913,-411"/>
<text text-anchor="middle" x="969.5" y="-418" font-family="Helvetica,sans-Serif" font-size="10.00">precice::detail::data</text>
</a>
</g>
</g>
<!-- Node4&#45;&gt;Node6 -->
<g id="edge5" class="edge">
<title>Node4&#45;&gt;Node6</title>
<path fill="none" stroke="midnightblue" d="M443.73,-535.03C455.78,-537.87 468.48,-541.36 480,-545.5 496.84,-551.55 498.7,-558.94 516,-563.5 663.48,-602.35 723.36,-643.22 859,-573.5 914.31,-545.07 947.92,-474.3 961.51,-439.89"/>
<polygon fill="midnightblue" stroke="midnightblue" points="964.95,-440.69 965.22,-430.1 958.4,-438.21 964.95,-440.69"/>
</g>
<!-- Node8&#45;&gt;Node6 -->
<g id="edge8" class="edge">
<title>Node8&#45;&gt;Node6</title>
<path fill="none" stroke="midnightblue" d="M395.95,-342.03C406.34,-373.77 444.48,-476.31 516,-519.5 646.69,-598.43 719.06,-599.55 859,-538.5 905.75,-518.11 941.49,-466.83 958.16,-439.06"/>
<polygon fill="midnightblue" stroke="midnightblue" points="961.25,-440.71 963.25,-430.31 955.2,-437.19 961.25,-440.71"/>
</g>
<!-- Node9 -->
<g id="node9" class="node">
<title>Node9</title>
<g id="a_node9"><a xlink:href="classprecice_1_1mapping_1_1Mapping.html#a6afbd9aaac2ab09b078db271cfd977a1" target="_top" xlink:title="Returns the constraint (consistent/conservative) of the mapping.">
<polygon fill="white" stroke="black" points="1080,-85.5 1080,-115.5 1229,-115.5 1229,-85.5 1080,-85.5"/>
<text text-anchor="start" x="1088" y="-103.5" font-family="Helvetica,sans-Serif" font-size="10.00">precice::mapping::Mapping</text>
<text text-anchor="middle" x="1154.5" y="-92.5" font-family="Helvetica,sans-Serif" font-size="10.00">::getConstraint</text>
</a>
</g>
</g>
<!-- Node8&#45;&gt;Node9 -->
<g id="edge9" class="edge">
<title>Node8&#45;&gt;Node9</title>
<path fill="none" stroke="midnightblue" d="M468.04,-322.79C472.44,-320.26 476.49,-317.2 480,-313.5 548.18,-241.62 440.5,-157.65 516,-93.5 597.06,-24.62 915.77,-63.12 1069.57,-86.58"/>
<polygon fill="midnightblue" stroke="midnightblue" points="1069.49,-90.11 1079.91,-88.17 1070.56,-83.19 1069.49,-90.11"/>
</g>
<!-- Node10 -->
<g id="node10" class="node">
<title>Node10</title>
<g id="a_node10"><a xlink:href="classprecice_1_1mapping_1_1Mapping.html#a393912fe4919edd098e96f66ffbe0d52" target="_top" xlink:title=" ">
<polygon fill="white" stroke="black" points="520.5,-273.5 520.5,-303.5 669.5,-303.5 669.5,-273.5 520.5,-273.5"/>
<text text-anchor="start" x="528.5" y="-291.5" font-family="Helvetica,sans-Serif" font-size="10.00">precice::mapping::Mapping</text>
<text text-anchor="middle" x="595" y="-280.5" font-family="Helvetica,sans-Serif" font-size="10.00">::getDimensions</text>
</a>
</g>
</g>
<!-- Node8&#45;&gt;Node10 -->
<g id="edge10" class="edge">
<title>Node8&#45;&gt;Node10</title>
<path fill="none" stroke="midnightblue" d="M436.81,-322.94C450.63,-319.92 465.95,-316.57 480,-313.5 491.52,-310.98 503.7,-308.31 515.63,-305.7"/>
<polygon fill="midnightblue" stroke="midnightblue" points="516.56,-309.07 525.58,-303.51 515.06,-302.24 516.56,-309.07"/>
</g>
<!-- Node11 -->
<g id="node11" class="node">
<title>Node11</title>
<g id="a_node11"><a xlink:href="classprecice_1_1mapping_1_1Mapping.html#aeea2d39f5e6ce0eaa97ebe436ff89991" target="_top" xlink:title="Checks whether the mapping has the given constraint or not.">
<polygon fill="white" stroke="black" points="895,-107.5 895,-137.5 1044,-137.5 1044,-107.5 895,-107.5"/>
<text text-anchor="start" x="903" y="-125.5" font-family="Helvetica,sans-Serif" font-size="10.00">precice::mapping::Mapping</text>
<text text-anchor="middle" x="969.5" y="-114.5" font-family="Helvetica,sans-Serif" font-size="10.00">::hasConstraint</text>
</a>
</g>
</g>
<!-- Node8&#45;&gt;Node11 -->
<g id="edge11" class="edge">
<title>Node8&#45;&gt;Node11</title>
<path fill="none" stroke="midnightblue" d="M467.52,-322.9C472.1,-320.36 476.33,-317.26 480,-313.5 538.83,-253.26 452.59,-182.9 516,-127.5 568.91,-81.27 768.75,-97.2 884.4,-110.99"/>
<polygon fill="midnightblue" stroke="midnightblue" points="884.28,-114.51 894.63,-112.24 885.13,-107.56 884.28,-114.51"/>
</g>
<!-- Node12 -->
<g id="node12" class="node">
<title>Node12</title>
<g id="a_node12"><a xlink:href="classprecice_1_1mapping_1_1Mapping.html#a61c3c55af467ada2bdd735efa0f960e4" target="_top" xlink:title="Returns pointer to input mesh.">
<polygon fill="white" stroke="black" points="710,-498.5 710,-528.5 859,-528.5 859,-498.5 710,-498.5"/>
<text text-anchor="start" x="718" y="-516.5" font-family="Helvetica,sans-Serif" font-size="10.00">precice::mapping::Mapping</text>
<text text-anchor="middle" x="784.5" y="-505.5" font-family="Helvetica,sans-Serif" font-size="10.00">::input</text>
</a>
</g>
</g>
<!-- Node8&#45;&gt;Node12 -->
<g id="edge13" class="edge">
<title>Node8&#45;&gt;Node12</title>
<path fill="none" stroke="midnightblue" d="M397.12,-342.11C409.87,-370.58 451.81,-454.61 516,-489.5 571.92,-519.89 644.26,-524.7 699.61,-522.56"/>
<polygon fill="midnightblue" stroke="midnightblue" points="699.92,-526.05 709.74,-522.09 699.59,-519.06 699.92,-526.05"/>
</g>
<!-- Node13 -->
<g id="node13" class="node">
<title>Node13</title>
<g id="a_node13"><a xlink:href="classprecice_1_1mapping_1_1Mapping.html#a6d9b8f1628e20e7f9e6d3834d7a992e3" target="_top" xlink:title="Returns true if mapping is a form of scaled consistent mapping.">
<polygon fill="white" stroke="black" points="710,-126.5 710,-156.5 859,-156.5 859,-126.5 710,-126.5"/>
<text text-anchor="start" x="718" y="-144.5" font-family="Helvetica,sans-Serif" font-size="10.00">precice::mapping::Mapping</text>
<text text-anchor="middle" x="784.5" y="-133.5" font-family="Helvetica,sans-Serif" font-size="10.00">::isScaledConsistent</text>
</a>
</g>
</g>
<!-- Node8&#45;&gt;Node13 -->
<g id="edge14" class="edge">
<title>Node8&#45;&gt;Node13</title>
<path fill="none" stroke="midnightblue" d="M480.32,-337.42C551.75,-339.53 645.46,-337.3 674,-313.5 724.01,-271.81 667.28,-220.63 710,-171.5 713.17,-167.86 716.85,-164.65 720.83,-161.83"/>
<polygon fill="midnightblue" stroke="midnightblue" points="722.71,-164.78 729.39,-156.55 719.04,-158.82 722.71,-164.78"/>
</g>
<!-- Node14 -->
<g id="node14" class="node">
<title>Node14</title>
<g id="a_node14"><a xlink:href="classprecice_1_1mapping_1_1Mapping.html#a3feec7b663fb9a32c806e49f0449c24a" target="_top" xlink:title="Maps data using a conservative constraint.">
<polygon fill="white" stroke="black" points="520.5,-224.5 520.5,-254.5 669.5,-254.5 669.5,-224.5 520.5,-224.5"/>
<text text-anchor="start" x="528.5" y="-242.5" font-family="Helvetica,sans-Serif" font-size="10.00">precice::mapping::Mapping</text>
<text text-anchor="middle" x="595" y="-231.5" font-family="Helvetica,sans-Serif" font-size="10.00">::mapConservative</text>
</a>
</g>
</g>
<!-- Node8&#45;&gt;Node14 -->
<g id="edge16" class="edge">
<title>Node8&#45;&gt;Node14</title>
<path fill="none" stroke="midnightblue" d="M460.54,-322.94C467.41,-320.47 474.04,-317.37 480,-313.5 502.66,-298.78 494.06,-280.28 516,-264.5 518.65,-262.59 521.46,-260.82 524.37,-259.18"/>
<polygon fill="midnightblue" stroke="midnightblue" points="526.01,-262.28 533.37,-254.66 522.86,-256.03 526.01,-262.28"/>
</g>
<!-- Node15 -->
<g id="node15" class="node">
<title>Node15</title>
<g id="a_node15"><a xlink:href="classprecice_1_1mapping_1_1Mapping.html#a777be849afae4995ed530961c64cd40d" target="_top" xlink:title="Maps data using a consistent constraint.">
<polygon fill="white" stroke="black" points="520.5,-175.5 520.5,-205.5 669.5,-205.5 669.5,-175.5 520.5,-175.5"/>
<text text-anchor="start" x="528.5" y="-193.5" font-family="Helvetica,sans-Serif" font-size="10.00">precice::mapping::Mapping</text>
<text text-anchor="middle" x="595" y="-182.5" font-family="Helvetica,sans-Serif" font-size="10.00">::mapConsistent</text>
</a>
</g>
</g>
<!-- Node8&#45;&gt;Node15 -->
<g id="edge17" class="edge">
<title>Node8&#45;&gt;Node15</title>
<path fill="none" stroke="midnightblue" d="M465.61,-322.83C470.8,-320.33 475.69,-317.26 480,-313.5 514.98,-283.01 482.51,-247.62 516,-215.5 517.5,-214.06 519.09,-212.7 520.74,-211.43"/>
<polygon fill="midnightblue" stroke="midnightblue" points="523.07,-214.08 529.51,-205.66 519.23,-208.23 523.07,-214.08"/>
</g>
<!-- Node16 -->
<g id="node16" class="node">
<title>Node16</title>
<g id="a_node16"><a xlink:href="classprecice_1_1mapping_1_1Mapping.html#a07a71a54b71eda6d54510c94fb188e70" target="_top" xlink:title="Returns pointer to output mesh.">
<polygon fill="white" stroke="black" points="710,-449.5 710,-479.5 859,-479.5 859,-449.5 710,-449.5"/>
<text text-anchor="start" x="718" y="-467.5" font-family="Helvetica,sans-Serif" font-size="10.00">precice::mapping::Mapping</text>
<text text-anchor="middle" x="784.5" y="-456.5" font-family="Helvetica,sans-Serif" font-size="10.00">::output</text>
</a>
</g>
</g>
<!-- Node8&#45;&gt;Node16 -->
<g id="edge18" class="edge">
<title>Node8&#45;&gt;Node16</title>
<path fill="none" stroke="midnightblue" d="M419.06,-342.01C436.86,-349.02 460.62,-359.4 480,-371.5 497.67,-382.53 497.37,-392.2 516,-401.5 524.68,-405.83 630.37,-430.1 706.26,-447.22"/>
<polygon fill="midnightblue" stroke="midnightblue" points="705.76,-450.7 716.29,-449.48 707.3,-443.87 705.76,-450.7"/>
</g>
<!-- Node17 -->
<g id="node17" class="node">
<title>Node17</title>
<g id="a_node17"><a xlink:href="classprecice_1_1mapping_1_1Mapping.html#af5e507ecc8122e20403beecf634eaa42" target="_top" xlink:title="Scales the consistently mapped output data such that the surface integral of the values on input mesh...">
<polygon fill="white" stroke="black" points="520.5,-361.5 520.5,-391.5 669.5,-391.5 669.5,-361.5 520.5,-361.5"/>
<text text-anchor="start" x="528.5" y="-379.5" font-family="Helvetica,sans-Serif" font-size="10.00">precice::mapping::Mapping</text>
<text text-anchor="middle" x="595" y="-368.5" font-family="Helvetica,sans-Serif" font-size="10.00">::scaleConsistentMapping</text>
</a>
</g>
</g>
<!-- Node8&#45;&gt;Node17 -->
<g id="edge19" class="edge">
<title>Node8&#45;&gt;Node17</title>
<path fill="none" stroke="midnightblue" d="M436.61,-342.05C459.55,-347.07 488.37,-353.38 515.07,-359.22"/>
<polygon fill="midnightblue" stroke="midnightblue" points="514.66,-362.72 525.18,-361.43 516.16,-355.88 514.66,-362.72"/>
</g>
<!-- Node22 -->
<g id="node22" class="node">
<title>Node22</title>
<g id="a_node22"><a xlink:href="namespaceprecice_1_1detail.html#a99f20f73c4a3c34d08429ac0fea564ef" target="_top" xlink:title=" ">
<polygon fill="white" stroke="black" points="539.5,-137 539.5,-156 650.5,-156 650.5,-137 539.5,-137"/>
<text text-anchor="middle" x="595" y="-144" font-family="Helvetica,sans-Serif" font-size="10.00">precice::detail::size</text>
</a>
</g>
</g>
<!-- Node8&#45;&gt;Node22 -->
<g id="edge31" class="edge">
<title>Node8&#45;&gt;Node22</title>
<path fill="none" stroke="midnightblue" d="M466.9,-322.91C471.69,-320.38 476.13,-317.28 480,-313.5 528.16,-266.54 468.7,-214.32 516,-166.5 519.99,-162.46 524.68,-159.2 529.75,-156.58"/>
<polygon fill="midnightblue" stroke="midnightblue" points="531.41,-159.67 539.2,-152.5 528.64,-153.24 531.41,-159.67"/>
</g>
<!-- Node11&#45;&gt;Node9 -->
<g id="edge12" class="edge">
<title>Node11&#45;&gt;Node9</title>
<path fill="none" stroke="midnightblue" d="M1044.14,-113.65C1052.57,-112.63 1061.2,-111.6 1069.74,-110.57"/>
<polygon fill="midnightblue" stroke="midnightblue" points="1070.2,-114.04 1079.71,-109.37 1069.36,-107.09 1070.2,-114.04"/>
</g>
<!-- Node13&#45;&gt;Node11 -->
<g id="edge15" class="edge">
<title>Node13&#45;&gt;Node11</title>
<path fill="none" stroke="midnightblue" d="M859.14,-133.85C867.57,-132.98 876.2,-132.08 884.74,-131.2"/>
<polygon fill="midnightblue" stroke="midnightblue" points="885.13,-134.68 894.71,-130.16 884.4,-127.71 885.13,-134.68"/>
</g>
<!-- Node17&#45;&gt;Node6 -->
<g id="edge20" class="edge">
<title>Node17&#45;&gt;Node6</title>
<path fill="none" stroke="midnightblue" d="M656.94,-391.54C674.02,-395.3 692.66,-398.97 710,-401.5 775.12,-410.98 850.21,-415.83 902.61,-418.25"/>
<polygon fill="midnightblue" stroke="midnightblue" points="902.64,-421.75 912.78,-418.7 902.95,-414.76 902.64,-421.75"/>
</g>
<!-- Node17&#45;&gt;Node11 -->
<g id="edge21" class="edge">
<title>Node17&#45;&gt;Node11</title>
<path fill="none" stroke="midnightblue" d="M644.61,-361.34C655.56,-355.95 666.22,-348.82 674,-339.5 713.5,-292.14 666.25,-248.96 710,-205.5 758.56,-157.25 794,-187.97 859,-166.5 880.9,-159.27 904.72,-149.88 924.53,-141.64"/>
<polygon fill="midnightblue" stroke="midnightblue" points="926.04,-144.81 933.9,-137.71 923.33,-138.35 926.04,-144.81"/>
</g>
<!-- Node17&#45;&gt;Node12 -->
<g id="edge22" class="edge">
<title>Node17&#45;&gt;Node12</title>
<path fill="none" stroke="midnightblue" d="M617.08,-391.51C633.51,-403.73 656.41,-421.94 674,-440.5 692.59,-460.11 688.11,-473.66 710,-489.5 711.9,-490.87 713.88,-492.17 715.93,-493.4"/>
<polygon fill="midnightblue" stroke="midnightblue" points="714.76,-496.74 725.24,-498.33 718.04,-490.56 714.76,-496.74"/>
</g>
<!-- Node17&#45;&gt;Node13 -->
<g id="edge28" class="edge">
<title>Node17&#45;&gt;Node13</title>
<path fill="none" stroke="midnightblue" d="M655.2,-361.32C662.3,-357.44 668.84,-352.59 674,-346.5 725.35,-285.93 659.27,-232.59 710,-171.5 712.95,-167.94 716.39,-164.81 720.14,-162.04"/>
<polygon fill="midnightblue" stroke="midnightblue" points="722.22,-164.86 728.77,-156.54 718.46,-158.96 722.22,-164.86"/>
</g>
<!-- Node17&#45;&gt;Node16 -->
<g id="edge30" class="edge">
<title>Node17&#45;&gt;Node16</title>
<path fill="none" stroke="midnightblue" d="M641.99,-391.61C652.77,-395.85 664.02,-400.86 674,-406.5 691.65,-416.47 692.45,-424.35 710,-434.5 716.8,-438.43 724.2,-442.1 731.62,-445.42"/>
<polygon fill="midnightblue" stroke="midnightblue" points="730.4,-448.71 740.97,-449.44 733.17,-442.28 730.4,-448.71"/>
</g>
<!-- Node18 -->
<g id="node18" class="node">
<title>Node18</title>
<g id="a_node18"><a xlink:href="namespaceprecice_1_1mesh.html#af945026d91b87d6b51fddc0debbb2c42" target="_top" xlink:title="Given the data and the mesh, this function returns the surface integral. Assumes no overlap exists fo...">
<polygon fill="white" stroke="black" points="717,-361.5 717,-391.5 852,-391.5 852,-361.5 717,-361.5"/>
<text text-anchor="start" x="725" y="-379.5" font-family="Helvetica,sans-Serif" font-size="10.00">precice::mesh::integrate</text>
<text text-anchor="middle" x="784.5" y="-368.5" font-family="Helvetica,sans-Serif" font-size="10.00">Surface</text>
</a>
</g>
</g>
<!-- Node17&#45;&gt;Node18 -->
<g id="edge23" class="edge">
<title>Node17&#45;&gt;Node18</title>
<path fill="none" stroke="midnightblue" d="M669.57,-376.5C681.75,-376.5 694.41,-376.5 706.67,-376.5"/>
<polygon fill="midnightblue" stroke="midnightblue" points="706.86,-380 716.86,-376.5 706.86,-373 706.86,-380"/>
</g>
<!-- Node19 -->
<g id="node19" class="node">
<title>Node19</title>
<g id="a_node19"><a xlink:href="namespaceprecice_1_1mesh.html#a9a609bf70347f75933f422fdef0e191d" target="_top" xlink:title="Given the data and the mesh, this function returns the volume integral. Assumes no overlap exists for...">
<polygon fill="white" stroke="black" points="717,-214.5 717,-244.5 852,-244.5 852,-214.5 717,-214.5"/>
<text text-anchor="start" x="725" y="-232.5" font-family="Helvetica,sans-Serif" font-size="10.00">precice::mesh::integrate</text>
<text text-anchor="middle" x="784.5" y="-221.5" font-family="Helvetica,sans-Serif" font-size="10.00">Volume</text>
</a>
</g>
</g>
<!-- Node17&#45;&gt;Node19 -->
<g id="edge25" class="edge">
<title>Node17&#45;&gt;Node19</title>
<path fill="none" stroke="midnightblue" d="M652.3,-361.46C660.26,-357.55 667.83,-352.64 674,-346.5 705.14,-315.54 678.26,-284.84 710,-254.5 711.66,-252.91 713.43,-251.42 715.28,-250.03"/>
<polygon fill="midnightblue" stroke="midnightblue" points="717.35,-252.86 723.86,-244.5 713.56,-246.97 717.35,-252.86"/>
</g>
<!-- Node20 -->
<g id="node20" class="node">
<title>Node20</title>
<g id="a_node20"><a xlink:href="classprecice_1_1utils_1_1IntraComm.html#a3e69605ac1a3f9f8c82471ba52624f5d" target="_top" xlink:title="True if this process is running the primary rank.">
<polygon fill="white" stroke="black" points="714.5,-312.5 714.5,-342.5 854.5,-342.5 854.5,-312.5 714.5,-312.5"/>
<text text-anchor="start" x="722.5" y="-330.5" font-family="Helvetica,sans-Serif" font-size="10.00">precice::utils::IntraComm</text>
<text text-anchor="middle" x="784.5" y="-319.5" font-family="Helvetica,sans-Serif" font-size="10.00">::isPrimary</text>
</a>
</g>
</g>
<!-- Node17&#45;&gt;Node20 -->
<g id="edge27" class="edge">
<title>Node17&#45;&gt;Node20</title>
<path fill="none" stroke="midnightblue" d="M653.53,-361.47C673.33,-356.29 695.67,-350.45 716.18,-345.09"/>
<polygon fill="midnightblue" stroke="midnightblue" points="717.29,-348.42 726.08,-342.51 715.52,-341.65 717.29,-348.42"/>
</g>
<!-- Node21 -->
<g id="node21" class="node">
<title>Node21</title>
<g id="a_node21"><a xlink:href="classprecice_1_1utils_1_1IntraComm.html#abde303b11e46851ae65dca65ef06daad" target="_top" xlink:title="True if this process is running a secondary rank.">
<polygon fill="white" stroke="black" points="714.5,-263.5 714.5,-293.5 854.5,-293.5 854.5,-263.5 714.5,-263.5"/>
<text text-anchor="start" x="722.5" y="-281.5" font-family="Helvetica,sans-Serif" font-size="10.00">precice::utils::IntraComm</text>
<text text-anchor="middle" x="784.5" y="-270.5" font-family="Helvetica,sans-Serif" font-size="10.00">::isSecondary</text>
</a>
</g>
</g>
<!-- Node17&#45;&gt;Node21 -->
<g id="edge29" class="edge">
<title>Node17&#45;&gt;Node21</title>
<path fill="none" stroke="midnightblue" d="M646.61,-361.35C656.16,-357.32 665.74,-352.4 674,-346.5 694.28,-332.01 689.44,-317.59 710,-303.5 712.87,-301.54 715.9,-299.71 719.04,-298.02"/>
<polygon fill="midnightblue" stroke="midnightblue" points="720.65,-301.13 728.11,-293.61 717.59,-294.84 720.65,-301.13"/>
</g>
<!-- Node18&#45;&gt;Node6 -->
<g id="edge24" class="edge">
<title>Node18&#45;&gt;Node6</title>
<path fill="none" stroke="midnightblue" d="M847.97,-391.52C871.22,-397.11 897.27,-403.37 919.18,-408.64"/>
<polygon fill="midnightblue" stroke="midnightblue" points="918.4,-412.05 928.94,-410.99 920.03,-405.25 918.4,-412.05"/>
</g>
<!-- Node19&#45;&gt;Node6 -->
<g id="edge26" class="edge">
<title>Node19&#45;&gt;Node6</title>
<path fill="none" stroke="midnightblue" d="M842.45,-244.54C848.34,-247.33 853.99,-250.63 859,-254.5 911,-294.67 946.2,-366.85 960.84,-401.25"/>
<polygon fill="midnightblue" stroke="midnightblue" points="957.67,-402.74 964.72,-410.64 964.14,-400.06 957.67,-402.74"/>
</g>
<!-- Node24 -->
<g id="node24" class="node">
<title>Node24</title>
<g id="a_node24"><a xlink:href="classprecice_1_1utils_1_1ManageUniqueIDs.html#a02be264c279698ae293587b6576088b5" target="_top" xlink:title=" ">
<polygon fill="white" stroke="black" points="516,-0.5 516,-30.5 674,-30.5 674,-0.5 516,-0.5"/>
<text text-anchor="start" x="524" y="-18.5" font-family="Helvetica,sans-Serif" font-size="10.00">precice::utils::ManageUnique</text>
<text text-anchor="middle" x="595" y="-7.5" font-family="Helvetica,sans-Serif" font-size="10.00">IDs::getFreeID</text>
</a>
</g>
</g>
<!-- Node23&#45;&gt;Node24 -->
<g id="edge33" class="edge">
<title>Node23&#45;&gt;Node24</title>
<path fill="none" stroke="midnightblue" d="M404.95,-120.79C426.25,-103.82 472.62,-68.41 516,-45.5 523.56,-41.51 531.78,-37.76 539.94,-34.36"/>
<polygon fill="midnightblue" stroke="midnightblue" points="541.49,-37.51 549.46,-30.54 538.88,-31.02 541.49,-37.51"/>
</g>
<!-- Node25&#45;&gt;Node12 -->
<g id="edge35" class="edge">
<title>Node25&#45;&gt;Node12</title>
<path fill="none" stroke="midnightblue" d="M653.53,-479.53C673.33,-484.71 695.67,-490.55 716.18,-495.91"/>
<polygon fill="midnightblue" stroke="midnightblue" points="715.52,-499.35 726.08,-498.49 717.29,-492.58 715.52,-499.35"/>
</g>
<!-- Node25&#45;&gt;Node16 -->
<g id="edge36" class="edge">
<title>Node25&#45;&gt;Node16</title>
<path fill="none" stroke="midnightblue" d="M669.57,-464.5C679.49,-464.5 689.74,-464.5 699.82,-464.5"/>
<polygon fill="midnightblue" stroke="midnightblue" points="699.84,-468 709.84,-464.5 699.84,-461 699.84,-468"/>
</g>
</g>
</svg>
        <g id="navigator" transform="translate(0 0)" fill="#404254">
                <rect fill="#f2f5e9" fill-opacity="0.5" stroke="#606060" stroke-width=".5" x="0" y="0" width="60" height="60"/>
                <use id="zoomplus" xlink:href="#zoomPlus" x="17" y="9" onmousedown="handleZoom(evt,'in')"/>
                <use id="zoomminus" xlink:href="#zoomMin" x="42" y="9" onmousedown="handleZoom(evt,'out')"/>
                <use id="reset" xlink:href="#resetDef" x="30" y="36" onmousedown="handleReset()"/>
                <g id="arrowUp" xlink:href="#dirArrow" transform="translate(30 24)" onmousedown="handlePan(0,-1)">
                  <use xlink:href="#rim" fill="#404040">
                        <set attributeName="fill" to="#808080" begin="arrowUp.mouseover" end="arrowUp.mouseout"/>
                  </use>
                  <path fill="none" stroke="white" stroke-width="1.5" d="M0,-3.0v7 M-2.5,-0.5L0,-3.0L2.5,-0.5"/>
                </g>
                <g id="arrowRight" xlink:href="#dirArrow" transform="rotate(90) translate(36 -43)" onmousedown="handlePan(1,0)">
                  <use xlink:href="#rim" fill="#404040">
                        <set attributeName="fill" to="#808080" begin="arrowRight.mouseover" end="arrowRight.mouseout"/>
                  </use>
                  <path fill="none" stroke="white" stroke-width="1.5" d="M0,-3.0v7 M-2.5,-0.5L0,-3.0L2.5,-0.5"/>
                </g>
                <g id="arrowDown" xlink:href="#dirArrow" transform="rotate(180) translate(-30 -48)" onmousedown="handlePan(0,1)">
                  <use xlink:href="#rim" fill="#404040">
                        <set attributeName="fill" to="#808080" begin="arrowDown.mouseover" end="arrowDown.mouseout"/>
                  </use>
                  <path fill="none" stroke="white" stroke-width="1.5" d="M0,-3.0v7 M-2.5,-0.5L0,-3.0L2.5,-0.5"/>
                </g>
                <g id="arrowLeft" xlink:href="#dirArrow" transform="rotate(270) translate(-36 17)" onmousedown="handlePan(-1,0)">
                  <use xlink:href="#rim" fill="#404040">
                        <set attributeName="fill" to="#808080" begin="arrowLeft.mouseover" end="arrowLeft.mouseout"/>
                  </use>
                  <path fill="none" stroke="white" stroke-width="1.5" d="M0,-3.0v7 M-2.5,-0.5L0,-3.0L2.5,-0.5"/>
                </g>
        </g>
        <svg viewBox="0 0 15 15" width="100%" height="30px" preserveAspectRatio="xMaxYMin meet">
         <g id="arrow_out" transform="scale(0.3 0.3)">
          <a xlink:href="PartitionOfUnityMappingTest_8cpp_ae4f1a4c71a6f4dd4d5cc8ad8bc172bdb_cgraph_org.svg" target="_base">
           <rect id="button" ry="5" rx="5" y="6" x="6" height="38" width="38"
                fill="#f2f5e9" fill-opacity="0.5" stroke="#606060" stroke-width="1.0"/>
           <path id="arrow"
             d="M 11.500037,31.436501 C 11.940474,20.09759 22.043105,11.32322 32.158766,21.979434 L 37.068811,17.246167 C 37.068811,17.246167 37.088388,32 37.088388,32 L 22.160133,31.978069 C 22.160133,31.978069 26.997745,27.140456 26.997745,27.140456 C 18.528582,18.264221 13.291696,25.230495 11.500037,31.436501 z"
             style="fill:#404040;"/>
          </a>
         </g>
        </svg>
</svg>
