<?xml version="1.0" encoding="UTF-8" standalone="no"?>
<!DOCTYPE svg PUBLIC "-//W3C//DTD SVG 1.1//EN"
 "http://www.w3.org/Graphics/SVG/1.1/DTD/svg11.dtd">
<!-- Generated by graphviz version 2.43.0 (0)
 -->
<!-- Title: BOOST_AUTO_TEST_CASE Pages: 1 -->
<!--zoomable 440 -->

<svg id="main" version="1.1" xmlns="http://www.w3.org/2000/svg" xmlns:xlink="http://www.w3.org/1999/xlink" xml:space="preserve" onload="init(evt)">
<style type="text/css"><![CDATA[
.node, .edge {opacity: 0.7;}
.node.selected, .edge.selected {opacity: 1;}
.edge:hover path { stroke: red; }
.edge:hover polygon { stroke: red; fill: red; }
]]></style>

<defs>
  <circle id="rim" cx="0" cy="0" r="7"/>
  <circle id="rim2" cx="0" cy="0" r="3.5"/>
  <g id="zoomPlus">
    <use xlink:href="#rim" fill="#404040"><set attributeName="fill" to="#808080" begin="zoomplus.mouseover" end="zoomplus.mouseout"/></use>
    <path d="M-4,0h8M0,-4v8" fill="none" stroke="white" stroke-width="1.5" pointer-events="none"/>
  </g>
  <g id="zoomMin">
    <use xlink:href="#rim" fill="#404040"><set attributeName="fill" to="#808080" begin="zoomminus.mouseover" end="zoomminus.mouseout"/></use>
    <path d="M-4,0h8" fill="none" stroke="white" stroke-width="1.5" pointer-events="none"/>
  </g>
  <g id="arrowUp" transform="translate(30 24)">
    <use xlink:href="#rim"/>
    <path pointer-events="none" fill="none" stroke="white" stroke-width="1.5" d="M0,-3.0v7 M-2.5,-0.5L0,-3.0L2.5,-0.5"/>
  </g>
  <g id="arrowRight" transform="rotate(90) translate(36 -43)">
    <use xlink:href="#rim"/>
    <path pointer-events="none" fill="none" stroke="white" stroke-width="1.5" d="M0,-3.0v7 M-2.5,-0.5L0,-3.0L2.5,-0.5"/>
  </g>
  <g id="arrowDown" transform="rotate(180) translate(-30 -48)">
    <use xlink:href="#rim"/>
    <path pointer-events="none" fill="none" stroke="white" stroke-width="1.5" d="M0,-3.0v7 M-2.5,-0.5L0,-3.0L2.5,-0.5"/>
  </g>
  <g id="arrowLeft" transform="rotate(270) translate(-36 17)">
    <use xlink:href="#rim"/>
    <path pointer-events="none" fill="none" stroke="white" stroke-width="1.5" d="M0,-3.0v7 M-2.5,-0.5L0,-3.0L2.5,-0.5"/>
  </g>
  <g id="resetDef">
    <use xlink:href="#rim2" fill="#404040"><set attributeName="fill" to="#808080" begin="reset.mouseover" end="reset.mouseout"/></use>
  </g>
</defs>
<script type="application/ecmascript">
var viewWidth = 1016;
var viewHeight = 440;
var sectionId = 'dynsection-27';
</script>
<script type="application/ecmascript" xlink:href="svg.min.js"/>
<svg id="graph" class="graph">
<g id="viewport">
<title>BOOST_AUTO_TEST_CASE</title>
<!-- Node1 -->
<g id="Node000001" class="node">
<title>Node1</title>
<g id="a_Node000001"><a xlink:title=" ">
<polygon fill="#999999" stroke="#666666" points="143,-176.5 0,-176.5 0,-157.5 143,-157.5 143,-176.5"/>
<text text-anchor="middle" x="71.5" y="-164.5" font-family="Helvetica,sans-Serif" font-size="10.00">BOOST_AUTO_TEST_CASE</text>
</a>
</g>
</g>
<!-- Node2 -->
<g id="Node000002" class="node">
<title>Node2</title>
<g id="a_Node000002"><a xlink:href="PetRadialBasisFctMappingTest_8cpp.html#a01e62fede7c9f57b59f9a9ece0ba4499" target="_top" xlink:title=" ">
<polygon fill="white" stroke="#666666" points="252,-176.5 179,-176.5 179,-157.5 252,-157.5 252,-176.5"/>
<text text-anchor="middle" x="215.5" y="-164.5" font-family="Helvetica,sans-Serif" font-size="10.00">testTagging</text>
</a>
</g>
</g>
<!-- Node1&#45;&gt;Node2 -->
<g id="edge1_Node000001_Node000002" class="edge">
<title>Node1&#45;&gt;Node2</title>
<g id="a_edge1_Node000001_Node000002"><a xlink:title=" ">
<path fill="none" stroke="#63b8ff" d="M143.08,-167C151.8,-167 160.52,-167 168.72,-167"/>
<polygon fill="#63b8ff" stroke="#63b8ff" points="168.79,-170.5 178.79,-167 168.79,-163.5 168.79,-170.5"/>
</a>
</g>
</g>
<!-- Node3 -->
<g id="Node000003" class="node">
<title>Node3</title>
<g id="a_Node000003"><a xlink:href="classprecice_1_1mesh_1_1Mesh.html#a988baa22e8e6fcaa9efc64e7943cb2fc" target="_top" xlink:title="Computes the boundingBox for the vertices.">
<polygon fill="white" stroke="#666666" points="444,-360 314,-360 314,-330 444,-330 444,-360"/>
<text text-anchor="start" x="322" y="-348" font-family="Helvetica,sans-Serif" font-size="10.00">precice::mesh::Mesh</text>
<text text-anchor="middle" x="379" y="-337" font-family="Helvetica,sans-Serif" font-size="10.00">::computeBoundingBox</text>
</a>
</g>
</g>
<!-- Node2&#45;&gt;Node3 -->
<g id="edge2_Node000002_Node000003" class="edge">
<title>Node2&#45;&gt;Node3</title>
<g id="a_edge2_Node000002_Node000003"><a xlink:title=" ">
<path fill="none" stroke="#63b8ff" d="M219.97,-176.54C228.51,-199.01 252.52,-256.07 288,-292 301.1,-305.27 318.2,-316.43 333.96,-325.03"/>
<polygon fill="#63b8ff" stroke="#63b8ff" points="332.57,-328.25 343.05,-329.8 335.82,-322.05 332.57,-328.25"/>
</a>
</g>
</g>
<!-- Node9 -->
<g id="Node000009" class="node">
<title>Node9</title>
<g id="a_Node000009"><a xlink:href="classprecice_1_1mesh_1_1Mesh.html#a4220c9b15bb1c3dbf5c00701851f8288" target="_top" xlink:title="Returns the number of vertices.">
<polygon fill="white" stroke="#666666" points="1008,-331 891,-331 891,-301 1008,-301 1008,-331"/>
<text text-anchor="start" x="899" y="-319" font-family="Helvetica,sans-Serif" font-size="10.00">precice::mesh::Mesh</text>
<text text-anchor="middle" x="949.5" y="-308" font-family="Helvetica,sans-Serif" font-size="10.00">::nVertices</text>
</a>
</g>
</g>
<!-- Node2&#45;&gt;Node9 -->
<g id="edge22_Node000002_Node000009" class="edge">
<title>Node2&#45;&gt;Node9</title>
<g id="a_edge22_Node000002_Node000009"><a xlink:title=" ">
<path fill="none" stroke="#63b8ff" d="M222.33,-176.75C232.99,-193.57 257.37,-227.71 288,-243 340.24,-269.08 722.86,-299.56 880.7,-311.17"/>
<polygon fill="#63b8ff" stroke="#63b8ff" points="880.54,-314.67 890.77,-311.91 881.05,-307.69 880.54,-314.67"/>
</a>
</g>
</g>
<!-- Node10 -->
<g id="Node000010" class="node">
<title>Node10</title>
<g id="a_Node000010"><a xlink:href="classprecice_1_1mesh_1_1Mesh.html#a6e3fec22b430b35daccd92ef560d2c87" target="_top" xlink:title="Create only data for vertex.">
<polygon fill="white" stroke="#666666" points="437.5,-234 320.5,-234 320.5,-204 437.5,-204 437.5,-234"/>
<text text-anchor="start" x="328.5" y="-222" font-family="Helvetica,sans-Serif" font-size="10.00">precice::mesh::Mesh</text>
<text text-anchor="middle" x="379" y="-211" font-family="Helvetica,sans-Serif" font-size="10.00">::createData</text>
</a>
</g>
</g>
<!-- Node2&#45;&gt;Node10 -->
<g id="edge10_Node000002_Node000010" class="edge">
<title>Node2&#45;&gt;Node10</title>
<g id="a_edge10_Node000002_Node000010"><a xlink:title=" ">
<path fill="none" stroke="#63b8ff" d="M246.12,-176.54C267.2,-183.32 296.16,-192.65 321.58,-200.83"/>
<polygon fill="#63b8ff" stroke="#63b8ff" points="320.54,-204.17 331.13,-203.91 322.68,-197.51 320.54,-204.17"/>
</a>
</g>
</g>
<!-- Node12 -->
<g id="Node000012" class="node">
<title>Node12</title>
<g id="a_Node000012"><a xlink:href="PetRadialBasisFctMappingTest_8cpp.html#abe9a39799512d3777b5369d9a52fab13" target="_top" xlink:title=" ">
<polygon fill="white" stroke="#666666" points="435.5,-176.5 322.5,-176.5 322.5,-157.5 435.5,-157.5 435.5,-176.5"/>
<text text-anchor="middle" x="379" y="-164.5" font-family="Helvetica,sans-Serif" font-size="10.00">getDistributedMesh</text>
</a>
</g>
</g>
<!-- Node2&#45;&gt;Node12 -->
<g id="edge12_Node000002_Node000012" class="edge">
<title>Node2&#45;&gt;Node12</title>
<g id="a_edge12_Node000002_Node000012"><a xlink:title=" ">
<path fill="none" stroke="#63b8ff" d="M252.34,-167C269.91,-167 291.64,-167 312.06,-167"/>
<polygon fill="#63b8ff" stroke="#63b8ff" points="312.27,-170.5 322.27,-167 312.27,-163.5 312.27,-170.5"/>
</a>
</g>
</g>
<!-- Node17 -->
<g id="Node000017" class="node">
<title>Node17</title>
<g id="a_Node000017"><a xlink:href="classprecice_1_1mapping_1_1Gaussian.html#a07fe4e7da285afba0eba62ace91e6944" target="_top" xlink:title=" ">
<polygon fill="white" stroke="#666666" points="455,-139 303,-139 303,-109 455,-109 455,-139"/>
<text text-anchor="start" x="311" y="-127" font-family="Helvetica,sans-Serif" font-size="10.00">precice::mapping::Gaussian</text>
<text text-anchor="middle" x="379" y="-116" font-family="Helvetica,sans-Serif" font-size="10.00">::getSupportRadius</text>
</a>
</g>
</g>
<!-- Node2&#45;&gt;Node17 -->
<g id="edge18_Node000002_Node000017" class="edge">
<title>Node2&#45;&gt;Node17</title>
<g id="a_edge18_Node000002_Node000017"><a xlink:title=" ">
<path fill="none" stroke="#63b8ff" d="M252.34,-157.46C269.83,-152.8 291.44,-147.05 311.78,-141.63"/>
<polygon fill="#63b8ff" stroke="#63b8ff" points="312.88,-144.96 321.64,-139.01 311.08,-138.2 312.88,-144.96"/>
</a>
</g>
</g>
<!-- Node18 -->
<g id="Node000018" class="node">
<title>Node18</title>
<g id="a_Node000018"><a xlink:href="structprecice_1_1mapping_1_1CompactSupportBase.html#a13e09b17c401e51e55d2b605a8e857ba" target="_top" xlink:title=" ">
<polygon fill="white" stroke="#666666" points="470,-91 288,-91 288,-61 470,-61 470,-91"/>
<text text-anchor="start" x="296" y="-79" font-family="Helvetica,sans-Serif" font-size="10.00">precice::mapping::Compact</text>
<text text-anchor="middle" x="379" y="-68" font-family="Helvetica,sans-Serif" font-size="10.00">SupportBase::hasCompactSupport</text>
</a>
</g>
</g>
<!-- Node2&#45;&gt;Node18 -->
<g id="edge19_Node000002_Node000018" class="edge">
<title>Node2&#45;&gt;Node18</title>
<g id="a_edge19_Node000002_Node000018"><a xlink:title=" ">
<path fill="none" stroke="#63b8ff" d="M224.18,-157.21C236.21,-142.55 260.93,-115.03 288,-100 291.3,-98.17 294.76,-96.47 298.3,-94.89"/>
<polygon fill="#63b8ff" stroke="#63b8ff" points="299.91,-98.02 307.86,-91.01 297.28,-91.53 299.91,-98.02"/>
</a>
</g>
</g>
<!-- Node19 -->
<g id="Node000019" class="node">
<title>Node19</title>
<g id="a_Node000019"><a xlink:href="namespaceprecice_1_1testing.html#a08533fd83bad3d7f27ea7f4a35a14aa4" target="_top" xlink:title=" ">
<polygon fill="white" stroke="#666666" points="457,-37.5 301,-37.5 301,-18.5 457,-18.5 457,-37.5"/>
<text text-anchor="middle" x="379" y="-25.5" font-family="Helvetica,sans-Serif" font-size="10.00">precice::testing::nextMeshID</text>
</a>
</g>
</g>
<!-- Node2&#45;&gt;Node19 -->
<g id="edge20_Node000002_Node000019" class="edge">
<title>Node2&#45;&gt;Node19</title>
<g id="a_edge20_Node000002_Node000019"><a xlink:title=" ">
<path fill="none" stroke="#63b8ff" d="M219.72,-157.25C227.61,-134.98 250.03,-80.13 288,-52 293.9,-47.63 300.53,-44.06 307.45,-41.14"/>
<polygon fill="#63b8ff" stroke="#63b8ff" points="308.9,-44.33 317.03,-37.54 306.44,-37.78 308.9,-44.33"/>
</a>
</g>
</g>
<!-- Node4 -->
<g id="Node000004" class="node">
<title>Node4</title>
<g id="a_Node000004"><a xlink:href="classprecice_1_1mesh_1_1BoundingBox.html#a7aeb328ca8291253c4fd22d0d4cb0a18" target="_top" xlink:title="Expand bounding box using another bounding box.">
<polygon fill="white" stroke="#666666" points="662.5,-432 507.5,-432 507.5,-402 662.5,-402 662.5,-432"/>
<text text-anchor="start" x="515.5" y="-420" font-family="Helvetica,sans-Serif" font-size="10.00">precice::mesh::BoundingBox</text>
<text text-anchor="middle" x="585" y="-409" font-family="Helvetica,sans-Serif" font-size="10.00">::expandBy</text>
</a>
</g>
</g>
<!-- Node3&#45;&gt;Node4 -->
<g id="edge3_Node000003_Node000004" class="edge">
<title>Node3&#45;&gt;Node4</title>
<g id="a_edge3_Node000003_Node000004"><a xlink:title=" ">
<path fill="none" stroke="#63b8ff" d="M417.53,-360.04C442.46,-369.84 476.01,-382.68 506,-393 511.8,-395 517.88,-397 523.96,-398.96"/>
<polygon fill="#63b8ff" stroke="#63b8ff" points="522.9,-402.3 533.49,-401.99 525.02,-395.63 522.9,-402.3"/>
</a>
</g>
</g>
<!-- Node6 -->
<g id="Node000006" class="node">
<title>Node6</title>
<g id="a_Node000006"><a xlink:href="classprecice_1_1mesh_1_1BoundingBox.html#a93ebcb8b5754683c5042d63ce9042e9d" target="_top" xlink:title=" ">
<polygon fill="white" stroke="#666666" points="662.5,-384 507.5,-384 507.5,-354 662.5,-354 662.5,-384"/>
<text text-anchor="start" x="515.5" y="-372" font-family="Helvetica,sans-Serif" font-size="10.00">precice::mesh::BoundingBox</text>
<text text-anchor="middle" x="585" y="-361" font-family="Helvetica,sans-Serif" font-size="10.00">::isDefault</text>
</a>
</g>
</g>
<!-- Node3&#45;&gt;Node6 -->
<g id="edge5_Node000003_Node000006" class="edge">
<title>Node3&#45;&gt;Node6</title>
<g id="a_edge5_Node000003_Node000006"><a xlink:title=" ">
<path fill="none" stroke="#63b8ff" d="M444.27,-352.56C460.96,-354.52 479.23,-356.67 496.88,-358.75"/>
<polygon fill="#63b8ff" stroke="#63b8ff" points="496.85,-362.27 507.19,-359.96 497.67,-355.32 496.85,-362.27"/>
</a>
</g>
</g>
<!-- Node7 -->
<g id="Node000007" class="node">
<title>Node7</title>
<g id="a_Node000007"><a xlink:href="classprecice_1_1mesh_1_1Mesh.html#a61d536967e403c9c2c4dfa33ddc8a044" target="_top" xlink:title="Mutable access to a vertex by VertexID.">
<polygon fill="white" stroke="#666666" points="643.5,-336 526.5,-336 526.5,-306 643.5,-306 643.5,-336"/>
<text text-anchor="start" x="534.5" y="-324" font-family="Helvetica,sans-Serif" font-size="10.00">precice::mesh::Mesh</text>
<text text-anchor="middle" x="585" y="-313" font-family="Helvetica,sans-Serif" font-size="10.00">::vertex</text>
</a>
</g>
</g>
<!-- Node3&#45;&gt;Node7 -->
<g id="edge6_Node000003_Node000007" class="edge">
<title>Node3&#45;&gt;Node7</title>
<g id="a_edge6_Node000003_Node000007"><a xlink:title=" ">
<path fill="none" stroke="#63b8ff" d="M444.27,-337.44C467.16,-334.75 493,-331.71 516.18,-328.98"/>
<polygon fill="#63b8ff" stroke="#63b8ff" points="516.75,-332.44 526.28,-327.79 515.93,-325.48 516.75,-332.44"/>
</a>
</g>
</g>
<!-- Node5 -->
<g id="Node000005" class="node">
<title>Node5</title>
<g id="a_Node000005"><a xlink:href="classprecice_1_1mesh_1_1BoundingBox.html#ad500309dcbe440703ef71dfcc7a2a394" target="_top" xlink:title="Getter dimension of the bounding box.">
<polygon fill="white" stroke="#666666" points="855,-432 700,-432 700,-402 855,-402 855,-432"/>
<text text-anchor="start" x="708" y="-420" font-family="Helvetica,sans-Serif" font-size="10.00">precice::mesh::BoundingBox</text>
<text text-anchor="middle" x="777.5" y="-409" font-family="Helvetica,sans-Serif" font-size="10.00">::getDimension</text>
</a>
</g>
</g>
<!-- Node4&#45;&gt;Node5 -->
<g id="edge4_Node000004_Node000005" class="edge">
<title>Node4&#45;&gt;Node5</title>
<g id="a_edge4_Node000004_Node000005"><a xlink:title=" ">
<path fill="none" stroke="#63b8ff" d="M662.66,-417C671.6,-417 680.77,-417 689.83,-417"/>
<polygon fill="#63b8ff" stroke="#63b8ff" points="690,-420.5 700,-417 690,-413.5 690,-420.5"/>
</a>
</g>
</g>
<!-- Node8 -->
<g id="Node000008" class="node">
<title>Node8</title>
<g id="a_Node000008"><a xlink:href="classprecice_1_1mesh_1_1Mesh.html#ac21407160a09623491d9f6364c0a7e43" target="_top" xlink:title="Returns true if the given vertexID is valid.">
<polygon fill="white" stroke="#666666" points="836,-374 719,-374 719,-344 836,-344 836,-374"/>
<text text-anchor="start" x="727" y="-362" font-family="Helvetica,sans-Serif" font-size="10.00">precice::mesh::Mesh</text>
<text text-anchor="middle" x="777.5" y="-351" font-family="Helvetica,sans-Serif" font-size="10.00">::isValidVertexID</text>
</a>
</g>
</g>
<!-- Node7&#45;&gt;Node8 -->
<g id="edge7_Node000007_Node000008" class="edge">
<title>Node7&#45;&gt;Node8</title>
<g id="a_edge7_Node000007_Node000008"><a xlink:title=" ">
<path fill="none" stroke="#63b8ff" d="M643.67,-332.5C664.19,-336.6 687.47,-341.24 708.75,-345.49"/>
<polygon fill="#63b8ff" stroke="#63b8ff" points="708.2,-348.95 718.69,-347.47 709.57,-342.08 708.2,-348.95"/>
</a>
</g>
</g>
<!-- Node7&#45;&gt;Node9 -->
<g id="edge9_Node000007_Node000009" class="edge">
<title>Node7&#45;&gt;Node9</title>
<g id="a_edge9_Node000007_Node000009"><a xlink:title=" ">
<path fill="none" stroke="#63b8ff" d="M643.84,-320.2C708.29,-319.31 812.4,-317.88 880.65,-316.94"/>
<polygon fill="#63b8ff" stroke="#63b8ff" points="880.92,-320.43 890.87,-316.79 880.82,-313.43 880.92,-320.43"/>
</a>
</g>
</g>
<!-- Node8&#45;&gt;Node9 -->
<g id="edge8_Node000008_Node000009" class="edge">
<title>Node8&#45;&gt;Node9</title>
<g id="a_edge8_Node000008_Node000009"><a xlink:title=" ">
<path fill="none" stroke="#63b8ff" d="M836.05,-344.44C850.38,-340.82 865.86,-336.9 880.63,-333.17"/>
<polygon fill="#63b8ff" stroke="#63b8ff" points="881.88,-336.46 890.72,-330.62 880.16,-329.68 881.88,-336.46"/>
</a>
</g>
</g>
<!-- Node11 -->
<g id="Node000011" class="node">
<title>Node11</title>
<g id="a_Node000011"><a xlink:href="classprecice_1_1mesh_1_1Mesh.html#aceb3eabb4f8e40a44d5d1c2822ba7b56" target="_top" xlink:title="Allows access to all data.">
<polygon fill="white" stroke="#666666" points="836,-212 719,-212 719,-182 836,-182 836,-212"/>
<text text-anchor="start" x="727" y="-200" font-family="Helvetica,sans-Serif" font-size="10.00">precice::mesh::Mesh</text>
<text text-anchor="middle" x="777.5" y="-189" font-family="Helvetica,sans-Serif" font-size="10.00">::data</text>
</a>
</g>
</g>
<!-- Node10&#45;&gt;Node11 -->
<g id="edge11_Node000010_Node000011" class="edge">
<title>Node10&#45;&gt;Node11</title>
<g id="a_edge11_Node000010_Node000011"><a xlink:title=" ">
<path fill="none" stroke="#63b8ff" d="M437.57,-223.17C495.08,-226.45 585.91,-229.24 664,-221 678.6,-219.46 694.1,-216.82 708.77,-213.85"/>
<polygon fill="#63b8ff" stroke="#63b8ff" points="709.71,-217.23 718.77,-211.75 708.27,-210.38 709.71,-217.23"/>
</a>
</g>
</g>
<!-- Node13 -->
<g id="Node000013" class="node">
<title>Node13</title>
<g id="a_Node000013"><a xlink:href="PetRadialBasisFctMappingTest_8cpp.html#a091feb1893c75899e59fa939e678debe" target="_top" xlink:title=" ">
<polygon fill="white" stroke="#666666" points="631.5,-211.5 538.5,-211.5 538.5,-192.5 631.5,-192.5 631.5,-211.5"/>
<text text-anchor="middle" x="585" y="-199.5" font-family="Helvetica,sans-Serif" font-size="10.00">addGlobalIndex</text>
</a>
</g>
</g>
<!-- Node12&#45;&gt;Node13 -->
<g id="edge13_Node000012_Node000013" class="edge">
<title>Node12&#45;&gt;Node13</title>
<g id="a_edge13_Node000012_Node000013"><a xlink:title=" ">
<path fill="none" stroke="#63b8ff" d="M435.47,-176.52C464.29,-181.46 499.4,-187.49 528.26,-192.44"/>
<polygon fill="#63b8ff" stroke="#63b8ff" points="527.73,-195.9 538.18,-194.14 528.92,-189 527.73,-195.9"/>
</a>
</g>
</g>
<!-- Node14 -->
<g id="Node000014" class="node">
<title>Node14</title>
<g id="a_Node000014"><a xlink:href="classprecice_1_1mesh_1_1Mesh.html#afa920f8d8d32076837ae5e3dc28b0eea" target="_top" xlink:title="Allocates memory for the vertex data values and corresponding gradient values.">
<polygon fill="white" stroke="#666666" points="643.5,-174 526.5,-174 526.5,-144 643.5,-144 643.5,-174"/>
<text text-anchor="start" x="534.5" y="-162" font-family="Helvetica,sans-Serif" font-size="10.00">precice::mesh::Mesh</text>
<text text-anchor="middle" x="585" y="-151" font-family="Helvetica,sans-Serif" font-size="10.00">::allocateDataValues</text>
</a>
</g>
</g>
<!-- Node12&#45;&gt;Node14 -->
<g id="edge14_Node000012_Node000014" class="edge">
<title>Node12&#45;&gt;Node14</title>
<g id="a_edge14_Node000012_Node000014"><a xlink:title=" ">
<path fill="none" stroke="#63b8ff" d="M435.74,-164.81C460.53,-163.84 489.94,-162.69 516.01,-161.67"/>
<polygon fill="#63b8ff" stroke="#63b8ff" points="516.33,-165.16 526.19,-161.27 516.06,-158.16 516.33,-165.16"/>
</a>
</g>
</g>
<!-- Node15 -->
<g id="Node000015" class="node">
<title>Node15</title>
<g id="a_Node000015"><a xlink:href="classprecice_1_1mesh_1_1Mesh.html#af6e6d684553dc5d0f0a23cacb77b3fc7" target="_top" xlink:title="Creates and initializes a Vertex object.">
<polygon fill="white" stroke="#666666" points="643.5,-126 526.5,-126 526.5,-96 643.5,-96 643.5,-126"/>
<text text-anchor="start" x="534.5" y="-114" font-family="Helvetica,sans-Serif" font-size="10.00">precice::mesh::Mesh</text>
<text text-anchor="middle" x="585" y="-103" font-family="Helvetica,sans-Serif" font-size="10.00">::createVertex</text>
</a>
</g>
</g>
<!-- Node12&#45;&gt;Node15 -->
<g id="edge16_Node000012_Node000015" class="edge">
<title>Node12&#45;&gt;Node15</title>
<g id="a_edge16_Node000012_Node000015"><a xlink:title=" ">
<path fill="none" stroke="#63b8ff" d="M431.23,-157.47C443.98,-154.74 457.56,-151.54 470,-148 486.36,-143.34 489.87,-140.39 506,-135 511.91,-133.03 518.09,-131.02 524.27,-129.06"/>
<polygon fill="#63b8ff" stroke="#63b8ff" points="525.47,-132.35 533.95,-126.01 523.36,-125.67 525.47,-132.35"/>
</a>
</g>
</g>
<!-- Node16 -->
<g id="Node000016" class="node">
<title>Node16</title>
<g id="a_Node000016"><a xlink:href="classprecice_1_1mesh_1_1Mesh.html#a13faa9b03e5d20918ed6528db1415fa3" target="_top" xlink:title="Returns modifieable container holding all vertices.">
<polygon fill="white" stroke="#666666" points="643.5,-78 526.5,-78 526.5,-48 643.5,-48 643.5,-78"/>
<text text-anchor="start" x="534.5" y="-66" font-family="Helvetica,sans-Serif" font-size="10.00">precice::mesh::Mesh</text>
<text text-anchor="middle" x="585" y="-55" font-family="Helvetica,sans-Serif" font-size="10.00">::vertices</text>
</a>
</g>
</g>
<!-- Node12&#45;&gt;Node16 -->
<g id="edge17_Node000012_Node000016" class="edge">
<title>Node12&#45;&gt;Node16</title>
<g id="a_edge17_Node000012_Node000016"><a xlink:title=" ">
<path fill="none" stroke="#63b8ff" d="M435.82,-162.64C447.89,-159.75 460.01,-155.17 470,-148 495.57,-129.64 481.29,-106.5 506,-87 509.38,-84.33 513.05,-81.96 516.91,-79.85"/>
<polygon fill="#63b8ff" stroke="#63b8ff" points="518.68,-82.89 526.17,-75.39 515.64,-76.58 518.68,-82.89"/>
</a>
</g>
</g>
<!-- Node14&#45;&gt;Node11 -->
<g id="edge15_Node000014_Node000011" class="edge">
<title>Node14&#45;&gt;Node11</title>
<g id="a_edge15_Node000014_Node000011"><a xlink:title=" ">
<path fill="none" stroke="#63b8ff" d="M643.67,-170.5C664.19,-174.6 687.47,-179.24 708.75,-183.49"/>
<polygon fill="#63b8ff" stroke="#63b8ff" points="708.2,-186.95 718.69,-185.47 709.57,-180.08 708.2,-186.95"/>
</a>
</g>
</g>
<!-- Node20 -->
<g id="Node000020" class="node">
<title>Node20</title>
<g id="a_Node000020"><a xlink:href="classprecice_1_1utils_1_1ManageUniqueIDs.html#a02be264c279698ae293587b6576088b5" target="_top" xlink:title=" ">
<polygon fill="white" stroke="#666666" points="664,-30 506,-30 506,0 664,0 664,-30"/>
<text text-anchor="start" x="514" y="-18" font-family="Helvetica,sans-Serif" font-size="10.00">precice::utils::ManageUnique</text>
<text text-anchor="middle" x="585" y="-7" font-family="Helvetica,sans-Serif" font-size="10.00">IDs::getFreeID</text>
</a>
</g>
</g>
<!-- Node19&#45;&gt;Node20 -->
<g id="edge21_Node000019_Node000020" class="edge">
<title>Node19&#45;&gt;Node20</title>
<g id="a_edge21_Node000019_Node000020"><a xlink:title=" ">
<path fill="none" stroke="#63b8ff" d="M457.12,-23.09C469.68,-22.29 482.77,-21.45 495.56,-20.64"/>
<polygon fill="#63b8ff" stroke="#63b8ff" points="495.99,-24.12 505.75,-19.99 495.55,-17.13 495.99,-24.12"/>
</a>
</g>
</g>
</g>
</svg>

<g id="navigator" transform="translate(0 0)" fill="#404254">
  <rect fill="#f2f5e9" fill-opacity="0.5" stroke="#606060" stroke-width=".5" x="0" y="0" width="60" height="60"/>
  <use id="zoomplus" xlink:href="#zoomPlus" x="17" y="9" onmousedown="handleZoom(evt,'in')"/>
  <use id="zoomminus" xlink:href="#zoomMin" x="42" y="9" onmousedown="handleZoom(evt,'out')"/>
  <use id="reset" xlink:href="#resetDef" x="30" y="36" onmousedown="handleReset()"/>
   <use id="arrowup" xlink:href="#arrowUp" x="0" y="0" onmousedown="handlePan(0,-1)"/>
  <use id="arrowright" xlink:href="#arrowRight" x="0" y="0" onmousedown="handlePan(1,0)"/>
  <use id="arrowdown" xlink:href="#arrowDown" x="0" y="0" onmousedown="handlePan(0,1)"/>
  <use id="arrowleft" xlink:href="#arrowLeft" x="0" y="0" onmousedown="handlePan(-1,0)"/>
</g>
<svg viewBox="0 0 15 15" width="100%" height="30px" preserveAspectRatio="xMaxYMin meet">
 <g id="arrow_out" transform="scale(0.3 0.3)">
  <a xlink:href="PetRadialBasisFctMappingTest_8cpp_ae1a523d2840355e90b726be63e0b8ed7_cgraph_org.svg" target="_base">
   <rect id="button" ry="5" rx="5" y="6" x="6" height="38" width="38"
        fill="#f2f5e9" fill-opacity="0.5" stroke="#606060" stroke-width="1.0"/>
   <path id="arrow"
     d="M 11.500037,31.436501 C 11.940474,20.09759 22.043105,11.32322 32.158766,21.979434 L 37.068811,17.246167 C 37.068811,17.246167 37.088388,32 37.088388,32 L 22.160133,31.978069 C 22.160133,31.978069 26.997745,27.140456 26.997745,27.140456 C 18.528582,18.264221 13.291696,25.230495 11.500037,31.436501 z"
     style="fill:#404040;"/>
  </a>
 </g>
</svg>

<style type='text/css'>
<![CDATA[
[data-mouse-over-selected='false'] { opacity: 0.7; }
[data-mouse-over-selected='true']  { opacity: 1.0; }
]]>
</style>
<script type="application/ecmascript"><![CDATA[
document.addEventListener('DOMContentLoaded', (event) => {
  highlightEdges();
  highlightAdjacentNodes();
});
]]></script>
</svg>
