<?xml version="1.0" encoding="UTF-8" standalone="no"?>
<!DOCTYPE svg PUBLIC "-//W3C//DTD SVG 1.1//EN"
 "http://www.w3.org/Graphics/SVG/1.1/DTD/svg11.dtd">
<!-- Generated by graphviz version 2.43.0 (0)
 -->
<!-- Title: runP2PMeshBroadcastTest Pages: 1 -->
<svg width="903pt" height="743pt"
 viewBox="0.00 0.00 903.00 743.00" xmlns="http://www.w3.org/2000/svg" xmlns:xlink="http://www.w3.org/1999/xlink">
<g id="graph0" class="graph" transform="scale(1 1) rotate(0) translate(4 739)">
<title>runP2PMeshBroadcastTest</title>
<polygon fill="white" stroke="transparent" points="-4,4 -4,-739 899,-739 899,4 -4,4"/>
<!-- Node1 -->
<g id="node1" class="node">
<title>Node1</title>
<g id="a_node1"><a xlink:title=" ">
<polygon fill="#bfbfbf" stroke="black" points="0,-353 0,-372 145,-372 145,-353 0,-353"/>
<text text-anchor="middle" x="72.5" y="-360" font-family="Helvetica,sans-Serif" font-size="10.00">runP2PMeshBroadcastTest</text>
</a>
</g>
</g>
<!-- Node2 -->
<g id="node2" class="node">
<title>Node2</title>
<g id="a_node2"><a xlink:href="classprecice_1_1m2n_1_1PointToPointCommunication.html#a576eb87ad9657fa382bc0c53586d9a74" target="_top" xlink:title="Accepts connection from participant, which has to call requestPreConnection(). Only initial connectio...">
<polygon fill="white" stroke="black" points="183,-555.5 183,-585.5 386,-585.5 386,-555.5 183,-555.5"/>
<text text-anchor="start" x="191" y="-573.5" font-family="Helvetica,sans-Serif" font-size="10.00">precice::m2n::PointToPoint</text>
<text text-anchor="middle" x="284.5" y="-562.5" font-family="Helvetica,sans-Serif" font-size="10.00">Communication::acceptPreConnection</text>
</a>
</g>
</g>
<!-- Node1&#45;&gt;Node2 -->
<g id="edge1" class="edge">
<title>Node1&#45;&gt;Node2</title>
<path fill="none" stroke="midnightblue" d="M76.21,-372.37C85.28,-403.4 117.61,-499.69 181,-546.5 182.88,-547.89 184.83,-549.2 186.84,-550.44"/>
<polygon fill="midnightblue" stroke="midnightblue" points="185.5,-553.69 195.96,-555.39 188.84,-547.54 185.5,-553.69"/>
</g>
<!-- Node5 -->
<g id="node5" class="node">
<title>Node5</title>
<g id="a_node5"><a xlink:href="classprecice_1_1m2n_1_1PointToPointCommunication.html#aeb7ec115ddfc701537bf1443f80b0280" target="_top" xlink:title="Receive mesh partitions per connected rank on remote participant.">
<polygon fill="white" stroke="black" points="191,-438 191,-479 378,-479 378,-438 191,-438"/>
<text text-anchor="start" x="199" y="-467" font-family="Helvetica,sans-Serif" font-size="10.00">precice::m2n::PointToPoint</text>
<text text-anchor="start" x="199" y="-456" font-family="Helvetica,sans-Serif" font-size="10.00">Communication::broadcastReceive</text>
<text text-anchor="middle" x="284.5" y="-445" font-family="Helvetica,sans-Serif" font-size="10.00">AllMesh</text>
</a>
</g>
</g>
<!-- Node1&#45;&gt;Node5 -->
<g id="edge4" class="edge">
<title>Node1&#45;&gt;Node5</title>
<path fill="none" stroke="midnightblue" d="M94.4,-372.06C125.59,-386.31 185.34,-413.63 229.37,-433.75"/>
<polygon fill="midnightblue" stroke="midnightblue" points="227.96,-436.96 238.51,-437.93 230.87,-430.59 227.96,-436.96"/>
</g>
<!-- Node16 -->
<g id="node16" class="node">
<title>Node16</title>
<g id="a_node16"><a xlink:href="classprecice_1_1m2n_1_1PointToPointCommunication.html#a1b0bf1ea8edaae69e5306c2f4f98c708" target="_top" xlink:title="Broadcasts a mesh to connected ranks on remote participant.">
<polygon fill="white" stroke="black" points="185.5,-372.5 185.5,-402.5 383.5,-402.5 383.5,-372.5 185.5,-372.5"/>
<text text-anchor="start" x="193.5" y="-390.5" font-family="Helvetica,sans-Serif" font-size="10.00">precice::m2n::PointToPoint</text>
<text text-anchor="middle" x="284.5" y="-379.5" font-family="Helvetica,sans-Serif" font-size="10.00">Communication::broadcastSendMesh</text>
</a>
</g>
</g>
<!-- Node1&#45;&gt;Node16 -->
<g id="edge15" class="edge">
<title>Node1&#45;&gt;Node16</title>
<path fill="none" stroke="midnightblue" d="M145.18,-371.03C154.9,-372.19 165.03,-373.4 175.21,-374.61"/>
<polygon fill="midnightblue" stroke="midnightblue" points="175.05,-378.11 185.39,-375.82 175.88,-371.16 175.05,-378.11"/>
</g>
<!-- Node26 -->
<g id="node26" class="node">
<title>Node26</title>
<g id="a_node26"><a xlink:href="classprecice_1_1testing_1_1TestContext.html#ab410f680ed3f84ee3994cbb1eb49a217" target="_top" xlink:title="Check whether this context has a given size.">
<polygon fill="white" stroke="black" points="207,-323.5 207,-353.5 362,-353.5 362,-323.5 207,-323.5"/>
<text text-anchor="start" x="215" y="-341.5" font-family="Helvetica,sans-Serif" font-size="10.00">precice::testing::TestContext</text>
<text text-anchor="middle" x="284.5" y="-330.5" font-family="Helvetica,sans-Serif" font-size="10.00">::hasSize</text>
</a>
</g>
</g>
<!-- Node1&#45;&gt;Node26 -->
<g id="edge30" class="edge">
<title>Node1&#45;&gt;Node26</title>
<path fill="none" stroke="midnightblue" d="M145.18,-354.31C161.77,-352.41 179.59,-350.37 196.75,-348.41"/>
<polygon fill="midnightblue" stroke="midnightblue" points="197.22,-351.88 206.76,-347.27 196.42,-344.93 197.22,-351.88"/>
</g>
<!-- Node27 -->
<g id="node27" class="node">
<title>Node27</title>
<g id="a_node27"><a xlink:href="classprecice_1_1testing_1_1TestContext.html#a87ef3b67f676b69dfb8c4cfc2e8df819" target="_top" xlink:title="Check whether this context has a given name.">
<polygon fill="white" stroke="black" points="207,-274.5 207,-304.5 362,-304.5 362,-274.5 207,-274.5"/>
<text text-anchor="start" x="215" y="-292.5" font-family="Helvetica,sans-Serif" font-size="10.00">precice::testing::TestContext</text>
<text text-anchor="middle" x="284.5" y="-281.5" font-family="Helvetica,sans-Serif" font-size="10.00">::isNamed</text>
</a>
</g>
</g>
<!-- Node1&#45;&gt;Node27 -->
<g id="edge31" class="edge">
<title>Node1&#45;&gt;Node27</title>
<path fill="none" stroke="midnightblue" d="M91.69,-352.86C112.71,-342.04 148.58,-324.56 181,-313.5 187.51,-311.28 194.32,-309.19 201.2,-307.25"/>
<polygon fill="midnightblue" stroke="midnightblue" points="202.57,-310.5 211.3,-304.5 200.74,-303.75 202.57,-310.5"/>
</g>
<!-- Node28 -->
<g id="node28" class="node">
<title>Node28</title>
<g id="a_node28"><a xlink:href="classprecice_1_1testing_1_1TestContext.html#a32c92cb8b82149ed3f80981f9c24fd61" target="_top" xlink:title=" ">
<polygon fill="white" stroke="black" points="207,-223.5 207,-253.5 362,-253.5 362,-223.5 207,-223.5"/>
<text text-anchor="start" x="215" y="-241.5" font-family="Helvetica,sans-Serif" font-size="10.00">precice::testing::TestContext</text>
<text text-anchor="middle" x="284.5" y="-230.5" font-family="Helvetica,sans-Serif" font-size="10.00">::isPrimary</text>
</a>
</g>
</g>
<!-- Node1&#45;&gt;Node28 -->
<g id="edge32" class="edge">
<title>Node1&#45;&gt;Node28</title>
<path fill="none" stroke="midnightblue" d="M81.26,-352.74C97.55,-332.94 137.41,-287.96 181,-264.5 186.18,-261.71 191.66,-259.22 197.3,-256.98"/>
<polygon fill="midnightblue" stroke="midnightblue" points="198.72,-260.19 206.9,-253.46 196.31,-253.62 198.72,-260.19"/>
</g>
<!-- Node30 -->
<g id="node30" class="node">
<title>Node30</title>
<g id="a_node30"><a xlink:href="namespaceprecice_1_1testing.html#a08533fd83bad3d7f27ea7f4a35a14aa4" target="_top" xlink:title=" ">
<polygon fill="white" stroke="black" points="206.5,-183 206.5,-202 362.5,-202 362.5,-183 206.5,-183"/>
<text text-anchor="middle" x="284.5" y="-190" font-family="Helvetica,sans-Serif" font-size="10.00">precice::testing::nextMeshID</text>
</a>
</g>
</g>
<!-- Node1&#45;&gt;Node30 -->
<g id="edge34" class="edge">
<title>Node1&#45;&gt;Node30</title>
<path fill="none" stroke="midnightblue" d="M77.38,-352.94C88.79,-326.1 125.02,-249.7 181,-213.5 185.93,-210.31 191.26,-207.59 196.8,-205.27"/>
<polygon fill="midnightblue" stroke="midnightblue" points="198.13,-208.51 206.28,-201.74 195.69,-201.95 198.13,-208.51"/>
</g>
<!-- Node32 -->
<g id="node32" class="node">
<title>Node32</title>
<g id="a_node32"><a xlink:href="classprecice_1_1m2n_1_1PointToPointCommunication.html#a7749362861e7d56aa946c3b428a51dde" target="_top" xlink:title="Requests connection from participant, which has to call acceptConnection(). Only initial connection i...">
<polygon fill="white" stroke="black" points="181,-506.5 181,-536.5 388,-536.5 388,-506.5 181,-506.5"/>
<text text-anchor="start" x="189" y="-524.5" font-family="Helvetica,sans-Serif" font-size="10.00">precice::m2n::PointToPoint</text>
<text text-anchor="middle" x="284.5" y="-513.5" font-family="Helvetica,sans-Serif" font-size="10.00">Communication::requestPreConnection</text>
</a>
</g>
</g>
<!-- Node1&#45;&gt;Node32 -->
<g id="edge36" class="edge">
<title>Node1&#45;&gt;Node32</title>
<path fill="none" stroke="midnightblue" d="M79.17,-372.3C93.29,-395.87 132.43,-456.12 181,-488.5 189.49,-494.16 199.01,-498.9 208.75,-502.87"/>
<polygon fill="midnightblue" stroke="midnightblue" points="207.53,-506.15 218.12,-506.43 210.02,-499.61 207.53,-506.15"/>
</g>
<!-- Node3 -->
<g id="node3" class="node">
<title>Node3</title>
<g id="a_node3"><a xlink:href="classprecice_1_1utils_1_1IntraComm.html#a2c2aa5e2fd6cc26797b7fdee0b0b25ac" target="_top" xlink:title="Current rank.">
<polygon fill="white" stroke="black" points="434,-557.5 434,-587.5 574,-587.5 574,-557.5 434,-557.5"/>
<text text-anchor="start" x="442" y="-575.5" font-family="Helvetica,sans-Serif" font-size="10.00">precice::utils::IntraComm</text>
<text text-anchor="middle" x="504" y="-564.5" font-family="Helvetica,sans-Serif" font-size="10.00">::getRank</text>
</a>
</g>
</g>
<!-- Node2&#45;&gt;Node3 -->
<g id="edge2" class="edge">
<title>Node2&#45;&gt;Node3</title>
<path fill="none" stroke="midnightblue" d="M386.29,-571.43C398.88,-571.54 411.61,-571.66 423.8,-571.77"/>
<polygon fill="midnightblue" stroke="midnightblue" points="423.87,-575.27 433.91,-571.86 423.94,-568.27 423.87,-575.27"/>
</g>
<!-- Node4 -->
<g id="node4" class="node">
<title>Node4</title>
<g id="a_node4"><a xlink:href="classprecice_1_1m2n_1_1PointToPointCommunication.html#a3a8e2e7fc421ffb7a8a8e0730f875909" target="_top" xlink:title="Returns true, if a connection to a remote participant has been established.">
<polygon fill="white" stroke="black" points="424,-508.5 424,-538.5 584,-538.5 584,-508.5 424,-508.5"/>
<text text-anchor="start" x="432" y="-526.5" font-family="Helvetica,sans-Serif" font-size="10.00">precice::m2n::PointToPoint</text>
<text text-anchor="middle" x="504" y="-515.5" font-family="Helvetica,sans-Serif" font-size="10.00">Communication::isConnected</text>
</a>
</g>
</g>
<!-- Node2&#45;&gt;Node4 -->
<g id="edge3" class="edge">
<title>Node2&#45;&gt;Node4</title>
<path fill="none" stroke="midnightblue" d="M354.92,-555.5C376.79,-550.77 401.12,-545.51 423.64,-540.65"/>
<polygon fill="midnightblue" stroke="midnightblue" points="424.46,-544.05 433.5,-538.52 422.98,-537.21 424.46,-544.05"/>
</g>
<!-- Node6 -->
<g id="node6" class="node">
<title>Node6</title>
<g id="a_node6"><a xlink:href="classprecice_1_1com_1_1CommunicateMesh.html#a7ebb07330804e57322b738202dcb051e" target="_top" xlink:title="Receives a mesh from the sender with given rank. Adds received mesh to mesh.">
<polygon fill="white" stroke="black" points="427.5,-459.5 427.5,-489.5 580.5,-489.5 580.5,-459.5 427.5,-459.5"/>
<text text-anchor="start" x="435.5" y="-477.5" font-family="Helvetica,sans-Serif" font-size="10.00">precice::com::Communicate</text>
<text text-anchor="middle" x="504" y="-466.5" font-family="Helvetica,sans-Serif" font-size="10.00">Mesh::receiveMesh</text>
</a>
</g>
</g>
<!-- Node5&#45;&gt;Node6 -->
<g id="edge5" class="edge">
<title>Node5&#45;&gt;Node6</title>
<path fill="none" stroke="midnightblue" d="M378.05,-465.31C391.01,-466.26 404.28,-467.24 417.1,-468.18"/>
<polygon fill="midnightblue" stroke="midnightblue" points="417.05,-471.69 427.28,-468.93 417.56,-464.71 417.05,-471.69"/>
</g>
<!-- Node7 -->
<g id="node7" class="node">
<title>Node7</title>
<g id="a_node7"><a xlink:href="classprecice_1_1mesh_1_1Mesh.html#ae05c5234aa9adc6f47a814622039c28e" target="_top" xlink:title="Creates and initializes an Edge object.">
<polygon fill="white" stroke="black" points="622.5,-704.5 622.5,-734.5 739.5,-734.5 739.5,-704.5 622.5,-704.5"/>
<text text-anchor="start" x="630.5" y="-722.5" font-family="Helvetica,sans-Serif" font-size="10.00">precice::mesh::Mesh</text>
<text text-anchor="middle" x="681" y="-711.5" font-family="Helvetica,sans-Serif" font-size="10.00">::createEdge</text>
</a>
</g>
</g>
<!-- Node6&#45;&gt;Node7 -->
<g id="edge6" class="edge">
<title>Node6&#45;&gt;Node7</title>
<path fill="none" stroke="midnightblue" d="M572.16,-489.55C576.55,-492.33 580.57,-495.62 584,-499.5 642.6,-565.91 563.9,-626.97 620,-695.5 620.71,-696.37 621.46,-697.21 622.24,-698.01"/>
<polygon fill="midnightblue" stroke="midnightblue" points="620.09,-700.78 630.01,-704.49 624.57,-695.4 620.09,-700.78"/>
</g>
<!-- Node8 -->
<g id="node8" class="node">
<title>Node8</title>
<g id="a_node8"><a xlink:href="classprecice_1_1mesh_1_1Mesh.html#ab5414039a184e349718371361d6e7777" target="_top" xlink:title="Creates and initializes a Tetrahedron object.">
<polygon fill="white" stroke="black" points="622.5,-655.5 622.5,-685.5 739.5,-685.5 739.5,-655.5 622.5,-655.5"/>
<text text-anchor="start" x="630.5" y="-673.5" font-family="Helvetica,sans-Serif" font-size="10.00">precice::mesh::Mesh</text>
<text text-anchor="middle" x="681" y="-662.5" font-family="Helvetica,sans-Serif" font-size="10.00">::createTetrahedron</text>
</a>
</g>
</g>
<!-- Node6&#45;&gt;Node8 -->
<g id="edge7" class="edge">
<title>Node6&#45;&gt;Node8</title>
<path fill="none" stroke="midnightblue" d="M571.54,-489.55C576.13,-492.33 580.36,-495.61 584,-499.5 629.96,-548.61 575.89,-595.72 620,-646.5 620.75,-647.37 621.54,-648.21 622.37,-649.01"/>
<polygon fill="midnightblue" stroke="midnightblue" points="620.5,-652 630.51,-655.5 624.87,-646.53 620.5,-652"/>
</g>
<!-- Node9 -->
<g id="node9" class="node">
<title>Node9</title>
<g id="a_node9"><a xlink:href="classprecice_1_1mesh_1_1Mesh.html#a00c3db2576c63d8c6f351175ddc0a4d0" target="_top" xlink:title="Creates and initializes a Triangle object.">
<polygon fill="white" stroke="black" points="622.5,-606.5 622.5,-636.5 739.5,-636.5 739.5,-606.5 622.5,-606.5"/>
<text text-anchor="start" x="630.5" y="-624.5" font-family="Helvetica,sans-Serif" font-size="10.00">precice::mesh::Mesh</text>
<text text-anchor="middle" x="681" y="-613.5" font-family="Helvetica,sans-Serif" font-size="10.00">::createTriangle</text>
</a>
</g>
</g>
<!-- Node6&#45;&gt;Node9 -->
<g id="edge8" class="edge">
<title>Node6&#45;&gt;Node9</title>
<path fill="none" stroke="midnightblue" d="M570.31,-489.58C575.29,-492.35 579.94,-495.62 584,-499.5 617.55,-531.55 587.66,-564.23 620,-597.5 621.05,-598.58 622.16,-599.61 623.31,-600.6"/>
<polygon fill="midnightblue" stroke="midnightblue" points="621.33,-603.49 631.49,-606.49 625.42,-597.81 621.33,-603.49"/>
</g>
<!-- Node11 -->
<g id="node11" class="node">
<title>Node11</title>
<g id="a_node11"><a xlink:href="classprecice_1_1mesh_1_1Mesh.html#af6e6d684553dc5d0f0a23cacb77b3fc7" target="_top" xlink:title="Creates and initializes a Vertex object.">
<polygon fill="white" stroke="black" points="622.5,-557.5 622.5,-587.5 739.5,-587.5 739.5,-557.5 622.5,-557.5"/>
<text text-anchor="start" x="630.5" y="-575.5" font-family="Helvetica,sans-Serif" font-size="10.00">precice::mesh::Mesh</text>
<text text-anchor="middle" x="681" y="-564.5" font-family="Helvetica,sans-Serif" font-size="10.00">::createVertex</text>
</a>
</g>
</g>
<!-- Node6&#45;&gt;Node11 -->
<g id="edge10" class="edge">
<title>Node6&#45;&gt;Node11</title>
<path fill="none" stroke="midnightblue" d="M566.41,-489.59C572.62,-492.37 578.62,-495.65 584,-499.5 605.97,-515.24 598.63,-531.96 620,-548.5 621.77,-549.87 623.62,-551.17 625.54,-552.4"/>
<polygon fill="midnightblue" stroke="midnightblue" points="623.86,-555.47 634.28,-557.4 627.34,-549.4 623.86,-555.47"/>
</g>
<!-- Node12 -->
<g id="node12" class="node">
<title>Node12</title>
<g id="a_node12"><a xlink:href="classprecice_1_1mesh_1_1Mesh.html#a136f6b4ce235025e418fab0ca5f350ff" target="_top" xlink:title=" ">
<polygon fill="white" stroke="black" points="622.5,-410.5 622.5,-440.5 739.5,-440.5 739.5,-410.5 622.5,-410.5"/>
<text text-anchor="start" x="630.5" y="-428.5" font-family="Helvetica,sans-Serif" font-size="10.00">precice::mesh::Mesh</text>
<text text-anchor="middle" x="681" y="-417.5" font-family="Helvetica,sans-Serif" font-size="10.00">::getDimensions</text>
</a>
</g>
</g>
<!-- Node6&#45;&gt;Node12 -->
<g id="edge11" class="edge">
<title>Node6&#45;&gt;Node12</title>
<path fill="none" stroke="midnightblue" d="M558.93,-459.4C577.15,-454.3 597.65,-448.56 616.54,-443.27"/>
<polygon fill="midnightblue" stroke="midnightblue" points="617.56,-446.62 626.24,-440.55 615.67,-439.88 617.56,-446.62"/>
</g>
<!-- Node13 -->
<g id="node13" class="node">
<title>Node13</title>
<g id="a_node13"><a xlink:href="classprecice_1_1mesh_1_1Vertex.html#a2f62d7ef09981e963638cb3f2f6a9603" target="_top" xlink:title="Returns the unique (among vertices of one mesh on one processor) ID of the vertex.">
<polygon fill="white" stroke="black" points="620,-508.5 620,-538.5 742,-538.5 742,-508.5 620,-508.5"/>
<text text-anchor="start" x="628" y="-526.5" font-family="Helvetica,sans-Serif" font-size="10.00">precice::mesh::Vertex</text>
<text text-anchor="middle" x="681" y="-515.5" font-family="Helvetica,sans-Serif" font-size="10.00">::getID</text>
</a>
</g>
</g>
<!-- Node6&#45;&gt;Node13 -->
<g id="edge12" class="edge">
<title>Node6&#45;&gt;Node13</title>
<path fill="none" stroke="midnightblue" d="M558.93,-489.6C577.15,-494.7 597.65,-500.44 616.54,-505.73"/>
<polygon fill="midnightblue" stroke="midnightblue" points="615.67,-509.12 626.24,-508.45 617.56,-502.38 615.67,-509.12"/>
</g>
<!-- Node14 -->
<g id="node14" class="node">
<title>Node14</title>
<g id="a_node14"><a xlink:href="classprecice_1_1mesh_1_1Mesh.html#a3185fe962ba3e8fe0b3cf451681e6a48" target="_top" xlink:title="Returns the name of the mesh, as set in the config file.">
<polygon fill="white" stroke="black" points="622.5,-361.5 622.5,-391.5 739.5,-391.5 739.5,-361.5 622.5,-361.5"/>
<text text-anchor="start" x="630.5" y="-379.5" font-family="Helvetica,sans-Serif" font-size="10.00">precice::mesh::Mesh</text>
<text text-anchor="middle" x="681" y="-368.5" font-family="Helvetica,sans-Serif" font-size="10.00">::getName</text>
</a>
</g>
</g>
<!-- Node6&#45;&gt;Node14 -->
<g id="edge13" class="edge">
<title>Node6&#45;&gt;Node14</title>
<path fill="none" stroke="midnightblue" d="M526.39,-459.36C549,-443.73 586.02,-419.2 620,-401.5 623.77,-399.54 627.73,-397.61 631.75,-395.75"/>
<polygon fill="midnightblue" stroke="midnightblue" points="633.44,-398.82 641.14,-391.55 630.59,-392.43 633.44,-398.82"/>
</g>
<!-- Node15 -->
<g id="node15" class="node">
<title>Node15</title>
<g id="a_node15"><a xlink:href="classprecice_1_1mesh_1_1Vertex.html#a94c37cf5c30d40459a3afa2f2aabe8f4" target="_top" xlink:title=" ">
<polygon fill="white" stroke="black" points="620,-459.5 620,-489.5 742,-489.5 742,-459.5 620,-459.5"/>
<text text-anchor="start" x="628" y="-477.5" font-family="Helvetica,sans-Serif" font-size="10.00">precice::mesh::Vertex</text>
<text text-anchor="middle" x="681" y="-466.5" font-family="Helvetica,sans-Serif" font-size="10.00">::setGlobalIndex</text>
</a>
</g>
</g>
<!-- Node6&#45;&gt;Node15 -->
<g id="edge14" class="edge">
<title>Node6&#45;&gt;Node15</title>
<path fill="none" stroke="midnightblue" d="M580.74,-474.5C590.37,-474.5 600.2,-474.5 609.74,-474.5"/>
<polygon fill="midnightblue" stroke="midnightblue" points="609.96,-478 619.96,-474.5 609.96,-471 609.96,-478"/>
</g>
<!-- Node10 -->
<g id="node10" class="node">
<title>Node10</title>
<g id="a_node10"><a xlink:href="classprecice_1_1mesh_1_1Edge.html#af27f4bd02d0b67cc5c3d04e2cf1ddee7" target="_top" xlink:title="Checks whether both edges share a vertex.">
<polygon fill="white" stroke="black" points="779,-606.5 779,-636.5 894,-636.5 894,-606.5 779,-606.5"/>
<text text-anchor="start" x="787" y="-624.5" font-family="Helvetica,sans-Serif" font-size="10.00">precice::mesh::Edge</text>
<text text-anchor="middle" x="836.5" y="-613.5" font-family="Helvetica,sans-Serif" font-size="10.00">::connectedTo</text>
</a>
</g>
</g>
<!-- Node9&#45;&gt;Node10 -->
<g id="edge9" class="edge">
<title>Node9&#45;&gt;Node10</title>
<path fill="none" stroke="midnightblue" d="M739.59,-621.5C749.13,-621.5 759.08,-621.5 768.82,-621.5"/>
<polygon fill="midnightblue" stroke="midnightblue" points="768.86,-625 778.86,-621.5 768.86,-618 768.86,-625"/>
</g>
<!-- Node17 -->
<g id="node17" class="node">
<title>Node17</title>
<g id="a_node17"><a xlink:href="classprecice_1_1com_1_1CommunicateMesh.html#ace810ddd981fb3e2553a232a6afbf335" target="_top" xlink:title="Sends a constructed mesh to the receiver with given rank.">
<polygon fill="white" stroke="black" points="427.5,-268.5 427.5,-298.5 580.5,-298.5 580.5,-268.5 427.5,-268.5"/>
<text text-anchor="start" x="435.5" y="-286.5" font-family="Helvetica,sans-Serif" font-size="10.00">precice::com::Communicate</text>
<text text-anchor="middle" x="504" y="-275.5" font-family="Helvetica,sans-Serif" font-size="10.00">Mesh::sendMesh</text>
</a>
</g>
</g>
<!-- Node16&#45;&gt;Node17 -->
<g id="edge16" class="edge">
<title>Node16&#45;&gt;Node17</title>
<path fill="none" stroke="midnightblue" d="M361.01,-372.42C370.27,-369.6 379.47,-366.31 388,-362.5 421.33,-347.59 455.28,-322.85 477.57,-305.02"/>
<polygon fill="midnightblue" stroke="midnightblue" points="479.96,-307.59 485.51,-298.56 475.54,-302.16 479.96,-307.59"/>
</g>
<!-- Node17&#45;&gt;Node12 -->
<g id="edge18" class="edge">
<title>Node17&#45;&gt;Node12</title>
<path fill="none" stroke="midnightblue" d="M516.56,-298.7C535.73,-323.03 576.35,-370.99 620,-400.5 622.84,-402.42 625.86,-404.24 628.97,-405.95"/>
<polygon fill="midnightblue" stroke="midnightblue" points="627.39,-409.08 637.89,-410.5 630.57,-402.84 627.39,-409.08"/>
</g>
<!-- Node17&#45;&gt;Node14 -->
<g id="edge19" class="edge">
<title>Node17&#45;&gt;Node14</title>
<path fill="none" stroke="midnightblue" d="M528.25,-298.55C551.11,-313.03 587.23,-335.09 620,-351.5 623.97,-353.49 628.13,-355.45 632.34,-357.36"/>
<polygon fill="midnightblue" stroke="midnightblue" points="630.99,-360.59 641.55,-361.42 633.81,-354.18 630.99,-360.59"/>
</g>
<!-- Node18 -->
<g id="node18" class="node">
<title>Node18</title>
<g id="a_node18"><a xlink:href="classprecice_1_1mesh_1_1Mesh.html#a1208772095354f328cae1b087e64642e" target="_top" xlink:title="Returns modifiable container holding all edges.">
<polygon fill="white" stroke="black" points="622.5,-312.5 622.5,-342.5 739.5,-342.5 739.5,-312.5 622.5,-312.5"/>
<text text-anchor="start" x="630.5" y="-330.5" font-family="Helvetica,sans-Serif" font-size="10.00">precice::mesh::Mesh</text>
<text text-anchor="middle" x="681" y="-319.5" font-family="Helvetica,sans-Serif" font-size="10.00">::edges</text>
</a>
</g>
</g>
<!-- Node17&#45;&gt;Node18 -->
<g id="edge17" class="edge">
<title>Node17&#45;&gt;Node18</title>
<path fill="none" stroke="midnightblue" d="M564.74,-298.52C580.01,-302.36 596.53,-306.51 612.18,-310.45"/>
<polygon fill="midnightblue" stroke="midnightblue" points="611.76,-313.95 622.31,-312.99 613.46,-307.16 611.76,-313.95"/>
</g>
<!-- Node19 -->
<g id="node19" class="node">
<title>Node19</title>
<g id="a_node19"><a xlink:href="classprecice_1_1mesh_1_1Mesh.html#a45245f4ead66206f426fdcba83b57707" target="_top" xlink:title=" ">
<polygon fill="white" stroke="black" points="622.5,-224.5 622.5,-254.5 739.5,-254.5 739.5,-224.5 622.5,-224.5"/>
<text text-anchor="start" x="630.5" y="-242.5" font-family="Helvetica,sans-Serif" font-size="10.00">precice::mesh::Mesh</text>
<text text-anchor="middle" x="681" y="-231.5" font-family="Helvetica,sans-Serif" font-size="10.00">::hasConnectivity</text>
</a>
</g>
</g>
<!-- Node17&#45;&gt;Node19 -->
<g id="edge20" class="edge">
<title>Node17&#45;&gt;Node19</title>
<path fill="none" stroke="midnightblue" d="M564.74,-268.48C580.01,-264.64 596.53,-260.49 612.18,-256.55"/>
<polygon fill="midnightblue" stroke="midnightblue" points="613.46,-259.84 622.31,-254.01 611.76,-253.05 613.46,-259.84"/>
</g>
<!-- Node20 -->
<g id="node20" class="node">
<title>Node20</title>
<g id="a_node20"><a xlink:href="classprecice_1_1mesh_1_1Mesh.html#a2c668ba49ee60871ddacbbbbb659eabe" target="_top" xlink:title=" ">
<polygon fill="white" stroke="black" points="778,-254.5 778,-284.5 895,-284.5 895,-254.5 778,-254.5"/>
<text text-anchor="start" x="786" y="-272.5" font-family="Helvetica,sans-Serif" font-size="10.00">precice::mesh::Mesh</text>
<text text-anchor="middle" x="836.5" y="-261.5" font-family="Helvetica,sans-Serif" font-size="10.00">::hasEdges</text>
</a>
</g>
</g>
<!-- Node17&#45;&gt;Node20 -->
<g id="edge24" class="edge">
<title>Node17&#45;&gt;Node20</title>
<path fill="none" stroke="midnightblue" d="M580.82,-280.29C637.13,-277.9 713.26,-274.68 767.58,-272.38"/>
<polygon fill="midnightblue" stroke="midnightblue" points="767.96,-275.86 777.81,-271.94 767.67,-268.87 767.96,-275.86"/>
</g>
<!-- Node21 -->
<g id="node21" class="node">
<title>Node21</title>
<g id="a_node21"><a xlink:href="classprecice_1_1mesh_1_1Mesh.html#a116b5b631992b553eb0086a63a91faa6" target="_top" xlink:title=" ">
<polygon fill="white" stroke="black" points="778,-202.5 778,-232.5 895,-232.5 895,-202.5 778,-202.5"/>
<text text-anchor="start" x="786" y="-220.5" font-family="Helvetica,sans-Serif" font-size="10.00">precice::mesh::Mesh</text>
<text text-anchor="middle" x="836.5" y="-209.5" font-family="Helvetica,sans-Serif" font-size="10.00">::hasTetrahedra</text>
</a>
</g>
</g>
<!-- Node17&#45;&gt;Node21 -->
<g id="edge25" class="edge">
<title>Node17&#45;&gt;Node21</title>
<path fill="none" stroke="midnightblue" d="M565.39,-268.48C571.94,-265.68 578.28,-262.37 584,-258.5 604.91,-244.32 597.17,-225.32 620,-214.5 665.8,-192.8 723.46,-194.9 767.61,-201.69"/>
<polygon fill="midnightblue" stroke="midnightblue" points="767.24,-205.18 777.67,-203.36 768.38,-198.27 767.24,-205.18"/>
</g>
<!-- Node22 -->
<g id="node22" class="node">
<title>Node22</title>
<g id="a_node22"><a xlink:href="classprecice_1_1mesh_1_1Mesh.html#afc779a392f25a3c9b0ccab04791bbbd9" target="_top" xlink:title=" ">
<polygon fill="white" stroke="black" points="778,-146.5 778,-176.5 895,-176.5 895,-146.5 778,-146.5"/>
<text text-anchor="start" x="786" y="-164.5" font-family="Helvetica,sans-Serif" font-size="10.00">precice::mesh::Mesh</text>
<text text-anchor="middle" x="836.5" y="-153.5" font-family="Helvetica,sans-Serif" font-size="10.00">::hasTriangles</text>
</a>
</g>
</g>
<!-- Node17&#45;&gt;Node22 -->
<g id="edge26" class="edge">
<title>Node17&#45;&gt;Node22</title>
<path fill="none" stroke="midnightblue" d="M568.52,-268.32C574.06,-265.57 579.32,-262.33 584,-258.5 609.56,-237.59 592.86,-212.32 620,-193.5 662.91,-163.75 722.22,-156.78 767.75,-156.67"/>
<polygon fill="midnightblue" stroke="midnightblue" points="767.8,-160.17 777.83,-156.76 767.86,-153.17 767.8,-160.17"/>
</g>
<!-- Node23 -->
<g id="node23" class="node">
<title>Node23</title>
<g id="a_node23"><a xlink:href="classprecice_1_1mesh_1_1Mesh.html#a479bf9583fd5a233f8ed1c8b9b3fe5c4" target="_top" xlink:title="Returns modifiable container holding all tetrahedra.">
<polygon fill="white" stroke="black" points="622.5,-98.5 622.5,-128.5 739.5,-128.5 739.5,-98.5 622.5,-98.5"/>
<text text-anchor="start" x="630.5" y="-116.5" font-family="Helvetica,sans-Serif" font-size="10.00">precice::mesh::Mesh</text>
<text text-anchor="middle" x="681" y="-105.5" font-family="Helvetica,sans-Serif" font-size="10.00">::tetrahedra</text>
</a>
</g>
</g>
<!-- Node17&#45;&gt;Node23 -->
<g id="edge27" class="edge">
<title>Node17&#45;&gt;Node23</title>
<path fill="none" stroke="midnightblue" d="M570.9,-268.41C575.69,-265.64 580.14,-262.37 584,-258.5 621.81,-220.57 585.28,-184.28 620,-143.5 622.97,-140.01 626.44,-136.89 630.19,-134.1"/>
<polygon fill="midnightblue" stroke="midnightblue" points="632.29,-136.91 638.76,-128.52 628.47,-131.05 632.29,-136.91"/>
</g>
<!-- Node24 -->
<g id="node24" class="node">
<title>Node24</title>
<g id="a_node24"><a xlink:href="classprecice_1_1mesh_1_1Mesh.html#ad74df9a7f4cb96c251d32c3159d67352" target="_top" xlink:title="Returns modifiable container holding all triangles.">
<polygon fill="white" stroke="black" points="622.5,-49.5 622.5,-79.5 739.5,-79.5 739.5,-49.5 622.5,-49.5"/>
<text text-anchor="start" x="630.5" y="-67.5" font-family="Helvetica,sans-Serif" font-size="10.00">precice::mesh::Mesh</text>
<text text-anchor="middle" x="681" y="-56.5" font-family="Helvetica,sans-Serif" font-size="10.00">::triangles</text>
</a>
</g>
</g>
<!-- Node17&#45;&gt;Node24 -->
<g id="edge28" class="edge">
<title>Node17&#45;&gt;Node24</title>
<path fill="none" stroke="midnightblue" d="M572.05,-268.34C576.46,-265.59 580.52,-262.34 584,-258.5 635.88,-201.29 570.28,-147.6 620,-88.5 620.72,-87.64 621.48,-86.81 622.27,-86.01"/>
<polygon fill="midnightblue" stroke="midnightblue" points="624.59,-88.64 630.11,-79.59 620.15,-83.22 624.59,-88.64"/>
</g>
<!-- Node25 -->
<g id="node25" class="node">
<title>Node25</title>
<g id="a_node25"><a xlink:href="classprecice_1_1mesh_1_1Mesh.html#a70d28ab188762edbe9a7b5b8439e9906" target="_top" xlink:title="Returns modifieable container holding all vertices.">
<polygon fill="white" stroke="black" points="622.5,-0.5 622.5,-30.5 739.5,-30.5 739.5,-0.5 622.5,-0.5"/>
<text text-anchor="start" x="630.5" y="-18.5" font-family="Helvetica,sans-Serif" font-size="10.00">precice::mesh::Mesh</text>
<text text-anchor="middle" x="681" y="-7.5" font-family="Helvetica,sans-Serif" font-size="10.00">::vertices</text>
</a>
</g>
</g>
<!-- Node17&#45;&gt;Node25 -->
<g id="edge29" class="edge">
<title>Node17&#45;&gt;Node25</title>
<path fill="none" stroke="midnightblue" d="M572.61,-268.28C576.83,-265.54 580.7,-262.31 584,-258.5 648.57,-183.93 558.24,-116.41 620,-39.5 620.6,-38.75 621.23,-38.03 621.88,-37.33"/>
<polygon fill="midnightblue" stroke="midnightblue" points="624.35,-39.82 629.66,-30.64 619.79,-34.51 624.35,-39.82"/>
</g>
<!-- Node19&#45;&gt;Node20 -->
<g id="edge21" class="edge">
<title>Node19&#45;&gt;Node20</title>
<path fill="none" stroke="midnightblue" d="M739.59,-250.76C748.78,-252.55 758.35,-254.42 767.75,-256.26"/>
<polygon fill="midnightblue" stroke="midnightblue" points="767.35,-259.75 777.84,-258.23 768.7,-252.88 767.35,-259.75"/>
</g>
<!-- Node19&#45;&gt;Node21 -->
<g id="edge22" class="edge">
<title>Node19&#45;&gt;Node21</title>
<path fill="none" stroke="midnightblue" d="M739.59,-231.25C748.78,-229.93 758.35,-228.56 767.75,-227.21"/>
<polygon fill="midnightblue" stroke="midnightblue" points="768.44,-230.65 777.84,-225.76 767.44,-223.72 768.44,-230.65"/>
</g>
<!-- Node19&#45;&gt;Node22 -->
<g id="edge23" class="edge">
<title>Node19&#45;&gt;Node22</title>
<path fill="none" stroke="midnightblue" d="M711.6,-224.46C735.83,-212.15 770.31,-194.62 796.75,-181.19"/>
<polygon fill="midnightblue" stroke="midnightblue" points="798.4,-184.28 805.73,-176.63 795.23,-178.04 798.4,-184.28"/>
</g>
<!-- Node29 -->
<g id="node29" class="node">
<title>Node29</title>
<g id="a_node29"><a xlink:href="classprecice_1_1testing_1_1TestContext.html#a09186fe2c05fb1de8fa4093f9686e7e4" target="_top" xlink:title="Check whether this context has a given rank inside the Participant.">
<polygon fill="white" stroke="black" points="426.5,-219.5 426.5,-249.5 581.5,-249.5 581.5,-219.5 426.5,-219.5"/>
<text text-anchor="start" x="434.5" y="-237.5" font-family="Helvetica,sans-Serif" font-size="10.00">precice::testing::TestContext</text>
<text text-anchor="middle" x="504" y="-226.5" font-family="Helvetica,sans-Serif" font-size="10.00">::isRank</text>
</a>
</g>
</g>
<!-- Node28&#45;&gt;Node29 -->
<g id="edge33" class="edge">
<title>Node28&#45;&gt;Node29</title>
<path fill="none" stroke="midnightblue" d="M362.18,-237.09C379.56,-236.77 398.14,-236.43 415.92,-236.1"/>
<polygon fill="midnightblue" stroke="midnightblue" points="416.34,-239.59 426.28,-235.91 416.21,-232.6 416.34,-239.59"/>
</g>
<!-- Node31 -->
<g id="node31" class="node">
<title>Node31</title>
<g id="a_node31"><a xlink:href="classprecice_1_1utils_1_1ManageUniqueIDs.html#a02be264c279698ae293587b6576088b5" target="_top" xlink:title=" ">
<polygon fill="white" stroke="black" points="425,-170.5 425,-200.5 583,-200.5 583,-170.5 425,-170.5"/>
<text text-anchor="start" x="433" y="-188.5" font-family="Helvetica,sans-Serif" font-size="10.00">precice::utils::ManageUnique</text>
<text text-anchor="middle" x="504" y="-177.5" font-family="Helvetica,sans-Serif" font-size="10.00">IDs::getFreeID</text>
</a>
</g>
</g>
<!-- Node30&#45;&gt;Node31 -->
<g id="edge35" class="edge">
<title>Node30&#45;&gt;Node31</title>
<path fill="none" stroke="midnightblue" d="M362.79,-190.01C379.64,-189.47 397.58,-188.89 414.81,-188.34"/>
<polygon fill="midnightblue" stroke="midnightblue" points="414.97,-191.83 424.85,-188.02 414.75,-184.84 414.97,-191.83"/>
</g>
<!-- Node32&#45;&gt;Node3 -->
<g id="edge37" class="edge">
<title>Node32&#45;&gt;Node3</title>
<path fill="none" stroke="midnightblue" d="M349.58,-536.53C374.58,-542.39 403.39,-549.14 429.25,-555.21"/>
<polygon fill="midnightblue" stroke="midnightblue" points="428.47,-558.62 439,-557.49 430.06,-551.8 428.47,-558.62"/>
</g>
<!-- Node32&#45;&gt;Node4 -->
<g id="edge38" class="edge">
<title>Node32&#45;&gt;Node4</title>
<path fill="none" stroke="midnightblue" d="M388.2,-522.44C396.72,-522.52 405.3,-522.6 413.71,-522.68"/>
<polygon fill="midnightblue" stroke="midnightblue" points="413.84,-526.18 423.88,-522.77 413.91,-519.18 413.84,-526.18"/>
</g>
</g>
</svg>
