<?xml version="1.0" encoding="UTF-8" standalone="no"?>
<!DOCTYPE svg PUBLIC "-//W3C//DTD SVG 1.1//EN"
 "http://www.w3.org/Graphics/SVG/1.1/DTD/svg11.dtd">
<!-- Generated by graphviz version 2.43.0 (0)
 -->
<!-- Title: precicef_get_mesh_dimensions_ Pages: 1 -->
<svg width="592pt" height="27pt"
 viewBox="0.00 0.00 592.00 27.00" xmlns="http://www.w3.org/2000/svg" xmlns:xlink="http://www.w3.org/1999/xlink">
<g id="graph0" class="graph" transform="scale(1 1) rotate(0) translate(4 23)">
<title>precicef_get_mesh_dimensions_</title>
<!-- Node1 -->
<g id="Node000001" class="node">
<title>Node1</title>
<g id="a_Node000001"><a xlink:title=" ">
<polygon fill="#999999" stroke="#666666" points="176,-19 0,-19 0,0 176,0 176,-19"/>
<text text-anchor="middle" x="88" y="-7" font-family="Helvetica,sans-Serif" font-size="10.00">precicef_get_mesh_dimensions_</text>
</a>
</g>
</g>
<!-- Node2 -->
<g id="Node000002" class="node">
<title>Node2</title>
<g id="a_Node000002"><a xlink:href="namespaceprecice_1_1impl.html#ae0c9ca5beac2cbb8e415ff6ca31a6f7d" target="_top" xlink:title=" ">
<polygon fill="white" stroke="#666666" points="390,-19 212,-19 212,0 390,0 390,-19"/>
<text text-anchor="middle" x="301" y="-7" font-family="Helvetica,sans-Serif" font-size="10.00">precice::impl::strippedStringView</text>
</a>
</g>
</g>
<!-- Node1&#45;&gt;Node2 -->
<g id="edge1_Node000001_Node000002" class="edge">
<title>Node1&#45;&gt;Node2</title>
<g id="a_edge1_Node000001_Node000002"><a xlink:title=" ">
<path fill="none" stroke="#63b8ff" d="M176.04,-9.5C184.53,-9.5 193.18,-9.5 201.76,-9.5"/>
<polygon fill="#63b8ff" stroke="#63b8ff" points="201.8,-13 211.8,-9.5 201.8,-6 201.8,-13"/>
</a>
</g>
</g>
<!-- Node3 -->
<g id="Node000003" class="node">
<title>Node3</title>
<g id="a_Node000003"><a xlink:href="namespaceprecice_1_1impl.html#a3a0a62ddd91a99e8266d9999f407dc44" target="_top" xlink:title="Returns length of string without trailing whitespace.">
<polygon fill="white" stroke="#666666" points="584,-19 426,-19 426,0 584,0 584,-19"/>
<text text-anchor="middle" x="505" y="-7" font-family="Helvetica,sans-Serif" font-size="10.00">precice::impl::strippedLength</text>
</a>
</g>
</g>
<!-- Node2&#45;&gt;Node3 -->
<g id="edge2_Node000002_Node000003" class="edge">
<title>Node2&#45;&gt;Node3</title>
<g id="a_edge2_Node000002_Node000003"><a xlink:title=" ">
<path fill="none" stroke="#63b8ff" d="M390.01,-9.5C398.48,-9.5 407.07,-9.5 415.54,-9.5"/>
<polygon fill="#63b8ff" stroke="#63b8ff" points="415.79,-13 425.79,-9.5 415.79,-6 415.79,-13"/>
</a>
</g>
</g>
</g>
</svg>
