<?xml version="1.0" encoding="UTF-8" standalone="no"?>
<!DOCTYPE svg PUBLIC "-//W3C//DTD SVG 1.1//EN"
 "http://www.w3.org/Graphics/SVG/1.1/DTD/svg11.dtd">
<!-- Generated by graphviz version 2.43.0 (0)
 -->
<!-- Title: BOOST_AUTO_TEST_CASE Pages: 1 -->
<svg width="667pt" height="114pt"
 viewBox="0.00 0.00 667.00 113.50" xmlns="http://www.w3.org/2000/svg" xmlns:xlink="http://www.w3.org/1999/xlink">
<g id="graph0" class="graph" transform="scale(1 1) rotate(0) translate(4 109.5)">
<title>BOOST_AUTO_TEST_CASE</title>
<polygon fill="white" stroke="transparent" points="-4,4 -4,-109.5 663,-109.5 663,4 -4,4"/>
<!-- Node1 -->
<g id="node1" class="node">
<title>Node1</title>
<g id="a_node1"><a xlink:title=" ">
<polygon fill="#bfbfbf" stroke="black" points="0,-48 0,-67 143,-67 143,-48 0,-48"/>
<text text-anchor="middle" x="71.5" y="-55" font-family="Helvetica,sans-Serif" font-size="10.00">BOOST_AUTO_TEST_CASE</text>
</a>
</g>
</g>
<!-- Node2 -->
<g id="node2" class="node">
<title>Node2</title>
<g id="a_node2"><a xlink:href="RadialBasisFctMappingTest_8cpp.html#a65a6d955459f02423c1b83ca4c788f1a" target="_top" xlink:title=" ">
<polygon fill="white" stroke="black" points="179,-48 179,-67 273,-67 273,-48 179,-48"/>
<text text-anchor="middle" x="226" y="-55" font-family="Helvetica,sans-Serif" font-size="10.00">testDeadAxis2d</text>
</a>
</g>
</g>
<!-- Node1&#45;&gt;Node2 -->
<g id="edge1" class="edge">
<title>Node1&#45;&gt;Node2</title>
<path fill="none" stroke="midnightblue" d="M143.39,-57.5C151.81,-57.5 160.32,-57.5 168.51,-57.5"/>
<polygon fill="midnightblue" stroke="midnightblue" points="168.67,-61 178.67,-57.5 168.67,-54 168.67,-61"/>
</g>
<!-- Node3 -->
<g id="node3" class="node">
<title>Node3</title>
<g id="a_node3"><a xlink:href="RadialBasisFctMappingTest_8cpp.html#a091feb1893c75899e59fa939e678debe" target="_top" xlink:title=" ">
<polygon fill="white" stroke="black" points="340.5,-86 340.5,-105 433.5,-105 433.5,-86 340.5,-86"/>
<text text-anchor="middle" x="387" y="-93" font-family="Helvetica,sans-Serif" font-size="10.00">addGlobalIndex</text>
</a>
</g>
</g>
<!-- Node2&#45;&gt;Node3 -->
<g id="edge2" class="edge">
<title>Node2&#45;&gt;Node3</title>
<path fill="none" stroke="midnightblue" d="M267.12,-67.09C288.1,-72.1 313.98,-78.29 336.23,-83.61"/>
<polygon fill="midnightblue" stroke="midnightblue" points="335.63,-87.06 346.17,-85.98 337.25,-80.25 335.63,-87.06"/>
</g>
<!-- Node4 -->
<g id="node4" class="node">
<title>Node4</title>
<g id="a_node4"><a xlink:href="namespaceprecice_1_1testing.html#a6a116337529290bbb1bf2545b5fb315a" target="_top" xlink:title="equals to be used in tests. Compares two matrices using a given tolerance. Prints both operands on fa...">
<polygon fill="white" stroke="black" points="322,-48 322,-67 452,-67 452,-48 322,-48"/>
<text text-anchor="middle" x="387" y="-55" font-family="Helvetica,sans-Serif" font-size="10.00">precice::testing::equals</text>
</a>
</g>
</g>
<!-- Node2&#45;&gt;Node4 -->
<g id="edge3" class="edge">
<title>Node2&#45;&gt;Node4</title>
<path fill="none" stroke="midnightblue" d="M273.42,-57.5C285.35,-57.5 298.5,-57.5 311.46,-57.5"/>
<polygon fill="midnightblue" stroke="midnightblue" points="311.8,-61 321.8,-57.5 311.8,-54 311.8,-61"/>
</g>
<!-- Node6 -->
<g id="node6" class="node">
<title>Node6</title>
<g id="a_node6"><a xlink:href="namespaceprecice_1_1testing.html#a08533fd83bad3d7f27ea7f4a35a14aa4" target="_top" xlink:title=" ">
<polygon fill="white" stroke="black" points="309,-9 309,-28 465,-28 465,-9 309,-9"/>
<text text-anchor="middle" x="387" y="-16" font-family="Helvetica,sans-Serif" font-size="10.00">precice::testing::nextMeshID</text>
</a>
</g>
</g>
<!-- Node2&#45;&gt;Node6 -->
<g id="edge5" class="edge">
<title>Node2&#45;&gt;Node6</title>
<path fill="none" stroke="midnightblue" d="M265.9,-47.96C287.44,-42.68 314.42,-36.06 337.35,-30.43"/>
<polygon fill="midnightblue" stroke="midnightblue" points="338.35,-33.79 347.23,-28.01 336.68,-26.99 338.35,-33.79"/>
</g>
<!-- Node5 -->
<g id="node5" class="node">
<title>Node5</title>
<g id="a_node5"><a xlink:href="namespaceprecice_1_1math.html#a0e86802cfe992deba131d789d035b5b7" target="_top" xlink:title="Compares two Eigen::MatrixBase for equality up to tolerance.">
<polygon fill="white" stroke="black" points="519,-50 519,-69 641,-69 641,-50 519,-50"/>
<text text-anchor="middle" x="580" y="-57" font-family="Helvetica,sans-Serif" font-size="10.00">precice::math::equals</text>
</a>
</g>
</g>
<!-- Node4&#45;&gt;Node5 -->
<g id="edge4" class="edge">
<title>Node4&#45;&gt;Node5</title>
<path fill="none" stroke="midnightblue" d="M452.13,-58.17C470.33,-58.36 490.23,-58.57 508.77,-58.76"/>
<polygon fill="midnightblue" stroke="midnightblue" points="508.87,-62.27 518.91,-58.87 508.95,-55.27 508.87,-62.27"/>
</g>
<!-- Node7 -->
<g id="node7" class="node">
<title>Node7</title>
<g id="a_node7"><a xlink:href="classprecice_1_1utils_1_1ManageUniqueIDs.html#a02be264c279698ae293587b6576088b5" target="_top" xlink:title=" ">
<polygon fill="white" stroke="black" points="501,-0.5 501,-30.5 659,-30.5 659,-0.5 501,-0.5"/>
<text text-anchor="start" x="509" y="-18.5" font-family="Helvetica,sans-Serif" font-size="10.00">precice::utils::ManageUnique</text>
<text text-anchor="middle" x="580" y="-7.5" font-family="Helvetica,sans-Serif" font-size="10.00">IDs::getFreeID</text>
</a>
</g>
</g>
<!-- Node6&#45;&gt;Node7 -->
<g id="edge6" class="edge">
<title>Node6&#45;&gt;Node7</title>
<path fill="none" stroke="midnightblue" d="M465.14,-17.29C473.62,-17.16 482.3,-17.02 490.91,-16.88"/>
<polygon fill="midnightblue" stroke="midnightblue" points="491.01,-20.38 500.95,-16.73 490.9,-13.38 491.01,-20.38"/>
</g>
</g>
</svg>
