<?xml version="1.0" encoding="UTF-8" standalone="no"?>
<!DOCTYPE svg PUBLIC "-//W3C//DTD SVG 1.1//EN"
 "http://www.w3.org/Graphics/SVG/1.1/DTD/svg11.dtd">
<!-- Generated by graphviz version 2.43.0 (0)
 -->
<!-- Title: perform3DTestScaledConsistentMapping Pages: 1 -->
<svg width="1142pt" height="628pt"
 viewBox="0.00 0.00 1142.00 628.23" xmlns="http://www.w3.org/2000/svg" xmlns:xlink="http://www.w3.org/1999/xlink">
<g id="graph0" class="graph" transform="scale(1 1) rotate(0) translate(4 624.23)">
<title>perform3DTestScaledConsistentMapping</title>
<polygon fill="white" stroke="transparent" points="-4,4 -4,-624.23 1138,-624.23 1138,4 -4,4"/>
<!-- Node1 -->
<g id="node1" class="node">
<title>Node1</title>
<g id="a_node1"><a xlink:title=" ">
<polygon fill="#bfbfbf" stroke="black" points="0,-303.5 0,-333.5 173,-333.5 173,-303.5 0,-303.5"/>
<text text-anchor="start" x="8" y="-321.5" font-family="Helvetica,sans-Serif" font-size="10.00">perform3DTestScaledConsistent</text>
<text text-anchor="middle" x="86.5" y="-310.5" font-family="Helvetica,sans-Serif" font-size="10.00">Mapping</text>
</a>
</g>
</g>
<!-- Node2 -->
<g id="node2" class="node">
<title>Node2</title>
<g id="a_node2"><a xlink:href="RadialBasisFctMappingTest_8cpp.html#a091feb1893c75899e59fa939e678debe" target="_top" xlink:title=" ">
<polygon fill="white" stroke="black" points="250.5,-446 250.5,-465 343.5,-465 343.5,-446 250.5,-446"/>
<text text-anchor="middle" x="297" y="-453" font-family="Helvetica,sans-Serif" font-size="10.00">addGlobalIndex</text>
</a>
</g>
</g>
<!-- Node1&#45;&gt;Node2 -->
<g id="edge1" class="edge">
<title>Node1&#45;&gt;Node2</title>
<path fill="none" stroke="midnightblue" d="M98.36,-333.52C117.6,-358.97 160.3,-410.34 209,-436.5 218.59,-441.65 229.49,-445.41 240.26,-448.15"/>
<polygon fill="midnightblue" stroke="midnightblue" points="239.53,-451.57 250.06,-450.38 241.09,-444.75 239.53,-451.57"/>
</g>
<!-- Node3 -->
<g id="node3" class="node">
<title>Node3</title>
<g id="a_node3"><a xlink:href="classprecice_1_1mapping_1_1Mapping.html#abf2679ec4bbb86bd2380b088528cc1ff" target="_top" xlink:title="Computes the mapping coefficients from the in&#45; and output mesh.">
<polygon fill="white" stroke="black" points="222.5,-396.5 222.5,-426.5 371.5,-426.5 371.5,-396.5 222.5,-396.5"/>
<text text-anchor="start" x="230.5" y="-414.5" font-family="Helvetica,sans-Serif" font-size="10.00">precice::mapping::Mapping</text>
<text text-anchor="middle" x="297" y="-403.5" font-family="Helvetica,sans-Serif" font-size="10.00">::computeMapping</text>
</a>
</g>
</g>
<!-- Node1&#45;&gt;Node3 -->
<g id="edge2" class="edge">
<title>Node1&#45;&gt;Node3</title>
<path fill="none" stroke="midnightblue" d="M110.37,-333.78C134.17,-349.11 172.92,-372.55 209,-387.5 213.98,-389.56 219.18,-391.5 224.47,-393.32"/>
<polygon fill="midnightblue" stroke="midnightblue" points="223.45,-396.67 234.05,-396.45 225.63,-390.01 223.45,-396.67"/>
</g>
<!-- Node4 -->
<g id="node4" class="node">
<title>Node4</title>
<g id="a_node4"><a xlink:href="classprecice_1_1mapping_1_1Mapping.html#ad4c975ae2b8f1125a6707ab7857018f6" target="_top" xlink:title="Returns true, if the mapping has been computed.">
<polygon fill="white" stroke="black" points="222.5,-347.5 222.5,-377.5 371.5,-377.5 371.5,-347.5 222.5,-347.5"/>
<text text-anchor="start" x="230.5" y="-365.5" font-family="Helvetica,sans-Serif" font-size="10.00">precice::mapping::Mapping</text>
<text text-anchor="middle" x="297" y="-354.5" font-family="Helvetica,sans-Serif" font-size="10.00">::hasComputedMapping</text>
</a>
</g>
</g>
<!-- Node1&#45;&gt;Node4 -->
<g id="edge3" class="edge">
<title>Node1&#45;&gt;Node4</title>
<path fill="none" stroke="midnightblue" d="M158.67,-333.52C176.77,-337.34 196.35,-341.47 214.91,-345.39"/>
<polygon fill="midnightblue" stroke="midnightblue" points="214.29,-348.83 224.8,-347.47 215.73,-341.98 214.29,-348.83"/>
</g>
<!-- Node5 -->
<g id="node5" class="node">
<title>Node5</title>
<g id="a_node5"><a xlink:href="classprecice_1_1mapping_1_1Mapping.html#adac09460b4983629f85cec2a9f1fe75c" target="_top" xlink:title="Maps input data to output data from input mesh to output mesh.">
<polygon fill="white" stroke="black" points="209,-271 209,-290 385,-290 385,-271 209,-271"/>
<text text-anchor="middle" x="297" y="-278" font-family="Helvetica,sans-Serif" font-size="10.00">precice::mapping::Mapping::map</text>
</a>
</g>
</g>
<!-- Node1&#45;&gt;Node5 -->
<g id="edge4" class="edge">
<title>Node1&#45;&gt;Node5</title>
<path fill="none" stroke="midnightblue" d="M169.9,-303.48C191.23,-299.59 213.83,-295.48 233.92,-291.81"/>
<polygon fill="midnightblue" stroke="midnightblue" points="234.66,-295.24 243.87,-290 233.4,-288.35 234.66,-295.24"/>
</g>
<!-- Node21 -->
<g id="node21" class="node">
<title>Node21</title>
<g id="a_node21"><a xlink:href="namespaceprecice_1_1testing.html#a08533fd83bad3d7f27ea7f4a35a14aa4" target="_top" xlink:title=" ">
<polygon fill="white" stroke="black" points="219,-69 219,-88 375,-88 375,-69 219,-69"/>
<text text-anchor="middle" x="297" y="-76" font-family="Helvetica,sans-Serif" font-size="10.00">precice::testing::nextMeshID</text>
</a>
</g>
</g>
<!-- Node1&#45;&gt;Node21 -->
<g id="edge29" class="edge">
<title>Node1&#45;&gt;Node21</title>
<path fill="none" stroke="midnightblue" d="M100.54,-303.49C137.31,-261.16 241.67,-141.04 280.87,-95.92"/>
<polygon fill="midnightblue" stroke="midnightblue" points="283.68,-98.01 287.6,-88.17 278.4,-93.42 283.68,-98.01"/>
</g>
<!-- Node23 -->
<g id="node23" class="node">
<title>Node23</title>
<g id="a_node23"><a xlink:href="classprecice_1_1mapping_1_1Mapping.html#a5bf2ecf9adb1ae66977c1223f841a61f" target="_top" xlink:title="Sets input and output meshes carrying data to be mapped.">
<polygon fill="white" stroke="black" points="425.5,-126.5 425.5,-156.5 574.5,-156.5 574.5,-126.5 425.5,-126.5"/>
<text text-anchor="start" x="433.5" y="-144.5" font-family="Helvetica,sans-Serif" font-size="10.00">precice::mapping::Mapping</text>
<text text-anchor="middle" x="500" y="-133.5" font-family="Helvetica,sans-Serif" font-size="10.00">::setMeshes</text>
</a>
</g>
</g>
<!-- Node1&#45;&gt;Node23 -->
<g id="edge31" class="edge">
<title>Node1&#45;&gt;Node23</title>
<path fill="none" stroke="midnightblue" d="M118.53,-303.46C142.98,-291.73 177.98,-275.18 209,-261.5 293.59,-224.18 393.45,-183.61 451.18,-160.5"/>
<polygon fill="midnightblue" stroke="midnightblue" points="452.77,-163.63 460.76,-156.67 450.18,-157.13 452.77,-163.63"/>
</g>
<!-- Node24 -->
<g id="node24" class="node">
<title>Node24</title>
<g id="a_node24"><a xlink:href="RadialBasisFctMappingTest_8cpp.html#a5fe8cc401dc268d058f12ada538cbce3" target="_top" xlink:title=" ">
<polygon fill="white" stroke="black" points="223.5,-309 223.5,-328 370.5,-328 370.5,-309 223.5,-309"/>
<text text-anchor="middle" x="297" y="-316" font-family="Helvetica,sans-Serif" font-size="10.00">testSerialScaledConsistent</text>
</a>
</g>
</g>
<!-- Node1&#45;&gt;Node24 -->
<g id="edge34" class="edge">
<title>Node1&#45;&gt;Node24</title>
<path fill="none" stroke="midnightblue" d="M173.21,-318.5C186.32,-318.5 199.85,-318.5 212.9,-318.5"/>
<polygon fill="midnightblue" stroke="midnightblue" points="213.26,-322 223.26,-318.5 213.26,-315 213.26,-322"/>
</g>
<!-- Node6 -->
<g id="node6" class="node">
<title>Node6</title>
<g id="a_node6"><a xlink:href="namespaceprecice_1_1detail.html#adede399b4b92eea01face616a0cc7051" target="_top" xlink:title=" ">
<polygon fill="white" stroke="black" points="818,-528 818,-547 931,-547 931,-528 818,-528"/>
<text text-anchor="middle" x="874.5" y="-535" font-family="Helvetica,sans-Serif" font-size="10.00">precice::detail::data</text>
</a>
</g>
</g>
<!-- Node5&#45;&gt;Node6 -->
<g id="edge5" class="edge">
<title>Node5&#45;&gt;Node6</title>
<path fill="none" stroke="midnightblue" d="M373.03,-290.22C377.43,-292.74 381.48,-295.8 385,-299.5 452.08,-370.01 350.92,-447.97 421,-515.5 474.48,-567.04 695.31,-554.51 807.48,-544.39"/>
<polygon fill="midnightblue" stroke="midnightblue" points="808.02,-547.85 817.66,-543.45 807.38,-540.88 808.02,-547.85"/>
</g>
<!-- Node7 -->
<g id="node7" class="node">
<title>Node7</title>
<g id="a_node7"><a xlink:href="classprecice_1_1mapping_1_1Mapping.html#a6afbd9aaac2ab09b078db271cfd977a1" target="_top" xlink:title="Returns the constraint (consistent/conservative) of the mapping.">
<polygon fill="white" stroke="black" points="985,-150.5 985,-180.5 1134,-180.5 1134,-150.5 985,-150.5"/>
<text text-anchor="start" x="993" y="-168.5" font-family="Helvetica,sans-Serif" font-size="10.00">precice::mapping::Mapping</text>
<text text-anchor="middle" x="1059.5" y="-157.5" font-family="Helvetica,sans-Serif" font-size="10.00">::getConstraint</text>
</a>
</g>
</g>
<!-- Node5&#45;&gt;Node7 -->
<g id="edge6" class="edge">
<title>Node5&#45;&gt;Node7</title>
<path fill="none" stroke="midnightblue" d="M300.29,-270.9C308.95,-236.94 343.32,-122.15 421,-78.5 482.22,-44.1 508.81,-76.42 579,-78.5 661.33,-80.95 682.63,-76.71 764,-89.5 848.2,-102.74 943.3,-129.5 1002.08,-147.46"/>
<polygon fill="midnightblue" stroke="midnightblue" points="1001.32,-150.89 1011.91,-150.49 1003.38,-144.2 1001.32,-150.89"/>
</g>
<!-- Node8 -->
<g id="node8" class="node">
<title>Node8</title>
<g id="a_node8"><a xlink:href="classprecice_1_1mapping_1_1Mapping.html#a393912fe4919edd098e96f66ffbe0d52" target="_top" xlink:title=" ">
<polygon fill="white" stroke="black" points="425.5,-426.5 425.5,-456.5 574.5,-456.5 574.5,-426.5 425.5,-426.5"/>
<text text-anchor="start" x="433.5" y="-444.5" font-family="Helvetica,sans-Serif" font-size="10.00">precice::mapping::Mapping</text>
<text text-anchor="middle" x="500" y="-433.5" font-family="Helvetica,sans-Serif" font-size="10.00">::getDimensions</text>
</a>
</g>
</g>
<!-- Node5&#45;&gt;Node8 -->
<g id="edge7" class="edge">
<title>Node5&#45;&gt;Node8</title>
<path fill="none" stroke="midnightblue" d="M371.26,-290.12C376.25,-292.64 380.91,-295.73 385,-299.5 425.31,-336.67 382.27,-378.68 421,-417.5 421.96,-418.46 422.95,-419.38 423.98,-420.26"/>
<polygon fill="midnightblue" stroke="midnightblue" points="422.28,-423.35 432.44,-426.35 426.36,-417.67 422.28,-423.35"/>
</g>
<!-- Node9 -->
<g id="node9" class="node">
<title>Node9</title>
<g id="a_node9"><a xlink:href="classprecice_1_1mapping_1_1Mapping.html#aeea2d39f5e6ce0eaa97ebe436ff89991" target="_top" xlink:title="Checks whether the mapping has the given constraint or not.">
<polygon fill="white" stroke="black" points="800,-222.5 800,-252.5 949,-252.5 949,-222.5 800,-222.5"/>
<text text-anchor="start" x="808" y="-240.5" font-family="Helvetica,sans-Serif" font-size="10.00">precice::mapping::Mapping</text>
<text text-anchor="middle" x="874.5" y="-229.5" font-family="Helvetica,sans-Serif" font-size="10.00">::hasConstraint</text>
</a>
</g>
</g>
<!-- Node5&#45;&gt;Node9 -->
<g id="edge8" class="edge">
<title>Node5&#45;&gt;Node9</title>
<path fill="none" stroke="midnightblue" d="M301.67,-270.62C313.45,-240.57 353.51,-150.24 421,-116.5 558.23,-47.89 624.24,-92.2 764,-155.5 797,-170.44 829.54,-196.69 850.46,-215.46"/>
<polygon fill="midnightblue" stroke="midnightblue" points="848.15,-218.09 857.89,-222.25 852.87,-212.92 848.15,-218.09"/>
</g>
<!-- Node10 -->
<g id="node10" class="node">
<title>Node10</title>
<g id="a_node10"><a xlink:href="classprecice_1_1mapping_1_1Mapping.html#a61c3c55af467ada2bdd735efa0f960e4" target="_top" xlink:title="Returns pointer to input mesh.">
<polygon fill="white" stroke="black" points="615,-213.5 615,-243.5 764,-243.5 764,-213.5 615,-213.5"/>
<text text-anchor="start" x="623" y="-231.5" font-family="Helvetica,sans-Serif" font-size="10.00">precice::mapping::Mapping</text>
<text text-anchor="middle" x="689.5" y="-220.5" font-family="Helvetica,sans-Serif" font-size="10.00">::input</text>
</a>
</g>
</g>
<!-- Node5&#45;&gt;Node10 -->
<g id="edge10" class="edge">
<title>Node5&#45;&gt;Node10</title>
<path fill="none" stroke="midnightblue" d="M322.53,-270.95C347.04,-261.87 386.01,-248.72 421,-242.5 481.97,-231.66 551.89,-228.31 604.96,-227.59"/>
<polygon fill="midnightblue" stroke="midnightblue" points="605.04,-231.09 615,-227.48 604.96,-224.09 605.04,-231.09"/>
</g>
<!-- Node11 -->
<g id="node11" class="node">
<title>Node11</title>
<g id="a_node11"><a xlink:href="classprecice_1_1mapping_1_1Mapping.html#a6d9b8f1628e20e7f9e6d3834d7a992e3" target="_top" xlink:title="Returns true if mapping is a form of scaled consistent mapping.">
<polygon fill="white" stroke="black" points="615,-275.5 615,-305.5 764,-305.5 764,-275.5 615,-275.5"/>
<text text-anchor="start" x="623" y="-293.5" font-family="Helvetica,sans-Serif" font-size="10.00">precice::mapping::Mapping</text>
<text text-anchor="middle" x="689.5" y="-282.5" font-family="Helvetica,sans-Serif" font-size="10.00">::isScaledConsistent</text>
</a>
</g>
</g>
<!-- Node5&#45;&gt;Node11 -->
<g id="edge11" class="edge">
<title>Node5&#45;&gt;Node11</title>
<path fill="none" stroke="midnightblue" d="M385.15,-282.73C450.65,-284.41 539.86,-286.69 604.57,-288.35"/>
<polygon fill="midnightblue" stroke="midnightblue" points="604.65,-291.85 614.74,-288.61 604.83,-284.86 604.65,-291.85"/>
</g>
<!-- Node12 -->
<g id="node12" class="node">
<title>Node12</title>
<g id="a_node12"><a xlink:href="classprecice_1_1mapping_1_1Mapping.html#a3feec7b663fb9a32c806e49f0449c24a" target="_top" xlink:title="Maps data using a conservative constraint.">
<polygon fill="white" stroke="black" points="425.5,-377.5 425.5,-407.5 574.5,-407.5 574.5,-377.5 425.5,-377.5"/>
<text text-anchor="start" x="433.5" y="-395.5" font-family="Helvetica,sans-Serif" font-size="10.00">precice::mapping::Mapping</text>
<text text-anchor="middle" x="500" y="-384.5" font-family="Helvetica,sans-Serif" font-size="10.00">::mapConservative</text>
</a>
</g>
</g>
<!-- Node5&#45;&gt;Node12 -->
<g id="edge13" class="edge">
<title>Node5&#45;&gt;Node12</title>
<path fill="none" stroke="midnightblue" d="M368.36,-290.05C374.31,-292.55 379.96,-295.65 385,-299.5 412.48,-320.5 394.42,-346.37 421,-368.5 422.55,-369.79 424.17,-371.01 425.85,-372.17"/>
<polygon fill="midnightblue" stroke="midnightblue" points="424.27,-375.3 434.65,-377.42 427.86,-369.29 424.27,-375.3"/>
</g>
<!-- Node13 -->
<g id="node13" class="node">
<title>Node13</title>
<g id="a_node13"><a xlink:href="classprecice_1_1mapping_1_1Mapping.html#a777be849afae4995ed530961c64cd40d" target="_top" xlink:title="Maps data using a consistent constraint.">
<polygon fill="white" stroke="black" points="425.5,-328.5 425.5,-358.5 574.5,-358.5 574.5,-328.5 425.5,-328.5"/>
<text text-anchor="start" x="433.5" y="-346.5" font-family="Helvetica,sans-Serif" font-size="10.00">precice::mapping::Mapping</text>
<text text-anchor="middle" x="500" y="-335.5" font-family="Helvetica,sans-Serif" font-size="10.00">::mapConsistent</text>
</a>
</g>
</g>
<!-- Node5&#45;&gt;Node13 -->
<g id="edge14" class="edge">
<title>Node5&#45;&gt;Node13</title>
<path fill="none" stroke="midnightblue" d="M348.03,-290.03C360.22,-292.73 373.16,-295.93 385,-299.5 401.44,-304.46 404.99,-307.31 421,-313.5 430.44,-317.15 440.52,-321.04 450.2,-324.76"/>
<polygon fill="midnightblue" stroke="midnightblue" points="449.12,-328.1 459.71,-328.42 451.63,-321.56 449.12,-328.1"/>
</g>
<!-- Node14 -->
<g id="node14" class="node">
<title>Node14</title>
<g id="a_node14"><a xlink:href="classprecice_1_1mapping_1_1Mapping.html#a07a71a54b71eda6d54510c94fb188e70" target="_top" xlink:title="Returns pointer to output mesh.">
<polygon fill="white" stroke="black" points="615,-164.5 615,-194.5 764,-194.5 764,-164.5 615,-164.5"/>
<text text-anchor="start" x="623" y="-182.5" font-family="Helvetica,sans-Serif" font-size="10.00">precice::mapping::Mapping</text>
<text text-anchor="middle" x="689.5" y="-171.5" font-family="Helvetica,sans-Serif" font-size="10.00">::output</text>
</a>
</g>
</g>
<!-- Node5&#45;&gt;Node14 -->
<g id="edge15" class="edge">
<title>Node5&#45;&gt;Node14</title>
<path fill="none" stroke="midnightblue" d="M314.93,-270.85C338.12,-258.05 381.41,-235.68 421,-223.5 481.12,-205 551.36,-193.83 604.78,-187.37"/>
<polygon fill="midnightblue" stroke="midnightblue" points="605.37,-190.83 614.89,-186.18 604.55,-183.87 605.37,-190.83"/>
</g>
<!-- Node15 -->
<g id="node15" class="node">
<title>Node15</title>
<g id="a_node15"><a xlink:href="classprecice_1_1mapping_1_1Mapping.html#af5e507ecc8122e20403beecf634eaa42" target="_top" xlink:title="Scales the consistently mapped output data such that the surface integral of the values on input mesh...">
<polygon fill="white" stroke="black" points="425.5,-475.5 425.5,-505.5 574.5,-505.5 574.5,-475.5 425.5,-475.5"/>
<text text-anchor="start" x="433.5" y="-493.5" font-family="Helvetica,sans-Serif" font-size="10.00">precice::mapping::Mapping</text>
<text text-anchor="middle" x="500" y="-482.5" font-family="Helvetica,sans-Serif" font-size="10.00">::scaleConsistentMapping</text>
</a>
</g>
</g>
<!-- Node5&#45;&gt;Node15 -->
<g id="edge16" class="edge">
<title>Node5&#45;&gt;Node15</title>
<path fill="none" stroke="midnightblue" d="M372.43,-290.19C377.03,-292.71 381.29,-295.78 385,-299.5 438.62,-353.26 369.67,-410.55 421,-466.5 421.89,-467.47 422.82,-468.4 423.78,-469.29"/>
<polygon fill="midnightblue" stroke="midnightblue" points="421.69,-472.1 431.75,-475.44 425.97,-466.56 421.69,-472.1"/>
</g>
<!-- Node20 -->
<g id="node20" class="node">
<title>Node20</title>
<g id="a_node20"><a xlink:href="namespaceprecice_1_1detail.html#a99f20f73c4a3c34d08429ac0fea564ef" target="_top" xlink:title=" ">
<polygon fill="white" stroke="black" points="444.5,-252 444.5,-271 555.5,-271 555.5,-252 444.5,-252"/>
<text text-anchor="middle" x="500" y="-259" font-family="Helvetica,sans-Serif" font-size="10.00">precice::detail::size</text>
</a>
</g>
</g>
<!-- Node5&#45;&gt;Node20 -->
<g id="edge28" class="edge">
<title>Node5&#45;&gt;Node20</title>
<path fill="none" stroke="midnightblue" d="M385.28,-272.25C401.71,-270.7 418.62,-269.1 434.2,-267.63"/>
<polygon fill="midnightblue" stroke="midnightblue" points="434.61,-271.1 444.24,-266.68 433.95,-264.13 434.61,-271.1"/>
</g>
<!-- Node9&#45;&gt;Node7 -->
<g id="edge9" class="edge">
<title>Node9&#45;&gt;Node7</title>
<path fill="none" stroke="midnightblue" d="M913.86,-222.41C942.05,-211.32 980.52,-196.18 1010.7,-184.31"/>
<polygon fill="midnightblue" stroke="midnightblue" points="1012.16,-187.49 1020.19,-180.57 1009.6,-180.98 1012.16,-187.49"/>
</g>
<!-- Node11&#45;&gt;Node9 -->
<g id="edge12" class="edge">
<title>Node11&#45;&gt;Node9</title>
<path fill="none" stroke="midnightblue" d="M742.45,-275.45C763.99,-269.22 789.15,-261.93 811.63,-255.42"/>
<polygon fill="midnightblue" stroke="midnightblue" points="812.79,-258.73 821.42,-252.58 810.84,-252 812.79,-258.73"/>
</g>
<!-- Node15&#45;&gt;Node6 -->
<g id="edge17" class="edge">
<title>Node15&#45;&gt;Node6</title>
<path fill="none" stroke="midnightblue" d="M574.63,-483.13C627.8,-479.66 701.02,-478.68 764,-491.5 794.1,-497.62 826.24,-512.2 847.86,-523.31"/>
<polygon fill="midnightblue" stroke="midnightblue" points="846.25,-526.42 856.73,-527.98 849.51,-520.22 846.25,-526.42"/>
</g>
<!-- Node15&#45;&gt;Node9 -->
<g id="edge18" class="edge">
<title>Node15&#45;&gt;Node9</title>
<path fill="none" stroke="midnightblue" d="M567.51,-475.29C571.68,-472.79 575.57,-469.88 579,-466.5 616.2,-429.76 577.03,-390.44 615,-354.5 664.72,-307.45 701.99,-344.5 764,-315.5 795.54,-300.75 827.51,-276.7 848.7,-259.2"/>
<polygon fill="midnightblue" stroke="midnightblue" points="851.13,-261.72 856.54,-252.61 846.63,-256.36 851.13,-261.72"/>
</g>
<!-- Node15&#45;&gt;Node10 -->
<g id="edge19" class="edge">
<title>Node15&#45;&gt;Node10</title>
<path fill="none" stroke="midnightblue" d="M568.74,-475.32C572.52,-472.81 575.99,-469.89 579,-466.5 638.91,-398.91 561.36,-339.17 615,-266.5 620.21,-259.44 627.12,-253.58 634.62,-248.76"/>
<polygon fill="midnightblue" stroke="midnightblue" points="636.72,-251.59 643.63,-243.56 633.22,-245.53 636.72,-251.59"/>
</g>
<!-- Node15&#45;&gt;Node11 -->
<g id="edge25" class="edge">
<title>Node15&#45;&gt;Node11</title>
<path fill="none" stroke="midnightblue" d="M568.14,-475.33C572.11,-472.82 575.79,-469.9 579,-466.5 624.9,-417.92 571.31,-371.07 615,-320.5 618.16,-316.85 621.83,-313.63 625.81,-310.8"/>
<polygon fill="midnightblue" stroke="midnightblue" points="627.69,-313.75 634.36,-305.52 624.01,-307.8 627.69,-313.75"/>
</g>
<!-- Node15&#45;&gt;Node14 -->
<g id="edge27" class="edge">
<title>Node15&#45;&gt;Node14</title>
<path fill="none" stroke="midnightblue" d="M568.9,-475.47C572.64,-472.92 576.06,-469.95 579,-466.5 655.12,-376.94 540.21,-295.17 615,-204.5 615.99,-203.3 617.04,-202.15 618.15,-201.06"/>
<polygon fill="midnightblue" stroke="midnightblue" points="620.54,-203.64 626.13,-194.64 616.15,-198.18 620.54,-203.64"/>
</g>
<!-- Node16 -->
<g id="node16" class="node">
<title>Node16</title>
<g id="a_node16"><a xlink:href="namespaceprecice_1_1mesh.html#af945026d91b87d6b51fddc0debbb2c42" target="_top" xlink:title="Given the data and the mesh, this function returns the surface integral. Assumes no overlap exists fo...">
<polygon fill="white" stroke="black" points="622,-588.5 622,-618.5 757,-618.5 757,-588.5 622,-588.5"/>
<text text-anchor="start" x="630" y="-606.5" font-family="Helvetica,sans-Serif" font-size="10.00">precice::mesh::integrate</text>
<text text-anchor="middle" x="689.5" y="-595.5" font-family="Helvetica,sans-Serif" font-size="10.00">Surface</text>
</a>
</g>
</g>
<!-- Node15&#45;&gt;Node16 -->
<g id="edge20" class="edge">
<title>Node15&#45;&gt;Node16</title>
<path fill="none" stroke="midnightblue" d="M525.9,-505.51C558.96,-525.43 617.48,-560.7 654.56,-583.05"/>
<polygon fill="midnightblue" stroke="midnightblue" points="653.13,-586.27 663.5,-588.43 656.74,-580.27 653.13,-586.27"/>
</g>
<!-- Node17 -->
<g id="node17" class="node">
<title>Node17</title>
<g id="a_node17"><a xlink:href="namespaceprecice_1_1mesh.html#a9a609bf70347f75933f422fdef0e191d" target="_top" xlink:title="Given the data and the mesh, this function returns the volume integral. Assumes no overlap exists for...">
<polygon fill="white" stroke="black" points="622,-500.5 622,-530.5 757,-530.5 757,-500.5 622,-500.5"/>
<text text-anchor="start" x="630" y="-518.5" font-family="Helvetica,sans-Serif" font-size="10.00">precice::mesh::integrate</text>
<text text-anchor="middle" x="689.5" y="-507.5" font-family="Helvetica,sans-Serif" font-size="10.00">Volume</text>
</a>
</g>
</g>
<!-- Node15&#45;&gt;Node17 -->
<g id="edge22" class="edge">
<title>Node15&#45;&gt;Node17</title>
<path fill="none" stroke="midnightblue" d="M574.57,-500.31C586.75,-501.93 599.41,-503.62 611.67,-505.26"/>
<polygon fill="midnightblue" stroke="midnightblue" points="611.48,-508.76 621.86,-506.61 612.41,-501.82 611.48,-508.76"/>
</g>
<!-- Node18 -->
<g id="node18" class="node">
<title>Node18</title>
<g id="a_node18"><a xlink:href="classprecice_1_1utils_1_1IntraComm.html#a3e69605ac1a3f9f8c82471ba52624f5d" target="_top" xlink:title="True if this process is running the primary rank.">
<polygon fill="white" stroke="black" points="619.5,-363.5 619.5,-393.5 759.5,-393.5 759.5,-363.5 619.5,-363.5"/>
<text text-anchor="start" x="627.5" y="-381.5" font-family="Helvetica,sans-Serif" font-size="10.00">precice::utils::IntraComm</text>
<text text-anchor="middle" x="689.5" y="-370.5" font-family="Helvetica,sans-Serif" font-size="10.00">::isPrimary</text>
</a>
</g>
</g>
<!-- Node15&#45;&gt;Node18 -->
<g id="edge24" class="edge">
<title>Node15&#45;&gt;Node18</title>
<path fill="none" stroke="midnightblue" d="M564.82,-475.45C569.88,-472.91 574.69,-469.95 579,-466.5 604.18,-446.35 590.12,-424.02 615,-403.5 617.05,-401.81 619.21,-400.23 621.47,-398.76"/>
<polygon fill="midnightblue" stroke="midnightblue" points="623.59,-401.58 630.55,-393.59 620.13,-395.5 623.59,-401.58"/>
</g>
<!-- Node19 -->
<g id="node19" class="node">
<title>Node19</title>
<g id="a_node19"><a xlink:href="classprecice_1_1utils_1_1IntraComm.html#abde303b11e46851ae65dca65ef06daad" target="_top" xlink:title="True if this process is running a secondary rank.">
<polygon fill="white" stroke="black" points="619.5,-412.5 619.5,-442.5 759.5,-442.5 759.5,-412.5 619.5,-412.5"/>
<text text-anchor="start" x="627.5" y="-430.5" font-family="Helvetica,sans-Serif" font-size="10.00">precice::utils::IntraComm</text>
<text text-anchor="middle" x="689.5" y="-419.5" font-family="Helvetica,sans-Serif" font-size="10.00">::isSecondary</text>
</a>
</g>
</g>
<!-- Node15&#45;&gt;Node19 -->
<g id="edge26" class="edge">
<title>Node15&#45;&gt;Node19</title>
<path fill="none" stroke="midnightblue" d="M551.04,-475.46C560.35,-472.56 569.99,-469.49 579,-466.5 598.41,-460.06 619.61,-452.61 638.14,-445.95"/>
<polygon fill="midnightblue" stroke="midnightblue" points="639.35,-449.24 647.57,-442.56 636.97,-442.66 639.35,-449.24"/>
</g>
<!-- Node16&#45;&gt;Node6 -->
<g id="edge21" class="edge">
<title>Node16&#45;&gt;Node6</title>
<path fill="none" stroke="midnightblue" d="M732.48,-588.36C764.15,-576.94 807.14,-561.43 837.3,-550.56"/>
<polygon fill="midnightblue" stroke="midnightblue" points="838.78,-553.74 847,-547.06 836.4,-547.16 838.78,-553.74"/>
</g>
<!-- Node17&#45;&gt;Node6 -->
<g id="edge23" class="edge">
<title>Node17&#45;&gt;Node6</title>
<path fill="none" stroke="midnightblue" d="M757.08,-523.5C773.59,-525.49 791.26,-527.61 807.73,-529.59"/>
<polygon fill="midnightblue" stroke="midnightblue" points="807.45,-533.09 817.8,-530.8 808.29,-526.14 807.45,-533.09"/>
</g>
<!-- Node22 -->
<g id="node22" class="node">
<title>Node22</title>
<g id="a_node22"><a xlink:href="classprecice_1_1utils_1_1ManageUniqueIDs.html#a02be264c279698ae293587b6576088b5" target="_top" xlink:title=" ">
<polygon fill="white" stroke="black" points="421,-0.5 421,-30.5 579,-30.5 579,-0.5 421,-0.5"/>
<text text-anchor="start" x="429" y="-18.5" font-family="Helvetica,sans-Serif" font-size="10.00">precice::utils::ManageUnique</text>
<text text-anchor="middle" x="500" y="-7.5" font-family="Helvetica,sans-Serif" font-size="10.00">IDs::getFreeID</text>
</a>
</g>
</g>
<!-- Node21&#45;&gt;Node22 -->
<g id="edge30" class="edge">
<title>Node21&#45;&gt;Node22</title>
<path fill="none" stroke="midnightblue" d="M328.53,-68.93C358.37,-59.58 404.55,-45.1 441.32,-33.58"/>
<polygon fill="midnightblue" stroke="midnightblue" points="442.44,-36.9 450.94,-30.57 440.35,-30.22 442.44,-36.9"/>
</g>
<!-- Node23&#45;&gt;Node10 -->
<g id="edge32" class="edge">
<title>Node23&#45;&gt;Node10</title>
<path fill="none" stroke="midnightblue" d="M525.22,-156.65C547.85,-170.37 582.86,-190.52 615,-204.5 619.39,-206.41 623.97,-208.25 628.62,-210.01"/>
<polygon fill="midnightblue" stroke="midnightblue" points="627.61,-213.36 638.21,-213.49 630,-206.78 627.61,-213.36"/>
</g>
<!-- Node23&#45;&gt;Node14 -->
<g id="edge33" class="edge">
<title>Node23&#45;&gt;Node14</title>
<path fill="none" stroke="midnightblue" d="M574.57,-156.41C584.49,-158.42 594.74,-160.5 604.82,-162.54"/>
<polygon fill="midnightblue" stroke="midnightblue" points="604.34,-166.01 614.84,-164.57 605.73,-159.15 604.34,-166.01"/>
</g>
<!-- Node24&#45;&gt;Node16 -->
<g id="edge35" class="edge">
<title>Node24&#45;&gt;Node16</title>
<path fill="none" stroke="midnightblue" d="M370.69,-327.7C376.01,-330.53 380.89,-334.07 385,-338.5 456.9,-415.93 344.79,-500.31 421,-573.5 470.62,-621.16 551.65,-623.92 611.54,-617.67"/>
<polygon fill="midnightblue" stroke="midnightblue" points="612.18,-621.12 621.71,-616.5 611.38,-614.16 612.18,-621.12"/>
</g>
</g>
</svg>
