<?xml version="1.0" encoding="UTF-8" standalone="no"?>
<!DOCTYPE svg PUBLIC "-//W3C//DTD SVG 1.1//EN"
 "http://www.w3.org/Graphics/SVG/1.1/DTD/svg11.dtd">
<!-- Generated by graphviz version 2.43.0 (0)
 -->
<!-- Title: BOOST_AUTO_TEST_CASE Pages: 1 -->
<svg width="989pt" height="115pt"
 viewBox="0.00 0.00 989.00 115.00" xmlns="http://www.w3.org/2000/svg" xmlns:xlink="http://www.w3.org/1999/xlink">
<g id="graph0" class="graph" transform="scale(1 1) rotate(0) translate(4 111)">
<title>BOOST_AUTO_TEST_CASE</title>
<!-- Node1 -->
<g id="Node000001" class="node">
<title>Node1</title>
<g id="a_Node000001"><a xlink:title=" ">
<polygon fill="#999999" stroke="#666666" points="143,-66 0,-66 0,-47 143,-47 143,-66"/>
<text text-anchor="middle" x="71.5" y="-54" font-family="Helvetica,sans-Serif" font-size="10.00">BOOST_AUTO_TEST_CASE</text>
</a>
</g>
</g>
<!-- Node2 -->
<g id="Node000002" class="node">
<title>Node2</title>
<g id="a_Node000002"><a xlink:href="classprecice_1_1cplscheme_1_1impl_1_1RelativeConvergenceMeasure.html#a3f7e4d5b73f3d6665c49ce79c63587f5" target="_top" xlink:title="Returns true, if the last measurement indicates convergence.">
<polygon fill="white" stroke="#666666" points="334,-107 179,-107 179,-66 334,-66 334,-107"/>
<text text-anchor="start" x="187" y="-95" font-family="Helvetica,sans-Serif" font-size="10.00">precice::cplscheme</text>
<text text-anchor="start" x="187" y="-84" font-family="Helvetica,sans-Serif" font-size="10.00">::impl::RelativeConvergence</text>
<text text-anchor="middle" x="256.5" y="-73" font-family="Helvetica,sans-Serif" font-size="10.00">Measure::isConvergence</text>
</a>
</g>
</g>
<!-- Node1&#45;&gt;Node2 -->
<g id="edge1_Node000001_Node000002" class="edge">
<title>Node1&#45;&gt;Node2</title>
<g id="a_edge1_Node000001_Node000002"><a xlink:title=" ">
<path fill="none" stroke="#63b8ff" d="M130.65,-66.03C142.71,-68.01 155.66,-70.13 168.5,-72.24"/>
<polygon fill="#63b8ff" stroke="#63b8ff" points="168.31,-75.75 178.74,-73.92 169.44,-68.85 168.31,-75.75"/>
</a>
</g>
</g>
<!-- Node3 -->
<g id="Node000003" class="node">
<title>Node3</title>
<g id="a_Node000003"><a xlink:href="classprecice_1_1cplscheme_1_1impl_1_1RelativeConvergenceMeasure.html#aaea3267806051d6e8e5133f5db3b61ad" target="_top" xlink:title="Performs convergence measurement.">
<polygon fill="white" stroke="#666666" points="334,-48 179,-48 179,-7 334,-7 334,-48"/>
<text text-anchor="start" x="187" y="-36" font-family="Helvetica,sans-Serif" font-size="10.00">precice::cplscheme</text>
<text text-anchor="start" x="187" y="-25" font-family="Helvetica,sans-Serif" font-size="10.00">::impl::RelativeConvergence</text>
<text text-anchor="middle" x="256.5" y="-14" font-family="Helvetica,sans-Serif" font-size="10.00">Measure::measure</text>
</a>
</g>
</g>
<!-- Node1&#45;&gt;Node3 -->
<g id="edge2_Node000001_Node000003" class="edge">
<title>Node1&#45;&gt;Node3</title>
<g id="a_edge2_Node000001_Node000003"><a xlink:title=" ">
<path fill="none" stroke="#63b8ff" d="M132.67,-46.96C144.23,-45.13 156.55,-43.18 168.75,-41.25"/>
<polygon fill="#63b8ff" stroke="#63b8ff" points="169.62,-44.65 178.95,-39.63 168.53,-37.74 169.62,-44.65"/>
</a>
</g>
</g>
<!-- Node4 -->
<g id="Node000004" class="node">
<title>Node4</title>
<g id="a_Node000004"><a xlink:href="classprecice_1_1utils_1_1IntraComm.html#a2b6ac8a54b0f96edb2e3fe47d3a52d62" target="_top" xlink:title="The l2 norm of a vector is calculated on distributed data.">
<polygon fill="white" stroke="#666666" points="510,-42.5 370,-42.5 370,-12.5 510,-12.5 510,-42.5"/>
<text text-anchor="start" x="378" y="-30.5" font-family="Helvetica,sans-Serif" font-size="10.00">precice::utils::IntraComm</text>
<text text-anchor="middle" x="440" y="-19.5" font-family="Helvetica,sans-Serif" font-size="10.00">::l2norm</text>
</a>
</g>
</g>
<!-- Node3&#45;&gt;Node4 -->
<g id="edge3_Node000003_Node000004" class="edge">
<title>Node3&#45;&gt;Node4</title>
<g id="a_edge3_Node000003_Node000004"><a xlink:title=" ">
<path fill="none" stroke="#63b8ff" d="M334.21,-27.5C342.6,-27.5 351.16,-27.5 359.58,-27.5"/>
<polygon fill="#63b8ff" stroke="#63b8ff" points="359.77,-31 369.77,-27.5 359.77,-24 359.77,-31"/>
</a>
</g>
</g>
<!-- Node5 -->
<g id="Node000005" class="node">
<title>Node5</title>
<g id="a_Node000005"><a xlink:href="classprecice_1_1utils_1_1IntraComm.html#a1181baf395fd7e41bb0f922e3c3334cf" target="_top" xlink:title=" ">
<polygon fill="white" stroke="#666666" points="686,-42.5 546,-42.5 546,-12.5 686,-12.5 686,-42.5"/>
<text text-anchor="start" x="554" y="-30.5" font-family="Helvetica,sans-Serif" font-size="10.00">precice::utils::IntraComm</text>
<text text-anchor="middle" x="616" y="-19.5" font-family="Helvetica,sans-Serif" font-size="10.00">::allreduceSum</text>
</a>
</g>
</g>
<!-- Node4&#45;&gt;Node5 -->
<g id="edge4_Node000004_Node000005" class="edge">
<title>Node4&#45;&gt;Node5</title>
<g id="a_edge4_Node000004_Node000005"><a xlink:title=" ">
<path fill="none" stroke="#63b8ff" d="M510.02,-27.5C518.48,-27.5 527.17,-27.5 535.76,-27.5"/>
<polygon fill="#63b8ff" stroke="#63b8ff" points="535.78,-31 545.78,-27.5 535.78,-24 535.78,-31"/>
</a>
</g>
</g>
<!-- Node6 -->
<g id="Node000006" class="node">
<title>Node6</title>
<g id="a_Node000006"><a xlink:href="classprecice_1_1span.html#ab25ca07a93bfa334622507c2c22b1034" target="_top" xlink:title=" ">
<polygon fill="white" stroke="#666666" points="836,-56 722,-56 722,-37 836,-37 836,-56"/>
<text text-anchor="middle" x="779" y="-44" font-family="Helvetica,sans-Serif" font-size="10.00">precice::span::begin</text>
</a>
</g>
</g>
<!-- Node5&#45;&gt;Node6 -->
<g id="edge5_Node000005_Node000006" class="edge">
<title>Node5&#45;&gt;Node6</title>
<g id="a_edge5_Node000005_Node000006"><a xlink:title=" ">
<path fill="none" stroke="#63b8ff" d="M686.21,-35.67C694.7,-36.67 703.35,-37.69 711.79,-38.69"/>
<polygon fill="#63b8ff" stroke="#63b8ff" points="711.6,-42.19 721.94,-39.88 712.42,-35.24 711.6,-42.19"/>
</a>
</g>
</g>
<!-- Node8 -->
<g id="Node000008" class="node">
<title>Node8</title>
<g id="a_Node000008"><a xlink:href="classprecice_1_1span.html#ab86c14ec7bc7475d3ddb21d400e93121" target="_top" xlink:title=" ">
<polygon fill="white" stroke="#666666" points="831.5,-19 726.5,-19 726.5,0 831.5,0 831.5,-19"/>
<text text-anchor="middle" x="779" y="-7" font-family="Helvetica,sans-Serif" font-size="10.00">precice::span::end</text>
</a>
</g>
</g>
<!-- Node5&#45;&gt;Node8 -->
<g id="edge7_Node000005_Node000008" class="edge">
<title>Node5&#45;&gt;Node8</title>
<g id="a_edge7_Node000005_Node000008"><a xlink:title=" ">
<path fill="none" stroke="#63b8ff" d="M686.21,-19.76C696.21,-18.64 706.44,-17.5 716.27,-16.4"/>
<polygon fill="#63b8ff" stroke="#63b8ff" points="716.8,-19.86 726.35,-15.27 716.03,-12.91 716.8,-19.86"/>
</a>
</g>
</g>
<!-- Node7 -->
<g id="Node000007" class="node">
<title>Node7</title>
<g id="a_Node000007"><a xlink:href="classprecice_1_1span.html#a38fb4273ab189e44dfb475c17e063a9a" target="_top" xlink:title=" ">
<polygon fill="white" stroke="#666666" points="981,-56 872,-56 872,-37 981,-37 981,-56"/>
<text text-anchor="middle" x="926.5" y="-44" font-family="Helvetica,sans-Serif" font-size="10.00">precice::span::data</text>
</a>
</g>
</g>
<!-- Node6&#45;&gt;Node7 -->
<g id="edge6_Node000006_Node000007" class="edge">
<title>Node6&#45;&gt;Node7</title>
<g id="a_edge6_Node000006_Node000007"><a xlink:title=" ">
<path fill="none" stroke="#63b8ff" d="M836.25,-46.5C844.55,-46.5 853.16,-46.5 861.6,-46.5"/>
<polygon fill="#63b8ff" stroke="#63b8ff" points="861.78,-50 871.78,-46.5 861.78,-43 861.78,-50"/>
</a>
</g>
</g>
<!-- Node8&#45;&gt;Node7 -->
<g id="edge8_Node000008_Node000007" class="edge">
<title>Node8&#45;&gt;Node7</title>
<g id="a_edge8_Node000008_Node000007"><a xlink:title=" ">
<path fill="none" stroke="#63b8ff" d="M817.47,-19.03C835.98,-23.74 858.52,-29.47 878.2,-34.47"/>
<polygon fill="#63b8ff" stroke="#63b8ff" points="877.35,-37.87 887.9,-36.94 879.08,-31.08 877.35,-37.87"/>
</a>
</g>
</g>
<!-- Node9 -->
<g id="Node000009" class="node">
<title>Node9</title>
<g id="a_Node000009"><a xlink:href="classprecice_1_1span.html#ae91f5ed50b6cbf0d15382b8e3c2a9a04" target="_top" xlink:title=" ">
<polygon fill="white" stroke="#666666" points="980,-19 873,-19 873,0 980,0 980,-19"/>
<text text-anchor="middle" x="926.5" y="-7" font-family="Helvetica,sans-Serif" font-size="10.00">precice::span::size</text>
</a>
</g>
</g>
<!-- Node8&#45;&gt;Node9 -->
<g id="edge9_Node000008_Node000009" class="edge">
<title>Node8&#45;&gt;Node9</title>
<g id="a_edge9_Node000008_Node000009"><a xlink:title=" ">
<path fill="none" stroke="#63b8ff" d="M831.71,-9.5C841.75,-9.5 852.39,-9.5 862.74,-9.5"/>
<polygon fill="#63b8ff" stroke="#63b8ff" points="862.98,-13 872.98,-9.5 862.98,-6 862.98,-13"/>
</a>
</g>
</g>
</g>
</svg>
