<?xml version="1.0" encoding="UTF-8" standalone="no"?>
<!DOCTYPE svg PUBLIC "-//W3C//DTD SVG 1.1//EN"
 "http://www.w3.org/Graphics/SVG/1.1/DTD/svg11.dtd">
<!-- Generated by graphviz version 2.43.0 (0)
 -->
<!-- Title: src/cplscheme/impl/ResidualRelativeConvergenceMeasure.hpp Pages: 1 -->
<svg width="564pt" height="126pt"
 viewBox="0.00 0.00 563.50 126.00" xmlns="http://www.w3.org/2000/svg" xmlns:xlink="http://www.w3.org/1999/xlink">
<g id="graph0" class="graph" transform="scale(1 1) rotate(0) translate(4 122)">
<title>src/cplscheme/impl/ResidualRelativeConvergenceMeasure.hpp</title>
<!-- Node1 -->
<g id="Node000001" class="node">
<title>Node1</title>
<g id="a_Node000001"><a xlink:title=" ">
<polygon fill="#999999" stroke="#666666" points="371.5,-118 205.5,-118 205.5,-77 371.5,-77 371.5,-118"/>
<text text-anchor="start" x="213.5" y="-106" font-family="Helvetica,sans-Serif" font-size="10.00">src/cplscheme/impl</text>
<text text-anchor="start" x="213.5" y="-95" font-family="Helvetica,sans-Serif" font-size="10.00">/ResidualRelativeConvergence</text>
<text text-anchor="middle" x="288.5" y="-84" font-family="Helvetica,sans-Serif" font-size="10.00">Measure.hpp</text>
</a>
</g>
</g>
<!-- Node2 -->
<g id="Node000002" class="node">
<title>Node2</title>
<g id="a_Node000002"><a xlink:href="CouplingSchemeConfiguration_8cpp.html" target="_top" xlink:title=" ">
<polygon fill="white" stroke="#666666" points="187,-35.5 0,-35.5 0,-5.5 187,-5.5 187,-35.5"/>
<text text-anchor="start" x="8" y="-23.5" font-family="Helvetica,sans-Serif" font-size="10.00">src/cplscheme/config</text>
<text text-anchor="middle" x="93.5" y="-12.5" font-family="Helvetica,sans-Serif" font-size="10.00">/CouplingSchemeConfiguration.cpp</text>
</a>
</g>
</g>
<!-- Node1&#45;&gt;Node2 -->
<g id="edge1_Node000001_Node000002" class="edge">
<title>Node1&#45;&gt;Node2</title>
<g id="a_edge1_Node000001_Node000002"><a xlink:title=" ">
<path fill="none" stroke="#63b8ff" d="M228.05,-73.25C195.99,-60.92 157.65,-46.17 130.11,-35.58"/>
<polygon fill="#63b8ff" stroke="#63b8ff" points="227.19,-76.67 237.78,-76.99 229.7,-70.13 227.19,-76.67"/>
</a>
</g>
</g>
<!-- Node3 -->
<g id="Node000003" class="node">
<title>Node3</title>
<g id="a_Node000003"><a xlink:href="ResidualRelativeConvergenceMeasure_8cpp.html" target="_top" xlink:title=" ">
<polygon fill="white" stroke="#666666" points="371.5,-41 205.5,-41 205.5,0 371.5,0 371.5,-41"/>
<text text-anchor="start" x="213.5" y="-29" font-family="Helvetica,sans-Serif" font-size="10.00">src/cplscheme/impl</text>
<text text-anchor="start" x="213.5" y="-18" font-family="Helvetica,sans-Serif" font-size="10.00">/ResidualRelativeConvergence</text>
<text text-anchor="middle" x="288.5" y="-7" font-family="Helvetica,sans-Serif" font-size="10.00">Measure.cpp</text>
</a>
</g>
</g>
<!-- Node1&#45;&gt;Node3 -->
<g id="edge2_Node000001_Node000003" class="edge">
<title>Node1&#45;&gt;Node3</title>
<g id="a_edge2_Node000001_Node000003"><a xlink:title=" ">
<path fill="none" stroke="#63b8ff" d="M288.5,-66.69C288.5,-58.08 288.5,-48.9 288.5,-41.07"/>
<polygon fill="#63b8ff" stroke="#63b8ff" points="285,-66.79 288.5,-76.79 292,-66.79 285,-66.79"/>
</a>
</g>
</g>
<!-- Node4 -->
<g id="Node000004" class="node">
<title>Node4</title>
<g id="a_Node000004"><a xlink:href="ResidualRelativeConvergenceMeasureTest_8cpp.html" target="_top" xlink:title=" ">
<polygon fill="white" stroke="#666666" points="555.5,-41 389.5,-41 389.5,0 555.5,0 555.5,-41"/>
<text text-anchor="start" x="397.5" y="-29" font-family="Helvetica,sans-Serif" font-size="10.00">src/cplscheme/tests</text>
<text text-anchor="start" x="397.5" y="-18" font-family="Helvetica,sans-Serif" font-size="10.00">/ResidualRelativeConvergence</text>
<text text-anchor="middle" x="472.5" y="-7" font-family="Helvetica,sans-Serif" font-size="10.00">MeasureTest.cpp</text>
</a>
</g>
</g>
<!-- Node1&#45;&gt;Node4 -->
<g id="edge3_Node000001_Node000004" class="edge">
<title>Node1&#45;&gt;Node4</title>
<g id="a_edge3_Node000001_Node000004"><a xlink:title=" ">
<path fill="none" stroke="#63b8ff" d="M345.83,-73.13C371.1,-62.83 400.47,-50.86 424.56,-41.04"/>
<polygon fill="#63b8ff" stroke="#63b8ff" points="344.3,-69.97 336.36,-76.99 346.94,-76.46 344.3,-69.97"/>
</a>
</g>
</g>
</g>
</svg>
