<?xml version="1.0" encoding="UTF-8" standalone="no"?>
<!DOCTYPE svg PUBLIC "-//W3C//DTD SVG 1.1//EN"
 "http://www.w3.org/Graphics/SVG/1.1/DTD/svg11.dtd">
<!-- Generated by graphviz version 2.43.0 (0)
 -->
<!-- Title: runCouplingWithSubcycling Pages: 1 -->
<svg width="417pt" height="1002pt"
 viewBox="0.00 0.00 417.00 1002.00" xmlns="http://www.w3.org/2000/svg" xmlns:xlink="http://www.w3.org/1999/xlink">
<g id="graph0" class="graph" transform="scale(1 1) rotate(0) translate(4 998)">
<title>runCouplingWithSubcycling</title>
<polygon fill="white" stroke="transparent" points="-4,4 -4,-998 413,-998 413,4 -4,4"/>
<!-- Node1 -->
<g id="node1" class="node">
<title>Node1</title>
<g id="a_node1"><a xlink:title=" ">
<polygon fill="#bfbfbf" stroke="black" points="0,-509 0,-528 150,-528 150,-509 0,-509"/>
<text text-anchor="middle" x="75" y="-516" font-family="Helvetica,sans-Serif" font-size="10.00">runCouplingWithSubcycling</text>
</a>
</g>
</g>
<!-- Node2 -->
<g id="node2" class="node">
<title>Node2</title>
<g id="a_node2"><a xlink:href="classprecice_1_1cplscheme_1_1CouplingScheme.html#a3d4ee03296627ef95f1dc27cc3381bd2" target="_top" xlink:title="Adds newly computed time. Has to be called before every advance.">
<polygon fill="white" stroke="black" points="196,-963.5 196,-993.5 399,-993.5 399,-963.5 196,-963.5"/>
<text text-anchor="start" x="204" y="-981.5" font-family="Helvetica,sans-Serif" font-size="10.00">precice::cplscheme</text>
<text text-anchor="middle" x="297.5" y="-970.5" font-family="Helvetica,sans-Serif" font-size="10.00">::CouplingScheme::addComputedTime</text>
</a>
</g>
</g>
<!-- Node1&#45;&gt;Node2 -->
<g id="edge1" class="edge">
<title>Node1&#45;&gt;Node2</title>
<path fill="none" stroke="midnightblue" d="M77.1,-528.34C83.85,-587.04 121.58,-890.69 186,-953.5 187.48,-954.94 189.02,-956.31 190.62,-957.6"/>
<polygon fill="midnightblue" stroke="midnightblue" points="188.85,-960.63 199.06,-963.48 192.86,-954.89 188.85,-960.63"/>
</g>
<!-- Node3 -->
<g id="node3" class="node">
<title>Node3</title>
<g id="a_node3"><a xlink:href="namespaceprecice_1_1testing.html#a6a116337529290bbb1bf2545b5fb315a" target="_top" xlink:title="equals to be used in tests. Compares two matrices using a given tolerance. Prints both operands on fa...">
<polygon fill="white" stroke="black" points="232.5,-925 232.5,-944 362.5,-944 362.5,-925 232.5,-925"/>
<text text-anchor="middle" x="297.5" y="-932" font-family="Helvetica,sans-Serif" font-size="10.00">precice::testing::equals</text>
</a>
</g>
</g>
<!-- Node1&#45;&gt;Node3 -->
<g id="edge2" class="edge">
<title>Node1&#45;&gt;Node3</title>
<path fill="none" stroke="midnightblue" d="M77.29,-528.25C84.82,-583.84 125.01,-860.32 186,-915.5 196.16,-924.69 209.1,-930.27 222.5,-933.52"/>
<polygon fill="midnightblue" stroke="midnightblue" points="221.83,-936.95 232.32,-935.49 223.21,-930.09 221.83,-936.95"/>
</g>
<!-- Node4 -->
<g id="node4" class="node">
<title>Node4</title>
<g id="a_node4"><a xlink:href="classprecice_1_1cplscheme_1_1CouplingScheme.html#ab71e795a9c658831be3b8543e61d918c" target="_top" xlink:title="Finalizes the coupling and disconnects communication.">
<polygon fill="white" stroke="black" points="224.5,-875.5 224.5,-905.5 370.5,-905.5 370.5,-875.5 224.5,-875.5"/>
<text text-anchor="start" x="232.5" y="-893.5" font-family="Helvetica,sans-Serif" font-size="10.00">precice::cplscheme</text>
<text text-anchor="middle" x="297.5" y="-882.5" font-family="Helvetica,sans-Serif" font-size="10.00">::CouplingScheme::finalize</text>
</a>
</g>
</g>
<!-- Node1&#45;&gt;Node4 -->
<g id="edge3" class="edge">
<title>Node1&#45;&gt;Node4</title>
<path fill="none" stroke="midnightblue" d="M75.82,-528.04C75.49,-573.54 80.41,-770.23 186,-866.5 194.16,-873.94 204.08,-879.27 214.58,-883.06"/>
<polygon fill="midnightblue" stroke="midnightblue" points="213.76,-886.47 224.35,-886.12 215.85,-879.79 213.76,-886.47"/>
</g>
<!-- Node5 -->
<g id="node5" class="node">
<title>Node5</title>
<g id="a_node5"><a xlink:href="classprecice_1_1cplscheme_1_1CouplingScheme.html#af74a2b9365bee03ecbed38a76cfca247" target="_top" xlink:title=" ">
<polygon fill="white" stroke="black" points="209.5,-826.5 209.5,-856.5 385.5,-856.5 385.5,-826.5 209.5,-826.5"/>
<text text-anchor="start" x="217.5" y="-844.5" font-family="Helvetica,sans-Serif" font-size="10.00">precice::cplscheme</text>
<text text-anchor="middle" x="297.5" y="-833.5" font-family="Helvetica,sans-Serif" font-size="10.00">::CouplingScheme::firstExchange</text>
</a>
</g>
</g>
<!-- Node1&#45;&gt;Node5 -->
<g id="edge4" class="edge">
<title>Node1&#45;&gt;Node5</title>
<path fill="none" stroke="midnightblue" d="M76.37,-528.09C78.54,-569.74 92.95,-736.53 186,-817.5 190.3,-821.25 195.06,-824.45 200.1,-827.19"/>
<polygon fill="midnightblue" stroke="midnightblue" points="198.91,-830.5 209.45,-831.63 201.92,-824.18 198.91,-830.5"/>
</g>
<!-- Node6 -->
<g id="node6" class="node">
<title>Node6</title>
<g id="a_node6"><a xlink:href="classprecice_1_1cplscheme_1_1CouplingScheme.html#a2190876ae6da23385329bab2ecd8dcb4" target="_top" xlink:title=" ">
<polygon fill="white" stroke="black" points="194,-777.5 194,-807.5 401,-807.5 401,-777.5 194,-777.5"/>
<text text-anchor="start" x="202" y="-795.5" font-family="Helvetica,sans-Serif" font-size="10.00">precice::cplscheme</text>
<text text-anchor="middle" x="297.5" y="-784.5" font-family="Helvetica,sans-Serif" font-size="10.00">::CouplingScheme::firstSynchronization</text>
</a>
</g>
</g>
<!-- Node1&#45;&gt;Node6 -->
<g id="edge5" class="edge">
<title>Node1&#45;&gt;Node6</title>
<path fill="none" stroke="midnightblue" d="M77.19,-528.22C82.29,-565.64 105.91,-701.58 186,-767.5 188.06,-769.2 190.21,-770.78 192.44,-772.26"/>
<polygon fill="midnightblue" stroke="midnightblue" points="190.98,-775.46 201.38,-777.49 194.51,-769.42 190.98,-775.46"/>
</g>
<!-- Node7 -->
<g id="node7" class="node">
<title>Node7</title>
<g id="a_node7"><a xlink:href="classprecice_1_1cplscheme_1_1CouplingScheme.html#a7fc26387d7769bf47d522666627e11da" target="_top" xlink:title="Returns the maximal size of the next time step to be computed.">
<polygon fill="white" stroke="black" points="210.5,-717 210.5,-758 384.5,-758 384.5,-717 210.5,-717"/>
<text text-anchor="start" x="218.5" y="-746" font-family="Helvetica,sans-Serif" font-size="10.00">precice::cplscheme</text>
<text text-anchor="start" x="218.5" y="-735" font-family="Helvetica,sans-Serif" font-size="10.00">::CouplingScheme::getNextTime</text>
<text text-anchor="middle" x="297.5" y="-724" font-family="Helvetica,sans-Serif" font-size="10.00">StepMaxSize</text>
</a>
</g>
</g>
<!-- Node1&#45;&gt;Node7 -->
<g id="edge6" class="edge">
<title>Node1&#45;&gt;Node7</title>
<path fill="none" stroke="midnightblue" d="M78.71,-528.1C87.98,-559.2 121.54,-658.05 186,-707.5 190.7,-711.1 195.8,-714.28 201.15,-717.07"/>
<polygon fill="midnightblue" stroke="midnightblue" points="199.81,-720.31 210.35,-721.41 202.8,-713.98 199.81,-720.31"/>
</g>
<!-- Node8 -->
<g id="node8" class="node">
<title>Node8</title>
<g id="a_node8"><a xlink:href="classprecice_1_1cplscheme_1_1CouplingScheme.html#a16c7b21a6f1b45e62c9c914e4b75f289" target="_top" xlink:title="Returns the normalized time within the current time window.">
<polygon fill="white" stroke="black" points="206.5,-657 206.5,-698 388.5,-698 388.5,-657 206.5,-657"/>
<text text-anchor="start" x="214.5" y="-686" font-family="Helvetica,sans-Serif" font-size="10.00">precice::cplscheme</text>
<text text-anchor="start" x="214.5" y="-675" font-family="Helvetica,sans-Serif" font-size="10.00">::CouplingScheme::getNormalized</text>
<text text-anchor="middle" x="297.5" y="-664" font-family="Helvetica,sans-Serif" font-size="10.00">WindowTime</text>
</a>
</g>
</g>
<!-- Node1&#45;&gt;Node8 -->
<g id="edge7" class="edge">
<title>Node1&#45;&gt;Node8</title>
<path fill="none" stroke="midnightblue" d="M81.49,-528.33C95.55,-552.53 135.29,-615.36 186,-647.5 189.59,-649.77 193.35,-651.88 197.23,-653.82"/>
<polygon fill="midnightblue" stroke="midnightblue" points="195.91,-657.07 206.46,-658.08 198.85,-650.72 195.91,-657.07"/>
</g>
<!-- Node9 -->
<g id="node9" class="node">
<title>Node9</title>
<g id="a_node9"><a xlink:href="classprecice_1_1cplscheme_1_1CouplingScheme.html#a3e92e879eb086f6b514f496d61db45bb" target="_top" xlink:title="Returns the currently computed time of the coupling scheme.">
<polygon fill="white" stroke="black" points="222,-607.5 222,-637.5 373,-637.5 373,-607.5 222,-607.5"/>
<text text-anchor="start" x="230" y="-625.5" font-family="Helvetica,sans-Serif" font-size="10.00">precice::cplscheme</text>
<text text-anchor="middle" x="297.5" y="-614.5" font-family="Helvetica,sans-Serif" font-size="10.00">::CouplingScheme::getTime</text>
</a>
</g>
</g>
<!-- Node1&#45;&gt;Node9 -->
<g id="edge8" class="edge">
<title>Node1&#45;&gt;Node9</title>
<path fill="none" stroke="midnightblue" d="M86,-528.05C104.3,-544.97 145.06,-580.15 186,-598.5 194.22,-602.19 203.05,-605.32 212,-607.98"/>
<polygon fill="midnightblue" stroke="midnightblue" points="211.16,-611.38 221.73,-610.69 213.04,-604.64 211.16,-611.38"/>
</g>
<!-- Node10 -->
<g id="node10" class="node">
<title>Node10</title>
<g id="a_node10"><a xlink:href="classprecice_1_1cplscheme_1_1CouplingScheme.html#ac72e5ebd5f6202d5d5ffffbee94e2f9d" target="_top" xlink:title="Returns the currently computed time windows of the coupling scheme.">
<polygon fill="white" stroke="black" points="200,-558.5 200,-588.5 395,-588.5 395,-558.5 200,-558.5"/>
<text text-anchor="start" x="208" y="-576.5" font-family="Helvetica,sans-Serif" font-size="10.00">precice::cplscheme</text>
<text text-anchor="middle" x="297.5" y="-565.5" font-family="Helvetica,sans-Serif" font-size="10.00">::CouplingScheme::getTimeWindows</text>
</a>
</g>
</g>
<!-- Node1&#45;&gt;Node10 -->
<g id="edge9" class="edge">
<title>Node1&#45;&gt;Node10</title>
<path fill="none" stroke="midnightblue" d="M109.6,-528.07C131.33,-534.16 160.26,-542.08 186,-548.5 196.37,-551.09 207.32,-553.7 218.14,-556.22"/>
<polygon fill="midnightblue" stroke="midnightblue" points="217.48,-559.66 228.01,-558.5 219.06,-552.84 217.48,-559.66"/>
</g>
<!-- Node11 -->
<g id="node11" class="node">
<title>Node11</title>
<g id="a_node11"><a xlink:href="classprecice_1_1cplscheme_1_1CouplingScheme.html#ae91c824606fdbe167f8d62bd0371b465" target="_top" xlink:title="Returns true, if data has been exchanged in last call of advance().">
<polygon fill="white" stroke="black" points="209.5,-498 209.5,-539 385.5,-539 385.5,-498 209.5,-498"/>
<text text-anchor="start" x="217.5" y="-527" font-family="Helvetica,sans-Serif" font-size="10.00">precice::cplscheme</text>
<text text-anchor="start" x="217.5" y="-516" font-family="Helvetica,sans-Serif" font-size="10.00">::CouplingScheme::hasDataBeen</text>
<text text-anchor="middle" x="297.5" y="-505" font-family="Helvetica,sans-Serif" font-size="10.00">Received</text>
</a>
</g>
</g>
<!-- Node1&#45;&gt;Node11 -->
<g id="edge10" class="edge">
<title>Node1&#45;&gt;Node11</title>
<path fill="none" stroke="midnightblue" d="M150.04,-518.5C165.79,-518.5 182.64,-518.5 199.11,-518.5"/>
<polygon fill="midnightblue" stroke="midnightblue" points="199.3,-522 209.3,-518.5 199.3,-515 199.3,-522"/>
</g>
<!-- Node12 -->
<g id="node12" class="node">
<title>Node12</title>
<g id="a_node12"><a xlink:href="classprecice_1_1cplscheme_1_1CouplingScheme.html#a469efed8d5f823e56fd9d167a1945f73" target="_top" xlink:title="Initializes the coupling scheme and establishes a communication connection to the coupling partner....">
<polygon fill="white" stroke="black" points="221.5,-448.5 221.5,-478.5 373.5,-478.5 373.5,-448.5 221.5,-448.5"/>
<text text-anchor="start" x="229.5" y="-466.5" font-family="Helvetica,sans-Serif" font-size="10.00">precice::cplscheme</text>
<text text-anchor="middle" x="297.5" y="-455.5" font-family="Helvetica,sans-Serif" font-size="10.00">::CouplingScheme::initialize</text>
</a>
</g>
</g>
<!-- Node1&#45;&gt;Node12 -->
<g id="edge11" class="edge">
<title>Node1&#45;&gt;Node12</title>
<path fill="none" stroke="midnightblue" d="M109.6,-508.93C131.33,-502.84 160.26,-494.92 186,-488.5 196.37,-485.91 207.32,-483.3 218.14,-480.78"/>
<polygon fill="midnightblue" stroke="midnightblue" points="219.06,-484.16 228.01,-478.5 217.48,-477.34 219.06,-484.16"/>
</g>
<!-- Node13 -->
<g id="node13" class="node">
<title>Node13</title>
<g id="a_node13"><a xlink:href="classprecice_1_1cplscheme_1_1CouplingScheme.html#a711142cab563a26abfa0c28081ee66fa" target="_top" xlink:title="Returns true, if the given action has already been performed by the accessor.">
<polygon fill="white" stroke="black" points="223,-388 223,-429 372,-429 372,-388 223,-388"/>
<text text-anchor="start" x="231" y="-417" font-family="Helvetica,sans-Serif" font-size="10.00">precice::cplscheme</text>
<text text-anchor="start" x="231" y="-406" font-family="Helvetica,sans-Serif" font-size="10.00">::CouplingScheme::isAction</text>
<text text-anchor="middle" x="297.5" y="-395" font-family="Helvetica,sans-Serif" font-size="10.00">Fulfilled</text>
</a>
</g>
</g>
<!-- Node1&#45;&gt;Node13 -->
<g id="edge12" class="edge">
<title>Node1&#45;&gt;Node13</title>
<path fill="none" stroke="midnightblue" d="M86.73,-508.79C105.51,-492.28 146.16,-458.65 186,-439.5 194.6,-435.37 203.84,-431.7 213.19,-428.46"/>
<polygon fill="midnightblue" stroke="midnightblue" points="214.55,-431.7 222.95,-425.24 212.36,-425.05 214.55,-431.7"/>
</g>
<!-- Node14 -->
<g id="node14" class="node">
<title>Node14</title>
<g id="a_node14"><a xlink:href="classprecice_1_1cplscheme_1_1CouplingScheme.html#ad0134c559546cf8457d7763b0828b148" target="_top" xlink:title="Returns true, if the given action has to be performed by the accessor.">
<polygon fill="white" stroke="black" points="223,-328 223,-369 372,-369 372,-328 223,-328"/>
<text text-anchor="start" x="231" y="-357" font-family="Helvetica,sans-Serif" font-size="10.00">precice::cplscheme</text>
<text text-anchor="start" x="231" y="-346" font-family="Helvetica,sans-Serif" font-size="10.00">::CouplingScheme::isAction</text>
<text text-anchor="middle" x="297.5" y="-335" font-family="Helvetica,sans-Serif" font-size="10.00">Required</text>
</a>
</g>
</g>
<!-- Node1&#45;&gt;Node14 -->
<g id="edge13" class="edge">
<title>Node1&#45;&gt;Node14</title>
<path fill="none" stroke="midnightblue" d="M80.68,-508.96C93.66,-483.56 132.65,-413.83 186,-378.5 194.33,-372.98 203.64,-368.48 213.24,-364.8"/>
<polygon fill="midnightblue" stroke="midnightblue" points="214.64,-368.02 222.9,-361.39 212.31,-361.42 214.64,-368.02"/>
</g>
<!-- Node15 -->
<g id="node15" class="node">
<title>Node15</title>
<g id="a_node15"><a xlink:href="classprecice_1_1cplscheme_1_1CouplingScheme.html#abd0fe5ee6f1dea703c45660113b973d9" target="_top" xlink:title="Returns true, when the coupled simulation is still ongoing.">
<polygon fill="white" stroke="black" points="217,-268 217,-309 378,-309 378,-268 217,-268"/>
<text text-anchor="start" x="225" y="-297" font-family="Helvetica,sans-Serif" font-size="10.00">precice::cplscheme</text>
<text text-anchor="start" x="225" y="-286" font-family="Helvetica,sans-Serif" font-size="10.00">::CouplingScheme::isCoupling</text>
<text text-anchor="middle" x="297.5" y="-275" font-family="Helvetica,sans-Serif" font-size="10.00">Ongoing</text>
</a>
</g>
</g>
<!-- Node1&#45;&gt;Node15 -->
<g id="edge14" class="edge">
<title>Node1&#45;&gt;Node15</title>
<path fill="none" stroke="midnightblue" d="M78.41,-508.81C86.96,-476.44 119.04,-371.18 186,-318.5 192.57,-313.33 199.96,-309.05 207.73,-305.51"/>
<polygon fill="midnightblue" stroke="midnightblue" points="209.09,-308.73 216.99,-301.68 206.42,-302.27 209.09,-308.73"/>
</g>
<!-- Node16 -->
<g id="node16" class="node">
<title>Node16</title>
<g id="a_node16"><a xlink:href="classprecice_1_1cplscheme_1_1CouplingScheme.html#a99ff31bc6f1b8dd46254aac2361109af" target="_top" xlink:title="Returns true, when the accessor can advance to the next time window.">
<polygon fill="white" stroke="black" points="206.5,-208 206.5,-249 388.5,-249 388.5,-208 206.5,-208"/>
<text text-anchor="start" x="214.5" y="-237" font-family="Helvetica,sans-Serif" font-size="10.00">precice::cplscheme</text>
<text text-anchor="start" x="214.5" y="-226" font-family="Helvetica,sans-Serif" font-size="10.00">::CouplingScheme::isTimeWindow</text>
<text text-anchor="middle" x="297.5" y="-215" font-family="Helvetica,sans-Serif" font-size="10.00">Complete</text>
</a>
</g>
</g>
<!-- Node1&#45;&gt;Node16 -->
<g id="edge15" class="edge">
<title>Node1&#45;&gt;Node16</title>
<path fill="none" stroke="midnightblue" d="M77.06,-508.99C81.82,-471.11 104.6,-329.58 186,-258.5 189.51,-255.44 193.29,-252.69 197.29,-250.21"/>
<polygon fill="midnightblue" stroke="midnightblue" points="199.25,-253.13 206.31,-245.23 195.87,-247 199.25,-253.13"/>
</g>
<!-- Node17 -->
<g id="node17" class="node">
<title>Node17</title>
<g id="a_node17"><a xlink:href="classprecice_1_1cplscheme_1_1CouplingScheme.html#a591de4790e6a33de64ade60a4c2d2d7e" target="_top" xlink:title="Tells the coupling scheme that the accessor has performed the given action.">
<polygon fill="white" stroke="black" points="214,-148 214,-189 381,-189 381,-148 214,-148"/>
<text text-anchor="start" x="222" y="-177" font-family="Helvetica,sans-Serif" font-size="10.00">precice::cplscheme</text>
<text text-anchor="start" x="222" y="-166" font-family="Helvetica,sans-Serif" font-size="10.00">::CouplingScheme::markAction</text>
<text text-anchor="middle" x="297.5" y="-155" font-family="Helvetica,sans-Serif" font-size="10.00">Fulfilled</text>
</a>
</g>
</g>
<!-- Node1&#45;&gt;Node17 -->
<g id="edge16" class="edge">
<title>Node1&#45;&gt;Node17</title>
<path fill="none" stroke="midnightblue" d="M76.22,-508.97C77.76,-465.98 89.93,-288.43 186,-198.5 191.49,-193.36 197.76,-189.09 204.48,-185.54"/>
<polygon fill="midnightblue" stroke="midnightblue" points="206.31,-188.54 213.87,-181.12 203.33,-182.21 206.31,-188.54"/>
</g>
<!-- Node18 -->
<g id="node18" class="node">
<title>Node18</title>
<g id="a_node18"><a xlink:href="classprecice_1_1mesh_1_1MeshConfiguration.html#a3e631b8068465702cf621b9c75953196" target="_top" xlink:title="Returns all configured meshes.">
<polygon fill="white" stroke="black" points="206.5,-98.5 206.5,-128.5 388.5,-128.5 388.5,-98.5 206.5,-98.5"/>
<text text-anchor="start" x="214.5" y="-116.5" font-family="Helvetica,sans-Serif" font-size="10.00">precice::mesh::MeshConfiguration</text>
<text text-anchor="middle" x="297.5" y="-105.5" font-family="Helvetica,sans-Serif" font-size="10.00">::meshes</text>
</a>
</g>
</g>
<!-- Node1&#45;&gt;Node18 -->
<g id="edge17" class="edge">
<title>Node1&#45;&gt;Node18</title>
<path fill="none" stroke="midnightblue" d="M75.54,-508.78C73.8,-460.56 72.79,-245.19 186,-138.5 189.43,-135.26 193.2,-132.41 197.19,-129.91"/>
<polygon fill="midnightblue" stroke="midnightblue" points="199.18,-132.81 206.28,-124.95 195.83,-126.67 199.18,-132.81"/>
</g>
<!-- Node19 -->
<g id="node19" class="node">
<title>Node19</title>
<g id="a_node19"><a xlink:href="classprecice_1_1cplscheme_1_1CouplingScheme.html#a5f93e060c476732defbe5822be8a64b4" target="_top" xlink:title=" ">
<polygon fill="white" stroke="black" points="201.5,-49.5 201.5,-79.5 393.5,-79.5 393.5,-49.5 201.5,-49.5"/>
<text text-anchor="start" x="209.5" y="-67.5" font-family="Helvetica,sans-Serif" font-size="10.00">precice::cplscheme</text>
<text text-anchor="middle" x="297.5" y="-56.5" font-family="Helvetica,sans-Serif" font-size="10.00">::CouplingScheme::secondExchange</text>
</a>
</g>
</g>
<!-- Node1&#45;&gt;Node19 -->
<g id="edge18" class="edge">
<title>Node1&#45;&gt;Node19</title>
<path fill="none" stroke="midnightblue" d="M77.12,-508.8C84,-450.89 122.32,-151.39 186,-89.5 188.15,-87.41 190.43,-85.48 192.83,-83.7"/>
<polygon fill="midnightblue" stroke="midnightblue" points="194.86,-86.56 201.37,-78.21 191.07,-80.67 194.86,-86.56"/>
</g>
<!-- Node20 -->
<g id="node20" class="node">
<title>Node20</title>
<g id="a_node20"><a xlink:href="classprecice_1_1cplscheme_1_1CouplingScheme.html#a48d046338c57b12c4e53d08c54c1d2ee" target="_top" xlink:title=" ">
<polygon fill="white" stroke="black" points="186,-0.5 186,-30.5 409,-30.5 409,-0.5 186,-0.5"/>
<text text-anchor="start" x="194" y="-18.5" font-family="Helvetica,sans-Serif" font-size="10.00">precice::cplscheme</text>
<text text-anchor="middle" x="297.5" y="-7.5" font-family="Helvetica,sans-Serif" font-size="10.00">::CouplingScheme::secondSynchronization</text>
</a>
</g>
</g>
<!-- Node1&#45;&gt;Node20 -->
<g id="edge19" class="edge">
<title>Node1&#45;&gt;Node20</title>
<path fill="none" stroke="midnightblue" d="M76.84,-508.92C82.39,-447.6 115.87,-110.37 186,-40.5 187.29,-39.21 188.64,-37.98 190.03,-36.81"/>
<polygon fill="midnightblue" stroke="midnightblue" points="192.4,-39.42 198.46,-30.73 188.3,-33.74 192.4,-39.42"/>
</g>
</g>
</svg>
