<?xml version="1.0" encoding="UTF-8" standalone="no"?>
<!DOCTYPE svg PUBLIC "-//W3C//DTD SVG 1.1//EN"
 "http://www.w3.org/Graphics/SVG/1.1/DTD/svg11.dtd">
<!-- Generated by graphviz version 2.43.0 (0)
 -->
<!-- Title: runCouplingWithSubcycling Pages: 1 -->
<svg width="575pt" height="1063pt"
 viewBox="0.00 0.00 575.00 1063.00" xmlns="http://www.w3.org/2000/svg" xmlns:xlink="http://www.w3.org/1999/xlink">
<g id="graph0" class="graph" transform="scale(1 1) rotate(0) translate(4 1059)">
<title>runCouplingWithSubcycling</title>
<polygon fill="white" stroke="transparent" points="-4,4 -4,-1059 571,-1059 571,4 -4,4"/>
<!-- Node1 -->
<g id="node1" class="node">
<title>Node1</title>
<g id="a_node1"><a xlink:title=" ">
<polygon fill="#bfbfbf" stroke="black" points="0,-542 0,-561 150,-561 150,-542 0,-542"/>
<text text-anchor="middle" x="75" y="-549" font-family="Helvetica,sans-Serif" font-size="10.00">runCouplingWithSubcycling</text>
</a>
</g>
</g>
<!-- Node2 -->
<g id="node2" class="node">
<title>Node2</title>
<g id="a_node2"><a xlink:href="classprecice_1_1cplscheme_1_1CouplingScheme.html#a3d4ee03296627ef95f1dc27cc3381bd2" target="_top" xlink:title="Adds newly computed time. Has to be called before every advance.">
<polygon fill="white" stroke="black" points="196,-1024.5 196,-1054.5 399,-1054.5 399,-1024.5 196,-1024.5"/>
<text text-anchor="start" x="204" y="-1042.5" font-family="Helvetica,sans-Serif" font-size="10.00">precice::cplscheme</text>
<text text-anchor="middle" x="297.5" y="-1031.5" font-family="Helvetica,sans-Serif" font-size="10.00">::CouplingScheme::addComputedTime</text>
</a>
</g>
</g>
<!-- Node1&#45;&gt;Node2 -->
<g id="edge1" class="edge">
<title>Node1&#45;&gt;Node2</title>
<path fill="none" stroke="midnightblue" d="M76.92,-561.17C82.88,-621.61 117.87,-947.1 186,-1014.5 187.3,-1015.78 188.65,-1017.01 190.04,-1018.17"/>
<polygon fill="midnightblue" stroke="midnightblue" points="188.33,-1021.25 198.49,-1024.24 192.41,-1015.57 188.33,-1021.25"/>
</g>
<!-- Node3 -->
<g id="node3" class="node">
<title>Node3</title>
<g id="a_node3"><a xlink:href="namespaceprecice_1_1testing.html#a6a116337529290bbb1bf2545b5fb315a" target="_top" xlink:title="equals to be used in tests. Compares two matrices using a given tolerance. Prints both operands on fa...">
<polygon fill="white" stroke="black" points="232.5,-986 232.5,-1005 362.5,-1005 362.5,-986 232.5,-986"/>
<text text-anchor="middle" x="297.5" y="-993" font-family="Helvetica,sans-Serif" font-size="10.00">precice::testing::equals</text>
</a>
</g>
</g>
<!-- Node1&#45;&gt;Node3 -->
<g id="edge2" class="edge">
<title>Node1&#45;&gt;Node3</title>
<path fill="none" stroke="midnightblue" d="M77.09,-561.16C83.78,-618.81 121.23,-916.89 186,-976.5 196.14,-985.83 209.13,-991.46 222.61,-994.71"/>
<polygon fill="midnightblue" stroke="midnightblue" points="221.99,-998.16 232.48,-996.68 223.36,-991.29 221.99,-998.16"/>
</g>
<!-- Node5 -->
<g id="node5" class="node">
<title>Node5</title>
<g id="a_node5"><a xlink:href="classprecice_1_1cplscheme_1_1CouplingScheme.html#ab71e795a9c658831be3b8543e61d918c" target="_top" xlink:title="Finalizes the coupling and disconnects communication.">
<polygon fill="white" stroke="black" points="224.5,-936.5 224.5,-966.5 370.5,-966.5 370.5,-936.5 224.5,-936.5"/>
<text text-anchor="start" x="232.5" y="-954.5" font-family="Helvetica,sans-Serif" font-size="10.00">precice::cplscheme</text>
<text text-anchor="middle" x="297.5" y="-943.5" font-family="Helvetica,sans-Serif" font-size="10.00">::CouplingScheme::finalize</text>
</a>
</g>
</g>
<!-- Node1&#45;&gt;Node5 -->
<g id="edge4" class="edge">
<title>Node1&#45;&gt;Node5</title>
<path fill="none" stroke="midnightblue" d="M75.56,-561.14C73.91,-608.96 73.29,-822.49 186,-927.5 194.14,-935.08 204.09,-940.48 214.64,-944.3"/>
<polygon fill="midnightblue" stroke="midnightblue" points="213.89,-947.73 224.48,-947.37 215.98,-941.05 213.89,-947.73"/>
</g>
<!-- Node6 -->
<g id="node6" class="node">
<title>Node6</title>
<g id="a_node6"><a xlink:href="classprecice_1_1cplscheme_1_1CouplingScheme.html#af74a2b9365bee03ecbed38a76cfca247" target="_top" xlink:title=" ">
<polygon fill="white" stroke="black" points="209.5,-887.5 209.5,-917.5 385.5,-917.5 385.5,-887.5 209.5,-887.5"/>
<text text-anchor="start" x="217.5" y="-905.5" font-family="Helvetica,sans-Serif" font-size="10.00">precice::cplscheme</text>
<text text-anchor="middle" x="297.5" y="-894.5" font-family="Helvetica,sans-Serif" font-size="10.00">::CouplingScheme::firstExchange</text>
</a>
</g>
</g>
<!-- Node1&#45;&gt;Node6 -->
<g id="edge5" class="edge">
<title>Node1&#45;&gt;Node6</title>
<path fill="none" stroke="midnightblue" d="M76.04,-561.06C76.75,-604.95 85.81,-788.82 186,-878.5 190.25,-882.31 194.96,-885.56 199.97,-888.33"/>
<polygon fill="midnightblue" stroke="midnightblue" points="198.75,-891.63 209.28,-892.82 201.79,-885.32 198.75,-891.63"/>
</g>
<!-- Node7 -->
<g id="node7" class="node">
<title>Node7</title>
<g id="a_node7"><a xlink:href="classprecice_1_1cplscheme_1_1CouplingScheme.html#a2190876ae6da23385329bab2ecd8dcb4" target="_top" xlink:title=" ">
<polygon fill="white" stroke="black" points="194,-838.5 194,-868.5 401,-868.5 401,-838.5 194,-838.5"/>
<text text-anchor="start" x="202" y="-856.5" font-family="Helvetica,sans-Serif" font-size="10.00">precice::cplscheme</text>
<text text-anchor="middle" x="297.5" y="-845.5" font-family="Helvetica,sans-Serif" font-size="10.00">::CouplingScheme::firstSynchronization</text>
</a>
</g>
</g>
<!-- Node1&#45;&gt;Node7 -->
<g id="edge6" class="edge">
<title>Node1&#45;&gt;Node7</title>
<path fill="none" stroke="midnightblue" d="M76.71,-561.18C80.18,-601.05 98.91,-754 186,-828.5 187.82,-830.06 189.72,-831.52 191.68,-832.9"/>
<polygon fill="midnightblue" stroke="midnightblue" points="190.33,-836.18 200.68,-838.42 193.98,-830.21 190.33,-836.18"/>
</g>
<!-- Node8 -->
<g id="node8" class="node">
<title>Node8</title>
<g id="a_node8"><a xlink:href="classprecice_1_1cplscheme_1_1CouplingScheme.html#a7fc26387d7769bf47d522666627e11da" target="_top" xlink:title="Returns the maximal size of the next time step to be computed.">
<polygon fill="white" stroke="black" points="210.5,-778 210.5,-819 384.5,-819 384.5,-778 210.5,-778"/>
<text text-anchor="start" x="218.5" y="-807" font-family="Helvetica,sans-Serif" font-size="10.00">precice::cplscheme</text>
<text text-anchor="start" x="218.5" y="-796" font-family="Helvetica,sans-Serif" font-size="10.00">::CouplingScheme::getNextTime</text>
<text text-anchor="middle" x="297.5" y="-785" font-family="Helvetica,sans-Serif" font-size="10.00">StepMaxSize</text>
</a>
</g>
</g>
<!-- Node1&#45;&gt;Node8 -->
<g id="edge7" class="edge">
<title>Node1&#45;&gt;Node8</title>
<path fill="none" stroke="midnightblue" d="M77.93,-561.04C85.31,-594.95 114.93,-710.63 186,-768.5 190.64,-772.28 195.72,-775.58 201.07,-778.47"/>
<polygon fill="midnightblue" stroke="midnightblue" points="199.77,-781.74 210.29,-782.96 202.83,-775.44 199.77,-781.74"/>
</g>
<!-- Node9 -->
<g id="node9" class="node">
<title>Node9</title>
<g id="a_node9"><a xlink:href="classprecice_1_1cplscheme_1_1CouplingScheme.html#a16c7b21a6f1b45e62c9c914e4b75f289" target="_top" xlink:title="Returns the normalized time within the current time window.">
<polygon fill="white" stroke="black" points="206.5,-718 206.5,-759 388.5,-759 388.5,-718 206.5,-718"/>
<text text-anchor="start" x="214.5" y="-747" font-family="Helvetica,sans-Serif" font-size="10.00">precice::cplscheme</text>
<text text-anchor="start" x="214.5" y="-736" font-family="Helvetica,sans-Serif" font-size="10.00">::CouplingScheme::getNormalized</text>
<text text-anchor="middle" x="297.5" y="-725" font-family="Helvetica,sans-Serif" font-size="10.00">WindowTime</text>
</a>
</g>
</g>
<!-- Node1&#45;&gt;Node9 -->
<g id="edge8" class="edge">
<title>Node1&#45;&gt;Node9</title>
<path fill="none" stroke="midnightblue" d="M80.01,-561.39C91.78,-589.18 129.08,-668.52 186,-708.5 189.52,-710.97 193.24,-713.25 197.09,-715.33"/>
<polygon fill="midnightblue" stroke="midnightblue" points="195.79,-718.59 206.31,-719.86 198.88,-712.31 195.79,-718.59"/>
</g>
<!-- Node10 -->
<g id="node10" class="node">
<title>Node10</title>
<g id="a_node10"><a xlink:href="classprecice_1_1cplscheme_1_1CouplingScheme.html#a3e92e879eb086f6b514f496d61db45bb" target="_top" xlink:title="Returns the currently computed time of the coupling scheme.">
<polygon fill="white" stroke="black" points="222,-668.5 222,-698.5 373,-698.5 373,-668.5 222,-668.5"/>
<text text-anchor="start" x="230" y="-686.5" font-family="Helvetica,sans-Serif" font-size="10.00">precice::cplscheme</text>
<text text-anchor="middle" x="297.5" y="-675.5" font-family="Helvetica,sans-Serif" font-size="10.00">::CouplingScheme::getTime</text>
</a>
</g>
</g>
<!-- Node1&#45;&gt;Node10 -->
<g id="edge9" class="edge">
<title>Node1&#45;&gt;Node10</title>
<path fill="none" stroke="midnightblue" d="M82.73,-561.09C98.25,-582.46 138.9,-634.07 186,-659.5 194.21,-663.93 203.17,-667.54 212.33,-670.49"/>
<polygon fill="midnightblue" stroke="midnightblue" points="211.34,-673.85 221.92,-673.32 213.32,-667.13 211.34,-673.85"/>
</g>
<!-- Node11 -->
<g id="node11" class="node">
<title>Node11</title>
<g id="a_node11"><a xlink:href="classprecice_1_1cplscheme_1_1CouplingScheme.html#ac72e5ebd5f6202d5d5ffffbee94e2f9d" target="_top" xlink:title="Returns the currently computed time windows of the coupling scheme.">
<polygon fill="white" stroke="black" points="200,-619.5 200,-649.5 395,-649.5 395,-619.5 200,-619.5"/>
<text text-anchor="start" x="208" y="-637.5" font-family="Helvetica,sans-Serif" font-size="10.00">precice::cplscheme</text>
<text text-anchor="middle" x="297.5" y="-626.5" font-family="Helvetica,sans-Serif" font-size="10.00">::CouplingScheme::getTimeWindows</text>
</a>
</g>
</g>
<!-- Node1&#45;&gt;Node11 -->
<g id="edge10" class="edge">
<title>Node1&#45;&gt;Node11</title>
<path fill="none" stroke="midnightblue" d="M91.07,-561.09C111.73,-573.86 150.36,-596.33 186,-609.5 193.2,-612.16 200.77,-614.59 208.44,-616.8"/>
<polygon fill="midnightblue" stroke="midnightblue" points="207.6,-620.2 218.17,-619.48 209.46,-613.45 207.6,-620.2"/>
</g>
<!-- Node12 -->
<g id="node12" class="node">
<title>Node12</title>
<g id="a_node12"><a xlink:href="classprecice_1_1cplscheme_1_1CouplingScheme.html#ae91c824606fdbe167f8d62bd0371b465" target="_top" xlink:title="Returns true, if data has been exchanged in last call of advance().">
<polygon fill="white" stroke="black" points="209.5,-559 209.5,-600 385.5,-600 385.5,-559 209.5,-559"/>
<text text-anchor="start" x="217.5" y="-588" font-family="Helvetica,sans-Serif" font-size="10.00">precice::cplscheme</text>
<text text-anchor="start" x="217.5" y="-577" font-family="Helvetica,sans-Serif" font-size="10.00">::CouplingScheme::hasDataBeen</text>
<text text-anchor="middle" x="297.5" y="-566" font-family="Helvetica,sans-Serif" font-size="10.00">Received</text>
</a>
</g>
</g>
<!-- Node1&#45;&gt;Node12 -->
<g id="edge11" class="edge">
<title>Node1&#45;&gt;Node12</title>
<path fill="none" stroke="midnightblue" d="M150.04,-560.9C165.79,-562.9 182.64,-565.04 199.11,-567.13"/>
<polygon fill="midnightblue" stroke="midnightblue" points="198.94,-570.64 209.3,-568.43 199.82,-563.7 198.94,-570.64"/>
</g>
<!-- Node13 -->
<g id="node13" class="node">
<title>Node13</title>
<g id="a_node13"><a xlink:href="classprecice_1_1cplscheme_1_1CouplingScheme.html#a469efed8d5f823e56fd9d167a1945f73" target="_top" xlink:title="Initializes the coupling scheme and establishes a communication connection to the coupling partner....">
<polygon fill="white" stroke="black" points="221.5,-509.5 221.5,-539.5 373.5,-539.5 373.5,-509.5 221.5,-509.5"/>
<text text-anchor="start" x="229.5" y="-527.5" font-family="Helvetica,sans-Serif" font-size="10.00">precice::cplscheme</text>
<text text-anchor="middle" x="297.5" y="-516.5" font-family="Helvetica,sans-Serif" font-size="10.00">::CouplingScheme::initialize</text>
</a>
</g>
</g>
<!-- Node1&#45;&gt;Node13 -->
<g id="edge12" class="edge">
<title>Node1&#45;&gt;Node13</title>
<path fill="none" stroke="midnightblue" d="M150.04,-542.43C169.62,-540.04 190.93,-537.43 211.06,-534.96"/>
<polygon fill="midnightblue" stroke="midnightblue" points="211.65,-538.42 221.15,-533.73 210.8,-531.47 211.65,-538.42"/>
</g>
<!-- Node14 -->
<g id="node14" class="node">
<title>Node14</title>
<g id="a_node14"><a xlink:href="classprecice_1_1cplscheme_1_1CouplingScheme.html#a711142cab563a26abfa0c28081ee66fa" target="_top" xlink:title="Returns true, if the given action has already been performed by the accessor.">
<polygon fill="white" stroke="black" points="223,-449 223,-490 372,-490 372,-449 223,-449"/>
<text text-anchor="start" x="231" y="-478" font-family="Helvetica,sans-Serif" font-size="10.00">precice::cplscheme</text>
<text text-anchor="start" x="231" y="-467" font-family="Helvetica,sans-Serif" font-size="10.00">::CouplingScheme::isAction</text>
<text text-anchor="middle" x="297.5" y="-456" font-family="Helvetica,sans-Serif" font-size="10.00">Fulfilled</text>
</a>
</g>
</g>
<!-- Node1&#45;&gt;Node14 -->
<g id="edge13" class="edge">
<title>Node1&#45;&gt;Node14</title>
<path fill="none" stroke="midnightblue" d="M94.3,-541.91C115.82,-530.89 152.83,-512.75 186,-500.5 194.74,-497.27 203.97,-494.19 213.23,-491.31"/>
<polygon fill="midnightblue" stroke="midnightblue" points="214.31,-494.63 222.86,-488.38 212.27,-487.94 214.31,-494.63"/>
</g>
<!-- Node15 -->
<g id="node15" class="node">
<title>Node15</title>
<g id="a_node15"><a xlink:href="classprecice_1_1cplscheme_1_1CouplingScheme.html#ad0134c559546cf8457d7763b0828b148" target="_top" xlink:title="Returns true, if the given action has to be performed by the accessor.">
<polygon fill="white" stroke="black" points="223,-389 223,-430 372,-430 372,-389 223,-389"/>
<text text-anchor="start" x="231" y="-418" font-family="Helvetica,sans-Serif" font-size="10.00">precice::cplscheme</text>
<text text-anchor="start" x="231" y="-407" font-family="Helvetica,sans-Serif" font-size="10.00">::CouplingScheme::isAction</text>
<text text-anchor="middle" x="297.5" y="-396" font-family="Helvetica,sans-Serif" font-size="10.00">Required</text>
</a>
</g>
</g>
<!-- Node1&#45;&gt;Node15 -->
<g id="edge14" class="edge">
<title>Node1&#45;&gt;Node15</title>
<path fill="none" stroke="midnightblue" d="M82.74,-541.72C98.28,-519.91 138.96,-467.04 186,-439.5 194.49,-434.53 203.83,-430.36 213.37,-426.86"/>
<polygon fill="midnightblue" stroke="midnightblue" points="214.62,-430.13 222.96,-423.59 212.36,-423.51 214.62,-430.13"/>
</g>
<!-- Node16 -->
<g id="node16" class="node">
<title>Node16</title>
<g id="a_node16"><a xlink:href="classprecice_1_1cplscheme_1_1CouplingScheme.html#abd0fe5ee6f1dea703c45660113b973d9" target="_top" xlink:title="Returns true, when the coupled simulation is still ongoing.">
<polygon fill="white" stroke="black" points="217,-329 217,-370 378,-370 378,-329 217,-329"/>
<text text-anchor="start" x="225" y="-358" font-family="Helvetica,sans-Serif" font-size="10.00">precice::cplscheme</text>
<text text-anchor="start" x="225" y="-347" font-family="Helvetica,sans-Serif" font-size="10.00">::CouplingScheme::isCoupling</text>
<text text-anchor="middle" x="297.5" y="-336" font-family="Helvetica,sans-Serif" font-size="10.00">Ongoing</text>
</a>
</g>
</g>
<!-- Node1&#45;&gt;Node16 -->
<g id="edge15" class="edge">
<title>Node1&#45;&gt;Node16</title>
<path fill="none" stroke="midnightblue" d="M79.26,-541.95C89.74,-512.75 125.43,-423.98 186,-379.5 192.55,-374.69 199.82,-370.65 207.43,-367.26"/>
<polygon fill="midnightblue" stroke="midnightblue" points="208.89,-370.44 216.84,-363.44 206.25,-363.96 208.89,-370.44"/>
</g>
<!-- Node17 -->
<g id="node17" class="node">
<title>Node17</title>
<g id="a_node17"><a xlink:href="classprecice_1_1cplscheme_1_1CouplingScheme.html#a99ff31bc6f1b8dd46254aac2361109af" target="_top" xlink:title="Returns true, when the accessor can advance to the next time window.">
<polygon fill="white" stroke="black" points="206.5,-269 206.5,-310 388.5,-310 388.5,-269 206.5,-269"/>
<text text-anchor="start" x="214.5" y="-298" font-family="Helvetica,sans-Serif" font-size="10.00">precice::cplscheme</text>
<text text-anchor="start" x="214.5" y="-287" font-family="Helvetica,sans-Serif" font-size="10.00">::CouplingScheme::isTimeWindow</text>
<text text-anchor="middle" x="297.5" y="-276" font-family="Helvetica,sans-Serif" font-size="10.00">Complete</text>
</a>
</g>
</g>
<!-- Node1&#45;&gt;Node17 -->
<g id="edge16" class="edge">
<title>Node1&#45;&gt;Node17</title>
<path fill="none" stroke="midnightblue" d="M77.62,-541.8C84.1,-506.25 111.46,-381.85 186,-319.5 189.53,-316.55 193.32,-313.89 197.3,-311.49"/>
<polygon fill="midnightblue" stroke="midnightblue" points="199.14,-314.47 206.28,-306.64 195.81,-308.31 199.14,-314.47"/>
</g>
<!-- Node18 -->
<g id="node18" class="node">
<title>Node18</title>
<g id="a_node18"><a xlink:href="classprecice_1_1cplscheme_1_1CouplingScheme.html#a591de4790e6a33de64ade60a4c2d2d7e" target="_top" xlink:title="Tells the coupling scheme that the accessor has performed the given action.">
<polygon fill="white" stroke="black" points="214,-209 214,-250 381,-250 381,-209 214,-209"/>
<text text-anchor="start" x="222" y="-238" font-family="Helvetica,sans-Serif" font-size="10.00">precice::cplscheme</text>
<text text-anchor="start" x="222" y="-227" font-family="Helvetica,sans-Serif" font-size="10.00">::CouplingScheme::markAction</text>
<text text-anchor="middle" x="297.5" y="-216" font-family="Helvetica,sans-Serif" font-size="10.00">Fulfilled</text>
</a>
</g>
</g>
<!-- Node1&#45;&gt;Node18 -->
<g id="edge17" class="edge">
<title>Node1&#45;&gt;Node18</title>
<path fill="none" stroke="midnightblue" d="M76.58,-541.97C79.56,-501.3 96.81,-340.58 186,-259.5 191.51,-254.49 197.78,-250.3 204.46,-246.81"/>
<polygon fill="midnightblue" stroke="midnightblue" points="206.21,-249.85 213.79,-242.46 203.25,-243.51 206.21,-249.85"/>
</g>
<!-- Node19 -->
<g id="node19" class="node">
<title>Node19</title>
<g id="a_node19"><a xlink:href="classprecice_1_1mesh_1_1MeshConfiguration.html#a3e631b8068465702cf621b9c75953196" target="_top" xlink:title="Returns all configured meshes.">
<polygon fill="white" stroke="black" points="206.5,-159.5 206.5,-189.5 388.5,-189.5 388.5,-159.5 206.5,-159.5"/>
<text text-anchor="start" x="214.5" y="-177.5" font-family="Helvetica,sans-Serif" font-size="10.00">precice::mesh::MeshConfiguration</text>
<text text-anchor="middle" x="297.5" y="-166.5" font-family="Helvetica,sans-Serif" font-size="10.00">::meshes</text>
</a>
</g>
</g>
<!-- Node1&#45;&gt;Node19 -->
<g id="edge18" class="edge">
<title>Node1&#45;&gt;Node19</title>
<path fill="none" stroke="midnightblue" d="M75.79,-541.87C75.37,-495.95 79.89,-297.41 186,-199.5 189.47,-196.3 193.26,-193.48 197.28,-191"/>
<polygon fill="midnightblue" stroke="midnightblue" points="199.26,-193.91 206.41,-186.08 195.94,-187.74 199.26,-193.91"/>
</g>
<!-- Node20 -->
<g id="node20" class="node">
<title>Node20</title>
<g id="a_node20"><a xlink:href="classprecice_1_1cplscheme_1_1CouplingScheme.html#a6ef4cb2749583e3f3f143144c28ae779" target="_top" xlink:title="Receives result of first advance, if this has to happen inside Participant::initialize()">
<polygon fill="white" stroke="black" points="209,-99 209,-140 386,-140 386,-99 209,-99"/>
<text text-anchor="start" x="217" y="-128" font-family="Helvetica,sans-Serif" font-size="10.00">precice::cplscheme</text>
<text text-anchor="start" x="217" y="-117" font-family="Helvetica,sans-Serif" font-size="10.00">::CouplingScheme::receiveResult</text>
<text text-anchor="middle" x="297.5" y="-106" font-family="Helvetica,sans-Serif" font-size="10.00">OfFirstAdvance</text>
</a>
</g>
</g>
<!-- Node1&#45;&gt;Node20 -->
<g id="edge19" class="edge">
<title>Node1&#45;&gt;Node20</title>
<path fill="none" stroke="midnightblue" d="M77.36,-541.75C85.32,-486.14 127.47,-209.37 186,-150.5 190.18,-146.29 194.89,-142.64 199.94,-139.48"/>
<polygon fill="midnightblue" stroke="midnightblue" points="201.69,-142.51 208.74,-134.6 198.29,-136.39 201.69,-142.51"/>
</g>
<!-- Node21 -->
<g id="node21" class="node">
<title>Node21</title>
<g id="a_node21"><a xlink:href="classprecice_1_1cplscheme_1_1CouplingScheme.html#a5f93e060c476732defbe5822be8a64b4" target="_top" xlink:title=" ">
<polygon fill="white" stroke="black" points="201.5,-49.5 201.5,-79.5 393.5,-79.5 393.5,-49.5 201.5,-49.5"/>
<text text-anchor="start" x="209.5" y="-67.5" font-family="Helvetica,sans-Serif" font-size="10.00">precice::cplscheme</text>
<text text-anchor="middle" x="297.5" y="-56.5" font-family="Helvetica,sans-Serif" font-size="10.00">::CouplingScheme::secondExchange</text>
</a>
</g>
</g>
<!-- Node1&#45;&gt;Node21 -->
<g id="edge20" class="edge">
<title>Node1&#45;&gt;Node21</title>
<path fill="none" stroke="midnightblue" d="M76.93,-541.85C82.91,-481.54 117.99,-156.75 186,-89.5 188.13,-87.39 190.4,-85.45 192.78,-83.65"/>
<polygon fill="midnightblue" stroke="midnightblue" points="194.82,-86.51 201.28,-78.12 190.99,-80.64 194.82,-86.51"/>
</g>
<!-- Node22 -->
<g id="node22" class="node">
<title>Node22</title>
<g id="a_node22"><a xlink:href="classprecice_1_1cplscheme_1_1CouplingScheme.html#a48d046338c57b12c4e53d08c54c1d2ee" target="_top" xlink:title=" ">
<polygon fill="white" stroke="black" points="186,-0.5 186,-30.5 409,-30.5 409,-0.5 186,-0.5"/>
<text text-anchor="start" x="194" y="-18.5" font-family="Helvetica,sans-Serif" font-size="10.00">precice::cplscheme</text>
<text text-anchor="middle" x="297.5" y="-7.5" font-family="Helvetica,sans-Serif" font-size="10.00">::CouplingScheme::secondSynchronization</text>
</a>
</g>
</g>
<!-- Node1&#45;&gt;Node22 -->
<g id="edge21" class="edge">
<title>Node1&#45;&gt;Node22</title>
<path fill="none" stroke="midnightblue" d="M76.7,-541.69C81.52,-477.31 111.64,-115.65 186,-40.5 187.28,-39.2 188.62,-37.97 190,-36.79"/>
<polygon fill="midnightblue" stroke="midnightblue" points="192.38,-39.39 198.4,-30.66 188.25,-33.73 192.38,-39.39"/>
</g>
<!-- Node4 -->
<g id="node4" class="node">
<title>Node4</title>
<g id="a_node4"><a xlink:href="namespaceprecice_1_1math.html#a0e86802cfe992deba131d789d035b5b7" target="_top" xlink:title="Compares two Eigen::MatrixBase for equality up to tolerance.">
<polygon fill="white" stroke="black" points="445,-986 445,-1005 567,-1005 567,-986 445,-986"/>
<text text-anchor="middle" x="506" y="-993" font-family="Helvetica,sans-Serif" font-size="10.00">precice::math::equals</text>
</a>
</g>
</g>
<!-- Node3&#45;&gt;Node4 -->
<g id="edge3" class="edge">
<title>Node3&#45;&gt;Node4</title>
<path fill="none" stroke="midnightblue" d="M362.71,-995.5C385.5,-995.5 411.27,-995.5 434.55,-995.5"/>
<polygon fill="midnightblue" stroke="midnightblue" points="434.71,-999 444.71,-995.5 434.71,-992 434.71,-999"/>
</g>
</g>
</svg>
