<?xml version="1.0" encoding="UTF-8" standalone="no"?>
<!DOCTYPE svg PUBLIC "-//W3C//DTD SVG 1.1//EN"
 "http://www.w3.org/Graphics/SVG/1.1/DTD/svg11.dtd">
<!-- Generated by graphviz version 2.43.0 (0)
 -->
<!-- Title: BOOST_AUTO_TEST_CASE Pages: 1 -->
<!--zoomable 767 -->
<svg id="main" version="1.1" xmlns="http://www.w3.org/2000/svg" xmlns:xlink="http://www.w3.org/1999/xlink" xml:space="preserve" onload="init(evt)">
<style type="text/css"><![CDATA[
.edge:hover path { stroke: red; }
.edge:hover polygon { stroke: red; fill: red; }
]]></style>
<script type="text/javascript"><![CDATA[
var edges = document.getElementsByTagName('g');
if (edges && edges.length) {
  for (var i=0;i<edges.length;i++) {
    if (edges[i].id.substr(0,4)=='edge') {
      edges[i].setAttribute('class','edge');
    }
  }
}
]]></script>
        <defs>
                <circle id="rim" cx="0" cy="0" r="7"/>
                <circle id="rim2" cx="0" cy="0" r="3.5"/>
                <g id="zoomPlus">
                        <use xlink:href="#rim" fill="#404040">
                                <set attributeName="fill" to="#808080" begin="zoomplus.mouseover" end="zoomplus.mouseout"/>
                        </use>
                        <path d="M-4,0h8M0,-4v8" fill="none" stroke="white" stroke-width="1.5" pointer-events="none"/>
                </g>
                <g id="zoomMin">
                        <use xlink:href="#rim" fill="#404040">
                                <set attributeName="fill" to="#808080" begin="zoomminus.mouseover" end="zoomminus.mouseout"/>
                        </use>
                        <path d="M-4,0h8" fill="none" stroke="white" stroke-width="1.5" pointer-events="none"/>
                </g>
                <g id="dirArrow">
                        <path fill="none" stroke="white" stroke-width="1.5" d="M0,-3.0v7 M-2.5,-0.5L0,-3.0L2.5,-0.5"/>
                </g>
               <g id="resetDef">
                       <use xlink:href="#rim2" fill="#404040">
                               <set attributeName="fill" to="#808080" begin="reset.mouseover" end="reset.mouseout"/>
                       </use>
               </g>
        </defs>

<script type="text/javascript">
var viewWidth = 1330;
var viewHeight = 767;
var sectionId = 'dynsection-4';
</script>
<script xlink:href="svgpan.js"/>
<svg id="graph" class="graph">
<g id="viewport">
<title>BOOST_AUTO_TEST_CASE</title>
<polygon fill="white" stroke="transparent" points="-4,4 -4,-762.98 1326,-762.98 1326,4 -4,4"/>
<!-- Node1 -->
<g id="node1" class="node">
<title>Node1</title>
<g id="a_node1"><a xlink:title=" ">
<polygon fill="#bfbfbf" stroke="black" points="0,-341.5 0,-360.5 143,-360.5 143,-341.5 0,-341.5"/>
<text text-anchor="middle" x="71.5" y="-348.5" font-family="Helvetica,sans-Serif" font-size="10.00">BOOST_AUTO_TEST_CASE</text>
</a>
</g>
</g>
<!-- Node2 -->
<g id="node2" class="node">
<title>Node2</title>
<g id="a_node2"><a xlink:href="classprecice_1_1cplscheme_1_1BiCouplingScheme.html#a8ac6f555a3baa1edf67729fb41c9de25" target="_top" xlink:title="Adds data to be received on data exchange.">
<polygon fill="white" stroke="black" points="848.5,-702.5 848.5,-743.5 968.5,-743.5 968.5,-702.5 848.5,-702.5"/>
<text text-anchor="start" x="856.5" y="-731.5" font-family="Helvetica,sans-Serif" font-size="10.00">precice::cplscheme</text>
<text text-anchor="start" x="856.5" y="-720.5" font-family="Helvetica,sans-Serif" font-size="10.00">::BiCouplingScheme::</text>
<text text-anchor="middle" x="908.5" y="-709.5" font-family="Helvetica,sans-Serif" font-size="10.00">addDataToReceive</text>
</a>
</g>
</g>
<!-- Node1&#45;&gt;Node2 -->
<g id="edge1" class="edge">
<title>Node1&#45;&gt;Node2</title>
<path fill="none" stroke="midnightblue" d="M72.76,-360.66C74.46,-401.87 86.94,-564.2 179,-639 372.64,-796.33 696.72,-762.01 838.06,-737.26"/>
<polygon fill="midnightblue" stroke="midnightblue" points="839.09,-740.63 848.32,-735.43 837.86,-733.74 839.09,-740.63"/>
</g>
<!-- Node6 -->
<g id="node6" class="node">
<title>Node6</title>
<g id="a_node6"><a xlink:href="classprecice_1_1cplscheme_1_1BiCouplingScheme.html#ad2ab2d072cce1a60cc1cdd76452e4269" target="_top" xlink:title="Adds data to be sent on data exchange and possibly be modified during coupling iterations.">
<polygon fill="white" stroke="black" points="848.5,-629.5 848.5,-670.5 968.5,-670.5 968.5,-629.5 848.5,-629.5"/>
<text text-anchor="start" x="856.5" y="-658.5" font-family="Helvetica,sans-Serif" font-size="10.00">precice::cplscheme</text>
<text text-anchor="start" x="856.5" y="-647.5" font-family="Helvetica,sans-Serif" font-size="10.00">::BiCouplingScheme::</text>
<text text-anchor="middle" x="908.5" y="-636.5" font-family="Helvetica,sans-Serif" font-size="10.00">addDataToSend</text>
</a>
</g>
</g>
<!-- Node1&#45;&gt;Node6 -->
<g id="edge7" class="edge">
<title>Node1&#45;&gt;Node6</title>
<path fill="none" stroke="midnightblue" d="M73.49,-360.75C77.86,-398.28 98.89,-534.49 179,-599 278.89,-679.43 675.86,-664.59 837.99,-654.83"/>
<polygon fill="midnightblue" stroke="midnightblue" points="838.55,-658.3 848.32,-654.19 838.13,-651.31 838.55,-658.3"/>
</g>
<!-- Node7 -->
<g id="node7" class="node">
<title>Node7</title>
<g id="a_node7"><a xlink:href="classprecice_1_1mesh_1_1MeshConfiguration.html#a51c9ae6bd24d6b7438d89a23721ff755" target="_top" xlink:title=" ">
<polygon fill="white" stroke="black" points="184,-559 184,-589 366,-589 366,-559 184,-559"/>
<text text-anchor="start" x="192" y="-577" font-family="Helvetica,sans-Serif" font-size="10.00">precice::mesh::MeshConfiguration</text>
<text text-anchor="middle" x="275" y="-566" font-family="Helvetica,sans-Serif" font-size="10.00">::addMesh</text>
</a>
</g>
</g>
<!-- Node1&#45;&gt;Node7 -->
<g id="edge11" class="edge">
<title>Node1&#45;&gt;Node7</title>
<path fill="none" stroke="midnightblue" d="M81.16,-360.58C110.99,-393.6 210.08,-503.26 253.41,-551.21"/>
<polygon fill="midnightblue" stroke="midnightblue" points="251.05,-553.82 260.35,-558.89 256.24,-549.13 251.05,-553.82"/>
</g>
<!-- Node9 -->
<g id="node9" class="node">
<title>Node9</title>
<g id="a_node9"><a xlink:href="classprecice_1_1cplscheme_1_1BiCouplingScheme.html#aec47e011b61da1f854ff1992d2439506" target="_top" xlink:title="Determines which data is initialized and therefore has to be exchanged during initialize.">
<polygon fill="white" stroke="black" points="192.5,-355.5 192.5,-396.5 357.5,-396.5 357.5,-355.5 192.5,-355.5"/>
<text text-anchor="start" x="200.5" y="-384.5" font-family="Helvetica,sans-Serif" font-size="10.00">precice::cplscheme</text>
<text text-anchor="start" x="200.5" y="-373.5" font-family="Helvetica,sans-Serif" font-size="10.00">::BiCouplingScheme::</text>
<text text-anchor="middle" x="275" y="-362.5" font-family="Helvetica,sans-Serif" font-size="10.00">determineInitialDataExchange</text>
</a>
</g>
</g>
<!-- Node1&#45;&gt;Node9 -->
<g id="edge14" class="edge">
<title>Node1&#45;&gt;Node9</title>
<path fill="none" stroke="midnightblue" d="M143.26,-359.78C155.91,-361.35 169.25,-363 182.39,-364.63"/>
<polygon fill="midnightblue" stroke="midnightblue" points="182.03,-368.12 192.38,-365.87 182.89,-361.17 182.03,-368.12"/>
</g>
<!-- Node28 -->
<g id="node28" class="node">
<title>Node28</title>
<g id="a_node28"><a xlink:href="namespaceprecice_1_1xml.html#a44dd973bd070a46334fae66b7f392264" target="_top" xlink:title="Returns an XMLTag::Listener that does nothing on callbacks.">
<polygon fill="white" stroke="black" points="206.5,-317.5 206.5,-336.5 343.5,-336.5 343.5,-317.5 206.5,-317.5"/>
<text text-anchor="middle" x="275" y="-324.5" font-family="Helvetica,sans-Serif" font-size="10.00">precice::xml::getRootTag</text>
</a>
</g>
</g>
<!-- Node1&#45;&gt;Node28 -->
<g id="edge43" class="edge">
<title>Node1&#45;&gt;Node28</title>
<path fill="none" stroke="midnightblue" d="M143.26,-342.57C160.42,-340.53 178.85,-338.33 196.31,-336.25"/>
<polygon fill="midnightblue" stroke="midnightblue" points="196.94,-339.7 206.46,-335.04 196.11,-332.75 196.94,-339.7"/>
</g>
<!-- Node29 -->
<g id="node29" class="node">
<title>Node29</title>
<g id="a_node29"><a xlink:href="classprecice_1_1mesh_1_1MeshConfiguration.html#af176dbe0c0c22db05ee91b23a5471a00" target="_top" xlink:title="Initialize the map between meshes and dimensions, for unit tests that directly create mesh objects wi...">
<polygon fill="white" stroke="black" points="179,-268 179,-298 371,-298 371,-268 179,-268"/>
<text text-anchor="start" x="187" y="-286" font-family="Helvetica,sans-Serif" font-size="10.00">precice::mesh::MeshConfiguration</text>
<text text-anchor="middle" x="275" y="-275" font-family="Helvetica,sans-Serif" font-size="10.00">::insertMeshToMeshDimensionsMap</text>
</a>
</g>
</g>
<!-- Node1&#45;&gt;Node29 -->
<g id="edge44" class="edge">
<title>Node1&#45;&gt;Node29</title>
<path fill="none" stroke="midnightblue" d="M93.82,-341.46C115.11,-332.16 148.91,-317.99 179,-308 186.59,-305.48 194.6,-303.04 202.6,-300.74"/>
<polygon fill="midnightblue" stroke="midnightblue" points="203.66,-304.08 212.34,-298.01 201.77,-297.34 203.66,-304.08"/>
</g>
<!-- Node30 -->
<g id="node30" class="node">
<title>Node30</title>
<g id="a_node30"><a xlink:href="namespaceprecice_1_1testing.html#a08533fd83bad3d7f27ea7f4a35a14aa4" target="_top" xlink:title=" ">
<polygon fill="white" stroke="black" points="197,-210.5 197,-229.5 353,-229.5 353,-210.5 197,-210.5"/>
<text text-anchor="middle" x="275" y="-217.5" font-family="Helvetica,sans-Serif" font-size="10.00">precice::testing::nextMeshID</text>
</a>
</g>
</g>
<!-- Node1&#45;&gt;Node30 -->
<g id="edge45" class="edge">
<title>Node1&#45;&gt;Node30</title>
<path fill="none" stroke="midnightblue" d="M81.65,-341.23C99.11,-323.03 139.03,-283.56 179,-259 196.17,-248.45 216.71,-239.61 234.29,-233.03"/>
<polygon fill="midnightblue" stroke="midnightblue" points="235.5,-236.31 243.71,-229.61 233.11,-229.73 235.5,-236.31"/>
</g>
<!-- Node32 -->
<g id="node32" class="node">
<title>Node32</title>
<g id="a_node32"><a xlink:href="SerialImplicitCouplingSchemeTest_8cpp.html#adb67549efa4df9651fae6e347e5e7eea" target="_top" xlink:title=" ">
<polygon fill="white" stroke="black" points="237.5,-147.5 237.5,-166.5 312.5,-166.5 312.5,-147.5 237.5,-147.5"/>
<text text-anchor="middle" x="275" y="-154.5" font-family="Helvetica,sans-Serif" font-size="10.00">runCoupling</text>
</a>
</g>
</g>
<!-- Node1&#45;&gt;Node32 -->
<g id="edge47" class="edge">
<title>Node1&#45;&gt;Node32</title>
<path fill="none" stroke="midnightblue" d="M77.12,-341.26C89.91,-315.25 128.16,-243.26 179,-201 195.04,-187.67 215.79,-177.45 233.8,-170.23"/>
<polygon fill="midnightblue" stroke="midnightblue" points="235.39,-173.37 243.48,-166.52 232.89,-166.83 235.39,-173.37"/>
</g>
<!-- Node3 -->
<g id="node3" class="node">
<title>Node3</title>
<g id="a_node3"><a xlink:href="classprecice_1_1cplscheme_1_1BaseCouplingScheme.html#ab797535f79f36c0f75cd005c6b6143b9" target="_top" xlink:title="Adds CouplingData with given properties to this BaseCouplingScheme and returns a pointer to the Coupl...">
<polygon fill="white" stroke="black" points="1025,-621.5 1025,-662.5 1153,-662.5 1153,-621.5 1025,-621.5"/>
<text text-anchor="start" x="1033" y="-650.5" font-family="Helvetica,sans-Serif" font-size="10.00">precice::cplscheme</text>
<text text-anchor="start" x="1033" y="-639.5" font-family="Helvetica,sans-Serif" font-size="10.00">::BaseCouplingScheme</text>
<text text-anchor="middle" x="1089" y="-628.5" font-family="Helvetica,sans-Serif" font-size="10.00">::addCouplingData</text>
</a>
</g>
</g>
<!-- Node2&#45;&gt;Node3 -->
<g id="edge2" class="edge">
<title>Node2&#45;&gt;Node3</title>
<path fill="none" stroke="midnightblue" d="M955,-702.35C978.82,-691.54 1008.15,-678.23 1033.21,-666.86"/>
<polygon fill="midnightblue" stroke="midnightblue" points="1034.92,-669.93 1042.58,-662.61 1032.03,-663.56 1034.92,-669.93"/>
</g>
<!-- Node4 -->
<g id="node4" class="node">
<title>Node4</title>
<g id="a_node4"><a xlink:href="namespaceprecice_1_1utils.html#a434eabaa71f97a31726281a4df77bbcf" target="_top" xlink:title="Returns true, if given element is in vector, otherwise false.">
<polygon fill="white" stroke="black" points="1189,-681.5 1189,-700.5 1322,-700.5 1322,-681.5 1189,-681.5"/>
<text text-anchor="middle" x="1255.5" y="-688.5" font-family="Helvetica,sans-Serif" font-size="10.00">precice::utils::contained</text>
</a>
</g>
</g>
<!-- Node2&#45;&gt;Node4 -->
<g id="edge5" class="edge">
<title>Node2&#45;&gt;Node4</title>
<path fill="none" stroke="midnightblue" d="M968.61,-738.17C1018.42,-748.52 1091.25,-757.9 1153,-743 1182.24,-735.94 1212.53,-718.95 1232.32,-706.29"/>
<polygon fill="midnightblue" stroke="midnightblue" points="1234.45,-709.08 1240.88,-700.67 1230.6,-703.23 1234.45,-709.08"/>
</g>
<!-- Node5 -->
<g id="node5" class="node">
<title>Node5</title>
<g id="a_node5"><a xlink:href="namespaceprecice_1_1detail.html#adede399b4b92eea01face616a0cc7051" target="_top" xlink:title=" ">
<polygon fill="white" stroke="black" points="1199,-330.5 1199,-349.5 1312,-349.5 1312,-330.5 1199,-330.5"/>
<text text-anchor="middle" x="1255.5" y="-337.5" font-family="Helvetica,sans-Serif" font-size="10.00">precice::detail::data</text>
</a>
</g>
</g>
<!-- Node2&#45;&gt;Node5 -->
<g id="edge6" class="edge">
<title>Node2&#45;&gt;Node5</title>
<path fill="none" stroke="midnightblue" d="M968.64,-726.54C1023.21,-726.5 1103.1,-717.59 1153,-672 1246.46,-586.62 1254.89,-417.86 1254.9,-360.01"/>
<polygon fill="midnightblue" stroke="midnightblue" points="1258.39,-359.67 1254.81,-349.7 1251.39,-359.73 1258.39,-359.67"/>
</g>
<!-- Node3&#45;&gt;Node4 -->
<g id="edge3" class="edge">
<title>Node3&#45;&gt;Node4</title>
<path fill="none" stroke="midnightblue" d="M1153.13,-660.8C1173.16,-666.77 1194.79,-673.21 1212.91,-678.61"/>
<polygon fill="midnightblue" stroke="midnightblue" points="1211.99,-681.99 1222.58,-681.49 1213.99,-675.28 1211.99,-681.99"/>
</g>
<!-- Node3&#45;&gt;Node5 -->
<g id="edge4" class="edge">
<title>Node3&#45;&gt;Node5</title>
<path fill="none" stroke="midnightblue" d="M1136.24,-621.42C1142.42,-617.28 1148.25,-612.49 1153,-607 1218.95,-530.81 1244.16,-407.34 1251.75,-359.66"/>
<polygon fill="midnightblue" stroke="midnightblue" points="1255.21,-360.13 1253.24,-349.72 1248.29,-359.08 1255.21,-360.13"/>
</g>
<!-- Node6&#45;&gt;Node3 -->
<g id="edge8" class="edge">
<title>Node6&#45;&gt;Node3</title>
<path fill="none" stroke="midnightblue" d="M968.94,-647.34C983.52,-646.68 999.31,-645.97 1014.47,-645.3"/>
<polygon fill="midnightblue" stroke="midnightblue" points="1015.01,-648.77 1024.84,-644.83 1014.7,-641.78 1015.01,-648.77"/>
</g>
<!-- Node6&#45;&gt;Node4 -->
<g id="edge9" class="edge">
<title>Node6&#45;&gt;Node4</title>
<path fill="none" stroke="midnightblue" d="M968.65,-662.51C986.68,-665.99 1006.59,-669.49 1025,-672 1075.9,-678.93 1133.52,-683.69 1178.29,-686.72"/>
<polygon fill="midnightblue" stroke="midnightblue" points="1178.3,-690.22 1188.51,-687.39 1178.77,-683.24 1178.3,-690.22"/>
</g>
<!-- Node6&#45;&gt;Node5 -->
<g id="edge10" class="edge">
<title>Node6&#45;&gt;Node5</title>
<path fill="none" stroke="midnightblue" d="M968.79,-630.44C1040.58,-606.73 1152.11,-569.81 1153,-569 1217.26,-510.63 1243.02,-404.05 1251.25,-359.93"/>
<polygon fill="midnightblue" stroke="midnightblue" points="1254.73,-360.36 1253.01,-349.91 1247.83,-359.15 1254.73,-360.36"/>
</g>
<!-- Node7&#45;&gt;Node5 -->
<g id="edge12" class="edge">
<title>Node7&#45;&gt;Node5</title>
<path fill="none" stroke="midnightblue" d="M366.17,-578.74C531.73,-586.26 877.41,-596.2 989,-555 1102.72,-513.02 1204.08,-401.04 1240.34,-357.58"/>
<polygon fill="midnightblue" stroke="midnightblue" points="1243.05,-359.79 1246.7,-349.85 1237.65,-355.34 1243.05,-359.79"/>
</g>
<!-- Node8 -->
<g id="node8" class="node">
<title>Node8</title>
<g id="a_node8"><a xlink:href="classprecice_1_1mesh_1_1MeshConfiguration.html#aec22d98371b16b2625452d21f3973222" target="_top" xlink:title="Get the number of dimensions that data values of this type (scalar/vector) have on this mesh.">
<polygon fill="white" stroke="black" points="407,-603 407,-633 589,-633 589,-603 407,-603"/>
<text text-anchor="start" x="415" y="-621" font-family="Helvetica,sans-Serif" font-size="10.00">precice::mesh::MeshConfiguration</text>
<text text-anchor="middle" x="498" y="-610" font-family="Helvetica,sans-Serif" font-size="10.00">::getDataDimensions</text>
</a>
</g>
</g>
<!-- Node7&#45;&gt;Node8 -->
<g id="edge13" class="edge">
<title>Node7&#45;&gt;Node8</title>
<path fill="none" stroke="midnightblue" d="M351.44,-589.02C370.8,-592.87 391.76,-597.05 411.59,-601"/>
<polygon fill="midnightblue" stroke="midnightblue" points="411.04,-604.45 421.53,-602.97 412.4,-597.59 411.04,-604.45"/>
</g>
<!-- Node10 -->
<g id="node10" class="node">
<title>Node10</title>
<g id="a_node10"><a xlink:href="classprecice_1_1cplscheme_1_1BaseCouplingScheme.html#a197d3c5ee0b7a593c2f71e0884eb33bf" target="_top" xlink:title="Sets _receivesInitializedData, if receiveData requires initialization.">
<polygon fill="white" stroke="black" points="428,-415.5 428,-456.5 568,-456.5 568,-415.5 428,-415.5"/>
<text text-anchor="start" x="436" y="-444.5" font-family="Helvetica,sans-Serif" font-size="10.00">precice::cplscheme</text>
<text text-anchor="start" x="436" y="-433.5" font-family="Helvetica,sans-Serif" font-size="10.00">::BaseCouplingScheme</text>
<text text-anchor="middle" x="498" y="-422.5" font-family="Helvetica,sans-Serif" font-size="10.00">::determineInitialReceive</text>
</a>
</g>
</g>
<!-- Node9&#45;&gt;Node10 -->
<g id="edge15" class="edge">
<title>Node9&#45;&gt;Node10</title>
<path fill="none" stroke="midnightblue" d="M351.75,-396.56C373.09,-402.36 396.37,-408.68 417.9,-414.53"/>
<polygon fill="midnightblue" stroke="midnightblue" points="417.09,-417.93 427.66,-417.18 418.93,-411.18 417.09,-417.93"/>
</g>
<!-- Node18 -->
<g id="node18" class="node">
<title>Node18</title>
<g id="a_node18"><a xlink:href="classprecice_1_1cplscheme_1_1BaseCouplingScheme.html#a24ea9ccdded53102a8f2b62f6736b012" target="_top" xlink:title="Sets _sendsInitializedData, if sendData requires initialization.">
<polygon fill="white" stroke="black" points="434,-235.5 434,-276.5 562,-276.5 562,-235.5 434,-235.5"/>
<text text-anchor="start" x="442" y="-264.5" font-family="Helvetica,sans-Serif" font-size="10.00">precice::cplscheme</text>
<text text-anchor="start" x="442" y="-253.5" font-family="Helvetica,sans-Serif" font-size="10.00">::BaseCouplingScheme</text>
<text text-anchor="middle" x="498" y="-242.5" font-family="Helvetica,sans-Serif" font-size="10.00">::determineInitialSend</text>
</a>
</g>
</g>
<!-- Node9&#45;&gt;Node18 -->
<g id="edge27" class="edge">
<title>Node9&#45;&gt;Node18</title>
<path fill="none" stroke="midnightblue" d="M356.47,-355.42C361.62,-352.66 366.52,-349.54 371,-346 395.41,-326.73 382.74,-305.46 407,-286 412.27,-281.78 418.15,-278.14 424.32,-275"/>
<polygon fill="midnightblue" stroke="midnightblue" points="425.92,-278.12 433.54,-270.76 422.99,-271.76 425.92,-278.12"/>
</g>
<!-- Node26 -->
<g id="node26" class="node">
<title>Node26</title>
<g id="a_node26"><a xlink:href="classprecice_1_1cplscheme_1_1BiCouplingScheme.html#ad456365f895091d95de91088195e164b" target="_top" xlink:title="Returns all data to be received.">
<polygon fill="white" stroke="black" points="438,-355.5 438,-396.5 558,-396.5 558,-355.5 438,-355.5"/>
<text text-anchor="start" x="446" y="-384.5" font-family="Helvetica,sans-Serif" font-size="10.00">precice::cplscheme</text>
<text text-anchor="start" x="446" y="-373.5" font-family="Helvetica,sans-Serif" font-size="10.00">::BiCouplingScheme::</text>
<text text-anchor="middle" x="498" y="-362.5" font-family="Helvetica,sans-Serif" font-size="10.00">getReceiveData</text>
</a>
</g>
</g>
<!-- Node9&#45;&gt;Node26 -->
<g id="edge41" class="edge">
<title>Node9&#45;&gt;Node26</title>
<path fill="none" stroke="midnightblue" d="M357.66,-376C380.7,-376 405.52,-376 427.75,-376"/>
<polygon fill="midnightblue" stroke="midnightblue" points="427.77,-379.5 437.77,-376 427.77,-372.5 427.77,-379.5"/>
</g>
<!-- Node27 -->
<g id="node27" class="node">
<title>Node27</title>
<g id="a_node27"><a xlink:href="classprecice_1_1cplscheme_1_1BiCouplingScheme.html#a53be61eb89bfff98ada4a33c3ba00545" target="_top" xlink:title="Returns all data to be sent.">
<polygon fill="white" stroke="black" points="438,-295.5 438,-336.5 558,-336.5 558,-295.5 438,-295.5"/>
<text text-anchor="start" x="446" y="-324.5" font-family="Helvetica,sans-Serif" font-size="10.00">precice::cplscheme</text>
<text text-anchor="start" x="446" y="-313.5" font-family="Helvetica,sans-Serif" font-size="10.00">::BiCouplingScheme::</text>
<text text-anchor="middle" x="498" y="-302.5" font-family="Helvetica,sans-Serif" font-size="10.00">getSendData</text>
</a>
</g>
</g>
<!-- Node9&#45;&gt;Node27 -->
<g id="edge42" class="edge">
<title>Node9&#45;&gt;Node27</title>
<path fill="none" stroke="midnightblue" d="M351.75,-355.44C376.46,-348.73 403.75,-341.32 427.94,-334.75"/>
<polygon fill="midnightblue" stroke="midnightblue" points="429.01,-338.08 437.75,-332.09 427.18,-331.33 429.01,-338.08"/>
</g>
<!-- Node11 -->
<g id="node11" class="node">
<title>Node11</title>
<g id="a_node11"><a xlink:href="classprecice_1_1cplscheme_1_1BaseCouplingScheme.html#a6c03bf6ae814ea06faf0ed3b2e3b846f" target="_top" xlink:title="Checks whether any CouplingData in dataMap requires initialization.">
<polygon fill="white" stroke="black" points="625,-245.5 625,-286.5 792,-286.5 792,-245.5 625,-245.5"/>
<text text-anchor="start" x="633" y="-274.5" font-family="Helvetica,sans-Serif" font-size="10.00">precice::cplscheme</text>
<text text-anchor="start" x="633" y="-263.5" font-family="Helvetica,sans-Serif" font-size="10.00">::BaseCouplingScheme</text>
<text text-anchor="middle" x="708.5" y="-252.5" font-family="Helvetica,sans-Serif" font-size="10.00">::anyDataRequiresInitialization</text>
</a>
</g>
</g>
<!-- Node10&#45;&gt;Node11 -->
<g id="edge16" class="edge">
<title>Node10&#45;&gt;Node11</title>
<path fill="none" stroke="midnightblue" d="M568.2,-417.34C575.5,-414.1 582.59,-410.34 589,-406 632.44,-376.59 669.04,-327.06 689.62,-295.48"/>
<polygon fill="midnightblue" stroke="midnightblue" points="692.8,-297 695.24,-286.69 686.9,-293.23 692.8,-297"/>
</g>
<!-- Node12 -->
<g id="node12" class="node">
<title>Node12</title>
<g id="a_node12"><a xlink:href="classprecice_1_1cplscheme_1_1BaseCouplingScheme.html#af690c8d4e0f11e52fc7b9ca1fe098229" target="_top" xlink:title="Receives data receiveDataIDs given in mapCouplingData with communication.">
<polygon fill="white" stroke="black" points="644.5,-404.5 644.5,-445.5 772.5,-445.5 772.5,-404.5 644.5,-404.5"/>
<text text-anchor="start" x="652.5" y="-433.5" font-family="Helvetica,sans-Serif" font-size="10.00">precice::cplscheme</text>
<text text-anchor="start" x="652.5" y="-422.5" font-family="Helvetica,sans-Serif" font-size="10.00">::BaseCouplingScheme</text>
<text text-anchor="middle" x="708.5" y="-411.5" font-family="Helvetica,sans-Serif" font-size="10.00">::receiveData</text>
</a>
</g>
</g>
<!-- Node10&#45;&gt;Node12 -->
<g id="edge18" class="edge">
<title>Node10&#45;&gt;Node12</title>
<path fill="none" stroke="midnightblue" d="M568.14,-432.35C589.32,-431.23 612.69,-430 634.15,-428.87"/>
<polygon fill="midnightblue" stroke="midnightblue" points="634.38,-432.36 644.18,-428.34 634.01,-425.37 634.38,-432.36"/>
</g>
<!-- Node11&#45;&gt;Node5 -->
<g id="edge17" class="edge">
<title>Node11&#45;&gt;Node5</title>
<path fill="none" stroke="midnightblue" d="M792.14,-258.6C882.53,-253.01 1030.81,-251.22 1153,-285 1182.82,-293.24 1213.58,-311.54 1233.31,-324.77"/>
<polygon fill="midnightblue" stroke="midnightblue" points="1231.33,-327.66 1241.55,-330.44 1235.29,-321.89 1231.33,-327.66"/>
</g>
<!-- Node12&#45;&gt;Node5 -->
<g id="edge19" class="edge">
<title>Node12&#45;&gt;Node5</title>
<path fill="none" stroke="midnightblue" d="M748.37,-404.45C770.95,-393.57 800.33,-381.22 828,-375 969.06,-343.28 1009.52,-378.81 1153,-361 1170.3,-358.85 1189.05,-355.32 1205.66,-351.76"/>
<polygon fill="midnightblue" stroke="midnightblue" points="1206.69,-355.12 1215.7,-349.56 1205.18,-348.28 1206.69,-355.12"/>
</g>
<!-- Node13 -->
<g id="node13" class="node">
<title>Node13</title>
<g id="a_node13"><a xlink:href="classprecice_1_1com_1_1serialize_1_1SerializedStamples.html#a914cc916961f26874b078f45ce01e6f5" target="_top" xlink:title="Create SerializedStamples with allocated buffers according to size of CouplingData.">
<polygon fill="white" stroke="black" points="831.5,-297 831.5,-327 985.5,-327 985.5,-297 831.5,-297"/>
<text text-anchor="start" x="839.5" y="-315" font-family="Helvetica,sans-Serif" font-size="10.00">precice::com::serialize</text>
<text text-anchor="middle" x="908.5" y="-304" font-family="Helvetica,sans-Serif" font-size="10.00">::SerializedStamples::empty</text>
</a>
</g>
</g>
<!-- Node12&#45;&gt;Node13 -->
<g id="edge20" class="edge">
<title>Node12&#45;&gt;Node13</title>
<path fill="none" stroke="midnightblue" d="M735.11,-404.22C758.33,-386.09 794.02,-359.95 828,-342 835.68,-337.95 844.03,-334.17 852.33,-330.76"/>
<polygon fill="midnightblue" stroke="midnightblue" points="853.64,-334 861.65,-327.07 851.07,-327.49 853.64,-334"/>
</g>
<!-- Node15 -->
<g id="node15" class="node">
<title>Node15</title>
<g id="a_node15"><a xlink:href="classprecice_1_1cplscheme_1_1BaseCouplingScheme.html#a6c37c619f364581226635cdca7d39e4b" target="_top" xlink:title="getter for _time">
<polygon fill="white" stroke="black" points="844.5,-444.5 844.5,-485.5 972.5,-485.5 972.5,-444.5 844.5,-444.5"/>
<text text-anchor="start" x="852.5" y="-473.5" font-family="Helvetica,sans-Serif" font-size="10.00">precice::cplscheme</text>
<text text-anchor="start" x="852.5" y="-462.5" font-family="Helvetica,sans-Serif" font-size="10.00">::BaseCouplingScheme</text>
<text text-anchor="middle" x="908.5" y="-451.5" font-family="Helvetica,sans-Serif" font-size="10.00">::getTime</text>
</a>
</g>
</g>
<!-- Node12&#45;&gt;Node15 -->
<g id="edge24" class="edge">
<title>Node12&#45;&gt;Node15</title>
<path fill="none" stroke="midnightblue" d="M772.69,-437.77C792.34,-441.74 814.16,-446.14 834.42,-450.24"/>
<polygon fill="midnightblue" stroke="midnightblue" points="833.73,-453.67 844.23,-452.22 835.12,-446.81 833.73,-453.67"/>
</g>
<!-- Node16 -->
<g id="node16" class="node">
<title>Node16</title>
<g id="a_node16"><a xlink:href="classprecice_1_1cplscheme_1_1BaseCouplingScheme.html#a83379ed90469cb7710fff88ff52269ac" target="_top" xlink:title=" ">
<polygon fill="white" stroke="black" points="828,-384.5 828,-425.5 989,-425.5 989,-384.5 828,-384.5"/>
<text text-anchor="start" x="836" y="-413.5" font-family="Helvetica,sans-Serif" font-size="10.00">precice::cplscheme</text>
<text text-anchor="start" x="836" y="-402.5" font-family="Helvetica,sans-Serif" font-size="10.00">::BaseCouplingScheme</text>
<text text-anchor="middle" x="908.5" y="-391.5" font-family="Helvetica,sans-Serif" font-size="10.00">::receiveNumberOfTimeSteps</text>
</a>
</g>
</g>
<!-- Node12&#45;&gt;Node16 -->
<g id="edge25" class="edge">
<title>Node12&#45;&gt;Node16</title>
<path fill="none" stroke="midnightblue" d="M772.69,-418.62C787.08,-417.16 802.64,-415.59 817.9,-414.05"/>
<polygon fill="midnightblue" stroke="midnightblue" points="818.27,-417.53 827.86,-413.04 817.56,-410.57 818.27,-417.53"/>
</g>
<!-- Node17 -->
<g id="node17" class="node">
<title>Node17</title>
<g id="a_node17"><a xlink:href="classprecice_1_1cplscheme_1_1BaseCouplingScheme.html#a700bef351e463eb84836538fd91f16b3" target="_top" xlink:title=" ">
<polygon fill="white" stroke="black" points="844.5,-504.5 844.5,-545.5 972.5,-545.5 972.5,-504.5 844.5,-504.5"/>
<text text-anchor="start" x="852.5" y="-533.5" font-family="Helvetica,sans-Serif" font-size="10.00">precice::cplscheme</text>
<text text-anchor="start" x="852.5" y="-522.5" font-family="Helvetica,sans-Serif" font-size="10.00">::BaseCouplingScheme</text>
<text text-anchor="middle" x="908.5" y="-511.5" font-family="Helvetica,sans-Serif" font-size="10.00">::receiveTimes</text>
</a>
</g>
</g>
<!-- Node12&#45;&gt;Node17 -->
<g id="edge26" class="edge">
<title>Node12&#45;&gt;Node17</title>
<path fill="none" stroke="midnightblue" d="M740.87,-445.55C764.29,-460.39 797.41,-480.33 828,-495 831.82,-496.83 835.77,-498.63 839.8,-500.37"/>
<polygon fill="midnightblue" stroke="midnightblue" points="838.68,-503.7 849.26,-504.36 841.4,-497.25 838.68,-503.7"/>
</g>
<!-- Node13&#45;&gt;Node5 -->
<g id="edge23" class="edge">
<title>Node13&#45;&gt;Node5</title>
<path fill="none" stroke="midnightblue" d="M951.4,-327.02C973.06,-334 1000.11,-341.51 1025,-345 1079.67,-352.66 1142.37,-350.56 1188.41,-347.03"/>
<polygon fill="midnightblue" stroke="midnightblue" points="1188.87,-350.5 1198.56,-346.21 1188.31,-343.53 1188.87,-350.5"/>
</g>
<!-- Node14 -->
<g id="node14" class="node">
<title>Node14</title>
<g id="a_node14"><a xlink:href="classprecice_1_1com_1_1serialize_1_1SerializedStamples.html#a766834ff07b9fc24a575a98c2fc8c382" target="_top" xlink:title=" ">
<polygon fill="white" stroke="black" points="1026,-294.5 1026,-335.5 1152,-335.5 1152,-294.5 1026,-294.5"/>
<text text-anchor="start" x="1034" y="-323.5" font-family="Helvetica,sans-Serif" font-size="10.00">precice::com::serialize</text>
<text text-anchor="start" x="1034" y="-312.5" font-family="Helvetica,sans-Serif" font-size="10.00">::SerializedStamples::</text>
<text text-anchor="middle" x="1089" y="-301.5" font-family="Helvetica,sans-Serif" font-size="10.00">allocate</text>
</a>
</g>
</g>
<!-- Node13&#45;&gt;Node14 -->
<g id="edge21" class="edge">
<title>Node13&#45;&gt;Node14</title>
<path fill="none" stroke="midnightblue" d="M985.72,-313.28C995.63,-313.45 1005.77,-313.62 1015.62,-313.78"/>
<polygon fill="midnightblue" stroke="midnightblue" points="1015.7,-317.29 1025.76,-313.95 1015.82,-310.29 1015.7,-317.29"/>
</g>
<!-- Node14&#45;&gt;Node5 -->
<g id="edge22" class="edge">
<title>Node14&#45;&gt;Node5</title>
<path fill="none" stroke="midnightblue" d="M1152.19,-324.45C1164.2,-326.28 1176.82,-328.2 1188.94,-330.04"/>
<polygon fill="midnightblue" stroke="midnightblue" points="1188.56,-333.52 1198.97,-331.56 1189.61,-326.6 1188.56,-333.52"/>
</g>
<!-- Node18&#45;&gt;Node11 -->
<g id="edge28" class="edge">
<title>Node18&#45;&gt;Node11</title>
<path fill="none" stroke="midnightblue" d="M562.12,-259.03C578.65,-259.82 596.83,-260.69 614.56,-261.54"/>
<polygon fill="midnightblue" stroke="midnightblue" points="614.78,-265.06 624.94,-262.04 615.12,-258.07 614.78,-265.06"/>
</g>
<!-- Node19 -->
<g id="node19" class="node">
<title>Node19</title>
<g id="a_node19"><a xlink:href="classprecice_1_1cplscheme_1_1BaseCouplingScheme.html#a6447af4bead9f5d1be8a0a88620ddf87" target="_top" xlink:title="Sets an action required to be performed by the accessor.">
<polygon fill="white" stroke="black" points="644.5,-87.5 644.5,-128.5 772.5,-128.5 772.5,-87.5 644.5,-87.5"/>
<text text-anchor="start" x="652.5" y="-116.5" font-family="Helvetica,sans-Serif" font-size="10.00">precice::cplscheme</text>
<text text-anchor="start" x="652.5" y="-105.5" font-family="Helvetica,sans-Serif" font-size="10.00">::BaseCouplingScheme</text>
<text text-anchor="middle" x="708.5" y="-94.5" font-family="Helvetica,sans-Serif" font-size="10.00">::requireAction</text>
</a>
</g>
</g>
<!-- Node18&#45;&gt;Node19 -->
<g id="edge29" class="edge">
<title>Node18&#45;&gt;Node19</title>
<path fill="none" stroke="midnightblue" d="M562.41,-242.64C572.12,-238.51 581.42,-233.09 589,-226 619.86,-197.13 594.53,-167.28 625,-138 628.24,-134.89 631.83,-132.09 635.64,-129.58"/>
<polygon fill="midnightblue" stroke="midnightblue" points="637.42,-132.6 644.3,-124.54 633.9,-126.55 637.42,-132.6"/>
</g>
<!-- Node20 -->
<g id="node20" class="node">
<title>Node20</title>
<g id="a_node20"><a xlink:href="classprecice_1_1cplscheme_1_1BaseCouplingScheme.html#a3aa71af66bf740fa8d9182b47db7dac3" target="_top" xlink:title="Sends data sendDataIDs given in mapCouplingData with communication.">
<polygon fill="white" stroke="black" points="644.5,-147.5 644.5,-188.5 772.5,-188.5 772.5,-147.5 644.5,-147.5"/>
<text text-anchor="start" x="652.5" y="-176.5" font-family="Helvetica,sans-Serif" font-size="10.00">precice::cplscheme</text>
<text text-anchor="start" x="652.5" y="-165.5" font-family="Helvetica,sans-Serif" font-size="10.00">::BaseCouplingScheme</text>
<text text-anchor="middle" x="708.5" y="-154.5" font-family="Helvetica,sans-Serif" font-size="10.00">::sendData</text>
</a>
</g>
</g>
<!-- Node18&#45;&gt;Node20 -->
<g id="edge30" class="edge">
<title>Node18&#45;&gt;Node20</title>
<path fill="none" stroke="midnightblue" d="M562.33,-236.08C571.36,-232.89 580.46,-229.49 589,-226 612.73,-216.29 638.36,-203.98 659.7,-193.2"/>
<polygon fill="midnightblue" stroke="midnightblue" points="661.55,-196.19 668.87,-188.53 658.37,-189.95 661.55,-196.19"/>
</g>
<!-- Node20&#45;&gt;Node5 -->
<g id="edge31" class="edge">
<title>Node20&#45;&gt;Node5</title>
<path fill="none" stroke="midnightblue" d="M772.7,-147.61C779.36,-144.7 785.92,-141.49 792,-138 810.06,-127.62 808.78,-116.02 828,-108 894.76,-80.13 1093.02,-48.55 1153,-89 1232.74,-142.77 1249.85,-270.91 1253.51,-320.21"/>
<polygon fill="midnightblue" stroke="midnightblue" points="1250.04,-320.7 1254.16,-330.46 1257.02,-320.26 1250.04,-320.7"/>
</g>
<!-- Node21 -->
<g id="node21" class="node">
<title>Node21</title>
<g id="a_node21"><a xlink:href="classprecice_1_1cplscheme_1_1BaseCouplingScheme.html#aab81f5f3857872a22d82f871248d4371" target="_top" xlink:title=" ">
<polygon fill="white" stroke="black" points="834.5,-117.5 834.5,-158.5 982.5,-158.5 982.5,-117.5 834.5,-117.5"/>
<text text-anchor="start" x="842.5" y="-146.5" font-family="Helvetica,sans-Serif" font-size="10.00">precice::cplscheme</text>
<text text-anchor="start" x="842.5" y="-135.5" font-family="Helvetica,sans-Serif" font-size="10.00">::BaseCouplingScheme</text>
<text text-anchor="middle" x="908.5" y="-124.5" font-family="Helvetica,sans-Serif" font-size="10.00">::sendNumberOfTimeSteps</text>
</a>
</g>
</g>
<!-- Node20&#45;&gt;Node21 -->
<g id="edge32" class="edge">
<title>Node20&#45;&gt;Node21</title>
<path fill="none" stroke="midnightblue" d="M772.69,-158.43C789.06,-155.95 806.94,-153.24 824.16,-150.63"/>
<polygon fill="midnightblue" stroke="midnightblue" points="824.85,-154.06 834.21,-149.1 823.8,-147.14 824.85,-154.06"/>
</g>
<!-- Node22 -->
<g id="node22" class="node">
<title>Node22</title>
<g id="a_node22"><a xlink:href="classprecice_1_1cplscheme_1_1BaseCouplingScheme.html#ad50465f4541de9580e627400d7e39f4f" target="_top" xlink:title=" ">
<polygon fill="white" stroke="black" points="844.5,-0.5 844.5,-41.5 972.5,-41.5 972.5,-0.5 844.5,-0.5"/>
<text text-anchor="start" x="852.5" y="-29.5" font-family="Helvetica,sans-Serif" font-size="10.00">precice::cplscheme</text>
<text text-anchor="start" x="852.5" y="-18.5" font-family="Helvetica,sans-Serif" font-size="10.00">::BaseCouplingScheme</text>
<text text-anchor="middle" x="908.5" y="-7.5" font-family="Helvetica,sans-Serif" font-size="10.00">::sendTimes</text>
</a>
</g>
</g>
<!-- Node20&#45;&gt;Node22 -->
<g id="edge33" class="edge">
<title>Node20&#45;&gt;Node22</title>
<path fill="none" stroke="midnightblue" d="M772.57,-151.32C779.64,-147.7 786.33,-143.31 792,-138 821.04,-110.78 799.87,-84.16 828,-56 831.2,-52.79 834.75,-49.86 838.52,-47.17"/>
<polygon fill="midnightblue" stroke="midnightblue" points="840.54,-50.03 847.07,-41.69 836.76,-44.14 840.54,-50.03"/>
</g>
<!-- Node23 -->
<g id="node23" class="node">
<title>Node23</title>
<g id="a_node23"><a xlink:href="classprecice_1_1com_1_1serialize_1_1SerializedStamples.html#acefbea8c1c6ff8ca9f647ebf37348513" target="_top" xlink:title="Serializes a given CouplingData into SerializedStamples.">
<polygon fill="white" stroke="black" points="845.5,-177.5 845.5,-218.5 971.5,-218.5 971.5,-177.5 845.5,-177.5"/>
<text text-anchor="start" x="853.5" y="-206.5" font-family="Helvetica,sans-Serif" font-size="10.00">precice::com::serialize</text>
<text text-anchor="start" x="853.5" y="-195.5" font-family="Helvetica,sans-Serif" font-size="10.00">::SerializedStamples::</text>
<text text-anchor="middle" x="908.5" y="-184.5" font-family="Helvetica,sans-Serif" font-size="10.00">serialize</text>
</a>
</g>
</g>
<!-- Node20&#45;&gt;Node23 -->
<g id="edge34" class="edge">
<title>Node20&#45;&gt;Node23</title>
<path fill="none" stroke="midnightblue" d="M772.69,-177.57C792.63,-180.6 814.81,-183.96 835.32,-187.06"/>
<polygon fill="midnightblue" stroke="midnightblue" points="834.83,-190.53 845.25,-188.57 835.88,-183.61 834.83,-190.53"/>
</g>
<!-- Node23&#45;&gt;Node5 -->
<g id="edge36" class="edge">
<title>Node23&#45;&gt;Node5</title>
<path fill="none" stroke="midnightblue" d="M971.61,-203.25C1022.58,-209.51 1095.46,-223.04 1153,-252 1188.34,-269.78 1221.41,-302.64 1239.7,-322.78"/>
<polygon fill="midnightblue" stroke="midnightblue" points="1237.13,-325.16 1246.39,-330.31 1242.37,-320.51 1237.13,-325.16"/>
</g>
<!-- Node23&#45;&gt;Node14 -->
<g id="edge35" class="edge">
<title>Node23&#45;&gt;Node14</title>
<path fill="none" stroke="midnightblue" d="M941,-218.65C970.73,-238.14 1015.45,-267.45 1047.75,-288.62"/>
<polygon fill="midnightblue" stroke="midnightblue" points="1046.23,-291.81 1056.51,-294.36 1050.07,-285.95 1046.23,-291.81"/>
</g>
<!-- Node24 -->
<g id="node24" class="node">
<title>Node24</title>
<g id="a_node24"><a xlink:href="classprecice_1_1com_1_1serialize_1_1SerializedStamples.html#aa94dbbe6f68c1dc4f14fb132df8ab796" target="_top" xlink:title="Serialize gradients from timeStepsStorage of data into _gradients.">
<polygon fill="white" stroke="black" points="1026,-158.5 1026,-199.5 1152,-199.5 1152,-158.5 1026,-158.5"/>
<text text-anchor="start" x="1034" y="-187.5" font-family="Helvetica,sans-Serif" font-size="10.00">precice::com::serialize</text>
<text text-anchor="start" x="1034" y="-176.5" font-family="Helvetica,sans-Serif" font-size="10.00">::SerializedStamples::</text>
<text text-anchor="middle" x="1089" y="-165.5" font-family="Helvetica,sans-Serif" font-size="10.00">serializeGradients</text>
</a>
</g>
</g>
<!-- Node23&#45;&gt;Node24 -->
<g id="edge37" class="edge">
<title>Node23&#45;&gt;Node24</title>
<path fill="none" stroke="midnightblue" d="M971.68,-191.38C985.9,-189.87 1001.14,-188.25 1015.75,-186.69"/>
<polygon fill="midnightblue" stroke="midnightblue" points="1016.17,-190.17 1025.74,-185.63 1015.43,-183.21 1016.17,-190.17"/>
</g>
<!-- Node25 -->
<g id="node25" class="node">
<title>Node25</title>
<g id="a_node25"><a xlink:href="classprecice_1_1com_1_1serialize_1_1SerializedStamples.html#a51596e529ca6050a18852bf5172df2e6" target="_top" xlink:title="Serialize values from timeStepsStorage of data into _values.">
<polygon fill="white" stroke="black" points="1026,-98.5 1026,-139.5 1152,-139.5 1152,-98.5 1026,-98.5"/>
<text text-anchor="start" x="1034" y="-127.5" font-family="Helvetica,sans-Serif" font-size="10.00">precice::com::serialize</text>
<text text-anchor="start" x="1034" y="-116.5" font-family="Helvetica,sans-Serif" font-size="10.00">::SerializedStamples::</text>
<text text-anchor="middle" x="1089" y="-105.5" font-family="Helvetica,sans-Serif" font-size="10.00">serializeValues</text>
</a>
</g>
</g>
<!-- Node23&#45;&gt;Node25 -->
<g id="edge39" class="edge">
<title>Node23&#45;&gt;Node25</title>
<path fill="none" stroke="midnightblue" d="M966.74,-177.38C974.29,-174.38 981.87,-171.21 989,-168 1005.5,-160.57 1008.83,-157.11 1025,-149 1028.28,-147.35 1031.66,-145.68 1035.08,-144"/>
<polygon fill="midnightblue" stroke="midnightblue" points="1036.7,-147.11 1044.17,-139.59 1033.64,-140.81 1036.7,-147.11"/>
</g>
<!-- Node24&#45;&gt;Node5 -->
<g id="edge38" class="edge">
<title>Node24&#45;&gt;Node5</title>
<path fill="none" stroke="midnightblue" d="M1132.49,-199.63C1139.66,-203.93 1146.78,-208.76 1153,-214 1191.66,-246.55 1226.11,-295.58 1243.17,-321.85"/>
<polygon fill="midnightblue" stroke="midnightblue" points="1240.32,-323.88 1248.65,-330.42 1246.22,-320.11 1240.32,-323.88"/>
</g>
<!-- Node25&#45;&gt;Node5 -->
<g id="edge40" class="edge">
<title>Node25&#45;&gt;Node5</title>
<path fill="none" stroke="midnightblue" d="M1141.08,-139.67C1145.36,-142.46 1149.41,-145.57 1153,-149 1205.6,-199.33 1236.74,-282.97 1248.76,-320.6"/>
<polygon fill="midnightblue" stroke="midnightblue" points="1245.47,-321.8 1251.76,-330.32 1252.16,-319.74 1245.47,-321.8"/>
</g>
<!-- Node31 -->
<g id="node31" class="node">
<title>Node31</title>
<g id="a_node31"><a xlink:href="classprecice_1_1utils_1_1ManageUniqueIDs.html#a02be264c279698ae293587b6576088b5" target="_top" xlink:title=" ">
<polygon fill="white" stroke="black" points="419,-186 419,-216 577,-216 577,-186 419,-186"/>
<text text-anchor="start" x="427" y="-204" font-family="Helvetica,sans-Serif" font-size="10.00">precice::utils::ManageUnique</text>
<text text-anchor="middle" x="498" y="-193" font-family="Helvetica,sans-Serif" font-size="10.00">IDs::getFreeID</text>
</a>
</g>
</g>
<!-- Node30&#45;&gt;Node31 -->
<g id="edge46" class="edge">
<title>Node30&#45;&gt;Node31</title>
<path fill="none" stroke="midnightblue" d="M353.3,-213.35C371.15,-211.82 390.28,-210.18 408.57,-208.6"/>
<polygon fill="midnightblue" stroke="midnightblue" points="408.96,-212.08 418.63,-207.74 408.36,-205.11 408.96,-212.08"/>
</g>
<!-- Node33 -->
<g id="node33" class="node">
<title>Node33</title>
<g id="a_node33"><a xlink:href="namespaceprecice_1_1testing.html#a0819eba8ac83ede1db16e724dd4f5458" target="_top" xlink:title="equals to be used in tests. Compares two std::vectors using a given tolerance. Prints both operands o...">
<polygon fill="white" stroke="black" points="433,-147.5 433,-166.5 563,-166.5 563,-147.5 433,-147.5"/>
<text text-anchor="middle" x="498" y="-154.5" font-family="Helvetica,sans-Serif" font-size="10.00">precice::testing::equals</text>
</a>
</g>
</g>
<!-- Node32&#45;&gt;Node33 -->
<g id="edge48" class="edge">
<title>Node32&#45;&gt;Node33</title>
<path fill="none" stroke="midnightblue" d="M312.99,-157C342.75,-157 385.54,-157 422.37,-157"/>
<polygon fill="midnightblue" stroke="midnightblue" points="422.58,-160.5 432.58,-157 422.58,-153.5 422.58,-160.5"/>
</g>
<!-- Node34 -->
<g id="node34" class="node">
<title>Node34</title>
<g id="a_node34"><a xlink:href="classprecice_1_1mesh_1_1Vertex.html#a2f62d7ef09981e963638cb3f2f6a9603" target="_top" xlink:title="Returns the unique (among vertices of one mesh on one processor) ID of the vertex.">
<polygon fill="white" stroke="black" points="437,-98 437,-128 559,-128 559,-98 437,-98"/>
<text text-anchor="start" x="445" y="-116" font-family="Helvetica,sans-Serif" font-size="10.00">precice::mesh::Vertex</text>
<text text-anchor="middle" x="498" y="-105" font-family="Helvetica,sans-Serif" font-size="10.00">::getID</text>
</a>
</g>
</g>
<!-- Node32&#45;&gt;Node34 -->
<g id="edge49" class="edge">
<title>Node32&#45;&gt;Node34</title>
<path fill="none" stroke="midnightblue" d="M312.99,-149.64C344.01,-143.46 389.17,-134.47 426.99,-126.94"/>
<polygon fill="midnightblue" stroke="midnightblue" points="427.82,-130.34 436.94,-124.96 426.45,-123.48 427.82,-130.34"/>
</g>
</g>
</svg>
        <g id="navigator" transform="translate(0 0)" fill="#404254">
                <rect fill="#f2f5e9" fill-opacity="0.5" stroke="#606060" stroke-width=".5" x="0" y="0" width="60" height="60"/>
                <use id="zoomplus" xlink:href="#zoomPlus" x="17" y="9" onmousedown="handleZoom(evt,'in')"/>
                <use id="zoomminus" xlink:href="#zoomMin" x="42" y="9" onmousedown="handleZoom(evt,'out')"/>
                <use id="reset" xlink:href="#resetDef" x="30" y="36" onmousedown="handleReset()"/>
                <g id="arrowUp" xlink:href="#dirArrow" transform="translate(30 24)" onmousedown="handlePan(0,-1)">
                  <use xlink:href="#rim" fill="#404040">
                        <set attributeName="fill" to="#808080" begin="arrowUp.mouseover" end="arrowUp.mouseout"/>
                  </use>
                  <path fill="none" stroke="white" stroke-width="1.5" d="M0,-3.0v7 M-2.5,-0.5L0,-3.0L2.5,-0.5"/>
                </g>
                <g id="arrowRight" xlink:href="#dirArrow" transform="rotate(90) translate(36 -43)" onmousedown="handlePan(1,0)">
                  <use xlink:href="#rim" fill="#404040">
                        <set attributeName="fill" to="#808080" begin="arrowRight.mouseover" end="arrowRight.mouseout"/>
                  </use>
                  <path fill="none" stroke="white" stroke-width="1.5" d="M0,-3.0v7 M-2.5,-0.5L0,-3.0L2.5,-0.5"/>
                </g>
                <g id="arrowDown" xlink:href="#dirArrow" transform="rotate(180) translate(-30 -48)" onmousedown="handlePan(0,1)">
                  <use xlink:href="#rim" fill="#404040">
                        <set attributeName="fill" to="#808080" begin="arrowDown.mouseover" end="arrowDown.mouseout"/>
                  </use>
                  <path fill="none" stroke="white" stroke-width="1.5" d="M0,-3.0v7 M-2.5,-0.5L0,-3.0L2.5,-0.5"/>
                </g>
                <g id="arrowLeft" xlink:href="#dirArrow" transform="rotate(270) translate(-36 17)" onmousedown="handlePan(-1,0)">
                  <use xlink:href="#rim" fill="#404040">
                        <set attributeName="fill" to="#808080" begin="arrowLeft.mouseover" end="arrowLeft.mouseout"/>
                  </use>
                  <path fill="none" stroke="white" stroke-width="1.5" d="M0,-3.0v7 M-2.5,-0.5L0,-3.0L2.5,-0.5"/>
                </g>
        </g>
        <svg viewBox="0 0 15 15" width="100%" height="30px" preserveAspectRatio="xMaxYMin meet">
         <g id="arrow_out" transform="scale(0.3 0.3)">
          <a xlink:href="SerialImplicitCouplingSchemeTest_8cpp_a16dea449a158119f19c18acad75fcf01_cgraph_org.svg" target="_base">
           <rect id="button" ry="5" rx="5" y="6" x="6" height="38" width="38"
                fill="#f2f5e9" fill-opacity="0.5" stroke="#606060" stroke-width="1.0"/>
           <path id="arrow"
             d="M 11.500037,31.436501 C 11.940474,20.09759 22.043105,11.32322 32.158766,21.979434 L 37.068811,17.246167 C 37.068811,17.246167 37.088388,32 37.088388,32 L 22.160133,31.978069 C 22.160133,31.978069 26.997745,27.140456 26.997745,27.140456 C 18.528582,18.264221 13.291696,25.230495 11.500037,31.436501 z"
             style="fill:#404040;"/>
          </a>
         </g>
        </svg>
</svg>
