<?xml version="1.0" encoding="UTF-8" standalone="no"?>
<!DOCTYPE svg PUBLIC "-//W3C//DTD SVG 1.1//EN"
 "http://www.w3.org/Graphics/SVG/1.1/DTD/svg11.dtd">
<!-- Generated by graphviz version 2.43.0 (0)
 -->
<!-- Title: runCoupling Pages: 1 -->
<svg width="249pt" height="78pt"
 viewBox="0.00 0.00 249.00 77.50" xmlns="http://www.w3.org/2000/svg" xmlns:xlink="http://www.w3.org/1999/xlink">
<g id="graph0" class="graph" transform="scale(1 1) rotate(0) translate(4 73.5)">
<title>runCoupling</title>
<polygon fill="white" stroke="transparent" points="-4,4 -4,-73.5 245,-73.5 245,4 -4,4"/>
<!-- Node1 -->
<g id="node1" class="node">
<title>Node1</title>
<g id="a_node1"><a xlink:title=" ">
<polygon fill="#bfbfbf" stroke="black" points="0,-28 0,-47 75,-47 75,-28 0,-28"/>
<text text-anchor="middle" x="37.5" y="-35" font-family="Helvetica,sans-Serif" font-size="10.00">runCoupling</text>
</a>
</g>
</g>
<!-- Node2 -->
<g id="node2" class="node">
<title>Node2</title>
<g id="a_node2"><a xlink:href="namespaceprecice_1_1testing.html#a0819eba8ac83ede1db16e724dd4f5458" target="_top" xlink:title="equals to be used in tests. Compares two std::vectors using a given tolerance. Prints both operands o...">
<polygon fill="white" stroke="black" points="111,-50 111,-69 241,-69 241,-50 111,-50"/>
<text text-anchor="middle" x="176" y="-57" font-family="Helvetica,sans-Serif" font-size="10.00">precice::testing::equals</text>
</a>
</g>
</g>
<!-- Node1&#45;&gt;Node2 -->
<g id="edge1" class="edge">
<title>Node1&#45;&gt;Node2</title>
<path fill="none" stroke="midnightblue" d="M75.08,-43.4C84.59,-44.93 95.17,-46.63 105.77,-48.34"/>
<polygon fill="midnightblue" stroke="midnightblue" points="105.48,-51.84 115.91,-49.98 106.59,-44.93 105.48,-51.84"/>
</g>
<!-- Node3 -->
<g id="node3" class="node">
<title>Node3</title>
<g id="a_node3"><a xlink:href="classprecice_1_1mesh_1_1Vertex.html#a2f62d7ef09981e963638cb3f2f6a9603" target="_top" xlink:title="Returns the unique (among vertices of one mesh on one processor) ID of the vertex.">
<polygon fill="white" stroke="black" points="115,-0.5 115,-30.5 237,-30.5 237,-0.5 115,-0.5"/>
<text text-anchor="start" x="123" y="-18.5" font-family="Helvetica,sans-Serif" font-size="10.00">precice::mesh::Vertex</text>
<text text-anchor="middle" x="176" y="-7.5" font-family="Helvetica,sans-Serif" font-size="10.00">::getID</text>
</a>
</g>
</g>
<!-- Node1&#45;&gt;Node3 -->
<g id="edge2" class="edge">
<title>Node1&#45;&gt;Node3</title>
<path fill="none" stroke="midnightblue" d="M75.08,-31.6C84.36,-30.11 94.63,-28.45 104.97,-26.79"/>
<polygon fill="midnightblue" stroke="midnightblue" points="105.54,-30.24 114.86,-25.19 104.43,-23.33 105.54,-30.24"/>
</g>
</g>
</svg>
