<?xml version="1.0" encoding="UTF-8" standalone="no"?>
<!DOCTYPE svg PUBLIC "-//W3C//DTD SVG 1.1//EN"
 "http://www.w3.org/Graphics/SVG/1.1/DTD/svg11.dtd">
<!-- Generated by graphviz version 2.43.0 (0)
 -->
<!-- Title: src/precice/SolverInterface.hpp Pages: 1 -->
<svg width="546pt" height="140pt"
 viewBox="0.00 0.00 545.50 140.00" xmlns="http://www.w3.org/2000/svg" xmlns:xlink="http://www.w3.org/1999/xlink">
<g id="graph0" class="graph" transform="scale(1 1) rotate(0) translate(4 136)">
<title>src/precice/SolverInterface.hpp</title>
<polygon fill="white" stroke="transparent" points="-4,4 -4,-136 541.5,-136 541.5,4 -4,4"/>
<!-- Node1 -->
<g id="node1" class="node">
<title>Node1</title>
<g id="a_node1"><a xlink:title=" ">
<polygon fill="#bfbfbf" stroke="black" points="100.5,-112.5 100.5,-131.5 267.5,-131.5 267.5,-112.5 100.5,-112.5"/>
<text text-anchor="middle" x="184" y="-119.5" font-family="Helvetica,sans-Serif" font-size="10.00">src/precice/SolverInterface.hpp</text>
</a>
</g>
</g>
<!-- Node2 -->
<g id="node2" class="node">
<title>Node2</title>
<g id="a_node2"><a xlink:title=" ">
<polygon fill="white" stroke="#bfbfbf" points="0,-56.5 0,-75.5 58,-75.5 58,-56.5 0,-56.5"/>
<text text-anchor="middle" x="29" y="-63.5" font-family="Helvetica,sans-Serif" font-size="10.00">memory</text>
</a>
</g>
</g>
<!-- Node1&#45;&gt;Node2 -->
<g id="edge1" class="edge">
<title>Node1&#45;&gt;Node2</title>
<path fill="none" stroke="midnightblue" d="M159.44,-112.44C133.48,-103.4 92.33,-89.06 63.2,-78.92"/>
<polygon fill="midnightblue" stroke="midnightblue" points="64.04,-75.5 53.45,-75.52 61.74,-82.11 64.04,-75.5"/>
</g>
<!-- Node3 -->
<g id="node3" class="node">
<title>Node3</title>
<g id="a_node3"><a xlink:title=" ">
<polygon fill="white" stroke="#bfbfbf" points="76,-56.5 76,-75.5 176,-75.5 176,-56.5 76,-56.5"/>
<text text-anchor="middle" x="126" y="-63.5" font-family="Helvetica,sans-Serif" font-size="10.00">precice/Version.h</text>
</a>
</g>
</g>
<!-- Node1&#45;&gt;Node3 -->
<g id="edge2" class="edge">
<title>Node1&#45;&gt;Node3</title>
<path fill="none" stroke="midnightblue" d="M174.68,-112.32C166.11,-104.34 153.19,-92.31 142.81,-82.65"/>
<polygon fill="midnightblue" stroke="midnightblue" points="145.19,-80.09 135.49,-75.83 140.42,-85.21 145.19,-80.09"/>
</g>
<!-- Node4 -->
<g id="node4" class="node">
<title>Node4</title>
<g id="a_node4"><a xlink:title=" ">
<polygon fill="white" stroke="#bfbfbf" points="194.5,-56.5 194.5,-75.5 289.5,-75.5 289.5,-56.5 194.5,-56.5"/>
<text text-anchor="middle" x="242" y="-63.5" font-family="Helvetica,sans-Serif" font-size="10.00">precice/export.h</text>
</a>
</g>
</g>
<!-- Node1&#45;&gt;Node4 -->
<g id="edge3" class="edge">
<title>Node1&#45;&gt;Node4</title>
<path fill="none" stroke="midnightblue" d="M193.32,-112.32C201.89,-104.34 214.81,-92.31 225.19,-82.65"/>
<polygon fill="midnightblue" stroke="midnightblue" points="227.58,-85.21 232.51,-75.83 222.81,-80.09 227.58,-85.21"/>
</g>
<!-- Node5 -->
<g id="node5" class="node">
<title>Node5</title>
<g id="a_node5"><a xlink:href="span_8hpp.html" target="_top" xlink:title=" ">
<polygon fill="white" stroke="black" points="307.5,-56.5 307.5,-75.5 406.5,-75.5 406.5,-56.5 307.5,-56.5"/>
<text text-anchor="middle" x="357" y="-63.5" font-family="Helvetica,sans-Serif" font-size="10.00">precice/span.hpp</text>
</a>
</g>
</g>
<!-- Node1&#45;&gt;Node5 -->
<g id="edge4" class="edge">
<title>Node1&#45;&gt;Node5</title>
<path fill="none" stroke="midnightblue" d="M211.41,-112.44C240.77,-103.28 287.52,-88.69 320.1,-78.52"/>
<polygon fill="midnightblue" stroke="midnightblue" points="321.21,-81.84 329.72,-75.52 319.13,-75.16 321.21,-81.84"/>
</g>
<!-- Node6 -->
<g id="node6" class="node">
<title>Node6</title>
<g id="a_node6"><a xlink:title=" ">
<polygon fill="white" stroke="#bfbfbf" points="200,-0.5 200,-19.5 242,-19.5 242,-0.5 200,-0.5"/>
<text text-anchor="middle" x="221" y="-7.5" font-family="Helvetica,sans-Serif" font-size="10.00">array</text>
</a>
</g>
</g>
<!-- Node5&#45;&gt;Node6 -->
<g id="edge5" class="edge">
<title>Node5&#45;&gt;Node6</title>
<path fill="none" stroke="midnightblue" d="M335.45,-56.44C312.84,-47.46 277.09,-33.27 251.57,-23.14"/>
<polygon fill="midnightblue" stroke="midnightblue" points="252.59,-19.78 242,-19.34 250,-26.28 252.59,-19.78"/>
</g>
<!-- Node7 -->
<g id="node7" class="node">
<title>Node7</title>
<g id="a_node7"><a xlink:title=" ">
<polygon fill="white" stroke="#bfbfbf" points="260.5,-0.5 260.5,-19.5 313.5,-19.5 313.5,-0.5 260.5,-0.5"/>
<text text-anchor="middle" x="287" y="-7.5" font-family="Helvetica,sans-Serif" font-size="10.00">cstddef</text>
</a>
</g>
</g>
<!-- Node5&#45;&gt;Node7 -->
<g id="edge6" class="edge">
<title>Node5&#45;&gt;Node7</title>
<path fill="none" stroke="midnightblue" d="M345.75,-56.32C335.2,-48.18 319.2,-35.84 306.56,-26.09"/>
<polygon fill="midnightblue" stroke="midnightblue" points="308.51,-23.17 298.45,-19.83 304.23,-28.71 308.51,-23.17"/>
</g>
<!-- Node8 -->
<g id="node8" class="node">
<title>Node8</title>
<g id="a_node8"><a xlink:title=" ">
<polygon fill="white" stroke="#bfbfbf" points="332,-0.5 332,-19.5 382,-19.5 382,-0.5 332,-0.5"/>
<text text-anchor="middle" x="357" y="-7.5" font-family="Helvetica,sans-Serif" font-size="10.00">cstdint</text>
</a>
</g>
</g>
<!-- Node5&#45;&gt;Node8 -->
<g id="edge7" class="edge">
<title>Node5&#45;&gt;Node8</title>
<path fill="none" stroke="midnightblue" d="M357,-56.08C357,-49.01 357,-38.86 357,-29.99"/>
<polygon fill="midnightblue" stroke="midnightblue" points="360.5,-29.75 357,-19.75 353.5,-29.75 360.5,-29.75"/>
</g>
<!-- Node9 -->
<g id="node9" class="node">
<title>Node9</title>
<g id="a_node9"><a xlink:title=" ">
<polygon fill="white" stroke="#bfbfbf" points="400,-0.5 400,-19.5 450,-19.5 450,-0.5 400,-0.5"/>
<text text-anchor="middle" x="425" y="-7.5" font-family="Helvetica,sans-Serif" font-size="10.00">cstring</text>
</a>
</g>
</g>
<!-- Node5&#45;&gt;Node9 -->
<g id="edge8" class="edge">
<title>Node5&#45;&gt;Node9</title>
<path fill="none" stroke="midnightblue" d="M367.93,-56.32C378.17,-48.18 393.72,-35.84 406,-26.09"/>
<polygon fill="midnightblue" stroke="midnightblue" points="408.22,-28.79 413.88,-19.83 403.87,-23.31 408.22,-28.79"/>
</g>
<!-- Node10 -->
<g id="node10" class="node">
<title>Node10</title>
<g id="a_node10"><a xlink:title=" ">
<polygon fill="white" stroke="#bfbfbf" points="468.5,-0.5 468.5,-19.5 537.5,-19.5 537.5,-0.5 468.5,-0.5"/>
<text text-anchor="middle" x="503" y="-7.5" font-family="Helvetica,sans-Serif" font-size="10.00">type_traits</text>
</a>
</g>
</g>
<!-- Node5&#45;&gt;Node10 -->
<g id="edge9" class="edge">
<title>Node5&#45;&gt;Node10</title>
<path fill="none" stroke="midnightblue" d="M380.13,-56.44C404.48,-47.44 443.01,-33.19 470.42,-23.05"/>
<polygon fill="midnightblue" stroke="midnightblue" points="471.81,-26.27 479.97,-19.52 469.38,-19.7 471.81,-26.27"/>
</g>
</g>
</svg>
