<?xml version="1.0" encoding="UTF-8" standalone="no"?>
<!DOCTYPE svg PUBLIC "-//W3C//DTD SVG 1.1//EN"
 "http://www.w3.org/Graphics/SVG/1.1/DTD/svg11.dtd">
<!-- Generated by graphviz version 2.43.0 (0)
 -->
<!-- Title: CompositionalCouplingSchemeFixture::setupAndRunThreeSolverCoupling Pages: 1 -->
<!--zoomable 248 -->

<svg id="main" version="1.1" xmlns="http://www.w3.org/2000/svg" xmlns:xlink="http://www.w3.org/1999/xlink" xml:space="preserve" onload="init(evt)">
<style type="text/css"><![CDATA[
.node, .edge {opacity: 0.7;}
.node.selected, .edge.selected {opacity: 1;}
.edge:hover path { stroke: red; }
.edge:hover polygon { stroke: red; fill: red; }
]]></style>

<defs>
  <circle id="rim" cx="0" cy="0" r="7"/>
  <circle id="rim2" cx="0" cy="0" r="3.5"/>
  <g id="zoomPlus">
    <use xlink:href="#rim" fill="#404040"><set attributeName="fill" to="#808080" begin="zoomplus.mouseover" end="zoomplus.mouseout"/></use>
    <path d="M-4,0h8M0,-4v8" fill="none" stroke="white" stroke-width="1.5" pointer-events="none"/>
  </g>
  <g id="zoomMin">
    <use xlink:href="#rim" fill="#404040"><set attributeName="fill" to="#808080" begin="zoomminus.mouseover" end="zoomminus.mouseout"/></use>
    <path d="M-4,0h8" fill="none" stroke="white" stroke-width="1.5" pointer-events="none"/>
  </g>
  <g id="arrowUp" transform="translate(30 24)">
    <use xlink:href="#rim"/>
    <path pointer-events="none" fill="none" stroke="white" stroke-width="1.5" d="M0,-3.0v7 M-2.5,-0.5L0,-3.0L2.5,-0.5"/>
  </g>
  <g id="arrowRight" transform="rotate(90) translate(36 -43)">
    <use xlink:href="#rim"/>
    <path pointer-events="none" fill="none" stroke="white" stroke-width="1.5" d="M0,-3.0v7 M-2.5,-0.5L0,-3.0L2.5,-0.5"/>
  </g>
  <g id="arrowDown" transform="rotate(180) translate(-30 -48)">
    <use xlink:href="#rim"/>
    <path pointer-events="none" fill="none" stroke="white" stroke-width="1.5" d="M0,-3.0v7 M-2.5,-0.5L0,-3.0L2.5,-0.5"/>
  </g>
  <g id="arrowLeft" transform="rotate(270) translate(-36 17)">
    <use xlink:href="#rim"/>
    <path pointer-events="none" fill="none" stroke="white" stroke-width="1.5" d="M0,-3.0v7 M-2.5,-0.5L0,-3.0L2.5,-0.5"/>
  </g>
  <g id="resetDef">
    <use xlink:href="#rim2" fill="#404040"><set attributeName="fill" to="#808080" begin="reset.mouseover" end="reset.mouseout"/></use>
  </g>
</defs>
<script type="application/ecmascript">
var viewWidth = 701;
var viewHeight = 248;
var sectionId = 'dynsection-4';
</script>
<script type="application/ecmascript" xlink:href="svg.min.js"/>
<svg id="graph" class="graph">
<g id="viewport">
<title>CompositionalCouplingSchemeFixture::setupAndRunThreeSolverCoupling</title>
<!-- Node1 -->
<g id="Node000001" class="node">
<title>Node1</title>
<g id="a_Node000001"><a xlink:title=" ">
<polygon fill="#999999" stroke="#666666" points="179,-102.5 0,-102.5 0,-61.5 179,-61.5 179,-102.5"/>
<text text-anchor="start" x="8" y="-90.5" font-family="Helvetica,sans-Serif" font-size="10.00">CompositionalCouplingScheme</text>
<text text-anchor="start" x="8" y="-79.5" font-family="Helvetica,sans-Serif" font-size="10.00">Fixture::setupAndRunThreeSolver</text>
<text text-anchor="middle" x="89.5" y="-68.5" font-family="Helvetica,sans-Serif" font-size="10.00">Coupling</text>
</a>
</g>
</g>
<!-- Node2 -->
<g id="Node000002" class="node">
<title>Node2</title>
<g id="a_Node000002"><a xlink:href="namespaceprecice_1_1xml.html#af9f808fbdf078c4e28e4f5ea71b14788" target="_top" xlink:title="Configures the given configuration from file configurationFilename.">
<polygon fill="white" stroke="#666666" points="364,-182.5 236,-182.5 236,-163.5 364,-163.5 364,-182.5"/>
<text text-anchor="middle" x="300" y="-170.5" font-family="Helvetica,sans-Serif" font-size="10.00">precice::xml::configure</text>
</a>
</g>
</g>
<!-- Node1&#45;&gt;Node2 -->
<g id="edge1_Node000001_Node000002" class="edge">
<title>Node1&#45;&gt;Node2</title>
<g id="a_edge1_Node000001_Node000002"><a xlink:title=" ">
<path fill="none" stroke="#63b8ff" d="M137.55,-102.54C177.23,-119.85 232.93,-144.16 267.45,-159.23"/>
<polygon fill="#63b8ff" stroke="#63b8ff" points="266.45,-162.61 277.02,-163.41 269.25,-156.2 266.45,-162.61"/>
</a>
</g>
</g>
<!-- Node7 -->
<g id="Node000007" class="node">
<title>Node7</title>
<g id="a_Node000007"><a xlink:href="classprecice_1_1cplscheme_1_1CouplingSchemeConfiguration.html#a0ed3c97d33c092d6c81f0840895207f5" target="_top" xlink:title="Returns the configured coupling scheme.">
<polygon fill="white" stroke="#666666" points="385,-126.5 215,-126.5 215,-85.5 385,-85.5 385,-126.5"/>
<text text-anchor="start" x="223" y="-114.5" font-family="Helvetica,sans-Serif" font-size="10.00">precice::cplscheme</text>
<text text-anchor="start" x="223" y="-103.5" font-family="Helvetica,sans-Serif" font-size="10.00">::CouplingSchemeConfiguration</text>
<text text-anchor="middle" x="300" y="-92.5" font-family="Helvetica,sans-Serif" font-size="10.00">::getCouplingScheme</text>
</a>
</g>
</g>
<!-- Node1&#45;&gt;Node7 -->
<g id="edge7_Node000001_Node000007" class="edge">
<title>Node1&#45;&gt;Node7</title>
<g id="a_edge7_Node000001_Node000007"><a xlink:title=" ">
<path fill="none" stroke="#63b8ff" d="M179.23,-92.21C187.75,-93.19 196.41,-94.19 204.99,-95.18"/>
<polygon fill="#63b8ff" stroke="#63b8ff" points="204.66,-98.66 214.99,-96.33 205.46,-91.71 204.66,-98.66"/>
</a>
</g>
</g>
<!-- Node12 -->
<g id="Node000012" class="node">
<title>Node12</title>
<g id="a_Node000012"><a xlink:href="namespaceprecice_1_1xml.html#a44dd973bd070a46334fae66b7f392264" target="_top" xlink:title="Returns an empty root tag with name &quot;configuration&quot;.">
<polygon fill="white" stroke="#666666" points="368.5,-67.5 231.5,-67.5 231.5,-48.5 368.5,-48.5 368.5,-67.5"/>
<text text-anchor="middle" x="300" y="-55.5" font-family="Helvetica,sans-Serif" font-size="10.00">precice::xml::getRootTag</text>
</a>
</g>
</g>
<!-- Node1&#45;&gt;Node12 -->
<g id="edge12_Node000001_Node000012" class="edge">
<title>Node1&#45;&gt;Node12</title>
<g id="a_edge12_Node000001_Node000012"><a xlink:title=" ">
<path fill="none" stroke="#63b8ff" d="M179.23,-71.79C193.09,-70.19 207.33,-68.55 220.94,-66.99"/>
<polygon fill="#63b8ff" stroke="#63b8ff" points="221.67,-70.42 231.2,-65.8 220.87,-63.47 221.67,-70.42"/>
</a>
</g>
</g>
<!-- Node13 -->
<g id="Node000013" class="node">
<title>Node13</title>
<g id="a_Node000013"><a xlink:href="classprecice_1_1testing_1_1TestContext.html#a87ef3b67f676b69dfb8c4cfc2e8df819" target="_top" xlink:title="Check whether this context has a given name.">
<polygon fill="white" stroke="#666666" points="377.5,-30 222.5,-30 222.5,0 377.5,0 377.5,-30"/>
<text text-anchor="start" x="230.5" y="-18" font-family="Helvetica,sans-Serif" font-size="10.00">precice::testing::TestContext</text>
<text text-anchor="middle" x="300" y="-7" font-family="Helvetica,sans-Serif" font-size="10.00">::isNamed</text>
</a>
</g>
</g>
<!-- Node1&#45;&gt;Node13 -->
<g id="edge13_Node000001_Node000013" class="edge">
<title>Node1&#45;&gt;Node13</title>
<g id="a_edge13_Node000001_Node000013"><a xlink:title=" ">
<path fill="none" stroke="#63b8ff" d="M149.88,-61.48C170.45,-54.5 193.69,-46.76 215,-40 222.34,-37.67 230.07,-35.28 237.73,-32.95"/>
<polygon fill="#63b8ff" stroke="#63b8ff" points="238.82,-36.28 247.38,-30.04 236.79,-29.58 238.82,-36.28"/>
</a>
</g>
</g>
<!-- Node3 -->
<g id="Node000003" class="node">
<title>Node3</title>
<g id="a_Node000003"><a xlink:href="classprecice_1_1xml_1_1XMLTag.html#af81dc6eea2b9a75e14ddd6033ed9a1d4" target="_top" xlink:title="Adds an XML tag as subtag by making a copy of the given tag.">
<polygon fill="white" stroke="#666666" points="547,-240 428,-240 428,-210 547,-210 547,-240"/>
<text text-anchor="start" x="436" y="-228" font-family="Helvetica,sans-Serif" font-size="10.00">precice::xml::XMLTag</text>
<text text-anchor="middle" x="487.5" y="-217" font-family="Helvetica,sans-Serif" font-size="10.00">::addSubtag</text>
</a>
</g>
</g>
<!-- Node2&#45;&gt;Node3 -->
<g id="edge2_Node000002_Node000003" class="edge">
<title>Node2&#45;&gt;Node3</title>
<g id="a_edge2_Node000002_Node000003"><a xlink:title=" ">
<path fill="none" stroke="#63b8ff" d="M335.02,-182.54C359.55,-189.41 393.38,-198.9 422.86,-207.16"/>
<polygon fill="#63b8ff" stroke="#63b8ff" points="422.09,-210.58 432.66,-209.91 423.98,-203.84 422.09,-210.58"/>
</a>
</g>
</g>
<!-- Node5 -->
<g id="Node000005" class="node">
<title>Node5</title>
<g id="a_Node000005"><a target="_parent" xlink:href="http://en.cppreference.com/w/cpp/memory/unique_ptr/make_unique.html#" xlink:title=" ">
<polygon fill="white" stroke="#666666" points="693,-194.5 590,-194.5 590,-175.5 693,-175.5 693,-194.5"/>
<text text-anchor="middle" x="641.5" y="-182.5" font-family="Helvetica,sans-Serif" font-size="10.00">std::make_unique</text>
</a>
</g>
</g>
<!-- Node2&#45;&gt;Node5 -->
<g id="edge6_Node000002_Node000005" class="edge">
<title>Node2&#45;&gt;Node5</title>
<g id="a_edge6_Node000002_Node000005"><a xlink:title=" ">
<path fill="none" stroke="#63b8ff" d="M364.06,-175.23C425.69,-177.41 518.88,-180.7 579.72,-182.85"/>
<polygon fill="#63b8ff" stroke="#63b8ff" points="579.83,-186.36 589.94,-183.21 580.07,-179.36 579.83,-186.36"/>
</a>
</g>
</g>
<!-- Node6 -->
<g id="Node000006" class="node">
<title>Node6</title>
<g id="a_Node000006"><a xlink:href="classprecice_1_1xml_1_1XMLTag.html#aa8e8dd146d8ade43e1656618dbad79b8" target="_top" xlink:title="Returns full name consisting of xml namespace + &quot;:&quot; + name.">
<polygon fill="white" stroke="#666666" points="547,-154 428,-154 428,-124 547,-124 547,-154"/>
<text text-anchor="start" x="436" y="-142" font-family="Helvetica,sans-Serif" font-size="10.00">precice::xml::XMLTag</text>
<text text-anchor="middle" x="487.5" y="-131" font-family="Helvetica,sans-Serif" font-size="10.00">::getFullName</text>
</a>
</g>
</g>
<!-- Node2&#45;&gt;Node6 -->
<g id="edge5_Node000002_Node000006" class="edge">
<title>Node2&#45;&gt;Node6</title>
<g id="a_edge5_Node000002_Node000006"><a xlink:title=" ">
<path fill="none" stroke="#63b8ff" d="M353.17,-163.44C373.24,-159.76 396.47,-155.5 417.87,-151.58"/>
<polygon fill="#63b8ff" stroke="#63b8ff" points="418.67,-154.99 427.88,-149.75 417.41,-148.11 418.67,-154.99"/>
</a>
</g>
</g>
<!-- Node4 -->
<g id="Node000004" class="node">
<title>Node4</title>
<g id="a_Node000004"><a target="_parent" xlink:href="http://en.cppreference.com/w/cpp/string/basic_string/empty.html#" xlink:title=" ">
<polygon fill="white" stroke="#666666" points="693,-234.5 590,-234.5 590,-215.5 693,-215.5 693,-234.5"/>
<text text-anchor="middle" x="641.5" y="-222.5" font-family="Helvetica,sans-Serif" font-size="10.00">std::string::empty</text>
</a>
</g>
</g>
<!-- Node3&#45;&gt;Node4 -->
<g id="edge3_Node000003_Node000004" class="edge">
<title>Node3&#45;&gt;Node4</title>
<g id="a_edge3_Node000003_Node000004"><a xlink:title=" ">
<path fill="none" stroke="#63b8ff" d="M547.27,-225C557.9,-225 569.01,-225 579.71,-225"/>
<polygon fill="#63b8ff" stroke="#63b8ff" points="579.8,-228.5 589.8,-225 579.8,-221.5 579.8,-228.5"/>
</a>
</g>
</g>
<!-- Node3&#45;&gt;Node5 -->
<g id="edge4_Node000003_Node000005" class="edge">
<title>Node3&#45;&gt;Node5</title>
<g id="a_edge4_Node000003_Node000005"><a xlink:title=" ">
<path fill="none" stroke="#63b8ff" d="M545.53,-209.99C561.7,-205.74 579.1,-201.16 594.52,-197.1"/>
<polygon fill="#63b8ff" stroke="#63b8ff" points="595.56,-200.44 604.34,-194.51 593.78,-193.67 595.56,-200.44"/>
</a>
</g>
</g>
<!-- Node8 -->
<g id="Node000008" class="node">
<title>Node8</title>
<g id="a_Node000008"><a xlink:href="namespaceprecice_1_1utils.html#a434eabaa71f97a31726281a4df77bbcf" target="_top" xlink:title="Returns true, if given element is in vector, otherwise false.">
<polygon fill="white" stroke="#666666" points="554,-105.5 421,-105.5 421,-86.5 554,-86.5 554,-105.5"/>
<text text-anchor="middle" x="487.5" y="-93.5" font-family="Helvetica,sans-Serif" font-size="10.00">precice::utils::contained</text>
</a>
</g>
</g>
<!-- Node7&#45;&gt;Node8 -->
<g id="edge8_Node000007_Node000008" class="edge">
<title>Node7&#45;&gt;Node8</title>
<g id="a_edge8_Node000007_Node000008"><a xlink:title=" ">
<path fill="none" stroke="#63b8ff" d="M385.07,-101.47C393.58,-101.01 402.2,-100.54 410.63,-100.09"/>
<polygon fill="#63b8ff" stroke="#63b8ff" points="410.99,-103.58 420.79,-99.54 410.62,-96.59 410.99,-103.58"/>
</a>
</g>
</g>
<!-- Node9 -->
<g id="Node000009" class="node">
<title>Node9</title>
<g id="a_Node000009"><a target="_parent" xlink:href="http://en.cppreference.com/w/cpp/container/vector/begin.html#" xlink:title=" ">
<polygon fill="white" stroke="#666666" points="692,-142.5 591,-142.5 591,-123.5 692,-123.5 692,-142.5"/>
<text text-anchor="middle" x="641.5" y="-130.5" font-family="Helvetica,sans-Serif" font-size="10.00">std::vector::begin</text>
</a>
</g>
</g>
<!-- Node8&#45;&gt;Node9 -->
<g id="edge9_Node000008_Node000009" class="edge">
<title>Node8&#45;&gt;Node9</title>
<g id="a_edge9_Node000008_Node000009"><a xlink:title=" ">
<path fill="none" stroke="#63b8ff" d="M527.64,-105.53C547.07,-110.26 570.74,-116.02 591.37,-121.04"/>
<polygon fill="#63b8ff" stroke="#63b8ff" points="590.68,-124.48 601.22,-123.44 592.34,-117.67 590.68,-124.48"/>
</a>
</g>
</g>
<!-- Node10 -->
<g id="Node000010" class="node">
<title>Node10</title>
<g id="a_Node000010"><a target="_parent" xlink:href="http://en.cppreference.com/w/cpp/container/vector/end.html#" xlink:title=" ">
<polygon fill="white" stroke="#666666" points="687.5,-105.5 595.5,-105.5 595.5,-86.5 687.5,-86.5 687.5,-105.5"/>
<text text-anchor="middle" x="641.5" y="-93.5" font-family="Helvetica,sans-Serif" font-size="10.00">std::vector::end</text>
</a>
</g>
</g>
<!-- Node8&#45;&gt;Node10 -->
<g id="edge10_Node000008_Node000010" class="edge">
<title>Node8&#45;&gt;Node10</title>
<g id="a_edge10_Node000008_Node000010"><a xlink:title=" ">
<path fill="none" stroke="#63b8ff" d="M554.29,-96C564.53,-96 575.02,-96 585.01,-96"/>
<polygon fill="#63b8ff" stroke="#63b8ff" points="585.19,-99.5 595.19,-96 585.19,-92.5 585.19,-99.5"/>
</a>
</g>
</g>
<!-- Node11 -->
<g id="Node000011" class="node">
<title>Node11</title>
<g id="a_Node000011"><a target="_parent" xlink:href="http://en.cppreference.com/w/cpp/algorithm/find.html#" xlink:title=" ">
<polygon fill="white" stroke="#666666" points="669.5,-68.5 613.5,-68.5 613.5,-49.5 669.5,-49.5 669.5,-68.5"/>
<text text-anchor="middle" x="641.5" y="-56.5" font-family="Helvetica,sans-Serif" font-size="10.00">std::find</text>
</a>
</g>
</g>
<!-- Node8&#45;&gt;Node11 -->
<g id="edge11_Node000008_Node000011" class="edge">
<title>Node8&#45;&gt;Node11</title>
<g id="a_edge11_Node000008_Node000011"><a xlink:title=" ">
<path fill="none" stroke="#63b8ff" d="M527.64,-86.47C551.09,-80.76 580.71,-73.55 603.72,-67.95"/>
<polygon fill="#63b8ff" stroke="#63b8ff" points="604.58,-71.35 613.47,-65.58 602.92,-64.55 604.58,-71.35"/>
</a>
</g>
</g>
<!-- Node14 -->
<g id="Node000014" class="node">
<title>Node14</title>
<g id="a_Node000014"><a target="_parent" xlink:href="http://en.cppreference.com/w/cpp/container/set/count.html#" xlink:title=" ">
<polygon fill="white" stroke="#666666" points="530.5,-24.5 444.5,-24.5 444.5,-5.5 530.5,-5.5 530.5,-24.5"/>
<text text-anchor="middle" x="487.5" y="-12.5" font-family="Helvetica,sans-Serif" font-size="10.00">std::set::count</text>
</a>
</g>
</g>
<!-- Node13&#45;&gt;Node14 -->
<g id="edge14_Node000013_Node000014" class="edge">
<title>Node13&#45;&gt;Node14</title>
<g id="a_edge14_Node000013_Node000014"><a xlink:title=" ">
<path fill="none" stroke="#63b8ff" d="M377.52,-15C396.63,-15 416.68,-15 434.3,-15"/>
<polygon fill="#63b8ff" stroke="#63b8ff" points="434.37,-18.5 444.37,-15 434.37,-11.5 434.37,-18.5"/>
</a>
</g>
</g>
</g>
</svg>

<g id="navigator" transform="translate(0 0)" fill="#404254">
  <rect fill="#f2f5e9" fill-opacity="0.5" stroke="#606060" stroke-width=".5" x="0" y="0" width="60" height="60"/>
  <use id="zoomplus" xlink:href="#zoomPlus" x="17" y="9" onmousedown="handleZoom(evt,'in')"/>
  <use id="zoomminus" xlink:href="#zoomMin" x="42" y="9" onmousedown="handleZoom(evt,'out')"/>
  <use id="reset" xlink:href="#resetDef" x="30" y="36" onmousedown="handleReset()"/>
   <use id="arrowup" xlink:href="#arrowUp" x="0" y="0" onmousedown="handlePan(0,-1)"/>
  <use id="arrowright" xlink:href="#arrowRight" x="0" y="0" onmousedown="handlePan(1,0)"/>
  <use id="arrowdown" xlink:href="#arrowDown" x="0" y="0" onmousedown="handlePan(0,1)"/>
  <use id="arrowleft" xlink:href="#arrowLeft" x="0" y="0" onmousedown="handlePan(-1,0)"/>
</g>
<svg viewBox="0 0 15 15" width="100%" height="30px" preserveAspectRatio="xMaxYMin meet">
 <g id="arrow_out" transform="scale(0.3 0.3)">
  <a xlink:href="structCompositionalCouplingSchemeFixture_ab539890bffa9a3dfa77a9d42e7988364_cgraph_org.svg" target="_base">
   <rect id="button" ry="5" rx="5" y="6" x="6" height="38" width="38"
        fill="#f2f5e9" fill-opacity="0.5" stroke="#606060" stroke-width="1.0"/>
   <path id="arrow"
     d="M 11.500037,31.436501 C 11.940474,20.09759 22.043105,11.32322 32.158766,21.979434 L 37.068811,17.246167 C 37.068811,17.246167 37.088388,32 37.088388,32 L 22.160133,31.978069 C 22.160133,31.978069 26.997745,27.140456 26.997745,27.140456 C 18.528582,18.264221 13.291696,25.230495 11.500037,31.436501 z"
     style="fill:#404040;"/>
  </a>
 </g>
</svg>

<style type='text/css'>
<![CDATA[
[data-mouse-over-selected='false'] { opacity: 0.7; }
[data-mouse-over-selected='true']  { opacity: 1.0; }
]]>
</style>
<script type="application/ecmascript"><![CDATA[
document.addEventListener('DOMContentLoaded', (event) => {
  highlightEdges();
  highlightAdjacentNodes();
});
]]></script>
</svg>
