<?xml version="1.0" encoding="UTF-8" standalone="no"?>
<!DOCTYPE svg PUBLIC "-//W3C//DTD SVG 1.1//EN"
 "http://www.w3.org/Graphics/SVG/1.1/DTD/svg11.dtd">
<!-- Generated by graphviz version 2.43.0 (0)
 -->
<!-- Title: precice::mesh::DataConfiguration::ConfiguredData Pages: 1 -->
<svg width="264pt" height="219pt"
 viewBox="0.00 0.00 263.50 219.00" xmlns="http://www.w3.org/2000/svg" xmlns:xlink="http://www.w3.org/1999/xlink">
<g id="graph0" class="graph" transform="scale(1 1) rotate(0) translate(4 215)">
<title>precice::mesh::DataConfiguration::ConfiguredData</title>
<!-- Node1 -->
<g id="Node000001" class="node">
<title>Node1</title>
<g id="a_Node000001"><a xlink:title=" ">
<polygon fill="#999999" stroke="#666666" points="205.5,-30 26.5,-30 26.5,0 205.5,0 205.5,-30"/>
<text text-anchor="start" x="34.5" y="-18" font-family="Helvetica,sans-Serif" font-size="10.00">precice::mesh::DataConfiguration</text>
<text text-anchor="middle" x="116" y="-7" font-family="Helvetica,sans-Serif" font-size="10.00">::ConfiguredData</text>
</a>
</g>
</g>
<!-- Node2 -->
<g id="Node000002" class="node">
<title>Node2</title>
<g id="a_Node000002"><a target="_parent" xlink:href="http://en.cppreference.com/w/cpp/string/basic_string.html" xlink:title=" ">
<polygon fill="white" stroke="#666666" points="88.5,-122.5 23.5,-122.5 23.5,-103.5 88.5,-103.5 88.5,-122.5"/>
<text text-anchor="middle" x="56" y="-110.5" font-family="Helvetica,sans-Serif" font-size="10.00">std::string</text>
</a>
</g>
</g>
<!-- Node2&#45;&gt;Node1 -->
<g id="edge1_Node000001_Node000002" class="edge">
<title>Node2&#45;&gt;Node1</title>
<g id="a_edge1_Node000001_Node000002"><a xlink:title=" ">
<path fill="none" stroke="#9a32cd" stroke-dasharray="5,2" d="M66.68,-94.92C78.2,-76.47 96.36,-47.42 107.13,-30.18"/>
<polygon fill="#9a32cd" stroke="#9a32cd" points="63.66,-93.15 61.32,-103.48 69.59,-96.86 63.66,-93.15"/>
</a>
</g>
<text text-anchor="start" x="98" y="-61" font-family="Helvetica,sans-Serif" font-size="10.00" fill="grey">name</text>
</g>
<!-- Node3 -->
<g id="Node000003" class="node">
<title>Node3</title>
<g id="a_Node000003"><a target="_parent" xlink:href="http://en.cppreference.com/w/cpp/string/basic_string.html" xlink:title=" ">
<polygon fill="white" stroke="#666666" points="104,-211 0,-211 0,-181 104,-181 104,-211"/>
<text text-anchor="start" x="8" y="-199" font-family="Helvetica,sans-Serif" font-size="10.00">std::basic_string&lt;</text>
<text text-anchor="middle" x="52" y="-188" font-family="Helvetica,sans-Serif" font-size="10.00"> Char &gt;</text>
</a>
</g>
</g>
<!-- Node3&#45;&gt;Node2 -->
<g id="edge2_Node000002_Node000003" class="edge">
<title>Node3&#45;&gt;Node2</title>
<g id="a_edge2_Node000002_Node000003"><a xlink:title=" ">
<path fill="none" stroke="#63b8ff" d="M53.21,-170.55C54,-154.45 55,-134.32 55.56,-122.94"/>
<polygon fill="#63b8ff" stroke="#63b8ff" points="49.69,-170.73 52.7,-180.89 56.69,-171.08 49.69,-170.73"/>
</a>
</g>
</g>
<!-- Node4 -->
<g id="Node000004" class="node">
<title>Node4</title>
<g id="a_Node000004"><a target="_parent" xlink:href="http://en.cppreference.com/w/cpp/container/vector.html" xlink:title=" ">
<polygon fill="white" stroke="#666666" points="255,-128 115,-128 115,-98 255,-98 255,-128"/>
<text text-anchor="start" x="123" y="-116" font-family="Helvetica,sans-Serif" font-size="10.00">std::vector&lt; std::optional</text>
<text text-anchor="middle" x="185" y="-105" font-family="Helvetica,sans-Serif" font-size="10.00">&lt; double &gt; &gt;</text>
</a>
</g>
</g>
<!-- Node4&#45;&gt;Node1 -->
<g id="edge3_Node000001_Node000004" class="edge">
<title>Node4&#45;&gt;Node1</title>
<g id="a_edge3_Node000001_Node000004"><a xlink:title=" ">
<path fill="none" stroke="#9a32cd" stroke-dasharray="5,2" d="M168.81,-89.47C155.64,-71.15 137.45,-45.85 126.22,-30.22"/>
<polygon fill="#9a32cd" stroke="#9a32cd" points="166.14,-91.76 174.82,-97.83 171.82,-87.67 166.14,-91.76"/>
</a>
</g>
<text text-anchor="start" x="164.5" y="-69" font-family="Helvetica,sans-Serif" font-size="10.00" fill="grey">lowerBound</text>
<text text-anchor="start" x="164.5" y="-54" font-family="Helvetica,sans-Serif" font-size="10.00" fill="grey">upperBound</text>
</g>
<!-- Node5 -->
<g id="Node000005" class="node">
<title>Node5</title>
<g id="a_Node000005"><a target="_parent" xlink:href="http://en.cppreference.com/w/cpp/utility/optional.html" xlink:title=" ">
<polygon fill="white" stroke="#666666" points="255.5,-205.5 122.5,-205.5 122.5,-186.5 255.5,-186.5 255.5,-205.5"/>
<text text-anchor="middle" x="189" y="-193.5" font-family="Helvetica,sans-Serif" font-size="10.00">std::optional&lt; double &gt;</text>
</a>
</g>
</g>
<!-- Node5&#45;&gt;Node4 -->
<g id="edge4_Node000004_Node000005" class="edge">
<title>Node5&#45;&gt;Node4</title>
<g id="a_edge4_Node000004_Node000005"><a xlink:title=" ">
<path fill="none" stroke="#9a32cd" stroke-dasharray="5,2" d="M188.06,-175.91C187.33,-161.22 186.35,-141.25 185.69,-128.01"/>
<polygon fill="#9a32cd" stroke="#9a32cd" points="184.58,-176.52 188.57,-186.33 191.57,-176.17 184.58,-176.52"/>
</a>
</g>
<text text-anchor="start" x="191" y="-151.5" font-family="Helvetica,sans-Serif" font-size="10.00" fill="grey">elements</text>
</g>
</g>
</svg>
