<?xml version="1.0" encoding="UTF-8" standalone="no"?>
<!DOCTYPE svg PUBLIC "-//W3C//DTD SVG 1.1//EN"
 "http://www.w3.org/Graphics/SVG/1.1/DTD/svg11.dtd">
<!-- Generated by graphviz version 2.43.0 (0)
 -->
<!-- Title: precice::mapping::NoCompactSupportBase Pages: 1 -->
<svg width="381pt" height="172pt"
 viewBox="0.00 0.00 381.00 172.00" xmlns="http://www.w3.org/2000/svg" xmlns:xlink="http://www.w3.org/1999/xlink">
<g id="graph0" class="graph" transform="scale(1 1) rotate(0) translate(4 168)">
<title>precice::mapping::NoCompactSupportBase</title>
<!-- Node1 -->
<g id="Node000001" class="node">
<title>Node1</title>
<g id="a_Node000001"><a xlink:title="Base class for RBF without compact support.">
<polygon fill="#999999" stroke="#666666" points="164,-99 0,-99 0,-69 164,-69 164,-99"/>
<text text-anchor="start" x="8" y="-87" font-family="Helvetica,sans-Serif" font-size="10.00">precice::mapping::NoCompact</text>
<text text-anchor="middle" x="82" y="-76" font-family="Helvetica,sans-Serif" font-size="10.00">SupportBase</text>
</a>
</g>
</g>
<!-- Node2 -->
<g id="Node000002" class="node">
<title>Node2</title>
<g id="a_Node000002"><a xlink:href="classprecice_1_1mapping_1_1InverseMultiquadrics.html" target="_top" xlink:title="Radial basis function with global support.">
<polygon fill="white" stroke="#666666" points="358,-164 215,-164 215,-134 358,-134 358,-164"/>
<text text-anchor="start" x="223" y="-152" font-family="Helvetica,sans-Serif" font-size="10.00">precice::mapping::Inverse</text>
<text text-anchor="middle" x="286.5" y="-141" font-family="Helvetica,sans-Serif" font-size="10.00">Multiquadrics</text>
</a>
</g>
</g>
<!-- Node1&#45;&gt;Node2 -->
<g id="edge1_Node000001_Node000002" class="edge">
<title>Node1&#45;&gt;Node2</title>
<g id="a_edge1_Node000001_Node000002"><a xlink:title=" ">
<path fill="none" stroke="#63b8ff" d="M133.42,-102.45C153.97,-109.77 178.03,-118.07 200,-125 209.56,-128.01 219.77,-131.04 229.7,-133.89"/>
<polygon fill="#63b8ff" stroke="#63b8ff" points="134.53,-99.14 123.94,-99.06 132.17,-105.73 134.53,-99.14"/>
</a>
</g>
</g>
<!-- Node3 -->
<g id="Node000003" class="node">
<title>Node3</title>
<g id="a_Node000003"><a xlink:href="classprecice_1_1mapping_1_1Multiquadrics.html" target="_top" xlink:title="Radial basis function with global support.">
<polygon fill="white" stroke="#666666" points="373,-115.5 200,-115.5 200,-96.5 373,-96.5 373,-115.5"/>
<text text-anchor="middle" x="286.5" y="-103.5" font-family="Helvetica,sans-Serif" font-size="10.00">precice::mapping::Multiquadrics</text>
</a>
</g>
</g>
<!-- Node1&#45;&gt;Node3 -->
<g id="edge2_Node000001_Node000003" class="edge">
<title>Node1&#45;&gt;Node3</title>
<g id="a_edge2_Node000001_Node000003"><a xlink:title=" ">
<path fill="none" stroke="#63b8ff" d="M174.21,-93.91C182.78,-94.84 191.46,-95.78 199.98,-96.71"/>
<polygon fill="#63b8ff" stroke="#63b8ff" points="174.52,-90.42 164.2,-92.82 173.76,-97.38 174.52,-90.42"/>
</a>
</g>
</g>
<!-- Node4 -->
<g id="Node000004" class="node">
<title>Node4</title>
<g id="a_Node000004"><a xlink:href="classprecice_1_1mapping_1_1ThinPlateSplines.html" target="_top" xlink:title="Radial basis function with global support.">
<polygon fill="white" stroke="#666666" points="362.5,-78 210.5,-78 210.5,-48 362.5,-48 362.5,-78"/>
<text text-anchor="start" x="218.5" y="-66" font-family="Helvetica,sans-Serif" font-size="10.00">precice::mapping::ThinPlate</text>
<text text-anchor="middle" x="286.5" y="-55" font-family="Helvetica,sans-Serif" font-size="10.00">Splines</text>
</a>
</g>
</g>
<!-- Node1&#45;&gt;Node4 -->
<g id="edge3_Node000001_Node000004" class="edge">
<title>Node1&#45;&gt;Node4</title>
<g id="a_edge3_Node000001_Node000004"><a xlink:title=" ">
<path fill="none" stroke="#63b8ff" d="M174.24,-74.54C186.26,-73.29 198.47,-72.02 210.19,-70.81"/>
<polygon fill="#63b8ff" stroke="#63b8ff" points="173.78,-71.07 164.2,-75.58 174.51,-78.03 173.78,-71.07"/>
</a>
</g>
</g>
<!-- Node5 -->
<g id="Node000005" class="node">
<title>Node5</title>
<g id="a_Node000005"><a xlink:href="classprecice_1_1mapping_1_1VolumeSplines.html" target="_top" xlink:title="Radial basis function with global support.">
<polygon fill="white" stroke="#666666" points="358,-30 215,-30 215,0 358,0 358,-30"/>
<text text-anchor="start" x="223" y="-18" font-family="Helvetica,sans-Serif" font-size="10.00">precice::mapping::Volume</text>
<text text-anchor="middle" x="286.5" y="-7" font-family="Helvetica,sans-Serif" font-size="10.00">Splines</text>
</a>
</g>
</g>
<!-- Node1&#45;&gt;Node5 -->
<g id="edge4_Node000001_Node000005" class="edge">
<title>Node1&#45;&gt;Node5</title>
<g id="a_edge4_Node000001_Node000005"><a xlink:title=" ">
<path fill="none" stroke="#63b8ff" d="M129.06,-65.14C150.46,-56.67 176.36,-46.85 200,-39 209.36,-35.89 219.39,-32.84 229.16,-30.01"/>
<polygon fill="#63b8ff" stroke="#63b8ff" points="127.56,-61.97 119.57,-68.92 130.15,-68.47 127.56,-61.97"/>
</a>
</g>
</g>
</g>
</svg>
