<?xml version="1.0" encoding="UTF-8" standalone="no"?>
<!DOCTYPE svg PUBLIC "-//W3C//DTD SVG 1.1//EN"
 "http://www.w3.org/Graphics/SVG/1.1/DTD/svg11.dtd">
<!-- Generated by graphviz version 2.43.0 (0)
 -->
<!-- Title: precice::impl::MeshContext Pages: 1 -->
<!--zoomable 167 -->

<svg id="main" version="1.1" xmlns="http://www.w3.org/2000/svg" xmlns:xlink="http://www.w3.org/1999/xlink" xml:space="preserve" onload="init(evt)">
<style type="text/css"><![CDATA[
.node, .edge {opacity: 0.7;}
.node.selected, .edge.selected {opacity: 1;}
.edge:hover path { stroke: red; }
.edge:hover polygon { stroke: red; fill: red; }
]]></style>

<defs>
  <circle id="rim" cx="0" cy="0" r="7"/>
  <circle id="rim2" cx="0" cy="0" r="3.5"/>
  <g id="zoomPlus">
    <use xlink:href="#rim" fill="#404040"><set attributeName="fill" to="#808080" begin="zoomplus.mouseover" end="zoomplus.mouseout"/></use>
    <path d="M-4,0h8M0,-4v8" fill="none" stroke="white" stroke-width="1.5" pointer-events="none"/>
  </g>
  <g id="zoomMin">
    <use xlink:href="#rim" fill="#404040"><set attributeName="fill" to="#808080" begin="zoomminus.mouseover" end="zoomminus.mouseout"/></use>
    <path d="M-4,0h8" fill="none" stroke="white" stroke-width="1.5" pointer-events="none"/>
  </g>
  <g id="arrowUp" transform="translate(30 24)">
    <use xlink:href="#rim"/>
    <path pointer-events="none" fill="none" stroke="white" stroke-width="1.5" d="M0,-3.0v7 M-2.5,-0.5L0,-3.0L2.5,-0.5"/>
  </g>
  <g id="arrowRight" transform="rotate(90) translate(36 -43)">
    <use xlink:href="#rim"/>
    <path pointer-events="none" fill="none" stroke="white" stroke-width="1.5" d="M0,-3.0v7 M-2.5,-0.5L0,-3.0L2.5,-0.5"/>
  </g>
  <g id="arrowDown" transform="rotate(180) translate(-30 -48)">
    <use xlink:href="#rim"/>
    <path pointer-events="none" fill="none" stroke="white" stroke-width="1.5" d="M0,-3.0v7 M-2.5,-0.5L0,-3.0L2.5,-0.5"/>
  </g>
  <g id="arrowLeft" transform="rotate(270) translate(-36 17)">
    <use xlink:href="#rim"/>
    <path pointer-events="none" fill="none" stroke="white" stroke-width="1.5" d="M0,-3.0v7 M-2.5,-0.5L0,-3.0L2.5,-0.5"/>
  </g>
  <g id="resetDef">
    <use xlink:href="#rim2" fill="#404040"><set attributeName="fill" to="#808080" begin="reset.mouseover" end="reset.mouseout"/></use>
  </g>
</defs>
<script type="application/ecmascript">
var viewWidth = 949;
var viewHeight = 167;
var sectionId = 'dynsection-0';
</script>
<script type="application/ecmascript" xlink:href="svg.min.js"/>
<svg id="graph" class="graph">
<g id="viewport">
<title>precice::impl::MeshContext</title>
<!-- Node1 -->
<g id="Node000001" class="node">
<title>Node1</title>
<g id="a_Node000001"><a xlink:title="Stores a mesh and related objects and data.">
<polygon fill="#999999" stroke="#666666" points="941,-103 791,-103 791,-84 941,-84 941,-103"/>
<text text-anchor="middle" x="866" y="-91" font-family="Helvetica,sans-Serif" font-size="10.00">precice::impl::MeshContext</text>
</a>
</g>
</g>
<!-- Node2 -->
<g id="Node000002" class="node">
<title>Node2</title>
<g id="a_Node000002"><a xlink:title=" ">
<polygon fill="white" stroke="#666666" points="636,-159 498,-159 498,-140 636,-140 636,-159"/>
<text text-anchor="middle" x="567" y="-147" font-family="Helvetica,sans-Serif" font-size="10.00">std::shared_ptr&lt; Mesh &gt;</text>
</a>
</g>
</g>
<!-- Node2&#45;&gt;Node1 -->
<g id="edge1_Node000001_Node000002" class="edge">
<title>Node2&#45;&gt;Node1</title>
<g id="a_edge1_Node000001_Node000002"><a xlink:title=" ">
<path fill="none" stroke="#9a32cd" stroke-dasharray="5,2" d="M646.39,-141.12C684.78,-136.32 731.56,-129.46 773,-120.5 794.48,-115.86 818.26,-108.82 836.27,-103.1"/>
<polygon fill="#9a32cd" stroke="#9a32cd" points="645.8,-137.66 636.3,-142.35 646.66,-144.61 645.8,-137.66"/>
</a>
</g>
<text text-anchor="middle" x="717" y="-141.5" font-family="Helvetica,sans-Serif" font-size="10.00" fill="grey"> mesh</text>
</g>
<!-- Node3 -->
<g id="Node000003" class="node">
<title>Node3</title>
<g id="a_Node000003"><a xlink:title=" ">
<polygon fill="white" stroke="#666666" points="599.5,-122 534.5,-122 534.5,-103 599.5,-103 599.5,-122"/>
<text text-anchor="middle" x="567" y="-110" font-family="Helvetica,sans-Serif" font-size="10.00">std::string</text>
</a>
</g>
</g>
<!-- Node3&#45;&gt;Node1 -->
<g id="edge2_Node000001_Node000003" class="edge">
<title>Node3&#45;&gt;Node1</title>
<g id="a_edge2_Node000001_Node000003"><a xlink:title=" ">
<path fill="none" stroke="#9a32cd" stroke-dasharray="5,2" d="M609.59,-109.84C656.43,-106.84 733.47,-101.91 790.71,-98.25"/>
<polygon fill="#9a32cd" stroke="#9a32cd" points="609.26,-106.35 599.5,-110.48 609.71,-113.34 609.26,-106.35"/>
</a>
</g>
<text text-anchor="middle" x="717" y="-108.5" font-family="Helvetica,sans-Serif" font-size="10.00" fill="grey"> receiveMeshFrom</text>
</g>
<!-- Node4 -->
<g id="Node000004" class="node">
<title>Node4</title>
<g id="a_Node000004"><a xlink:title=" ">
<polygon fill="white" stroke="#666666" points="375,-127.5 271,-127.5 271,-97.5 375,-97.5 375,-127.5"/>
<text text-anchor="start" x="279" y="-115.5" font-family="Helvetica,sans-Serif" font-size="10.00">std::basic_string&lt;</text>
<text text-anchor="middle" x="323" y="-104.5" font-family="Helvetica,sans-Serif" font-size="10.00"> Char &gt;</text>
</a>
</g>
</g>
<!-- Node4&#45;&gt;Node3 -->
<g id="edge3_Node000003_Node000004" class="edge">
<title>Node4&#45;&gt;Node3</title>
<g id="a_edge3_Node000003_Node000004"><a xlink:title=" ">
<path fill="none" stroke="#63b8ff" d="M385.19,-112.5C432.66,-112.5 496.53,-112.5 534.27,-112.5"/>
<polygon fill="#63b8ff" stroke="#63b8ff" points="385.03,-109 375.03,-112.5 385.03,-116 385.03,-109"/>
</a>
</g>
</g>
<!-- Node5 -->
<g id="Node000005" class="node">
<title>Node5</title>
<g id="a_Node000005"><a xlink:title=" ">
<polygon fill="white" stroke="#666666" points="643,-85 491,-85 491,-66 643,-66 643,-85"/>
<text text-anchor="middle" x="567" y="-73" font-family="Helvetica,sans-Serif" font-size="10.00">std::shared_ptr&lt; Partition &gt;</text>
</a>
</g>
</g>
<!-- Node5&#45;&gt;Node1 -->
<g id="edge4_Node000001_Node000005" class="edge">
<title>Node5&#45;&gt;Node1</title>
<g id="a_edge4_Node000001_Node000005"><a xlink:title=" ">
<path fill="none" stroke="#9a32cd" stroke-dasharray="5,2" d="M653.31,-74.66C690.18,-74.94 733.77,-76.15 773,-79.5 785.07,-80.53 797.97,-82.16 810.17,-83.95"/>
<polygon fill="#9a32cd" stroke="#9a32cd" points="653.12,-71.16 643.1,-74.6 653.08,-78.16 653.12,-71.16"/>
</a>
</g>
<text text-anchor="middle" x="717" y="-82.5" font-family="Helvetica,sans-Serif" font-size="10.00" fill="grey"> partition</text>
</g>
<!-- Node6 -->
<g id="Node000006" class="node">
<title>Node6</title>
<g id="a_Node000006"><a xlink:title=" ">
<polygon fill="white" stroke="#666666" points="638,-46.5 496,-46.5 496,-16.5 638,-16.5 638,-46.5"/>
<text text-anchor="start" x="504" y="-34.5" font-family="Helvetica,sans-Serif" font-size="10.00">std::vector&lt; precice</text>
<text text-anchor="middle" x="567" y="-23.5" font-family="Helvetica,sans-Serif" font-size="10.00">::impl::MappingContext &gt;</text>
</a>
</g>
</g>
<!-- Node6&#45;&gt;Node1 -->
<g id="edge5_Node000001_Node000006" class="edge">
<title>Node6&#45;&gt;Node1</title>
<g id="a_edge5_Node000001_Node000006"><a xlink:title=" ">
<path fill="none" stroke="#9a32cd" stroke-dasharray="5,2" d="M648.46,-31.3C686.77,-32.93 732.86,-37.44 773,-48.5 801.63,-56.39 832.06,-73.13 849.75,-83.82"/>
<polygon fill="#9a32cd" stroke="#9a32cd" points="648.51,-27.79 638.39,-30.92 648.26,-34.79 648.51,-27.79"/>
</a>
</g>
<text text-anchor="middle" x="717" y="-62.5" font-family="Helvetica,sans-Serif" font-size="10.00" fill="grey"> fromMappingContexts</text>
<text text-anchor="middle" x="717" y="-51.5" font-family="Helvetica,sans-Serif" font-size="10.00" fill="grey">toMappingContexts</text>
</g>
<!-- Node7 -->
<g id="Node000007" class="node">
<title>Node7</title>
<g id="a_Node000007"><a xlink:href="structprecice_1_1impl_1_1MappingContext.html" target="_top" xlink:title="Holds a data mapping and related information.">
<polygon fill="white" stroke="#666666" points="406,-41 240,-41 240,-22 406,-22 406,-41"/>
<text text-anchor="middle" x="323" y="-29" font-family="Helvetica,sans-Serif" font-size="10.00">precice::impl::MappingContext</text>
</a>
</g>
</g>
<!-- Node7&#45;&gt;Node6 -->
<g id="edge6_Node000006_Node000007" class="edge">
<title>Node7&#45;&gt;Node6</title>
<g id="a_edge6_Node000006_Node000007"><a xlink:title=" ">
<path fill="none" stroke="#9a32cd" stroke-dasharray="5,2" d="M416.61,-31.5C442.85,-31.5 470.97,-31.5 495.67,-31.5"/>
<polygon fill="#9a32cd" stroke="#9a32cd" points="416.27,-28 406.27,-31.5 416.27,-35 416.27,-28"/>
</a>
</g>
<text text-anchor="middle" x="448.5" y="-34.5" font-family="Helvetica,sans-Serif" font-size="10.00" fill="grey"> elements</text>
</g>
<!-- Node8 -->
<g id="Node000008" class="node">
<title>Node8</title>
<g id="a_Node000008"><a xlink:title=" ">
<polygon fill="white" stroke="#666666" points="154,-64 0,-64 0,-45 154,-45 154,-64"/>
<text text-anchor="middle" x="77" y="-52" font-family="Helvetica,sans-Serif" font-size="10.00">std::shared_ptr&lt; Mapping &gt;</text>
</a>
</g>
</g>
<!-- Node8&#45;&gt;Node7 -->
<g id="edge7_Node000007_Node000008" class="edge">
<title>Node8&#45;&gt;Node7</title>
<g id="a_edge7_Node000007_Node000008"><a xlink:title=" ">
<path fill="none" stroke="#9a32cd" stroke-dasharray="5,2" d="M164.2,-46.37C188.71,-44.06 215.33,-41.55 239.61,-39.27"/>
<polygon fill="#9a32cd" stroke="#9a32cd" points="163.83,-42.89 154.2,-47.32 164.48,-49.86 163.83,-42.89"/>
</a>
</g>
<text text-anchor="middle" x="197" y="-48.5" font-family="Helvetica,sans-Serif" font-size="10.00" fill="grey"> mapping</text>
</g>
<!-- Node9 -->
<g id="Node000009" class="node">
<title>Node9</title>
<g id="a_Node000009"><a xlink:title=" ">
<polygon fill="white" stroke="#666666" points="144.5,-19 9.5,-19 9.5,0 144.5,0 144.5,-19"/>
<text text-anchor="middle" x="77" y="-7" font-family="Helvetica,sans-Serif" font-size="10.00">std::shared_ptr&lt; Data &gt;</text>
</a>
</g>
</g>
<!-- Node9&#45;&gt;Node7 -->
<g id="edge8_Node000007_Node000009" class="edge">
<title>Node9&#45;&gt;Node7</title>
<g id="a_edge8_Node000007_Node000009"><a xlink:title=" ">
<path fill="none" stroke="#9a32cd" stroke-dasharray="5,2" d="M154.99,-7.2C176.71,-7.31 200.33,-8.17 222,-10.5 243.17,-12.77 266.46,-17.53 285.24,-21.94"/>
<polygon fill="#9a32cd" stroke="#9a32cd" points="154.83,-3.7 144.83,-7.19 154.83,-10.7 154.83,-3.7"/>
</a>
</g>
<text text-anchor="middle" x="197" y="-24.5" font-family="Helvetica,sans-Serif" font-size="10.00" fill="grey"> fromData</text>
<text text-anchor="middle" x="197" y="-13.5" font-family="Helvetica,sans-Serif" font-size="10.00" fill="grey">toData</text>
</g>
</g>
</svg>

<g id="navigator" transform="translate(0 0)" fill="#404254">
  <rect fill="#f2f5e9" fill-opacity="0.5" stroke="#606060" stroke-width=".5" x="0" y="0" width="60" height="60"/>
  <use id="zoomplus" xlink:href="#zoomPlus" x="17" y="9" onmousedown="handleZoom(evt,'in')"/>
  <use id="zoomminus" xlink:href="#zoomMin" x="42" y="9" onmousedown="handleZoom(evt,'out')"/>
  <use id="reset" xlink:href="#resetDef" x="30" y="36" onmousedown="handleReset()"/>
   <use id="arrowup" xlink:href="#arrowUp" x="0" y="0" onmousedown="handlePan(0,-1)"/>
  <use id="arrowright" xlink:href="#arrowRight" x="0" y="0" onmousedown="handlePan(1,0)"/>
  <use id="arrowdown" xlink:href="#arrowDown" x="0" y="0" onmousedown="handlePan(0,1)"/>
  <use id="arrowleft" xlink:href="#arrowLeft" x="0" y="0" onmousedown="handlePan(-1,0)"/>
</g>
<svg viewBox="0 0 15 15" width="100%" height="30px" preserveAspectRatio="xMaxYMin meet">
 <g id="arrow_out" transform="scale(0.3 0.3)">
  <a xlink:href="structprecice_1_1impl_1_1MeshContext__coll__graph_org.svg" target="_base">
   <rect id="button" ry="5" rx="5" y="6" x="6" height="38" width="38"
        fill="#f2f5e9" fill-opacity="0.5" stroke="#606060" stroke-width="1.0"/>
   <path id="arrow"
     d="M 11.500037,31.436501 C 11.940474,20.09759 22.043105,11.32322 32.158766,21.979434 L 37.068811,17.246167 C 37.068811,17.246167 37.088388,32 37.088388,32 L 22.160133,31.978069 C 22.160133,31.978069 26.997745,27.140456 26.997745,27.140456 C 18.528582,18.264221 13.291696,25.230495 11.500037,31.436501 z"
     style="fill:#404040;"/>
  </a>
 </g>
</svg>

<style type='text/css'>
<![CDATA[
[data-mouse-over-selected='false'] { opacity: 0.7; }
[data-mouse-over-selected='true']  { opacity: 1.0; }
]]>
</style>
<script type="application/ecmascript"><![CDATA[
document.addEventListener('DOMContentLoaded', (event) => {
  highlightEdges();
  highlightAdjacentNodes();
});
]]></script>
</svg>
