<?xml version="1.0" encoding="UTF-8" standalone="no"?>
<!DOCTYPE svg PUBLIC "-//W3C//DTD SVG 1.1//EN"
 "http://www.w3.org/Graphics/SVG/1.1/DTD/svg11.dtd">
<!-- Generated by graphviz version 2.43.0 (0)
 -->
<!-- Title: src/mesh/Tetrahedron.hpp Pages: 1 -->
<svg width="6449pt" height="374pt"
 viewBox="0.00 0.00 6448.50 374.00" xmlns="http://www.w3.org/2000/svg" xmlns:xlink="http://www.w3.org/1999/xlink">
<g id="graph0" class="graph" transform="scale(1 1) rotate(0) translate(4 370)">
<title>src/mesh/Tetrahedron.hpp</title>
<polygon fill="white" stroke="transparent" points="-4,4 -4,-370 6444.5,-370 6444.5,4 -4,4"/>
<!-- Node1 -->
<g id="node1" class="node">
<title>Node1</title>
<g id="a_node1"><a xlink:title=" ">
<polygon fill="#bfbfbf" stroke="black" points="3016,-346.5 3016,-365.5 3159,-365.5 3159,-346.5 3016,-346.5"/>
<text text-anchor="middle" x="3087.5" y="-353.5" font-family="Helvetica,sans-Serif" font-size="10.00">src/mesh/Tetrahedron.hpp</text>
</a>
</g>
</g>
<!-- Node2 -->
<g id="node2" class="node">
<title>Node2</title>
<g id="a_node2"><a xlink:href="ExportXML_8cpp.html" target="_top" xlink:title=" ">
<polygon fill="white" stroke="black" points="0,-78.5 0,-97.5 119,-97.5 119,-78.5 0,-78.5"/>
<text text-anchor="middle" x="59.5" y="-85.5" font-family="Helvetica,sans-Serif" font-size="10.00">src/io/ExportXML.cpp</text>
</a>
</g>
</g>
<!-- Node1&#45;&gt;Node2 -->
<g id="edge1" class="edge">
<title>Node1&#45;&gt;Node2</title>
<path fill="none" stroke="midnightblue" d="M3005.74,-354.45C2591.64,-351.55 735.31,-337.12 479.5,-310 325.91,-293.72 261.89,-335.91 138.5,-243 87.61,-204.68 66.83,-124.22 61.19,-97.69"/>
<polygon fill="midnightblue" stroke="midnightblue" points="3005.81,-357.95 3015.84,-354.52 3005.86,-350.95 3005.81,-357.95"/>
</g>
<!-- Node3 -->
<g id="node3" class="node">
<title>Node3</title>
<g id="a_node3"><a xlink:href="Polation_8hpp.html" target="_top" xlink:title=" ">
<polygon fill="white" stroke="black" points="488.5,-285 488.5,-304 628.5,-304 628.5,-285 488.5,-285"/>
<text text-anchor="middle" x="558.5" y="-292" font-family="Helvetica,sans-Serif" font-size="10.00">src/mapping/Polation.hpp</text>
</a>
</g>
</g>
<!-- Node1&#45;&gt;Node3 -->
<g id="edge2" class="edge">
<title>Node1&#45;&gt;Node3</title>
<path fill="none" stroke="midnightblue" d="M3005.65,-353.07C2619.98,-344 987.76,-305.6 628.59,-297.15"/>
<polygon fill="midnightblue" stroke="midnightblue" points="3005.81,-356.58 3015.89,-353.32 3005.97,-349.58 3005.81,-356.58"/>
</g>
<!-- Node22 -->
<g id="node12" class="node">
<title>Node22</title>
<g id="a_node12"><a xlink:href="Index_8hpp.html" target="_top" xlink:title=" ">
<polygon fill="white" stroke="red" points="1885,-218 1885,-237 1998,-237 1998,-218 1885,-218"/>
<text text-anchor="middle" x="1941.5" y="-225" font-family="Helvetica,sans-Serif" font-size="10.00">src/query/Index.hpp</text>
</a>
</g>
</g>
<!-- Node1&#45;&gt;Node22 -->
<g id="edge67" class="edge">
<title>Node1&#45;&gt;Node22</title>
<path fill="none" stroke="midnightblue" d="M3005.62,-345.96C2785.58,-321.67 2185.45,-255.43 1998.13,-234.75"/>
<polygon fill="midnightblue" stroke="midnightblue" points="3005.49,-349.47 3015.81,-347.09 3006.26,-342.51 3005.49,-349.47"/>
</g>
<!-- Node27 -->
<g id="node13" class="node">
<title>Node27</title>
<g id="a_node13"><a xlink:href="Mesh_8hpp.html" target="_top" xlink:title=" ">
<polygon fill="white" stroke="red" points="2941,-151 2941,-170 3052,-170 3052,-151 2941,-151"/>
<text text-anchor="middle" x="2996.5" y="-158" font-family="Helvetica,sans-Serif" font-size="10.00">src/mesh/Mesh.hpp</text>
</a>
</g>
</g>
<!-- Node1&#45;&gt;Node27 -->
<g id="edge62" class="edge">
<title>Node1&#45;&gt;Node27</title>
<path fill="none" stroke="midnightblue" d="M3079.19,-337.32C3060.3,-297.17 3014.73,-200.26 3000.69,-170.41"/>
<polygon fill="midnightblue" stroke="midnightblue" points="3076.05,-338.88 3083.47,-346.44 3082.38,-335.9 3076.05,-338.88"/>
</g>
<!-- Node166 -->
<g id="node47" class="node">
<title>Node166</title>
<g id="a_node47"><a xlink:href="Mesh_8cpp.html" target="_top" xlink:title=" ">
<polygon fill="white" stroke="black" points="6138.5,-78.5 6138.5,-97.5 6248.5,-97.5 6248.5,-78.5 6138.5,-78.5"/>
<text text-anchor="middle" x="6193.5" y="-85.5" font-family="Helvetica,sans-Serif" font-size="10.00">src/mesh/Mesh.cpp</text>
</a>
</g>
</g>
<!-- Node1&#45;&gt;Node166 -->
<g id="edge63" class="edge">
<title>Node1&#45;&gt;Node166</title>
<path fill="none" stroke="midnightblue" d="M3085.74,-336.3C3082.95,-294.1 3082.93,-191.55 3142.5,-145 3207.88,-93.91 6047.55,-122.01 6129.5,-109 6143.87,-106.72 6159.47,-101.9 6171.66,-97.56"/>
<polygon fill="midnightblue" stroke="midnightblue" points="3082.26,-336.6 3086.54,-346.29 3089.23,-336.05 3082.26,-336.6"/>
</g>
<!-- Node174 -->
<g id="node48" class="node">
<title>Node174</title>
<g id="a_node48"><a xlink:href="RTreeAdapter_8hpp.html" target="_top" xlink:title=" ">
<polygon fill="white" stroke="red" points="6266.5,-78.5 6266.5,-97.5 6440.5,-97.5 6440.5,-78.5 6266.5,-78.5"/>
<text text-anchor="middle" x="6353.5" y="-85.5" font-family="Helvetica,sans-Serif" font-size="10.00">src/query/impl/RTreeAdapter.hpp</text>
</a>
</g>
</g>
<!-- Node1&#45;&gt;Node174 -->
<g id="edge66" class="edge">
<title>Node1&#45;&gt;Node174</title>
<path fill="none" stroke="midnightblue" d="M3100.56,-338.32C3116,-320.03 3143.53,-291.61 3174.5,-279 3810.02,-20.32 5577.16,-198.11 6257.5,-109 6277.93,-106.32 6300.49,-101.71 6318.61,-97.59"/>
<polygon fill="midnightblue" stroke="midnightblue" points="3097.61,-336.41 3094,-346.37 3103.03,-340.83 3097.61,-336.41"/>
</g>
<!-- Node178 -->
<g id="node49" class="node">
<title>Node178</title>
<g id="a_node49"><a xlink:href="TetrahedronTest_8cpp.html" target="_top" xlink:title=" ">
<polygon fill="white" stroke="black" points="3184,-279.5 3184,-309.5 3333,-309.5 3333,-279.5 3184,-279.5"/>
<text text-anchor="start" x="3192" y="-297.5" font-family="Helvetica,sans-Serif" font-size="10.00">src/mesh/tests/Tetrahedron</text>
<text text-anchor="middle" x="3258.5" y="-286.5" font-family="Helvetica,sans-Serif" font-size="10.00">Test.cpp</text>
</a>
</g>
</g>
<!-- Node1&#45;&gt;Node178 -->
<g id="edge64" class="edge">
<title>Node1&#45;&gt;Node178</title>
<path fill="none" stroke="midnightblue" d="M3121.69,-343.1C3149.52,-333.42 3188.84,-319.74 3218.2,-309.52"/>
<polygon fill="midnightblue" stroke="midnightblue" points="3120.29,-339.88 3112,-346.48 3122.59,-346.49 3120.29,-339.88"/>
</g>
<!-- Node179 -->
<g id="node50" class="node">
<title>Node179</title>
<g id="a_node50"><a xlink:href="Tetrahedron_8cpp.html" target="_top" xlink:title=" ">
<polygon fill="white" stroke="black" points="3351.5,-285 3351.5,-304 3493.5,-304 3493.5,-285 3351.5,-285"/>
<text text-anchor="middle" x="3422.5" y="-292" font-family="Helvetica,sans-Serif" font-size="10.00">src/mesh/Tetrahedron.cpp</text>
</a>
</g>
</g>
<!-- Node1&#45;&gt;Node179 -->
<g id="edge65" class="edge">
<title>Node1&#45;&gt;Node179</title>
<path fill="none" stroke="midnightblue" d="M3145.67,-344.72C3197.16,-335.62 3274.33,-321.96 3341.5,-310 3352.33,-308.07 3363.97,-305.99 3374.96,-304.02"/>
<polygon fill="midnightblue" stroke="midnightblue" points="3144.96,-341.3 3135.73,-346.48 3146.18,-348.19 3144.96,-341.3"/>
</g>
<!-- Node4 -->
<g id="node4" class="node">
<title>Node4</title>
<g id="a_node4"><a xlink:href="BarycentricBaseMapping_8cpp.html" target="_top" xlink:title=" ">
<polygon fill="white" stroke="black" points="328,-73 328,-103 487,-103 487,-73 328,-73"/>
<text text-anchor="start" x="336" y="-91" font-family="Helvetica,sans-Serif" font-size="10.00">src/mapping/BarycentricBase</text>
<text text-anchor="middle" x="407.5" y="-80" font-family="Helvetica,sans-Serif" font-size="10.00">Mapping.cpp</text>
</a>
</g>
</g>
<!-- Node3&#45;&gt;Node4 -->
<g id="edge3" class="edge">
<title>Node3&#45;&gt;Node4</title>
<path fill="none" stroke="midnightblue" d="M478.32,-282.66C454.42,-275.36 430.6,-263.21 415.5,-243 383.94,-200.75 396.21,-132.33 403.55,-103.04"/>
<polygon fill="midnightblue" stroke="midnightblue" points="477.61,-286.1 488.19,-285.41 479.49,-279.36 477.61,-286.1"/>
</g>
<!-- Node5 -->
<g id="node5" class="node">
<title>Node5</title>
<g id="a_node5"><a xlink:href="BarycentricBaseMapping_8hpp.html" target="_top" xlink:title=" ">
<polygon fill="white" stroke="red" points="425,-212.5 425,-242.5 584,-242.5 584,-212.5 425,-212.5"/>
<text text-anchor="start" x="433" y="-230.5" font-family="Helvetica,sans-Serif" font-size="10.00">src/mapping/BarycentricBase</text>
<text text-anchor="middle" x="504.5" y="-219.5" font-family="Helvetica,sans-Serif" font-size="10.00">Mapping.hpp</text>
</a>
</g>
</g>
<!-- Node3&#45;&gt;Node5 -->
<g id="edge4" class="edge">
<title>Node3&#45;&gt;Node5</title>
<path fill="none" stroke="midnightblue" d="M544.78,-276.99C535.96,-266.36 524.61,-252.7 516.2,-242.59"/>
<polygon fill="midnightblue" stroke="midnightblue" points="542.13,-279.28 551.22,-284.73 547.52,-274.81 542.13,-279.28"/>
</g>
<!-- Node10 -->
<g id="node6" class="node">
<title>Node10</title>
<g id="a_node6"><a xlink:href="NearestProjectionMapping_8hpp.html" target="_top" xlink:title=" ">
<polygon fill="white" stroke="red" points="463,-145.5 463,-175.5 630,-175.5 630,-145.5 463,-145.5"/>
<text text-anchor="start" x="471" y="-163.5" font-family="Helvetica,sans-Serif" font-size="10.00">src/mapping/NearestProjection</text>
<text text-anchor="middle" x="546.5" y="-152.5" font-family="Helvetica,sans-Serif" font-size="10.00">Mapping.hpp</text>
</a>
</g>
</g>
<!-- Node3&#45;&gt;Node10 -->
<g id="edge8" class="edge">
<title>Node3&#45;&gt;Node10</title>
<path fill="none" stroke="midnightblue" d="M573.46,-276.79C580.74,-267.53 588.71,-255.41 592.5,-243 596.52,-229.82 597.47,-224.85 592.5,-212 586.93,-197.62 575.16,-184.82 564.92,-175.71"/>
<polygon fill="midnightblue" stroke="midnightblue" points="570.58,-274.78 566.86,-284.7 575.96,-279.26 570.58,-274.78"/>
</g>
<!-- Node11 -->
<g id="node7" class="node">
<title>Node11</title>
<g id="a_node7"><a xlink:href="NearestProjectionMapping_8cpp.html" target="_top" xlink:title=" ">
<polygon fill="white" stroke="black" points="505,-73 505,-103 672,-103 672,-73 505,-73"/>
<text text-anchor="start" x="513" y="-91" font-family="Helvetica,sans-Serif" font-size="10.00">src/mapping/NearestProjection</text>
<text text-anchor="middle" x="588.5" y="-80" font-family="Helvetica,sans-Serif" font-size="10.00">Mapping.cpp</text>
</a>
</g>
</g>
<!-- Node3&#45;&gt;Node11 -->
<g id="edge9" class="edge">
<title>Node3&#45;&gt;Node11</title>
<path fill="none" stroke="midnightblue" d="M576.85,-277.98C587.11,-268.62 599.59,-256.01 608.5,-243 626.94,-216.09 631.68,-207.91 638.5,-176 641.38,-162.53 643.41,-157.87 638.5,-145 632.09,-128.19 618.06,-113.23 606.49,-103.01"/>
<polygon fill="midnightblue" stroke="midnightblue" points="574.38,-275.5 569.2,-284.74 579.01,-280.74 574.38,-275.5"/>
</g>
<!-- Node14 -->
<g id="node8" class="node">
<title>Node14</title>
<g id="a_node8"><a xlink:href="Polation_8cpp.html" target="_top" xlink:title=" ">
<polygon fill="white" stroke="black" points="685.5,-218 685.5,-237 825.5,-237 825.5,-218 685.5,-218"/>
<text text-anchor="middle" x="755.5" y="-225" font-family="Helvetica,sans-Serif" font-size="10.00">src/mapping/Polation.cpp</text>
</a>
</g>
</g>
<!-- Node3&#45;&gt;Node14 -->
<g id="edge10" class="edge">
<title>Node3&#45;&gt;Node14</title>
<path fill="none" stroke="midnightblue" d="M594.56,-281.6C633.62,-268.71 694.97,-248.47 729.55,-237.06"/>
<polygon fill="midnightblue" stroke="midnightblue" points="593.06,-278.41 584.66,-284.87 595.25,-285.06 593.06,-278.41"/>
</g>
<!-- Node15 -->
<g id="node9" class="node">
<title>Node15</title>
<g id="a_node9"><a xlink:href="PolationTest_8cpp.html" target="_top" xlink:title=" ">
<polygon fill="white" stroke="black" points="147.5,-212.5 147.5,-242.5 293.5,-242.5 293.5,-212.5 147.5,-212.5"/>
<text text-anchor="start" x="155.5" y="-230.5" font-family="Helvetica,sans-Serif" font-size="10.00">src/mapping/tests/Polation</text>
<text text-anchor="middle" x="220.5" y="-219.5" font-family="Helvetica,sans-Serif" font-size="10.00">Test.cpp</text>
</a>
</g>
</g>
<!-- Node3&#45;&gt;Node15 -->
<g id="edge11" class="edge">
<title>Node3&#45;&gt;Node15</title>
<path fill="none" stroke="midnightblue" d="M504.05,-283.03C446.94,-272.05 356.88,-254.73 293.61,-242.56"/>
<polygon fill="midnightblue" stroke="midnightblue" points="503.48,-286.48 513.96,-284.94 504.81,-279.61 503.48,-286.48"/>
</g>
<!-- Node16 -->
<g id="node10" class="node">
<title>Node16</title>
<g id="a_node10"><a xlink:href="WatchPoint_8hpp.html" target="_top" xlink:title=" ">
<polygon fill="white" stroke="red" points="148,-151 148,-170 321,-170 321,-151 148,-151"/>
<text text-anchor="middle" x="234.5" y="-158" font-family="Helvetica,sans-Serif" font-size="10.00">src/precice/impl/WatchPoint.hpp</text>
</a>
</g>
</g>
<!-- Node3&#45;&gt;Node16 -->
<g id="edge12" class="edge">
<title>Node3&#45;&gt;Node16</title>
<path fill="none" stroke="midnightblue" d="M483.5,-283.27C441.55,-275.72 389.09,-263.15 345.5,-243 342.73,-241.72 273.89,-190.73 246.04,-170.06"/>
<polygon fill="midnightblue" stroke="midnightblue" points="482.92,-286.72 493.37,-284.99 484.12,-279.83 482.92,-286.72"/>
</g>
<!-- Node20 -->
<g id="node11" class="node">
<title>Node20</title>
<g id="a_node11"><a xlink:href="WatchPoint_8cpp.html" target="_top" xlink:title=" ">
<polygon fill="white" stroke="black" points="137.5,-78.5 137.5,-97.5 309.5,-97.5 309.5,-78.5 137.5,-78.5"/>
<text text-anchor="middle" x="223.5" y="-85.5" font-family="Helvetica,sans-Serif" font-size="10.00">src/precice/impl/WatchPoint.cpp</text>
</a>
</g>
</g>
<!-- Node3&#45;&gt;Node20 -->
<g id="edge14" class="edge">
<title>Node3&#45;&gt;Node20</title>
<path fill="none" stroke="midnightblue" d="M491.24,-282.76C460.47,-275.38 424.86,-263.12 397.5,-243 354.79,-211.59 369.18,-180.16 329.5,-145 304.73,-123.05 269.84,-106.77 246.95,-97.57"/>
<polygon fill="midnightblue" stroke="midnightblue" points="490.51,-286.19 501.04,-284.99 492.06,-279.36 490.51,-286.19"/>
</g>
<!-- Node3&#45;&gt;Node22 -->
<g id="edge15" class="edge">
<title>Node3&#45;&gt;Node22</title>
<path fill="none" stroke="midnightblue" d="M638.72,-289.73C891.61,-277.84 1668.24,-241.34 1884.87,-231.16"/>
<polygon fill="midnightblue" stroke="midnightblue" points="638.33,-286.24 628.51,-290.21 638.66,-293.24 638.33,-286.24"/>
</g>
<!-- Node5&#45;&gt;Node4 -->
<g id="edge5" class="edge">
<title>Node5&#45;&gt;Node4</title>
<path fill="none" stroke="midnightblue" d="M479.99,-205.15C471.02,-196.62 461.2,-186.37 453.5,-176 435.89,-152.26 421.07,-120.88 413.32,-103.02"/>
<polygon fill="midnightblue" stroke="midnightblue" points="477.85,-207.94 487.57,-212.16 482.6,-202.8 477.85,-207.94"/>
</g>
<!-- Node5&#45;&gt;Node10 -->
<g id="edge6" class="edge">
<title>Node5&#45;&gt;Node10</title>
<path fill="none" stroke="midnightblue" d="M519.12,-203.87C525.2,-194.46 532.07,-183.83 537.4,-175.58"/>
<polygon fill="midnightblue" stroke="midnightblue" points="516.1,-202.1 513.61,-212.4 521.98,-205.9 516.1,-202.1"/>
</g>
<!-- Node10&#45;&gt;Node11 -->
<g id="edge7" class="edge">
<title>Node10&#45;&gt;Node11</title>
<path fill="none" stroke="midnightblue" d="M560.17,-136.56C566.7,-125.59 574.32,-112.8 580.01,-103.25"/>
<polygon fill="midnightblue" stroke="midnightblue" points="557.11,-134.85 555,-145.23 563.12,-138.43 557.11,-134.85"/>
</g>
<!-- Node16&#45;&gt;Node20 -->
<g id="edge13" class="edge">
<title>Node16&#45;&gt;Node20</title>
<path fill="none" stroke="midnightblue" d="M231.59,-140.86C229.41,-126.9 226.53,-108.43 224.86,-97.72"/>
<polygon fill="midnightblue" stroke="midnightblue" points="228.15,-141.51 233.15,-150.86 235.07,-140.44 228.15,-141.51"/>
</g>
<!-- Node22&#45;&gt;Node4 -->
<g id="edge16" class="edge">
<title>Node22&#45;&gt;Node4</title>
<path fill="none" stroke="midnightblue" d="M1874.79,-225.39C1668.26,-221.05 1021.67,-200.54 495.5,-109 485.78,-107.31 475.51,-105.24 465.55,-103.08"/>
<polygon fill="midnightblue" stroke="midnightblue" points="1874.8,-228.89 1884.87,-225.6 1874.94,-221.9 1874.8,-228.89"/>
</g>
<!-- Node22&#45;&gt;Node11 -->
<g id="edge17" class="edge">
<title>Node22&#45;&gt;Node11</title>
<path fill="none" stroke="midnightblue" d="M1874.55,-220.49C1622.23,-197.8 740.04,-118.21 680.5,-109 670,-107.38 658.9,-105.29 648.18,-103.07"/>
<polygon fill="midnightblue" stroke="midnightblue" points="1874.4,-223.99 1884.68,-221.4 1875.03,-217.02 1874.4,-223.99"/>
</g>
<!-- Node22&#45;&gt;Node27 -->
<g id="edge18" class="edge">
<title>Node22&#45;&gt;Node27</title>
<path fill="none" stroke="midnightblue" d="M2008.26,-222.39C2201.99,-210.45 2761.81,-175.96 2940.78,-164.93"/>
<polygon fill="midnightblue" stroke="midnightblue" points="2007.99,-218.9 1998.22,-223.01 2008.42,-225.88 2007.99,-218.9"/>
</g>
<!-- Node22&#45;&gt;Node166 -->
<g id="edge61" class="edge">
<title>Node22&#45;&gt;Node166</title>
<path fill="none" stroke="midnightblue" d="M2008.24,-225.67C2234.11,-222.55 2961.22,-209.94 3060.5,-176 3083.14,-168.26 3081.74,-152.36 3104.5,-145 3264.41,-93.28 5963.51,-135.34 6129.5,-109 6143.87,-106.72 6159.47,-101.9 6171.66,-97.56"/>
<polygon fill="midnightblue" stroke="midnightblue" points="2008.14,-222.17 1998.19,-225.8 2008.24,-229.17 2008.14,-222.17"/>
</g>
<!-- Node27&#45;&gt;Node2 -->
<g id="edge48" class="edge">
<title>Node27&#45;&gt;Node2</title>
<path fill="none" stroke="midnightblue" d="M2930.6,-159.38C2528.54,-158.53 413.5,-152.03 128.5,-109 113.08,-106.67 96.27,-101.85 83.1,-97.52"/>
<polygon fill="midnightblue" stroke="midnightblue" points="2930.89,-162.88 2940.89,-159.4 2930.9,-155.88 2930.89,-162.88"/>
</g>
<!-- Node27&#45;&gt;Node4 -->
<g id="edge56" class="edge">
<title>Node27&#45;&gt;Node4</title>
<path fill="none" stroke="midnightblue" d="M2930.99,-158.97C2561.24,-155.9 743.13,-139.32 495.5,-109 484.3,-107.63 472.44,-105.45 461.18,-103.02"/>
<polygon fill="midnightblue" stroke="midnightblue" points="2930.96,-162.47 2940.99,-159.06 2931.02,-155.47 2930.96,-162.47"/>
</g>
<!-- Node27&#45;&gt;Node11 -->
<g id="edge57" class="edge">
<title>Node27&#45;&gt;Node11</title>
<path fill="none" stroke="midnightblue" d="M2930.81,-158.82C2577.32,-155.07 908.83,-136.05 680.5,-109 668.98,-107.63 656.77,-105.49 645.14,-103.1"/>
<polygon fill="midnightblue" stroke="midnightblue" points="2930.85,-162.32 2940.88,-158.93 2930.92,-155.32 2930.85,-162.32"/>
</g>
<!-- Node27&#45;&gt;Node20 -->
<g id="edge59" class="edge">
<title>Node27&#45;&gt;Node20</title>
<path fill="none" stroke="midnightblue" d="M2930.75,-159C2545.11,-155.99 584.92,-139.28 318.5,-109 297.73,-106.64 274.8,-101.87 256.66,-97.59"/>
<polygon fill="midnightblue" stroke="midnightblue" points="2930.87,-162.5 2940.9,-159.08 2930.93,-155.5 2930.87,-162.5"/>
</g>
<!-- Node28 -->
<g id="node14" class="node">
<title>Node28</title>
<g id="a_node14"><a xlink:href="BaseQNAcceleration_8cpp.html" target="_top" xlink:title=" ">
<polygon fill="white" stroke="black" points="5207,-78.5 5207,-97.5 5424,-97.5 5424,-78.5 5207,-78.5"/>
<text text-anchor="middle" x="5315.5" y="-85.5" font-family="Helvetica,sans-Serif" font-size="10.00">src/acceleration/BaseQNAcceleration.cpp</text>
</a>
</g>
</g>
<!-- Node27&#45;&gt;Node28 -->
<g id="edge19" class="edge">
<title>Node27&#45;&gt;Node28</title>
<path fill="none" stroke="midnightblue" d="M3041.18,-148.95C3049.55,-147.34 3058.26,-145.92 3066.5,-145 3536.13,-92.85 4721.86,-151.03 5192.5,-109 5219.33,-106.6 5249.15,-101.81 5272.71,-97.51"/>
<polygon fill="midnightblue" stroke="midnightblue" points="3040.29,-145.56 3031.19,-150.98 3041.68,-152.42 3040.29,-145.56"/>
</g>
<!-- Node29 -->
<g id="node15" class="node">
<title>Node29</title>
<g id="a_node15"><a xlink:href="AccelerationConfiguration_8cpp.html" target="_top" xlink:title=" ">
<polygon fill="white" stroke="black" points="5442.5,-73 5442.5,-103 5608.5,-103 5608.5,-73 5442.5,-73"/>
<text text-anchor="start" x="5450.5" y="-91" font-family="Helvetica,sans-Serif" font-size="10.00">src/acceleration/config</text>
<text text-anchor="middle" x="5525.5" y="-80" font-family="Helvetica,sans-Serif" font-size="10.00">/AccelerationConfiguration.cpp</text>
</a>
</g>
</g>
<!-- Node27&#45;&gt;Node29 -->
<g id="edge20" class="edge">
<title>Node27&#45;&gt;Node29</title>
<path fill="none" stroke="midnightblue" d="M3041.17,-148.94C3049.55,-147.33 3058.26,-145.91 3066.5,-145 3589.4,-87.39 4910.89,-169.17 5433.5,-109 5445.19,-107.65 5457.58,-105.48 5469.36,-103.06"/>
<polygon fill="midnightblue" stroke="midnightblue" points="3040.29,-145.54 3031.19,-150.96 3041.68,-152.4 3040.29,-145.54"/>
</g>
<!-- Node30 -->
<g id="node16" class="node">
<title>Node30</title>
<g id="a_node16"><a xlink:href="AccelerationIntraCommTest_8cpp.html" target="_top" xlink:title=" ">
<polygon fill="white" stroke="black" points="5627,-73 5627,-103 5802,-103 5802,-73 5627,-73"/>
<text text-anchor="start" x="5635" y="-91" font-family="Helvetica,sans-Serif" font-size="10.00">src/acceleration/test</text>
<text text-anchor="middle" x="5714.5" y="-80" font-family="Helvetica,sans-Serif" font-size="10.00">/AccelerationIntraCommTest.cpp</text>
</a>
</g>
</g>
<!-- Node27&#45;&gt;Node30 -->
<g id="edge21" class="edge">
<title>Node27&#45;&gt;Node30</title>
<path fill="none" stroke="midnightblue" d="M3041.17,-148.93C3049.55,-147.32 3058.26,-145.9 3066.5,-145 3630.07,-83.22 5053.9,-170.52 5617.5,-109 5629.89,-107.65 5643.05,-105.46 5655.53,-103.01"/>
<polygon fill="midnightblue" stroke="midnightblue" points="3040.29,-145.54 3031.19,-150.96 3041.68,-152.4 3040.29,-145.54"/>
</g>
<!-- Node31 -->
<g id="node17" class="node">
<title>Node31</title>
<g id="a_node17"><a xlink:href="ActionConfiguration_8cpp.html" target="_top" xlink:title=" ">
<polygon fill="white" stroke="black" points="5820.5,-73 5820.5,-103 5950.5,-103 5950.5,-73 5820.5,-73"/>
<text text-anchor="start" x="5828.5" y="-91" font-family="Helvetica,sans-Serif" font-size="10.00">src/action/config/Action</text>
<text text-anchor="middle" x="5885.5" y="-80" font-family="Helvetica,sans-Serif" font-size="10.00">Configuration.cpp</text>
</a>
</g>
</g>
<!-- Node27&#45;&gt;Node31 -->
<g id="edge22" class="edge">
<title>Node27&#45;&gt;Node31</title>
<path fill="none" stroke="midnightblue" d="M3041.17,-148.92C3049.54,-147.32 3058.26,-145.9 3066.5,-145 3672.95,-78.83 5207.29,-193.25 5811.5,-109 5820.99,-107.68 5831,-105.52 5840.48,-103.09"/>
<polygon fill="midnightblue" stroke="midnightblue" points="3040.29,-145.53 3031.18,-150.95 3041.68,-152.39 3040.29,-145.53"/>
</g>
<!-- Node32 -->
<g id="node18" class="node">
<title>Node32</title>
<g id="a_node18"><a xlink:href="PythonAction_8cpp.html" target="_top" xlink:title=" ">
<polygon fill="white" stroke="black" points="5968.5,-78.5 5968.5,-97.5 6120.5,-97.5 6120.5,-78.5 5968.5,-78.5"/>
<text text-anchor="middle" x="6044.5" y="-85.5" font-family="Helvetica,sans-Serif" font-size="10.00">src/action/PythonAction.cpp</text>
</a>
</g>
</g>
<!-- Node27&#45;&gt;Node32 -->
<g id="edge23" class="edge">
<title>Node27&#45;&gt;Node32</title>
<path fill="none" stroke="midnightblue" d="M3041.17,-148.92C3049.54,-147.31 3058.25,-145.9 3066.5,-145 3705.67,-75.47 5321.32,-187.1 5959.5,-109 5978.31,-106.7 5999.02,-101.88 6015.28,-97.54"/>
<polygon fill="midnightblue" stroke="midnightblue" points="3040.29,-145.53 3031.18,-150.94 3041.68,-152.39 3040.29,-145.53"/>
</g>
<!-- Node33 -->
<g id="node19" class="node">
<title>Node33</title>
<g id="a_node19"><a xlink:href="ScaleByAreaAction_8cpp.html" target="_top" xlink:title=" ">
<polygon fill="white" stroke="black" points="690,-78.5 690,-97.5 869,-97.5 869,-78.5 690,-78.5"/>
<text text-anchor="middle" x="779.5" y="-85.5" font-family="Helvetica,sans-Serif" font-size="10.00">src/action/ScaleByAreaAction.cpp</text>
</a>
</g>
</g>
<!-- Node27&#45;&gt;Node33 -->
<g id="edge24" class="edge">
<title>Node27&#45;&gt;Node33</title>
<path fill="none" stroke="midnightblue" d="M2930.86,-158.62C2596.05,-154.05 1086.3,-132.28 878.5,-109 856.89,-106.58 832.99,-101.81 814.08,-97.54"/>
<polygon fill="midnightblue" stroke="midnightblue" points="2930.83,-162.12 2940.88,-158.76 2930.93,-155.12 2930.83,-162.12"/>
</g>
<!-- Node34 -->
<g id="node20" class="node">
<title>Node34</title>
<g id="a_node20"><a xlink:href="SummationAction_8cpp.html" target="_top" xlink:title=" ">
<polygon fill="white" stroke="black" points="887.5,-78.5 887.5,-97.5 1061.5,-97.5 1061.5,-78.5 887.5,-78.5"/>
<text text-anchor="middle" x="974.5" y="-85.5" font-family="Helvetica,sans-Serif" font-size="10.00">src/action/SummationAction.cpp</text>
</a>
</g>
</g>
<!-- Node27&#45;&gt;Node34 -->
<g id="edge25" class="edge">
<title>Node27&#45;&gt;Node34</title>
<path fill="none" stroke="midnightblue" d="M2930.58,-159.36C2636.48,-158.48 1442.36,-152.26 1070.5,-109 1049.53,-106.56 1026.35,-101.79 1008.02,-97.52"/>
<polygon fill="midnightblue" stroke="midnightblue" points="2930.65,-162.86 2940.66,-159.39 2930.67,-155.86 2930.65,-162.86"/>
</g>
<!-- Node35 -->
<g id="node21" class="node">
<title>Node35</title>
<g id="a_node21"><a xlink:href="PythonActionTest_8cpp.html" target="_top" xlink:title=" ">
<polygon fill="white" stroke="black" points="1079.5,-73 1079.5,-103 1237.5,-103 1237.5,-73 1079.5,-73"/>
<text text-anchor="start" x="1087.5" y="-91" font-family="Helvetica,sans-Serif" font-size="10.00">src/action/tests/PythonAction</text>
<text text-anchor="middle" x="1158.5" y="-80" font-family="Helvetica,sans-Serif" font-size="10.00">Test.cpp</text>
</a>
</g>
</g>
<!-- Node27&#45;&gt;Node35 -->
<g id="edge26" class="edge">
<title>Node27&#45;&gt;Node35</title>
<path fill="none" stroke="midnightblue" d="M2930.34,-159.31C2652.81,-158.26 1581.41,-151.48 1246.5,-109 1235.46,-107.6 1223.78,-105.44 1212.66,-103.05"/>
<polygon fill="midnightblue" stroke="midnightblue" points="2930.64,-162.81 2940.65,-159.35 2930.67,-155.81 2930.64,-162.81"/>
</g>
<!-- Node36 -->
<g id="node22" class="node">
<title>Node36</title>
<g id="a_node22"><a xlink:href="ScaleActionTest_8cpp.html" target="_top" xlink:title=" ">
<polygon fill="white" stroke="black" points="1256,-73 1256,-103 1407,-103 1407,-73 1256,-73"/>
<text text-anchor="start" x="1264" y="-91" font-family="Helvetica,sans-Serif" font-size="10.00">src/action/tests/ScaleAction</text>
<text text-anchor="middle" x="1331.5" y="-80" font-family="Helvetica,sans-Serif" font-size="10.00">Test.cpp</text>
</a>
</g>
</g>
<!-- Node27&#45;&gt;Node36 -->
<g id="edge27" class="edge">
<title>Node27&#45;&gt;Node36</title>
<path fill="none" stroke="midnightblue" d="M2930.84,-159.14C2671.27,-157.46 1716.37,-148.67 1416.5,-109 1405.83,-107.59 1394.54,-105.42 1383.79,-103.03"/>
<polygon fill="midnightblue" stroke="midnightblue" points="2930.84,-162.64 2940.86,-159.21 2930.89,-155.64 2930.84,-162.64"/>
</g>
<!-- Node37 -->
<g id="node23" class="node">
<title>Node37</title>
<g id="a_node23"><a xlink:href="SummationActionTest_8cpp.html" target="_top" xlink:title=" ">
<polygon fill="white" stroke="black" points="1425.5,-73 1425.5,-103 1575.5,-103 1575.5,-73 1425.5,-73"/>
<text text-anchor="start" x="1433.5" y="-91" font-family="Helvetica,sans-Serif" font-size="10.00">src/action/tests/Summation</text>
<text text-anchor="middle" x="1500.5" y="-80" font-family="Helvetica,sans-Serif" font-size="10.00">ActionTest.cpp</text>
</a>
</g>
</g>
<!-- Node27&#45;&gt;Node37 -->
<g id="edge28" class="edge">
<title>Node27&#45;&gt;Node37</title>
<path fill="none" stroke="midnightblue" d="M2930.96,-158.76C2690.08,-155.78 1854.02,-143.17 1589.5,-109 1578.51,-107.58 1566.87,-105.44 1555.76,-103.08"/>
<polygon fill="midnightblue" stroke="midnightblue" points="2930.93,-162.26 2940.97,-158.88 2931.01,-155.26 2930.93,-162.26"/>
</g>
<!-- Node38 -->
<g id="node24" class="node">
<title>Node38</title>
<g id="a_node24"><a xlink:href="Extra_8hpp.html" target="_top" xlink:title=" ">
<polygon fill="white" stroke="red" points="1631.5,-78.5 1631.5,-97.5 1735.5,-97.5 1735.5,-78.5 1631.5,-78.5"/>
<text text-anchor="middle" x="1683.5" y="-85.5" font-family="Helvetica,sans-Serif" font-size="10.00">src/com/Extra.hpp</text>
</a>
</g>
</g>
<!-- Node27&#45;&gt;Node38 -->
<g id="edge29" class="edge">
<title>Node27&#45;&gt;Node38</title>
<path fill="none" stroke="midnightblue" d="M2930.66,-159.03C2707.34,-157.11 1979.92,-147.93 1749.5,-109 1734.98,-106.55 1719.18,-101.83 1706.67,-97.6"/>
<polygon fill="midnightblue" stroke="midnightblue" points="2930.87,-162.54 2940.9,-159.12 2930.93,-155.54 2930.87,-162.54"/>
</g>
<!-- Node40 -->
<g id="node25" class="node">
<title>Node40</title>
<g id="a_node25"><a xlink:href="CommunicateBoundingBoxTest_8cpp.html" target="_top" xlink:title=" ">
<polygon fill="white" stroke="black" points="1521,-0.5 1521,-30.5 1674,-30.5 1674,-0.5 1521,-0.5"/>
<text text-anchor="start" x="1529" y="-18.5" font-family="Helvetica,sans-Serif" font-size="10.00">src/com/tests/Communicate</text>
<text text-anchor="middle" x="1597.5" y="-7.5" font-family="Helvetica,sans-Serif" font-size="10.00">BoundingBoxTest.cpp</text>
</a>
</g>
</g>
<!-- Node27&#45;&gt;Node40 -->
<g id="edge34" class="edge">
<title>Node27&#45;&gt;Node40</title>
<path fill="none" stroke="midnightblue" d="M2930.44,-159.23C2663.22,-157.88 1674.18,-150.1 1622.5,-109 1598.93,-90.26 1596.19,-51.78 1596.61,-30.84"/>
<polygon fill="midnightblue" stroke="midnightblue" points="2930.74,-162.73 2940.76,-159.28 2930.77,-155.73 2930.74,-162.73"/>
</g>
<!-- Node41 -->
<g id="node26" class="node">
<title>Node41</title>
<g id="a_node26"><a xlink:href="CommunicateMeshTest_8cpp.html" target="_top" xlink:title=" ">
<polygon fill="white" stroke="black" points="1692,-0.5 1692,-30.5 1845,-30.5 1845,-0.5 1692,-0.5"/>
<text text-anchor="start" x="1700" y="-18.5" font-family="Helvetica,sans-Serif" font-size="10.00">src/com/tests/Communicate</text>
<text text-anchor="middle" x="1768.5" y="-7.5" font-family="Helvetica,sans-Serif" font-size="10.00">MeshTest.cpp</text>
</a>
</g>
</g>
<!-- Node27&#45;&gt;Node41 -->
<g id="edge35" class="edge">
<title>Node27&#45;&gt;Node41</title>
<path fill="none" stroke="midnightblue" d="M2930.38,-159.06C2683.21,-157.1 1825.49,-147.55 1782.5,-109 1760.61,-89.37 1762.68,-51.26 1765.77,-30.61"/>
<polygon fill="midnightblue" stroke="midnightblue" points="2930.62,-162.56 2940.65,-159.14 2930.67,-155.56 2930.62,-162.56"/>
</g>
<!-- Node48 -->
<g id="node27" class="node">
<title>Node48</title>
<g id="a_node27"><a xlink:href="SerializedMesh_8cpp.html" target="_top" xlink:title=" ">
<polygon fill="white" stroke="black" points="1791.5,-78.5 1791.5,-97.5 1943.5,-97.5 1943.5,-78.5 1791.5,-78.5"/>
<text text-anchor="middle" x="1867.5" y="-85.5" font-family="Helvetica,sans-Serif" font-size="10.00">src/com/SerializedMesh.cpp</text>
</a>
</g>
</g>
<!-- Node27&#45;&gt;Node48 -->
<g id="edge32" class="edge">
<title>Node27&#45;&gt;Node48</title>
<path fill="none" stroke="midnightblue" d="M2930.65,-157.89C2732.34,-152.79 2142.72,-135.75 1952.5,-109 1934.19,-106.42 1914.02,-101.76 1897.93,-97.59"/>
<polygon fill="midnightblue" stroke="midnightblue" points="2930.83,-161.4 2940.92,-158.15 2931.01,-154.4 2930.83,-161.4"/>
</g>
<!-- Node49 -->
<g id="node28" class="node">
<title>Node49</title>
<g id="a_node28"><a xlink:href="SerializedPartitioning_8hpp.html" target="_top" xlink:title=" ">
<polygon fill="white" stroke="red" points="1961.5,-78.5 1961.5,-97.5 2143.5,-97.5 2143.5,-78.5 1961.5,-78.5"/>
<text text-anchor="middle" x="2052.5" y="-85.5" font-family="Helvetica,sans-Serif" font-size="10.00">src/com/SerializedPartitioning.hpp</text>
</a>
</g>
</g>
<!-- Node27&#45;&gt;Node49 -->
<g id="edge33" class="edge">
<title>Node27&#45;&gt;Node49</title>
<path fill="none" stroke="midnightblue" d="M2930.64,-158.64C2788.15,-156.1 2440.81,-146.28 2152.5,-109 2131.25,-106.25 2107.75,-101.63 2088.87,-97.53"/>
<polygon fill="midnightblue" stroke="midnightblue" points="2930.89,-162.14 2940.95,-158.82 2931.01,-155.14 2930.89,-162.14"/>
</g>
<!-- Node51 -->
<g id="node29" class="node">
<title>Node51</title>
<g id="a_node29"><a xlink:href="BaseCouplingScheme_8cpp.html" target="_top" xlink:title=" ">
<polygon fill="white" stroke="black" points="2161.5,-73 2161.5,-103 2317.5,-103 2317.5,-73 2161.5,-73"/>
<text text-anchor="start" x="2169.5" y="-91" font-family="Helvetica,sans-Serif" font-size="10.00">src/cplscheme/BaseCoupling</text>
<text text-anchor="middle" x="2239.5" y="-80" font-family="Helvetica,sans-Serif" font-size="10.00">Scheme.cpp</text>
</a>
</g>
</g>
<!-- Node27&#45;&gt;Node51 -->
<g id="edge36" class="edge">
<title>Node27&#45;&gt;Node51</title>
<path fill="none" stroke="midnightblue" d="M2930.41,-157.82C2809.79,-154.02 2546.14,-142.33 2326.5,-109 2316.23,-107.44 2305.38,-105.33 2294.95,-103.06"/>
<polygon fill="midnightblue" stroke="midnightblue" points="2930.49,-161.32 2940.59,-158.13 2930.7,-154.33 2930.49,-161.32"/>
</g>
<!-- Node52 -->
<g id="node30" class="node">
<title>Node52</title>
<g id="a_node30"><a xlink:href="CouplingSchemeConfiguration_8cpp.html" target="_top" xlink:title=" ">
<polygon fill="white" stroke="black" points="2336,-73 2336,-103 2523,-103 2523,-73 2336,-73"/>
<text text-anchor="start" x="2344" y="-91" font-family="Helvetica,sans-Serif" font-size="10.00">src/cplscheme/config</text>
<text text-anchor="middle" x="2429.5" y="-80" font-family="Helvetica,sans-Serif" font-size="10.00">/CouplingSchemeConfiguration.cpp</text>
</a>
</g>
</g>
<!-- Node27&#45;&gt;Node52 -->
<g id="edge37" class="edge">
<title>Node27&#45;&gt;Node52</title>
<path fill="none" stroke="midnightblue" d="M2930.74,-154.14C2840.45,-146.38 2673.16,-130.54 2531.5,-109 2520.26,-107.29 2508.38,-105.21 2496.84,-103.05"/>
<polygon fill="midnightblue" stroke="midnightblue" points="2930.57,-157.64 2940.83,-155 2931.16,-150.66 2930.57,-157.64"/>
</g>
<!-- Node53 -->
<g id="node31" class="node">
<title>Node53</title>
<g id="a_node31"><a xlink:href="CouplingData_8cpp.html" target="_top" xlink:title=" ">
<polygon fill="white" stroke="black" points="2540.5,-78.5 2540.5,-97.5 2716.5,-97.5 2716.5,-78.5 2540.5,-78.5"/>
<text text-anchor="middle" x="2628.5" y="-85.5" font-family="Helvetica,sans-Serif" font-size="10.00">src/cplscheme/CouplingData.cpp</text>
</a>
</g>
</g>
<!-- Node27&#45;&gt;Node53 -->
<g id="edge38" class="edge">
<title>Node27&#45;&gt;Node53</title>
<path fill="none" stroke="midnightblue" d="M2939.07,-149.13C2884.18,-139.13 2799.11,-123.45 2725.5,-109 2706.94,-105.36 2686.42,-101.15 2669.05,-97.54"/>
<polygon fill="midnightblue" stroke="midnightblue" points="2938.5,-152.58 2948.96,-150.93 2939.75,-145.69 2938.5,-152.58"/>
</g>
<!-- Node54 -->
<g id="node32" class="node">
<title>Node54</title>
<g id="a_node32"><a xlink:href="MultiCouplingScheme_8cpp.html" target="_top" xlink:title=" ">
<polygon fill="white" stroke="black" points="2735,-73 2735,-103 2892,-103 2892,-73 2735,-73"/>
<text text-anchor="start" x="2743" y="-91" font-family="Helvetica,sans-Serif" font-size="10.00">src/cplscheme/MultiCoupling</text>
<text text-anchor="middle" x="2813.5" y="-80" font-family="Helvetica,sans-Serif" font-size="10.00">Scheme.cpp</text>
</a>
</g>
</g>
<!-- Node27&#45;&gt;Node54 -->
<g id="edge39" class="edge">
<title>Node27&#45;&gt;Node54</title>
<path fill="none" stroke="midnightblue" d="M2964.68,-147.24C2932.68,-134.91 2883.39,-115.92 2849.86,-103.01"/>
<polygon fill="midnightblue" stroke="midnightblue" points="2963.84,-150.67 2974.43,-151 2966.35,-144.14 2963.84,-150.67"/>
</g>
<!-- Node55 -->
<g id="node33" class="node">
<title>Node55</title>
<g id="a_node33"><a xlink:href="CompositionalCouplingSchemeTest_8cpp.html" target="_top" xlink:title=" ">
<polygon fill="white" stroke="black" points="2910.5,-67.5 2910.5,-108.5 3082.5,-108.5 3082.5,-67.5 2910.5,-67.5"/>
<text text-anchor="start" x="2918.5" y="-96.5" font-family="Helvetica,sans-Serif" font-size="10.00">src/cplscheme/tests</text>
<text text-anchor="start" x="2918.5" y="-85.5" font-family="Helvetica,sans-Serif" font-size="10.00">/CompositionalCouplingScheme</text>
<text text-anchor="middle" x="2996.5" y="-74.5" font-family="Helvetica,sans-Serif" font-size="10.00">Test.cpp</text>
</a>
</g>
</g>
<!-- Node27&#45;&gt;Node55 -->
<g id="edge40" class="edge">
<title>Node27&#45;&gt;Node55</title>
<path fill="none" stroke="midnightblue" d="M2996.5,-140.85C2996.5,-130.93 2996.5,-118.73 2996.5,-108.66"/>
<polygon fill="midnightblue" stroke="midnightblue" points="2993,-140.86 2996.5,-150.86 3000,-140.86 2993,-140.86"/>
</g>
<!-- Node56 -->
<g id="node34" class="node">
<title>Node56</title>
<g id="a_node34"><a xlink:href="ExplicitCouplingSchemeTest_8cpp.html" target="_top" xlink:title=" ">
<polygon fill="white" stroke="black" points="3101,-73 3101,-103 3278,-103 3278,-73 3101,-73"/>
<text text-anchor="start" x="3109" y="-91" font-family="Helvetica,sans-Serif" font-size="10.00">src/cplscheme/tests</text>
<text text-anchor="middle" x="3189.5" y="-80" font-family="Helvetica,sans-Serif" font-size="10.00">/ExplicitCouplingSchemeTest.cpp</text>
</a>
</g>
</g>
<!-- Node27&#45;&gt;Node56 -->
<g id="edge41" class="edge">
<title>Node27&#45;&gt;Node56</title>
<path fill="none" stroke="midnightblue" d="M3029.18,-147.56C3062.91,-135.24 3115.49,-116.04 3151.16,-103.01"/>
<polygon fill="midnightblue" stroke="midnightblue" points="3027.97,-144.28 3019.78,-151 3030.37,-150.85 3027.97,-144.28"/>
</g>
<!-- Node57 -->
<g id="node35" class="node">
<title>Node57</title>
<g id="a_node35"><a xlink:href="ParallelImplicitCouplingSchemeTest_8cpp.html" target="_top" xlink:title=" ">
<polygon fill="white" stroke="black" points="3296.5,-67.5 3296.5,-108.5 3470.5,-108.5 3470.5,-67.5 3296.5,-67.5"/>
<text text-anchor="start" x="3304.5" y="-96.5" font-family="Helvetica,sans-Serif" font-size="10.00">src/cplscheme/tests</text>
<text text-anchor="start" x="3304.5" y="-85.5" font-family="Helvetica,sans-Serif" font-size="10.00">/ParallelImplicitCouplingScheme</text>
<text text-anchor="middle" x="3383.5" y="-74.5" font-family="Helvetica,sans-Serif" font-size="10.00">Test.cpp</text>
</a>
</g>
</g>
<!-- Node27&#45;&gt;Node57 -->
<g id="edge42" class="edge">
<title>Node27&#45;&gt;Node57</title>
<path fill="none" stroke="midnightblue" d="M3046.26,-148.93C3053.05,-147.56 3059.94,-146.22 3066.5,-145 3163.92,-126.95 3189.07,-127.01 3286.5,-109 3289.71,-108.41 3292.98,-107.79 3296.28,-107.16"/>
<polygon fill="midnightblue" stroke="midnightblue" points="3045.52,-145.5 3036.42,-150.93 3046.92,-152.36 3045.52,-145.5"/>
</g>
<!-- Node58 -->
<g id="node36" class="node">
<title>Node58</title>
<g id="a_node36"><a xlink:href="SerialImplicitCouplingSchemeTest_8cpp.html" target="_top" xlink:title=" ">
<polygon fill="white" stroke="black" points="3488.5,-67.5 3488.5,-108.5 3654.5,-108.5 3654.5,-67.5 3488.5,-67.5"/>
<text text-anchor="start" x="3496.5" y="-96.5" font-family="Helvetica,sans-Serif" font-size="10.00">src/cplscheme/tests</text>
<text text-anchor="start" x="3496.5" y="-85.5" font-family="Helvetica,sans-Serif" font-size="10.00">/SerialImplicitCouplingScheme</text>
<text text-anchor="middle" x="3571.5" y="-74.5" font-family="Helvetica,sans-Serif" font-size="10.00">Test.cpp</text>
</a>
</g>
</g>
<!-- Node27&#45;&gt;Node58 -->
<g id="edge43" class="edge">
<title>Node27&#45;&gt;Node58</title>
<path fill="none" stroke="midnightblue" d="M3043.62,-148.95C3051.25,-147.47 3059.07,-146.09 3066.5,-145 3248.8,-118.27 3297.33,-136.63 3479.5,-109 3482.41,-108.56 3485.36,-108.08 3488.34,-107.57"/>
<polygon fill="midnightblue" stroke="midnightblue" points="3042.89,-145.53 3033.77,-150.93 3044.27,-152.39 3042.89,-145.53"/>
</g>
<!-- Node59 -->
<g id="node37" class="node">
<title>Node59</title>
<g id="a_node37"><a xlink:href="ExportCSV_8cpp.html" target="_top" xlink:title=" ">
<polygon fill="white" stroke="black" points="3672.5,-78.5 3672.5,-97.5 3788.5,-97.5 3788.5,-78.5 3672.5,-78.5"/>
<text text-anchor="middle" x="3730.5" y="-85.5" font-family="Helvetica,sans-Serif" font-size="10.00">src/io/ExportCSV.cpp</text>
</a>
</g>
</g>
<!-- Node27&#45;&gt;Node59 -->
<g id="edge44" class="edge">
<title>Node27&#45;&gt;Node59</title>
<path fill="none" stroke="midnightblue" d="M3042.55,-148.98C3050.5,-147.45 3058.71,-146.04 3066.5,-145 3329.99,-109.95 3401.75,-155.32 3663.5,-109 3678.08,-106.42 3693.98,-101.76 3706.63,-97.58"/>
<polygon fill="midnightblue" stroke="midnightblue" points="3041.77,-145.57 3032.66,-150.97 3043.16,-152.43 3041.77,-145.57"/>
</g>
<!-- Node60 -->
<g id="node38" class="node">
<title>Node60</title>
<g id="a_node38"><a xlink:href="ExportVTK_8cpp.html" target="_top" xlink:title=" ">
<polygon fill="white" stroke="black" points="3807,-78.5 3807,-97.5 3924,-97.5 3924,-78.5 3807,-78.5"/>
<text text-anchor="middle" x="3865.5" y="-85.5" font-family="Helvetica,sans-Serif" font-size="10.00">src/io/ExportVTK.cpp</text>
</a>
</g>
</g>
<!-- Node27&#45;&gt;Node60 -->
<g id="edge45" class="edge">
<title>Node27&#45;&gt;Node60</title>
<path fill="none" stroke="midnightblue" d="M3042.27,-148.96C3050.31,-147.41 3058.62,-146 3066.5,-145 3389.17,-103.89 3476.78,-163.27 3797.5,-109 3812.42,-106.47 3828.7,-101.76 3841.59,-97.54"/>
<polygon fill="midnightblue" stroke="midnightblue" points="3041.4,-145.56 3032.29,-150.97 3042.79,-152.43 3041.4,-145.56"/>
</g>
<!-- Node61 -->
<g id="node39" class="node">
<title>Node61</title>
<g id="a_node39"><a xlink:href="ExportVTP_8cpp.html" target="_top" xlink:title=" ">
<polygon fill="white" stroke="black" points="3942,-78.5 3942,-97.5 4057,-97.5 4057,-78.5 3942,-78.5"/>
<text text-anchor="middle" x="3999.5" y="-85.5" font-family="Helvetica,sans-Serif" font-size="10.00">src/io/ExportVTP.cpp</text>
</a>
</g>
</g>
<!-- Node27&#45;&gt;Node61 -->
<g id="edge46" class="edge">
<title>Node27&#45;&gt;Node61</title>
<path fill="none" stroke="midnightblue" d="M3041.73,-149.01C3049.93,-147.43 3058.44,-145.99 3066.5,-145 3449.26,-97.73 3553.26,-173.44 3933.5,-109 3948.02,-106.54 3963.82,-101.83 3976.32,-97.59"/>
<polygon fill="midnightblue" stroke="midnightblue" points="3041.03,-145.58 3031.92,-151 3042.42,-152.44 3041.03,-145.58"/>
</g>
<!-- Node62 -->
<g id="node40" class="node">
<title>Node62</title>
<g id="a_node40"><a xlink:href="ExportVTU_8cpp.html" target="_top" xlink:title=" ">
<polygon fill="white" stroke="black" points="4075.5,-78.5 4075.5,-97.5 4193.5,-97.5 4193.5,-78.5 4075.5,-78.5"/>
<text text-anchor="middle" x="4134.5" y="-85.5" font-family="Helvetica,sans-Serif" font-size="10.00">src/io/ExportVTU.cpp</text>
</a>
</g>
</g>
<!-- Node27&#45;&gt;Node62 -->
<g id="edge47" class="edge">
<title>Node27&#45;&gt;Node62</title>
<path fill="none" stroke="midnightblue" d="M3041.73,-148.97C3049.93,-147.39 3058.44,-145.97 3066.5,-145 3508.03,-91.71 3627.52,-180.3 4066.5,-109 4081.56,-106.55 4097.99,-101.78 4110.92,-97.52"/>
<polygon fill="midnightblue" stroke="midnightblue" points="3041.03,-145.54 3031.92,-150.96 3042.42,-152.4 3041.03,-145.54"/>
</g>
<!-- Node63 -->
<g id="node41" class="node">
<title>Node63</title>
<g id="a_node41"><a xlink:href="ExportCSVTest_8cpp.html" target="_top" xlink:title=" ">
<polygon fill="white" stroke="black" points="4211.5,-78.5 4211.5,-97.5 4375.5,-97.5 4375.5,-78.5 4211.5,-78.5"/>
<text text-anchor="middle" x="4293.5" y="-85.5" font-family="Helvetica,sans-Serif" font-size="10.00">src/io/tests/ExportCSVTest.cpp</text>
</a>
</g>
</g>
<!-- Node27&#45;&gt;Node63 -->
<g id="edge49" class="edge">
<title>Node27&#45;&gt;Node63</title>
<path fill="none" stroke="midnightblue" d="M3041.72,-148.94C3049.93,-147.37 3058.44,-145.96 3066.5,-145 3568.13,-85.55 3701.24,-171.48 4202.5,-109 4222.24,-106.54 4244.02,-101.83 4261.32,-97.59"/>
<polygon fill="midnightblue" stroke="midnightblue" points="3041.02,-145.51 3031.92,-150.93 3042.41,-152.38 3041.02,-145.51"/>
</g>
<!-- Node64 -->
<g id="node42" class="node">
<title>Node64</title>
<g id="a_node42"><a xlink:href="ExportVTKTest_8cpp.html" target="_top" xlink:title=" ">
<polygon fill="white" stroke="black" points="4394,-78.5 4394,-97.5 4557,-97.5 4557,-78.5 4394,-78.5"/>
<text text-anchor="middle" x="4475.5" y="-85.5" font-family="Helvetica,sans-Serif" font-size="10.00">src/io/tests/ExportVTKTest.cpp</text>
</a>
</g>
</g>
<!-- Node27&#45;&gt;Node64 -->
<g id="edge50" class="edge">
<title>Node27&#45;&gt;Node64</title>
<path fill="none" stroke="midnightblue" d="M3041.45,-148.97C3049.74,-147.37 3058.35,-145.95 3066.5,-145 3648.57,-77.3 3802.85,-180.21 4384.5,-109 4404.41,-106.56 4426.38,-101.79 4443.75,-97.52"/>
<polygon fill="midnightblue" stroke="midnightblue" points="3040.66,-145.56 3031.55,-150.97 3042.05,-152.42 3040.66,-145.56"/>
</g>
<!-- Node65 -->
<g id="node43" class="node">
<title>Node65</title>
<g id="a_node43"><a xlink:href="ExportVTPTest_8cpp.html" target="_top" xlink:title=" ">
<polygon fill="white" stroke="black" points="4575,-78.5 4575,-97.5 4738,-97.5 4738,-78.5 4575,-78.5"/>
<text text-anchor="middle" x="4656.5" y="-85.5" font-family="Helvetica,sans-Serif" font-size="10.00">src/io/tests/ExportVTPTest.cpp</text>
</a>
</g>
</g>
<!-- Node27&#45;&gt;Node65 -->
<g id="edge51" class="edge">
<title>Node27&#45;&gt;Node65</title>
<path fill="none" stroke="midnightblue" d="M3041.45,-148.94C3049.74,-147.35 3058.35,-145.93 3066.5,-145 3729.02,-69.06 3904.54,-189.71 4566.5,-109 4586.2,-106.6 4607.93,-101.83 4625.11,-97.55"/>
<polygon fill="midnightblue" stroke="midnightblue" points="3040.66,-145.53 3031.55,-150.95 3042.05,-152.39 3040.66,-145.53"/>
</g>
<!-- Node66 -->
<g id="node44" class="node">
<title>Node66</title>
<g id="a_node44"><a xlink:href="ExportVTUTest_8cpp.html" target="_top" xlink:title=" ">
<polygon fill="white" stroke="black" points="4756.5,-78.5 4756.5,-97.5 4920.5,-97.5 4920.5,-78.5 4756.5,-78.5"/>
<text text-anchor="middle" x="4838.5" y="-85.5" font-family="Helvetica,sans-Serif" font-size="10.00">src/io/tests/ExportVTUTest.cpp</text>
</a>
</g>
</g>
<!-- Node27&#45;&gt;Node66 -->
<g id="edge52" class="edge">
<title>Node27&#45;&gt;Node66</title>
<path fill="none" stroke="midnightblue" d="M3041.45,-148.93C3049.74,-147.34 3058.35,-145.92 3066.5,-145 3809.03,-60.86 4005.49,-197.63 4747.5,-109 4767.42,-106.62 4789.39,-101.85 4806.75,-97.57"/>
<polygon fill="midnightblue" stroke="midnightblue" points="3040.66,-145.52 3031.55,-150.93 3042.04,-152.38 3040.66,-145.52"/>
</g>
<!-- Node67 -->
<g id="node45" class="node">
<title>Node67</title>
<g id="a_node45"><a xlink:href="DistributedCommunication_8hpp.html" target="_top" xlink:title=" ">
<polygon fill="white" stroke="red" points="4939,-78.5 4939,-97.5 5150,-97.5 5150,-78.5 4939,-78.5"/>
<text text-anchor="middle" x="5044.5" y="-85.5" font-family="Helvetica,sans-Serif" font-size="10.00">src/m2n/DistributedCommunication.hpp</text>
</a>
</g>
</g>
<!-- Node27&#45;&gt;Node67 -->
<g id="edge53" class="edge">
<title>Node27&#45;&gt;Node67</title>
<path fill="none" stroke="midnightblue" d="M3041.18,-148.96C3049.55,-147.36 3058.26,-145.93 3066.5,-145 3889.49,-52.62 4105.14,-188.18 4929.5,-109 4954.61,-106.59 4982.5,-101.79 5004.52,-97.5"/>
<polygon fill="midnightblue" stroke="midnightblue" points="3040.29,-145.57 3031.19,-150.99 3041.69,-152.43 3040.29,-145.57"/>
</g>
<!-- Node120 -->
<g id="node46" class="node">
<title>Node120</title>
<g id="a_node46"><a xlink:href="GatherScatterCommunication_8cpp.html" target="_top" xlink:title=" ">
<polygon fill="white" stroke="black" points="4999.5,-6 4999.5,-25 5223.5,-25 5223.5,-6 4999.5,-6"/>
<text text-anchor="middle" x="5111.5" y="-13" font-family="Helvetica,sans-Serif" font-size="10.00">src/m2n/GatherScatterCommunication.cpp</text>
</a>
</g>
</g>
<!-- Node27&#45;&gt;Node120 -->
<g id="edge55" class="edge">
<title>Node27&#45;&gt;Node120</title>
<path fill="none" stroke="midnightblue" d="M3041.18,-148.95C3049.55,-147.34 3058.26,-145.92 3066.5,-145 3124.29,-138.57 5118.74,-150.47 5159.5,-109 5184.36,-83.71 5143.02,-42.92 5122.27,-25.19"/>
<polygon fill="midnightblue" stroke="midnightblue" points="3040.29,-145.56 3031.19,-150.98 3041.68,-152.42 3040.29,-145.56"/>
</g>
<!-- Node27&#45;&gt;Node166 -->
<g id="edge58" class="edge">
<title>Node27&#45;&gt;Node166</title>
<path fill="none" stroke="midnightblue" d="M3041.17,-148.91C3049.54,-147.31 3058.25,-145.89 3066.5,-145 3404.87,-108.31 5793.35,-162.32 6129.5,-109 6143.87,-106.72 6159.47,-101.9 6171.67,-97.56"/>
<polygon fill="midnightblue" stroke="midnightblue" points="3040.29,-145.52 3031.18,-150.94 3041.68,-152.38 3040.29,-145.52"/>
</g>
<!-- Node27&#45;&gt;Node174 -->
<g id="edge60" class="edge">
<title>Node27&#45;&gt;Node174</title>
<path fill="none" stroke="midnightblue" d="M3062.35,-151.73C3087.4,-149.09 3116.23,-146.45 3142.5,-145 3833.71,-106.76 5569.3,-183.95 6257.5,-109 6278.66,-106.7 6302.04,-101.87 6320.43,-97.54"/>
<polygon fill="midnightblue" stroke="midnightblue" points="3061.79,-148.27 3052.22,-152.81 3062.54,-155.23 3061.79,-148.27"/>
</g>
<!-- Node38&#45;&gt;Node40 -->
<g id="edge30" class="edge">
<title>Node38&#45;&gt;Node40</title>
<path fill="none" stroke="midnightblue" d="M1664.94,-71.78C1650.02,-59.55 1629.21,-42.5 1614.67,-30.58"/>
<polygon fill="midnightblue" stroke="midnightblue" points="1663,-74.72 1672.95,-78.36 1667.44,-69.31 1663,-74.72"/>
</g>
<!-- Node38&#45;&gt;Node41 -->
<g id="edge31" class="edge">
<title>Node38&#45;&gt;Node41</title>
<path fill="none" stroke="midnightblue" d="M1701.85,-71.78C1716.59,-59.55 1737.16,-42.5 1751.53,-30.58"/>
<polygon fill="midnightblue" stroke="midnightblue" points="1699.39,-69.28 1693.92,-78.36 1703.85,-74.67 1699.39,-69.28"/>
</g>
<!-- Node67&#45;&gt;Node120 -->
<g id="edge54" class="edge">
<title>Node67&#45;&gt;Node120</title>
<path fill="none" stroke="midnightblue" d="M5059.9,-70.8C5073.37,-56.62 5092.43,-36.56 5103.22,-25.22"/>
<polygon fill="midnightblue" stroke="midnightblue" points="5057.07,-68.7 5052.72,-78.36 5062.14,-73.52 5057.07,-68.7"/>
</g>
</g>
</svg>
