<?xml version="1.0" encoding="UTF-8" standalone="no"?>
<!DOCTYPE svg PUBLIC "-//W3C//DTD SVG 1.1//EN"
 "http://www.w3.org/Graphics/SVG/1.1/DTD/svg11.dtd">
<!-- Generated by graphviz version 2.43.0 (0)
 -->
<!-- Title: BOOST_AUTO_TEST_CASE Pages: 1 -->
<svg width="548pt" height="372pt"
 viewBox="0.00 0.00 548.00 371.50" xmlns="http://www.w3.org/2000/svg" xmlns:xlink="http://www.w3.org/1999/xlink">
<g id="graph0" class="graph" transform="scale(1 1) rotate(0) translate(4 367.5)">
<title>BOOST_AUTO_TEST_CASE</title>
<!-- Node1 -->
<g id="Node000001" class="node">
<title>Node1</title>
<g id="a_Node000001"><a xlink:title=" ">
<polygon fill="#999999" stroke="#666666" points="143,-136.5 0,-136.5 0,-117.5 143,-117.5 143,-136.5"/>
<text text-anchor="middle" x="71.5" y="-124.5" font-family="Helvetica,sans-Serif" font-size="10.00">BOOST_AUTO_TEST_CASE</text>
</a>
</g>
</g>
<!-- Node2 -->
<g id="Node000002" class="node">
<title>Node2</title>
<g id="a_Node000002"><a xlink:href="namespaceprecice_1_1testing.html#a0819eba8ac83ede1db16e724dd4f5458" target="_top" xlink:title="equals to be used in tests. Compares two std::vectors using a given tolerance. Prints both operands o...">
<polygon fill="white" stroke="#666666" points="327.5,-289.5 197.5,-289.5 197.5,-270.5 327.5,-270.5 327.5,-289.5"/>
<text text-anchor="middle" x="262.5" y="-277.5" font-family="Helvetica,sans-Serif" font-size="10.00">precice::testing::equals</text>
</a>
</g>
</g>
<!-- Node1&#45;&gt;Node2 -->
<g id="edge1_Node000001_Node000002" class="edge">
<title>Node1&#45;&gt;Node2</title>
<g id="a_edge1_Node000001_Node000002"><a xlink:title=" ">
<path fill="none" stroke="#63b8ff" d="M81.66,-136.72C99.47,-155.34 140.4,-196.89 179,-227 197.23,-241.22 219.35,-255.28 236.09,-265.33"/>
<polygon fill="#63b8ff" stroke="#63b8ff" points="234.39,-268.4 244.78,-270.49 237.96,-262.37 234.39,-268.4"/>
</a>
</g>
</g>
<!-- Node7 -->
<g id="Node000007" class="node">
<title>Node7</title>
<g id="a_Node000007"><a xlink:href="classprecice_1_1time_1_1TimeGrids.html#a2bfd2e94c9e281306852977cccd09f0c" target="_top" xlink:title=" ">
<polygon fill="white" stroke="#666666" points="331,-164 194,-164 194,-134 331,-134 331,-164"/>
<text text-anchor="start" x="202" y="-152" font-family="Helvetica,sans-Serif" font-size="10.00">precice::time::TimeGrids</text>
<text text-anchor="middle" x="262.5" y="-141" font-family="Helvetica,sans-Serif" font-size="10.00">::getTimeGridAfter</text>
</a>
</g>
</g>
<!-- Node1&#45;&gt;Node7 -->
<g id="edge7_Node000001_Node000007" class="edge">
<title>Node1&#45;&gt;Node7</title>
<g id="a_edge7_Node000001_Node000007"><a xlink:title=" ">
<path fill="none" stroke="#63b8ff" d="M143.15,-135.22C156.35,-136.76 170.21,-138.37 183.62,-139.93"/>
<polygon fill="#63b8ff" stroke="#63b8ff" points="183.42,-143.44 193.76,-141.11 184.23,-136.48 183.42,-143.44"/>
</a>
</g>
</g>
<!-- Node12 -->
<g id="Node000012" class="node">
<title>Node12</title>
<g id="a_Node000012"><a target="_parent" xlink:href="http://en.cppreference.com/w/cpp/container/vector/push_back.html#" xlink:title=" ">
<polygon fill="white" stroke="#666666" points="524,-67.5 398,-67.5 398,-48.5 524,-48.5 524,-67.5"/>
<text text-anchor="middle" x="461" y="-55.5" font-family="Helvetica,sans-Serif" font-size="10.00">std::vector::push_back</text>
</a>
</g>
</g>
<!-- Node1&#45;&gt;Node12 -->
<g id="edge19_Node000001_Node000012" class="edge">
<title>Node1&#45;&gt;Node12</title>
<g id="a_edge19_Node000001_Node000012"><a xlink:title=" ">
<path fill="none" stroke="#63b8ff" d="M143.2,-119.14C198.67,-112.37 277.68,-101.42 346,-87 362.25,-83.57 365.93,-81.19 382,-77 391.01,-74.65 400.64,-72.23 409.94,-69.94"/>
<polygon fill="#63b8ff" stroke="#63b8ff" points="410.97,-73.29 419.86,-67.52 409.31,-66.49 410.97,-73.29"/>
</a>
</g>
</g>
<!-- Node13 -->
<g id="Node000013" class="node">
<title>Node13</title>
<g id="a_Node000013"><a target="_parent" xlink:href="http://en.cppreference.com/w/cpp/container/map/insert.html#" xlink:title=" ">
<polygon fill="white" stroke="#666666" points="309,-77.5 216,-77.5 216,-58.5 309,-58.5 309,-77.5"/>
<text text-anchor="middle" x="262.5" y="-65.5" font-family="Helvetica,sans-Serif" font-size="10.00">std::map::insert</text>
</a>
</g>
</g>
<!-- Node1&#45;&gt;Node13 -->
<g id="edge14_Node000001_Node000013" class="edge">
<title>Node1&#45;&gt;Node13</title>
<g id="a_edge14_Node000001_Node000013"><a xlink:title=" ">
<path fill="none" stroke="#63b8ff" d="M100.89,-117.37C122.3,-110.19 152.41,-100.23 179,-92 191.59,-88.1 205.32,-84.03 217.9,-80.38"/>
<polygon fill="#63b8ff" stroke="#63b8ff" points="219.07,-83.69 227.7,-77.55 217.13,-76.96 219.07,-83.69"/>
</a>
</g>
</g>
<!-- Node14 -->
<g id="Node000014" class="node">
<title>Node14</title>
<g id="a_Node000014"><a xlink:href="classprecice_1_1time_1_1TimeGrids.html#afc2a4aef325ca77ed155b81f80593ee9" target="_top" xlink:title=" ">
<polygon fill="white" stroke="#666666" points="346,-218 179,-218 179,-188 346,-188 346,-218"/>
<text text-anchor="start" x="187" y="-206" font-family="Helvetica,sans-Serif" font-size="10.00">precice::time::TimeGrids</text>
<text text-anchor="middle" x="262.5" y="-195" font-family="Helvetica,sans-Serif" font-size="10.00">::moveTimeGridToNewWindow</text>
</a>
</g>
</g>
<!-- Node1&#45;&gt;Node14 -->
<g id="edge15_Node000001_Node000014" class="edge">
<title>Node1&#45;&gt;Node14</title>
<g id="a_edge15_Node000001_Node000014"><a xlink:title=" ">
<path fill="none" stroke="#63b8ff" d="M93.56,-136.53C114.94,-146.11 149.05,-161.1 179,-173 188.66,-176.84 199.03,-180.76 209.04,-184.45"/>
<polygon fill="#63b8ff" stroke="#63b8ff" points="207.91,-187.76 218.5,-187.91 210.31,-181.19 207.91,-187.76"/>
</a>
</g>
</g>
<!-- Node15 -->
<g id="Node000015" class="node">
<title>Node15</title>
<g id="a_Node000015"><a xlink:href="namespaceprecice_1_1testing.html#a08533fd83bad3d7f27ea7f4a35a14aa4" target="_top" xlink:title=" ">
<polygon fill="white" stroke="#666666" points="340.5,-28.5 184.5,-28.5 184.5,-9.5 340.5,-9.5 340.5,-28.5"/>
<text text-anchor="middle" x="262.5" y="-16.5" font-family="Helvetica,sans-Serif" font-size="10.00">precice::testing::nextMeshID</text>
</a>
</g>
</g>
<!-- Node1&#45;&gt;Node15 -->
<g id="edge17_Node000001_Node000015" class="edge">
<title>Node1&#45;&gt;Node15</title>
<g id="a_edge17_Node000001_Node000015"><a xlink:title=" ">
<path fill="none" stroke="#63b8ff" d="M83.3,-117.45C101.79,-101.5 141.2,-69.19 179,-49 191.53,-42.31 205.88,-36.51 219.06,-31.84"/>
<polygon fill="#63b8ff" stroke="#63b8ff" points="220.52,-35.04 228.86,-28.5 218.26,-28.42 220.52,-35.04"/>
</a>
</g>
</g>
<!-- Node2&#45;&gt;Node2 -->
<g id="edge5_Node000002_Node000002" class="edge">
<title>Node2&#45;&gt;Node2</title>
<g id="a_edge5_Node000002_Node000002"><a xlink:title=" ">
<path fill="none" stroke="#63b8ff" d="M233.22,-289.58C218.97,-298.23 228.73,-307.5 262.5,-307.5 285.72,-307.5 297.59,-303.12 298.11,-297.57"/>
<polygon fill="#63b8ff" stroke="#63b8ff" points="300.73,-295.25 291.78,-289.58 295.25,-299.6 300.73,-295.25"/>
</a>
</g>
</g>
<!-- Node3 -->
<g id="Node000003" class="node">
<title>Node3</title>
<g id="a_Node000003"><a target="_parent" xlink:href="http://en.cppreference.com/w/cpp/container/vector/begin.html#" xlink:title=" ">
<polygon fill="white" stroke="#666666" points="511.5,-363.5 410.5,-363.5 410.5,-344.5 511.5,-344.5 511.5,-363.5"/>
<text text-anchor="middle" x="461" y="-351.5" font-family="Helvetica,sans-Serif" font-size="10.00">std::vector::begin</text>
</a>
</g>
</g>
<!-- Node2&#45;&gt;Node3 -->
<g id="edge2_Node000002_Node000003" class="edge">
<title>Node2&#45;&gt;Node3</title>
<g id="a_edge2_Node000002_Node000003"><a xlink:title=" ">
<path fill="none" stroke="#63b8ff" d="M280.67,-289.56C303.29,-301.81 344.6,-323.02 382,-336 388.26,-338.17 394.9,-340.16 401.55,-341.96"/>
<polygon fill="#63b8ff" stroke="#63b8ff" points="400.72,-345.36 411.28,-344.46 402.46,-338.58 400.72,-345.36"/>
</a>
</g>
</g>
<!-- Node4 -->
<g id="Node000004" class="node">
<title>Node4</title>
<g id="a_Node000004"><a target="_parent" xlink:href="http://en.cppreference.com/w/cpp/algorithm/copy.html#" xlink:title=" ">
<polygon fill="white" stroke="#666666" points="491.5,-326.5 430.5,-326.5 430.5,-307.5 491.5,-307.5 491.5,-326.5"/>
<text text-anchor="middle" x="461" y="-314.5" font-family="Helvetica,sans-Serif" font-size="10.00">std::copy</text>
</a>
</g>
</g>
<!-- Node2&#45;&gt;Node4 -->
<g id="edge3_Node000002_Node000004" class="edge">
<title>Node2&#45;&gt;Node4</title>
<g id="a_edge3_Node000002_Node000004"><a xlink:title=" ">
<path fill="none" stroke="#63b8ff" d="M314.1,-289.53C347.21,-295.76 389.83,-303.79 420.44,-309.55"/>
<polygon fill="#63b8ff" stroke="#63b8ff" points="419.86,-313 430.34,-311.41 421.16,-306.12 419.86,-313"/>
</a>
</g>
</g>
<!-- Node5 -->
<g id="Node000005" class="node">
<title>Node5</title>
<g id="a_Node000005"><a target="_parent" xlink:href="http://en.cppreference.com/w/cpp/container/vector/end.html#" xlink:title=" ">
<polygon fill="white" stroke="#666666" points="507,-289.5 415,-289.5 415,-270.5 507,-270.5 507,-289.5"/>
<text text-anchor="middle" x="461" y="-277.5" font-family="Helvetica,sans-Serif" font-size="10.00">std::vector::end</text>
</a>
</g>
</g>
<!-- Node2&#45;&gt;Node5 -->
<g id="edge4_Node000002_Node000005" class="edge">
<title>Node2&#45;&gt;Node5</title>
<g id="a_edge4_Node000002_Node000005"><a xlink:title=" ">
<path fill="none" stroke="#63b8ff" d="M327.57,-280C352.56,-280 380.92,-280 404.96,-280"/>
<polygon fill="#63b8ff" stroke="#63b8ff" points="404.98,-283.5 414.98,-280 404.98,-276.5 404.98,-283.5"/>
</a>
</g>
</g>
<!-- Node6 -->
<g id="Node000006" class="node">
<title>Node6</title>
<g id="a_Node000006"><a target="_parent" xlink:href="http://en.cppreference.com/w/cpp/container/vector/size.html#" xlink:title=" ">
<polygon fill="white" stroke="#666666" points="508,-252.5 414,-252.5 414,-233.5 508,-233.5 508,-252.5"/>
<text text-anchor="middle" x="461" y="-240.5" font-family="Helvetica,sans-Serif" font-size="10.00">std::vector::size</text>
</a>
</g>
</g>
<!-- Node2&#45;&gt;Node6 -->
<g id="edge6_Node000002_Node000006" class="edge">
<title>Node2&#45;&gt;Node6</title>
<g id="a_edge6_Node000002_Node000006"><a xlink:title=" ">
<path fill="none" stroke="#63b8ff" d="M314.1,-270.47C341.55,-265.3 375.54,-258.9 403.81,-253.58"/>
<polygon fill="#63b8ff" stroke="#63b8ff" points="404.76,-256.96 413.94,-251.67 403.46,-250.08 404.76,-256.96"/>
</a>
</g>
</g>
<!-- Node7&#45;&gt;Node6 -->
<g id="edge13_Node000007_Node000006" class="edge">
<title>Node7&#45;&gt;Node6</title>
<g id="a_edge13_Node000007_Node000006"><a xlink:title=" ">
<path fill="none" stroke="#63b8ff" d="M318.49,-164.1C328.15,-168.09 337.74,-173 346,-179 367.01,-194.25 360.1,-211.06 382,-225 388.68,-229.25 396.24,-232.5 403.97,-234.98"/>
<polygon fill="#63b8ff" stroke="#63b8ff" points="403.22,-238.41 413.8,-237.74 405.12,-231.67 403.22,-238.41"/>
</a>
</g>
</g>
<!-- Node8 -->
<g id="Node000008" class="node">
<title>Node8</title>
<g id="a_Node000008"><a target="_parent" xlink:href="http://en.cppreference.com/w/cpp/container/map/at.html#" xlink:title=" ">
<polygon fill="white" stroke="#666666" points="498.5,-215.5 423.5,-215.5 423.5,-196.5 498.5,-196.5 498.5,-215.5"/>
<text text-anchor="middle" x="461" y="-203.5" font-family="Helvetica,sans-Serif" font-size="10.00">std::map::at</text>
</a>
</g>
</g>
<!-- Node7&#45;&gt;Node8 -->
<g id="edge8_Node000007_Node000008" class="edge">
<title>Node7&#45;&gt;Node8</title>
<g id="a_edge8_Node000007_Node000008"><a xlink:title=" ">
<path fill="none" stroke="#63b8ff" d="M305.99,-164.03C328.45,-171.7 356.55,-180.89 382,-188 392.14,-190.83 403.12,-193.57 413.54,-196.01"/>
<polygon fill="#63b8ff" stroke="#63b8ff" points="412.79,-199.43 423.32,-198.26 414.36,-192.61 412.79,-199.43"/>
</a>
</g>
</g>
<!-- Node9 -->
<g id="Node000009" class="node">
<title>Node9</title>
<g id="a_Node000009"><a target="_parent" xlink:href="http://en.cppreference.com/w/cpp/container/map/count.html#" xlink:title=" ">
<polygon fill="white" stroke="#666666" points="507,-178.5 415,-178.5 415,-159.5 507,-159.5 507,-178.5"/>
<text text-anchor="middle" x="461" y="-166.5" font-family="Helvetica,sans-Serif" font-size="10.00">std::map::count</text>
</a>
</g>
</g>
<!-- Node7&#45;&gt;Node9 -->
<g id="edge9_Node000007_Node000009" class="edge">
<title>Node7&#45;&gt;Node9</title>
<g id="a_edge9_Node000007_Node000009"><a xlink:title=" ">
<path fill="none" stroke="#63b8ff" d="M331.12,-155.88C355.1,-158.32 381.77,-161.04 404.6,-163.36"/>
<polygon fill="#63b8ff" stroke="#63b8ff" points="404.5,-166.87 414.8,-164.4 405.21,-159.9 404.5,-166.87"/>
</a>
</g>
</g>
<!-- Node10 -->
<g id="Node000010" class="node">
<title>Node10</title>
<g id="a_Node000010"><a target="_parent" xlink:href="http://en.cppreference.com/w/cpp/container/vector/data.html#" xlink:title=" ">
<polygon fill="white" stroke="#666666" points="509,-141.5 413,-141.5 413,-122.5 509,-122.5 509,-141.5"/>
<text text-anchor="middle" x="461" y="-129.5" font-family="Helvetica,sans-Serif" font-size="10.00">std::vector::data</text>
</a>
</g>
</g>
<!-- Node7&#45;&gt;Node10 -->
<g id="edge10_Node000007_Node000010" class="edge">
<title>Node7&#45;&gt;Node10</title>
<g id="a_edge10_Node000007_Node000010"><a xlink:title=" ">
<path fill="none" stroke="#63b8ff" d="M331.12,-143.15C354.52,-141.13 380.49,-138.88 402.95,-136.94"/>
<polygon fill="#63b8ff" stroke="#63b8ff" points="403.34,-140.42 413,-136.07 402.73,-133.44 403.34,-140.42"/>
</a>
</g>
</g>
<!-- Node11 -->
<g id="Node000011" class="node">
<title>Node11</title>
<g id="a_Node000011"><a xlink:href="namespaceprecice_1_1math.html#ab5fc218ddab783ccd97f7c14fc4ccab3" target="_top" xlink:title=" ">
<polygon fill="white" stroke="#666666" points="523.5,-104.5 398.5,-104.5 398.5,-85.5 523.5,-85.5 523.5,-104.5"/>
<text text-anchor="middle" x="461" y="-92.5" font-family="Helvetica,sans-Serif" font-size="10.00">precice::math::greater</text>
</a>
</g>
</g>
<!-- Node7&#45;&gt;Node11 -->
<g id="edge11_Node000007_Node000011" class="edge">
<title>Node7&#45;&gt;Node11</title>
<g id="a_edge11_Node000007_Node000011"><a xlink:title=" ">
<path fill="none" stroke="#63b8ff" d="M312.36,-133.99C333.68,-127.59 359.01,-120.19 382,-114 390.8,-111.63 400.19,-109.23 409.29,-106.98"/>
<polygon fill="#63b8ff" stroke="#63b8ff" points="410.14,-110.37 419.02,-104.59 408.47,-103.57 410.14,-110.37"/>
</a>
</g>
</g>
<!-- Node7&#45;&gt;Node12 -->
<g id="edge12_Node000007_Node000012" class="edge">
<title>Node7&#45;&gt;Node12</title>
<g id="a_edge12_Node000007_Node000012"><a xlink:title=" ">
<path fill="none" stroke="#63b8ff" d="M319.63,-133.87C328.86,-130.11 338.01,-125.53 346,-120 366.49,-105.81 360.83,-90.16 382,-77 385.43,-74.87 389.08,-72.97 392.87,-71.29"/>
<polygon fill="#63b8ff" stroke="#63b8ff" points="394.44,-74.43 402.48,-67.54 391.89,-67.92 394.44,-74.43"/>
</a>
</g>
</g>
<!-- Node14&#45;&gt;Node8 -->
<g id="edge16_Node000014_Node000008" class="edge">
<title>Node14&#45;&gt;Node8</title>
<g id="a_edge16_Node000014_Node000008"><a xlink:title=" ">
<path fill="none" stroke="#63b8ff" d="M346.26,-204.26C369.13,-204.61 393.14,-204.98 413.18,-205.29"/>
<polygon fill="#63b8ff" stroke="#63b8ff" points="413.22,-208.79 423.27,-205.44 413.32,-201.79 413.22,-208.79"/>
</a>
</g>
</g>
<!-- Node16 -->
<g id="Node000016" class="node">
<title>Node16</title>
<g id="a_Node000016"><a xlink:href="classprecice_1_1utils_1_1ManageUniqueIDs.html#a02be264c279698ae293587b6576088b5" target="_top" xlink:title=" ">
<polygon fill="white" stroke="#666666" points="540,-30 382,-30 382,0 540,0 540,-30"/>
<text text-anchor="start" x="390" y="-18" font-family="Helvetica,sans-Serif" font-size="10.00">precice::utils::ManageUnique</text>
<text text-anchor="middle" x="461" y="-7" font-family="Helvetica,sans-Serif" font-size="10.00">IDs::getFreeID</text>
</a>
</g>
</g>
<!-- Node15&#45;&gt;Node16 -->
<g id="edge18_Node000015_Node000016" class="edge">
<title>Node15&#45;&gt;Node16</title>
<g id="a_edge18_Node000015_Node000016"><a xlink:title=" ">
<path fill="none" stroke="#63b8ff" d="M340.6,-17.43C350.76,-17.22 361.24,-17.01 371.57,-16.8"/>
<polygon fill="#63b8ff" stroke="#63b8ff" points="371.91,-20.29 381.83,-16.59 371.76,-13.3 371.91,-20.29"/>
</a>
</g>
</g>
</g>
</svg>
