<?xml version="1.0" encoding="UTF-8" standalone="no"?>
<!DOCTYPE svg PUBLIC "-//W3C//DTD SVG 1.1//EN"
 "http://www.w3.org/Graphics/SVG/1.1/DTD/svg11.dtd">
<!-- Generated by graphviz version 2.43.0 (0)
 -->
<!-- Title: BOOST_AUTO_TEST_CASE Pages: 1 -->
<svg width="317pt" height="142pt"
 viewBox="0.00 0.00 317.00 141.50" xmlns="http://www.w3.org/2000/svg" xmlns:xlink="http://www.w3.org/1999/xlink">

<svg id="main" version="1.1" xmlns="http://www.w3.org/2000/svg" xmlns:xlink="http://www.w3.org/1999/xlink" xml:space="preserve" onload="init(evt)">
<style type="text/css"><![CDATA[
.node, .edge {opacity: 0.7;}
.node.selected, .edge.selected {opacity: 1;}
.edge:hover path { stroke: red; }
.edge:hover polygon { stroke: red; fill: red; }
]]></style>
<script type="application/ecmascript" xlink:href="svg.min.js"/>
<svg id="graph" class="graph">
<g id="graph0" class="graph" transform="scale(1 1) rotate(0) translate(4 137.5)">
<title>BOOST_AUTO_TEST_CASE</title>
<!-- Node1 -->
<g id="Node000001" class="node">
<title>Node1</title>
<g id="a_Node000001"><a xlink:title=" ">
<polygon fill="#999999" stroke="#666666" points="143,-72.5 0,-72.5 0,-53.5 143,-53.5 143,-72.5"/>
<text text-anchor="middle" x="71.5" y="-60.5" font-family="Helvetica,sans-Serif" font-size="10.00">BOOST_AUTO_TEST_CASE</text>
</a>
</g>
</g>
<!-- Node2 -->
<g id="Node000002" class="node">
<title>Node2</title>
<g id="a_Node000002"><a xlink:href="namespaceprecice_1_1testing.html#a0819eba8ac83ede1db16e724dd4f5458" target="_top" xlink:title="equals to be used in tests. Compares two std::vectors using a given tolerance. Prints both operands o...">
<polygon fill="white" stroke="#666666" points="309,-115.5 179,-115.5 179,-96.5 309,-96.5 309,-115.5"/>
<text text-anchor="middle" x="244" y="-103.5" font-family="Helvetica,sans-Serif" font-size="10.00">precice::testing::equals</text>
</a>
</g>
</g>
<!-- Node1&#45;&gt;Node2 -->
<g id="edge1_Node000001_Node000002" class="edge">
<title>Node1&#45;&gt;Node2</title>
<g id="a_edge1_Node000001_Node000002"><a xlink:title=" ">
<path fill="none" stroke="#63b8ff" d="M110.34,-72.54C135.39,-78.86 168.46,-87.2 195.31,-93.97"/>
<polygon fill="#63b8ff" stroke="#63b8ff" points="194.71,-97.43 205.27,-96.48 196.43,-90.64 194.71,-97.43"/>
</a>
</g>
</g>
<!-- Node3 -->
<g id="Node000003" class="node">
<title>Node3</title>
<g id="a_Node000003"><a xlink:href="classprecice_1_1io_1_1TXTReader.html#abb37aa7957a0737ac4ab7db88abdd585" target="_top" xlink:title="Reads the Eigen::Matrix from the file.">
<polygon fill="white" stroke="#666666" points="307,-78 181,-78 181,-48 307,-48 307,-78"/>
<text text-anchor="start" x="189" y="-66" font-family="Helvetica,sans-Serif" font-size="10.00">precice::io::TXTReader</text>
<text text-anchor="middle" x="244" y="-55" font-family="Helvetica,sans-Serif" font-size="10.00">::read</text>
</a>
</g>
</g>
<!-- Node1&#45;&gt;Node3 -->
<g id="edge3_Node000001_Node000003" class="edge">
<title>Node1&#45;&gt;Node3</title>
<g id="a_edge3_Node000001_Node000003"><a xlink:title=" ">
<path fill="none" stroke="#63b8ff" d="M143.33,-63C152.37,-63 161.63,-63 170.69,-63"/>
<polygon fill="#63b8ff" stroke="#63b8ff" points="170.82,-66.5 180.82,-63 170.82,-59.5 170.82,-66.5"/>
</a>
</g>
</g>
<!-- Node4 -->
<g id="Node000004" class="node">
<title>Node4</title>
<g id="a_Node000004"><a xlink:href="classprecice_1_1io_1_1TXTWriter.html#aa09836429e90382fd89c8e33102d54a2" target="_top" xlink:title="Writes (appends) the matrix to the file.">
<polygon fill="white" stroke="#666666" points="305,-30 183,-30 183,0 305,0 305,-30"/>
<text text-anchor="start" x="191" y="-18" font-family="Helvetica,sans-Serif" font-size="10.00">precice::io::TXTWriter</text>
<text text-anchor="middle" x="244" y="-7" font-family="Helvetica,sans-Serif" font-size="10.00">::write</text>
</a>
</g>
</g>
<!-- Node1&#45;&gt;Node4 -->
<g id="edge4_Node000001_Node000004" class="edge">
<title>Node1&#45;&gt;Node4</title>
<g id="a_edge4_Node000001_Node000004"><a xlink:title=" ">
<path fill="none" stroke="#63b8ff" d="M106.59,-53.4C127.53,-47.51 154.99,-39.78 179.78,-32.8"/>
<polygon fill="#63b8ff" stroke="#63b8ff" points="180.82,-36.14 189.49,-30.06 178.92,-29.4 180.82,-36.14"/>
</a>
</g>
</g>
<!-- Node2&#45;&gt;Node2 -->
<g id="edge2_Node000002_Node000002" class="edge">
<title>Node2&#45;&gt;Node2</title>
<g id="a_edge2_Node000002_Node000002"><a xlink:title=" ">
<path fill="none" stroke="#63b8ff" d="M217.49,-115.58C204.59,-124.23 213.43,-133.5 244,-133.5 264.54,-133.5 275.27,-129.32 276.19,-123.95"/>
<polygon fill="#63b8ff" stroke="#63b8ff" points="279.02,-121.89 270.51,-115.58 273.23,-125.82 279.02,-121.89"/>
</a>
</g>
</g>
</g>
</svg>
</svg>

<style type='text/css'>
<![CDATA[
[data-mouse-over-selected='false'] { opacity: 0.7; }
[data-mouse-over-selected='true']  { opacity: 1.0; }
]]>
</style>
<script type="application/ecmascript"><![CDATA[
document.addEventListener('DOMContentLoaded', (event) => {
  highlightEdges();
  highlightAdjacentNodes();
});
]]></script>
</svg>
