<?xml version="1.0" encoding="UTF-8" standalone="no"?>
<!DOCTYPE svg PUBLIC "-//W3C//DTD SVG 1.1//EN"
 "http://www.w3.org/Graphics/SVG/1.1/DTD/svg11.dtd">
<!-- Generated by graphviz version 2.43.0 (0)
 -->
<!-- Title: BOOST_AUTO_TEST_CASE Pages: 1 -->
<svg width="704pt" height="421pt"
 viewBox="0.00 0.00 704.00 420.50" xmlns="http://www.w3.org/2000/svg" xmlns:xlink="http://www.w3.org/1999/xlink">
<g id="graph0" class="graph" transform="scale(1 1) rotate(0) translate(4 416.5)">
<title>BOOST_AUTO_TEST_CASE</title>
<polygon fill="white" stroke="transparent" points="-4,4 -4,-416.5 700,-416.5 700,4 -4,4"/>
<!-- Node1 -->
<g id="node1" class="node">
<title>Node1</title>
<g id="a_node1"><a xlink:title=" ">
<polygon fill="#bfbfbf" stroke="black" points="0,-251 0,-270 143,-270 143,-251 0,-251"/>
<text text-anchor="middle" x="71.5" y="-258" font-family="Helvetica,sans-Serif" font-size="10.00">BOOST_AUTO_TEST_CASE</text>
</a>
</g>
</g>
<!-- Node2 -->
<g id="node2" class="node">
<title>Node2</title>
<g id="a_node2"><a xlink:href="namespaceprecice_1_1math.html#a0e86802cfe992deba131d789d035b5b7" target="_top" xlink:title="Compares two Eigen::MatrixBase for equality up to tolerance.">
<polygon fill="white" stroke="black" points="389,-393 389,-412 511,-412 511,-393 389,-393"/>
<text text-anchor="middle" x="450" y="-400" font-family="Helvetica,sans-Serif" font-size="10.00">precice::math::equals</text>
</a>
</g>
</g>
<!-- Node1&#45;&gt;Node2 -->
<g id="edge1" class="edge">
<title>Node1&#45;&gt;Node2</title>
<path fill="none" stroke="midnightblue" d="M77.89,-270.27C91.37,-293.63 129.09,-352.63 179,-377.5 241.27,-408.53 321.64,-412.07 378.45,-409.51"/>
<polygon fill="midnightblue" stroke="midnightblue" points="378.97,-412.99 388.77,-408.97 378.6,-406 378.97,-412.99"/>
</g>
<!-- Node3 -->
<g id="node3" class="node">
<title>Node3</title>
<g id="a_node3"><a xlink:href="namespaceprecice_1_1testing.html#a6a116337529290bbb1bf2545b5fb315a" target="_top" xlink:title="equals to be used in tests. Compares two matrices using a given tolerance. Prints both operands on fa...">
<polygon fill="white" stroke="black" points="192,-349 192,-368 322,-368 322,-349 192,-349"/>
<text text-anchor="middle" x="257" y="-356" font-family="Helvetica,sans-Serif" font-size="10.00">precice::testing::equals</text>
</a>
</g>
</g>
<!-- Node1&#45;&gt;Node3 -->
<g id="edge2" class="edge">
<title>Node1&#45;&gt;Node3</title>
<path fill="none" stroke="midnightblue" d="M83.9,-270.2C102.63,-285.71 141.58,-316.21 179,-334.5 187.96,-338.88 197.9,-342.68 207.58,-345.89"/>
<polygon fill="midnightblue" stroke="midnightblue" points="206.53,-349.23 217.12,-348.89 208.63,-342.55 206.53,-349.23"/>
</g>
<!-- Node4 -->
<g id="node4" class="node">
<title>Node4</title>
<g id="a_node4"><a xlink:href="classprecice_1_1impl_1_1WatchPoint.html#a23a7d62e98b787c8d4e2b25226b2b12d" target="_top" xlink:title="Writes one line with data of the watchpoint into the output file.">
<polygon fill="white" stroke="black" points="187,-294.5 187,-324.5 327,-324.5 327,-294.5 187,-294.5"/>
<text text-anchor="start" x="195" y="-312.5" font-family="Helvetica,sans-Serif" font-size="10.00">precice::impl::WatchPoint</text>
<text text-anchor="middle" x="257" y="-301.5" font-family="Helvetica,sans-Serif" font-size="10.00">::exportPointData</text>
</a>
</g>
</g>
<!-- Node1&#45;&gt;Node4 -->
<g id="edge4" class="edge">
<title>Node1&#45;&gt;Node4</title>
<path fill="none" stroke="midnightblue" d="M108.32,-270.06C131.45,-276.24 162.25,-284.46 189.73,-291.8"/>
<polygon fill="midnightblue" stroke="midnightblue" points="189.12,-295.26 199.69,-294.46 190.93,-288.5 189.12,-295.26"/>
</g>
<!-- Node8 -->
<g id="node8" class="node">
<title>Node8</title>
<g id="a_node8"><a xlink:href="classprecice_1_1impl_1_1WatchPoint.html#a1584f6f41459b8805a658bc758f70ec4" target="_top" xlink:title=" ">
<polygon fill="white" stroke="black" points="187,-196.5 187,-226.5 327,-226.5 327,-196.5 187,-196.5"/>
<text text-anchor="start" x="195" y="-214.5" font-family="Helvetica,sans-Serif" font-size="10.00">precice::impl::WatchPoint</text>
<text text-anchor="middle" x="257" y="-203.5" font-family="Helvetica,sans-Serif" font-size="10.00">::initialize</text>
</a>
</g>
</g>
<!-- Node1&#45;&gt;Node8 -->
<g id="edge8" class="edge">
<title>Node1&#45;&gt;Node8</title>
<path fill="none" stroke="midnightblue" d="M108.32,-250.94C131.45,-244.76 162.25,-236.54 189.73,-229.2"/>
<polygon fill="midnightblue" stroke="midnightblue" points="190.93,-232.5 199.69,-226.54 189.12,-225.74 190.93,-232.5"/>
</g>
<!-- Node14 -->
<g id="node14" class="node">
<title>Node14</title>
<g id="a_node14"><a xlink:href="classprecice_1_1impl_1_1WatchPoint.html#afa9da3c6ec66d96a9e74ea762901d85d" target="_top" xlink:title=" ">
<polygon fill="white" stroke="black" points="187,-147.5 187,-177.5 327,-177.5 327,-147.5 187,-147.5"/>
<text text-anchor="start" x="195" y="-165.5" font-family="Helvetica,sans-Serif" font-size="10.00">precice::impl::WatchPoint</text>
<text text-anchor="middle" x="257" y="-154.5" font-family="Helvetica,sans-Serif" font-size="10.00">::isClosest</text>
</a>
</g>
</g>
<!-- Node1&#45;&gt;Node14 -->
<g id="edge14" class="edge">
<title>Node1&#45;&gt;Node14</title>
<path fill="none" stroke="midnightblue" d="M83.95,-251C102.74,-235.78 141.79,-205.81 179,-187.5 183.53,-185.27 188.31,-183.17 193.18,-181.21"/>
<polygon fill="midnightblue" stroke="midnightblue" points="194.5,-184.45 202.6,-177.62 192.01,-177.91 194.5,-184.45"/>
</g>
<!-- Node15 -->
<g id="node15" class="node">
<title>Node15</title>
<g id="a_node15"><a xlink:href="namespaceprecice_1_1testing.html#a08533fd83bad3d7f27ea7f4a35a14aa4" target="_top" xlink:title=" ">
<polygon fill="white" stroke="black" points="179,-58 179,-77 335,-77 335,-58 179,-58"/>
<text text-anchor="middle" x="257" y="-65" font-family="Helvetica,sans-Serif" font-size="10.00">precice::testing::nextMeshID</text>
</a>
</g>
</g>
<!-- Node1&#45;&gt;Node15 -->
<g id="edge15" class="edge">
<title>Node1&#45;&gt;Node15</title>
<path fill="none" stroke="midnightblue" d="M80.44,-250.69C97.7,-229.56 140.18,-178.4 179,-138.5 198.11,-118.86 221.41,-97.73 237.34,-83.68"/>
<polygon fill="midnightblue" stroke="midnightblue" points="239.73,-86.24 244.94,-77.02 235.11,-80.98 239.73,-86.24"/>
</g>
<!-- Node3&#45;&gt;Node2 -->
<g id="edge3" class="edge">
<title>Node3&#45;&gt;Node2</title>
<path fill="none" stroke="midnightblue" d="M299.44,-368.05C328.23,-374.68 366.78,-383.56 397.53,-390.64"/>
<polygon fill="midnightblue" stroke="midnightblue" points="397.11,-394.14 407.64,-392.97 398.68,-387.32 397.11,-394.14"/>
</g>
<!-- Node5 -->
<g id="node5" class="node">
<title>Node5</title>
<g id="a_node5"><a xlink:href="classprecice_1_1impl_1_1WatchPoint.html#a1022813c40e563c4567d80bcfe83bc42" target="_top" xlink:title=" ">
<polygon fill="white" stroke="black" points="380,-343.5 380,-373.5 520,-373.5 520,-343.5 380,-343.5"/>
<text text-anchor="start" x="388" y="-361.5" font-family="Helvetica,sans-Serif" font-size="10.00">precice::impl::WatchPoint</text>
<text text-anchor="middle" x="450" y="-350.5" font-family="Helvetica,sans-Serif" font-size="10.00">::getValue</text>
</a>
</g>
</g>
<!-- Node4&#45;&gt;Node5 -->
<g id="edge5" class="edge">
<title>Node4&#45;&gt;Node5</title>
<path fill="none" stroke="midnightblue" d="M316.6,-324.53C336.86,-329.73 359.74,-335.6 380.71,-340.98"/>
<polygon fill="midnightblue" stroke="midnightblue" points="379.95,-344.4 390.51,-343.49 381.69,-337.62 379.95,-344.4"/>
</g>
<!-- Node7 -->
<g id="node7" class="node">
<title>Node7</title>
<g id="a_node7"><a xlink:href="classprecice_1_1io_1_1TXTTableWriter.html#adc48b2e227c529b370bf016996c5f9d1" target="_top" xlink:title="Writes a integral scalar data value associated to the entry name.">
<polygon fill="white" stroke="black" points="376.5,-294.5 376.5,-324.5 523.5,-324.5 523.5,-294.5 376.5,-294.5"/>
<text text-anchor="start" x="384.5" y="-312.5" font-family="Helvetica,sans-Serif" font-size="10.00">precice::io::TXTTableWriter</text>
<text text-anchor="middle" x="450" y="-301.5" font-family="Helvetica,sans-Serif" font-size="10.00">::writeData</text>
</a>
</g>
</g>
<!-- Node4&#45;&gt;Node7 -->
<g id="edge7" class="edge">
<title>Node4&#45;&gt;Node7</title>
<path fill="none" stroke="midnightblue" d="M327.23,-309.5C339.86,-309.5 353.16,-309.5 366.15,-309.5"/>
<polygon fill="midnightblue" stroke="midnightblue" points="366.47,-313 376.47,-309.5 366.47,-306 366.47,-313"/>
</g>
<!-- Node6 -->
<g id="node6" class="node">
<title>Node6</title>
<g id="a_node6"><a xlink:href="namespaceTCB__SPAN__NAMESPACE__NAME_1_1detail.html#ada90c89c458a0d53c483e767de7b7701" target="_top" xlink:title=" ">
<polygon fill="white" stroke="black" points="565,-343.5 565,-373.5 696,-373.5 696,-343.5 565,-343.5"/>
<text text-anchor="start" x="573" y="-361.5" font-family="Helvetica,sans-Serif" font-size="10.00">TCB_SPAN_NAMESPACE</text>
<text text-anchor="middle" x="630.5" y="-350.5" font-family="Helvetica,sans-Serif" font-size="10.00">_NAME::detail::data</text>
</a>
</g>
</g>
<!-- Node5&#45;&gt;Node6 -->
<g id="edge6" class="edge">
<title>Node5&#45;&gt;Node6</title>
<path fill="none" stroke="midnightblue" d="M520.01,-358.5C531.39,-358.5 543.24,-358.5 554.75,-358.5"/>
<polygon fill="midnightblue" stroke="midnightblue" points="554.77,-362 564.77,-358.5 554.77,-355 554.77,-362"/>
</g>
<!-- Node9 -->
<g id="node9" class="node">
<title>Node9</title>
<g id="a_node9"><a xlink:href="classprecice_1_1utils_1_1IntraComm.html#a557db722e7bfe5d237d0e7ed51851a44" target="_top" xlink:title="Returns an iterable range over salve ranks [1, _size)">
<polygon fill="white" stroke="black" points="380,-245.5 380,-275.5 520,-275.5 520,-245.5 380,-245.5"/>
<text text-anchor="start" x="388" y="-263.5" font-family="Helvetica,sans-Serif" font-size="10.00">precice::utils::IntraComm</text>
<text text-anchor="middle" x="450" y="-252.5" font-family="Helvetica,sans-Serif" font-size="10.00">::allSecondaryRanks</text>
</a>
</g>
</g>
<!-- Node8&#45;&gt;Node9 -->
<g id="edge9" class="edge">
<title>Node8&#45;&gt;Node9</title>
<path fill="none" stroke="midnightblue" d="M316.6,-226.53C336.86,-231.73 359.74,-237.6 380.71,-242.98"/>
<polygon fill="midnightblue" stroke="midnightblue" points="379.95,-246.4 390.51,-245.49 381.69,-239.62 379.95,-246.4"/>
</g>
<!-- Node10 -->
<g id="node10" class="node">
<title>Node10</title>
<g id="a_node10"><a xlink:href="classprecice_1_1utils_1_1IntraComm.html#a7daafddc884c6dc168e2add48733cde4" target="_top" xlink:title="Intra&#45;participant communication.">
<polygon fill="white" stroke="black" points="380,-196.5 380,-226.5 520,-226.5 520,-196.5 380,-196.5"/>
<text text-anchor="start" x="388" y="-214.5" font-family="Helvetica,sans-Serif" font-size="10.00">precice::utils::IntraComm</text>
<text text-anchor="middle" x="450" y="-203.5" font-family="Helvetica,sans-Serif" font-size="10.00">::getCommunication</text>
</a>
</g>
</g>
<!-- Node8&#45;&gt;Node10 -->
<g id="edge10" class="edge">
<title>Node8&#45;&gt;Node10</title>
<path fill="none" stroke="midnightblue" d="M327.23,-211.5C340.97,-211.5 355.5,-211.5 369.56,-211.5"/>
<polygon fill="midnightblue" stroke="midnightblue" points="369.69,-215 379.69,-211.5 369.69,-208 369.69,-215"/>
</g>
<!-- Node11 -->
<g id="node11" class="node">
<title>Node11</title>
<g id="a_node11"><a xlink:href="classprecice_1_1utils_1_1IntraComm.html#a2c2aa5e2fd6cc26797b7fdee0b0b25ac" target="_top" xlink:title="Current rank.">
<polygon fill="white" stroke="black" points="380,-147.5 380,-177.5 520,-177.5 520,-147.5 380,-147.5"/>
<text text-anchor="start" x="388" y="-165.5" font-family="Helvetica,sans-Serif" font-size="10.00">precice::utils::IntraComm</text>
<text text-anchor="middle" x="450" y="-154.5" font-family="Helvetica,sans-Serif" font-size="10.00">::getRank</text>
</a>
</g>
</g>
<!-- Node8&#45;&gt;Node11 -->
<g id="edge11" class="edge">
<title>Node8&#45;&gt;Node11</title>
<path fill="none" stroke="midnightblue" d="M316.6,-196.47C336.86,-191.27 359.74,-185.4 380.71,-180.02"/>
<polygon fill="midnightblue" stroke="midnightblue" points="381.69,-183.38 390.51,-177.51 379.95,-176.6 381.69,-183.38"/>
</g>
<!-- Node12 -->
<g id="node12" class="node">
<title>Node12</title>
<g id="a_node12"><a xlink:href="classprecice_1_1utils_1_1IntraComm.html#a3e69605ac1a3f9f8c82471ba52624f5d" target="_top" xlink:title="True if this process is running the primary rank.">
<polygon fill="white" stroke="black" points="380,-98.5 380,-128.5 520,-128.5 520,-98.5 380,-98.5"/>
<text text-anchor="start" x="388" y="-116.5" font-family="Helvetica,sans-Serif" font-size="10.00">precice::utils::IntraComm</text>
<text text-anchor="middle" x="450" y="-105.5" font-family="Helvetica,sans-Serif" font-size="10.00">::isPrimary</text>
</a>
</g>
</g>
<!-- Node8&#45;&gt;Node12 -->
<g id="edge12" class="edge">
<title>Node8&#45;&gt;Node12</title>
<path fill="none" stroke="midnightblue" d="M319.43,-196.39C324.92,-193.86 330.21,-190.92 335,-187.5 357,-171.81 349.06,-154.28 371,-138.5 373.65,-136.59 376.46,-134.82 379.37,-133.18"/>
<polygon fill="midnightblue" stroke="midnightblue" points="381.01,-136.28 388.37,-128.66 377.86,-130.03 381.01,-136.28"/>
</g>
<!-- Node13 -->
<g id="node13" class="node">
<title>Node13</title>
<g id="a_node13"><a xlink:href="classprecice_1_1utils_1_1IntraComm.html#abde303b11e46851ae65dca65ef06daad" target="_top" xlink:title="True if this process is running a secondary rank.">
<polygon fill="white" stroke="black" points="380,-49.5 380,-79.5 520,-79.5 520,-49.5 380,-49.5"/>
<text text-anchor="start" x="388" y="-67.5" font-family="Helvetica,sans-Serif" font-size="10.00">precice::utils::IntraComm</text>
<text text-anchor="middle" x="450" y="-56.5" font-family="Helvetica,sans-Serif" font-size="10.00">::isSecondary</text>
</a>
</g>
</g>
<!-- Node8&#45;&gt;Node13 -->
<g id="edge13" class="edge">
<title>Node8&#45;&gt;Node13</title>
<path fill="none" stroke="midnightblue" d="M322.77,-196.49C327.2,-193.95 331.35,-190.97 335,-187.5 368.62,-155.52 337.51,-121.62 371,-89.5 372.5,-88.06 374.09,-86.7 375.74,-85.43"/>
<polygon fill="midnightblue" stroke="midnightblue" points="378.07,-88.08 384.51,-79.66 374.23,-82.23 378.07,-88.08"/>
</g>
<!-- Node16 -->
<g id="node16" class="node">
<title>Node16</title>
<g id="a_node16"><a xlink:href="classprecice_1_1utils_1_1ManageUniqueIDs.html#a02be264c279698ae293587b6576088b5" target="_top" xlink:title=" ">
<polygon fill="white" stroke="black" points="371,-0.5 371,-30.5 529,-30.5 529,-0.5 371,-0.5"/>
<text text-anchor="start" x="379" y="-18.5" font-family="Helvetica,sans-Serif" font-size="10.00">precice::utils::ManageUnique</text>
<text text-anchor="middle" x="450" y="-7.5" font-family="Helvetica,sans-Serif" font-size="10.00">IDs::getFreeID</text>
</a>
</g>
</g>
<!-- Node15&#45;&gt;Node16 -->
<g id="edge16" class="edge">
<title>Node15&#45;&gt;Node16</title>
<path fill="none" stroke="midnightblue" d="M293.03,-57.96C318.4,-51.06 353.43,-41.52 383.86,-33.23"/>
<polygon fill="midnightblue" stroke="midnightblue" points="384.84,-36.6 393.57,-30.59 383,-29.84 384.84,-36.6"/>
</g>
</g>
</svg>
