<?xml version="1.0" encoding="UTF-8" standalone="no"?>
<!DOCTYPE svg PUBLIC "-//W3C//DTD SVG 1.1//EN"
 "http://www.w3.org/Graphics/SVG/1.1/DTD/svg11.dtd">
<!-- Generated by graphviz version 2.43.0 (0)
 -->
<!-- Title: BOOST_AUTO_TEST_CASE Pages: 1 -->
<!--zoomable 581 -->
<svg id="main" version="1.1" xmlns="http://www.w3.org/2000/svg" xmlns:xlink="http://www.w3.org/1999/xlink" xml:space="preserve" onload="init(evt)">
<style type="text/css"><![CDATA[
.edge:hover path { stroke: red; }
.edge:hover polygon { stroke: red; fill: red; }
]]></style>
<script type="text/javascript"><![CDATA[
var edges = document.getElementsByTagName('g');
if (edges && edges.length) {
  for (var i=0;i<edges.length;i++) {
    if (edges[i].id.substr(0,4)=='edge') {
      edges[i].setAttribute('class','edge');
    }
  }
}
]]></script>
        <defs>
                <circle id="rim" cx="0" cy="0" r="7"/>
                <circle id="rim2" cx="0" cy="0" r="3.5"/>
                <g id="zoomPlus">
                        <use xlink:href="#rim" fill="#404040">
                                <set attributeName="fill" to="#808080" begin="zoomplus.mouseover" end="zoomplus.mouseout"/>
                        </use>
                        <path d="M-4,0h8M0,-4v8" fill="none" stroke="white" stroke-width="1.5" pointer-events="none"/>
                </g>
                <g id="zoomMin">
                        <use xlink:href="#rim" fill="#404040">
                                <set attributeName="fill" to="#808080" begin="zoomminus.mouseover" end="zoomminus.mouseout"/>
                        </use>
                        <path d="M-4,0h8" fill="none" stroke="white" stroke-width="1.5" pointer-events="none"/>
                </g>
                <g id="dirArrow">
                        <path fill="none" stroke="white" stroke-width="1.5" d="M0,-3.0v7 M-2.5,-0.5L0,-3.0L2.5,-0.5"/>
                </g>
               <g id="resetDef">
                       <use xlink:href="#rim2" fill="#404040">
                               <set attributeName="fill" to="#808080" begin="reset.mouseover" end="reset.mouseout"/>
                       </use>
               </g>
        </defs>

<script type="text/javascript">
var viewWidth = 757;
var viewHeight = 581;
var sectionId = 'dynsection-6';
</script>
<script xlink:href="svgpan.js"/>
<svg id="graph" class="graph">
<g id="viewport">
<title>BOOST_AUTO_TEST_CASE</title>
<polygon fill="white" stroke="transparent" points="-4,4 -4,-577.16 753,-577.16 753,4 -4,4"/>
<!-- Node1 -->
<g id="node1" class="node">
<title>Node1</title>
<g id="a_node1"><a xlink:title=" ">
<polygon fill="#bfbfbf" stroke="black" points="0,-269.82 0,-288.82 143,-288.82 143,-269.82 0,-269.82"/>
<text text-anchor="middle" x="71.5" y="-276.82" font-family="Helvetica,sans-Serif" font-size="10.00">BOOST_AUTO_TEST_CASE</text>
</a>
</g>
</g>
<!-- Node2 -->
<g id="node2" class="node">
<title>Node2</title>
<g id="a_node2"><a xlink:href="namespaceprecice_1_1testing.html#a6a116337529290bbb1bf2545b5fb315a" target="_top" xlink:title="equals to be used in tests. Compares two matrices using a given tolerance. Prints both operands on fa...">
<polygon fill="white" stroke="black" points="203.5,-496.82 203.5,-515.82 333.5,-515.82 333.5,-496.82 203.5,-496.82"/>
<text text-anchor="middle" x="268.5" y="-503.82" font-family="Helvetica,sans-Serif" font-size="10.00">precice::testing::equals</text>
</a>
</g>
</g>
<!-- Node1&#45;&gt;Node2 -->
<g id="edge1" class="edge">
<title>Node1&#45;&gt;Node2</title>
<path fill="none" stroke="midnightblue" d="M74.4,-289.06C81.46,-322.57 109.48,-433.97 179,-487.32 183.44,-490.73 188.36,-493.55 193.54,-495.9"/>
<polygon fill="midnightblue" stroke="midnightblue" points="192.5,-499.25 203.09,-499.61 195.04,-492.72 192.5,-499.25"/>
</g>
<!-- Node3 -->
<g id="node3" class="node">
<title>Node3</title>
<g id="a_node3"><a xlink:href="classprecice_1_1time_1_1Storage.html#abdb67a781f1f1fed8ea1a1461c532882" target="_top" xlink:title="Move this Storage by storing the values at the end of the Storage at 0.0 and clearing the storage....">
<polygon fill="white" stroke="black" points="206.5,-398.32 206.5,-428.32 330.5,-428.32 330.5,-398.32 206.5,-398.32"/>
<text text-anchor="start" x="214.5" y="-416.32" font-family="Helvetica,sans-Serif" font-size="10.00">precice::time::Storage</text>
<text text-anchor="middle" x="268.5" y="-405.32" font-family="Helvetica,sans-Serif" font-size="10.00">::move</text>
</a>
</g>
</g>
<!-- Node1&#45;&gt;Node3 -->
<g id="edge2" class="edge">
<title>Node1&#45;&gt;Node3</title>
<path fill="none" stroke="midnightblue" d="M86.52,-288.95C117.9,-310.51 194.34,-363.04 237.16,-392.47"/>
<polygon fill="midnightblue" stroke="midnightblue" points="235.29,-395.43 245.51,-398.21 239.25,-389.66 235.29,-395.43"/>
</g>
<!-- Node6 -->
<g id="node6" class="node">
<title>Node6</title>
<g id="a_node6"><a xlink:href="classprecice_1_1testing_1_1WaveformFixture.html#a636fca0cb7eeb7906d161f5bee6d9f23" target="_top" xlink:title=" ">
<polygon fill="white" stroke="black" points="179,-447.32 179,-477.32 358,-477.32 358,-447.32 179,-447.32"/>
<text text-anchor="start" x="187" y="-465.32" font-family="Helvetica,sans-Serif" font-size="10.00">precice::testing::Waveform</text>
<text text-anchor="middle" x="268.5" y="-454.32" font-family="Helvetica,sans-Serif" font-size="10.00">Fixture::numberOfStoredSamples</text>
</a>
</g>
</g>
<!-- Node1&#45;&gt;Node6 -->
<g id="edge5" class="edge">
<title>Node1&#45;&gt;Node6</title>
<path fill="none" stroke="midnightblue" d="M76.09,-288.93C86.97,-316.7 122.33,-397.62 179,-438.32 181.09,-439.82 183.28,-441.23 185.53,-442.55"/>
<polygon fill="midnightblue" stroke="midnightblue" points="184.03,-445.71 194.52,-447.22 187.26,-439.5 184.03,-445.71"/>
</g>
<!-- Node7 -->
<g id="node7" class="node">
<title>Node7</title>
<g id="a_node7"><a xlink:href="classprecice_1_1time_1_1Waveform.html#a2434985b05162df567f7e27e722b3a8f" target="_top" xlink:title="Evaluate waveform at specific point in time. Uses interpolation if necessary.">
<polygon fill="white" stroke="black" points="200,-264.32 200,-294.32 337,-294.32 337,-264.32 200,-264.32"/>
<text text-anchor="start" x="208" y="-282.32" font-family="Helvetica,sans-Serif" font-size="10.00">precice::time::Waveform</text>
<text text-anchor="middle" x="268.5" y="-271.32" font-family="Helvetica,sans-Serif" font-size="10.00">::sample</text>
</a>
</g>
</g>
<!-- Node1&#45;&gt;Node7 -->
<g id="edge7" class="edge">
<title>Node1&#45;&gt;Node7</title>
<path fill="none" stroke="midnightblue" d="M143.18,-279.32C158.37,-279.32 174.52,-279.32 189.96,-279.32"/>
<polygon fill="midnightblue" stroke="midnightblue" points="189.99,-282.82 199.99,-279.32 189.99,-275.82 189.99,-282.82"/>
</g>
<!-- Node16 -->
<g id="node16" class="node">
<title>Node16</title>
<g id="a_node16"><a xlink:href="classprecice_1_1time_1_1Storage.html#ad5470fbe7059583cab29225b2fd5b3d1" target="_top" xlink:title="Store Sample at a specific time.">
<polygon fill="white" stroke="black" points="206.5,-138.32 206.5,-168.32 330.5,-168.32 330.5,-138.32 206.5,-138.32"/>
<text text-anchor="start" x="214.5" y="-156.32" font-family="Helvetica,sans-Serif" font-size="10.00">precice::time::Storage</text>
<text text-anchor="middle" x="268.5" y="-145.32" font-family="Helvetica,sans-Serif" font-size="10.00">::setSampleAtTime</text>
</a>
</g>
</g>
<!-- Node1&#45;&gt;Node16 -->
<g id="edge18" class="edge">
<title>Node1&#45;&gt;Node16</title>
<path fill="none" stroke="midnightblue" d="M87.48,-269.64C119.03,-249.25 192.95,-201.49 235.61,-173.92"/>
<polygon fill="midnightblue" stroke="midnightblue" points="237.71,-176.73 244.21,-168.37 233.91,-170.85 237.71,-176.73"/>
</g>
<!-- Node19 -->
<g id="node19" class="node">
<title>Node19</title>
<g id="a_node19"><a xlink:href="classprecice_1_1time_1_1Waveform.html#a3ce572182eaa8e47aeb1799bf5b350f4" target="_top" xlink:title="Returns a reference to the _timeStepsStorage.">
<polygon fill="white" stroke="black" points="200,-40.32 200,-70.32 337,-70.32 337,-40.32 200,-40.32"/>
<text text-anchor="start" x="208" y="-58.32" font-family="Helvetica,sans-Serif" font-size="10.00">precice::time::Waveform</text>
<text text-anchor="middle" x="268.5" y="-47.32" font-family="Helvetica,sans-Serif" font-size="10.00">::timeStepsStorage</text>
</a>
</g>
</g>
<!-- Node1&#45;&gt;Node19 -->
<g id="edge23" class="edge">
<title>Node1&#45;&gt;Node19</title>
<path fill="none" stroke="midnightblue" d="M74.77,-269.7C82.85,-237.59 113.35,-133.12 179,-80.32 182.6,-77.42 186.51,-74.87 190.62,-72.6"/>
<polygon fill="midnightblue" stroke="midnightblue" points="192.42,-75.62 199.89,-68.11 189.37,-69.32 192.42,-75.62"/>
</g>
<!-- Node20 -->
<g id="node20" class="node">
<title>Node20</title>
<g id="a_node20"><a xlink:href="classprecice_1_1testing_1_1WaveformFixture.html#a2937f297176e83fa8a704daee81fcc4d" target="_top" xlink:title=" ">
<polygon fill="white" stroke="black" points="194.5,-89.32 194.5,-119.32 342.5,-119.32 342.5,-89.32 194.5,-89.32"/>
<text text-anchor="start" x="202.5" y="-107.32" font-family="Helvetica,sans-Serif" font-size="10.00">precice::testing::Waveform</text>
<text text-anchor="middle" x="268.5" y="-96.32" font-family="Helvetica,sans-Serif" font-size="10.00">Fixture::valuesSize</text>
</a>
</g>
</g>
<!-- Node1&#45;&gt;Node20 -->
<g id="edge24" class="edge">
<title>Node1&#45;&gt;Node20</title>
<path fill="none" stroke="midnightblue" d="M76.6,-269.51C88.34,-242.7 124.72,-167.61 179,-129.32 181.74,-127.38 184.63,-125.6 187.61,-123.95"/>
<polygon fill="midnightblue" stroke="midnightblue" points="189.42,-126.97 196.85,-119.42 186.33,-120.68 189.42,-126.97"/>
</g>
<!-- Node4 -->
<g id="node4" class="node">
<title>Node4</title>
<g id="a_node4"><a xlink:href="classprecice_1_1time_1_1Storage.html#af36ba54c937446be11a57a86a7c71a01" target="_top" xlink:title=" ">
<polygon fill="white" stroke="black" points="429.5,-505.32 429.5,-535.32 553.5,-535.32 553.5,-505.32 429.5,-505.32"/>
<text text-anchor="start" x="437.5" y="-523.32" font-family="Helvetica,sans-Serif" font-size="10.00">precice::time::Storage</text>
<text text-anchor="middle" x="491.5" y="-512.32" font-family="Helvetica,sans-Serif" font-size="10.00">::getSampleAtEnd</text>
</a>
</g>
</g>
<!-- Node3&#45;&gt;Node4 -->
<g id="edge3" class="edge">
<title>Node3&#45;&gt;Node4</title>
<path fill="none" stroke="midnightblue" d="M330.6,-424.55C340.3,-427.99 349.82,-432.47 358,-438.32 380.87,-454.66 371.34,-473.68 394,-490.32 401.77,-496.02 410.64,-500.66 419.79,-504.42"/>
<polygon fill="midnightblue" stroke="midnightblue" points="418.8,-507.79 429.4,-508.04 421.27,-501.24 418.8,-507.79"/>
</g>
<!-- Node5 -->
<g id="node5" class="node">
<title>Node5</title>
<g id="a_node5"><a xlink:href="classprecice_1_1time_1_1Storage.html#ac6b8883c787b328e1a4114d4457c0b30" target="_top" xlink:title="Number of stored times.">
<polygon fill="white" stroke="black" points="625,-442.32 625,-472.32 749,-472.32 749,-442.32 625,-442.32"/>
<text text-anchor="start" x="633" y="-460.32" font-family="Helvetica,sans-Serif" font-size="10.00">precice::time::Storage</text>
<text text-anchor="middle" x="687" y="-449.32" font-family="Helvetica,sans-Serif" font-size="10.00">::nTimes</text>
</a>
</g>
</g>
<!-- Node3&#45;&gt;Node5 -->
<g id="edge4" class="edge">
<title>Node3&#45;&gt;Node5</title>
<path fill="none" stroke="midnightblue" d="M325.93,-428.39C336.63,-431.49 347.71,-434.87 358,-438.32 374.28,-443.77 377.15,-449.01 394,-452.32 468.31,-466.92 555.3,-466.18 614.89,-463.04"/>
<polygon fill="midnightblue" stroke="midnightblue" points="615.16,-466.53 624.95,-462.47 614.77,-459.54 615.16,-466.53"/>
</g>
<!-- Node6&#45;&gt;Node5 -->
<g id="edge6" class="edge">
<title>Node6&#45;&gt;Node5</title>
<path fill="none" stroke="midnightblue" d="M341.3,-477.47C347.23,-480.22 352.9,-483.48 358,-487.32 382.24,-505.56 367.49,-530.57 394,-545.32 469.74,-587.45 508.15,-576.53 589,-545.32 622.52,-532.38 651.62,-501.88 668.98,-480.43"/>
<polygon fill="midnightblue" stroke="midnightblue" points="671.84,-482.46 675.26,-472.43 666.33,-478.14 671.84,-482.46"/>
</g>
<!-- Node7&#45;&gt;Node5 -->
<g id="edge17" class="edge">
<title>Node7&#45;&gt;Node5</title>
<path fill="none" stroke="midnightblue" d="M280.83,-294.55C305.73,-327.6 365.32,-404.14 394,-419.32 431.11,-438.96 540.83,-449.04 614.69,-453.74"/>
<polygon fill="midnightblue" stroke="midnightblue" points="614.67,-457.25 624.87,-454.37 615.1,-450.26 614.67,-457.25"/>
</g>
<!-- Node8 -->
<g id="node8" class="node">
<title>Node8</title>
<g id="a_node8"><a xlink:href="namespaceprecice_1_1time.html#af4779cf38348055f1a32dfe2a1f807c7" target="_top" xlink:title=" ">
<polygon fill="white" stroke="black" points="394,-291.82 394,-310.82 589,-310.82 589,-291.82 394,-291.82"/>
<text text-anchor="middle" x="491.5" y="-298.82" font-family="Helvetica,sans-Serif" font-size="10.00">precice::time::bSplineInterpolationAt</text>
</a>
</g>
</g>
<!-- Node7&#45;&gt;Node8 -->
<g id="edge8" class="edge">
<title>Node7&#45;&gt;Node8</title>
<path fill="none" stroke="midnightblue" d="M337.01,-286.04C352.15,-287.54 368.56,-289.18 384.83,-290.8"/>
<polygon fill="midnightblue" stroke="midnightblue" points="384.63,-294.3 394.93,-291.8 385.33,-287.33 384.63,-294.3"/>
</g>
<!-- Node9 -->
<g id="node9" class="node">
<title>Node9</title>
<g id="a_node9"><a xlink:href="classprecice_1_1time_1_1Waveform.html#ab432661dd5328b9fe7825752ccbf4301" target="_top" xlink:title="Computes which degree may be used for interpolation.">
<polygon fill="white" stroke="black" points="423,-242.32 423,-272.32 560,-272.32 560,-242.32 423,-242.32"/>
<text text-anchor="start" x="431" y="-260.32" font-family="Helvetica,sans-Serif" font-size="10.00">precice::time::Waveform</text>
<text text-anchor="middle" x="491.5" y="-249.32" font-family="Helvetica,sans-Serif" font-size="10.00">::computeUsedDegree</text>
</a>
</g>
</g>
<!-- Node7&#45;&gt;Node9 -->
<g id="edge9" class="edge">
<title>Node7&#45;&gt;Node9</title>
<path fill="none" stroke="midnightblue" d="M337.01,-272.6C360.88,-270.22 387.93,-267.53 412.6,-265.07"/>
<polygon fill="midnightblue" stroke="midnightblue" points="413.04,-268.55 422.64,-264.07 412.35,-261.58 413.04,-268.55"/>
</g>
<!-- Node10 -->
<g id="node10" class="node">
<title>Node10</title>
<g id="a_node10"><a xlink:href="namespaceprecice_1_1detail.html#adede399b4b92eea01face616a0cc7051" target="_top" xlink:title=" ">
<polygon fill="white" stroke="black" points="435,-203.82 435,-222.82 548,-222.82 548,-203.82 435,-203.82"/>
<text text-anchor="middle" x="491.5" y="-210.82" font-family="Helvetica,sans-Serif" font-size="10.00">precice::detail::data</text>
</a>
</g>
</g>
<!-- Node7&#45;&gt;Node10 -->
<g id="edge10" class="edge">
<title>Node7&#45;&gt;Node10</title>
<path fill="none" stroke="midnightblue" d="M305.79,-264.27C330.38,-254.49 363.76,-241.98 394,-233.32 404.64,-230.27 416.07,-227.48 427.2,-225.02"/>
<polygon fill="midnightblue" stroke="midnightblue" points="428.27,-228.37 437.31,-222.86 426.8,-221.53 428.27,-228.37"/>
</g>
<!-- Node11 -->
<g id="node11" class="node">
<title>Node11</title>
<g id="a_node11"><a xlink:href="namespaceprecice_1_1math.html#a0e86802cfe992deba131d789d035b5b7" target="_top" xlink:title="Compares two Eigen::MatrixBase for equality up to tolerance.">
<polygon fill="white" stroke="black" points="430.5,-165.82 430.5,-184.82 552.5,-184.82 552.5,-165.82 430.5,-165.82"/>
<text text-anchor="middle" x="491.5" y="-172.82" font-family="Helvetica,sans-Serif" font-size="10.00">precice::math::equals</text>
</a>
</g>
</g>
<!-- Node7&#45;&gt;Node11 -->
<g id="edge11" class="edge">
<title>Node7&#45;&gt;Node11</title>
<path fill="none" stroke="midnightblue" d="M286.71,-264.16C309.58,-244.86 352,-211.91 394,-194.32 402.39,-190.8 411.46,-187.93 420.57,-185.58"/>
<polygon fill="midnightblue" stroke="midnightblue" points="421.52,-188.95 430.43,-183.24 419.9,-182.14 421.52,-188.95"/>
</g>
<!-- Node12 -->
<g id="node12" class="node">
<title>Node12</title>
<g id="a_node12"><a xlink:href="classprecice_1_1time_1_1Storage.html#a7699b242d48c467606c27cacbf1f6492" target="_top" xlink:title="Get all normalized dts and values in ascending order (with respect to normalized dts)">
<polygon fill="white" stroke="black" points="429.5,-330.32 429.5,-360.32 553.5,-360.32 553.5,-330.32 429.5,-330.32"/>
<text text-anchor="start" x="437.5" y="-348.32" font-family="Helvetica,sans-Serif" font-size="10.00">precice::time::Storage</text>
<text text-anchor="middle" x="491.5" y="-337.32" font-family="Helvetica,sans-Serif" font-size="10.00">::getTimesAndValues</text>
</a>
</g>
</g>
<!-- Node7&#45;&gt;Node12 -->
<g id="edge12" class="edge">
<title>Node7&#45;&gt;Node12</title>
<path fill="none" stroke="midnightblue" d="M312.79,-294.33C336.63,-302.41 366.82,-312.33 394,-320.32 402.44,-322.8 411.34,-325.28 420.18,-327.67"/>
<polygon fill="midnightblue" stroke="midnightblue" points="419.54,-331.12 430.11,-330.31 421.35,-324.35 419.54,-331.12"/>
</g>
<!-- Node14 -->
<g id="node14" class="node">
<title>Node14</title>
<g id="a_node14"><a xlink:href="classprecice_1_1time_1_1Storage.html#aa849687d3952aaeb8efb114153743767" target="_top" xlink:title="Returns the values at time following &quot;before&quot; contained in this Storage.">
<polygon fill="white" stroke="black" points="429.5,-379.32 429.5,-409.32 553.5,-409.32 553.5,-379.32 429.5,-379.32"/>
<text text-anchor="start" x="437.5" y="-397.32" font-family="Helvetica,sans-Serif" font-size="10.00">precice::time::Storage</text>
<text text-anchor="middle" x="491.5" y="-386.32" font-family="Helvetica,sans-Serif" font-size="10.00">::getValuesAtOrAfter</text>
</a>
</g>
</g>
<!-- Node7&#45;&gt;Node14 -->
<g id="edge15" class="edge">
<title>Node7&#45;&gt;Node14</title>
<path fill="none" stroke="midnightblue" d="M285.87,-294.57C308.48,-314.83 351.32,-350.35 394,-370.32 402.01,-374.06 410.68,-377.27 419.42,-380.01"/>
<polygon fill="midnightblue" stroke="midnightblue" points="418.71,-383.45 429.29,-382.9 420.68,-376.73 418.71,-383.45"/>
</g>
<!-- Node15 -->
<g id="node15" class="node">
<title>Node15</title>
<g id="a_node15"><a xlink:href="classprecice_1_1time_1_1Storage.html#a4685b028851d8b729fca86cdb02503b2" target="_top" xlink:title="Get maximum normalized dt that is stored in this Storage.">
<polygon fill="white" stroke="black" points="420,-116.32 420,-146.32 563,-146.32 563,-116.32 420,-116.32"/>
<text text-anchor="start" x="428" y="-134.32" font-family="Helvetica,sans-Serif" font-size="10.00">precice::time::Storage</text>
<text text-anchor="middle" x="491.5" y="-123.32" font-family="Helvetica,sans-Serif" font-size="10.00">::maxStoredNormalizedDt</text>
</a>
</g>
</g>
<!-- Node7&#45;&gt;Node15 -->
<g id="edge16" class="edge">
<title>Node7&#45;&gt;Node15</title>
<path fill="none" stroke="midnightblue" d="M280.36,-264.28C300,-238.2 344.06,-184.67 394,-156.32 399.16,-153.39 404.66,-150.8 410.33,-148.5"/>
<polygon fill="midnightblue" stroke="midnightblue" points="411.84,-151.68 420,-144.92 409.4,-145.11 411.84,-151.68"/>
</g>
<!-- Node12&#45;&gt;Node5 -->
<g id="edge14" class="edge">
<title>Node12&#45;&gt;Node5</title>
<path fill="none" stroke="midnightblue" d="M553.63,-356.44C565.75,-359.94 578.1,-364.47 589,-370.32 619.49,-386.67 648.16,-414.53 666.32,-434.32"/>
<polygon fill="midnightblue" stroke="midnightblue" points="663.91,-436.88 673.2,-441.98 669.12,-432.2 663.91,-436.88"/>
</g>
<!-- Node13 -->
<g id="node13" class="node">
<title>Node13</title>
<g id="a_node13"><a xlink:href="classprecice_1_1time_1_1Storage.html#a5314dff98a3b6c92ef7bf48be027fa4d" target="_top" xlink:title="Number of Dofs for each values.">
<polygon fill="white" stroke="black" points="625,-163.32 625,-193.32 749,-193.32 749,-163.32 625,-163.32"/>
<text text-anchor="start" x="633" y="-181.32" font-family="Helvetica,sans-Serif" font-size="10.00">precice::time::Storage</text>
<text text-anchor="middle" x="687" y="-170.32" font-family="Helvetica,sans-Serif" font-size="10.00">::nDofs</text>
</a>
</g>
</g>
<!-- Node12&#45;&gt;Node13 -->
<g id="edge13" class="edge">
<title>Node12&#45;&gt;Node13</title>
<path fill="none" stroke="midnightblue" d="M553.58,-336.54C566.04,-332.87 578.52,-327.68 589,-320.32 631.76,-290.27 661.4,-234.92 675.87,-202.92"/>
<polygon fill="midnightblue" stroke="midnightblue" points="679.22,-203.97 680.03,-193.41 672.81,-201.17 679.22,-203.97"/>
</g>
<!-- Node16&#45;&gt;Node11 -->
<g id="edge19" class="edge">
<title>Node16&#45;&gt;Node11</title>
<path fill="none" stroke="midnightblue" d="M330.77,-159.42C358.53,-162.18 391.52,-165.46 420.28,-168.33"/>
<polygon fill="midnightblue" stroke="midnightblue" points="419.96,-171.81 430.26,-169.32 420.66,-164.85 419.96,-171.81"/>
</g>
<!-- Node16&#45;&gt;Node15 -->
<g id="edge20" class="edge">
<title>Node16&#45;&gt;Node15</title>
<path fill="none" stroke="midnightblue" d="M330.77,-147.22C355.13,-144.79 383.5,-141.97 409.51,-139.38"/>
<polygon fill="midnightblue" stroke="midnightblue" points="410.13,-142.84 419.73,-138.36 409.44,-135.87 410.13,-142.84"/>
</g>
<!-- Node17 -->
<g id="node17" class="node">
<title>Node17</title>
<g id="a_node17"><a xlink:href="namespaceprecice_1_1math.html#ad2261eb57e2922093b31a6ddb203d5f8" target="_top" xlink:title=" ">
<polygon fill="white" stroke="black" points="428.5,-77.82 428.5,-96.82 554.5,-96.82 554.5,-77.82 428.5,-77.82"/>
<text text-anchor="middle" x="491.5" y="-84.82" font-family="Helvetica,sans-Serif" font-size="10.00">precice::math::smaller</text>
</a>
</g>
</g>
<!-- Node16&#45;&gt;Node17 -->
<g id="edge21" class="edge">
<title>Node16&#45;&gt;Node17</title>
<path fill="none" stroke="midnightblue" d="M330.74,-139.15C340.02,-136.31 349.37,-133.03 358,-129.32 375.22,-121.9 376.56,-114.21 394,-107.32 401.83,-104.22 410.22,-101.57 418.67,-99.32"/>
<polygon fill="midnightblue" stroke="midnightblue" points="419.71,-102.67 428.57,-96.85 418.02,-95.88 419.71,-102.67"/>
</g>
<!-- Node18 -->
<g id="node18" class="node">
<title>Node18</title>
<g id="a_node18"><a xlink:href="namespaceprecice_1_1math.html#a9885a93970db6840d33a76782ae9d4c7" target="_top" xlink:title=" ">
<polygon fill="white" stroke="black" points="412.5,-39.82 412.5,-58.82 570.5,-58.82 570.5,-39.82 412.5,-39.82"/>
<text text-anchor="middle" x="491.5" y="-46.82" font-family="Helvetica,sans-Serif" font-size="10.00">precice::math::smallerEquals</text>
</a>
</g>
</g>
<!-- Node16&#45;&gt;Node18 -->
<g id="edge22" class="edge">
<title>Node16&#45;&gt;Node18</title>
<path fill="none" stroke="midnightblue" d="M330.96,-143.33C340.61,-139.94 350.02,-135.4 358,-129.32 383.04,-110.23 368.31,-86.51 394,-68.32 396.87,-66.28 399.91,-64.45 403.07,-62.81"/>
<polygon fill="midnightblue" stroke="midnightblue" points="404.58,-65.96 412.24,-58.64 401.69,-59.59 404.58,-65.96"/>
</g>
<!-- Node20&#45;&gt;Node13 -->
<g id="edge25" class="edge">
<title>Node20&#45;&gt;Node13</title>
<path fill="none" stroke="midnightblue" d="M341.91,-89.24C347.58,-86.71 353.03,-83.76 358,-80.32 380.51,-64.72 369.63,-42.8 394,-30.32 471.14,9.19 512.75,10.88 589,-30.32 637.46,-56.5 665.62,-118.61 678.15,-153.47"/>
<polygon fill="midnightblue" stroke="midnightblue" points="674.84,-154.62 681.4,-162.94 681.46,-152.35 674.84,-154.62"/>
</g>
</g>
</svg>
        <g id="navigator" transform="translate(0 0)" fill="#404254">
                <rect fill="#f2f5e9" fill-opacity="0.5" stroke="#606060" stroke-width=".5" x="0" y="0" width="60" height="60"/>
                <use id="zoomplus" xlink:href="#zoomPlus" x="17" y="9" onmousedown="handleZoom(evt,'in')"/>
                <use id="zoomminus" xlink:href="#zoomMin" x="42" y="9" onmousedown="handleZoom(evt,'out')"/>
                <use id="reset" xlink:href="#resetDef" x="30" y="36" onmousedown="handleReset()"/>
                <g id="arrowUp" xlink:href="#dirArrow" transform="translate(30 24)" onmousedown="handlePan(0,-1)">
                  <use xlink:href="#rim" fill="#404040">
                        <set attributeName="fill" to="#808080" begin="arrowUp.mouseover" end="arrowUp.mouseout"/>
                  </use>
                  <path fill="none" stroke="white" stroke-width="1.5" d="M0,-3.0v7 M-2.5,-0.5L0,-3.0L2.5,-0.5"/>
                </g>
                <g id="arrowRight" xlink:href="#dirArrow" transform="rotate(90) translate(36 -43)" onmousedown="handlePan(1,0)">
                  <use xlink:href="#rim" fill="#404040">
                        <set attributeName="fill" to="#808080" begin="arrowRight.mouseover" end="arrowRight.mouseout"/>
                  </use>
                  <path fill="none" stroke="white" stroke-width="1.5" d="M0,-3.0v7 M-2.5,-0.5L0,-3.0L2.5,-0.5"/>
                </g>
                <g id="arrowDown" xlink:href="#dirArrow" transform="rotate(180) translate(-30 -48)" onmousedown="handlePan(0,1)">
                  <use xlink:href="#rim" fill="#404040">
                        <set attributeName="fill" to="#808080" begin="arrowDown.mouseover" end="arrowDown.mouseout"/>
                  </use>
                  <path fill="none" stroke="white" stroke-width="1.5" d="M0,-3.0v7 M-2.5,-0.5L0,-3.0L2.5,-0.5"/>
                </g>
                <g id="arrowLeft" xlink:href="#dirArrow" transform="rotate(270) translate(-36 17)" onmousedown="handlePan(-1,0)">
                  <use xlink:href="#rim" fill="#404040">
                        <set attributeName="fill" to="#808080" begin="arrowLeft.mouseover" end="arrowLeft.mouseout"/>
                  </use>
                  <path fill="none" stroke="white" stroke-width="1.5" d="M0,-3.0v7 M-2.5,-0.5L0,-3.0L2.5,-0.5"/>
                </g>
        </g>
        <svg viewBox="0 0 15 15" width="100%" height="30px" preserveAspectRatio="xMaxYMin meet">
         <g id="arrow_out" transform="scale(0.3 0.3)">
          <a xlink:href="WaveformTest_8cpp_a6df28d9136a6a37e094d37b51b1f49b4_cgraph_org.svg" target="_base">
           <rect id="button" ry="5" rx="5" y="6" x="6" height="38" width="38"
                fill="#f2f5e9" fill-opacity="0.5" stroke="#606060" stroke-width="1.0"/>
           <path id="arrow"
             d="M 11.500037,31.436501 C 11.940474,20.09759 22.043105,11.32322 32.158766,21.979434 L 37.068811,17.246167 C 37.068811,17.246167 37.088388,32 37.088388,32 L 22.160133,31.978069 C 22.160133,31.978069 26.997745,27.140456 26.997745,27.140456 C 18.528582,18.264221 13.291696,25.230495 11.500037,31.436501 z"
             style="fill:#404040;"/>
          </a>
         </g>
        </svg>
</svg>
