<?xml version="1.0" encoding="UTF-8" standalone="no"?>
<!DOCTYPE svg PUBLIC "-//W3C//DTD SVG 1.1//EN"
 "http://www.w3.org/Graphics/SVG/1.1/DTD/svg11.dtd">
<!-- Generated by graphviz version 2.43.0 (0)
 -->
<!-- Title: src/xml/XMLTag.hpp Pages: 1 -->
<svg width="1981pt" height="610pt"
 viewBox="0.00 0.00 1981.00 610.00" xmlns="http://www.w3.org/2000/svg" xmlns:xlink="http://www.w3.org/1999/xlink">
<g id="graph0" class="graph" transform="scale(1 1) rotate(0) translate(4 606)">
<title>src/xml/XMLTag.hpp</title>
<polygon fill="white" stroke="transparent" points="-4,4 -4,-606 1977,-606 1977,4 -4,4"/>
<!-- Node1 -->
<g id="node1" class="node">
<title>Node1</title>
<g id="a_node1"><a xlink:title=" ">
<polygon fill="#bfbfbf" stroke="black" points="169.5,-582.5 169.5,-601.5 282.5,-601.5 282.5,-582.5 169.5,-582.5"/>
<text text-anchor="middle" x="226" y="-589.5" font-family="Helvetica,sans-Serif" font-size="10.00">src/xml/XMLTag.hpp</text>
</a>
</g>
</g>
<!-- Node2 -->
<g id="node2" class="node">
<title>Node2</title>
<g id="a_node2"><a xlink:title=" ">
<polygon fill="white" stroke="#bfbfbf" points="1642.5,-0.5 1642.5,-19.5 1711.5,-19.5 1711.5,-0.5 1642.5,-0.5"/>
<text text-anchor="middle" x="1677" y="-7.5" font-family="Helvetica,sans-Serif" font-size="10.00">Eigen/Core</text>
</a>
</g>
</g>
<!-- Node1&#45;&gt;Node2 -->
<g id="edge1" class="edge">
<title>Node1&#45;&gt;Node2</title>
<path fill="none" stroke="midnightblue" d="M169.26,-587.52C102.32,-579.98 0,-556.16 0,-481 0,-481 0,-481 0,-121 0,-79.51 28.77,-72.12 67,-56 140.98,-24.8 1378.4,-13.36 1631.86,-11.34"/>
<polygon fill="midnightblue" stroke="midnightblue" points="1632.19,-14.84 1642.17,-11.26 1632.14,-7.84 1632.19,-14.84"/>
</g>
<!-- Node3 -->
<g id="node3" class="node">
<title>Node3</title>
<g id="a_node3"><a xlink:title=" ">
<polygon fill="white" stroke="#bfbfbf" points="76,-56.5 76,-75.5 114,-75.5 114,-56.5 76,-56.5"/>
<text text-anchor="middle" x="95" y="-63.5" font-family="Helvetica,sans-Serif" font-size="10.00">map</text>
</a>
</g>
</g>
<!-- Node1&#45;&gt;Node3 -->
<g id="edge2" class="edge">
<title>Node1&#45;&gt;Node3</title>
<path fill="none" stroke="midnightblue" d="M169.85,-582.46C114.45,-570.46 38,-542.73 38,-481 38,-481 38,-481 38,-182.5 38,-143.78 64.07,-104.6 80.95,-83.3"/>
<polygon fill="midnightblue" stroke="midnightblue" points="83.67,-85.51 87.31,-75.56 78.26,-81.06 83.67,-85.51"/>
</g>
<!-- Node4 -->
<g id="node4" class="node">
<title>Node4</title>
<g id="a_node4"><a xlink:title=" ">
<polygon fill="white" stroke="#bfbfbf" points="352,-291.5 352,-310.5 410,-310.5 410,-291.5 352,-291.5"/>
<text text-anchor="middle" x="381" y="-298.5" font-family="Helvetica,sans-Serif" font-size="10.00">memory</text>
</a>
</g>
</g>
<!-- Node1&#45;&gt;Node4 -->
<g id="edge3" class="edge">
<title>Node1&#45;&gt;Node4</title>
<path fill="none" stroke="midnightblue" d="M224.57,-582.41C220.35,-554.4 210.34,-464.05 245,-403 269.08,-360.58 319.04,-330.74 351.24,-314.97"/>
<polygon fill="midnightblue" stroke="midnightblue" points="353.07,-317.98 360.61,-310.54 350.08,-311.65 353.07,-317.98"/>
</g>
<!-- Node5 -->
<g id="node5" class="node">
<title>Node5</title>
<g id="a_node5"><a xlink:title=" ">
<polygon fill="white" stroke="#bfbfbf" points="104,-526.5 104,-545.5 160,-545.5 160,-526.5 104,-526.5"/>
<text text-anchor="middle" x="132" y="-533.5" font-family="Helvetica,sans-Serif" font-size="10.00">optional</text>
</a>
</g>
</g>
<!-- Node1&#45;&gt;Node5 -->
<g id="edge4" class="edge">
<title>Node1&#45;&gt;Node5</title>
<path fill="none" stroke="midnightblue" d="M210.9,-582.32C196.1,-573.82 173.31,-560.73 156.02,-550.8"/>
<polygon fill="midnightblue" stroke="midnightblue" points="157.48,-547.6 147.07,-545.65 153.99,-553.67 157.48,-547.6"/>
</g>
<!-- Node6 -->
<g id="node6" class="node">
<title>Node6</title>
<g id="a_node6"><a xlink:title=" ">
<polygon fill="white" stroke="#bfbfbf" points="157,-56.5 157,-75.5 189,-75.5 189,-56.5 157,-56.5"/>
<text text-anchor="middle" x="173" y="-63.5" font-family="Helvetica,sans-Serif" font-size="10.00">set</text>
</a>
</g>
</g>
<!-- Node1&#45;&gt;Node6 -->
<g id="edge5" class="edge">
<title>Node1&#45;&gt;Node6</title>
<path fill="none" stroke="midnightblue" d="M169.26,-583.61C143.46,-577.5 114.43,-566.35 95,-546 74.22,-524.23 76,-511.1 76,-481 76,-481 76,-481 76,-300 76,-213.15 134.15,-121.12 160.4,-83.99"/>
<polygon fill="midnightblue" stroke="midnightblue" points="163.32,-85.92 166.33,-75.77 157.64,-81.83 163.32,-85.92"/>
</g>
<!-- Node7 -->
<g id="node7" class="node">
<title>Node7</title>
<g id="a_node7"><a xlink:title=" ">
<polygon fill="white" stroke="#bfbfbf" points="1340,-112.5 1340,-131.5 1384,-131.5 1384,-112.5 1340,-112.5"/>
<text text-anchor="middle" x="1362" y="-119.5" font-family="Helvetica,sans-Serif" font-size="10.00">string</text>
</a>
</g>
</g>
<!-- Node1&#45;&gt;Node7 -->
<g id="edge6" class="edge">
<title>Node1&#45;&gt;Node7</title>
<path fill="none" stroke="midnightblue" d="M282.85,-588.9C523.61,-579.63 1447,-540.23 1447,-481 1447,-481 1447,-481 1447,-244 1447,-198.79 1406.78,-158.53 1381.67,-137.79"/>
<polygon fill="midnightblue" stroke="midnightblue" points="1383.82,-135.03 1373.82,-131.53 1379.46,-140.5 1383.82,-135.03"/>
</g>
<!-- Node8 -->
<g id="node8" class="node">
<title>Node8</title>
<g id="a_node8"><a xlink:title=" ">
<polygon fill="white" stroke="#bfbfbf" points="249.5,-56.5 249.5,-75.5 296.5,-75.5 296.5,-56.5 249.5,-56.5"/>
<text text-anchor="middle" x="273" y="-63.5" font-family="Helvetica,sans-Serif" font-size="10.00">vector</text>
</a>
</g>
</g>
<!-- Node1&#45;&gt;Node8 -->
<g id="edge7" class="edge">
<title>Node1&#45;&gt;Node8</title>
<path fill="none" stroke="midnightblue" d="M223.23,-582.18C212.26,-546.13 173.03,-406.4 186,-291 195.21,-209.03 193.3,-183.17 235,-112 241.13,-101.55 249.72,-91.13 257.19,-82.95"/>
<polygon fill="midnightblue" stroke="midnightblue" points="259.81,-85.27 264.15,-75.61 254.73,-80.46 259.81,-85.27"/>
</g>
<!-- Node9 -->
<g id="node9" class="node">
<title>Node9</title>
<g id="a_node9"><a xlink:href="Logger_8hpp.html" target="_top" xlink:title=" ">
<polygon fill="white" stroke="black" points="408.5,-347.5 408.5,-366.5 517.5,-366.5 517.5,-347.5 408.5,-347.5"/>
<text text-anchor="middle" x="463" y="-354.5" font-family="Helvetica,sans-Serif" font-size="10.00">logging/Logger.hpp</text>
</a>
</g>
</g>
<!-- Node1&#45;&gt;Node9 -->
<g id="edge8" class="edge">
<title>Node1&#45;&gt;Node9</title>
<path fill="none" stroke="midnightblue" d="M236.58,-582.27C247.24,-573.38 264.07,-559.07 278,-546 343.27,-484.78 416.71,-407.46 447.8,-374.31"/>
<polygon fill="midnightblue" stroke="midnightblue" points="450.48,-376.56 454.76,-366.87 445.37,-371.78 450.48,-376.56"/>
</g>
<!-- Node28 -->
<g id="node28" class="node">
<title>Node28</title>
<g id="a_node28"><a xlink:href="ConfigParser_8hpp.html" target="_top" xlink:title=" ">
<polygon fill="white" stroke="black" points="254.5,-409 254.5,-428 373.5,-428 373.5,-409 254.5,-409"/>
<text text-anchor="middle" x="314" y="-416" font-family="Helvetica,sans-Serif" font-size="10.00">xml/ConfigParser.hpp</text>
</a>
</g>
</g>
<!-- Node1&#45;&gt;Node28 -->
<g id="edge39" class="edge">
<title>Node1&#45;&gt;Node28</title>
<path fill="none" stroke="midnightblue" d="M227.3,-582.26C236.82,-555.19 278.94,-472.41 301.06,-436.46"/>
<polygon fill="midnightblue" stroke="midnightblue" points="304.03,-438.33 306.48,-428.02 298.13,-434.55 304.03,-438.33"/>
</g>
<!-- Node29 -->
<g id="node29" class="node">
<title>Node29</title>
<g id="a_node29"><a xlink:href="XMLAttribute_8hpp.html" target="_top" xlink:title=" ">
<polygon fill="white" stroke="black" points="1522,-526.5 1522,-545.5 1646,-545.5 1646,-526.5 1522,-526.5"/>
<text text-anchor="middle" x="1584" y="-533.5" font-family="Helvetica,sans-Serif" font-size="10.00">xml/XMLAttribute.hpp</text>
</a>
</g>
</g>
<!-- Node1&#45;&gt;Node29 -->
<g id="edge46" class="edge">
<title>Node1&#45;&gt;Node29</title>
<path fill="none" stroke="midnightblue" d="M282.66,-589.67C457.93,-585.41 1006.83,-570.88 1461,-546 1477.38,-545.1 1494.97,-543.94 1511.58,-542.74"/>
<polygon fill="midnightblue" stroke="midnightblue" points="1512.05,-546.22 1521.77,-542 1511.54,-539.24 1512.05,-546.22"/>
</g>
<!-- Node9&#45;&gt;Node4 -->
<g id="edge9" class="edge">
<title>Node9&#45;&gt;Node4</title>
<path fill="none" stroke="midnightblue" d="M449.83,-347.32C437.15,-338.98 417.77,-326.21 402.79,-316.35"/>
<polygon fill="midnightblue" stroke="midnightblue" points="404.42,-313.23 394.14,-310.65 400.57,-319.08 404.42,-313.23"/>
</g>
<!-- Node9&#45;&gt;Node7 -->
<g id="edge10" class="edge">
<title>Node9&#45;&gt;Node7</title>
<path fill="none" stroke="midnightblue" d="M497.82,-347.47C519.43,-340.66 546.51,-329.18 565,-311 614.91,-261.92 573.23,-207.52 631,-168 689.24,-128.16 1196.14,-123.58 1329.8,-123.06"/>
<polygon fill="midnightblue" stroke="midnightblue" points="1329.84,-126.56 1339.83,-123.03 1329.81,-119.56 1329.84,-126.56"/>
</g>
<!-- Node10 -->
<g id="node10" class="node">
<title>Node10</title>
<g id="a_node10"><a xlink:href="LogMacros_8hpp.html" target="_top" xlink:title=" ">
<polygon fill="white" stroke="black" points="466,-291.5 466,-310.5 556,-310.5 556,-291.5 466,-291.5"/>
<text text-anchor="middle" x="511" y="-298.5" font-family="Helvetica,sans-Serif" font-size="10.00">LogMacros.hpp</text>
</a>
</g>
</g>
<!-- Node9&#45;&gt;Node10 -->
<g id="edge11" class="edge">
<title>Node9&#45;&gt;Node10</title>
<path fill="none" stroke="midnightblue" d="M470.93,-347.08C477.85,-339.3 488.07,-327.8 496.45,-318.37"/>
<polygon fill="midnightblue" stroke="midnightblue" points="499.19,-320.55 503.22,-310.75 493.96,-315.9 499.19,-320.55"/>
</g>
<!-- Node11 -->
<g id="node11" class="node">
<title>Node11</title>
<g id="a_node11"><a xlink:href="fmt_8hpp.html" target="_top" xlink:title=" ">
<polygon fill="white" stroke="black" points="407.5,-174 407.5,-193 486.5,-193 486.5,-174 407.5,-174"/>
<text text-anchor="middle" x="447" y="-181" font-family="Helvetica,sans-Serif" font-size="10.00">utils/fmt.hpp</text>
</a>
</g>
</g>
<!-- Node10&#45;&gt;Node11 -->
<g id="edge12" class="edge">
<title>Node10&#45;&gt;Node11</title>
<path fill="none" stroke="midnightblue" d="M510.31,-291.5C508.96,-278.58 505.15,-253.55 495,-235 487.67,-221.6 475.9,-209.14 465.84,-199.94"/>
<polygon fill="midnightblue" stroke="midnightblue" points="468.1,-197.27 458.27,-193.32 463.49,-202.54 468.1,-197.27"/>
</g>
<!-- Node21 -->
<g id="node21" class="node">
<title>Node21</title>
<g id="a_node21"><a xlink:href="ArgumentFormatter_8hpp.html" target="_top" xlink:title=" ">
<polygon fill="white" stroke="black" points="697.5,-235.5 697.5,-254.5 854.5,-254.5 854.5,-235.5 697.5,-235.5"/>
<text text-anchor="middle" x="776" y="-242.5" font-family="Helvetica,sans-Serif" font-size="10.00">utils/ArgumentFormatter.hpp</text>
</a>
</g>
</g>
<!-- Node10&#45;&gt;Node21 -->
<g id="edge30" class="edge">
<title>Node10&#45;&gt;Node21</title>
<path fill="none" stroke="midnightblue" d="M552.99,-291.44C599.41,-281.98 674.23,-266.74 724.24,-256.55"/>
<polygon fill="midnightblue" stroke="midnightblue" points="725.11,-259.94 734.21,-254.52 723.71,-253.08 725.11,-259.94"/>
</g>
<!-- Node27 -->
<g id="node27" class="node">
<title>Node27</title>
<g id="a_node27"><a xlink:href="Tracer_8hpp.html" target="_top" xlink:title=" ">
<polygon fill="white" stroke="black" points="381.5,-235.5 381.5,-254.5 486.5,-254.5 486.5,-235.5 381.5,-235.5"/>
<text text-anchor="middle" x="434" y="-242.5" font-family="Helvetica,sans-Serif" font-size="10.00">logging/Tracer.hpp</text>
</a>
</g>
</g>
<!-- Node10&#45;&gt;Node27 -->
<g id="edge37" class="edge">
<title>Node10&#45;&gt;Node27</title>
<path fill="none" stroke="midnightblue" d="M498.63,-291.32C486.84,-283.06 468.87,-270.45 454.86,-260.63"/>
<polygon fill="midnightblue" stroke="midnightblue" points="456.54,-257.53 446.34,-254.65 452.52,-263.26 456.54,-257.53"/>
</g>
<!-- Node11&#45;&gt;Node7 -->
<g id="edge13" class="edge">
<title>Node11&#45;&gt;Node7</title>
<path fill="none" stroke="midnightblue" d="M474.23,-173.99C482.72,-171.66 492.18,-169.4 501,-168 665.27,-141.95 1193.17,-127.22 1329.58,-123.78"/>
<polygon fill="midnightblue" stroke="midnightblue" points="1329.88,-127.28 1339.79,-123.53 1329.71,-120.28 1329.88,-127.28"/>
</g>
<!-- Node12 -->
<g id="node12" class="node">
<title>Node12</title>
<g id="a_node12"><a xlink:title=" ">
<polygon fill="white" stroke="#bfbfbf" points="440.5,-56.5 440.5,-75.5 519.5,-75.5 519.5,-56.5 440.5,-56.5"/>
<text text-anchor="middle" x="480" y="-63.5" font-family="Helvetica,sans-Serif" font-size="10.00">fmt/format.h</text>
</a>
</g>
</g>
<!-- Node11&#45;&gt;Node12 -->
<g id="edge14" class="edge">
<title>Node11&#45;&gt;Node12</title>
<path fill="none" stroke="midnightblue" d="M449.23,-173.79C452.68,-160.44 459.57,-134.16 466,-112 468.57,-103.15 471.59,-93.37 474.16,-85.2"/>
<polygon fill="midnightblue" stroke="midnightblue" points="477.52,-86.19 477.22,-75.6 470.85,-84.07 477.52,-86.19"/>
</g>
<!-- Node13 -->
<g id="node13" class="node">
<title>Node13</title>
<g id="a_node13"><a xlink:title=" ">
<polygon fill="white" stroke="#bfbfbf" points="475,-112.5 475,-131.5 561,-131.5 561,-112.5 475,-112.5"/>
<text text-anchor="middle" x="518" y="-119.5" font-family="Helvetica,sans-Serif" font-size="10.00">fmt/ostream.h</text>
</a>
</g>
</g>
<!-- Node11&#45;&gt;Node13 -->
<g id="edge15" class="edge">
<title>Node11&#45;&gt;Node13</title>
<path fill="none" stroke="midnightblue" d="M457.17,-173.98C468.35,-164.61 486.52,-149.38 500.09,-138.01"/>
<polygon fill="midnightblue" stroke="midnightblue" points="502.43,-140.61 507.85,-131.51 497.93,-135.25 502.43,-140.61"/>
</g>
<!-- Node14 -->
<g id="node14" class="node">
<title>Node14</title>
<g id="a_node14"><a xlink:href="fmtEigen_8hpp.html" target="_top" xlink:title=" ">
<polygon fill="white" stroke="black" points="1659,-112.5 1659,-131.5 1765,-131.5 1765,-112.5 1659,-112.5"/>
<text text-anchor="middle" x="1712" y="-119.5" font-family="Helvetica,sans-Serif" font-size="10.00">utils/fmtEigen.hpp</text>
</a>
</g>
</g>
<!-- Node11&#45;&gt;Node14 -->
<g id="edge16" class="edge">
<title>Node11&#45;&gt;Node14</title>
<path fill="none" stroke="midnightblue" d="M486.81,-178.93C524.06,-175.7 581.26,-170.99 631,-168 1017.36,-144.74 1482.12,-129.77 1648.75,-124.81"/>
<polygon fill="midnightblue" stroke="midnightblue" points="1648.93,-128.31 1658.82,-124.52 1648.72,-121.31 1648.93,-128.31"/>
</g>
<!-- Node18 -->
<g id="node18" class="node">
<title>Node18</title>
<g id="a_node18"><a xlink:href="fmtSTL_8hpp.html" target="_top" xlink:title=" ">
<polygon fill="white" stroke="black" points="290,-112.5 290,-131.5 386,-131.5 386,-112.5 290,-112.5"/>
<text text-anchor="middle" x="338" y="-119.5" font-family="Helvetica,sans-Serif" font-size="10.00">utils/fmtSTL.hpp</text>
</a>
</g>
</g>
<!-- Node11&#45;&gt;Node18 -->
<g id="edge23" class="edge">
<title>Node11&#45;&gt;Node18</title>
<path fill="none" stroke="midnightblue" d="M431.38,-173.98C413.41,-164.17 383.68,-147.93 362.59,-136.42"/>
<polygon fill="midnightblue" stroke="midnightblue" points="364.04,-133.23 353.59,-131.51 360.69,-139.37 364.04,-133.23"/>
</g>
<!-- Node14&#45;&gt;Node2 -->
<g id="edge17" class="edge">
<title>Node14&#45;&gt;Node2</title>
<path fill="none" stroke="midnightblue" d="M1710.35,-112.46C1707.82,-99.92 1702.59,-75.85 1696,-56 1692.99,-46.95 1688.96,-37.16 1685.38,-29.03"/>
<polygon fill="midnightblue" stroke="midnightblue" points="1688.52,-27.47 1681.21,-19.81 1682.14,-30.36 1688.52,-27.47"/>
</g>
<!-- Node14&#45;&gt;Node12 -->
<g id="edge19" class="edge">
<title>Node14&#45;&gt;Node12</title>
<path fill="none" stroke="midnightblue" d="M1658.93,-115.56C1644.67,-114.24 1629.26,-112.94 1615,-112 1196.15,-84.29 689.14,-71.55 530.15,-68.04"/>
<polygon fill="midnightblue" stroke="midnightblue" points="529.82,-64.53 519.75,-67.81 529.67,-71.53 529.82,-64.53"/>
</g>
<!-- Node15 -->
<g id="node15" class="node">
<title>Node15</title>
<g id="a_node15"><a xlink:title=" ">
<polygon fill="white" stroke="#bfbfbf" points="1752,-56.5 1752,-75.5 1816,-75.5 1816,-56.5 1752,-56.5"/>
<text text-anchor="middle" x="1784" y="-63.5" font-family="Helvetica,sans-Serif" font-size="10.00">algorithm</text>
</a>
</g>
</g>
<!-- Node14&#45;&gt;Node15 -->
<g id="edge18" class="edge">
<title>Node14&#45;&gt;Node15</title>
<path fill="none" stroke="midnightblue" d="M1723.57,-112.32C1734.42,-104.18 1750.88,-91.84 1763.88,-82.09"/>
<polygon fill="midnightblue" stroke="midnightblue" points="1766.32,-84.63 1772.22,-75.83 1762.12,-79.03 1766.32,-84.63"/>
</g>
<!-- Node16 -->
<g id="node16" class="node">
<title>Node16</title>
<g id="a_node16"><a xlink:title=" ">
<polygon fill="white" stroke="#bfbfbf" points="1836,-56.5 1836,-75.5 1892,-75.5 1892,-56.5 1836,-56.5"/>
<text text-anchor="middle" x="1864" y="-63.5" font-family="Helvetica,sans-Serif" font-size="10.00">sstream</text>
</a>
</g>
</g>
<!-- Node14&#45;&gt;Node16 -->
<g id="edge20" class="edge">
<title>Node14&#45;&gt;Node16</title>
<path fill="none" stroke="midnightblue" d="M1736.08,-112.44C1761.54,-103.4 1801.89,-89.06 1830.46,-78.92"/>
<polygon fill="midnightblue" stroke="midnightblue" points="1831.78,-82.16 1840.03,-75.52 1829.43,-75.57 1831.78,-82.16"/>
</g>
<!-- Node17 -->
<g id="node17" class="node">
<title>Node17</title>
<g id="a_node17"><a xlink:href="EigenIO_8hpp.html" target="_top" xlink:title=" ">
<polygon fill="white" stroke="black" points="1588.5,-56.5 1588.5,-75.5 1687.5,-75.5 1687.5,-56.5 1588.5,-56.5"/>
<text text-anchor="middle" x="1638" y="-63.5" font-family="Helvetica,sans-Serif" font-size="10.00">utils/EigenIO.hpp</text>
</a>
</g>
</g>
<!-- Node14&#45;&gt;Node17 -->
<g id="edge21" class="edge">
<title>Node14&#45;&gt;Node17</title>
<path fill="none" stroke="midnightblue" d="M1700.11,-112.32C1688.85,-104.11 1671.71,-91.6 1658.29,-81.81"/>
<polygon fill="midnightblue" stroke="midnightblue" points="1660.25,-78.9 1650.11,-75.83 1656.12,-84.56 1660.25,-78.9"/>
</g>
<!-- Node17&#45;&gt;Node2 -->
<g id="edge22" class="edge">
<title>Node17&#45;&gt;Node2</title>
<path fill="none" stroke="midnightblue" d="M1644.44,-56.08C1649.95,-48.46 1658.03,-37.26 1664.76,-27.94"/>
<polygon fill="midnightblue" stroke="midnightblue" points="1667.66,-29.91 1670.68,-19.75 1661.99,-25.81 1667.66,-29.91"/>
</g>
<!-- Node18&#45;&gt;Node3 -->
<g id="edge27" class="edge">
<title>Node18&#45;&gt;Node3</title>
<path fill="none" stroke="midnightblue" d="M299.5,-112.44C250.78,-101.62 167.98,-83.22 124.18,-73.48"/>
<polygon fill="midnightblue" stroke="midnightblue" points="124.7,-70.01 114.18,-71.26 123.18,-76.85 124.7,-70.01"/>
</g>
<!-- Node18&#45;&gt;Node6 -->
<g id="edge28" class="edge">
<title>Node18&#45;&gt;Node6</title>
<path fill="none" stroke="midnightblue" d="M311.86,-112.44C280.83,-102.29 229.44,-85.47 198.64,-75.39"/>
<polygon fill="midnightblue" stroke="midnightblue" points="199.64,-72.03 189.04,-72.25 197.46,-78.69 199.64,-72.03"/>
</g>
<!-- Node18&#45;&gt;Node8 -->
<g id="edge29" class="edge">
<title>Node18&#45;&gt;Node8</title>
<path fill="none" stroke="midnightblue" d="M327.56,-112.32C317.85,-104.26 303.18,-92.08 291.5,-82.37"/>
<polygon fill="midnightblue" stroke="midnightblue" points="293.56,-79.53 283.63,-75.83 289.09,-84.92 293.56,-79.53"/>
</g>
<!-- Node18&#45;&gt;Node12 -->
<g id="edge26" class="edge">
<title>Node18&#45;&gt;Node12</title>
<path fill="none" stroke="midnightblue" d="M360.5,-112.44C384.08,-103.48 421.32,-89.31 447.96,-79.18"/>
<polygon fill="midnightblue" stroke="midnightblue" points="449.5,-82.34 457.6,-75.52 447.01,-75.8 449.5,-82.34"/>
</g>
<!-- Node19 -->
<g id="node19" class="node">
<title>Node19</title>
<g id="a_node19"><a xlink:title=" ">
<polygon fill="white" stroke="#bfbfbf" points="380,-56.5 380,-75.5 422,-75.5 422,-56.5 380,-56.5"/>
<text text-anchor="middle" x="401" y="-63.5" font-family="Helvetica,sans-Serif" font-size="10.00">array</text>
</a>
</g>
</g>
<!-- Node18&#45;&gt;Node19 -->
<g id="edge24" class="edge">
<title>Node18&#45;&gt;Node19</title>
<path fill="none" stroke="midnightblue" d="M348.12,-112.32C357.53,-104.26 371.74,-92.08 383.07,-82.37"/>
<polygon fill="midnightblue" stroke="midnightblue" points="385.38,-85 390.69,-75.83 380.82,-79.68 385.38,-85"/>
</g>
<!-- Node20 -->
<g id="node20" class="node">
<title>Node20</title>
<g id="a_node20"><a xlink:title=" ">
<polygon fill="white" stroke="#bfbfbf" points="314.5,-56.5 314.5,-75.5 361.5,-75.5 361.5,-56.5 314.5,-56.5"/>
<text text-anchor="middle" x="338" y="-63.5" font-family="Helvetica,sans-Serif" font-size="10.00">deque</text>
</a>
</g>
</g>
<!-- Node18&#45;&gt;Node20 -->
<g id="edge25" class="edge">
<title>Node18&#45;&gt;Node20</title>
<path fill="none" stroke="midnightblue" d="M338,-112.08C338,-105.01 338,-94.86 338,-85.99"/>
<polygon fill="midnightblue" stroke="midnightblue" points="341.5,-85.75 338,-75.75 334.5,-85.75 341.5,-85.75"/>
</g>
<!-- Node21&#45;&gt;Node11 -->
<g id="edge36" class="edge">
<title>Node21&#45;&gt;Node11</title>
<path fill="none" stroke="midnightblue" d="M728.86,-235.48C667.26,-224.33 559.84,-204.91 496.91,-193.53"/>
<polygon fill="midnightblue" stroke="midnightblue" points="497.29,-190.04 486.82,-191.7 496.04,-196.93 497.29,-190.04"/>
</g>
<!-- Node22 -->
<g id="node22" class="node">
<title>Node22</title>
<g id="a_node22"><a xlink:title=" ">
<polygon fill="white" stroke="#bfbfbf" points="1095,-168.5 1095,-198.5 1205,-198.5 1205,-168.5 1095,-168.5"/>
<text text-anchor="start" x="1103" y="-186.5" font-family="Helvetica,sans-Serif" font-size="10.00">boost/preprocessor</text>
<text text-anchor="middle" x="1150" y="-175.5" font-family="Helvetica,sans-Serif" font-size="10.00">/control/if.hpp</text>
</a>
</g>
</g>
<!-- Node21&#45;&gt;Node22 -->
<g id="edge31" class="edge">
<title>Node21&#45;&gt;Node22</title>
<path fill="none" stroke="midnightblue" d="M829.59,-235.48C897.01,-224.75 1012.71,-206.34 1085.08,-194.83"/>
<polygon fill="midnightblue" stroke="midnightblue" points="1085.67,-198.28 1094.99,-193.25 1084.57,-191.37 1085.67,-198.28"/>
</g>
<!-- Node23 -->
<g id="node23" class="node">
<title>Node23</title>
<g id="a_node23"><a xlink:title=" ">
<polygon fill="white" stroke="#bfbfbf" points="640.5,-168.5 640.5,-198.5 751.5,-198.5 751.5,-168.5 640.5,-168.5"/>
<text text-anchor="start" x="648.5" y="-186.5" font-family="Helvetica,sans-Serif" font-size="10.00">boost/preprocessor</text>
<text text-anchor="middle" x="696" y="-175.5" font-family="Helvetica,sans-Serif" font-size="10.00">/seq/for_each_i.hpp</text>
</a>
</g>
</g>
<!-- Node21&#45;&gt;Node23 -->
<g id="edge32" class="edge">
<title>Node21&#45;&gt;Node23</title>
<path fill="none" stroke="midnightblue" d="M764.54,-235.48C753.8,-227.49 737.35,-215.25 723.25,-204.77"/>
<polygon fill="midnightblue" stroke="midnightblue" points="724.97,-201.68 714.85,-198.52 720.79,-207.3 724.97,-201.68"/>
</g>
<!-- Node24 -->
<g id="node24" class="node">
<title>Node24</title>
<g id="a_node24"><a xlink:title=" ">
<polygon fill="white" stroke="#bfbfbf" points="1223,-168.5 1223,-198.5 1333,-198.5 1333,-168.5 1223,-168.5"/>
<text text-anchor="start" x="1231" y="-186.5" font-family="Helvetica,sans-Serif" font-size="10.00">boost/preprocessor</text>
<text text-anchor="middle" x="1278" y="-175.5" font-family="Helvetica,sans-Serif" font-size="10.00">/stringize.hpp</text>
</a>
</g>
</g>
<!-- Node21&#45;&gt;Node24 -->
<g id="edge33" class="edge">
<title>Node21&#45;&gt;Node24</title>
<path fill="none" stroke="midnightblue" d="M854.71,-238.78C940.44,-232.45 1081.76,-220.13 1212.71,-199.08"/>
<polygon fill="midnightblue" stroke="midnightblue" points="1213.62,-202.48 1222.92,-197.42 1212.49,-195.57 1213.62,-202.48"/>
</g>
<!-- Node25 -->
<g id="node25" class="node">
<title>Node25</title>
<g id="a_node25"><a xlink:title=" ">
<polygon fill="white" stroke="#bfbfbf" points="769.5,-168.5 769.5,-198.5 884.5,-198.5 884.5,-168.5 769.5,-168.5"/>
<text text-anchor="start" x="777.5" y="-186.5" font-family="Helvetica,sans-Serif" font-size="10.00">boost/preprocessor</text>
<text text-anchor="middle" x="827" y="-175.5" font-family="Helvetica,sans-Serif" font-size="10.00">/variadic/to_seq.hpp</text>
</a>
</g>
</g>
<!-- Node21&#45;&gt;Node25 -->
<g id="edge34" class="edge">
<title>Node21&#45;&gt;Node25</title>
<path fill="none" stroke="midnightblue" d="M783.31,-235.48C789.83,-227.87 799.66,-216.4 808.34,-206.26"/>
<polygon fill="midnightblue" stroke="midnightblue" points="811.13,-208.39 814.98,-198.52 805.81,-203.84 811.13,-208.39"/>
</g>
<!-- Node26 -->
<g id="node26" class="node">
<title>Node26</title>
<g id="a_node26"><a xlink:title=" ">
<polygon fill="white" stroke="#bfbfbf" points="903,-174 903,-193 1039,-193 1039,-174 903,-174"/>
<text text-anchor="middle" x="971" y="-181" font-family="Helvetica,sans-Serif" font-size="10.00">boost/vmd/is_empty.hpp</text>
</a>
</g>
</g>
<!-- Node21&#45;&gt;Node26 -->
<g id="edge35" class="edge">
<title>Node21&#45;&gt;Node26</title>
<path fill="none" stroke="midnightblue" d="M803.94,-235.48C837.97,-225.09 895.58,-207.51 933.46,-195.95"/>
<polygon fill="midnightblue" stroke="midnightblue" points="934.57,-199.28 943.11,-193.01 932.53,-192.58 934.57,-199.28"/>
</g>
<!-- Node27&#45;&gt;Node9 -->
<g id="edge38" class="edge">
<title>Node27&#45;&gt;Node9</title>
<path fill="none" stroke="midnightblue" d="M436.27,-254.59C440.96,-272.39 451.83,-313.62 458.17,-337.67"/>
<polygon fill="midnightblue" stroke="midnightblue" points="454.79,-338.59 460.72,-347.37 461.56,-336.81 454.79,-338.59"/>
</g>
<!-- Node28&#45;&gt;Node1 -->
<g id="edge45" class="edge">
<title>Node28&#45;&gt;Node1</title>
<path fill="none" stroke="midnightblue" d="M312.78,-428.02C303.44,-454.78 261.35,-537.53 239.12,-573.74"/>
<polygon fill="midnightblue" stroke="midnightblue" points="236.11,-571.95 233.67,-582.26 242.01,-575.72 236.11,-571.95"/>
</g>
<!-- Node28&#45;&gt;Node3 -->
<g id="edge40" class="edge">
<title>Node28&#45;&gt;Node3</title>
<path fill="none" stroke="midnightblue" d="M292.12,-408.97C256.52,-393.48 190,-357.16 190,-302 190,-302 190,-302 190,-244 190,-177.69 137.6,-112.25 110.63,-82.96"/>
<polygon fill="midnightblue" stroke="midnightblue" points="113.18,-80.55 103.77,-75.68 108.09,-85.36 113.18,-80.55"/>
</g>
<!-- Node28&#45;&gt;Node4 -->
<g id="edge41" class="edge">
<title>Node28&#45;&gt;Node4</title>
<path fill="none" stroke="midnightblue" d="M322.71,-408.87C331.96,-399.32 346.54,-383.13 356,-367 364.6,-352.33 371.3,-334.17 375.59,-320.77"/>
<polygon fill="midnightblue" stroke="midnightblue" points="379.05,-321.41 378.61,-310.82 372.35,-319.37 379.05,-321.41"/>
</g>
<!-- Node28&#45;&gt;Node7 -->
<g id="edge42" class="edge">
<title>Node28&#45;&gt;Node7</title>
<path fill="none" stroke="midnightblue" d="M313.75,-408.87C313.38,-379.19 316.56,-280.64 372,-235 372,-235 601,-168 601,-168 744.5,-143.09 1203.72,-127.75 1329.74,-123.94"/>
<polygon fill="midnightblue" stroke="midnightblue" points="1330.01,-127.43 1339.9,-123.63 1329.8,-120.43 1330.01,-127.43"/>
</g>
<!-- Node28&#45;&gt;Node8 -->
<g id="edge43" class="edge">
<title>Node28&#45;&gt;Node8</title>
<path fill="none" stroke="midnightblue" d="M301.31,-408.99C277.39,-391.82 228,-350.5 228,-302 228,-302 228,-302 228,-182.5 228,-145.38 248.43,-105.85 261.76,-84.01"/>
<polygon fill="midnightblue" stroke="midnightblue" points="264.73,-85.86 267.12,-75.54 258.81,-82.12 264.73,-85.86"/>
</g>
<!-- Node28&#45;&gt;Node9 -->
<g id="edge44" class="edge">
<title>Node28&#45;&gt;Node9</title>
<path fill="none" stroke="midnightblue" d="M335.35,-408.98C360.69,-398.86 403.14,-381.9 432.07,-370.35"/>
<polygon fill="midnightblue" stroke="midnightblue" points="433.7,-373.47 441.69,-366.51 431.11,-366.97 433.7,-373.47"/>
</g>
<!-- Node29&#45;&gt;Node3 -->
<g id="edge50" class="edge">
<title>Node29&#45;&gt;Node3</title>
<path fill="none" stroke="midnightblue" d="M1521.72,-533.92C1271.99,-529.12 351.39,-506.6 245,-434 122.95,-350.72 100.12,-149.05 95.92,-86.1"/>
<polygon fill="midnightblue" stroke="midnightblue" points="99.39,-85.51 95.32,-75.73 92.41,-85.91 99.39,-85.51"/>
</g>
<!-- Node29&#45;&gt;Node7 -->
<g id="edge52" class="edge">
<title>Node29&#45;&gt;Node7</title>
<path fill="none" stroke="midnightblue" d="M1561.38,-526.47C1544.75,-519.12 1522.74,-507.01 1509,-490 1488.21,-464.25 1485,-452.6 1485,-419.5 1485,-419.5 1485,-419.5 1485,-244 1485,-208.58 1484.49,-194.51 1461,-168 1443.49,-148.24 1415.57,-136.64 1393.83,-130.18"/>
<polygon fill="midnightblue" stroke="midnightblue" points="1394.61,-126.76 1384.04,-127.49 1392.75,-133.51 1394.61,-126.76"/>
</g>
<!-- Node29&#45;&gt;Node8 -->
<g id="edge55" class="edge">
<title>Node29&#45;&gt;Node8</title>
<path fill="none" stroke="midnightblue" d="M1572.78,-526.29C1563.01,-518.04 1549.29,-504.75 1542,-490 1477.61,-359.71 1568.85,-286.71 1485,-168 1457.38,-128.9 1438.87,-125.68 1393,-112 1164.24,-43.75 560.27,-111.19 306.6,-75.8"/>
<polygon fill="midnightblue" stroke="midnightblue" points="307.03,-72.33 296.63,-74.33 306.01,-79.25 307.03,-72.33"/>
</g>
<!-- Node29&#45;&gt;Node9 -->
<g id="edge56" class="edge">
<title>Node29&#45;&gt;Node9</title>
<path fill="none" stroke="midnightblue" d="M1521.9,-533.17C1395.86,-529.02 1101.1,-517.05 855,-490 697.1,-472.64 630.64,-527.2 502,-434 482.91,-420.17 472.49,-394.2 467.33,-376.51"/>
<polygon fill="midnightblue" stroke="midnightblue" points="470.69,-375.53 464.77,-366.74 463.92,-377.3 470.69,-375.53"/>
</g>
<!-- Node29&#45;&gt;Node15 -->
<g id="edge47" class="edge">
<title>Node29&#45;&gt;Node15</title>
<path fill="none" stroke="midnightblue" d="M1646.02,-535.88C1732.25,-535.62 1881.65,-529.31 1916,-490 2026.7,-363.29 1851.9,-144.34 1798.63,-83.24"/>
<polygon fill="midnightblue" stroke="midnightblue" points="1801.21,-80.87 1791.96,-75.7 1795.96,-85.51 1801.21,-80.87"/>
</g>
<!-- Node29&#45;&gt;Node16 -->
<g id="edge51" class="edge">
<title>Node29&#45;&gt;Node16</title>
<path fill="none" stroke="midnightblue" d="M1646.1,-533.93C1734.61,-531.29 1891.39,-522.07 1937,-490 1965.78,-469.77 1973,-454.68 1973,-419.5 1973,-419.5 1973,-419.5 1973,-182.5 1973,-134.82 1923.26,-98.85 1890.98,-80.53"/>
<polygon fill="midnightblue" stroke="midnightblue" points="1892.45,-77.35 1882,-75.63 1889.1,-83.49 1892.45,-77.35"/>
</g>
<!-- Node30 -->
<g id="node30" class="node">
<title>Node30</title>
<g id="a_node30"><a xlink:title=" ">
<polygon fill="white" stroke="#bfbfbf" points="1551.5,-470.5 1551.5,-489.5 1616.5,-489.5 1616.5,-470.5 1551.5,-470.5"/>
<text text-anchor="middle" x="1584" y="-477.5" font-family="Helvetica,sans-Serif" font-size="10.00">exception</text>
</a>
</g>
</g>
<!-- Node29&#45;&gt;Node30 -->
<g id="edge48" class="edge">
<title>Node29&#45;&gt;Node30</title>
<path fill="none" stroke="midnightblue" d="M1584,-526.08C1584,-519.01 1584,-508.86 1584,-499.99"/>
<polygon fill="midnightblue" stroke="midnightblue" points="1587.5,-499.75 1584,-489.75 1580.5,-499.75 1587.5,-499.75"/>
</g>
<!-- Node31 -->
<g id="node31" class="node">
<title>Node31</title>
<g id="a_node31"><a xlink:title=" ">
<polygon fill="white" stroke="#bfbfbf" points="1634.5,-470.5 1634.5,-489.5 1717.5,-489.5 1717.5,-470.5 1634.5,-470.5"/>
<text text-anchor="middle" x="1676" y="-477.5" font-family="Helvetica,sans-Serif" font-size="10.00">initializer_list</text>
</a>
</g>
</g>
<!-- Node29&#45;&gt;Node31 -->
<g id="edge49" class="edge">
<title>Node29&#45;&gt;Node31</title>
<path fill="none" stroke="midnightblue" d="M1598.78,-526.32C1613.27,-517.82 1635.57,-504.73 1652.49,-494.8"/>
<polygon fill="midnightblue" stroke="midnightblue" points="1654.4,-497.74 1661.26,-489.65 1650.86,-491.7 1654.4,-497.74"/>
</g>
<!-- Node32 -->
<g id="node32" class="node">
<title>Node32</title>
<g id="a_node32"><a xlink:title=" ">
<polygon fill="white" stroke="#bfbfbf" points="1774.5,-470.5 1774.5,-489.5 1843.5,-489.5 1843.5,-470.5 1774.5,-470.5"/>
<text text-anchor="middle" x="1809" y="-477.5" font-family="Helvetica,sans-Serif" font-size="10.00">type_traits</text>
</a>
</g>
</g>
<!-- Node29&#45;&gt;Node32 -->
<g id="edge53" class="edge">
<title>Node29&#45;&gt;Node32</title>
<path fill="none" stroke="midnightblue" d="M1619.65,-526.44C1658.89,-517.03 1722,-501.88 1764.46,-491.69"/>
<polygon fill="midnightblue" stroke="midnightblue" points="1765.35,-495.08 1774.25,-489.34 1763.71,-488.27 1765.35,-495.08"/>
</g>
<!-- Node33 -->
<g id="node33" class="node">
<title>Node33</title>
<g id="a_node33"><a xlink:title=" ">
<polygon fill="white" stroke="#bfbfbf" points="1861.5,-470.5 1861.5,-489.5 1906.5,-489.5 1906.5,-470.5 1861.5,-470.5"/>
<text text-anchor="middle" x="1884" y="-477.5" font-family="Helvetica,sans-Serif" font-size="10.00">utility</text>
</a>
</g>
</g>
<!-- Node29&#45;&gt;Node33 -->
<g id="edge54" class="edge">
<title>Node29&#45;&gt;Node33</title>
<path fill="none" stroke="midnightblue" d="M1646.11,-526.51C1698.42,-518.92 1775.39,-506.72 1851.58,-489.88"/>
<polygon fill="midnightblue" stroke="midnightblue" points="1852.36,-493.29 1861.35,-487.7 1850.83,-486.46 1852.36,-493.29"/>
</g>
<!-- Node34 -->
<g id="node34" class="node">
<title>Node34</title>
<g id="a_node34"><a xlink:href="assertion_8hpp.html" target="_top" xlink:title=" ">
<polygon fill="white" stroke="black" points="864.5,-470.5 864.5,-489.5 971.5,-489.5 971.5,-470.5 864.5,-470.5"/>
<text text-anchor="middle" x="918" y="-477.5" font-family="Helvetica,sans-Serif" font-size="10.00">utils/assertion.hpp</text>
</a>
</g>
</g>
<!-- Node29&#45;&gt;Node34 -->
<g id="edge57" class="edge">
<title>Node29&#45;&gt;Node34</title>
<path fill="none" stroke="midnightblue" d="M1521.94,-529.97C1395.55,-519.72 1109.46,-496.52 981.7,-486.16"/>
<polygon fill="midnightblue" stroke="midnightblue" points="981.93,-482.67 971.68,-485.35 981.36,-489.65 981.93,-482.67"/>
</g>
<!-- Node46 -->
<g id="node46" class="node">
<title>Node46</title>
<g id="a_node46"><a xlink:href="ValueParser_8hpp.html" target="_top" xlink:title=" ">
<polygon fill="white" stroke="black" points="1654,-235.5 1654,-254.5 1770,-254.5 1770,-235.5 1654,-235.5"/>
<text text-anchor="middle" x="1712" y="-242.5" font-family="Helvetica,sans-Serif" font-size="10.00">xml/ValueParser.hpp</text>
</a>
</g>
</g>
<!-- Node29&#45;&gt;Node46 -->
<g id="edge78" class="edge">
<title>Node29&#45;&gt;Node46</title>
<path fill="none" stroke="midnightblue" d="M1646.22,-528.66C1674,-522.79 1705.11,-511.53 1726,-490 1748.68,-466.62 1746,-452.07 1746,-419.5 1746,-419.5 1746,-419.5 1746,-356 1746,-322.16 1731.13,-284.97 1721.06,-263.66"/>
<polygon fill="midnightblue" stroke="midnightblue" points="1724.14,-261.99 1716.59,-254.56 1717.86,-265.08 1724.14,-261.99"/>
</g>
<!-- Node34&#45;&gt;Node11 -->
<g id="edge60" class="edge">
<title>Node34&#45;&gt;Node11</title>
<path fill="none" stroke="midnightblue" d="M864.19,-479.84C785.67,-479.54 635.99,-473.2 516,-434 459.04,-415.39 446.6,-403.39 399,-367 345.91,-326.41 290.03,-290.67 327,-235 342.68,-211.4 371.77,-198.8 397.39,-192.09"/>
<polygon fill="midnightblue" stroke="midnightblue" points="398.45,-195.44 407.37,-189.72 396.83,-188.63 398.45,-195.44"/>
</g>
<!-- Node34&#45;&gt;Node21 -->
<g id="edge66" class="edge">
<title>Node34&#45;&gt;Node21</title>
<path fill="none" stroke="midnightblue" d="M864.12,-476.57C763.79,-471.49 556.5,-458.17 535,-434 464.36,-354.57 651.83,-284.34 736.73,-257.54"/>
<polygon fill="midnightblue" stroke="midnightblue" points="737.8,-260.87 746.31,-254.56 735.72,-254.19 737.8,-260.87"/>
</g>
<!-- Node34&#45;&gt;Node22 -->
<g id="edge63" class="edge">
<title>Node34&#45;&gt;Node22</title>
<path fill="none" stroke="midnightblue" d="M864.37,-478.11C781.53,-474.92 637.15,-461.16 689,-403 735.59,-350.74 940.62,-400.69 1002,-367 1069.73,-329.83 1118.24,-247.78 1138.91,-207.59"/>
<polygon fill="midnightblue" stroke="midnightblue" points="1142.09,-209.06 1143.45,-198.55 1135.83,-205.92 1142.09,-209.06"/>
</g>
<!-- Node34&#45;&gt;Node24 -->
<g id="edge64" class="edge">
<title>Node34&#45;&gt;Node24</title>
<path fill="none" stroke="midnightblue" d="M971.71,-477.38C1082.24,-473.48 1326.95,-461.78 1352,-434 1381.81,-400.94 1317.72,-371.63 1296,-311 1283.76,-276.83 1279.81,-234.66 1278.56,-208.68"/>
<polygon fill="midnightblue" stroke="midnightblue" points="1282.05,-208.46 1278.17,-198.6 1275.06,-208.73 1282.05,-208.46"/>
</g>
<!-- Node35 -->
<g id="node35" class="node">
<title>Node35</title>
<g id="a_node35"><a xlink:title=" ">
<polygon fill="white" stroke="#bfbfbf" points="698.5,-409 698.5,-428 747.5,-428 747.5,-409 698.5,-409"/>
<text text-anchor="middle" x="723" y="-416" font-family="Helvetica,sans-Serif" font-size="10.00">cstdlib</text>
</a>
</g>
</g>
<!-- Node34&#45;&gt;Node35 -->
<g id="edge58" class="edge">
<title>Node34&#45;&gt;Node35</title>
<path fill="none" stroke="midnightblue" d="M882.41,-470.48C849.51,-462.26 799.44,-448.91 757,-434 755.14,-433.35 753.23,-432.64 751.32,-431.9"/>
<polygon fill="midnightblue" stroke="midnightblue" points="752.47,-428.59 741.89,-428.07 749.84,-435.08 752.47,-428.59"/>
</g>
<!-- Node36 -->
<g id="node36" class="node">
<title>Node36</title>
<g id="a_node36"><a xlink:title=" ">
<polygon fill="white" stroke="#bfbfbf" points="766,-409 766,-428 826,-428 826,-409 766,-409"/>
<text text-anchor="middle" x="796" y="-416" font-family="Helvetica,sans-Serif" font-size="10.00">iostream</text>
</a>
</g>
</g>
<!-- Node34&#45;&gt;Node36 -->
<g id="edge59" class="edge">
<title>Node34&#45;&gt;Node36</title>
<path fill="none" stroke="midnightblue" d="M900.52,-470.48C880.14,-460.53 846.22,-443.99 822.58,-432.46"/>
<polygon fill="midnightblue" stroke="midnightblue" points="823.97,-429.25 813.45,-428.01 820.9,-435.54 823.97,-429.25"/>
</g>
<!-- Node37 -->
<g id="node37" class="node">
<title>Node37</title>
<g id="a_node37"><a xlink:title=" ">
<polygon fill="white" stroke="#bfbfbf" points="844.5,-409 844.5,-428 991.5,-428 991.5,-409 844.5,-409"/>
<text text-anchor="middle" x="918" y="-416" font-family="Helvetica,sans-Serif" font-size="10.00">boost/current_function.hpp</text>
</a>
</g>
</g>
<!-- Node34&#45;&gt;Node37 -->
<g id="edge61" class="edge">
<title>Node34&#45;&gt;Node37</title>
<path fill="none" stroke="midnightblue" d="M918,-470.48C918,-462.08 918,-448.98 918,-438.16"/>
<polygon fill="midnightblue" stroke="midnightblue" points="921.5,-438.01 918,-428.01 914.5,-438.01 921.5,-438.01"/>
</g>
<!-- Node38 -->
<g id="node38" class="node">
<title>Node38</title>
<g id="a_node38"><a xlink:title=" ">
<polygon fill="white" stroke="#bfbfbf" points="1009.5,-403.5 1009.5,-433.5 1144.5,-433.5 1144.5,-403.5 1009.5,-403.5"/>
<text text-anchor="start" x="1017.5" y="-421.5" font-family="Helvetica,sans-Serif" font-size="10.00">boost/preprocessor</text>
<text text-anchor="middle" x="1077" y="-410.5" font-family="Helvetica,sans-Serif" font-size="10.00">/comparison/greater.hpp</text>
</a>
</g>
</g>
<!-- Node34&#45;&gt;Node38 -->
<g id="edge62" class="edge">
<title>Node34&#45;&gt;Node38</title>
<path fill="none" stroke="midnightblue" d="M940.78,-470.48C963.93,-461.81 1000.45,-448.15 1029.86,-437.14"/>
<polygon fill="midnightblue" stroke="midnightblue" points="1031.39,-440.31 1039.53,-433.52 1028.93,-433.75 1031.39,-440.31"/>
</g>
<!-- Node39 -->
<g id="node39" class="node">
<title>Node39</title>
<g id="a_node39"><a xlink:title=" ">
<polygon fill="white" stroke="#bfbfbf" points="1163,-403.5 1163,-433.5 1273,-433.5 1273,-403.5 1163,-403.5"/>
<text text-anchor="start" x="1171" y="-421.5" font-family="Helvetica,sans-Serif" font-size="10.00">boost/preprocessor</text>
<text text-anchor="middle" x="1218" y="-410.5" font-family="Helvetica,sans-Serif" font-size="10.00">/variadic/size.hpp</text>
</a>
</g>
</g>
<!-- Node34&#45;&gt;Node39 -->
<g id="edge65" class="edge">
<title>Node34&#45;&gt;Node39</title>
<path fill="none" stroke="midnightblue" d="M964.9,-470.45C1010.26,-462.09 1081.19,-448.75 1152.63,-434.04"/>
<polygon fill="midnightblue" stroke="midnightblue" points="1153.62,-437.41 1162.71,-431.95 1152.2,-430.55 1153.62,-437.41"/>
</g>
<!-- Node40 -->
<g id="node40" class="node">
<title>Node40</title>
<g id="a_node40"><a xlink:href="Parallel_8hpp.html" target="_top" xlink:title=" ">
<polygon fill="white" stroke="black" points="544,-409 544,-428 642,-428 642,-409 544,-409"/>
<text text-anchor="middle" x="593" y="-416" font-family="Helvetica,sans-Serif" font-size="10.00">utils/Parallel.hpp</text>
</a>
</g>
</g>
<!-- Node34&#45;&gt;Node40 -->
<g id="edge67" class="edge">
<title>Node34&#45;&gt;Node40</title>
<path fill="none" stroke="midnightblue" d="M864.4,-470.7C811.33,-462.26 727.83,-448.42 656,-434 650.29,-432.85 644.31,-431.58 638.39,-430.27"/>
<polygon fill="midnightblue" stroke="midnightblue" points="639.1,-426.84 628.57,-428.05 637.56,-433.67 639.1,-426.84"/>
</g>
<!-- Node44 -->
<g id="node44" class="node">
<title>Node44</title>
<g id="a_node44"><a xlink:href="stacktrace_8hpp.html" target="_top" xlink:title=" ">
<polygon fill="white" stroke="black" points="1305.5,-291.5 1305.5,-310.5 1418.5,-310.5 1418.5,-291.5 1305.5,-291.5"/>
<text text-anchor="middle" x="1362" y="-298.5" font-family="Helvetica,sans-Serif" font-size="10.00">utils/stacktrace.hpp</text>
</a>
</g>
</g>
<!-- Node34&#45;&gt;Node44 -->
<g id="edge75" class="edge">
<title>Node34&#45;&gt;Node44</title>
<path fill="none" stroke="midnightblue" d="M971.77,-477.8C1088.66,-474.63 1357.65,-464.11 1385,-434 1413.96,-402.12 1388.99,-347.3 1372.96,-319.4"/>
<polygon fill="midnightblue" stroke="midnightblue" points="1375.91,-317.51 1367.76,-310.74 1369.91,-321.12 1375.91,-317.51"/>
</g>
<!-- Node45 -->
<g id="node45" class="node">
<title>Node45</title>
<g id="a_node45"><a xlink:title=" ">
<polygon fill="white" stroke="#bfbfbf" points="1291,-409 1291,-428 1343,-428 1343,-409 1291,-409"/>
<text text-anchor="middle" x="1317" y="-416" font-family="Helvetica,sans-Serif" font-size="10.00">cassert</text>
</a>
</g>
</g>
<!-- Node34&#45;&gt;Node45 -->
<g id="edge77" class="edge">
<title>Node34&#45;&gt;Node45</title>
<path fill="none" stroke="midnightblue" d="M971.59,-476.89C1043.35,-473.04 1174.1,-462.46 1282,-434 1284.45,-433.35 1286.95,-432.57 1289.44,-431.72"/>
<polygon fill="midnightblue" stroke="midnightblue" points="1290.71,-434.98 1298.79,-428.13 1288.2,-428.44 1290.71,-434.98"/>
</g>
<!-- Node40&#45;&gt;Node4 -->
<g id="edge69" class="edge">
<title>Node40&#45;&gt;Node4</title>
<path fill="none" stroke="midnightblue" d="M587.04,-408.77C576.46,-393.92 552.96,-363.75 526,-347 493.21,-326.63 450.49,-314.84 419.92,-308.48"/>
<polygon fill="midnightblue" stroke="midnightblue" points="420.55,-305.03 410.06,-306.53 419.19,-311.9 420.55,-305.03"/>
</g>
<!-- Node40&#45;&gt;Node7 -->
<g id="edge70" class="edge">
<title>Node40&#45;&gt;Node7</title>
<path fill="none" stroke="midnightblue" d="M640.68,-408.99C651.93,-407.01 663.89,-404.91 675,-403 770.48,-386.56 804.04,-411.69 890,-367 917.54,-352.68 1058.43,-182.26 1086,-168 1127.99,-146.28 1265.8,-131.57 1329.36,-125.77"/>
<polygon fill="midnightblue" stroke="midnightblue" points="1329.96,-129.23 1339.61,-124.85 1329.34,-122.25 1329.96,-129.23"/>
</g>
<!-- Node40&#45;&gt;Node8 -->
<g id="edge71" class="edge">
<title>Node40&#45;&gt;Node8</title>
<path fill="none" stroke="midnightblue" d="M595.72,-408.94C607.84,-368.9 652.9,-198.31 570,-112 530.76,-71.15 378.45,-86.43 306.66,-75.82"/>
<polygon fill="midnightblue" stroke="midnightblue" points="307.13,-72.35 296.68,-74.05 305.91,-79.24 307.13,-72.35"/>
</g>
<!-- Node40&#45;&gt;Node9 -->
<g id="edge72" class="edge">
<title>Node40&#45;&gt;Node9</title>
<path fill="none" stroke="midnightblue" d="M574.37,-408.98C552.56,-398.99 516.2,-382.35 490.98,-370.81"/>
<polygon fill="midnightblue" stroke="midnightblue" points="492.14,-367.49 481.59,-366.51 489.23,-373.85 492.14,-367.49"/>
</g>
<!-- Node41 -->
<g id="node41" class="node">
<title>Node41</title>
<g id="a_node41"><a xlink:title=" ">
<polygon fill="white" stroke="#bfbfbf" points="712,-347.5 712,-366.5 760,-366.5 760,-347.5 712,-347.5"/>
<text text-anchor="middle" x="736" y="-354.5" font-family="Helvetica,sans-Serif" font-size="10.00">iosfwd</text>
</a>
</g>
</g>
<!-- Node40&#45;&gt;Node41 -->
<g id="edge68" class="edge">
<title>Node40&#45;&gt;Node41</title>
<path fill="none" stroke="midnightblue" d="M613.49,-408.98C637.81,-398.86 678.55,-381.9 706.32,-370.35"/>
<polygon fill="midnightblue" stroke="midnightblue" points="707.66,-373.58 715.55,-366.51 704.97,-367.12 707.66,-373.58"/>
</g>
<!-- Node42 -->
<g id="node42" class="node">
<title>Node42</title>
<g id="a_node42"><a xlink:href="types_8hpp.html" target="_top" xlink:title=" ">
<polygon fill="white" stroke="black" points="778.5,-347.5 778.5,-366.5 881.5,-366.5 881.5,-347.5 778.5,-347.5"/>
<text text-anchor="middle" x="830" y="-354.5" font-family="Helvetica,sans-Serif" font-size="10.00">precice/types.hpp</text>
</a>
</g>
</g>
<!-- Node40&#45;&gt;Node42 -->
<g id="edge73" class="edge">
<title>Node40&#45;&gt;Node42</title>
<path fill="none" stroke="midnightblue" d="M626.96,-408.98C668.84,-398.46 740.13,-380.56 786.13,-369.01"/>
<polygon fill="midnightblue" stroke="midnightblue" points="787.26,-372.34 796.11,-366.51 785.56,-365.55 787.26,-372.34"/>
</g>
<!-- Node43 -->
<g id="node43" class="node">
<title>Node43</title>
<g id="a_node43"><a xlink:title=" ">
<polygon fill="white" stroke="#bfbfbf" points="650,-347.5 650,-366.5 694,-366.5 694,-347.5 650,-347.5"/>
<text text-anchor="middle" x="672" y="-354.5" font-family="Helvetica,sans-Serif" font-size="10.00">mpi.h</text>
</a>
</g>
</g>
<!-- Node40&#45;&gt;Node43 -->
<g id="edge74" class="edge">
<title>Node40&#45;&gt;Node43</title>
<path fill="none" stroke="midnightblue" d="M604.32,-408.98C616.87,-399.52 637.35,-384.1 652.5,-372.69"/>
<polygon fill="midnightblue" stroke="midnightblue" points="654.82,-375.32 660.7,-366.51 650.61,-369.73 654.82,-375.32"/>
</g>
<!-- Node44&#45;&gt;Node7 -->
<g id="edge76" class="edge">
<title>Node44&#45;&gt;Node7</title>
<path fill="none" stroke="midnightblue" d="M1362,-291.46C1362,-264.43 1362,-180.24 1362,-142.11"/>
<polygon fill="midnightblue" stroke="midnightblue" points="1365.5,-141.87 1362,-131.87 1358.5,-141.87 1365.5,-141.87"/>
</g>
<!-- Node46&#45;&gt;Node2 -->
<g id="edge79" class="edge">
<title>Node46&#45;&gt;Node2</title>
<path fill="none" stroke="midnightblue" d="M1733.64,-235.44C1795.16,-209.9 1962.73,-131.37 1901,-56 1878.83,-28.93 1780.85,-17.8 1722.06,-13.5"/>
<polygon fill="midnightblue" stroke="midnightblue" points="1722.14,-9.99 1711.92,-12.79 1721.66,-16.98 1722.14,-9.99"/>
</g>
<!-- Node46&#45;&gt;Node7 -->
<g id="edge80" class="edge">
<title>Node46&#45;&gt;Node7</title>
<path fill="none" stroke="midnightblue" d="M1688.74,-235.48C1649.66,-221.22 1568.27,-191.73 1499,-168 1463.14,-155.72 1421.78,-142.22 1393.96,-133.25"/>
<polygon fill="midnightblue" stroke="midnightblue" points="1394.96,-129.89 1384.36,-130.15 1392.81,-136.55 1394.96,-129.89"/>
</g>
<!-- Node47 -->
<g id="node47" class="node">
<title>Node47</title>
<g id="a_node47"><a xlink:href="String_8hpp.html" target="_top" xlink:title=" ">
<polygon fill="white" stroke="black" points="1624,-174 1624,-193 1714,-193 1714,-174 1624,-174"/>
<text text-anchor="middle" x="1669" y="-181" font-family="Helvetica,sans-Serif" font-size="10.00">utils/String.hpp</text>
</a>
</g>
</g>
<!-- Node46&#45;&gt;Node47 -->
<g id="edge81" class="edge">
<title>Node46&#45;&gt;Node47</title>
<path fill="none" stroke="midnightblue" d="M1705.84,-235.48C1699.39,-226.55 1689.1,-212.31 1681.03,-201.14"/>
<polygon fill="midnightblue" stroke="midnightblue" points="1683.84,-199.06 1675.15,-193.01 1678.17,-203.16 1683.84,-199.06"/>
</g>
<!-- Node47&#45;&gt;Node7 -->
<g id="edge84" class="edge">
<title>Node47&#45;&gt;Node7</title>
<path fill="none" stroke="midnightblue" d="M1625.01,-173.98C1562.56,-161.87 1449.62,-139.98 1394.3,-129.26"/>
<polygon fill="midnightblue" stroke="midnightblue" points="1394.83,-125.8 1384.35,-127.33 1393.5,-132.67 1394.83,-125.8"/>
</g>
<!-- Node47&#45;&gt;Node16 -->
<g id="edge83" class="edge">
<title>Node47&#45;&gt;Node16</title>
<path fill="none" stroke="midnightblue" d="M1689.68,-173.85C1711.27,-164.53 1745.84,-148.76 1774,-132 1799.9,-116.58 1827.75,-95.74 1845.5,-81.86"/>
<polygon fill="midnightblue" stroke="midnightblue" points="1847.67,-84.6 1853.34,-75.66 1843.33,-79.11 1847.67,-84.6"/>
</g>
<!-- Node47&#45;&gt;Node19 -->
<g id="edge82" class="edge">
<title>Node47&#45;&gt;Node19</title>
<path fill="none" stroke="midnightblue" d="M1661.24,-173.92C1646.35,-158.14 1611.96,-124.97 1575,-112 1457.69,-70.84 596.49,-95.29 432.34,-75.52"/>
<polygon fill="midnightblue" stroke="midnightblue" points="432.54,-72.01 422.15,-74.09 431.56,-78.94 432.54,-72.01"/>
</g>
</g>
</svg>
