<?xml version="1.0" encoding="UTF-8" standalone="no"?>
<!DOCTYPE svg PUBLIC "-//W3C//DTD SVG 1.1//EN"
 "http://www.w3.org/Graphics/SVG/1.1/DTD/svg11.dtd">
<!-- Generated by graphviz version 2.43.0 (0)
 -->
<!-- Title: precice::partition::ProvidedPartition Pages: 1 -->
<!--zoomable 163 -->
<svg id="main" version="1.1" xmlns="http://www.w3.org/2000/svg" xmlns:xlink="http://www.w3.org/1999/xlink" xml:space="preserve" onload="init(evt)">
<style type="text/css"><![CDATA[
.edge:hover path { stroke: red; }
.edge:hover polygon { stroke: red; fill: red; }
]]></style>
<script type="text/javascript"><![CDATA[
var edges = document.getElementsByTagName('g');
if (edges && edges.length) {
  for (var i=0;i<edges.length;i++) {
    if (edges[i].id.substr(0,4)=='edge') {
      edges[i].setAttribute('class','edge');
    }
  }
}
]]></script>
        <defs>
                <circle id="rim" cx="0" cy="0" r="7"/>
                <circle id="rim2" cx="0" cy="0" r="3.5"/>
                <g id="zoomPlus">
                        <use xlink:href="#rim" fill="#404040">
                                <set attributeName="fill" to="#808080" begin="zoomplus.mouseover" end="zoomplus.mouseout"/>
                        </use>
                        <path d="M-4,0h8M0,-4v8" fill="none" stroke="white" stroke-width="1.5" pointer-events="none"/>
                </g>
                <g id="zoomMin">
                        <use xlink:href="#rim" fill="#404040">
                                <set attributeName="fill" to="#808080" begin="zoomminus.mouseover" end="zoomminus.mouseout"/>
                        </use>
                        <path d="M-4,0h8" fill="none" stroke="white" stroke-width="1.5" pointer-events="none"/>
                </g>
                <g id="dirArrow">
                        <path fill="none" stroke="white" stroke-width="1.5" d="M0,-3.0v7 M-2.5,-0.5L0,-3.0L2.5,-0.5"/>
                </g>
               <g id="resetDef">
                       <use xlink:href="#rim2" fill="#404040">
                               <set attributeName="fill" to="#808080" begin="reset.mouseover" end="reset.mouseout"/>
                       </use>
               </g>
        </defs>

<script type="text/javascript">
var viewWidth = 1135;
var viewHeight = 163;
var sectionId = 'dynsection-1';
</script>
<script xlink:href="svgpan.js"/>
<svg id="graph" class="graph">
<g id="viewport">
<title>precice::partition::ProvidedPartition</title>
<polygon fill="white" stroke="transparent" points="-4,4 -4,-158.5 1131,-158.5 1131,4 -4,4"/>
<!-- Node1 -->
<g id="node1" class="node">
<title>Node1</title>
<g id="a_node1"><a xlink:title="A partition that is provided by the participant.">
<polygon fill="#bfbfbf" stroke="black" points="1021,-65 1021,-95 1127,-95 1127,-65 1021,-65"/>
<text text-anchor="start" x="1029" y="-83" font-family="Helvetica,sans-Serif" font-size="10.00">precice::partition</text>
<text text-anchor="middle" x="1074" y="-72" font-family="Helvetica,sans-Serif" font-size="10.00">::ProvidedPartition</text>
</a>
</g>
</g>
<!-- Node2 -->
<g id="node2" class="node">
<title>Node2</title>
<g id="a_node2"><a xlink:href="classprecice_1_1partition_1_1Partition.html" target="_top" xlink:title="Abstract base class for partitions.">
<polygon fill="white" stroke="black" points="885,-39 885,-69 984,-69 984,-39 885,-39"/>
<text text-anchor="start" x="893" y="-57" font-family="Helvetica,sans-Serif" font-size="10.00">precice::partition</text>
<text text-anchor="middle" x="934.5" y="-46" font-family="Helvetica,sans-Serif" font-size="10.00">::Partition</text>
</a>
</g>
</g>
<!-- Node2&#45;&gt;Node1 -->
<g id="edge1" class="edge">
<title>Node2&#45;&gt;Node1</title>
<path fill="none" stroke="midnightblue" d="M994.43,-65.14C1003.12,-66.79 1012.02,-68.47 1020.56,-70.08"/>
<polygon fill="midnightblue" stroke="midnightblue" points="994.84,-61.66 984.36,-63.24 993.54,-68.54 994.84,-61.66"/>
</g>
<!-- Node3 -->
<g id="node3" class="node">
<title>Node3</title>
<g id="a_node3"><a xlink:title=" ">
<polygon fill="white" stroke="#bfbfbf" points="631.5,-124 631.5,-154 753.5,-154 753.5,-124 631.5,-124"/>
<text text-anchor="start" x="639.5" y="-142" font-family="Helvetica,sans-Serif" font-size="10.00">std::vector&lt; mapping</text>
<text text-anchor="middle" x="692.5" y="-131" font-family="Helvetica,sans-Serif" font-size="10.00">::PtrMapping &gt;</text>
</a>
</g>
</g>
<!-- Node3&#45;&gt;Node2 -->
<g id="edge2" class="edge">
<title>Node3&#45;&gt;Node2</title>
<path fill="none" stroke="#9a32cd" stroke-dasharray="5,2" d="M763.31,-125.71C795.58,-118.36 833.98,-107.87 867,-94 871.47,-92.12 891.95,-79.7 909.02,-69.19"/>
<polygon fill="#9a32cd" stroke="#9a32cd" points="762.51,-122.31 753.51,-127.89 764.03,-129.14 762.51,-122.31"/>
<text text-anchor="middle" x="827.5" y="-132" font-family="Helvetica,sans-Serif" font-size="10.00"> _fromMappings</text>
<text text-anchor="middle" x="827.5" y="-121" font-family="Helvetica,sans-Serif" font-size="10.00">_toMappings</text>
</g>
<!-- Node4 -->
<g id="node4" class="node">
<title>Node4</title>
<g id="a_node4"><a xlink:title=" ">
<polygon fill="white" stroke="#bfbfbf" points="368,-129.5 368,-148.5 522,-148.5 522,-129.5 368,-129.5"/>
<text text-anchor="middle" x="445" y="-136.5" font-family="Helvetica,sans-Serif" font-size="10.00">std::shared_ptr&lt; Mapping &gt;</text>
</a>
</g>
</g>
<!-- Node4&#45;&gt;Node3 -->
<g id="edge3" class="edge">
<title>Node4&#45;&gt;Node3</title>
<path fill="none" stroke="#9a32cd" stroke-dasharray="5,2" d="M532.33,-139C564.99,-139 601.43,-139 631.19,-139"/>
<polygon fill="#9a32cd" stroke="#9a32cd" points="532.33,-135.5 522.33,-139 532.33,-142.5 532.33,-135.5"/>
<text text-anchor="middle" x="572.5" y="-142" font-family="Helvetica,sans-Serif" font-size="10.00"> elements</text>
</g>
<!-- Node5 -->
<g id="node5" class="node">
<title>Node5</title>
<g id="a_node5"><a xlink:href="classprecice_1_1logging_1_1Logger.html" target="_top" xlink:title="This class provides a lightweight logger.">
<polygon fill="white" stroke="black" points="626,-85.5 626,-104.5 759,-104.5 759,-85.5 626,-85.5"/>
<text text-anchor="middle" x="692.5" y="-92.5" font-family="Helvetica,sans-Serif" font-size="10.00">precice::logging::Logger</text>
</a>
</g>
</g>
<!-- Node5&#45;&gt;Node1 -->
<g id="edge12" class="edge">
<title>Node5&#45;&gt;Node1</title>
<path fill="none" stroke="#9a32cd" stroke-dasharray="5,2" d="M769.13,-94.36C799.55,-93.93 834.95,-93.21 867,-92 919.45,-90.02 979.33,-86.38 1020.96,-83.62"/>
<polygon fill="#9a32cd" stroke="#9a32cd" points="768.97,-90.87 759.02,-94.5 769.06,-97.86 768.97,-90.87"/>
<text text-anchor="middle" x="934.5" y="-94" font-family="Helvetica,sans-Serif" font-size="10.00"> _log</text>
</g>
<!-- Node5&#45;&gt;Node2 -->
<g id="edge4" class="edge">
<title>Node5&#45;&gt;Node2</title>
<path fill="none" stroke="#9a32cd" stroke-dasharray="5,2" d="M759.27,-83.76C798.89,-77 848.5,-68.52 884.64,-62.35"/>
<polygon fill="#9a32cd" stroke="#9a32cd" points="758.43,-80.36 749.16,-85.49 759.61,-87.26 758.43,-80.36"/>
<text text-anchor="middle" x="827.5" y="-82" font-family="Helvetica,sans-Serif" font-size="10.00"> _log</text>
</g>
<!-- Node6 -->
<g id="node6" class="node">
<title>Node6</title>
<g id="a_node6"><a xlink:title=" ">
<polygon fill="white" stroke="#bfbfbf" points="360,-80 360,-110 530,-110 530,-80 360,-80"/>
<text text-anchor="start" x="368" y="-98" font-family="Helvetica,sans-Serif" font-size="10.00">std::unique_ptr&lt; precice</text>
<text text-anchor="middle" x="445" y="-87" font-family="Helvetica,sans-Serif" font-size="10.00">::logging::Logger::LoggerImpl &gt;</text>
</a>
</g>
</g>
<!-- Node6&#45;&gt;Node5 -->
<g id="edge5" class="edge">
<title>Node6&#45;&gt;Node5</title>
<path fill="none" stroke="#9a32cd" stroke-dasharray="5,2" d="M540.51,-95C568.95,-95 599.53,-95 625.68,-95"/>
<polygon fill="#9a32cd" stroke="#9a32cd" points="540.14,-91.5 530.14,-95 540.14,-98.5 540.14,-91.5"/>
<text text-anchor="middle" x="572.5" y="-98" font-family="Helvetica,sans-Serif" font-size="10.00"> _impl</text>
</g>
<!-- Node7 -->
<g id="node7" class="node">
<title>Node7</title>
<g id="a_node7"><a xlink:href="classprecice_1_1logging_1_1Logger_1_1LoggerImpl.html" target="_top" xlink:title=" ">
<polygon fill="white" stroke="black" points="174,-80 174,-110 307,-110 307,-80 174,-80"/>
<text text-anchor="start" x="182" y="-98" font-family="Helvetica,sans-Serif" font-size="10.00">precice::logging::Logger</text>
<text text-anchor="middle" x="240.5" y="-87" font-family="Helvetica,sans-Serif" font-size="10.00">::LoggerImpl</text>
</a>
</g>
</g>
<!-- Node7&#45;&gt;Node6 -->
<g id="edge6" class="edge">
<title>Node7&#45;&gt;Node6</title>
<path fill="none" stroke="#9a32cd" stroke-dasharray="5,2" d="M317.62,-95C331.37,-95 345.78,-95 359.75,-95"/>
<polygon fill="#9a32cd" stroke="#9a32cd" points="317.25,-91.5 307.25,-95 317.25,-98.5 317.25,-91.5"/>
<text text-anchor="middle" x="333.5" y="-98" font-family="Helvetica,sans-Serif" font-size="10.00"> ptr</text>
</g>
<!-- Node8 -->
<g id="node8" class="node">
<title>Node8</title>
<g id="a_node8"><a xlink:title=" ">
<polygon fill="white" stroke="#bfbfbf" points="0,-69 0,-121 137,-121 137,-69 0,-69"/>
<text text-anchor="start" x="8" y="-109" font-family="Helvetica,sans-Serif" font-size="10.00">boost::log::sources</text>
<text text-anchor="start" x="8" y="-98" font-family="Helvetica,sans-Serif" font-size="10.00">::severity_logger&lt; boost</text>
<text text-anchor="start" x="8" y="-87" font-family="Helvetica,sans-Serif" font-size="10.00">::log::trivial::severity</text>
<text text-anchor="middle" x="68.5" y="-76" font-family="Helvetica,sans-Serif" font-size="10.00">_level &gt;</text>
</a>
</g>
</g>
<!-- Node8&#45;&gt;Node7 -->
<g id="edge7" class="edge">
<title>Node8&#45;&gt;Node7</title>
<path fill="none" stroke="midnightblue" d="M147.22,-95C156.17,-95 165.23,-95 173.99,-95"/>
<polygon fill="midnightblue" stroke="midnightblue" points="147.18,-91.5 137.18,-95 147.18,-98.5 147.18,-91.5"/>
</g>
<!-- Node9 -->
<g id="node9" class="node">
<title>Node9</title>
<g id="a_node9"><a xlink:title=" ">
<polygon fill="white" stroke="#bfbfbf" points="623.5,-0.5 623.5,-19.5 761.5,-19.5 761.5,-0.5 623.5,-0.5"/>
<text text-anchor="middle" x="692.5" y="-7.5" font-family="Helvetica,sans-Serif" font-size="10.00">std::shared_ptr&lt; Mesh &gt;</text>
</a>
</g>
</g>
<!-- Node9&#45;&gt;Node2 -->
<g id="edge8" class="edge">
<title>Node9&#45;&gt;Node2</title>
<path fill="none" stroke="#9a32cd" stroke-dasharray="5,2" d="M771.65,-15.9C801.71,-19.09 836.19,-23.89 867,-31 876.05,-33.09 885.58,-35.96 894.52,-38.97"/>
<polygon fill="#9a32cd" stroke="#9a32cd" points="771.95,-12.41 761.64,-14.87 771.24,-19.37 771.95,-12.41"/>
<text text-anchor="middle" x="827.5" y="-34" font-family="Helvetica,sans-Serif" font-size="10.00"> _mesh</text>
</g>
<!-- Node10 -->
<g id="node10" class="node">
<title>Node10</title>
<g id="a_node10"><a xlink:title=" ">
<polygon fill="white" stroke="#bfbfbf" points="615,-38.5 615,-57.5 770,-57.5 770,-38.5 615,-38.5"/>
<text text-anchor="middle" x="692.5" y="-45.5" font-family="Helvetica,sans-Serif" font-size="10.00">std::vector&lt; m2n::PtrM2N &gt;</text>
</a>
</g>
</g>
<!-- Node10&#45;&gt;Node2 -->
<g id="edge9" class="edge">
<title>Node10&#45;&gt;Node2</title>
<path fill="none" stroke="#9a32cd" stroke-dasharray="5,2" d="M780.46,-45.52C808.14,-45.26 838.87,-45.52 867,-47 872.8,-47.3 878.87,-47.76 884.88,-48.29"/>
<polygon fill="#9a32cd" stroke="#9a32cd" points="780.37,-42.02 770.41,-45.64 780.45,-49.02 780.37,-42.02"/>
<text text-anchor="middle" x="827.5" y="-50" font-family="Helvetica,sans-Serif" font-size="10.00"> _m2ns</text>
</g>
<!-- Node11 -->
<g id="node11" class="node">
<title>Node11</title>
<g id="a_node11"><a xlink:title="STL class.">
<polygon fill="white" stroke="#bfbfbf" points="386,-38.5 386,-57.5 504,-57.5 504,-38.5 386,-38.5"/>
<text text-anchor="middle" x="445" y="-45.5" font-family="Helvetica,sans-Serif" font-size="10.00">std::shared_ptr&lt; T &gt;</text>
</a>
</g>
</g>
<!-- Node11&#45;&gt;Node10 -->
<g id="edge10" class="edge">
<title>Node11&#45;&gt;Node10</title>
<path fill="none" stroke="#9a32cd" stroke-dasharray="5,2" d="M514.5,-48C545.64,-48 582.61,-48 614.68,-48"/>
<polygon fill="#9a32cd" stroke="#9a32cd" points="514.18,-44.5 504.18,-48 514.18,-51.5 514.18,-44.5"/>
<text text-anchor="middle" x="572.5" y="-51" font-family="Helvetica,sans-Serif" font-size="10.00"> elements</text>
</g>
<!-- Node12 -->
<g id="node12" class="node">
<title>Node12</title>
<g id="a_node12"><a xlink:title=" ">
<polygon fill="white" stroke="#bfbfbf" points="226,-38.5 226,-57.5 255,-57.5 255,-38.5 226,-38.5"/>
<text text-anchor="middle" x="240.5" y="-45.5" font-family="Helvetica,sans-Serif" font-size="10.00">T</text>
</a>
</g>
</g>
<!-- Node12&#45;&gt;Node11 -->
<g id="edge11" class="edge">
<title>Node12&#45;&gt;Node11</title>
<path fill="none" stroke="#9a32cd" stroke-dasharray="5,2" d="M265.25,-48C294.7,-48 345.9,-48 385.98,-48"/>
<polygon fill="#9a32cd" stroke="#9a32cd" points="265.1,-44.5 255.1,-48 265.1,-51.5 265.1,-44.5"/>
<text text-anchor="middle" x="333.5" y="-51" font-family="Helvetica,sans-Serif" font-size="10.00"> ptr</text>
</g>
</g>
</svg>
        <g id="navigator" transform="translate(0 0)" fill="#404254">
                <rect fill="#f2f5e9" fill-opacity="0.5" stroke="#606060" stroke-width=".5" x="0" y="0" width="60" height="60"/>
                <use id="zoomplus" xlink:href="#zoomPlus" x="17" y="9" onmousedown="handleZoom(evt,'in')"/>
                <use id="zoomminus" xlink:href="#zoomMin" x="42" y="9" onmousedown="handleZoom(evt,'out')"/>
                <use id="reset" xlink:href="#resetDef" x="30" y="36" onmousedown="handleReset()"/>
                <g id="arrowUp" xlink:href="#dirArrow" transform="translate(30 24)" onmousedown="handlePan(0,-1)">
                  <use xlink:href="#rim" fill="#404040">
                        <set attributeName="fill" to="#808080" begin="arrowUp.mouseover" end="arrowUp.mouseout"/>
                  </use>
                  <path fill="none" stroke="white" stroke-width="1.5" d="M0,-3.0v7 M-2.5,-0.5L0,-3.0L2.5,-0.5"/>
                </g>
                <g id="arrowRight" xlink:href="#dirArrow" transform="rotate(90) translate(36 -43)" onmousedown="handlePan(1,0)">
                  <use xlink:href="#rim" fill="#404040">
                        <set attributeName="fill" to="#808080" begin="arrowRight.mouseover" end="arrowRight.mouseout"/>
                  </use>
                  <path fill="none" stroke="white" stroke-width="1.5" d="M0,-3.0v7 M-2.5,-0.5L0,-3.0L2.5,-0.5"/>
                </g>
                <g id="arrowDown" xlink:href="#dirArrow" transform="rotate(180) translate(-30 -48)" onmousedown="handlePan(0,1)">
                  <use xlink:href="#rim" fill="#404040">
                        <set attributeName="fill" to="#808080" begin="arrowDown.mouseover" end="arrowDown.mouseout"/>
                  </use>
                  <path fill="none" stroke="white" stroke-width="1.5" d="M0,-3.0v7 M-2.5,-0.5L0,-3.0L2.5,-0.5"/>
                </g>
                <g id="arrowLeft" xlink:href="#dirArrow" transform="rotate(270) translate(-36 17)" onmousedown="handlePan(-1,0)">
                  <use xlink:href="#rim" fill="#404040">
                        <set attributeName="fill" to="#808080" begin="arrowLeft.mouseover" end="arrowLeft.mouseout"/>
                  </use>
                  <path fill="none" stroke="white" stroke-width="1.5" d="M0,-3.0v7 M-2.5,-0.5L0,-3.0L2.5,-0.5"/>
                </g>
        </g>
        <svg viewBox="0 0 15 15" width="100%" height="30px" preserveAspectRatio="xMaxYMin meet">
         <g id="arrow_out" transform="scale(0.3 0.3)">
          <a xlink:href="classprecice_1_1partition_1_1ProvidedPartition__coll__graph_org.svg" target="_base">
           <rect id="button" ry="5" rx="5" y="6" x="6" height="38" width="38"
                fill="#f2f5e9" fill-opacity="0.5" stroke="#606060" stroke-width="1.0"/>
           <path id="arrow"
             d="M 11.500037,31.436501 C 11.940474,20.09759 22.043105,11.32322 32.158766,21.979434 L 37.068811,17.246167 C 37.068811,17.246167 37.088388,32 37.088388,32 L 22.160133,31.978069 C 22.160133,31.978069 26.997745,27.140456 26.997745,27.140456 C 18.528582,18.264221 13.291696,25.230495 11.500037,31.436501 z"
             style="fill:#404040;"/>
          </a>
         </g>
        </svg>
</svg>
