<?xml version="1.0" encoding="UTF-8" standalone="no"?>
<!DOCTYPE svg PUBLIC "-//W3C//DTD SVG 1.1//EN"
 "http://www.w3.org/Graphics/SVG/1.1/DTD/svg11.dtd">
<!-- Generated by graphviz version 2.43.0 (0)
 -->
<!-- Title: precice::cplscheme::BiCouplingScheme Pages: 1 -->
<svg width="2664pt" height="629pt"
 viewBox="0.00 0.00 2664.00 629.00" xmlns="http://www.w3.org/2000/svg" xmlns:xlink="http://www.w3.org/1999/xlink">
<g id="graph0" class="graph" transform="scale(1 1) rotate(0) translate(4 625)">
<title>precice::cplscheme::BiCouplingScheme</title>
<polygon fill="white" stroke="transparent" points="-4,4 -4,-625 2660,-625 2660,4 -4,4"/>
<!-- Node1 -->
<g id="node1" class="node">
<title>Node1</title>
<g id="a_node1"><a xlink:title="Abstract base class for coupling schemes with two participants.">
<polygon fill="#bfbfbf" stroke="black" points="2542,-183 2542,-213 2656,-213 2656,-183 2542,-183"/>
<text text-anchor="start" x="2550" y="-201" font-family="Helvetica,sans-Serif" font-size="10.00">precice::cplscheme</text>
<text text-anchor="middle" x="2599" y="-190" font-family="Helvetica,sans-Serif" font-size="10.00">::BiCouplingScheme</text>
</a>
</g>
</g>
<!-- Node2 -->
<g id="node2" class="node">
<title>Node2</title>
<g id="a_node2"><a xlink:href="classprecice_1_1cplscheme_1_1BaseCouplingScheme.html" target="_top" xlink:title="Abstract base class for standard coupling schemes.">
<polygon fill="white" stroke="black" points="2344,-341 2344,-371 2472,-371 2472,-341 2344,-341"/>
<text text-anchor="start" x="2352" y="-359" font-family="Helvetica,sans-Serif" font-size="10.00">precice::cplscheme</text>
<text text-anchor="middle" x="2408" y="-348" font-family="Helvetica,sans-Serif" font-size="10.00">::BaseCouplingScheme</text>
</a>
</g>
</g>
<!-- Node2&#45;&gt;Node1 -->
<g id="edge1" class="edge">
<title>Node2&#45;&gt;Node1</title>
<path fill="none" stroke="midnightblue" d="M2434.88,-334.36C2473.76,-301.86 2546.25,-241.26 2579.93,-213.1"/>
<polygon fill="midnightblue" stroke="midnightblue" points="2432.55,-331.75 2427.12,-340.85 2437.04,-337.12 2432.55,-331.75"/>
</g>
<!-- Node3 -->
<g id="node3" class="node">
<title>Node3</title>
<g id="a_node3"><a xlink:href="classprecice_1_1cplscheme_1_1CouplingScheme.html" target="_top" xlink:title="Interface for all coupling schemes.">
<polygon fill="white" stroke="black" points="2038.5,-363 2038.5,-393 2148.5,-393 2148.5,-363 2038.5,-363"/>
<text text-anchor="start" x="2046.5" y="-381" font-family="Helvetica,sans-Serif" font-size="10.00">precice::cplscheme</text>
<text text-anchor="middle" x="2093.5" y="-370" font-family="Helvetica,sans-Serif" font-size="10.00">::CouplingScheme</text>
</a>
</g>
</g>
<!-- Node3&#45;&gt;Node2 -->
<g id="edge2" class="edge">
<title>Node3&#45;&gt;Node2</title>
<path fill="none" stroke="midnightblue" d="M2158.76,-373.48C2212.94,-369.66 2290.05,-364.23 2343.91,-360.44"/>
<polygon fill="midnightblue" stroke="midnightblue" points="2158.31,-370 2148.58,-374.19 2158.8,-376.98 2158.31,-370"/>
</g>
<!-- Node4 -->
<g id="node4" class="node">
<title>Node4</title>
<g id="a_node4"><a xlink:title=" ">
<polygon fill="white" stroke="#bfbfbf" points="2000,-226.5 2000,-267.5 2187,-267.5 2187,-226.5 2000,-226.5"/>
<text text-anchor="start" x="2008" y="-255.5" font-family="Helvetica,sans-Serif" font-size="10.00">std::vector&lt; precice</text>
<text text-anchor="start" x="2008" y="-244.5" font-family="Helvetica,sans-Serif" font-size="10.00">::cplscheme::BaseCouplingScheme</text>
<text text-anchor="middle" x="2093.5" y="-233.5" font-family="Helvetica,sans-Serif" font-size="10.00">::ConvergenceMeasureContext &gt;</text>
</a>
</g>
</g>
<!-- Node4&#45;&gt;Node2 -->
<g id="edge3" class="edge">
<title>Node4&#45;&gt;Node2</title>
<path fill="none" stroke="#9a32cd" stroke-dasharray="5,2" d="M2197.37,-247.03C2238.1,-250.42 2284.34,-258.67 2323,-277 2354.12,-291.75 2381.34,-322.34 2395.85,-340.83"/>
<polygon fill="#9a32cd" stroke="#9a32cd" points="2197.37,-243.52 2187.14,-246.27 2196.85,-250.5 2197.37,-243.52"/>
<text text-anchor="middle" x="2264" y="-280" font-family="Helvetica,sans-Serif" font-size="10.00"> _convergenceMeasures</text>
</g>
<!-- Node5 -->
<g id="node5" class="node">
<title>Node5</title>
<g id="a_node5"><a xlink:href="structprecice_1_1cplscheme_1_1BaseCouplingScheme_1_1ConvergenceMeasureContext.html" target="_top" xlink:title="Holds meta information to perform a convergence measurement.">
<polygon fill="white" stroke="black" points="1640,-242.5 1640,-283.5 1807,-283.5 1807,-242.5 1640,-242.5"/>
<text text-anchor="start" x="1648" y="-271.5" font-family="Helvetica,sans-Serif" font-size="10.00">precice::cplscheme</text>
<text text-anchor="start" x="1648" y="-260.5" font-family="Helvetica,sans-Serif" font-size="10.00">::BaseCouplingScheme</text>
<text text-anchor="middle" x="1723.5" y="-249.5" font-family="Helvetica,sans-Serif" font-size="10.00">::ConvergenceMeasureContext</text>
</a>
</g>
</g>
<!-- Node5&#45;&gt;Node4 -->
<g id="edge4" class="edge">
<title>Node5&#45;&gt;Node4</title>
<path fill="none" stroke="#9a32cd" stroke-dasharray="5,2" d="M1817.33,-258.96C1873.18,-256.54 1944.02,-253.46 1999.83,-251.03"/>
<polygon fill="#9a32cd" stroke="#9a32cd" points="1816.92,-255.48 1807.09,-259.41 1817.23,-262.47 1816.92,-255.48"/>
<text text-anchor="middle" x="1909" y="-261" font-family="Helvetica,sans-Serif" font-size="10.00"> elements</text>
</g>
<!-- Node6 -->
<g id="node6" class="node">
<title>Node6</title>
<g id="a_node6"><a xlink:title=" ">
<polygon fill="white" stroke="#bfbfbf" points="1345,-267 1345,-297 1509,-297 1509,-267 1345,-267"/>
<text text-anchor="start" x="1353" y="-285" font-family="Helvetica,sans-Serif" font-size="10.00">std::shared_ptr&lt; Convergence</text>
<text text-anchor="middle" x="1427" y="-274" font-family="Helvetica,sans-Serif" font-size="10.00">Measure &gt;</text>
</a>
</g>
</g>
<!-- Node6&#45;&gt;Node5 -->
<g id="edge5" class="edge">
<title>Node6&#45;&gt;Node5</title>
<path fill="none" stroke="#9a32cd" stroke-dasharray="5,2" d="M1519.43,-276.1C1557.95,-273.62 1602.46,-270.74 1639.98,-268.32"/>
<polygon fill="#9a32cd" stroke="#9a32cd" points="1519.01,-272.62 1509.25,-276.76 1519.46,-279.61 1519.01,-272.62"/>
<text text-anchor="middle" x="1569" y="-278" font-family="Helvetica,sans-Serif" font-size="10.00"> measure</text>
</g>
<!-- Node7 -->
<g id="node7" class="node">
<title>Node7</title>
<g id="a_node7"><a xlink:title=" ">
<polygon fill="white" stroke="#bfbfbf" points="1355.5,-218 1355.5,-248 1498.5,-248 1498.5,-218 1355.5,-218"/>
<text text-anchor="start" x="1363.5" y="-236" font-family="Helvetica,sans-Serif" font-size="10.00">std::shared_ptr&lt; Coupling</text>
<text text-anchor="middle" x="1427" y="-225" font-family="Helvetica,sans-Serif" font-size="10.00">Data &gt;</text>
</a>
</g>
</g>
<!-- Node7&#45;&gt;Node5 -->
<g id="edge6" class="edge">
<title>Node7&#45;&gt;Node5</title>
<path fill="none" stroke="#9a32cd" stroke-dasharray="5,2" d="M1508.7,-241.22C1549.42,-245.37 1598.73,-250.39 1639.74,-254.57"/>
<polygon fill="#9a32cd" stroke="#9a32cd" points="1508.84,-237.72 1498.54,-240.19 1508.13,-244.68 1508.84,-237.72"/>
<text text-anchor="middle" x="1569" y="-255" font-family="Helvetica,sans-Serif" font-size="10.00"> couplingData</text>
</g>
<!-- Node8 -->
<g id="node8" class="node">
<title>Node8</title>
<g id="a_node8"><a xlink:href="classprecice_1_1cplscheme_1_1CouplingData.html" target="_top" xlink:title=" ">
<polygon fill="white" stroke="black" points="1056.5,-218 1056.5,-248 1166.5,-248 1166.5,-218 1056.5,-218"/>
<text text-anchor="start" x="1064.5" y="-236" font-family="Helvetica,sans-Serif" font-size="10.00">precice::cplscheme</text>
<text text-anchor="middle" x="1111.5" y="-225" font-family="Helvetica,sans-Serif" font-size="10.00">::CouplingData</text>
</a>
</g>
</g>
<!-- Node8&#45;&gt;Node7 -->
<g id="edge7" class="edge">
<title>Node8&#45;&gt;Node7</title>
<path fill="none" stroke="#9a32cd" stroke-dasharray="5,2" d="M1176.85,-233C1228.79,-233 1301.8,-233 1355.36,-233"/>
<polygon fill="#9a32cd" stroke="#9a32cd" points="1176.75,-229.5 1166.75,-233 1176.75,-236.5 1176.75,-229.5"/>
<text text-anchor="middle" x="1265" y="-236" font-family="Helvetica,sans-Serif" font-size="10.00"> ptr</text>
</g>
<!-- Node9 -->
<g id="node9" class="node">
<title>Node9</title>
<g id="a_node9"><a xlink:title=" ">
<polygon fill="white" stroke="#bfbfbf" points="791.5,-261.5 791.5,-280.5 926.5,-280.5 926.5,-261.5 791.5,-261.5"/>
<text text-anchor="middle" x="859" y="-268.5" font-family="Helvetica,sans-Serif" font-size="10.00">std::shared_ptr&lt; Data &gt;</text>
</a>
</g>
</g>
<!-- Node9&#45;&gt;Node8 -->
<g id="edge8" class="edge">
<title>Node9&#45;&gt;Node8</title>
<path fill="none" stroke="#9a32cd" stroke-dasharray="5,2" d="M936.57,-260.33C963.01,-256.56 992.83,-252.2 1020,-248 1031.8,-246.17 1044.46,-244.13 1056.45,-242.15"/>
<polygon fill="#9a32cd" stroke="#9a32cd" points="936.01,-256.88 926.61,-261.75 937,-263.81 936.01,-256.88"/>
<text text-anchor="middle" x="983" y="-262" font-family="Helvetica,sans-Serif" font-size="10.00"> _data</text>
</g>
<!-- Node10 -->
<g id="node10" class="node">
<title>Node10</title>
<g id="a_node10"><a xlink:title=" ">
<polygon fill="white" stroke="#bfbfbf" points="790,-223.5 790,-242.5 928,-242.5 928,-223.5 790,-223.5"/>
<text text-anchor="middle" x="859" y="-230.5" font-family="Helvetica,sans-Serif" font-size="10.00">std::shared_ptr&lt; Mesh &gt;</text>
</a>
</g>
</g>
<!-- Node10&#45;&gt;Node8 -->
<g id="edge9" class="edge">
<title>Node10&#45;&gt;Node8</title>
<path fill="none" stroke="#9a32cd" stroke-dasharray="5,2" d="M938.22,-233C976.56,-233 1021.79,-233 1056.27,-233"/>
<polygon fill="#9a32cd" stroke="#9a32cd" points="938.12,-229.5 928.12,-233 938.12,-236.5 938.12,-229.5"/>
<text text-anchor="middle" x="983" y="-236" font-family="Helvetica,sans-Serif" font-size="10.00"> _mesh</text>
</g>
<!-- Node11 -->
<g id="node11" class="node">
<title>Node11</title>
<g id="a_node11"><a xlink:href="classprecice_1_1cplscheme_1_1impl_1_1Extrapolation.html" target="_top" xlink:title=" ">
<polygon fill="white" stroke="black" points="801,-174 801,-204 917,-204 917,-174 801,-174"/>
<text text-anchor="start" x="809" y="-192" font-family="Helvetica,sans-Serif" font-size="10.00">precice::cplscheme</text>
<text text-anchor="middle" x="859" y="-181" font-family="Helvetica,sans-Serif" font-size="10.00">::impl::Extrapolation</text>
</a>
</g>
</g>
<!-- Node11&#45;&gt;Node8 -->
<g id="edge10" class="edge">
<title>Node11&#45;&gt;Node8</title>
<path fill="none" stroke="#9a32cd" stroke-dasharray="5,2" d="M927.19,-200.8C967.58,-207.9 1018.32,-216.81 1056.17,-223.46"/>
<polygon fill="#9a32cd" stroke="#9a32cd" points="927.61,-197.32 917.16,-199.04 926.4,-204.22 927.61,-197.32"/>
<text text-anchor="middle" x="983" y="-220" font-family="Helvetica,sans-Serif" font-size="10.00"> _extrapolation</text>
</g>
<!-- Node12 -->
<g id="node12" class="node">
<title>Node12</title>
<g id="a_node12"><a xlink:href="classprecice_1_1logging_1_1Logger.html" target="_top" xlink:title="This class provides a lightweight logger.">
<polygon fill="white" stroke="black" points="597,-179.5 597,-198.5 730,-198.5 730,-179.5 597,-179.5"/>
<text text-anchor="middle" x="663.5" y="-186.5" font-family="Helvetica,sans-Serif" font-size="10.00">precice::logging::Logger</text>
</a>
</g>
</g>
<!-- Node12&#45;&gt;Node1 -->
<g id="edge32" class="edge">
<title>Node12&#45;&gt;Node1</title>
<path fill="none" stroke="#9a32cd" stroke-dasharray="5,2" d="M672.73,-170.11C694.99,-122.25 761.31,0 858,0 858,0 858,0 2409,0 2509.98,0 2573.55,-136.43 2592.23,-182.79"/>
<polygon fill="#9a32cd" stroke="#9a32cd" points="669.47,-168.81 668.54,-179.37 675.85,-171.7 669.47,-168.81"/>
<text text-anchor="middle" x="1569" y="-3" font-family="Helvetica,sans-Serif" font-size="10.00"> _log</text>
</g>
<!-- Node12&#45;&gt;Node2 -->
<g id="edge18" class="edge">
<title>Node12&#45;&gt;Node2</title>
<path fill="none" stroke="#9a32cd" stroke-dasharray="5,2" d="M679.08,-206.08C700.58,-229.86 743.3,-272.04 790,-290 951.63,-352.15 1394.83,-334 1568,-334 1568,-334 1568,-334 2094.5,-334 2181.11,-334 2280.9,-342.51 2343.95,-348.95"/>
<polygon fill="#9a32cd" stroke="#9a32cd" points="681.64,-203.68 672.39,-198.5 676.39,-208.31 681.64,-203.68"/>
<text text-anchor="middle" x="1427" y="-339" font-family="Helvetica,sans-Serif" font-size="10.00"> _log</text>
</g>
<!-- Node12&#45;&gt;Node11 -->
<g id="edge11" class="edge">
<title>Node12&#45;&gt;Node11</title>
<path fill="none" stroke="#9a32cd" stroke-dasharray="5,2" d="M740.14,-189C760.38,-189 781.92,-189 800.97,-189"/>
<polygon fill="#9a32cd" stroke="#9a32cd" points="740.01,-185.5 730.01,-189 740.01,-192.5 740.01,-185.5"/>
<text text-anchor="middle" x="760" y="-192" font-family="Helvetica,sans-Serif" font-size="10.00"> _log</text>
</g>
<!-- Node20 -->
<g id="node20" class="node">
<title>Node20</title>
<g id="a_node20"><a xlink:href="classprecice_1_1io_1_1TXTTableWriter.html" target="_top" xlink:title="File writer for table&#45;data in text&#45;format.">
<polygon fill="white" stroke="black" points="1650,-408.5 1650,-427.5 1797,-427.5 1797,-408.5 1650,-408.5"/>
<text text-anchor="middle" x="1723.5" y="-415.5" font-family="Helvetica,sans-Serif" font-size="10.00">precice::io::TXTTableWriter</text>
</a>
</g>
</g>
<!-- Node12&#45;&gt;Node20 -->
<g id="edge24" class="edge">
<title>Node12&#45;&gt;Node20</title>
<path fill="none" stroke="#9a32cd" stroke-dasharray="5,2" d="M669.62,-208.47C679.29,-241.38 703.37,-307.92 748,-344 787.59,-376.01 807.08,-376 858,-376 858,-376 858,-376 1428,-376 1519.41,-376 1625.2,-396.08 1681.79,-408.47"/>
<polygon fill="#9a32cd" stroke="#9a32cd" points="672.95,-207.38 666.89,-198.69 666.21,-209.27 672.95,-207.38"/>
<text text-anchor="middle" x="1111.5" y="-379" font-family="Helvetica,sans-Serif" font-size="10.00"> _log</text>
</g>
<!-- Node33 -->
<g id="node33" class="node">
<title>Node33</title>
<g id="a_node33"><a xlink:href="classprecice_1_1m2n_1_1M2N.html" target="_top" xlink:title="M2N communication class. This layer is necessary since communication between two participants can be ...">
<polygon fill="white" stroke="black" points="2039.5,-116.5 2039.5,-135.5 2147.5,-135.5 2147.5,-116.5 2039.5,-116.5"/>
<text text-anchor="middle" x="2093.5" y="-123.5" font-family="Helvetica,sans-Serif" font-size="10.00">precice::m2n::M2N</text>
</a>
</g>
</g>
<!-- Node12&#45;&gt;Node33 -->
<g id="edge43" class="edge">
<title>Node12&#45;&gt;Node33</title>
<path fill="none" stroke="#9a32cd" stroke-dasharray="5,2" d="M676.01,-170.47C702.63,-130.13 772.79,-38 858,-38 858,-38 858,-38 1724.5,-38 1858.18,-38 2011.87,-93.61 2069.28,-116.41"/>
<polygon fill="#9a32cd" stroke="#9a32cd" points="672.92,-168.79 670.45,-179.09 678.81,-172.58 672.92,-168.79"/>
<text text-anchor="middle" x="1265" y="-41" font-family="Helvetica,sans-Serif" font-size="10.00"> _log</text>
</g>
<!-- Node13 -->
<g id="node13" class="node">
<title>Node13</title>
<g id="a_node13"><a xlink:title=" ">
<polygon fill="white" stroke="#bfbfbf" points="360,-174 360,-204 530,-204 530,-174 360,-174"/>
<text text-anchor="start" x="368" y="-192" font-family="Helvetica,sans-Serif" font-size="10.00">std::unique_ptr&lt; precice</text>
<text text-anchor="middle" x="445" y="-181" font-family="Helvetica,sans-Serif" font-size="10.00">::logging::Logger::LoggerImpl &gt;</text>
</a>
</g>
</g>
<!-- Node13&#45;&gt;Node12 -->
<g id="edge12" class="edge">
<title>Node13&#45;&gt;Node12</title>
<path fill="none" stroke="#9a32cd" stroke-dasharray="5,2" d="M540.26,-189C559.39,-189 579.12,-189 596.99,-189"/>
<polygon fill="#9a32cd" stroke="#9a32cd" points="540.01,-185.5 530.01,-189 540.01,-192.5 540.01,-185.5"/>
<text text-anchor="middle" x="563.5" y="-192" font-family="Helvetica,sans-Serif" font-size="10.00"> _impl</text>
</g>
<!-- Node14 -->
<g id="node14" class="node">
<title>Node14</title>
<g id="a_node14"><a xlink:href="classprecice_1_1logging_1_1Logger_1_1LoggerImpl.html" target="_top" xlink:title=" ">
<polygon fill="white" stroke="black" points="174,-174 174,-204 307,-204 307,-174 174,-174"/>
<text text-anchor="start" x="182" y="-192" font-family="Helvetica,sans-Serif" font-size="10.00">precice::logging::Logger</text>
<text text-anchor="middle" x="240.5" y="-181" font-family="Helvetica,sans-Serif" font-size="10.00">::LoggerImpl</text>
</a>
</g>
</g>
<!-- Node14&#45;&gt;Node13 -->
<g id="edge13" class="edge">
<title>Node14&#45;&gt;Node13</title>
<path fill="none" stroke="#9a32cd" stroke-dasharray="5,2" d="M317.62,-189C331.37,-189 345.78,-189 359.75,-189"/>
<polygon fill="#9a32cd" stroke="#9a32cd" points="317.25,-185.5 307.25,-189 317.25,-192.5 317.25,-185.5"/>
<text text-anchor="middle" x="333.5" y="-192" font-family="Helvetica,sans-Serif" font-size="10.00"> ptr</text>
</g>
<!-- Node15 -->
<g id="node15" class="node">
<title>Node15</title>
<g id="a_node15"><a xlink:title=" ">
<polygon fill="white" stroke="#bfbfbf" points="0,-163 0,-215 137,-215 137,-163 0,-163"/>
<text text-anchor="start" x="8" y="-203" font-family="Helvetica,sans-Serif" font-size="10.00">boost::log::sources</text>
<text text-anchor="start" x="8" y="-192" font-family="Helvetica,sans-Serif" font-size="10.00">::severity_logger&lt; boost</text>
<text text-anchor="start" x="8" y="-181" font-family="Helvetica,sans-Serif" font-size="10.00">::log::trivial::severity</text>
<text text-anchor="middle" x="68.5" y="-170" font-family="Helvetica,sans-Serif" font-size="10.00">_level &gt;</text>
</a>
</g>
</g>
<!-- Node15&#45;&gt;Node14 -->
<g id="edge14" class="edge">
<title>Node15&#45;&gt;Node14</title>
<path fill="none" stroke="midnightblue" d="M147.22,-189C156.17,-189 165.23,-189 173.99,-189"/>
<polygon fill="midnightblue" stroke="midnightblue" points="147.18,-185.5 137.18,-189 147.18,-192.5 147.18,-185.5"/>
</g>
<!-- Node16 -->
<g id="node16" class="node">
<title>Node16</title>
<g id="a_node16"><a xlink:title=" ">
<polygon fill="white" stroke="#bfbfbf" points="1203,-542.5 1203,-561.5 1327,-561.5 1327,-542.5 1203,-542.5"/>
<text text-anchor="middle" x="1265" y="-549.5" font-family="Helvetica,sans-Serif" font-size="10.00">std::set&lt; std::string &gt;</text>
</a>
</g>
</g>
<!-- Node16&#45;&gt;Node2 -->
<g id="edge15" class="edge">
<title>Node16&#45;&gt;Node2</title>
<path fill="none" stroke="#9a32cd" stroke-dasharray="5,2" d="M1337.34,-552C1398.54,-552 1489.07,-552 1568,-552 1568,-552 1568,-552 2094.5,-552 2197.05,-552 2239.44,-579.44 2323,-520 2375,-483.01 2396.97,-404.07 2404.13,-371.03"/>
<polygon fill="#9a32cd" stroke="#9a32cd" points="1337.02,-548.5 1327.02,-552 1337.02,-555.5 1337.02,-548.5"/>
<text text-anchor="middle" x="1723.5" y="-555" font-family="Helvetica,sans-Serif" font-size="10.00"> _actions</text>
</g>
<!-- Node17 -->
<g id="node17" class="node">
<title>Node17</title>
<g id="a_node17"><a xlink:title="STL class.">
<polygon fill="white" stroke="#bfbfbf" points="826.5,-523.5 826.5,-542.5 891.5,-542.5 891.5,-523.5 826.5,-523.5"/>
<text text-anchor="middle" x="859" y="-530.5" font-family="Helvetica,sans-Serif" font-size="10.00">std::string</text>
</a>
</g>
</g>
<!-- Node17&#45;&gt;Node1 -->
<g id="edge33" class="edge">
<title>Node17&#45;&gt;Node1</title>
<path fill="none" stroke="#9a32cd" stroke-dasharray="5,2" d="M890.49,-546.49C936.99,-565.79 1028.83,-599 1110.5,-599 1110.5,-599 1110.5,-599 2409,-599 2582.94,-599 2597.07,-286.48 2597.99,-213.23"/>
<polygon fill="#9a32cd" stroke="#9a32cd" points="891.85,-543.26 881.28,-542.6 889.13,-549.71 891.85,-543.26"/>
<text text-anchor="middle" x="1723.5" y="-613" font-family="Helvetica,sans-Serif" font-size="10.00"> _firstParticipant</text>
<text text-anchor="middle" x="1723.5" y="-602" font-family="Helvetica,sans-Serif" font-size="10.00">_secondParticipant</text>
</g>
<!-- Node17&#45;&gt;Node2 -->
<g id="edge30" class="edge">
<title>Node17&#45;&gt;Node2</title>
<path fill="none" stroke="#9a32cd" stroke-dasharray="5,2" d="M902.13,-531.99C1066.87,-527.71 1683.13,-508.6 2187,-452 2247.85,-445.17 2267.64,-456.15 2323,-430 2352.52,-416.05 2379.47,-388.54 2394.51,-371.28"/>
<polygon fill="#9a32cd" stroke="#9a32cd" points="901.85,-528.49 891.94,-532.25 902.03,-535.49 901.85,-528.49"/>
<text text-anchor="middle" x="1569" y="-508" font-family="Helvetica,sans-Serif" font-size="10.00"> _localParticipant</text>
</g>
<!-- Node17&#45;&gt;Node16 -->
<g id="edge16" class="edge">
<title>Node17&#45;&gt;Node16</title>
<path fill="none" stroke="#9a32cd" stroke-dasharray="5,2" d="M901.69,-534.96C973.22,-538.32 1119.61,-545.21 1202.75,-549.12"/>
<polygon fill="#9a32cd" stroke="#9a32cd" points="901.85,-531.46 891.7,-534.49 901.53,-538.46 901.85,-531.46"/>
<text text-anchor="middle" x="983" y="-543" font-family="Helvetica,sans-Serif" font-size="10.00"> keys</text>
</g>
<!-- Node22 -->
<g id="node22" class="node">
<title>Node22</title>
<g id="a_node22"><a xlink:href="structprecice_1_1io_1_1TXTTableWriter_1_1Data.html" target="_top" xlink:title="Represents one data entry to be written.">
<polygon fill="white" stroke="black" points="1038,-455 1038,-485 1185,-485 1185,-455 1038,-455"/>
<text text-anchor="start" x="1046" y="-473" font-family="Helvetica,sans-Serif" font-size="10.00">precice::io::TXTTableWriter</text>
<text text-anchor="middle" x="1111.5" y="-462" font-family="Helvetica,sans-Serif" font-size="10.00">::Data</text>
</a>
</g>
</g>
<!-- Node17&#45;&gt;Node22 -->
<g id="edge23" class="edge">
<title>Node17&#45;&gt;Node22</title>
<path fill="none" stroke="#9a32cd" stroke-dasharray="5,2" d="M883.11,-518.29C899.89,-508.34 923.52,-495.81 946,-489 975.3,-480.13 1008.7,-475.35 1037.7,-472.8"/>
<polygon fill="#9a32cd" stroke="#9a32cd" points="881.26,-515.31 874.53,-523.5 884.9,-521.3 881.26,-515.31"/>
<text text-anchor="middle" x="983" y="-492" font-family="Helvetica,sans-Serif" font-size="10.00"> name</text>
</g>
<!-- Node18 -->
<g id="node18" class="node">
<title>Node18</title>
<g id="a_node18"><a xlink:title="STL class.">
<polygon fill="white" stroke="#bfbfbf" points="611.5,-518 611.5,-548 715.5,-548 715.5,-518 611.5,-518"/>
<text text-anchor="start" x="619.5" y="-536" font-family="Helvetica,sans-Serif" font-size="10.00">std::basic_string&lt;</text>
<text text-anchor="middle" x="663.5" y="-525" font-family="Helvetica,sans-Serif" font-size="10.00"> char &gt;</text>
</a>
</g>
</g>
<!-- Node18&#45;&gt;Node17 -->
<g id="edge17" class="edge">
<title>Node18&#45;&gt;Node17</title>
<path fill="none" stroke="midnightblue" d="M725.74,-533C759.16,-533 799.16,-533 826.35,-533"/>
<polygon fill="midnightblue" stroke="midnightblue" points="725.59,-529.5 715.59,-533 725.59,-536.5 725.59,-529.5"/>
</g>
<!-- Node19 -->
<g id="node19" class="node">
<title>Node19</title>
<g id="a_node19"><a xlink:title=" ">
<polygon fill="white" stroke="#bfbfbf" points="2025.5,-412 2025.5,-442 2161.5,-442 2161.5,-412 2025.5,-412"/>
<text text-anchor="start" x="2033.5" y="-430" font-family="Helvetica,sans-Serif" font-size="10.00">std::shared_ptr&lt; precice</text>
<text text-anchor="middle" x="2093.5" y="-419" font-family="Helvetica,sans-Serif" font-size="10.00">::io::TXTTableWriter &gt;</text>
</a>
</g>
</g>
<!-- Node19&#45;&gt;Node2 -->
<g id="edge19" class="edge">
<title>Node19&#45;&gt;Node2</title>
<path fill="none" stroke="#9a32cd" stroke-dasharray="5,2" d="M2171.65,-412.64C2216.09,-403.99 2272.9,-392.29 2323,-380 2333.9,-377.33 2345.52,-374.19 2356.53,-371.09"/>
<polygon fill="#9a32cd" stroke="#9a32cd" points="2170.94,-409.21 2161.79,-414.54 2172.27,-416.08 2170.94,-409.21"/>
<text text-anchor="middle" x="2264" y="-418" font-family="Helvetica,sans-Serif" font-size="10.00"> _convergenceWriter</text>
<text text-anchor="middle" x="2264" y="-407" font-family="Helvetica,sans-Serif" font-size="10.00">_iterationsWriter</text>
</g>
<!-- Node20&#45;&gt;Node19 -->
<g id="edge20" class="edge">
<title>Node20&#45;&gt;Node19</title>
<path fill="none" stroke="#9a32cd" stroke-dasharray="5,2" d="M1807.54,-420.03C1873.29,-421.64 1963.95,-423.86 2025.22,-425.35"/>
<polygon fill="#9a32cd" stroke="#9a32cd" points="1807.29,-416.52 1797.2,-419.78 1807.12,-423.52 1807.29,-416.52"/>
<text text-anchor="middle" x="1909" y="-427" font-family="Helvetica,sans-Serif" font-size="10.00"> ptr</text>
</g>
<!-- Node21 -->
<g id="node21" class="node">
<title>Node21</title>
<g id="a_node21"><a xlink:title=" ">
<polygon fill="white" stroke="#bfbfbf" points="1369.5,-444.5 1369.5,-485.5 1484.5,-485.5 1484.5,-444.5 1369.5,-444.5"/>
<text text-anchor="start" x="1377.5" y="-473.5" font-family="Helvetica,sans-Serif" font-size="10.00">std::vector&lt; precice</text>
<text text-anchor="start" x="1377.5" y="-462.5" font-family="Helvetica,sans-Serif" font-size="10.00">::io::TXTTableWriter</text>
<text text-anchor="middle" x="1427" y="-451.5" font-family="Helvetica,sans-Serif" font-size="10.00">::Data &gt;</text>
</a>
</g>
</g>
<!-- Node21&#45;&gt;Node20 -->
<g id="edge21" class="edge">
<title>Node21&#45;&gt;Node20</title>
<path fill="none" stroke="#9a32cd" stroke-dasharray="5,2" d="M1494.96,-454.31C1545.49,-446.25 1614.2,-435.28 1662.86,-427.52"/>
<polygon fill="#9a32cd" stroke="#9a32cd" points="1494.11,-450.91 1484.78,-455.94 1495.21,-457.82 1494.11,-450.91"/>
<text text-anchor="middle" x="1569" y="-462" font-family="Helvetica,sans-Serif" font-size="10.00"> _writeIterator</text>
<text text-anchor="middle" x="1569" y="-451" font-family="Helvetica,sans-Serif" font-size="10.00">_data</text>
</g>
<!-- Node22&#45;&gt;Node21 -->
<g id="edge22" class="edge">
<title>Node22&#45;&gt;Node21</title>
<path fill="none" stroke="#9a32cd" stroke-dasharray="5,2" d="M1195.27,-468.68C1250.16,-467.8 1320.75,-466.68 1369.32,-465.9"/>
<polygon fill="#9a32cd" stroke="#9a32cd" points="1195.15,-465.18 1185.21,-468.84 1195.27,-472.18 1195.15,-465.18"/>
<text text-anchor="middle" x="1265" y="-471" font-family="Helvetica,sans-Serif" font-size="10.00"> elements</text>
</g>
<!-- Node23 -->
<g id="node23" class="node">
<title>Node23</title>
<g id="a_node23"><a xlink:title="STL class.">
<polygon fill="white" stroke="#bfbfbf" points="1386,-406.5 1386,-425.5 1468,-425.5 1468,-406.5 1386,-406.5"/>
<text text-anchor="middle" x="1427" y="-413.5" font-family="Helvetica,sans-Serif" font-size="10.00">std::ofstream</text>
</a>
</g>
</g>
<!-- Node23&#45;&gt;Node20 -->
<g id="edge25" class="edge">
<title>Node23&#45;&gt;Node20</title>
<path fill="none" stroke="#9a32cd" stroke-dasharray="5,2" d="M1478.31,-416.34C1525.52,-416.66 1596.65,-417.15 1649.99,-417.51"/>
<polygon fill="#9a32cd" stroke="#9a32cd" points="1478.05,-412.84 1468.02,-416.27 1478,-419.84 1478.05,-412.84"/>
<text text-anchor="middle" x="1569" y="-420" font-family="Helvetica,sans-Serif" font-size="10.00"> _outputStream</text>
</g>
<!-- Node24 -->
<g id="node24" class="node">
<title>Node24</title>
<g id="a_node24"><a xlink:title="STL class.">
<polygon fill="white" stroke="#bfbfbf" points="1055,-406 1055,-436 1168,-436 1168,-406 1055,-406"/>
<text text-anchor="start" x="1063" y="-424" font-family="Helvetica,sans-Serif" font-size="10.00">std::basic_ofstream</text>
<text text-anchor="middle" x="1111.5" y="-413" font-family="Helvetica,sans-Serif" font-size="10.00">&lt; char &gt;</text>
</a>
</g>
</g>
<!-- Node24&#45;&gt;Node23 -->
<g id="edge26" class="edge">
<title>Node24&#45;&gt;Node23</title>
<path fill="none" stroke="midnightblue" d="M1178.37,-419.95C1241.05,-418.95 1333.35,-417.48 1385.76,-416.64"/>
<polygon fill="midnightblue" stroke="midnightblue" points="1178.13,-416.45 1168.19,-420.11 1178.24,-423.45 1178.13,-416.45"/>
</g>
<!-- Node25 -->
<g id="node25" class="node">
<title>Node25</title>
<g id="a_node25"><a xlink:title="STL class.">
<polygon fill="white" stroke="#bfbfbf" points="804.5,-406 804.5,-436 913.5,-436 913.5,-406 804.5,-406"/>
<text text-anchor="start" x="812.5" y="-424" font-family="Helvetica,sans-Serif" font-size="10.00">std::basic_ostream</text>
<text text-anchor="middle" x="859" y="-413" font-family="Helvetica,sans-Serif" font-size="10.00">&lt; Char &gt;</text>
</a>
</g>
</g>
<!-- Node25&#45;&gt;Node24 -->
<g id="edge27" class="edge">
<title>Node25&#45;&gt;Node24</title>
<path fill="none" stroke="midnightblue" d="M923.75,-421C964.15,-421 1015.91,-421 1054.68,-421"/>
<polygon fill="midnightblue" stroke="midnightblue" points="923.74,-417.5 913.74,-421 923.74,-424.5 923.74,-417.5"/>
</g>
<!-- Node26 -->
<g id="node26" class="node">
<title>Node26</title>
<g id="a_node26"><a xlink:title="STL class.">
<polygon fill="white" stroke="#bfbfbf" points="599.5,-411.5 599.5,-430.5 727.5,-430.5 727.5,-411.5 599.5,-411.5"/>
<text text-anchor="middle" x="663.5" y="-418.5" font-family="Helvetica,sans-Serif" font-size="10.00">std::basic_ios&lt; Char &gt;</text>
</a>
</g>
</g>
<!-- Node26&#45;&gt;Node25 -->
<g id="edge28" class="edge">
<title>Node26&#45;&gt;Node25</title>
<path fill="none" stroke="midnightblue" d="M737.64,-421C759.82,-421 783.76,-421 804.4,-421"/>
<polygon fill="midnightblue" stroke="midnightblue" points="737.59,-417.5 727.59,-421 737.59,-424.5 737.59,-417.5"/>
</g>
<!-- Node27 -->
<g id="node27" class="node">
<title>Node27</title>
<g id="a_node27"><a xlink:title="STL class.">
<polygon fill="white" stroke="#bfbfbf" points="405,-411.5 405,-430.5 485,-430.5 485,-411.5 405,-411.5"/>
<text text-anchor="middle" x="445" y="-418.5" font-family="Helvetica,sans-Serif" font-size="10.00">std::ios_base</text>
</a>
</g>
</g>
<!-- Node27&#45;&gt;Node26 -->
<g id="edge29" class="edge">
<title>Node27&#45;&gt;Node26</title>
<path fill="none" stroke="midnightblue" d="M495.3,-421C526.15,-421 566.21,-421 599.38,-421"/>
<polygon fill="midnightblue" stroke="midnightblue" points="495.21,-417.5 485.21,-421 495.21,-424.5 495.21,-417.5"/>
</g>
<!-- Node28 -->
<g id="node28" class="node">
<title>Node28</title>
<g id="a_node28"><a xlink:title=" ">
<polygon fill="white" stroke="#bfbfbf" points="2007,-286.5 2007,-305.5 2180,-305.5 2180,-286.5 2007,-286.5"/>
<text text-anchor="middle" x="2093.5" y="-293.5" font-family="Helvetica,sans-Serif" font-size="10.00">std::shared_ptr&lt; Acceleration &gt;</text>
</a>
</g>
</g>
<!-- Node28&#45;&gt;Node2 -->
<g id="edge31" class="edge">
<title>Node28&#45;&gt;Node2</title>
<path fill="none" stroke="#9a32cd" stroke-dasharray="5,2" d="M2190.26,-291.91C2231.79,-292.56 2280.53,-296.63 2323,-309 2346.26,-315.78 2370.12,-329.96 2386.44,-340.98"/>
<polygon fill="#9a32cd" stroke="#9a32cd" points="2190.18,-288.41 2180.14,-291.82 2190.11,-295.41 2190.18,-288.41"/>
<text text-anchor="middle" x="2264" y="-312" font-family="Helvetica,sans-Serif" font-size="10.00"> _acceleration</text>
</g>
<!-- Node29 -->
<g id="node29" class="node">
<title>Node29</title>
<g id="a_node29"><a xlink:title=" ">
<polygon fill="white" stroke="#bfbfbf" points="1836,-193 1836,-223 1982,-223 1982,-193 1836,-193"/>
<text text-anchor="start" x="1844" y="-211" font-family="Helvetica,sans-Serif" font-size="10.00">std::map&lt; int, PtrCoupling</text>
<text text-anchor="middle" x="1909" y="-200" font-family="Helvetica,sans-Serif" font-size="10.00">Data &gt;</text>
</a>
</g>
</g>
<!-- Node29&#45;&gt;Node1 -->
<g id="edge34" class="edge">
<title>Node29&#45;&gt;Node1</title>
<path fill="none" stroke="#9a32cd" stroke-dasharray="5,2" d="M1992.37,-206.8C2134.11,-204.74 2420.57,-200.58 2541.79,-198.82"/>
<polygon fill="#9a32cd" stroke="#9a32cd" points="1991.95,-203.31 1982,-206.95 1992.05,-210.31 1991.95,-203.31"/>
<text text-anchor="middle" x="2264" y="-218" font-family="Helvetica,sans-Serif" font-size="10.00"> _receiveData</text>
<text text-anchor="middle" x="2264" y="-207" font-family="Helvetica,sans-Serif" font-size="10.00">_sendData</text>
</g>
<!-- Node30 -->
<g id="node30" class="node">
<title>Node30</title>
<g id="a_node30"><a xlink:title="STL class.">
<polygon fill="white" stroke="#bfbfbf" points="1368,-174.5 1368,-193.5 1486,-193.5 1486,-174.5 1368,-174.5"/>
<text text-anchor="middle" x="1427" y="-181.5" font-family="Helvetica,sans-Serif" font-size="10.00">std::shared_ptr&lt; T &gt;</text>
</a>
</g>
</g>
<!-- Node30&#45;&gt;Node29 -->
<g id="edge35" class="edge">
<title>Node30&#45;&gt;Node29</title>
<path fill="none" stroke="#9a32cd" stroke-dasharray="5,2" d="M1496.28,-189.86C1506.57,-190.65 1517.06,-191.39 1527,-192 1634.54,-198.6 1759.34,-203.28 1835.98,-205.81"/>
<polygon fill="#9a32cd" stroke="#9a32cd" points="1496.32,-186.36 1486.08,-189.07 1495.78,-193.34 1496.32,-186.36"/>
<text text-anchor="middle" x="1569" y="-200" font-family="Helvetica,sans-Serif" font-size="10.00"> elements</text>
</g>
<!-- Node36 -->
<g id="node36" class="node">
<title>Node36</title>
<g id="a_node36"><a xlink:title=" ">
<polygon fill="white" stroke="#bfbfbf" points="1634,-155 1634,-185 1813,-185 1813,-155 1634,-155"/>
<text text-anchor="start" x="1642" y="-173" font-family="Helvetica,sans-Serif" font-size="10.00">std::map&lt; int, Distributed</text>
<text text-anchor="middle" x="1723.5" y="-162" font-family="Helvetica,sans-Serif" font-size="10.00">Communication::SharedPointer &gt;</text>
</a>
</g>
</g>
<!-- Node30&#45;&gt;Node36 -->
<g id="edge42" class="edge">
<title>Node30&#45;&gt;Node36</title>
<path fill="none" stroke="#9a32cd" stroke-dasharray="5,2" d="M1496.34,-180.75C1537.31,-178.8 1589.84,-176.31 1633.97,-174.21"/>
<polygon fill="#9a32cd" stroke="#9a32cd" points="1496.01,-177.26 1486.18,-181.23 1496.34,-184.26 1496.01,-177.26"/>
<text text-anchor="middle" x="1569" y="-183" font-family="Helvetica,sans-Serif" font-size="10.00"> elements</text>
</g>
<!-- Node31 -->
<g id="node31" class="node">
<title>Node31</title>
<g id="a_node31"><a xlink:title=" ">
<polygon fill="white" stroke="#bfbfbf" points="1097,-174.5 1097,-193.5 1126,-193.5 1126,-174.5 1097,-174.5"/>
<text text-anchor="middle" x="1111.5" y="-181.5" font-family="Helvetica,sans-Serif" font-size="10.00">T</text>
</a>
</g>
</g>
<!-- Node31&#45;&gt;Node30 -->
<g id="edge36" class="edge">
<title>Node31&#45;&gt;Node30</title>
<path fill="none" stroke="#9a32cd" stroke-dasharray="5,2" d="M1136.64,-184C1185.72,-184 1298.4,-184 1367.77,-184"/>
<polygon fill="#9a32cd" stroke="#9a32cd" points="1136.38,-180.5 1126.38,-184 1136.38,-187.5 1136.38,-180.5"/>
<text text-anchor="middle" x="1265" y="-187" font-family="Helvetica,sans-Serif" font-size="10.00"> ptr</text>
</g>
<!-- Node32 -->
<g id="node32" class="node">
<title>Node32</title>
<g id="a_node32"><a xlink:title=" ">
<polygon fill="white" stroke="#bfbfbf" points="2341,-142.5 2341,-161.5 2475,-161.5 2475,-142.5 2341,-142.5"/>
<text text-anchor="middle" x="2408" y="-149.5" font-family="Helvetica,sans-Serif" font-size="10.00">std::shared_ptr&lt; M2N &gt;</text>
</a>
</g>
</g>
<!-- Node32&#45;&gt;Node1 -->
<g id="edge37" class="edge">
<title>Node32&#45;&gt;Node1</title>
<path fill="none" stroke="#9a32cd" stroke-dasharray="5,2" d="M2480.46,-163.38C2494.95,-166.16 2510.03,-169.39 2524,-173 2534.77,-175.79 2546.23,-179.35 2556.83,-182.91"/>
<polygon fill="#9a32cd" stroke="#9a32cd" points="2481.01,-159.93 2470.53,-161.54 2479.72,-166.81 2481.01,-159.93"/>
<text text-anchor="middle" x="2508.5" y="-176" font-family="Helvetica,sans-Serif" font-size="10.00"> _m2n</text>
</g>
<!-- Node33&#45;&gt;Node32 -->
<g id="edge38" class="edge">
<title>Node33&#45;&gt;Node32</title>
<path fill="none" stroke="#9a32cd" stroke-dasharray="5,2" d="M2157.51,-131.24C2210.78,-135.67 2286.83,-142 2340.94,-146.5"/>
<polygon fill="#9a32cd" stroke="#9a32cd" points="2157.77,-127.75 2147.51,-130.41 2157.19,-134.73 2157.77,-127.75"/>
<text text-anchor="middle" x="2264" y="-148" font-family="Helvetica,sans-Serif" font-size="10.00"> ptr</text>
</g>
<!-- Node34 -->
<g id="node34" class="node">
<title>Node34</title>
<g id="a_node34"><a xlink:title=" ">
<polygon fill="white" stroke="#bfbfbf" points="1646,-67 1646,-97 1801,-97 1801,-67 1646,-67"/>
<text text-anchor="start" x="1654" y="-85" font-family="Helvetica,sans-Serif" font-size="10.00">std::shared_ptr&lt; Distributed</text>
<text text-anchor="middle" x="1723.5" y="-74" font-family="Helvetica,sans-Serif" font-size="10.00">ComFactory &gt;</text>
</a>
</g>
</g>
<!-- Node34&#45;&gt;Node33 -->
<g id="edge39" class="edge">
<title>Node34&#45;&gt;Node33</title>
<path fill="none" stroke="#9a32cd" stroke-dasharray="5,2" d="M1811.29,-91.28C1861.25,-96.74 1925.2,-103.95 1982,-111 2000.73,-113.33 2021.22,-116.06 2039.42,-118.54"/>
<polygon fill="#9a32cd" stroke="#9a32cd" points="1811.49,-87.78 1801.17,-90.17 1810.73,-94.74 1811.49,-87.78"/>
<text text-anchor="middle" x="1909" y="-114" font-family="Helvetica,sans-Serif" font-size="10.00"> _distrFactory</text>
</g>
<!-- Node35 -->
<g id="node35" class="node">
<title>Node35</title>
<g id="a_node35"><a xlink:href="classprecice_1_1m2n_1_1DistributedComFactory.html" target="_top" xlink:title=" ">
<polygon fill="white" stroke="black" points="1357,-67 1357,-97 1497,-97 1497,-67 1357,-67"/>
<text text-anchor="start" x="1365" y="-85" font-family="Helvetica,sans-Serif" font-size="10.00">precice::m2n::Distributed</text>
<text text-anchor="middle" x="1427" y="-74" font-family="Helvetica,sans-Serif" font-size="10.00">ComFactory</text>
</a>
</g>
</g>
<!-- Node35&#45;&gt;Node34 -->
<g id="edge40" class="edge">
<title>Node35&#45;&gt;Node34</title>
<path fill="none" stroke="#9a32cd" stroke-dasharray="5,2" d="M1507.2,-82C1550.24,-82 1603.22,-82 1645.86,-82"/>
<polygon fill="#9a32cd" stroke="#9a32cd" points="1507.05,-78.5 1497.05,-82 1507.05,-85.5 1507.05,-78.5"/>
<text text-anchor="middle" x="1569" y="-85" font-family="Helvetica,sans-Serif" font-size="10.00"> ptr</text>
</g>
<!-- Node36&#45;&gt;Node33 -->
<g id="edge41" class="edge">
<title>Node36&#45;&gt;Node33</title>
<path fill="none" stroke="#9a32cd" stroke-dasharray="5,2" d="M1823.12,-159.43C1871.09,-154.15 1929.59,-147.51 1982,-141 2000.73,-138.67 2021.22,-135.94 2039.42,-133.46"/>
<polygon fill="#9a32cd" stroke="#9a32cd" points="1822.6,-155.96 1813.05,-160.53 1823.37,-162.92 1822.6,-155.96"/>
<text text-anchor="middle" x="1909" y="-161" font-family="Helvetica,sans-Serif" font-size="10.00"> _distComs</text>
</g>
<!-- Node37 -->
<g id="node37" class="node">
<title>Node37</title>
<g id="a_node37"><a xlink:title=" ">
<polygon fill="white" stroke="#bfbfbf" points="1629,-116.5 1629,-135.5 1818,-135.5 1818,-116.5 1629,-116.5"/>
<text text-anchor="middle" x="1723.5" y="-123.5" font-family="Helvetica,sans-Serif" font-size="10.00">std::shared_ptr&lt; Communication &gt;</text>
</a>
</g>
</g>
<!-- Node37&#45;&gt;Node33 -->
<g id="edge44" class="edge">
<title>Node37&#45;&gt;Node33</title>
<path fill="none" stroke="#9a32cd" stroke-dasharray="5,2" d="M1828.74,-126C1897.39,-126 1984.43,-126 2039.31,-126"/>
<polygon fill="#9a32cd" stroke="#9a32cd" points="1828.31,-122.5 1818.31,-126 1828.31,-129.5 1828.31,-122.5"/>
<text text-anchor="middle" x="1909" y="-129" font-family="Helvetica,sans-Serif" font-size="10.00"> _intraComm</text>
</g>
</g>
</svg>
