<?xml version="1.0" encoding="UTF-8" standalone="no"?>
<!DOCTYPE svg PUBLIC "-//W3C//DTD SVG 1.1//EN"
 "http://www.w3.org/Graphics/SVG/1.1/DTD/svg11.dtd">
<!-- Generated by graphviz version 2.43.0 (0)
 -->
<!-- Title: precice::impl::SolverInterfaceImpl::writeVectorData Pages: 1 -->
<svg width="532pt" height="235pt"
 viewBox="0.00 0.00 532.00 235.00" xmlns="http://www.w3.org/2000/svg" xmlns:xlink="http://www.w3.org/1999/xlink">
<g id="graph0" class="graph" transform="scale(1 1) rotate(0) translate(4 231)">
<title>precice::impl::SolverInterfaceImpl::writeVectorData</title>
<polygon fill="white" stroke="transparent" points="-4,4 -4,-231 528,-231 528,4 -4,4"/>
<!-- Node1 -->
<g id="node1" class="node">
<title>Node1</title>
<g id="a_node1"><a xlink:title="Writes vector data to a vertex.">
<polygon fill="#bfbfbf" stroke="black" points="0,-98.5 0,-128.5 160,-128.5 160,-98.5 0,-98.5"/>
<text text-anchor="start" x="8" y="-116.5" font-family="Helvetica,sans-Serif" font-size="10.00">precice::impl::SolverInterface</text>
<text text-anchor="middle" x="80" y="-105.5" font-family="Helvetica,sans-Serif" font-size="10.00">Impl::writeVectorData</text>
</a>
</g>
</g>
<!-- Node2 -->
<g id="node2" class="node">
<title>Node2</title>
<g id="a_node2"><a xlink:href="namespaceTCB__SPAN__NAMESPACE__NAME_1_1detail.html#ada90c89c458a0d53c483e767de7b7701" target="_top" xlink:title=" ">
<polygon fill="white" stroke="black" points="204,-196.5 204,-226.5 335,-226.5 335,-196.5 204,-196.5"/>
<text text-anchor="start" x="212" y="-214.5" font-family="Helvetica,sans-Serif" font-size="10.00">TCB_SPAN_NAMESPACE</text>
<text text-anchor="middle" x="269.5" y="-203.5" font-family="Helvetica,sans-Serif" font-size="10.00">_NAME::detail::data</text>
</a>
</g>
</g>
<!-- Node1&#45;&gt;Node2 -->
<g id="edge1" class="edge">
<title>Node1&#45;&gt;Node2</title>
<path fill="none" stroke="midnightblue" d="M100.86,-128.5C123.1,-144.75 160.65,-170.61 196,-187.5 199.84,-189.33 203.85,-191.08 207.93,-192.74"/>
<polygon fill="midnightblue" stroke="midnightblue" points="206.95,-196.12 217.54,-196.45 209.47,-189.58 206.95,-196.12"/>
</g>
<!-- Node3 -->
<g id="node3" class="node">
<title>Node3</title>
<g id="a_node3"><a xlink:href="namespaceprecice_1_1utils_1_1eigenio.html#abb887f3ba1c5af4d48cb2f37dc967af8" target="_top" xlink:title=" ">
<polygon fill="white" stroke="black" points="209,-147.5 209,-177.5 330,-177.5 330,-147.5 209,-147.5"/>
<text text-anchor="start" x="217" y="-165.5" font-family="Helvetica,sans-Serif" font-size="10.00">precice::utils::eigenio</text>
<text text-anchor="middle" x="269.5" y="-154.5" font-family="Helvetica,sans-Serif" font-size="10.00">::debug</text>
</a>
</g>
</g>
<!-- Node1&#45;&gt;Node3 -->
<g id="edge2" class="edge">
<title>Node1&#45;&gt;Node3</title>
<path fill="none" stroke="midnightblue" d="M138.53,-128.53C158.33,-133.71 180.67,-139.55 201.18,-144.91"/>
<polygon fill="midnightblue" stroke="midnightblue" points="200.52,-148.35 211.08,-147.49 202.29,-141.58 200.52,-148.35"/>
</g>
<!-- Node5 -->
<g id="node5" class="node">
<title>Node5</title>
<g id="a_node5"><a xlink:href="classprecice_1_1impl_1_1DataContext.html#a37be0af0390aa2d429ecb3883bdba30c" target="_top" xlink:title="Get the dimensions of _providedData.">
<polygon fill="white" stroke="black" points="196,-98.5 196,-128.5 343,-128.5 343,-98.5 196,-98.5"/>
<text text-anchor="start" x="204" y="-116.5" font-family="Helvetica,sans-Serif" font-size="10.00">precice::impl::DataContext</text>
<text text-anchor="middle" x="269.5" y="-105.5" font-family="Helvetica,sans-Serif" font-size="10.00">::getDataDimensions</text>
</a>
</g>
</g>
<!-- Node1&#45;&gt;Node5 -->
<g id="edge4" class="edge">
<title>Node1&#45;&gt;Node5</title>
<path fill="none" stroke="midnightblue" d="M160.25,-113.5C168.63,-113.5 177.17,-113.5 185.6,-113.5"/>
<polygon fill="midnightblue" stroke="midnightblue" points="185.8,-117 195.8,-113.5 185.8,-110 185.8,-117"/>
</g>
<!-- Node6 -->
<g id="node6" class="node">
<title>Node6</title>
<g id="a_node6"><a xlink:href="classprecice_1_1impl_1_1DataContext.html#a83f060a7c5fc9427870f99ba210c822e" target="_top" xlink:title="Get the Name of _providedData.">
<polygon fill="white" stroke="black" points="196,-49.5 196,-79.5 343,-79.5 343,-49.5 196,-49.5"/>
<text text-anchor="start" x="204" y="-67.5" font-family="Helvetica,sans-Serif" font-size="10.00">precice::impl::DataContext</text>
<text text-anchor="middle" x="269.5" y="-56.5" font-family="Helvetica,sans-Serif" font-size="10.00">::getDataName</text>
</a>
</g>
</g>
<!-- Node1&#45;&gt;Node6 -->
<g id="edge5" class="edge">
<title>Node1&#45;&gt;Node6</title>
<path fill="none" stroke="midnightblue" d="M138.53,-98.47C158.33,-93.29 180.67,-87.45 201.18,-82.09"/>
<polygon fill="midnightblue" stroke="midnightblue" points="202.29,-85.42 211.08,-79.51 200.52,-78.65 202.29,-85.42"/>
</g>
<!-- Node7 -->
<g id="node7" class="node">
<title>Node7</title>
<g id="a_node7"><a xlink:href="classprecice_1_1impl_1_1WriteDataContext.html#aa5e818a5abe696c8d36180817266f32f" target="_top" xlink:title="Get _providedData member.">
<polygon fill="white" stroke="black" points="202,-0.5 202,-30.5 337,-30.5 337,-0.5 202,-0.5"/>
<text text-anchor="start" x="210" y="-18.5" font-family="Helvetica,sans-Serif" font-size="10.00">precice::impl::WriteData</text>
<text text-anchor="middle" x="269.5" y="-7.5" font-family="Helvetica,sans-Serif" font-size="10.00">Context::providedData</text>
</a>
</g>
</g>
<!-- Node1&#45;&gt;Node7 -->
<g id="edge6" class="edge">
<title>Node1&#45;&gt;Node7</title>
<path fill="none" stroke="midnightblue" d="M101.75,-98.22C124.15,-82.25 161.27,-57.23 196,-40.5 200.53,-38.32 205.31,-36.23 210.15,-34.27"/>
<polygon fill="midnightblue" stroke="midnightblue" points="211.45,-37.52 219.51,-30.64 208.92,-30.99 211.45,-37.52"/>
</g>
<!-- Node4 -->
<g id="node4" class="node">
<title>Node4</title>
<g id="a_node4"><a xlink:href="namespaceprecice_1_1utils_1_1eigenio.html#a4687bb08f3f46818e4b7265d51053840" target="_top" xlink:title=" ">
<polygon fill="white" stroke="black" points="379,-153 379,-172 524,-172 524,-153 379,-153"/>
<text text-anchor="middle" x="451.5" y="-160" font-family="Helvetica,sans-Serif" font-size="10.00">precice::utils::eigenio::wkt</text>
</a>
</g>
</g>
<!-- Node3&#45;&gt;Node4 -->
<g id="edge3" class="edge">
<title>Node3&#45;&gt;Node4</title>
<path fill="none" stroke="midnightblue" d="M330.44,-162.5C342.7,-162.5 355.81,-162.5 368.69,-162.5"/>
<polygon fill="midnightblue" stroke="midnightblue" points="368.96,-166 378.96,-162.5 368.96,-159 368.96,-166"/>
</g>
</g>
</svg>
