<?xml version="1.0" encoding="UTF-8" standalone="no"?>
<!DOCTYPE svg PUBLIC "-//W3C//DTD SVG 1.1//EN"
 "http://www.w3.org/Graphics/SVG/1.1/DTD/svg11.dtd">
<!-- Generated by graphviz version 2.43.0 (0)
 -->
<!-- Title: precice::partition::ReceivedPartition Pages: 1 -->
<!--zoomable 238 -->
<svg id="main" version="1.1" xmlns="http://www.w3.org/2000/svg" xmlns:xlink="http://www.w3.org/1999/xlink" xml:space="preserve" onload="init(evt)">
<style type="text/css"><![CDATA[
.edge:hover path { stroke: red; }
.edge:hover polygon { stroke: red; fill: red; }
]]></style>
<script type="text/javascript"><![CDATA[
var edges = document.getElementsByTagName('g');
if (edges && edges.length) {
  for (var i=0;i<edges.length;i++) {
    if (edges[i].id.substr(0,4)=='edge') {
      edges[i].setAttribute('class','edge');
    }
  }
}
]]></script>
        <defs>
                <circle id="rim" cx="0" cy="0" r="7"/>
                <circle id="rim2" cx="0" cy="0" r="3.5"/>
                <g id="zoomPlus">
                        <use xlink:href="#rim" fill="#404040">
                                <set attributeName="fill" to="#808080" begin="zoomplus.mouseover" end="zoomplus.mouseout"/>
                        </use>
                        <path d="M-4,0h8M0,-4v8" fill="none" stroke="white" stroke-width="1.5" pointer-events="none"/>
                </g>
                <g id="zoomMin">
                        <use xlink:href="#rim" fill="#404040">
                                <set attributeName="fill" to="#808080" begin="zoomminus.mouseover" end="zoomminus.mouseout"/>
                        </use>
                        <path d="M-4,0h8" fill="none" stroke="white" stroke-width="1.5" pointer-events="none"/>
                </g>
                <g id="dirArrow">
                        <path fill="none" stroke="white" stroke-width="1.5" d="M0,-3.0v7 M-2.5,-0.5L0,-3.0L2.5,-0.5"/>
                </g>
               <g id="resetDef">
                       <use xlink:href="#rim2" fill="#404040">
                               <set attributeName="fill" to="#808080" begin="reset.mouseover" end="reset.mouseout"/>
                       </use>
               </g>
        </defs>

<script type="text/javascript">
var viewWidth = 1333;
var viewHeight = 238;
var sectionId = 'dynsection-1';
</script>
<script xlink:href="svgpan.js"/>
<svg id="graph" class="graph">
<g id="viewport">
<title>precice::partition::ReceivedPartition</title>
<polygon fill="white" stroke="transparent" points="-4,4 -4,-234 1329,-234 1329,4 -4,4"/>
<!-- Node1 -->
<g id="node1" class="node">
<title>Node1</title>
<g id="a_node1"><a xlink:title="A partition that is computed from a mesh received from another participant.">
<polygon fill="#bfbfbf" stroke="black" points="1217,-122 1217,-152 1325,-152 1325,-122 1217,-122"/>
<text text-anchor="start" x="1225" y="-140" font-family="Helvetica,sans-Serif" font-size="10.00">precice::partition</text>
<text text-anchor="middle" x="1271" y="-129" font-family="Helvetica,sans-Serif" font-size="10.00">::ReceivedPartition</text>
</a>
</g>
</g>
<!-- Node2 -->
<g id="node2" class="node">
<title>Node2</title>
<g id="a_node2"><a xlink:href="classprecice_1_1partition_1_1Partition.html" target="_top" xlink:title="Abstract base class for partitions.">
<polygon fill="white" stroke="black" points="913,-77 913,-107 1012,-107 1012,-77 913,-77"/>
<text text-anchor="start" x="921" y="-95" font-family="Helvetica,sans-Serif" font-size="10.00">precice::partition</text>
<text text-anchor="middle" x="962.5" y="-84" font-family="Helvetica,sans-Serif" font-size="10.00">::Partition</text>
</a>
</g>
</g>
<!-- Node2&#45;&gt;Node1 -->
<g id="edge1" class="edge">
<title>Node2&#45;&gt;Node1</title>
<path fill="none" stroke="midnightblue" d="M1022.22,-100.62C1078.43,-108.87 1162.47,-121.21 1216.77,-129.19"/>
<polygon fill="midnightblue" stroke="midnightblue" points="1022.47,-97.12 1012.07,-99.13 1021.45,-104.05 1022.47,-97.12"/>
</g>
<!-- Node3 -->
<g id="node3" class="node">
<title>Node3</title>
<g id="a_node3"><a xlink:title=" ">
<polygon fill="white" stroke="#bfbfbf" points="631.5,-77 631.5,-107 753.5,-107 753.5,-77 631.5,-77"/>
<text text-anchor="start" x="639.5" y="-95" font-family="Helvetica,sans-Serif" font-size="10.00">std::vector&lt; mapping</text>
<text text-anchor="middle" x="692.5" y="-84" font-family="Helvetica,sans-Serif" font-size="10.00">::PtrMapping &gt;</text>
</a>
</g>
</g>
<!-- Node3&#45;&gt;Node2 -->
<g id="edge2" class="edge">
<title>Node3&#45;&gt;Node2</title>
<path fill="none" stroke="#9a32cd" stroke-dasharray="5,2" d="M763.91,-84.55C772.02,-83.91 780.19,-83.37 788,-83 823.07,-81.33 831.93,-81.33 867,-83 881.82,-83.7 897.89,-85.03 912.52,-86.44"/>
<polygon fill="#9a32cd" stroke="#9a32cd" points="763.36,-81.09 753.68,-85.41 763.94,-88.06 763.36,-81.09"/>
<text text-anchor="middle" x="827.5" y="-97" font-family="Helvetica,sans-Serif" font-size="10.00"> _fromMappings</text>
<text text-anchor="middle" x="827.5" y="-86" font-family="Helvetica,sans-Serif" font-size="10.00">_toMappings</text>
</g>
<!-- Node4 -->
<g id="node4" class="node">
<title>Node4</title>
<g id="a_node4"><a xlink:title=" ">
<polygon fill="white" stroke="#bfbfbf" points="368,-82.5 368,-101.5 522,-101.5 522,-82.5 368,-82.5"/>
<text text-anchor="middle" x="445" y="-89.5" font-family="Helvetica,sans-Serif" font-size="10.00">std::shared_ptr&lt; Mapping &gt;</text>
</a>
</g>
</g>
<!-- Node4&#45;&gt;Node3 -->
<g id="edge3" class="edge">
<title>Node4&#45;&gt;Node3</title>
<path fill="none" stroke="#9a32cd" stroke-dasharray="5,2" d="M532.33,-92C564.99,-92 601.43,-92 631.19,-92"/>
<polygon fill="#9a32cd" stroke="#9a32cd" points="532.33,-88.5 522.33,-92 532.33,-95.5 532.33,-88.5"/>
<text text-anchor="middle" x="572.5" y="-95" font-family="Helvetica,sans-Serif" font-size="10.00"> elements</text>
</g>
<!-- Node5 -->
<g id="node5" class="node">
<title>Node5</title>
<g id="a_node5"><a xlink:href="classprecice_1_1logging_1_1Logger.html" target="_top" xlink:title="This class provides a lightweight logger.">
<polygon fill="white" stroke="black" points="626,-143.5 626,-162.5 759,-162.5 759,-143.5 626,-143.5"/>
<text text-anchor="middle" x="692.5" y="-150.5" font-family="Helvetica,sans-Serif" font-size="10.00">precice::logging::Logger</text>
</a>
</g>
</g>
<!-- Node5&#45;&gt;Node1 -->
<g id="edge15" class="edge">
<title>Node5&#45;&gt;Node1</title>
<path fill="none" stroke="#9a32cd" stroke-dasharray="5,2" d="M769.15,-150.9C887.61,-147.61 1113.97,-141.33 1216.81,-138.48"/>
<polygon fill="#9a32cd" stroke="#9a32cd" points="768.97,-147.4 759.07,-151.18 769.16,-154.4 768.97,-147.4"/>
<text text-anchor="middle" x="962.5" y="-150" font-family="Helvetica,sans-Serif" font-size="10.00"> _log</text>
</g>
<!-- Node5&#45;&gt;Node2 -->
<g id="edge4" class="edge">
<title>Node5&#45;&gt;Node2</title>
<path fill="none" stroke="#9a32cd" stroke-dasharray="5,2" d="M737.96,-140.71C753.72,-136.49 771.61,-131.87 788,-128 829.92,-118.11 877.88,-108.27 912.73,-101.39"/>
<polygon fill="#9a32cd" stroke="#9a32cd" points="736.69,-137.43 727.95,-143.41 738.51,-144.18 736.69,-137.43"/>
<text text-anchor="middle" x="827.5" y="-131" font-family="Helvetica,sans-Serif" font-size="10.00"> _log</text>
</g>
<!-- Node13 -->
<g id="node13" class="node">
<title>Node13</title>
<g id="a_node13"><a xlink:href="classprecice_1_1mesh_1_1BoundingBox.html" target="_top" xlink:title="An axis&#45;aligned bounding box around a (partition of a) mesh.">
<polygon fill="white" stroke="black" points="885,-182.5 885,-201.5 1040,-201.5 1040,-182.5 885,-182.5"/>
<text text-anchor="middle" x="962.5" y="-189.5" font-family="Helvetica,sans-Serif" font-size="10.00">precice::mesh::BoundingBox</text>
</a>
</g>
</g>
<!-- Node5&#45;&gt;Node13 -->
<g id="edge13" class="edge">
<title>Node5&#45;&gt;Node13</title>
<path fill="none" stroke="#9a32cd" stroke-dasharray="5,2" d="M769.04,-163.99C809.07,-169.82 857.76,-176.9 896.15,-182.49"/>
<polygon fill="#9a32cd" stroke="#9a32cd" points="769.46,-160.52 759.06,-162.54 768.45,-167.44 769.46,-160.52"/>
<text text-anchor="middle" x="827.5" y="-180" font-family="Helvetica,sans-Serif" font-size="10.00"> _log</text>
</g>
<!-- Node6 -->
<g id="node6" class="node">
<title>Node6</title>
<g id="a_node6"><a xlink:title=" ">
<polygon fill="white" stroke="#bfbfbf" points="360,-138 360,-168 530,-168 530,-138 360,-138"/>
<text text-anchor="start" x="368" y="-156" font-family="Helvetica,sans-Serif" font-size="10.00">std::unique_ptr&lt; precice</text>
<text text-anchor="middle" x="445" y="-145" font-family="Helvetica,sans-Serif" font-size="10.00">::logging::Logger::LoggerImpl &gt;</text>
</a>
</g>
</g>
<!-- Node6&#45;&gt;Node5 -->
<g id="edge5" class="edge">
<title>Node6&#45;&gt;Node5</title>
<path fill="none" stroke="#9a32cd" stroke-dasharray="5,2" d="M540.51,-153C568.95,-153 599.53,-153 625.68,-153"/>
<polygon fill="#9a32cd" stroke="#9a32cd" points="540.14,-149.5 530.14,-153 540.14,-156.5 540.14,-149.5"/>
<text text-anchor="middle" x="572.5" y="-156" font-family="Helvetica,sans-Serif" font-size="10.00"> _impl</text>
</g>
<!-- Node7 -->
<g id="node7" class="node">
<title>Node7</title>
<g id="a_node7"><a xlink:href="classprecice_1_1logging_1_1Logger_1_1LoggerImpl.html" target="_top" xlink:title=" ">
<polygon fill="white" stroke="black" points="174,-138 174,-168 307,-168 307,-138 174,-138"/>
<text text-anchor="start" x="182" y="-156" font-family="Helvetica,sans-Serif" font-size="10.00">precice::logging::Logger</text>
<text text-anchor="middle" x="240.5" y="-145" font-family="Helvetica,sans-Serif" font-size="10.00">::LoggerImpl</text>
</a>
</g>
</g>
<!-- Node7&#45;&gt;Node6 -->
<g id="edge6" class="edge">
<title>Node7&#45;&gt;Node6</title>
<path fill="none" stroke="#9a32cd" stroke-dasharray="5,2" d="M317.62,-153C331.37,-153 345.78,-153 359.75,-153"/>
<polygon fill="#9a32cd" stroke="#9a32cd" points="317.25,-149.5 307.25,-153 317.25,-156.5 317.25,-149.5"/>
<text text-anchor="middle" x="333.5" y="-156" font-family="Helvetica,sans-Serif" font-size="10.00"> ptr</text>
</g>
<!-- Node8 -->
<g id="node8" class="node">
<title>Node8</title>
<g id="a_node8"><a xlink:title=" ">
<polygon fill="white" stroke="#bfbfbf" points="0,-127 0,-179 137,-179 137,-127 0,-127"/>
<text text-anchor="start" x="8" y="-167" font-family="Helvetica,sans-Serif" font-size="10.00">boost::log::sources</text>
<text text-anchor="start" x="8" y="-156" font-family="Helvetica,sans-Serif" font-size="10.00">::severity_logger&lt; boost</text>
<text text-anchor="start" x="8" y="-145" font-family="Helvetica,sans-Serif" font-size="10.00">::log::trivial::severity</text>
<text text-anchor="middle" x="68.5" y="-134" font-family="Helvetica,sans-Serif" font-size="10.00">_level &gt;</text>
</a>
</g>
</g>
<!-- Node8&#45;&gt;Node7 -->
<g id="edge7" class="edge">
<title>Node8&#45;&gt;Node7</title>
<path fill="none" stroke="midnightblue" d="M147.22,-153C156.17,-153 165.23,-153 173.99,-153"/>
<polygon fill="midnightblue" stroke="midnightblue" points="147.18,-149.5 137.18,-153 147.18,-156.5 147.18,-149.5"/>
</g>
<!-- Node9 -->
<g id="node9" class="node">
<title>Node9</title>
<g id="a_node9"><a xlink:title=" ">
<polygon fill="white" stroke="#bfbfbf" points="623.5,-38.5 623.5,-57.5 761.5,-57.5 761.5,-38.5 623.5,-38.5"/>
<text text-anchor="middle" x="692.5" y="-45.5" font-family="Helvetica,sans-Serif" font-size="10.00">std::shared_ptr&lt; Mesh &gt;</text>
</a>
</g>
</g>
<!-- Node9&#45;&gt;Node2 -->
<g id="edge8" class="edge">
<title>Node9&#45;&gt;Node2</title>
<path fill="none" stroke="#9a32cd" stroke-dasharray="5,2" d="M771.83,-53.36C801.76,-56.13 836.12,-60.19 867,-66 882.05,-68.83 898.2,-72.89 912.81,-76.95"/>
<polygon fill="#9a32cd" stroke="#9a32cd" points="772.13,-49.88 761.86,-52.47 771.5,-56.85 772.13,-49.88"/>
<text text-anchor="middle" x="827.5" y="-69" font-family="Helvetica,sans-Serif" font-size="10.00"> _mesh</text>
</g>
<!-- Node10 -->
<g id="node10" class="node">
<title>Node10</title>
<g id="a_node10"><a xlink:title=" ">
<polygon fill="white" stroke="#bfbfbf" points="615,-0.5 615,-19.5 770,-19.5 770,-0.5 615,-0.5"/>
<text text-anchor="middle" x="692.5" y="-7.5" font-family="Helvetica,sans-Serif" font-size="10.00">std::vector&lt; m2n::PtrM2N &gt;</text>
</a>
</g>
</g>
<!-- Node10&#45;&gt;Node2 -->
<g id="edge9" class="edge">
<title>Node10&#45;&gt;Node2</title>
<path fill="none" stroke="#9a32cd" stroke-dasharray="5,2" d="M780.61,-12.22C809.89,-16.31 841.55,-24.65 867,-41 878.82,-48.6 873.73,-58.6 885,-67 893.18,-73.1 902.91,-77.75 912.65,-81.28"/>
<polygon fill="#9a32cd" stroke="#9a32cd" points="780.72,-8.71 770.36,-10.95 779.85,-15.66 780.72,-8.71"/>
<text text-anchor="middle" x="827.5" y="-44" font-family="Helvetica,sans-Serif" font-size="10.00"> _m2ns</text>
</g>
<!-- Node11 -->
<g id="node11" class="node">
<title>Node11</title>
<g id="a_node11"><a xlink:title="STL class.">
<polygon fill="white" stroke="#bfbfbf" points="386,-0.5 386,-19.5 504,-19.5 504,-0.5 386,-0.5"/>
<text text-anchor="middle" x="445" y="-7.5" font-family="Helvetica,sans-Serif" font-size="10.00">std::shared_ptr&lt; T &gt;</text>
</a>
</g>
</g>
<!-- Node11&#45;&gt;Node10 -->
<g id="edge10" class="edge">
<title>Node11&#45;&gt;Node10</title>
<path fill="none" stroke="#9a32cd" stroke-dasharray="5,2" d="M514.5,-10C545.64,-10 582.61,-10 614.68,-10"/>
<polygon fill="#9a32cd" stroke="#9a32cd" points="514.18,-6.5 504.18,-10 514.18,-13.5 514.18,-6.5"/>
<text text-anchor="middle" x="572.5" y="-13" font-family="Helvetica,sans-Serif" font-size="10.00"> elements</text>
</g>
<!-- Node12 -->
<g id="node12" class="node">
<title>Node12</title>
<g id="a_node12"><a xlink:title=" ">
<polygon fill="white" stroke="#bfbfbf" points="226,-0.5 226,-19.5 255,-19.5 255,-0.5 226,-0.5"/>
<text text-anchor="middle" x="240.5" y="-7.5" font-family="Helvetica,sans-Serif" font-size="10.00">T</text>
</a>
</g>
</g>
<!-- Node12&#45;&gt;Node11 -->
<g id="edge11" class="edge">
<title>Node12&#45;&gt;Node11</title>
<path fill="none" stroke="#9a32cd" stroke-dasharray="5,2" d="M265.25,-10C294.7,-10 345.9,-10 385.98,-10"/>
<polygon fill="#9a32cd" stroke="#9a32cd" points="265.1,-6.5 255.1,-10 265.1,-13.5 265.1,-6.5"/>
<text text-anchor="middle" x="333.5" y="-13" font-family="Helvetica,sans-Serif" font-size="10.00"> ptr</text>
</g>
<!-- Node13&#45;&gt;Node1 -->
<g id="edge12" class="edge">
<title>Node13&#45;&gt;Node1</title>
<path fill="none" stroke="#9a32cd" stroke-dasharray="5,2" d="M1050.1,-188.9C1095.08,-185.76 1150.61,-179.5 1199,-167 1212.86,-163.42 1227.54,-157.59 1239.93,-152.02"/>
<polygon fill="#9a32cd" stroke="#9a32cd" points="1049.83,-185.41 1040.08,-189.56 1050.29,-192.39 1049.83,-185.41"/>
<text text-anchor="middle" x="1128.5" y="-191" font-family="Helvetica,sans-Serif" font-size="10.00"> _bb</text>
</g>
<!-- Node14 -->
<g id="node14" class="node">
<title>Node14</title>
<g id="a_node14"><a xlink:title=" ">
<polygon fill="white" stroke="#bfbfbf" points="630.5,-210.5 630.5,-229.5 754.5,-229.5 754.5,-210.5 630.5,-210.5"/>
<text text-anchor="middle" x="692.5" y="-217.5" font-family="Helvetica,sans-Serif" font-size="10.00">std::vector&lt; double &gt;</text>
</a>
</g>
</g>
<!-- Node14&#45;&gt;Node13 -->
<g id="edge14" class="edge">
<title>Node14&#45;&gt;Node13</title>
<path fill="none" stroke="#9a32cd" stroke-dasharray="5,2" d="M764.85,-212.55C801.84,-208.68 847.04,-203.96 884.78,-200.02"/>
<polygon fill="#9a32cd" stroke="#9a32cd" points="764.23,-209.09 754.65,-213.61 764.96,-216.05 764.23,-209.09"/>
<text text-anchor="middle" x="827.5" y="-212" font-family="Helvetica,sans-Serif" font-size="10.00"> _bounds</text>
</g>
<!-- Node15 -->
<g id="node15" class="node">
<title>Node15</title>
<g id="a_node15"><a xlink:title=" ">
<polygon fill="white" stroke="#bfbfbf" points="910.5,-38.5 910.5,-57.5 1014.5,-57.5 1014.5,-38.5 910.5,-38.5"/>
<text text-anchor="middle" x="962.5" y="-45.5" font-family="Helvetica,sans-Serif" font-size="10.00">std::vector&lt; int &gt;</text>
</a>
</g>
</g>
<!-- Node15&#45;&gt;Node1 -->
<g id="edge16" class="edge">
<title>Node15&#45;&gt;Node1</title>
<path fill="none" stroke="#9a32cd" stroke-dasharray="5,2" d="M1024.87,-47.44C1073.85,-49.06 1143.26,-56.05 1199,-80 1221.51,-89.67 1242.79,-108.53 1256.08,-121.9"/>
<polygon fill="#9a32cd" stroke="#9a32cd" points="1024.83,-43.94 1014.75,-47.17 1024.65,-50.94 1024.83,-43.94"/>
<text text-anchor="middle" x="1128.5" y="-94" font-family="Helvetica,sans-Serif" font-size="10.00"> _remoteMinGlobalVertexIDs</text>
<text text-anchor="middle" x="1128.5" y="-83" font-family="Helvetica,sans-Serif" font-size="10.00">_remoteMaxGlobalVertexIDs</text>
</g>
</g>
</svg>
        <g id="navigator" transform="translate(0 0)" fill="#404254">
                <rect fill="#f2f5e9" fill-opacity="0.5" stroke="#606060" stroke-width=".5" x="0" y="0" width="60" height="60"/>
                <use id="zoomplus" xlink:href="#zoomPlus" x="17" y="9" onmousedown="handleZoom(evt,'in')"/>
                <use id="zoomminus" xlink:href="#zoomMin" x="42" y="9" onmousedown="handleZoom(evt,'out')"/>
                <use id="reset" xlink:href="#resetDef" x="30" y="36" onmousedown="handleReset()"/>
                <g id="arrowUp" xlink:href="#dirArrow" transform="translate(30 24)" onmousedown="handlePan(0,-1)">
                  <use xlink:href="#rim" fill="#404040">
                        <set attributeName="fill" to="#808080" begin="arrowUp.mouseover" end="arrowUp.mouseout"/>
                  </use>
                  <path fill="none" stroke="white" stroke-width="1.5" d="M0,-3.0v7 M-2.5,-0.5L0,-3.0L2.5,-0.5"/>
                </g>
                <g id="arrowRight" xlink:href="#dirArrow" transform="rotate(90) translate(36 -43)" onmousedown="handlePan(1,0)">
                  <use xlink:href="#rim" fill="#404040">
                        <set attributeName="fill" to="#808080" begin="arrowRight.mouseover" end="arrowRight.mouseout"/>
                  </use>
                  <path fill="none" stroke="white" stroke-width="1.5" d="M0,-3.0v7 M-2.5,-0.5L0,-3.0L2.5,-0.5"/>
                </g>
                <g id="arrowDown" xlink:href="#dirArrow" transform="rotate(180) translate(-30 -48)" onmousedown="handlePan(0,1)">
                  <use xlink:href="#rim" fill="#404040">
                        <set attributeName="fill" to="#808080" begin="arrowDown.mouseover" end="arrowDown.mouseout"/>
                  </use>
                  <path fill="none" stroke="white" stroke-width="1.5" d="M0,-3.0v7 M-2.5,-0.5L0,-3.0L2.5,-0.5"/>
                </g>
                <g id="arrowLeft" xlink:href="#dirArrow" transform="rotate(270) translate(-36 17)" onmousedown="handlePan(-1,0)">
                  <use xlink:href="#rim" fill="#404040">
                        <set attributeName="fill" to="#808080" begin="arrowLeft.mouseover" end="arrowLeft.mouseout"/>
                  </use>
                  <path fill="none" stroke="white" stroke-width="1.5" d="M0,-3.0v7 M-2.5,-0.5L0,-3.0L2.5,-0.5"/>
                </g>
        </g>
        <svg viewBox="0 0 15 15" width="100%" height="30px" preserveAspectRatio="xMaxYMin meet">
         <g id="arrow_out" transform="scale(0.3 0.3)">
          <a xlink:href="classprecice_1_1partition_1_1ReceivedPartition__coll__graph_org.svg" target="_base">
           <rect id="button" ry="5" rx="5" y="6" x="6" height="38" width="38"
                fill="#f2f5e9" fill-opacity="0.5" stroke="#606060" stroke-width="1.0"/>
           <path id="arrow"
             d="M 11.500037,31.436501 C 11.940474,20.09759 22.043105,11.32322 32.158766,21.979434 L 37.068811,17.246167 C 37.068811,17.246167 37.088388,32 37.088388,32 L 22.160133,31.978069 C 22.160133,31.978069 26.997745,27.140456 26.997745,27.140456 C 18.528582,18.264221 13.291696,25.230495 11.500037,31.436501 z"
             style="fill:#404040;"/>
          </a>
         </g>
        </svg>
</svg>
