<?xml version="1.0" encoding="UTF-8" standalone="no"?>
<!DOCTYPE svg PUBLIC "-//W3C//DTD SVG 1.1//EN"
 "http://www.w3.org/Graphics/SVG/1.1/DTD/svg11.dtd">
<!-- Generated by graphviz version 2.43.0 (0)
 -->
<!-- Title: precice::utils::Parallel::finalizeManagedMPI Pages: 1 -->
<svg width="443pt" height="88pt"
 viewBox="0.00 0.00 443.00 88.00" xmlns="http://www.w3.org/2000/svg" xmlns:xlink="http://www.w3.org/1999/xlink">
<g id="graph0" class="graph" transform="scale(1 1) rotate(0) translate(4 84)">
<title>precice::utils::Parallel::finalizeManagedMPI</title>
<polygon fill="white" stroke="transparent" points="-4,4 -4,-84 439,-84 439,4 -4,4"/>
<!-- Node1 -->
<g id="node1" class="node">
<title>Node1</title>
<g id="a_node1"><a xlink:title="Finalized a managed MPI environment.">
<polygon fill="#bfbfbf" stroke="black" points="0,-24.5 0,-54.5 121,-54.5 121,-24.5 0,-24.5"/>
<text text-anchor="start" x="8" y="-42.5" font-family="Helvetica,sans-Serif" font-size="10.00">precice::utils::Parallel</text>
<text text-anchor="middle" x="60.5" y="-31.5" font-family="Helvetica,sans-Serif" font-size="10.00">::finalizeManagedMPI</text>
</a>
</g>
</g>
<!-- Node2 -->
<g id="node2" class="node">
<title>Node2</title>
<g id="a_node2"><a xlink:href="classprecice_1_1utils_1_1Parallel.html#afedc3ff728a0f77d6f89bb377f6eb611" target="_top" xlink:title="Unconditionally finalizes MPI environment.">
<polygon fill="white" stroke="black" points="157,-49.5 157,-79.5 278,-79.5 278,-49.5 157,-49.5"/>
<text text-anchor="start" x="165" y="-67.5" font-family="Helvetica,sans-Serif" font-size="10.00">precice::utils::Parallel</text>
<text text-anchor="middle" x="217.5" y="-56.5" font-family="Helvetica,sans-Serif" font-size="10.00">::finalizeMPI</text>
</a>
</g>
</g>
<!-- Node1&#45;&gt;Node2 -->
<g id="edge1" class="edge">
<title>Node1&#45;&gt;Node2</title>
<path fill="none" stroke="midnightblue" d="M121.43,-49.17C129.82,-50.52 138.49,-51.92 147.04,-53.3"/>
<polygon fill="midnightblue" stroke="midnightblue" points="146.56,-56.76 156.99,-54.9 147.67,-49.85 146.56,-56.76"/>
</g>
<!-- Node3 -->
<g id="node3" class="node">
<title>Node3</title>
<g id="a_node3"><a xlink:href="classprecice_1_1utils_1_1Parallel.html#a1c1615a4226312e45205bcff9120ca84" target="_top" xlink:title=" ">
<polygon fill="white" stroke="black" points="157,-0.5 157,-30.5 278,-30.5 278,-0.5 157,-0.5"/>
<text text-anchor="start" x="165" y="-18.5" font-family="Helvetica,sans-Serif" font-size="10.00">precice::utils::Parallel</text>
<text text-anchor="middle" x="217.5" y="-7.5" font-family="Helvetica,sans-Serif" font-size="10.00">::resetCommState</text>
</a>
</g>
</g>
<!-- Node1&#45;&gt;Node3 -->
<g id="edge2" class="edge">
<title>Node1&#45;&gt;Node3</title>
<path fill="none" stroke="midnightblue" d="M121.43,-30.22C129.82,-28.92 138.49,-27.58 147.04,-26.26"/>
<polygon fill="midnightblue" stroke="midnightblue" points="147.64,-29.7 156.99,-24.71 146.57,-22.79 147.64,-29.7"/>
</g>
<!-- Node4 -->
<g id="node4" class="node">
<title>Node4</title>
<g id="a_node4"><a xlink:href="structprecice_1_1utils_1_1Parallel_1_1CommState.html#a11c87f5cfaad1fb984d9dcd80e6f2c55" target="_top" xlink:title="returns a commstate containing MPI_COMM_WORLD">
<polygon fill="white" stroke="black" points="314,-0.5 314,-30.5 435,-30.5 435,-0.5 314,-0.5"/>
<text text-anchor="start" x="322" y="-18.5" font-family="Helvetica,sans-Serif" font-size="10.00">precice::utils::Parallel</text>
<text text-anchor="middle" x="374.5" y="-7.5" font-family="Helvetica,sans-Serif" font-size="10.00">::CommState::world</text>
</a>
</g>
</g>
<!-- Node3&#45;&gt;Node4 -->
<g id="edge3" class="edge">
<title>Node3&#45;&gt;Node4</title>
<path fill="none" stroke="midnightblue" d="M278.43,-15.5C286.72,-15.5 295.31,-15.5 303.76,-15.5"/>
<polygon fill="midnightblue" stroke="midnightblue" points="303.99,-19 313.99,-15.5 303.99,-12 303.99,-19"/>
</g>
</g>
</svg>
