<?xml version="1.0" encoding="UTF-8" standalone="no"?>
<!DOCTYPE svg PUBLIC "-//W3C//DTD SVG 1.1//EN"
 "http://www.w3.org/Graphics/SVG/1.1/DTD/svg11.dtd">
<!-- Generated by graphviz version 2.43.0 (0)
 -->
<!-- Title: precice::math::geometry::containedInHyperrectangle Pages: 1 -->
<svg width="324pt" height="66pt"
 viewBox="0.00 0.00 324.00 66.00" xmlns="http://www.w3.org/2000/svg" xmlns:xlink="http://www.w3.org/1999/xlink">
<g id="graph0" class="graph" transform="scale(1 1) rotate(0) translate(4 62)">
<title>precice::math::geometry::containedInHyperrectangle</title>
<polygon fill="white" stroke="transparent" points="-4,4 -4,-62 320,-62 320,4 -4,4"/>
<!-- Node1 -->
<g id="node1" class="node">
<title>Node1</title>
<g id="a_node1"><a xlink:title="Tests, if a vertex is contained in a hyperrectangle.">
<polygon fill="#bfbfbf" stroke="black" points="0,-14 0,-44 155,-44 155,-14 0,-14"/>
<text text-anchor="start" x="8" y="-32" font-family="Helvetica,sans-Serif" font-size="10.00">precice::math::geometry</text>
<text text-anchor="middle" x="77.5" y="-21" font-family="Helvetica,sans-Serif" font-size="10.00">::containedInHyperrectangle</text>
</a>
</g>
</g>
<!-- Node2 -->
<g id="node2" class="node">
<title>Node2</title>
<g id="a_node2"><a xlink:href="namespaceprecice_1_1math.html#a0e86802cfe992deba131d789d035b5b7" target="_top" xlink:title="Compares two Eigen::MatrixBase for equality up to tolerance.">
<polygon fill="white" stroke="black" points="192.5,-38.5 192.5,-57.5 314.5,-57.5 314.5,-38.5 192.5,-38.5"/>
<text text-anchor="middle" x="253.5" y="-45.5" font-family="Helvetica,sans-Serif" font-size="10.00">precice::math::equals</text>
</a>
</g>
</g>
<!-- Node1&#45;&gt;Node2 -->
<g id="edge1" class="edge">
<title>Node1&#45;&gt;Node2</title>
<path fill="none" stroke="midnightblue" d="M155.07,-37.36C164.15,-38.35 173.38,-39.36 182.36,-40.34"/>
<polygon fill="midnightblue" stroke="midnightblue" points="182.05,-43.83 192.37,-41.43 182.81,-36.87 182.05,-43.83"/>
</g>
<!-- Node3 -->
<g id="node3" class="node">
<title>Node3</title>
<g id="a_node3"><a xlink:href="namespaceprecice_1_1math.html#abdb7ef543f323c2e8a0d48d1774739e6" target="_top" xlink:title=" ">
<polygon fill="white" stroke="black" points="191,-0.5 191,-19.5 316,-19.5 316,-0.5 191,-0.5"/>
<text text-anchor="middle" x="253.5" y="-7.5" font-family="Helvetica,sans-Serif" font-size="10.00">precice::math::greater</text>
</a>
</g>
</g>
<!-- Node1&#45;&gt;Node3 -->
<g id="edge2" class="edge">
<title>Node1&#45;&gt;Node3</title>
<path fill="none" stroke="midnightblue" d="M155.07,-20.64C163.56,-19.71 172.19,-18.77 180.62,-17.85"/>
<polygon fill="midnightblue" stroke="midnightblue" points="181.22,-21.3 190.78,-16.74 180.46,-14.35 181.22,-21.3"/>
</g>
</g>
</svg>
